<?xml version="1.0" standalone="no"?>
<!DOCTYPE svg PUBLIC "-//W3C//DTD SVG 20010904//EN"
 "http://www.w3.org/TR/2001/REC-SVG-20010904/DTD/svg10.dtd">
<svg version="1.0" xmlns="http://www.w3.org/2000/svg"
 width="3021.000000pt" height="1040.000000pt" viewBox="0 0 3021.000000 1040.000000"
 preserveAspectRatio="xMidYMid meet">
<metadata>
Created by potrace 1.13, written by Peter Selinger 2001-2015
</metadata>
<g transform="translate(0.000000,1040.000000) scale(0.100000,-0.100000)"
fill="#000000" stroke="none">
<path d="M15030 10138 c-107 -5 -235 -13 -285 -18 -123 -14 -162 -17 -295 -25
-63 -3 -130 -10 -148 -15 -19 -5 -40 -6 -48 -3 -7 3 -35 0 -61 -6 -27 -6 -73
-13 -103 -15 -30 -2 -80 -9 -110 -16 -126 -28 -185 -38 -193 -33 -5 3 -27 0
-50 -5 -23 -6 -91 -22 -152 -37 -60 -14 -125 -30 -143 -35 -19 -5 -40 -6 -47
-4 -31 12 -737 -176 -1005 -268 -63 -22 -140 -46 -170 -54 -30 -9 -104 -30
-165 -49 -60 -18 -124 -36 -141 -40 -18 -3 -40 -15 -50 -26 -9 -10 -23 -19
-29 -19 -7 0 -42 -13 -78 -30 -37 -16 -73 -30 -80 -30 -20 0 -117 -40 -147
-61 -14 -9 -60 -29 -103 -43 -43 -14 -90 -35 -105 -46 -15 -11 -60 -31 -101
-46 -82 -28 -146 -59 -155 -73 -4 -5 -36 -19 -74 -31 -37 -12 -74 -28 -83 -36
-9 -8 -65 -39 -125 -70 -59 -30 -115 -61 -124 -69 -8 -7 -28 -17 -45 -21 -35
-8 -102 -47 -150 -87 -18 -15 -48 -32 -67 -39 -18 -6 -46 -22 -61 -35 -16 -12
-37 -23 -47 -23 -11 0 -35 -13 -53 -30 -19 -16 -54 -39 -78 -50 -57 -27 -113
-61 -141 -87 -13 -11 -34 -26 -48 -33 -14 -7 -63 -38 -110 -69 -47 -31 -101
-64 -120 -74 -19 -9 -55 -33 -80 -52 -25 -19 -58 -42 -75 -51 -16 -9 -46 -31
-66 -48 -20 -17 -53 -42 -74 -56 -20 -14 -62 -45 -93 -70 -31 -25 -70 -54 -87
-65 -49 -30 -152 -115 -228 -188 -40 -38 -88 -77 -108 -88 -20 -10 -49 -33
-64 -51 -25 -29 -59 -60 -160 -142 -193 -158 -441 -394 -665 -636 -63 -67
-137 -146 -165 -175 -27 -29 -75 -82 -105 -119 -30 -37 -73 -89 -95 -115 -22
-26 -78 -96 -125 -156 -47 -60 -114 -143 -150 -185 -36 -41 -83 -104 -104
-140 -22 -36 -48 -74 -59 -85 -43 -45 -128 -162 -157 -216 -16 -31 -34 -59
-38 -61 -8 -3 -100 -141 -181 -273 -23 -38 -52 -84 -64 -102 -12 -17 -35 -53
-50 -80 -16 -26 -43 -73 -62 -103 -36 -59 -107 -185 -163 -290 -19 -36 -38
-70 -43 -75 -4 -6 -25 -44 -47 -85 -21 -41 -54 -105 -74 -141 -19 -36 -41 -83
-48 -105 -7 -21 -34 -79 -59 -129 -56 -108 -136 -279 -167 -355 -12 -30 -52
-127 -88 -215 -37 -88 -76 -189 -88 -225 -11 -36 -28 -85 -39 -110 -49 -121
-119 -332 -179 -540 -12 -41 -28 -91 -35 -110 -8 -19 -21 -60 -29 -90 -8 -30
-27 -93 -41 -140 -14 -47 -30 -105 -35 -130 -5 -25 -13 -63 -19 -85 -26 -104
-51 -233 -51 -265 -1 -71 -15 -66 -63 23 -25 46 -53 101 -62 123 -9 21 -24 48
-34 59 -10 11 -41 63 -69 115 -28 53 -63 107 -77 120 -15 14 -36 43 -47 64
-45 87 -281 373 -357 430 -14 11 -58 50 -98 87 -39 36 -105 86 -145 110 -40
23 -113 68 -163 99 -123 77 -166 98 -340 162 -210 77 -430 138 -494 138 -13 0
-40 4 -60 9 -20 5 -83 15 -140 21 -58 6 -118 18 -134 27 -22 11 -35 12 -56 4
-26 -10 -60 -10 -311 4 -121 7 -143 5 -210 -13 -82 -24 -267 -47 -307 -39 -40
7 -222 -27 -288 -55 -33 -14 -100 -36 -150 -49 -49 -12 -112 -35 -140 -50 -27
-15 -68 -32 -90 -39 -22 -7 -44 -16 -50 -20 -5 -5 -30 -19 -55 -33 -255 -139
-324 -187 -485 -334 -129 -119 -175 -165 -216 -218 -191 -244 -220 -287 -326
-480 -48 -86 -143 -285 -143 -298 0 -7 -9 -31 -20 -52 -24 -46 -70 -178 -70
-200 0 -8 -9 -32 -20 -52 -11 -21 -24 -62 -30 -91 -5 -29 -14 -60 -19 -70 -16
-31 -55 -244 -66 -362 -2 -25 -9 -76 -15 -115 -6 -38 -12 -146 -14 -240 -3
-93 -10 -210 -16 -260 -7 -49 -13 -128 -14 -175 l-1 -85 39 -3 c21 -2 43 1 49
7 13 13 152 15 175 2 10 -5 49 -10 87 -12 111 -3 856 10 898 17 28 4 41 12 47
29 5 13 18 29 29 37 17 12 20 29 25 128 14 309 43 477 105 598 11 23 21 52 21
66 0 24 43 106 81 155 11 13 19 32 19 41 0 24 76 166 114 214 88 109 200 232
233 254 21 14 54 39 73 57 19 18 67 54 105 79 39 26 99 69 135 97 176 135 435
205 666 179 107 -12 214 -37 287 -69 30 -13 58 -18 77 -15 21 5 42 -1 74 -20
24 -14 51 -26 59 -26 9 0 28 -7 44 -14 15 -8 35 -17 43 -20 8 -3 44 -24 80
-47 36 -22 79 -47 95 -55 17 -8 46 -24 66 -37 46 -29 319 -305 319 -322 0 -8
15 -26 34 -42 18 -15 41 -41 50 -58 48 -88 79 -143 94 -165 9 -14 40 -74 70
-135 49 -101 68 -147 138 -349 14 -42 23 -92 24 -130 0 -33 0 -78 0 -98 0 -20
5 -40 10 -43 6 -3 10 -42 10 -85 0 -74 -2 -81 -25 -96 -14 -9 -25 -25 -25 -37
0 -26 44 -84 70 -92 12 -4 20 -15 20 -29 0 -13 6 -28 13 -35 9 -7 142 -12 403
-16 214 -2 425 -5 469 -6 44 -1 139 3 210 9 72 6 236 13 365 17 129 4 291 9
360 12 69 2 193 6 275 8 346 9 428 14 445 30 9 8 24 15 33 15 14 0 16 16 16
127 0 71 4 162 10 203 5 41 15 127 21 190 6 63 15 126 20 140 5 14 19 106 30
205 11 99 25 198 29 220 5 22 21 96 35 165 15 68 31 129 36 134 6 6 10 24 10
41 0 18 8 61 19 96 10 35 24 96 31 134 6 39 18 88 25 110 7 22 21 67 30 100
33 122 58 204 105 350 26 83 51 170 55 195 9 58 50 175 74 209 10 14 37 69 61
121 23 52 53 118 65 145 13 28 26 61 30 75 4 14 27 68 52 120 24 52 56 120 70
150 13 30 29 62 33 71 66 127 94 181 115 214 14 22 42 74 64 115 21 41 56 104
76 140 21 36 47 83 59 105 12 22 43 66 69 98 26 32 47 63 47 69 0 15 90 153
157 242 29 38 53 74 53 80 1 6 21 36 45 66 25 30 64 84 89 120 42 62 113 150
176 217 16 18 44 56 62 85 33 55 154 197 318 374 52 57 129 140 170 185 41 45
122 125 180 177 58 52 110 103 115 113 6 9 30 32 54 49 24 18 80 67 125 109
44 43 97 88 116 101 19 13 60 46 90 72 70 61 295 243 350 283 23 17 63 44 88
62 26 18 76 54 111 80 36 26 88 62 117 78 28 17 79 49 112 72 34 24 80 53 104
66 24 13 82 49 130 80 47 31 92 57 100 57 7 0 29 13 48 28 38 31 135 83 215
114 28 11 64 30 81 43 16 13 46 30 65 39 19 8 45 21 59 29 65 37 280 138 325
152 44 14 172 71 247 111 14 8 35 14 45 14 23 0 129 41 193 74 25 13 61 27 80
31 53 10 109 30 165 58 28 14 82 33 120 42 80 20 216 61 260 80 17 7 68 20
115 30 47 9 109 25 139 36 30 11 82 22 115 25 33 3 72 12 86 19 23 12 75 23
210 45 30 5 87 16 125 24 39 9 85 16 102 16 38 0 97 13 208 46 132 39 182 46
375 49 102 2 235 6 295 9 265 14 318 16 460 15 251 -1 424 -7 550 -18 66 -6
165 -13 220 -17 55 -3 154 -14 220 -25 66 -11 131 -19 145 -19 35 1 175 -17
235 -30 28 -6 82 -17 120 -24 148 -30 177 -36 184 -40 4 -3 62 -14 129 -26 67
-11 134 -25 149 -31 15 -5 70 -19 123 -29 52 -11 118 -26 145 -33 28 -8 75
-21 105 -30 30 -8 75 -23 100 -32 25 -9 79 -24 120 -35 90 -22 175 -52 221
-79 19 -10 54 -22 79 -26 25 -4 65 -18 90 -30 25 -13 73 -31 105 -41 33 -9 97
-34 143 -55 46 -22 87 -39 93 -39 5 0 33 -13 62 -29 28 -16 65 -32 81 -35 16
-4 63 -27 105 -51 42 -24 96 -51 121 -61 25 -9 56 -25 70 -34 29 -19 126 -70
185 -96 22 -10 90 -48 150 -84 197 -119 251 -150 262 -150 6 0 34 -19 63 -42
51 -41 75 -56 185 -112 28 -15 75 -47 105 -72 30 -24 80 -61 110 -81 30 -19
66 -46 80 -58 14 -12 61 -47 104 -76 43 -30 111 -83 150 -118 39 -35 83 -71
98 -81 16 -9 45 -32 65 -51 21 -19 63 -53 93 -76 65 -48 155 -126 266 -231 44
-43 142 -135 218 -207 75 -71 165 -161 198 -200 33 -38 98 -109 143 -157 46
-47 91 -99 101 -115 10 -15 39 -50 65 -78 26 -27 68 -81 94 -120 26 -38 64
-88 84 -110 21 -22 47 -56 59 -76 12 -19 31 -44 43 -55 18 -16 111 -147 144
-203 6 -9 30 -41 55 -70 25 -29 65 -88 90 -131 25 -42 70 -115 101 -161 31
-46 60 -95 64 -109 4 -14 18 -38 30 -55 13 -16 32 -48 44 -70 12 -22 40 -69
62 -105 37 -59 62 -103 139 -248 14 -26 41 -74 60 -107 20 -33 48 -89 64 -125
16 -36 41 -87 56 -115 16 -27 33 -66 38 -85 21 -68 44 -125 57 -140 8 -9 26
-52 41 -95 15 -44 34 -91 44 -105 10 -14 21 -41 25 -60 7 -35 38 -118 95 -255
15 -38 39 -106 53 -150 14 -44 38 -123 55 -175 16 -52 35 -120 42 -150 7 -30
21 -82 32 -115 32 -105 50 -172 80 -300 13 -58 38 -200 48 -270 4 -33 17 -98
28 -145 11 -47 26 -130 32 -185 7 -55 17 -120 22 -145 5 -25 13 -81 18 -125 5
-44 16 -145 25 -225 9 -80 17 -206 18 -281 3 -198 -26 -182 322 -173 154 4
334 9 400 10 269 4 547 15 660 24 66 6 229 12 362 15 309 5 309 5 334 62 20
48 25 104 10 131 -5 9 -16 71 -26 137 -14 101 -15 144 -7 270 26 390 142 672
384 931 61 66 125 126 143 134 18 9 57 37 88 63 52 44 272 164 367 199 25 9
74 23 110 31 36 8 92 21 125 29 39 8 128 13 255 13 187 0 201 -1 335 -34 134
-32 285 -92 358 -143 15 -11 40 -23 56 -28 17 -4 60 -30 98 -57 74 -53 275
-248 311 -303 12 -19 46 -66 74 -105 28 -38 61 -92 73 -120 13 -27 37 -74 54
-104 31 -52 91 -244 126 -403 10 -47 18 -125 18 -202 2 -124 1 -125 -27 -151
-19 -18 -26 -31 -21 -43 25 -59 48 -217 39 -263 -12 -58 51 -69 269 -49 76 7
140 7 210 0 56 -6 165 -13 242 -16 77 -2 163 -9 191 -16 39 -8 60 -8 84 1 18
6 96 11 174 12 179 1 201 10 201 85 1 27 4 95 9 152 8 97 7 105 -13 126 -19
20 -21 37 -26 172 -3 82 -9 178 -15 214 -5 36 -14 106 -20 155 -6 50 -15 100
-20 113 -6 13 -10 36 -10 51 0 15 -9 54 -20 87 -12 32 -32 106 -46 164 -14 58
-36 128 -49 155 -13 28 -48 113 -79 190 -30 77 -69 156 -85 177 -17 20 -40 60
-51 90 -21 55 -27 66 -97 166 -24 34 -43 63 -43 66 0 9 -62 89 -153 199 -97
116 -300 323 -375 381 -71 55 -147 113 -209 159 -28 20 -63 53 -77 72 -22 28
-34 35 -62 35 -24 0 -42 8 -57 23 -12 13 -35 26 -52 30 -16 3 -67 26 -111 51
-45 24 -101 50 -125 56 -49 13 -180 82 -199 105 -14 17 -41 20 -57 4 -9 -9
-92 8 -353 77 -104 27 -226 36 -515 37 -224 1 -281 -2 -333 -16 -35 -9 -76
-17 -90 -17 -15 0 -49 -7 -76 -15 -27 -8 -70 -15 -96 -15 -53 0 -335 -88 -378
-118 -15 -11 -56 -29 -91 -41 -35 -12 -98 -42 -141 -66 -42 -25 -80 -45 -84
-45 -3 0 -29 -16 -57 -35 -28 -19 -55 -35 -60 -35 -4 0 -25 -11 -45 -25 -43
-29 -64 -32 -64 -8 0 11 -11 3 -32 -22 -42 -49 -75 -81 -223 -214 -66 -60
-133 -127 -149 -150 -16 -22 -32 -41 -36 -41 -9 0 -40 80 -40 105 0 10 -9 46
-20 79 -10 34 -30 97 -44 141 -56 180 -162 477 -190 530 -9 17 -16 36 -16 43
0 15 -58 158 -101 247 -15 33 -44 100 -64 150 -20 49 -47 109 -60 133 -14 25
-25 49 -25 54 0 6 -9 23 -20 38 -11 16 -40 74 -64 129 -23 55 -48 106 -53 113
-6 7 -34 63 -62 123 -57 124 -56 121 -169 322 -109 192 -124 218 -145 241 -9
10 -17 23 -17 28 0 5 -16 33 -35 61 -19 29 -35 55 -35 58 0 3 -18 32 -39 63
-22 31 -69 104 -105 162 -35 58 -77 119 -91 135 -15 17 -42 55 -61 85 -59 97
-216 307 -244 327 -11 8 -20 20 -20 27 0 7 -14 25 -31 42 -17 16 -50 58 -73
94 -41 62 -158 201 -305 360 -37 41 -97 109 -131 150 -63 75 -163 176 -360
365 -58 55 -118 116 -135 135 -31 37 -91 92 -220 200 -43 36 -112 97 -154 135
-135 123 -214 190 -237 200 -13 6 -51 36 -86 67 -80 72 -206 173 -300 238 -40
27 -93 66 -118 85 -25 19 -95 69 -157 110 -62 42 -115 80 -118 85 -3 6 -23 18
-43 27 -40 19 -102 57 -180 110 -26 17 -74 46 -107 64 -33 17 -74 42 -90 55
-17 13 -55 35 -85 49 -30 14 -91 48 -135 75 -44 28 -85 50 -91 50 -6 0 -23 9
-36 20 -14 10 -91 53 -172 95 -81 41 -159 84 -173 95 -14 11 -31 20 -36 20
-12 0 -127 51 -262 115 -145 70 -226 105 -242 105 -8 0 -32 9 -52 20 -20 11
-61 29 -91 39 -123 43 -221 81 -267 104 -53 27 -303 115 -488 172 -66 20 -155
48 -197 61 -42 13 -86 24 -97 24 -11 0 -50 11 -88 24 -37 13 -99 31 -138 41
-136 33 -190 46 -225 54 -19 4 -51 13 -70 19 -19 6 -64 16 -100 22 -36 7 -110
20 -165 30 -55 10 -129 23 -164 30 -36 6 -69 14 -74 17 -5 3 -41 7 -80 9 -40
2 -90 8 -112 14 -44 12 -208 36 -321 49 -38 4 -75 10 -81 14 -6 4 -51 9 -99
11 -49 3 -138 10 -199 17 -60 6 -166 14 -235 16 -69 2 -152 6 -185 8 -115 9
-732 10 -925 3z m675 -94 c110 -3 245 -7 300 -10 55 -3 150 -6 210 -8 61 -2
136 -9 167 -15 32 -7 110 -16 175 -21 65 -5 145 -14 178 -19 33 -6 107 -15
165 -20 116 -12 170 -20 310 -50 52 -12 107 -21 123 -21 24 0 97 -16 227 -50
78 -20 272 -62 390 -84 69 -13 172 -38 230 -55 58 -17 138 -41 179 -52 41 -11
86 -26 100 -33 14 -7 57 -19 96 -26 38 -7 111 -30 161 -52 51 -21 99 -38 107
-38 8 0 44 -13 79 -29 35 -16 91 -36 124 -45 32 -9 91 -32 129 -51 39 -18 90
-38 115 -45 24 -7 65 -22 90 -35 25 -12 70 -28 100 -35 30 -8 66 -24 80 -36
14 -12 63 -36 109 -53 46 -17 104 -44 130 -60 25 -16 64 -35 86 -42 22 -7 45
-17 52 -22 14 -10 110 -61 178 -95 28 -13 57 -30 65 -37 8 -7 29 -17 47 -23
17 -6 60 -29 95 -52 34 -23 85 -51 113 -62 50 -19 105 -53 158 -95 16 -13 37
-23 47 -23 10 0 31 -11 47 -24 15 -13 48 -33 72 -46 24 -12 79 -45 121 -73 77
-51 103 -68 185 -117 23 -14 56 -34 75 -45 18 -11 51 -34 74 -52 22 -18 59
-42 81 -54 22 -12 56 -36 75 -53 19 -18 57 -45 83 -60 26 -15 80 -57 120 -93
40 -35 90 -74 112 -85 38 -20 106 -75 224 -184 31 -28 72 -62 93 -75 20 -13
81 -64 136 -114 56 -49 155 -135 221 -190 66 -55 122 -108 126 -118 3 -9 23
-29 43 -45 20 -15 56 -45 80 -67 24 -22 48 -42 53 -44 6 -1 37 -37 69 -78 32
-41 78 -89 102 -108 24 -18 61 -57 83 -86 22 -30 65 -80 95 -111 72 -74 151
-165 168 -192 8 -11 31 -34 53 -49 22 -16 46 -44 54 -64 8 -19 33 -53 54 -74
22 -21 47 -52 56 -69 9 -17 52 -74 96 -126 43 -52 79 -98 79 -103 0 -4 18 -28
39 -52 21 -25 46 -61 54 -81 8 -20 31 -53 51 -74 20 -21 36 -41 36 -46 0 -4
22 -33 48 -65 27 -32 55 -69 62 -83 13 -25 61 -102 109 -174 14 -21 30 -46 36
-56 5 -9 23 -37 39 -61 16 -24 47 -78 69 -119 21 -41 45 -82 53 -91 8 -8 14
-20 14 -25 0 -17 52 -109 86 -150 18 -23 43 -66 54 -96 11 -30 31 -69 44 -87
14 -19 28 -46 31 -62 4 -16 11 -31 16 -35 14 -8 106 -199 114 -234 3 -16 20
-48 37 -71 17 -23 39 -62 50 -85 10 -24 33 -69 52 -102 18 -33 39 -83 46 -113
7 -30 19 -63 25 -74 7 -11 20 -46 29 -77 9 -31 20 -60 25 -63 6 -3 22 -31 36
-63 15 -31 54 -111 87 -176 58 -116 72 -152 97 -246 21 -78 49 -162 81 -245
17 -44 47 -143 67 -220 20 -77 44 -156 54 -175 11 -19 19 -44 19 -55 0 -25 27
-65 44 -65 7 0 22 18 35 40 12 21 52 70 88 107 36 37 98 101 137 141 39 40 92
85 118 100 26 15 102 64 168 109 66 46 146 97 178 114 31 18 73 41 92 52 19
10 40 23 45 27 6 5 56 24 111 43 55 19 109 40 120 45 29 17 129 48 229 71 50
12 106 26 125 31 61 17 142 31 237 40 50 5 109 14 130 19 55 15 446 6 560 -13
51 -8 123 -24 160 -35 37 -10 84 -22 103 -26 126 -24 317 -82 349 -107 13 -10
32 -18 43 -18 17 0 122 -45 203 -87 113 -58 235 -129 265 -152 19 -15 52 -37
74 -49 37 -22 64 -43 179 -141 98 -83 323 -306 354 -351 17 -25 45 -58 63 -75
17 -16 40 -47 51 -67 11 -21 32 -52 47 -70 34 -40 112 -170 112 -186 0 -6 13
-26 28 -44 33 -38 88 -150 126 -256 14 -39 32 -82 40 -95 42 -67 153 -477 160
-592 2 -22 8 -74 14 -115 16 -109 29 -244 32 -330 1 -60 6 -79 22 -97 16 -18
19 -30 14 -65 -3 -24 -6 -59 -5 -78 0 -19 -3 -61 -6 -92 l-7 -57 -541 3 c-298
2 -563 4 -588 5 l-46 1 -11 67 c-7 45 -8 106 -2 178 12 163 1 332 -31 475 -26
117 -94 324 -117 358 -10 15 -38 63 -62 107 -52 96 -115 191 -134 202 -7 4
-21 22 -30 40 -42 82 -318 326 -416 368 -71 30 -70 29 -126 66 -77 50 -225
100 -418 139 -113 23 -357 29 -468 11 -142 -23 -310 -74 -400 -122 -20 -10
-43 -19 -50 -19 -8 0 -54 -25 -103 -55 -50 -30 -103 -63 -119 -73 -31 -18
-170 -133 -199 -163 -10 -11 -21 -19 -25 -19 -13 0 -188 -222 -222 -281 -61
-107 -140 -274 -140 -299 0 -15 -4 -30 -8 -35 -28 -31 -94 -414 -93 -535 0
-66 17 -209 36 -305 7 -38 10 -73 7 -76 -5 -5 -335 -18 -562 -22 -14 0 -124
-4 -245 -9 -121 -5 -290 -11 -375 -14 -85 -3 -191 -7 -235 -9 -145 -7 -446 -8
-453 -1 -3 4 -7 49 -8 99 -1 51 -7 128 -13 172 -23 173 -31 252 -31 292 0 23
-7 68 -16 100 -10 32 -16 85 -15 118 1 42 -6 82 -24 134 -14 41 -25 89 -25
106 0 18 -4 45 -10 61 -5 16 -11 58 -13 95 -3 36 -11 78 -19 95 -9 16 -21 70
-28 119 -8 50 -24 119 -38 155 -13 36 -28 90 -32 120 -11 76 -38 169 -60 205
-9 17 -20 55 -23 86 -3 31 -15 73 -26 95 -12 21 -21 55 -21 74 0 19 -14 64
-32 100 -17 36 -44 106 -59 155 -33 111 -69 205 -108 289 -17 35 -31 69 -31
76 0 7 -15 45 -34 84 -19 39 -55 121 -81 181 -72 172 -309 624 -335 640 -5 3
-14 22 -20 43 -7 20 -22 48 -35 62 -12 14 -38 55 -58 92 -20 36 -48 85 -64
109 -15 23 -41 67 -56 97 -24 48 -62 103 -155 227 -12 17 -33 50 -47 75 -29
51 -47 76 -125 175 -30 39 -72 95 -92 125 -20 30 -62 85 -94 122 -55 63 -115
140 -182 233 -16 22 -63 75 -105 118 -41 43 -88 97 -103 118 -15 22 -64 77
-108 122 -45 46 -100 103 -123 127 -23 25 -77 78 -120 118 -43 40 -116 109
-164 155 -89 86 -199 183 -235 207 -35 24 -233 184 -309 249 -92 80 -151 125
-203 159 -24 15 -81 55 -127 89 -45 34 -97 69 -115 78 -17 9 -49 32 -70 51
-21 19 -63 48 -92 63 -29 15 -78 43 -109 62 -100 60 -123 73 -169 99 -43 24
-96 55 -275 160 -44 26 -101 55 -128 64 -26 10 -73 35 -105 56 -32 21 -80 46
-107 56 -28 9 -61 24 -75 34 -27 19 -210 103 -250 115 -14 4 -55 23 -92 41
-37 19 -74 34 -82 34 -8 0 -70 22 -138 50 -68 27 -129 50 -136 50 -8 0 -41 11
-75 24 -34 13 -102 36 -152 51 -49 15 -106 36 -125 46 -19 9 -80 27 -135 39
-55 12 -137 33 -181 46 -45 13 -91 24 -101 24 -27 0 -161 35 -205 53 -19 8
-68 18 -109 22 -41 4 -99 14 -129 22 -30 8 -91 21 -135 28 -96 16 -231 40
-340 60 -75 13 -228 31 -358 40 -32 3 -61 7 -65 9 -4 2 -124 7 -267 11 -143 4
-280 10 -305 15 -48 8 -271 6 -473 -5 -67 -3 -168 -8 -224 -10 -56 -1 -108 -7
-115 -12 -7 -4 -38 -9 -68 -10 -109 -5 -216 -11 -271 -18 -46 -5 -58 -3 -62
10 -9 21 -40 19 -62 -5 -18 -20 -61 -30 -200 -49 -76 -10 -131 -21 -220 -43
-22 -6 -57 -10 -78 -9 -22 0 -91 -14 -155 -33 -65 -18 -151 -41 -192 -51 -73
-16 -222 -59 -268 -76 -13 -5 -34 -9 -47 -9 -39 0 -113 -20 -205 -55 -47 -18
-146 -51 -220 -75 -74 -23 -153 -48 -175 -55 -49 -16 -171 -67 -213 -89 -17
-9 -52 -23 -78 -32 -26 -9 -59 -24 -73 -33 -27 -17 -42 -23 -170 -69 -90 -33
-90 -33 -316 -145 -271 -134 -436 -224 -556 -304 -35 -23 -79 -48 -164 -92
-22 -11 -72 -45 -111 -75 -39 -30 -90 -64 -113 -75 -23 -12 -59 -37 -79 -55
-20 -18 -60 -45 -89 -60 -29 -14 -56 -32 -60 -40 -4 -8 -33 -31 -63 -52 -30
-20 -83 -60 -117 -88 -72 -59 -142 -114 -218 -171 -29 -22 -89 -71 -133 -110
-44 -38 -119 -104 -166 -145 -178 -153 -211 -183 -237 -219 -14 -20 -46 -52
-69 -71 -110 -90 -524 -539 -584 -634 -10 -16 -46 -61 -80 -100 -34 -39 -81
-98 -104 -131 -48 -69 -81 -113 -137 -184 -56 -70 -121 -162 -183 -261 -30
-47 -64 -96 -77 -110 -13 -14 -30 -41 -39 -60 -9 -19 -47 -84 -85 -145 -39
-60 -82 -133 -96 -162 -15 -29 -33 -57 -41 -64 -8 -6 -14 -18 -14 -26 0 -16
-63 -134 -91 -171 -10 -13 -23 -40 -30 -60 -6 -20 -20 -49 -31 -65 -28 -40
-130 -247 -173 -352 -21 -49 -50 -117 -66 -151 -16 -33 -29 -67 -29 -74 0 -8
-9 -32 -19 -54 -45 -95 -211 -540 -211 -565 0 -7 -7 -25 -15 -40 -8 -16 -24
-64 -36 -107 -12 -44 -28 -101 -36 -129 -17 -61 -72 -266 -84 -315 -4 -19 -17
-69 -28 -110 -27 -100 -71 -310 -71 -335 0 -11 -11 -64 -24 -117 -14 -52 -27
-136 -31 -184 -6 -89 -18 -175 -36 -249 -5 -22 -11 -69 -13 -105 -9 -141 -26
-321 -33 -347 -4 -16 -7 -48 -7 -73 l-1 -45 -45 -7 c-25 -4 -81 -7 -125 -7
-44 0 -129 -3 -190 -6 -60 -3 -191 -7 -290 -10 -99 -2 -286 -8 -415 -12 -129
-4 -463 -8 -741 -8 -549 0 -543 -1 -538 54 2 14 -5 38 -15 53 -10 15 -20 44
-22 65 -15 148 -27 221 -44 263 -10 26 -23 77 -29 111 -18 118 -64 242 -113
308 -10 13 -18 32 -18 42 0 35 -165 334 -231 417 -10 14 -19 29 -19 35 0 5
-12 24 -28 43 -15 18 -45 56 -67 85 -89 114 -258 272 -321 300 -22 10 -52 27
-65 38 -39 31 -256 141 -277 141 -11 0 -47 9 -81 20 -117 37 -267 62 -381 63
-111 1 -281 -13 -340 -28 -36 -9 -81 -20 -100 -25 -80 -20 -200 -64 -268 -98
-144 -73 -170 -87 -206 -120 -20 -17 -41 -32 -47 -32 -6 0 -39 -30 -73 -66
-35 -37 -72 -75 -82 -86 -11 -11 -39 -34 -63 -51 -44 -32 -71 -63 -156 -187
-25 -36 -61 -85 -80 -110 -19 -25 -41 -65 -51 -90 -9 -25 -34 -74 -55 -110
-40 -68 -70 -137 -87 -205 -6 -22 -22 -84 -36 -137 -14 -54 -26 -111 -26 -128
0 -17 -9 -67 -21 -111 -21 -80 -20 -179 2 -179 12 0 11 -97 -1 -105 -6 -3 -10
-21 -10 -39 l0 -32 -137 -3 c-76 -1 -330 -3 -566 -4 l-427 -2 -1 60 c-1 33 0
65 2 70 3 11 14 167 27 380 10 155 37 362 56 425 8 25 17 70 21 100 3 30 10
66 14 80 5 14 21 66 36 115 15 50 35 113 45 140 10 28 21 64 25 80 3 17 24 66
45 110 21 44 43 96 49 115 7 19 24 53 38 75 15 22 55 91 89 153 35 63 77 130
95 150 38 45 199 265 199 272 0 3 13 13 29 23 16 9 52 45 81 79 28 35 74 81
101 103 28 22 88 72 134 111 93 78 253 170 480 276 81 37 121 52 230 83 33 9
78 23 100 31 22 7 65 18 95 23 30 6 80 15 110 21 91 18 365 41 530 46 241 6
588 -19 670 -50 8 -3 44 -11 80 -16 154 -25 288 -58 337 -83 15 -8 66 -29 113
-47 169 -63 382 -180 455 -250 22 -21 51 -43 65 -50 55 -29 249 -212 365 -347
126 -145 385 -542 385 -589 0 -7 11 -26 25 -42 14 -17 25 -33 25 -36 0 -4 24
-57 53 -119 30 -62 57 -124 61 -139 6 -27 42 -47 56 -31 13 14 33 96 35 143 1
25 15 97 32 160 17 63 34 135 38 160 4 25 13 55 21 67 8 12 14 36 14 53 0 17
10 65 21 108 12 42 25 91 29 107 19 77 42 145 51 150 5 4 9 16 9 28 0 27 117
432 135 467 7 14 29 72 48 130 51 150 90 255 126 332 17 37 31 73 31 79 0 6 8
23 18 37 10 15 31 65 46 112 15 47 43 113 62 148 19 34 34 68 34 75 0 7 23 59
51 117 62 129 70 145 96 195 11 22 39 81 63 130 23 50 48 101 56 115 8 14 29
52 46 85 17 33 56 103 86 155 31 52 65 113 76 135 10 22 27 49 36 60 10 11 37
54 60 95 24 41 56 98 72 125 16 28 62 97 103 155 42 58 84 124 95 146 11 23
27 47 35 54 9 7 32 39 52 71 20 33 40 59 44 59 5 0 15 14 24 30 21 40 156 220
185 245 12 11 29 33 37 50 9 16 38 55 65 85 26 30 65 78 86 106 20 29 53 73
72 100 19 26 98 117 175 203 77 85 172 191 211 235 111 125 463 475 534 531
35 28 79 66 99 85 20 20 56 51 81 70 39 30 246 212 260 230 3 3 21 17 40 30
19 14 59 46 88 72 29 27 58 48 66 48 7 0 44 26 82 58 109 90 338 259 429 316
33 21 83 53 110 72 28 18 70 46 94 61 24 16 87 57 140 92 53 35 130 82 171
103 41 22 81 45 89 51 7 7 46 30 86 52 40 22 133 73 207 113 191 106 193 107
302 157 54 25 106 45 115 45 9 0 32 11 51 23 52 35 191 107 207 107 8 0 35 9
61 21 26 11 67 30 92 41 25 11 62 29 82 39 42 23 126 54 285 109 61 21 125 46
142 54 37 20 130 52 271 95 58 18 124 41 148 52 23 10 53 19 67 19 13 0 48 9
77 19 95 34 241 78 338 101 52 12 116 29 142 36 26 8 56 14 67 14 12 0 44 9
73 20 29 11 80 25 113 30 84 14 136 24 245 49 53 12 107 21 120 20 14 -1 45 4
70 10 132 31 243 51 310 56 41 3 86 9 100 14 14 5 86 15 160 21 74 7 158 16
185 21 28 6 109 12 180 15 72 3 146 9 166 14 19 6 134 12 253 14 120 3 221 7
224 10 3 3 48 3 101 0 53 -3 186 -8 296 -10z"/>
<path d="M14950 9799 c-19 -4 -96 -11 -170 -14 -74 -4 -166 -13 -205 -21 -38
-8 -87 -12 -107 -9 -20 4 -63 1 -95 -6 -32 -7 -80 -14 -108 -15 -94 -3 -260
-25 -300 -39 -22 -7 -71 -16 -110 -19 -38 -3 -124 -19 -190 -36 -66 -17 -156
-35 -200 -41 -91 -11 -225 -42 -303 -70 -29 -10 -64 -19 -77 -19 -13 0 -59
-11 -102 -25 -43 -14 -92 -25 -108 -25 -17 0 -39 -6 -50 -14 -21 -14 -120 -43
-192 -55 -23 -4 -48 -12 -55 -18 -7 -5 -42 -18 -78 -27 -36 -10 -90 -29 -120
-41 -30 -13 -68 -27 -85 -30 -70 -17 -179 -56 -196 -71 -10 -9 -35 -20 -56
-25 -21 -4 -60 -15 -88 -25 -27 -9 -75 -26 -105 -36 -30 -11 -73 -28 -95 -38
-94 -44 -253 -110 -295 -121 -25 -7 -54 -21 -66 -31 -12 -10 -52 -30 -90 -44
-38 -13 -85 -35 -104 -48 -19 -12 -49 -27 -66 -33 -17 -6 -50 -25 -73 -41 -23
-17 -57 -34 -74 -37 -18 -4 -52 -19 -77 -35 -25 -15 -74 -43 -110 -62 -36 -20
-99 -55 -140 -78 -41 -23 -85 -46 -98 -51 -12 -5 -76 -43 -141 -84 -65 -41
-123 -75 -129 -75 -5 0 -16 -7 -23 -17 -8 -9 -36 -27 -64 -40 -27 -13 -75 -40
-106 -61 -31 -20 -75 -49 -97 -65 -23 -15 -42 -31 -42 -36 0 -5 -15 -14 -32
-22 -18 -7 -46 -23 -63 -36 -16 -13 -52 -39 -80 -57 -113 -73 -251 -169 -281
-194 -17 -15 -58 -46 -90 -69 -33 -23 -91 -70 -131 -105 -40 -35 -100 -85
-134 -113 -304 -245 -978 -902 -1081 -1053 -9 -13 -42 -53 -74 -89 -33 -36
-82 -91 -111 -123 -28 -32 -57 -68 -64 -81 -6 -13 -37 -55 -68 -94 -31 -38
-66 -83 -79 -100 -12 -16 -41 -54 -65 -84 -46 -59 -86 -114 -162 -224 -27 -40
-61 -85 -76 -102 -14 -16 -49 -69 -78 -116 -29 -48 -72 -110 -97 -139 -24 -28
-44 -56 -44 -62 0 -6 -26 -48 -58 -92 -32 -45 -63 -94 -70 -109 -7 -16 -25
-45 -41 -65 -16 -20 -50 -75 -76 -122 -25 -47 -56 -98 -69 -115 -28 -38 -76
-146 -76 -172 0 -10 -4 -23 -9 -28 -15 -18 -92 -168 -138 -270 -24 -55 -59
-131 -78 -169 -19 -37 -35 -74 -35 -81 0 -7 -12 -30 -26 -51 -15 -21 -33 -56
-41 -78 -7 -22 -20 -47 -27 -56 -18 -20 -64 -132 -80 -195 -7 -27 -27 -81 -45
-118 -17 -38 -31 -75 -31 -83 0 -7 -9 -28 -20 -46 -11 -18 -20 -40 -20 -49 0
-9 -11 -36 -24 -60 -14 -24 -32 -79 -40 -121 -17 -83 -40 -157 -106 -338 -22
-63 -47 -140 -55 -170 -8 -30 -25 -83 -39 -118 -13 -34 -38 -119 -55 -190 -17
-70 -36 -145 -42 -167 -6 -22 -14 -60 -18 -85 -5 -25 -16 -72 -25 -105 -9 -33
-19 -87 -22 -120 -3 -33 -12 -76 -19 -95 -8 -19 -21 -87 -30 -150 -9 -63 -21
-134 -26 -157 -5 -23 -9 -58 -9 -77 0 -19 -4 -45 -9 -58 -5 -13 -15 -51 -22
-86 -7 -35 -18 -69 -25 -76 -17 -17 -137 -12 -143 6 -2 7 -12 19 -23 26 -12 9
-18 26 -18 52 0 21 -5 42 -10 45 -6 3 -10 20 -10 36 0 22 -9 39 -30 57 -31 27
-39 59 -19 79 15 15 -1 61 -68 195 -29 59 -53 111 -53 115 -1 5 -9 26 -20 48
-11 22 -19 44 -20 49 0 5 -24 48 -54 95 -30 47 -68 115 -86 151 -18 36 -42 79
-54 95 -12 17 -26 38 -31 47 -6 10 -55 84 -109 165 -73 108 -125 172 -192 238
-125 121 -339 305 -354 305 -4 0 -27 16 -51 35 -24 19 -47 35 -51 35 -4 0 -31
14 -60 31 -211 126 -337 180 -508 220 -47 10 -107 26 -135 34 -27 9 -74 20
-103 25 -30 5 -57 12 -61 14 -25 16 -346 36 -497 33 -244 -7 -525 -34 -583
-57 -26 -10 -69 -21 -97 -25 -27 -4 -76 -20 -109 -35 -33 -16 -82 -35 -110
-43 -66 -20 -271 -119 -323 -157 -23 -16 -46 -30 -51 -30 -5 0 -39 -20 -75
-45 -37 -25 -69 -45 -72 -45 -4 0 -24 -15 -45 -32 -20 -18 -66 -55 -100 -83
-89 -71 -236 -219 -294 -296 -28 -36 -67 -88 -88 -115 -60 -76 -102 -142 -148
-229 -23 -44 -55 -100 -72 -124 -29 -42 -37 -60 -97 -221 -15 -41 -37 -93 -49
-115 -12 -21 -21 -52 -21 -68 0 -15 -9 -45 -20 -67 -11 -22 -20 -48 -20 -59 0
-11 -6 -26 -14 -33 -7 -8 -17 -33 -21 -56 -3 -22 -13 -46 -20 -52 -8 -6 -16
-44 -20 -88 -4 -42 -13 -107 -21 -144 -17 -82 -33 -337 -33 -538 -1 -102 1
-104 146 -107 65 -1 159 -4 208 -7 50 -2 98 0 108 6 12 6 29 6 50 -1 25 -9 42
-8 82 5 95 31 90 27 87 72 -3 34 1 43 22 57 32 21 43 56 56 178 11 92 18 131
55 295 8 37 19 86 24 109 5 23 16 54 25 67 9 14 22 49 30 78 8 29 30 82 50
116 20 35 36 72 36 81 0 10 12 28 26 42 14 13 39 49 54 80 16 30 43 74 62 97
18 23 49 62 68 88 19 26 44 57 55 68 11 12 39 46 62 76 24 30 62 72 85 92 114
100 135 117 168 133 19 9 49 30 65 45 17 15 64 44 105 65 41 21 86 44 100 52
26 14 73 36 125 58 17 6 62 19 100 28 39 9 129 31 200 48 122 30 198 38 410
40 60 1 211 -22 285 -44 47 -14 101 -28 120 -32 19 -4 67 -17 105 -30 39 -12
83 -26 99 -30 33 -7 123 -68 194 -131 26 -23 74 -55 107 -72 40 -21 97 -67
173 -141 63 -61 117 -111 122 -111 4 0 23 -24 41 -52 19 -29 55 -78 80 -108
26 -31 54 -71 63 -89 10 -18 39 -65 66 -105 61 -91 130 -216 130 -236 0 -9 21
-58 47 -110 58 -117 119 -287 143 -400 4 -19 15 -54 25 -78 10 -25 15 -56 12
-75 -3 -21 1 -38 11 -50 9 -11 17 -39 18 -65 1 -26 3 -57 3 -68 1 -12 21 -42
45 -68 l43 -47 270 2 c191 1 275 -2 291 -10 16 -9 27 -9 42 -1 20 11 83 8 161
-6 21 -3 53 -1 75 6 24 8 105 14 204 16 162 3 207 6 520 39 85 9 195 18 244
21 50 2 91 6 93 8 3 3 5 116 2 151 -3 45 21 305 36 380 8 44 20 109 26 145 6
36 15 79 20 96 5 17 9 44 9 60 0 16 5 45 11 64 6 19 12 55 14 80 4 63 15 131
25 155 5 11 11 36 13 55 3 19 15 60 27 90 12 30 26 78 30 105 4 28 15 68 23
90 9 22 21 73 27 112 5 40 25 119 44 175 18 57 39 123 46 148 7 25 22 70 32
100 11 30 45 129 75 220 30 91 74 208 99 260 24 52 44 106 44 120 0 14 11 42
24 61 14 20 28 49 32 65 4 16 15 45 24 64 49 98 110 230 110 237 0 5 8 24 19
43 10 19 22 50 25 67 4 18 12 35 17 39 5 3 22 31 37 62 66 135 202 392 240
452 23 36 49 79 58 95 9 17 39 64 67 105 27 40 54 88 60 105 5 16 19 41 31 55
33 37 67 87 119 171 26 42 57 85 68 95 12 10 25 28 29 39 4 11 37 59 73 107
36 47 72 100 81 116 9 17 27 39 40 49 13 11 35 35 48 54 133 197 814 938 941
1025 18 12 53 44 78 70 53 57 144 135 177 153 13 7 64 47 113 89 196 169 255
216 406 316 28 19 71 52 94 73 23 21 57 47 75 58 52 32 176 116 209 142 49 40
136 93 160 99 13 3 41 20 62 38 21 18 56 41 78 53 22 11 56 28 75 38 19 10 42
24 50 31 19 16 169 94 181 94 5 0 27 13 48 28 21 15 69 41 107 56 38 16 78 37
89 47 11 10 40 25 63 33 24 9 56 25 72 36 15 11 32 20 36 20 14 0 139 52 229
95 50 24 126 57 170 73 101 38 247 97 302 123 23 11 63 26 90 33 26 8 113 37
193 66 80 29 172 58 205 65 33 7 80 20 105 28 131 47 436 120 609 147 35 6 87
17 115 25 28 7 87 19 131 25 78 10 194 29 325 51 36 6 85 12 110 14 25 2 83 8
130 13 47 6 97 8 111 5 14 -3 62 2 105 11 43 8 144 20 224 26 163 12 643 16
825 7 66 -3 181 -9 255 -12 276 -12 469 -26 546 -41 43 -8 144 -23 224 -34 80
-11 168 -24 195 -30 28 -6 80 -15 118 -20 37 -5 75 -14 85 -18 9 -5 44 -13 77
-16 33 -4 102 -19 152 -32 51 -14 119 -29 151 -34 31 -6 86 -21 122 -35 35
-14 73 -25 84 -25 11 0 58 -12 105 -26 138 -42 463 -147 496 -160 68 -27 142
-53 181 -63 23 -6 95 -36 160 -67 65 -31 142 -63 169 -71 28 -8 73 -30 101
-48 53 -35 158 -85 179 -85 6 0 33 -13 58 -30 26 -16 67 -43 91 -58 37 -24
179 -96 306 -156 19 -9 87 -44 150 -78 63 -34 134 -72 158 -84 23 -12 66 -40
95 -61 29 -21 59 -41 68 -45 23 -9 149 -96 175 -120 12 -10 35 -27 50 -36 16
-9 44 -26 63 -37 18 -11 69 -49 113 -85 44 -36 100 -79 125 -97 25 -17 57 -43
72 -57 15 -14 32 -26 38 -26 6 0 60 -43 121 -95 61 -52 114 -95 119 -95 4 0
45 -34 91 -75 45 -41 87 -75 92 -75 5 0 37 -28 71 -62 35 -35 73 -70 87 -79
13 -9 79 -71 146 -138 68 -66 128 -121 133 -121 5 0 16 -12 25 -27 9 -16 62
-75 117 -133 56 -58 127 -136 158 -173 32 -38 81 -94 109 -125 28 -31 57 -68
64 -82 7 -14 31 -43 53 -65 22 -22 73 -84 114 -137 41 -54 78 -98 83 -98 5 0
17 -14 26 -32 9 -17 38 -59 64 -92 76 -98 249 -346 263 -377 3 -8 26 -45 51
-84 25 -38 64 -101 87 -140 22 -38 53 -87 68 -109 45 -67 80 -128 127 -223 25
-51 49 -95 55 -98 5 -4 16 -21 24 -38 8 -18 24 -45 35 -62 11 -16 23 -37 27
-45 50 -113 88 -189 126 -257 25 -46 49 -93 53 -105 3 -13 12 -30 19 -38 7 -8
24 -53 40 -100 15 -47 36 -99 46 -117 11 -17 27 -55 35 -84 9 -29 22 -62 29
-73 7 -12 20 -43 28 -71 8 -27 26 -75 39 -105 13 -30 30 -75 37 -100 7 -25 21
-72 33 -105 11 -33 27 -82 35 -110 8 -27 26 -84 39 -126 13 -42 24 -85 24 -95
0 -10 11 -48 25 -84 54 -146 122 -388 140 -507 2 -11 8 -36 13 -55 15 -47 44
-202 51 -273 4 -33 10 -66 14 -72 9 -15 35 -163 48 -278 5 -44 13 -110 19
-147 5 -37 10 -100 11 -140 1 -76 8 -139 29 -246 13 -67 48 -109 79 -96 23 9
192 22 374 28 87 3 162 8 167 11 5 3 102 8 217 11 277 7 257 7 353 1 103 -6
225 8 264 31 l28 17 3 230 c2 187 6 252 24 349 32 170 58 263 80 292 11 14 25
42 32 62 6 20 17 43 23 51 6 8 22 35 36 62 82 156 269 384 384 466 28 20 76
61 107 92 74 75 150 129 213 155 29 12 65 29 79 39 15 9 30 17 33 17 4 0 26 9
48 19 23 11 75 29 116 41 41 12 95 28 120 37 57 18 331 52 429 53 77 0 134 -8
311 -41 155 -30 324 -89 440 -154 14 -8 48 -25 75 -39 28 -13 65 -36 84 -50
19 -14 41 -26 49 -26 12 0 134 -106 275 -240 106 -100 209 -234 253 -329 8
-18 24 -46 36 -61 11 -15 39 -74 63 -131 24 -57 54 -131 68 -164 31 -75 57
-181 57 -232 0 -22 7 -62 15 -89 8 -28 16 -114 20 -199 3 -82 8 -171 11 -196
6 -43 9 -47 45 -59 28 -10 67 -11 146 -5 134 10 154 10 278 0 108 -10 215 -10
282 0 38 6 43 9 48 39 9 47 -2 404 -14 459 -6 25 -13 83 -16 129 -6 84 -12
110 -64 278 -51 164 -82 250 -116 325 -12 28 -25 63 -29 80 -4 16 -21 47 -37
69 -16 22 -29 44 -29 50 0 11 -74 137 -107 181 -12 17 -28 45 -36 63 -7 18
-41 63 -74 101 -34 37 -73 85 -87 106 -26 38 -199 219 -299 312 -91 86 -225
193 -288 229 -32 19 -61 39 -64 44 -4 6 -36 24 -73 40 -37 17 -80 38 -97 46
-134 73 -176 94 -220 107 -28 9 -90 30 -140 48 -90 32 -107 37 -220 65 -165
42 -412 74 -555 73 -134 -2 -339 -22 -425 -43 -33 -8 -87 -19 -120 -26 -218
-42 -395 -105 -665 -234 -19 -9 -49 -26 -67 -39 -17 -12 -55 -35 -83 -52 -73
-43 -142 -91 -219 -156 -36 -30 -87 -70 -112 -87 -26 -17 -62 -51 -80 -74 -17
-24 -47 -59 -66 -78 -18 -19 -59 -67 -91 -107 -31 -39 -79 -99 -106 -132 -27
-33 -66 -91 -88 -130 -37 -67 -58 -88 -58 -57 0 7 -15 60 -34 117 -49 153 -50
156 -26 176 32 28 25 49 -16 44 -14 -2 -59 99 -72 164 -6 28 -22 86 -36 130
-14 44 -31 98 -37 120 -6 22 -17 55 -25 73 -8 18 -14 42 -14 53 0 11 -6 32
-14 47 -7 15 -32 82 -55 150 -22 67 -59 160 -80 205 -21 45 -44 100 -51 122
-7 22 -30 77 -51 123 -22 45 -39 88 -39 95 0 27 -79 223 -115 287 -8 14 -57
113 -110 220 -53 107 -103 209 -112 225 -9 17 -28 53 -41 80 -13 28 -32 59
-42 70 -9 11 -25 41 -34 67 -10 26 -22 51 -28 54 -5 4 -24 36 -42 73 -33 68
-56 106 -135 224 -25 37 -61 97 -80 133 -20 35 -53 88 -73 117 -21 28 -59 86
-86 127 -26 41 -64 100 -84 132 -21 31 -66 91 -101 135 -34 43 -77 98 -94 123
-17 25 -48 66 -69 90 -20 25 -46 64 -56 87 -10 24 -27 47 -36 52 -28 15 -199
211 -248 284 -24 36 -57 74 -75 84 -17 10 -38 32 -47 49 -10 18 -96 115 -193
215 -97 101 -196 206 -220 233 -60 67 -608 564 -684 621 -22 16 -70 54 -106
85 -37 30 -100 80 -140 110 -40 30 -92 72 -115 93 -22 20 -46 37 -51 37 -6 0
-39 22 -74 48 -35 27 -91 65 -124 85 -33 20 -82 54 -110 76 -27 22 -94 65
-147 95 -53 31 -119 74 -145 95 -27 21 -71 48 -98 60 -27 12 -65 34 -84 49
-111 84 -609 351 -881 471 -14 6 -45 22 -70 36 -25 13 -54 25 -66 25 -11 0
-35 11 -52 24 -18 13 -60 31 -94 41 -35 9 -78 28 -98 41 -19 13 -41 24 -50 24
-8 0 -55 21 -104 45 -50 25 -100 45 -112 45 -12 0 -47 13 -77 29 -31 16 -82
34 -114 40 -32 7 -71 18 -88 25 -101 45 -169 69 -325 119 -192 61 -359 107
-389 107 -10 0 -49 11 -85 25 -37 14 -80 25 -97 25 -16 0 -45 6 -63 14 -18 7
-57 17 -87 21 -29 4 -71 14 -93 21 -21 8 -55 14 -75 14 -21 0 -57 6 -82 14
-67 21 -136 35 -224 46 -44 6 -93 15 -110 20 -59 18 -641 84 -656 74 -5 -3
-35 0 -66 7 -32 6 -78 13 -103 15 -25 2 -112 8 -195 14 -175 12 -1094 19
-1145 9z m532 -126 c25 -15 39 -35 61 -88 34 -85 53 -102 79 -68 45 57 100
101 146 116 65 22 80 21 120 -3 42 -26 41 -49 -8 -105 -45 -52 -46 -57 -24
-79 20 -21 70 -20 119 3 88 40 193 56 525 82 212 17 556 5 715 -25 92 -17 217
-59 254 -85 14 -10 38 -21 53 -24 55 -14 116 -47 198 -108 47 -34 110 -81 140
-103 54 -40 146 -130 365 -357 157 -163 367 -352 455 -411 41 -28 86 -59 100
-68 145 -98 233 -149 305 -176 125 -49 130 -50 299 -74 129 -19 379 21 471 74
77 46 121 191 75 249 -35 44 -110 87 -152 87 -55 0 -133 -36 -163 -76 -27 -36
-52 -44 -61 -20 -6 16 42 106 57 106 5 0 9 7 9 15 0 19 -15 19 -82 -3 -79 -26
-145 -68 -171 -108 -26 -40 -53 -52 -74 -32 -11 11 -11 21 -3 42 24 64 21 66
-102 66 -62 1 -131 5 -153 10 -22 5 -60 13 -85 19 -108 23 -283 116 -388 205
-46 39 -103 85 -128 103 -24 17 -57 42 -73 55 -39 31 -221 234 -221 246 0 16
58 -2 139 -42 81 -40 103 -40 126 2 20 37 47 67 72 81 47 25 194 3 265 -39 19
-10 62 -27 98 -36 36 -9 79 -24 95 -34 17 -10 46 -21 65 -25 19 -4 66 -23 105
-42 62 -32 67 -37 51 -48 -9 -7 -44 -18 -78 -24 -72 -12 -185 7 -225 39 -32
25 -78 26 -87 3 -4 -10 2 -28 14 -46 17 -22 19 -31 10 -43 -20 -23 -28 -17
-66 42 -19 30 -43 58 -52 61 -9 4 -28 15 -41 25 -38 29 -97 24 -132 -11 -37
-37 -37 -66 0 -139 30 -59 87 -119 138 -145 67 -34 187 -77 217 -77 17 0 56
-6 86 -14 30 -8 67 -12 81 -9 14 2 50 1 80 -4 64 -11 189 -3 312 21 48 9 138
18 200 19 96 2 128 -2 222 -27 61 -16 126 -37 145 -47 95 -51 167 -159 156
-235 -4 -32 -1 -48 12 -64 18 -22 19 -22 51 -6 22 12 61 18 120 19 98 2 115
-5 138 -61 22 -52 2 -82 -70 -104 -32 -10 -70 -27 -84 -38 -19 -15 -35 -19
-58 -14 -43 8 -137 -21 -165 -51 -17 -18 -34 -25 -62 -25 -22 0 -51 -6 -66
-14 -35 -17 -104 -25 -278 -32 -142 -6 -158 -4 -394 40 -95 18 -223 60 -251
82 -8 6 -29 16 -47 22 -17 6 -57 31 -88 57 -31 25 -61 45 -68 45 -7 0 -35 16
-62 35 -27 19 -55 35 -61 35 -7 0 -30 15 -50 33 -21 18 -90 67 -153 109 -63
43 -150 111 -193 152 -42 42 -84 76 -91 76 -27 0 -28 -21 -2 -74 43 -89 30
-149 -36 -167 -55 -14 -86 -5 -135 42 -48 44 -67 77 -77 130 -7 39 -38 79 -61
79 -8 0 -21 -13 -29 -29 -9 -16 -32 -42 -53 -58 -60 -46 -113 -58 -253 -57
-120 1 -127 2 -190 34 -116 58 -212 135 -397 318 -259 256 -382 325 -572 321
-158 -3 -270 -47 -331 -130 -40 -56 -45 -86 -21 -139 31 -71 71 -103 133 -107
75 -6 120 19 132 72 5 22 11 42 12 44 2 2 24 -9 49 -23 41 -25 45 -30 45 -66
0 -27 7 -47 20 -60 25 -25 31 -25 63 0 32 26 110 50 159 50 50 0 136 -19 144
-32 4 -6 -12 -27 -35 -49 -36 -32 -41 -41 -32 -57 13 -24 32 -32 78 -32 46 0
169 -59 207 -99 34 -35 32 -36 -61 -17 -37 7 -115 19 -173 25 -58 7 -148 19
-200 28 -52 9 -111 15 -130 14 -32 -1 -171 27 -246 50 -17 5 -38 9 -47 9 -23
0 -196 79 -236 108 -40 30 -65 83 -56 123 4 16 2 29 -3 29 -23 0 -86 -33 -120
-64 -50 -44 -73 -55 -167 -80 -83 -22 -237 -29 -243 -11 -2 5 23 16 55 25 32
9 78 27 103 40 117 62 200 114 250 155 30 25 60 45 65 45 6 0 27 12 46 26 19
14 59 38 89 53 30 15 73 37 95 49 124 66 217 89 399 98 88 4 113 2 132 -11 13
-8 45 -20 72 -25 49 -9 207 -92 246 -129 33 -31 95 -47 113 -29 11 12 11 21
-3 59 -10 28 -14 56 -10 72 5 23 12 27 40 27 50 0 114 -31 174 -85 49 -44 52
-50 52 -95 0 -76 35 -89 79 -30 26 36 67 40 102 11 l24 -20 -35 -33 c-19 -18
-44 -50 -55 -70 -18 -36 -18 -39 -2 -92 14 -42 29 -65 70 -102 104 -94 150
-104 245 -56 75 38 106 76 121 150 23 117 -22 215 -171 370 -49 51 -181 135
-283 180 -62 27 -185 64 -290 87 -44 9 -93 22 -110 28 -39 13 -433 18 -505 6
-96 -16 -293 -66 -385 -97 -127 -44 -250 -95 -284 -118 -20 -13 -41 -24 -47
-24 -6 0 -27 -13 -47 -29 -20 -15 -51 -34 -69 -42 -29 -11 -79 -49 -193 -143
-90 -75 -163 -130 -228 -172 -40 -25 -81 -54 -92 -64 -22 -19 -56 -32 -225
-83 -196 -60 -232 -68 -350 -76 -117 -8 -318 7 -375 29 -14 5 -50 10 -79 10
-29 0 -66 4 -82 9 -16 5 -67 14 -114 21 -63 9 -103 22 -152 48 -57 31 -70 35
-95 26 -20 -7 -28 -16 -28 -33 0 -25 1 -26 84 -62 88 -39 101 -88 33 -123 -42
-22 -168 -22 -216 -2 -53 24 -83 14 -103 -32 -22 -48 -102 -132 -126 -132 -10
0 -30 -6 -45 -14 -48 -25 -405 -8 -457 21 -92 52 -457 167 -582 183 -180 23
-383 -13 -548 -97 -79 -40 -169 -113 -190 -153 -25 -49 -55 -149 -55 -187 0
-44 33 -116 65 -142 58 -45 190 -28 240 30 36 43 41 88 16 143 l-20 46 22 21
c17 16 30 19 59 15 60 -10 88 -27 109 -68 15 -29 25 -38 45 -38 39 0 61 16 74
55 13 38 58 82 96 91 13 4 38 1 54 -6 25 -10 30 -18 30 -45 0 -26 -8 -39 -37
-62 -44 -36 -40 -55 17 -72 39 -12 45 -11 72 9 54 39 233 79 280 61 22 -8 21
-9 -17 -25 -22 -10 -67 -24 -100 -33 -33 -8 -69 -23 -80 -33 -11 -10 -60 -33
-110 -51 -49 -18 -103 -43 -120 -55 -30 -22 -180 -76 -245 -89 -19 -3 -53 -12
-75 -20 -110 -36 -121 -37 -200 -27 -69 9 -82 15 -114 46 -20 20 -47 36 -59
36 -29 0 -53 -40 -63 -103 -4 -29 -16 -76 -26 -105 -17 -53 -77 -142 -100
-150 -16 -5 -17 36 -2 75 32 83 48 181 53 322 5 131 9 158 31 210 14 33 25 67
25 75 0 37 59 130 123 193 45 46 116 103 126 103 7 0 40 13 74 30 115 55 201
71 407 73 116 1 209 -3 250 -11 36 -7 79 -15 95 -18 22 -4 38 0 54 13 34 28
18 73 -29 89 -41 14 -48 29 -20 44 26 14 174 -1 212 -21 15 -8 37 -30 50 -49
29 -43 51 -48 75 -19 45 56 63 69 95 69 50 0 62 -13 60 -59 -3 -49 15 -115 37
-135 24 -22 131 -56 174 -56 41 0 89 20 125 54 61 55 69 139 22 233 -35 69
-51 86 -105 109 -22 9 -49 24 -60 35 -27 24 -160 79 -194 79 -14 0 -66 8 -116
18 -140 28 -433 11 -535 -31 -14 -5 -41 -13 -60 -18 -56 -12 -176 -56 -217
-78 -21 -11 -68 -34 -105 -50 -38 -16 -87 -43 -110 -59 -24 -16 -69 -46 -101
-68 -71 -47 -237 -201 -237 -220 0 -7 -16 -28 -35 -45 -19 -18 -35 -38 -35
-46 0 -7 -18 -31 -40 -54 -24 -25 -44 -57 -50 -83 -6 -22 -15 -49 -21 -59 -36
-64 -99 -197 -104 -222 -19 -84 -136 -338 -208 -450 -55 -87 -198 -256 -259
-307 -29 -25 -72 -55 -95 -68 -24 -13 -43 -27 -43 -32 0 -4 -18 -17 -39 -28
-22 -11 -44 -26 -48 -32 -17 -26 -97 -81 -145 -100 -27 -10 -61 -26 -76 -36
-27 -17 -53 -29 -132 -56 -105 -36 -168 -50 -224 -48 -100 2 -154 -48 -88 -82
52 -27 65 -50 57 -104 -5 -41 -13 -55 -43 -79 -73 -59 -97 -64 -177 -36 -47
16 -49 16 -66 -6 -10 -12 -21 -47 -24 -79 -12 -97 -58 -188 -131 -259 -35 -35
-69 -63 -74 -63 -6 0 -32 -15 -59 -33 -26 -19 -77 -44 -112 -56 -35 -13 -80
-29 -99 -36 -65 -24 -165 -53 -225 -64 -91 -18 -251 -69 -335 -108 -164 -77
-330 -214 -380 -313 -27 -55 -60 -173 -62 -227 -3 -62 34 -139 81 -170 46 -31
132 -32 162 -2 28 28 49 81 49 124 0 42 32 80 58 70 66 -28 82 -14 79 69 -2
52 3 72 28 121 17 33 42 66 57 74 28 16 31 15 100 -41 35 -27 50 -16 73 55 26
80 58 115 142 154 41 19 79 33 85 31 5 -2 -11 -28 -36 -58 -168 -199 -319
-385 -381 -470 -74 -100 -105 -139 -159 -197 -32 -34 -68 -66 -80 -69 -11 -4
-37 -20 -56 -35 -20 -16 -56 -33 -83 -38 -70 -13 -77 -22 -77 -106 0 -170 -95
-284 -139 -165 -31 84 -90 56 -76 -36 8 -57 -11 -156 -42 -218 -33 -66 -81
-136 -93 -136 -16 0 -11 100 8 196 13 62 18 118 15 184 -7 178 -4 227 22 334
14 59 25 122 25 140 0 40 43 166 76 221 13 23 24 47 24 54 0 6 16 34 35 62 19
28 35 57 35 64 0 7 23 43 50 80 28 37 50 72 50 76 0 8 36 51 127 151 31 35
164 128 228 160 28 14 80 36 117 48 115 38 138 81 68 125 -22 14 -40 33 -40
43 0 39 22 92 47 112 34 27 72 25 117 -5 20 -14 50 -25 66 -25 29 0 30 2 30
43 1 58 32 122 70 142 39 20 53 12 45 -27 -14 -61 3 -117 50 -163 38 -39 48
-43 101 -48 49 -3 68 0 113 22 66 32 98 72 113 144 10 47 9 61 -6 101 -23 61
-97 141 -159 172 -68 35 -203 44 -273 20 -27 -10 -74 -24 -104 -32 -30 -8 -64
-24 -75 -34 -11 -10 -38 -26 -60 -36 -22 -9 -48 -23 -58 -32 -11 -9 -38 -28
-62 -42 -139 -79 -368 -308 -538 -535 -40 -53 -66 -97 -120 -200 -49 -92 -101
-234 -116 -315 -7 -36 -17 -83 -23 -105 -48 -183 -76 -440 -77 -715 -1 -129
-6 -274 -11 -321 -6 -47 -10 -110 -11 -140 -1 -30 -5 -65 -9 -79 -4 -14 -13
-63 -19 -110 -22 -160 -72 -357 -113 -445 -55 -117 -143 -271 -201 -355 -37
-52 -84 -119 -105 -148 -20 -30 -44 -59 -53 -65 -9 -7 -25 -25 -35 -42 -48
-76 -99 -134 -161 -185 -160 -131 -167 -152 -49 -148 66 3 76 1 109 -25 20
-15 37 -36 37 -45 0 -9 -17 -36 -39 -60 -30 -32 -46 -42 -70 -42 -36 0 -36 1
-16 -64 9 -31 15 -90 15 -158 0 -95 -3 -117 -26 -171 -15 -34 -36 -75 -48 -92
-11 -16 -25 -37 -31 -46 -27 -44 -100 -126 -129 -144 -30 -19 -92 -75 -220
-200 -69 -68 -110 -168 -110 -275 -1 -66 3 -83 34 -144 37 -73 39 -74 148
-107 53 -16 119 11 165 67 31 40 37 54 37 96 0 43 -5 53 -41 93 l-42 45 47 0
c79 0 86 8 86 100 0 92 9 119 57 178 42 51 58 42 42 -24 -12 -47 -39 -177 -45
-219 -49 -317 -70 -357 -204 -404 -99 -34 -103 -52 -26 -122 31 -28 56 -60 56
-70 0 -16 -7 -14 -47 17 -25 19 -62 43 -82 54 -60 30 -165 147 -202 225 -30
63 -34 81 -37 174 -6 152 8 207 74 299 30 42 53 83 52 91 -2 12 -21 18 -70 23
-69 6 -96 16 -118 43 -11 13 -10 19 9 39 39 41 111 71 168 68 49 -2 53 0 59
24 4 14 1 37 -5 50 -15 33 -14 74 2 74 6 0 23 -9 37 -20 34 -27 44 -25 129 18
70 34 77 42 108 99 32 61 38 90 35 180 -3 56 -43 102 -123 138 -59 26 -65 27
-118 15 -79 -17 -95 -27 -194 -121 -156 -145 -262 -314 -317 -504 -46 -160
-47 -275 -5 -445 8 -30 17 -81 20 -112 6 -63 15 -87 82 -226 39 -81 61 -110
160 -212 65 -68 109 -121 103 -125 -16 -10 -142 34 -170 60 -14 12 -36 28 -49
35 -36 19 -111 91 -138 132 -29 47 -55 49 -81 5 -34 -55 -105 -152 -144 -197
-33 -38 -46 -45 -115 -62 -104 -25 -190 -18 -227 19 -14 14 -26 30 -26 35 0
15 29 20 59 10 37 -13 150 0 162 19 5 8 9 29 9 46 0 26 -6 36 -29 48 -41 21
-68 58 -88 121 -15 50 -15 56 -1 70 15 15 18 14 33 -17 27 -53 76 -110 102
-120 14 -5 42 -5 73 2 41 9 56 19 95 64 65 76 72 118 56 321 -7 88 -13 193
-12 234 3 171 36 370 72 440 10 19 30 60 45 90 14 30 47 80 72 110 87 102 254
269 275 276 12 3 51 34 87 68 87 81 195 177 246 218 48 38 381 388 428 449 17
23 40 56 51 73 11 18 36 55 56 82 50 68 114 181 129 228 7 22 21 53 31 70 9
17 22 50 29 74 6 23 24 71 41 107 39 86 52 190 47 388 -5 171 -17 220 -76 317
-35 56 -122 138 -161 151 -59 20 -140 16 -188 -9 -42 -22 -109 -97 -140 -156
-33 -64 -12 -210 43 -297 27 -43 95 -74 163 -74 40 0 47 4 103 63 33 35 62 62
64 59 3 -2 2 -28 -2 -56 -9 -67 -53 -138 -99 -157 -38 -16 -59 -46 -50 -73 3
-10 24 -37 46 -60 36 -37 41 -46 36 -76 -8 -46 -31 -79 -72 -101 -42 -22 -62
-14 -86 35 -25 52 -60 66 -79 31 -8 -15 -5 -37 11 -91 18 -60 21 -87 16 -163
-3 -50 -11 -107 -17 -126 -49 -143 -143 -341 -183 -380 -14 -14 -47 -55 -72
-90 -43 -59 -67 -87 -148 -167 -81 -82 -258 -234 -304 -263 -16 -9 -64 -56
-108 -105 -44 -48 -102 -111 -128 -140 -27 -30 -52 -66 -56 -82 -11 -42 -45
-38 -49 5 -3 26 8 50 46 110 27 42 57 100 66 127 19 57 91 137 140 156 77 31
84 63 26 126 -67 72 -83 121 -76 230 4 63 13 107 30 145 13 29 29 77 35 106 6
30 22 73 36 96 14 24 25 49 25 56 0 15 40 76 146 225 112 156 151 259 161 421
6 98 23 150 41 128 18 -19 35 -124 28 -170 -3 -26 -24 -80 -46 -120 -22 -40
-40 -80 -40 -89 0 -18 45 -38 70 -30 23 7 50 -20 50 -49 0 -12 -10 -42 -23
-66 -16 -34 -34 -51 -70 -70 -80 -41 -85 -77 -18 -122 39 -27 67 -98 50 -130
-12 -22 -23 -23 -40 -2 -21 26 -66 44 -109 44 -35 0 -48 -7 -91 -47 -28 -26
-62 -69 -76 -96 -21 -41 -23 -57 -18 -105 10 -88 32 -145 70 -182 32 -31 40
-34 112 -38 l78 -4 40 39 c22 21 68 63 102 94 52 46 68 68 92 129 57 140 75
244 75 445 0 249 -18 424 -62 580 -12 43 -17 99 -17 195 0 118 3 143 24 197
41 108 142 200 273 249 24 9 61 22 83 31 22 8 43 20 47 26 5 7 5 42 2 79 -5
56 -3 74 15 112 17 34 29 46 52 51 27 6 37 1 94 -54 91 -87 105 -82 124 44 19
124 30 178 45 224 14 43 27 90 60 216 8 28 17 67 20 88 20 111 140 360 202
418 14 13 33 37 41 53 16 30 117 153 233 281 84 94 171 164 309 248 25 16 57
39 71 52 32 29 293 161 425 214 103 42 275 81 440 101 83 9 151 19 355 49 41
6 111 15 155 20 151 18 431 121 558 205 64 42 110 84 174 157 49 56 97 115
108 132 10 18 34 52 52 77 38 52 83 144 102 210 7 25 19 60 27 78 24 56 18
182 -11 254 -28 69 -57 104 -125 151 -40 29 -53 32 -116 32 -65 0 -76 -3 -123
-35 -98 -66 -127 -169 -77 -268 29 -58 97 -122 129 -122 22 0 47 -16 47 -31 0
-15 -75 -53 -99 -51 -15 1 -41 10 -58 19 -30 16 -34 16 -49 1 -15 -15 -15 -20
1 -68 12 -36 16 -68 12 -102 -11 -91 -88 -188 -148 -188 -26 0 -32 6 -49 46
-11 25 -20 56 -20 69 0 13 -5 27 -10 30 -15 10 -40 -14 -40 -38 0 -66 -144
-222 -259 -282 -53 -27 -215 -33 -279 -10 -47 17 -52 17 -76 2 -14 -9 -36 -36
-50 -59 -53 -89 -136 -111 -338 -90 -60 7 -110 7 -129 2 -36 -11 -53 -5 -42
15 5 7 40 40 80 73 88 74 141 92 283 99 58 3 109 9 113 13 5 4 4 17 -2 28 -6
11 -18 52 -26 91 -17 81 -15 91 47 196 51 86 63 101 113 137 21 16 62 50 90
76 27 25 73 62 100 81 28 18 75 54 105 78 53 43 128 88 135 81 2 -2 -22 -42
-53 -90 -31 -48 -64 -100 -73 -115 -10 -18 -41 -42 -83 -64 -36 -19 -69 -42
-72 -52 -3 -11 6 -30 25 -53 34 -38 38 -56 17 -73 -10 -8 -24 -7 -56 4 -52 18
-70 14 -122 -33 -54 -49 -71 -85 -63 -133 8 -44 37 -73 103 -103 37 -17 50
-18 95 -9 92 19 138 42 208 106 81 73 135 156 161 246 11 36 30 106 44 155 14
49 43 127 64 173 22 46 40 87 40 90 0 13 113 144 153 177 49 40 146 86 182 86
13 0 35 4 49 9 38 15 154 -6 197 -35 67 -46 99 -26 74 47 -22 63 -19 84 27
155 42 68 79 94 131 94 35 0 71 -43 63 -74 -3 -15 -9 -37 -12 -49 -6 -24 16
-57 38 -57 5 0 51 39 101 86 51 47 116 108 144 135 29 27 57 49 63 49 5 0 33
20 62 45 29 24 69 57 88 73 19 16 72 50 118 75 45 25 93 54 106 65 61 47 379
162 451 162 20 0 57 9 83 20 112 46 393 49 557 5 55 -15 118 -31 140 -35 22
-4 78 -22 125 -40 103 -38 237 -85 305 -107 28 -9 91 -33 140 -54 50 -20 122
-47 160 -59 39 -12 86 -28 105 -36 19 -9 64 -20 100 -24 36 -5 117 -18 180
-30 164 -30 332 -30 480 -1 136 28 281 74 330 106 20 12 59 34 88 49 69 35
110 73 184 169 163 215 181 394 45 462 -64 32 -126 33 -176 3 -150 -91 -184
-173 -111 -276 16 -23 30 -47 30 -52 0 -5 -12 -18 -27 -30 -32 -25 -82 -23
-164 7 -49 17 -79 13 -79 -11 0 -19 -14 -51 -43 -100 -16 -27 -36 -44 -67 -57
-58 -23 -79 -23 -135 1 l-47 20 -61 -26 c-98 -41 -197 -57 -362 -58 -226 -3
-373 24 -701 128 -78 25 -174 54 -215 65 -113 31 -170 48 -219 67 -34 13 -79
18 -183 19 -75 1 -138 5 -140 10 -2 8 30 20 183 71 201 66 315 61 468 -22 71
-38 101 -42 126 -15 21 23 11 51 -19 51 -37 0 -55 10 -71 41 -19 38 -5 65 38
74 18 4 47 12 65 18 35 12 54 3 121 -57 63 -57 74 -56 143 14 73 72 113 94
222 121 45 12 87 24 92 29 11 8 85 18 185 24 36 3 78 9 94 16 16 6 106 17 200
25 94 8 190 18 214 21 28 4 42 3 42 -4 0 -27 -132 -72 -239 -81 -61 -5 -76
-10 -88 -28 -14 -21 -12 -25 26 -62 43 -43 47 -51 31 -81 -7 -14 -26 -20 -73
-25 -54 -6 -70 -4 -105 14 -74 38 -113 18 -79 -41 14 -24 14 -29 1 -42 -20
-20 -81 -31 -113 -20 -22 8 -25 15 -23 41 4 39 -22 87 -55 102 -13 6 -53 11
-88 11 -54 0 -68 -4 -96 -27 -89 -75 -77 -243 21 -293 21 -11 55 -31 74 -44
34 -22 40 -23 178 -18 92 3 155 10 178 19 19 8 82 32 140 54 130 48 143 55
205 98 87 60 155 124 202 190 25 35 75 93 112 130 61 62 72 68 146 89 44 12
98 28 120 35 63 21 235 15 277 -10z m4879 -1642 c27 14 139 11 194 -7 28 -9
82 -22 120 -29 75 -15 119 -26 232 -56 40 -10 80 -19 89 -19 10 0 41 -13 69
-29 29 -16 68 -33 88 -36 40 -8 160 -82 285 -177 46 -35 97 -73 114 -85 105
-77 224 -187 270 -250 61 -84 115 -152 155 -195 24 -26 49 -60 55 -75 7 -15
30 -48 51 -73 22 -25 46 -61 54 -80 8 -19 21 -42 28 -50 7 -8 21 -44 30 -80 9
-36 24 -76 34 -90 36 -50 68 -125 76 -174 4 -28 16 -73 27 -100 46 -116 94
-315 83 -345 -6 -14 5 -69 40 -206 17 -65 46 -201 53 -245 2 -19 11 -44 18
-55 7 -11 16 -42 19 -70 11 -74 150 -443 189 -499 11 -16 29 -46 40 -67 61
-112 225 -291 353 -384 119 -87 156 -108 281 -159 104 -43 119 -46 200 -46 72
0 95 4 132 24 56 29 99 102 106 179 4 46 0 61 -33 127 -45 88 -80 112 -181
118 -55 4 -67 1 -101 -22 -25 -18 -49 -48 -68 -87 l-30 -60 -18 27 c-30 46
-34 79 -18 136 10 37 25 62 50 84 32 28 34 33 23 53 -12 24 -13 24 -97 1 -58
-17 -123 -5 -172 31 -43 30 -52 58 -26 79 34 28 3 64 -61 73 -22 2 -76 20
-119 38 -130 57 -208 152 -97 118 22 -6 52 -9 66 -5 21 5 26 12 26 38 0 25
-11 42 -53 83 -29 28 -80 70 -113 92 -75 51 -171 153 -211 225 -42 74 -107
289 -132 438 -23 130 -29 156 -55 230 -15 41 -31 96 -36 122 -10 52 -22 79
-44 98 -10 7 -16 29 -16 54 0 24 -8 53 -20 71 -11 17 -25 47 -30 67 -6 20 -21
50 -34 65 -51 62 -33 95 27 49 19 -14 39 -26 45 -26 5 0 31 -29 56 -64 25 -35
50 -66 55 -68 41 -14 135 -205 160 -326 12 -53 26 -118 32 -144 9 -39 7 -61
-12 -138 -21 -83 -21 -95 -8 -119 23 -41 46 -38 98 13 61 60 104 74 211 68 97
-5 185 -41 217 -88 10 -15 41 -52 69 -83 28 -31 58 -69 67 -86 9 -16 34 -50
57 -75 23 -25 51 -62 62 -83 11 -22 38 -62 61 -91 23 -28 53 -69 66 -91 13
-22 32 -49 41 -60 10 -11 21 -31 25 -44 7 -23 6 -24 -26 -17 -77 15 -176 81
-203 135 -8 14 -17 45 -21 69 -10 59 -30 64 -69 19 l-31 -37 -40 23 c-53 30
-78 78 -70 138 8 67 -12 81 -65 45 -68 -45 -79 -33 -49 58 l21 65 -19 38 c-40
76 -129 98 -203 49 -60 -40 -77 -74 -79 -159 -1 -118 20 -169 110 -259 42 -42
98 -88 125 -101 106 -54 186 -98 222 -122 20 -14 43 -25 50 -25 8 0 26 -8 40
-19 15 -10 66 -37 113 -59 48 -23 108 -58 135 -78 26 -20 64 -46 85 -58 71
-41 175 -126 232 -191 94 -105 147 -247 147 -395 0 -88 -15 -136 -56 -176 -37
-38 -39 -45 -23 -76 10 -19 17 -20 99 -14 l88 7 34 -43 c79 -97 78 -146 -5
-152 -84 -7 -78 -42 21 -138 93 -91 196 -213 246 -291 20 -31 51 -73 69 -94
37 -42 68 -91 97 -152 11 -23 29 -55 41 -70 39 -50 72 -106 85 -145 8 -21 23
-53 34 -71 11 -18 20 -44 20 -58 0 -15 6 -41 14 -59 57 -136 64 -160 106 -344
10 -45 23 -97 28 -115 18 -58 30 -153 22 -175 -5 -12 -4 -41 2 -65 6 -27 8
-130 5 -264 -6 -230 -21 -344 -55 -413 -11 -20 -22 -49 -26 -64 -3 -14 -17
-40 -31 -56 -36 -43 -29 -92 13 -92 7 0 73 59 145 131 73 73 146 141 163 153
65 45 170 117 201 139 73 52 249 162 292 184 61 30 246 177 337 268 87 86 154
216 154 298 -1 133 -99 232 -209 212 -69 -12 -114 -48 -146 -114 -27 -57 -28
-65 -17 -106 16 -59 15 -74 -3 -81 -9 -4 -23 4 -36 20 -22 28 -50 34 -67 13
-7 -8 -10 -48 -9 -98 2 -95 -14 -155 -44 -164 -29 -10 -48 11 -51 58 -2 34 -7
43 -24 45 -31 4 -56 -32 -62 -88 -7 -74 -47 -115 -136 -140 -38 -11 -73 -17
-77 -14 -11 6 -1 34 21 59 10 11 32 46 50 78 18 31 41 63 51 70 10 8 24 27 31
44 29 68 264 315 367 385 93 63 123 76 216 89 86 12 96 8 167 -57 26 -24 55
-44 65 -44 10 0 74 58 143 128 69 70 155 149 192 175 72 52 238 137 266 137
10 0 28 7 41 16 65 46 323 65 426 32 148 -47 250 -96 315 -151 82 -69 172
-161 196 -199 15 -23 40 -53 58 -67 17 -14 56 -48 86 -76 58 -52 106 -72 226
-94 79 -14 99 -14 169 4 73 19 99 43 125 111 19 52 19 54 1 109 -24 72 -51
101 -113 119 -86 25 -131 -1 -152 -87 -9 -37 -30 -34 -41 5 -9 29 -14 33 -45
32 -19 -1 -48 -4 -65 -8 -20 -5 -36 -3 -49 7 -29 21 -12 53 46 84 62 34 77 55
58 78 -10 12 -23 15 -50 10 -48 -8 -145 20 -164 46 -7 11 -35 34 -62 52 -44
28 -47 32 -26 35 13 2 36 -1 50 -6 15 -5 54 -17 87 -27 33 -9 74 -21 90 -27
17 -5 76 -25 132 -43 56 -19 119 -45 140 -59 21 -14 42 -26 47 -26 8 0 117
-49 176 -79 8 -4 27 -23 43 -43 38 -47 47 -128 22 -193 -18 -49 -92 -115 -127
-115 -10 0 -24 -11 -30 -25 -17 -38 0 -49 71 -46 33 1 69 -3 80 -9 11 -5 48
-13 83 -16 35 -3 104 -19 153 -34 50 -15 115 -33 145 -40 30 -7 66 -21 80 -30
14 -10 42 -25 62 -33 87 -36 256 -240 300 -362 67 -186 81 -309 55 -485 -8
-47 -21 -99 -30 -117 -9 -18 -17 -37 -17 -43 0 -6 -19 -50 -42 -98 -60 -127
-91 -287 -68 -356 13 -40 52 -91 82 -107 35 -19 130 -29 169 -19 53 15 89 70
89 138 0 46 -4 57 -36 92 -20 22 -32 40 -28 41 5 1 20 2 34 2 37 3 37 43 0
118 -26 51 -30 66 -21 86 6 12 19 23 30 23 39 0 45 24 27 106 -15 71 -14 148
4 159 11 7 75 -212 99 -341 17 -91 13 -213 -8 -303 -20 -83 -25 -92 -99 -177
l-44 -49 -106 1 c-144 1 -163 7 -209 63 -52 61 -53 63 -69 129 -16 70 -17 128
-3 190 5 26 15 67 21 92 9 42 36 112 78 205 10 22 21 56 25 75 4 19 17 65 30
101 13 37 21 76 18 87 -3 11 0 37 7 57 10 31 10 40 -2 51 -19 20 -44 9 -58
-25 -15 -38 -90 -88 -163 -111 l-61 -19 -46 26 c-25 14 -63 29 -85 32 -36 5
-40 9 -48 44 -6 25 -22 48 -47 68 -21 17 -52 54 -71 82 -68 107 -288 343 -388
418 -50 37 -35 53 45 46 54 -4 75 -12 130 -47 43 -29 72 -56 84 -80 28 -55 49
-59 85 -16 35 41 63 46 92 14 25 -27 29 -50 19 -101 -10 -51 5 -67 60 -67 44
0 53 -7 34 -26 -17 -17 -29 -108 -20 -148 9 -41 58 -99 103 -123 16 -8 53 -14
83 -14 45 0 59 4 94 32 65 53 74 73 72 164 -1 44 -8 98 -15 120 -47 146 -164
278 -315 354 -83 42 -304 100 -422 112 -118 11 -174 24 -270 60 -41 16 -86 29
-99 29 -22 0 -117 43 -246 113 -115 61 -230 145 -314 226 -68 66 -90 81 -110
79 -23 -3 -27 -10 -37 -61 -13 -63 -33 -100 -73 -135 -110 -97 -210 -142 -313
-142 -31 0 -77 -6 -100 -14 -24 -8 -56 -16 -73 -20 -111 -22 -344 -102 -405
-138 -124 -73 -134 -22 -12 61 97 65 156 91 211 91 41 0 53 4 65 23 13 19 13
29 -1 80 -16 57 -16 57 8 83 22 24 29 26 91 22 57 -3 72 -8 96 -31 15 -15 36
-27 45 -27 22 0 36 29 30 63 -6 32 15 89 31 84 6 -2 15 -19 20 -37 6 -19 31
-56 56 -82 60 -62 73 -62 199 -4 34 16 63 89 65 162 1 54 -3 67 -30 105 -21
29 -56 58 -102 85 -66 37 -77 40 -155 42 -68 1 -95 -3 -143 -22 -32 -13 -74
-27 -93 -31 -32 -7 -120 -45 -151 -65 -8 -5 -58 -35 -110 -66 -72 -43 -120
-82 -200 -164 -182 -186 -177 -179 -222 -316 -33 -103 -52 -141 -109 -226 -78
-116 -191 -252 -229 -276 -14 -9 -34 -24 -45 -33 -96 -83 -214 -173 -251 -192
-16 -8 -42 -30 -59 -47 -16 -18 -51 -43 -77 -56 -26 -13 -75 -44 -110 -69 -35
-25 -80 -57 -100 -70 -60 -40 -292 -275 -321 -326 -72 -124 -89 -277 -43 -381
20 -45 37 -64 90 -102 83 -59 129 -62 202 -13 68 46 87 76 91 144 5 77 -34
152 -84 165 -38 10 -42 30 -11 52 31 22 54 20 92 -9 42 -32 64 -32 72 1 5 18
0 34 -16 56 -18 25 -21 40 -18 79 6 62 21 79 69 79 46 0 79 -27 79 -65 0 -28
27 -45 40 -25 4 6 10 34 13 61 6 52 43 138 89 206 33 49 56 58 33 13 -8 -16
-15 -37 -15 -47 0 -9 -11 -58 -24 -108 -13 -49 -34 -126 -46 -170 -12 -44 -30
-117 -40 -161 -29 -126 -65 -189 -152 -259 -40 -33 -86 -66 -103 -73 -16 -8
-77 -15 -135 -18 l-105 -4 -70 39 c-38 22 -89 59 -112 83 -35 36 -45 54 -54
103 -13 70 -23 85 -55 85 -25 0 -46 -31 -58 -87 -18 -83 -133 -123 -189 -65
-23 24 -57 98 -57 123 0 5 25 36 55 69 77 84 73 103 -26 113 -139 13 -251 132
-304 320 -11 40 -11 74 1 210 20 236 41 338 135 642 42 136 59 229 75 404 14
153 14 197 4 255 -46 270 -119 430 -262 579 -55 56 -70 66 -117 76 -66 14
-128 6 -197 -24 -104 -46 -172 -176 -147 -283 27 -113 32 -124 81 -172 68 -66
117 -75 203 -34 50 24 65 37 86 77 29 51 49 60 62 25 13 -37 21 -102 13 -113
-21 -29 -84 -65 -114 -65 -87 0 -72 -74 23 -113 51 -21 96 -80 111 -145 11
-52 11 -56 -11 -73 -42 -34 -72 -35 -93 -5 -28 37 -56 51 -74 35 -22 -18 -17
-50 16 -98 17 -24 30 -48 30 -53 0 -5 12 -26 28 -45 24 -32 27 -45 26 -103 -2
-65 -35 -160 -59 -167 -17 -5 -70 146 -176 501 -22 76 -54 171 -71 210 -16 39
-36 89 -43 111 -7 22 -20 54 -28 70 -9 17 -32 72 -51 123 -31 82 -36 105 -36
181 0 111 19 173 65 221 53 54 45 71 -36 85 -105 17 -157 63 -146 131 5 32 2
40 -26 66 -104 96 -125 121 -169 209 -57 112 -71 149 -58 149 18 0 168 -81
185 -100 9 -10 31 -22 49 -26 17 -3 40 -14 51 -25 11 -10 36 -25 55 -33 19 -8
55 -29 80 -46 25 -16 49 -30 53 -30 4 0 31 -17 60 -39 29 -21 70 -48 92 -59
23 -11 59 -38 82 -59 22 -21 88 -80 147 -132 58 -52 116 -110 128 -129 12 -20
49 -72 82 -116 120 -160 174 -305 201 -537 19 -161 15 -348 -10 -457 -20 -87
-19 -119 4 -132 16 -8 28 -3 66 30 53 46 78 50 100 16 13 -20 14 -34 4 -94
-11 -64 -21 -88 -61 -144 -20 -28 2 -53 46 -53 59 0 78 -47 51 -130 -13 -42
-24 -58 -51 -74 -19 -11 -34 -27 -34 -34 0 -8 13 -34 30 -58 23 -35 30 -55 30
-96 0 -47 -2 -53 -21 -53 -11 0 -41 9 -66 21 -86 39 -188 25 -213 -29 -45 -98
-46 -204 -3 -278 42 -73 162 -109 264 -80 139 41 272 261 298 493 6 48 11 167
11 263 1 185 -8 247 -63 460 -14 52 -31 122 -37 155 -14 70 -112 306 -145 350
-12 17 -39 64 -59 105 -20 41 -48 92 -63 113 -78 108 -144 195 -168 222 -14
17 -43 54 -63 84 -55 79 -227 266 -277 301 -25 17 -48 36 -52 44 -4 7 -24 24
-44 37 -20 13 -98 66 -174 117 -76 52 -176 114 -223 138 -47 25 -105 59 -130
76 -25 17 -75 46 -111 65 -122 63 -141 77 -357 265 -101 89 -241 289 -280 402
-8 22 -25 61 -38 86 -13 25 -29 70 -36 100 -7 30 -25 87 -41 125 -15 39 -35
99 -44 135 -9 36 -25 94 -36 130 -10 36 -28 115 -40 175 -11 61 -27 120 -36
133 -22 36 -54 25 -80 -28 -36 -71 -74 -100 -133 -100 -43 0 -54 4 -84 34 -72
73 -87 201 -32 282 14 21 26 49 26 61 0 30 -34 48 -68 35 -140 -51 -255 -46
-357 13 -47 28 -145 126 -145 147 0 7 -9 24 -20 38 -32 41 -23 42 35 5 30 -19
58 -35 63 -35 5 0 15 -7 22 -15 7 -9 34 -30 59 -47 40 -28 56 -33 121 -36 l75
-4 56 44 c59 45 126 140 149 211 6 20 12 79 13 130 0 79 -4 105 -32 186 -38
109 -110 259 -149 310 -65 86 -206 243 -242 268 -21 15 -57 42 -80 58 -23 17
-70 53 -103 81 -34 27 -91 67 -127 88 -36 21 -81 51 -100 66 -86 68 -260 152
-443 213 -154 52 -174 56 -370 71 -82 6 -148 15 -149 21 0 6 9 15 21 21 13 7
27 16 33 22 7 7 18 5 36 -4 17 -9 31 -10 43 -3z m-947 -136 c43 -3 82 -8 87
-10 8 -6 118 -16 184 -18 53 -2 236 10 352 22 93 10 226 1 293 -18 87 -25 159
-41 203 -46 26 -3 70 -16 97 -30 27 -14 57 -25 67 -25 48 0 299 -190 361 -274
53 -71 110 -162 117 -188 3 -13 17 -48 30 -78 13 -30 31 -77 41 -103 21 -59
46 -60 55 -2 7 42 55 95 87 95 48 0 76 -71 57 -144 -6 -23 -4 -32 10 -43 27
-19 68 -16 98 7 36 29 64 25 104 -15 33 -33 35 -39 31 -83 -6 -55 -50 -132
-90 -155 -34 -19 -38 -61 -9 -77 11 -5 40 -10 65 -10 48 0 86 -24 86 -56 0
-12 -7 -14 -30 -9 -72 16 -182 -55 -197 -126 -11 -59 -31 -50 -144 63 -87 86
-129 158 -150 261 -6 28 -28 95 -49 147 -21 52 -41 111 -44 130 -12 58 -83
206 -144 299 -58 87 -181 202 -259 241 -108 54 -238 51 -322 -9 -64 -46 -113
-161 -97 -225 10 -40 66 -97 121 -122 94 -44 169 -24 201 53 20 47 51 42 68
-13 5 -15 -2 -30 -24 -53 -20 -20 -30 -40 -28 -54 4 -26 67 -69 126 -86 29 -8
47 -20 54 -37 11 -24 9 -28 -28 -59 -52 -44 -45 -59 46 -100 48 -21 146 -103
170 -142 18 -30 80 -169 80 -180 0 -3 -12 5 -27 16 -16 12 -53 38 -83 58 -30
19 -76 54 -101 77 -57 50 -177 145 -241 189 -79 55 -156 118 -270 221 -131
120 -180 197 -177 274 4 73 -13 90 -52 51 -12 -12 -43 -27 -68 -34 -40 -10
-54 -10 -91 4 -23 9 -52 28 -63 43 -19 26 -19 28 -3 53 10 15 33 36 52 47 19
11 34 26 34 34 0 25 -38 34 -149 34 -141 0 -250 24 -411 92 -109 45 -173 86
-178 112 -3 16 1 17 35 12 21 -3 73 -8 117 -11z m-16031 -4611 c32 -8 73 -14
90 -14 29 0 61 -8 137 -35 56 -20 102 -33 142 -39 46 -8 142 -51 184 -82 17
-13 49 -30 72 -38 55 -20 116 -63 173 -123 57 -59 119 -151 119 -176 0 -47 51
-104 83 -91 22 8 134 -52 142 -76 8 -27 0 -64 -20 -83 -12 -13 -9 -17 30 -36
25 -11 66 -31 92 -43 56 -27 137 -96 171 -147 79 -115 149 -252 194 -380 21
-59 23 -67 64 -226 14 -55 39 -147 55 -205 16 -58 36 -136 45 -175 9 -38 25
-92 36 -120 75 -184 84 -202 203 -370 41 -58 46 -113 10 -107 -31 5 -91 71
-128 142 -45 85 -61 85 -107 1 -35 -64 -65 -94 -107 -106 -28 -8 -30 12 -6 58
14 25 17 59 17 162 0 115 -3 141 -27 220 -56 179 -67 226 -71 301 -2 60 -7 80
-24 97 l-21 20 -18 -33 c-33 -61 -50 -72 -96 -65 -34 5 -52 17 -96 63 -29 31
-75 89 -102 127 -27 39 -73 104 -102 145 -29 42 -86 115 -127 163 -139 162
-180 212 -180 219 0 4 22 6 49 5 65 -4 131 -56 204 -161 23 -33 53 -33 131 -1
44 18 63 21 73 13 18 -14 16 -54 -3 -83 -21 -32 -10 -159 17 -204 41 -68 159
-55 202 24 6 11 14 40 18 64 10 70 -24 157 -118 297 -87 129 -105 145 -243
214 -128 63 -157 70 -323 69 -154 -1 -302 18 -357 46 -14 7 -44 15 -68 19 -45
7 -89 31 -170 93 -26 20 -65 44 -87 54 -22 11 -62 37 -90 59 -87 71 -166 121
-183 118 -9 -2 -21 -20 -28 -43 -10 -37 -15 -41 -60 -53 -27 -7 -63 -10 -81
-7 -44 8 -70 65 -76 167 -6 89 -10 98 -42 98 -26 0 -55 -33 -55 -63 0 -27
-108 -124 -160 -144 -25 -9 -52 -22 -61 -30 -8 -7 -20 -13 -26 -13 -6 0 -37
-13 -69 -30 -32 -16 -75 -32 -94 -36 -68 -11 -296 -86 -358 -117 -34 -18 -87
-50 -117 -73 -30 -22 -76 -50 -103 -61 -96 -42 -163 -65 -169 -59 -13 13 43
110 82 141 22 18 69 43 105 55 96 32 120 47 120 73 0 13 -7 32 -15 43 -8 10
-15 24 -15 31 0 20 71 98 103 111 35 15 89 9 107 -13 15 -18 54 -20 67 -2 5 6
15 32 22 56 15 51 51 91 83 91 17 0 28 -11 43 -42 16 -34 33 -50 80 -75 51
-27 67 -31 105 -26 63 9 114 43 139 96 28 59 26 92 -10 155 -37 65 -83 89
-209 108 -189 29 -290 14 -455 -68 -104 -52 -169 -94 -214 -139 -14 -15 -37
-32 -51 -39 -50 -26 -156 -120 -194 -172 -22 -29 -52 -70 -68 -91 -16 -20 -47
-72 -69 -115 -22 -42 -49 -86 -59 -97 -28 -31 -100 -240 -100 -290 0 -25 -6
-64 -14 -87 -15 -47 -42 -162 -77 -333 -12 -60 -25 -114 -29 -120 -4 -5 -10
-38 -13 -72 -7 -67 -32 -140 -96 -278 -77 -166 -105 -212 -236 -385 -39 -52
-44 -86 -15 -95 10 -3 33 -24 50 -45 17 -21 41 -40 53 -42 16 -2 22 -10 22
-28 0 -23 -4 -25 -48 -28 -32 -2 -59 3 -85 16 -97 51 -177 85 -212 89 -46 6
-126 -36 -141 -74 -13 -34 -43 -27 -47 12 -5 51 47 107 147 156 95 46 191 109
234 153 15 15 40 51 55 78 15 28 42 65 60 82 41 38 99 126 108 163 4 16 18 47
31 70 16 28 27 67 32 120 5 43 13 89 18 103 6 14 11 82 12 152 2 119 0 130
-25 180 -44 89 -77 115 -104 83 -7 -8 -21 -15 -31 -15 -29 0 -50 -43 -60 -125
-8 -63 -7 -80 7 -107 34 -66 9 -158 -35 -131 -29 18 -50 -20 -39 -67 5 -19 12
-45 15 -57 8 -35 -6 -90 -31 -120 -13 -15 -25 -37 -27 -48 -3 -14 -12 -20 -29
-20 -21 0 -26 7 -34 40 -4 22 -10 80 -13 128 -6 117 -26 114 -33 -6 -4 -67
-10 -92 -27 -115 -13 -18 -20 -38 -16 -51 4 -14 0 -23 -13 -28 -9 -3 -27 -16
-38 -27 l-20 -20 -8 34 c-4 19 -3 49 2 65 24 79 49 172 53 195 11 58 41 158
58 190 10 19 37 75 61 124 44 93 122 190 175 216 15 8 36 21 45 28 13 11 36
13 88 10 l70 -5 1 51 c0 28 11 83 23 121 l23 70 54 -3 c30 -1 63 -5 74 -7 17
-4 24 5 39 48 10 29 30 68 45 87 16 19 32 46 36 60 18 59 164 263 234 325 145
129 271 218 387 274 67 33 132 62 145 66 13 4 30 13 38 19 18 14 341 11 421
-4 30 -6 87 -26 125 -45 39 -18 111 -52 160 -75 50 -23 111 -57 138 -76 26
-19 50 -34 54 -34 4 0 50 -32 102 -72 156 -117 191 -142 291 -208 52 -34 104
-71 116 -81 11 -11 23 -19 27 -19 4 0 26 -12 48 -27 55 -36 205 -50 259 -23
19 9 47 20 61 23 31 8 92 95 102 145 5 25 -1 52 -23 106 -33 80 -53 103 -117
135 -83 41 -179 4 -192 -74 -8 -53 -33 -57 -77 -14 -29 28 -34 40 -34 80 0 60
-16 74 -72 65 -29 -5 -60 -1 -100 11 -48 15 -58 22 -58 40 0 12 9 27 20 33 24
13 26 52 5 70 -10 8 -33 10 -76 5 -37 -4 -78 -3 -107 5 -111 28 -155 44 -180
65 l-27 24 100 -6 c55 -2 126 -11 158 -19z"/>
</g>
</svg>
