<?xml version="1.0" standalone="no"?>
<!DOCTYPE svg PUBLIC "-//W3C//DTD SVG 20010904//EN"
 "http://www.w3.org/TR/2001/REC-SVG-20010904/DTD/svg10.dtd">
<svg version="1.0" xmlns="http://www.w3.org/2000/svg"
 width="3271.000000pt" height="317.000000pt" viewBox="0 0 3271.000000 317.000000"
 preserveAspectRatio="xMidYMid meet">
<metadata>
Created by potrace 1.13, written by Peter Selinger 2001-2015
</metadata>
<g transform="translate(0.000000,317.000000) scale(0.100000,-0.100000)"
fill="#000000" stroke="none">
<path d="M32343 3092 c-26 -21 -66 -56 -88 -77 -22 -22 -71 -63 -109 -92 -60
-46 -71 -51 -90 -40 -31 17 -315 22 -399 7 -60 -11 -75 -18 -128 -64 -72 -63
-129 -140 -129 -175 0 -13 -5 -39 -12 -57 -10 -29 -16 -33 -62 -39 -90 -12
-588 -20 -1091 -16 -187 1 -572 -1 -855 -5 -1368 -18 -2179 -19 -2280 -3 -39
6 -148 7 -270 3 -350 -11 -1514 -18 -1855 -11 -22 0 -96 0 -165 -1 -69 -1
-154 -1 -190 0 -36 1 -267 -1 -515 -6 -788 -14 -2675 -20 -2985 -10 -272 9
-282 9 -672 1 -226 -5 -338 -4 -338 3 0 6 -28 10 -67 9 -63 -1 -99 -2 -253 -2
-30 -1 -134 1 -230 2 -96 1 -420 3 -720 3 -300 0 -563 0 -585 1 -22 0 -96 0
-165 -1 -69 -1 -154 -1 -190 0 -36 1 -267 -1 -515 -6 -788 -14 -2675 -20
-2985 -10 -272 9 -282 9 -672 1 -226 -5 -338 -4 -338 3 0 6 -28 10 -67 9 -64
-1 -126 -2 -253 -2 -30 0 -125 1 -210 2 -85 2 -400 3 -700 3 -300 0 -563 0
-585 1 -22 0 -96 0 -165 -1 -69 -1 -154 -1 -190 0 -36 1 -267 -1 -515 -6 -788
-14 -2675 -20 -2985 -10 -272 9 -282 9 -672 1 -226 -5 -338 -4 -338 3 0 6 -28
10 -67 9 -91 -2 -185 -2 -255 -1 -247 3 -323 2 -393 -7 -93 -12 -224 -16 -420
-13 -77 2 -311 0 -520 -3 -209 -3 -468 -4 -575 -3 -107 1 -251 2 -320 1 -271
-2 -719 0 -990 4 -157 2 -312 3 -345 2 -90 -2 -121 -2 -515 6 -201 4 -384 6
-407 6 -97 -3 -162 -3 -223 1 -36 1 -162 1 -280 -2 -118 -2 -225 -1 -237 4
-13 4 -23 15 -23 25 0 10 -7 24 -15 31 -8 7 -15 20 -15 29 0 9 -5 22 -11 28
-8 8 -8 13 0 17 16 10 13 52 -4 66 -8 7 -26 10 -40 8 -22 -5 -25 -2 -25 22 0
20 -14 39 -57 77 -55 47 -62 50 -129 56 -57 6 -74 4 -84 -8 -8 -10 -30 -15
-63 -15 -43 0 -56 -5 -82 -30 l-30 -29 -40 39 c-22 22 -66 59 -97 81 -32 23
-58 46 -58 50 0 5 -17 20 -37 34 -30 20 -50 25 -99 25 -77 0 -100 -19 -90 -77
18 -102 18 -109 2 -122 -24 -20 -20 -55 15 -129 17 -37 35 -77 40 -90 5 -13
21 -39 35 -57 28 -38 25 -52 -20 -94 -14 -14 -26 -32 -26 -42 0 -9 -7 -22 -15
-29 -12 -10 -15 -38 -15 -137 l0 -124 56 -68 c84 -102 134 -141 183 -141 39 0
41 -1 41 -31 0 -17 -9 -44 -20 -59 -14 -20 -18 -37 -14 -58 3 -16 1 -39 -5
-51 -11 -19 -9 -21 14 -21 l26 0 -5 -242 c-6 -288 -12 -447 -18 -454 -3 -2
-30 -9 -62 -15 -31 -5 -93 -28 -137 -50 -85 -42 -115 -76 -139 -154 -7 -22
-16 -50 -21 -63 -12 -31 10 -172 27 -179 8 -3 14 -12 14 -19 0 -8 11 -19 25
-24 20 -7 25 -17 25 -42 0 -34 -38 -117 -70 -153 -39 -43 -86 -187 -73 -222 7
-18 59 -17 67 2 3 8 15 15 26 15 11 0 20 5 20 10 0 6 17 10 38 10 36 0 139 45
173 76 24 22 151 31 170 12 8 -8 32 -17 54 -21 52 -8 168 6 173 21 2 7 14 12
26 12 21 0 36 10 104 72 12 11 22 29 22 39 0 10 5 19 10 19 6 0 10 6 10 14 0
8 4 16 8 18 5 2 15 17 23 33 l14 30 210 6 c116 4 347 6 515 6 1281 -2 1876 -1
2200 3 206 3 380 2 386 -3 7 -4 652 -7 1435 -6 783 1 1588 1 1789 1 201 0 743
1 1206 2 683 1 844 -1 857 -12 11 -9 21 -10 34 -4 10 5 36 13 58 16 81 13
1759 23 1808 11 15 -4 33 -3 40 2 7 5 280 6 652 3 352 -3 642 -2 643 3 5 11
70 9 77 -3 5 -8 445 -15 655 -11 221 5 989 13 1060 11 143 -3 132 -3 770 -2
327 0 867 1 1200 0 333 0 819 1 1080 2 262 1 488 -2 503 -5 15 -4 33 -3 40 2
7 5 280 6 652 3 352 -3 642 -2 643 2 5 12 70 10 77 -2 5 -8 445 -15 655 -11
221 5 989 13 1060 11 141 -3 128 -3 775 -3 330 0 620 0 645 -1 25 0 149 0 275
1 127 0 388 1 580 1 193 1 562 2 820 2 259 1 483 -2 498 -5 15 -4 33 -3 40 2
7 5 280 6 652 3 352 -3 642 -2 643 3 5 11 70 9 77 -3 5 -8 445 -15 655 -11
221 5 989 13 1060 11 52 -1 113 -2 135 -2 30 -1 960 -1 1285 -1 25 0 228 1
451 2 223 1 418 -1 433 -5 15 -4 32 -1 41 6 9 8 29 10 52 6 60 -9 346 -6 483
5 177 14 702 8 722 -9 9 -7 21 -34 28 -60 6 -26 16 -55 21 -64 5 -10 9 -24 9
-32 0 -23 58 -73 121 -105 53 -28 61 -29 137 -22 51 4 87 12 99 23 34 30 60
31 100 4 21 -14 43 -26 50 -26 7 0 13 -4 13 -9 0 -5 16 -15 35 -21 19 -6 35
-16 35 -21 0 -5 11 -9 24 -9 14 0 28 -5 31 -10 3 -6 24 -10 47 -10 24 0 51 -8
69 -21 22 -15 41 -19 81 -17 45 3 54 7 67 30 13 23 14 32 2 65 -15 41 -57 130
-97 203 -21 40 -23 53 -18 115 4 38 10 76 14 85 13 24 40 134 40 161 0 37 -64
163 -95 187 -14 12 -58 31 -96 43 -41 13 -70 28 -73 38 -7 23 -26 307 -25 361
1 25 -1 99 -4 165 -9 182 3 515 19 515 7 0 15 20 19 50 7 54 10 57 39 35 36
-27 85 -19 122 20 18 19 42 35 54 35 31 0 89 33 139 79 41 38 43 42 37 83 -4
24 -10 79 -15 123 -5 44 -12 88 -16 98 -10 23 -103 97 -124 97 -21 0 -41 63
-41 128 0 43 5 55 40 95 82 93 101 178 51 228 -25 25 -37 29 -84 29 -49 0 -61
-4 -104 -38z m-1035 -605 c15 -10 16 -37 1 -37 -12 0 -24 -13 -55 -57 -17 -24
-11 -58 11 -67 20 -7 54 7 90 39 46 42 67 46 260 55 165 7 211 13 225 29 22
25 79 41 149 41 l77 0 17 -35 c18 -39 22 -81 8 -89 -5 -3 -11 -16 -14 -28 -18
-80 -40 -144 -57 -168 -11 -16 -20 -34 -20 -42 0 -8 -7 -23 -15 -34 -8 -10
-15 -25 -15 -33 0 -28 -45 -80 -92 -107 -39 -23 -48 -33 -48 -55 0 -26 50 -89
70 -89 5 0 17 -13 27 -30 9 -16 22 -30 28 -30 12 0 75 -58 75 -69 0 -4 14 -23
30 -41 17 -18 30 -37 30 -41 0 -4 16 -14 35 -23 38 -18 46 -46 21 -81 -7 -11
-17 -31 -21 -45 -4 -14 -35 -54 -67 -90 -33 -36 -67 -78 -75 -94 -8 -16 -35
-53 -59 -83 -24 -29 -44 -64 -44 -77 0 -12 17 -46 39 -74 49 -66 167 -182 185
-182 8 0 16 -7 20 -15 3 -8 14 -15 25 -15 16 0 21 -10 27 -57 4 -32 7 -93 7
-136 1 -111 1 -111 -176 -115 -196 -5 -210 -1 -262 73 -28 41 -55 67 -86 82
-65 32 -103 29 -189 -17 -43 -23 -89 -40 -108 -40 -54 0 -175 52 -275 118 -33
22 -40 24 -62 12 -13 -7 -29 -25 -35 -41 -13 -30 -6 -79 10 -79 6 0 10 -7 10
-15 0 -8 4 -15 10 -15 15 0 33 -41 23 -51 -8 -8 -431 -25 -588 -23 -240 3
-275 7 -275 35 0 10 6 19 14 19 8 0 16 7 20 15 3 8 14 15 25 15 11 0 21 4 23
8 4 11 97 72 109 72 5 0 25 16 43 35 19 19 41 35 50 35 8 0 17 4 20 9 12 19
103 23 166 7 34 -9 71 -16 83 -16 25 0 67 37 67 60 0 8 6 24 14 35 7 11 16 33
20 49 4 15 14 35 21 43 8 8 15 23 15 33 0 22 46 80 64 80 7 0 27 13 45 29 25
22 44 30 89 33 38 3 61 1 69 -8 15 -15 17 -50 3 -59 -13 -8 -13 -90 0 -136 15
-55 73 -109 115 -109 19 0 35 -4 35 -10 0 -6 27 -10 60 -10 113 0 202 81 231
209 10 46 -14 140 -51 194 -22 32 -42 48 -82 63 -160 62 -206 67 -283 29 -31
-15 -68 -25 -96 -25 -106 0 -294 -112 -468 -279 -25 -24 -69 -59 -96 -76 -28
-18 -66 -46 -85 -63 -19 -17 -61 -45 -94 -61 -32 -17 -72 -42 -88 -56 -16 -14
-42 -28 -56 -31 -62 -14 -145 -46 -266 -105 l-130 -62 -160 0 c-185 -1 -214 6
-341 69 -98 49 -172 100 -250 169 -89 80 -168 145 -175 145 -14 0 -118 -146
-146 -206 -23 -48 -150 -162 -194 -174 -20 -5 -100 -6 -190 -1 -146 7 -158 9
-205 36 -89 52 -163 114 -182 153 -21 43 -46 51 -75 25 -16 -14 -19 -26 -15
-58 3 -21 13 -45 23 -52 10 -7 17 -27 18 -49 1 -33 -2 -38 -27 -45 -16 -4
-205 -10 -420 -13 -431 -5 -457 -2 -457 48 0 15 6 26 14 26 7 0 25 11 40 25
15 14 71 46 124 71 l97 46 180 -4 c165 -4 182 -3 208 14 17 12 27 28 27 44 0
14 7 27 15 30 17 7 32 51 41 121 5 39 11 54 25 58 11 4 19 13 19 21 0 9 11 14
33 14 18 0 42 7 53 15 14 11 49 14 135 15 146 0 155 -6 152 -112 -2 -78 10
-107 69 -171 32 -34 38 -37 91 -37 31 0 59 4 62 10 8 13 45 13 45 0 0 -23 107
7 122 34 5 9 14 16 20 16 24 0 37 37 38 101 0 102 -24 164 -91 231 -32 32 -65
58 -74 58 -23 0 -164 51 -171 61 -9 15 -215 -2 -278 -22 -33 -11 -74 -19 -93
-19 -18 0 -66 -11 -105 -25 -39 -14 -79 -25 -88 -25 -8 0 -74 -29 -145 -65
-72 -36 -161 -78 -200 -94 -65 -26 -106 -47 -290 -147 -38 -21 -94 -55 -123
-77 -29 -21 -68 -45 -87 -53 -18 -7 -40 -22 -47 -32 -7 -10 -18 -21 -25 -23
-11 -4 -39 -26 -144 -117 l-50 -42 -113 0 c-100 0 -120 3 -171 26 -32 14 -88
34 -124 45 -36 11 -97 35 -136 54 -192 92 -210 93 -297 17 -31 -26 -70 -55
-88 -65 -17 -9 -34 -26 -37 -36 -10 -39 -40 -44 -245 -36 -106 4 -221 7 -255
7 l-63 -1 0 56 c0 69 -29 123 -66 123 -36 0 -64 -52 -64 -117 0 -41 -4 -54
-19 -63 -26 -13 -130 -13 -170 1 l-32 11 3 65 c2 54 0 67 -15 77 -30 19 -68
-12 -104 -83 -17 -36 -40 -68 -50 -72 -57 -20 -460 -15 -517 7 -17 7 -22 44
-6 44 6 0 10 7 10 15 0 9 9 15 21 15 23 0 79 30 79 42 0 4 6 8 13 8 7 0 40 14
72 30 32 17 65 30 72 30 8 0 16 6 19 14 3 9 33 16 91 20 48 4 105 14 127 22
23 7 78 14 123 14 76 0 83 2 102 26 12 15 21 38 21 51 0 30 28 91 52 115 10
10 18 25 18 33 0 8 7 15 15 15 8 0 15 4 15 8 0 37 252 72 345 49 47 -12 50
-14 49 -44 -1 -17 -11 -41 -23 -54 -11 -12 -27 -53 -36 -93 -15 -69 -15 -74 4
-118 24 -58 43 -68 122 -68 79 0 135 23 148 62 6 15 14 28 18 28 22 0 51 69
56 133 7 73 0 102 -40 159 -33 48 -151 109 -258 133 -105 23 -264 17 -327 -13
-24 -11 -81 -30 -128 -43 -47 -12 -89 -26 -95 -30 -5 -5 -15 -9 -22 -9 -11 0
-98 -41 -223 -106 -19 -9 -58 -34 -85 -54 -28 -21 -61 -41 -75 -45 -14 -4 -36
-15 -50 -24 -41 -27 -61 -38 -150 -87 -47 -25 -105 -61 -130 -79 -86 -61 -174
-98 -370 -155 -36 -10 -90 -30 -120 -44 -52 -24 -65 -26 -212 -26 -86 0 -159
4 -162 9 -3 5 -86 9 -183 8 -203 -1 -229 4 -358 69 -98 49 -172 100 -250 169
-89 80 -168 145 -175 145 -14 0 -118 -146 -146 -206 -23 -48 -150 -162 -194
-174 -20 -5 -100 -6 -190 -1 -146 7 -158 9 -205 36 -89 52 -163 114 -182 153
-21 43 -46 51 -75 25 -16 -14 -19 -26 -15 -58 3 -21 13 -45 23 -52 10 -7 17
-27 18 -49 1 -33 -2 -38 -27 -45 -16 -4 -205 -10 -420 -13 -431 -5 -457 -2
-457 48 0 15 6 26 14 26 7 0 25 11 40 25 15 14 71 46 124 71 l97 46 180 -4
c165 -4 182 -3 208 14 17 12 27 28 27 44 0 14 7 27 15 30 17 7 32 51 41 121 5
39 11 54 25 58 11 4 19 13 19 21 0 9 11 14 33 14 18 0 42 7 53 15 14 11 49 14
135 15 146 0 155 -6 152 -112 -2 -78 10 -107 69 -171 32 -34 38 -37 91 -37 31
0 59 4 62 10 8 13 45 13 45 0 0 -23 107 7 122 34 5 9 14 16 20 16 24 0 37 37
38 101 0 102 -24 164 -91 231 -32 32 -65 58 -74 58 -23 0 -164 51 -171 61 -9
15 -215 -2 -278 -22 -33 -11 -74 -19 -93 -19 -18 0 -66 -11 -105 -25 -39 -14
-79 -25 -88 -25 -8 0 -74 -29 -145 -65 -72 -36 -161 -78 -200 -94 -65 -26
-106 -47 -290 -147 -38 -21 -94 -55 -123 -77 -29 -21 -68 -45 -87 -53 -18 -7
-40 -22 -47 -32 -7 -10 -18 -21 -25 -23 -11 -4 -39 -26 -144 -117 l-50 -42
-113 0 c-100 0 -120 3 -171 26 -32 14 -88 34 -124 45 -36 11 -97 35 -136 54
-192 92 -210 93 -297 17 -31 -26 -70 -55 -88 -65 -17 -9 -34 -26 -37 -36 -10
-39 -40 -44 -245 -36 -106 4 -221 7 -255 7 l-63 -1 0 56 c0 69 -29 123 -66
123 -36 0 -64 -52 -64 -117 0 -41 -4 -54 -19 -63 -26 -13 -130 -13 -170 1
l-32 11 3 65 c2 54 0 67 -15 77 -30 19 -68 -12 -104 -83 -17 -36 -40 -68 -50
-72 -57 -20 -460 -15 -517 7 -17 7 -22 44 -6 44 6 0 10 7 10 15 0 9 9 15 21
15 23 0 79 30 79 42 0 4 6 8 13 8 7 0 40 14 72 30 32 17 65 30 72 30 8 0 16 6
19 14 3 9 33 16 91 20 48 4 105 14 127 22 23 7 78 14 123 14 76 0 83 2 102 26
12 15 21 38 21 51 0 30 28 91 52 115 10 10 18 25 18 33 0 8 7 15 15 15 8 0 15
4 15 8 0 37 252 72 345 49 47 -12 50 -14 49 -44 -1 -17 -11 -41 -23 -54 -11
-12 -27 -53 -36 -93 -15 -69 -15 -74 4 -118 24 -58 43 -68 122 -68 79 0 135
23 148 62 6 15 14 28 18 28 22 0 51 69 56 133 7 73 0 102 -40 159 -33 48 -151
109 -258 133 -105 23 -264 17 -327 -13 -24 -11 -81 -30 -128 -43 -47 -12 -89
-26 -94 -30 -6 -5 -16 -9 -23 -9 -11 0 -98 -41 -223 -106 -19 -9 -58 -34 -85
-54 -28 -21 -61 -41 -75 -45 -14 -4 -36 -15 -50 -24 -41 -27 -61 -38 -150 -87
-47 -25 -105 -61 -130 -79 -86 -61 -174 -98 -370 -155 -36 -10 -90 -30 -120
-44 -52 -24 -65 -26 -211 -26 -86 0 -159 3 -163 8 -4 4 -78 7 -164 8 -180 1
-213 8 -337 70 -98 49 -172 100 -250 169 -89 80 -168 145 -175 145 -14 0 -118
-146 -146 -206 -23 -48 -150 -162 -194 -174 -20 -5 -100 -6 -190 -1 -146 7
-158 9 -205 36 -89 52 -163 114 -182 153 -21 43 -46 51 -75 25 -16 -14 -19
-26 -15 -58 3 -21 13 -45 23 -52 10 -7 17 -27 18 -49 1 -33 -2 -38 -27 -45
-16 -4 -205 -10 -420 -13 -431 -5 -457 -2 -457 48 0 15 6 26 14 26 7 0 25 11
40 25 15 14 71 46 124 71 l97 46 180 -4 c165 -4 182 -3 208 14 17 12 27 28 27
44 0 14 7 27 15 30 17 7 32 51 41 121 5 39 11 54 25 58 11 4 19 13 19 21 0 9
11 14 33 14 18 0 42 7 53 15 14 11 49 14 135 15 146 0 155 -6 152 -112 -2 -78
10 -107 69 -170 32 -35 38 -38 91 -38 31 0 59 4 62 10 8 13 45 13 45 0 0 -23
107 7 122 34 5 9 14 16 20 16 24 0 37 37 38 101 0 102 -24 164 -91 231 -32 32
-65 58 -74 58 -23 0 -164 51 -171 61 -9 15 -215 -2 -278 -22 -33 -11 -74 -19
-93 -19 -18 0 -66 -11 -105 -25 -39 -14 -79 -25 -88 -25 -8 0 -74 -29 -145
-65 -72 -36 -161 -78 -200 -94 -65 -26 -106 -47 -290 -147 -38 -21 -94 -55
-123 -77 -29 -21 -68 -45 -87 -53 -18 -7 -40 -22 -47 -32 -7 -10 -18 -21 -25
-23 -11 -4 -39 -26 -144 -116 l-50 -43 -113 0 c-100 0 -120 3 -171 26 -32 14
-88 34 -124 45 -36 11 -97 35 -136 54 -192 92 -210 93 -297 17 -31 -26 -70
-55 -88 -65 -17 -9 -34 -26 -37 -36 -10 -39 -40 -44 -245 -36 -106 4 -221 7
-255 7 l-63 -1 0 56 c0 69 -29 123 -66 123 -36 0 -64 -52 -64 -117 0 -41 -4
-54 -19 -63 -26 -13 -130 -13 -170 1 l-32 11 3 65 c2 54 0 67 -15 77 -30 19
-68 -12 -104 -83 -17 -36 -40 -68 -50 -72 -57 -20 -460 -15 -517 7 -17 7 -22
44 -6 44 6 0 10 7 10 15 0 9 9 15 21 15 23 0 79 30 79 42 0 4 6 8 13 8 7 0 40
14 72 30 32 17 65 30 72 30 8 0 16 6 19 14 3 9 33 16 91 20 48 4 105 14 127
22 23 7 78 14 123 14 76 0 83 2 102 26 12 15 21 38 21 51 0 30 28 91 52 115
10 10 18 25 18 33 0 8 7 15 15 15 8 0 15 4 15 8 0 37 252 72 345 49 47 -12 50
-14 49 -44 -1 -17 -11 -41 -23 -54 -11 -12 -27 -53 -36 -93 -15 -69 -15 -74 4
-118 24 -58 43 -68 122 -68 79 0 135 23 148 62 6 15 14 28 18 28 22 0 51 69
56 133 7 73 0 102 -40 159 -33 48 -151 109 -258 133 -105 23 -264 17 -327 -13
-24 -11 -81 -30 -128 -43 -47 -12 -89 -26 -95 -30 -5 -5 -15 -9 -22 -9 -11 0
-98 -41 -223 -106 -19 -9 -58 -34 -85 -54 -28 -21 -61 -41 -75 -45 -14 -4 -36
-15 -50 -24 -41 -27 -61 -38 -150 -87 -47 -25 -105 -61 -130 -79 -85 -60 -188
-104 -360 -152 -30 -8 -85 -28 -122 -44 l-67 -29 -253 1 c-139 1 -278 6 -308
11 -30 5 -80 13 -110 18 -149 24 -247 56 -320 103 -69 46 -89 57 -106 57 -21
0 -181 -85 -210 -111 -11 -10 -27 -19 -34 -19 -8 0 -32 -6 -55 -14 -83 -28
-132 -34 -237 -29 -127 7 -134 12 -120 80 12 54 3 73 -33 73 -22 0 -85 -59
-85 -80 0 -5 -13 -23 -29 -39 -38 -38 -88 -48 -131 -26 -32 17 -32 17 -26 72
7 63 -3 83 -43 83 -38 -1 -66 -28 -94 -90 -13 -30 -31 -61 -40 -69 -24 -20
-409 -21 -495 -1 -67 15 -79 35 -34 55 12 5 22 15 22 22 0 7 10 13 23 13 13 0
27 4 32 8 6 5 26 15 45 22 19 8 42 22 51 31 9 9 38 20 65 23 27 4 59 14 71 22
12 8 33 14 47 14 14 0 27 4 30 8 3 5 31 15 63 22 62 15 113 52 113 82 0 10 5
18 10 18 6 0 10 12 10 28 2 95 143 172 318 172 73 0 92 -3 92 -14 0 -8 -5 -16
-12 -18 -8 -3 -13 -30 -13 -84 0 -97 17 -123 92 -135 106 -17 119 -14 182 47
67 64 79 101 60 182 -20 81 -125 171 -202 172 -15 0 -39 8 -54 17 -39 26 -284
22 -368 -5 -106 -35 -180 -64 -195 -77 -8 -7 -31 -21 -50 -30 -19 -10 -37 -21
-40 -25 -3 -4 -39 -29 -80 -57 -41 -28 -91 -65 -110 -82 -19 -17 -38 -31 -42
-31 -4 0 -30 -20 -58 -45 -28 -25 -54 -45 -58 -45 -4 0 -32 -25 -62 -55 -30
-30 -61 -55 -67 -55 -7 0 -13 -4 -13 -10 0 -5 -5 -10 -10 -10 -6 0 -23 -8 -38
-18 -75 -52 -155 -93 -203 -106 -30 -8 -83 -24 -119 -35 -95 -30 -258 -38
-340 -17 -69 18 -203 79 -229 105 -29 29 -108 91 -115 91 -4 0 -14 7 -22 15
-25 25 -47 17 -87 -30 -21 -25 -44 -45 -50 -45 -7 0 -37 -19 -67 -41 -67 -51
-145 -89 -185 -89 -16 0 -55 -9 -85 -21 -81 -31 -192 -23 -280 20 -110 53
-164 85 -194 114 -31 29 -55 34 -74 15 -17 -17 -15 -67 3 -74 8 -4 15 -17 15
-30 0 -20 -5 -24 -32 -24 -18 1 -44 7 -58 15 -14 8 -33 14 -42 15 -10 0 -49
23 -88 50 -74 53 -134 67 -146 35 -8 -21 23 -85 41 -85 9 0 15 -10 15 -24 0
-32 -26 -36 -221 -36 -175 0 -249 13 -249 42 0 11 7 18 18 18 10 0 33 11 52
25 19 14 38 25 43 25 4 0 23 11 40 24 18 14 44 28 60 31 15 4 27 11 27 16 0
19 41 49 67 49 16 0 55 14 88 30 44 22 74 30 113 30 39 0 52 4 52 15 0 8 5 15
10 15 6 0 23 26 38 58 15 31 33 61 40 65 6 4 12 15 12 22 0 8 5 15 11 15 6 0
17 7 25 15 9 8 24 15 35 15 10 0 19 5 19 10 0 6 7 10 15 10 8 0 15 4 15 8 0
15 136 42 214 42 66 0 76 -2 76 -18 0 -10 -8 -25 -17 -33 -31 -27 -64 -73 -70
-97 -15 -62 28 -192 64 -192 6 0 15 -9 18 -21 4 -11 19 -25 33 -31 38 -15 132
-11 152 7 9 8 22 15 28 15 7 0 12 4 12 10 0 5 11 21 24 36 13 14 32 36 42 47
22 26 29 122 14 187 -19 78 -72 170 -114 201 -21 16 -46 29 -55 29 -9 0 -25 6
-36 14 -79 55 -299 67 -396 22 -30 -13 -83 -32 -118 -41 -35 -8 -78 -24 -95
-34 -17 -10 -53 -27 -81 -37 -53 -19 -94 -41 -110 -58 -5 -6 -39 -27 -75 -45
-36 -19 -85 -48 -110 -64 -25 -17 -85 -57 -135 -90 -49 -33 -108 -76 -130 -97
-22 -21 -59 -46 -83 -55 -23 -10 -42 -21 -42 -25 0 -4 -9 -10 -19 -13 -20 -5
-207 -123 -230 -145 -35 -34 -63 -42 -181 -52 -174 -16 -625 -5 -673 15 -58
24 -128 76 -200 147 -79 79 -107 87 -133 36 -21 -41 -111 -136 -145 -153 -14
-8 -55 -24 -90 -36 -73 -26 -41 -25 -843 -16 -476 5 -499 6 -518 24 -27 27
-16 61 38 120 25 26 51 59 60 73 15 25 55 47 127 71 20 7 37 17 37 21 0 11 43
10 72 -1 13 -5 51 -12 86 -16 53 -6 62 -5 62 9 0 10 11 19 29 22 17 4 43 19
58 35 15 16 34 29 40 29 7 0 20 11 29 25 9 14 21 25 26 25 5 0 22 8 36 19 30
20 162 35 226 24 l36 -6 0 -77 c0 -118 7 -137 69 -200 60 -61 76 -68 187 -77
62 -5 62 -5 107 39 24 24 52 58 61 75 21 41 17 127 -8 168 -19 32 -93 92 -144
119 -17 9 -48 27 -68 41 -33 23 -92 43 -184 65 -19 5 -54 13 -77 19 -28 8 -55
8 -85 1 -24 -5 -97 -21 -163 -35 -169 -36 -282 -67 -347 -93 -20 -8 -47 -25
-59 -38 -12 -13 -47 -33 -78 -45 -31 -11 -65 -29 -76 -39 -11 -10 -32 -23 -47
-29 -16 -6 -28 -16 -28 -24 0 -7 -25 -37 -55 -67 -30 -29 -57 -66 -60 -81 -4
-15 -19 -45 -34 -67 -16 -21 -31 -48 -35 -59 -14 -45 -27 -48 -179 -39 -96 6
-135 19 -118 40 7 8 8 32 5 60 -5 31 -3 46 5 46 6 0 11 6 11 13 0 6 16 29 35
50 20 22 35 49 35 63 0 25 22 65 52 96 17 17 38 78 38 111 0 10 -41 61 -91
114 -50 54 -96 109 -102 123 -5 14 -16 39 -23 55 -22 52 5 215 36 215 6 0 10
6 10 13 0 7 9 19 20 27 11 8 20 24 20 35 0 11 20 40 45 65 57 57 66 96 33 142
-28 39 -46 85 -59 148 -5 25 -14 56 -20 70 -29 66 -37 89 -49 140 -7 30 -18
74 -26 98 -8 23 -14 49 -14 57 0 20 45 19 62 0 52 -62 89 -95 107 -95 12 0 21
-6 21 -15 0 -8 9 -20 21 -27 11 -7 29 -27 40 -45 11 -17 33 -38 49 -45 17 -7
30 -19 30 -26 0 -8 14 -19 30 -25 17 -6 30 -16 30 -23 0 -6 16 -19 35 -30 19
-10 35 -22 35 -25 0 -11 120 -89 136 -89 8 0 14 -4 14 -10 0 -5 16 -12 35 -16
19 -3 35 -10 35 -15 0 -5 11 -9 25 -9 14 0 25 -4 25 -10 0 -5 8 -10 19 -10 10
0 29 -11 42 -24 13 -13 42 -29 64 -36 74 -23 110 -47 113 -74 2 -19 -1 -26
-15 -28 -27 -2 -98 -5 -285 -13 -159 -7 -168 -9 -190 -32 -18 -20 -23 -35 -23
-86 0 -34 4 -88 8 -120 13 -89 17 -90 316 -86 135 2 413 2 617 1 l372 -3 18
-24 c10 -14 25 -25 32 -25 7 0 15 -7 18 -15 4 -8 10 -15 15 -15 12 0 69 -58
69 -69 0 -5 22 -19 50 -32 27 -13 50 -29 50 -36 0 -7 4 -13 9 -13 11 0 111
-94 111 -104 0 -14 25 -33 53 -40 15 -3 35 -15 45 -26 9 -11 21 -20 27 -20 6
0 16 -9 23 -20 7 -11 21 -20 32 -20 10 0 23 -6 27 -13 9 -16 109 -87 121 -87
4 0 23 -11 42 -25 19 -14 42 -25 51 -25 10 0 19 -4 21 -8 6 -17 217 -62 258
-56 29 5 40 3 40 -6 0 -8 11 -11 32 -7 121 19 176 31 198 42 14 7 37 15 51 19
15 3 37 17 50 31 13 13 30 25 37 25 6 0 12 6 12 13 0 8 8 29 17 48 10 19 19
65 21 104 3 60 1 74 -18 98 -61 77 -179 88 -249 24 -36 -33 -91 -157 -91 -204
0 -57 -45 -92 -94 -73 -35 13 -154 134 -160 161 -3 13 -8 41 -11 62 -9 57 -38
71 -159 73 -103 2 -139 10 -185 43 -14 10 -37 22 -51 26 -64 20 -200 137 -200
172 0 17 9 21 53 25 28 3 79 3 112 -1 l60 -6 0 -55 c0 -54 1 -55 39 -73 61
-29 80 -21 88 38 12 89 10 89 350 92 177 2 296 7 302 13 13 13 106 13 106 -1
0 -5 5 -7 11 -3 15 9 224 16 270 8 31 -4 38 -10 43 -35 3 -16 17 -41 31 -55
14 -14 25 -31 25 -38 0 -8 7 -19 15 -26 8 -7 15 -18 15 -25 0 -17 35 -55 51
-55 17 0 59 40 59 56 0 7 6 25 14 41 19 38 33 73 41 101 4 14 14 22 27 22 12
0 29 7 39 16 16 14 76 17 476 24 252 4 483 4 513 0 30 -5 102 -14 160 -20 151
-16 170 -20 170 -38 0 -17 28 -41 48 -42 15 0 32 -13 72 -53 16 -15 30 -27 32
-27 3 0 42 -36 87 -80 45 -44 85 -80 89 -80 4 0 18 -16 31 -35 13 -19 30 -35
38 -35 7 0 16 -7 19 -15 4 -8 15 -15 25 -15 10 0 19 -5 19 -11 0 -16 39 -48
65 -55 11 -3 25 -15 30 -27 6 -12 20 -26 32 -32 13 -5 23 -13 23 -17 0 -5 7
-8 15 -8 8 0 15 -4 15 -10 0 -5 15 -10 33 -10 20 0 39 -8 50 -20 19 -23 30
-23 202 -10 110 8 156 19 205 51 8 5 27 17 42 27 16 9 28 23 28 30 0 6 5 12
10 12 6 0 10 9 10 19 0 11 4 22 9 25 4 3 11 29 14 58 6 69 -14 122 -54 138
-64 27 -178 -7 -188 -56 -1 -10 -10 -27 -18 -36 -11 -12 -13 -26 -9 -45 22
-86 21 -90 -22 -97 -27 -4 -49 -1 -68 9 -16 8 -34 15 -40 15 -6 0 -31 21 -56
48 -33 34 -45 56 -46 79 -2 78 -47 113 -179 139 -86 16 -169 51 -217 89 -84
69 -131 105 -138 105 -5 0 -8 9 -8 19 0 14 10 22 33 27 50 11 1030 12 1045 1
6 -5 12 -26 12 -46 0 -47 19 -87 47 -100 35 -16 93 -24 93 -13 0 5 13 24 30
42 16 17 32 47 36 66 3 19 15 39 25 44 39 22 281 32 505 21 120 -5 266 -7 324
-4 58 3 203 2 322 -2 l216 -7 6 -24 c7 -25 117 -144 134 -144 5 0 24 -16 41
-35 17 -19 37 -35 45 -35 7 0 16 -7 20 -15 3 -8 12 -15 19 -15 8 0 30 -16 50
-35 20 -19 42 -35 49 -35 7 -1 24 -14 38 -30 14 -17 34 -30 47 -30 13 0 23 -6
23 -14 0 -8 9 -17 19 -21 11 -3 22 -12 25 -20 3 -8 24 -18 46 -21 23 -4 44
-13 47 -20 3 -8 14 -14 24 -14 10 0 19 -4 19 -9 0 -4 24 -11 52 -14 29 -4 54
-11 56 -17 2 -5 19 -12 38 -16 19 -3 34 -10 34 -15 0 -4 27 -11 60 -15 38 -4
60 -11 60 -19 0 -7 20 -16 48 -20 26 -4 53 -12 60 -18 26 -21 432 -9 432 14 0
5 13 9 29 9 16 0 36 6 43 13 7 8 25 17 39 20 14 4 45 26 70 49 24 24 53 47 63
53 11 5 39 48 64 95 37 72 43 92 39 127 -6 52 -47 110 -93 129 -57 24 -140 29
-169 10 -31 -20 -75 -105 -75 -145 0 -30 16 -81 28 -91 14 -10 32 -50 32 -70
0 -11 -12 -28 -27 -37 -40 -26 -268 -21 -322 7 -45 23 -53 32 -112 129 -38 63
-50 76 -70 74 -13 -1 -64 -6 -114 -11 -125 -13 -315 10 -315 39 0 4 -19 14
-42 24 -78 30 -208 131 -208 161 0 7 -5 14 -12 16 -6 2 -9 11 -6 19 9 23 249
37 673 40 1087 5 1036 6 1046 -13 5 -9 9 -52 9 -96 0 -86 14 -142 36 -142 8 0
14 -4 14 -10 0 -11 62 -13 98 -4 20 6 22 12 22 71 0 37 9 94 21 133 18 62 23
68 52 75 18 4 217 8 442 10 226 2 481 7 568 11 132 6 157 5 157 -7 0 -8 8 -19
18 -24 44 -24 120 -84 162 -128 26 -26 49 -47 54 -47 11 0 36 -27 36 -38 0 -5
10 -13 23 -16 12 -3 51 -33 87 -67 123 -115 145 -134 173 -148 15 -8 27 -18
27 -23 0 -14 52 -55 94 -75 22 -10 50 -28 62 -40 13 -13 30 -23 37 -23 8 0 28
-7 43 -15 16 -8 44 -15 62 -15 17 0 32 -4 32 -9 0 -18 133 -22 190 -6 30 9 67
19 83 22 15 3 27 9 27 13 0 4 20 10 45 12 28 4 56 15 75 32 17 14 37 26 43 26
17 0 97 80 97 97 0 7 9 23 20 35 28 31 31 140 4 203 -26 63 -114 109 -200 103
-48 -3 -50 -4 -76 -53 -38 -70 -39 -149 -2 -205 15 -22 31 -40 35 -40 5 0 9
-10 9 -23 0 -61 -206 -90 -289 -41 -17 10 -31 22 -31 26 0 4 -14 27 -30 50
-20 29 -32 60 -37 96 -3 30 -11 56 -17 58 -6 2 -34 -2 -61 -11 -146 -44 -267
2 -431 164 -30 29 -54 57 -54 61 0 4 -12 11 -26 14 -19 5 -25 12 -22 29 3 21
7 22 128 22 72 0 152 7 188 15 46 10 65 11 70 3 5 -8 41 -10 117 -6 247 11
916 17 938 8 14 -6 17 -21 17 -95 0 -97 5 -120 26 -120 8 0 14 -4 14 -9 0 -19
70 -22 99 -5 25 15 30 25 36 76 4 32 11 58 16 58 5 0 9 6 9 14 0 8 6 16 14 19
8 3 16 16 18 29 l3 23 427 -2 c235 -1 432 -4 437 -7 5 -3 14 1 21 9 17 20 56
19 72 -3 13 -17 88 -25 104 -10 11 12 49 9 62 -4 7 -7 33 -15 60 -18 45 -5 48
-7 74 -59 26 -51 117 -151 137 -151 5 0 23 -16 40 -35 17 -19 37 -35 45 -35 7
0 16 -7 20 -15 3 -8 12 -15 19 -15 8 0 30 -16 50 -35 20 -19 42 -35 49 -35 7
-1 24 -14 38 -30 14 -17 34 -30 47 -30 13 0 23 -6 23 -14 0 -8 9 -17 19 -21
11 -3 22 -12 25 -20 3 -8 24 -18 46 -21 23 -4 44 -13 47 -20 3 -8 14 -14 24
-14 10 0 19 -4 19 -9 0 -4 24 -11 52 -14 29 -4 54 -11 56 -17 2 -5 19 -12 38
-16 19 -3 34 -10 34 -15 0 -4 27 -11 60 -15 38 -4 60 -11 60 -19 0 -7 20 -16
48 -20 26 -4 53 -12 60 -18 26 -21 432 -9 432 14 0 5 13 9 29 9 16 0 36 6 43
13 7 8 25 17 39 20 14 4 45 26 70 49 24 24 53 47 63 53 11 5 39 48 64 95 37
72 43 92 39 127 -6 52 -47 110 -93 129 -57 24 -140 29 -169 10 -31 -20 -75
-105 -75 -145 0 -30 16 -81 28 -91 14 -10 32 -50 32 -70 0 -11 -12 -28 -27
-37 -40 -26 -268 -21 -322 7 -45 23 -53 32 -112 129 -38 63 -50 76 -70 74 -13
-1 -64 -6 -114 -11 -125 -13 -315 10 -315 39 0 4 -19 14 -42 24 -78 30 -208
131 -208 161 0 7 -5 14 -12 16 -6 2 -9 11 -6 19 9 23 249 37 673 40 1087 5
1036 6 1046 -13 5 -9 9 -52 9 -96 0 -86 14 -142 36 -142 8 0 14 -4 14 -10 0
-11 62 -13 98 -4 20 6 22 12 22 71 0 37 9 94 21 133 18 62 23 68 52 75 18 4
217 8 442 10 226 2 481 7 568 11 132 6 157 5 157 -7 0 -8 8 -19 18 -24 44 -24
120 -84 162 -127 26 -27 49 -48 54 -48 11 0 36 -27 36 -38 0 -5 10 -13 23 -16
12 -3 51 -33 87 -67 123 -115 145 -134 173 -148 15 -8 27 -18 27 -23 0 -14 52
-55 94 -75 22 -10 50 -28 62 -40 13 -13 30 -23 37 -23 8 0 28 -7 43 -15 16 -8
44 -15 62 -15 17 0 32 -4 32 -9 0 -18 133 -22 190 -6 30 9 67 19 83 22 15 3
27 9 27 13 0 4 20 10 45 12 28 4 56 15 75 32 17 14 37 26 43 26 17 0 97 80 97
97 0 7 9 23 20 35 28 31 31 140 4 203 -26 63 -114 109 -200 103 -48 -3 -50 -4
-76 -53 -38 -70 -39 -149 -2 -205 15 -22 31 -40 35 -40 5 0 9 -10 9 -23 0 -61
-206 -90 -289 -41 -17 10 -31 22 -31 26 0 4 -14 27 -30 50 -20 29 -32 60 -37
96 -3 30 -11 56 -17 58 -6 2 -34 -2 -61 -11 -146 -44 -267 2 -431 164 -30 29
-54 57 -54 61 0 4 -12 11 -26 14 -19 5 -25 12 -22 29 3 21 7 22 128 22 72 0
152 7 188 15 46 10 65 11 70 3 5 -8 41 -10 117 -6 247 11 916 17 938 8 14 -6
17 -21 17 -95 0 -97 5 -120 26 -120 8 0 14 -4 14 -9 0 -19 70 -22 99 -5 25 15
30 25 36 76 4 32 11 58 16 58 5 0 9 6 9 14 0 8 6 16 14 19 8 3 16 16 18 29 3
22 7 23 143 31 88 5 191 4 277 -3 80 -7 198 -8 286 -4 108 5 151 4 156 -5 5
-7 66 -11 200 -11 215 0 212 1 236 -73 12 -38 117 -157 138 -157 5 0 24 -16
41 -35 17 -19 37 -35 45 -35 7 0 16 -7 20 -15 3 -8 12 -15 19 -15 8 0 30 -16
50 -35 20 -19 42 -35 49 -35 7 -1 24 -14 38 -30 14 -17 34 -30 47 -30 13 0 23
-6 23 -14 0 -8 9 -17 19 -21 11 -3 22 -12 25 -20 3 -8 24 -18 46 -21 23 -4 44
-13 47 -20 3 -8 14 -14 24 -14 10 0 19 -4 19 -9 0 -4 24 -11 52 -14 29 -4 54
-11 56 -17 2 -5 19 -12 38 -16 19 -3 34 -10 34 -15 0 -4 27 -11 60 -15 38 -4
60 -11 60 -19 0 -7 20 -16 48 -20 26 -4 53 -12 60 -18 26 -21 432 -9 432 14 0
5 13 9 29 9 16 0 36 6 43 13 7 8 25 17 39 20 14 4 45 26 70 49 24 24 53 47 63
53 11 5 39 48 64 95 37 72 43 92 39 127 -6 52 -47 110 -93 129 -57 24 -140 29
-169 10 -31 -20 -75 -105 -75 -145 0 -30 16 -81 28 -91 14 -10 32 -50 32 -70
0 -11 -12 -28 -27 -37 -40 -26 -268 -21 -322 7 -45 23 -53 32 -112 129 -38 63
-50 76 -70 74 -13 -1 -64 -6 -114 -11 -125 -13 -315 10 -315 39 0 4 -19 14
-42 24 -78 30 -208 131 -208 161 0 7 -5 14 -12 16 -6 2 -9 11 -6 19 9 23 249
37 673 40 1087 5 1036 6 1046 -13 5 -9 9 -52 9 -96 0 -86 14 -142 36 -142 8 0
14 -4 14 -10 0 -11 62 -13 98 -4 20 6 22 12 22 71 0 37 9 94 21 133 18 62 23
68 52 75 18 4 217 8 442 10 226 2 481 7 568 11 132 6 157 5 157 -7 0 -8 8 -19
18 -24 44 -24 120 -84 162 -128 26 -26 49 -47 54 -47 11 0 36 -27 36 -38 0 -5
10 -13 23 -16 12 -3 51 -33 87 -67 123 -115 145 -134 173 -148 15 -8 27 -18
27 -23 0 -14 52 -55 94 -75 22 -10 50 -28 62 -40 13 -13 30 -23 37 -23 8 0 28
-7 43 -15 16 -8 44 -15 62 -15 17 0 32 -4 32 -9 0 -18 133 -22 190 -6 30 9 67
19 83 22 15 3 27 9 27 13 0 4 20 10 45 12 28 4 56 15 75 32 17 14 37 26 43 26
17 0 97 80 97 97 0 7 9 23 20 35 28 31 31 140 4 203 -26 63 -114 109 -200 103
-48 -3 -50 -4 -76 -53 -38 -70 -39 -149 -2 -205 15 -22 31 -40 35 -40 5 0 9
-10 9 -23 0 -61 -206 -90 -289 -41 -17 10 -31 22 -31 26 0 4 -14 27 -30 50
-20 29 -32 60 -37 96 -3 30 -11 56 -17 58 -6 2 -34 -2 -61 -11 -146 -44 -267
2 -431 164 -30 29 -54 57 -54 61 0 4 -12 11 -26 14 -19 5 -25 12 -22 29 3 21
7 22 128 22 72 0 152 7 188 15 46 10 65 11 70 3 5 -8 41 -10 117 -6 247 11
916 17 938 8 14 -6 17 -21 17 -95 0 -97 5 -120 26 -120 8 0 14 -4 14 -9 0 -19
70 -22 99 -5 25 15 30 25 36 76 4 32 11 58 16 58 5 0 9 6 9 14 0 8 7 16 15 20
8 3 15 15 15 26 0 11 6 22 13 25 25 8 539 26 762 27 340 1 316 3 345 -36 14
-19 37 -42 52 -53 16 -10 28 -24 28 -30 0 -7 5 -13 11 -13 6 0 20 -11 31 -25
11 -14 24 -25 30 -25 5 0 26 -17 46 -38 52 -53 121 -102 146 -102 12 0 26 -9
31 -22 6 -12 28 -32 50 -44 21 -12 41 -27 43 -33 2 -6 8 -11 14 -11 17 0 108
-44 108 -52 0 -5 11 -8 24 -8 13 0 26 -7 30 -15 3 -8 12 -15 20 -15 9 0 31 -9
51 -20 20 -11 41 -20 49 -20 7 0 18 -10 25 -22 11 -22 96 -58 135 -58 9 0 24
-4 34 -9 91 -45 87 -44 216 -39 101 4 130 9 158 25 19 11 52 26 74 33 67 21
94 34 94 47 0 7 5 13 12 13 16 0 108 99 108 116 0 8 7 26 16 40 26 39 14 155
-22 197 -39 47 -86 68 -152 68 -65 1 -100 -10 -122 -37 -78 -94 -62 -190 36
-226 24 -9 34 -18 34 -33 0 -30 -25 -49 -95 -76 -95 -36 -246 -29 -356 18 -50
20 -110 95 -121 150 -12 54 -71 117 -103 109 -41 -12 -163 -19 -208 -12 -58 9
-168 83 -279 188 -36 34 -39 83 -5 94 33 11 292 7 402 -6 75 -9 108 -9 147 1
38 8 93 9 207 3 86 -5 186 -8 224 -7 410 6 606 5 639 -6 32 -11 36 -16 42 -58
3 -25 6 -63 6 -84 0 -41 27 -79 54 -79 25 0 64 18 86 40 15 15 20 33 20 69 0
56 10 90 35 114 14 15 60 17 398 18 210 1 413 3 451 3 47 1 71 -3 74 -11 6
-20 57 -15 76 6 19 21 36 110 36 189 0 59 -21 119 -45 128 -25 10 -18 24 40
79 30 29 55 61 55 72 0 10 5 24 11 30 6 6 14 42 16 80 5 87 -14 127 -76 160
-102 53 -171 19 -171 -83 0 -50 2 -55 35 -76 54 -35 43 -80 -29 -119 -55 -29
-110 -25 -196 18 -79 39 -132 86 -156 140 -21 48 -45 57 -116 43 -35 -7 -87
-8 -129 -4 -75 7 -122 32 -243 127 -28 21 -75 52 -105 67 -60 31 -151 118
-151 144 0 13 19 16 128 18 265 6 748 3 760 -5z m-3175 -49 c16 -16 37 -52 47
-81 14 -40 24 -53 41 -55 35 -6 49 23 49 99 l0 66 58 6 c31 3 161 6 287 7
l230 1 45 -41 c25 -22 51 -40 58 -40 6 0 12 -7 12 -15 0 -9 7 -18 15 -21 8 -4
15 -15 15 -26 0 -12 10 -30 23 -42 12 -11 33 -36 45 -53 13 -18 29 -33 35 -33
14 0 83 46 117 78 13 12 30 22 37 22 7 0 13 5 13 10 0 6 7 10 15 10 7 0 18 7
22 15 5 8 31 18 58 22 33 4 56 14 72 31 22 24 26 25 255 33 128 5 244 12 258
16 14 4 48 8 75 8 28 1 76 6 109 10 49 7 60 6 68 -8 5 -10 15 -17 22 -17 8 0
21 -11 30 -25 9 -14 35 -33 57 -43 25 -10 42 -25 46 -39 3 -14 13 -23 24 -23
10 0 45 -27 77 -60 33 -33 62 -60 66 -60 3 0 14 -7 24 -15 48 -43 90 -75 96
-75 4 0 19 -11 34 -25 15 -14 34 -25 44 -25 9 0 18 -3 20 -7 7 -16 68 -53 88
-53 11 0 20 -7 20 -15 0 -9 9 -15 25 -15 14 0 25 -4 25 -10 0 -5 6 -10 13 -10
18 0 67 -24 67 -32 0 -5 14 -8 30 -8 34 0 40 -21 15 -46 -23 -23 -19 -38 8
-29 12 5 61 10 108 12 80 4 89 3 108 -18 12 -13 21 -28 21 -33 0 -17 -528 -20
-559 -4 -19 10 -27 26 -36 72 -12 59 -32 86 -66 86 -24 0 -79 -54 -79 -78 0
-12 -4 -24 -10 -27 -5 -3 -10 -14 -10 -24 0 -9 -6 -25 -12 -34 -12 -15 -50
-17 -393 -19 -399 -2 -937 8 -967 18 -22 7 -23 37 -3 57 8 9 36 23 62 32 27 9
56 21 65 26 32 16 150 29 279 29 124 0 127 1 143 25 9 13 16 31 16 40 0 8 5
15 10 15 6 0 10 9 10 20 0 11 6 20 13 20 8 0 20 11 27 25 7 13 25 27 41 30 15
4 33 13 40 21 9 11 40 14 134 14 l123 0 -1 -73 c-2 -79 17 -127 51 -127 9 0
23 -9 30 -20 7 -11 19 -20 27 -20 8 0 24 -5 34 -12 23 -14 76 4 87 30 20 49
45 228 35 255 -12 32 -61 72 -135 110 -56 28 -69 31 -146 29 -96 -2 -216 -32
-417 -105 -105 -39 -251 -104 -303 -137 -8 -5 -52 -25 -97 -45 -45 -20 -113
-56 -150 -81 -38 -24 -79 -47 -93 -51 -26 -6 -41 -13 -180 -84 l-85 -43 -165
-6 c-91 -3 -190 -1 -220 3 -30 5 -131 6 -225 3 -399 -15 -662 -22 -683 -18
-13 3 -25 10 -27 16 -30 109 -49 158 -65 166 -46 25 -138 2 -160 -39 -5 -11
-10 -47 -10 -80 l0 -60 -42 -5 c-184 -25 -451 -32 -509 -14 -30 9 -57 8 -121
-3 -102 -17 -342 -20 -546 -6 -143 10 -153 12 -150 30 3 22 123 76 171 77 25
0 65 16 77 31 13 16 77 23 203 24 150 0 157 3 157 58 0 53 48 114 97 123 18 3
52 3 76 0 36 -6 46 -13 70 -51 37 -57 76 -85 120 -85 41 0 97 28 97 49 0 8 7
19 15 25 10 7 18 34 22 67 5 52 3 59 -32 113 -25 37 -47 58 -64 62 -14 3 -42
10 -61 15 -63 16 -221 10 -305 -11 -43 -11 -83 -24 -89 -29 -6 -5 -28 -12 -48
-16 -21 -4 -61 -21 -90 -39 -29 -17 -83 -48 -120 -69 -37 -21 -71 -43 -75 -50
-9 -13 -16 -18 -113 -73 -36 -21 -108 -67 -160 -103 -52 -36 -139 -89 -192
-117 l-97 -52 -143 -3 c-312 -6 -870 -1 -994 10 l-79 6 -3 67 c-3 61 -6 71
-36 103 -44 46 -85 48 -128 4 -30 -30 -31 -32 -25 -105 l6 -76 -36 -15 c-30
-12 -76 -13 -277 -8 -330 9 -635 6 -796 -6 -125 -9 -744 -3 -762 8 -19 11 -5
31 30 41 42 13 61 26 135 95 28 26 59 47 70 47 10 0 32 11 49 25 16 14 38 25
49 25 10 0 19 4 19 9 0 37 279 81 318 50 34 -28 62 -39 97 -39 29 0 36 4 41
28 9 33 33 74 52 86 8 4 20 23 28 41 11 28 19 33 61 40 68 11 129 9 195 -6
l56 -13 4 -80 c4 -93 34 -156 75 -156 12 0 25 -5 29 -11 10 -16 102 -3 125 17
11 10 19 25 19 35 0 9 6 19 13 21 22 8 8 208 -14 208 -5 0 -9 9 -9 20 0 30
-66 97 -108 110 -20 6 -46 15 -57 20 -11 5 -61 16 -112 25 -79 15 -102 16
-160 5 -37 -7 -84 -18 -103 -25 -19 -7 -60 -16 -90 -20 -51 -6 -113 -28 -215
-76 -62 -29 -203 -105 -217 -117 -7 -6 -40 -20 -73 -33 -33 -12 -72 -30 -87
-40 -14 -11 -31 -19 -37 -19 -6 0 -11 -4 -11 -10 0 -5 -5 -10 -10 -10 -6 0
-50 -26 -98 -57 -48 -32 -116 -72 -151 -90 -41 -20 -82 -51 -113 -85 l-48 -53
-178 -3 c-144 -3 -192 0 -248 14 -53 13 -124 18 -307 21 -153 2 -246 7 -260
14 -13 8 -55 10 -116 7 -111 -6 -145 0 -149 27 -9 52 -44 139 -59 151 -40 30
-139 8 -163 -35 -5 -11 -10 -47 -10 -80 l0 -60 -42 -5 c-184 -25 -451 -32
-509 -14 -30 9 -57 8 -121 -3 -102 -17 -342 -20 -546 -6 -143 10 -153 12 -150
30 3 22 123 76 171 77 25 0 65 16 77 31 13 16 77 23 203 24 150 0 157 3 157
58 0 53 48 114 97 123 18 3 52 3 76 0 36 -6 46 -13 70 -51 37 -57 76 -85 120
-85 41 0 97 28 97 49 0 8 7 19 15 25 10 7 18 34 22 67 5 47 2 61 -18 92 -13
19 -49 50 -79 68 -51 30 -62 33 -165 37 -112 4 -209 -11 -279 -43 -17 -7 -49
-18 -71 -24 -22 -6 -60 -23 -85 -39 -25 -15 -75 -45 -112 -65 -37 -21 -71 -43
-75 -50 -9 -13 -16 -18 -113 -73 -36 -21 -108 -67 -160 -103 -52 -36 -139 -89
-192 -117 l-97 -52 -143 -3 c-312 -6 -870 -1 -994 10 l-79 6 -3 67 c-3 61 -6
71 -36 103 -44 46 -85 48 -128 4 -30 -30 -31 -32 -25 -105 l6 -76 -36 -15
c-30 -12 -76 -13 -277 -8 -330 9 -635 6 -796 -6 -125 -9 -744 -3 -762 8 -19
11 -5 31 30 41 42 13 61 26 135 95 28 26 59 47 70 47 10 0 32 11 49 25 16 14
38 25 49 25 10 0 19 4 19 9 0 37 279 81 318 50 34 -28 62 -39 97 -39 29 0 36
4 41 28 9 33 33 74 52 86 8 4 20 23 28 41 11 28 19 33 61 40 68 11 129 9 195
-6 l56 -13 4 -80 c4 -93 34 -156 75 -156 12 0 25 -5 29 -11 10 -16 102 -3 125
17 11 10 19 25 19 35 0 9 6 19 13 21 22 8 8 208 -14 208 -5 0 -9 9 -9 20 0 30
-66 97 -108 110 -20 6 -46 15 -57 20 -11 5 -61 16 -112 25 -79 15 -102 16
-160 5 -37 -7 -84 -18 -103 -25 -19 -7 -60 -16 -90 -20 -51 -6 -113 -28 -215
-76 -62 -29 -203 -105 -217 -117 -7 -6 -40 -20 -73 -33 -33 -12 -72 -30 -87
-40 -14 -11 -31 -19 -37 -19 -6 0 -11 -4 -11 -10 0 -5 -5 -10 -10 -10 -6 0
-55 -28 -108 -63 -53 -35 -122 -75 -153 -91 -32 -15 -73 -46 -95 -72 -65 -75
-62 -75 -458 -74 -193 0 -360 0 -371 -1 -109 -3 -363 5 -372 13 -6 5 -13 19
-15 31 -2 13 -13 23 -28 27 -17 4 -26 15 -31 35 -18 81 -34 106 -81 132 -53
29 -86 26 -124 -12 -20 -21 -24 -34 -24 -89 l0 -65 -42 -5 c-184 -25 -451 -32
-509 -14 -30 9 -57 8 -121 -3 -102 -17 -342 -20 -546 -6 -143 10 -153 12 -150
30 3 22 123 76 171 77 25 0 65 16 77 31 13 16 77 23 203 24 150 0 157 3 157
58 0 53 48 114 97 123 18 3 52 3 76 0 36 -6 46 -13 70 -51 37 -57 76 -85 120
-85 41 0 97 28 97 49 0 8 7 19 15 25 10 7 18 34 22 69 7 71 1 79 -118 146 -88
51 -89 51 -177 51 -86 0 -230 -28 -256 -49 -6 -5 -28 -12 -48 -16 -21 -4 -61
-21 -90 -39 -29 -17 -83 -48 -120 -69 -37 -21 -71 -43 -75 -50 -9 -13 -16 -18
-113 -73 -36 -21 -108 -67 -160 -103 -52 -36 -139 -89 -192 -117 l-97 -52
-143 -3 c-312 -6 -870 -1 -994 10 l-79 6 -3 67 c-3 61 -6 71 -36 103 -44 46
-85 48 -128 4 -30 -30 -31 -32 -25 -105 l6 -76 -36 -15 c-30 -12 -76 -13 -277
-8 -330 9 -635 6 -796 -6 -125 -9 -744 -3 -762 8 -19 11 -5 31 30 41 42 13 61
26 135 95 28 26 59 47 70 47 10 0 32 11 49 25 16 14 38 25 49 25 10 0 19 4 19
9 0 37 279 81 318 50 34 -28 62 -39 97 -39 29 0 36 4 41 28 9 33 33 74 52 86
8 4 20 23 28 41 11 28 19 33 61 40 68 11 129 9 195 -6 l56 -13 4 -80 c4 -93
34 -156 75 -156 12 0 25 -5 29 -11 10 -16 102 -3 125 17 11 10 19 25 19 35 0
9 6 19 13 21 22 8 8 208 -14 208 -5 0 -9 9 -9 20 0 30 -66 97 -108 110 -20 6
-46 15 -57 20 -11 5 -61 16 -112 25 -79 15 -102 16 -160 5 -37 -7 -84 -18
-103 -25 -19 -7 -60 -16 -90 -20 -51 -6 -113 -28 -215 -76 -62 -29 -203 -105
-217 -117 -7 -6 -40 -20 -73 -33 -33 -12 -72 -30 -87 -40 -14 -11 -31 -19 -37
-19 -6 0 -11 -4 -11 -10 0 -5 -5 -10 -10 -10 -6 0 -55 -28 -108 -63 -53 -35
-122 -75 -153 -91 -32 -15 -73 -46 -95 -72 -65 -75 -61 -75 -463 -74 -196 0
-365 0 -376 -1 -22 -2 -303 -2 -466 0 -122 1 -149 14 -149 71 0 18 -9 48 -21
66 -17 29 -26 34 -58 34 -48 0 -85 -37 -109 -111 -17 -54 -17 -54 -64 -59 -25
-3 -129 -2 -230 3 -134 7 -203 6 -257 -3 -60 -10 -581 -25 -721 -21 -122 3
-190 13 -190 28 0 17 24 43 39 43 6 0 11 6 11 13 0 15 40 37 68 37 9 0 26 7
36 15 11 8 29 15 41 15 12 0 25 3 29 7 17 17 108 32 193 33 50 0 94 4 97 9 3
5 8 53 11 106 4 77 9 103 23 119 11 12 22 28 25 37 11 34 147 47 213 22 21 -8
17 -33 -10 -58 -18 -17 -25 -36 -30 -91 -4 -43 -3 -81 4 -98 5 -15 10 -36 10
-47 0 -22 34 -59 54 -59 8 0 17 -4 20 -9 6 -8 32 -14 135 -27 43 -6 79 5 109
34 7 6 17 12 21 12 4 0 18 19 31 42 13 24 27 45 31 48 5 3 9 39 11 79 3 65 1
75 -19 91 -13 10 -23 24 -23 32 -2 43 -163 164 -254 190 -23 7 -99 12 -171 12
-132 1 -192 -9 -270 -44 -22 -10 -62 -28 -90 -40 -27 -12 -54 -28 -58 -36 -4
-8 -13 -14 -19 -14 -26 0 -244 -207 -310 -296 -18 -24 -37 -44 -42 -44 -5 0
-27 -15 -50 -33 -23 -19 -49 -36 -58 -40 -10 -3 -18 -11 -18 -16 0 -5 -24 -21
-52 -36 -52 -27 -56 -27 -358 -37 -483 -16 -509 -16 -526 2 -8 8 -28 34 -44
57 -41 58 -69 74 -133 76 -46 1 -62 -4 -97 -28 -26 -18 -49 -45 -60 -70 -9
-22 -24 -45 -31 -51 -22 -18 -224 -33 -272 -21 -26 7 -50 7 -71 0 -18 -6 -111
-8 -226 -6 -107 3 -336 5 -507 6 -221 1 -313 5 -313 13 0 12 55 64 67 64 5 0
20 6 34 14 14 7 43 16 65 20 21 4 53 11 69 16 17 5 57 16 90 25 35 10 97 18
150 18 51 1 93 5 97 11 4 6 5 39 1 74 -5 56 -4 65 17 87 13 14 29 25 37 25 7
0 13 5 13 10 0 6 13 10 29 10 16 0 34 7 41 15 8 10 31 15 71 15 59 0 59 0 59
-30 0 -16 -5 -30 -11 -30 -14 0 -3 -99 12 -114 5 -6 9 -20 9 -33 0 -24 26 -43
58 -43 11 0 25 -7 32 -15 8 -9 30 -15 60 -15 51 0 76 17 133 89 27 33 28 40
22 96 -12 100 -53 158 -144 202 -51 25 -65 27 -161 26 -58 -1 -134 -8 -170
-16 -77 -17 -260 -88 -300 -117 -15 -11 -32 -20 -38 -20 -5 0 -46 -27 -90 -60
-45 -33 -86 -60 -91 -60 -11 0 -54 -35 -102 -82 -15 -16 -35 -28 -44 -28 -10
0 -37 -15 -60 -34 -23 -19 -55 -43 -72 -53 -17 -10 -53 -31 -80 -48 -44 -27
-57 -29 -161 -33 -87 -3 -125 0 -167 14 -50 15 -55 19 -55 45 0 21 7 32 28 43
29 16 62 50 62 66 0 6 5 10 10 10 6 0 10 8 10 18 0 10 12 31 27 48 69 72 78
142 28 197 -51 55 -163 76 -215 40 -60 -40 -120 -134 -120 -186 0 -35 -34 -44
-109 -27 -71 16 -96 29 -183 96 -78 60 -80 61 -193 68 -127 8 -201 26 -265 65
-8 5 -46 23 -84 40 -61 28 -134 87 -162 131 -5 9 -21 23 -36 33 -21 13 -28 25
-28 50 0 51 29 58 221 55 l164 -3 11 -68 c13 -76 23 -92 52 -83 20 7 32 43 32
96 0 24 5 28 37 34 21 3 97 6 169 6 94 0 142 4 167 15 20 8 41 15 47 15 6 0
10 -32 10 -80 0 -89 7 -96 50 -50 15 17 32 30 38 30 5 0 12 7 16 15 3 8 12 15
20 15 7 0 16 9 19 20 3 12 14 20 25 20 12 0 24 5 27 10 3 6 24 10 46 10 21 0
39 5 39 10 0 6 14 10 30 10 17 0 30 -4 30 -10 0 -5 24 -10 53 -10 41 0 58 -5
72 -20 13 -14 31 -20 60 -20 31 0 47 -6 64 -24 14 -15 39 -26 67 -31 24 -3 44
-10 44 -16 0 -5 8 -9 18 -9 11 0 32 -11 48 -25 16 -14 35 -25 42 -25 7 0 15
-7 18 -15 4 -8 11 -15 16 -15 6 0 16 -7 23 -16 6 -9 32 -18 59 -21 42 -5 49
-3 74 24 18 19 52 37 100 52 40 13 75 27 78 32 3 5 23 9 44 9 21 0 42 4 45 10
3 5 26 10 51 10 25 0 55 5 67 12 37 20 505 26 570 7 18 -5 49 -9 69 -9 28 0
45 -8 68 -30 17 -16 40 -30 50 -30 11 0 20 -4 20 -10 0 -5 5 -10 11 -10 6 0
23 -8 37 -19 15 -10 38 -21 52 -24 14 -4 38 -18 54 -32 16 -14 35 -25 42 -25
7 0 25 -14 41 -30 15 -17 36 -30 45 -30 9 0 23 -7 32 -15 8 -8 23 -15 34 -15
10 0 25 -11 32 -25 8 -14 22 -25 34 -25 19 0 81 -37 120 -73 11 -9 25 -17 32
-17 7 0 17 -6 21 -12 9 -15 41 -36 66 -44 9 -4 17 -9 17 -13 0 -10 58 -36 125
-57 33 -11 62 -22 65 -26 11 -14 85 -40 145 -51 75 -14 243 -13 258 2 6 6 18
11 27 11 14 0 70 51 70 65 0 3 15 23 34 43 31 32 35 43 41 112 9 100 -11 165
-66 215 -22 19 -45 35 -52 35 -8 0 -29 7 -46 16 -38 19 -86 14 -126 -12 -46
-30 -99 -164 -65 -164 6 0 10 -5 10 -11 0 -16 26 -39 44 -39 23 0 20 -36 -6
-72 -20 -29 -24 -30 -77 -25 -87 8 -221 78 -221 115 0 4 -11 23 -24 43 -14 20
-26 51 -28 70 -4 47 -29 56 -178 64 -69 4 -142 13 -163 21 -20 8 -46 14 -57
14 -10 0 -42 13 -70 30 -28 16 -56 30 -61 30 -6 0 -38 20 -70 45 -33 25 -64
45 -69 45 -11 0 -12 15 -4 45 5 19 15 20 142 22 218 4 250 -6 207 -63 -8 -10
-15 -31 -15 -45 0 -23 5 -28 36 -34 39 -7 38 -7 131 83 40 38 49 42 94 42 55
0 62 -11 29 -52 -51 -65 -42 -112 20 -106 26 2 40 11 55 34 23 35 88 84 112
84 9 0 30 11 47 23 29 22 43 24 198 30 140 5 167 3 172 -9 3 -8 17 -19 31 -24
14 -5 25 -14 25 -20 0 -5 9 -10 20 -10 11 0 23 -7 26 -15 4 -8 12 -15 20 -15
8 0 14 -4 14 -10 0 -5 6 -10 13 -10 14 0 47 -35 47 -50 0 -6 9 -19 20 -30 26
-26 75 -26 92 -1 7 10 34 24 58 31 25 7 57 25 72 41 15 15 41 33 58 40 16 8
30 17 30 21 0 5 17 8 38 8 21 0 42 4 47 8 24 20 101 32 240 38 230 9 407 6
418 -5 6 -6 26 -11 44 -11 18 0 33 -4 33 -9 0 -5 21 -12 48 -15 26 -4 71 -16
100 -27 29 -10 61 -19 72 -19 10 0 20 -3 22 -7 3 -8 61 -47 105 -71 13 -6 32
-12 43 -12 11 0 20 -7 20 -15 0 -8 5 -15 11 -15 6 0 20 -11 31 -25 12 -16 30
-25 47 -25 15 0 33 -8 41 -20 8 -11 20 -20 28 -20 7 0 15 -7 18 -15 4 -8 16
-15 28 -15 11 0 34 -11 50 -25 16 -14 37 -25 47 -25 10 0 21 -4 24 -10 3 -5
13 -10 21 -10 13 0 69 -34 84 -50 11 -12 133 -60 152 -60 11 0 26 -7 32 -15
11 -14 92 -40 176 -55 25 -5 58 -13 73 -19 44 -17 346 -14 377 4 14 8 38 14
53 15 19 0 40 13 67 40 22 22 44 40 50 40 5 0 10 9 10 20 0 11 4 20 8 20 17 0
32 53 32 113 0 56 -3 66 -33 99 -37 43 -107 78 -157 78 -39 0 -108 -29 -128
-53 -14 -16 -12 -116 3 -199 7 -36 6 -37 -31 -47 -22 -6 -60 -11 -85 -11 -57
0 -91 23 -212 144 -47 47 -93 86 -102 86 -8 0 -43 -8 -76 -17 -51 -14 -74 -15
-142 -6 -95 12 -218 59 -276 107 -22 17 -71 56 -110 86 -47 37 -70 62 -71 76
0 22 1 22 193 18 105 -1 195 -3 199 -3 17 -2 76 -64 82 -86 4 -14 12 -25 19
-25 7 0 17 -10 22 -22 11 -25 60 -37 78 -19 5 5 9 42 8 81 l-2 71 58 -3 58 -3
3 -44 c2 -24 10 -50 18 -58 8 -8 14 -25 14 -38 0 -25 17 -35 60 -35 35 0 48
15 56 70 16 113 37 123 256 113 104 -4 147 -3 152 6 9 14 72 15 81 1 3 -5 40
-10 81 -10 43 0 74 -4 74 -10 0 -5 8 -10 18 -10 10 0 25 -9 35 -20 9 -11 44
-27 77 -37 33 -9 60 -20 60 -23 0 -19 84 -90 106 -90 14 0 27 -7 30 -15 7 -17
54 -21 54 -5 0 6 11 10 24 10 13 0 29 6 35 14 6 7 24 16 39 19 15 3 36 14 47
24 11 11 43 27 72 36 29 9 72 30 96 47 93 63 123 68 447 74 438 9 631 9 668
-3 18 -5 51 -26 74 -45 23 -20 49 -36 59 -36 9 0 19 -7 23 -15 3 -8 13 -15 22
-15 10 0 31 -15 48 -33 17 -18 57 -45 89 -61 31 -15 57 -31 57 -34 0 -4 15
-13 33 -21 17 -8 43 -25 57 -39 35 -35 81 -62 106 -62 12 0 44 -18 70 -40 27
-22 58 -40 70 -40 12 0 33 -11 49 -25 15 -14 40 -29 57 -32 16 -3 32 -12 35
-19 2 -7 28 -18 56 -24 28 -6 61 -19 72 -29 20 -18 37 -24 125 -41 25 -4 58
-13 73 -19 35 -13 77 -14 77 -2 0 5 33 12 73 15 73 5 144 13 183 21 11 3 33
16 50 30 16 14 33 25 38 25 5 0 21 13 35 28 14 16 37 36 50 45 38 25 69 175
41 192 -5 3 -10 17 -10 31 0 17 -13 33 -42 54 -38 28 -48 31 -107 28 -60 -3
-66 -5 -82 -33 -10 -16 -18 -51 -18 -76 -1 -38 4 -51 29 -75 20 -20 30 -39 30
-61 0 -39 -4 -42 -77 -49 -52 -5 -64 -2 -123 28 -65 33 -104 74 -136 145 -22
49 -51 51 -165 13 -92 -31 -105 -33 -184 -26 -99 7 -145 27 -271 118 -44 32
-86 58 -92 58 -7 0 -12 6 -12 13 0 7 -11 23 -25 35 -14 12 -25 32 -25 45 0 37
76 50 234 41 142 -8 127 4 142 -114 8 -68 17 -80 62 -80 43 0 61 22 62 72 0
27 7 42 25 56 14 11 25 29 25 40 0 14 9 21 31 26 47 9 89 7 89 -4 0 -5 9 -10
19 -10 29 0 35 -16 41 -110 5 -85 5 -85 34 -88 66 -8 92 20 110 119 9 52 46
85 102 93 108 14 386 -2 408 -24 6 -6 25 -10 43 -10 18 0 33 -3 33 -7 0 -9 49
-33 67 -33 7 0 13 -6 13 -14 0 -8 10 -18 21 -21 12 -4 34 -19 48 -34 38 -38
77 -61 104 -61 31 0 77 22 77 38 0 6 11 12 24 12 32 0 106 27 120 44 6 8 28
17 48 20 20 4 50 13 65 21 15 9 45 18 66 21 20 4 37 10 37 14 0 9 150 21 164
13 5 -3 30 -8 55 -10 25 -2 50 -8 56 -14 5 -5 24 -9 42 -9 18 0 33 -4 33 -9 0
-5 21 -12 48 -15 26 -4 71 -16 100 -27 29 -10 61 -19 72 -19 10 0 20 -3 22 -7
3 -8 61 -47 105 -71 13 -6 32 -12 43 -12 11 0 20 -7 20 -15 0 -8 5 -15 11 -15
6 0 20 -11 31 -25 12 -16 30 -25 47 -25 15 0 33 -8 41 -20 8 -11 20 -20 28
-20 7 0 15 -7 18 -15 4 -8 16 -15 28 -15 11 0 34 -11 50 -25 16 -14 37 -25 47
-25 10 0 21 -4 24 -10 3 -5 13 -10 21 -10 13 0 69 -34 84 -50 11 -12 133 -60
152 -60 11 0 26 -7 32 -15 11 -14 92 -40 176 -55 25 -5 58 -13 73 -19 44 -17
346 -14 377 4 14 8 38 14 53 15 19 0 40 13 67 40 22 22 44 40 50 40 5 0 10 9
10 20 0 11 4 20 8 20 17 0 32 53 32 113 0 56 -3 66 -33 99 -37 43 -107 78
-157 78 -39 0 -108 -29 -128 -53 -14 -16 -12 -116 3 -199 7 -36 6 -37 -31 -47
-22 -6 -60 -11 -85 -11 -57 0 -91 23 -212 144 -47 47 -93 86 -102 86 -8 0 -43
-8 -76 -17 -51 -14 -74 -15 -142 -6 -95 12 -218 59 -276 107 -22 17 -71 56
-110 86 -47 37 -70 62 -71 76 0 22 1 22 193 18 105 -1 195 -3 199 -3 17 -2 76
-64 82 -86 4 -14 12 -25 19 -25 7 0 17 -10 22 -22 11 -25 60 -37 78 -19 5 5 9
42 8 81 l-2 71 58 -3 58 -3 3 -44 c2 -24 10 -50 18 -58 8 -8 14 -25 14 -38 0
-25 17 -35 60 -35 35 0 48 15 56 70 16 113 37 123 256 113 104 -4 147 -3 152
6 9 14 72 15 81 1 3 -5 40 -10 81 -10 43 0 74 -4 74 -10 0 -5 8 -10 18 -10 10
0 25 -9 35 -20 9 -11 44 -27 77 -37 33 -9 60 -20 60 -23 0 -19 84 -90 106 -90
14 0 27 -7 30 -15 7 -17 54 -21 54 -5 0 6 11 10 24 10 13 0 29 6 35 14 6 7 24
16 39 19 15 3 36 14 47 24 11 11 43 27 72 36 29 9 72 30 96 47 93 63 123 68
447 74 438 9 631 9 668 -3 18 -5 51 -26 74 -45 23 -20 49 -36 59 -36 9 0 19
-7 23 -15 3 -8 13 -15 22 -15 10 0 31 -15 48 -33 17 -18 57 -45 89 -61 31 -15
57 -31 57 -34 0 -4 15 -13 33 -21 17 -8 43 -25 57 -39 35 -35 81 -62 106 -62
12 0 44 -18 70 -40 27 -22 58 -40 70 -40 12 0 33 -11 49 -25 15 -14 40 -29 57
-32 16 -3 32 -12 35 -19 2 -7 28 -18 56 -24 28 -6 61 -19 72 -29 20 -18 37
-24 125 -41 25 -4 58 -13 73 -19 35 -13 77 -14 77 -2 0 5 33 12 73 15 73 5
144 13 183 21 11 3 33 16 50 30 16 14 33 25 38 25 5 0 21 13 35 28 14 16 37
36 50 45 38 25 69 175 41 192 -5 3 -10 17 -10 31 0 17 -13 33 -42 54 -38 28
-48 31 -107 28 -60 -3 -66 -5 -82 -33 -10 -16 -18 -51 -18 -76 -1 -38 4 -51
29 -75 20 -20 30 -39 30 -61 0 -39 -4 -42 -77 -49 -52 -5 -64 -2 -123 28 -65
33 -104 74 -136 145 -22 49 -51 51 -165 13 -92 -31 -105 -33 -184 -26 -99 7
-145 27 -271 118 -44 32 -86 58 -92 58 -7 0 -12 6 -12 13 0 7 -11 23 -25 35
-14 12 -25 32 -25 45 0 37 76 50 234 41 142 -8 127 4 142 -114 8 -68 17 -80
62 -80 43 0 61 22 62 72 0 27 7 42 25 56 14 11 25 29 25 40 0 14 9 21 31 26
47 9 89 7 89 -4 0 -5 9 -10 19 -10 29 0 35 -16 41 -110 5 -85 5 -85 34 -88 66
-8 92 20 110 119 9 52 46 85 102 93 108 14 386 -2 408 -24 6 -6 25 -10 43 -10
18 0 33 -3 33 -7 0 -9 49 -33 67 -33 7 0 13 -6 13 -14 0 -8 10 -18 21 -21 12
-4 34 -19 48 -34 38 -38 77 -61 104 -61 31 0 77 22 77 38 0 6 11 12 24 12 32
0 106 27 120 44 6 8 28 17 48 20 20 4 50 13 65 21 15 9 45 18 66 21 20 4 37
10 37 15 0 5 21 9 48 9 26 0 67 5 91 11 31 7 47 6 57 -2 8 -7 36 -14 62 -16
26 -2 51 -8 56 -14 6 -5 25 -9 43 -9 18 0 33 -4 33 -9 0 -5 21 -12 48 -15 26
-4 71 -16 100 -27 29 -10 61 -19 72 -19 10 0 20 -3 22 -7 3 -8 61 -47 105 -71
13 -6 32 -12 43 -12 11 0 20 -7 20 -15 0 -8 5 -15 11 -15 6 0 20 -11 31 -25
12 -16 30 -25 47 -25 15 0 33 -8 41 -20 8 -11 20 -20 28 -20 7 0 15 -7 18 -15
4 -8 16 -15 28 -15 11 0 34 -11 50 -25 16 -14 37 -25 47 -25 10 0 21 -4 24
-10 3 -5 13 -10 21 -10 13 0 69 -34 84 -50 11 -12 133 -60 152 -60 11 0 26 -7
32 -15 11 -14 92 -40 176 -55 25 -5 58 -13 73 -19 44 -17 346 -14 377 4 14 8
38 14 53 15 19 0 40 13 67 40 22 22 44 40 50 40 5 0 10 9 10 20 0 11 4 20 8
20 17 0 32 53 32 113 0 56 -3 66 -32 99 -38 43 -108 78 -158 78 -39 0 -108
-29 -128 -53 -14 -16 -12 -116 3 -199 7 -36 6 -37 -31 -47 -22 -6 -60 -11 -85
-11 -57 0 -91 23 -212 144 -47 47 -93 86 -102 86 -8 0 -43 -8 -76 -17 -51 -14
-74 -15 -142 -6 -95 12 -218 59 -276 107 -22 17 -71 56 -110 86 -47 37 -70 62
-71 76 0 22 1 22 193 18 105 -1 195 -3 199 -3 17 -2 76 -64 82 -86 4 -14 12
-25 19 -25 7 0 17 -10 22 -22 11 -25 60 -37 78 -19 5 5 9 42 8 81 l-2 71 58
-3 58 -3 3 -44 c2 -24 10 -50 18 -58 8 -8 14 -25 14 -38 0 -25 17 -35 60 -35
35 0 48 15 56 70 16 113 37 123 256 113 104 -4 147 -3 152 6 9 14 72 15 81 1
3 -5 40 -10 81 -10 43 0 74 -4 74 -10 0 -5 8 -10 18 -10 10 0 25 -9 35 -20 9
-11 44 -27 77 -37 33 -9 60 -20 60 -23 0 -19 84 -90 106 -90 14 0 27 -7 30
-15 7 -17 54 -21 54 -5 0 6 11 10 24 10 13 0 29 6 35 14 6 7 24 16 39 19 15 3
36 14 47 24 11 11 43 27 72 36 29 9 72 30 96 47 93 63 123 68 447 74 438 9
631 9 668 -3 18 -5 51 -26 74 -45 23 -20 49 -36 59 -36 9 0 19 -7 23 -15 3 -8
13 -15 22 -15 10 0 31 -15 48 -33 17 -18 57 -45 89 -61 31 -15 57 -31 57 -34
0 -4 15 -13 33 -21 17 -8 43 -25 57 -39 35 -35 81 -62 106 -62 12 0 44 -18 70
-40 27 -22 58 -40 70 -40 12 0 33 -11 49 -25 15 -14 40 -29 57 -32 16 -3 32
-12 35 -19 2 -7 28 -18 56 -24 28 -6 61 -19 72 -29 20 -18 37 -24 125 -41 25
-4 58 -13 73 -19 35 -13 77 -14 77 -2 0 5 33 12 73 15 73 5 144 13 183 21 11
3 33 16 50 30 16 14 33 25 38 25 5 0 21 13 35 28 14 16 37 36 50 45 38 25 69
175 41 192 -5 3 -10 17 -10 31 0 17 -13 33 -42 54 -38 28 -48 31 -107 28 -60
-3 -66 -5 -82 -33 -10 -16 -18 -51 -18 -76 -1 -38 4 -51 29 -75 20 -20 30 -39
30 -61 0 -39 -4 -42 -77 -49 -52 -5 -64 -2 -123 28 -65 33 -104 74 -136 145
-22 49 -51 51 -165 13 -92 -31 -105 -33 -184 -26 -99 7 -145 27 -271 118 -44
32 -86 58 -92 58 -7 0 -12 6 -12 13 0 7 -11 23 -25 35 -14 12 -25 32 -25 45 0
37 76 50 234 41 142 -8 127 4 142 -114 8 -68 17 -80 62 -80 43 0 61 22 62 72
0 27 7 42 25 56 14 11 25 29 25 40 0 14 9 21 31 26 47 9 89 7 89 -4 0 -5 9
-10 19 -10 29 0 35 -16 41 -110 5 -85 5 -85 34 -88 66 -8 92 20 110 119 9 52
46 85 102 93 108 14 386 -2 408 -24 6 -6 25 -10 43 -10 18 0 33 -3 33 -7 0 -9
49 -33 67 -33 7 0 13 -6 13 -14 0 -8 10 -18 21 -21 12 -4 34 -19 48 -34 38
-38 77 -61 104 -61 31 0 77 22 77 38 0 6 11 12 24 12 32 0 106 27 120 44 6 8
28 17 48 20 20 4 50 13 65 21 15 9 45 18 66 21 20 4 37 10 37 14 0 13 152 24
310 22 85 -1 208 -1 273 -1 78 1 117 -3 117 -10 0 -6 7 -11 15 -11 8 0 15 -4
15 -10 0 -5 10 -10 23 -10 13 0 27 -4 32 -9 6 -5 27 -14 48 -21 20 -6 37 -15
37 -20 0 -4 8 -10 18 -14 24 -8 52 -27 78 -53 11 -13 26 -23 33 -23 6 0 11 -4
11 -10 0 -5 7 -10 15 -10 8 0 15 -3 15 -7 0 -5 18 -16 39 -27 21 -10 44 -29
50 -42 6 -13 17 -24 24 -24 7 0 42 -16 77 -35 36 -19 72 -35 80 -35 8 0 21 -9
27 -19 8 -12 34 -24 68 -32 30 -7 55 -16 55 -20 0 -17 33 -39 61 -39 16 0 29
-4 29 -10 0 -5 9 -10 20 -10 11 0 20 -4 20 -9 0 -5 19 -15 43 -24 23 -8 58
-20 77 -27 19 -7 49 -18 65 -25 61 -25 143 -45 186 -45 24 1 91 9 148 19 81
13 108 22 122 39 9 12 24 22 31 22 8 0 37 16 64 35 27 19 55 35 61 35 7 0 13
6 13 13 0 6 16 27 35 46 43 43 59 90 52 152 -6 52 -43 118 -79 143 -44 31
-135 15 -197 -34 -28 -23 -31 -30 -31 -80 0 -43 6 -64 25 -93 14 -20 32 -37
40 -37 27 0 15 -35 -18 -54 -34 -20 -147 -33 -191 -22 -18 4 -32 20 -46 50
-38 80 -121 138 -164 114 -10 -5 -65 -8 -124 -6 -88 2 -125 9 -212 37 -58 18
-123 42 -146 52 -23 11 -46 19 -51 19 -6 0 -16 7 -23 15 -7 8 -28 17 -47 21
-19 4 -54 23 -78 43 -74 63 -85 71 -95 71 -6 0 -10 11 -10 24 l0 23 200 2 200
2 0 -65 c0 -56 3 -67 22 -80 35 -25 73 -20 86 9 7 14 12 35 12 46 0 11 15 35
33 54 30 31 39 34 97 37 102 5 132 -1 163 -34z"/>
</g>
</svg>
