<?xml version="1.0" standalone="no"?>
<!DOCTYPE svg PUBLIC "-//W3C//DTD SVG 20010904//EN"
 "http://www.w3.org/TR/2001/REC-SVG-20010904/DTD/svg10.dtd">
<svg version="1.0" xmlns="http://www.w3.org/2000/svg"
 width="2193.000000pt" height="330.000000pt" viewBox="0 0 2193.000000 330.000000"
 preserveAspectRatio="xMidYMid meet">
<metadata>
Created by potrace 1.13, written by Peter Selinger 2001-2015
</metadata>
<g transform="translate(0.000000,330.000000) scale(0.100000,-0.100000)"
fill="#000000" stroke="none">
<path d="M12165 3230 c-5 -9 -31 -11 -89 -8 -44 3 -164 0 -266 -8 -112 -7
-189 -9 -194 -3 -11 10 -958 11 -1501 0 -198 -4 -365 -3 -371 1 -9 7 -327 11
-784 11 -25 0 -799 -4 -1720 -8 -1908 -9 -2011 -9 -2324 -1 -145 4 -233 2
-241 -4 -8 -6 -38 -7 -86 -1 -44 6 -328 7 -694 3 -743 -8 -730 -8 -778 3 -26
5 -46 4 -62 -5 -19 -10 -28 -10 -38 -1 -11 8 -103 10 -358 5 -189 -3 -508 -6
-709 -5 -201 0 -489 1 -640 0 -387 0 -666 1 -950 3 -168 2 -251 -1 -263 -8
-16 -10 -16 -12 -2 -18 13 -5 15 -13 9 -38 -6 -31 -7 -350 -4 -1323 1 -209 1
-549 1 -755 1 -824 3 -996 17 -1013 17 -20 -121 -20 4257 -18 2536 0 3762 -3
3853 -10 93 -7 137 -7 146 0 9 7 318 9 997 6 541 -3 1002 -5 1024 -6 22 0 529
2 1127 6 716 4 1094 2 1106 -4 13 -7 22 -7 29 0 13 13 -93 12 1143 5 564 -3
1054 -5 1090 -5 354 1 3843 1 3960 -1 85 -1 765 1 1510 4 955 4 1365 2 1388
-5 22 -7 37 -8 43 -2 8 8 13 572 16 1748 0 44 -1 386 -3 759 l-3 680 -25 15
c-21 13 -31 13 -56 4 -22 -8 -39 -9 -61 -1 -19 6 -48 7 -77 2 -26 -4 -623 -7
-1327 -6 -704 2 -1305 2 -1335 2 -30 0 -366 -2 -747 -5 -437 -3 -694 -1 -698
5 -8 14 -62 12 -71 -1 -5 -8 -134 -9 -483 -3 -262 5 -498 7 -526 6 -126 -8
-481 -7 -493 1 -7 6 -36 7 -65 3 -28 -3 -707 -9 -1507 -12 -800 -3 -1467 -9
-1482 -14 -16 -5 -41 -5 -59 0 -17 5 -65 8 -108 7 -44 0 -90 4 -108 12 -21 9
-56 11 -114 6 -118 -8 -208 -8 -250 0 -25 5 -39 3 -44 -5z m-8055 -85 c1506
-3 1445 0 1507 -72 l33 -38 20 24 c11 13 20 29 20 36 0 18 89 45 147 45 32 0
65 -9 102 -27 51 -26 66 -45 85 -105 7 -22 39 -23 59 -3 9 8 18 33 22 56 4 23
16 50 26 60 21 21 26 22 259 19 95 -1 166 3 185 10 43 17 72 5 102 -43 32 -51
132 -151 191 -191 37 -26 55 -30 128 -34 102 -5 151 10 209 67 38 37 40 43 45
112 l5 74 483 2 c309 2 489 6 501 13 11 5 46 10 79 10 46 0 63 -4 76 -19 24
-26 17 -34 -51 -57 -32 -10 -80 -32 -108 -48 -47 -27 -117 -56 -136 -56 -5 0
-24 14 -43 31 -23 19 -44 29 -58 27 -21 -3 -23 -8 -21 -53 1 -27 5 -75 9 -106
6 -54 4 -58 -45 -134 -28 -43 -51 -87 -51 -99 0 -47 -41 -59 -94 -27 -17 10
-71 31 -121 47 -157 48 -228 94 -249 162 -17 52 -72 48 -101 -8 -25 -49 -85
-73 -205 -81 -58 -4 -135 -11 -171 -15 -75 -7 -191 9 -227 32 -36 24 -65 14
-85 -29 -39 -84 -134 -195 -215 -253 -96 -70 -166 -97 -229 -91 -82 9 -100
-36 -33 -80 63 -40 70 -47 87 -95 14 -38 15 -53 5 -85 -6 -21 -19 -65 -28 -98
-44 -161 -71 -230 -90 -230 -19 0 -82 103 -83 138 -1 10 -10 35 -20 56 -16 31
-33 43 -89 69 -90 40 -115 73 -122 162 l-5 65 -81 -3 c-113 -5 -169 15 -232
82 -28 29 -59 70 -70 92 -23 43 -58 84 -73 84 -5 0 -26 -7 -46 -15 -21 -9 -66
-15 -111 -15 -72 0 -79 2 -139 41 -35 23 -63 44 -63 48 0 4 -13 21 -29 39 -29
31 -31 32 -115 31 -70 -1 -90 3 -113 19 -15 11 -52 27 -82 36 -29 9 -60 21
-67 27 -7 6 -37 17 -66 24 -112 28 -243 80 -243 95 0 11 10 15 40 13 133 -6
577 -1 670 7 162 14 194 2 244 -98 28 -55 35 -62 61 -62 24 0 33 7 49 38 11
20 35 52 55 71 29 29 45 35 90 39 79 6 117 -4 169 -44 56 -44 70 -78 57 -145
-12 -62 -14 -65 -51 -85 -28 -14 -33 -14 -55 1 -15 10 -24 25 -24 41 0 21 8
29 40 41 50 20 60 46 29 79 -26 28 -50 30 -89 7 -41 -24 -52 -56 -44 -131 5
-47 13 -71 32 -94 25 -30 28 -30 89 -25 82 8 100 19 125 75 38 87 39 98 13
155 -41 94 -103 155 -180 179 -29 10 -273 38 -345 40 -57 2 -361 -12 -369 -17
-4 -2 -232 -7 -506 -9 -274 -3 -500 -8 -502 -10 -12 -11 50 -37 122 -51 44 -9
114 -27 155 -40 99 -31 248 -81 335 -111 38 -13 76 -24 84 -24 31 0 290 -110
386 -163 11 -6 34 -18 52 -28 17 -9 49 -29 70 -46 21 -16 74 -49 118 -72 44
-24 103 -59 130 -80 28 -20 63 -44 79 -52 16 -7 56 -38 88 -66 32 -29 76 -62
96 -72 80 -41 587 -551 642 -646 24 -41 42 -61 58 -63 30 -5 29 24 -4 107 -25
62 -26 73 -21 184 5 99 11 131 37 200 36 92 46 115 59 137 5 8 24 49 42 90 18
41 43 89 55 105 12 17 30 46 39 65 27 53 73 106 119 137 22 15 69 49 105 76
35 26 72 47 83 47 10 0 31 6 46 14 56 29 154 55 249 66 170 21 447 -6 552 -52
108 -48 153 -71 179 -92 63 -53 88 -37 121 75 11 41 31 94 44 119 26 52 226
255 259 263 13 3 53 17 90 31 120 45 303 45 425 -1 33 -12 60 -37 115 -102 72
-86 86 -112 117 -231 22 -82 77 -168 155 -244 86 -83 139 -104 295 -115 192
-14 284 0 408 63 63 31 330 295 381 376 20 30 59 81 87 112 58 65 75 108 75
195 0 84 14 95 116 91 l79 -3 6 -37 c6 -42 31 -83 58 -97 14 -8 26 -5 52 15
19 14 78 39 132 56 l99 31 140 -12 c155 -14 228 -39 261 -90 9 -14 30 -46 45
-71 21 -33 35 -45 53 -45 20 0 26 7 36 48 12 50 92 161 137 191 22 14 75 15
463 13 241 -2 446 -7 456 -11 13 -6 17 -21 17 -66 0 -40 5 -61 16 -71 21 -17
48 -1 52 32 5 33 47 86 82 104 29 15 143 21 175 9 8 -4 22 -22 30 -40 25 -61
83 -59 113 4 15 32 23 38 62 44 25 4 62 10 83 14 22 4 48 2 60 -4 12 -6 38
-13 57 -14 23 -2 35 -8 35 -18 0 -17 -18 -26 -143 -76 -51 -20 -95 -41 -98
-46 -4 -5 -25 -18 -48 -29 -45 -22 -161 -103 -317 -222 -56 -43 -107 -76 -113
-74 -7 3 -10 29 -8 75 4 78 -3 112 -23 112 -19 0 -45 -62 -45 -109 0 -49 -41
-145 -78 -185 -77 -81 -240 -145 -318 -124 -77 21 -137 20 -171 -1 -29 -18
-33 -26 -33 -66 0 -95 92 -116 181 -41 30 25 134 45 151 28 14 -14 -7 -56 -49
-99 -22 -21 -51 -54 -65 -73 -14 -19 -51 -61 -81 -93 -54 -59 -54 -59 -83 -43
-16 8 -44 29 -63 46 -26 23 -37 28 -47 19 -27 -22 -16 -60 31 -110 25 -26 45
-53 45 -59 0 -6 -19 -32 -43 -58 -23 -26 -60 -74 -82 -107 -22 -33 -61 -84
-87 -113 -26 -30 -48 -57 -48 -61 0 -13 -120 -114 -127 -107 -3 3 1 21 10 38
28 58 67 173 67 199 0 14 8 52 19 85 35 110 45 169 46 269 1 120 20 170 75
197 47 23 71 54 62 78 -9 24 -70 70 -93 70 -27 0 -38 22 -40 80 -2 71 16 135
44 155 12 8 38 15 58 15 57 0 63 17 33 88 -33 75 -28 115 22 166 52 53 103 76
171 76 58 0 152 -30 189 -61 33 -27 64 -115 64 -180 0 -58 -2 -64 -39 -100
-44 -44 -84 -51 -122 -20 -21 17 -22 22 -11 45 24 53 -24 89 -63 46 -21 -23
-16 -86 10 -126 43 -66 157 -69 232 -8 62 51 77 84 70 160 -8 78 -40 144 -106
216 -68 75 -99 88 -205 88 -81 0 -92 -3 -172 -41 -56 -28 -92 -52 -106 -73
-12 -17 -31 -42 -43 -56 -13 -14 -32 -56 -44 -95 -12 -38 -28 -79 -36 -89 -11
-14 -15 -46 -15 -105 0 -48 -5 -102 -11 -121 -6 -20 -11 -100 -10 -183 0 -86
-5 -190 -14 -249 -13 -87 -27 -141 -75 -303 -27 -90 -70 -197 -92 -226 -13
-19 -30 -53 -38 -76 -7 -22 -30 -64 -51 -92 -21 -27 -45 -63 -53 -78 -28 -55
-199 -239 -230 -249 -11 -4 -35 -18 -52 -33 -18 -14 -51 -37 -74 -51 -24 -14
-61 -37 -84 -52 -23 -15 -48 -28 -55 -28 -8 0 -55 -22 -103 -50 -48 -27 -90
-50 -93 -50 -2 0 -26 -14 -52 -30 -26 -17 -53 -30 -61 -30 -8 0 -31 -13 -51
-29 -25 -20 -57 -33 -99 -41 -35 -6 -86 -19 -115 -30 -90 -32 -160 -48 -232
-55 -38 -4 -97 -13 -130 -20 -108 -25 -416 -5 -534 34 -35 12 -72 21 -82 21
-10 0 -38 9 -61 19 -24 11 -81 34 -128 51 -47 17 -107 46 -135 64 -27 18 -79
47 -115 64 -36 17 -99 61 -140 97 -41 36 -89 74 -106 85 -17 11 -48 45 -68 75
-21 30 -53 64 -70 75 -18 11 -57 48 -87 82 -29 35 -78 89 -109 121 -30 32 -75
87 -100 123 -111 159 -170 234 -236 304 -38 41 -101 111 -138 155 -66 77 -131
132 -207 174 -19 11 -41 27 -48 35 -28 33 -119 50 -261 50 -74 -1 -151 -6
-171 -11 -49 -14 -173 -96 -197 -130 -57 -81 -90 -176 -102 -290 -8 -74 -6
-92 11 -138 32 -86 139 -180 237 -209 41 -12 69 -13 120 -7 86 11 110 22 148
63 50 52 64 89 64 165 0 82 -15 108 -69 123 -67 18 -124 -20 -136 -90 -8 -46
7 -78 40 -86 49 -12 50 -31 3 -57 -90 -52 -172 -44 -257 25 -73 59 -104 117
-105 193 0 58 12 94 68 195 8 14 19 37 26 51 18 40 132 103 213 119 88 16 151
8 230 -29 70 -32 81 -47 71 -96 -4 -26 -1 -38 15 -54 23 -23 56 -21 98 5 35
22 67 17 114 -20 67 -51 260 -270 298 -337 41 -73 33 -90 -29 -65 -22 9 -73
21 -113 26 -64 9 -74 14 -100 45 -30 37 -75 65 -102 65 -10 0 -32 -7 -51 -16
-41 -20 -45 -49 -8 -66 25 -12 64 -73 64 -102 0 -9 9 -20 21 -26 17 -10 27 -7
57 13 55 37 71 39 148 18 112 -31 145 -46 202 -92 30 -24 68 -54 85 -66 18
-12 39 -29 47 -37 80 -83 119 -126 142 -156 48 -63 232 -247 278 -277 25 -16
63 -42 86 -56 22 -15 48 -27 57 -27 16 0 95 -35 147 -65 42 -24 112 -53 180
-74 100 -32 295 -81 319 -81 12 0 30 -4 40 -10 10 -5 52 -15 92 -21 41 -6 82
-15 92 -20 22 -13 22 -36 -2 -48 -43 -24 -433 -77 -478 -66 -12 3 -43 33 -69
68 -26 34 -50 66 -54 70 -4 5 -27 13 -51 18 -24 6 -71 23 -104 38 -33 16 -71
32 -85 36 -14 4 -42 19 -62 31 -21 13 -42 24 -47 24 -5 0 -33 20 -62 45 -55
47 -89 59 -154 53 -38 -3 -40 -6 -76 -78 -41 -82 -87 -133 -164 -177 -85 -50
-73 -97 17 -68 72 24 126 63 179 129 50 63 77 75 111 52 12 -9 35 -16 51 -16
20 0 44 -14 79 -45 28 -25 58 -45 67 -45 9 0 40 -9 69 -20 29 -11 70 -20 92
-20 30 0 48 -8 75 -31 19 -17 35 -39 35 -50 0 -22 -22 -26 -184 -33 -131 -5
-149 0 -239 65 -31 22 -43 26 -53 18 -8 -6 -14 -17 -14 -25 0 -7 -15 -24 -33
-38 -32 -25 -34 -25 -187 -20 -85 3 -171 10 -190 15 -19 5 -53 9 -75 9 -22 0
-56 5 -75 10 -19 6 -68 15 -108 21 -40 6 -92 18 -115 28 -23 10 -57 21 -76 24
-54 11 -172 129 -186 187 -11 45 -59 110 -93 126 -47 22 -96 15 -100 -14 -5
-33 25 -62 63 -62 35 0 62 -24 90 -78 32 -64 -6 -83 -65 -32 -19 16 -42 29
-51 30 -9 0 -24 9 -35 21 -10 11 -33 27 -51 34 -97 41 -331 267 -431 417 -64
96 -92 142 -92 151 0 18 45 4 70 -23 37 -39 153 -104 222 -124 71 -21 84 -32
123 -97 17 -30 39 -56 49 -57 24 -5 53 23 66 64 14 43 61 76 119 85 25 4 62
10 82 14 48 9 69 -12 69 -70 0 -41 18 -75 41 -75 16 0 49 40 49 60 0 31 67 98
108 110 97 26 231 -1 304 -62 62 -52 84 -95 92 -183 l6 -70 -56 -75 c-31 -41
-62 -78 -69 -82 -22 -13 -108 9 -127 32 -22 27 -34 88 -21 109 6 10 28 17 59
19 56 4 74 15 74 48 0 52 -104 77 -157 38 -55 -41 -81 -146 -50 -200 19 -34
75 -76 113 -84 56 -13 160 5 205 34 48 32 89 109 96 180 5 50 3 61 -39 177
-21 58 -67 110 -116 132 -132 58 -352 81 -492 52 -47 -9 -103 -18 -125 -20
-22 -1 -80 -10 -129 -19 -49 -9 -98 -14 -109 -10 -12 4 -46 10 -77 14 -81 11
-215 64 -263 103 -84 69 -124 117 -166 202 -89 180 -86 378 8 577 67 140 126
208 238 271 134 75 195 97 276 97 93 0 250 -28 312 -55 28 -12 63 -25 79 -29
17 -4 46 -20 65 -35 20 -16 75 -51 122 -78 105 -60 191 -133 244 -209 22 -31
58 -77 79 -103 22 -25 59 -75 82 -111 23 -36 65 -94 93 -130 28 -36 68 -90 89
-120 20 -30 55 -73 78 -95 22 -22 53 -61 67 -87 15 -26 39 -55 53 -65 15 -10
49 -42 77 -71 29 -30 63 -60 77 -67 14 -7 59 -40 100 -74 41 -34 79 -61 84
-61 5 0 33 -18 62 -40 29 -22 59 -40 66 -40 7 0 27 -8 43 -19 17 -10 48 -23
70 -30 22 -7 60 -21 85 -31 165 -69 391 -114 554 -111 106 1 272 21 331 40 17
5 57 14 90 21 33 7 69 18 80 25 21 13 109 48 200 81 28 10 61 25 75 34 14 9
79 43 145 75 66 32 140 75 165 95 25 20 65 50 90 67 68 46 256 236 280 283 11
22 43 65 70 95 28 31 50 64 50 74 0 10 8 29 19 42 25 33 93 195 105 249 7 34
27 272 29 340 1 31 -4 69 -10 85 -26 73 -33 104 -33 144 0 50 -17 85 -77 159
-46 57 -181 164 -230 183 -91 36 -204 48 -285 29 -24 -5 -88 -18 -143 -30 -73
-15 -111 -29 -140 -50 -22 -16 -60 -40 -85 -54 -56 -30 -231 -199 -255 -246
-10 -19 -34 -53 -54 -75 -20 -23 -54 -66 -76 -97 -24 -34 -60 -69 -90 -87 -50
-30 -200 -72 -246 -68 -13 1 -58 -2 -99 -6 -91 -10 -250 5 -305 28 -44 19
-129 60 -183 88 -104 55 -231 12 -289 -97 -11 -21 -13 -43 -8 -81 11 -90 85
-148 136 -106 28 23 20 48 -20 62 -39 14 -47 41 -27 93 19 51 47 66 117 66 43
0 55 -4 77 -28 36 -39 58 -115 43 -148 -6 -14 -11 -39 -11 -57 0 -41 -61 -131
-98 -145 -15 -6 -58 -23 -97 -37 -92 -36 -194 -33 -253 8 -21 15 -43 27 -48
27 -6 0 -21 11 -34 25 -21 22 -24 38 -28 118 -6 123 -29 151 -90 108 -42 -30
-119 -36 -162 -13 -52 28 -105 113 -141 225 -27 86 -31 107 -25 164 19 180 83
291 218 372 29 17 54 23 110 23 90 2 147 -21 201 -80 34 -39 37 -47 39 -110 4
-146 -10 -175 -103 -205 -82 -27 -134 8 -68 46 29 16 31 21 26 58 -6 43 -31
79 -55 79 -28 0 -80 -41 -91 -72 -12 -34 -14 -90 -5 -125 4 -14 28 -35 61 -54
49 -28 61 -31 119 -27 62 4 66 6 119 58 104 103 114 226 29 367 -34 57 -74 89
-164 130 -28 12 -41 13 -66 4 -17 -6 -46 -11 -66 -11 -112 0 -299 -152 -323
-261 -4 -19 -16 -50 -26 -70 -10 -20 -23 -75 -29 -122 -9 -76 -8 -91 9 -139
11 -29 23 -73 26 -97 7 -44 46 -131 74 -165 9 -10 33 -29 54 -42 20 -14 43
-37 50 -53 20 -46 115 -121 207 -163 47 -22 108 -50 135 -63 28 -13 70 -28 95
-35 25 -6 70 -20 100 -29 98 -32 265 -46 385 -33 58 6 119 18 135 27 16 8 41
15 55 15 35 0 119 40 245 117 85 52 116 79 163 136 32 40 98 117 148 172 49
55 96 115 104 133 8 18 29 52 48 75 18 23 51 69 73 101 64 97 238 271 298 300
131 62 242 88 381 87 96 0 117 -3 167 -25 122 -54 266 -232 297 -366 17 -75
10 -287 -12 -365 -52 -181 -55 -188 -125 -261 -70 -72 -127 -103 -242 -127
-64 -13 -243 -8 -319 9 -127 29 -397 6 -523 -44 -46 -18 -123 -103 -135 -147
-27 -99 -44 -198 -38 -223 15 -62 48 -112 100 -151 45 -34 62 -41 100 -41 85
0 154 50 191 137 l27 63 -23 49 c-15 34 -34 55 -60 70 -47 26 -61 26 -94 0
-23 -18 -27 -28 -24 -63 2 -32 7 -42 23 -44 26 -5 55 -31 55 -50 0 -52 -84
-69 -145 -29 -48 30 -69 78 -62 138 8 62 24 92 84 154 41 43 58 53 107 64 102
23 165 -1 198 -75 36 -83 84 -63 74 31 -13 112 -14 110 18 113 49 6 119 -19
147 -51 25 -30 27 -30 70 -19 24 6 85 16 134 22 95 11 191 37 263 72 24 11 45
18 48 15 3 -3 2 -22 -2 -42 -7 -39 -40 -81 -162 -209 l-76 -79 -83 6 c-100 6
-113 -2 -113 -70 0 -42 -4 -48 -57 -99 -56 -52 -103 -70 -103 -40 0 21 36 102
61 135 23 32 23 58 -3 74 -30 20 -67 -8 -94 -71 -14 -31 -34 -75 -44 -97 -11
-22 -20 -46 -20 -52 0 -16 -97 -124 -125 -140 -26 -15 -219 -80 -290 -98 -46
-12 -229 -39 -265 -39 -87 0 -347 18 -417 29 -93 14 -196 47 -300 96 -34 16
-65 29 -69 29 -3 0 -28 16 -54 35 -26 19 -52 35 -57 35 -20 0 -92 60 -117 97
-19 27 -26 51 -26 85 0 58 -23 70 -74 39 -18 -12 -40 -21 -48 -21 -21 0 -173
144 -210 199 -17 25 -44 60 -59 76 -16 17 -30 42 -31 55 -3 21 1 25 22 22 14
-1 45 -16 69 -33 55 -38 252 -113 441 -167 19 -6 28 -18 37 -54 15 -61 20 -68
46 -68 31 0 49 14 66 52 15 30 20 33 67 36 71 4 85 -14 46 -60 -42 -47 -52
-71 -52 -118 0 -115 60 -210 133 -210 85 0 140 68 83 105 -25 17 -51 12 -60
-11 -14 -36 -76 3 -76 49 0 30 37 92 75 125 46 41 94 43 148 6 46 -31 72 -25
87 20 10 32 157 186 178 186 5 0 15 -6 21 -14 10 -11 7 -33 -13 -98 -13 -46
-27 -96 -31 -111 -3 -16 -27 -48 -53 -72 -52 -49 -52 -64 4 -94 16 -9 40 -24
54 -34 28 -19 119 -24 151 -7 31 17 23 48 -18 67 -45 22 -55 53 -47 143 8 93
32 178 65 230 35 56 226 236 311 292 43 29 90 50 148 65 112 30 193 29 323 -3
41 -10 36 27 -10 65 -36 30 -42 31 -130 31 -76 0 -109 -5 -184 -30 -137 -46
-143 -27 -34 104 41 49 75 97 75 108 0 10 20 40 44 66 24 26 48 63 55 82 15
47 157 186 240 235 92 55 190 71 278 46 24 -6 71 -33 105 -59 53 -40 65 -55
81 -102 21 -62 25 -134 10 -197 -11 -45 -38 -93 -52 -93 -5 0 -7 41 -4 94 4
64 2 105 -6 124 -19 46 -108 116 -177 140 -55 19 -66 20 -123 8 -34 -7 -74
-21 -89 -32 -15 -11 -40 -26 -55 -34 -31 -15 -107 -94 -107 -109 0 -24 19 -16
59 24 60 61 196 119 263 111 65 -7 103 -29 136 -78 24 -37 27 -50 25 -112 -2
-70 -2 -72 -44 -109 -37 -33 -48 -38 -83 -35 -33 2 -41 7 -41 23 0 14 8 21 27
23 16 2 44 19 64 37 28 27 34 39 29 57 -19 61 -82 81 -165 53 -53 -18 -51 -15
-95 -120 -13 -32 -8 -88 15 -175 26 -95 122 -144 259 -133 88 7 131 26 184 80
63 66 82 128 81 266 -2 155 -20 213 -87 284 -105 111 -264 164 -384 127 -67
-20 -134 -56 -181 -96 -18 -15 -37 -28 -43 -28 -5 0 -30 -19 -55 -42 -41 -38
-75 -83 -157 -206 -12 -18 -45 -61 -73 -95 -28 -34 -59 -78 -69 -97 -9 -19
-32 -51 -50 -70 -41 -44 -135 -168 -135 -179 0 -5 -21 -27 -47 -51 -27 -23
-76 -67 -111 -98 -65 -58 -112 -87 -172 -102 -19 -4 -73 -23 -120 -40 -55 -20
-95 -29 -113 -26 -16 3 -54 -3 -90 -15 -43 -15 -76 -19 -112 -16 -204 21 -247
28 -300 47 -33 11 -94 28 -135 37 -70 14 -104 27 -190 74 -19 10 -75 40 -125
65 -143 73 -159 82 -186 112 -14 15 -41 38 -60 49 -19 12 -114 103 -212 203
-113 114 -192 187 -215 197 -20 8 -58 34 -84 58 -60 54 -198 122 -297 146 -57
14 -114 19 -230 19 l-154 0 -96 -47 c-215 -105 -353 -260 -398 -448 -57 -235
-32 -591 47 -693 11 -13 20 -30 20 -37 0 -7 11 -28 24 -48 13 -19 27 -46 31
-58 4 -13 33 -51 64 -84 31 -33 76 -85 101 -114 25 -29 70 -73 100 -97 116
-92 287 -211 312 -217 15 -4 47 -23 73 -42 49 -38 187 -111 296 -157 88 -38
243 -75 369 -88 58 -6 119 -13 135 -15 182 -21 241 -26 370 -31 279 -10 330
-13 386 -22 37 -5 78 -4 120 4 35 6 150 16 254 22 105 6 219 17 255 26 91 23
135 32 295 61 158 28 248 53 350 95 39 16 95 36 127 45 31 9 62 22 68 30 7 8
18 15 24 15 6 0 25 8 41 17 17 9 86 45 155 81 69 35 143 77 165 93 60 44 162
109 170 109 4 0 28 15 54 34 25 18 59 36 75 40 16 4 49 27 72 50 23 24 62 53
87 65 29 14 120 97 268 244 123 123 240 241 259 263 19 23 89 100 155 172 119
129 166 186 258 312 111 152 301 376 386 454 25 24 66 62 91 85 47 43 74 64
205 159 181 132 224 160 246 167 13 4 31 13 39 19 25 21 221 113 290 137 275
95 259 91 405 101 77 5 817 10 1645 11 l1505 2 6 -75 c7 -83 26 -135 61 -166
26 -23 103 -54 136 -54 34 0 125 45 153 76 50 55 50 135 0 152 -43 15 -61 -1
-61 -53 0 -42 -2 -46 -40 -65 -52 -26 -124 -29 -150 -5 -31 28 -43 77 -30 124
9 34 15 41 35 41 13 0 26 4 29 9 12 18 549 32 578 15 12 -8 -10 -42 -31 -49
-11 -3 -34 1 -50 9 -42 22 -88 21 -101 -4 -6 -10 -8 -36 -4 -57 6 -38 4 -40
-93 -135 -54 -53 -124 -125 -155 -160 -58 -64 -103 -88 -166 -88 -60 0 -68
-39 -17 -86 40 -36 45 -72 19 -139 -9 -22 -22 -71 -29 -110 -14 -71 -26 -122
-51 -207 -8 -26 -14 -58 -14 -72 0 -53 -38 -30 -172 107 -131 133 -158 171
-158 226 0 38 -23 51 -90 51 -45 0 -55 4 -93 39 -23 21 -58 46 -78 55 -20 10
-52 31 -70 47 -19 17 -53 38 -75 49 -23 10 -59 33 -80 52 -42 37 -98 71 -209
125 -38 19 -81 41 -95 49 -14 8 -62 32 -107 54 -88 43 -102 55 -84 73 17 17
428 -6 511 -29 56 -16 74 -27 128 -81 54 -54 66 -62 82 -53 11 6 20 19 20 28
0 33 29 59 91 82 59 21 68 22 133 10 133 -23 143 -28 201 -88 33 -34 55 -66
55 -79 0 -30 -65 -130 -89 -138 -26 -8 -90 4 -119 22 -34 21 -25 54 17 68 35
12 71 48 71 72 0 35 -30 71 -68 80 -48 12 -73 3 -105 -39 -42 -57 -51 -98 -31
-157 19 -59 57 -96 114 -111 41 -11 70 -41 70 -73 0 -26 34 -88 65 -117 22
-20 37 -25 80 -24 87 0 142 58 100 104 -24 27 -34 25 -71 -11 -38 -37 -66 -33
-89 11 -27 53 -20 79 39 134 86 81 99 124 71 241 -10 41 -110 142 -149 151
-17 3 -43 15 -58 25 -33 24 -20 23 -898 53 -62 2 -195 4 -340 4 -14 1 -72 3
-130 6 -118 6 -246 -4 -243 -19 2 -11 85 -32 173 -44 56 -8 169 -47 212 -74
13 -8 36 -18 53 -22 16 -3 67 -24 113 -46 46 -21 87 -39 91 -39 5 0 20 -9 35
-21 15 -11 57 -37 94 -56 92 -49 236 -137 286 -174 23 -16 89 -62 148 -100 92
-61 141 -102 321 -277 36 -35 162 -171 211 -229 60 -70 91 -111 153 -201 59
-86 75 -104 85 -94 6 6 5 18 -2 33 -20 36 -15 383 6 462 10 34 20 82 24 107
24 145 90 311 174 434 14 21 26 42 26 45 0 11 179 164 208 180 15 7 43 28 62
46 56 52 192 123 275 144 28 7 61 17 75 23 25 10 478 14 487 4 18 -18 -51 -76
-90 -76 -28 0 -97 -39 -97 -55 0 -8 8 -20 17 -27 9 -7 37 -34 62 -59 40 -40
51 -61 79 -150 49 -151 65 -192 81 -197 18 -6 31 16 31 54 0 55 40 126 109
194 36 36 79 74 95 85 16 11 41 29 56 40 14 11 58 41 96 68 38 26 79 54 90 63
12 8 53 27 90 41 l69 25 410 0 410 0 50 -26 c58 -29 108 -77 103 -99 -1 -9
-47 -63 -101 -121 -86 -92 -105 -108 -149 -121 -118 -35 -193 -13 -295 86 -67
65 -92 104 -76 120 13 13 174 -6 221 -27 30 -13 32 -17 32 -62 0 -79 42 -96
105 -41 29 26 35 38 35 71 0 34 -6 46 -37 74 -40 37 -69 44 -203 49 -47 1
-128 6 -181 10 -142 11 -191 -3 -172 -51 3 -9 33 -29 67 -44 46 -21 84 -51
151 -120 115 -117 143 -132 250 -131 96 1 105 3 219 58 45 21 122 103 145 154
18 42 99 115 150 136 49 21 170 28 214 14 19 -7 56 -30 80 -51 25 -22 50 -40
56 -40 6 0 14 12 17 28 7 29 38 68 67 84 25 13 45 -5 53 -47 8 -42 59 -104
100 -121 43 -18 126 -18 167 0 36 16 132 104 164 151 12 17 34 37 50 44 15 7
36 17 45 22 10 5 72 9 138 9 136 0 141 -3 154 -88 10 -64 -12 -99 -66 -105
-82 -10 -213 -49 -288 -85 -73 -36 -159 -88 -171 -106 -10 -13 -179 -16 -221
-4 -31 9 -45 8 -80 -8 -23 -10 -62 -19 -86 -19 -40 0 -47 4 -100 62 -67 72
-86 83 -145 83 -55 0 -103 -16 -142 -48 -43 -36 -54 -60 -55 -124 0 -49 3 -59
26 -77 33 -26 46 -26 68 -2 19 21 12 45 -18 71 -43 35 12 120 78 120 28 0 45
-9 76 -37 35 -34 40 -45 49 -106 11 -76 9 -84 -28 -144 -29 -46 -32 -49 -109
-69 -70 -18 -77 -18 -147 10 -46 19 -65 33 -81 61 -35 61 -38 61 -86 20 -41
-35 -46 -37 -99 -32 -31 3 -71 13 -90 23 -36 19 -115 22 -214 9 -68 -9 -124
16 -210 94 -37 34 -72 61 -79 61 -6 0 -24 7 -41 16 -58 31 -114 44 -187 45
-95 2 -190 -16 -233 -44 -18 -12 -58 -37 -89 -55 -94 -57 -180 -158 -193 -226
-3 -17 -19 -59 -35 -94 -27 -56 -30 -73 -31 -175 0 -62 4 -127 11 -147 6 -19
21 -65 33 -103 12 -40 38 -91 65 -126 24 -32 44 -64 44 -70 0 -11 183 -219
235 -266 18 -16 50 -39 72 -50 21 -10 54 -31 73 -45 51 -37 212 -97 309 -115
96 -17 317 -20 358 -4 15 6 51 14 78 19 49 8 107 32 211 88 65 34 302 240 354
307 81 104 111 147 134 190 16 28 34 57 41 65 7 8 24 38 38 66 14 27 33 57 42
64 10 8 45 48 78 90 33 41 83 100 111 131 28 31 66 75 84 98 18 22 61 60 95
83 34 23 75 52 91 65 31 26 135 76 201 97 131 43 341 65 418 43 l27 -7 0 -100
0 -100 -37 24 c-60 37 -122 50 -183 37 -28 -6 -68 -11 -88 -11 -21 0 -47 -7
-60 -15 -12 -9 -52 -32 -89 -51 -105 -54 -137 -75 -202 -134 -33 -30 -84 -75
-114 -100 -30 -25 -61 -56 -70 -70 -9 -14 -39 -52 -67 -85 -28 -33 -72 -91
-97 -130 -25 -38 -62 -89 -83 -115 -21 -25 -62 -81 -91 -125 -29 -44 -61 -89
-71 -99 -10 -11 -18 -25 -18 -32 0 -7 -10 -24 -22 -38 -13 -13 -41 -48 -63
-78 -93 -124 -149 -167 -335 -260 -206 -103 -265 -119 -475 -123 -140 -3 -155
-1 -320 45 -55 16 -150 55 -185 77 -19 11 -63 33 -98 47 -35 15 -82 40 -104
56 -23 17 -45 30 -50 30 -5 0 -46 24 -91 53 -90 59 -173 136 -210 194 -14 21
-50 66 -81 101 -31 34 -56 67 -56 72 0 5 -13 37 -29 72 -53 115 -79 305 -50
360 31 58 42 353 16 430 -36 102 -56 135 -118 192 -75 67 -107 83 -205 97 -65
10 -79 9 -170 -16 -164 -44 -246 -89 -341 -188 -46 -46 -83 -91 -83 -99 0 -9
-9 -26 -19 -40 -26 -33 -60 -130 -66 -192 -7 -57 -34 -165 -47 -182 -10 -14
-13 -517 -3 -533 3 -7 11 -41 16 -76 8 -59 72 -234 120 -330 36 -72 293 -313
440 -413 70 -47 322 -173 434 -216 55 -21 114 -44 130 -51 45 -18 155 -55 200
-67 22 -6 56 -17 75 -24 19 -7 121 -20 225 -28 258 -21 400 -13 570 30 136 35
374 110 460 146 28 11 75 29 105 40 30 10 100 41 155 69 55 27 103 49 107 49
4 0 34 16 67 35 32 19 64 35 69 35 12 0 101 42 162 76 99 56 185 102 307 165
141 72 222 119 268 153 17 13 45 28 63 34 32 11 281 173 336 219 16 13 45 33
65 43 20 11 51 32 69 46 l32 27 0 -95 0 -95 -67 -50 c-38 -27 -80 -56 -95 -66
-14 -9 -38 -27 -53 -41 -15 -14 -43 -30 -63 -37 -21 -7 -53 -25 -72 -40 -19
-16 -40 -29 -46 -29 -7 0 -35 -16 -64 -35 -29 -19 -55 -35 -60 -35 -4 0 -24
-13 -44 -30 -21 -16 -70 -45 -109 -65 -88 -44 -104 -54 -140 -82 -16 -13 -34
-23 -41 -23 -7 0 -30 -13 -52 -30 -21 -16 -44 -30 -50 -30 -6 0 -33 -14 -60
-31 -27 -18 -73 -47 -101 -65 -29 -19 -58 -34 -65 -34 -7 0 -31 -8 -53 -19
-114 -53 -227 -107 -288 -137 -37 -19 -81 -34 -98 -34 -17 0 -48 -9 -68 -19
-58 -32 -219 -91 -272 -101 -27 -5 -62 -16 -78 -25 -17 -8 -44 -15 -60 -15
-17 0 -48 -7 -68 -15 -113 -44 -516 -70 -683 -45 -41 6 -106 15 -145 19 -80
10 -148 25 -202 45 -21 8 -50 17 -66 20 -15 4 -52 18 -82 31 -29 14 -67 25
-84 25 -17 0 -47 7 -68 16 -192 82 -340 159 -382 198 -14 13 -37 27 -51 31
-14 4 -41 22 -60 39 -19 18 -60 51 -90 74 -30 23 -64 50 -75 60 -11 10 -36 29
-55 42 -55 36 -298 279 -336 337 -20 29 -84 101 -143 161 -60 59 -115 121
-124 138 -8 16 -36 49 -61 74 -25 24 -46 49 -46 55 0 6 -18 29 -40 50 -23 22
-58 65 -78 95 -37 55 -125 166 -193 244 -19 23 -52 65 -73 93 -82 115 -392
383 -441 383 -6 0 -42 20 -80 45 -38 25 -93 52 -122 61 -29 8 -55 20 -58 25
-4 5 -13 9 -21 9 -9 0 -48 16 -88 35 -40 19 -80 35 -88 35 -9 0 -27 9 -40 20
-14 11 -95 37 -183 60 -86 22 -165 45 -175 50 -10 6 -30 10 -44 10 -14 0 -49
6 -79 14 -30 8 -85 17 -123 20 -38 4 -94 11 -124 16 -128 22 -481 29 -620 12
-52 -7 -135 -17 -185 -23 -142 -17 -338 -66 -430 -109 -27 -13 -66 -27 -85
-31 -60 -13 -119 -38 -168 -72 -26 -18 -66 -38 -89 -46 -23 -8 -56 -27 -73
-43 -31 -28 -130 -81 -200 -108 -19 -7 -53 -31 -75 -54 -45 -45 -69 -66 -131
-111 -22 -16 -56 -45 -75 -62 -19 -18 -62 -58 -96 -89 -35 -32 -76 -80 -92
-108 -16 -28 -43 -66 -60 -84 -17 -18 -31 -39 -31 -45 0 -20 -79 -207 -100
-235 -10 -15 -25 -54 -33 -87 -9 -33 -22 -87 -30 -120 -12 -49 -13 -92 -6
-230 10 -194 18 -248 49 -325 12 -30 25 -68 29 -85 23 -88 114 -203 215 -271
53 -35 166 -84 285 -123 44 -14 221 -14 258 0 15 6 52 15 82 21 71 13 185 91
265 182 34 38 85 93 113 122 29 29 53 56 53 61 0 4 31 40 69 79 40 42 70 83
74 100 6 33 155 197 307 341 107 100 209 163 317 192 37 11 93 26 123 34 130
36 202 47 316 47 182 -1 328 -26 389 -67 11 -7 25 -13 33 -13 35 0 177 -83
282 -165 25 -19 70 -52 100 -74 90 -64 326 -305 339 -344 2 -7 26 -36 55 -65
111 -115 228 -175 340 -174 73 1 89 8 145 63 59 59 91 126 91 192 0 58 0 59
-62 123 l-61 64 -85 0 -85 0 -44 -45 c-51 -54 -60 -83 -42 -137 19 -58 45 -88
78 -88 55 0 67 43 26 92 -30 36 -31 42 -6 67 28 28 104 38 136 17 53 -35 71
-114 46 -201 -16 -57 -51 -79 -133 -83 -102 -6 -147 21 -299 176 -158 163
-240 251 -270 291 -13 18 -47 50 -76 72 -29 22 -53 45 -53 52 0 7 11 28 25 47
34 46 34 103 1 125 -31 21 -70 6 -91 -34 -22 -43 -54 -48 -107 -18 -106 60
-179 97 -192 97 -8 0 -33 17 -56 38 -34 33 -40 45 -40 80 0 56 -23 56 -86 1
-46 -40 -48 -41 -103 -34 -30 4 -65 11 -79 16 -36 14 -163 11 -218 -6 -27 -8
-72 -15 -100 -15 -32 0 -90 -13 -155 -36 -125 -42 -180 -57 -188 -49 -15 16
35 68 144 151 179 137 266 163 466 139 56 -7 119 12 119 35 0 5 30 24 67 42
60 29 76 33 143 32 117 -2 181 -16 237 -52 27 -18 58 -32 67 -32 10 0 36 16
59 35 22 19 46 35 52 35 7 0 26 7 44 16 23 12 45 14 84 9 73 -10 249 -68 331
-110 39 -19 75 -35 82 -35 18 0 122 -89 129 -111 8 -25 -16 -62 -54 -85 -36
-21 -46 -41 -30 -60 14 -18 7 -86 -14 -137 -20 -46 -80 -76 -168 -84 l-59 -6
-45 45 c-38 39 -45 51 -45 86 0 33 6 45 31 66 25 22 37 25 68 20 l38 -6 17 50
c22 69 21 76 -19 121 -61 67 -214 103 -285 66 -38 -20 -84 -80 -76 -101 9 -23
60 -15 64 11 6 35 42 55 100 55 64 0 106 -20 127 -60 21 -41 20 -44 -30 -68
-90 -43 -128 -152 -87 -246 18 -40 29 -50 77 -71 34 -16 74 -25 104 -25 31 0
51 -5 54 -12 2 -7 -2 -39 -10 -71 -15 -65 -6 -97 27 -97 24 0 40 28 33 61 -3
14 6 48 20 79 21 48 31 59 79 83 50 25 65 27 164 27 87 0 117 -4 149 -20 92
-44 142 -81 184 -134 42 -54 45 -61 54 -150 18 -159 -15 -313 -80 -381 -16
-17 -35 -39 -43 -51 -8 -11 -46 -37 -84 -57 -61 -33 -77 -37 -140 -37 -104 0
-192 16 -224 39 -16 11 -41 23 -56 27 -41 10 -281 250 -344 344 -33 48 -93
110 -108 110 -7 0 -25 16 -41 36 -74 96 -191 189 -273 218 -14 5 -37 17 -52
27 -14 11 -32 19 -40 19 -7 0 -22 6 -33 14 -28 19 -166 56 -250 67 -83 11
-319 -6 -350 -25 -11 -7 -41 -16 -66 -19 -26 -3 -62 -15 -80 -26 -19 -10 -51
-22 -71 -25 -43 -8 -117 -46 -173 -91 -22 -17 -48 -36 -58 -42 -32 -17 -138
-146 -162 -195 -12 -26 -28 -54 -35 -63 -7 -8 -14 -43 -16 -78 -3 -34 -9 -75
-16 -90 -10 -27 -8 -80 10 -192 13 -80 55 -151 110 -185 60 -38 117 -46 215
-32 100 15 163 49 237 129 74 81 160 251 160 317 0 59 163 251 250 296 100 51
158 62 295 58 125 -5 133 -7 205 -42 94 -46 189 -113 215 -151 10 -17 55 -61
98 -100 44 -38 101 -100 128 -136 29 -39 61 -72 79 -79 17 -7 35 -20 40 -30
20 -38 121 -102 197 -127 110 -34 263 -36 345 -4 111 43 252 229 276 362 5 31
7 116 3 199 -6 134 -9 150 -38 210 -17 36 -34 76 -38 90 -4 14 -22 43 -40 65
-18 22 -40 54 -48 71 -20 39 -288 299 -330 320 -18 9 -52 33 -77 53 -102 84
-322 167 -525 197 -148 22 -530 26 -645 6 -195 -33 -454 -119 -545 -182 -24
-17 -47 -30 -52 -30 -5 0 -29 -21 -53 -46 -25 -25 -70 -62 -101 -83 -81 -54
-188 -160 -291 -286 -49 -60 -121 -143 -159 -183 -38 -41 -81 -91 -94 -112
-13 -21 -40 -54 -60 -73 -19 -19 -35 -39 -35 -45 0 -7 -15 -29 -33 -49 -18
-21 -41 -51 -51 -67 -38 -61 -139 -177 -184 -213 -26 -21 -66 -56 -89 -77
-123 -113 -220 -149 -381 -143 -126 5 -210 23 -284 63 -29 15 -70 37 -91 47
-63 32 -178 182 -196 255 -7 26 -18 70 -26 97 -24 86 -39 323 -26 410 6 42 11
91 11 109 0 61 152 236 206 236 17 0 64 55 64 74 0 16 -6 18 -38 12 -32 -5
-42 -2 -61 18 -27 28 -20 51 37 129 52 70 59 75 141 97 169 47 308 3 501 -160
88 -74 189 -124 290 -145 63 -13 238 -7 298 11 214 63 263 84 324 137 33 28
69 70 80 92 11 22 33 55 48 75 20 24 30 51 34 90 3 30 9 80 12 110 6 49 3 63
-24 115 -38 77 -51 87 -143 118 -63 22 -81 25 -110 16 -59 -19 -112 -62 -147
-122 l-35 -58 16 -57 c13 -45 26 -66 63 -100 58 -53 101 -57 145 -13 16 16 29
35 29 43 -1 29 -47 94 -78 107 -41 18 -41 43 -2 83 28 27 35 30 71 24 52 -8
106 -49 125 -94 19 -48 18 -137 -4 -196 -14 -35 -35 -62 -78 -99 -94 -80 -152
-95 -218 -56 -39 23 -70 15 -81 -20 -6 -21 -52 -58 -105 -86 -27 -15 -59 -19
-140 -19 -97 -1 -109 1 -160 28 -30 15 -99 50 -153 78 -54 27 -116 65 -137 84
-52 48 -223 104 -314 104 -84 0 -86 14 -8 73 68 53 116 70 197 71 l60 1 21 63
c27 84 50 112 141 173 69 47 85 53 140 57 96 7 145 -5 213 -49 57 -37 62 -42
55 -67 -4 -15 -6 -76 -5 -135 1 -65 -3 -120 -10 -137 -22 -54 -106 -68 -183
-31 -24 12 -49 21 -56 21 -25 0 -61 48 -61 84 0 55 42 85 70 50 42 -50 90 -36
90 26 0 35 -5 43 -32 60 -54 33 -91 35 -140 8 -23 -12 -48 -34 -55 -48 -17
-34 -16 -144 1 -179 21 -39 99 -97 159 -117 44 -15 60 -15 110 -5 32 7 78 21
100 31 23 10 54 21 70 25 23 5 27 10 27 41 0 19 -7 46 -16 59 -11 18 -16 49
-16 107 -1 70 3 89 23 121 48 78 92 118 171 158 67 34 86 39 145 39 38 0 93
-7 123 -15 58 -15 166 -66 214 -100 40 -29 95 -149 109 -239 16 -99 24 -106
74 -63 23 19 54 39 69 45 154 58 230 82 289 92 39 6 90 18 114 26 25 8 62 14
83 14 22 0 48 5 59 10 19 11 270 31 360 30 51 -1 67 16 49 50 -14 26 -90 86
-120 95 -14 4 -32 13 -40 20 -8 8 -28 17 -45 20 -16 4 -50 14 -75 22 -54 18
-197 10 -242 -13 -56 -29 -64 -107 -12 -120 31 -8 53 11 68 58 11 32 13 33 69
36 43 2 77 -4 129 -22 137 -50 138 -87 2 -87 -43 0 -133 -11 -199 -24 -154
-30 -254 -29 -287 3 -30 27 -54 28 -68 2 -20 -37 -81 -70 -131 -70 -81 0 -117
23 -195 125 -46 59 -54 79 -54 127 0 94 73 178 155 178 52 0 123 -43 154 -94
31 -49 25 -71 -19 -71 -28 0 -37 5 -48 28 -14 30 -46 36 -56 11 -12 -31 -6
-81 12 -96 25 -23 88 -38 163 -38 71 0 89 10 89 48 0 111 225 189 396 137 27
-8 83 -24 124 -35 41 -11 100 -31 130 -44 30 -14 69 -29 85 -35 17 -6 64 -43
105 -81 63 -60 79 -69 100 -64 57 15 134 4 195 -29 33 -17 82 -42 108 -56 57
-28 280 -235 285 -262 5 -30 -11 -27 -153 36 -30 13 -133 39 -280 70 -44 9
-91 21 -105 25 -14 5 -61 10 -105 11 -44 1 -94 6 -112 11 -20 6 -46 5 -70 -1
-21 -6 -90 -13 -153 -15 -114 -5 -147 -11 -330 -59 -138 -36 -230 -65 -243
-76 -7 -5 -32 -15 -57 -22 -25 -7 -65 -27 -91 -45 -25 -18 -70 -42 -101 -54
-31 -11 -62 -28 -69 -36 -7 -9 -47 -33 -90 -54 -79 -40 -162 -92 -190 -119 -9
-9 -38 -32 -64 -51 -55 -41 -155 -125 -207 -175 -20 -19 -44 -35 -53 -35 -8 0
-48 -30 -88 -67 -54 -50 -91 -74 -138 -92 -35 -14 -69 -28 -75 -33 -6 -5 -47
-18 -90 -29 -44 -11 -85 -26 -93 -34 -18 -18 -7 -45 19 -45 43 0 99 -46 100
-80 0 -9 -29 -44 -64 -79 -72 -72 -82 -73 -147 -14 -42 38 -54 36 -75 -12 -12
-31 -12 -37 10 -77 34 -61 24 -79 -68 -122 -42 -20 -84 -36 -94 -36 -32 0 -53
24 -59 68 -7 49 -24 67 -57 58 -17 -4 -29 -19 -41 -51 -22 -56 -37 -69 -71
-61 -31 8 -164 140 -164 163 0 8 14 35 31 60 l31 45 -18 41 c-11 23 -31 54
-46 69 -41 42 -45 74 -18 125 33 61 161 193 189 193 12 0 33 7 47 16 22 15 32
15 82 4 74 -16 89 -25 112 -63 34 -56 18 -136 -33 -167 -44 -27 -66 -25 -78 8
-27 70 -81 91 -124 47 -30 -29 -31 -53 -7 -120 16 -45 22 -51 67 -68 80 -30
91 -31 147 -4 112 53 148 106 147 217 -1 136 -122 250 -265 250 -121 0 -279
-103 -328 -215 -30 -66 -50 -193 -41 -258 23 -171 86 -311 165 -370 82 -61
125 -72 279 -69 l135 2 80 47 c62 37 116 83 229 197 82 83 163 168 180 189 18
22 51 62 75 89 23 27 42 53 42 57 0 12 228 239 260 259 14 9 52 39 85 67 33
29 83 67 110 86 28 18 73 53 101 76 64 53 183 125 316 192 57 29 114 58 128
66 66 36 222 94 280 104 36 7 88 16 115 21 178 33 492 50 579 32 28 -6 85 -16
126 -23 41 -6 122 -26 180 -45 58 -19 117 -34 131 -34 14 0 46 -11 70 -23 24
-13 56 -27 70 -30 66 -17 178 -99 267 -197 50 -55 99 -114 108 -132 9 -18 27
-44 40 -58 41 -44 142 -255 174 -362 53 -176 74 -415 46 -513 -40 -139 -116
-315 -136 -315 -5 0 -19 -19 -31 -42 -12 -23 -33 -54 -48 -69 -14 -14 -37 -39
-51 -55 -14 -16 -37 -36 -50 -46 -17 -11 -22 -19 -15 -27 10 -10 370 -17 1275
-24 219 -2 429 -9 505 -17 72 -7 156 -12 189 -12 32 1 115 -10 185 -25 202
-42 560 -49 736 -14 250 50 468 106 502 128 12 8 49 17 82 20 59 6 62 5 101
-30 41 -38 62 -40 88 -9 6 9 12 28 12 43 0 37 109 134 188 167 31 13 68 32 82
41 49 33 106 53 163 58 75 7 78 -14 5 -48 -55 -25 -179 -135 -229 -203 -30
-40 -38 -91 -16 -99 6 -2 24 2 38 9 20 10 30 26 39 63 7 29 22 59 38 74 38 35
163 117 179 117 8 0 32 9 55 21 39 20 46 20 137 9 170 -21 204 -8 166 64 -17
31 -17 37 -1 112 20 94 34 132 55 158 24 28 156 115 220 144 31 14 70 35 86
47 17 11 52 31 78 43 53 24 54 23 59 -43 2 -33 7 -41 26 -43 14 -2 24 3 28 15
19 60 52 117 90 154 l44 43 0 -222 c0 -122 -3 -222 -6 -222 -4 0 -21 13 -39
29 -51 44 -153 75 -234 69 -116 -9 -179 -56 -250 -190 -52 -98 -53 -134 -6
-227 45 -88 81 -126 131 -140 95 -27 175 -5 200 54 33 79 5 149 -57 143 -33
-3 -34 -5 -39 -52 -3 -28 -11 -53 -20 -58 -25 -16 -99 10 -131 45 -36 39 -45
86 -31 157 10 44 21 64 59 102 43 42 56 49 121 63 100 21 141 19 181 -8 19
-12 53 -34 75 -48 l41 -25 3 -196 2 -195 -29 -6 c-34 -7 -78 -52 -133 -135
-20 -31 -43 -65 -50 -74 -12 -16 -55 -17 -508 -19 -483 -2 -762 3 -847 16 -28
5 -58 1 -94 -10 -45 -15 -73 -17 -208 -10 -86 4 -246 7 -356 5 -306 -5 -1333
-5 -1580 0 -121 2 -251 0 -290 -4 -56 -7 -78 -5 -109 8 -47 19 -88 20 -147 3
-34 -10 -150 -12 -524 -9 -264 2 -493 4 -510 4 -16 1 -47 -3 -68 -7 -30 -6
-52 -2 -110 21 -40 15 -83 35 -97 44 -14 9 -39 22 -57 29 -17 7 -61 44 -98 82
-77 82 -99 87 -115 28 -6 -22 -19 -46 -28 -54 -9 -7 -32 -26 -51 -42 -19 -15
-48 -33 -65 -39 -17 -7 -49 -19 -71 -27 -22 -8 -76 -20 -120 -27 -66 -10 -90
-9 -140 3 -78 20 -146 45 -165 62 -8 7 -33 22 -55 33 -73 37 -114 103 -129
206 -6 48 -40 86 -76 86 -14 0 -41 -13 -59 -28 -29 -24 -35 -37 -42 -87 -6
-48 -5 -67 9 -95 16 -34 19 -35 79 -38 59 -3 64 -5 94 -43 17 -22 54 -55 81
-74 l50 -33 -96 -7 c-53 -4 -124 -4 -159 0 -78 9 -96 9 -635 0 -356 -6 -448
-5 -468 5 -19 11 -32 11 -61 2 -32 -10 -2047 -11 -3968 -2 -22 0 -483 -2
-1025 -4 -597 -3 -1007 -1 -1040 5 -30 5 -77 20 -105 33 -27 14 -61 30 -75 36
-14 5 -70 34 -125 64 -55 29 -125 66 -156 83 -31 16 -69 38 -85 49 -16 10 -36
24 -45 29 -77 46 -195 132 -247 179 -34 31 -68 56 -74 56 -12 0 -228 218 -228
231 0 4 -20 22 -45 39 -25 17 -52 45 -62 63 -9 18 -55 73 -102 123 -99 104
-171 189 -171 201 0 5 -21 29 -46 53 -26 25 -64 72 -86 105 -50 77 -110 147
-173 205 -27 25 -67 62 -87 82 -20 21 -47 40 -60 43 -13 3 -68 49 -122 101
-54 52 -103 94 -108 94 -5 0 -27 15 -50 33 -22 17 -59 48 -83 67 -24 19 -72
52 -107 73 -35 21 -85 53 -112 70 -27 18 -54 35 -60 39 -6 4 -33 17 -61 29
-42 18 -172 87 -225 119 -8 5 -46 23 -85 41 -38 17 -79 40 -90 50 -25 22 -109
53 -265 99 -41 12 -92 28 -113 36 -20 8 -48 14 -61 14 -13 0 -59 9 -102 20
-77 20 -146 32 -291 50 -57 7 -589 26 -653 22 -61 -3 -190 -22 -213 -31 -16
-6 -54 -11 -86 -11 -59 0 -153 -25 -301 -80 -47 -18 -110 -40 -140 -50 -77
-25 -343 -149 -461 -215 -79 -44 -108 -55 -144 -55 -47 0 -85 -25 -85 -55 0
-8 -14 -27 -32 -42 -17 -16 -56 -49 -85 -75 -29 -27 -58 -48 -65 -48 -6 0 -34
-14 -61 -32 -44 -28 -59 -32 -122 -33 -40 0 -78 5 -86 12 -21 17 -221 73 -285
79 -95 10 -179 -12 -261 -68 -65 -44 -76 -57 -108 -121 -63 -129 -70 -270 -19
-373 22 -44 33 -54 78 -73 71 -29 140 -27 228 7 68 26 72 29 95 80 31 70 31
144 1 188 -41 59 -103 71 -143 28 -45 -49 -26 -100 33 -88 28 6 33 3 42 -20
30 -81 -119 -154 -194 -95 -15 12 -40 44 -56 73 -24 41 -30 63 -30 112 0 68
33 155 72 191 41 37 122 71 198 83 65 10 85 10 145 -5 39 -10 75 -21 80 -25
34 -27 134 -51 203 -48 105 4 112 -18 37 -103 -18 -20 -42 -63 -54 -95 -11
-33 -27 -70 -36 -84 -46 -78 -85 -213 -85 -297 0 -19 -5 -44 -12 -56 -25 -47
-7 -329 27 -431 7 -23 17 -58 21 -79 8 -46 119 -198 185 -253 119 -100 175
-133 269 -159 119 -33 181 -37 332 -20 217 25 251 30 276 44 12 6 50 21 84 32
35 11 77 33 99 54 22 19 46 35 54 35 8 0 29 13 47 28 18 16 51 39 72 52 22 13
66 47 99 74 72 61 109 89 207 157 41 28 94 69 117 90 23 21 74 55 115 75 40
20 96 52 124 70 164 109 529 135 854 60 95 -22 276 -87 340 -122 14 -8 48 -25
75 -39 28 -13 79 -41 115 -61 36 -20 88 -49 115 -64 28 -14 75 -41 105 -60 30
-18 74 -41 96 -51 23 -9 45 -22 48 -28 8 -12 107 -60 191 -92 48 -18 81 -23
160 -24 97 0 102 1 152 33 64 41 98 93 112 167 24 129 12 167 -73 239 -50 43
-58 47 -109 47 -43 1 -65 -5 -102 -26 -53 -31 -65 -55 -65 -126 0 -42 5 -55
29 -80 34 -33 83 -39 113 -12 25 22 23 48 -7 67 -47 31 -20 76 46 76 46 0 93
-38 105 -84 8 -34 -20 -153 -42 -177 -46 -51 -150 -72 -235 -49 -50 14 -135
97 -148 146 -18 64 -13 112 15 160 15 25 23 49 18 53 -5 5 -45 13 -89 19 -44
6 -110 21 -147 32 -58 19 -78 32 -136 90 -48 48 -79 90 -101 137 -55 116 -104
155 -213 168 -48 6 -64 4 -102 -16 -56 -28 -106 -88 -106 -127 0 -20 11 -41
35 -65 29 -30 43 -37 74 -37 67 0 91 60 44 112 -38 42 16 85 87 69 50 -11 112
-72 141 -139 27 -63 136 -190 182 -214 41 -20 129 -50 185 -63 17 -3 33 -10
33 -13 1 -4 3 -51 4 -104 l3 -98 -25 0 c-30 0 -93 59 -93 87 0 11 -9 28 -20
38 -17 15 -24 16 -46 7 -38 -18 -68 -14 -108 13 -21 14 -59 36 -86 50 -44 22
-50 29 -65 81 l-16 56 -42 -8 c-75 -15 -139 -9 -192 18 -27 14 -66 29 -85 33
-96 21 -180 80 -180 127 0 28 -23 31 -61 9 -51 -30 -167 -51 -287 -52 -59 0
-131 -1 -161 -2 -34 -1 -56 2 -58 10 -13 37 457 263 548 263 15 0 41 -11 57
-25 38 -31 57 -31 98 0 68 52 121 67 219 62 50 -3 110 -11 134 -18 40 -13 44
-12 60 6 28 34 108 95 144 110 52 22 233 30 321 15 64 -11 86 -20 143 -61 74
-54 92 -78 93 -126 0 -39 22 -53 83 -53 66 0 165 -35 222 -78 51 -39 85 -85
72 -98 -4 -4 -38 6 -75 23 -131 60 -122 60 -467 37 -89 -6 -106 -4 -148 14
-57 25 -62 54 -17 97 36 35 39 69 6 90 -28 19 -60 9 -92 -26 -32 -37 -36 -58
-20 -113 16 -55 40 -83 96 -111 32 -17 44 -17 160 -4 181 20 268 17 370 -14
95 -29 158 -69 219 -139 64 -73 93 -146 99 -255 6 -114 -7 -165 -64 -254 -90
-141 -172 -200 -307 -218 -120 -17 -192 -1 -354 75 -51 24 -97 44 -103 44 -6
0 -27 9 -47 20 -21 11 -43 20 -50 20 -7 0 -30 15 -50 33 -21 19 -53 39 -70 45
-18 6 -48 22 -65 35 -18 13 -67 43 -108 65 -41 22 -102 55 -135 72 -109 59
-179 92 -267 126 -48 18 -102 41 -119 50 -96 49 -350 85 -453 64 -28 -5 -91
-14 -141 -19 -102 -11 -163 -33 -234 -88 -27 -21 -75 -53 -106 -71 -31 -19
-72 -55 -93 -83 -101 -133 -122 -168 -122 -199 0 -17 -4 -39 -10 -49 -5 -10
-10 -63 -12 -119 -2 -94 0 -103 25 -140 34 -52 124 -112 190 -127 74 -16 160
-12 194 11 15 10 46 28 68 39 105 56 140 233 64 320 -41 47 -118 71 -174 56
-113 -30 -158 -231 -52 -231 42 0 51 7 79 60 29 56 65 65 97 24 45 -57 17
-139 -67 -198 -33 -24 -56 -31 -105 -34 -78 -5 -160 18 -200 56 -33 31 -77
122 -77 159 0 61 87 271 128 310 94 89 141 101 227 58 91 -44 147 -26 94 31
-47 50 -15 109 80 145 49 19 77 22 226 23 191 1 246 -9 383 -67 120 -50 129
-67 49 -87 -49 -13 -119 -41 -198 -80 -31 -15 -86 -33 -123 -39 -37 -7 -77
-17 -88 -24 -16 -9 -22 -9 -25 1 -3 7 -16 26 -29 41 -39 47 -31 68 29 80 16 4
36 16 44 28 14 20 13 24 -10 47 -26 26 -99 43 -137 31 -31 -10 -60 -63 -60
-110 0 -47 -1 -45 72 -113 l57 -52 73 5 c84 5 151 24 217 61 76 42 233 84 316
84 61 0 87 -6 153 -34 43 -19 114 -57 158 -85 43 -28 99 -61 123 -72 24 -12
71 -39 104 -60 33 -21 65 -39 71 -39 6 0 33 -11 61 -24 97 -47 271 -114 323
-125 181 -38 394 25 481 142 52 70 85 137 113 227 19 64 23 97 23 220 l0 145
-45 100 c-42 94 -52 107 -170 226 -69 69 -141 134 -160 144 -19 10 -49 29 -66
42 -57 43 -287 150 -379 176 -155 44 -206 50 -348 44 -73 -4 -159 -13 -192
-21 -124 -30 -364 -107 -405 -130 -14 -8 -59 -26 -101 -40 -41 -14 -113 -47
-160 -73 -79 -44 -149 -81 -364 -193 -129 -67 -188 -100 -205 -114 -8 -7 -46
-30 -84 -51 -38 -20 -103 -63 -145 -95 -42 -31 -94 -69 -116 -83 -80 -53 -141
-100 -200 -152 -64 -57 -245 -193 -298 -225 -69 -41 -215 -113 -282 -137 -76
-28 -200 -43 -385 -46 -95 -1 -110 1 -160 25 -31 15 -68 30 -84 34 -25 6 -127
91 -235 196 -19 18 -46 59 -61 91 -15 31 -32 63 -37 70 -36 46 -67 199 -54
258 6 24 11 62 11 84 0 22 7 49 15 59 8 11 15 29 15 39 0 36 78 183 122 230
80 87 293 219 388 241 276 64 327 70 447 50 50 -8 110 -21 133 -29 24 -8 53
-15 66 -15 13 0 48 -9 79 -21 31 -11 80 -24 108 -29 29 -4 81 -15 117 -25 54
-15 95 -17 245 -13 192 5 219 10 408 79 120 44 205 125 264 252 34 73 32 180
-4 249 -45 84 -90 125 -147 133 -65 10 -117 -7 -160 -52 -46 -50 -63 -101 -47
-152 21 -71 110 -75 127 -6 8 32 -11 55 -43 55 -20 0 -24 4 -21 23 3 20 10 22
62 25 104 5 156 -40 156 -135 0 -96 -50 -204 -122 -264 -56 -47 -90 -64 -158
-78 -30 -7 -84 -19 -120 -28 -115 -27 -262 -29 -407 -3 -70 12 -144 28 -163
35 -19 8 -51 16 -70 19 -19 3 -75 14 -125 25 -87 19 -92 21 -136 71 -38 41
-48 60 -53 101 -8 61 -32 64 -51 8 -25 -70 -62 -117 -102 -128 -21 -6 -49 -11
-63 -11 -28 0 -150 -21 -255 -45 -114 -25 -269 -110 -338 -185 -26 -28 -51
-50 -57 -50 -17 0 -11 70 8 98 10 15 22 35 25 45 16 43 120 187 165 227 144
129 166 143 216 129 28 -8 43 -6 71 7 44 21 59 47 52 91 -5 26 -1 39 13 53 25
25 176 100 201 100 11 0 30 -17 45 -40 21 -31 33 -40 56 -40 43 0 78 40 78 87
0 39 22 83 41 83 6 0 41 14 77 31 37 17 93 37 124 45 31 8 84 26 117 39 33 14
72 25 86 25 14 0 39 7 55 15 43 22 256 47 529 61 126 7 376 -11 448 -32 61
-18 93 -51 129 -132 26 -58 31 -101 14 -118 -16 -16 -2 -41 27 -47 39 -7 61 2
81 37 40 68 153 116 271 116 91 0 298 -58 401 -113 108 -58 174 -91 210 -106
19 -8 68 -36 108 -63 39 -27 84 -53 99 -59 14 -5 40 -21 57 -35 17 -14 59 -45
94 -70 34 -24 62 -48 62 -54 0 -17 -83 -11 -140 11 -30 12 -88 30 -129 40 -88
24 -181 69 -199 98 -17 29 -44 26 -67 -9 -33 -50 -104 -80 -221 -96 -57 -7
-128 -20 -157 -28 -28 -8 -70 -17 -92 -21 -22 -4 -79 -24 -128 -46 -48 -21
-95 -39 -105 -39 -9 0 -34 -9 -55 -20 -39 -21 -72 -26 -81 -12 -3 5 4 21 15
38 10 16 19 35 19 42 0 21 102 164 154 215 69 69 122 100 186 108 94 13 165
-42 82 -63 -44 -12 -59 -45 -38 -86 18 -36 44 -46 91 -38 40 8 95 56 95 83 0
11 -7 42 -15 69 -12 42 -21 52 -62 75 -70 39 -105 42 -184 19 -75 -23 -162
-82 -225 -154 -93 -106 -122 -144 -151 -196 -70 -128 -133 -205 -190 -230 -25
-11 -50 -20 -56 -20 -18 0 -160 -70 -214 -106 -28 -19 -55 -34 -60 -34 -5 0
-20 -11 -33 -25 -42 -44 -226 -100 -383 -115 -98 -9 -317 4 -394 23 -32 9 -85
21 -118 27 -33 7 -70 16 -83 21 -53 21 -72 -2 -46 -54 25 -47 21 -185 -6 -237
-24 -46 -21 -56 16 -63 41 -7 81 36 99 106 20 76 42 117 63 117 9 0 37 -7 62
-16 67 -24 181 -38 307 -39 65 0 116 -4 123 -11 11 -11 -81 -105 -210 -214
-36 -30 -73 -65 -83 -77 -10 -13 -24 -23 -32 -23 -7 0 -36 -15 -63 -34 -104
-70 -280 -156 -319 -156 -18 0 -43 41 -43 70 0 27 -16 50 -36 50 -6 0 -14 -24
-18 -55 -8 -68 -40 -132 -79 -155 -48 -29 -174 -54 -204 -41 -21 10 -24 16
-19 39 17 73 18 109 3 115 -9 3 -47 -10 -86 -29 -114 -56 -121 -56 -183 11
-81 87 -84 97 -48 139 17 19 44 37 60 41 52 11 66 55 18 55 -28 0 -95 74 -107
117 -17 59 1 136 43 187 48 58 112 111 161 132 73 30 234 -5 269 -58 35 -54
27 -136 -16 -159 -30 -16 -68 23 -68 71 0 52 -19 74 -56 66 -59 -13 -104 -74
-104 -140 0 -69 12 -97 54 -128 38 -28 45 -30 108 -25 83 7 98 15 148 78 40
51 40 51 40 140 l0 89 -42 47 c-24 25 -61 58 -83 72 -38 25 -47 26 -170 26
-157 0 -184 -11 -285 -115 -85 -87 -136 -188 -150 -297 -12 -90 -7 -141 21
-234 19 -60 29 -74 115 -160 86 -86 98 -94 151 -107 127 -29 161 -34 245 -39
77 -4 97 -1 165 23 43 15 82 31 88 35 5 5 18 9 28 9 34 0 293 162 405 252 29
24 58 45 65 47 7 2 43 29 82 60 78 63 115 89 230 165 44 30 91 66 105 81 33
36 290 205 312 205 9 0 32 13 50 28 18 16 89 57 158 91 69 35 132 69 141 77 8
8 42 23 75 34 32 11 73 26 89 34 17 8 62 27 100 42 39 15 84 33 100 40 61 27
172 65 244 85 41 11 91 27 110 35 43 19 226 31 401 28 129 -2 192 -14 268 -53
23 -12 65 -26 94 -32 83 -18 232 -81 293 -124 17 -12 46 -30 65 -40 19 -10 58
-40 87 -66 28 -27 57 -49 64 -49 6 0 61 -51 123 -112 115 -117 200 -229 241
-320 13 -29 35 -68 49 -87 14 -19 26 -43 26 -53 0 -9 9 -41 19 -70 35 -96 50
-204 40 -298 -10 -104 -21 -151 -43 -181 -9 -13 -16 -30 -16 -38 0 -24 -99
-168 -135 -195 -18 -14 -53 -35 -79 -47 -25 -13 -46 -26 -46 -31 0 -4 11 -15
26 -24 22 -15 43 -16 177 -9 84 4 197 9 252 11 55 2 116 6 135 8 19 3 47 5 63
5 44 1 114 77 122 134 4 25 4 55 0 66 -23 75 -233 69 -252 -7 -9 -37 13 -53
69 -50 39 2 53 -1 62 -14 16 -26 -2 -49 -54 -65 -46 -14 -213 -11 -290 5 -39
9 -50 33 -28 60 42 50 88 147 108 226 19 75 22 106 18 202 -5 108 -4 114 14
114 10 0 52 -30 92 -68 40 -37 101 -89 136 -117 35 -27 91 -73 124 -101 34
-27 81 -64 106 -81 25 -17 60 -47 79 -67 19 -19 47 -38 62 -41 16 -4 37 -17
47 -30 10 -12 49 -38 88 -57 144 -71 250 -128 274 -147 20 -17 23 -23 14 -38
-11 -17 -50 -18 -750 -17 -724 0 -866 4 -912 27 -18 8 -25 7 -35 -7 -14 -19
-46 -19 -164 0 -25 3 -56 1 -75 -6 -24 -8 -252 -13 -840 -16 -776 -4 -808 -4
-817 14 -8 14 -3 29 20 63 16 24 29 50 29 56 0 7 44 58 98 112 85 87 109 105
195 147 90 44 104 47 167 46 47 -1 81 -7 107 -21 51 -26 117 -98 133 -146 18
-54 8 -130 -20 -160 -28 -29 -80 -41 -110 -25 -19 10 -21 17 -15 65 7 49 5 54
-18 70 -30 20 -51 11 -91 -36 -44 -51 -32 -122 27 -158 40 -25 120 -28 170 -7
65 27 147 152 147 222 0 33 -30 105 -57 141 -55 72 -143 103 -290 103 -122 0
-230 -55 -345 -175 -56 -59 -73 -56 -94 16 -15 51 -45 84 -69 76 -12 -5 -15
-26 -15 -112 0 -100 -2 -109 -31 -163 -46 -84 -73 -109 -127 -117 -26 -4 -186
-9 -357 -10 l-310 -2 -29 26 c-30 28 -76 120 -76 155 0 11 -7 30 -15 40 -8 11
-15 32 -15 48 0 16 -7 31 -18 37 -15 8 -36 -2 -108 -51 -49 -33 -102 -67 -119
-75 -16 -8 -66 -36 -110 -64 -43 -27 -97 -54 -120 -60 -22 -6 -58 -18 -80 -28
-32 -13 -70 -16 -190 -14 -142 1 -182 7 -353 46 -63 15 -213 83 -267 123 -16
12 -41 25 -54 29 -13 4 -50 31 -81 60 -32 30 -71 60 -87 68 -38 20 -153 141
-153 162 0 9 -16 49 -35 88 -92 193 -110 334 -73 579 9 61 9 80 -2 92 -31 39
-60 6 -89 -100 -28 -102 -32 -151 -21 -234 27 -204 47 -266 119 -382 68 -108
228 -287 304 -339 18 -13 50 -39 72 -58 22 -20 60 -45 85 -55 25 -10 74 -32
109 -47 35 -16 71 -29 80 -29 9 0 21 -4 28 -8 7 -4 -203 -9 -467 -10 -332 -1
-480 1 -480 9 0 6 5 19 11 30 6 11 10 45 10 76 0 65 -21 94 -89 125 -42 19
-42 19 -72 -2 -44 -31 -53 -54 -40 -96 8 -25 22 -40 48 -52 41 -19 50 -46 27
-76 -11 -14 -29 -19 -87 -21 l-73 -2 -47 49 c-54 57 -58 76 -32 165 16 54 62
111 121 150 28 18 126 42 176 43 47 0 150 -46 200 -91 31 -27 42 -48 58 -103
26 -97 65 -132 99 -91 25 30 73 59 108 64 40 7 52 25 25 39 -12 7 -33 5 -67
-6 -59 -19 -76 -11 -94 46 -17 53 -120 151 -202 192 -53 27 -69 30 -150 30
-79 0 -99 -4 -158 -30 -129 -59 -183 -147 -190 -311 -3 -61 0 -104 7 -118 11
-20 9 -21 -27 -21 l-38 0 1 258 c1 142 5 263 9 270 4 7 14 12 23 12 9 0 38 20
64 45 26 25 54 45 62 45 8 0 29 10 48 23 61 41 168 57 240 35 22 -6 42 -8 45
-5 4 4 -3 32 -14 64 -12 32 -20 72 -20 88 1 17 -4 76 -11 132 -11 95 -3 245
14 272 11 18 -25 33 -64 27 -33 -5 -44 -1 -77 25 -22 17 -64 59 -94 94 -61 69
-88 133 -98 230 -5 46 -11 61 -25 63 -14 3 -17 -4 -17 -45 0 -73 18 -165 42
-219 27 -63 102 -150 148 -174 44 -23 55 -54 69 -195 6 -55 16 -125 22 -155 6
-30 12 -70 13 -89 l1 -35 -110 -41 c-60 -23 -140 -55 -176 -73 -37 -18 -71
-32 -77 -32 -17 0 -22 28 -22 127 0 106 -8 92 108 191 52 44 118 144 107 162
-3 5 -21 10 -39 10 -38 0 -111 37 -147 76 l-24 26 -5 311 c-3 172 -2 417 1
545 l5 232 35 36 c44 45 119 86 192 103 81 20 120 4 164 -69 44 -73 46 -144 7
-184 -15 -14 -30 -26 -35 -26 -16 0 -39 32 -39 56 0 26 -32 64 -54 64 -43 0
-59 -67 -32 -132 22 -51 41 -62 105 -63 65 0 113 26 152 84 30 43 30 93 0 183
-28 80 -63 117 -148 152 -82 34 -151 35 -208 1 -50 -29 -119 -43 -129 -26 -4
6 -9 77 -12 158 -5 181 0 193 80 193 29 0 71 7 91 16 27 11 75 16 156 17 111
2 120 1 141 -21 18 -18 21 -26 12 -40 -9 -13 -23 -16 -57 -14 -39 2 -48 -1
-67 -25 -37 -48 -10 -113 47 -113 57 0 133 64 133 112 0 7 34 56 75 108 41 52
79 109 85 127 6 17 19 35 28 39 28 12 1132 14 1170 2 24 -7 37 -7 45 1 7 7 89
11 253 11 135 0 245 4 248 9 4 5 43 7 89 3 45 -3 683 -6 1417 -7z m14676 4 c3
-6 15 -9 25 -6 19 5 25 -9 11 -28 -14 -21 -96 -75 -113 -75 -18 0 -22 9 -34
69 -5 23 -3 36 6 42 20 12 97 11 105 -2z m1800 -28 c-10 -15 -31 -14 -45 3
-10 11 -8 17 6 25 21 11 50 -10 39 -28z m514 19 c13 -20 13 -20 -9 -56 -12
-20 -42 -43 -85 -63 -59 -29 -68 -31 -103 -21 -69 21 -104 64 -96 117 6 39 16
41 171 39 87 -1 115 -5 122 -16z m620 -188 l0 -209 -62 10 c-44 6 -72 6 -94
-2 -17 -6 -64 -15 -105 -21 -41 -5 -92 -15 -114 -23 -22 -8 -56 -17 -75 -21
-19 -3 -76 -30 -125 -60 -50 -29 -101 -57 -115 -61 -32 -10 -98 -56 -130 -90
-14 -15 -41 -35 -61 -45 -43 -22 -101 -85 -128 -138 -11 -21 -39 -60 -64 -88
-24 -27 -54 -70 -66 -95 -13 -25 -51 -73 -85 -106 -57 -56 -67 -62 -136 -78
-41 -9 -87 -21 -101 -27 -15 -5 -66 -10 -115 -10 l-89 -1 -156 80 c-86 43
-171 91 -190 105 -19 13 -56 37 -83 53 -58 33 -203 178 -250 250 -39 59 -144
175 -159 175 -6 0 -33 14 -60 32 -43 27 -58 32 -111 31 -77 -1 -138 -23 -187
-68 -22 -19 -43 -35 -48 -35 -5 0 -23 -26 -40 -57 -26 -47 -31 -68 -31 -121
l0 -65 53 -54 c53 -52 55 -53 112 -53 126 0 211 100 147 173 -33 37 -63 17
-76 -52 -8 -45 -23 -61 -56 -61 -19 0 -37 10 -54 31 -21 25 -26 41 -26 89 0
53 4 63 39 108 76 95 111 111 201 92 51 -11 68 -21 119 -70 51 -50 61 -66 72
-114 11 -49 10 -62 -8 -118 -18 -55 -19 -76 -13 -163 9 -111 24 -190 44 -220
7 -11 16 -49 19 -85 6 -55 4 -70 -13 -97 -23 -38 -42 -41 -77 -13 -53 41 -103
12 -103 -60 0 -39 25 -74 61 -85 26 -8 105 20 138 49 57 51 71 89 71 190 0 90
-2 98 -41 180 -51 105 -57 174 -22 247 38 80 72 88 108 27 10 -18 68 -83 127
-143 162 -165 186 -209 153 -278 -36 -77 1 -97 79 -43 29 20 85 46 125 58 68
20 79 21 159 9 48 -7 98 -13 112 -13 25 -1 114 15 158 28 14 4 22 2 22 -6 0
-21 -222 -230 -249 -236 -14 -3 -39 -11 -56 -19 -16 -7 -58 -16 -93 -19 -35
-3 -72 -10 -82 -16 -28 -15 -50 -63 -50 -108 0 -47 -6 -53 -87 -81 -91 -30
-165 -38 -182 -17 -12 14 -9 26 18 86 38 85 38 97 6 161 -29 55 -47 68 -71 48
-16 -13 -15 -49 1 -129 5 -20 -6 -37 -54 -89 -57 -63 -61 -65 -108 -65 -58 0
-177 39 -217 72 -16 12 -47 32 -69 44 -129 66 -160 100 -207 234 -24 69 -66
116 -121 133 -20 6 -48 24 -62 39 -28 29 -72 129 -83 188 -8 45 14 45 41 1 13
-20 51 -49 105 -79 47 -25 106 -67 132 -92 46 -45 78 -59 78 -34 0 46 -59 148
-85 148 -16 0 -86 41 -144 83 -100 73 -106 248 -16 462 19 44 82 115 102 115
8 0 30 8 51 18 55 28 198 55 248 48 55 -7 148 -46 217 -90 28 -18 101 -87 162
-152 178 -193 304 -314 348 -335 23 -11 71 -36 107 -55 56 -31 77 -36 151 -41
66 -4 99 -2 140 12 115 37 220 110 319 222 30 34 73 82 95 105 22 24 56 64 76
89 34 42 199 189 213 189 3 0 56 34 117 75 61 41 116 75 122 75 7 1 30 9 52
20 22 11 44 19 48 20 5 0 33 11 63 25 30 14 62 25 72 25 9 1 28 7 42 15 14 8
53 15 90 15 36 0 70 4 76 8 9 5 9 31 1 98 -13 116 -10 124 48 124 l45 0 0
-208z m-14622 175 c6 -5 12 -21 12 -36 0 -15 7 -37 16 -49 39 -56 -7 -90 -124
-91 -77 -1 -124 20 -199 92 -37 35 -53 57 -51 71 3 19 12 22 88 26 109 7 241
0 258 -13z m3209 -13 c8 -10 25 -40 38 -65 l24 -46 -28 -59 c-34 -73 -53 -91
-71 -69 -9 11 -11 31 -5 68 12 89 3 117 -36 117 -46 0 -66 -71 -29 -105 51
-46 6 -171 -98 -277 -37 -38 -70 -68 -74 -68 -11 0 -10 57 2 120 8 41 6 67 -7
121 -14 60 -23 75 -64 114 -30 28 -60 46 -84 51 -56 10 -144 -14 -181 -50 -32
-32 -74 -129 -74 -170 0 -34 20 -89 38 -103 25 -21 79 -16 102 9 30 33 25 65
-16 103 -35 32 -36 35 -24 69 14 43 62 86 96 86 33 0 103 -37 111 -58 4 -9 18
-34 31 -54 34 -52 28 -127 -13 -184 -92 -125 -172 -162 -282 -131 -70 19 -83
11 -83 -49 0 -40 -3 -45 -37 -63 -37 -18 -93 -26 -161 -23 -44 3 -53 27 -19
55 30 26 44 75 24 83 -7 2 -33 -4 -58 -15 -24 -12 -54 -21 -65 -21 -23 0 -106
43 -122 63 -5 7 -26 62 -47 122 -20 61 -50 128 -66 150 -16 22 -41 59 -56 82
-16 22 -41 49 -58 59 -16 10 -51 37 -76 61 -49 46 -103 73 -144 73 -14 0 -25
4 -25 9 0 12 107 18 275 17 l140 -1 54 -33 c29 -18 61 -34 70 -35 9 0 38 15
64 34 46 32 54 34 145 37 53 2 108 -1 122 -6 25 -10 24 -11 -46 -79 -74 -70
-95 -108 -118 -208 -11 -47 -14 -50 -45 -53 -49 -5 -111 29 -169 93 -44 47
-55 55 -77 49 -14 -3 -25 -12 -25 -18 0 -7 31 -44 70 -83 78 -79 187 -140 270
-150 57 -7 64 1 51 57 -22 97 25 246 90 287 45 28 79 60 79 73 0 6 -10 15 -22
20 -13 5 -21 10 -18 11 15 6 502 13 599 8 97 -4 116 -8 128 -25z m9953 28 c0
-4 -16 -14 -35 -21 -26 -9 -39 -9 -56 0 -17 9 -19 13 -8 20 18 11 99 12 99 1z
m-8816 -12 c29 -11 34 -41 12 -59 -11 -9 -23 -7 -52 9 -21 11 -44 20 -51 20
-15 0 -26 17 -18 30 8 13 76 13 109 0z m-10667 -16 c8 -20 -21 -60 -66 -90
-38 -25 -40 -25 -72 -8 -50 25 -147 30 -205 9 -63 -22 -213 -32 -242 -16 -29
15 -32 94 -4 110 10 6 126 10 300 10 236 0 284 -3 289 -15z m17814 0 c14 -13
17 -26 12 -64 -3 -30 -1 -50 6 -54 21 -13 11 -44 -21 -64 -18 -12 -41 -34 -51
-51 -24 -41 -55 -58 -72 -39 -20 21 -77 157 -73 176 2 9 33 33 69 52 35 19 74
40 84 47 26 16 25 16 46 -3z m-3828 -260 c31 -10 20 -48 -27 -87 -45 -37 -76
-47 -76 -24 -1 6 -9 30 -20 52 -17 35 -17 41 -4 51 15 12 97 17 127 8z m-539
-42 c2 -4 -4 -25 -14 -47 -11 -22 -19 -47 -20 -56 0 -9 -7 -22 -15 -29 -12
-10 -26 -8 -74 14 -68 30 -145 34 -231 11 -83 -22 -110 -20 -110 8 0 53 79 84
184 72 123 -15 179 -11 217 13 36 23 55 27 63 14z m3823 -16 c40 -20 161 -142
174 -174 14 -37 11 -82 -7 -89 -9 -3 -32 3 -52 14 -56 31 -180 57 -233 49 -35
-6 -56 -19 -105 -64 -87 -81 -99 -108 -98 -216 l0 -89 41 -38 c23 -21 53 -41
67 -45 37 -9 106 32 131 78 l20 37 -21 28 c-11 15 -30 32 -42 38 -51 23 -40
74 28 143 47 48 55 52 99 52 56 0 131 -42 155 -87 28 -54 36 -135 20 -195 -19
-74 -42 -128 -55 -128 -5 0 -32 -20 -58 -45 -26 -25 -52 -45 -58 -45 -5 0 -31
-14 -58 -32 l-48 -32 7 -83 c3 -46 12 -99 20 -117 8 -18 17 -52 21 -76 9 -52
50 -148 75 -175 11 -11 26 -37 35 -58 19 -46 266 -294 321 -322 21 -11 57 -32
79 -46 22 -15 51 -30 65 -34 13 -4 56 -24 95 -44 38 -21 86 -43 105 -50 19 -8
80 -35 135 -62 149 -71 254 -104 410 -128 237 -36 292 -41 423 -41 70 0 137
-3 150 -6 36 -10 22 -36 -28 -55 -25 -10 -72 -29 -105 -42 -92 -39 -278 -88
-395 -104 -231 -32 -395 -28 -595 12 -38 8 -104 20 -145 26 -41 7 -131 34
-200 61 -143 56 -142 56 -310 136 -69 34 -137 65 -152 71 -32 12 -181 119
-246 176 -25 22 -62 62 -84 88 -36 46 -38 53 -38 118 0 64 2 72 33 106 47 54
57 84 57 168 0 114 -23 155 -89 155 -26 0 -44 -7 -58 -22 -47 -52 -54 -92 -24
-129 17 -21 22 -22 40 -11 11 6 30 12 42 12 19 0 21 -4 14 -37 -4 -21 -17 -52
-31 -70 -13 -17 -29 -52 -36 -78 -7 -26 -19 -50 -27 -53 -14 -5 -71 52 -71 71
0 5 -9 21 -19 36 -11 15 -25 54 -31 86 -12 61 -2 150 31 276 l12 46 -53 64
c-62 77 -70 95 -70 161 0 71 63 300 91 335 18 21 36 -1 50 -60 6 -29 23 -68
35 -87 13 -19 24 -42 24 -50 0 -20 50 -99 80 -125 49 -44 55 -92 16 -124 -31
-26 -18 -47 50 -87 43 -25 76 -53 91 -78 36 -56 63 -164 63 -250 0 -78 6 -89
50 -99 38 -9 94 -56 131 -110 27 -40 33 -58 33 -103 1 -49 -2 -59 -27 -80 -33
-28 -77 -31 -112 -8 -38 25 -33 60 10 78 44 19 48 55 9 85 -37 29 -67 26 -109
-10 -29 -26 -35 -38 -35 -70 0 -56 22 -102 64 -134 32 -24 44 -27 103 -26 55
1 75 6 109 29 45 29 114 111 114 135 0 8 -41 57 -90 108 -76 78 -99 111 -140
194 -27 55 -54 123 -61 150 -6 28 -15 59 -20 70 -37 87 -63 205 -61 273 2 52
-1 73 -10 76 -7 2 -35 10 -63 17 -34 9 -65 27 -97 57 -27 25 -48 50 -48 56 0
6 -7 24 -15 40 -24 45 -57 206 -52 251 13 126 92 262 186 321 31 19 63 34 72
34 9 0 32 7 50 15 45 21 200 15 246 -9z m2757 -115 l29 -12 -73 -70 c-40 -38
-80 -75 -89 -82 -9 -7 -32 -32 -51 -57 -19 -25 -38 -46 -42 -48 -3 -2 -25 -32
-48 -68 -23 -35 -45 -64 -49 -64 -4 0 -39 -28 -77 -63 -69 -62 -87 -72 -171
-97 -57 -17 -234 -6 -283 18 l-35 17 3 71 c4 65 2 73 -19 87 -23 17 -48 15
-101 -5 -14 -5 -35 -7 -46 -4 -28 9 -154 163 -150 184 5 28 138 30 182 2 27
-16 50 -20 119 -20 47 0 98 5 113 12 24 11 29 10 56 -21 20 -22 51 -40 96 -55
57 -20 67 -26 67 -46 0 -17 -13 -33 -41 -53 -52 -36 -79 -31 -93 20 -13 48
-38 73 -72 73 -36 0 -47 -34 -30 -90 24 -79 105 -120 178 -88 34 15 153 97
153 106 0 4 45 53 100 110 79 83 102 114 116 155 9 29 21 57 26 62 14 16 130
44 168 40 19 -2 48 -8 64 -14z m-16818 -92 c24 -6 47 -15 50 -20 7 -12 -57
-69 -78 -69 -22 0 -51 55 -43 80 7 23 11 24 71 9z m5834 -133 c0 -53 -146
-106 -174 -63 -19 30 4 52 57 52 25 0 49 3 53 8 8 7 64 10 64 3z m11768 -11
c20 -9 54 -32 74 -52 l37 -36 -1 -86 c0 -155 -39 -244 -125 -286 -22 -11 -48
-28 -57 -37 -10 -10 -25 -18 -34 -18 -9 0 -30 -7 -47 -16 -16 -8 -64 -17 -110
-19 -87 -5 -176 -19 -203 -34 -46 -25 -72 -94 -53 -144 12 -31 61 -44 104 -28
26 10 27 13 21 58 -9 68 11 84 110 89 42 3 88 9 102 14 34 13 54 13 54 -1 0
-20 -96 -107 -157 -143 -32 -19 -67 -44 -78 -56 -11 -12 -36 -30 -55 -40 -19
-10 -44 -27 -54 -39 -22 -24 -61 -28 -70 -6 -3 9 -18 15 -35 15 -16 0 -31 6
-35 15 -7 19 -84 20 -147 1 -51 -16 -144 -77 -153 -102 -3 -9 -6 -35 -6 -60 0
-38 3 -44 25 -50 44 -11 64 10 56 59 -3 21 24 48 65 67 73 32 86 28 112 -33
11 -25 9 -31 -26 -69 -20 -23 -57 -50 -82 -61 -25 -11 -52 -25 -60 -32 -22
-19 -211 -115 -227 -115 -7 0 -38 -14 -69 -32 -31 -17 -72 -35 -93 -39 -20 -4
-49 -11 -66 -14 -16 -4 -44 -13 -61 -21 -17 -7 -64 -16 -105 -19 l-74 -6 40
33 c22 18 53 46 69 61 16 16 47 40 69 54 22 14 59 43 84 66 35 33 51 40 76 38
18 -1 50 -3 72 -4 l40 -2 5 75 c3 44 17 110 34 160 28 81 34 90 122 177 50 51
102 94 115 97 13 2 47 8 74 13 41 7 51 12 53 31 2 12 -6 34 -17 48 -29 36 -26
67 10 130 44 77 87 120 137 135 38 11 47 10 72 -4 63 -38 110 -7 110 72 0 43
4 52 35 79 37 34 80 46 163 46 47 0 56 -3 88 -35 l35 -36 -16 -51 c-30 -91
-70 -94 -70 -5 0 58 -21 76 -62 51 -44 -25 -73 -75 -73 -123 0 -37 5 -47 40
-79 39 -35 54 -40 115 -36 34 2 101 37 128 68 10 11 22 47 27 83 8 57 7 66
-17 108 -40 69 -53 81 -89 81 -18 0 -44 4 -58 10 -27 10 -35 35 -13 43 26 11
89 6 125 -8z m-12245 -344 c69 -31 402 -54 461 -31 16 6 29 5 41 -4 15 -11 13
-16 -20 -56 -49 -59 -60 -66 -125 -78 -127 -25 -143 -24 -179 2 -38 28 -71 21
-71 -15 0 -29 -26 -76 -82 -147 -58 -73 -68 -79 -155 -97 -58 -12 -69 -12 -99
3 -19 8 -34 23 -34 31 1 9 29 37 64 63 34 26 67 58 73 70 31 69 38 101 39 178
1 47 2 88 3 93 2 13 41 8 84 -12z m12377 -221 l0 -120 -47 -52 c-55 -61 -177
-164 -219 -186 -16 -8 -40 -25 -54 -38 -14 -12 -41 -30 -60 -38 -19 -8 -55
-32 -80 -54 -25 -21 -59 -46 -77 -56 -18 -9 -51 -29 -75 -45 -24 -15 -74 -45
-113 -66 -38 -20 -74 -41 -80 -45 -25 -20 -130 -70 -145 -70 -9 0 -25 -9 -35
-20 -16 -17 -78 -57 -165 -105 -61 -34 -116 -57 -154 -65 -22 -5 -83 -20 -134
-34 -52 -13 -117 -28 -145 -31 -29 -4 -61 -12 -72 -18 -22 -12 -149 -25 -325
-33 -118 -6 -331 9 -391 27 -19 5 -63 14 -99 18 -36 5 -103 23 -150 41 -47 17
-119 44 -160 59 -41 15 -86 33 -100 41 -51 29 -135 69 -144 70 -5 0 -23 11
-40 24 -17 13 -56 34 -86 47 -53 22 -66 30 -140 87 -60 46 -210 209 -224 244
-8 18 -33 54 -55 80 -23 25 -41 50 -41 54 0 5 -15 40 -34 79 -35 72 -61 180
-51 207 4 9 32 25 63 37 31 12 65 30 75 39 27 24 49 5 62 -54 35 -147 166
-353 331 -518 34 -34 117 -96 128 -96 4 0 33 -16 64 -36 98 -63 310 -167 392
-192 112 -35 329 -83 415 -91 116 -11 428 -6 482 8 21 5 88 17 148 27 61 9
130 26 155 36 25 11 72 29 105 40 33 11 85 34 115 52 30 18 84 48 120 66 122
62 172 89 185 100 7 5 48 28 91 49 121 60 209 118 330 220 11 10 45 36 76 59
31 23 59 46 62 51 4 5 31 24 61 41 36 20 63 46 82 76 36 58 142 204 148 204 3
0 5 -54 5 -120z m-12130 -47 c-1 -19 -20 -35 -56 -48 -35 -12 -39 -12 -43 3
-5 22 35 52 70 52 16 0 29 -3 29 -7z m-4865 -144 c9 -14 -22 -47 -65 -69 -29
-14 -58 -17 -165 -15 -124 2 -151 9 -123 32 17 14 109 33 157 33 21 0 54 7 72
15 40 17 115 20 124 4z m11701 -114 c152 -154 164 -193 48 -156 -100 31 -163
43 -202 39 -20 -3 -47 -1 -59 3 -21 8 -23 15 -23 84 0 72 1 76 36 115 20 22
45 40 56 40 13 0 68 -48 144 -125z m-12126 16 c0 -16 -62 -62 -79 -59 -25 5
-19 41 9 55 29 15 70 17 70 4z m10413 -231 c19 -16 40 -30 46 -30 6 0 30 12
53 28 37 24 50 27 122 25 66 -1 95 -7 156 -33 41 -17 87 -36 102 -41 26 -10
44 -34 30 -43 -14 -9 -276 -27 -302 -21 -36 8 -100 -18 -100 -40 0 -10 -30
-48 -67 -86 -52 -54 -73 -69 -95 -69 -42 0 -94 25 -113 54 -15 22 -16 31 -5
56 16 38 46 56 65 40 10 -9 11 -18 4 -38 -8 -19 -6 -29 5 -41 14 -14 19 -13
43 5 29 22 41 71 29 119 -6 22 -63 55 -98 55 -31 0 -86 -38 -103 -70 -20 -38
-20 -149 0 -177 8 -11 35 -30 61 -42 l46 -22 -6 -42 c-4 -22 -21 -66 -39 -97
-17 -30 -39 -77 -48 -105 -25 -78 -70 -71 -94 14 -7 24 -24 45 -54 66 -38 27
-51 30 -112 29 -53 0 -76 -5 -97 -21 -53 -40 -50 -135 4 -149 38 -10 57 6 68
54 15 66 72 70 114 9 18 -27 22 -47 22 -105 0 -68 -2 -74 -35 -111 -23 -25
-56 -46 -95 -61 l-60 -22 -69 22 c-111 35 -136 72 -146 210 -9 123 8 180 77
255 58 64 94 78 203 79 121 2 126 10 69 122 -34 67 -35 74 -24 108 6 20 24 44
38 53 15 9 38 26 52 38 14 12 52 28 85 35 33 7 65 14 70 15 6 2 45 4 87 4 72
1 80 -1 111 -29z m-5226 5 c7 -19 -24 -55 -47 -55 -23 0 -54 36 -47 55 4 10
20 15 47 15 27 0 43 -5 47 -15z m7560 -167 c114 -117 133 -148 133 -214 l0
-46 43 6 c58 9 81 -2 147 -66 72 -70 191 -167 242 -197 22 -13 55 -39 74 -58
27 -27 34 -42 34 -73 l0 -40 64 1 c71 1 99 -5 138 -32 14 -11 31 -19 37 -19 6
0 54 -20 106 -45 93 -44 121 -69 96 -85 -7 -4 -85 -5 -174 -2 -89 2 -255 4
-369 4 -114 -1 -210 3 -213 8 -3 4 8 33 24 62 60 116 47 210 -42 297 -43 41
-49 44 -114 48 -60 4 -74 1 -123 -24 -43 -22 -58 -36 -69 -65 -27 -75 36 -176
94 -150 32 15 32 37 0 58 -48 31 -21 104 43 121 13 3 49 0 79 -7 89 -22 127
-83 104 -169 -18 -67 -57 -111 -131 -147 -62 -30 -68 -31 -147 -24 -45 4 -89
13 -98 20 -9 8 -15 29 -15 59 0 59 -8 70 -52 78 -50 8 -70 -24 -66 -104 l3
-58 -58 -1 c-44 0 -60 4 -67 16 -10 18 10 69 54 138 14 23 31 66 37 94 6 29
17 60 25 68 7 9 18 37 24 63 12 55 31 365 25 405 -2 15 -6 62 -9 105 -5 59 -3
77 7 77 7 0 58 -46 114 -102z m-14332 -930 c8 -18 25 -61 39 -96 l24 -63 -26
-10 c-26 -10 -368 -7 -378 4 -10 10 77 74 161 117 47 25 93 53 102 62 26 29
61 23 78 -14z m19005 -89 l0 -70 -32 3 c-31 3 -33 5 -32 41 1 27 10 47 30 68
15 16 29 29 31 29 2 0 3 -32 3 -71z m-5833 4 c14 -19 47 -46 72 -61 l46 -27
-54 -3 c-43 -3 -58 1 -76 18 -18 17 -27 19 -48 11 -14 -5 -28 -15 -32 -20 -3
-7 -42 -11 -93 -10 l-87 0 57 29 c32 15 78 46 103 68 53 47 73 46 112 -5z"/>
<path d="M7550 3091 c-16 -5 -25 -14 -25 -26 0 -12 9 -22 25 -27 95 -26 117
-35 142 -56 29 -25 36 -60 16 -80 -18 -18 -33 -14 -48 13 -25 47 -90 20 -90
-37 0 -34 51 -78 90 -78 41 0 116 39 128 65 7 14 8 45 3 79 -6 47 -14 64 -46
96 -24 24 -51 42 -69 44 -72 11 -102 13 -126 7z"/>
<path d="M21342 3078 c-28 -28 0 -58 56 -58 38 0 47 22 18 49 -25 23 -56 27
-74 9z"/>
<path d="M6332 3050 c-34 -21 -55 -60 -46 -85 9 -22 72 -58 91 -51 25 10 43
-13 43 -56 0 -53 -13 -74 -60 -98 -63 -32 -150 -23 -196 21 -14 13 -30 19 -39
15 -15 -5 -15 -9 3 -39 32 -51 103 -82 182 -80 93 2 133 22 177 90 35 52 38
61 38 133 0 86 -15 118 -68 150 -41 25 -83 25 -125 0z"/>
<path d="M3090 3052 c-86 -4 -327 -41 -415 -63 -253 -65 -441 -122 -510 -155
-28 -13 -54 -24 -59 -24 -16 0 -191 -73 -257 -108 -38 -20 -74 -32 -83 -29
-24 9 -36 50 -36 118 0 55 -2 60 -27 71 -16 7 -48 29 -73 49 -68 55 -125 78
-221 89 -108 12 -235 -2 -298 -34 -96 -48 -111 -58 -132 -89 -12 -18 -35 -46
-50 -62 -42 -45 -82 -191 -69 -248 5 -23 10 -60 10 -82 1 -67 37 -124 100
-159 52 -29 60 -31 153 -29 92 3 101 5 148 35 135 89 146 327 17 394 -37 19
-74 18 -146 -7 -67 -23 -92 -51 -92 -106 0 -78 70 -97 105 -30 26 51 48 62 86
46 34 -13 79 -67 79 -92 0 -22 -29 -97 -50 -125 -17 -25 -107 -61 -153 -62
-15 0 -40 6 -55 14 -37 20 -119 105 -131 138 -26 69 43 302 107 359 16 15 67
38 114 53 75 24 97 27 189 23 141 -5 181 -21 263 -107 l66 -68 0 -80 c0 -102
11 -136 43 -126 12 3 33 15 47 24 23 16 198 90 214 90 3 0 61 26 128 58 166
80 189 88 293 112 50 11 106 27 125 36 20 8 60 19 90 24 30 4 92 18 138 29 46
12 99 21 118 21 20 0 43 4 53 9 18 10 162 29 284 38 54 4 77 9 77 19 0 7 -6
16 -12 21 -18 10 -111 19 -178 15z"/>
<path d="M2128 3034 c-4 -3 -84 -7 -179 -8 -154 -3 -173 -5 -186 -21 -20 -29
-16 -42 26 -87 l38 -42 44 16 c24 9 105 35 179 58 136 42 168 59 156 79 -7 11
-68 15 -78 5z"/>
<path d="M8395 2639 c-10 -23 -25 -44 -32 -46 -8 -3 -30 -30 -50 -60 -32 -49
-35 -59 -29 -100 3 -25 12 -53 19 -61 7 -10 12 -47 12 -103 0 -82 2 -90 26
-114 25 -26 82 -46 107 -38 24 9 11 33 -28 53 -51 26 -58 53 -29 120 l22 52
-42 38 c-39 36 -42 41 -35 77 4 28 19 50 54 83 54 51 65 76 51 114 -14 36 -23
33 -46 -15z"/>
<path d="M3205 2549 c-134 -61 -203 -135 -236 -256 -23 -85 -24 -183 -3 -224
12 -25 13 -33 2 -46 -19 -24 -147 -12 -220 20 -105 47 -155 87 -183 145 -34
73 -34 135 1 167 15 14 30 25 34 25 4 0 11 7 14 16 9 23 -21 54 -52 54 -81 0
-138 -107 -106 -200 35 -106 99 -202 147 -221 18 -7 43 -20 57 -29 43 -29 160
-51 295 -57 121 -5 132 -4 155 15 31 26 23 43 -40 87 -50 35 -64 72 -58 150 7
87 109 224 203 273 100 52 112 55 235 55 66 0 120 4 120 7 0 27 -119 60 -211
60 -53 0 -80 -7 -154 -41z"/>
<path d="M2908 2481 c-119 -96 -159 -142 -165 -189 -6 -48 11 -62 56 -46 30
11 91 98 91 131 0 15 22 44 60 82 33 33 60 64 60 70 0 24 -32 8 -102 -48z"/>
<path d="M5115 1498 c4 -29 2 -64 -3 -78 -14 -39 -5 -50 43 -50 60 0 95 15 95
40 0 24 -105 140 -127 140 -12 0 -13 -11 -8 -52z"/>
<path d="M11928 1453 c-13 -16 -50 -62 -81 -103 -84 -112 -394 -409 -480 -460
-23 -14 -56 -40 -74 -57 -17 -18 -38 -33 -47 -33 -8 0 -32 -15 -52 -32 -21
-18 -60 -47 -88 -65 -137 -86 -236 -143 -250 -143 -8 0 -28 -11 -44 -25 -34
-29 -141 -86 -209 -111 -26 -10 -57 -23 -68 -30 -11 -7 -54 -19 -95 -27 -41
-9 -88 -23 -105 -31 -16 -9 -37 -16 -45 -16 -8 0 -37 -14 -65 -30 -27 -16 -69
-38 -92 -49 -24 -11 -43 -25 -43 -31 0 -18 32 -24 64 -11 114 47 140 53 185
47 25 -3 89 -11 141 -16 52 -6 124 -18 160 -26 36 -9 94 -20 130 -24 36 -5 92
-13 125 -19 90 -16 392 -29 455 -21 195 27 271 60 377 164 l76 74 -8 69 c-13
124 -77 197 -186 209 -55 6 -57 5 -98 -31 -29 -27 -41 -45 -41 -65 0 -48 9
-60 46 -60 29 0 38 6 55 35 26 43 55 46 98 9 34 -28 39 -60 21 -125 -13 -48
-42 -72 -128 -109 -65 -28 -79 -30 -134 -24 -42 5 -66 13 -77 26 -34 41 -46
40 -103 -5 -29 -24 -69 -50 -88 -58 -51 -21 -225 -18 -325 5 -44 11 -107 19
-140 17 -40 -1 -67 3 -80 13 -20 14 -19 15 9 44 15 17 39 33 53 37 13 3 42 17
63 31 40 27 47 31 172 98 82 44 139 50 235 26 71 -17 83 -11 83 45 0 51 42
145 82 182 31 29 130 77 190 91 26 7 75 11 108 11 36 -1 66 3 73 10 7 7 11 34
10 62 -1 30 5 71 17 102 22 59 85 135 115 139 18 3 21 -4 26 -67 16 -179 23
-221 39 -245 9 -14 20 -37 24 -52 3 -15 23 -55 44 -89 20 -33 52 -86 70 -117
18 -30 47 -72 65 -92 18 -20 51 -59 74 -86 23 -27 52 -61 65 -75 13 -15 37
-34 53 -43 17 -9 37 -20 45 -26 27 -17 204 -87 263 -104 115 -34 165 -40 364
-40 216 -1 231 2 219 47 -8 33 -43 40 -100 21 -34 -12 -67 -15 -119 -10 -40 3
-107 8 -151 11 -43 4 -106 15 -140 26 -33 10 -68 19 -77 19 -24 0 -137 39
-205 71 -72 33 -202 154 -257 239 -20 30 -45 66 -55 80 -11 14 -23 36 -27 50
-4 14 -14 36 -23 50 -21 31 -36 72 -68 178 -20 68 -25 106 -26 215 -1 75 3
146 9 163 6 16 16 49 23 74 7 25 17 57 22 72 19 52 -13 64 -54 21z"/>
<path d="M15017 943 c-72 -31 -101 -51 -162 -110 -41 -40 -86 -94 -101 -120
-15 -26 -33 -55 -41 -64 -7 -8 -28 -47 -47 -85 -19 -38 -49 -92 -68 -119 -34
-52 -137 -154 -173 -172 -33 -17 -137 -51 -177 -57 -52 -9 -236 10 -283 29
-126 51 -141 62 -208 157 -59 83 -81 147 -72 215 8 69 -5 93 -50 93 -48 0 -75
-29 -75 -79 0 -41 -10 -55 -50 -64 -42 -11 -99 -66 -130 -128 -35 -68 -40
-146 -15 -221 23 -66 57 -93 136 -108 61 -11 70 -10 107 9 73 37 90 112 41
176 -23 29 -55 31 -72 4 -11 -17 -7 -31 18 -65 14 -19 14 -23 -5 -46 -27 -34
-66 -40 -117 -18 -51 23 -62 42 -64 116 -2 100 9 133 63 187 41 41 53 48 81
45 24 -2 37 -11 52 -36 11 -19 40 -57 65 -86 110 -126 110 -127 110 -172 0
-50 17 -61 61 -38 33 17 48 14 129 -25 50 -24 65 -26 170 -25 130 1 226 22
281 59 19 14 41 25 47 25 7 0 50 36 96 80 88 84 102 106 221 338 55 108 77
142 105 159 19 12 54 36 78 53 61 44 178 79 250 75 131 -8 236 -54 281 -124
124 -193 81 -408 -93 -458 -55 -15 -58 -15 -82 3 -40 30 -88 125 -80 158 8 32
48 76 70 76 15 0 20 -5 55 -50 17 -22 21 -23 45 -12 24 11 27 17 24 54 -4 54
-37 80 -105 81 -99 2 -154 -62 -161 -184 -3 -46 1 -75 11 -95 54 -104 177
-133 298 -71 53 27 71 43 106 96 l43 64 0 104 c0 101 -1 108 -35 172 -43 82
-131 173 -200 206 -44 22 -70 27 -171 31 l-119 5 -88 -38z"/>
<path d="M11770 743 c0 -30 48 -98 83 -117 22 -11 45 -36 61 -67 15 -26 31
-51 36 -54 14 -8 12 -106 -1 -161 -8 -30 -29 -64 -66 -105 -64 -72 -61 -92 10
-70 106 33 237 21 339 -30 33 -17 65 -28 71 -26 7 3 -8 24 -33 48 -47 45 -84
59 -202 75 -62 9 -72 22 -64 81 19 141 -1 231 -65 298 -16 17 -52 56 -81 88
-50 56 -88 74 -88 40z"/>
<path d="M21620 556 c-9 -12 -8 -22 5 -49 10 -22 15 -53 13 -88 -2 -44 0 -54
14 -57 12 -2 22 6 29 25 6 15 15 36 20 45 5 10 9 35 9 56 0 60 -59 105 -90 68z"/>
<path d="M21035 415 c-77 -51 -125 -96 -125 -115 0 -22 31 -50 56 -50 11 0 44
18 74 41 95 69 92 66 84 107 -11 64 -16 65 -89 17z"/>
<path d="M20655 394 c-14 -15 -25 -31 -25 -36 0 -13 86 -49 102 -43 21 8 40
44 33 64 -6 19 -45 41 -71 41 -8 0 -26 -12 -39 -26z"/>
<path d="M4757 313 c-4 -3 -7 -17 -7 -30 0 -12 -5 -43 -12 -67 -18 -68 -6 -76
106 -75 124 1 273 12 282 21 15 16 -19 36 -92 53 -41 10 -115 37 -165 61 -92
46 -101 49 -112 37z"/>
<path d="M6841 236 c-7 -8 -11 -30 -9 -48 3 -28 10 -37 49 -57 45 -24 48 -24
73 -8 35 23 33 38 -12 86 -40 43 -79 54 -101 27z"/>
<path d="M3973 220 c-31 -13 -42 -74 -18 -100 20 -23 39 -25 82 -10 68 24 62
113 -7 117 -19 1 -45 -2 -57 -7z"/>
<path d="M19506 1864 c-10 -27 -7 -89 6 -102 37 -37 93 9 82 67 -10 46 -74 72
-88 35z"/>
<path d="M18294 952 c-34 -30 -58 -42 -131 -60 -50 -12 -100 -22 -112 -22 -36
0 -18 -24 25 -33 51 -11 138 -2 247 25 77 20 90 21 110 8 12 -8 45 -27 73 -42
62 -34 134 -109 134 -140 0 -51 9 -53 162 -50 83 2 164 -1 193 -8 64 -15 172
-15 207 -1 15 6 35 8 43 5 8 -4 27 -3 43 1 l27 7 -25 13 c-14 8 -41 15 -60 15
-19 0 -60 7 -90 15 -30 8 -75 15 -98 15 -68 0 -260 52 -317 86 -11 6 -42 17
-70 24 -27 8 -67 24 -87 37 -21 13 -40 23 -44 23 -3 0 -39 27 -80 60 -41 33
-82 60 -91 60 -10 -1 -37 -18 -59 -38z"/>
<path d="M21261 2074 c-12 -15 -21 -35 -21 -45 0 -22 36 -49 65 -49 19 0 65
33 65 47 0 8 -72 73 -81 73 -4 0 -17 -12 -28 -26z"/>
</g>
</svg>
