<?xml version="1.0" standalone="no"?>
<!DOCTYPE svg PUBLIC "-//W3C//DTD SVG 20010904//EN"
 "http://www.w3.org/TR/2001/REC-SVG-20010904/DTD/svg10.dtd">
<svg version="1.0" xmlns="http://www.w3.org/2000/svg"
 width="1947.000000pt" height="628.000000pt" viewBox="0 0 1947.000000 628.000000"
 preserveAspectRatio="xMidYMid meet">
<metadata>
Created by potrace 1.13, written by Peter Selinger 2001-2015
</metadata>
<g transform="translate(0.000000,628.000000) scale(0.100000,-0.100000)"
fill="#000000" stroke="none">
<path d="M19360 6226 c-22 -44 -29 -51 -57 -54 -20 -2 -33 -9 -33 -17 0 -8
-16 -22 -35 -31 -20 -9 -40 -25 -45 -34 -6 -10 -23 -21 -40 -25 -19 -4 -30
-13 -30 -23 0 -16 -83 -62 -110 -62 -6 0 -22 -11 -36 -25 -14 -14 -31 -25 -39
-25 -8 0 -15 -7 -15 -15 0 -8 -9 -15 -20 -15 -11 0 -36 -9 -56 -21 -20 -11
-59 -23 -86 -26 -28 -3 -52 -12 -55 -19 -3 -8 -11 -14 -19 -14 -8 0 -14 -4
-14 -10 0 -5 -11 -10 -25 -10 -14 0 -25 -4 -25 -9 0 -4 -16 -11 -34 -14 -19
-3 -50 -12 -68 -21 -18 -8 -51 -17 -73 -20 -88 -12 -154 -24 -229 -45 -44 -11
-99 -21 -122 -21 -32 0 -46 -5 -53 -18 -6 -12 -30 -22 -70 -30 -34 -6 -68 -18
-77 -26 -8 -9 -22 -16 -30 -16 -8 0 -14 -4 -14 -10 0 -5 -12 -13 -27 -16 -16
-4 -52 -31 -81 -61 -43 -43 -58 -53 -75 -47 -12 4 -26 13 -32 20 -18 24 -150
60 -160 44 -3 -5 -20 -10 -36 -10 -23 0 -46 -16 -105 -72 -44 -43 -73 -78 -72
-88 2 -9 -2 -23 -8 -31 -20 -24 -34 -151 -20 -181 7 -16 2 -18 -42 -18 -32 0
-56 6 -66 15 -20 21 -59 19 -112 -5 -24 -11 -55 -25 -69 -30 -14 -5 -25 -16
-25 -25 0 -8 -11 -17 -25 -21 -14 -3 -25 -10 -25 -15 0 -5 -6 -9 -14 -9 -8 0
-17 -15 -20 -34 -4 -19 -13 -36 -20 -39 -7 -3 -17 -27 -21 -54 -4 -26 -14 -60
-23 -75 -13 -22 -14 -32 -4 -54 7 -14 15 -48 17 -75 6 -57 21 -99 35 -99 5 0
10 -9 10 -19 0 -12 9 -21 25 -25 14 -4 24 -10 24 -14 -3 -20 3 -30 24 -36 25
-6 87 -60 87 -75 0 -13 -15 -15 -90 -12 -67 2 -101 -5 -97 -22 3 -16 -50 -22
-69 -7 -10 9 -52 10 -161 5 -82 -4 -258 -9 -393 -10 -135 -1 -409 -6 -610 -10
-201 -4 -374 -6 -385 -5 -44 5 -716 1 -955 -6 -298 -8 -356 -7 -381 9 -15 9
-24 9 -41 -3 -20 -12 -147 -14 -848 -15 -454 -1 -833 -5 -843 -9 -10 -5 -23
-3 -32 4 -8 7 -26 9 -42 6 -28 -6 -1081 -19 -1178 -14 -58 3 -1911 2 -2365 0
-168 -1 -473 -1 -678 1 -205 2 -375 1 -377 -2 -2 -5 -696 -4 -830 1 -99 3
-365 -4 -365 -10 0 -4 -145 -7 -323 -7 -188 0 -325 -4 -329 -9 -4 -6 -12 -5
-21 2 -10 8 -93 12 -288 12 -151 0 -290 1 -309 1 -61 1 -423 1 -470 0 -25 -1
-162 -3 -305 -6 -143 -2 -292 -6 -332 -9 -50 -3 -73 -1 -77 7 -3 9 -8 8 -16
-3 -9 -11 -13 -12 -17 -2 -6 14 -30 16 -35 3 -3 -11 -239 -16 -553 -12 -110 1
-217 1 -237 -1 -21 -2 -38 0 -38 4 0 5 -7 8 -15 8 -8 0 -15 -3 -15 -7 0 -6
-126 -8 -307 -3 -7 0 -13 5 -13 11 0 15 62 69 88 75 20 6 26 16 23 36 0 4 10
10 24 14 16 4 25 13 25 25 0 10 5 19 10 19 14 0 29 42 35 99 2 27 10 61 17 75
10 22 9 32 -4 54 -9 15 -19 49 -23 75 -4 27 -14 51 -21 54 -7 3 -16 20 -20 39
-3 19 -12 34 -20 34 -8 0 -14 4 -14 9 0 5 -11 12 -25 15 -14 4 -25 13 -25 21
0 9 -11 20 -25 25 -14 5 -45 19 -69 30 -53 24 -102 26 -122 5 -9 -9 -34 -15
-61 -15 -39 0 -44 2 -38 18 14 32 17 70 6 76 -6 4 -11 24 -11 45 0 22 -6 44
-15 51 -9 7 -13 20 -10 30 4 12 -18 38 -70 88 -58 56 -81 72 -104 72 -16 0
-33 5 -36 11 -11 17 -150 -20 -170 -45 -25 -31 -45 -26 -98 28 -28 29 -64 56
-79 60 -16 3 -28 11 -28 16 0 6 -6 10 -14 10 -8 0 -21 6 -29 14 -14 14 -79 38
-140 50 -15 4 -27 13 -27 21 0 11 -12 15 -48 15 -27 0 -84 10 -128 21 -75 21
-141 33 -229 45 -22 3 -55 12 -73 20 -18 9 -49 18 -68 21 -18 3 -34 10 -34 14
0 5 -11 9 -25 9 -14 0 -25 5 -25 10 0 6 -7 10 -15 10 -8 0 -15 4 -15 9 0 4
-25 11 -55 15 -30 3 -71 15 -90 26 -20 11 -44 20 -55 20 -11 0 -20 7 -20 15 0
8 -7 15 -15 15 -8 0 -25 11 -39 25 -14 14 -30 25 -36 25 -22 0 -110 45 -110
57 0 6 -14 14 -30 18 -17 4 -34 15 -40 25 -5 9 -25 25 -45 34 -19 9 -35 23
-35 31 0 8 -13 15 -31 17 -19 2 -37 11 -43 23 -6 10 -17 25 -23 33 -7 7 -13
20 -13 29 0 10 -6 13 -16 9 -9 -3 -20 -6 -25 -6 -18 0 -9 -30 26 -84 19 -30
39 -57 45 -61 5 -3 10 -15 10 -25 0 -24 46 -74 59 -65 6 3 11 -1 11 -9 0 -9 5
-16 10 -16 6 0 10 -4 10 -10 0 -5 8 -19 18 -29 9 -11 22 -26 29 -33 7 -7 18
-18 25 -25 26 -24 38 -42 38 -58 0 -8 7 -15 15 -15 8 0 15 -9 15 -20 0 -11 3
-20 8 -20 4 0 18 -18 32 -40 14 -22 29 -40 35 -40 11 0 55 -91 55 -115 0 -8 5
-15 11 -15 20 0 69 -67 69 -95 0 -8 5 -15 10 -15 6 0 10 -7 10 -15 0 -8 5 -15
10 -15 6 0 10 -7 10 -15 0 -8 6 -15 14 -15 9 0 19 -19 26 -50 6 -27 18 -54 26
-61 8 -6 14 -19 14 -28 0 -9 7 -25 15 -35 8 -11 13 -28 9 -38 -3 -11 1 -20 10
-24 9 -3 16 -18 16 -33 0 -14 7 -35 15 -45 8 -11 15 -28 15 -38 0 -61 177
-268 229 -268 11 0 23 -5 26 -10 3 -5 16 -10 29 -10 12 0 26 -3 30 -7 4 -4 35
-9 68 -10 34 -2 63 -5 66 -8 6 -6 -14 -80 -32 -115 -20 -41 -11 -159 19 -247
22 -64 36 -87 77 -126 28 -26 58 -47 67 -47 10 0 21 -3 24 -7 12 -12 221 -11
229 1 12 18 40 -6 54 -47 7 -20 22 -49 34 -65 13 -17 20 -35 16 -40 -6 -10 48
-72 63 -72 4 0 14 -11 21 -25 13 -25 60 -55 85 -55 7 0 18 -6 24 -14 7 -8 38
-18 69 -22 31 -3 62 -11 69 -16 8 -7 34 -4 75 7 35 9 73 19 86 22 33 8 82 58
82 84 0 14 4 19 9 13 15 -16 31 -177 25 -241 -4 -34 -2 -110 4 -170 20 -186
24 -399 27 -1388 1 -528 6 -986 10 -1017 6 -48 5 -58 -8 -58 -8 0 -20 7 -27
15 -7 8 -18 15 -25 15 -17 0 -75 33 -75 43 0 4 -24 7 -52 7 -29 0 -73 5 -98
11 -31 7 -46 7 -48 0 -2 -6 -10 -11 -17 -11 -7 0 -15 -7 -19 -15 -3 -8 -15
-15 -26 -15 -11 0 -20 -4 -20 -10 0 -5 -5 -10 -11 -10 -18 0 -49 -41 -49 -65
0 -11 -7 -30 -15 -41 -17 -22 -21 -169 -5 -179 6 -3 10 -14 10 -23 0 -10 10
-22 22 -27 33 -14 34 -48 4 -69 -15 -9 -26 -22 -26 -30 0 -7 -9 -21 -19 -30
-11 -10 -23 -31 -26 -47 -4 -16 -11 -29 -17 -29 -17 0 -37 -33 -38 -61 0 -14
-9 -34 -20 -44 -11 -10 -20 -24 -20 -32 0 -7 -4 -13 -8 -13 -5 0 -9 -14 -10
-31 0 -17 -5 -36 -11 -43 -12 -14 -3 -156 10 -156 5 0 9 -7 9 -16 0 -14 7 -15
42 -10 23 4 45 11 48 15 3 5 34 17 70 27 36 9 78 28 93 40 36 30 89 40 127 24
17 -7 30 -16 30 -21 0 -5 8 -9 18 -9 10 0 22 -4 27 -9 11 -10 170 -31 233 -31
23 0 42 4 42 9 0 5 25 15 55 21 44 9 55 15 55 31 0 12 10 23 25 29 14 5 25 16
25 25 0 8 4 15 9 15 21 0 38 193 20 227 -19 36 -2 44 97 48 49 1 104 6 121 10
21 5 38 3 48 -5 10 -8 27 -10 52 -4 75 15 594 18 603 3 4 -5 30 -4 64 3 47 10
59 10 65 -1 6 -9 18 -11 38 -7 17 4 159 9 316 11 157 1 291 6 298 10 6 4 15 2
19 -5 5 -8 17 -9 41 -3 38 10 240 8 309 -3 62 -11 362 -4 377 7 7 6 12 6 15 0
2 -6 76 -7 203 -2 170 6 710 6 710 0 0 -7 192 -6 206 2 12 6 20 5 25 -2 5 -8
78 -10 260 -7 176 4 254 2 257 -5 2 -8 18 -8 53 0 37 9 68 9 122 1 54 -9 77
-9 94 0 24 13 224 12 245 -1 6 -4 34 -2 62 4 31 6 67 7 93 2 24 -4 370 -8 770
-8 401 0 724 -4 721 -9 -3 -4 5 -5 18 -1 21 7 174 9 474 6 50 0 164 0 255 0
91 0 244 0 340 0 96 0 232 1 303 2 70 1 127 -2 127 -6 0 -5 19 -6 43 -2 65 9
466 13 554 5 47 -4 95 -3 121 4 33 8 45 8 51 -2 7 -12 19 -12 310 1 65 3 98 1
90 -5 -9 -5 0 -6 24 -2 21 3 86 6 145 6 278 0 394 0 480 2 52 0 96 -2 99 -6 6
-12 81 -10 88 2 8 12 55 13 55 1 0 -5 156 -6 358 -3 196 3 416 4 487 2 72 -1
155 -2 185 -3 53 0 938 2 1010 3 404 5 1130 3 1130 -4 0 -5 43 -6 98 -2 120 9
902 16 958 9 l41 -5 6 -76 c3 -42 11 -78 16 -80 6 -2 11 -8 11 -13 0 -16 40
-60 90 -99 18 -14 37 -30 44 -36 6 -5 20 -14 31 -18 28 -12 205 -16 205 -5 0
5 11 9 25 9 14 0 25 6 25 13 0 6 14 18 30 25 17 8 30 20 30 27 0 15 50 30 59
17 3 -5 29 -17 56 -27 28 -11 53 -25 58 -32 4 -7 23 -15 42 -19 19 -3 35 -10
35 -15 0 -5 9 -9 20 -9 11 0 20 -4 20 -10 0 -5 16 -10 35 -10 19 0 35 -4 35
-10 0 -5 12 -10 28 -10 15 0 36 -7 46 -15 11 -8 34 -15 52 -15 18 0 34 -4 36
-9 2 -4 31 -11 66 -15 l62 -7 0 44 c0 33 -6 50 -24 68 -13 13 -28 40 -35 61
-7 20 -18 39 -26 42 -8 3 -15 11 -15 18 0 8 -20 40 -45 73 -25 33 -45 65 -45
72 0 16 -80 93 -97 93 -7 0 -13 5 -13 11 0 7 -12 24 -28 38 -25 24 -32 61 -12
61 5 0 8 31 7 69 -2 50 -7 74 -20 88 -9 11 -17 26 -17 35 0 8 -9 23 -20 34
-12 10 -28 27 -38 37 -9 9 -24 17 -32 17 -9 0 -20 4 -26 9 -9 9 -76 25 -166
40 -25 4 -53 13 -61 19 -18 15 -32 279 -15 299 6 7 7 13 2 13 -5 0 -10 75 -11
168 -1 92 -4 235 -7 317 -5 155 -18 955 -20 1288 0 103 -3 187 -6 187 -3 0 -6
87 -7 193 -2 336 -5 412 -15 424 -13 16 -6 86 10 91 7 2 12 -5 12 -16 0 -52
26 -69 152 -97 54 -13 81 -15 90 -8 7 6 39 14 70 17 32 4 60 12 63 17 4 5 17
9 31 9 13 0 24 5 24 10 0 6 9 10 19 10 12 0 25 12 33 30 7 16 19 30 25 30 7 0
13 5 13 10 0 6 7 10 15 10 8 0 15 7 15 15 0 8 5 15 10 15 6 0 10 13 10 29 0
16 6 31 14 34 8 3 21 25 28 49 7 24 18 49 24 56 14 13 34 16 34 4 0 -8 113
-32 150 -32 11 0 30 5 43 12 47 24 57 28 72 28 8 0 15 5 15 10 0 6 5 10 11 10
26 0 78 71 103 144 31 86 40 204 20 246 -16 34 -34 93 -34 113 0 17 41 23 113
18 15 -1 27 3 27 8 0 6 14 11 30 11 17 0 30 5 30 10 0 6 12 10 26 10 17 0 39
13 64 38 20 20 45 42 56 48 10 6 28 28 39 50 11 21 23 41 28 42 4 2 7 8 7 14
0 5 7 16 15 24 8 9 15 28 15 43 0 15 7 36 15 47 8 10 15 34 15 52 0 20 5 32
13 32 9 0 14 12 14 32 0 18 5 34 11 36 7 2 12 12 12 22 0 10 7 25 15 33 8 8
19 35 26 61 7 27 17 46 25 46 8 0 14 7 14 15 0 8 5 15 10 15 6 0 10 7 10 15 0
8 5 15 10 15 6 0 10 6 10 13 0 24 30 75 55 94 13 10 26 29 28 43 7 39 30 90
42 90 6 0 21 18 35 40 14 22 28 40 32 40 5 0 8 9 8 20 0 10 6 23 13 27 7 4 21
25 32 46 11 20 27 39 36 42 9 3 21 17 27 30 6 14 16 25 22 25 5 0 10 7 10 15
0 8 5 15 10 15 6 0 10 7 10 16 0 8 5 12 11 9 15 -10 59 42 59 70 0 13 5 27 10
30 19 12 81 117 78 132 -2 9 -12 19 -23 23 -17 6 -24 -1 -45 -44z m-430 -504
c0 -4 -11 -19 -25 -34 -14 -15 -25 -32 -25 -38 0 -5 -4 -10 -10 -10 -5 0 -10
-7 -10 -15 0 -8 -9 -24 -20 -35 -11 -11 -23 -32 -26 -47 -4 -15 -16 -36 -26
-48 -11 -11 -22 -32 -25 -47 -3 -16 -9 -28 -14 -28 -5 0 -12 -18 -15 -41 -4
-22 -17 -53 -30 -68 -16 -19 -20 -31 -13 -38 7 -7 7 -24 -1 -53 -8 -31 -14
-39 -20 -29 -7 11 -10 10 -16 -6 -8 -21 -17 -33 -46 -65 -10 -11 -20 -31 -24
-45 -3 -14 -12 -25 -20 -25 -8 0 -14 -7 -14 -15 0 -8 -4 -15 -10 -15 -5 0 -10
-6 -10 -13 0 -8 -22 -35 -49 -60 -36 -34 -58 -47 -79 -47 -17 0 -32 -6 -36
-15 -3 -9 -18 -15 -36 -15 -16 0 -30 -4 -30 -8 0 -5 -29 -15 -65 -22 -75 -16
-75 -16 -96 -55 -16 -29 -16 -31 11 -59 39 -40 75 -176 51 -190 -5 -3 -12 -33
-16 -65 -4 -39 -13 -65 -26 -77 -10 -9 -19 -27 -19 -39 0 -11 -15 -35 -32 -51
-30 -28 -40 -30 -115 -33 -69 -2 -84 0 -101 17 -10 10 -26 21 -35 25 -9 3 -17
13 -17 22 0 20 -56 20 -76 1 -8 -8 -14 -32 -14 -53 0 -27 -7 -46 -25 -65 -14
-15 -25 -32 -25 -38 0 -5 -4 -10 -10 -10 -5 0 -10 -8 -10 -19 0 -10 -7 -24
-15 -31 -8 -7 -15 -19 -15 -26 0 -8 -5 -14 -11 -14 -5 0 -24 -13 -42 -30 -18
-16 -35 -30 -39 -30 -5 0 -8 -7 -8 -15 0 -8 -5 -15 -11 -15 -6 0 -17 -7 -25
-15 -9 -8 -24 -15 -34 -15 -10 0 -21 -7 -24 -16 -5 -14 -17 -16 -66 -11 -56 5
-90 22 -90 45 0 6 -3 12 -7 14 -26 11 -70 88 -75 128 -3 25 -7 50 -8 55 -1 6
-2 27 -1 48 1 30 6 40 21 44 11 3 20 9 20 14 0 5 14 9 30 9 17 0 30 5 30 11 0
6 21 9 55 7 36 -2 55 -7 55 -15 0 -7 5 -13 10 -13 6 0 10 -7 10 -16 0 -22 29
-43 58 -44 20 0 22 5 22 55 0 40 4 57 15 61 8 4 15 13 15 21 0 8 7 30 16 49
14 29 22 34 49 34 18 0 35 4 37 10 2 5 15 11 31 12 15 1 27 6 27 10 0 4 14 8
30 8 20 0 30 5 30 15 0 9 13 24 30 33 19 11 30 25 30 40 0 29 23 102 32 102 4
0 10 16 14 35 5 29 12 37 35 42 16 3 29 9 29 14 0 5 14 9 30 9 17 0 30 5 30
10 0 6 8 10 19 10 26 0 47 51 32 78 -15 28 -14 52 3 52 8 0 16 7 20 15 3 8 15
15 26 15 12 0 20 7 20 16 0 10 5 14 15 10 10 -4 20 3 27 19 6 14 16 25 23 25
6 0 17 16 24 35 8 23 19 35 31 35 11 0 20 10 24 25 4 16 13 25 26 25 15 0 20
7 20 25 0 16 -6 25 -15 25 -8 0 -15 5 -15 10 0 6 -16 10 -35 10 -24 0 -35 -5
-35 -15 0 -8 -7 -15 -15 -15 -9 0 -18 -7 -21 -15 -4 -8 -15 -15 -25 -15 -10 0
-19 -4 -19 -10 0 -5 -6 -10 -13 -10 -8 0 -40 -25 -73 -55 -32 -30 -63 -55 -67
-55 -5 0 -22 14 -38 31 -33 36 -53 29 -64 -22 -4 -16 -22 -45 -41 -63 -19 -18
-34 -38 -34 -45 0 -6 -4 -11 -9 -11 -5 0 -11 -10 -13 -22 -3 -21 -7 -22 -93
-19 l-90 2 -54 -51 c-48 -45 -54 -56 -57 -97 -3 -55 -25 -83 -48 -64 -8 7 -20
9 -27 6 -30 -19 -179 -6 -179 15 0 22 -30 8 -36 -16 -7 -25 16 -53 44 -54 6 0
12 -4 12 -9 0 -5 15 -12 34 -15 64 -12 76 -69 21 -95 -16 -8 -31 -18 -33 -23
-2 -4 -9 -8 -15 -8 -7 0 -18 -9 -25 -21 -9 -15 -19 -18 -34 -13 -23 7 -48 28
-48 39 0 15 -30 34 -44 29 -10 -4 -26 4 -43 20 -14 14 -34 26 -44 26 -18 0
-57 29 -100 73 -21 22 -29 61 -34 168 -5 78 -4 80 25 109 17 16 30 34 30 40 0
5 7 10 15 10 8 0 15 7 15 15 0 8 9 15 20 15 11 0 20 5 20 10 0 6 20 10 45 10
25 0 45 5 45 10 0 6 6 10 13 10 22 0 67 -24 67 -36 0 -14 60 -44 87 -44 10 0
25 -6 32 -12 11 -10 14 -10 18 0 3 6 11 12 19 12 10 0 14 13 14 48 0 47 -18
102 -32 102 -5 0 -8 9 -8 20 0 11 -5 20 -11 20 -7 0 -9 11 -6 29 9 44 58 141
72 141 6 0 20 9 30 20 10 11 24 20 32 20 7 0 16 7 19 15 4 8 15 15 25 15 10 0
19 7 19 15 0 10 10 15 30 15 18 0 33 -6 36 -15 4 -10 20 -15 50 -15 24 0 44
-5 44 -11 0 -5 4 -8 9 -5 9 6 21 -39 21 -79 0 -24 26 -40 78 -49 24 -4 32 -2
32 9 0 9 9 15 23 15 19 0 26 8 36 38 11 37 62 102 80 102 6 0 16 12 23 28 7
15 23 31 36 37 12 5 22 15 22 21 0 6 20 17 45 23 25 6 45 16 45 21 0 6 9 10
20 10 11 0 20 5 20 10 0 6 10 10 23 10 26 0 77 21 77 33 0 4 18 7 40 7 22 0
40 5 40 10 0 6 16 10 35 10 19 0 35 4 35 8 0 4 44 13 98 20 53 7 99 17 100 22
2 6 12 10 23 10 10 0 19 7 19 15 0 12 10 16 43 15 50 -2 139 14 164 29 21 12
93 15 93 3z m-18234 -121 c22 -12 68 -22 120 -26 46 -4 84 -11 84 -15 0 -18
66 -40 149 -51 47 -7 90 -16 95 -20 6 -5 23 -9 38 -9 15 0 28 -4 28 -10 0 -5
18 -10 40 -10 22 0 40 -3 40 -7 0 -12 51 -33 77 -33 13 0 23 -4 23 -10 0 -5 9
-10 20 -10 11 0 20 -4 20 -10 0 -5 20 -15 45 -21 25 -6 45 -17 45 -23 0 -6 10
-16 23 -21 12 -6 26 -20 32 -32 5 -13 18 -23 27 -23 10 0 18 -5 18 -11 0 -5
13 -24 30 -42 16 -17 32 -44 36 -59 4 -21 11 -28 30 -28 14 0 24 -6 24 -14 0
-11 9 -13 38 -9 56 9 82 30 82 67 0 50 24 76 71 76 26 0 42 5 45 15 4 9 19 15
35 15 19 0 29 -5 29 -15 0 -8 9 -15 19 -15 10 0 21 -7 25 -15 3 -8 12 -15 19
-15 8 0 22 -9 32 -20 10 -11 24 -20 30 -20 14 0 63 -97 72 -141 3 -18 1 -29
-6 -29 -6 0 -11 -9 -11 -20 0 -11 -3 -20 -7 -20 -15 0 -33 -55 -33 -102 0 -35
4 -48 14 -48 8 0 16 -6 19 -12 3 -10 9 -10 26 0 11 6 28 12 37 12 25 0 84 31
84 44 0 17 63 43 68 28 2 -7 23 -12 48 -12 24 0 44 -4 44 -10 0 -5 9 -10 20
-10 11 0 20 -7 20 -15 0 -8 7 -15 15 -15 8 0 15 -5 15 -10 0 -6 13 -24 30 -40
29 -29 30 -31 25 -109 -5 -107 -13 -146 -34 -168 -43 -44 -82 -73 -100 -73
-10 0 -30 -11 -43 -25 -16 -16 -32 -23 -42 -19 -14 5 -46 -16 -46 -31 0 -10
-23 -30 -43 -38 -11 -4 -21 0 -29 13 -7 11 -20 20 -28 21 -35 1 -75 35 -78 66
-3 29 1 33 72 69 74 37 82 46 70 78 -7 17 -44 22 -44 6 0 -17 -65 -27 -130
-19 -38 4 -70 4 -76 -2 -18 -15 -35 14 -39 66 -3 40 -10 52 -57 96 l-53 50
-90 -2 c-85 -2 -90 -1 -93 20 -2 11 -8 21 -13 21 -5 0 -9 5 -9 11 0 7 -15 27
-34 45 -18 18 -36 45 -40 59 -7 27 -28 55 -42 55 -4 0 -17 -11 -30 -25 -30
-33 -48 -32 -84 5 -16 17 -34 30 -40 30 -5 0 -15 9 -22 20 -7 11 -21 20 -30
20 -10 0 -18 5 -18 10 0 6 -9 10 -19 10 -10 0 -21 7 -25 15 -3 8 -12 15 -21
15 -8 0 -15 7 -15 15 0 20 -44 20 -75 -1 -30 -20 -34 -54 -5 -54 13 0 22 -9
26 -25 4 -15 13 -25 24 -25 12 0 23 -12 31 -35 7 -19 18 -35 24 -35 7 0 17
-11 23 -25 7 -16 17 -23 27 -19 10 4 15 0 15 -10 0 -9 8 -16 20 -16 11 0 23
-7 26 -15 4 -8 13 -15 21 -15 9 0 13 -8 11 -22 -2 -18 -11 -24 -37 -28 -23 -3
-36 -12 -42 -27 -11 -31 29 -58 82 -56 22 1 39 -2 39 -8 0 -5 14 -9 30 -9 17
0 30 -4 30 -9 0 -5 13 -11 29 -14 23 -5 30 -13 35 -42 4 -19 10 -35 14 -35 9
0 32 -72 32 -100 0 -12 12 -26 30 -35 17 -9 30 -22 30 -31 0 -8 6 -16 13 -18
6 -3 33 -10 60 -17 26 -7 47 -17 47 -21 0 -4 15 -8 34 -8 29 0 36 -5 50 -34 9
-19 16 -41 16 -49 0 -8 7 -17 15 -21 11 -4 15 -20 15 -56 0 -37 4 -52 16 -57
21 -8 64 17 75 44 4 12 17 27 28 32 25 14 91 14 91 1 0 -5 14 -10 30 -10 17 0
30 -4 30 -9 0 -5 8 -11 19 -14 22 -5 33 -76 19 -115 -4 -13 -8 -37 -8 -53 0
-35 -90 -154 -124 -163 -42 -11 -104 -6 -110 9 -3 8 -13 15 -23 15 -10 0 -47
27 -83 60 -36 33 -71 60 -77 60 -7 0 -13 6 -13 14 0 7 -7 19 -15 26 -8 7 -15
21 -15 31 0 11 -4 19 -10 19 -5 0 -10 5 -10 10 0 6 -11 23 -25 38 -19 20 -25
38 -25 70 0 50 -17 72 -55 72 -18 0 -29 -6 -32 -19 -3 -11 -22 -32 -43 -46
-35 -24 -46 -26 -117 -24 -71 3 -81 6 -110 33 -18 16 -33 40 -33 51 0 12 -9
30 -19 39 -13 12 -22 38 -26 79 -4 34 -12 69 -18 78 -11 17 15 131 35 157 8 9
3 18 -15 32 -14 11 -29 31 -33 43 -12 38 -44 77 -65 77 -10 0 -19 5 -19 10 0
6 -14 10 -30 10 -18 0 -33 6 -36 15 -4 9 -19 15 -40 15 -19 0 -34 5 -34 10 0
6 -5 10 -11 10 -16 0 -79 62 -79 78 0 6 -4 12 -10 12 -5 0 -10 7 -10 15 0 8
-6 15 -14 15 -8 0 -17 11 -20 25 -4 14 -14 34 -24 45 -29 32 -38 44 -46 65 -6
15 -9 17 -16 6 -11 -19 -32 54 -24 85 4 15 -1 26 -15 36 -11 8 -25 35 -32 61
-6 26 -15 47 -19 47 -4 0 -10 12 -13 28 -3 15 -14 36 -25 47 -10 12 -22 33
-26 48 -3 15 -15 36 -26 47 -11 11 -20 27 -20 35 0 8 -4 15 -10 15 -5 0 -10 5
-10 10 0 6 -11 23 -24 37 -14 15 -23 30 -20 35 9 14 63 8 100 -11z m16355
-1309 c-6 -2 -11 -10 -11 -18 0 -8 -4 -14 -10 -14 -5 0 -10 -7 -10 -15 0 -14
-75 -98 -187 -210 -24 -23 -43 -47 -43 -53 0 -6 -12 -19 -27 -29 -33 -21 -83
-72 -83 -84 0 -5 -5 -9 -11 -9 -15 0 -107 -97 -114 -121 -11 -32 -92 -119
-112 -119 -7 0 -13 -7 -13 -15 0 -8 -6 -15 -14 -15 -8 0 -17 -11 -20 -25 -4
-14 -11 -25 -17 -25 -14 0 -39 -26 -39 -39 0 -6 -4 -11 -10 -11 -5 0 -10 -4
-10 -10 0 -5 -22 -33 -50 -61 -43 -44 -52 -49 -70 -39 -15 8 -20 21 -20 48 0
21 -4 42 -9 47 -5 6 -11 48 -14 95 -2 47 -9 105 -16 129 -10 37 -9 47 3 59 12
12 18 13 29 3 8 -6 37 -14 65 -18 50 -6 50 -5 57 27 4 19 3 36 -4 43 -6 6 -11
19 -11 29 0 10 -4 18 -10 18 -5 0 -12 11 -16 25 -3 14 -12 25 -19 25 -7 0 -15
4 -17 8 -1 5 -27 30 -56 55 -35 31 -62 47 -80 47 -22 1 -24 2 -10 10 9 6 79
13 155 16 157 7 195 15 212 48 32 59 -8 93 -72 63 -26 -12 -96 -16 -357 -18
-244 -3 -330 -7 -346 -16 -17 -11 -52 -11 -175 -3 -211 14 -434 19 -974 22
l-460 2 -3 -37 c-2 -27 1 -37 11 -37 8 0 25 -15 38 -34 20 -30 29 -34 78 -39
30 -3 76 -2 101 4 30 6 55 6 71 0 14 -6 17 -10 8 -10 -19 -1 -54 -39 -64 -68
-3 -13 -13 -23 -21 -23 -8 0 -14 -9 -14 -20 0 -11 6 -20 13 -20 7 0 18 -10 25
-21 12 -19 20 -21 62 -16 27 3 67 15 89 26 l40 21 -13 -38 c-18 -50 -36 -167
-36 -231 0 -45 -3 -51 -20 -51 -20 0 -190 162 -190 181 0 5 -6 9 -14 9 -14 0
-106 81 -106 93 0 10 -81 87 -91 87 -5 0 -9 6 -9 13 0 7 -9 19 -20 27 -11 8
-20 22 -20 32 0 12 -8 18 -25 18 -31 0 -61 25 -81 66 -8 17 -27 37 -41 45 -34
18 -135 138 -127 150 3 6 38 10 77 9 40 0 236 2 437 6 201 3 381 6 400 5 148
-4 921 -2 1310 4 921 15 1118 20 1128 29 4 4 9 0 11 -10 2 -10 -2 -20 -8 -22z
m-4123 -23 c537 0 542 0 542 -20 0 -22 -42 -69 -61 -69 -6 0 -26 -17 -43 -37
-17 -20 -37 -41 -43 -47 -7 -6 -65 -62 -129 -123 -64 -62 -121 -113 -125 -113
-5 0 -9 -7 -9 -15 0 -8 -4 -15 -10 -15 -5 0 -12 -10 -15 -23 -3 -12 -19 -28
-35 -35 -17 -8 -27 -19 -24 -27 3 -7 -3 -16 -15 -20 -11 -3 -69 -55 -128 -114
-60 -60 -120 -116 -135 -126 -16 -9 -28 -24 -28 -31 0 -8 -4 -14 -9 -14 -7 0
-71 -56 -71 -63 0 -14 -144 -148 -156 -145 -16 3 -20 61 -24 333 -2 155 -1
175 10 175 11 0 80 -70 80 -81 0 -27 136 -12 146 16 7 18 -24 139 -36 143 -6
2 -10 10 -10 18 0 8 -4 14 -8 14 -5 0 -15 11 -22 25 -7 14 -19 25 -27 25 -7 0
-13 7 -13 15 0 10 10 15 31 15 17 0 40 5 52 11 40 22 75 79 47 79 -5 0 -12 16
-16 35 -4 23 -13 37 -28 41 -50 17 -487 19 -497 2 -12 -19 -1082 -29 -1116
-10 -14 8 -24 9 -28 2 -8 -13 -105 -13 -105 0 0 17 -223 13 -246 -5 -10 -8
-31 -15 -46 -15 -26 0 -28 -3 -28 -39 l0 -38 80 -6 c44 -4 94 -4 110 0 21 4
30 2 30 -7 0 -9 11 -11 39 -6 24 3 42 2 46 -4 4 -7 26 -8 57 -4 76 10 58 -16
-22 -33 -35 -7 -68 -19 -72 -27 -5 -8 -31 -17 -62 -21 -53 -7 -75 -21 -120
-76 -22 -27 -40 -92 -26 -97 6 -2 10 -10 10 -17 0 -13 30 -25 68 -25 12 0 22
-5 22 -11 0 -8 17 -10 56 -5 l56 6 -4 -80 c-2 -44 0 -80 3 -80 3 0 5 -17 5
-37 -2 -35 -4 -38 -34 -41 -24 -2 -32 1 -32 13 0 8 -7 18 -15 21 -8 3 -17 14
-20 24 -3 10 -17 21 -30 24 -14 4 -25 13 -25 20 0 8 -7 16 -15 20 -8 3 -15 10
-15 15 0 13 -87 101 -100 101 -5 0 -10 7 -10 15 0 8 -6 15 -13 15 -7 0 -19 9
-27 20 -8 11 -20 20 -27 20 -7 0 -13 5 -13 10 0 6 -7 10 -15 10 -8 0 -15 7
-15 15 0 8 -4 15 -9 15 -5 0 -13 9 -16 20 -3 11 -13 20 -21 20 -8 0 -14 5 -14
10 0 6 -7 10 -15 10 -8 0 -15 5 -15 10 0 13 -118 130 -131 130 -5 0 -9 5 -9
10 0 6 -13 24 -30 42 -16 17 -30 37 -30 44 0 8 -7 14 -15 14 -8 0 -15 4 -15
10 0 5 -11 12 -25 16 -14 3 -25 12 -25 18 0 7 -11 19 -25 26 -14 7 -25 19 -25
26 0 15 -28 26 -50 19 -13 -4 -25 4 -40 25 l-22 31 74 -6 c40 -4 91 -5 113 -4
47 2 326 3 620 2 412 -1 785 2 785 7 0 3 114 5 253 5 138 0 297 2 352 5 55 3
145 4 200 2 55 -1 344 -3 643 -3z m-5998 -22 c793 8 965 7 985 -1 26 -11 117
-7 132 5 7 7 14 6 18 -1 5 -8 111 -9 389 -4 447 9 1285 8 1294 -1 4 -4 -21
-32 -55 -63 -34 -31 -68 -62 -75 -69 -7 -6 -31 -30 -52 -52 -22 -23 -48 -41
-58 -41 -11 0 -18 -7 -18 -18 0 -18 -80 -102 -98 -102 -5 0 -12 -9 -15 -20 -3
-11 -16 -24 -29 -29 -34 -13 -71 -48 -63 -60 3 -6 -1 -11 -9 -11 -9 0 -16 -4
-16 -10 0 -5 -7 -10 -15 -10 -8 0 -15 -4 -15 -10 0 -5 -4 -10 -9 -10 -12 0
-167 -149 -335 -322 -52 -54 -99 -98 -104 -98 -20 0 -26 24 -27 121 0 54 -6
103 -12 110 -16 20 -26 96 -14 103 11 7 44 -9 79 -38 16 -14 35 -19 66 -17 24
1 47 -3 51 -9 10 -17 70 -12 86 8 30 36 41 69 34 103 -8 34 -49 79 -72 79 -7
0 -13 5 -13 10 0 6 -7 10 -15 10 -8 0 -15 5 -15 10 0 6 -6 10 -14 10 -8 0 -28
11 -44 25 -17 14 -36 25 -44 25 -7 0 -20 9 -28 20 -8 11 -20 20 -27 20 -7 0
-13 5 -13 10 0 6 -7 10 -15 10 -8 0 -15 2 -15 4 0 2 -3 11 -6 20 -5 13 1 16
28 16 19 0 37 3 40 6 4 3 31 7 62 9 30 2 64 6 75 10 13 4 21 2 21 -5 0 -11 38
-9 73 5 17 7 25 35 10 35 -5 0 -20 11 -36 24 -18 16 -25 29 -21 40 6 16 -4 17
-122 11 -139 -6 -343 -7 -437 -2 -32 2 -61 -1 -63 -5 -3 -5 -11 -4 -18 1 -9 8
-94 9 -262 5 -137 -4 -287 -7 -334 -6 -55 0 -87 -4 -92 -11 -9 -14 -244 -16
-325 -3 -38 6 -57 5 -68 -4 -9 -8 -27 -10 -49 -6 -22 4 -43 2 -56 -6 -16 -10
-24 -10 -40 0 -11 6 -33 12 -49 12 -17 0 -33 5 -36 10 -8 13 -107 12 -164 -1
-27 -6 -48 -6 -53 -1 -13 13 -57 -9 -64 -32 -10 -29 22 -46 84 -46 46 0 53 -3
50 -17 -2 -13 -13 -18 -36 -18 -24 0 -38 -8 -60 -35 -29 -36 -52 -99 -52 -141
0 -26 56 -89 80 -89 9 0 21 -5 27 -11 8 -8 17 -8 31 0 11 6 32 11 46 11 14 0
28 5 31 10 3 6 17 10 31 10 24 0 24 -2 26 -92 4 -143 0 -190 -17 -207 -13 -14
-15 -13 -15 2 0 9 -4 17 -10 17 -5 0 -10 7 -10 15 0 8 -6 15 -14 15 -8 0 -17
11 -20 25 -4 14 -13 25 -20 25 -8 0 -16 9 -19 20 -3 11 -13 23 -23 27 -18 7
-77 64 -116 113 -12 16 -29 30 -35 30 -7 0 -13 4 -13 10 0 5 -15 23 -32 40
-18 16 -64 59 -101 95 -38 36 -71 65 -73 65 -3 0 -17 14 -31 30 -13 17 -33 30
-44 30 -10 0 -19 6 -19 13 0 15 -52 72 -103 111 -20 16 -37 35 -37 42 0 7 -9
16 -20 19 -19 6 -38 50 -27 61 10 11 143 19 202 13 33 -3 269 -4 525 -2z
m-904 -9 c8 -8 -23 -48 -38 -48 -11 0 -38 -27 -66 -68 -13 -18 -27 -30 -31
-28 -4 3 -24 -10 -44 -29 -21 -19 -42 -35 -47 -35 -6 0 -10 -5 -10 -10 0 -12
-45 -60 -57 -60 -10 0 -83 -72 -83 -82 0 -16 -52 -66 -73 -72 -12 -3 -33 -23
-47 -46 -14 -22 -28 -40 -32 -40 -7 0 -215 -197 -252 -239 -60 -68 -215 -221
-224 -221 -16 0 -25 38 -26 102 -1 31 -4 59 -8 63 -3 4 -4 40 -1 81 4 52 3 74
-6 74 -7 0 -11 23 -11 65 0 58 2 65 20 65 11 0 20 -4 20 -10 0 -5 5 -10 11
-10 6 0 18 -9 27 -19 13 -15 33 -20 84 -23 70 -3 65 -5 128 56 24 23 26 49 5
70 -8 8 -15 31 -15 50 0 20 -4 36 -10 36 -5 0 -10 6 -10 14 0 8 -8 17 -18 20
-10 4 -25 23 -32 44 -8 20 -16 40 -18 44 -2 4 24 10 57 14 72 8 104 32 77 59
-19 20 -176 34 -176 16 0 -6 -7 -11 -15 -11 -8 0 -15 4 -15 9 0 8 -41 8 -60 0
-19 -7 -167 -2 -173 6 -6 7 -10 7 -13 0 -6 -15 -516 -8 -525 7 -5 8 -31 9 -86
4 -43 -4 -238 -7 -433 -6 -719 4 -811 3 -821 -7 -13 -13 -1 -43 17 -43 8 0 14
-5 14 -11 0 -8 17 -10 55 -6 31 3 55 2 55 -4 0 -5 14 -9 30 -9 17 0 30 -5 30
-10 0 -6 -13 -13 -30 -16 -16 -4 -30 -10 -30 -15 0 -5 -7 -9 -15 -9 -25 0 -64
-49 -76 -94 -13 -51 3 -126 26 -126 27 0 105 24 105 32 0 4 7 8 15 8 8 0 15 4
15 9 0 5 10 13 22 16 11 4 31 18 43 31 19 21 24 22 29 9 3 -9 -1 -29 -9 -45
-8 -16 -15 -46 -15 -68 0 -21 -5 -43 -12 -50 -7 -7 -13 -57 -16 -127 -5 -126
-12 -137 -52 -85 -13 17 -31 30 -41 30 -11 0 -19 6 -19 14 0 8 -30 44 -67 81
-216 210 -283 278 -283 286 0 5 -3 9 -7 9 -8 0 -86 73 -114 106 -9 10 -29 31
-45 45 -47 41 -84 88 -84 104 0 8 -4 15 -10 15 -5 0 -10 7 -10 15 0 8 -4 15
-10 15 -5 0 -10 6 -10 13 0 13 51 15 710 21 184 2 466 7 625 11 390 10 616 11
621 4 2 -3 56 -5 121 -3 65 2 249 4 408 4 160 1 349 5 420 8 176 9 632 9 641
0z m11084 -114 c0 -19 -4 -34 -10 -34 -20 0 -11 -90 12 -121 l23 -30 -1 -492
c0 -357 -4 -517 -14 -584 -11 -77 -11 -97 0 -117 8 -15 10 -35 5 -53 -9 -35
-9 -38 0 -268 15 -382 18 -888 8 -1397 -5 -222 -8 -233 -51 -183 -12 14 -29
25 -37 25 -8 0 -15 6 -15 14 0 7 -13 16 -30 20 -18 3 -30 12 -30 21 0 8 -3 15
-7 15 -5 0 -21 12 -38 26 -85 73 -99 84 -107 84 -4 0 -8 9 -8 19 0 11 -9 23
-20 26 -11 3 -20 12 -20 18 0 14 -66 77 -80 77 -6 0 -10 5 -10 12 0 6 -17 28
-37 48 -47 46 -63 66 -63 79 0 6 -9 15 -21 21 -11 7 -28 19 -38 28 -10 9 -27
23 -38 31 -12 8 -23 24 -26 37 l-4 22 116 -5 c64 -3 117 -7 119 -8 2 -2 -1
-29 -7 -60 -6 -32 -8 -75 -5 -96 6 -36 9 -39 40 -39 19 0 34 5 34 10 0 6 8 10
18 10 10 0 23 5 29 11 6 6 23 9 39 7 28 -3 29 -5 32 -68 2 -36 7 -69 13 -74 5
-6 9 -25 9 -43 0 -37 18 -42 75 -22 l32 12 8 126 c4 69 9 293 11 496 3 407 6
505 16 520 12 19 -9 924 -22 940 -4 6 -11 78 -15 160 -5 91 -12 153 -19 157
-6 4 -22 8 -36 8 -24 0 -27 -6 -38 -58 -7 -32 -12 -69 -12 -83 0 -14 -11 -32
-25 -42 -14 -10 -25 -13 -25 -7 0 14 -25 40 -39 40 -6 0 -11 5 -11 10 0 6 -11
22 -25 36 -21 21 -31 24 -58 18 -17 -3 -39 -15 -47 -24 -8 -10 -23 -28 -32
-39 -16 -19 -28 -21 -134 -21 -63 0 -124 -5 -135 -11 -12 -6 -27 -8 -35 -5
-17 6 -17 7 49 76 20 22 37 44 37 48 0 13 70 92 81 92 13 0 39 26 39 39 0 5
14 18 30 28 17 9 30 25 30 35 0 10 5 18 11 18 14 0 109 96 109 110 0 5 9 15
20 22 11 7 20 18 20 25 0 7 5 13 10 13 6 0 24 14 40 30 16 17 34 30 40 30 5 0
10 7 10 15 0 9 8 19 18 22 30 12 82 60 82 77 0 6 14 20 30 31 17 11 37 35 45
53 9 17 20 32 25 32 6 0 10 9 10 19 0 11 6 21 13 24 24 8 37 -6 37 -39z
m-7210 22 c0 -8 11 -17 25 -20 14 -4 25 -11 25 -16 0 -6 5 -10 11 -10 14 0 68
-60 75 -84 8 -24 52 -66 70 -66 8 0 16 -11 20 -25 4 -17 13 -25 27 -25 11 0
18 -3 14 -6 -9 -9 19 -34 37 -34 9 0 16 -7 16 -16 0 -9 9 -18 20 -21 11 -3 20
-9 20 -14 0 -5 7 -9 15 -9 8 0 15 -6 15 -12 0 -7 18 -28 40 -47 22 -19 40 -40
40 -47 0 -8 9 -14 20 -14 15 0 22 -9 27 -30 3 -16 12 -30 19 -30 8 0 16 -11
20 -25 4 -15 13 -25 24 -25 10 0 20 -9 23 -20 3 -12 14 -20 26 -20 13 0 21 -6
21 -16 0 -9 9 -18 20 -21 25 -7 26 -18 3 -28 -14 -6 -122 -9 -164 -6 -11 1
-19 31 -34 112 -17 98 -34 119 -97 119 -39 0 -52 -5 -81 -33 -39 -36 -57 -37
-57 -4 0 35 -23 90 -53 127 -22 29 -29 32 -37 20 -5 -8 -10 -29 -10 -47 0 -17
-4 -35 -10 -38 -12 -8 -13 -95 -1 -95 5 0 9 -46 9 -102 0 -57 4 -114 10 -128
7 -20 11 -686 3 -697 -4 -7 -12 -274 -16 -523 -2 -157 -6 -292 -9 -300 -3 -8
-8 -89 -10 -180 -7 -251 -17 -404 -27 -414 -21 -22 -9 -45 27 -52 28 -5 40 -2
58 15 22 21 24 31 28 161 2 76 6 142 10 146 8 8 38 -20 38 -35 0 -30 109 2
115 34 11 57 15 204 6 210 -19 11 -12 35 10 35 11 0 59 -16 107 -36 138 -58
211 -74 360 -81 56 -2 102 -8 102 -13 0 -5 -13 -18 -30 -30 -16 -12 -30 -25
-30 -30 0 -5 -20 -29 -45 -53 -25 -25 -45 -50 -45 -56 0 -6 -5 -11 -10 -11
-14 0 -80 -66 -80 -80 0 -5 -6 -10 -12 -10 -10 0 -161 -133 -190 -167 -44 -52
-258 -263 -267 -263 -6 0 -16 -11 -21 -25 -5 -14 -18 -28 -27 -32 -18 -7 -63
-49 -63 -60 0 -14 -45 -43 -67 -43 -14 0 -23 -6 -23 -15 0 -8 -5 -15 -12 -15
-6 0 -20 -7 -30 -17 -17 -16 -18 -11 -20 133 -4 222 -8 555 -7 587 2 56 0 318
-3 475 -2 92 1 162 6 162 5 0 6 25 2 58 -18 159 -21 249 -12 377 9 128 9 132
6 315 -2 168 -3 214 -1 400 1 58 -3 139 -8 180 -5 41 -6 77 -2 80 4 3 7 39 5
80 -8 223 -5 532 7 546 15 18 29 18 29 0z m3654 -171 c5 -111 18 -502 18 -550
0 -5 -3 -59 -7 -120 -8 -121 9 -396 27 -424 7 -12 6 -26 -4 -51 -13 -30 -13
-67 -5 -243 8 -149 8 -230 0 -284 -9 -61 -8 -85 3 -122 16 -54 19 -286 4 -296
-13 -8 -13 -52 1 -61 6 -4 10 -33 8 -73 -1 -36 1 -73 4 -81 4 -8 11 -116 16
-239 7 -166 7 -228 -2 -242 -9 -14 -8 -29 3 -66 15 -54 15 -321 -1 -337 -5 -6
-20 -2 -38 12 -38 28 -99 62 -111 62 -5 0 -30 23 -56 50 -26 28 -50 50 -54 50
-5 0 -30 22 -57 50 -26 27 -52 50 -58 50 -12 0 -105 87 -105 98 0 10 -59 62
-71 62 -5 0 -9 7 -9 15 0 8 -3 15 -7 15 -5 0 -22 14 -40 30 -18 17 -35 30 -38
30 -8 0 -35 26 -35 34 0 12 -52 56 -66 56 -20 0 -44 24 -44 44 0 9 -4 16 -9
16 -5 0 -12 9 -16 20 -4 12 -19 22 -41 26 -19 3 -34 12 -34 20 0 8 -4 14 -10
14 -5 0 -10 5 -10 11 0 7 -13 25 -30 41 -16 15 -30 30 -30 33 0 6 -67 75 -73
75 -11 0 -75 68 -70 74 11 10 128 7 139 -4 6 -6 52 -12 102 -13 51 -1 92 -6
92 -11 0 -10 120 2 135 14 5 4 35 10 65 13 30 3 75 10 100 16 57 12 79 2 50
-24 -11 -10 -20 -31 -20 -46 0 -15 -6 -34 -14 -41 -17 -18 -49 -132 -50 -183
l-1 -40 46 -3 c39 -3 47 0 52 17 2 11 21 27 41 35 20 8 36 20 36 25 0 15 35
14 48 -2 6 -7 13 -58 14 -113 3 -91 5 -99 23 -102 15 -2 29 9 49 40 24 37 27
49 22 88 -4 25 -8 214 -10 420 -2 206 -7 383 -11 392 -4 10 1 30 11 47 15 25
16 34 6 56 -7 14 -12 41 -12 60 0 19 -5 37 -10 40 -8 5 -7 12 2 22 10 13 12
100 10 420 -2 274 1 403 8 403 12 0 13 35 1 58 -5 9 -11 64 -15 121 -3 58 -10
109 -16 115 -5 5 -10 18 -10 29 0 29 -64 20 -68 -10 -2 -13 1 -23 7 -23 6 0
11 -13 11 -29 0 -25 -5 -30 -32 -36 -25 -6 -34 -3 -45 11 -7 11 -19 26 -27 35
-7 9 -16 28 -20 42 -5 22 -12 27 -37 27 -47 0 -56 -16 -49 -89 3 -36 11 -66
18 -69 17 -5 16 -108 -1 -115 -15 -6 -142 20 -169 34 -10 5 -29 9 -42 9 -14 0
-28 5 -31 10 -3 6 -19 10 -36 10 -16 0 -29 5 -29 10 0 6 -6 10 -14 10 -23 0 5
49 32 56 13 4 22 14 22 25 0 12 9 21 25 25 14 3 25 12 25 20 0 7 8 19 18 26
10 7 21 21 25 31 4 9 18 22 32 27 14 5 25 15 25 21 0 6 16 26 35 45 19 18 35
37 35 42 0 6 20 18 45 29 25 10 45 21 45 26 0 4 7 7 15 7 9 0 15 9 15 25 0 18
5 25 20 25 11 0 23 7 26 15 4 8 12 15 20 15 8 0 14 7 14 15 0 8 4 15 10 15 13
0 100 86 100 99 0 6 7 11 15 11 8 0 15 7 15 15 0 9 11 21 25 27 14 6 25 18 25
27 0 9 10 21 23 26 30 13 32 2 41 -170z m146 135 c17 -17 30 -35 30 -40 0 -6
7 -10 15 -10 8 0 15 -4 15 -10 0 -5 7 -10 15 -10 8 0 15 -7 15 -15 0 -8 6 -15
14 -15 8 0 16 -4 18 -9 7 -21 170 -181 184 -181 7 0 14 -6 14 -14 0 -8 11 -23
25 -34 14 -11 25 -25 25 -31 0 -6 5 -11 10 -11 13 0 50 -37 50 -50 0 -5 6 -10
14 -10 8 0 16 -7 20 -15 3 -8 17 -20 31 -27 14 -6 25 -15 25 -19 0 -10 53 -69
62 -69 4 0 29 -22 56 -50 27 -27 54 -50 61 -50 6 0 11 -7 11 -15 0 -8 7 -15
15 -15 8 0 15 -6 15 -13 0 -16 154 -177 169 -177 6 0 11 -7 11 -15 0 -8 5 -15
10 -15 6 0 10 -8 10 -19 0 -25 -30 -30 -116 -19 -43 5 -80 4 -98 -2 -16 -5
-67 -10 -113 -10 -62 0 -88 -4 -99 -15 -9 -8 -27 -18 -42 -22 -15 -3 -34 -14
-43 -25 -9 -10 -31 -21 -48 -24 -18 -4 -38 -15 -44 -25 -7 -11 -18 -19 -25
-19 -10 0 -13 18 -10 75 2 41 6 75 11 75 4 0 7 36 7 80 0 79 0 80 -25 80 -18
0 -28 -7 -35 -24 -11 -29 -41 -66 -53 -66 -22 0 -33 31 -35 100 -2 41 -5 83
-8 94 -4 10 -1 22 5 26 8 5 10 23 5 57 -9 68 -15 77 -52 68 l-31 -6 -1 -117
c0 -64 -1 -170 -2 -234 -1 -66 -5 -118 -11 -118 -5 0 -6 -32 -2 -82 9 -99 9
-109 1 -398 -3 -123 -11 -239 -17 -257 -7 -22 -7 -38 0 -51 7 -13 9 -93 5
-230 -4 -173 -3 -215 9 -234 12 -19 14 -72 12 -286 -2 -280 -1 -287 47 -280
17 2 30 18 50 58 25 51 27 53 27 24 1 -38 17 -54 56 -54 72 0 75 4 75 95 l0
82 80 6 c45 3 87 11 95 17 11 9 38 9 107 2 51 -5 112 -7 136 -5 23 3 42 2 42
-1 0 -11 -104 -105 -117 -106 -6 0 -15 -10 -19 -22 -4 -13 -28 -45 -54 -73
-26 -27 -71 -74 -99 -104 -28 -30 -51 -61 -51 -68 0 -7 -5 -13 -12 -13 -13 0
-388 -376 -388 -389 0 -14 -39 -20 -48 -7 -5 6 -8 102 -5 216 7 403 6 524 -6
575 -21 85 -31 476 -21 865 3 107 2 200 -2 205 -3 6 -7 91 -7 190 -1 99 -4
264 -7 367 -5 148 -4 191 7 204 8 10 9 18 2 22 -6 4 -10 61 -10 147 0 77 -4
237 -8 356 -7 196 -4 269 11 269 2 0 18 -14 34 -30z m-3925 -21 c0 -19 3 -38
6 -44 4 -5 3 -37 -2 -70 -5 -36 -5 -100 2 -160 5 -58 7 -195 3 -325 -13 -467
-17 -1060 -10 -1300 11 -358 16 -657 14 -835 -1 -99 -1 -265 1 -370 3 -242 -3
-315 -30 -315 -10 0 -19 5 -19 11 0 5 -13 15 -30 20 -16 6 -30 16 -30 23 0 14
-47 66 -60 66 -6 0 -10 7 -10 15 0 8 -12 18 -27 21 -30 8 -53 26 -53 43 0 6
-9 11 -21 11 -12 0 -23 8 -26 20 -3 11 -10 20 -16 20 -6 0 -22 13 -36 29 -14
15 -36 33 -48 40 -13 6 -23 18 -23 26 0 8 -4 15 -10 15 -5 0 -10 7 -10 15 0 8
-6 15 -13 15 -22 0 -167 150 -167 173 0 8 -13 17 -28 20 -17 4 -34 17 -42 34
-18 35 -35 53 -49 53 -6 0 -11 5 -11 10 0 6 -5 10 -10 10 -14 0 -60 46 -60 60
0 5 -5 10 -12 10 -8 0 -6 6 5 17 13 13 45 18 153 24 76 5 142 13 148 19 5 5
18 10 28 10 13 0 18 -8 18 -29 0 -54 8 -61 65 -61 67 0 85 23 85 105 0 63 14
85 53 85 21 0 27 -6 32 -32 4 -18 13 -40 20 -48 10 -11 13 -56 11 -182 l-3
-168 34 0 c60 0 73 14 73 75 0 29 -4 57 -10 60 -13 8 -13 52 2 115 9 41 9 56
-1 72 -10 16 -10 22 -1 28 16 10 9 195 -8 212 -15 15 -16 67 -2 103 8 20 6 32
-5 48 -22 31 -20 150 2 188 13 21 14 32 7 37 -18 12 -23 41 -29 177 -3 72 -8
147 -11 167 -3 21 0 46 7 60 15 27 18 67 7 74 -11 7 -10 84 1 84 6 0 5 15 -1
36 -5 20 -6 43 -2 52 14 30 16 73 16 297 0 325 -6 545 -14 545 -5 0 -8 18 -8
40 0 22 5 40 10 40 6 0 10 15 10 34 0 36 -12 46 -59 46 -46 0 -61 -30 -61
-125 0 -46 -4 -87 -10 -90 -5 -3 -10 -18 -10 -32 0 -22 -3 -24 -27 -18 -16 3
-29 11 -31 16 -2 5 -10 9 -18 9 -8 0 -14 5 -14 10 0 6 -18 10 -39 10 -28 0
-48 -7 -65 -24 -24 -21 -26 -29 -24 -105 2 -72 5 -85 24 -100 l23 -18 -22 -18
c-14 -12 -22 -14 -25 -7 -2 7 -18 12 -35 12 -18 0 -44 7 -59 14 -25 13 -112
24 -205 25 -29 1 -33 5 -33 27 0 19 8 28 35 40 19 8 35 20 35 27 0 6 18 27 40
46 22 19 40 40 40 45 0 6 14 17 30 24 17 8 30 18 30 24 0 16 119 128 136 128
8 0 14 9 14 20 0 11 6 20 14 20 8 0 25 20 37 45 17 34 28 45 46 45 13 0 23 5
23 10 0 6 7 10 15 10 8 0 15 6 15 14 0 8 9 18 20 21 11 3 20 13 20 21 0 7 9
19 20 26 11 7 20 18 20 25 0 7 9 13 20 13 11 0 29 14 42 30 12 17 28 30 35 30
7 0 13 9 13 20 0 13 7 20 20 20 11 0 20 5 20 10 0 6 9 10 20 10 11 0 20 7 20
15 0 20 22 45 35 41 6 -2 10 -18 10 -37z m-3629 6 c4 -8 15 -15 25 -15 10 0
19 -7 19 -15 0 -8 7 -15 15 -15 8 0 15 -7 15 -15 0 -8 5 -15 10 -15 6 0 16
-11 22 -25 6 -14 15 -25 19 -25 5 0 27 -20 51 -45 24 -25 49 -45 56 -45 6 0
12 -6 12 -13 0 -8 16 -27 35 -43 19 -16 35 -35 35 -41 0 -7 5 -13 10 -13 11 0
16 -4 74 -55 18 -16 42 -37 52 -46 11 -9 39 -38 63 -63 24 -25 50 -46 58 -46
7 0 13 -4 13 -10 0 -15 33 -50 47 -50 7 0 13 -7 13 -15 0 -8 7 -15 15 -15 8 0
15 -6 15 -13 0 -7 25 -37 55 -65 63 -60 72 -88 26 -79 -17 4 -31 2 -33 -4 -4
-13 -78 -30 -99 -23 -9 2 -22 -2 -29 -11 -7 -8 -22 -15 -35 -15 -12 0 -35 -11
-51 -25 -16 -14 -39 -25 -51 -25 -13 0 -23 -4 -23 -10 0 -5 -7 -10 -16 -10 -9
0 -22 -7 -29 -17 -7 -10 -19 -14 -29 -10 -15 6 -17 17 -13 72 2 43 9 71 21 84
11 12 20 43 23 80 6 58 5 60 -21 67 -14 3 -38 3 -52 0 -23 -6 -25 -11 -23 -56
2 -29 -3 -55 -10 -64 -7 -9 -10 -23 -7 -32 4 -9 -4 -28 -19 -46 -15 -18 -25
-42 -25 -61 0 -82 -33 -107 -43 -34 -4 24 -4 73 -1 108 11 119 7 208 -11 235
-44 68 -54 0 -60 -425 -3 -221 -8 -316 -16 -321 -8 -5 -9 -36 -5 -101 3 -52 6
-112 5 -134 -1 -168 -9 -558 -11 -590 -1 -22 2 -144 6 -271 5 -146 4 -234 -2
-238 -14 -8 -14 -95 0 -144 13 -43 14 -44 48 -38 33 5 74 42 64 58 -3 5 2 34
11 66 25 90 23 87 43 66 43 -47 84 -54 121 -23 21 17 23 25 18 70 -4 28 -11
57 -16 63 -6 7 -14 45 -17 84 -7 69 -6 72 15 72 12 0 24 -7 27 -15 4 -8 12
-15 20 -15 8 0 14 -4 14 -10 0 -5 20 -10 45 -10 25 0 45 -4 45 -9 0 -11 65
-28 160 -42 36 -6 67 -15 68 -20 2 -5 19 -9 38 -9 19 0 34 -3 34 -7 0 -4 -26
-34 -57 -66 -32 -32 -94 -96 -138 -141 -44 -45 -100 -105 -125 -132 -25 -28
-53 -53 -62 -57 -10 -3 -18 -13 -18 -22 0 -8 -4 -15 -10 -15 -5 0 -10 -7 -10
-15 0 -8 -6 -15 -14 -15 -7 0 -104 -91 -215 -201 -133 -133 -206 -198 -212
-192 -9 9 -17 472 -11 698 1 55 2 109 2 120 0 11 1 112 3 224 1 112 0 229 -4
260 -3 31 -1 63 4 72 7 11 6 27 -2 49 -6 20 -7 37 -2 44 9 11 7 64 -4 116 -4
20 -3 30 5 30 7 0 9 10 6 28 -9 42 -11 345 -3 360 5 6 6 16 3 21 -3 5 -6 66
-7 135 -1 69 -4 128 -8 130 -3 2 -6 87 -5 188 1 122 -3 186 -10 191 -8 6 -7
10 2 14 13 5 17 43 4 43 -10 0 -11 43 -1 50 12 8 13 96 3 170 -8 55 -4 176 9
320 2 19 -1 38 -7 42 -6 4 -6 11 2 21 7 7 9 16 6 20 -3 3 -3 15 1 26 7 24 33
28 41 6z m-3676 -64 c0 -9 9 -22 20 -29 11 -7 20 -19 20 -27 0 -8 9 -15 20
-15 11 0 20 -4 20 -10 0 -5 7 -10 15 -10 8 0 15 -7 15 -15 0 -8 4 -15 9 -15 5
0 13 -9 16 -20 3 -11 13 -20 21 -20 7 0 19 -9 26 -20 7 -11 18 -20 24 -20 7 0
14 -9 17 -21 3 -12 10 -18 15 -15 5 3 14 -6 20 -19 7 -14 19 -25 27 -25 9 0
18 -12 22 -30 4 -23 11 -30 29 -30 15 0 24 -6 24 -15 0 -8 5 -15 11 -15 14 0
79 -67 79 -82 0 -6 8 -18 18 -27 9 -9 22 -25 28 -36 6 -11 20 -22 30 -24 23
-4 34 -19 34 -48 0 -19 -5 -23 -31 -23 -16 0 -53 -7 -80 -16 -27 -9 -52 -14
-56 -11 -3 4 -7 28 -9 54 -8 115 -13 127 -47 143 -17 7 -59 14 -92 14 -43 1
-65 6 -77 19 -10 9 -31 17 -47 17 -23 0 -30 -6 -35 -25 -4 -14 -4 -31 0 -37 8
-13 12 -192 18 -820 2 -257 8 -473 13 -480 4 -7 8 -207 8 -445 l0 -432 22 -20
c12 -12 34 -21 48 -21 26 0 26 1 23 59 -4 89 39 125 67 57 18 -43 28 -49 68
-42 24 4 35 14 45 38 8 18 18 42 23 53 5 11 10 40 11 65 3 39 6 46 32 55 22 7
30 7 33 -2 3 -7 20 -13 39 -13 19 0 34 -4 34 -8 0 -5 33 -14 73 -20 39 -6 107
-17 149 -24 l78 -13 -70 -69 c-39 -38 -70 -73 -70 -78 0 -4 -6 -8 -12 -8 -7 0
-26 -16 -43 -35 -57 -66 -115 -125 -123 -125 -5 0 -14 -11 -21 -23 -7 -13 -28
-30 -47 -37 -21 -9 -37 -23 -40 -37 -4 -13 -12 -23 -20 -23 -8 0 -14 -6 -14
-14 0 -8 -16 -23 -35 -35 -19 -11 -35 -25 -35 -31 0 -5 -5 -10 -10 -10 -17 0
-60 -47 -60 -65 0 -8 -4 -15 -10 -15 -14 0 -43 -25 -140 -122 -48 -49 -92 -88
-98 -88 -7 0 -12 14 -12 30 0 17 -4 30 -9 30 -4 0 -7 125 -5 277 1 153 1 280
-1 284 -5 7 -16 726 -17 1109 -1 140 -5 260 -10 267 -5 7 -5 14 1 17 6 4 9
112 9 275 0 148 3 274 6 280 4 6 2 20 -4 31 -15 28 -22 443 -8 495 13 47 11
129 -3 133 -10 4 -13 65 -3 75 10 10 34 -5 34 -22z m3531 -3 c0 -18 2 -298 4
-623 1 -324 6 -721 10 -882 4 -160 4 -297 0 -303 -4 -7 -10 -177 -12 -379 -3
-201 -5 -386 -6 -411 -2 -85 14 -284 23 -290 5 -3 9 -92 9 -203 l0 -197 -27 0
c-18 0 -38 12 -59 35 -23 25 -41 35 -63 35 -16 0 -30 5 -30 10 0 11 -94 110
-105 110 -9 0 -35 27 -35 37 0 4 -14 19 -31 33 -17 14 -35 36 -40 48 -5 13
-18 26 -29 29 -11 3 -20 8 -20 12 0 4 -27 36 -60 70 -33 35 -60 66 -60 70 0 9
-90 76 -112 84 -10 4 -18 12 -18 18 0 14 -127 139 -141 139 -5 0 -11 11 -15
25 -3 13 -20 33 -37 44 l-31 20 115 -6 c118 -6 200 5 253 32 36 19 42 19 25
-1 -17 -21 -18 -136 -1 -157 8 -9 11 -21 7 -27 -3 -5 0 -10 9 -10 8 0 16 -5
18 -10 5 -17 120 9 146 33 20 18 24 19 32 7 15 -23 23 -96 16 -135 -6 -31 -4
-36 19 -47 23 -10 29 -8 61 23 34 33 35 36 28 84 -11 83 -12 169 -2 183 6 6 6
12 1 12 -5 0 -9 21 -10 48 -10 501 -10 638 1 645 8 5 8 9 0 15 -7 4 -11 81
-11 217 -1 116 -4 255 -7 310 -9 152 -16 309 -20 421 -1 55 -6 106 -10 112 -9
15 -5 104 5 118 9 11 16 161 8 168 -2 2 -13 6 -24 9 -29 9 -57 -17 -60 -55 -2
-18 -3 -39 -4 -45 -2 -22 -27 -14 -54 17 -25 28 -31 29 -92 28 -55 -2 -65 -5
-65 -20 0 -10 -9 -27 -20 -38 -11 -11 -20 -24 -20 -30 0 -5 -4 -10 -10 -10 -5
0 -10 -20 -10 -45 0 -26 -6 -58 -14 -73 -7 -15 -16 -44 -20 -65 l-7 -38 -72 2
c-76 2 -148 -10 -184 -29 -12 -7 -26 -12 -31 -12 -17 0 -1 39 18 45 10 3 25
17 34 30 9 14 21 25 27 25 6 0 30 20 53 44 23 25 54 48 69 51 15 4 27 13 27
21 0 8 5 14 10 14 6 0 10 9 10 20 0 11 9 25 20 32 11 7 20 18 20 25 0 7 4 13
8 13 14 0 52 36 52 49 0 6 9 11 20 11 11 0 20 5 20 11 0 13 25 39 39 39 13 0
131 118 131 130 0 6 5 10 11 10 5 0 29 21 52 46 49 54 135 142 163 166 24 21
44 45 44 54 0 10 33 33 48 34 7 0 12 -13 13 -32z m9713 -7 c3 -5 24 -7 46 -4
31 4 40 2 40 -10 0 -8 12 -23 28 -33 41 -27 49 -37 63 -82 7 -23 18 -42 26
-42 7 0 13 -8 13 -18 0 -10 7 -27 15 -38 8 -10 15 -31 15 -45 0 -14 6 -48 14
-75 32 -109 40 -486 11 -530 -8 -13 -15 -31 -15 -40 0 -9 -9 -18 -20 -21 -11
-3 -20 -10 -20 -15 0 -13 -26 -38 -39 -38 -6 0 -11 -9 -11 -20 0 -10 -9 -24
-19 -30 -11 -5 -23 -19 -26 -31 -4 -12 -38 -52 -77 -90 -74 -73 -103 -84 -128
-49 -8 11 -22 20 -32 20 -10 0 -37 10 -60 22 -26 14 -67 24 -103 26 -75 5
-130 -17 -192 -77 -23 -23 -48 -41 -56 -41 -18 0 -61 38 -76 67 -6 11 -24 27
-41 35 -16 7 -30 19 -30 25 0 7 -7 13 -15 13 -8 0 -15 4 -15 9 0 4 -20 30 -45
57 -25 26 -45 51 -45 55 0 4 -10 11 -21 14 -22 7 -68 53 -69 68 0 12 -27 37
-39 37 -6 0 -11 7 -11 15 0 8 -4 15 -10 15 -5 0 -10 7 -10 15 0 8 -4 15 -10
15 -5 0 -10 6 -10 13 0 13 -44 57 -57 57 -27 0 -93 126 -93 179 0 6 -4 11 -10
11 -5 0 -10 7 -10 15 0 8 -4 15 -10 15 -23 0 3 223 32 270 4 8 11 23 14 33 4
9 10 17 15 17 5 0 9 7 9 15 0 28 63 82 115 97 138 42 218 53 267 34 22 -8 31
-8 36 1 6 9 34 12 90 10 77 -2 81 -3 75 -22 -4 -11 -7 -50 -6 -87 l1 -68 -193
0 c-203 0 -205 0 -205 -46 0 -17 52 -19 81 -4 13 7 19 7 19 0 0 -5 10 -10 21
-10 16 0 19 -3 12 -12 -15 -19 -25 -65 -28 -128 -3 -52 -1 -57 35 -92 21 -20
40 -44 43 -53 4 -9 19 -15 42 -15 19 0 35 -4 35 -10 0 -5 7 -10 15 -10 11 0
15 -12 15 -42 1 -65 25 -177 42 -194 13 -13 22 -14 58 -4 l42 11 -6 82 c-3 45
-6 97 -6 115 0 17 -5 32 -10 32 -6 0 -10 9 -10 20 0 13 -7 20 -18 20 -10 0
-28 11 -40 25 -12 14 -42 34 -67 46 -56 26 -84 70 -78 120 5 35 7 37 61 49 32
7 65 16 74 21 10 5 96 12 191 15 l174 6 38 -36 c21 -20 41 -36 46 -36 14 0 22
-86 10 -108 -6 -11 -11 -30 -11 -41 0 -11 -15 -36 -33 -55 -34 -35 -34 -36
-100 -29 l-67 6 0 -65 c0 -36 -3 -93 -7 -128 l-6 -63 41 5 c50 7 70 25 70 62
0 16 4 31 10 35 6 3 10 26 9 51 -1 43 0 45 28 48 17 2 34 10 38 18 4 8 17 14
27 14 12 0 20 7 20 18 0 9 17 35 37 57 l36 40 4 115 c1 63 3 118 3 123 0 4 7
7 16 7 10 0 14 7 12 23 -3 22 -5 22 -173 23 -205 0 -205 0 -205 19 0 8 -4 15
-10 15 -5 0 -10 11 -10 24 0 14 5 28 10 31 6 3 10 18 10 33 1 55 14 60 186 75
87 8 162 15 166 16 4 0 9 -3 12 -8z m-11485 -60 c11 -35 6 -97 -10 -107 -5 -3
-9 -18 -9 -34 0 -40 40 -66 116 -73 81 -8 113 -27 137 -79 23 -50 24 -127 2
-144 -8 -6 -15 -14 -15 -18 0 -11 -27 -36 -38 -36 -5 0 -15 -7 -22 -15 -7 -8
-24 -15 -39 -15 -14 0 -34 -7 -44 -14 -15 -12 -16 -21 -7 -87 23 -170 28 -244
19 -261 -9 -17 -2 -68 9 -68 4 0 26 8 50 17 l44 17 -5 130 c-6 158 -1 196 24
196 11 0 29 11 41 25 12 14 30 25 40 25 14 0 18 8 18 38 0 28 7 45 25 62 20
19 25 33 25 72 0 26 -4 48 -10 48 -5 0 -10 11 -10 25 0 33 -54 92 -91 100 -16
4 -29 10 -29 13 0 8 -44 27 -82 36 -33 7 -48 51 -48 140 l0 58 68 -8 c37 -4
94 -8 127 -9 48 0 65 -4 85 -22 13 -13 31 -23 41 -23 9 0 22 -7 29 -15 7 -8
19 -15 26 -15 8 0 14 -6 14 -14 0 -8 11 -23 24 -33 13 -10 27 -30 31 -43 4
-14 16 -37 26 -52 11 -14 19 -32 19 -40 0 -8 4 -18 9 -23 13 -15 43 -112 46
-153 8 -89 18 -158 26 -167 11 -15 2 -207 -12 -255 -7 -23 -19 -44 -26 -47 -7
-3 -13 -11 -13 -18 0 -13 -33 -55 -43 -55 -4 0 -20 -12 -36 -27 -16 -16 -46
-43 -66 -60 -20 -18 -34 -37 -30 -43 3 -5 -2 -10 -11 -10 -10 0 -24 -6 -33
-14 -63 -56 -111 -106 -111 -115 0 -6 -6 -11 -14 -11 -8 0 -16 -5 -18 -11 -2
-7 -24 -12 -48 -13 -41 -1 -45 1 -49 24 -1 14 -6 27 -11 30 -4 3 -11 19 -17
35 -6 19 -22 36 -42 46 -18 8 -36 20 -39 25 -25 36 -84 54 -120 35 -9 -5 -46
-14 -82 -20 -113 -20 -119 -22 -160 -68 -45 -48 -67 -50 -89 -10 -7 13 -26 28
-42 34 -23 9 -29 17 -29 42 0 26 -4 31 -24 31 -27 0 -56 24 -56 46 0 8 -4 14
-10 14 -5 0 -10 5 -10 11 0 7 -8 19 -19 28 -84 73 -101 90 -101 100 0 6 -7 11
-15 11 -8 0 -15 6 -15 14 0 8 -9 18 -20 21 -11 3 -20 10 -20 14 0 13 -56 71
-68 71 -7 0 -12 16 -12 38 -1 20 -3 106 -6 190 -4 93 -2 157 4 165 5 6 12 29
16 50 4 23 13 37 21 37 9 0 15 10 15 24 0 39 19 77 40 83 11 3 20 14 20 24 0
10 4 20 10 24 5 3 7 12 4 19 -3 7 2 16 10 19 9 4 16 1 16 -5 0 -6 8 -1 19 10
10 12 23 22 30 22 6 0 11 7 11 15 0 10 10 15 30 15 17 0 30 4 30 9 0 5 61 8
137 8 l138 -2 8 -54 c5 -29 6 -68 2 -87 -5 -30 -9 -34 -39 -34 -18 0 -41 -8
-53 -20 -12 -10 -33 -22 -47 -26 -14 -3 -26 -11 -26 -18 0 -6 -11 -28 -25 -48
-28 -41 -32 -86 -14 -168 6 -30 16 -50 24 -50 7 0 16 -13 20 -30 4 -16 11 -30
16 -30 5 0 9 -7 9 -15 0 -8 7 -15 15 -15 9 0 18 -7 21 -15 4 -8 12 -15 18 -15
7 0 24 -6 38 -12 30 -14 42 -53 32 -105 -4 -19 -2 -39 5 -46 6 -8 15 -44 20
-81 5 -38 12 -70 15 -73 2 -3 23 -7 45 -10 39 -5 41 -4 41 20 0 14 -4 28 -10
32 -5 3 -7 12 -4 20 3 7 1 22 -5 33 -6 11 -11 80 -12 153 -1 82 -6 138 -13
145 -6 6 -33 13 -59 16 -62 7 -102 46 -111 108 -4 25 -9 54 -12 65 -3 13 5 30
21 48 21 22 35 27 73 27 79 1 107 41 100 144 -2 36 0 66 4 66 10 0 10 34 1 44
-23 23 -3 31 87 36 52 3 98 3 101 0 4 -3 11 -20 18 -39z m7444 -11 c5 -19 12
-74 16 -122 3 -47 9 -89 12 -93 4 -3 40 1 80 9 45 9 75 11 77 6 2 -6 19 -10
38 -10 19 0 34 -4 34 -10 0 -5 10 -10 23 -11 33 0 71 -53 64 -88 -7 -35 -48
-81 -71 -81 -9 0 -16 -4 -16 -10 0 -5 -17 -10 -39 -10 -22 0 -44 -6 -51 -15
-8 -9 -29 -15 -56 -15 -27 0 -55 -8 -77 -22 -33 -23 -34 -24 -44 -128 -6 -58
-8 -133 -6 -167 5 -62 6 -63 34 -63 16 0 30 3 30 8 6 34 3 122 -3 122 -4 0 -8
24 -8 54 0 52 1 54 31 60 17 3 44 6 60 6 16 0 29 4 29 8 0 5 23 15 50 22 30 8
50 19 50 28 0 10 8 13 25 10 14 -3 25 -1 25 4 0 5 8 12 18 15 30 11 57 47 69
93 17 66 2 130 -39 172 -10 10 -18 22 -18 27 0 5 -12 14 -27 20 -16 6 -41 20
-58 30 -16 11 -40 20 -52 20 -13 1 -23 6 -23 11 0 6 -20 10 -45 10 -41 0 -45
2 -45 25 0 14 5 25 10 25 6 0 10 22 10 48 l0 48 58 -7 c31 -4 96 -8 144 -8 81
-1 145 -19 156 -43 2 -5 12 -8 23 -8 10 0 19 -6 19 -13 0 -7 14 -27 30 -45 17
-18 30 -38 30 -43 0 -5 9 -19 20 -31 11 -12 20 -28 20 -36 0 -7 6 -34 14 -60
33 -112 42 -532 11 -532 -7 0 -15 -20 -18 -49 -3 -27 -14 -59 -24 -71 -38 -45
-74 -80 -82 -80 -5 0 -22 -16 -39 -36 -100 -116 -152 -164 -182 -164 -23 0
-33 7 -45 30 -8 16 -15 38 -15 49 0 10 -5 21 -10 23 -6 2 -12 14 -12 28 -2 30
-34 80 -51 80 -7 0 -24 13 -39 30 -25 28 -29 30 -120 32 l-94 3 -57 -45 c-31
-25 -56 -51 -57 -57 0 -7 -4 -13 -10 -13 -5 0 -10 -14 -10 -30 0 -23 -6 -33
-22 -39 -13 -5 -24 -5 -26 0 -2 5 -8 9 -14 9 -10 0 -41 27 -36 32 7 8 -29 46
-49 52 -12 4 -31 18 -42 32 -10 13 -24 24 -30 24 -6 0 -16 9 -23 20 -7 11 -18
20 -25 20 -7 0 -13 7 -13 15 0 8 -17 26 -37 40 -21 14 -75 61 -119 105 -45 44
-86 80 -92 80 -19 0 -39 167 -24 196 6 11 16 48 22 84 7 36 20 84 31 107 10
23 19 51 19 62 0 12 7 21 15 21 8 0 15 6 15 13 0 7 16 26 35 41 19 15 37 35
40 45 3 9 25 25 50 35 25 11 45 25 45 33 0 7 6 13 13 13 43 1 141 9 190 15
l58 7 -3 -56 c-2 -31 -6 -56 -10 -56 -5 0 -8 -7 -8 -15 0 -11 -11 -15 -40 -15
-29 0 -43 -5 -52 -20 -7 -11 -21 -20 -30 -20 -23 0 -56 -36 -63 -71 -4 -16
-13 -29 -20 -29 -18 0 -29 -57 -21 -107 15 -102 18 -111 42 -122 14 -6 27 -18
30 -26 4 -8 17 -15 30 -15 13 0 24 -4 24 -10 0 -5 11 -10 25 -10 14 0 33 -4
43 -9 9 -5 25 -12 34 -15 15 -4 16 -17 12 -108 -6 -123 -1 -148 27 -148 19 0
21 5 17 50 -1 28 0 50 3 50 3 0 6 37 8 82 1 45 7 88 13 95 16 19 -18 53 -53
53 -16 0 -44 9 -64 20 -20 11 -41 20 -47 20 -7 0 -22 10 -35 22 -31 29 -32
108 -2 146 28 36 91 54 147 41 24 -5 47 -7 52 -4 16 10 32 115 25 165 -4 30
-3 50 4 55 6 3 11 19 11 35 0 26 4 30 38 35 20 4 46 10 57 15 33 15 49 7 58
-30z m-4003 18 c0 -5 11 -8 25 -8 20 0 25 -5 25 -24 0 -14 -5 -28 -11 -31 -6
-4 -9 -19 -8 -33 5 -41 -8 -52 -56 -52 -53 0 -75 -8 -75 -26 0 -8 -6 -14 -14
-14 -18 0 -86 -68 -86 -86 0 -8 -10 -29 -22 -45 -20 -27 -23 -42 -22 -115 1
-63 5 -88 17 -97 8 -7 23 -29 32 -50 10 -21 29 -43 42 -48 12 -4 23 -13 23
-19 0 -5 11 -10 25 -10 13 0 30 -6 37 -13 7 -8 20 -12 30 -9 20 5 22 -10 18
-141 l-2 -78 48 3 49 3 3 95 c1 52 5 102 8 110 19 46 -7 110 -45 110 -55 1
-162 69 -166 105 -1 6 -5 18 -9 28 -10 22 0 91 14 95 5 2 10 19 10 38 0 23 5
34 15 34 7 0 18 6 22 13 11 17 79 67 91 67 6 0 12 -5 14 -11 3 -8 19 -10 50
-5 41 6 46 10 52 38 3 17 6 41 6 54 0 13 4 24 9 24 5 0 11 12 13 27 2 19 11
29 33 36 17 5 37 15 45 22 8 7 41 15 73 17 l57 5 -1 -110 c-1 -92 1 -112 15
-122 9 -7 16 -17 16 -24 0 -6 7 -11 15 -11 8 0 15 -5 15 -11 0 -6 16 -10 38
-9 103 5 111 3 118 -35 3 -20 12 -35 20 -35 8 0 14 -6 14 -14 0 -8 7 -16 15
-20 17 -6 21 -56 5 -56 -5 0 -10 -22 -10 -50 l0 -49 -42 -11 c-24 -6 -59 -15
-78 -21 -19 -5 -51 -9 -71 -9 -20 0 -41 -6 -47 -12 -12 -16 -21 -85 -27 -215
-4 -97 -3 -103 16 -103 10 0 19 -4 19 -10 0 -5 11 -10 24 -10 40 0 53 41 48
144 -5 98 3 113 61 107 35 -3 95 17 121 40 11 11 22 19 25 19 4 0 12 15 20 33
7 17 22 49 32 70 20 40 26 141 9 152 -5 3 -10 22 -10 42 0 35 -22 73 -43 73
-6 0 -25 16 -44 35 -21 22 -51 39 -78 46 -25 6 -45 16 -45 21 0 5 -9 6 -20 3
-18 -6 -20 -2 -20 37 0 24 3 60 7 81 l6 38 41 -7 c23 -4 58 -7 80 -6 21 2 43
-1 50 -6 6 -5 38 -13 70 -17 61 -7 96 -22 96 -40 0 -6 13 -22 28 -35 15 -14
34 -41 42 -60 7 -19 22 -43 32 -53 10 -10 18 -26 18 -36 0 -10 7 -24 15 -31 8
-7 15 -24 15 -39 0 -15 4 -31 8 -37 14 -16 34 -141 33 -207 -2 -168 -25 -229
-101 -273 -16 -10 -30 -24 -30 -31 0 -7 -7 -13 -15 -13 -8 0 -22 -12 -32 -27
-17 -28 -182 -193 -192 -193 -3 0 -15 -14 -26 -30 -11 -16 -24 -30 -29 -30 -5
0 -14 -7 -21 -16 -18 -25 -56 -11 -84 30 -38 57 -105 105 -167 122 -45 11 -59
12 -71 2 -9 -7 -28 -11 -43 -10 -31 4 -73 -26 -95 -68 -8 -14 -25 -37 -39 -52
-14 -15 -26 -34 -26 -43 0 -10 -10 -15 -29 -15 -34 0 -61 23 -61 51 0 20 -37
69 -53 69 -10 0 -37 25 -37 35 0 9 -27 35 -37 35 -10 0 -63 45 -63 54 0 9 -53
55 -63 56 -10 0 -37 26 -37 35 0 14 -174 175 -189 175 -5 0 -13 10 -16 22 -4
11 -17 31 -30 42 -27 26 -33 48 -41 167 -3 52 -6 96 -7 99 -4 18 15 110 23
110 6 0 10 13 10 29 0 39 9 61 25 61 7 0 16 11 19 24 5 21 25 42 94 98 26 21
104 38 195 42 37 2 69 5 72 7 7 8 175 4 175 -3z m2963 -593 c20 -4 37 -11 37
-16 0 -5 6 -9 14 -9 7 0 19 -7 26 -15 7 -8 15 -13 19 -10 9 5 41 -31 41 -45 0
-6 7 -10 15 -10 8 0 15 -4 15 -10 0 -5 7 -10 15 -10 8 0 15 -7 15 -15 0 -8 5
-15 10 -15 6 0 10 -4 10 -10 0 -19 35 -50 56 -50 15 0 24 -8 28 -25 4 -16 13
-25 26 -25 11 0 20 -6 20 -14 0 -18 66 -76 85 -76 8 0 15 -7 15 -15 0 -8 8
-19 18 -24 10 -5 43 -33 72 -60 30 -28 57 -51 61 -51 4 0 17 -16 29 -35 12
-19 33 -38 46 -41 13 -3 24 -10 24 -16 0 -5 11 -19 25 -32 13 -13 22 -26 18
-29 -3 -4 2 -9 11 -13 33 -13 -4 -34 -60 -34 -29 0 -55 -4 -58 -9 -3 -5 -21
-12 -39 -15 -82 -15 -141 -167 -93 -241 9 -13 16 -31 16 -40 0 -8 11 -21 25
-27 14 -6 25 -17 25 -24 0 -7 16 -16 35 -20 19 -3 38 -10 41 -15 3 -5 21 -9
40 -9 19 0 34 -4 34 -10 0 -5 6 -10 14 -10 8 0 17 -8 20 -17 8 -19 -21 -83
-43 -97 -7 -4 -20 -17 -29 -27 -9 -10 -21 -19 -27 -19 -5 0 -17 -15 -25 -32
-8 -18 -30 -39 -47 -47 -18 -9 -33 -22 -33 -28 0 -7 -7 -13 -15 -13 -8 0 -20
-9 -27 -20 -7 -11 -16 -20 -19 -20 -3 0 -44 -38 -90 -85 -46 -46 -89 -85 -96
-85 -6 0 -13 -5 -15 -11 -5 -14 -235 -13 -272 1 -15 5 -44 10 -65 10 -23 0
-44 6 -52 16 -8 10 -21 13 -36 9 -13 -3 -23 -1 -23 5 0 5 -12 12 -27 16 -16 3
-49 15 -74 27 -35 16 -48 29 -53 50 -3 15 -12 27 -20 27 -8 0 -18 9 -21 20 -3
11 -11 20 -16 20 -5 0 -13 8 -16 18 -4 9 -14 25 -23 35 -21 22 -40 84 -40 130
0 22 -6 37 -15 41 -17 6 -20 87 -9 207 l7 67 61 -5 c33 -2 75 -6 93 -9 35 -5
33 1 48 -147 4 -31 13 -63 21 -71 8 -8 14 -24 14 -35 0 -12 6 -21 14 -21 8 0
16 -7 20 -15 3 -8 14 -15 25 -15 11 0 21 -5 23 -12 3 -8 32 -12 89 -12 68 1
91 5 120 22 43 26 76 86 85 151 5 37 12 52 30 62 13 7 24 18 24 25 0 15 62 24
145 21 60 -2 60 -2 63 28 5 41 -19 55 -94 55 -35 0 -66 5 -69 10 -9 15 -41 12
-55 -5 -8 -10 -30 -15 -65 -15 -57 0 -80 -15 -68 -46 3 -11 9 -21 12 -24 33
-29 35 -110 5 -169 -8 -14 -14 -31 -14 -37 0 -12 -75 -44 -100 -44 -8 0 -24 7
-34 15 -11 8 -30 15 -43 15 -19 0 -23 5 -23 30 0 20 -5 30 -15 30 -10 0 -17
14 -21 40 -4 22 -11 43 -15 46 -5 3 -9 21 -9 41 0 20 -8 61 -17 91 -20 62 -36
72 -114 72 -27 0 -69 5 -94 12 -40 11 -45 15 -45 41 0 30 38 71 75 82 31 10
90 39 93 48 2 4 21 7 42 7 34 0 39 3 44 28 4 15 2 43 -4 62 -13 45 -13 90 0
90 6 0 10 16 10 35 0 19 5 35 11 35 6 0 8 9 4 20 -5 15 0 22 18 29 62 24 147
8 147 -27 0 -10 9 -28 20 -40 15 -16 20 -35 20 -82 0 -33 4 -60 10 -60 6 0 10
-7 10 -15 0 -21 47 -30 75 -15 30 16 286 10 306 -7 8 -6 28 -13 44 -15 24 -2
31 1 33 19 2 14 -3 23 -17 28 -12 3 -21 11 -21 16 0 5 -10 9 -23 9 -12 0 -33
7 -45 16 -13 9 -40 15 -65 14 -23 -1 -68 -1 -99 -1 -53 1 -58 3 -58 24 0 12
-9 33 -20 47 -11 14 -20 36 -20 50 -1 23 -50 90 -67 90 -5 0 -21 13 -36 29
-30 31 -112 50 -131 31 -5 -5 -18 -10 -27 -10 -10 0 -30 -11 -44 -24 -15 -14
-30 -26 -33 -28 -22 -10 -52 -97 -58 -168 -5 -54 -12 -84 -23 -93 -9 -8 -46
-17 -83 -20 l-66 -6 -7 74 c-4 40 -4 78 -1 84 4 5 0 29 -9 53 -17 50 -10 174
12 196 7 7 13 29 13 48 0 22 5 34 14 34 8 0 17 15 20 35 7 34 10 37 39 39 6 0
27 11 45 24 19 13 42 22 52 19 10 -3 34 -1 52 3 35 9 159 6 221 -5z m-7522
-12 c16 -10 29 -21 29 -25 0 -4 7 -8 15 -8 8 0 15 -4 15 -10 0 -5 5 -10 10
-10 12 0 50 -36 50 -48 0 -7 29 -25 62 -38 9 -3 18 -16 20 -28 2 -13 11 -22
25 -24 11 -2 33 -21 48 -42 15 -22 35 -42 45 -45 9 -3 22 -17 28 -30 6 -14 16
-25 22 -25 16 0 80 -51 80 -63 0 -16 61 -77 77 -77 8 0 18 -11 23 -25 5 -14
16 -25 25 -25 8 0 15 -6 15 -13 0 -8 11 -19 25 -25 15 -7 25 -20 25 -32 0 -11
7 -20 15 -20 8 0 15 -5 15 -11 0 -16 26 -39 44 -39 13 0 16 -10 14 -51 -3 -55
-33 -99 -69 -99 -11 0 -20 -10 -24 -30 -5 -22 -14 -32 -33 -36 -15 -3 -32 -7
-38 -9 -6 -2 -19 -35 -29 -75 l-17 -71 37 -75 c38 -76 65 -98 125 -106 20 -2
26 -9 28 -34 2 -25 -4 -37 -35 -64 -21 -18 -40 -45 -43 -59 -3 -14 -15 -30
-28 -36 -12 -5 -22 -15 -22 -21 0 -6 -13 -17 -30 -24 -16 -7 -30 -18 -30 -24
0 -6 -34 -47 -75 -90 -41 -43 -75 -82 -75 -86 0 -16 -90 -28 -212 -29 -71 -1
-128 3 -128 8 0 5 -20 12 -45 15 -25 4 -45 11 -45 17 0 5 -11 9 -24 9 -50 0
-86 14 -123 46 -21 19 -41 34 -45 34 -4 0 -10 9 -13 20 -3 11 -13 20 -21 20
-8 0 -14 5 -14 10 0 6 -4 10 -10 10 -12 0 -50 37 -50 49 0 5 -7 11 -15 15 -8
3 -15 15 -15 27 0 12 -9 36 -19 53 -14 22 -22 69 -32 169 -15 159 -14 159 61
151 79 -10 87 -17 93 -95 4 -44 13 -79 25 -97 10 -15 22 -39 26 -54 5 -21 12
-28 31 -28 14 0 25 -4 25 -10 0 -5 7 -10 15 -10 8 0 15 -7 15 -15 0 -9 9 -15
25 -15 14 0 25 -4 25 -9 0 -5 16 -12 36 -16 26 -4 41 -2 53 9 10 9 25 16 34
16 9 0 38 22 66 50 42 42 51 58 61 107 22 111 29 123 71 123 21 0 41 5 44 10
3 6 17 10 30 10 13 0 39 13 57 29 19 16 45 31 58 33 27 3 40 42 22 60 -17 17
-102 -1 -126 -27 -21 -23 -33 -25 -196 -40 -31 -3 -49 -11 -62 -27 -23 -30
-23 -32 7 -64 18 -19 25 -38 25 -65 0 -22 -4 -39 -9 -39 -5 0 -11 -12 -13 -27
-2 -18 -10 -29 -22 -31 -11 -3 -26 -11 -35 -19 -30 -31 -141 -2 -141 36 0 6
-4 11 -9 11 -16 0 -23 39 -23 123 0 44 -5 88 -11 98 -16 26 -100 49 -174 46
-83 -2 -105 19 -101 96 l3 52 40 6 c22 4 43 4 47 1 4 -4 38 -6 75 -4 48 2 76
9 93 22 l25 19 -22 40 c-24 42 -29 76 -14 86 5 3 13 29 16 59 6 44 12 56 36
70 16 9 29 24 29 32 0 9 11 14 30 14 17 0 30 -4 30 -10 0 -5 9 -10 20 -10 11
0 28 -8 38 -18 18 -18 52 -132 52 -176 0 -16 8 -30 23 -38 24 -14 165 -44 267
-58 58 -7 67 -6 87 12 28 26 13 44 -37 46 -19 0 -36 6 -38 11 -2 6 -25 11 -51
11 -27 0 -69 3 -95 6 l-46 7 0 41 c0 40 -14 68 -52 110 -10 11 -18 23 -18 27
0 4 -9 9 -21 12 -11 3 -23 15 -26 26 -3 12 -10 21 -15 21 -5 0 -17 7 -26 16
-13 13 -31 15 -91 12 -43 -3 -77 -10 -79 -17 -2 -6 -8 -11 -14 -11 -13 0 -38
-26 -38 -39 0 -6 -4 -11 -10 -11 -5 0 -10 -6 -10 -14 0 -8 -5 -16 -11 -18 -6
-2 -13 -25 -16 -51 -3 -26 -9 -47 -13 -47 -4 0 -7 -21 -6 -47 1 -45 -1 -47
-29 -53 -17 -4 -47 -5 -67 -2 -31 3 -37 8 -42 34 -10 50 -7 183 4 194 6 6 13
37 15 69 3 38 10 62 19 67 8 4 17 23 21 41 8 37 55 140 67 145 4 2 8 12 8 23
0 10 5 19 10 19 6 0 10 8 10 18 0 10 16 24 40 35 21 10 41 26 44 35 4 12 31
24 83 38 43 12 80 22 81 23 2 0 17 -7 33 -16z m9762 1 c37 -9 67 -21 67 -25 0
-5 9 -9 19 -9 11 0 26 -7 35 -15 8 -8 19 -15 25 -15 6 0 11 -4 11 -10 0 -5 9
-10 20 -10 11 0 20 -4 20 -10 0 -5 7 -10 15 -10 25 0 145 -128 145 -155 0 -13
3 -25 8 -27 27 -12 99 -236 91 -283 -5 -26 -71 -32 -151 -14 -44 10 -59 18
-64 34 -9 35 -39 95 -46 95 -5 0 -8 7 -8 15 0 27 -64 85 -94 85 -14 0 -26 5
-26 10 0 6 -15 10 -34 10 -19 0 -37 4 -41 9 -12 20 -135 -15 -135 -39 0 -5 -7
-15 -15 -23 -9 -9 -17 -45 -21 -86 l-7 -71 -144 0 c-156 0 -162 -2 -149 -56 6
-24 9 -25 54 -17 61 10 153 10 219 0 50 -8 52 -8 67 20 9 19 13 44 9 71 -3 22
-2 49 2 59 5 10 7 26 6 35 -2 20 20 34 72 43 25 5 37 4 37 -4 0 -6 9 -11 20
-11 11 0 20 -4 20 -9 0 -5 9 -13 20 -16 11 -3 20 -13 20 -21 0 -8 3 -14 8 -14
8 0 29 -55 40 -105 15 -66 21 -69 134 -75 87 -4 108 -9 136 -28 17 -13 32 -28
32 -33 0 -5 7 -9 15 -9 8 0 15 -4 15 -10 0 -5 -5 -10 -11 -10 -8 0 -10 -23 -7
-70 4 -69 3 -71 -22 -78 -14 -4 -50 -7 -80 -6 -30 0 -60 -5 -67 -11 -6 -7 -15
-45 -18 -86 -4 -41 -13 -84 -21 -96 -8 -12 -14 -32 -14 -43 0 -22 -34 -41 -95
-54 -26 -6 -37 -1 -69 28 -25 21 -37 40 -33 49 3 8 -2 22 -12 31 -10 9 -23 41
-30 71 -11 48 -16 55 -36 55 -13 0 -27 5 -30 10 -4 6 -64 10 -146 10 -117 0
-141 -3 -146 -15 -3 -9 -3 -18 0 -22 4 -3 48 -10 99 -16 51 -5 96 -15 100 -20
3 -6 9 -30 13 -54 3 -24 13 -47 20 -49 8 -3 11 -12 9 -19 -3 -7 4 -18 15 -25
12 -6 21 -17 21 -25 0 -8 6 -15 14 -15 7 0 20 -9 27 -21 9 -13 29 -22 57 -26
23 -3 42 -10 42 -14 0 -12 33 -11 62 0 13 5 43 15 68 22 58 17 127 64 136 92
4 12 8 51 8 87 l1 65 33 3 c39 4 72 -26 72 -65 0 -12 5 -23 10 -23 6 0 10 -15
10 -34 0 -19 6 -36 13 -38 8 -3 12 -28 12 -78 0 -50 -4 -75 -12 -77 -7 -3 -13
-17 -13 -33 0 -20 -14 -41 -52 -79 -29 -28 -58 -51 -63 -51 -6 0 -15 -10 -20
-22 -7 -16 -23 -26 -50 -32 -22 -4 -58 -14 -80 -22 -89 -30 -411 -12 -486 27
-20 11 -45 19 -54 19 -10 0 -27 10 -39 23 -16 17 -43 27 -98 37 -42 8 -75 17
-73 21 3 4 -11 20 -30 36 -19 17 -35 35 -35 41 0 6 -8 13 -17 16 -34 11 -99
83 -108 118 -4 17 4 34 32 66 21 23 44 42 50 42 22 0 61 65 74 123 8 31 17 57
21 57 5 0 8 16 8 35 0 19 -4 35 -10 35 -5 0 -10 16 -10 35 0 28 -10 44 -59 95
-42 42 -66 60 -84 60 -14 0 -28 4 -32 9 -3 5 35 50 85 99 49 50 90 95 90 101
0 6 5 11 10 11 6 0 10 7 10 15 0 8 4 15 8 15 5 0 24 14 42 30 18 17 37 30 42
30 5 0 13 11 18 25 5 14 14 25 20 25 5 0 10 4 10 10 0 13 66 80 79 80 6 0 11
5 11 10 0 6 7 10 15 10 8 0 15 5 15 10 0 18 83 100 116 116 17 8 37 26 44 39
11 21 21 25 59 25 25 0 76 -7 114 -16z m3681 -109 c11 -8 32 -15 48 -15 15 0
37 -9 48 -20 11 -11 33 -20 50 -20 17 0 30 -4 30 -10 0 -5 7 -10 15 -10 8 0
15 -4 15 -9 0 -5 12 -23 28 -39 46 -50 52 -60 52 -87 0 -14 4 -25 9 -25 5 0
12 -24 16 -52 4 -29 10 -57 13 -63 4 -5 5 -43 3 -82 -2 -45 1 -73 7 -73 14 0
5 -189 -9 -206 -7 -9 -20 -7 -55 12 -25 13 -55 24 -68 24 -21 0 -24 6 -30 61
-3 34 -6 88 -6 121 0 67 -19 138 -37 138 -7 0 -13 5 -13 10 0 6 -11 10 -24 10
-24 0 -36 -16 -36 -50 0 -34 -28 -44 -124 -44 -70 -1 -98 -5 -118 -18 -44 -29
-105 -91 -112 -115 -5 -16 -20 -24 -58 -33 -29 -6 -58 -16 -65 -22 -7 -6 -31
-8 -53 -5 -49 6 -70 -11 -70 -57 l0 -33 61 -7 c111 -11 130 -8 209 33 9 5 16
26 18 56 3 46 28 85 54 85 5 0 14 11 20 25 14 31 59 34 130 8 39 -14 48 -22
54 -47 3 -17 15 -45 26 -63 15 -26 20 -55 22 -150 2 -65 9 -132 16 -150 10
-27 9 -36 -4 -55 -10 -13 -16 -43 -16 -74 0 -38 -5 -55 -20 -69 -11 -10 -20
-26 -20 -36 0 -12 -10 -21 -27 -25 -16 -4 -35 -12 -43 -20 -33 -27 -157 26
-148 64 3 10 -3 30 -13 43 -21 28 -24 50 -8 66 33 33 -32 63 -135 63 -32 0
-76 5 -98 12 -33 10 -41 9 -55 -5 -21 -21 -10 -47 21 -47 14 0 27 -4 31 -9 3
-5 30 -13 60 -16 48 -6 55 -10 55 -29 0 -12 6 -28 12 -34 10 -10 10 -15 -2
-22 -8 -5 -10 -10 -5 -10 12 0 35 -47 35 -72 0 -10 -5 -27 -12 -37 -9 -15 -8
-22 6 -37 16 -15 24 -16 79 -5 44 8 72 9 97 1 19 -5 70 -10 112 -10 72 0 78
-2 78 -20 0 -11 -6 -29 -12 -40 -16 -24 -1 -40 55 -59 44 -15 48 -13 72 49 14
36 16 69 14 165 -2 66 -2 186 -1 268 l2 147 25 0 c14 0 25 -4 25 -10 0 -5 18
-10 39 -10 31 0 41 -4 46 -20 3 -11 13 -20 22 -20 14 0 15 -16 9 -142 -4 -79
-9 -187 -11 -240 -3 -54 -12 -125 -20 -159 -12 -44 -13 -65 -6 -72 13 -13 14
-51 2 -75 -5 -9 -14 -31 -21 -48 -6 -17 -32 -54 -58 -82 -42 -46 -54 -53 -115
-67 -70 -16 -187 -12 -187 6 0 5 -14 9 -30 9 -18 0 -33 6 -36 15 -4 9 -19 15
-35 15 -16 0 -29 5 -29 10 0 6 -9 10 -20 10 -11 0 -20 5 -20 11 0 20 -30 40
-50 34 -11 -3 -20 -2 -20 4 0 5 -9 13 -20 16 -11 3 -20 13 -20 21 0 8 -6 14
-14 14 -8 0 -20 14 -28 30 -7 17 -18 30 -24 30 -6 0 -31 18 -55 41 -24 22 -51
45 -61 50 -10 5 -18 16 -18 24 0 7 -8 16 -17 19 -10 3 -30 18 -45 33 -14 16
-42 45 -62 65 -20 21 -36 41 -36 46 0 15 -59 72 -74 72 -23 0 -21 50 2 50 28
1 93 52 113 90 15 27 19 56 19 127 0 55 -4 93 -10 93 -5 0 -10 7 -10 16 0 20
-88 104 -109 104 -30 0 -39 69 -16 114 8 15 15 32 15 38 0 5 17 26 38 47 41
43 53 55 85 90 12 13 32 34 45 47 12 13 22 28 22 34 0 5 7 10 15 10 8 0 15 6
15 13 0 8 11 20 25 27 14 7 25 19 25 26 0 6 7 14 15 18 8 3 15 10 15 15 0 18
58 70 84 77 14 3 26 12 26 19 0 7 8 15 18 19 9 3 24 10 32 15 8 5 35 15 60 22
25 7 49 16 55 21 5 4 28 8 52 8 24 0 43 5 43 10 0 15 93 11 114 -5z m-9569
-46 c3 -4 22 -5 43 -2 38 5 41 3 150 -106 62 -61 117 -111 122 -111 6 0 10 -3
10 -7 0 -15 80 -93 95 -93 8 0 15 -7 15 -15 0 -8 5 -15 10 -15 6 0 10 -7 10
-14 0 -18 43 -66 58 -66 6 0 16 -9 22 -20 6 -11 17 -20 25 -20 8 0 17 -11 21
-25 3 -14 12 -25 20 -25 29 0 13 -38 -26 -64 -22 -14 -44 -26 -49 -26 -5 0
-24 -14 -42 -31 -33 -31 -34 -34 -34 -109 0 -54 5 -82 15 -95 8 -10 14 -26 12
-36 -2 -14 1 -17 12 -13 11 4 16 0 16 -13 0 -20 51 -73 71 -73 6 0 9 -16 7
-37 -2 -30 -9 -41 -30 -51 -16 -7 -28 -18 -28 -25 0 -7 -18 -28 -40 -47 -22
-19 -40 -40 -40 -47 0 -7 -10 -18 -22 -24 -13 -7 -32 -24 -43 -38 -11 -14 -35
-41 -52 -59 -18 -19 -33 -37 -33 -41 0 -11 -47 -31 -71 -31 -11 0 -22 -7 -25
-15 -4 -9 -19 -15 -38 -15 -17 0 -49 -7 -71 -14 -22 -8 -41 -10 -43 -5 -5 13
-59 11 -68 -2 -4 -7 -21 -9 -43 -5 -20 3 -64 6 -98 5 -38 0 -63 4 -63 10 0 6
-18 11 -40 11 -22 0 -40 5 -40 10 0 6 -13 10 -30 10 -19 0 -30 5 -30 14 0 8
-19 18 -45 25 -28 7 -45 17 -45 26 0 8 -6 15 -13 15 -8 0 -20 11 -27 25 -7 14
-17 25 -22 25 -4 0 -8 12 -8 27 0 15 -9 37 -21 49 -19 21 -28 65 -46 239 -3
28 -8 55 -13 60 -4 6 -5 26 -3 46 5 34 9 38 48 49 42 12 100 7 110 -10 2 -4 9
-41 15 -81 8 -55 17 -80 35 -99 14 -14 25 -31 25 -37 0 -6 7 -13 15 -17 8 -3
15 -12 15 -21 0 -9 9 -15 24 -15 14 0 28 -4 31 -10 3 -5 17 -10 30 -10 13 0
26 -4 30 -9 16 -26 195 16 195 46 0 7 9 17 20 23 11 6 20 17 20 25 0 8 5 15
10 15 6 0 10 18 10 39 0 31 4 41 20 46 14 4 20 15 20 36 0 29 1 30 48 28 42
-1 83 3 150 17 18 4 22 11 22 44 0 25 -5 40 -12 41 -7 1 -71 0 -142 -1 -162
-3 -172 -8 -163 -100 6 -66 -8 -115 -44 -153 -10 -11 -19 -27 -19 -34 0 -7 -6
-13 -14 -13 -8 0 -16 -4 -18 -10 -6 -18 -82 13 -115 47 -17 18 -37 33 -43 33
-6 0 -13 14 -16 30 -4 17 -10 30 -14 30 -9 0 -40 119 -40 155 0 16 -6 25 -15
25 -8 0 -15 4 -15 9 0 5 -21 14 -47 21 -45 10 -71 13 -150 18 -27 2 -33 6 -33
25 0 22 37 47 69 47 8 0 28 4 45 10 17 5 52 15 79 22 26 7 47 16 47 21 0 11
26 37 38 37 5 0 7 22 4 49 -2 30 0 51 7 55 6 4 11 18 11 31 0 32 44 65 86 65
19 0 34 -4 34 -9 0 -5 14 -12 30 -16 17 -4 30 -12 30 -20 0 -7 7 -26 15 -41 8
-16 15 -36 15 -44 0 -8 15 -32 33 -54 l33 -38 110 1 c60 1 144 -1 186 -5 93
-7 128 -1 128 25 0 22 -19 31 -66 31 -18 0 -65 5 -103 12 -56 9 -75 9 -94 -1
-36 -19 -101 -11 -106 14 -2 11 -6 22 -10 25 -3 3 -15 30 -25 60 -11 30 -25
59 -33 63 -7 4 -13 14 -13 21 0 7 -19 18 -42 25 -24 7 -56 20 -71 28 -17 9
-40 12 -60 8 -77 -14 -117 -28 -117 -41 0 -8 -4 -14 -10 -14 -5 0 -10 -5 -10
-10 0 -6 -16 -24 -35 -41 -32 -28 -35 -36 -35 -85 0 -60 2 -59 -93 -67 l-49
-5 5 47 c5 50 28 121 39 121 3 0 9 14 13 30 4 17 11 30 16 30 5 0 9 7 9 15 0
8 7 15 15 15 8 0 15 7 15 15 0 8 5 15 11 15 7 0 9 9 6 21 -3 12 -3 19 0 16 7
-7 43 25 43 39 0 6 11 16 25 22 14 6 25 16 25 22 0 5 3 9 8 8 17 -4 93 36 103
53 5 11 20 19 32 19 12 0 29 5 37 10 17 11 179 11 185 -1z m2162 -40 c43 -6
82 -15 88 -20 5 -5 23 -9 41 -9 18 0 34 -4 36 -10 2 -5 22 -11 46 -12 23 -1
42 -5 42 -10 0 -4 7 -8 15 -8 8 0 17 -11 21 -25 3 -14 10 -25 16 -25 5 0 6 -9
3 -21 -4 -11 1 -36 11 -56 10 -22 18 -69 20 -114 4 -71 2 -79 -18 -93 -48 -34
-133 -11 -144 37 -3 16 -13 31 -22 34 -10 4 -46 37 -82 74 -47 48 -78 71 -112
83 -60 20 -137 11 -180 -20 -17 -13 -39 -24 -48 -24 -28 0 -63 -37 -57 -59 3
-11 -1 -25 -9 -32 -9 -7 -14 -33 -15 -68 0 -31 -6 -78 -13 -106 l-11 -50 -60
-7 c-33 -4 -74 -5 -91 -3 -41 7 -78 -30 -68 -69 4 -17 13 -26 25 -26 10 0 19
-4 19 -9 0 -12 168 -6 202 8 30 11 42 48 42 138 1 29 4 53 7 53 3 0 11 16 19
35 8 19 17 35 22 35 4 0 8 7 8 15 0 8 5 15 11 15 5 0 8 4 5 9 -3 5 8 14 26 20
39 14 208 15 208 1 0 -5 9 -10 20 -10 11 0 20 -4 20 -10 0 -5 7 -10 15 -10 8
0 15 -7 15 -15 0 -8 5 -15 10 -15 6 0 10 -6 10 -14 0 -8 5 -16 10 -18 6 -2 15
-32 20 -67 5 -35 15 -68 22 -73 20 -13 80 -28 111 -28 15 0 27 -4 27 -10 0 -5
16 -10 36 -10 21 0 33 -4 29 -10 -3 -6 1 -13 9 -16 32 -12 18 -58 -33 -108
-46 -46 -50 -47 -92 -42 -51 8 -59 3 -81 -44 -13 -27 -17 -64 -16 -152 1 -121
-8 -148 -46 -148 -8 0 -21 -9 -28 -19 -14 -20 -48 -25 -145 -22 -46 1 -53 4
-53 21 0 15 -7 20 -24 20 -34 0 -40 14 -38 86 2 49 -1 63 -14 68 -12 4 -14 13
-10 32 5 19 2 30 -11 40 -21 16 -63 18 -63 3 0 -7 -16 -8 -45 -3 -30 4 -50 2
-60 -6 -8 -7 -23 -9 -37 -4 -29 10 -73 6 -116 -9 -30 -10 -33 -15 -30 -47 3
-34 4 -35 43 -33 125 6 237 3 255 -7 13 -7 20 -21 20 -40 0 -16 4 -31 8 -34 5
-3 17 -32 27 -66 10 -33 24 -60 30 -60 7 0 15 -9 18 -19 8 -31 57 -49 132 -51
98 -2 132 7 139 36 4 13 11 24 16 24 6 0 10 6 10 13 1 6 15 21 33 32 29 18 33
26 39 85 4 36 5 91 2 123 l-6 57 61 0 c34 0 61 -4 61 -10 0 -5 9 -10 19 -10
16 0 20 -9 23 -57 2 -32 1 -60 -2 -63 -3 -3 -6 -25 -7 -50 -3 -59 -33 -181
-50 -201 -7 -8 -13 -23 -13 -32 0 -9 -13 -31 -28 -49 -16 -18 -39 -50 -51 -71
-12 -20 -33 -40 -46 -43 -13 -3 -29 -12 -36 -20 -6 -8 -21 -14 -34 -14 -12 0
-25 -3 -29 -7 -26 -27 -316 -47 -316 -22 0 7 -9 9 -22 6 -13 -3 -32 1 -42 9
-11 8 -30 14 -42 14 -13 0 -26 5 -29 10 -3 5 -15 10 -26 10 -10 0 -19 7 -19
15 0 8 -7 15 -16 15 -9 0 -18 9 -21 20 -3 11 -12 20 -19 20 -8 0 -14 5 -14 10
0 6 -8 10 -19 10 -10 0 -29 13 -42 30 -13 16 -29 30 -35 30 -7 0 -15 11 -18
25 -4 14 -13 25 -21 25 -8 0 -15 7 -15 15 0 8 -11 17 -25 21 -14 3 -25 10 -25
15 0 12 -62 67 -102 92 -16 9 -33 28 -38 42 -5 14 -14 25 -19 25 -5 0 -16 20
-24 45 l-16 45 29 0 c15 0 30 4 32 9 2 6 17 12 33 14 17 2 29 10 27 16 -1 6
20 22 48 34 27 12 50 27 50 34 0 6 9 15 20 18 27 9 30 47 10 140 -6 28 -13 62
-17 78 -3 15 -9 27 -13 27 -5 0 -12 9 -15 20 -3 11 -15 20 -26 20 -10 0 -19 7
-19 15 0 8 -14 17 -34 21 -35 6 -96 52 -96 72 0 6 9 13 19 17 11 3 23 15 26
26 4 10 14 19 23 19 10 0 22 13 29 30 6 17 18 30 27 30 9 0 16 4 16 9 0 19 47
60 88 76 23 10 42 23 42 31 0 8 5 14 10 14 6 0 10 9 10 19 0 12 9 22 23 26 23
8 87 63 87 77 0 4 8 16 19 27 10 10 23 26 28 36 7 11 30 20 69 25 32 4 73 13
89 18 41 14 188 14 282 1z m-3712 -45 c27 -10 45 -25 54 -45 9 -20 20 -29 36
-29 16 0 25 -7 29 -26 8 -30 30 -56 40 -47 3 4 6 -1 6 -9 0 -9 7 -21 15 -28 8
-7 15 -23 15 -35 0 -13 11 -33 25 -46 14 -14 25 -35 25 -51 0 -15 5 -30 11
-34 6 -3 8 -17 5 -29 -3 -13 -2 -27 4 -30 5 -3 10 -28 10 -56 l0 -49 -57 0
c-32 0 -63 4 -69 8 -6 4 -14 51 -17 106 -3 54 -10 102 -15 105 -6 3 -14 19
-17 34 -4 15 -11 27 -16 27 -5 0 -9 7 -9 15 0 8 -7 15 -15 15 -8 0 -15 5 -15
10 0 6 -9 10 -19 10 -10 0 -21 7 -25 15 -10 28 -141 10 -153 -21 -3 -8 -11
-14 -18 -14 -8 0 -17 -9 -20 -20 -3 -11 -12 -20 -19 -20 -14 0 -46 -51 -46
-73 0 -8 -7 -28 -15 -43 -16 -32 -20 -58 -7 -50 5 3 7 -8 4 -23 l-4 -28 -101
-7 c-56 -4 -103 -11 -105 -17 -2 -5 -10 -9 -19 -9 -10 0 -12 -6 -7 -22 3 -13
8 -25 10 -27 1 -2 51 2 111 9 59 7 122 13 138 14 44 2 59 22 66 91 3 35 12 84
20 109 12 41 18 48 56 62 24 9 43 21 43 25 0 5 18 9 39 9 37 0 40 -3 61 -47
12 -27 28 -60 36 -75 9 -17 12 -40 8 -65 -8 -53 11 -117 41 -137 13 -9 40 -16
59 -16 19 0 38 -4 41 -10 3 -5 17 -10 31 -10 33 0 44 -32 44 -127 l0 -76 -55
7 c-55 6 -84 -1 -112 -30 -7 -7 -18 -14 -24 -16 -14 -5 -4 -78 10 -78 9 0 8
-13 -4 -78 -11 -61 -50 -87 -128 -85 -86 3 -94 7 -107 63 -7 28 -16 50 -20 50
-5 0 -11 19 -15 43 -4 23 -17 57 -28 75 -21 31 -23 32 -77 26 -33 -4 -91 0
-147 10 -107 18 -127 15 -118 -23 4 -14 9 -29 13 -33 10 -9 220 -30 232 -23 9
6 40 -84 40 -117 0 -18 7 -30 41 -66 9 -9 18 -24 21 -33 6 -15 67 -33 159 -45
54 -7 118 10 137 38 7 10 22 18 33 18 12 0 19 7 19 20 0 18 17 57 30 70 14 14
30 81 25 102 -8 32 15 51 49 42 22 -5 26 -12 26 -43 -1 -42 -43 -257 -53 -267
-4 -4 -7 -22 -7 -41 0 -18 -4 -33 -10 -33 -5 0 -10 -9 -10 -20 0 -33 -113 -89
-225 -111 -76 -15 -301 7 -400 38 -154 50 -245 102 -343 200 -49 48 -101 99
-115 112 -39 33 -34 49 18 62 25 6 45 15 45 19 0 11 68 80 79 80 5 0 12 16 15
35 4 19 17 41 29 50 18 13 21 23 19 77 -3 69 -20 138 -34 138 -12 0 -38 26
-38 38 0 6 -13 13 -30 17 -16 4 -30 13 -30 21 0 8 -11 20 -25 26 -14 6 -25 14
-25 18 0 12 48 60 60 60 5 0 10 5 10 12 0 6 29 40 65 74 36 35 65 70 65 78 0
9 7 16 15 16 8 0 15 5 15 10 0 6 6 10 14 10 8 0 17 8 20 17 6 14 9 15 15 4 12
-18 73 10 201 94 52 34 102 64 110 68 34 13 215 7 255 -9z m9135 -43 c0 -6 9
-11 20 -11 11 0 20 -4 20 -10 0 -5 16 -10 35 -10 19 0 35 -4 35 -10 0 -5 9
-10 20 -10 11 0 20 -4 20 -10 0 -5 8 -10 19 -10 10 0 24 -7 31 -15 7 -8 19
-15 26 -15 8 0 14 -4 14 -10 0 -5 9 -10 19 -10 10 0 21 -7 25 -15 3 -8 17 -20
31 -25 14 -5 25 -15 25 -22 0 -7 14 -19 30 -26 17 -8 30 -20 30 -28 0 -8 7
-17 15 -20 8 -3 17 -14 20 -24 3 -11 15 -22 26 -25 10 -4 19 -13 19 -21 0 -8
4 -14 9 -14 4 0 23 -23 40 -52 31 -49 32 -53 15 -65 -10 -7 -25 -13 -34 -13
-21 0 -70 -23 -70 -32 0 -5 -6 -8 -14 -8 -8 0 -33 -18 -56 -39 l-43 -40 5 -83
c5 -88 21 -127 72 -183 14 -15 26 -32 26 -36 0 -5 7 -9 15 -9 8 0 15 -4 15
-10 0 -5 6 -10 14 -10 8 0 18 -5 21 -10 8 -13 -4 -50 -16 -50 -11 0 -49 -37
-49 -48 0 -8 -63 -73 -159 -165 -28 -27 -51 -51 -51 -54 0 -3 -22 -26 -50 -51
-27 -25 -50 -50 -50 -55 0 -5 -8 -17 -19 -26 -10 -9 -25 -29 -34 -46 -8 -16
-26 -40 -40 -53 -23 -22 -35 -24 -191 -29 -130 -5 -166 -3 -166 7 0 7 -7 10
-17 6 -23 -9 -114 19 -140 44 -12 11 -29 20 -37 20 -8 0 -18 9 -21 20 -3 11
-13 20 -20 20 -8 0 -17 11 -21 25 -3 14 -10 25 -14 25 -4 0 -11 17 -15 38 -4
20 -13 48 -20 62 -57 107 -79 224 -61 328 5 28 4 42 -3 42 -7 0 -11 25 -11 65
0 37 4 65 10 65 6 0 10 14 10 30 0 34 -4 33 112 34 l86 1 6 -35 c3 -19 6 -84
6 -145 0 -60 6 -129 13 -153 16 -52 61 -112 85 -112 10 0 27 -7 39 -15 24 -17
169 -20 179 -4 3 5 16 9 30 9 13 0 24 5 24 10 0 6 7 10 15 10 8 0 19 9 25 19
5 11 19 23 30 26 11 3 20 13 20 21 0 15 35 54 49 54 5 0 14 23 21 50 7 30 17
50 26 50 8 0 14 5 14 10 0 6 17 10 38 10 53 0 172 31 172 44 0 7 -6 20 -13 31
-11 14 -20 16 -43 10 -16 -5 -74 -8 -129 -7 -135 3 -142 -5 -171 -173 -7 -37
-36 -74 -60 -75 -6 0 -23 -11 -38 -25 -29 -27 -43 -30 -78 -16 -13 5 -35 12
-50 15 -19 5 -28 14 -33 37 -4 17 -15 39 -26 50 -16 16 -18 31 -15 103 2 47 0
88 -3 92 -18 18 8 423 29 449 4 6 10 21 12 35 2 17 10 26 26 28 12 2 22 8 22
13 0 13 57 11 66 -2 3 -6 17 -8 29 -5 33 8 85 -55 85 -102 0 -18 5 -53 11 -78
13 -52 37 -63 102 -45 55 15 137 18 215 7 61 -8 62 -8 62 16 0 41 -17 48 -120
48 -111 0 -140 14 -140 68 0 17 -6 32 -15 36 -8 3 -15 17 -15 31 0 16 -6 25
-15 25 -8 0 -15 5 -15 11 0 17 -27 39 -47 39 -11 0 -24 5 -31 12 -14 14 -112
12 -126 -3 -6 -5 -21 -9 -35 -9 -15 -1 -44 -9 -66 -20 -54 -26 -85 -25 -114 6
-24 25 -26 25 -39 7 -9 -12 -12 -33 -8 -65 4 -29 2 -49 -4 -53 -8 -5 -7 -11 1
-21 7 -9 9 -36 5 -81 -3 -38 -6 -89 -5 -115 l0 -48 -101 0 -100 0 0 32 c0 77
35 208 56 208 10 0 26 50 41 123 3 15 14 32 23 37 10 6 22 20 26 32 9 30 26
46 59 54 15 4 30 15 33 26 2 10 15 21 28 24 12 3 30 16 38 29 19 30 75 39 253
43 89 2 133 0 133 -7z m-3035 -915 c8 -7 11 -23 8 -35 -3 -12 -1 -21 6 -21 6
0 11 -6 11 -14 0 -8 7 -16 15 -20 8 -3 15 -15 15 -26 0 -13 7 -20 20 -20 11 0
20 -7 20 -15 0 -8 9 -15 20 -15 11 0 20 -5 20 -11 0 -13 123 -2 128 12 2 5 17
9 33 9 33 0 45 7 98 63 37 38 71 43 71 11 0 -8 7 -14 15 -14 8 0 15 -7 15 -15
0 -8 7 -15 15 -15 8 0 15 -7 15 -15 0 -8 9 -15 20 -15 11 0 20 -6 20 -14 0 -8
12 -24 26 -37 15 -13 40 -36 56 -51 16 -16 33 -28 37 -28 4 0 15 -13 24 -30
10 -16 24 -30 31 -30 7 0 19 -11 26 -25 7 -14 17 -25 22 -25 4 0 33 -25 64
-55 31 -30 63 -55 70 -55 8 0 14 -7 14 -15 0 -8 4 -15 10 -15 5 0 12 -11 16
-25 3 -14 11 -25 16 -25 17 0 3 -180 -16 -215 -9 -16 -16 -47 -16 -67 0 -21
-4 -38 -10 -38 -5 0 -10 -8 -10 -18 0 -10 -5 -23 -12 -30 -6 -6 -23 -35 -37
-64 -18 -37 -33 -54 -48 -56 -13 -2 -23 -7 -23 -12 0 -4 -12 -11 -27 -15 -16
-4 -36 -15 -46 -26 -10 -10 -25 -19 -34 -19 -9 0 -24 -6 -32 -13 -9 -7 -36
-19 -61 -26 -25 -7 -58 -20 -75 -29 -21 -12 -63 -18 -146 -20 l-116 -4 -5 73
c-8 100 -6 102 57 94 38 -4 64 -2 90 9 21 9 59 16 85 16 33 0 50 5 54 15 3 8
14 15 25 15 29 0 51 11 51 25 0 7 7 15 15 19 9 3 15 18 15 34 0 16 7 36 16 43
14 11 16 32 12 138 -3 85 -8 126 -16 129 -7 2 -12 9 -12 17 0 7 -19 28 -41 46
-33 27 -53 35 -98 39 -55 5 -56 6 -61 40 -4 20 -10 41 -14 48 -4 7 -3 12 2 12
5 0 12 21 15 48 6 52 -11 82 -45 82 -10 0 -22 -8 -25 -17 -4 -10 -11 -21 -17
-25 -6 -4 -10 -36 -10 -75 1 -37 2 -91 3 -119 1 -44 4 -52 26 -64 22 -12 31
-12 58 -1 51 21 80 23 107 6 14 -8 32 -17 41 -21 16 -5 30 -44 44 -121 4 -18
3 -53 0 -78 -7 -42 -11 -47 -51 -65 -23 -11 -51 -20 -61 -20 -10 0 -27 -7 -37
-15 -11 -8 -36 -15 -55 -15 -20 0 -67 -7 -105 -14 -110 -23 -133 -60 -143
-227 l-4 -77 -42 -4 c-23 -3 -58 -3 -77 -1 l-36 5 -2 115 c-1 63 -6 122 -11
130 -12 23 -78 43 -143 43 -32 0 -58 4 -58 8 0 5 -18 17 -40 27 -22 10 -40 22
-40 27 0 4 -7 8 -15 8 -12 0 -15 14 -15 70 0 39 4 70 9 70 5 0 11 8 13 18 3
12 26 24 67 37 33 10 61 22 61 27 0 4 20 8 45 8 29 0 45 4 45 13 0 6 11 22 24
34 25 24 35 68 41 188 2 39 5 78 7 89 4 24 -43 60 -68 52 -20 -6 -49 -56 -33
-56 5 0 9 -25 9 -55 0 -60 -22 -95 -60 -95 -11 0 -37 -9 -57 -20 -21 -11 -43
-20 -50 -20 -7 0 -13 -5 -13 -11 0 -13 -25 -39 -37 -39 -16 0 -53 -49 -53 -69
0 -11 -4 -23 -10 -26 -5 -3 -10 -46 -10 -94 0 -67 4 -92 15 -101 8 -7 15 -23
15 -36 0 -18 9 -28 40 -41 22 -10 40 -23 40 -30 0 -7 11 -13 25 -13 14 0 25
-4 25 -10 0 -5 7 -10 15 -10 8 0 23 -4 33 -9 9 -6 38 -13 64 -16 26 -3 50 -10
53 -16 4 -5 9 -53 12 -106 l5 -98 -151 3 c-87 2 -151 7 -151 13 0 5 -10 9 -23
9 -26 0 -77 21 -77 33 0 4 -8 7 -19 7 -45 0 -186 126 -201 179 -13 48 -13 341
0 341 6 0 10 22 10 49 0 48 2 52 75 126 41 43 75 81 75 85 0 4 13 13 29 20 16
6 31 21 34 32 3 11 15 22 26 25 12 3 21 11 21 17 0 22 101 116 126 116 8 0 14
8 14 18 0 23 19 42 42 42 10 0 18 7 18 16 0 22 50 69 83 77 15 4 27 14 27 22
0 13 26 34 43 35 5 0 15 -6 22 -14z m-3855 -64 c0 -22 53 -127 76 -154 24 -26
72 -48 105 -48 15 0 31 -5 35 -11 7 -12 121 -3 139 11 6 4 29 13 52 20 30 9
50 25 74 56 32 43 69 59 69 29 0 -8 7 -15 15 -15 8 0 15 -7 15 -15 0 -8 7 -15
15 -15 8 0 15 -4 15 -10 0 -5 7 -10 15 -10 8 0 15 -7 15 -15 0 -8 5 -15 10
-15 6 0 10 -6 10 -14 0 -8 10 -16 23 -18 15 -2 29 -17 42 -45 11 -24 24 -43
29 -43 6 0 27 -18 47 -40 21 -22 40 -40 44 -40 12 0 35 -28 35 -42 0 -8 16
-20 35 -28 19 -8 35 -20 35 -27 0 -7 5 -13 10 -13 13 0 13 -47 -1 -56 -6 -3
-8 -16 -5 -28 8 -33 -10 -315 -22 -329 -5 -6 -12 -34 -15 -62 -12 -104 -18
-125 -38 -125 -10 0 -19 -6 -19 -13 0 -7 -25 -40 -55 -74 -47 -51 -64 -63
-105 -73 -28 -7 -50 -15 -50 -20 0 -12 -112 -18 -141 -8 -30 10 -39 32 -39 94
0 48 15 58 104 69 31 4 59 11 62 16 3 5 16 9 30 9 16 0 24 6 24 18 0 10 13 25
29 35 37 22 57 88 54 186 -1 64 -5 77 -25 95 -13 12 -28 30 -34 40 -6 11 -25
24 -42 30 -17 6 -40 18 -51 27 -10 10 -33 20 -50 24 -26 5 -31 11 -31 36 0 16
-4 29 -9 29 -6 0 -10 30 -9 68 2 128 -17 222 -46 222 -3 0 -17 -12 -31 -26
l-25 -25 5 -158 c2 -87 7 -165 11 -175 3 -9 17 -16 30 -16 13 0 24 -4 24 -9 0
-5 25 -12 56 -16 33 -4 57 -12 61 -21 3 -8 14 -14 24 -14 10 0 19 -7 19 -15 0
-8 6 -15 14 -15 8 0 28 -16 45 -35 25 -29 30 -41 24 -63 -3 -15 -15 -33 -25
-40 -10 -7 -18 -21 -18 -31 0 -23 -19 -41 -45 -41 -12 0 -30 -9 -40 -20 -14
-16 -31 -20 -81 -20 -35 0 -84 -5 -109 -12 l-45 -12 -2 -51 c-3 -74 1 -118 11
-124 4 -3 12 -16 15 -29 13 -41 -8 -52 -99 -52 -97 0 -95 -2 -95 119 0 40 -5
91 -12 112 l-11 39 -73 0 c-68 0 -162 17 -174 31 -3 3 -21 14 -40 25 -48 27
-60 39 -60 65 0 26 50 109 66 109 7 0 14 8 16 18 3 10 31 27 71 42 37 13 67
30 67 37 0 7 11 13 25 13 43 0 53 32 54 170 1 69 4 144 7 167 6 39 4 43 -20
49 -34 8 -66 -19 -66 -55 1 -61 -8 -197 -15 -213 -5 -12 -18 -18 -37 -18 -16
0 -36 -7 -44 -15 -9 -8 -24 -15 -34 -15 -20 0 -77 -54 -86 -82 -3 -10 -10 -18
-15 -18 -5 0 -9 -6 -9 -12 0 -7 -6 -24 -13 -38 -21 -39 -28 -118 -16 -163 14
-53 50 -107 71 -107 9 0 20 -4 23 -10 3 -5 15 -10 26 -10 10 0 19 -4 19 -8 0
-5 41 -14 90 -21 l90 -13 0 -53 c0 -33 5 -55 13 -58 9 -4 9 -7 -1 -15 -7 -5
-10 -15 -8 -23 3 -8 -5 -26 -17 -41 -21 -26 -24 -26 -67 -16 -25 6 -65 10 -90
9 -52 -2 -160 24 -175 42 -5 7 -22 18 -37 26 -16 8 -28 20 -28 28 0 7 -10 13
-22 13 -13 0 -34 12 -47 25 -13 14 -27 25 -32 25 -5 0 -11 11 -15 25 -3 14
-10 25 -15 25 -5 0 -9 7 -9 15 0 8 -12 18 -26 21 -14 4 -39 19 -54 34 -24 24
-30 40 -39 116 -22 181 -8 374 29 406 11 9 20 19 20 22 0 3 10 16 23 29 12 13
34 37 48 53 47 52 138 134 149 134 5 0 18 17 27 38 9 21 29 46 45 55 15 9 28
23 28 31 0 8 8 17 18 21 11 3 33 26 51 50 18 25 36 45 42 45 5 0 19 11 31 25
25 29 58 33 58 7z m-3232 -49 c2 -13 23 -34 53 -53 27 -18 49 -38 49 -45 0 -7
9 -15 20 -18 12 -3 20 -14 20 -25 0 -14 14 -28 40 -43 22 -12 42 -31 46 -41 3
-11 17 -24 30 -30 13 -6 24 -18 24 -26 0 -7 9 -16 20 -19 11 -3 24 -20 30 -39
6 -19 20 -40 31 -48 16 -11 21 -29 26 -87 3 -41 9 -78 13 -84 4 -5 13 -50 19
-100 10 -75 10 -102 -2 -160 -17 -81 -40 -144 -54 -154 -6 -3 -16 -24 -24 -46
-17 -52 -103 -138 -153 -155 -50 -16 -188 -9 -209 11 -11 11 -14 41 -13 124
l1 109 67 20 c66 21 118 57 118 83 0 8 7 16 15 19 8 4 15 15 15 25 0 10 5 19
10 19 16 0 12 108 -5 140 -9 17 -20 30 -25 30 -6 0 -10 7 -10 15 0 8 -4 15
-10 15 -5 0 -22 13 -38 28 -21 21 -45 31 -88 38 l-59 9 -3 70 c-1 39 -2 96 -3
127 0 32 -4 60 -9 63 -6 4 -10 17 -10 30 0 13 -5 27 -11 31 -6 3 -8 17 -5 29
3 13 2 27 -4 30 -13 8 -13 55 0 55 6 0 15 12 21 27 21 56 61 71 67 26z m10730
14 c6 -7 15 -32 21 -56 5 -24 14 -47 19 -50 5 -3 15 -23 22 -44 6 -21 18 -41
26 -44 8 -3 14 -11 14 -19 0 -8 9 -14 20 -14 11 0 20 -5 20 -11 0 -20 218 -5
257 17 18 11 33 24 33 30 0 6 11 17 25 24 22 12 25 20 25 65 0 28 5 56 12 63
15 15 58 16 58 1 0 -15 71 -85 82 -81 4 1 8 -5 8 -13 0 -8 5 -15 10 -15 6 0
10 -7 10 -15 0 -8 6 -15 13 -15 7 0 21 -13 30 -30 10 -16 23 -30 28 -30 15 0
39 -26 39 -43 0 -9 13 -18 29 -22 15 -3 34 -17 41 -30 7 -14 21 -27 32 -31 10
-3 21 -16 24 -30 3 -13 14 -24 23 -24 20 -1 51 -24 51 -39 0 -6 4 -11 9 -11 5
0 13 -15 17 -32 3 -18 17 -42 29 -54 18 -16 24 -37 31 -110 15 -153 1 -292
-37 -364 -20 -38 -39 -84 -39 -94 0 -6 -10 -23 -23 -38 -23 -26 -24 -26 -201
-33 -136 -6 -183 -5 -201 5 -17 9 -28 10 -37 3 -7 -6 -56 -11 -108 -11 -52 0
-140 -6 -195 -13 -55 -6 -184 -14 -287 -16 -163 -3 -197 -1 -269 17 -45 11
-92 20 -104 20 -39 0 -95 88 -95 149 0 15 -9 37 -19 48 -18 19 -20 33 -16 140
6 185 29 313 58 313 4 0 7 7 7 15 0 8 9 20 20 27 11 7 20 21 20 30 0 10 6 18
13 18 12 0 67 56 67 69 0 9 38 41 50 41 6 0 10 5 10 11 0 6 15 25 33 43 18 18
36 40 40 49 3 9 13 17 22 17 8 0 15 5 15 10 0 6 7 10 16 10 9 0 14 6 12 12 -3
7 0 19 6 26 26 32 162 172 167 172 4 0 11 -6 17 -13z m-11248 -98 l42 -40 -7
-105 c-4 -61 -11 -104 -17 -104 -7 0 -8 -19 -4 -55 6 -54 6 -55 -21 -61 -16
-3 -37 -9 -48 -14 -11 -5 -31 -11 -45 -14 -40 -9 -115 -85 -135 -139 -10 -26
-22 -50 -26 -53 -12 -7 -11 -79 0 -102 5 -9 14 -39 20 -65 10 -44 22 -59 78
-107 7 -5 19 -10 28 -10 8 0 15 -6 15 -14 0 -17 57 -27 131 -23 59 3 79 -14
79 -64 0 -21 5 -50 10 -65 9 -23 8 -31 -8 -46 -17 -18 -21 -18 -121 -1 -56 10
-110 25 -119 33 -9 9 -36 21 -59 28 -25 8 -43 19 -43 27 0 8 -4 15 -10 15 -5
0 -10 7 -10 15 0 8 -7 15 -16 15 -21 0 -54 38 -54 62 0 10 -7 18 -15 18 -8 0
-15 7 -15 15 0 9 -22 38 -50 66 -27 28 -50 59 -50 70 0 11 -4 27 -9 37 -21 41
-31 93 -31 159 l0 71 58 63 c31 34 78 84 105 110 26 26 47 52 47 58 0 6 7 11
15 11 9 0 19 8 22 18 4 9 26 35 50 58 24 22 43 46 43 52 0 13 55 72 68 72 5 0
14 11 20 25 16 35 32 31 82 -16z m348 -91 c7 -7 12 -39 12 -72 1 -100 18 -246
31 -262 6 -8 20 -14 30 -14 11 0 19 -4 19 -10 0 -5 19 -18 43 -29 25 -12 58
-40 82 -70 22 -28 43 -51 47 -51 5 0 8 -27 8 -60 0 -47 -3 -60 -15 -60 -9 0
-27 -11 -40 -24 -20 -20 -31 -23 -67 -19 -35 4 -47 1 -62 -16 -11 -12 -25 -21
-33 -21 -7 0 -14 -1 -15 -2 0 -2 -4 -68 -7 -148 l-6 -145 -86 -3 -85 -3 -12
64 c-7 35 -12 91 -12 125 0 44 -4 61 -15 66 -8 3 -51 3 -95 -1 -57 -4 -80 -3
-80 6 0 6 -7 11 -15 11 -17 0 -44 20 -90 68 -26 26 -34 46 -40 87 -7 63 7 125
35 150 11 10 20 24 20 31 0 24 80 66 129 68 36 1 52 8 74 29 27 28 36 62 17
69 -13 4 -16 73 -7 148 3 30 6 61 7 68 0 8 21 12 68 13 37 1 78 5 92 9 37 12
55 11 68 -2z m4476 -378 c14 -5 38 -28 53 -51 15 -22 37 -45 49 -49 13 -5 25
-21 28 -37 4 -19 17 -33 36 -42 17 -7 30 -19 30 -27 0 -8 3 -14 8 -14 12 0 58
-44 65 -62 3 -10 13 -18 22 -18 8 0 15 -4 15 -10 0 -5 5 -10 10 -10 13 0 50
-37 50 -50 0 -5 7 -10 15 -10 8 0 15 -7 15 -15 0 -8 5 -15 10 -15 13 0 100
-88 100 -101 0 -5 8 -9 19 -9 10 0 21 -9 24 -21 3 -11 15 -23 26 -26 12 -3 21
-12 21 -19 0 -8 9 -14 19 -14 12 0 21 -9 25 -25 4 -16 13 -25 26 -25 13 0 20
-7 20 -20 0 -13 7 -20 20 -20 11 0 20 -5 20 -11 0 -14 25 -39 39 -39 6 0 11
-6 11 -13 0 -7 9 -19 20 -27 11 -8 20 -20 20 -26 0 -7 14 -17 30 -23 17 -5 30
-17 30 -25 0 -9 8 -16 18 -16 12 0 17 -9 18 -30 l1 -30 -571 5 c-314 3 -728 8
-921 11 -192 3 -354 5 -360 5 -5 -1 -224 -3 -485 -4 -303 -2 -480 0 -488 6 -8
7 -133 8 -352 4 -187 -4 -340 -4 -340 0 1 5 19 24 41 43 22 19 54 50 72 69
109 115 155 161 166 161 6 0 11 9 11 20 0 11 7 20 15 20 8 0 15 7 15 15 0 9
11 21 25 27 14 6 25 20 25 30 0 13 10 20 31 25 17 3 33 13 37 22 3 9 20 30 36
47 17 17 53 54 79 82 27 29 55 52 61 52 7 0 19 11 26 25 7 14 17 25 22 25 4 0
8 7 8 15 0 8 4 15 9 15 5 0 23 14 39 30 17 16 35 30 41 30 6 0 11 5 11 11 0
13 78 89 91 89 5 0 6 -50 2 -121 -4 -82 -3 -123 5 -127 14 -10 -1 -89 -22
-110 -15 -15 -20 -15 -71 3 l-56 18 -34 -33 c-19 -19 -37 -42 -40 -51 -9 -28
12 -92 45 -137 32 -44 38 -77 18 -85 -7 -2 -52 -2 -100 1 -85 5 -88 4 -88 -17
0 -12 8 -24 18 -27 9 -3 25 -10 34 -15 10 -5 27 -9 37 -9 11 0 23 -4 26 -10 3
-5 39 -10 80 -10 41 0 77 -5 80 -10 4 -7 24 -8 51 -4 29 4 49 2 59 -6 9 -8 29
-10 49 -7 19 3 37 3 39 0 11 -10 956 -4 1107 8 123 10 179 10 271 0 96 -11
120 -10 138 1 17 10 25 10 41 1 14 -9 80 -12 251 -9 251 5 266 8 254 57 -9 37
-49 47 -159 41 -82 -4 -96 -2 -102 12 -3 9 1 27 10 41 19 29 22 134 5 201 -9
35 -17 46 -38 51 -14 3 -28 10 -31 14 -8 12 -160 22 -160 11 0 -15 -32 -24
-44 -12 -7 7 -6 14 2 22 7 7 12 36 12 65 0 30 5 53 10 53 7 0 10 44 9 123 -1
67 -1 125 0 130 1 9 5 9 35 -3z m3939 -55 c37 -36 67 -70 67 -75 0 -6 3 -10 8
-10 4 0 24 -15 44 -33 21 -17 49 -41 63 -52 14 -11 25 -26 25 -32 0 -7 7 -13
15 -13 8 0 15 -7 15 -15 0 -8 7 -15 15 -15 8 0 15 -4 15 -10 0 -5 6 -10 13
-10 6 0 21 -14 32 -30 11 -16 24 -30 28 -30 12 0 37 -27 37 -39 0 -6 9 -11 20
-11 11 0 20 -5 20 -11 0 -12 81 -99 92 -99 4 0 32 -25 63 -55 30 -30 60 -55
65 -55 6 0 10 -4 10 -9 0 -5 9 -11 20 -14 11 -3 25 -18 30 -34 14 -36 67 -82
103 -90 15 -3 27 -12 27 -19 0 -8 7 -14 15 -14 14 0 43 -75 33 -85 -8 -8 -120
-13 -465 -21 -245 -5 -313 -4 -313 6 0 12 -28 11 -150 -8 -37 -5 -63 -4 -80 4
-18 8 -112 9 -350 3 -515 -12 -839 -12 -855 1 -9 8 -120 9 -397 4 -539 -10
-655 -10 -803 1 -71 5 -160 8 -197 7 -73 -3 -92 9 -59 37 12 10 21 23 21 30 0
6 4 11 8 11 4 0 34 25 66 55 31 30 64 55 72 55 8 0 14 5 14 10 0 6 5 10 11 10
11 0 59 46 59 56 0 10 28 34 39 34 6 0 11 6 11 13 0 8 11 20 25 27 14 7 25 19
25 27 0 7 6 13 13 13 7 0 50 43 97 95 46 52 103 109 127 127 24 17 43 37 43
43 0 6 11 18 25 25 14 7 25 19 25 27 0 7 4 13 9 13 4 0 35 27 67 60 32 33 64
60 71 60 7 0 13 7 13 15 0 8 9 19 20 25 11 6 20 17 20 25 0 9 9 15 21 15 23 0
23 -12 3 -152 -4 -28 -2 -53 4 -60 5 -7 13 -51 17 -98 4 -52 13 -92 22 -102
28 -32 -13 -54 -43 -23 -9 8 -24 15 -35 15 -10 0 -19 5 -19 10 0 6 -9 10 -20
10 -12 0 -42 11 -68 25 -56 30 -92 33 -92 8 0 -24 69 -90 103 -98 15 -4 27
-13 27 -21 0 -8 10 -14 25 -14 14 0 25 -4 25 -10 0 -5 9 -10 20 -10 11 0 20
-7 20 -15 0 -12 -20 -15 -118 -15 -78 0 -122 -4 -130 -12 -16 -16 -15 -28 3
-28 8 0 15 -4 15 -10 0 -5 7 -10 15 -10 8 0 15 -4 15 -8 0 -10 205 -30 325
-31 50 0 92 -1 95 -2 7 -2 95 -6 350 -14 124 -4 230 -11 236 -16 8 -7 392 -14
544 -10 135 3 345 -1 350 -8 3 -4 101 -8 219 -10 137 -1 219 -6 228 -12 17
-15 63 -3 63 17 0 8 7 17 15 20 8 4 15 19 15 35 0 39 -28 51 -106 47 -41 -2
-68 2 -76 10 -7 7 -39 12 -80 12 -37 0 -68 4 -68 9 0 5 24 17 53 26 28 10 57
23 62 29 6 7 27 20 47 29 57 27 61 43 24 93 -22 31 -38 43 -57 43 -32 1 -89
-17 -110 -35 -8 -8 -27 -14 -42 -14 -14 0 -29 -4 -32 -10 -3 -5 -17 -10 -29
-10 -13 0 -35 -9 -49 -20 -14 -11 -34 -20 -44 -20 -10 0 -24 -5 -30 -11 -18
-18 -43 -2 -43 26 0 14 5 25 10 25 6 0 10 8 10 19 0 10 7 24 15 31 8 7 15 25
15 41 0 16 4 29 10 29 5 0 12 23 16 50 4 28 11 53 15 56 5 3 9 23 9 45 0 21 4
39 9 39 5 0 12 21 15 48 15 104 28 106 119 17z m-7658 15 c22 -17 47 -33 56
-36 9 -3 22 -17 28 -30 6 -14 19 -24 31 -24 11 0 20 -7 20 -15 0 -9 8 -18 18
-22 20 -7 67 -54 75 -77 4 -9 13 -16 21 -16 7 0 21 -11 30 -25 9 -14 23 -25
31 -25 9 0 15 -9 15 -21 0 -13 8 -23 21 -26 11 -3 25 -16 30 -29 4 -13 15 -24
23 -24 7 0 16 -7 20 -15 3 -8 12 -15 21 -15 8 0 15 -4 15 -8 0 -14 82 -102 96
-102 7 0 19 -9 27 -20 8 -11 17 -17 21 -12 4 4 6 2 5 -3 -5 -16 20 -55 36 -55
19 0 75 -55 75 -75 0 -8 9 -15 20 -15 11 0 20 -7 20 -15 0 -8 5 -15 12 -15 15
0 88 -80 88 -97 0 -7 9 -13 19 -13 16 0 38 -27 29 -36 -2 -1 -82 -4 -177 -5
-129 -2 -176 0 -179 9 -5 15 -47 15 -72 0 -15 -9 -24 -9 -43 1 -14 7 -30 10
-37 6 -9 -5 -2452 -20 -2485 -14 -5 1 -103 3 -217 6 -200 4 -208 5 -208 24 0
11 7 22 15 25 8 3 20 21 26 39 7 18 25 40 41 49 15 10 28 23 28 29 0 7 14 18
30 25 17 8 30 20 30 27 0 7 16 28 36 47 19 18 49 45 65 61 16 15 33 27 38 27
5 0 11 9 14 20 3 11 12 20 21 20 9 0 16 5 16 10 0 6 7 10 15 10 8 0 15 4 15 9
0 5 9 11 20 14 11 3 24 17 30 31 5 14 14 26 20 26 12 0 75 57 169 155 26 28
64 65 84 83 20 18 37 37 37 42 0 12 33 30 54 30 9 0 16 -7 16 -16 0 -8 7 -22
15 -30 10 -10 15 -35 15 -70 l0 -54 -63 0 c-60 0 -65 -2 -99 -37 -32 -33 -38
-47 -44 -100 -5 -44 -3 -63 5 -63 6 0 11 -11 11 -25 0 -30 17 -62 45 -86 37
-32 8 -40 -161 -42 -159 -3 -184 -7 -184 -31 0 -34 33 -43 135 -41 55 2 224 3
375 4 151 0 291 1 310 1 19 0 56 -5 81 -11 26 -7 55 -9 64 -5 10 4 204 9 431
11 272 3 421 8 440 16 34 13 734 29 749 17 23 -20 135 2 135 25 -1 32 -18 36
-213 43 -218 8 -219 8 -172 70 30 39 36 124 10 124 -8 0 -15 6 -15 13 -1 33
-109 77 -190 77 -70 0 -72 3 -65 110 2 41 5 101 5 133 0 68 13 73 75 27z
m11330 -70 c3 -5 14 -10 24 -10 11 0 24 -12 31 -30 7 -16 18 -30 25 -30 13 0
30 -28 26 -44 -2 -10 26 -33 57 -46 12 -5 22 -16 22 -25 0 -8 7 -15 15 -15 7
0 18 -6 22 -13 4 -7 23 -23 41 -36 18 -13 38 -34 43 -48 5 -13 22 -29 39 -34
16 -6 27 -15 24 -20 -3 -5 2 -9 10 -9 9 0 16 -5 16 -11 0 -14 164 -179 178
-179 6 0 21 -14 34 -31 13 -17 54 -63 92 -102 53 -53 71 -80 76 -109 l7 -38
-111 -1 c-61 -1 -133 -2 -159 -3 -27 -1 -50 1 -52 4 -2 4 -416 6 -920 5 -504
-1 -918 1 -920 5 -7 11 -1037 -3 -1150 -16 -37 -4 -46 -3 -35 5 12 9 11 11 -9
11 -17 0 -22 4 -17 16 3 9 6 24 6 35 0 10 7 19 15 19 8 0 15 5 15 11 0 14 25
39 39 39 6 0 11 9 11 20 0 11 7 20 15 20 8 0 15 9 15 20 0 11 6 20 13 20 17 0
44 24 79 70 14 19 34 43 44 52 11 9 33 31 51 47 18 17 37 31 42 31 6 0 15 9
21 19 5 11 19 23 30 26 11 4 20 15 20 26 0 11 7 22 15 25 8 4 15 13 15 20 0 8
11 20 25 26 14 6 25 17 25 25 0 7 7 16 15 19 8 4 15 11 15 16 0 13 47 58 61
58 5 0 12 13 15 29 4 17 16 33 30 40 13 6 24 15 24 21 0 5 5 10 12 10 6 0 20
8 31 17 18 17 20 17 33 -2 10 -13 13 -28 8 -45 -15 -48 -9 -203 9 -247 9 -23
14 -49 12 -58 -16 -50 -14 -48 -38 -33 -12 8 -37 18 -54 21 -45 9 -44 -15 3
-58 56 -52 45 -69 -46 -75 -71 -5 -75 -6 -78 -30 -2 -14 -8 -30 -12 -35 -13
-15 1 -31 35 -40 35 -9 1085 -8 1163 1 29 3 55 10 58 15 3 5 209 9 462 9 464
0 524 4 550 38 10 14 6 18 -35 34 -27 10 -63 18 -82 18 l-34 0 6 54 c4 43 2
56 -10 60 -23 9 -30 7 -48 -10 -8 -9 -22 -13 -30 -10 -18 7 -19 51 -2 166 13
88 14 219 2 258 -7 22 8 32 20 12z"/>
<path d="M15191 1724 c-17 -20 -21 -33 -16 -53 13 -48 17 -127 8 -160 -8 -29
-13 -34 -45 -37 -20 -1 -50 -10 -67 -18 -16 -9 -37 -16 -46 -16 -8 0 -15 -7
-15 -15 0 -8 -4 -15 -10 -15 -5 0 -10 -7 -10 -15 0 -9 -7 -18 -15 -21 -8 -4
-15 -12 -15 -20 0 -8 -4 -14 -9 -14 -15 0 -31 -116 -20 -152 5 -18 9 -49 9
-70 0 -34 -2 -37 -32 -40 -30 -3 -33 -6 -33 -38 l0 -35 100 -5 c55 -4 105 -9
112 -13 10 -6 190 -20 258 -20 61 1 253 21 265 28 10 6 245 33 303 35 12 0 17
8 17 29 0 25 -5 31 -30 36 -17 4 -64 4 -105 0 -74 -7 -75 -7 -75 16 0 13 7 37
15 53 24 46 19 143 -10 204 -14 29 -30 52 -35 52 -6 0 -10 5 -10 12 0 12 -58
68 -71 68 -4 0 -10 39 -14 87 -8 86 -19 113 -48 113 -26 0 -35 -23 -41 -100
-9 -114 -1 -138 58 -187 8 -7 18 -13 21 -13 15 0 32 -30 49 -85 27 -91 28
-105 8 -170 -14 -46 -24 -63 -46 -73 -36 -18 -277 -36 -359 -28 -59 7 -70 11
-96 42 -17 19 -35 34 -41 34 -5 0 -12 11 -16 25 -3 14 -10 25 -14 25 -14 0
-22 75 -14 126 5 38 16 57 46 87 37 37 43 39 84 33 50 -6 74 0 74 20 0 8 3 14
8 14 4 0 13 12 19 27 14 29 6 203 -8 203 -5 0 -9 16 -9 35 0 32 -3 35 -28 35
-18 0 -37 -10 -51 -26z"/>
</g>
</svg>
