<?xml version="1.0" standalone="no"?>
<!DOCTYPE svg PUBLIC "-//W3C//DTD SVG 20010904//EN"
 "http://www.w3.org/TR/2001/REC-SVG-20010904/DTD/svg10.dtd">
<svg version="1.0" xmlns="http://www.w3.org/2000/svg"
 width="1633.000000pt" height="480.000000pt" viewBox="0 0 1633.000000 480.000000"
 preserveAspectRatio="xMidYMid meet">
<metadata>
Created by potrace 1.13, written by Peter Selinger 2001-2015
</metadata>
<g transform="translate(0.000000,480.000000) scale(0.100000,-0.100000)"
fill="#000000" stroke="none">
<path d="M16213 4721 c-13 -11 -23 -24 -23 -29 0 -17 -42 -22 -205 -22 -125
-1 -164 -4 -179 -15 -11 -8 -32 -15 -48 -15 -15 0 -28 -4 -28 -10 0 -5 -13
-10 -28 -10 -21 0 -39 -12 -70 -47 -23 -25 -42 -52 -42 -60 0 -7 -4 -13 -9
-13 -5 0 -11 -32 -13 -71 -2 -47 -8 -73 -18 -79 -12 -8 -13 -13 -2 -30 6 -11
12 -27 12 -36 0 -9 8 -29 17 -45 9 -15 13 -32 9 -36 -4 -4 -588 -12 -1298 -17
-1063 -7 -1292 -6 -1299 5 -6 10 -13 11 -31 1 -21 -10 -187 -16 -333 -11 -27
1 -59 -1 -71 -5 -14 -5 -26 -2 -36 7 -15 15 -63 12 -74 -4 -7 -11 -321 -12
-328 -1 -8 13 -289 12 -304 0 -8 -7 -59 -8 -150 -4 -155 8 -484 8 -1567 1
-2184 -15 -2397 -16 -2408 -7 -7 5 -58 6 -122 2 -60 -4 -117 -4 -126 1 -9 4
-63 6 -120 2 -57 -3 -216 -5 -354 -5 -137 1 -376 1 -530 1 -154 -1 -649 -3
-1100 -4 -451 -2 -860 -3 -910 -3 -49 0 -110 0 -135 0 -25 0 -205 0 -400 0
-195 0 -440 0 -543 0 -105 -1 -194 -5 -200 -10 -12 -10 -275 1 -324 13 -13 3
-23 1 -23 -6 0 -7 -77 -9 -267 -5 -148 3 -275 6 -283 6 -8 0 -52 -3 -97 -6
-51 -4 -95 -2 -115 5 -20 7 -34 8 -38 2 -7 -12 -179 -9 -197 2 -7 5 -30 5 -50
1 -21 -4 -74 -7 -118 -7 -44 0 -83 -4 -86 -9 -3 -5 -33 -4 -72 2 -49 9 -79 9
-122 0 -31 -6 -73 -9 -93 -6 -68 11 -246 15 -252 6 -3 -5 -36 -5 -80 1 -41 5
-100 6 -131 3 -65 -7 -81 4 -50 38 12 12 21 34 21 50 0 15 4 28 9 28 12 0 24
107 14 122 -4 7 -15 35 -23 62 -8 27 -24 54 -35 60 -11 6 -23 16 -28 23 -4 6
-21 14 -37 18 -17 4 -30 13 -30 21 0 9 -11 14 -30 14 -16 0 -30 5 -30 10 0 6
-26 10 -59 10 -33 0 -63 5 -67 11 -4 8 -26 9 -68 3 -70 -9 -173 -6 -195 5 -9
5 -30 11 -47 14 l-31 6 -6 -96 c-4 -54 -12 -100 -18 -104 -17 -10 -17 -289 -1
-361 7 -32 19 -58 26 -58 6 0 19 -13 29 -29 11 -18 29 -32 48 -36 17 -4 33
-13 36 -21 11 -29 180 -6 239 32 13 9 32 13 43 9 16 -5 18 -12 14 -48 -4 -23
-10 -43 -14 -45 -14 -6 -10 -39 6 -56 14 -13 14 -19 3 -38 -10 -18 -12 -111
-11 -423 1 -220 4 -879 7 -1465 2 -586 4 -1076 4 -1090 1 -111 -2 -130 -20
-136 -11 -3 -29 1 -42 10 -59 38 -228 61 -239 32 -3 -8 -19 -17 -36 -21 -19
-4 -37 -18 -48 -36 -10 -16 -23 -29 -29 -29 -7 0 -19 -26 -26 -57 -16 -73 -16
-352 1 -362 6 -4 14 -50 18 -104 l6 -96 31 6 c17 3 40 10 50 16 10 5 72 9 137
8 66 0 121 4 124 9 3 6 33 10 66 10 33 0 59 4 59 10 0 6 14 10 30 10 19 0 30
5 30 14 0 8 13 17 30 21 16 4 33 12 37 18 5 7 17 17 28 23 11 6 27 33 35 60 8
27 19 54 23 61 10 15 -2 113 -14 113 -5 0 -9 13 -9 28 0 16 -9 38 -21 51 -35
38 -18 55 49 47 31 -3 91 -2 132 3 44 6 77 6 80 1 6 -9 184 -5 252 6 20 3 62
0 93 -6 43 -9 73 -9 122 0 37 6 69 7 72 3 7 -11 239 -16 255 -6 18 11 190 13
196 2 4 -6 18 -5 38 2 20 7 64 9 115 5 45 -3 89 -6 97 -6 8 0 134 3 279 6 158
3 266 2 270 -4 4 -5 36 -6 81 0 41 4 149 8 240 7 91 0 224 -1 295 0 72 0 288
0 480 0 193 -1 370 -1 395 -1 25 0 302 2 615 5 524 4 850 6 1550 7 611 1 981
6 990 11 6 4 60 3 120 -1 61 -4 115 -4 120 1 6 4 708 8 1560 9 1666 1 2226 4
2428 15 82 5 132 3 140 -3 14 -12 296 -12 303 0 7 11 321 10 328 -1 11 -16 59
-19 74 -4 10 9 22 12 36 7 22 -8 35 -8 245 2 102 4 140 2 159 -8 20 -10 26
-10 29 0 4 9 273 12 1304 12 1231 0 1299 -1 1299 -17 0 -10 -7 -27 -15 -37 -8
-11 -15 -29 -15 -41 0 -12 -6 -27 -12 -33 -10 -10 -10 -15 2 -22 10 -6 16 -32
18 -79 2 -39 8 -71 13 -71 5 0 9 -6 9 -13 0 -8 19 -35 42 -60 31 -35 49 -47
70 -47 15 0 28 -4 28 -10 0 -5 13 -10 28 -10 16 0 37 -7 48 -15 15 -11 54 -14
179 -15 163 0 205 -5 205 -22 0 -31 88 -65 91 -35 2 23 -3 52 -11 57 -10 7
-30 181 -30 267 0 37 -5 86 -11 108 -6 22 -13 54 -16 70 -3 17 -14 36 -24 43
-11 7 -19 19 -19 27 0 7 -9 17 -20 20 -11 3 -20 14 -20 24 0 23 -55 77 -108
109 -25 14 -202 17 -202 3 0 -9 -112 -32 -120 -25 -16 16 -21 1630 -10 3177 0
64 14 77 71 66 24 -4 99 -8 167 -9 130 0 124 -2 187 59 14 13 25 34 25 47 0
14 8 25 20 29 11 3 20 13 20 20 0 8 8 20 19 27 10 7 21 27 24 43 3 17 10 48
16 70 6 22 11 71 11 108 0 86 20 260 30 267 8 5 13 34 11 58 -2 18 -43 14 -68
-7z m-30 -172 c4 -33 2 -80 -3 -104 -5 -24 -9 -64 -8 -90 1 -25 -2 -49 -7 -53
-12 -8 -35 -71 -35 -93 0 -9 -13 -28 -30 -44 -16 -16 -30 -34 -30 -39 0 -17
-67 -56 -95 -56 -14 0 -25 -4 -25 -10 0 -5 -22 -10 -49 -10 -28 0 -53 5 -56
10 -3 6 -13 10 -22 10 -22 0 -113 41 -113 51 0 5 -12 21 -26 36 -52 56 -56 66
-57 185 l-2 113 46 48 c68 72 114 84 299 85 97 0 156 4 163 11 6 6 18 11 28
11 12 0 18 -13 22 -61z m-15733 1 c0 -5 24 -10 54 -10 30 0 57 -4 61 -9 3 -5
18 -12 34 -16 41 -9 91 -53 91 -81 0 -12 7 -29 15 -38 9 -9 15 -33 15 -63 0
-43 -5 -53 -48 -100 -27 -29 -53 -53 -58 -53 -5 0 -16 -9 -24 -20 -8 -11 -19
-20 -24 -20 -5 0 -21 -13 -35 -28 -14 -15 -38 -33 -53 -40 -16 -6 -28 -16 -28
-22 0 -5 -7 -10 -16 -10 -9 0 -28 -6 -42 -14 -67 -34 -82 -38 -117 -32 -54 10
-83 26 -88 48 -3 11 -14 22 -25 25 -19 5 -27 38 -31 138 -1 11 -4 44 -7 73 -4
31 -2 52 4 52 5 0 9 17 9 38 0 20 3 67 7 103 7 63 9 67 39 77 42 13 267 15
267 2z m15074 -435 c37 -4 74 -9 82 -12 16 -6 20 -93 4 -93 -14 0 -3 -1780 12
-1848 9 -43 9 -55 -1 -61 -10 -7 -13 -154 -14 -715 -2 -699 -2 -707 -22 -711
-11 -2 -37 -7 -58 -10 -20 -3 -1004 -8 -2185 -11 -1181 -3 -2164 -8 -2185 -11
-20 -3 -43 -1 -50 5 -7 6 -86 7 -212 2 -110 -4 -258 -6 -330 -5 -71 1 -135 -2
-141 -6 -6 -5 -25 -5 -42 0 -18 5 -76 8 -129 5 -54 -2 -140 -6 -190 -8 -61 -3
-93 -1 -93 6 0 7 -19 8 -52 4 -47 -6 -1292 -21 -1408 -17 -25 1 -278 2 -562 4
-398 1 -520 5 -529 15 -17 16 -55 15 -110 -2 -58 -19 -1007 -31 -1112 -14 -57
9 -70 9 -77 -3 -8 -12 -173 -14 -1072 -17 -913 -3 -1636 -7 -2063 -12 -60 0
-149 2 -197 6 -63 5 -92 4 -102 -5 -9 -8 -24 -10 -38 -5 -29 9 -228 8 -257 -1
-12 -4 -28 -1 -36 5 -9 7 -23 9 -37 4 -30 -10 -728 -11 -728 -1 0 4 -7 7 -15
7 -8 0 -15 -5 -15 -11 0 -8 -45 -9 -158 -5 -86 3 -294 8 -462 11 -168 3 -320
8 -337 11 l-33 5 0 612 c-1 337 -3 781 -5 987 -3 206 -5 391 -5 410 -2 240 9
1152 15 1267 l7 153 32 4 c17 3 137 8 266 11 129 3 280 9 335 14 62 5 111 4
128 -2 20 -6 32 -6 40 2 14 14 187 15 187 1 0 -5 7 -10 15 -10 8 0 15 3 15 8
0 9 709 7 731 -2 10 -4 23 -1 33 9 10 11 24 14 37 10 29 -9 229 -10 257 -1 14
5 29 3 38 -5 11 -9 39 -10 102 -5 48 4 139 7 202 6 168 -2 377 -2 440 0 30 1
159 1 285 0 442 -3 1873 8 1884 15 7 4 20 4 29 0 9 -4 123 -9 252 -10 166 -1
235 -5 238 -14 5 -14 56 -14 102 -1 22 7 219 10 545 9 281 -1 521 -1 535 -1
14 0 30 -3 35 -7 6 -5 42 -5 80 0 39 4 500 11 1025 15 1108 7 1405 7 1478 -2
33 -4 52 -3 52 4 0 7 32 9 93 6 50 -2 136 -6 190 -8 53 -3 111 0 129 5 18 5
36 5 42 0 10 -8 51 -7 226 3 25 1 135 -1 245 -5 128 -4 205 -3 213 4 7 5 29 7
50 3 69 -13 333 -18 346 -7 8 7 36 8 80 3 37 -5 160 -5 274 -1 204 8 910 11
2117 10 341 0 654 3 695 7 89 8 745 6 844 -3z m416 -3385 c0 -5 11 -10 25 -10
28 0 95 -39 95 -56 0 -5 14 -23 30 -39 17 -16 30 -35 30 -44 0 -22 23 -85 35
-93 5 -4 8 -28 7 -53 -1 -26 3 -66 8 -90 5 -24 7 -71 3 -105 l-6 -61 -41 7
c-23 3 -103 7 -179 6 -170 0 -219 14 -286 85 l-46 48 1 105 c1 130 5 146 49
193 19 21 35 42 35 46 0 10 91 51 113 51 9 0 19 5 22 10 3 6 28 10 56 10 27 0
49 -4 49 -10z m-15612 -59 c9 -5 37 -15 62 -22 25 -8 53 -22 62 -31 10 -10 24
-18 31 -18 7 0 23 -13 37 -30 14 -16 29 -30 35 -30 6 0 17 -9 25 -20 8 -11 19
-20 24 -20 5 0 31 -24 58 -52 44 -49 48 -57 48 -106 0 -34 -5 -59 -15 -68 -8
-9 -15 -26 -15 -38 0 -28 -50 -72 -91 -81 -16 -4 -31 -11 -34 -16 -4 -5 -31
-9 -61 -9 -30 0 -54 -4 -54 -10 0 -14 -213 -13 -261 1 -38 12 -38 12 -45 78
-4 36 -7 83 -7 104 0 20 -4 37 -9 37 -6 0 -8 21 -4 53 3 28 6 61 7 72 4 100
12 133 31 138 11 3 22 15 25 26 3 12 6 21 7 21 0 0 19 7 41 15 47 17 78 19
103 6z"/>
<path d="M15850 4473 c-21 -9 -59 -53 -71 -81 -5 -13 -9 -48 -9 -78 0 -43 4
-56 18 -61 9 -4 30 -17 45 -30 30 -24 100 -32 112 -13 3 6 16 10 29 10 40 0
66 35 66 88 0 82 -27 142 -63 142 -9 0 -17 5 -19 11 -4 13 -85 22 -108 12z
m96 -75 c24 -8 34 -19 38 -42 4 -18 2 -32 -4 -34 -5 -2 -10 -10 -10 -17 0 -8
-9 -17 -20 -20 -11 -3 -20 -11 -20 -16 0 -15 -53 -10 -77 6 -30 21 -47 82 -28
101 7 8 18 14 24 14 6 0 11 5 11 10 0 14 46 13 86 -2z"/>
<path d="M370 4375 c-7 -8 -24 -21 -38 -28 -16 -7 -30 -25 -36 -44 -5 -18 -13
-33 -17 -33 -5 0 -9 -7 -9 -15 0 -8 4 -15 8 -15 5 0 15 -11 22 -25 7 -14 20
-25 27 -25 7 0 16 -7 19 -15 7 -17 79 -21 89 -5 3 5 21 17 40 26 52 24 75 122
38 159 -35 36 -120 48 -143 20z m91 -68 c24 -15 24 -28 -1 -49 -20 -18 -88
-27 -108 -14 -18 11 -14 57 6 72 19 15 72 11 103 -9z"/>
<path d="M13386 3822 c-2 -1 -621 -3 -1375 -2 -1010 0 -1378 -3 -1394 -11 -16
-9 -22 -9 -25 0 -5 16 -773 16 -790 -1 -9 -9 -12 -9 -12 0 0 16 -667 17 -687
0 -9 -7 -13 -7 -13 1 0 8 -151 11 -560 10 -309 -1 -562 -5 -565 -9 -6 -10
-595 -11 -595 -1 0 6 -24 7 -52 5 -91 -9 -281 -9 -335 0 -38 6 -53 6 -53 -2 0
-9 -312 -12 -1162 -12 -4711 1 -4866 0 -4883 -16 -8 -8 -15 -24 -15 -35 0 -10
-7 -19 -15 -19 -12 0 -15 -19 -15 -109 0 -79 4 -111 13 -114 9 -3 9 -13 0 -50
-16 -58 -18 -348 -3 -363 15 -15 17 -167 2 -172 -14 -4 -17 -102 -3 -102 12 0
11 101 14 -967 2 -931 2 -933 22 -933 12 0 38 -9 58 -19 36 -18 58 -19 427
-14 274 4 414 2 471 -6 51 -8 85 -9 92 -3 7 6 254 12 612 16 330 3 645 9 699
12 59 4 97 4 94 -2 -7 -10 2525 -10 2542 1 5 3 20 3 33 -1 28 -9 1479 -5 2682
8 231 2 423 0 426 -4 3 -5 43 -4 88 1 93 10 198 10 2918 11 1541 0 1943 3
1947 13 5 9 7 9 12 0 7 -16 120 -18 129 -3 5 8 11 8 19 1 15 -13 634 -12 642
1 7 12 162 10 166 -2 2 -7 15 -7 38 0 43 12 110 13 130 0 9 -5 19 -5 27 2 8 7
55 9 128 6 l115 -4 0 28 c0 17 -5 28 -14 28 -22 0 -24 17 -19 165 2 77 6 435
8 795 2 360 4 669 5 685 0 17 1 181 1 365 -1 308 5 723 11 795 l3 30 -993 0
c-547 0 -995 -1 -996 -3z m-3236 -62 c613 -2 1667 -3 3476 -1 l1482 0 4 -29
c3 -21 0 -30 -10 -30 -7 0 -26 -13 -42 -29 -16 -16 -35 -31 -43 -34 -8 -3 -17
-19 -20 -37 -7 -32 -28 -60 -45 -60 -5 0 -13 -12 -17 -27 -3 -15 -14 -34 -23
-42 -10 -9 -23 -29 -31 -46 -7 -16 -17 -38 -22 -47 -12 -24 -11 -144 2 -193 6
-22 13 -50 16 -63 l5 -22 -116 6 -116 7 -69 -34 c-38 -19 -70 -40 -70 -46 -1
-7 -7 -13 -14 -13 -8 0 -27 -14 -43 -31 -16 -17 -39 -40 -51 -52 -13 -11 -23
-31 -23 -43 0 -13 -4 -26 -10 -29 -5 -3 -10 -46 -10 -96 0 -72 3 -89 15 -89 8
0 15 5 15 10 0 6 5 10 11 10 6 0 17 7 25 15 9 8 30 15 47 16 18 0 45 2 61 3
15 1 30 -4 33 -11 3 -6 19 -15 36 -19 33 -7 57 -25 57 -43 0 -6 6 -11 13 -11
13 0 39 -73 39 -112 1 -13 -3 -45 -7 -72 -10 -60 -50 -105 -103 -113 -22 -4
-36 -13 -40 -25 -3 -15 -15 -18 -66 -20 -33 0 -74 -2 -91 -3 -16 -1 -39 4 -50
11 -11 7 -34 15 -52 19 -28 6 -43 21 -48 50 0 6 -5 18 -9 28 -5 9 -5 37 -2 61
6 39 11 45 37 51 19 4 29 13 29 25 0 29 -11 50 -25 50 -7 0 -15 5 -17 11 -6
17 -148 25 -158 9 -4 -7 -31 -15 -59 -18 -28 -2 -51 -8 -51 -13 0 -5 -6 -9
-12 -9 -7 -1 -32 -18 -55 -39 -30 -27 -43 -47 -43 -65 0 -16 -4 -25 -10 -21
-6 4 -10 -23 -10 -72 l0 -79 -41 -1 c-48 -2 -128 -38 -136 -62 -6 -16 -46 -62
-90 -104 -27 -24 -31 -78 -8 -97 8 -7 15 -19 15 -26 0 -8 3 -14 8 -14 4 0 14
-14 21 -32 22 -49 116 -135 157 -142 19 -4 34 -11 34 -15 0 -5 31 -11 69 -13
39 -2 73 -6 76 -9 3 -3 8 -43 12 -89 6 -76 9 -85 36 -109 17 -14 37 -33 46
-42 9 -9 27 -20 41 -23 14 -4 34 -11 45 -16 69 -29 145 -40 145 -20 0 6 9 10
20 10 11 0 20 7 20 15 0 8 5 15 10 15 6 0 10 6 10 14 0 8 7 16 15 20 8 3 15
15 15 26 0 16 -6 20 -35 20 -24 0 -35 5 -35 15 0 8 -4 15 -10 15 -6 0 -10 26
-10 58 0 51 3 60 30 82 17 14 30 31 30 39 0 25 34 40 93 41 39 0 63 -5 73 -15
9 -8 29 -15 45 -15 19 0 29 -5 29 -15 0 -8 9 -15 20 -15 11 0 20 -7 20 -15 0
-8 5 -15 10 -15 6 0 10 -6 10 -14 0 -8 7 -21 15 -30 29 -29 46 -97 39 -154 -4
-31 -12 -56 -20 -59 -8 -3 -14 -9 -14 -15 0 -13 -26 -38 -39 -38 -6 0 -11 -13
-11 -30 0 -20 -5 -30 -15 -30 -8 0 -15 -4 -15 -9 0 -5 -13 -12 -30 -16 -16 -4
-38 -17 -47 -29 -30 -38 -115 -59 -245 -62 -65 -1 -120 2 -123 7 -4 5 -19 9
-35 9 -16 0 -32 5 -35 10 -3 6 -15 10 -26 10 -10 0 -19 5 -19 10 0 6 -9 10
-19 10 -10 0 -21 7 -25 15 -3 8 -11 15 -18 15 -15 0 -82 34 -104 53 -47 39
-114 113 -114 127 0 5 -6 10 -14 10 -8 0 -18 9 -21 20 -3 11 -11 20 -16 20 -5
0 -9 9 -9 20 0 11 -4 20 -10 20 -5 0 -12 11 -16 25 -3 14 -10 25 -15 25 -5 0
-9 8 -9 18 0 10 -11 29 -25 42 -14 13 -25 33 -25 45 0 12 -9 31 -21 44 -12 13
-18 29 -15 38 4 9 0 25 -8 37 -7 12 -17 40 -20 63 -4 23 -13 49 -21 59 -7 10
-11 33 -8 53 2 20 -2 67 -10 105 -9 40 -12 78 -7 90 4 12 11 54 15 94 4 39 11
72 15 72 4 0 10 12 13 28 14 67 21 89 38 111 11 13 19 31 19 40 0 9 16 34 35
56 19 22 35 48 35 58 0 9 7 17 15 17 8 0 15 7 15 16 0 8 13 28 29 44 16 16 31
36 35 45 3 8 14 18 23 22 23 9 37 23 46 46 3 9 15 17 26 17 13 0 21 9 26 29 4
21 13 30 33 34 15 3 42 20 60 36 18 17 36 31 40 31 4 1 21 19 37 40 17 21 35
39 41 40 5 0 20 14 32 30 13 17 29 30 37 30 8 0 15 5 15 10 0 6 6 10 13 10 8
0 19 11 25 25 7 15 20 25 32 25 11 0 20 7 20 15 0 8 6 15 13 15 18 0 67 24 67
33 0 4 6 7 13 7 7 0 18 9 25 20 7 11 21 20 32 20 13 0 20 7 20 20 0 15 7 20
25 20 14 0 25 5 25 10 0 6 7 10 15 10 8 0 15 5 15 10 0 6 9 10 20 10 11 0 20
5 20 10 0 6 11 10 25 10 14 0 25 3 25 8 0 6 12 12 87 42 26 11 21 54 -6 46 -9
-3 -34 -8 -56 -11 -22 -4 -50 -11 -63 -18 -17 -8 -25 -8 -34 1 -14 14 -208 17
-208 4 0 -4 -41 -14 -91 -22 -88 -13 -93 -15 -143 -62 -28 -26 -58 -48 -66
-48 -17 1 -60 34 -60 46 0 10 -70 74 -81 74 -5 0 -9 4 -9 9 0 16 -107 33 -168
28 -83 -8 -132 -18 -132 -27 0 -5 -14 -12 -32 -15 -17 -4 -38 -14 -46 -21 -7
-8 -20 -14 -27 -14 -8 0 -17 -9 -20 -20 -3 -11 -12 -20 -20 -20 -7 0 -15 -7
-19 -15 -10 -28 -63 -18 -103 20 -21 19 -46 41 -56 50 -12 11 -45 19 -93 22
-68 5 -76 4 -108 -21 -19 -14 -39 -26 -45 -26 -6 0 -11 -7 -11 -15 0 -11 -11
-15 -39 -15 -50 0 -84 13 -113 42 -33 33 -86 68 -104 68 -8 0 -24 5 -37 12
-12 6 -30 15 -39 19 -30 15 -241 31 -318 26 -85 -7 -130 -24 -130 -49 0 -15 9
-18 56 -18 62 0 144 -18 144 -31 0 -5 6 -9 13 -9 7 0 19 -9 27 -20 8 -11 20
-20 27 -20 7 0 13 -4 13 -8 0 -4 17 -14 38 -21 20 -8 49 -26 64 -40 40 -39 56
-51 68 -51 5 0 10 -7 10 -15 0 -8 7 -15 15 -15 8 0 15 -6 15 -13 0 -8 12 -20
27 -28 31 -16 67 -50 89 -85 9 -13 27 -27 40 -30 13 -3 24 -11 24 -18 0 -6 16
-26 35 -43 19 -18 35 -39 35 -48 0 -8 5 -15 10 -15 6 0 10 -9 10 -20 0 -10 11
-30 24 -43 13 -13 27 -37 30 -53 4 -17 16 -36 26 -44 11 -8 20 -26 20 -40 0
-37 19 -100 30 -100 6 0 10 -13 10 -28 0 -16 3 -32 7 -36 5 -4 14 -31 21 -59
15 -61 16 -420 1 -425 -5 -2 -9 -19 -9 -39 0 -19 -7 -41 -15 -49 -8 -9 -15
-30 -15 -49 0 -18 -4 -35 -10 -37 -5 -2 -16 -30 -25 -63 -8 -33 -20 -61 -25
-63 -6 -2 -10 -12 -10 -23 0 -10 -4 -19 -10 -19 -5 0 -10 -9 -10 -20 0 -11 -7
-23 -15 -26 -8 -4 -15 -12 -15 -20 0 -8 -4 -14 -10 -14 -5 0 -10 -6 -10 -13 0
-21 -24 -67 -35 -67 -6 0 -19 -14 -29 -31 -10 -17 -29 -41 -42 -52 -13 -11
-24 -27 -24 -35 0 -19 -23 -40 -52 -47 -13 -3 -29 -19 -37 -36 -7 -16 -20 -29
-29 -29 -10 0 -32 -16 -49 -35 -18 -19 -37 -35 -43 -35 -5 0 -10 -4 -10 -10 0
-5 -7 -10 -15 -10 -8 0 -15 -4 -15 -10 0 -5 -7 -10 -15 -10 -8 0 -15 -7 -15
-15 0 -8 -6 -15 -12 -16 -32 -2 -53 -9 -56 -18 -2 -6 -18 -11 -37 -11 -18 0
-37 -6 -44 -13 -13 -17 -122 -21 -216 -8 -38 6 -96 13 -127 16 -41 5 -58 11
-58 21 0 9 -11 14 -29 14 -17 0 -33 4 -36 10 -3 5 -14 10 -23 10 -9 1 -35 19
-57 41 -22 22 -48 45 -57 50 -10 5 -18 14 -18 20 0 5 -9 19 -20 31 -16 17 -20
36 -20 88 0 67 0 67 45 106 24 21 45 45 45 52 0 15 150 17 150 2 0 -5 9 -10
19 -10 14 0 23 -11 31 -37 7 -21 23 -48 36 -61 24 -23 34 -82 14 -82 -5 0 -10
-7 -10 -15 0 -8 -3 -15 -8 -15 -4 0 -12 -10 -17 -22 -8 -18 -21 -24 -55 -28
-59 -7 -69 -36 -16 -46 20 -3 36 -10 36 -15 0 -5 13 -9 29 -9 17 0 33 -4 36
-10 7 -12 165 -14 165 -2 0 4 18 19 40 32 22 14 40 28 40 33 0 4 5 7 11 7 14
0 39 25 39 39 0 6 11 11 25 11 16 0 25 6 25 15 0 8 5 15 10 15 6 0 10 7 10 15
0 8 5 15 10 15 6 0 10 7 10 15 0 8 4 15 9 15 4 0 11 26 15 59 8 68 23 86 83
95 51 7 113 35 113 50 0 6 13 20 30 31 16 11 35 30 41 42 7 13 18 23 26 23 12
0 17 15 16 48 -1 6 3 12 7 12 4 0 12 18 19 41 13 44 6 169 -10 169 -5 0 -9 10
-9 23 0 22 -60 87 -81 87 -5 0 -9 4 -9 10 0 12 -55 41 -63 34 -3 -4 -16 1 -29
10 -12 9 -33 16 -45 16 -27 0 -29 14 -8 54 21 39 18 114 -6 151 -11 17 -22 38
-25 48 -4 9 -13 17 -20 17 -8 0 -14 7 -14 15 0 9 -8 19 -17 22 -10 4 -24 13
-31 20 -7 7 -33 13 -58 13 -24 0 -44 5 -44 10 0 15 -34 12 -66 -5 -16 -8 -42
-15 -57 -15 l-29 0 7 -52 c4 -29 13 -60 21 -69 18 -20 18 -69 1 -69 -7 0 -18
-20 -25 -44 -10 -39 -15 -44 -54 -54 -114 -30 -182 -23 -223 23 -11 12 -26 20
-32 18 -7 -3 -13 3 -13 12 0 10 -11 26 -25 37 -14 11 -25 28 -25 38 0 10 -4
21 -9 25 -6 3 -7 28 -4 56 4 34 2 53 -6 58 -17 11 0 50 29 64 15 8 26 23 28
38 2 15 13 32 28 39 13 7 24 19 24 26 0 26 143 31 159 6 3 -5 29 -13 57 -17
47 -6 53 -4 71 19 24 30 42 168 24 174 -6 2 -11 10 -11 17 0 8 -9 19 -20 25
-11 6 -20 20 -20 30 0 11 -4 20 -10 20 -5 0 -10 7 -10 16 0 12 -7 15 -28 12
-17 -2 -35 3 -47 14 -24 23 -133 25 -176 2 -45 -23 -59 -6 -59 68 0 65 -41
168 -67 168 -7 0 -18 11 -24 24 -9 19 -27 28 -83 42 -73 18 -154 20 -170 3 -6
-5 -21 -9 -35 -9 -32 0 -116 -90 -125 -132 -8 -42 -29 -58 -70 -56 -20 2 -36
6 -36 9 0 4 -21 10 -46 14 -34 5 -50 3 -62 -8 -10 -8 -38 -18 -64 -21 -27 -4
-48 -11 -48 -17 0 -5 -11 -9 -25 -9 -15 0 -28 -7 -32 -17 -4 -10 -24 -34 -45
-54 -21 -20 -38 -43 -38 -52 0 -8 -7 -20 -15 -27 -8 -7 -15 -20 -15 -29 0 -9
-6 -26 -14 -37 -8 -11 -18 -48 -21 -81 l-7 -61 136 6 c119 4 136 3 142 -12 3
-9 10 -16 16 -16 13 0 30 -20 48 -55 8 -16 21 -36 28 -43 19 -21 17 -191 -3
-198 -8 -4 -15 -15 -15 -25 0 -12 -7 -19 -20 -19 -13 0 -20 -7 -20 -19 0 -13
-9 -21 -29 -26 -15 -3 -38 -15 -49 -25 -25 -23 -47 -25 -82 -7 -14 8 -41 17
-59 20 -32 7 -61 28 -61 44 0 5 -9 15 -20 23 -14 10 -20 26 -20 52 0 21 5 38
10 38 6 0 10 7 10 15 0 10 10 15 30 15 27 0 30 3 30 30 0 17 -4 30 -10 30 -5
0 -10 7 -10 15 0 9 -12 20 -26 25 -33 13 -121 13 -129 0 -3 -5 -19 -10 -36
-10 -16 0 -29 -4 -29 -10 0 -5 -20 -15 -45 -21 -25 -6 -45 -15 -45 -20 0 -5
-5 -9 -10 -9 -20 0 -58 -47 -65 -79 -4 -18 -13 -35 -20 -38 -8 -2 -17 -28 -20
-58 l-7 -54 -77 -4 c-42 -2 -89 -8 -106 -12 -28 -7 -75 -47 -75 -63 0 -4 -10
-13 -22 -21 -53 -33 -98 -77 -98 -97 0 -12 -9 -33 -20 -47 -11 -14 -20 -32
-20 -41 0 -9 -4 -16 -10 -16 -14 0 -12 -77 2 -103 7 -12 13 -35 14 -51 1 -16
6 -31 11 -35 6 -3 13 -23 17 -43 5 -27 12 -38 25 -38 10 0 23 -11 30 -23 9
-16 29 -28 62 -37 27 -8 49 -17 49 -22 0 -4 7 -8 15 -8 8 0 15 -5 15 -11 0 -7
18 -10 50 -7 37 4 50 1 50 -9 0 -7 5 -13 10 -13 6 0 10 -10 10 -23 0 -13 4
-27 9 -33 5 -5 17 -25 28 -44 33 -61 68 -110 79 -110 13 0 64 -56 64 -70 0 -5
18 -13 40 -16 22 -4 43 -11 46 -15 9 -15 164 -11 165 4 0 9 2 9 6 0 7 -18 33
-16 33 2 0 8 6 15 13 15 13 0 47 65 47 88 0 7 -10 12 -23 12 -63 0 -92 116
-42 165 13 14 33 25 44 25 11 0 23 5 26 10 3 6 28 10 55 10 38 0 54 -5 73 -24
13 -13 33 -27 45 -30 12 -4 22 -15 22 -25 0 -10 7 -24 15 -31 17 -14 21 -125
5 -135 -5 -3 -10 -17 -10 -31 0 -13 -4 -24 -10 -24 -5 0 -12 -15 -15 -33 -6
-33 -47 -87 -64 -87 -5 0 -11 -9 -14 -20 -4 -15 -14 -20 -41 -20 -20 0 -36 -4
-36 -9 0 -15 -60 -24 -155 -24 -98 1 -165 10 -165 24 0 5 -10 9 -22 9 -24 0
-124 45 -133 60 -3 6 -19 10 -36 10 -16 0 -29 5 -29 10 0 6 -7 10 -15 10 -8 0
-15 4 -15 8 0 5 -21 24 -47 42 -27 19 -49 38 -51 42 -2 4 -10 8 -19 8 -18 0
-43 24 -43 43 0 8 -25 40 -55 71 -30 31 -55 63 -55 72 0 9 -8 24 -17 33 -21
19 -41 49 -49 74 -4 9 -13 17 -20 17 -8 0 -14 6 -14 13 0 18 -24 67 -32 67 -5
0 -8 23 -8 50 0 28 -4 50 -9 50 -5 0 -12 17 -16 38 -12 62 -17 368 -6 434 22
142 36 208 43 208 4 0 8 15 8 34 0 19 7 41 15 50 8 8 18 29 21 46 4 17 11 33
15 36 5 3 9 15 9 28 0 12 9 32 20 44 11 12 20 33 20 47 0 14 4 25 8 25 5 0 19
22 32 49 12 27 32 54 44 61 12 6 30 27 41 46 10 19 22 34 27 34 4 0 8 7 8 15
0 8 6 15 14 15 8 0 18 10 22 22 8 26 61 81 86 91 10 3 20 18 24 32 6 26 29 34
37 13 5 -17 37 8 37 28 0 8 6 14 14 14 8 0 21 6 28 13 7 7 36 19 63 27 28 7
56 18 63 23 8 6 41 14 75 18 34 4 63 12 65 18 2 6 24 11 48 11 36 0 44 3 44
19 0 10 -17 30 -40 45 -22 14 -40 31 -40 36 0 6 -18 10 -40 10 -22 0 -40 4
-40 9 0 28 -308 51 -317 24 -3 -7 -16 -13 -29 -13 -13 0 -24 -4 -24 -10 0 -5
-14 -10 -30 -10 -18 0 -33 -6 -36 -15 -4 -8 -15 -15 -25 -15 -10 0 -19 -4 -19
-10 0 -5 -11 -12 -25 -16 -14 -3 -43 -24 -64 -45 -21 -22 -41 -39 -45 -39 -4
0 -18 -12 -31 -27 l-24 -28 -31 32 c-16 18 -30 40 -30 49 0 20 -28 54 -44 54
-6 0 -23 7 -39 15 -37 19 -147 31 -147 16 0 -6 -13 -11 -30 -11 -19 0 -30 -5
-30 -14 0 -8 -11 -17 -25 -20 -14 -4 -25 -13 -25 -21 0 -8 -16 -31 -35 -51
-20 -21 -35 -46 -35 -60 0 -13 -3 -24 -7 -24 -5 0 -34 25 -67 55 -32 31 -70
58 -84 62 -25 6 -35 12 -67 41 -7 6 -23 12 -34 12 -12 0 -21 4 -21 9 0 4 -33
11 -72 14 -72 6 -115 -1 -170 -29 -14 -8 -36 -14 -47 -14 -12 0 -21 -4 -21 -9
0 -5 -20 -15 -44 -22 -88 -26 -99 -59 -27 -79 22 -6 43 -15 46 -20 3 -6 17
-10 31 -10 13 0 24 -4 24 -10 0 -5 16 -10 35 -10 24 0 35 -5 35 -15 0 -8 5
-15 10 -15 6 0 10 -6 10 -13 0 -6 20 -28 45 -47 24 -19 44 -39 45 -43 0 -4 23
-29 50 -56 28 -27 50 -57 50 -68 0 -11 11 -33 24 -48 14 -16 27 -40 31 -53 3
-13 13 -31 20 -39 8 -8 15 -28 15 -44 0 -16 5 -29 10 -29 6 0 10 -11 10 -24 0
-14 5 -28 10 -31 6 -3 10 -19 10 -35 0 -16 7 -35 15 -44 11 -11 15 -40 15
-123 0 -61 7 -136 15 -172 10 -40 12 -67 6 -70 -5 -4 -15 -54 -21 -111 -21
-188 -29 -265 -29 -287 -1 -14 -7 -23 -16 -23 -8 0 -15 -7 -15 -15 0 -8 -4
-15 -10 -15 -5 0 -10 -15 -10 -32 0 -35 -30 -131 -42 -136 -5 -2 -8 -17 -8
-33 0 -17 -9 -39 -19 -50 -11 -12 -22 -32 -26 -46 -6 -26 -47 -73 -63 -73 -6
0 -13 -11 -16 -24 -3 -14 -16 -26 -31 -30 -14 -4 -25 -13 -25 -21 0 -8 -9 -15
-20 -15 -13 0 -20 -7 -20 -20 0 -18 -33 -39 -87 -55 -13 -3 -25 -16 -29 -29
-8 -34 -31 -45 -154 -73 -14 -3 -28 -11 -32 -17 -16 -25 -405 -47 -461 -26
-49 18 -80 33 -96 45 -8 5 -28 14 -45 20 -20 7 -32 19 -36 35 -4 16 -14 26
-28 28 -12 2 -22 10 -22 18 0 8 -7 14 -15 14 -10 0 -17 14 -21 40 -4 22 -11
43 -15 46 -23 14 -2 174 23 174 13 0 35 27 48 56 6 15 21 24 47 28 21 3 55 8
76 12 24 4 37 2 37 -5 0 -6 9 -11 20 -11 11 0 20 -4 20 -10 0 -5 6 -10 14 -10
8 0 18 -9 21 -21 8 -25 -4 -117 -16 -125 -12 -7 -11 -71 1 -79 6 -3 10 -14 10
-23 0 -20 37 -55 50 -47 5 3 11 1 15 -5 7 -11 88 -13 188 -3 58 5 68 9 73 27
3 12 18 27 35 33 16 6 32 20 36 30 3 10 10 20 14 23 4 3 16 37 28 75 l21 71
62 13 c39 8 67 20 76 32 7 10 17 19 23 19 12 0 49 37 49 50 0 6 12 23 26 37
25 25 27 33 28 123 1 76 -3 101 -16 123 -10 14 -18 34 -18 42 0 19 -23 45 -39
45 -6 0 -11 5 -11 10 0 6 -9 10 -20 10 -11 0 -20 7 -20 15 0 9 -9 15 -24 15
-24 0 -25 1 -23 92 1 58 -2 93 -9 95 -6 2 -9 16 -6 31 3 24 -7 39 -62 95 -43
44 -74 67 -89 67 -13 0 -28 5 -34 11 -5 5 -36 13 -67 16 -55 6 -56 5 -56 -19
0 -14 7 -31 15 -38 8 -7 15 -26 15 -42 0 -16 -7 -36 -15 -44 -8 -9 -15 -24
-15 -35 0 -10 -5 -19 -11 -19 -6 0 -17 -7 -25 -15 -9 -8 -24 -15 -35 -15 -10
0 -19 -4 -19 -10 0 -5 -6 -10 -14 -10 -8 0 -16 -6 -18 -12 -7 -20 -188 -8
-188 12 0 4 -13 10 -29 13 -25 5 -49 26 -134 119 -27 29 -30 215 -4 229 9 6
17 20 17 32 0 22 31 57 50 57 6 0 10 4 10 9 0 14 81 31 180 38 65 4 90 3 90
-6 0 -6 9 -11 20 -11 11 0 20 -6 20 -13 0 -7 11 -21 25 -31 16 -12 25 -29 25
-47 0 -29 18 -49 29 -31 3 6 24 13 45 17 46 9 86 41 86 68 0 10 7 25 15 33 8
9 15 26 15 40 0 13 4 24 9 24 4 0 11 30 14 67 5 67 -6 113 -28 113 -6 0 -15
14 -20 32 -14 43 -91 95 -156 104 -27 4 -51 10 -54 14 -2 3 -30 3 -62 -1 -32
-4 -82 -11 -111 -15 -45 -6 -52 -5 -46 9 10 26 -41 197 -59 197 -8 0 -28 15
-84 60 -7 6 -17 10 -23 10 -5 0 -10 5 -10 10 0 6 -50 10 -129 10 -76 0 -132
-4 -136 -10 -3 -5 -18 -10 -33 -10 -19 0 -37 -11 -57 -35 -17 -19 -38 -35 -47
-35 -10 0 -18 -6 -18 -13 0 -6 -13 -25 -30 -40 -16 -16 -30 -33 -30 -39 0 -30
-33 -118 -45 -118 -7 0 -15 4 -17 10 -3 10 -169 15 -223 7 -16 -2 -41 -5 -54
-6 -20 -1 -21 -3 -11 -16 11 -13 8 -15 -17 -15 -18 0 -38 -10 -55 -27 -45 -47
-64 -63 -76 -63 -7 0 -12 -6 -12 -13 0 -8 -9 -22 -20 -32 -11 -10 -20 -31 -20
-46 0 -18 -6 -29 -16 -31 -16 -3 -42 -77 -44 -121 0 -36 58 -65 75 -37 3 6 35
10 71 10 48 0 64 -3 64 -14 0 -14 29 -26 63 -26 20 0 47 -23 47 -39 0 -6 5
-11 10 -11 20 0 75 -65 72 -84 -2 -10 1 -22 8 -26 17 -11 18 -187 1 -227 -7
-18 -20 -33 -27 -33 -8 0 -14 -4 -14 -10 0 -5 -7 -10 -15 -10 -8 0 -15 -5 -15
-12 0 -21 -32 -48 -57 -48 -14 0 -31 -7 -39 -15 -14 -14 -47 -17 -179 -16 -48
0 -110 24 -118 46 -4 8 -13 15 -22 15 -8 0 -15 7 -15 15 0 9 -7 27 -16 41 -25
37 -15 115 19 147 30 27 36 67 11 67 -9 0 -28 8 -42 19 -34 24 -111 19 -157
-9 -18 -11 -39 -20 -48 -20 -22 0 -101 -79 -118 -117 -8 -18 -17 -33 -21 -33
-5 0 -8 -11 -8 -25 0 -14 -4 -25 -10 -25 -6 0 -10 -28 -10 -65 0 -37 4 -65 10
-65 6 0 10 -16 10 -35 0 -19 -4 -35 -10 -35 -5 0 -10 -6 -10 -14 0 -8 -9 -18
-20 -21 -15 -5 -19 -12 -15 -25 4 -13 -3 -25 -25 -41 -21 -16 -30 -31 -30 -50
0 -15 -7 -35 -16 -44 -13 -12 -15 -28 -10 -73 13 -124 16 -135 60 -177 46 -44
110 -67 226 -82 l65 -8 3 -37 c2 -21 7 -38 12 -38 5 0 12 -23 16 -51 6 -47 9
-50 30 -46 13 2 24 0 24 -6 0 -18 52 -58 84 -63 17 -3 41 -10 53 -16 40 -19
124 5 166 47 20 20 37 41 37 47 0 13 26 38 39 38 6 0 11 11 11 25 0 20 -5 25
-25 25 -14 0 -34 9 -46 21 -18 18 -20 29 -15 71 6 48 23 78 45 78 5 0 14 7 19
15 6 11 30 18 78 21 73 6 75 6 143 -56 23 -21 29 -38 39 -110 18 -125 16 -153
-12 -183 -13 -14 -26 -37 -30 -52 -4 -14 -11 -23 -15 -20 -14 8 -41 -6 -41
-21 0 -8 -7 -14 -15 -14 -8 0 -15 -5 -15 -11 0 -16 -25 -37 -54 -45 -14 -3
-26 -10 -26 -15 0 -5 -13 -9 -28 -9 -15 0 -33 -5 -40 -12 -26 -26 -263 -7
-296 23 -6 5 -19 9 -30 9 -31 0 -88 22 -123 47 -17 13 -35 23 -39 23 -16 0
-84 34 -84 42 0 5 -14 21 -31 36 -17 15 -49 44 -71 65 -22 20 -44 37 -49 37
-5 0 -9 4 -9 9 0 5 -22 32 -50 61 -27 29 -50 55 -50 59 0 4 -9 13 -20 21 -11
8 -20 20 -20 28 0 7 -7 20 -15 28 -9 10 -13 24 -9 40 4 14 2 24 -5 24 -6 0
-11 6 -11 14 0 8 -7 22 -16 31 -11 11 -18 40 -22 88 -3 40 -9 75 -14 78 -21
13 -41 419 -23 450 5 8 12 34 16 59 18 113 33 180 40 180 5 0 9 11 9 24 0 13
6 29 14 35 7 6 16 32 19 58 3 26 12 52 21 58 9 7 16 17 16 24 0 6 9 20 20 31
11 11 20 27 20 36 0 8 6 21 13 28 27 28 67 76 67 80 0 3 23 28 50 56 28 28 50
56 50 61 0 5 7 9 15 9 8 0 15 7 15 15 0 8 7 15 15 15 8 0 15 5 15 10 0 6 9 10
20 10 13 0 20 7 20 20 0 11 7 20 15 20 8 0 15 5 15 10 0 6 7 10 15 10 8 0 15
5 15 10 0 6 6 10 13 10 18 0 67 24 67 33 0 4 9 7 21 7 48 0 63 61 18 75 -10 4
-19 11 -19 16 0 5 -9 9 -20 9 -10 0 -24 9 -30 20 -8 14 -21 20 -45 20 -19 0
-35 5 -35 11 0 7 -48 10 -155 7 -85 -1 -155 -6 -155 -10 0 -5 -7 -8 -15 -8 -8
0 -15 -4 -15 -9 0 -5 -11 -12 -25 -15 -14 -4 -25 -13 -25 -21 0 -8 -12 -18
-27 -21 -16 -4 -35 -15 -44 -26 -26 -29 -46 -22 -52 18 -6 36 -39 75 -88 103
-38 23 -159 51 -218 51 -57 0 -131 -18 -131 -32 0 -4 -7 -8 -15 -8 -8 0 -15
-5 -15 -10 0 -23 -50 -60 -81 -60 -30 0 -89 27 -89 41 0 4 -13 10 -30 14 -16
4 -30 11 -30 16 0 5 -7 9 -16 9 -20 0 -87 31 -96 44 -10 15 -391 12 -396 -3
-2 -6 -11 -11 -21 -11 -25 0 -41 -20 -41 -52 0 -29 16 -36 48 -19 9 4 34 11
55 15 30 6 37 4 37 -9 0 -10 10 -15 35 -15 18 0 38 -6 42 -13 4 -7 22 -19 39
-26 17 -7 37 -23 44 -37 8 -13 24 -27 37 -30 13 -4 23 -10 23 -15 0 -5 7 -9
15 -9 8 0 15 -7 15 -15 0 -8 9 -25 20 -38 12 -12 27 -29 35 -38 8 -9 15 -25
15 -37 0 -15 8 -24 25 -28 14 -3 25 -13 25 -23 0 -9 14 -29 30 -44 17 -16 30
-35 30 -43 0 -16 18 -51 38 -72 6 -7 12 -20 12 -28 0 -9 7 -22 15 -30 8 -9 15
-26 15 -39 0 -13 5 -27 10 -30 6 -3 10 -17 10 -31 0 -13 3 -24 8 -24 9 0 32
-49 32 -68 0 -8 8 -22 19 -31 10 -9 21 -34 23 -56 8 -60 49 -165 64 -165 8 0
14 -11 14 -27 2 -67 10 -127 21 -139 11 -14 21 -371 11 -401 -2 -7 -10 -13
-18 -13 -10 0 -14 -15 -14 -56 0 -34 4 -53 10 -49 18 11 10 -27 -9 -44 -10 -9
-27 -44 -36 -79 -11 -37 -23 -62 -31 -62 -8 0 -14 -7 -14 -16 0 -9 -9 -24 -19
-33 -11 -9 -21 -30 -23 -45 -1 -16 -12 -34 -23 -40 -27 -15 -35 -27 -35 -52 0
-15 -8 -24 -25 -28 -14 -4 -25 -13 -25 -21 0 -8 -4 -15 -10 -15 -5 0 -10 -7
-10 -15 0 -8 -7 -15 -15 -15 -8 0 -15 -6 -15 -14 0 -13 -22 -36 -98 -106 -9
-9 -30 -22 -47 -29 -16 -7 -42 -20 -57 -27 -14 -8 -37 -14 -51 -14 -14 0 -27
-6 -30 -14 -6 -16 -77 -30 -130 -27 -25 2 -45 -3 -58 -15 -17 -15 -34 -16
-151 -10 -73 3 -134 11 -136 16 -2 6 -10 10 -18 10 -8 0 -14 5 -14 10 0 6 -10
10 -22 10 -13 0 -38 9 -56 20 -18 11 -41 20 -52 20 -13 0 -20 7 -20 20 0 11
-7 20 -15 20 -8 0 -15 7 -15 15 0 8 -4 15 -9 15 -13 0 -31 90 -31 150 0 38 4
50 15 50 8 0 17 11 21 24 3 15 15 27 30 30 13 4 24 11 24 16 0 6 27 10 60 10
47 0 60 -3 60 -15 0 -8 5 -15 10 -15 6 0 10 -6 10 -13 0 -7 9 -19 20 -27 21
-15 28 -60 9 -60 -7 0 -9 -12 -5 -32 7 -42 -2 -55 -39 -60 -43 -4 -46 -35 -6
-49 17 -6 36 -20 42 -30 5 -10 19 -19 29 -19 11 0 20 -6 20 -13 0 -19 83 -40
132 -32 84 12 98 17 98 31 0 8 6 14 13 14 21 0 77 30 77 41 0 5 6 9 14 9 8 0
17 12 20 26 4 15 13 32 20 39 7 7 18 38 25 69 7 31 17 56 22 56 5 0 8 10 6 22
-2 17 5 23 33 29 19 4 36 12 38 18 2 6 19 11 38 11 29 0 43 9 84 52 27 28 57
70 66 92 10 23 24 45 31 49 9 6 13 39 13 117 0 99 -2 110 -20 120 -11 6 -20
17 -20 25 0 8 -4 15 -10 15 -5 0 -10 5 -10 10 0 13 -37 50 -51 50 -6 0 -22 9
-36 20 -14 11 -36 20 -49 20 -13 0 -24 4 -24 9 0 5 -20 14 -44 20 l-44 11 5
58 c6 63 -9 125 -36 154 -30 32 -41 47 -41 58 0 5 -7 10 -15 10 -8 0 -15 7
-15 16 0 13 -7 15 -35 11 -19 -3 -35 -2 -35 4 0 5 -7 9 -15 9 -8 0 -15 5 -15
10 0 11 -101 14 -137 4 -27 -7 -30 -36 -7 -59 23 -23 14 -103 -15 -126 -12
-10 -21 -22 -21 -28 0 -6 -6 -11 -14 -11 -8 0 -21 -9 -28 -19 -13 -18 -20 -19
-91 -10 -94 12 -113 19 -156 59 -30 28 -34 39 -42 108 -9 79 -4 142 12 142 5
0 9 13 9 30 0 22 4 28 15 24 9 -4 15 0 15 10 0 11 9 16 29 16 20 0 32 6 35 18
6 18 100 42 164 42 44 0 90 -19 97 -40 3 -10 13 -21 22 -24 29 -12 50 4 63 47
8 23 17 46 22 51 11 14 10 66 -2 66 -5 0 -10 13 -10 29 0 18 -9 35 -25 47 -14
10 -25 26 -25 35 0 9 -8 19 -18 23 -9 3 -30 15 -47 26 -46 30 -73 40 -111 40
-19 0 -34 4 -34 9 0 6 -12 9 -26 8 -24 -2 -28 3 -40 48 -36 141 -26 124 -105
188 -25 20 -51 37 -58 37 -6 0 -11 5 -11 10 0 6 -9 10 -20 10 -11 0 -20 7 -20
15 0 11 -13 15 -52 17 -164 4 -278 -10 -278 -35 0 -15 -27 -36 -56 -43 -34 -8
-84 -60 -84 -86 0 -10 -4 -18 -10 -18 -6 0 -10 -26 -10 -58 0 -51 -3 -60 -22
-70 -33 -16 -110 -42 -129 -42 -23 0 -99 -76 -99 -99 0 -14 -5 -19 -15 -15
-12 5 -15 -2 -15 -30 0 -20 -4 -36 -10 -36 -5 0 -10 -8 -10 -18 0 -10 -6 -24
-12 -30 -18 -18 -17 -144 1 -165 18 -23 48 -21 68 3 10 11 23 20 30 20 7 0 13
5 13 10 0 6 12 10 26 10 14 0 23 -4 19 -10 -4 -6 12 -10 39 -10 25 0 46 -4 46
-10 0 -5 7 -10 15 -10 44 0 104 -110 105 -190 0 -32 -32 -140 -42 -140 -4 0
-8 -13 -8 -30 0 -20 -5 -30 -15 -30 -8 0 -15 -5 -15 -11 0 -19 -25 -35 -85
-53 -91 -27 -140 -36 -143 -25 -2 5 -10 9 -18 9 -25 0 -122 50 -128 65 -3 8
-12 15 -21 15 -8 0 -15 6 -15 13 0 7 -9 18 -20 25 -13 8 -20 23 -20 42 0 19
-5 30 -14 30 -19 0 -26 32 -26 121 0 106 10 169 26 169 8 0 14 5 14 10 0 6 9
20 20 32 24 26 26 48 4 48 -23 0 -74 -32 -74 -47 0 -7 -5 -13 -10 -13 -6 0
-23 -14 -38 -31 -15 -17 -39 -44 -55 -60 -15 -16 -27 -33 -27 -38 0 -4 -10
-12 -22 -18 -19 -8 -22 -16 -19 -51 1 -23 -2 -42 -7 -42 -19 0 -33 -58 -34
-140 0 -53 4 -86 11 -88 16 -5 14 -51 -3 -68 -8 -8 -22 -14 -30 -14 -19 0 -76
-57 -76 -76 0 -8 -3 -14 -8 -14 -4 0 -15 -15 -25 -33 -12 -23 -17 -56 -16
-122 0 -135 29 -199 96 -211 18 -3 33 -12 33 -19 0 -17 45 -35 90 -35 38 0 40
-2 40 -29 0 -17 -5 -33 -10 -36 -7 -4 -8 -24 -4 -53 7 -48 13 -56 105 -137 31
-27 41 -30 100 -29 48 0 72 5 92 20 14 10 27 22 27 27 0 4 -18 23 -40 43 -42
38 -50 63 -26 86 47 45 78 68 95 68 11 0 23 4 26 10 9 14 116 12 148 -2 16 -8
30 -24 33 -38 3 -14 9 -33 15 -42 12 -23 12 -98 -1 -98 -5 0 -10 -11 -10 -24
0 -24 -49 -86 -69 -86 -6 0 -16 -9 -23 -20 -7 -11 -37 -27 -68 -36 -30 -8 -64
-21 -75 -26 -31 -17 -233 -18 -246 -1 -6 7 -22 13 -35 13 -12 0 -29 6 -36 14
-8 7 -27 16 -43 19 -46 9 -105 31 -105 39 0 5 -6 8 -14 8 -16 0 -206 184 -206
200 0 5 -4 10 -8 10 -5 0 -15 18 -22 40 -7 22 -19 40 -27 40 -7 0 -13 9 -13
20 0 11 -4 20 -10 20 -5 0 -10 8 -10 18 0 10 -7 27 -15 38 -8 10 -15 38 -15
62 0 24 -6 50 -14 58 -23 23 -29 94 -16 206 6 57 17 159 25 228 14 125 21 160
37 171 5 3 11 29 15 57 3 30 11 52 18 52 12 0 55 77 55 99 0 6 3 11 8 11 15 0
62 89 62 119 0 21 5 31 15 31 8 0 15 4 15 9 0 4 13 22 30 39 16 18 30 36 30
41 0 5 11 12 25 15 14 4 25 12 25 19 0 15 65 87 79 87 6 0 11 4 11 10 0 5 11
12 25 16 13 3 27 14 30 24 3 11 15 22 26 25 10 4 19 11 19 16 0 5 9 9 20 9 11
0 20 5 20 10 0 6 5 10 11 10 6 0 24 11 41 25 16 14 38 25 49 25 10 0 19 5 19
10 0 6 8 14 18 17 9 4 28 15 41 25 13 10 37 18 52 18 16 0 29 5 29 10 0 6 30
10 70 10 69 0 70 1 70 26 0 25 -20 54 -37 54 -9 0 -43 36 -43 46 0 11 -29 34
-43 34 -9 0 -17 5 -19 10 -5 16 -116 43 -178 43 -65 0 -160 -29 -160 -49 0 -9
-11 -14 -30 -14 -28 0 -48 -12 -92 -52 -10 -10 -33 -18 -53 -18 -29 0 -37 5
-46 27 -5 15 -23 39 -40 53 -16 15 -29 32 -29 38 0 7 -12 12 -26 12 -15 0 -41
9 -59 20 -32 20 -95 19 -95 -1 0 -5 -9 -9 -20 -9 -11 0 -20 -4 -20 -10 0 -5
-5 -10 -11 -10 -6 0 -16 -6 -23 -12 -41 -40 -75 -64 -104 -75 -31 -11 -34 -10
-55 23 -12 18 -26 34 -32 34 -5 0 -19 11 -31 25 -28 33 -103 45 -126 21 -9 -9
-24 -16 -34 -16 -25 0 -84 -23 -84 -32 0 -4 -7 -8 -15 -8 -8 0 -15 5 -15 11 0
19 -28 39 -54 39 -16 0 -26 6 -26 14 0 19 -12 26 -57 32 -21 2 -39 9 -41 14
-2 6 -12 10 -23 10 -10 0 -19 5 -19 10 0 6 -18 10 -39 10 -22 0 -41 5 -43 11
-4 13 -366 13 -382 0 -6 -5 -28 -9 -48 -9 -39 0 -68 -20 -68 -46 0 -11 10 -16
33 -16 17 0 41 -7 51 -15 11 -8 32 -15 48 -15 15 0 28 -5 28 -11 0 -14 25 -39
39 -39 6 0 11 -4 11 -10 0 -5 12 -10 28 -10 26 0 92 -50 92 -71 0 -5 6 -9 14
-9 8 0 16 -7 20 -15 3 -8 10 -15 16 -15 15 0 100 -91 100 -107 0 -7 6 -13 13
-13 20 0 63 -43 70 -70 4 -14 19 -39 35 -55 16 -17 32 -43 36 -58 3 -15 24
-45 46 -67 22 -22 40 -44 40 -50 0 -5 5 -10 10 -10 6 0 10 -11 10 -25 0 -14 5
-25 10 -25 6 0 10 -11 10 -25 0 -14 9 -35 20 -47 11 -12 20 -32 20 -44 0 -12
7 -27 15 -34 8 -7 15 -23 15 -36 0 -12 4 -25 8 -28 5 -3 19 -39 31 -81 13 -41
27 -75 32 -75 5 0 9 -7 9 -15 0 -8 5 -15 11 -15 6 0 9 -15 8 -34 -2 -19 3 -41
11 -50 27 -34 20 -457 -9 -476 -4 -3 -11 -22 -14 -43 -3 -21 -13 -52 -21 -69
-9 -17 -16 -42 -16 -55 0 -12 -4 -23 -10 -23 -5 0 -10 -12 -10 -26 0 -16 -13
-39 -35 -61 -19 -19 -35 -44 -35 -54 0 -10 -7 -19 -15 -19 -8 0 -15 -9 -15
-20 0 -11 -7 -20 -15 -20 -8 0 -15 -7 -15 -15 0 -9 -7 -18 -15 -21 -8 -3 -17
-14 -20 -23 -3 -10 -16 -24 -29 -31 -15 -8 -27 -25 -31 -46 -4 -21 -12 -34
-21 -34 -9 0 -18 -8 -21 -19 -3 -13 -17 -21 -44 -25 -21 -3 -39 -11 -39 -16 0
-5 -18 -13 -41 -16 -22 -4 -43 -13 -46 -20 -3 -8 -20 -14 -38 -14 -19 0 -37
-5 -41 -11 -5 -9 -44 -10 -138 -5 -110 6 -134 10 -152 26 -11 11 -27 20 -35
20 -8 0 -20 9 -27 20 -7 11 -18 20 -25 20 -17 0 -74 63 -82 92 -4 13 -15 30
-25 40 -9 9 -20 39 -24 67 -6 43 -3 57 14 80 11 16 20 33 20 38 0 6 16 24 35
41 30 28 42 32 89 32 56 0 66 -6 125 -75 18 -22 6 -116 -20 -149 -37 -47 -13
-136 36 -136 9 0 18 -7 21 -15 5 -11 22 -15 65 -15 47 0 60 4 68 19 6 10 26
22 45 25 34 7 77 54 115 129 8 15 18 27 23 27 4 0 8 28 8 63 0 76 11 97 40 80
11 -7 48 -13 83 -13 63 0 64 0 110 50 26 28 47 57 47 65 0 8 5 15 10 15 6 0
10 9 10 19 0 11 4 21 9 23 16 6 16 111 1 146 -8 17 -18 32 -22 32 -5 0 -8 5
-8 11 0 17 -27 39 -49 39 -11 0 -25 9 -31 19 -13 25 -13 61 0 61 6 0 10 40 10
100 0 94 -1 101 -25 122 -14 12 -25 28 -25 35 0 7 -4 13 -10 13 -5 0 -10 7
-10 15 0 8 -6 15 -13 15 -7 0 -23 9 -35 20 -12 11 -35 20 -52 20 -16 0 -30 5
-30 11 0 12 -20 10 -98 -10 -60 -16 -75 -31 -59 -65 7 -14 15 -26 20 -26 4 0
7 -31 7 -70 0 -39 -4 -70 -10 -70 -5 0 -12 -11 -16 -25 -4 -15 -16 -28 -30
-31 -13 -3 -24 -13 -24 -21 0 -17 -46 -37 -125 -54 -55 -11 -68 -10 -165 15
-58 14 -106 30 -108 36 -2 5 -8 10 -13 10 -14 0 -49 33 -49 46 0 6 -9 14 -20
17 -18 5 -20 14 -20 94 0 82 14 143 33 143 4 0 7 7 7 15 0 15 31 55 82 104 20
21 44 29 107 39 78 12 131 9 131 -9 0 -5 10 -9 21 -9 12 0 35 -14 51 -30 28
-30 48 -38 48 -20 0 6 7 10 15 10 8 0 15 4 15 9 0 5 11 12 24 15 22 5 25 12
28 73 3 47 0 71 -9 79 -7 6 -13 16 -13 23 0 6 -4 11 -10 11 -5 0 -10 7 -10 16
0 26 -40 74 -62 74 -11 0 -27 9 -36 20 -10 11 -39 25 -67 32 -27 7 -53 17 -56
21 -4 5 -9 42 -13 83 -6 67 -10 78 -41 109 -26 27 -41 35 -69 35 -20 0 -36 5
-36 11 0 6 -6 9 -14 6 -8 -3 -31 -1 -50 4 l-36 10 0 94 c0 52 -4 95 -9 95 -5
0 -11 19 -15 42 -7 40 -34 100 -48 106 -5 2 -8 8 -8 12 0 5 -11 22 -25 37 -59
65 -91 94 -115 100 -13 3 -33 15 -44 25 -11 10 -23 18 -27 18 -4 0 -10 7 -13
16 -10 26 21 51 72 58 26 3 687 6 1470 7 792 1 1425 6 1428 11 3 4 10 6 15 3
7 -5 347 -6 574 -2 33 1 103 0 155 -2 103 -5 844 -4 975 1 94 3 148 3 430 0
329 -3 3629 8 3634 13 2 3 7 3 10 1 4 -3 216 -5 471 -6z m5136 -22 c4 -6 7
-140 6 -297 -1 -175 2 -300 9 -324 9 -33 8 -43 -5 -55 -25 -25 -36 -4 -43 86
-3 45 -10 82 -14 82 -5 0 -9 14 -9 30 0 17 -4 30 -10 30 -5 0 -10 11 -10 24 0
14 -4 27 -9 31 -6 3 -10 13 -11 23 0 9 -3 63 -5 118 -3 56 -1 119 4 140 13 55
34 108 46 116 15 12 43 9 51 -4z m-14323 -217 c17 -25 27 -52 27 -75 0 -20 5
-36 10 -36 6 0 10 -35 10 -85 0 -50 -4 -85 -10 -85 -5 0 -10 -15 -10 -34 0
-19 -4 -37 -9 -41 -6 -3 -13 -37 -17 -75 -7 -71 -27 -116 -41 -93 -5 6 -7 118
-6 250 2 318 2 313 11 313 4 0 19 -18 35 -39z m5052 -393 c25 -7 45 -18 45
-24 0 -7 6 -14 13 -16 7 -3 12 -24 12 -56 0 -46 -4 -55 -30 -76 -19 -15 -39
-23 -55 -21 -14 3 -46 7 -72 10 -45 6 -48 8 -48 36 0 16 -4 29 -10 29 -5 0
-10 16 -10 35 0 19 5 35 10 35 6 0 10 6 10 13 0 15 48 46 72 47 10 0 38 -5 63
-12z m7429 -3 c3 -8 13 -15 21 -15 45 0 61 -84 28 -142 -18 -29 -19 -30 -78
-24 -74 8 -115 43 -115 100 0 20 4 36 9 36 5 0 13 9 16 20 4 14 15 20 35 20
16 0 32 5 35 10 9 15 42 12 49 -5z m-3644 -15 c0 -5 6 -10 14 -10 15 0 26 -21
26 -51 0 -10 5 -19 10 -19 23 0 8 -49 -25 -78 -29 -27 -42 -32 -85 -32 -50 0
-80 15 -80 39 0 6 -7 11 -15 11 -8 0 -15 7 -15 15 0 9 -7 18 -15 21 -9 4 -15
19 -15 38 0 49 47 76 132 76 39 0 68 -4 68 -10z m-7086 -168 c42 -32 32 -112
-20 -160 -18 -18 -37 -23 -76 -24 -32 -1 -53 3 -56 10 -2 7 -10 12 -17 12 -20
0 -56 86 -49 115 3 14 10 25 15 25 5 0 9 9 9 19 0 15 8 21 33 24 67 8 135 0
161 -21z m12577 -704 c2 -364 0 -619 -6 -627 -2 -5 2 -28 10 -52 10 -28 12
-45 5 -47 -5 -2 -10 -10 -10 -17 0 -13 -29 -29 -37 -21 -2 2 -5 43 -5 91 -1
47 -5 88 -10 91 -4 3 -5 16 -2 29 3 14 -3 53 -15 89 -12 36 -21 78 -21 95 0
39 -9 61 -25 61 -7 0 -21 16 -31 36 -11 20 -23 44 -29 55 -5 10 -13 19 -17 19
-4 0 -19 11 -33 25 -27 28 -34 75 -11 75 8 0 18 9 21 20 3 11 12 20 20 20 7 0
15 9 18 21 3 11 15 23 26 26 12 3 21 10 21 17 1 15 36 56 49 56 6 0 11 10 11
23 0 22 47 87 63 87 4 0 7 -78 8 -172z m-7501 -4 c62 -22 80 -44 80 -100 0
-41 -5 -51 -45 -92 -44 -44 -47 -45 -78 -34 -19 7 -40 12 -49 12 -9 0 -18 7
-22 15 -3 8 -12 15 -21 15 -23 0 -22 135 2 158 13 14 58 35 83 41 3 0 25 -6
50 -15z m3690 -24 c0 -5 9 -10 21 -10 12 0 19 -5 17 -12 -5 -14 15 -38 31 -38
6 0 11 -7 11 -15 0 -8 5 -15 10 -15 6 0 10 -15 10 -33 0 -24 -8 -38 -31 -57
-17 -14 -37 -31 -44 -37 -8 -7 -35 -13 -62 -13 -42 0 -50 4 -68 30 -11 17 -28
33 -37 36 -14 4 -18 17 -18 60 0 60 11 79 54 90 14 3 26 10 26 15 0 5 18 9 40
9 22 0 40 -4 40 -10z m-10455 -294 c47 -44 48 -45 43 -95 -7 -74 -35 -101
-104 -101 l-52 0 2 105 c4 149 27 168 111 91z m3099 18 c9 -3 16 -11 16 -17 0
-6 14 -26 32 -44 25 -26 29 -36 20 -45 -7 -7 -12 -22 -12 -35 0 -13 -6 -23
-14 -23 -8 0 -16 -5 -18 -12 -6 -16 -110 -22 -152 -8 l-36 12 0 70 c0 60 3 72
23 89 22 18 106 26 141 13z m5334 -757 c7 -18 12 -42 12 -52 0 -11 30 -48 66
-82 37 -35 64 -66 60 -70 -6 -6 -506 -13 -506 -6 0 10 37 43 48 43 25 0 82 32
82 46 0 7 18 19 40 25 22 7 40 18 40 26 0 7 6 13 14 13 8 0 21 8 28 18 7 10
21 21 31 25 11 4 21 16 24 27 9 34 47 25 61 -13z m486 -28 c15 -16 39 -29 52
-29 12 0 38 -13 56 -30 18 -16 42 -30 54 -30 12 0 35 -6 51 -14 15 -8 43 -20
61 -27 49 -18 41 -39 -15 -40 -152 -4 -354 -5 -395 -1 -43 4 -48 7 -48 29 0
16 7 27 20 30 11 3 20 9 20 13 0 5 7 16 16 25 9 9 19 37 22 63 3 26 9 50 15
54 16 10 59 -10 91 -43z m5059 37 c9 -7 22 -29 29 -47 10 -31 63 -88 81 -89 4
0 7 -11 7 -25 0 -14 -3 -25 -7 -26 -5 0 -104 -2 -220 -4 -207 -4 -213 -4 -213
15 0 15 7 20 28 20 16 0 37 9 47 20 10 11 24 20 31 20 20 0 64 22 64 32 0 14
39 48 55 48 8 0 15 5 15 10 0 35 50 50 83 26z m-12690 -44 c4 -23 12 -42 17
-42 5 0 11 -13 15 -30 4 -16 11 -30 17 -30 15 0 48 -40 48 -59 0 -32 -16 -44
-46 -36 -16 5 -95 10 -176 12 -136 4 -177 12 -129 28 11 3 22 12 25 20 3 8 12
15 20 15 8 0 18 9 21 20 4 11 15 20 26 20 11 0 23 8 26 18 9 22 29 42 42 42 6
0 11 7 11 15 0 20 41 56 59 53 9 -2 19 -21 24 -46z m3432 18 c4 -17 15 -36 26
-43 10 -6 19 -17 19 -24 0 -7 4 -13 9 -13 5 0 12 -13 16 -29 3 -16 19 -40 36
-55 16 -14 29 -29 29 -34 0 -8 -478 -7 -487 2 -12 12 21 36 49 36 20 0 37 9
55 30 13 17 28 28 32 26 4 -3 15 4 24 15 9 10 24 19 32 19 8 0 15 7 15 15 0 8
8 15 18 15 22 0 72 40 72 58 0 7 11 12 24 12 19 0 26 -7 31 -30z m7250 5 c14
-13 25 -29 25 -35 0 -5 5 -10 10 -10 6 0 10 -7 10 -15 0 -8 5 -15 10 -15 6 0
10 -4 10 -10 0 -17 34 -50 52 -50 13 0 18 -8 18 -25 l0 -25 -280 0 c-223 0
-280 3 -280 13 0 20 21 37 47 37 12 0 32 4 45 9 13 5 43 15 68 22 45 14 55 19
91 52 10 9 24 17 29 17 6 0 10 5 10 10 0 6 11 10 25 10 14 0 35 9 47 20 28 26
34 25 63 -5z m-6685 -15 c0 -5 9 -10 20 -10 11 0 20 -4 20 -10 0 -5 6 -10 14
-10 8 0 16 -7 20 -15 3 -8 15 -15 26 -15 11 0 20 -4 20 -10 0 -5 11 -10 24
-10 14 0 31 -6 38 -13 7 -7 43 -22 79 -32 66 -19 118 -49 106 -62 -5 -5 -255
-6 -549 -3 -20 0 -3 28 47 81 42 44 55 65 55 88 0 29 2 31 40 31 22 0 40 -4
40 -10z m4934 -3 c7 -7 16 -24 19 -38 4 -14 18 -31 32 -39 30 -16 42 -54 25
-75 -18 -22 -370 -22 -370 0 0 18 31 35 64 35 14 0 28 5 31 10 3 6 17 10 31
10 13 0 24 5 24 11 0 15 26 39 42 39 7 0 19 14 26 30 15 32 52 41 76 17z
m-8454 -27 c11 -11 31 -20 44 -20 19 0 25 -6 28 -27 2 -22 9 -29 31 -31 15 -2
27 -9 27 -17 0 -8 17 -16 43 -20 43 -7 67 -20 67 -36 0 -5 -90 -9 -200 -9
-132 0 -200 4 -200 10 0 12 15 32 43 58 9 9 17 22 17 29 0 7 4 13 10 13 5 0
13 12 16 28 12 46 41 55 74 22z m1124 -6 c9 -35 54 -94 72 -94 8 0 14 -5 14
-11 0 -6 10 -19 23 -30 22 -18 18 -18 -220 -19 -199 0 -243 2 -243 14 0 9 19
15 56 20 33 4 63 14 75 25 12 11 36 22 55 26 19 3 40 15 47 25 6 11 18 20 25
20 7 0 17 11 22 25 14 37 65 36 74 -1z m7772 18 c6 -4 13 -14 17 -24 3 -9 19
-19 36 -23 17 -4 31 -11 31 -16 0 -11 52 -35 93 -44 18 -4 27 -12 27 -25 0
-20 -6 -20 -162 -18 -162 3 -163 3 -166 26 -3 16 7 32 30 52 18 16 36 30 41
30 4 0 7 11 7 25 0 25 22 34 46 17z m1919 -4 c36 -35 57 -48 78 -48 15 0 29
-9 37 -24 7 -13 21 -27 31 -29 11 -3 19 -14 19 -26 0 -20 -4 -21 -170 -21
-141 0 -170 2 -170 14 0 8 11 23 24 33 13 10 26 29 30 41 4 12 13 22 21 22 7
0 16 11 19 25 5 20 13 25 37 25 17 0 36 -6 44 -12z m-9265 -18 c0 -5 6 -10 14
-10 8 0 28 -13 46 -30 19 -18 56 -36 93 -47 56 -15 107 -46 96 -57 -7 -7 -131
-11 -271 -8 -121 2 -128 3 -128 22 0 13 7 20 19 20 13 0 21 9 26 30 4 17 15
36 26 43 10 6 19 20 19 29 0 13 8 18 30 18 17 0 30 -4 30 -10z m3235 -45 c38
-37 55 -63 55 -80 l0 -25 -185 0 c-158 0 -185 2 -185 15 0 8 7 15 15 15 8 0
15 5 15 10 0 6 7 10 16 10 55 0 152 54 167 93 12 31 46 18 102 -38z m-6400 13
c14 -6 25 -17 25 -25 0 -7 7 -13 16 -13 8 0 22 -7 30 -15 9 -8 26 -15 40 -15
13 0 24 -4 24 -10 0 -5 7 -10 15 -10 8 0 15 -8 15 -18 0 -17 -11 -18 -150 -18
-149 1 -150 1 -150 24 0 12 5 22 10 22 6 0 10 6 10 14 0 7 7 19 15 26 8 7 15
21 15 31 0 22 43 26 85 7z m6840 -24 c14 -12 50 -26 80 -33 30 -7 55 -17 55
-22 0 -5 7 -9 16 -9 9 0 14 -6 12 -12 -4 -10 -47 -14 -161 -16 l-157 -3 0 26
c0 14 5 25 10 25 6 0 10 7 10 15 0 51 85 69 135 29z"/>
<path d="M15803 535 c-34 -35 -43 -53 -43 -80 0 -43 12 -72 45 -110 24 -27 33
-30 82 -30 36 0 58 4 61 13 2 6 10 12 19 12 35 0 63 60 63 137 0 48 -28 83
-66 83 -13 0 -26 5 -29 10 -3 6 -25 10 -47 10 -36 0 -47 -6 -85 -45z m117 -14
c0 -5 9 -13 20 -16 11 -3 20 -12 20 -20 0 -7 5 -15 11 -17 7 -2 8 -17 4 -39
-5 -28 -13 -38 -39 -47 -40 -15 -86 -16 -86 -2 0 6 -5 10 -11 10 -43 0 -45 70
-3 115 23 25 84 36 84 16z"/>
<path d="M336 495 c-3 -8 -12 -15 -19 -15 -7 0 -20 -11 -27 -25 -7 -14 -17
-25 -22 -25 -4 0 -8 -7 -8 -15 0 -8 4 -15 9 -15 4 0 12 -15 17 -32 5 -18 20
-38 33 -44 12 -7 28 -17 34 -23 24 -24 117 -10 150 24 36 36 13 125 -38 149
-19 9 -37 21 -40 26 -10 16 -82 12 -89 -5z m114 -72 c11 -10 20 -24 20 -33 0
-33 -84 -60 -119 -38 -23 14 -28 57 -9 76 18 18 85 15 108 -5z"/>
</g>
</svg>
