<?xml version="1.0" standalone="no"?>
<!DOCTYPE svg PUBLIC "-//W3C//DTD SVG 20010904//EN"
 "http://www.w3.org/TR/2001/REC-SVG-20010904/DTD/svg10.dtd">
<svg version="1.0" xmlns="http://www.w3.org/2000/svg"
 width="2706.000000pt" height="438.000000pt" viewBox="0 0 2706.000000 438.000000"
 preserveAspectRatio="xMidYMid meet">
<metadata>
Created by potrace 1.13, written by Peter Selinger 2001-2015
</metadata>
<g transform="translate(0.000000,438.000000) scale(0.100000,-0.100000)"
fill="#000000" stroke="none">
<path d="M98 4295 c-6 -14 -15 -25 -20 -25 -4 0 -8 -23 -8 -51 0 -43 7 -63 41
-118 74 -117 115 -159 193 -196 78 -37 152 -55 224 -55 49 0 92 -21 92 -45 0
-8 13 -15 32 -17 44 -4 66 -46 49 -93 -17 -48 -14 -90 9 -110 20 -18 20 -32
20 -1016 -1 -630 -4 -999 -10 -999 -6 0 -10 -7 -10 -15 0 -8 5 -15 10 -15 6 0
10 -7 10 -15 0 -8 -7 -15 -15 -15 -8 0 -15 -7 -15 -15 0 -8 7 -15 15 -15 13 0
15 -59 15 -449 l0 -449 -32 -6 c-19 -4 -34 -2 -38 5 -11 16 -88 -9 -131 -43
-20 -16 -53 -31 -75 -35 -46 -7 -74 -20 -74 -34 0 -14 -26 -39 -39 -39 -6 0
-11 -7 -11 -15 0 -8 -7 -15 -15 -15 -8 0 -15 -7 -15 -15 0 -8 -4 -15 -10 -15
-5 0 -10 -7 -10 -15 0 -8 -4 -15 -10 -15 -5 0 -10 -6 -10 -14 0 -8 -3 -16 -8
-18 -9 -4 -52 -86 -52 -100 0 -5 5 -6 11 -2 7 4 10 -2 8 -17 -8 -72 96 -145
193 -136 108 10 159 28 177 60 9 17 46 60 84 96 37 36 67 70 67 77 0 7 9 16
20 19 11 3 20 13 20 21 0 8 5 14 10 14 6 0 10 16 10 35 0 19 5 35 10 35 6 0
10 9 10 20 0 14 7 20 24 20 13 0 36 6 51 14 18 10 42 12 69 8 22 -3 73 -4 111
-2 132 7 2250 3 2306 -5 39 -5 58 -4 63 4 9 14 45 14 118 -1 45 -9 63 -9 78
-1 13 9 75 11 212 8 106 -3 711 -5 1343 -5 633 0 1170 -1 1195 -2 59 -2 3181
-2 3240 0 25 1 563 2 1195 2 633 0 1237 2 1343 5 137 3 199 1 212 -8 15 -8 33
-8 78 1 73 15 109 15 118 1 5 -8 24 -9 63 -3 31 4 432 8 891 8 459 0 860 -4
891 -8 39 -6 58 -5 63 3 9 14 45 14 118 -1 45 -9 63 -9 78 -1 13 9 75 11 212
8 106 -3 711 -5 1343 -5 633 0 1170 -1 1195 -2 59 -2 3181 -2 3240 0 25 1 563
2 1195 2 633 0 1237 2 1343 5 137 3 199 1 212 -8 15 -8 33 -8 78 1 73 15 109
15 118 1 5 -8 24 -9 63 -4 56 8 2174 12 2306 5 39 -2 89 -1 111 2 27 4 51 2
69 -8 15 -8 38 -14 51 -14 17 0 24 -6 24 -20 0 -11 5 -20 10 -20 6 0 10 -16
10 -35 0 -19 5 -35 10 -35 6 0 10 -6 10 -14 0 -8 9 -18 20 -21 11 -3 20 -12
20 -19 0 -7 30 -41 68 -77 37 -36 74 -79 83 -96 18 -32 69 -50 177 -60 97 -9
201 64 193 136 -2 15 1 21 8 17 6 -4 11 -3 11 2 0 14 -43 96 -52 100 -5 2 -8
10 -8 18 0 8 -4 14 -10 14 -5 0 -10 7 -10 15 0 8 -4 15 -10 15 -5 0 -10 7 -10
15 0 8 -7 15 -15 15 -8 0 -15 7 -15 15 0 8 -5 15 -11 15 -13 0 -39 25 -39 39
0 14 -28 27 -74 34 -22 4 -55 19 -75 35 -43 34 -120 59 -131 43 -4 -7 -19 -9
-38 -5 l-32 6 0 449 c0 390 2 449 15 449 8 0 15 7 15 15 0 8 -7 15 -15 15 -8
0 -15 7 -15 15 0 8 5 15 10 15 6 0 10 7 10 15 0 8 -4 15 -10 15 -6 0 -9 369
-10 999 0 984 0 998 20 1016 23 20 26 62 9 110 -17 47 5 89 49 93 19 2 32 9
32 17 0 24 43 45 92 45 72 0 146 18 224 55 78 37 119 79 193 196 34 55 41 75
41 118 0 28 -4 51 -8 51 -5 0 -14 11 -20 25 -11 25 -13 25 -141 25 -115 0
-130 -2 -133 -17 -2 -12 -14 -18 -36 -19 -19 -1 -40 -10 -51 -23 -10 -11 -25
-21 -33 -21 -9 0 -27 -9 -41 -20 -14 -11 -28 -20 -32 -20 -10 0 -65 -60 -65
-71 0 -5 -6 -9 -13 -9 -7 0 -19 -10 -27 -22 -8 -11 -25 -30 -36 -40 -13 -12
-27 -44 -35 -78 -12 -53 -16 -60 -48 -74 -60 -25 -81 -26 -358 -27 -148 0
-293 -5 -323 -11 -39 -7 -55 -7 -58 1 -4 13 -39 15 -44 2 -2 -5 -26 -5 -58 0
-31 5 -418 6 -895 2 -998 -9 -1293 -7 -1438 9 -75 8 -111 8 -115 1 -4 -5 -44
-13 -90 -17 -64 -5 -89 -3 -112 9 -32 16 -76 22 -51 6 20 -13 -59 -18 -143 -9
-39 4 -73 4 -76 0 -9 -13 -662 -7 -693 6 -23 10 -37 9 -71 -2 -35 -12 -64 -12
-186 -2 -80 7 -158 9 -175 6 -16 -3 -95 -2 -175 2 -98 6 -170 5 -220 -2 -59
-9 -125 -8 -305 4 -166 12 -247 13 -290 6 -78 -13 -188 -13 -201 0 -7 7 -61 7
-172 -1 -103 -8 -173 -9 -194 -3 -35 10 -92 10 -308 1 -130 -6 -404 -10 -425
-7 -5 1 -1 6 10 11 14 7 5 8 -33 5 -29 -3 -57 -8 -64 -12 -12 -7 -212 -6 -428
3 -74 3 -173 4 -220 3 -47 -2 -116 -2 -155 -2 -38 1 -225 4 -415 7 -190 3
-436 8 -548 11 -146 4 -207 3 -217 -6 -16 -13 -265 -29 -310 -20 -16 4 -66 3
-110 -2 -97 -11 -1014 -16 -1017 -6 -2 4 -35 4 -74 0 -84 -9 -163 -4 -143 9
25 16 -19 10 -51 -6 -23 -12 -48 -14 -112 -9 -46 4 -86 12 -90 17 -4 7 -40 7
-115 -1 -124 -14 -277 -15 -1473 -15 -1196 0 -1349 1 -1473 15 -75 8 -111 8
-115 1 -4 -5 -44 -13 -90 -17 -64 -5 -89 -3 -112 9 -32 16 -76 22 -51 6 20
-13 -59 -18 -143 -9 -39 4 -72 4 -74 0 -3 -10 -920 -5 -1017 6 -44 5 -93 6
-110 2 -45 -9 -294 7 -310 20 -10 9 -71 10 -217 6 -112 -3 -358 -8 -548 -11
-190 -3 -376 -6 -415 -7 -38 0 -108 0 -155 2 -47 1 -146 0 -220 -3 -216 -9
-416 -10 -428 -3 -7 4 -35 9 -64 12 -38 3 -47 2 -33 -5 11 -5 16 -10 10 -11
-21 -3 -295 1 -425 7 -216 9 -273 9 -308 -1 -21 -6 -91 -5 -194 3 -111 8 -165
8 -172 1 -13 -13 -123 -13 -201 0 -43 7 -124 6 -290 -6 -180 -12 -246 -13
-305 -4 -50 7 -122 8 -220 2 -80 -4 -158 -5 -175 -2 -16 3 -95 1 -175 -6 -122
-10 -151 -10 -186 2 -34 11 -48 12 -71 2 -31 -13 -684 -19 -693 -6 -3 4 -37 4
-76 0 -84 -9 -163 -4 -143 9 25 16 -19 10 -51 -6 -23 -12 -48 -14 -112 -9 -46
4 -86 12 -90 17 -4 7 -40 7 -115 -1 -145 -16 -440 -18 -1438 -9 -477 4 -864 3
-895 -2 -32 -5 -56 -5 -58 0 -5 13 -40 11 -44 -2 -3 -8 -19 -8 -58 -1 -30 6
-175 11 -323 11 -277 1 -298 2 -358 27 -32 14 -36 21 -48 74 -8 34 -22 66 -35
78 -11 10 -28 29 -36 40 -8 12 -20 22 -27 22 -7 0 -13 4 -13 9 0 11 -55 71
-65 71 -4 0 -18 9 -32 20 -14 11 -32 20 -41 20 -8 0 -23 10 -33 21 -11 13 -32
22 -51 23 -22 1 -34 7 -36 19 -3 15 -18 17 -133 17 -128 0 -130 0 -141 -25z
m307 -89 c76 -36 107 -61 163 -132 38 -49 44 -99 12 -109 -11 -3 -20 -11 -20
-17 0 -38 -212 53 -322 140 -51 39 -58 49 -58 79 0 62 13 73 86 73 53 0 78 -6
139 -34z m26465 15 c5 -11 10 -35 10 -54 0 -30 -7 -40 -57 -79 -111 -87 -323
-178 -323 -140 0 6 -9 14 -20 17 -32 10 -26 60 13 108 59 75 77 90 155 129 66
32 87 38 144 38 56 0 69 -3 78 -19z m-17825 -430 c6 8 38 10 111 6 58 -2 107
-1 110 4 3 5 96 6 208 3 145 -5 205 -3 210 5 12 19 340 14 510 -9 145 -19 224
-19 3336 -19 3112 0 3191 0 3336 19 170 23 498 28 510 9 5 -8 65 -10 210 -5
112 3 206 2 208 -3 3 -5 51 -7 106 -4 64 4 105 2 113 -5 10 -8 20 -5 42 12 24
19 34 22 52 13 13 -6 23 -14 23 -20 0 -5 20 -6 48 -2 124 17 376 13 502 -8 14
-2 30 0 37 5 7 6 40 7 75 3 78 -7 85 -7 566 -7 216 1 418 -3 450 -9 69 -11
512 -11 512 1 0 8 33 6 104 -6 21 -3 41 -3 45 2 3 5 145 6 321 3 173 -3 322
-2 331 2 9 5 21 3 29 -4 10 -10 12 -8 7 11 -6 26 14 29 53 7 31 -17 64 -19 89
-4 10 7 29 9 42 6 44 -11 367 -17 371 -7 2 7 16 6 38 0 19 -6 152 -10 297 -10
164 0 264 -4 268 -10 10 -16 45 -12 45 5 0 10 10 15 30 15 21 0 30 -5 30 -16
0 -12 5 -14 18 -8 9 5 139 9 287 9 335 0 345 1 345 20 0 8 9 15 20 15 11 0 20
-7 20 -15 0 -8 7 -15 15 -15 8 0 15 5 15 10 0 14 57 13 62 -1 2 -7 88 -10 276
-10 175 1 272 -3 272 -9 0 -13 37 -13 45 0 8 13 436 3 508 -11 71 -14 97 -12
97 7 0 14 8 16 46 10 26 -3 91 -6 145 -6 85 0 99 -2 99 -16 0 -13 7 -15 32
-10 18 3 36 12 40 19 6 9 8 9 8 0 0 -7 9 -13 20 -13 11 0 20 7 20 15 0 8 5 15
10 15 6 0 10 -7 10 -15 0 -20 59 -20 66 -1 5 12 62 14 377 10 205 -2 416 -9
470 -15 72 -9 103 -9 120 -1 25 13 347 22 347 10 0 -13 38 -9 43 5 3 6 6 2 6
-10 1 -13 -3 -23 -9 -23 -5 0 -10 -7 -10 -15 0 -8 4 -15 9 -15 5 0 8 -113 6
-255 -1 -141 2 -258 7 -261 12 -7 10 -281 -2 -289 -14 -8 -14 -445 0 -445 6 0
9 -49 9 -130 -1 -108 -4 -130 -16 -130 -12 0 -13 -5 -7 -22 11 -28 20 -642 14
-913 -1 -60 1 -154 5 -208 5 -70 4 -102 -5 -112 -8 -10 -11 -57 -9 -154 2 -77
0 -144 -4 -147 -4 -4 -7 -21 -7 -38 l0 -31 -66 3 c-51 3 -70 0 -84 -13 -17
-15 -42 -16 -262 -11 -134 4 -274 11 -313 16 -98 13 -222 12 -248 -2 -43 -23
-114 -26 -331 -12 -142 8 -225 10 -237 4 -26 -14 -305 -13 -328 2 -14 9 -61 8
-202 -5 -200 -17 -589 -21 -589 -6 0 5 -9 9 -20 9 -11 0 -20 -4 -20 -10 0 -5
-13 -10 -30 -10 -16 0 -30 5 -30 10 0 6 -33 10 -80 10 -47 0 -80 -4 -80 -10 0
-16 -57 -12 -64 5 -6 17 -76 22 -76 5 0 -5 -13 -7 -30 -3 -19 3 -30 1 -30 -6
0 -8 -71 -11 -249 -11 -170 0 -252 -3 -257 -11 -4 -7 -20 -8 -43 -4 -59 12
-352 17 -364 7 -25 -20 -75 -23 -106 -8 -27 15 -125 16 -888 14 -522 -1 -861
-6 -864 -11 -4 -6 -19 -5 -39 2 -41 14 -225 15 -251 1 -10 -6 -19 -7 -19 -2 0
15 -166 15 -189 0 -17 -10 -25 -10 -41 0 -12 7 -56 12 -114 12 -87 0 -95 -2
-101 -21 -7 -22 -31 -20 -29 3 2 21 -890 23 -911 1 -12 -12 -20 -11 -51 2 -53
22 -434 22 -434 0 0 -23 -44 -23 -71 1 -19 17 -259 20 -290 4 -13 -8 -19 -7
-19 1 0 14 -779 11 -798 -4 -16 -12 -112 -18 -112 -6 0 4 -9 6 -20 4 -11 -2
-22 0 -25 6 -10 15 -551 12 -583 -4 -29 -15 -115 -14 -120 1 -2 6 -48 7 -110
4 -59 -3 -206 -4 -327 -3 -287 5 -4043 5 -4330 0 -121 -1 -268 0 -327 3 -62 3
-108 2 -110 -4 -5 -15 -91 -16 -120 -1 -32 16 -573 19 -583 4 -3 -6 -14 -8
-25 -6 -11 2 -20 0 -20 -4 0 -12 -96 -6 -112 6 -19 15 -798 18 -798 4 0 -8 -6
-9 -19 -1 -31 16 -271 13 -290 -4 -27 -24 -71 -24 -71 -1 0 22 -381 22 -434 0
-31 -13 -39 -14 -51 -2 -21 22 -913 20 -911 -1 2 -23 -22 -25 -29 -3 -6 19
-14 21 -101 21 -58 0 -102 -5 -114 -12 -16 -10 -24 -10 -41 0 -23 15 -189 15
-189 0 0 -5 -9 -4 -19 2 -26 14 -210 13 -251 -1 -20 -7 -35 -8 -39 -2 -3 5
-342 10 -864 11 -763 2 -861 1 -888 -14 -31 -15 -81 -12 -106 8 -12 10 -305 5
-364 -7 -23 -4 -39 -3 -43 4 -5 8 -87 11 -257 11 -178 0 -249 3 -249 11 0 7
-11 9 -30 6 -17 -4 -30 -2 -30 3 0 17 -70 12 -76 -5 -7 -17 -64 -21 -64 -5 0
6 -33 10 -80 10 -47 0 -80 -4 -80 -10 0 -5 -13 -10 -30 -10 -16 0 -30 5 -30
10 0 6 -9 10 -20 10 -11 0 -20 -4 -20 -9 0 -15 -389 -11 -589 6 -141 13 -188
14 -202 5 -23 -15 -302 -16 -328 -2 -12 6 -95 4 -237 -4 -217 -14 -288 -11
-331 12 -26 14 -150 15 -248 2 -38 -5 -179 -12 -313 -16 -220 -5 -245 -4 -262
11 -14 13 -33 16 -84 13 l-66 -3 0 31 c0 17 -3 34 -7 38 -4 3 -6 70 -4 147 2
97 -1 144 -9 154 -9 10 -10 42 -5 112 4 54 6 148 5 208 -6 271 3 885 14 913 6
17 5 22 -7 22 -12 0 -15 22 -16 130 0 81 3 130 9 130 14 0 14 437 0 445 -12 8
-14 282 -2 289 5 3 8 120 7 261 -2 142 1 255 6 255 5 0 9 7 9 15 0 8 -4 15
-10 15 -5 0 -10 10 -9 23 0 12 3 16 6 10 5 -14 43 -18 43 -5 0 12 322 3 347
-10 17 -8 48 -8 120 1 54 6 265 13 470 15 315 4 372 2 377 -10 7 -19 66 -19
66 1 0 8 5 15 10 15 6 0 10 -7 10 -15 0 -8 9 -15 20 -15 11 0 20 6 20 13 0 9
2 9 8 0 4 -7 22 -16 40 -19 25 -5 32 -3 32 10 0 14 14 16 99 16 54 0 119 3
145 6 38 6 46 4 46 -10 0 -19 26 -21 97 -7 72 14 500 24 508 11 8 -13 45 -13
45 0 0 6 97 10 272 9 188 0 274 3 276 10 5 14 62 15 62 1 0 -5 7 -10 15 -10 8
0 15 7 15 15 0 8 9 15 20 15 11 0 20 -7 20 -15 0 -19 10 -20 345 -20 149 0
278 -4 288 -9 12 -6 17 -4 17 8 0 11 9 16 30 16 20 0 30 -5 30 -15 0 -17 35
-21 45 -5 4 6 104 10 268 10 145 0 278 4 297 10 22 6 36 7 38 0 4 -10 327 -4
371 7 13 3 32 1 42 -6 25 -15 58 -13 89 4 39 22 59 19 53 -7 -5 -19 -3 -21 7
-11 8 7 20 9 29 4 9 -4 158 -5 331 -2 176 3 318 2 321 -3 4 -5 24 -5 45 -2 71
12 104 14 104 6 0 -12 443 -12 512 -1 32 6 234 10 450 9 481 0 488 0 566 7 35
4 68 3 75 -3 7 -5 23 -7 37 -5 126 21 388 25 499 8 25 -4 46 -3 50 2 19 29 45
31 77 7 23 -18 34 -22 39 -13z m-1508 -3267 c-3 -3 -12 -4 -19 -1 -8 3 -5 6 6
6 11 1 17 -2 13 -5z m12010 0 c-3 -3 -12 -4 -19 -1 -8 3 -5 6 6 6 11 1 17 -2
13 -5z m-18869 -118 c-3 -36 -12 -64 -29 -85 -65 -86 -107 -124 -159 -147 -48
-22 -59 -24 -104 -14 -93 20 -98 45 -23 118 28 28 72 72 96 97 59 62 104 84
170 85 l53 0 -4 -54z m25841 35 c21 -11 58 -40 82 -66 24 -25 68 -69 97 -97
74 -73 69 -98 -24 -118 -87 -19 -160 26 -263 161 -17 21 -26 49 -29 85 l-4 54
51 0 c32 0 67 -8 90 -19z"/>
<path d="M2107 3604 c-13 -14 -268 -25 -627 -28 -190 -1 -368 -3 -397 -4 l-51
-2 -7 -61 c-6 -51 -4 -62 10 -73 15 -11 16 -24 11 -97 -24 -327 -21 -1219 4
-1227 13 -5 13 -42 0 -42 -5 0 -10 -7 -10 -15 0 -8 5 -15 10 -15 6 0 10 -25
10 -55 0 -48 -2 -55 -20 -55 -11 0 -20 -7 -20 -15 0 -8 9 -15 20 -15 18 0 20
-7 20 -60 0 -33 -4 -60 -10 -60 -5 0 -10 -7 -10 -15 0 -8 5 -15 10 -15 8 0 10
-153 8 -485 l-3 -485 625 0 c344 0 663 -1 710 -1 47 -1 230 1 408 4 195 4 322
2 322 -4 0 -5 9 -9 20 -9 11 0 20 4 20 8 0 5 101 9 225 11 155 2 225 -1 225
-8 0 -6 9 -11 20 -11 11 0 20 4 20 8 0 5 471 9 1048 9 1200 0 1439 3 1420 14
-9 6 -6 9 10 9 12 0 22 -4 22 -10 0 -15 82 -12 121 4 35 14 59 11 71 -8 5 -7
18 -6 44 3 28 10 39 11 42 2 4 -13 52 -15 52 -1 0 9 127 5 162 -6 9 -2 19 -1
22 4 2 4 49 7 103 5 54 -2 103 -3 108 -2 6 0 61 2 122 4 82 2 111 0 106 -9 -3
-6 0 -6 8 2 16 15 63 16 90 2 10 -6 19 -7 19 -2 0 10 259 9 282 -2 9 -4 25 -3
36 3 11 6 38 7 63 3 24 -4 316 -6 649 -5 333 2 623 3 645 3 127 0 1461 -11
1518 -13 38 -1 68 2 70 8 2 6 12 4 22 -5 14 -11 19 -12 22 -2 5 14 79 17 87 3
3 -4 100 -9 215 -10 171 -2 215 1 239 13 16 8 32 12 36 9 4 -4 46 -10 94 -14
48 -4 106 -13 129 -20 33 -10 47 -10 65 -1 16 8 119 13 338 16 173 2 343 7
378 10 45 6 62 4 62 -4 0 -9 3 -10 13 -1 8 6 17 8 20 5 3 -4 14 -3 24 1 34 15
196 14 217 -1 28 -19 665 -21 684 -2 19 19 785 19 804 1 19 -20 656 -18 684 1
21 15 183 16 217 1 10 -4 21 -5 24 -1 3 3 12 1 20 -5 10 -9 13 -8 13 1 0 8 17
10 63 4 34 -3 204 -8 377 -10 219 -3 322 -8 338 -16 18 -9 32 -9 65 1 23 7 81
16 129 20 48 4 90 10 94 14 4 3 20 -1 36 -9 24 -12 68 -15 239 -13 115 1 212
6 215 10 8 14 82 11 87 -4 3 -9 8 -8 22 3 10 9 20 11 22 5 2 -6 32 -9 70 -8
57 2 1391 13 1518 13 22 0 312 -1 645 -3 333 -1 625 1 649 5 25 4 52 3 63 -3
11 -6 27 -7 36 -3 23 11 282 12 282 2 0 -5 9 -4 19 2 27 14 74 13 90 -2 8 -8
11 -8 8 -2 -5 9 24 11 106 9 61 -2 117 -4 122 -4 6 -1 54 0 108 2 54 2 101 -1
103 -5 3 -5 13 -6 22 -4 35 11 162 15 162 6 0 -14 48 -12 52 1 3 9 14 8 42 -2
26 -9 39 -10 44 -3 12 19 36 22 71 8 39 -16 121 -19 121 -4 0 6 10 10 23 10
15 0 18 -3 9 -9 -19 -11 220 -14 1421 -14 576 0 1047 -4 1047 -9 0 -4 9 -8 20
-8 11 0 20 5 20 11 0 7 70 10 225 8 124 -2 225 -6 225 -11 0 -4 9 -8 20 -8 11
0 20 4 20 9 0 6 127 8 323 4 177 -3 360 -5 407 -4 47 0 366 1 710 1 l625 0 -3
485 c-2 332 0 485 8 485 5 0 10 7 10 15 0 8 -4 15 -10 15 -6 0 -10 27 -10 60
0 53 2 60 20 60 11 0 20 7 20 15 0 8 -9 15 -20 15 -18 0 -20 7 -20 55 0 30 5
55 10 55 6 0 10 7 10 15 0 8 -4 15 -10 15 -13 0 -13 37 0 42 25 8 28 900 4
1227 -5 73 -4 86 11 97 14 11 16 22 10 73 l-7 61 -51 2 c-29 1 -207 3 -397 4
-190 2 -408 9 -485 15 -82 7 -247 10 -400 8 -385 -6 -640 -4 -728 5 -69 8 -79
7 -98 -10 -19 -18 -42 -19 -290 -21 -168 -1 -269 1 -269 7 0 6 -11 10 -25 10
-14 0 -25 -4 -25 -8 0 -5 -85 -9 -190 -11 -140 -2 -190 1 -190 9 0 9 -15 10
-52 5 -96 -12 -448 -17 -448 -5 0 14 -67 13 -74 -2 -5 -10 -7 -10 -12 0 -7 14
-54 16 -54 2 0 -5 -16 -10 -35 -10 -19 0 -35 5 -35 10 0 6 -16 10 -35 10 -19
0 -35 -5 -35 -11 0 -7 -55 -10 -177 -9 -373 4 -604 0 -598 -10 8 -14 -21 -13
-48 2 -16 8 -124 11 -384 9 -323 -2 -363 -1 -363 13 0 9 -9 16 -20 16 -11 0
-20 -6 -20 -12 0 -10 -29 -14 -105 -15 -65 -2 -105 1 -105 7 0 6 -9 10 -20 10
-11 0 -20 -5 -20 -11 0 -10 -280 -7 -472 6 -60 5 -88 3 -88 -4 0 -6 -9 -11
-20 -11 -11 0 -20 5 -20 10 0 6 -37 10 -90 10 -73 0 -90 -3 -90 -15 0 -8 -9
-15 -20 -15 -11 0 -20 7 -20 15 0 13 -33 15 -227 17 -246 2 -369 6 -477 14
-43 4 -72 2 -79 -5 -6 -6 -52 -11 -109 -11 -62 0 -98 -4 -98 -11 0 -11 -10
-11 -4900 -11 -4890 0 -4900 0 -4900 11 0 7 -36 11 -98 11 -57 0 -103 5 -109
11 -7 7 -36 9 -79 5 -108 -8 -231 -12 -476 -14 -195 -2 -228 -4 -228 -17 0 -8
-9 -15 -20 -15 -11 0 -20 7 -20 15 0 12 -17 15 -90 15 -53 0 -90 -4 -90 -10 0
-5 -9 -10 -20 -10 -11 0 -20 5 -20 11 0 7 -28 9 -87 4 -193 -13 -473 -16 -473
-6 0 6 -9 11 -20 11 -11 0 -20 -4 -20 -10 0 -6 -40 -9 -105 -7 -76 1 -105 5
-105 15 0 6 -9 12 -20 12 -11 0 -20 -7 -20 -16 0 -14 -40 -15 -363 -13 -260 2
-368 -1 -384 -9 -27 -15 -56 -16 -48 -2 6 10 -225 14 -597 10 -123 -1 -178 2
-178 9 0 6 -16 11 -35 11 -19 0 -35 -4 -35 -10 0 -5 -16 -10 -35 -10 -19 0
-35 5 -35 10 0 14 -47 12 -54 -2 -5 -10 -7 -10 -12 0 -7 15 -74 16 -74 2 0
-12 -352 -7 -447 5 -38 5 -53 4 -53 -5 0 -8 -50 -11 -190 -9 -104 2 -190 6
-190 11 0 4 -11 8 -25 8 -14 0 -25 -4 -25 -10 0 -6 -101 -8 -269 -7 -248 2
-271 3 -290 21 -19 17 -29 18 -98 10 -101 -10 -402 -11 -723 -1 -141 5 -259 5
-263 1z m3573 -97 c35 -13 129 -15 262 -7 165 12 189 4 104 -35 -31 -14 -56
-30 -56 -36 0 -5 -12 -15 -27 -21 -16 -7 -46 -26 -68 -43 -103 -82 -140 -84
-221 -14 -32 29 -71 64 -85 79 -22 22 -38 28 -98 34 l-71 6 0 -29 c0 -17 -5
-33 -11 -37 -6 -3 -19 -20 -29 -36 -15 -24 -17 -44 -12 -115 4 -65 2 -87 -8
-93 -11 -7 -11 -14 -2 -35 7 -14 12 -39 12 -55 0 -16 5 -41 11 -56 14 -39 21
-588 7 -664 -10 -58 -9 -62 16 -95 37 -48 62 -45 124 14 29 27 61 52 72 56 11
3 20 12 20 18 0 7 6 23 13 37 8 14 17 40 20 58 4 18 14 44 23 58 14 20 23 24
43 19 59 -14 99 -16 106 -6 3 6 16 11 28 12 52 1 85 35 123 127 10 24 31 53
47 64 25 18 38 20 93 15 35 -4 76 -2 91 4 33 11 64 69 65 120 1 67 0 69 -33
69 -98 0 -106 170 -10 210 17 7 31 16 31 20 0 8 63 -3 100 -18 14 -5 40 -30
58 -55 29 -41 32 -52 32 -114 0 -74 -22 -134 -59 -159 -11 -8 -23 -29 -26 -47
-10 -42 -22 -57 -51 -57 -17 0 -24 -6 -24 -20 0 -11 -6 -20 -14 -20 -7 0 -43
-29 -79 -65 -36 -36 -69 -65 -72 -65 -10 0 -35 -28 -35 -38 0 -6 -13 -13 -30
-17 -16 -4 -30 -10 -30 -13 0 -4 -13 -13 -30 -20 -17 -8 -30 -21 -30 -32 0
-10 -10 -20 -22 -24 -13 -3 -40 -21 -60 -41 -20 -19 -40 -35 -43 -35 -4 0 -12
-6 -20 -13 -7 -6 -39 -30 -70 -52 -32 -22 -97 -78 -145 -125 -48 -47 -115
-111 -149 -144 -33 -32 -61 -64 -61 -72 0 -8 -4 -14 -10 -14 -5 0 -10 -9 -10
-20 0 -11 -4 -20 -8 -20 -8 0 -42 -69 -42 -86 0 -5 -9 -15 -20 -22 -11 -7 -20
-23 -20 -37 0 -14 -4 -25 -10 -25 -5 0 -10 -15 -10 -34 0 -19 -4 -38 -10 -41
-5 -3 -10 -19 -10 -36 0 -16 -4 -29 -10 -29 -16 0 -13 -189 3 -205 8 -7 20
-47 27 -89 7 -45 20 -83 31 -95 11 -11 19 -25 19 -31 0 -5 4 -10 8 -10 5 0 6
-26 4 -58 -4 -58 -4 -59 38 -95 33 -28 49 -35 67 -31 15 4 31 0 43 -11 14 -13
28 -15 59 -10 23 4 43 11 47 16 3 5 16 9 29 9 13 0 27 4 30 10 12 19 72 38
140 44 60 5 75 3 104 -14 18 -12 39 -19 45 -17 7 3 33 0 58 -7 26 -6 66 -11
90 -10 24 1 83 3 133 4 66 2 100 8 127 22 21 11 44 18 52 15 8 -3 22 2 33 11
19 18 50 33 147 76 72 32 150 36 165 8 6 -12 31 -23 66 -31 100 -22 105 -22
235 2 30 6 70 31 70 44 0 7 5 13 10 13 6 0 10 5 10 11 0 39 77 52 112 19 12
-11 31 -20 42 -20 12 0 34 -12 49 -26 18 -16 59 -34 113 -49 47 -13 93 -30
102 -38 10 -9 44 -18 76 -22 33 -4 85 -19 115 -33 56 -26 99 -31 261 -31 162
0 205 5 261 31 30 14 82 29 115 33 32 4 66 13 76 22 9 8 55 25 102 38 54 15
95 33 113 49 15 14 37 26 49 26 11 0 30 9 42 20 35 33 112 20 112 -19 0 -6 5
-11 10 -11 6 0 10 -6 10 -13 0 -13 40 -38 70 -44 130 -24 135 -24 235 -2 35 8
60 19 66 31 15 28 93 24 165 -8 97 -43 128 -58 147 -76 11 -9 25 -14 33 -11 8
3 31 -4 52 -15 27 -14 61 -20 127 -22 50 -1 109 -3 133 -4 24 -1 64 4 90 10
25 7 51 10 58 7 6 -2 27 5 45 17 29 17 44 19 104 14 68 -6 128 -25 140 -44 3
-6 17 -10 30 -10 13 0 26 -4 29 -9 4 -5 24 -12 47 -16 31 -5 45 -3 59 10 12
11 28 15 43 11 18 -4 34 3 67 31 42 36 42 37 38 95 -2 32 -1 58 4 58 4 0 8 5
8 10 0 6 8 20 19 31 11 12 24 50 31 95 7 42 19 82 27 89 16 16 19 205 3 205
-5 0 -10 13 -10 29 0 17 -4 33 -10 36 -5 3 -10 22 -10 41 0 19 -4 34 -10 34
-5 0 -10 11 -10 25 0 14 -9 30 -20 37 -11 7 -20 17 -20 22 0 17 -34 86 -42 86
-4 0 -8 9 -8 20 0 11 -4 20 -10 20 -5 0 -10 6 -10 14 0 8 -28 40 -61 72 -34
33 -101 97 -149 144 -48 47 -113 103 -145 125 -31 22 -63 46 -70 52 -8 7 -16
13 -20 13 -3 0 -23 16 -43 35 -20 20 -47 38 -59 41 -13 4 -23 14 -23 24 0 11
-13 24 -30 32 -16 7 -30 16 -30 20 0 3 -13 9 -30 13 -16 4 -30 11 -30 17 0 10
-25 38 -35 38 -3 0 -36 29 -72 65 -36 36 -72 65 -79 65 -8 0 -14 9 -14 20 0
14 -7 20 -24 20 -29 0 -41 15 -51 57 -3 18 -15 39 -26 47 -37 25 -59 85 -59
159 0 62 3 73 33 114 17 25 43 50 57 55 37 15 100 26 100 18 0 -4 14 -13 31
-20 96 -40 88 -210 -10 -210 -33 0 -34 -2 -33 -69 1 -51 32 -109 65 -120 15
-6 56 -8 91 -4 55 5 68 3 93 -15 16 -11 37 -40 47 -64 38 -92 71 -126 123
-127 12 -1 25 -6 28 -12 7 -10 47 -8 106 6 20 5 29 1 43 -19 9 -14 19 -40 23
-58 3 -18 12 -44 20 -58 7 -14 13 -30 13 -37 0 -6 9 -15 20 -18 11 -4 43 -29
72 -56 62 -59 87 -62 124 -14 25 33 26 37 16 95 -14 76 -7 625 7 664 6 15 11
40 11 56 0 16 5 41 12 55 9 21 9 28 -2 35 -10 6 -12 28 -8 93 5 71 3 91 -12
115 -10 16 -23 33 -29 36 -6 4 -11 20 -11 37 l0 29 -71 -6 c-60 -6 -76 -12
-98 -34 -14 -15 -53 -50 -85 -79 -81 -70 -118 -68 -221 14 -22 17 -52 36 -67
43 -16 6 -28 16 -28 21 0 6 -25 22 -56 36 -85 39 -61 47 104 35 133 -8 227 -6
262 7 28 11 461 12 488 2 31 -12 136 -13 400 -3 164 6 192 5 192 -8 0 -7 -16
-20 -34 -26 -19 -7 -38 -22 -41 -32 -3 -11 -27 -29 -53 -40 -26 -11 -63 -39
-83 -61 -30 -36 -41 -42 -78 -43 -41 -1 -47 3 -95 56 -36 41 -64 62 -96 73
-25 8 -54 20 -66 26 -59 31 -94 -16 -68 -92 13 -37 13 -53 0 -133 -8 -50 -13
-128 -12 -173 2 -45 0 -99 -3 -120 -4 -21 -1 -65 6 -98 11 -50 15 -154 13
-365 -1 -165 1 -183 21 -211 24 -34 54 -37 132 -14 43 13 57 23 77 56 14 23
42 54 63 71 20 16 37 35 37 42 0 7 27 18 63 25 137 29 152 36 198 107 52 80
81 104 128 104 39 0 114 31 144 58 28 25 56 85 57 123 2 48 -11 119 -21 119
-14 0 -10 54 6 77 20 29 71 36 133 18 46 -14 52 -19 61 -52 11 -39 4 -123 -10
-123 -5 0 -9 -6 -9 -14 0 -7 -13 -30 -30 -51 -16 -21 -30 -43 -30 -50 0 -7
-11 -16 -25 -19 -13 -3 -35 -17 -49 -31 -14 -14 -30 -25 -36 -25 -5 0 -10 -6
-10 -12 0 -12 -61 -58 -77 -58 -5 0 -19 -13 -33 -30 -14 -16 -28 -30 -32 -30
-7 0 -24 -14 -87 -72 -15 -14 -37 -28 -47 -30 -11 -2 -23 -13 -29 -26 -5 -12
-16 -22 -23 -22 -7 0 -30 -18 -52 -40 -22 -22 -43 -40 -48 -40 -5 0 -17 -20
-28 -45 -10 -25 -22 -45 -27 -45 -14 0 -67 -64 -74 -89 -3 -14 -21 -45 -40
-69 -18 -24 -33 -52 -33 -63 0 -10 -4 -19 -8 -19 -13 0 -45 -76 -38 -88 3 -6
-2 -25 -13 -44 -11 -18 -24 -60 -30 -92 -13 -72 -14 -213 -2 -220 4 -3 11 -24
15 -46 3 -22 11 -40 16 -40 6 0 10 -11 10 -25 0 -15 7 -39 15 -55 9 -18 11
-31 5 -35 -6 -3 -10 -18 -10 -33 0 -15 -7 -45 -14 -67 -17 -47 -11 -117 12
-157 9 -15 36 -44 60 -64 36 -30 53 -37 86 -37 79 1 98 8 169 65 35 29 118 28
157 -1 18 -13 56 -22 124 -29 54 -6 104 -16 112 -23 11 -9 21 -9 44 1 16 7 36
10 44 7 7 -3 38 6 67 20 87 40 184 73 217 73 22 0 36 -8 49 -26 56 -79 52 -77
159 -81 91 -3 164 9 164 26 0 3 23 15 51 26 44 17 55 27 73 65 28 59 48 61
100 12 22 -22 56 -48 75 -57 19 -9 54 -37 79 -61 31 -31 53 -44 72 -44 15 0
41 -7 56 -15 16 -8 38 -15 50 -15 36 0 63 -52 32 -62 -7 -2 -323 -2 -703 0
-379 2 -703 3 -720 3 -140 0 -365 -1 -385 -2 -115 -4 -604 -3 -637 2 -24 4
-43 2 -43 -2 0 -13 -1647 -12 -1671 2 -14 7 -24 7 -33 0 -8 -7 -297 -10 -866
-10 -569 0 -858 3 -866 10 -9 7 -19 7 -33 0 -24 -14 -1671 -15 -1671 -2 0 4
-19 6 -42 2 -34 -5 -523 -6 -638 -2 -69 3 -285 3 -1110 -1 -377 -2 -691 -2
-697 0 -32 10 -5 62 32 62 11 0 33 7 49 15 15 8 41 15 56 15 19 0 41 13 72 44
25 24 60 52 79 61 19 9 53 35 75 57 52 49 72 47 100 -12 18 -38 29 -48 73 -65
28 -11 51 -23 51 -26 0 -17 73 -29 164 -26 107 4 103 2 159 81 13 18 27 26 49
26 33 0 130 -33 217 -73 29 -14 60 -23 67 -20 8 3 28 0 44 -7 23 -10 33 -10
44 -1 8 7 58 17 112 23 68 7 106 16 124 29 16 12 44 20 76 21 51 2 63 -3 124
-52 28 -23 65 -32 126 -33 33 0 50 7 86 37 24 20 51 49 60 64 23 40 29 110 12
157 -7 22 -14 52 -14 67 0 15 -4 30 -10 33 -6 4 -4 17 5 35 8 16 15 40 15 55
0 14 4 25 10 25 5 0 13 18 16 40 4 22 11 43 15 46 12 7 11 148 -2 220 -6 32
-19 74 -30 92 -11 19 -16 38 -13 44 7 12 -25 88 -38 88 -4 0 -8 9 -8 19 0 11
-15 39 -33 63 -19 24 -37 55 -40 69 -7 25 -60 89 -74 89 -5 0 -17 20 -27 45
-11 25 -23 45 -28 45 -5 0 -26 18 -48 40 -22 22 -45 40 -52 40 -7 0 -18 10
-23 22 -6 13 -18 24 -29 26 -10 2 -32 16 -47 30 -63 58 -80 72 -87 72 -4 0
-18 14 -32 30 -14 17 -28 30 -33 30 -16 0 -77 46 -77 58 0 6 -5 12 -10 12 -6
0 -22 11 -36 25 -14 14 -36 28 -49 31 -14 3 -25 12 -25 19 0 7 -13 29 -30 50
-16 21 -30 44 -30 51 0 8 -4 14 -9 14 -14 0 -21 84 -10 123 9 33 15 38 61 52
62 18 113 11 133 -18 16 -23 20 -77 6 -77 -10 0 -23 -71 -21 -119 1 -38 29
-98 57 -123 30 -27 105 -58 144 -58 47 0 76 -24 128 -104 46 -71 61 -78 199
-107 35 -7 62 -18 62 -25 0 -7 17 -26 38 -42 20 -17 48 -48 62 -71 20 -33 34
-43 77 -56 78 -23 108 -20 132 14 20 28 22 46 21 211 -2 211 2 315 13 365 7
33 10 77 6 98 -3 21 -5 75 -3 120 1 45 -4 123 -12 173 -13 80 -13 96 0 133 26
76 -9 123 -68 92 -12 -6 -41 -18 -66 -26 -32 -11 -60 -32 -96 -73 -48 -53 -54
-57 -95 -56 -37 1 -48 7 -78 43 -20 22 -57 50 -83 61 -26 11 -50 29 -53 40 -3
10 -22 25 -41 32 -18 6 -34 19 -34 26 0 13 28 14 193 8 261 -10 368 -9 397 3
26 10 463 9 490 -2z m1250 -12 c0 -8 -14 -24 -30 -37 -17 -13 -43 -33 -59 -46
-27 -21 -39 -22 -163 -22 -189 0 -318 27 -318 67 0 7 -5 13 -11 13 -8 0 -7 5
1 15 11 13 50 15 268 15 149 -1 259 3 264 8 13 13 48 3 48 -13z m9810 12 c35
-13 129 -15 262 -7 165 12 189 4 104 -35 -31 -14 -56 -30 -56 -36 0 -5 -12
-15 -27 -21 -16 -7 -46 -26 -68 -43 -103 -82 -140 -84 -221 -14 -32 29 -71 64
-85 79 -22 22 -38 28 -98 34 l-71 6 0 -29 c0 -17 -5 -33 -11 -37 -6 -3 -19
-20 -29 -36 -15 -24 -17 -44 -12 -115 4 -65 2 -87 -8 -93 -11 -7 -11 -14 -2
-35 7 -14 12 -39 12 -55 0 -16 5 -41 11 -56 14 -39 21 -588 7 -664 -10 -58 -9
-62 16 -95 37 -48 62 -45 124 14 29 27 61 52 72 56 11 3 20 12 20 18 0 7 6 23
13 37 8 14 17 40 20 58 4 18 14 44 23 58 14 20 23 24 43 19 59 -14 99 -16 106
-6 3 6 16 11 28 12 52 1 85 35 123 127 10 24 31 53 47 64 25 18 38 20 93 15
35 -4 76 -2 91 4 33 11 64 69 65 120 1 67 0 69 -33 69 -98 0 -106 170 -10 210
17 7 31 16 31 20 0 8 63 -3 100 -18 14 -5 40 -30 58 -55 29 -41 32 -52 32
-114 0 -74 -22 -134 -59 -159 -11 -8 -23 -29 -26 -47 -10 -42 -22 -57 -51 -57
-17 0 -24 -6 -24 -20 0 -11 -6 -20 -14 -20 -7 0 -43 -29 -79 -65 -36 -36 -69
-65 -72 -65 -10 0 -35 -28 -35 -38 0 -6 -13 -13 -30 -17 -16 -4 -30 -10 -30
-13 0 -4 -13 -13 -30 -20 -17 -8 -30 -21 -30 -32 0 -10 -10 -20 -22 -24 -13
-3 -40 -21 -60 -41 -20 -19 -40 -35 -43 -35 -4 0 -12 -6 -20 -13 -7 -6 -39
-30 -70 -52 -32 -22 -97 -78 -145 -125 -48 -47 -115 -111 -149 -144 -33 -32
-61 -64 -61 -72 0 -8 -4 -14 -10 -14 -5 0 -10 -9 -10 -20 0 -11 -4 -20 -8 -20
-8 0 -42 -69 -42 -86 0 -5 -9 -15 -20 -22 -11 -7 -20 -23 -20 -37 0 -14 -4
-25 -10 -25 -5 0 -10 -15 -10 -34 0 -19 -4 -38 -10 -41 -5 -3 -10 -19 -10 -36
0 -16 -4 -29 -10 -29 -16 0 -13 -189 3 -205 8 -7 20 -47 27 -89 7 -45 20 -83
31 -95 11 -11 19 -25 19 -31 0 -5 4 -10 8 -10 5 0 6 -26 4 -58 -4 -58 -4 -59
38 -95 33 -28 49 -35 67 -31 15 4 31 0 43 -11 14 -13 28 -15 59 -10 23 4 43
11 47 16 3 5 16 9 29 9 13 0 27 4 30 10 12 19 72 38 140 44 60 5 75 3 104 -14
18 -12 39 -19 45 -17 7 3 33 0 58 -7 26 -6 66 -11 90 -10 24 1 83 3 133 4 66
2 100 8 127 22 21 11 44 18 52 15 8 -3 22 2 33 11 19 18 50 33 147 76 72 32
150 36 165 8 6 -12 31 -23 66 -31 100 -22 105 -22 235 2 30 6 70 31 70 44 0 7
5 13 10 13 6 0 10 5 10 11 0 39 77 52 112 19 12 -11 31 -20 42 -20 12 0 34
-12 49 -26 18 -16 59 -34 113 -49 47 -13 93 -30 102 -38 10 -9 44 -18 76 -22
33 -4 85 -19 115 -33 56 -26 99 -31 261 -31 162 0 205 5 261 31 30 14 82 29
115 33 32 4 66 13 76 22 9 8 55 25 102 38 54 15 95 33 113 49 15 14 37 26 49
26 11 0 30 9 42 20 35 33 112 20 112 -19 0 -6 5 -11 10 -11 6 0 10 -6 10 -13
0 -13 40 -38 70 -44 130 -24 135 -24 235 -2 35 8 60 19 66 31 15 28 93 24 165
-8 97 -43 128 -58 147 -76 11 -9 25 -14 33 -11 8 3 31 -4 52 -15 27 -14 61
-20 127 -22 50 -1 109 -3 133 -4 24 -1 64 4 90 10 25 7 51 10 58 7 6 -2 27 5
45 17 29 17 44 19 104 14 68 -6 128 -25 140 -44 3 -6 17 -10 30 -10 13 0 26
-4 29 -9 4 -5 24 -12 47 -16 31 -5 45 -3 59 10 12 11 28 15 43 11 18 -4 34 3
67 31 42 36 42 37 38 95 -2 32 -1 58 4 58 4 0 8 5 8 10 0 6 8 20 19 31 11 12
24 50 31 95 7 42 19 82 27 89 16 16 19 205 3 205 -5 0 -10 13 -10 29 0 17 -4
33 -10 36 -5 3 -10 22 -10 41 0 19 -4 34 -10 34 -5 0 -10 11 -10 25 0 14 -9
30 -20 37 -11 7 -20 17 -20 22 0 17 -34 86 -42 86 -4 0 -8 9 -8 20 0 11 -4 20
-10 20 -5 0 -10 6 -10 14 0 8 -28 40 -61 72 -34 33 -101 97 -149 144 -48 47
-113 103 -145 125 -31 22 -63 46 -70 52 -8 7 -16 13 -20 13 -3 0 -23 16 -43
35 -20 20 -47 38 -59 41 -13 4 -23 14 -23 24 0 11 -13 24 -30 32 -16 7 -30 16
-30 20 0 3 -13 9 -30 13 -16 4 -30 11 -30 17 0 10 -25 38 -35 38 -3 0 -36 29
-72 65 -36 36 -72 65 -79 65 -8 0 -14 9 -14 20 0 14 -7 20 -24 20 -29 0 -41
15 -51 57 -3 18 -15 39 -26 47 -37 25 -59 85 -59 159 0 62 3 73 33 114 17 25
43 50 57 55 37 15 100 26 100 18 0 -4 14 -13 31 -20 96 -40 88 -210 -10 -210
-33 0 -34 -2 -33 -69 1 -51 32 -109 65 -120 15 -6 56 -8 91 -4 55 5 68 3 93
-15 16 -11 37 -40 47 -64 38 -92 71 -126 123 -127 12 -1 25 -6 28 -12 7 -10
47 -8 106 6 20 5 29 1 43 -19 9 -14 19 -40 23 -58 3 -18 12 -44 20 -58 7 -14
13 -30 13 -37 0 -6 9 -15 20 -18 11 -4 43 -29 72 -56 62 -59 87 -62 124 -14
25 33 26 37 16 95 -14 76 -7 625 7 664 6 15 11 40 11 56 0 16 5 41 12 55 9 21
9 28 -2 35 -10 6 -12 28 -8 93 5 71 3 91 -12 115 -10 16 -23 33 -29 36 -6 4
-11 20 -11 37 l0 29 -71 -6 c-60 -6 -76 -12 -98 -34 -14 -15 -53 -50 -85 -79
-81 -70 -118 -68 -221 14 -22 17 -52 36 -67 43 -16 6 -28 16 -28 21 0 6 -25
22 -56 36 -85 39 -61 47 104 35 133 -8 227 -6 262 7 28 11 461 12 488 2 31
-12 136 -13 400 -3 164 6 192 5 192 -8 0 -7 -16 -20 -34 -26 -19 -7 -38 -22
-41 -32 -3 -11 -27 -29 -53 -40 -26 -11 -63 -39 -83 -61 -30 -36 -41 -42 -78
-43 -41 -1 -47 3 -95 56 -36 41 -64 62 -96 73 -25 8 -54 20 -66 26 -59 31 -94
-16 -68 -92 13 -37 13 -53 0 -133 -8 -50 -13 -128 -12 -173 2 -45 0 -99 -3
-120 -4 -21 -1 -65 6 -98 11 -50 15 -154 13 -365 -1 -165 1 -183 21 -211 24
-34 54 -37 132 -14 43 13 57 23 77 56 14 23 42 54 63 71 20 16 37 35 37 42 0
7 27 18 63 25 137 29 152 36 198 107 52 80 81 104 128 104 39 0 114 31 144 58
28 25 56 85 57 123 2 48 -11 119 -21 119 -14 0 -10 54 6 77 20 29 71 36 133
18 46 -14 52 -19 61 -52 11 -39 4 -123 -10 -123 -5 0 -9 -6 -9 -14 0 -7 -13
-30 -30 -51 -16 -21 -30 -43 -30 -50 0 -7 -11 -16 -25 -19 -13 -3 -35 -17 -49
-31 -14 -14 -30 -25 -36 -25 -5 0 -10 -6 -10 -12 0 -12 -61 -58 -77 -58 -5 0
-19 -13 -33 -30 -14 -16 -28 -30 -32 -30 -7 0 -24 -14 -87 -72 -15 -14 -37
-28 -47 -30 -11 -2 -23 -13 -29 -26 -5 -12 -16 -22 -23 -22 -7 0 -30 -18 -52
-40 -22 -22 -43 -40 -48 -40 -5 0 -17 -20 -28 -45 -10 -25 -22 -45 -27 -45
-14 0 -67 -64 -74 -89 -3 -14 -21 -45 -40 -69 -18 -24 -33 -52 -33 -63 0 -10
-4 -19 -8 -19 -13 0 -45 -76 -38 -88 3 -6 -2 -25 -13 -44 -11 -18 -24 -60 -30
-92 -13 -72 -14 -213 -2 -220 4 -3 11 -24 15 -46 3 -22 11 -40 16 -40 6 0 10
-11 10 -25 0 -15 7 -39 15 -55 9 -18 11 -31 5 -35 -6 -3 -10 -18 -10 -33 0
-15 -7 -45 -14 -67 -17 -47 -11 -117 12 -157 9 -15 36 -44 60 -64 36 -30 53
-37 86 -37 79 1 98 8 169 65 35 29 118 28 157 -1 18 -13 56 -22 124 -29 54 -6
104 -16 112 -23 11 -9 21 -9 44 1 16 7 36 10 44 7 7 -3 38 6 67 20 87 40 184
73 217 73 22 0 36 -8 49 -26 56 -79 52 -77 159 -81 91 -3 164 9 164 26 0 3 23
15 51 26 44 17 55 27 73 65 28 59 48 61 100 12 22 -22 56 -48 75 -57 19 -9 54
-37 79 -61 31 -31 53 -44 72 -44 15 0 41 -7 56 -15 16 -8 38 -15 50 -15 36 0
63 -52 32 -62 -7 -2 -321 -2 -698 0 -825 4 -1041 4 -1110 1 -115 -4 -604 -3
-637 2 -24 4 -43 2 -43 -2 0 -13 -1647 -12 -1671 2 -14 7 -24 7 -33 0 -8 -7
-297 -10 -866 -10 -569 0 -858 3 -866 10 -9 7 -19 7 -33 0 -24 -14 -1671 -15
-1671 -2 0 4 -19 6 -42 2 -34 -5 -523 -6 -638 -2 -20 1 -245 2 -385 2 -16 0
-340 -1 -720 -3 -379 -2 -696 -2 -702 0 -32 10 -5 62 32 62 11 0 33 7 49 15
15 8 41 15 56 15 19 0 41 13 72 44 25 24 60 52 79 61 19 9 53 35 75 57 52 49
72 47 100 -12 18 -38 29 -48 73 -65 28 -11 51 -23 51 -26 0 -17 73 -29 164
-26 107 4 103 2 159 81 13 18 27 26 49 26 33 0 130 -33 217 -73 29 -14 60 -23
67 -20 8 3 28 0 44 -7 23 -10 33 -10 44 -1 8 7 58 17 112 23 68 7 106 16 124
29 16 12 44 20 76 21 51 2 63 -3 124 -52 28 -23 65 -32 126 -33 33 0 50 7 86
37 24 20 51 49 60 64 23 40 29 110 12 157 -7 22 -14 52 -14 67 0 15 -4 30 -10
33 -6 4 -4 17 5 35 8 16 15 40 15 55 0 14 4 25 10 25 5 0 13 18 16 40 4 22 11
43 15 46 12 7 11 148 -2 220 -6 32 -19 74 -30 92 -11 19 -16 38 -13 44 7 12
-25 88 -38 88 -4 0 -8 9 -8 19 0 11 -15 39 -33 63 -19 24 -37 55 -40 69 -7 25
-60 89 -74 89 -5 0 -17 20 -27 45 -11 25 -23 45 -28 45 -5 0 -26 18 -48 40
-22 22 -45 40 -52 40 -7 0 -18 10 -23 22 -6 13 -18 24 -29 26 -10 2 -32 16
-47 30 -63 58 -80 72 -87 72 -4 0 -18 14 -32 30 -14 17 -28 30 -33 30 -16 0
-77 46 -77 58 0 6 -5 12 -10 12 -6 0 -22 11 -36 25 -14 14 -36 28 -49 31 -14
3 -25 12 -25 19 0 7 -13 29 -30 50 -16 21 -30 44 -30 51 0 8 -4 14 -9 14 -14
0 -21 84 -10 123 9 33 15 38 61 52 62 18 113 11 133 -18 16 -23 20 -77 6 -77
-10 0 -23 -71 -21 -119 1 -38 29 -98 57 -123 30 -27 105 -58 144 -58 47 0 76
-24 128 -104 46 -71 61 -78 199 -107 35 -7 62 -18 62 -25 0 -7 17 -26 38 -42
20 -17 48 -48 62 -71 20 -33 34 -43 77 -56 78 -23 108 -20 132 14 20 28 22 46
21 211 -2 211 2 315 13 365 7 33 10 77 6 98 -3 21 -5 75 -3 120 1 45 -4 123
-12 173 -13 80 -13 96 0 133 26 76 -9 123 -68 92 -12 -6 -41 -18 -66 -26 -32
-11 -60 -32 -96 -73 -48 -53 -54 -57 -95 -56 -37 1 -48 7 -78 43 -20 22 -57
50 -83 61 -26 11 -50 29 -53 40 -3 10 -22 25 -41 32 -18 6 -34 19 -34 26 0 13
28 14 193 8 261 -10 368 -9 397 3 26 10 463 9 490 -2z m3703 -7 c217 0 256 -2
267 -15 8 -10 9 -15 1 -15 -6 0 -11 -6 -11 -13 0 -40 -129 -67 -318 -67 -124
0 -136 1 -163 22 -16 13 -42 33 -59 46 -16 13 -30 30 -30 37 0 17 31 25 47 13
6 -5 126 -9 266 -8z m-19150 -13 c24 -11 27 -17 27 -58 0 -62 -18 -67 -137
-43 -21 4 -23 10 -23 65 l0 61 53 -7 c28 -4 64 -12 80 -18z m2065 7 l132 -6 0
-43 c0 -64 12 -86 87 -166 l68 -72 -2 -134 c-1 -102 1 -135 11 -139 7 -3 19
-30 26 -60 8 -33 21 -59 32 -65 10 -5 18 -20 18 -32 0 -12 12 -36 28 -53 35
-40 52 -69 52 -91 0 -10 27 -44 59 -77 33 -32 62 -69 65 -82 4 -13 13 -24 22
-24 9 0 18 -9 21 -20 3 -11 11 -20 19 -20 7 0 18 -9 24 -20 6 -11 17 -20 26
-20 8 0 20 -11 26 -25 6 -14 15 -25 20 -25 5 0 29 -20 54 -45 24 -25 48 -45
52 -45 5 0 14 -11 20 -25 6 -14 16 -25 22 -25 5 0 10 -5 10 -11 0 -6 18 -28
39 -49 21 -21 42 -52 46 -70 4 -17 13 -34 21 -37 16 -6 19 -49 4 -58 -6 -3
-10 -19 -10 -34 0 -25 -5 -30 -37 -36 -24 -4 -39 -3 -41 4 -2 6 -19 11 -38 11
-30 0 -34 3 -34 26 0 14 -4 23 -10 19 -6 -4 -10 8 -10 29 0 72 -25 92 -95 75
-25 -6 -45 -15 -45 -20 0 -5 -7 -9 -15 -9 -8 0 -15 -6 -15 -14 0 -8 -8 -21
-19 -28 -10 -7 -21 -31 -25 -53 -16 -93 -18 -127 -7 -138 6 -6 11 -22 11 -35
0 -13 7 -52 16 -86 16 -65 31 -82 99 -117 53 -28 94 -67 110 -106 16 -37 45
-55 83 -51 25 3 26 5 23 56 -2 42 1 52 13 52 9 0 16 3 16 8 0 15 68 52 96 52
17 0 39 -8 50 -19 11 -10 31 -22 45 -26 13 -4 35 -19 47 -34 20 -22 23 -33 18
-69 -13 -96 -92 -183 -153 -167 -14 3 -49 -3 -84 -15 -44 -16 -63 -19 -73 -11
-7 6 -15 8 -18 5 -13 -12 -86 18 -133 56 -91 73 -89 70 -166 244 -22 50 -47
99 -57 110 -22 25 -62 109 -62 131 0 8 -3 15 -8 15 -26 0 -42 150 -20 193 5
10 11 71 14 134 4 96 1 126 -15 172 -11 34 -16 71 -14 94 4 25 0 46 -12 64
-11 17 -17 43 -16 70 0 24 -3 43 -9 43 -5 0 -10 5 -10 10 0 6 -9 20 -19 32
-11 11 -32 55 -47 97 -15 42 -43 94 -61 117 -18 23 -33 50 -33 60 0 10 -14 35
-30 54 -75 87 -164 178 -189 193 -14 8 -45 33 -67 54 -75 69 -94 83 -114 83
-11 0 -20 6 -20 13 0 13 -54 47 -76 47 -8 0 -14 5 -14 10 0 6 -13 10 -29 10
-16 0 -34 7 -41 15 -7 8 -44 25 -81 36 -40 12 -69 27 -69 34 0 7 -21 23 -46
35 -45 22 -49 22 -387 17 -188 -4 -356 -9 -372 -12 -17 -4 -51 -24 -75 -46
-25 -21 -54 -39 -64 -39 -23 0 -101 -36 -135 -62 -13 -10 -35 -18 -48 -18 -14
0 -50 -20 -83 -45 -32 -25 -70 -49 -84 -55 -14 -5 -26 -17 -26 -27 0 -23 -179
-193 -204 -193 -24 0 -56 -37 -56 -63 0 -20 -54 -109 -94 -154 -11 -13 -28
-23 -39 -23 -18 0 -19 5 -13 61 3 34 6 117 6 184 l0 123 72 7 c80 8 97 21 98
71 0 17 5 55 11 85 l11 54 96 0 c130 0 149 6 161 53 6 20 11 52 11 70 0 61 7
63 236 62 113 -1 207 0 209 2 6 5 1173 -2 1313 -8z m5765 9 c4 -3 36 -5 72 -4
53 2 65 0 65 -13 0 -19 36 -22 42 -4 3 8 53 13 170 15 139 3 167 1 178 -12 8
-10 9 -15 1 -15 -6 0 -11 -6 -11 -13 0 -40 -129 -67 -318 -67 -124 0 -136 1
-163 22 -16 13 -42 33 -59 46 -36 28 -39 52 -7 52 13 0 27 -3 30 -7z m8867 -7
c0 -8 -14 -25 -30 -38 -17 -13 -43 -33 -59 -46 -27 -21 -39 -22 -163 -22 -189
0 -318 27 -318 67 0 7 -5 13 -11 13 -8 0 -7 5 1 15 11 13 39 15 178 12 117 -2
167 -7 170 -15 6 -18 42 -15 42 4 0 13 12 15 65 13 36 -1 68 1 72 4 12 13 53
7 53 -7z m7243 5 c219 0 227 -3 227 -63 0 -18 5 -50 11 -70 12 -47 31 -53 161
-53 l96 0 11 -54 c6 -30 11 -68 11 -85 1 -50 18 -63 98 -71 l72 -7 0 -123 c0
-67 3 -150 6 -184 6 -56 5 -61 -13 -61 -11 0 -28 10 -39 23 -40 45 -94 134
-94 154 0 26 -32 63 -56 63 -25 0 -204 170 -204 193 0 10 -12 22 -26 27 -14 6
-52 30 -84 55 -33 25 -69 45 -83 45 -13 0 -35 8 -48 18 -34 26 -112 62 -135
62 -10 0 -39 18 -64 39 -24 22 -58 42 -75 46 -16 3 -184 8 -372 12 -338 5
-342 5 -387 -17 -25 -12 -46 -28 -46 -35 0 -7 -29 -22 -69 -34 -37 -11 -74
-28 -81 -36 -7 -8 -25 -15 -41 -15 -16 0 -29 -4 -29 -10 0 -5 -6 -10 -14 -10
-22 0 -76 -34 -76 -47 0 -7 -9 -13 -20 -13 -20 0 -39 -14 -114 -83 -22 -21
-53 -46 -67 -54 -25 -15 -114 -106 -189 -193 -16 -19 -30 -44 -30 -54 0 -10
-15 -37 -33 -60 -18 -23 -46 -75 -61 -117 -15 -42 -36 -86 -47 -97 -10 -12
-19 -26 -19 -32 0 -5 -5 -10 -10 -10 -6 0 -9 -19 -9 -43 1 -27 -5 -53 -16 -70
-12 -18 -16 -39 -12 -64 2 -23 -3 -60 -14 -94 -16 -46 -19 -76 -15 -172 3 -63
9 -124 14 -134 22 -43 6 -193 -20 -193 -5 0 -8 -7 -8 -15 0 -22 -40 -106 -62
-131 -10 -11 -35 -60 -57 -110 -77 -174 -75 -171 -166 -244 -47 -38 -120 -68
-133 -56 -3 3 -11 1 -18 -5 -10 -8 -29 -5 -73 11 -35 12 -70 18 -84 15 -61
-16 -140 71 -153 167 -5 36 -2 47 18 69 12 15 34 30 47 34 14 4 34 16 45 26
11 11 33 19 50 19 28 0 96 -37 96 -52 0 -5 7 -8 16 -8 12 0 15 -10 13 -52 -3
-51 -2 -53 23 -56 38 -4 67 14 83 51 16 39 57 78 110 106 68 35 83 52 99 117
9 34 16 73 16 86 0 13 5 29 11 35 11 11 9 45 -7 138 -4 22 -15 46 -25 53 -11
7 -19 20 -19 28 0 8 -7 14 -15 14 -8 0 -15 4 -15 9 0 5 -20 14 -45 20 -70 17
-95 -3 -95 -75 0 -21 -4 -33 -10 -29 -6 4 -10 -5 -10 -19 0 -23 -4 -26 -34
-26 -19 0 -36 -5 -38 -11 -2 -7 -17 -8 -41 -4 -32 6 -37 11 -37 36 0 15 -4 31
-10 34 -15 9 -12 52 4 58 8 3 17 20 21 37 4 18 25 49 46 70 21 21 39 43 39 49
0 6 5 11 10 11 6 0 16 11 22 25 6 14 15 25 20 25 4 0 28 20 52 45 25 25 49 45
54 45 5 0 14 11 20 25 6 14 18 25 26 25 9 0 20 9 26 20 6 11 17 20 25 20 8 0
15 7 15 16 0 9 9 18 20 21 11 3 23 16 26 28 3 13 32 49 65 81 32 33 59 67 59
77 0 22 17 51 53 91 15 17 27 41 27 53 0 12 8 27 18 32 11 6 24 32 32 65 7 30
19 57 26 60 10 4 12 37 11 139 l-2 134 68 72 c76 81 87 102 87 167 0 24 1 45
3 46 5 3 1316 15 1387 12 41 -1 164 -3 273 -3z m667 -51 c0 -54 -2 -60 -22
-64 -64 -13 -92 -15 -114 -10 -21 5 -24 12 -24 54 0 52 4 55 80 70 80 16 80
16 80 -50z m-21710 36 c0 -11 -20 -15 -82 -18 -60 -3 -104 -12 -158 -33 -77
-29 -130 -30 -130 -1 0 15 -43 26 -105 26 -53 0 -75 8 -75 26 0 12 47 14 275
14 231 0 275 -2 275 -14z m4710 -1 c0 -8 7 -15 15 -15 10 0 15 -10 15 -34 0
-44 41 -131 86 -184 41 -48 93 -78 151 -88 36 -5 39 -9 57 -62 10 -31 21 -85
24 -119 3 -41 9 -63 17 -63 7 0 15 -12 18 -27 30 -144 67 -231 120 -281 10 -9
27 -36 38 -59 11 -22 26 -44 34 -47 8 -3 15 -12 15 -19 0 -8 9 -22 20 -32 11
-10 20 -29 20 -42 0 -12 4 -23 10 -23 5 0 9 -3 9 -7 -4 -24 3 -43 15 -43 21 0
123 -102 119 -120 -3 -19 13 -39 55 -69 35 -25 42 -56 14 -65 -10 -3 -34 -21
-54 -40 -28 -27 -38 -45 -44 -83 -4 -26 -11 -51 -17 -55 -6 -3 -13 -33 -15
-66 -4 -57 -3 -62 29 -97 53 -57 93 -97 133 -133 39 -36 54 -63 64 -126 6 -34
14 -43 52 -63 24 -13 51 -29 59 -36 21 -18 109 -54 141 -59 24 -3 25 -1 22 40
-9 144 76 215 191 158 80 -39 104 -99 74 -184 -15 -41 -92 -85 -167 -96 -19
-2 -64 -11 -99 -19 -55 -13 -129 -12 -166 2 -25 9 -116 32 -160 40 -22 4 -50
13 -62 19 -12 7 -30 12 -40 12 -10 0 -23 8 -30 19 -6 10 -26 21 -43 25 -17 3
-45 16 -61 28 -98 75 -150 121 -170 150 -13 18 -38 51 -56 73 -19 22 -40 62
-49 90 -14 51 -14 52 16 111 16 32 30 71 30 87 0 15 5 27 11 27 6 0 10 21 9
53 -2 80 11 551 15 555 2 3 -7 19 -20 36 -13 17 -26 47 -30 68 -4 20 -18 46
-31 59 -14 13 -24 34 -24 49 0 16 -10 35 -25 48 -14 12 -25 33 -25 47 0 22
-89 167 -111 181 -5 3 -9 13 -9 23 0 10 -24 43 -52 72 -29 30 -75 80 -101 112
-27 33 -70 72 -96 88 -83 53 -190 152 -191 177 0 22 2 22 125 22 104 0 125 -2
125 -15z m3460 1 c0 -18 -22 -26 -75 -26 -62 0 -105 -11 -105 -26 0 -29 -53
-28 -130 1 -54 21 -98 30 -157 33 -63 3 -83 7 -83 18 0 12 44 14 275 14 228 0
275 -2 275 -14z m2093 7 l97 -6 0 -43 c0 -63 12 -85 87 -165 l68 -72 -2 -134
c-1 -102 1 -135 11 -139 7 -3 19 -30 26 -60 8 -33 21 -59 32 -65 10 -5 18 -20
18 -32 0 -12 12 -36 28 -53 35 -40 52 -69 52 -91 0 -10 27 -44 59 -77 33 -32
62 -69 65 -82 4 -13 13 -24 22 -24 9 0 18 -9 21 -20 3 -11 11 -20 19 -20 7 0
18 -9 24 -20 6 -11 17 -20 26 -20 8 0 20 -11 26 -25 6 -14 15 -25 20 -25 5 0
29 -20 54 -45 24 -25 48 -45 52 -45 5 0 14 -11 20 -25 6 -14 16 -25 22 -25 5
0 10 -5 10 -11 0 -6 18 -28 39 -49 21 -21 42 -52 46 -70 4 -17 13 -34 21 -37
16 -6 19 -49 4 -58 -5 -3 -10 -19 -10 -34 0 -25 -5 -30 -37 -36 -24 -4 -39 -3
-41 4 -2 6 -19 11 -38 11 -30 0 -34 3 -34 26 0 14 -4 23 -10 19 -6 -4 -10 8
-10 29 0 72 -25 92 -95 75 -25 -6 -45 -15 -45 -20 0 -5 -7 -9 -15 -9 -8 0 -15
-6 -15 -14 0 -8 -8 -21 -19 -28 -10 -7 -21 -31 -25 -53 -16 -93 -18 -127 -7
-138 6 -6 11 -22 11 -35 0 -13 7 -52 16 -86 16 -65 31 -82 99 -117 53 -28 94
-67 110 -106 16 -37 45 -55 83 -51 25 3 26 5 23 56 -2 42 1 52 13 52 9 0 16 3
16 8 0 15 68 52 96 52 17 0 39 -8 50 -19 11 -10 31 -22 45 -26 13 -4 35 -19
47 -34 20 -22 23 -33 18 -69 -13 -96 -92 -183 -153 -167 -14 3 -49 -3 -84 -15
-44 -16 -63 -19 -73 -11 -7 6 -15 8 -18 5 -13 -12 -86 18 -133 56 -91 73 -89
70 -166 244 -22 50 -47 99 -57 110 -22 25 -62 109 -62 131 0 8 -3 15 -8 15
-26 0 -42 150 -20 193 5 10 11 71 14 134 4 96 1 126 -15 172 -11 34 -16 71
-14 94 4 25 0 46 -12 64 -11 17 -17 43 -16 70 0 24 -3 43 -9 43 -5 0 -10 5
-10 10 0 6 -9 20 -19 32 -11 11 -32 55 -47 97 -15 42 -43 94 -61 117 -18 23
-33 50 -33 60 0 10 -14 35 -30 54 -75 87 -164 178 -189 193 -14 8 -45 33 -67
54 -75 69 -94 83 -114 83 -11 0 -20 6 -20 13 0 13 -54 47 -76 47 -8 0 -14 5
-14 10 0 6 -13 10 -29 10 -16 0 -34 7 -41 15 -7 8 -44 25 -81 36 -40 12 -69
27 -69 34 0 7 -19 23 -43 34 -41 20 -59 21 -347 21 -288 0 -306 -1 -347 -21
-24 -11 -43 -27 -43 -34 0 -7 -29 -22 -69 -34 -37 -11 -74 -28 -81 -36 -7 -8
-25 -15 -41 -15 -16 0 -29 -4 -29 -10 0 -5 -6 -10 -14 -10 -22 0 -76 -34 -76
-47 0 -7 -9 -13 -20 -13 -20 0 -39 -14 -114 -83 -22 -21 -53 -46 -67 -54 -25
-15 -114 -106 -189 -193 -16 -19 -30 -44 -30 -54 0 -10 -15 -37 -33 -60 -18
-23 -46 -75 -61 -117 -15 -42 -36 -86 -47 -97 -10 -12 -19 -26 -19 -32 0 -5
-5 -10 -10 -10 -6 0 -9 -19 -9 -43 1 -27 -5 -53 -16 -70 -12 -18 -16 -39 -12
-64 2 -23 -3 -60 -14 -94 -16 -46 -19 -76 -15 -172 3 -63 9 -124 14 -134 22
-43 6 -193 -20 -193 -5 0 -8 -7 -8 -15 0 -22 -40 -106 -62 -131 -10 -11 -35
-60 -57 -110 -77 -174 -75 -171 -166 -244 -47 -38 -120 -68 -133 -56 -3 3 -11
1 -18 -5 -10 -8 -29 -5 -73 11 -35 12 -70 18 -84 15 -61 -16 -140 71 -153 167
-5 36 -2 47 18 69 12 15 34 30 47 34 14 4 34 16 45 26 11 11 33 19 50 19 28 0
96 -37 96 -52 0 -5 7 -8 16 -8 12 0 15 -10 13 -52 -3 -51 -2 -53 23 -56 38 -4
67 14 83 51 16 39 57 78 110 106 68 35 83 52 99 117 9 34 16 73 16 86 0 13 5
29 11 35 11 11 9 45 -7 138 -4 22 -15 46 -25 53 -11 7 -19 20 -19 28 0 8 -7
14 -15 14 -8 0 -15 4 -15 9 0 5 -20 14 -45 20 -70 17 -95 -3 -95 -75 0 -21 -4
-33 -10 -29 -6 4 -10 -5 -10 -19 0 -23 -4 -26 -34 -26 -19 0 -36 -5 -38 -11
-2 -7 -17 -8 -41 -4 -32 6 -37 11 -37 36 0 15 -4 31 -10 34 -15 9 -12 52 4 58
8 3 17 20 21 37 4 18 25 49 46 70 21 21 39 43 39 49 0 6 5 11 10 11 6 0 16 11
22 25 6 14 15 25 20 25 4 0 28 20 52 45 25 25 49 45 54 45 5 0 14 11 20 25 6
14 18 25 26 25 9 0 20 9 26 20 6 11 17 20 25 20 8 0 15 7 15 16 0 9 9 18 20
21 11 3 23 16 26 28 3 13 32 49 65 81 32 33 59 67 59 77 0 22 17 51 53 91 15
17 27 41 27 53 0 12 8 27 18 32 11 6 24 32 32 65 7 30 19 57 26 60 10 4 12 37
11 139 l-2 134 68 72 c76 80 87 102 87 166 l0 44 68 4 c126 6 1777 7 1875 0z
m797 -7 c0 -11 -20 -15 -82 -18 -60 -3 -104 -12 -158 -33 -77 -29 -130 -30
-130 -1 0 15 -43 26 -105 26 -53 0 -75 8 -75 26 0 12 47 14 275 14 231 0 275
-2 275 -14z m3160 -8 c-1 -25 -108 -124 -191 -177 -26 -16 -69 -55 -96 -88
-26 -32 -72 -82 -101 -112 -28 -29 -52 -62 -52 -72 0 -10 -4 -20 -9 -23 -22
-14 -111 -159 -111 -181 0 -14 -11 -35 -25 -47 -15 -13 -25 -32 -25 -48 0 -15
-10 -36 -24 -49 -13 -13 -27 -39 -31 -59 -4 -21 -17 -51 -30 -68 -13 -17 -22
-33 -20 -36 4 -4 17 -475 15 -555 -1 -32 3 -53 9 -53 6 0 11 -12 11 -27 0 -16
14 -55 30 -87 30 -59 30 -60 16 -111 -9 -28 -30 -68 -49 -90 -18 -22 -43 -55
-56 -73 -20 -29 -72 -75 -170 -150 -16 -12 -44 -25 -61 -28 -17 -4 -37 -15
-43 -25 -7 -11 -20 -19 -30 -19 -10 0 -28 -5 -40 -12 -12 -6 -40 -15 -62 -19
-44 -8 -135 -31 -160 -40 -37 -14 -111 -15 -166 -2 -35 8 -80 17 -99 19 -75
11 -152 55 -167 96 -30 85 -6 145 74 184 115 57 200 -14 191 -158 -3 -41 -2
-43 22 -40 32 5 120 41 141 59 8 7 35 23 59 36 38 20 46 29 52 63 10 63 25 90
64 126 40 36 80 76 133 133 32 35 33 40 29 97 -2 33 -9 63 -15 66 -6 4 -13 29
-17 55 -6 38 -16 56 -44 83 -20 19 -44 37 -54 40 -28 9 -21 40 15 65 41 30 57
50 54 69 -4 18 98 120 119 120 12 0 19 19 15 43 0 4 4 7 9 7 6 0 10 11 10 23
0 13 9 32 20 42 11 10 20 24 20 32 0 7 7 16 15 19 8 3 23 25 34 47 11 23 28
50 38 59 53 50 90 137 120 281 3 15 11 27 18 27 8 0 14 22 17 63 3 34 14 88
24 119 18 53 21 57 57 62 58 10 110 40 151 88 45 53 86 140 86 184 0 24 5 34
15 34 8 0 15 7 15 15 0 13 21 15 125 15 123 0 125 0 125 -22z m5010 8 c0 -18
-22 -26 -75 -26 -62 0 -105 -11 -105 -26 0 -29 -53 -28 -130 1 -54 21 -98 30
-157 33 -63 3 -83 7 -83 18 0 12 44 14 275 14 228 0 275 -2 275 -14z m-16205
-6 c3 -5 19 -10 35 -10 16 0 32 5 35 10 3 6 19 10 36 10 21 0 29 -5 29 -17 -1
-20 -126 -132 -192 -171 -24 -14 -72 -56 -108 -92 -36 -37 -77 -74 -92 -84
-18 -12 -28 -27 -28 -42 0 -13 -4 -24 -10 -24 -5 0 -10 -11 -10 -24 0 -14 -4
-27 -9 -30 -22 -14 -111 -159 -111 -181 0 -14 -11 -35 -25 -47 -15 -13 -25
-32 -25 -48 0 -15 -10 -36 -24 -49 -13 -13 -27 -39 -31 -59 -4 -21 -17 -51
-30 -68 -13 -17 -22 -33 -20 -36 4 -4 17 -475 15 -555 -1 -32 3 -53 9 -53 6 0
11 -12 11 -27 0 -16 14 -55 30 -87 30 -59 30 -60 16 -111 -9 -28 -30 -68 -49
-90 -18 -22 -43 -55 -56 -73 -20 -29 -72 -75 -170 -150 -16 -12 -44 -25 -61
-28 -17 -4 -37 -15 -43 -25 -7 -11 -20 -19 -30 -19 -10 0 -28 -5 -40 -12 -12
-6 -40 -15 -62 -19 -44 -8 -135 -31 -160 -40 -37 -14 -111 -15 -166 -2 -35 8
-80 17 -99 19 -75 11 -152 55 -167 96 -31 85 -6 145 75 185 45 22 59 24 94 17
61 -13 82 -47 88 -142 5 -75 6 -77 30 -74 32 5 120 41 141 59 8 7 35 23 59 36
38 20 46 29 52 63 10 63 25 90 64 126 40 36 80 76 133 133 32 35 33 40 29 97
-2 33 -9 63 -15 66 -6 4 -13 29 -17 55 -6 38 -16 56 -44 83 -20 19 -44 37 -54
40 -28 9 -21 40 15 65 41 30 57 50 54 69 -4 18 98 120 119 120 12 0 19 19 15
43 0 4 4 7 9 7 6 0 10 11 10 23 0 13 9 32 20 42 11 10 20 24 20 32 0 7 7 16
15 19 8 3 23 25 34 47 11 23 28 50 38 59 53 50 90 137 120 281 3 15 12 27 19
27 10 0 14 14 14 52 0 29 10 83 23 119 21 65 23 67 60 73 58 10 110 40 151 88
45 53 86 140 86 184 0 24 5 34 15 34 8 0 15 5 15 10 0 6 24 10 54 10 30 0 58
-4 61 -10z m12560 0 c3 -5 19 -10 35 -10 16 0 32 5 35 10 3 6 31 10 61 10 30
0 54 -4 54 -10 0 -5 7 -10 15 -10 10 0 15 -10 15 -34 0 -44 41 -131 86 -184
41 -48 93 -78 151 -88 37 -6 39 -8 61 -73 12 -36 22 -90 22 -119 0 -38 4 -52
14 -52 7 0 16 -12 19 -27 30 -144 67 -231 120 -281 10 -9 27 -36 38 -59 11
-22 26 -44 34 -47 8 -3 15 -12 15 -19 0 -8 9 -22 20 -32 11 -10 20 -29 20 -42
0 -12 5 -23 10 -23 5 0 9 -3 9 -7 -4 -24 3 -43 15 -43 21 0 123 -102 119 -120
-3 -19 13 -39 55 -69 35 -25 42 -56 14 -65 -10 -3 -34 -21 -54 -40 -28 -27
-38 -45 -44 -83 -4 -26 -11 -51 -17 -55 -6 -3 -13 -33 -15 -66 -4 -57 -3 -62
29 -97 53 -57 93 -97 133 -133 39 -36 54 -63 64 -126 6 -34 14 -43 52 -63 24
-13 51 -29 59 -36 21 -18 109 -54 141 -59 24 -3 25 -1 30 74 6 95 27 129 88
142 35 7 49 5 94 -17 81 -40 106 -100 75 -185 -15 -41 -92 -85 -167 -96 -19
-2 -64 -11 -99 -19 -55 -13 -129 -12 -166 2 -25 9 -116 32 -160 40 -22 4 -50
13 -62 19 -12 7 -30 12 -40 12 -10 0 -23 8 -30 19 -6 10 -26 21 -43 25 -17 3
-45 16 -61 28 -98 75 -150 121 -170 150 -13 18 -38 51 -56 73 -19 22 -40 62
-49 90 -14 51 -14 52 16 111 16 32 30 71 30 87 0 15 5 27 11 27 6 0 10 21 9
53 -2 80 11 551 15 555 2 3 -7 19 -20 36 -13 17 -26 47 -30 68 -4 20 -18 46
-31 59 -14 13 -24 34 -24 49 0 16 -10 35 -25 48 -14 12 -25 33 -25 47 0 22
-89 167 -111 181 -5 3 -9 16 -9 30 0 13 -4 24 -10 24 -5 0 -10 11 -10 24 0 15
-10 30 -27 42 -16 10 -57 47 -93 84 -36 36 -84 78 -108 92 -66 39 -191 151
-192 171 0 12 8 17 29 17 17 0 33 -4 36 -10z m-11990 -109 c3 -6 33 -10 66
-10 43 1 69 -5 95 -20 45 -27 94 -27 147 1 25 12 57 20 79 19 20 -1 39 3 43 8
12 20 137 0 188 -31 26 -15 51 -28 56 -28 4 0 16 -9 26 -20 10 -11 37 -31 60
-45 23 -13 50 -36 59 -50 9 -14 24 -25 33 -25 9 0 26 -9 38 -20 12 -11 57 -44
101 -73 60 -40 84 -62 98 -93 12 -26 32 -47 55 -60 39 -21 114 -124 129 -177
5 -18 23 -54 41 -81 28 -46 31 -57 31 -135 0 -72 3 -88 21 -107 29 -31 48
-160 31 -207 -7 -18 -12 -59 -12 -90 0 -31 -4 -58 -9 -61 -5 -3 -16 -40 -26
-81 -9 -41 -20 -75 -24 -75 -4 0 -8 -6 -8 -12 -3 -34 -37 -144 -47 -153 -7 -5
-16 -23 -20 -38 -3 -15 -25 -48 -48 -72 -23 -24 -53 -67 -67 -97 -23 -46 -30
-53 -59 -56 -20 -2 -36 -10 -39 -20 -4 -9 -25 -35 -47 -57 -23 -22 -49 -52
-59 -67 -12 -20 -26 -28 -46 -28 -16 0 -34 -7 -41 -15 -7 -8 -23 -15 -36 -15
-13 0 -24 -4 -24 -10 0 -5 -5 -10 -11 -10 -6 0 -23 -8 -37 -18 -29 -20 -97
-42 -124 -40 -10 1 -19 13 -23 35 -3 18 -10 33 -15 33 -6 0 -10 8 -10 18 0 10
-11 29 -24 41 -14 13 -26 35 -28 50 -2 16 -10 27 -23 30 -10 2 -29 10 -42 18
-21 14 -23 23 -23 92 l0 76 39 12 c43 14 105 7 122 -13 7 -8 9 -30 5 -56 -14
-94 -14 -92 29 -107 38 -13 43 -12 97 14 58 27 138 89 138 106 0 14 26 39 39
39 6 0 11 6 11 14 0 9 15 17 40 21 22 4 40 11 40 16 0 5 4 9 9 9 14 0 121 114
137 146 19 35 18 133 0 153 -13 14 -13 23 0 70 8 30 18 59 24 65 5 5 10 18 10
28 0 10 6 21 14 24 9 3 17 27 22 60 3 30 10 57 15 60 5 3 9 21 9 40 0 24 -4
33 -11 28 -8 -5 -10 5 -5 32 10 64 7 87 -16 111 -40 43 -78 24 -78 -39 0 -26
-4 -38 -14 -38 -8 0 -18 -14 -22 -32 -3 -18 -18 -45 -33 -59 -43 -42 -117 -99
-130 -99 -6 0 -11 -4 -11 -10 0 -5 -8 -10 -19 -10 -10 0 -24 -7 -31 -15 -7 -8
-18 -15 -25 -15 -8 0 -15 -6 -18 -12 -5 -18 -289 -18 -295 0 -2 7 -9 12 -16
12 -17 0 -61 39 -75 67 -14 27 -14 63 -1 63 6 0 10 5 10 11 0 23 36 38 88 39
29 0 58 -4 65 -10 7 -5 25 -20 41 -33 l30 -24 43 30 43 31 0 68 c0 59 2 68 18
68 22 0 61 33 86 74 14 22 16 39 11 75 -8 56 -20 71 -52 71 -22 0 -25 3 -20
28 7 34 35 118 53 155 18 37 18 111 -1 164 -27 79 -143 212 -220 252 -36 19
-50 20 -175 14 -124 -5 -137 -8 -159 -29 -34 -34 -110 -34 -142 1 -13 13 -32
25 -41 25 -10 0 -18 5 -18 10 0 6 -7 10 -15 10 -8 0 -15 -5 -15 -11 0 -9 -29
-10 -102 -5 -93 6 -107 5 -143 -15 -77 -41 -192 -173 -220 -252 -19 -53 -19
-127 -1 -164 18 -37 46 -121 53 -155 5 -25 2 -28 -20 -28 -32 0 -44 -15 -52
-71 -5 -36 -3 -53 11 -75 25 -41 64 -74 86 -74 16 0 18 -9 18 -68 l0 -68 43
-31 43 -30 30 24 c16 13 34 28 41 33 7 6 36 10 65 10 52 -1 88 -16 88 -39 0
-6 5 -11 10 -11 13 0 13 -36 -1 -63 -14 -28 -58 -67 -75 -67 -7 0 -14 -5 -16
-12 -6 -18 -290 -18 -295 0 -3 6 -10 12 -18 12 -7 0 -18 7 -25 15 -7 8 -21 15
-31 15 -11 0 -19 5 -19 10 0 6 -5 10 -11 10 -13 0 -87 57 -130 99 -15 14 -30
41 -33 59 -4 18 -14 32 -22 32 -10 0 -14 12 -14 38 0 63 -38 82 -78 39 -23
-24 -26 -47 -16 -111 5 -27 3 -37 -5 -32 -7 5 -11 -4 -11 -28 0 -19 4 -37 9
-40 5 -3 12 -30 15 -60 5 -33 13 -57 22 -60 8 -3 14 -14 14 -24 0 -10 5 -23
10 -28 6 -6 16 -35 24 -65 13 -47 13 -56 0 -70 -18 -20 -19 -118 0 -153 16
-32 123 -146 137 -146 5 0 9 -4 9 -9 0 -5 18 -12 40 -16 25 -4 40 -12 40 -21
0 -8 5 -14 11 -14 13 0 39 -25 39 -39 0 -17 80 -79 138 -106 54 -26 59 -27 97
-14 43 15 43 13 29 107 -4 26 -2 48 5 56 17 20 79 27 122 13 l39 -12 0 -76 c0
-69 -2 -78 -23 -92 -13 -8 -32 -16 -42 -18 -13 -3 -21 -14 -23 -30 -2 -15 -14
-37 -28 -50 -13 -12 -24 -31 -24 -41 0 -10 -4 -18 -10 -18 -5 0 -12 -15 -15
-33 -4 -22 -13 -34 -23 -35 -27 -2 -95 20 -124 40 -14 10 -31 18 -37 18 -6 0
-11 5 -11 10 0 6 -11 10 -24 10 -13 0 -29 7 -36 15 -7 8 -25 15 -41 15 -20 0
-34 8 -46 28 -10 15 -36 45 -59 67 -22 22 -43 48 -47 57 -3 10 -19 18 -39 20
-29 3 -36 10 -59 56 -14 30 -44 73 -67 97 -23 24 -45 57 -48 72 -4 15 -13 33
-20 38 -10 9 -44 119 -47 153 0 6 -4 12 -8 12 -4 0 -15 34 -24 75 -10 41 -21
78 -26 81 -5 3 -9 30 -9 61 0 31 -5 72 -12 90 -17 47 2 176 31 207 18 19 21
35 21 107 0 78 3 89 31 135 18 27 36 63 41 81 15 53 90 156 129 177 23 13 43
34 55 60 14 31 38 53 98 93 44 29 89 62 101 73 12 11 29 20 38 20 9 0 24 11
33 25 9 14 36 37 59 50 23 14 50 34 60 45 10 11 22 20 26 20 5 0 31 13 58 29
31 19 68 31 98 34 26 2 56 4 65 5 9 1 19 -2 23 -7z m11060 -1 c4 -6 23 -10 43
-9 22 1 54 -7 79 -19 53 -28 102 -28 147 -1 26 15 52 21 95 20 33 0 63 4 66 9
12 19 138 -2 188 -32 26 -15 51 -28 56 -28 4 0 16 -9 26 -20 10 -11 37 -31 60
-45 23 -13 50 -36 59 -50 9 -14 24 -25 33 -25 9 0 26 -9 38 -20 12 -11 57 -44
101 -73 60 -40 84 -62 98 -93 12 -26 32 -47 55 -60 39 -21 114 -124 129 -177
5 -18 23 -54 41 -81 28 -46 31 -57 31 -135 0 -72 3 -88 21 -107 29 -31 48
-160 31 -207 -7 -18 -12 -59 -12 -90 0 -31 -4 -58 -9 -61 -5 -3 -16 -40 -26
-81 -9 -41 -20 -75 -24 -75 -4 0 -8 -6 -8 -12 -3 -34 -37 -144 -47 -153 -7 -5
-16 -23 -20 -38 -3 -15 -25 -48 -48 -72 -23 -24 -53 -67 -67 -97 -23 -46 -30
-53 -59 -56 -20 -2 -36 -10 -39 -20 -4 -9 -25 -35 -47 -57 -23 -22 -49 -52
-59 -67 -12 -20 -26 -28 -46 -28 -16 0 -34 -7 -41 -15 -7 -8 -23 -15 -36 -15
-13 0 -24 -4 -24 -10 0 -5 -5 -10 -11 -10 -6 0 -23 -8 -37 -18 -29 -20 -97
-42 -124 -40 -10 1 -19 13 -23 35 -3 18 -10 33 -15 33 -6 0 -10 8 -10 18 0 10
-11 29 -24 41 -14 13 -26 35 -28 50 -2 16 -10 27 -23 30 -10 2 -29 10 -42 18
-21 14 -23 23 -23 92 l0 76 39 12 c43 14 105 7 122 -13 7 -8 9 -30 5 -56 -14
-94 -14 -92 29 -107 38 -13 43 -12 97 14 58 27 138 89 138 106 0 14 26 39 39
39 6 0 11 6 11 14 0 9 15 17 40 21 22 4 40 11 40 16 0 5 4 9 9 9 14 0 121 114
137 146 19 35 18 133 0 153 -13 14 -13 23 0 70 8 30 18 59 24 65 5 5 10 18 10
28 0 10 6 21 14 24 9 3 17 27 22 60 3 30 10 57 15 60 5 3 9 21 9 40 0 24 -4
33 -11 28 -8 -5 -10 5 -5 32 10 64 7 87 -16 111 -40 43 -78 24 -78 -39 0 -26
-4 -38 -14 -38 -8 0 -18 -14 -22 -32 -3 -18 -18 -45 -33 -59 -43 -42 -117 -99
-130 -99 -6 0 -11 -4 -11 -10 0 -5 -8 -10 -19 -10 -10 0 -24 -7 -31 -15 -7 -8
-18 -15 -25 -15 -8 0 -15 -6 -18 -12 -5 -18 -289 -18 -295 0 -2 7 -9 12 -16
12 -17 0 -61 39 -75 67 -14 27 -14 63 -1 63 6 0 10 5 10 11 0 23 36 38 88 39
29 0 58 -4 65 -10 7 -5 25 -20 41 -33 l30 -24 43 30 43 31 0 68 c0 59 2 68 18
68 22 0 61 33 86 74 14 22 16 39 11 75 -8 56 -20 71 -52 71 -22 0 -25 3 -20
28 7 34 35 118 53 155 18 37 18 111 -1 164 -28 79 -143 211 -220 252 -36 20
-50 21 -142 15 -74 -5 -103 -4 -103 5 0 6 -7 11 -15 11 -8 0 -15 -4 -15 -10 0
-5 -8 -10 -17 -10 -10 0 -29 -12 -42 -25 -32 -35 -108 -35 -142 -1 -22 21 -35
24 -159 29 -125 6 -139 5 -175 -14 -77 -40 -193 -173 -220 -252 -19 -53 -19
-127 -1 -164 18 -37 46 -121 53 -155 5 -25 2 -28 -20 -28 -32 0 -44 -15 -52
-71 -5 -36 -3 -53 11 -75 25 -41 64 -74 86 -74 16 0 18 -9 18 -68 l0 -68 43
-31 43 -30 30 24 c16 13 34 28 41 33 7 6 36 10 65 10 52 -1 88 -16 88 -39 0
-6 5 -11 10 -11 13 0 13 -36 -1 -63 -14 -28 -58 -67 -75 -67 -7 0 -14 -5 -16
-12 -6 -18 -290 -18 -295 0 -3 6 -10 12 -18 12 -7 0 -18 7 -25 15 -7 8 -21 15
-31 15 -11 0 -19 5 -19 10 0 6 -5 10 -11 10 -13 0 -87 57 -130 99 -15 14 -30
41 -33 59 -4 18 -14 32 -22 32 -10 0 -14 12 -14 38 0 63 -38 82 -78 39 -23
-24 -26 -47 -16 -111 5 -27 3 -37 -5 -32 -7 5 -11 -4 -11 -28 0 -19 4 -37 9
-40 5 -3 12 -30 15 -60 5 -33 13 -57 22 -60 8 -3 14 -14 14 -24 0 -10 5 -23
10 -28 6 -6 16 -35 24 -65 13 -47 13 -56 0 -70 -18 -20 -19 -118 0 -153 16
-32 123 -146 137 -146 5 0 9 -4 9 -9 0 -5 18 -12 40 -16 25 -4 40 -12 40 -21
0 -8 5 -14 11 -14 13 0 39 -25 39 -39 0 -17 80 -79 138 -106 54 -26 59 -27 97
-14 43 15 43 13 29 107 -4 26 -2 48 5 56 17 20 79 27 122 13 l39 -12 0 -76 c0
-69 -2 -78 -23 -92 -13 -8 -32 -16 -42 -18 -13 -3 -21 -14 -23 -30 -2 -15 -14
-37 -28 -50 -13 -12 -24 -31 -24 -41 0 -10 -4 -18 -10 -18 -5 0 -12 -15 -15
-33 -4 -22 -13 -34 -23 -35 -27 -2 -95 20 -124 40 -14 10 -31 18 -37 18 -6 0
-11 5 -11 10 0 6 -11 10 -24 10 -13 0 -29 7 -36 15 -7 8 -25 15 -41 15 -20 0
-34 8 -46 28 -10 15 -36 45 -59 67 -22 22 -43 48 -47 57 -3 10 -19 18 -39 20
-29 3 -36 10 -59 56 -14 30 -44 73 -67 97 -23 24 -45 57 -48 72 -4 15 -13 33
-20 38 -10 9 -44 119 -47 153 0 6 -4 12 -8 12 -4 0 -15 34 -24 75 -10 41 -21
78 -26 81 -5 3 -9 30 -9 61 0 31 -5 72 -12 90 -17 47 2 176 31 207 18 19 21
35 21 107 0 78 3 89 31 135 18 27 36 63 41 81 15 53 90 156 129 177 23 13 43
34 55 60 14 31 38 53 98 93 44 29 89 62 101 73 12 11 29 20 38 20 9 0 24 11
33 25 9 14 36 37 59 50 23 14 50 34 60 45 10 11 22 20 26 20 5 0 31 13 58 29
31 19 68 31 98 34 26 2 56 4 65 5 9 1 20 -3 23 -8z m-16338 -121 c15 -6 76
-11 135 -11 67 0 117 -5 132 -13 14 -7 38 -16 55 -20 16 -3 35 -12 41 -20 6
-7 29 -16 51 -20 23 -4 55 -19 72 -35 18 -15 43 -31 57 -35 14 -4 47 -27 74
-51 26 -24 53 -44 59 -44 12 0 157 -144 157 -157 1 -4 28 -44 61 -88 105 -141
178 -322 164 -407 -4 -21 -2 -44 3 -51 14 -17 26 -214 14 -230 -15 -19 -21
-67 -11 -100 6 -22 4 -44 -8 -76 -8 -25 -15 -61 -14 -78 1 -18 -10 -58 -24
-88 -14 -31 -25 -62 -25 -69 0 -12 -54 -93 -70 -106 -3 -3 -18 -31 -33 -62
-27 -55 -85 -118 -110 -118 -7 0 -53 -38 -102 -85 -49 -47 -94 -85 -100 -85
-6 0 -42 -21 -80 -46 -74 -49 -125 -69 -256 -105 -69 -18 -83 -20 -94 -8 -14
14 -45 118 -45 151 0 10 -4 18 -10 18 -15 0 -12 73 4 96 8 11 16 38 18 60 2
32 7 40 27 42 13 2 28 -1 34 -7 6 -6 22 -11 35 -11 15 0 26 -7 29 -20 3 -11 9
-20 14 -20 5 0 9 -24 9 -54 0 -47 4 -57 26 -75 36 -28 100 -29 109 -2 4 12 12
18 21 14 33 -13 72 19 133 112 48 71 80 106 130 143 129 97 133 105 140 322 5
131 9 158 24 175 10 11 44 54 75 95 31 41 60 77 64 78 11 5 10 40 -2 47 -5 3
-1 19 10 38 15 25 20 50 20 110 0 75 -1 78 -22 75 -16 -2 -24 -12 -29 -34 -9
-45 -13 -50 -89 -90 -42 -22 -90 -58 -123 -93 -53 -57 -117 -167 -117 -201 0
-10 -11 -25 -25 -34 -17 -11 -25 -26 -25 -46 0 -16 -9 -45 -20 -65 -11 -20
-20 -53 -20 -75 0 -33 -7 -47 -40 -80 -43 -43 -75 -50 -117 -27 -31 17 -73 76
-73 103 0 42 36 106 107 189 24 27 43 59 43 70 0 12 25 48 55 80 86 92 169
223 189 296 16 60 30 95 62 162 16 33 19 193 4 202 -5 3 -10 14 -10 24 0 22
-181 192 -219 206 -15 6 -46 22 -69 38 -23 15 -45 27 -50 27 -5 0 -17 9 -28
21 -33 36 -73 51 -118 45 -22 -4 -58 -9 -78 -12 -26 -4 -38 -2 -38 5 0 26 -53
61 -91 61 -36 0 -39 -2 -45 -35 -3 -19 -10 -35 -16 -35 -10 0 -9 -673 1 -768
7 -69 29 -87 63 -55 32 30 90 53 133 53 19 0 35 4 35 9 0 5 23 32 50 60 33 34
50 60 50 76 0 16 6 25 15 25 8 0 15 4 15 9 0 5 22 11 49 15 39 5 50 11 55 29
10 37 7 57 -9 57 -46 0 -100 27 -127 64 -58 80 -32 116 81 116 110 0 114 -4
114 -126 0 -114 -18 -170 -73 -219 -18 -17 -42 -41 -54 -55 -29 -34 -100 -100
-107 -100 -7 0 -79 -69 -79 -76 0 -3 -13 -16 -29 -29 -16 -14 -31 -37 -34 -52
-3 -16 -16 -32 -28 -38 -12 -5 -27 -19 -33 -30 -6 -10 -17 -25 -23 -33 -7 -7
-13 -17 -13 -22 0 -5 -9 -12 -20 -15 -11 -3 -20 -13 -20 -21 0 -8 -4 -14 -10
-14 -5 0 -10 -9 -10 -19 0 -38 -67 -43 -76 -6 -3 14 -12 25 -20 25 -8 0 -14 6
-14 13 0 8 -11 20 -25 27 -14 7 -25 19 -25 27 0 7 -4 13 -9 13 -5 0 -12 12
-15 26 -4 15 -36 55 -72 90 -35 35 -64 68 -64 74 0 5 -4 10 -10 10 -5 0 -39
28 -74 63 -35 34 -75 69 -90 76 -14 8 -26 20 -26 28 0 7 -4 13 -8 13 -14 0
-101 92 -108 114 -4 11 -14 26 -22 32 -10 7 -17 33 -20 73 -2 33 -8 61 -13 61
-5 0 -9 23 -9 51 0 48 3 55 44 95 42 42 46 44 105 44 56 0 65 -3 98 -33 33
-31 35 -37 29 -70 -6 -30 -11 -37 -30 -37 -13 0 -29 7 -36 15 -7 8 -23 15 -35
15 -22 0 -24 -5 -30 -82 -5 -65 -3 -91 9 -120 9 -21 20 -38 26 -38 5 0 29 -13
53 -30 25 -16 55 -30 67 -30 24 0 52 -23 49 -42 -4 -31 2 -48 16 -48 8 0 15
-7 15 -15 0 -8 6 -15 14 -15 7 0 25 -9 39 -20 14 -11 33 -20 41 -20 9 0 25 -8
36 -18 14 -13 31 -16 64 -14 l46 4 2 411 c2 244 -1 423 -7 439 -10 29 -66 51
-73 29 -2 -6 -11 -11 -20 -11 -9 0 -28 -9 -42 -20 -14 -11 -35 -20 -47 -20
-12 0 -34 -5 -50 -11 -20 -8 -47 -7 -100 1 -66 12 -75 11 -115 -9 -25 -11 -48
-21 -51 -21 -13 0 -190 -141 -234 -187 -24 -23 -43 -51 -43 -61 0 -11 -9 -45
-21 -78 -20 -58 -21 -103 -4 -179 3 -16 8 -39 10 -51 3 -11 14 -31 25 -44 11
-13 20 -31 20 -40 0 -10 7 -23 15 -30 8 -7 15 -23 15 -36 0 -16 9 -28 29 -38
31 -17 121 -116 121 -134 0 -7 27 -38 60 -69 71 -69 130 -164 130 -209 0 -21
6 -37 17 -42 12 -8 18 -27 21 -77 4 -58 2 -69 -17 -86 -11 -11 -34 -22 -51
-26 -27 -5 -37 0 -76 40 -39 41 -44 51 -44 92 0 31 5 47 15 51 35 14 -4 104
-44 104 -10 0 -33 14 -51 30 -18 17 -43 30 -55 30 -27 0 -115 110 -115 143 0
34 -54 102 -105 132 -30 17 -45 33 -45 46 0 21 -41 69 -60 69 -5 0 -10 -7 -10
-15 0 -9 -7 -18 -15 -21 -20 -8 -19 -39 4 -132 11 -42 23 -128 26 -189 4 -62
10 -113 14 -113 8 0 28 -65 37 -119 4 -23 10 -41 14 -41 4 0 10 -14 14 -32 3
-17 15 -37 26 -45 11 -8 20 -20 20 -28 0 -7 6 -15 13 -17 22 -5 136 -135 143
-162 3 -14 11 -26 18 -26 6 0 17 -9 24 -20 7 -11 19 -20 27 -20 8 0 22 -16 31
-35 9 -20 24 -35 33 -35 21 0 56 -36 70 -71 9 -25 59 -59 86 -59 7 0 26 7 43
16 23 11 32 22 32 40 0 13 -4 24 -10 24 -11 0 -13 33 -4 78 5 23 13 31 37 36
43 9 127 -4 127 -19 0 -7 8 -15 19 -18 11 -2 21 -18 26 -38 11 -48 7 -173 -5
-177 -5 -2 -10 -12 -10 -23 0 -25 -46 -105 -59 -101 -6 1 -11 -9 -11 -22 0
-35 -25 -39 -78 -11 -26 14 -56 25 -68 25 -11 0 -29 7 -40 15 -10 8 -28 15
-40 15 -11 0 -31 11 -43 24 -13 13 -39 27 -58 31 -20 3 -50 20 -67 36 -17 16
-34 29 -38 29 -4 0 -19 11 -34 25 -15 14 -35 25 -46 25 -10 0 -21 8 -25 18 -7
20 -29 42 -66 66 -15 10 -27 23 -27 30 0 6 -14 17 -30 25 -30 13 -70 74 -70
106 0 8 -4 15 -10 15 -5 0 -10 7 -10 15 0 9 -7 18 -15 21 -8 4 -15 15 -15 25
0 10 -4 19 -8 19 -5 0 -15 19 -22 43 -8 23 -24 65 -37 94 -13 28 -23 57 -23
63 0 6 -11 27 -24 48 -24 36 -24 41 -21 222 2 102 8 205 15 229 6 24 15 74 19
110 5 36 18 89 29 116 12 28 24 63 27 78 6 29 27 53 83 96 18 13 32 32 32 43
0 17 14 33 79 90 9 8 23 24 32 34 32 39 194 188 207 190 7 1 27 13 45 26 39
29 128 68 156 68 11 0 26 6 33 13 7 8 27 17 43 21 17 4 44 14 60 21 44 21 317
31 362 14z m11060 0 c15 -6 76 -11 135 -11 67 0 117 -5 132 -13 14 -7 38 -16
55 -20 16 -3 35 -12 41 -20 6 -7 29 -16 51 -20 23 -4 55 -19 72 -35 18 -15 43
-31 57 -35 14 -4 47 -27 74 -51 26 -24 53 -44 59 -44 12 0 157 -144 157 -157
1 -4 28 -44 61 -88 105 -141 178 -322 164 -407 -4 -21 -2 -44 3 -51 14 -17 26
-214 14 -230 -15 -19 -21 -67 -11 -100 6 -22 4 -44 -8 -76 -8 -25 -15 -61 -14
-78 1 -18 -10 -58 -24 -88 -14 -31 -25 -62 -25 -69 0 -12 -54 -93 -70 -106 -3
-3 -18 -31 -33 -62 -27 -55 -85 -118 -110 -118 -7 0 -53 -38 -102 -85 -49 -47
-94 -85 -100 -85 -6 0 -42 -21 -80 -46 -74 -49 -125 -69 -256 -105 -69 -18
-83 -20 -94 -8 -14 14 -45 118 -45 151 0 10 -4 18 -10 18 -15 0 -12 73 4 96 8
11 16 38 18 60 2 32 7 40 27 42 13 2 28 -1 34 -7 6 -6 22 -11 35 -11 15 0 26
-7 29 -20 3 -11 9 -20 14 -20 5 0 9 -24 9 -54 0 -47 4 -57 26 -75 36 -28 100
-29 109 -2 4 12 12 18 21 14 33 -13 72 19 133 112 48 71 80 106 130 143 129
97 133 105 140 322 5 131 9 158 24 175 10 11 44 54 75 95 31 41 60 77 64 78
11 5 10 40 -2 47 -5 3 -1 19 10 38 15 25 20 50 20 110 0 75 -1 78 -22 75 -16
-2 -24 -12 -29 -34 -9 -45 -13 -50 -89 -90 -42 -22 -90 -58 -123 -93 -53 -57
-117 -167 -117 -201 0 -10 -11 -25 -25 -34 -17 -11 -25 -26 -25 -46 0 -16 -9
-45 -20 -65 -11 -20 -20 -53 -20 -75 0 -33 -7 -47 -40 -80 -43 -43 -75 -50
-117 -27 -31 17 -73 76 -73 103 0 42 36 106 107 189 24 27 43 59 43 70 0 12
25 48 55 80 86 92 169 223 189 296 16 60 30 95 62 162 16 33 19 193 4 202 -5
3 -10 14 -10 24 0 22 -181 192 -219 206 -15 6 -46 22 -69 38 -23 15 -45 27
-50 27 -5 0 -17 9 -28 21 -32 36 -73 51 -115 45 -22 -3 -57 -9 -79 -12 -27 -4
-40 -2 -40 5 0 26 -53 61 -91 61 -36 0 -39 -2 -45 -35 -3 -19 -10 -35 -16 -35
-10 0 -9 -673 1 -768 7 -69 29 -87 63 -55 32 30 90 53 133 53 19 0 35 4 35 9
0 5 23 32 50 60 33 34 50 60 50 76 0 16 6 25 15 25 8 0 15 4 15 9 0 5 22 11
49 15 39 5 50 11 55 29 10 37 7 57 -9 57 -46 0 -100 27 -127 64 -58 80 -32
116 81 116 110 0 114 -4 114 -126 0 -114 -18 -170 -73 -219 -18 -17 -42 -41
-54 -55 -29 -34 -100 -100 -107 -100 -7 0 -79 -69 -79 -76 0 -3 -13 -16 -29
-29 -16 -14 -31 -37 -34 -52 -3 -16 -16 -32 -28 -38 -12 -5 -27 -19 -33 -30
-6 -10 -17 -25 -23 -33 -7 -7 -13 -17 -13 -22 0 -5 -9 -12 -20 -15 -11 -3 -20
-13 -20 -21 0 -8 -4 -14 -10 -14 -5 0 -10 -9 -10 -19 0 -22 -30 -35 -60 -26
-11 3 -20 15 -20 26 0 10 -4 19 -10 19 -5 0 -10 6 -10 14 0 8 -9 18 -20 21
-11 3 -20 10 -20 15 0 5 -6 15 -12 22 -7 8 -18 23 -24 33 -6 11 -21 25 -33 30
-12 6 -25 22 -28 38 -3 15 -18 38 -34 52 -16 13 -29 26 -29 29 0 7 -72 76 -79
76 -7 0 -78 66 -107 100 -12 14 -36 38 -54 55 -55 49 -73 105 -73 219 0 122 4
126 114 126 113 0 139 -36 81 -116 -27 -37 -81 -64 -127 -64 -16 0 -19 -20 -9
-57 5 -18 16 -24 55 -29 27 -4 49 -10 49 -15 0 -5 7 -9 15 -9 9 0 15 -9 15
-25 0 -16 17 -42 50 -76 28 -28 50 -55 50 -60 0 -5 16 -9 35 -9 43 0 101 -23
133 -53 34 -32 56 -14 63 55 10 95 11 768 1 768 -6 0 -13 16 -16 35 -6 33 -9
35 -45 35 -38 0 -91 -35 -91 -61 0 -7 -13 -9 -40 -5 -22 3 -57 9 -79 12 -42 6
-83 -9 -115 -45 -11 -12 -23 -21 -28 -21 -5 0 -27 -12 -50 -27 -23 -16 -54
-32 -69 -38 -38 -14 -219 -184 -219 -206 0 -10 -4 -21 -10 -24 -15 -9 -12
-169 4 -202 32 -67 46 -102 62 -162 20 -73 103 -204 189 -296 30 -32 55 -68
55 -80 0 -11 19 -43 43 -70 71 -83 107 -147 107 -189 0 -27 -42 -86 -73 -103
-42 -23 -74 -16 -117 27 -33 33 -40 47 -40 80 0 22 -9 55 -20 75 -11 20 -20
49 -20 65 0 20 -8 35 -25 46 -14 9 -25 24 -25 34 0 34 -64 144 -117 201 -33
35 -81 71 -123 93 -76 40 -80 45 -89 90 -5 22 -13 32 -29 34 -21 3 -22 0 -22
-75 0 -60 5 -85 20 -110 11 -19 15 -35 10 -38 -12 -7 -13 -42 -2 -47 4 -1 33
-37 64 -78 31 -41 65 -84 75 -95 15 -17 19 -44 24 -175 7 -217 11 -225 140
-322 50 -37 82 -72 130 -143 61 -93 100 -125 133 -112 9 4 17 -2 21 -14 9 -27
73 -26 109 2 22 18 26 28 26 75 0 30 4 54 9 54 5 0 11 9 14 20 3 13 14 20 29
20 13 0 29 5 35 11 6 6 21 9 34 7 20 -2 25 -10 27 -42 2 -22 10 -49 18 -60 16
-23 19 -96 4 -96 -5 0 -10 -8 -10 -18 0 -33 -31 -137 -45 -151 -11 -12 -25
-10 -94 8 -131 36 -182 56 -256 105 -38 25 -74 46 -80 46 -6 0 -51 38 -100 85
-49 47 -95 85 -102 85 -25 0 -83 63 -110 118 -15 31 -30 59 -33 62 -16 13 -70
94 -70 106 0 7 -11 38 -25 69 -14 30 -25 70 -24 88 1 17 -6 53 -14 78 -12 32
-14 54 -8 76 10 33 4 81 -11 100 -12 16 0 213 14 230 5 7 7 30 3 51 -14 85 59
266 164 407 33 44 60 84 61 88 0 13 145 157 157 157 6 0 33 20 59 44 27 24 60
47 74 51 14 4 39 20 57 35 17 16 49 31 72 35 22 4 45 13 51 20 6 8 25 17 41
20 17 4 41 13 55 20 15 8 65 13 132 13 59 0 118 5 132 11 33 13 43 13 77 0z
m11338 -9 c6 -4 30 -14 55 -21 25 -7 51 -19 58 -26 7 -7 22 -13 33 -13 28 0
117 -39 156 -68 18 -13 38 -25 45 -26 13 -2 175 -151 207 -190 9 -10 23 -26
32 -34 65 -57 79 -73 79 -90 0 -11 14 -30 32 -43 56 -43 77 -67 83 -96 3 -15
15 -50 27 -78 11 -27 24 -80 29 -116 4 -36 13 -86 19 -110 7 -24 13 -127 15
-229 3 -181 3 -186 -21 -222 -13 -21 -24 -42 -24 -48 0 -6 -10 -35 -23 -63
-13 -29 -29 -71 -37 -94 -7 -24 -17 -43 -22 -43 -4 0 -8 -9 -8 -19 0 -10 -7
-21 -15 -25 -8 -3 -15 -12 -15 -21 0 -8 -4 -15 -10 -15 -5 0 -10 -7 -10 -15 0
-32 -40 -93 -70 -106 -16 -8 -30 -19 -30 -25 0 -7 -12 -20 -27 -30 -37 -24
-59 -46 -66 -66 -4 -10 -15 -18 -25 -18 -11 0 -31 -11 -46 -25 -15 -14 -30
-25 -34 -25 -4 0 -21 -13 -38 -29 -17 -16 -47 -33 -67 -36 -19 -4 -45 -18 -58
-31 -12 -13 -32 -24 -43 -24 -12 0 -30 -7 -40 -15 -11 -8 -29 -15 -40 -15 -12
0 -42 -11 -68 -25 -53 -28 -78 -24 -78 11 0 13 -5 23 -11 22 -13 -4 -59 76
-59 101 0 11 -5 21 -10 23 -12 4 -16 129 -5 177 5 20 15 36 26 38 11 3 19 11
19 18 0 15 84 28 127 19 24 -5 32 -13 37 -36 9 -45 7 -78 -4 -78 -5 0 -10 -11
-10 -24 0 -18 9 -29 32 -40 17 -9 36 -16 43 -16 27 0 77 34 86 59 14 35 49 71
70 71 9 0 24 15 33 35 9 19 23 35 31 35 8 0 20 9 27 20 7 11 18 20 24 20 7 0
15 12 18 26 7 27 121 157 143 162 7 2 13 10 13 17 0 8 9 20 20 28 11 8 23 28
26 45 4 18 10 32 14 32 4 0 10 18 14 41 9 54 29 119 37 119 4 0 10 51 14 113
3 61 15 147 26 189 23 93 24 124 4 132 -8 3 -15 12 -15 21 0 8 -5 15 -10 15
-19 0 -60 -48 -60 -69 0 -13 -15 -29 -45 -46 -51 -30 -105 -98 -105 -132 0
-33 -88 -143 -115 -143 -12 0 -37 -13 -55 -30 -18 -16 -41 -30 -51 -30 -40 0
-79 -90 -44 -104 10 -4 15 -20 15 -51 0 -41 -5 -51 -44 -92 -39 -40 -49 -45
-76 -40 -17 4 -40 15 -51 26 -19 17 -21 28 -17 86 3 50 9 69 21 77 11 5 17 21
17 42 0 45 59 140 130 209 33 31 60 62 60 69 0 18 90 117 121 134 20 10 29 22
29 38 0 13 7 29 15 36 8 7 15 20 15 30 0 9 9 27 20 40 11 13 22 33 25 44 2 12
7 35 10 51 17 76 16 121 -4 179 -12 33 -21 67 -21 78 0 10 -19 38 -42 61 -45
46 -222 187 -235 187 -3 0 -26 10 -51 21 -40 20 -49 21 -115 9 -53 -8 -80 -9
-100 -1 -16 6 -38 11 -50 11 -12 0 -33 9 -47 20 -14 11 -32 20 -42 20 -9 0
-18 5 -20 11 -7 22 -63 0 -73 -29 -6 -16 -9 -195 -7 -439 l2 -411 46 -4 c33
-2 50 1 64 14 11 10 27 18 36 18 8 0 27 9 41 20 14 11 32 20 39 20 8 0 14 7
14 15 0 8 7 15 15 15 14 0 20 17 16 48 -3 19 25 42 49 42 12 0 42 14 67 30 24
17 48 30 53 30 6 0 17 17 26 38 12 29 14 55 9 120 -6 77 -8 82 -30 82 -12 0
-28 -7 -35 -15 -7 -8 -23 -15 -36 -15 -19 0 -24 7 -30 37 -6 33 -4 39 29 70
33 30 42 33 98 33 59 0 63 -2 105 -44 41 -40 44 -47 44 -95 0 -28 -4 -51 -9
-51 -5 0 -11 -28 -13 -61 -3 -40 -10 -66 -20 -73 -8 -6 -18 -21 -22 -32 -7
-22 -94 -114 -108 -114 -4 0 -8 -6 -8 -13 0 -8 -12 -20 -26 -28 -15 -7 -55
-42 -90 -76 -35 -35 -69 -63 -74 -63 -6 0 -10 -5 -10 -10 0 -6 -29 -39 -64
-74 -36 -35 -68 -75 -72 -90 -3 -14 -10 -26 -15 -26 -5 0 -9 -6 -9 -13 0 -8
-11 -20 -25 -27 -14 -7 -25 -19 -25 -27 0 -7 -6 -13 -14 -13 -8 0 -17 -11 -20
-25 -9 -37 -76 -32 -76 6 0 10 -4 19 -10 19 -5 0 -10 6 -10 14 0 8 -9 18 -20
21 -11 3 -20 10 -20 15 0 5 -6 15 -12 22 -7 8 -18 23 -24 33 -6 11 -21 25 -33
30 -12 6 -25 22 -28 38 -3 15 -18 38 -34 52 -16 13 -29 26 -29 29 0 7 -72 76
-79 76 -7 0 -78 66 -107 100 -12 14 -36 38 -54 55 -55 49 -73 105 -73 219 0
122 4 126 114 126 113 0 139 -36 81 -116 -27 -37 -81 -64 -127 -64 -16 0 -19
-20 -9 -57 5 -18 16 -24 55 -29 27 -4 49 -10 49 -15 0 -5 7 -9 15 -9 9 0 15
-9 15 -25 0 -16 17 -42 50 -76 28 -28 50 -55 50 -60 0 -5 16 -9 35 -9 43 0
101 -23 133 -53 34 -32 56 -14 63 55 10 95 11 768 1 768 -6 0 -13 16 -16 35
-6 33 -9 35 -45 35 -38 0 -91 -35 -91 -61 0 -7 -13 -9 -40 -5 -22 3 -57 9 -79
12 -42 6 -83 -9 -115 -45 -11 -12 -23 -21 -28 -21 -5 0 -27 -12 -50 -27 -23
-16 -54 -32 -69 -38 -38 -14 -219 -184 -219 -206 0 -10 -4 -21 -10 -24 -15 -9
-12 -169 4 -202 32 -67 46 -102 62 -162 20 -73 103 -204 189 -296 30 -32 55
-68 55 -80 0 -11 19 -43 43 -70 71 -83 107 -147 107 -189 0 -27 -42 -86 -73
-103 -42 -23 -74 -16 -117 27 -33 33 -40 47 -40 80 0 22 -9 55 -20 75 -11 20
-20 49 -20 65 0 20 -8 35 -25 46 -14 9 -25 24 -25 34 0 34 -64 144 -117 201
-33 35 -81 71 -123 93 -76 40 -80 45 -89 90 -5 22 -13 32 -29 34 -21 3 -22 0
-22 -75 0 -60 5 -85 20 -110 11 -19 15 -35 10 -38 -12 -7 -13 -42 -2 -47 4 -1
33 -37 64 -78 31 -41 65 -84 75 -95 15 -17 19 -44 24 -175 7 -217 11 -225 140
-322 50 -37 82 -72 130 -143 61 -93 100 -125 133 -112 9 4 17 -2 21 -14 9 -27
73 -26 109 2 22 18 26 28 26 75 0 30 4 54 9 54 5 0 11 9 14 20 3 13 14 20 29
20 13 0 29 5 35 11 6 6 21 9 34 7 20 -2 25 -10 27 -42 2 -22 10 -49 18 -60 16
-23 19 -96 4 -96 -5 0 -10 -8 -10 -18 0 -33 -31 -137 -45 -151 -11 -12 -25
-10 -94 8 -131 36 -182 56 -256 105 -38 25 -74 46 -80 46 -6 0 -51 38 -100 85
-49 47 -95 85 -102 85 -25 0 -83 63 -110 118 -15 31 -30 59 -33 62 -16 13 -70
94 -70 106 0 7 -11 38 -25 69 -14 30 -25 70 -24 88 1 17 -6 53 -14 78 -12 32
-14 54 -8 76 10 33 4 81 -11 100 -12 16 0 213 14 230 5 7 7 30 3 51 -14 85 59
266 164 407 33 44 60 84 61 88 0 13 145 157 157 157 6 0 33 20 59 44 27 24 60
47 74 51 14 4 39 20 57 35 17 16 49 31 72 35 22 4 45 13 51 20 6 8 25 17 41
20 17 4 41 13 55 20 15 8 65 13 132 13 59 0 118 5 132 11 28 12 338 4 355 -9z
m-17057 -83 c6 -5 12 -22 12 -38 0 -22 -5 -29 -20 -29 -11 0 -20 -5 -20 -11 0
-17 -27 -39 -48 -39 -41 0 -52 -11 -52 -51 0 -21 4 -39 8 -39 4 0 16 -13 25
-30 11 -18 26 -30 40 -30 36 0 77 -48 77 -92 0 -21 4 -38 8 -38 5 0 15 -19 22
-42 19 -67 29 -83 61 -102 16 -9 29 -21 29 -26 0 -15 77 43 88 65 5 11 15 39
22 63 7 23 17 42 22 42 4 0 8 17 8 38 0 44 41 92 77 92 14 0 29 12 40 30 9 17
21 30 25 30 4 0 8 18 8 39 0 40 -11 51 -52 51 -21 0 -48 22 -48 39 0 6 -9 11
-20 11 -15 0 -20 7 -20 29 0 16 6 33 13 38 20 16 67 22 101 11 17 -5 40 -11
51 -13 29 -7 42 -29 55 -100 12 -64 6 -165 -10 -165 -5 0 -11 -13 -15 -29 -3
-16 -12 -32 -20 -34 -7 -3 -21 -26 -30 -51 -10 -26 -26 -48 -37 -51 -10 -4
-25 -16 -33 -28 -8 -12 -46 -56 -84 -97 -39 -41 -71 -81 -71 -87 0 -7 -6 -13
-13 -13 -7 0 -19 -9 -27 -20 -8 -11 -22 -20 -31 -20 -27 0 -175 164 -195 217
-10 27 -34 65 -54 85 -56 59 -69 76 -76 103 -3 14 -10 25 -14 25 -16 0 -22
102 -10 165 13 71 25 93 55 100 11 2 34 8 50 13 33 10 83 5 103 -11z m11060 0
c6 -5 12 -22 12 -38 0 -22 -5 -29 -20 -29 -11 0 -20 -5 -20 -11 0 -17 -27 -39
-48 -39 -41 0 -52 -11 -52 -51 0 -21 4 -39 8 -39 4 0 16 -13 25 -30 11 -18 26
-30 40 -30 36 0 77 -48 77 -92 0 -21 4 -38 8 -38 5 0 15 -19 22 -42 7 -24 17
-52 22 -63 11 -22 88 -80 88 -65 0 5 13 17 29 26 32 19 42 35 61 102 7 23 17
42 22 42 4 0 8 17 8 38 0 44 41 92 77 92 14 0 29 12 40 30 9 17 21 30 25 30 4
0 8 18 8 39 0 40 -11 51 -52 51 -21 0 -48 22 -48 39 0 6 -9 11 -20 11 -15 0
-20 7 -20 29 0 16 6 33 13 38 20 16 67 22 101 11 17 -5 40 -11 51 -13 29 -7
42 -29 55 -100 12 -63 6 -165 -10 -165 -4 0 -11 -11 -14 -25 -7 -27 -20 -44
-76 -103 -20 -20 -44 -58 -54 -85 -20 -53 -168 -217 -195 -217 -9 0 -23 9 -31
20 -8 11 -20 20 -27 20 -7 0 -13 6 -13 13 0 6 -32 46 -71 87 -38 41 -76 85
-84 97 -8 12 -23 24 -33 28 -11 3 -27 25 -37 51 -9 25 -23 48 -30 51 -8 2 -17
18 -20 34 -4 16 -10 29 -15 29 -16 0 -22 101 -10 165 13 71 25 93 55 100 11 2
34 8 50 13 33 10 83 5 103 -11z m-13155 -98 c55 -30 77 -110 39 -146 -46 -46
-47 -46 -101 -18 -53 26 -65 48 -59 101 2 19 14 36 37 51 38 26 53 28 84 12z
m4578 -12 c23 -15 35 -32 37 -51 6 -53 -6 -75 -59 -101 -54 -28 -55 -28 -101
18 -37 36 -17 113 37 145 29 17 48 15 86 -11z m6482 12 c55 -30 77 -110 39
-146 -46 -46 -47 -46 -101 -18 -53 26 -65 48 -59 101 2 19 14 36 37 51 38 26
53 28 84 12z m4578 -12 c23 -15 35 -32 37 -51 6 -53 -6 -75 -59 -101 -54 -28
-55 -28 -101 18 -37 36 -17 113 37 145 29 17 48 15 86 -11z m-13329 -43 c13
-8 9 -49 -6 -69 -20 -27 -92 -27 -112 0 -22 30 -14 68 16 76 24 7 86 2 102 -7z
m11060 0 c13 -8 9 -49 -6 -69 -20 -27 -92 -27 -112 0 -22 30 -14 68 16 76 24
7 86 2 102 -7z m-16807 -45 c23 -43 16 -80 -17 -99 -25 -13 -31 -13 -55 0 -39
22 -45 86 -11 112 35 27 65 23 83 -13z m22513 13 c34 -26 28 -90 -10 -112 -25
-13 -31 -13 -55 0 -34 19 -41 56 -18 99 18 36 48 40 83 13z m-22110 -79 c2
-24 -3 -37 -22 -54 -14 -13 -26 -31 -26 -41 0 -22 -36 -24 -63 -4 -14 11 -16
22 -11 57 11 72 19 80 72 77 45 -3 47 -4 50 -35z m2243 16 c23 -12 33 -73 17
-106 -42 -87 -162 -69 -189 29 -5 22 -13 46 -16 54 -9 24 53 44 117 37 30 -3
62 -9 71 -14z m6235 6 c24 -10 34 -20 31 -29 -3 -8 -11 -32 -16 -54 -13 -46
-36 -69 -81 -82 -40 -11 -87 11 -108 51 -13 25 -8 86 9 104 8 7 55 17 117 24
7 0 29 -6 48 -14z m2192 -2 c5 -10 12 -38 16 -62 5 -35 3 -46 -11 -57 -27 -20
-63 -18 -63 4 0 10 -11 28 -25 40 -24 21 -34 69 -18 85 3 4 26 7 49 7 31 0 46
-5 52 -17z m390 -20 c2 -24 -3 -37 -22 -54 -14 -13 -26 -31 -26 -41 0 -22 -36
-24 -63 -4 -14 11 -16 22 -11 57 11 72 19 80 72 77 45 -3 47 -4 50 -35z m2243
16 c23 -12 33 -73 17 -106 -42 -87 -162 -69 -189 29 -5 22 -13 46 -16 54 -9
24 53 44 117 37 30 -3 62 -9 71 -14z m6235 6 c24 -10 34 -20 31 -29 -3 -8 -11
-32 -16 -54 -13 -46 -36 -69 -81 -82 -40 -11 -87 11 -108 51 -13 25 -8 86 9
104 8 7 55 17 117 24 7 0 29 -6 48 -14z m2192 -2 c5 -10 12 -38 16 -62 5 -35
3 -46 -11 -57 -27 -20 -63 -18 -63 4 0 10 -11 28 -25 40 -24 21 -34 69 -18 85
3 4 26 7 49 7 31 0 46 -5 52 -17z m-16374 -852 c24 -26 25 -89 3 -106 -9 -7
-17 -16 -17 -20 0 -14 -35 -34 -60 -34 -25 0 -60 20 -60 34 0 4 -8 13 -17 20
-22 17 -21 80 3 106 13 14 30 19 74 19 44 0 61 -5 74 -19z m11060 0 c24 -26
25 -89 3 -106 -9 -7 -17 -16 -17 -20 0 -14 -35 -34 -60 -34 -25 0 -60 20 -60
34 0 4 -8 13 -17 20 -22 17 -21 80 3 106 13 14 30 19 74 19 44 0 61 -5 74 -19z
m-11528 -98 c18 -12 24 -24 24 -54 0 -49 -27 -75 -86 -84 -51 -7 -68 0 -61 26
3 11 2 19 -3 19 -13 0 -17 83 -6 103 9 16 19 18 60 12 26 -3 59 -13 72 -22z
m920 10 c12 -20 7 -103 -6 -103 -5 0 -6 -8 -3 -19 7 -26 -10 -33 -61 -26 -59
9 -86 35 -86 84 0 29 6 42 23 54 44 29 118 34 133 10z m10140 -10 c18 -12 24
-24 24 -54 0 -49 -27 -75 -86 -84 -51 -7 -68 0 -61 26 3 11 2 19 -3 19 -13 0
-17 83 -6 103 9 16 19 18 60 12 26 -3 59 -13 72 -22z m920 10 c12 -20 7 -103
-6 -103 -5 0 -6 -8 -3 -19 7 -26 -10 -33 -61 -26 -59 9 -86 35 -86 84 0 29 6
42 23 54 44 29 118 34 133 10z m-13666 -38 c0 -15 -7 -25 -38 -60 -15 -17 -50
-19 -86 -5 -32 12 -33 33 -4 60 28 26 128 30 128 5z m4288 -5 c29 -27 28 -48
-4 -60 -36 -14 -71 -12 -86 5 -56 62 -53 75 15 75 40 0 59 -5 75 -20z m6772 5
c0 -15 -7 -25 -38 -60 -15 -17 -50 -19 -86 -5 -32 12 -33 33 -4 60 28 26 128
30 128 5z m4288 -5 c29 -27 28 -48 -4 -60 -36 -14 -71 -12 -86 5 -56 62 -53
75 15 75 40 0 59 -5 75 -20z m-16523 -30 c18 -11 36 -27 39 -36 9 -23 -4 -64
-20 -64 -8 0 -14 -4 -14 -10 0 -5 -13 -10 -29 -10 -16 0 -36 -7 -45 -15 -8 -8
-26 -15 -40 -15 -23 0 -26 4 -26 39 0 21 3 59 6 85 l7 46 45 0 c27 0 57 -8 77
-20z m6639 -26 c3 -26 6 -64 6 -85 0 -35 -3 -39 -26 -39 -14 0 -32 7 -40 15
-9 8 -29 15 -45 15 -16 0 -29 5 -29 10 0 6 -6 10 -14 10 -17 0 -30 45 -18 66
17 30 66 54 113 54 l46 0 7 -46z m4421 26 c18 -11 36 -27 39 -36 9 -23 -4 -64
-20 -64 -8 0 -14 -4 -14 -10 0 -5 -13 -10 -29 -10 -16 0 -36 -7 -45 -15 -8 -8
-26 -15 -40 -15 -23 0 -26 4 -26 39 0 21 3 59 6 85 l7 46 45 0 c27 0 57 -8 77
-20z m6639 -26 c3 -26 6 -64 6 -85 0 -35 -3 -39 -26 -39 -14 0 -32 7 -40 15
-9 8 -29 15 -45 15 -16 0 -29 5 -29 10 0 6 -6 10 -14 10 -17 0 -30 45 -18 66
17 30 66 54 113 54 l46 0 7 -46z m-21239 -330 c14 -15 25 -32 25 -38 1 -17 34
-53 57 -60 14 -4 22 -18 26 -41 4 -21 26 -57 60 -98 30 -35 64 -78 77 -95 13
-18 30 -32 37 -32 7 0 13 -4 13 -10 0 -5 9 -10 21 -10 13 0 39 -21 67 -51 26
-29 60 -58 77 -65 16 -7 50 -32 75 -56 32 -30 55 -43 80 -45 34 -2 80 -40 80
-64 0 -7 -54 -10 -161 -7 l-161 3 -29 33 c-28 31 -29 37 -29 129 l0 95 -107
-3 -108 -4 -2 55 c-4 89 -13 140 -26 141 -7 1 -38 1 -71 1 -56 -1 -58 0 -53
23 2 14 0 48 -4 77 -11 68 -1 148 18 148 8 0 25 -12 38 -26z m24709 -21 c3
-27 2 -72 -3 -101 -4 -29 -6 -63 -4 -77 5 -23 3 -24 -53 -23 -33 0 -64 0 -71
-1 -13 -1 -22 -52 -26 -141 l-2 -55 -107 4 -108 3 0 -95 c0 -92 -1 -98 -29
-129 l-29 -33 -161 -3 c-107 -3 -161 0 -161 7 0 24 46 62 80 64 25 2 48 15 80
45 25 24 59 49 75 56 17 7 51 36 77 65 28 30 54 51 67 51 12 0 21 5 21 10 0 6
6 10 13 10 7 0 24 14 37 32 13 17 47 60 77 95 34 41 56 77 60 98 4 23 12 37
26 41 23 7 56 43 57 60 0 17 47 64 63 64 10 0 17 -16 21 -47z m-18959 -113
c19 -16 28 -68 17 -104 -6 -23 -18 -33 -51 -45 -43 -16 -43 -16 -66 12 -13 15
-28 27 -33 27 -19 0 -30 93 -14 116 17 26 45 32 89 19 24 -7 50 -19 58 -25z
m2237 6 c16 -23 5 -116 -14 -116 -5 0 -20 -12 -33 -27 -23 -28 -23 -28 -67
-12 -38 14 -44 20 -52 56 -13 61 7 94 69 115 50 16 79 12 97 -16z m8823 -6
c19 -16 28 -68 17 -104 -6 -23 -18 -33 -51 -45 -43 -16 -43 -16 -66 12 -13 15
-28 27 -33 27 -19 0 -30 93 -14 116 17 26 45 32 89 19 24 -7 50 -19 58 -25z
m2237 6 c16 -23 5 -116 -14 -116 -5 0 -20 -12 -33 -27 -23 -28 -23 -28 -67
-12 -38 14 -44 20 -52 56 -13 61 7 94 69 115 50 16 79 12 97 -16z m-16508 -55
c14 -6 34 -29 47 -56 22 -43 22 -48 8 -73 -14 -25 -19 -27 -84 -25 -64 1 -70
3 -96 35 -35 40 -36 67 -5 101 35 37 66 42 130 18z m8643 -19 c30 -33 29 -60
-6 -100 -26 -32 -32 -34 -96 -35 -65 -2 -70 -1 -84 25 -15 26 -14 30 9 74 40
75 124 93 177 36z m2417 19 c14 -6 34 -29 47 -56 22 -43 22 -48 8 -73 -14 -25
-19 -27 -84 -25 -64 1 -70 3 -96 35 -35 40 -36 67 -5 101 35 37 66 42 130 18z
m8643 -19 c30 -33 29 -60 -6 -100 -26 -32 -32 -34 -96 -35 -65 -2 -70 -1 -84
25 -15 26 -14 30 9 74 40 75 124 93 177 36z m-15423 -127 c11 -8 28 -15 39
-15 15 0 18 -6 15 -32 -3 -30 -7 -34 -46 -42 -83 -17 -123 33 -64 81 32 26 32
26 56 8z m11066 -7 c63 -46 22 -100 -62 -82 -39 8 -43 12 -46 42 -3 26 0 32
15 32 11 0 28 7 39 15 24 18 20 19 54 -7z m-17900 -186 c0 -4 16 -6 35 -4 l35
4 0 -66 0 -67 -52 3 -53 3 -2 68 c-3 61 -1 67 17 67 11 0 20 -4 20 -8z m24717
-59 l-2 -68 -52 -3 -53 -3 0 67 0 66 35 -4 c19 -2 35 0 35 4 0 4 9 8 20 8 18
0 20 -6 17 -67z"/>
</g>
</svg>
