<?xml version="1.0" standalone="no"?>
<!DOCTYPE svg PUBLIC "-//W3C//DTD SVG 20010904//EN"
 "http://www.w3.org/TR/2001/REC-SVG-20010904/DTD/svg10.dtd">
<svg version="1.0" xmlns="http://www.w3.org/2000/svg"
 width="3071.000000pt" height="610.000000pt" viewBox="0 0 3071.000000 610.000000"
 preserveAspectRatio="xMidYMid meet">
<metadata>
Created by potrace 1.13, written by Peter Selinger 2001-2015
</metadata>
<g transform="translate(0.000000,610.000000) scale(0.100000,-0.100000)"
fill="#000000" stroke="none">
<path d="M30130 6093 c-19 -2 -39 -9 -44 -14 -6 -5 -20 -9 -33 -9 -13 0 -23
-3 -23 -8 0 -14 -59 -34 -82 -27 -31 8 -72 28 -79 38 -11 15 -111 19 -186 7
-61 -9 -88 -20 -123 -45 -83 -61 -83 -63 -78 -197 l5 -118 -146 -2 c-80 0
-222 0 -316 2 -93 1 -224 -4 -289 -11 -92 -10 -121 -10 -124 -1 -5 15 -212 17
-212 2 0 -12 -117 -13 -122 -1 -2 5 -46 5 -106 0 -57 -5 -107 -7 -112 -4 -11
7 -2606 7 -2747 0 -62 -3 -113 -1 -113 4 0 12 -2528 13 -2535 1 -4 -7 -42 -8
-100 -4 -70 5 -98 4 -110 -6 -16 -14 -110 -6 -130 10 -11 9 -1127 -4 -1342
-16 -70 -4 -103 -2 -103 5 0 18 -78 13 -88 -5 -7 -13 -16 -15 -38 -8 -16 4
-58 9 -94 10 -36 2 -109 6 -162 9 -69 5 -98 4 -98 -4 0 -15 -102 -15 -117 0
-7 7 -31 9 -69 4 -33 -4 -135 -8 -229 -9 -93 -2 -208 -6 -254 -10 -65 -6 -86
-5 -92 5 -6 11 -20 11 -71 -2 -76 -19 -308 -15 -308 4 0 16 -169 20 -188 5
-10 -9 -310 -11 -1158 -10 -714 0 -1146 -3 -1149 -9 -4 -5 -44 -7 -100 -3 -70
5 -98 4 -110 -6 -16 -14 -110 -6 -130 10 -11 9 -1127 -4 -1342 -16 -70 -4
-103 -2 -103 5 0 18 -78 13 -88 -5 -7 -13 -16 -15 -38 -8 -16 4 -58 9 -94 10
-36 2 -109 6 -162 9 -69 5 -98 4 -98 -4 0 -15 -102 -15 -117 0 -7 7 -31 9 -69
4 -33 -4 -135 -8 -229 -9 -93 -2 -208 -6 -254 -10 -65 -6 -86 -5 -92 5 -6 11
-20 11 -71 -2 -76 -19 -308 -15 -308 4 0 17 -169 20 -188 4 -21 -17 -1753 -17
-1774 0 -19 16 -188 13 -188 -4 0 -19 -232 -23 -308 -4 -51 13 -65 13 -71 2
-6 -10 -27 -11 -92 -5 -46 4 -160 8 -254 10 -93 1 -196 5 -229 9 -38 5 -62 3
-69 -4 -15 -15 -117 -15 -117 0 0 8 -29 9 -98 4 -53 -3 -126 -7 -162 -9 -36
-1 -78 -6 -94 -10 -22 -7 -31 -5 -38 8 -10 18 -88 23 -88 5 0 -7 -33 -9 -102
-5 -216 12 -1332 25 -1343 16 -20 -16 -114 -24 -130 -10 -12 10 -40 11 -110 6
-58 -4 -96 -3 -100 4 -7 12 -2535 11 -2535 -1 0 -5 -51 -7 -112 -4 -142 7
-2737 7 -2748 0 -5 -3 -55 -1 -112 4 -60 5 -104 5 -106 0 -5 -12 -122 -11
-122 1 0 15 -207 13 -212 -2 -3 -9 -32 -9 -124 1 -65 7 -195 12 -289 11 -93
-2 -236 -2 -316 -2 l-146 2 5 118 c5 134 5 136 -78 197 -35 25 -62 36 -123 45
-75 12 -175 8 -186 -7 -7 -10 -48 -30 -79 -38 -23 -7 -82 13 -82 27 0 5 -10 8
-23 8 -13 0 -28 5 -35 12 -15 15 -209 15 -225 -1 -6 -6 -20 -11 -30 -11 -11 0
-39 -19 -63 -43 l-43 -43 3 -85 c4 -81 34 -179 55 -179 5 0 12 -11 15 -25 4
-16 13 -25 25 -25 21 0 31 -19 31 -56 0 -14 -6 -24 -14 -24 -8 0 -17 -7 -20
-16 -8 -21 4 -113 15 -120 5 -3 9 -17 9 -32 1 -27 20 -62 35 -62 5 0 20 -14
35 -30 36 -40 121 -63 202 -54 32 4 61 11 64 15 3 5 16 9 30 9 13 0 33 5 43
11 10 7 30 9 44 5 l27 -6 0 -185 c0 -112 -4 -186 -10 -190 -13 -8 -13 -62 0
-70 13 -8 13 -225 0 -225 -5 0 -9 -94 -9 -237 -1 -130 -5 -239 -10 -242 -13
-9 -12 -298 1 -359 8 -39 9 -55 0 -60 -7 -5 -12 -212 -16 -707 -5 -764 -14
-1115 -27 -1115 -14 0 -11 -174 3 -188 9 -9 9 -27 0 -74 -7 -41 -11 -253 -12
-598 0 -294 -3 -536 -5 -538 -2 -2 -39 -8 -82 -12 -90 -10 -173 -30 -173 -42
0 -4 -9 -8 -20 -8 -11 0 -23 -7 -26 -15 -4 -8 -12 -15 -20 -15 -8 0 -14 -7
-14 -15 0 -8 -5 -15 -11 -15 -19 0 -89 -79 -89 -100 0 -11 -9 -29 -20 -40 -14
-14 -20 -33 -20 -65 0 -91 32 -115 149 -115 91 0 147 14 161 40 6 11 26 22 46
26 20 4 38 14 42 23 3 9 14 22 24 29 10 7 18 19 18 26 0 7 14 27 30 44 17 18
30 42 30 55 0 13 4 27 9 32 6 6 11 30 13 55 l3 45 578 3 c335 1 577 -2 577 -7
0 -5 194 -9 455 -10 297 -1 455 2 455 9 0 6 9 10 20 10 11 0 20 -4 20 -10 0
-6 81 -10 224 -10 139 0 227 4 231 10 7 12 48 13 59 2 4 -4 55 -8 114 -8 97
-2 108 -4 124 -24 10 -12 18 -31 18 -41 0 -10 5 -19 11 -19 7 0 9 -12 5 -35
-7 -37 15 -81 67 -137 14 -15 28 -37 32 -48 3 -11 11 -20 17 -20 5 0 22 -12
38 -28 50 -49 58 -53 95 -46 23 4 35 2 35 -5 0 -17 85 -13 120 7 32 17 32 17
27 82 -3 35 -10 66 -16 68 -6 2 -11 10 -11 18 0 8 -4 14 -10 14 -5 0 -10 9
-10 20 0 11 -4 20 -10 20 -5 0 -10 10 -10 22 0 21 -80 108 -100 108 -15 0 -80
33 -80 41 0 4 -15 11 -32 14 -18 4 -37 10 -43 14 -5 3 -32 13 -60 22 l-50 16
0 344 c0 374 9 765 20 954 5 77 4 134 -3 159 -7 25 -8 56 -2 90 9 54 22 599
20 881 l-1 171 48 17 c85 30 476 34 2083 23 432 -3 791 -2 799 3 7 5 28 5 46
0 40 -11 1287 -15 1332 -4 22 5 33 4 33 -4 0 -7 115 -11 393 -11 323 0 567 -3
957 -11 19 0 93 2 164 5 75 3 148 1 175 -5 64 -15 5428 -15 5492 0 27 6 100 8
175 5 71 -3 145 -5 164 -5 390 8 634 11 958 11 277 0 392 4 392 11 0 8 11 9
33 4 44 -11 1292 -7 1332 4 21 5 39 5 51 -2 24 -14 2738 -10 2800 3 22 5 99 7
170 4 71 -3 145 -5 164 -5 390 8 634 11 958 11 277 0 392 4 392 11 0 8 11 9
33 4 45 -11 1292 -7 1332 4 18 5 39 5 46 0 8 -5 367 -6 799 -3 1607 11 1998 7
2083 -23 l48 -17 -1 -171 c-2 -282 11 -827 20 -881 6 -34 5 -65 -2 -90 -7 -25
-8 -82 -3 -159 11 -189 20 -580 20 -954 l0 -344 -50 -16 c-27 -9 -54 -19 -60
-22 -5 -4 -25 -10 -42 -14 -18 -3 -33 -10 -33 -14 0 -8 -65 -41 -80 -41 -20 0
-100 -87 -100 -108 0 -12 -4 -22 -10 -22 -5 0 -10 -9 -10 -20 0 -11 -4 -20
-10 -20 -5 0 -10 -6 -10 -14 0 -8 -5 -16 -11 -18 -6 -2 -13 -33 -16 -68 -5
-65 -5 -65 27 -82 35 -20 120 -24 120 -7 0 7 12 9 35 5 37 -7 45 -3 95 47 16
15 33 27 38 27 6 0 14 9 17 20 4 11 18 33 32 48 52 56 74 100 67 137 -4 23 -2
35 5 35 6 0 11 9 11 19 0 10 8 29 18 41 16 20 27 22 124 24 59 0 110 4 114 9
11 10 52 9 59 -3 4 -6 92 -10 231 -10 143 0 224 4 224 10 0 6 9 10 20 10 11 0
20 -4 20 -10 0 -7 158 -10 455 -9 261 1 455 5 455 10 0 5 242 8 578 7 l577 -3
3 -45 c2 -25 7 -49 13 -55 5 -5 9 -19 9 -32 0 -13 14 -37 30 -55 17 -17 30
-37 30 -44 0 -7 8 -19 18 -26 10 -7 21 -20 24 -29 4 -9 22 -19 42 -23 20 -4
40 -15 46 -26 14 -26 70 -40 161 -40 117 0 149 24 149 115 0 32 -6 51 -20 65
-11 11 -20 29 -20 40 0 21 -70 100 -89 100 -6 0 -11 7 -11 15 0 8 -6 15 -14
15 -8 0 -16 7 -20 15 -3 8 -15 15 -26 15 -11 0 -20 4 -20 8 0 12 -83 32 -173
42 -43 4 -80 10 -82 12 -2 2 -5 244 -5 538 -1 345 -5 557 -12 598 -9 47 -9 65
0 74 14 14 17 188 3 188 -13 0 -22 351 -27 1115 -4 495 -9 702 -16 707 -9 5
-8 21 0 60 13 61 14 350 1 359 -5 3 -9 112 -10 242 0 143 -4 237 -9 237 -13 0
-13 217 0 225 6 3 10 19 10 35 0 16 -4 32 -10 35 -6 4 -10 78 -10 190 l0 185
27 6 c14 4 34 2 44 -5 10 -6 30 -11 43 -11 14 0 27 -4 30 -9 3 -4 32 -11 64
-15 81 -9 166 14 202 54 15 16 30 30 35 30 15 0 34 35 35 62 0 15 4 29 9 32
11 7 23 99 15 120 -3 9 -12 16 -20 16 -8 0 -14 10 -14 24 0 37 10 56 31 56 12
0 21 9 25 25 3 14 10 25 15 25 21 0 51 98 55 179 l3 85 -43 43 c-24 24 -52 43
-63 43 -10 0 -23 4 -28 9 -12 10 -136 20 -185 14z m-271 -71 c42 -21 69 -65
70 -114 1 -20 5 -40 11 -43 13 -8 60 40 60 62 1 29 48 75 93 89 9 4 17 10 17
15 0 5 25 9 56 9 42 0 72 -8 123 -32 78 -37 90 -51 91 -99 0 -89 -12 -129 -51
-169 -34 -34 -45 -39 -91 -42 -50 -3 -53 -4 -62 -37 -8 -28 -7 -36 4 -39 8 -3
32 -22 52 -43 27 -27 38 -47 38 -69 0 -16 5 -30 11 -30 7 0 9 -11 5 -31 -6
-32 -27 -59 -46 -59 -6 0 -21 -11 -34 -25 -20 -21 -32 -25 -83 -25 -89 0 -153
11 -153 26 0 7 -8 15 -18 18 -30 10 -86 67 -97 100 -15 43 -13 180 3 199 21
25 -2 31 -120 35 -60 3 -108 8 -108 13 0 5 -15 9 -34 9 -36 0 -46 12 -46 56 0
13 -4 24 -10 24 -13 0 -13 97 0 113 46 58 57 65 109 72 30 4 61 14 69 21 19
19 99 17 141 -4z m-29499 -21 c0 -5 8 -11 18 -15 44 -14 91 -60 92 -89 0 -22
47 -70 60 -62 6 3 10 23 11 43 1 49 28 93 70 114 42 21 122 23 141 4 8 -7 39
-17 69 -21 52 -7 63 -14 109 -72 13 -16 13 -113 0 -113 -5 0 -10 -11 -10 -24
0 -44 -10 -56 -46 -56 -19 0 -34 -4 -34 -9 0 -5 -48 -10 -107 -13 -119 -4
-142 -10 -121 -35 16 -19 18 -156 3 -199 -11 -33 -67 -90 -97 -100 -10 -3 -18
-11 -18 -18 0 -15 -64 -26 -153 -26 -51 0 -63 4 -83 25 -13 14 -28 25 -34 25
-19 0 -40 27 -46 59 -4 20 -2 31 5 31 6 0 11 14 11 30 0 22 11 42 38 69 20 21
44 40 52 43 11 3 12 11 4 39 -9 33 -12 34 -62 37 -46 3 -57 8 -91 42 -39 40
-51 80 -51 169 1 48 13 62 90 99 49 24 79 32 123 32 31 0 57 -4 57 -9z m25212
-340 c3 -10 275 -14 728 -12 270 2 1548 4 1620 3 50 -1 1121 1 1295 2 225 1
486 -14 501 -29 8 -7 14 -17 14 -21 0 -4 8 -13 18 -20 15 -11 17 -38 20 -268
2 -141 7 -256 11 -256 5 0 9 -168 10 -372 1 -205 6 -413 12 -463 11 -102 -2
-317 -20 -323 -20 -7 -12 -49 10 -55 18 -5 20 -12 19 -79 -1 -40 0 -176 2
-301 2 -126 0 -231 -4 -233 -14 -9 -9 -103 7 -140 12 -30 13 -59 5 -172 -5
-76 -12 -145 -15 -155 -4 -9 -3 -17 3 -17 23 0 25 -54 37 -830 4 -234 10 -427
14 -430 3 -3 7 -219 9 -481 l3 -476 -203 -6 c-112 -4 -274 -10 -360 -13 -91
-4 -158 -3 -158 2 0 10 -3 10 -465 -4 -245 -7 -306 -7 -334 4 -41 17 -337 20
-343 4 -2 -7 -40 -7 -118 -1 -163 13 -422 9 -428 -7 -5 -17 -28 -15 -47 4 -13
14 -24 15 -67 6 -59 -11 -266 5 -284 23 -7 7 -12 123 -13 365 -1 219 -5 356
-11 358 -13 5 -13 152 0 152 6 0 10 38 10 95 0 52 -3 95 -8 95 -4 0 -7 246 -7
548 0 424 -2 553 -12 572 -15 30 -17 96 -3 105 6 3 10 33 10 66 0 33 -4 59
-10 59 -5 0 -10 23 -10 50 0 28 4 50 10 50 6 0 9 34 7 85 -1 65 -5 85 -16 85
-8 0 -19 -7 -26 -16 -10 -15 -43 -16 -286 -15 -172 1 -276 6 -280 12 -4 7 -27
6 -68 -2 -43 -9 -64 -10 -69 -3 -5 7 -73 8 -212 3 -113 -4 -207 -4 -210 -1 -3
4 -124 5 -270 1 -146 -3 -322 -4 -392 -1 -93 4 -128 2 -128 -6 0 -7 -13 -12
-30 -12 -16 0 -30 5 -30 10 0 12 -83 14 -94 3 -12 -13 -140 -11 -155 1 -10 8
-122 10 -380 9 -233 -1 -368 2 -372 9 -4 6 -33 3 -80 -7 -115 -27 -154 -29
-190 -11 -18 9 -46 16 -62 16 -17 0 -45 5 -63 12 -25 9 -39 9 -56 1 -39 -19
-81 -25 -88 -12 -6 9 -38 9 -140 0 -107 -10 -135 -10 -141 1 -6 10 -15 10 -41
1 -22 -8 -156 -13 -410 -15 -208 -2 -378 -5 -378 -8 0 -3 -106 -4 -236 -2
-173 3 -235 1 -230 -7 5 -7 -5 -11 -28 -11 -20 0 -36 5 -36 10 0 6 -18 10 -40
10 -22 0 -40 -3 -40 -7 0 -12 -228 -14 -235 -3 -8 14 -465 13 -465 0 0 -6 -30
-10 -70 -10 -45 0 -70 4 -70 11 0 8 -11 9 -32 4 -26 -6 -821 -19 -1003 -17
-43 1 -469 1 -547 1 -27 0 -117 0 -200 0 -84 0 -346 -1 -581 -2 -345 -2 -429
1 -436 11 -7 11 -21 10 -82 -3 -115 -27 -154 -29 -190 -11 -18 9 -46 16 -62
16 -17 0 -45 5 -63 12 -25 9 -39 9 -56 1 -39 -19 -81 -25 -88 -12 -6 9 -38 9
-140 0 -107 -10 -135 -10 -141 1 -6 10 -15 10 -41 1 -22 -8 -156 -13 -410 -15
-208 -2 -378 -5 -378 -8 0 -3 -106 -4 -236 -2 -173 3 -235 1 -230 -7 5 -7 -5
-11 -28 -11 -20 0 -36 5 -36 10 0 6 -18 10 -40 10 -22 0 -40 -3 -40 -7 0 -12
-228 -14 -235 -3 -8 14 -465 13 -465 0 0 -6 -30 -10 -70 -10 -45 0 -70 4 -70
11 0 8 -11 9 -32 4 -26 -6 -821 -19 -1003 -17 -43 1 -469 1 -547 1 -92 -1
-366 -1 -1143 -1 -777 0 -1051 0 -1142 1 -79 0 -505 0 -548 -1 -182 -2 -977
11 -1002 17 -22 5 -33 4 -33 -4 0 -7 -25 -11 -70 -11 -40 0 -70 4 -70 10 0 13
-457 14 -465 0 -7 -11 -235 -9 -235 3 0 4 -18 7 -40 7 -22 0 -40 -4 -40 -10 0
-5 -16 -10 -36 -10 -23 0 -33 4 -28 11 5 8 -57 10 -230 7 -130 -2 -236 -1
-236 2 0 3 -170 6 -378 8 -254 2 -388 7 -410 15 -26 9 -35 9 -41 -1 -6 -11
-34 -11 -141 -1 -102 9 -134 9 -140 0 -7 -13 -49 -7 -88 12 -17 8 -31 8 -56
-1 -18 -7 -46 -12 -63 -12 -16 0 -44 -7 -62 -16 -36 -18 -75 -16 -190 11 -47
10 -76 13 -80 7 -4 -7 -139 -10 -372 -9 -258 1 -370 -1 -380 -9 -15 -12 -143
-14 -155 -1 -11 11 -94 9 -94 -3 0 -5 -13 -10 -30 -10 -16 0 -30 5 -30 12 0 8
-35 10 -127 6 -71 -3 -247 -2 -393 1 -146 4 -267 3 -270 -1 -3 -3 -97 -3 -210
1 -139 5 -207 4 -212 -3 -5 -7 -26 -6 -69 3 -41 8 -64 9 -68 2 -4 -6 -108 -11
-280 -12 -243 -1 -276 0 -286 15 -7 9 -18 16 -26 16 -11 0 -15 -20 -16 -85 -2
-51 1 -85 7 -85 6 0 10 -22 10 -50 0 -27 -4 -50 -10 -50 -6 0 -10 -26 -10 -59
0 -33 5 -63 10 -66 14 -9 12 -75 -3 -105 -10 -19 -12 -148 -12 -573 0 -301 -3
-547 -7 -547 -5 0 -8 -43 -8 -95 0 -57 4 -95 10 -95 13 0 13 -147 0 -152 -6
-2 -10 -139 -11 -358 -1 -242 -6 -358 -13 -365 -18 -18 -225 -34 -284 -23 -43
9 -54 8 -67 -6 -19 -19 -42 -21 -47 -4 -6 16 -265 20 -428 7 -78 -6 -116 -6
-118 1 -6 16 -302 13 -343 -4 -28 -11 -89 -11 -334 -4 -462 14 -465 14 -465 4
0 -5 -67 -6 -157 -2 -87 3 -249 9 -361 13 l-203 6 3 476 c2 262 6 478 9 481 4
3 10 196 14 430 12 776 14 830 37 830 6 0 7 8 3 17 -3 10 -10 79 -15 155 -8
113 -7 142 5 172 16 37 21 131 7 140 -4 2 -6 107 -4 233 2 125 3 261 2 301 -1
67 1 74 19 79 22 6 30 48 10 55 -18 6 -31 221 -20 323 6 50 11 258 12 463 1
204 5 372 10 372 4 0 9 115 11 256 3 230 5 257 21 268 9 7 17 16 17 20 0 4 6
14 14 21 15 15 276 30 501 29 174 -1 1245 -3 1295 -2 72 1 1350 -1 1620 -3
487 -3 724 2 731 13 6 9 23 8 66 -1 32 -7 69 -15 82 -17 13 -3 57 0 97 7 56 9
77 9 88 0 10 -9 147 -11 522 -10 280 0 520 1 534 2 83 1 4164 -14 4780 -18
940 -7 1483 -7 2470 0 432 2 1604 7 2605 10 1001 3 1978 8 2170 10 567 8 5625
32 5865 28 14 -1 254 -2 534 -2 375 -1 512 1 522 10 11 9 32 9 87 0 67 -10
179 -3 195 14 9 9 50 6 54 -4z m4493 -5212 c25 -12 45 -25 45 -30 0 -5 9 -9
19 -9 11 0 23 -4 26 -10 3 -5 14 -10 24 -10 19 0 36 -15 101 -89 24 -28 50
-51 57 -51 7 0 13 -9 13 -20 0 -11 5 -20 10 -20 18 0 11 -59 -7 -69 -29 -15
-143 -25 -143 -12 0 6 -9 11 -20 11 -11 0 -20 5 -20 10 0 6 -11 10 -25 10 -16
0 -25 6 -25 15 0 8 -7 15 -15 15 -8 0 -15 7 -15 15 0 8 -7 15 -16 15 -20 0
-44 24 -44 44 0 9 -4 16 -10 16 -5 0 -10 6 -10 13 0 8 -11 27 -25 43 -14 16
-25 39 -25 51 0 12 -4 25 -10 28 -5 3 -10 17 -10 31 0 21 4 24 40 24 22 0 60
-9 85 -21z m-29535 -33 c0 -14 -4 -28 -10 -31 -5 -3 -10 -16 -10 -28 0 -12
-11 -35 -25 -51 -14 -16 -25 -35 -25 -43 0 -7 -4 -13 -10 -13 -5 0 -10 -7 -10
-16 0 -20 -24 -44 -44 -44 -9 0 -16 -7 -16 -15 0 -8 -7 -15 -15 -15 -8 0 -15
-7 -15 -15 0 -9 -9 -15 -25 -15 -14 0 -25 -4 -25 -10 0 -5 -9 -10 -20 -10 -11
0 -20 -5 -20 -11 0 -13 -114 -3 -142 12 -19 10 -26 69 -8 69 6 0 10 9 10 20 0
11 6 20 13 20 7 0 33 23 57 51 65 74 82 89 101 89 10 0 21 5 24 10 3 6 15 10
26 10 10 0 19 4 19 9 0 16 85 50 128 51 38 0 42 -2 42 -24z m26428 -28 c2 -10
-3 -32 -11 -50 -9 -18 -21 -50 -27 -70 -8 -27 -17 -38 -31 -38 -10 0 -19 -7
-19 -15 0 -8 -4 -15 -10 -15 -5 0 -10 -5 -10 -11 0 -20 -27 -38 -74 -50 -25
-6 -46 -15 -46 -20 0 -5 -25 -9 -55 -9 -51 0 -55 2 -55 24 0 53 40 126 69 126
6 0 17 13 26 29 8 17 23 36 33 43 10 7 21 21 25 31 3 9 15 17 25 17 10 0 22 4
28 9 12 12 50 19 94 17 24 -1 36 -6 38 -18z m-23314 -28 c6 -6 18 -10 28 -10
10 0 22 -8 25 -17 4 -10 15 -24 25 -31 10 -7 25 -26 33 -43 9 -16 20 -29 26
-29 29 0 69 -73 69 -126 0 -22 -4 -24 -55 -24 -30 0 -55 4 -55 9 0 5 -21 14
-46 20 -47 12 -74 30 -74 50 0 6 -4 11 -10 11 -5 0 -10 7 -10 15 0 8 -9 15
-19 15 -14 0 -23 11 -31 38 -6 20 -18 51 -26 69 -16 35 -18 56 -6 67 9 10 114
-2 126 -14z"/>
<path d="M27810 5502 c0 -5 -863 -10 -1917 -10 -1055 -1 -2471 -4 -3148 -8
-676 -3 -1293 -4 -1370 -3 -196 5 -224 3 -278 -11 -39 -11 -50 -11 -56 -1 -11
17 -2373 18 -2417 0 -16 -6 -65 -10 -109 -9 -44 1 -129 2 -190 3 -60 1 -695
-2 -1410 -6 -715 -5 -1363 -7 -1440 -6 -197 5 -224 3 -278 -11 -39 -11 -50
-11 -56 -1 -11 17 -2373 18 -2417 0 -16 -6 -65 -10 -109 -9 -104 2 -556 2
-660 0 -44 -1 -93 3 -109 9 -44 18 -2406 17 -2417 0 -6 -10 -17 -10 -56 1 -54
14 -82 16 -278 11 -77 -1 -693 0 -1370 3 -676 4 -2093 7 -3147 8 -1055 0
-1918 5 -1918 10 0 4 -31 8 -70 8 -40 0 -70 -4 -70 -10 0 -11 -63 -14 -73 -3
-10 10 -587 12 -587 2 0 -12 -77 -11 -85 1 -8 12 -95 13 -95 1 0 -12 -727 -14
-735 -1 -3 6 -21 10 -38 10 l-32 0 3 -316 c3 -201 0 -319 -6 -323 -8 -5 -18
-168 -13 -221 1 -13 2 -13 12 0 8 12 9 11 5 -5 -15 -60 -17 -101 -5 -171 9
-59 10 -79 1 -82 -9 -3 -12 -86 -12 -313 0 -199 -4 -309 -10 -309 -5 0 -10 -9
-10 -20 0 -11 5 -20 10 -20 6 0 10 -13 10 -30 0 -16 -4 -30 -10 -30 -5 0 -10
-22 -10 -50 0 -28 -5 -50 -10 -50 -7 0 -9 -45 -7 -130 2 -71 -1 -134 -5 -138
-5 -5 -8 -53 -7 -108 2 -165 2 -182 -5 -374 -9 -250 -13 -299 -22 -340 -11
-42 -10 -762 1 -945 7 -119 6 -128 -9 -116 -15 13 -16 -8 -16 -260 0 -151 -2
-300 -6 -331 -5 -40 -3 -62 6 -73 14 -17 90 -21 90 -5 0 6 8 10 18 10 10 0 28
8 42 17 17 12 25 13 28 5 2 -8 42 -12 133 -12 84 0 128 4 124 10 -4 6 27 10
84 10 52 0 91 -4 91 -10 0 -6 112 -11 288 -14 498 -9 606 -12 630 -20 13 -4
28 -3 35 2 7 5 67 6 147 1 74 -4 222 -5 328 -2 155 5 192 4 192 -7 0 -10 24
-12 118 -7 65 3 130 11 145 16 26 10 27 13 22 58 -9 68 -9 70 -1 1101 6 669 5
932 -3 932 -13 0 -15 27 -2 32 6 2 12 109 15 246 2 134 6 246 9 248 6 7 252 5
477 -4 113 -4 243 -6 290 -4 47 2 105 3 130 3 25 0 263 -3 530 -5 324 -4 501
-2 533 5 26 6 55 8 65 3 20 -9 312 -12 312 -3 0 3 11 4 25 1 14 -2 32 2 41 9
13 11 17 10 26 -4 8 -15 32 -17 246 -16 130 0 256 -3 278 -6 24 -4 50 -3 61 4
13 7 31 7 52 1 20 -5 33 -5 37 2 4 6 9 6 15 -3 6 -10 13 -10 33 -1 14 6 28 7
31 3 7 -12 141 -25 156 -15 7 4 550 6 1208 4 1320 -3 1388 -3 1415 -15 10 -5
32 -3 50 3 40 15 266 16 266 2 0 -12 55 -13 78 -1 9 4 37 11 61 15 36 6 42 4
38 -9 -4 -9 -1 -15 8 -15 8 0 15 4 15 9 0 13 78 23 99 12 10 -6 185 -11 412
-12 263 -2 396 -6 401 -13 5 -7 8 -4 8 7 0 23 36 23 49 0 8 -14 13 -15 19 -5
9 13 105 12 242 -3 47 -6 87 -3 144 10 58 13 100 16 160 11 44 -3 228 -7 409
-7 180 -1 327 -6 327 -10 0 -16 63 -9 82 8 15 13 23 14 44 5 37 -17 101 -15
108 3 3 8 15 15 26 15 11 0 20 -7 20 -15 0 -18 48 -20 84 -3 21 9 29 8 44 -5
19 -17 82 -24 82 -8 0 4 147 9 328 10 180 0 364 4 408 7 60 5 102 2 160 -11
57 -13 97 -16 144 -10 137 15 233 16 242 3 6 -10 11 -9 19 5 13 23 49 23 49 0
0 -11 3 -14 8 -7 5 7 138 11 401 13 227 1 402 6 412 12 21 11 99 1 99 -12 0
-5 7 -9 15 -9 9 0 12 6 8 15 -4 13 2 15 38 9 24 -4 52 -11 61 -15 23 -12 78
-11 78 1 0 14 226 13 266 -2 18 -6 40 -8 50 -3 27 12 95 12 1415 15 658 2
1201 0 1208 -4 15 -10 149 3 156 15 3 4 18 3 32 -4 21 -9 27 -9 31 1 2 7 9 9
15 5 16 -10 97 -4 130 9 22 9 31 8 46 -6 18 -17 81 -23 81 -7 0 4 147 9 328
10 180 0 364 4 408 7 60 5 102 2 160 -11 57 -13 97 -16 144 -10 137 15 233 16
242 3 6 -10 11 -9 19 5 13 23 49 23 49 0 0 -11 3 -14 8 -7 5 7 138 11 401 13
227 1 402 6 412 12 21 11 99 1 99 -12 0 -5 7 -9 15 -9 9 0 12 6 8 15 -4 13 2
15 38 9 24 -4 52 -11 61 -15 23 -12 78 -11 78 1 0 14 226 13 266 -2 18 -6 40
-8 50 -3 27 12 95 12 1415 15 658 2 1201 0 1208 -4 15 -10 149 3 156 15 3 4
17 3 31 -3 20 -9 27 -9 33 1 6 9 11 9 15 3 4 -7 17 -7 37 -2 21 6 39 6 52 -1
11 -7 37 -8 61 -4 22 3 148 6 278 6 214 -1 238 1 246 16 9 14 13 15 26 4 9 -7
27 -11 41 -9 14 3 25 2 25 -1 0 -9 292 -6 312 3 10 5 39 3 65 -3 32 -7 209 -9
533 -5 267 2 505 5 530 5 25 0 83 -1 130 -3 47 -2 177 0 290 4 225 9 471 11
477 4 3 -2 7 -114 9 -248 3 -137 9 -244 15 -246 13 -5 11 -32 -2 -32 -8 0 -9
-263 -3 -932 8 -1031 8 -1033 -1 -1101 -5 -45 -4 -48 22 -58 15 -5 80 -13 145
-16 94 -5 118 -3 118 7 0 11 37 12 193 7 105 -3 253 -2 327 2 80 5 140 4 147
-1 7 -5 22 -6 35 -2 24 8 132 11 631 20 175 3 287 8 287 14 0 6 39 10 91 10
57 0 88 -4 84 -10 -4 -6 40 -10 124 -10 91 0 131 4 133 12 3 8 11 7 28 -5 14
-9 32 -17 42 -17 10 0 18 -4 18 -10 0 -16 76 -12 90 5 9 11 11 33 6 73 -4 31
-6 180 -6 331 0 252 -1 273 -16 260 -15 -12 -16 -3 -9 116 11 183 12 903 1
945 -9 41 -13 90 -22 340 -7 192 -7 209 -5 374 1 55 -2 103 -7 108 -4 4 -7 67
-5 138 2 85 0 130 -7 130 -5 0 -10 22 -10 50 0 28 -4 50 -10 50 -5 0 -10 14
-10 30 0 17 5 30 10 30 6 0 10 9 10 20 0 11 -4 20 -10 20 -6 0 -10 110 -10
309 0 227 -3 310 -12 313 -9 3 -8 23 1 82 12 70 10 111 -5 171 -4 16 -3 17 5
5 10 -13 11 -13 12 0 5 53 -5 216 -13 221 -6 4 -9 122 -6 323 l3 316 -32 0
c-17 0 -35 -4 -38 -10 -8 -13 -735 -11 -735 1 0 12 -87 11 -95 -1 -8 -12 -85
-13 -85 -1 0 10 -577 8 -587 -2 -10 -11 -73 -8 -73 3 0 6 -30 10 -70 10 -38 0
-70 -4 -70 -8z m-917 -93 c39 -21 12 -98 -35 -99 -10 0 -18 -6 -18 -14 0 -8
-20 -20 -45 -27 -31 -9 -45 -19 -45 -31 0 -9 -9 -20 -20 -23 -11 -3 -20 -10
-20 -15 0 -5 -22 -24 -50 -42 -27 -18 -50 -36 -50 -40 0 -5 -6 -8 -12 -8 -7 0
-32 -17 -55 -38 -23 -20 -54 -46 -69 -57 -15 -11 -33 -26 -40 -32 -7 -7 -17
-13 -23 -13 -6 0 -11 -4 -11 -10 0 -5 -12 -13 -27 -16 -16 -4 -54 -29 -85 -55
-31 -27 -60 -49 -65 -49 -4 0 -14 -9 -21 -20 -7 -11 -21 -20 -32 -20 -11 0
-20 -6 -20 -14 0 -8 -9 -18 -20 -21 -11 -3 -20 -15 -20 -25 0 -13 -9 -22 -25
-26 -14 -3 -25 -10 -25 -15 0 -5 -7 -9 -16 -9 -9 0 -39 -16 -65 -35 -27 -19
-52 -35 -57 -35 -4 0 -22 -14 -40 -30 -19 -16 -42 -32 -53 -35 -10 -4 -19 -12
-19 -20 0 -8 -8 -16 -17 -19 -10 -3 -32 -19 -50 -36 -18 -16 -37 -30 -42 -30
-6 0 -11 -4 -11 -10 0 -5 -9 -10 -20 -10 -12 0 -20 -7 -20 -16 0 -22 -25 -44
-49 -44 -12 0 -21 -6 -21 -14 0 -8 -11 -17 -25 -20 -14 -4 -37 -20 -52 -36
-14 -17 -32 -30 -40 -30 -7 0 -13 -4 -13 -10 0 -5 -7 -10 -15 -10 -7 0 -18 -6
-22 -13 -4 -7 -28 -27 -53 -45 -25 -17 -67 -51 -94 -76 -27 -24 -64 -53 -83
-63 -18 -9 -33 -21 -33 -25 0 -5 -7 -8 -15 -8 -8 0 -20 -9 -27 -20 -7 -11 -16
-20 -20 -20 -8 0 -23 -13 -96 -78 -21 -17 -52 -39 -71 -48 -19 -9 -44 -25 -55
-35 -11 -11 -23 -19 -26 -19 -4 0 -25 -17 -48 -39 -22 -21 -54 -45 -71 -52
-17 -8 -31 -17 -31 -21 0 -5 -5 -8 -12 -8 -6 0 -18 -7 -27 -15 -47 -45 -84
-75 -92 -75 -5 0 -18 -9 -29 -20 -11 -11 -27 -20 -35 -20 -8 0 -15 -6 -15 -14
0 -8 -19 -20 -44 -27 -27 -8 -47 -20 -49 -31 -6 -20 -45 -38 -86 -38 -26 0
-29 4 -35 41 -6 36 -3 44 19 65 14 13 28 24 29 24 2 0 18 14 36 30 18 17 37
30 44 30 6 0 18 9 26 20 8 11 20 20 27 20 7 0 31 18 55 40 24 22 48 40 54 40
6 0 22 11 35 23 13 13 39 30 57 38 17 8 32 17 32 21 0 4 16 15 35 24 19 9 35
20 35 25 0 14 33 49 46 49 6 0 27 16 47 35 20 19 43 35 52 35 8 0 15 5 15 10
0 6 9 10 19 10 10 0 21 7 25 15 3 8 10 15 16 15 6 0 31 19 55 43 72 70 106 97
124 97 9 0 22 14 29 30 9 19 21 30 34 30 12 0 36 16 55 35 19 19 47 42 63 50
17 9 30 19 30 23 0 4 14 13 30 19 17 6 30 18 30 26 0 8 14 20 30 26 17 5 30
17 30 25 0 10 9 16 25 16 14 0 25 6 25 13 0 7 16 21 35 31 19 11 35 23 35 28
0 4 7 8 15 8 8 0 15 5 15 10 0 6 5 10 11 10 11 0 54 31 100 74 14 13 35 26 47
30 11 4 32 20 46 37 14 16 28 29 33 29 5 0 30 18 57 40 26 22 52 40 58 40 5 0
19 11 32 25 13 14 28 25 35 25 6 0 11 5 11 10 0 6 11 16 25 22 14 6 25 17 25
25 0 7 9 13 20 13 10 0 29 10 42 23 13 12 35 28 51 36 15 8 27 20 27 27 0 6
11 15 24 18 22 5 49 24 96 67 9 9 29 19 44 23 27 7 96 69 96 87 0 5 9 9 20 9
10 0 24 9 30 20 6 11 17 20 26 20 22 0 64 30 64 46 0 8 9 14 20 14 11 0 20 5
20 10 0 6 18 18 39 27 26 11 42 26 46 41 6 23 9 24 53 17 26 -4 55 -11 65 -16z
m-2763 1 c0 -5 11 -10 25 -10 18 0 25 -5 25 -19 0 -11 -5 -23 -11 -27 -8 -5
-10 -33 -5 -93 15 -187 23 -1042 9 -1064 -10 -16 -8 -141 3 -158 5 -8 10 -90
11 -184 2 -93 4 -179 5 -190 1 -11 1 -66 0 -122 l-2 -102 -72 6 c-40 3 -74 7
-76 8 -1 1 -5 94 -8 206 -2 112 -9 208 -14 213 -13 13 -13 153 0 161 13 8 13
82 0 87 -6 2 -10 243 -12 645 -3 564 -1 643 12 647 31 8 110 6 110 -4z m2980
-5 c7 -8 18 -15 25 -15 15 0 27 -61 14 -74 -10 -11 -12 -50 -3 -59 7 -7 10
-108 18 -657 3 -212 8 -515 11 -675 3 -159 1 -328 -3 -375 l-7 -85 -34 -3
c-58 -6 -101 6 -101 28 0 10 -4 22 -10 25 -6 4 -10 71 -10 170 0 104 -4 165
-10 167 -7 2 -11 157 -10 475 0 261 -4 473 -9 475 -5 2 -11 141 -13 311 l-4
307 67 0 c47 0 70 -4 79 -15z m-6013 -1 c31 -8 40 -56 16 -88 -10 -14 -24 -26
-30 -26 -7 0 -13 -4 -13 -10 0 -5 -7 -10 -15 -10 -8 0 -15 -4 -15 -10 0 -5 -4
-10 -9 -10 -9 0 -18 -8 -145 -127 -36 -35 -71 -63 -77 -63 -17 0 -82 -46 -131
-92 -10 -10 -22 -18 -27 -18 -5 0 -11 -7 -15 -15 -3 -8 -15 -15 -26 -15 -11 0
-20 -3 -20 -8 0 -4 -14 -13 -30 -21 -17 -7 -47 -28 -67 -47 -20 -19 -40 -34
-45 -34 -5 0 -11 -7 -14 -15 -3 -8 -29 -25 -57 -39 -29 -13 -69 -40 -90 -60
-21 -19 -47 -38 -58 -41 -10 -4 -19 -12 -19 -20 0 -14 -21 -25 -47 -25 -8 0
-28 -12 -43 -27 -44 -43 -97 -83 -109 -83 -6 0 -11 -7 -11 -15 0 -8 -11 -17
-25 -21 -14 -3 -25 -10 -25 -15 0 -5 -8 -9 -18 -9 -20 0 -45 -24 -55 -52 -4
-10 -13 -18 -20 -18 -8 0 -31 -13 -52 -30 -21 -16 -45 -30 -54 -30 -9 0 -21
-10 -26 -22 -6 -12 -22 -25 -36 -29 -14 -3 -37 -17 -50 -30 -78 -74 -107 -96
-131 -103 -16 -3 -28 -13 -28 -22 0 -8 -13 -20 -30 -25 -16 -6 -30 -15 -30
-19 0 -5 -18 -19 -40 -31 -22 -13 -40 -27 -40 -33 0 -6 -23 -21 -50 -34 -28
-12 -50 -29 -50 -37 0 -8 -6 -15 -14 -15 -8 0 -16 -7 -20 -15 -3 -8 -12 -15
-20 -15 -8 0 -31 -16 -52 -35 -20 -19 -41 -35 -46 -35 -5 0 -18 -9 -30 -20
-12 -11 -28 -20 -35 -20 -7 0 -13 -9 -13 -20 0 -12 -7 -20 -18 -20 -9 0 -40
-20 -67 -45 -28 -25 -56 -45 -62 -45 -7 0 -13 -9 -13 -19 0 -20 -18 -31 -52
-31 -11 0 -22 -8 -25 -19 -3 -11 -17 -24 -32 -29 -14 -5 -37 -19 -50 -31 -13
-11 -32 -21 -43 -21 -10 0 -18 -7 -18 -15 0 -8 -4 -15 -10 -15 -5 0 -10 -7
-10 -15 0 -8 -4 -15 -10 -15 -5 0 -10 -6 -10 -14 0 -19 -93 -31 -140 -19 -28
7 -36 15 -38 36 -2 15 1 27 7 27 6 0 11 7 11 15 0 8 6 15 13 15 7 0 20 11 30
24 10 13 36 31 57 41 22 10 40 22 40 27 0 4 7 8 15 8 9 0 31 14 50 32 81 73
99 88 107 88 4 0 8 7 8 15 0 9 9 15 21 15 22 0 79 51 79 70 0 5 7 10 15 10 9
0 21 5 28 10 46 39 61 50 69 50 4 0 8 6 8 14 0 8 21 21 50 31 35 12 50 22 50
35 0 11 10 20 25 24 14 4 25 11 25 17 0 5 16 17 35 25 19 8 35 20 35 28 0 7
14 16 30 20 17 3 30 11 30 18 0 12 60 60 105 84 11 6 19 16 17 22 -1 7 3 12 8
12 21 0 120 70 120 85 0 8 9 15 19 15 10 0 21 7 25 15 3 8 15 15 26 15 11 0
20 5 20 11 0 14 25 39 39 39 6 0 21 9 33 19 13 11 34 29 47 40 13 12 28 21 32
21 13 0 59 46 59 59 0 6 6 11 14 11 23 0 65 26 87 54 11 14 27 26 35 26 8 0
14 4 14 8 0 4 14 13 30 19 17 6 30 18 30 26 0 9 16 21 35 27 19 6 35 16 35 21
0 6 20 19 45 30 25 11 45 24 45 29 0 5 9 12 20 15 11 3 20 13 20 21 0 8 7 14
15 14 26 0 65 23 70 42 4 10 13 18 20 18 8 0 20 8 27 18 7 10 28 24 46 31 17
7 32 19 32 25 0 6 14 17 30 23 17 6 30 18 30 27 0 10 9 16 25 16 14 0 25 5 25
10 0 6 7 10 15 10 8 0 15 7 15 15 0 8 6 15 13 15 15 0 97 83 97 98 0 7 15 12
34 12 21 0 36 6 40 15 3 8 11 15 19 15 7 0 29 18 49 39 20 22 49 42 67 46 17
4 31 13 31 21 0 8 11 19 25 24 15 6 25 17 25 29 0 16 8 21 43 24 23 2 49 4 57
5 8 1 25 -1 37 -4z m-17402 -27 c4 -14 21 -29 46 -40 21 -9 39 -21 39 -27 0
-5 9 -10 20 -10 11 0 20 -6 20 -14 0 -16 42 -46 64 -46 9 0 20 -9 26 -20 6
-11 20 -20 30 -20 11 0 20 -4 20 -9 0 -18 69 -80 96 -87 15 -4 35 -14 44 -23
47 -43 74 -62 96 -67 13 -3 24 -12 24 -18 0 -7 12 -19 28 -27 15 -8 37 -24 50
-36 13 -13 32 -23 42 -23 11 0 20 -6 20 -13 0 -8 11 -19 25 -25 14 -6 25 -16
25 -22 0 -5 5 -10 11 -10 7 0 22 -11 35 -25 13 -14 27 -25 32 -25 6 0 32 -18
58 -40 27 -22 52 -40 57 -40 5 0 19 -13 33 -29 14 -17 35 -33 46 -37 12 -4 33
-17 47 -30 46 -43 89 -74 100 -74 6 0 11 -4 11 -10 0 -5 7 -10 15 -10 8 0 15
-4 15 -8 0 -5 16 -17 35 -28 19 -10 35 -24 35 -31 0 -7 11 -13 25 -13 16 0 25
-6 25 -16 0 -8 14 -20 30 -25 17 -6 30 -18 30 -26 0 -8 14 -20 30 -26 17 -6
30 -15 30 -19 0 -4 13 -14 30 -23 16 -8 44 -31 63 -50 19 -19 43 -35 55 -35
13 0 25 -11 34 -30 7 -16 20 -30 29 -30 18 0 52 -27 124 -97 24 -24 49 -43 55
-43 6 0 13 -7 16 -15 4 -8 15 -15 25 -15 10 0 19 -4 19 -10 0 -5 7 -10 15 -10
9 0 32 -16 52 -35 20 -19 41 -35 47 -35 13 0 46 -35 46 -49 0 -5 16 -16 35
-25 19 -9 35 -20 35 -24 0 -4 15 -13 33 -21 17 -8 43 -25 56 -38 13 -12 29
-23 35 -23 6 0 30 -18 54 -40 24 -22 48 -40 55 -40 7 0 19 -9 27 -20 8 -11 20
-20 26 -20 7 0 26 -13 44 -30 18 -16 34 -30 36 -30 1 0 15 -11 29 -24 22 -21
25 -29 19 -65 -6 -37 -9 -41 -35 -41 -41 0 -80 18 -86 38 -2 11 -22 23 -49 31
-25 7 -44 19 -44 27 0 8 -7 14 -15 14 -8 0 -24 9 -35 20 -11 11 -24 20 -29 20
-8 0 -45 30 -92 75 -9 8 -21 15 -27 15 -7 0 -12 3 -12 8 0 4 -14 13 -31 21
-17 7 -49 31 -71 52 -23 22 -44 39 -48 39 -3 0 -15 8 -26 19 -11 10 -36 26
-55 35 -19 9 -50 31 -71 48 -73 65 -88 78 -96 78 -4 0 -13 9 -20 20 -7 11 -19
20 -27 20 -8 0 -15 3 -15 8 0 4 -15 16 -33 25 -19 10 -56 39 -83 63 -27 25
-69 59 -94 76 -25 18 -49 38 -53 45 -4 7 -15 13 -22 13 -8 0 -15 5 -15 10 0 6
-6 10 -13 10 -8 0 -26 13 -40 30 -15 16 -38 32 -52 36 -14 3 -25 12 -25 20 0
8 -9 14 -21 14 -24 0 -49 22 -49 44 0 9 -8 16 -20 16 -11 0 -20 5 -20 10 0 6
-5 10 -11 10 -5 0 -24 14 -42 30 -18 17 -40 33 -49 36 -10 3 -18 11 -18 19 0
8 -9 16 -19 20 -11 3 -34 19 -53 35 -18 16 -36 30 -40 30 -5 0 -30 16 -57 35
-26 19 -56 35 -65 35 -9 0 -16 4 -16 9 0 5 -11 12 -25 15 -16 4 -25 13 -25 26
0 10 -9 22 -20 25 -11 3 -20 13 -20 21 0 8 -9 14 -20 14 -11 0 -25 9 -32 20
-7 11 -17 20 -21 20 -5 0 -34 22 -65 49 -31 26 -69 51 -84 55 -16 3 -28 11
-28 16 0 6 -5 10 -11 10 -6 0 -16 6 -23 13 -7 6 -25 21 -40 32 -15 11 -46 37
-69 57 -23 21 -48 38 -54 38 -7 0 -13 3 -13 8 0 4 -22 22 -50 40 -27 18 -50
37 -50 42 0 5 -9 12 -20 15 -11 3 -20 14 -20 23 0 12 -14 22 -45 31 -25 7 -45
19 -45 27 0 8 -8 14 -17 14 -31 1 -53 26 -53 58 0 34 8 42 54 53 58 13 75 10
81 -14z m14586 -7 c4 -14 7 -206 8 -427 1 -221 4 -404 9 -406 4 -3 7 -150 7
-326 0 -177 3 -321 7 -321 3 0 5 -109 2 -242 -3 -179 -7 -244 -16 -250 -23
-14 -78 -9 -78 7 0 11 -11 15 -40 15 l-40 0 -1 43 c-6 288 -10 372 -19 381
-13 13 -13 153 0 161 13 8 13 82 0 87 -6 2 -10 243 -12 646 l-3 642 30 5 c115
18 138 16 146 -15z m3053 -22 c3 -29 6 -80 6 -113 0 -35 5 -66 12 -73 9 -9 14
-86 19 -270 3 -142 9 -264 13 -270 4 -7 10 -276 13 -597 l5 -585 -24 -20 c-24
-20 -73 -27 -82 -11 -3 4 -24 11 -46 15 -26 4 -40 11 -40 21 0 8 5 15 10 15 6
0 10 37 10 90 0 50 -4 90 -9 90 -4 0 -9 73 -9 162 0 102 3 157 8 148 7 -11 10
-8 10 12 0 14 -4 28 -10 30 -8 2 -14 676 -11 1301 l1 107 59 0 58 0 7 -52z
m-17832 -265 c-2 -170 -8 -309 -13 -311 -5 -2 -9 -214 -9 -475 1 -318 -3 -473
-10 -475 -6 -2 -10 -63 -10 -167 0 -99 -4 -166 -10 -170 -5 -3 -10 -15 -10
-25 0 -22 -43 -34 -101 -28 l-34 3 -7 85 c-4 47 -6 216 -3 375 3 160 8 463 11
675 8 549 11 650 18 657 9 9 7 48 -3 59 -13 13 -1 74 14 74 7 0 18 7 25 15 9
11 32 15 79 15 l67 0 -4 -307z m2943 301 c20 -5 20 -12 17 -647 -2 -402 -6
-643 -12 -645 -13 -5 -13 -79 0 -87 13 -8 13 -148 0 -161 -5 -5 -12 -101 -14
-213 -3 -112 -7 -205 -8 -206 -2 -1 -36 -5 -75 -8 l-73 -6 -2 102 c-1 56 -1
111 0 122 1 11 3 97 5 190 1 94 6 176 11 184 11 17 13 142 3 158 -14 22 -6
877 9 1064 5 60 3 88 -5 93 -6 4 -11 16 -11 27 0 14 7 19 25 19 14 0 25 5 25
10 0 11 71 13 105 4z m15063 -24 c18 -16 34 -30 37 -30 3 0 14 -8 25 -17 11
-10 28 -25 38 -33 10 -9 35 -24 57 -34 21 -10 48 -27 59 -38 12 -11 33 -22 49
-25 15 -3 27 -12 27 -19 0 -8 12 -20 27 -27 15 -6 42 -27 60 -44 18 -18 35
-33 39 -33 3 0 23 -13 43 -29 21 -16 49 -33 64 -36 15 -4 27 -13 27 -21 0 -8
7 -14 15 -14 8 0 15 -7 15 -15 0 -8 6 -15 13 -15 8 0 22 -9 32 -20 10 -11 22
-20 26 -20 9 0 39 -23 68 -51 9 -9 26 -22 39 -28 12 -6 22 -18 22 -26 0 -8 7
-15 15 -15 8 0 15 -4 15 -10 0 -5 7 -10 15 -10 19 0 65 -40 65 -57 0 -7 10
-13 23 -13 13 0 39 -13 57 -30 18 -16 37 -30 42 -30 4 0 8 -7 8 -15 0 -8 7
-15 15 -15 26 0 65 -23 70 -42 4 -10 13 -18 21 -18 8 0 14 -7 14 -15 0 -8 4
-15 10 -15 5 0 22 -13 37 -29 16 -15 39 -32 53 -36 14 -4 34 -15 45 -25 11 -9
32 -20 48 -24 18 -4 27 -13 27 -26 0 -13 7 -20 20 -20 11 0 20 -7 20 -15 0 -8
5 -15 10 -15 19 0 115 -71 122 -91 4 -10 16 -19 27 -19 11 0 23 -5 27 -11 3
-6 20 -19 38 -30 28 -17 58 -42 148 -122 17 -15 42 -30 54 -33 13 -3 26 -15
29 -25 4 -10 15 -19 27 -19 11 0 22 -8 25 -20 3 -11 13 -20 23 -20 9 0 30 -12
47 -27 46 -44 86 -73 99 -73 6 0 20 -11 30 -25 10 -14 27 -25 36 -25 10 0 25
-11 34 -25 9 -14 23 -25 30 -25 8 0 14 -6 14 -14 0 -8 17 -22 38 -31 21 -10
42 -27 48 -39 5 -11 18 -22 28 -24 10 -2 28 -13 39 -23 12 -10 34 -19 50 -19
30 0 30 0 23 -46 -3 -26 -6 -56 -6 -66 0 -17 -5 -19 -32 -13 -18 4 -35 11 -36
16 -2 5 -22 12 -44 15 -22 4 -42 13 -45 20 -3 8 -10 14 -15 14 -13 0 -68 56
-68 69 0 6 -6 11 -13 11 -8 0 -22 9 -32 20 -10 11 -26 20 -37 20 -10 0 -18 6
-18 14 0 15 -42 46 -63 46 -8 0 -38 23 -67 50 -29 28 -61 50 -71 50 -11 0 -19
4 -19 10 0 17 -43 60 -61 60 -9 0 -19 7 -23 15 -3 8 -15 15 -26 15 -11 0 -20
5 -20 10 0 6 -5 10 -11 10 -14 0 -39 25 -39 39 0 6 -7 11 -15 11 -9 0 -18 6
-21 13 -3 8 -20 20 -39 27 -19 8 -35 17 -35 21 0 4 -11 10 -25 13 -14 4 -25
13 -25 21 0 9 -12 18 -28 21 -16 3 -37 17 -47 30 -10 13 -22 24 -27 24 -8 0
-20 8 -53 38 -7 6 -18 12 -24 12 -6 0 -11 5 -11 10 0 6 -7 10 -15 10 -8 0 -15
7 -15 15 0 8 -7 15 -16 15 -18 0 -44 23 -44 39 0 6 -9 11 -20 11 -11 0 -20 5
-20 10 0 6 -7 10 -15 10 -8 0 -15 4 -15 10 0 12 -68 80 -80 80 -6 0 -10 5 -10
10 0 6 -9 10 -20 10 -10 0 -24 8 -29 19 -6 10 -22 22 -35 25 -29 7 -76 48 -76
65 0 6 -6 11 -14 11 -7 0 -24 11 -37 24 -13 13 -34 26 -46 30 -13 4 -23 15
-23 25 0 10 -21 28 -57 46 -32 17 -65 37 -73 45 -8 9 -35 31 -60 50 -25 19
-52 42 -61 52 -9 10 -23 18 -31 18 -9 0 -21 7 -28 15 -7 8 -19 15 -26 15 -8 0
-14 5 -14 10 0 6 -5 10 -10 10 -6 0 -28 18 -49 40 -21 22 -43 40 -49 40 -7 0
-12 5 -12 10 0 6 -7 10 -15 10 -8 0 -15 5 -15 11 0 16 -31 38 -52 39 -10 0
-18 7 -18 15 0 8 -9 15 -20 15 -11 0 -20 5 -20 10 0 6 -5 10 -11 10 -6 0 -16
6 -23 13 -7 6 -27 23 -44 37 -18 14 -32 31 -32 38 0 6 -7 12 -15 12 -8 0 -15
5 -15 10 0 6 -11 10 -25 10 -14 0 -25 6 -25 13 0 15 -54 67 -69 67 -14 0 -22
48 -15 86 8 42 22 43 62 4z m-12025 10 c20 0 27 -5 27 -20 0 -13 10 -24 25
-30 14 -5 25 -16 25 -24 0 -8 14 -17 31 -21 18 -4 47 -24 67 -46 20 -21 42
-39 49 -39 8 0 16 -7 19 -15 4 -9 19 -15 40 -15 21 0 34 -5 34 -12 0 -16 83
-98 98 -98 7 0 12 -7 12 -15 0 -8 7 -15 15 -15 8 0 15 -4 15 -10 0 -5 11 -10
25 -10 16 0 25 -6 25 -16 0 -9 14 -21 30 -27 17 -6 30 -17 30 -23 0 -6 15 -18
33 -25 17 -7 38 -21 45 -31 7 -10 19 -18 27 -18 7 0 16 -8 20 -18 5 -19 44
-42 70 -42 8 0 15 -6 15 -14 0 -8 9 -18 20 -21 11 -3 20 -10 20 -15 0 -5 20
-18 45 -29 25 -11 45 -24 45 -30 0 -5 16 -15 35 -21 19 -6 35 -18 35 -27 0 -8
14 -20 30 -26 17 -6 30 -15 30 -19 0 -4 6 -8 14 -8 8 0 24 -12 35 -26 22 -28
64 -54 87 -54 8 0 14 -5 14 -11 0 -13 46 -59 59 -59 4 0 19 -9 32 -21 13 -11
34 -29 47 -40 12 -10 27 -19 33 -19 14 0 39 -25 39 -39 0 -6 9 -11 20 -11 11
0 23 -7 26 -15 4 -8 15 -15 25 -15 10 0 19 -7 19 -15 0 -15 99 -85 120 -85 5
0 9 -5 8 -12 -2 -6 6 -16 17 -22 45 -24 105 -72 105 -84 0 -7 14 -15 30 -18
17 -4 30 -13 30 -20 0 -8 16 -20 35 -28 19 -8 35 -20 35 -25 0 -6 11 -13 25
-17 15 -4 25 -13 25 -24 0 -13 15 -23 50 -35 29 -10 50 -23 50 -31 0 -8 4 -14
8 -14 8 0 23 -11 69 -50 7 -5 19 -10 28 -10 8 0 15 -5 15 -10 0 -19 57 -70 79
-70 12 0 21 -6 21 -15 0 -8 4 -15 8 -15 8 0 26 -15 107 -88 19 -18 41 -32 50
-32 8 0 15 -4 15 -8 0 -5 18 -17 40 -27 21 -10 47 -28 57 -41 10 -13 23 -24
30 -24 7 0 13 -7 13 -15 0 -8 5 -15 11 -15 6 0 9 -12 7 -27 -2 -21 -10 -29
-38 -36 -47 -12 -140 0 -140 19 0 8 -4 14 -10 14 -5 0 -10 7 -10 15 0 8 -4 15
-10 15 -5 0 -10 7 -10 15 0 8 -8 15 -18 15 -11 0 -30 10 -43 21 -13 12 -36 26
-50 31 -15 5 -29 18 -32 29 -3 11 -14 19 -25 19 -34 0 -52 11 -52 31 0 10 -6
19 -12 19 -7 0 -35 20 -63 45 -27 25 -58 45 -67 45 -11 0 -18 8 -18 20 0 11
-6 20 -13 20 -7 0 -23 9 -35 20 -12 11 -25 20 -30 20 -5 0 -26 16 -46 35 -21
19 -44 35 -52 35 -8 0 -17 7 -20 15 -4 8 -12 15 -20 15 -8 0 -14 7 -14 15 0 8
-22 25 -50 37 -27 13 -50 28 -50 34 0 6 -18 20 -40 33 -22 12 -40 26 -40 31 0
4 -13 13 -30 19 -16 5 -30 17 -30 25 0 9 -12 19 -27 22 -25 7 -54 29 -132 103
-13 13 -36 27 -50 30 -14 4 -30 17 -36 29 -5 12 -17 22 -26 22 -9 0 -33 14
-54 30 -21 17 -44 30 -52 30 -7 0 -16 8 -20 18 -10 28 -35 52 -55 52 -10 0
-18 4 -18 9 0 5 -11 12 -25 15 -14 4 -25 13 -25 21 0 8 -5 15 -11 15 -12 0
-65 40 -109 83 -15 15 -35 27 -43 27 -26 0 -47 11 -47 25 0 8 -9 16 -19 20
-11 3 -37 22 -58 41 -21 20 -62 47 -90 60 -29 14 -53 30 -53 35 0 5 -7 12 -15
15 -8 3 -30 21 -49 39 -20 18 -49 39 -66 46 -16 8 -30 17 -30 21 0 5 -9 8 -20
8 -11 0 -23 7 -26 15 -4 8 -10 15 -15 15 -5 0 -17 8 -27 18 -49 46 -114 92
-131 92 -6 0 -41 28 -77 63 -127 119 -136 127 -145 127 -5 0 -9 5 -9 10 0 6
-7 10 -15 10 -8 0 -15 5 -15 10 0 6 -6 10 -12 10 -24 1 -50 49 -43 80 7 33 24
40 75 34 19 -2 47 -4 63 -4z m5714 4 c31 -8 40 -56 16 -88 -10 -14 -24 -26
-30 -26 -7 0 -13 -4 -13 -10 0 -5 -7 -10 -15 -10 -8 0 -15 -4 -15 -10 0 -5 -4
-10 -9 -10 -9 0 -18 -8 -145 -127 -36 -35 -71 -63 -77 -63 -17 0 -82 -46 -131
-92 -10 -10 -22 -18 -27 -18 -5 0 -11 -7 -15 -15 -3 -8 -15 -15 -26 -15 -11 0
-20 -3 -20 -8 0 -4 -14 -13 -30 -21 -17 -7 -47 -28 -67 -47 -20 -19 -40 -34
-45 -34 -5 0 -11 -7 -14 -15 -3 -8 -29 -25 -57 -39 -29 -13 -69 -40 -90 -60
-21 -19 -47 -38 -58 -41 -10 -4 -19 -12 -19 -20 0 -14 -21 -25 -47 -25 -8 0
-28 -12 -43 -27 -44 -43 -97 -83 -109 -83 -6 0 -11 -7 -11 -15 0 -8 -11 -17
-25 -21 -14 -3 -25 -10 -25 -15 0 -5 -8 -9 -18 -9 -20 0 -45 -24 -55 -52 -4
-10 -13 -18 -20 -18 -8 0 -31 -13 -52 -30 -21 -16 -45 -30 -54 -30 -9 0 -21
-10 -26 -22 -6 -12 -22 -25 -36 -29 -14 -3 -37 -17 -50 -30 -78 -74 -107 -96
-131 -103 -16 -3 -28 -13 -28 -22 0 -8 -13 -20 -30 -25 -16 -6 -30 -15 -30
-19 0 -5 -18 -19 -40 -31 -22 -13 -40 -27 -40 -33 0 -6 -23 -21 -50 -34 -28
-12 -50 -29 -50 -37 0 -8 -6 -15 -14 -15 -8 0 -16 -7 -20 -15 -3 -8 -12 -15
-20 -15 -8 0 -31 -16 -52 -35 -20 -19 -41 -35 -46 -35 -5 0 -18 -9 -30 -20
-12 -11 -28 -20 -35 -20 -7 0 -13 -9 -13 -20 0 -12 -7 -20 -18 -20 -9 0 -40
-20 -67 -45 -28 -25 -56 -45 -62 -45 -7 0 -13 -9 -13 -19 0 -20 -18 -31 -52
-31 -11 0 -22 -8 -25 -19 -3 -11 -17 -24 -32 -29 -14 -5 -37 -19 -50 -31 -13
-11 -32 -21 -43 -21 -10 0 -18 -7 -18 -15 0 -8 -4 -15 -10 -15 -5 0 -10 -7
-10 -15 0 -8 -4 -15 -10 -15 -5 0 -10 -6 -10 -14 0 -19 -93 -31 -140 -19 -28
7 -36 15 -38 36 -2 15 1 27 7 27 6 0 11 7 11 15 0 8 6 15 13 15 7 0 20 11 30
24 10 13 36 31 57 41 22 10 40 22 40 27 0 4 7 8 15 8 9 0 31 14 50 32 81 73
99 88 107 88 4 0 8 7 8 15 0 9 9 15 21 15 22 0 79 51 79 70 0 5 7 10 15 10 9
0 21 5 28 10 46 39 61 50 69 50 4 0 8 6 8 14 0 8 21 21 50 31 35 12 50 22 50
35 0 11 10 20 25 24 14 4 25 11 25 17 0 5 16 17 35 25 19 8 35 20 35 28 0 7
14 16 30 20 17 3 30 11 30 18 0 12 60 60 105 84 11 6 19 16 17 22 -1 7 3 12 8
12 21 0 120 70 120 85 0 8 9 15 19 15 10 0 21 7 25 15 3 8 15 15 26 15 11 0
20 5 20 11 0 14 25 39 39 39 6 0 21 9 33 19 13 11 34 29 47 40 13 12 28 21 32
21 13 0 59 46 59 59 0 6 6 11 14 11 23 0 65 26 87 54 11 14 27 26 35 26 8 0
14 4 14 8 0 4 14 13 30 19 17 6 30 18 30 26 0 9 16 21 35 27 19 6 35 16 35 21
0 6 20 19 45 30 25 11 45 24 45 29 0 5 9 12 20 15 11 3 20 13 20 21 0 8 7 14
15 14 26 0 65 23 70 42 4 10 13 18 20 18 8 0 20 8 27 18 7 10 28 24 46 31 17
7 32 19 32 25 0 6 14 17 30 23 17 6 30 18 30 27 0 10 9 16 25 16 14 0 25 5 25
10 0 6 7 10 15 10 8 0 15 7 15 15 0 8 6 15 13 15 15 0 97 83 97 98 0 7 15 12
34 12 21 0 36 6 40 15 3 8 11 15 19 15 7 0 29 18 49 39 20 22 49 42 67 46 17
4 31 13 31 21 0 8 11 19 25 24 15 6 25 17 25 29 0 16 8 21 43 24 23 2 49 4 57
5 8 1 25 -1 37 -4z m14081 -15 c40 -5 78 -9 83 -9 13 0 11 -30 -5 -86 -8 -27
-20 -77 -27 -112 -6 -34 -16 -65 -20 -68 -5 -3 -9 -16 -9 -30 0 -14 -6 -24
-14 -24 -8 0 -16 -5 -18 -10 -2 -6 -38 -14 -80 -19 -103 -12 -137 -36 -137
-102 -1 -26 5 -51 12 -57 7 -6 41 -15 75 -21 68 -11 130 -51 131 -83 1 -10 7
-18 14 -18 36 0 58 -162 54 -393 -1 -90 2 -140 9 -145 6 -4 16 -45 22 -92 7
-47 16 -99 21 -115 5 -17 14 -46 20 -66 16 -51 14 -89 -4 -89 -8 0 -15 5 -15
10 0 6 -9 10 -20 10 -12 0 -31 11 -44 25 -13 14 -28 25 -33 25 -5 0 -20 10
-32 22 -13 11 -37 24 -55 27 -19 4 -32 14 -35 26 -5 28 -26 45 -55 45 -14 0
-26 5 -26 10 0 6 -9 10 -19 10 -14 0 -22 12 -32 45 -7 25 -19 45 -25 45 -13 0
-54 77 -54 102 0 8 -9 25 -20 38 -11 13 -20 29 -20 37 0 7 -4 13 -8 13 -5 0
-19 20 -32 45 -21 41 -22 48 -9 72 12 22 16 103 10 199 -1 6 -13 24 -27 39
-22 24 -37 30 -83 33 -54 4 -58 2 -98 -34 -33 -31 -46 -52 -59 -101 -16 -58
-19 -63 -46 -63 -15 0 -28 5 -28 10 0 6 -7 10 -15 10 -8 0 -15 7 -15 15 0 8
-8 15 -19 15 -10 0 -24 7 -31 15 -7 8 -18 15 -25 15 -14 0 -25 22 -25 50 0 10
34 52 75 94 l75 76 0 69 c0 88 -9 96 -92 87 -35 -4 -88 -8 -118 -10 -30 -2
-74 -7 -97 -11 -23 -4 -50 -4 -60 0 -10 5 -40 9 -68 11 -63 3 -91 14 -133 53
-18 17 -40 31 -48 31 -8 0 -14 5 -14 10 0 6 -18 18 -40 27 -22 10 -40 23 -40
30 0 7 -7 13 -16 13 -18 0 -44 24 -44 41 0 7 -18 28 -39 48 -60 54 -69 61 -83
62 -7 0 -35 13 -63 28 -34 18 -51 34 -53 49 -3 22 -1 23 35 16 21 -4 49 -11
63 -16 38 -14 361 -28 422 -18 29 4 74 14 100 20 31 8 94 11 175 8 125 -5 129
-5 180 -39 29 -19 53 -39 53 -45 0 -7 7 -14 15 -18 8 -3 15 -15 15 -26 0 -36
47 -70 96 -70 33 0 44 4 44 15 0 9 7 18 15 21 8 4 22 30 30 58 14 49 28 69 71
105 32 27 236 32 412 10z m-20017 -96 c3 -625 -3 -1299 -11 -1301 -6 -2 -10
-16 -10 -30 0 -20 3 -23 10 -12 5 9 8 -46 8 -148 0 -89 -5 -162 -9 -162 -5 0
-9 -40 -9 -90 0 -53 4 -90 10 -90 6 0 10 -7 10 -15 0 -10 -14 -17 -40 -21 -22
-4 -43 -11 -46 -15 -9 -16 -58 -9 -82 11 l-24 20 5 585 c3 321 9 590 13 597 4
6 10 128 13 270 5 184 10 261 19 270 7 7 12 38 12 73 0 33 3 84 6 113 l7 52
58 0 59 0 1 -107z m3120 77 c4 -14 7 -206 8 -427 1 -221 4 -404 9 -406 4 -3 7
-150 7 -326 0 -177 3 -321 7 -321 3 0 5 -109 2 -242 -3 -179 -7 -244 -16 -250
-7 -4 -58 -8 -113 -8 -55 0 -106 4 -113 8 -9 6 -13 71 -16 250 -3 133 -1 242
2 242 4 0 7 143 7 318 0 174 3 322 7 328 4 5 8 197 10 425 2 227 7 420 11 427
6 9 33 12 95 10 82 -3 86 -4 93 -28z m3053 -22 c3 -29 6 -80 6 -113 0 -35 5
-66 12 -73 9 -9 14 -86 19 -270 3 -142 9 -264 13 -270 4 -7 10 -276 13 -597
l5 -585 -24 -20 c-24 -20 -73 -27 -82 -11 -3 4 -24 11 -46 15 -26 4 -40 11
-40 21 0 8 5 15 10 15 6 0 10 37 10 90 0 50 -4 90 -9 90 -4 0 -9 73 -9 162 0
102 3 157 8 148 7 -11 10 -8 10 12 0 14 -4 28 -10 30 -8 2 -14 676 -11 1301
l1 107 59 0 58 0 7 -52z m10096 36 c36 -4 70 -10 76 -16 7 -5 119 -11 250 -14
334 -7 384 -11 384 -34 0 -11 -10 -20 -25 -24 -14 -4 -25 -13 -25 -21 0 -10
-10 -15 -29 -15 -15 0 -40 -9 -54 -20 -14 -11 -30 -20 -36 -20 -6 0 -11 -4
-11 -10 0 -5 -5 -10 -11 -10 -12 0 -79 -69 -79 -81 0 -5 -8 -9 -17 -9 -18 -1
-63 -33 -63 -45 0 -3 -10 -16 -22 -29 -13 -13 -35 -39 -49 -58 -50 -64 -265
-110 -315 -67 -11 8 -38 21 -61 28 -24 6 -43 16 -43 21 0 6 -11 10 -24 10 -13
0 -26 5 -28 11 -2 7 -17 8 -43 3 -28 -5 -52 -20 -87 -56 -47 -48 -48 -51 -48
-110 0 -65 33 -192 55 -215 8 -7 27 -16 44 -19 16 -4 32 -12 35 -20 3 -8 12
-14 21 -14 8 0 15 -5 15 -11 0 -15 -26 -39 -42 -39 -15 0 -78 -51 -78 -64 0
-14 -28 -36 -48 -36 -13 0 -25 16 -42 55 -13 30 -27 55 -32 55 -4 0 -8 7 -8
15 0 8 -4 15 -10 15 -5 0 -10 6 -10 14 0 8 -7 16 -15 20 -8 3 -15 13 -15 22 0
17 -40 59 -84 87 -15 10 -46 17 -75 17 -42 0 -51 -3 -57 -22 -3 -12 -15 -31
-25 -42 -15 -15 -19 -35 -19 -86 0 -38 5 -71 12 -78 19 -19 16 -174 -5 -205
-9 -15 -17 -32 -17 -38 0 -17 -90 -112 -115 -122 -11 -4 -36 -29 -55 -57 -19
-27 -41 -49 -48 -50 -7 0 -15 -8 -18 -17 -17 -49 -30 -73 -40 -73 -7 0 -19
-11 -28 -25 -13 -19 -25 -25 -54 -25 l-38 0 4 148 c2 81 7 150 11 154 3 4 3
63 -2 130 -8 126 -3 198 13 208 5 3 13 39 16 79 6 62 10 74 30 83 14 7 25 23
29 44 3 20 12 34 20 34 8 0 15 4 15 9 0 5 21 11 48 13 69 7 122 35 122 64 0
13 -9 29 -20 36 -14 9 -20 24 -20 50 0 20 -4 39 -9 42 -4 3 -48 6 -97 7 -49 1
-94 6 -100 11 -8 5 -11 52 -9 139 1 71 -2 132 -7 135 -4 3 -8 26 -8 51 l0 45
185 -4 c130 -2 188 -7 197 -15 6 -7 24 -13 39 -13 16 0 29 -7 33 -17 7 -22 28
-56 40 -64 5 -4 7 -34 4 -68 -2 -33 -1 -61 3 -61 4 0 10 -12 14 -27 11 -44 54
-64 100 -47 29 11 55 79 55 143 0 33 -4 63 -10 66 -18 11 -11 34 13 40 12 3
28 19 36 35 20 46 87 71 189 71 50 0 82 4 82 11 0 6 14 8 38 4 20 -4 66 -9
102 -12z m-16506 -28 c7 -38 -1 -86 -15 -86 -15 0 -69 -52 -69 -67 0 -7 -11
-13 -25 -13 -14 0 -25 -4 -25 -10 0 -5 -7 -10 -15 -10 -8 0 -15 -6 -15 -12 0
-7 -14 -24 -32 -38 -17 -14 -37 -31 -44 -37 -7 -7 -17 -13 -23 -13 -6 0 -11
-4 -11 -10 0 -5 -9 -10 -20 -10 -11 0 -20 -7 -20 -15 0 -8 -8 -15 -17 -15 -22
-1 -53 -23 -53 -39 0 -6 -7 -11 -15 -11 -8 0 -15 -4 -15 -10 0 -5 -5 -10 -12
-10 -6 0 -28 -18 -49 -40 -21 -22 -43 -40 -49 -40 -5 0 -10 -4 -10 -10 0 -5
-6 -10 -14 -10 -7 0 -19 -7 -26 -15 -7 -8 -19 -15 -28 -15 -8 0 -22 -8 -31
-18 -9 -10 -36 -33 -61 -52 -25 -19 -52 -41 -60 -50 -8 -8 -41 -28 -72 -45
-37 -18 -58 -36 -58 -46 0 -10 -10 -21 -22 -25 -13 -4 -34 -17 -47 -30 -13
-13 -30 -24 -37 -24 -8 0 -14 -5 -14 -11 0 -17 -47 -58 -76 -65 -13 -3 -29
-15 -35 -25 -5 -11 -19 -19 -29 -19 -11 0 -20 -4 -20 -10 0 -5 -4 -10 -10 -10
-12 0 -80 -68 -80 -80 0 -6 -7 -10 -15 -10 -8 0 -15 -4 -15 -10 0 -5 -9 -10
-20 -10 -11 0 -20 -5 -20 -11 0 -16 -26 -39 -44 -39 -9 0 -16 -7 -16 -15 0 -8
-7 -15 -15 -15 -8 0 -15 -4 -15 -10 0 -5 -5 -10 -10 -10 -10 0 -22 -8 -55 -37
-7 -7 -18 -13 -23 -13 -5 0 -17 -11 -27 -24 -10 -13 -31 -27 -47 -30 -16 -3
-28 -12 -28 -21 0 -8 -11 -17 -25 -21 -14 -3 -25 -9 -25 -13 0 -4 -16 -13 -35
-21 -19 -7 -36 -19 -39 -27 -3 -7 -12 -13 -21 -13 -8 0 -15 -5 -15 -11 0 -14
-25 -39 -39 -39 -6 0 -11 -4 -11 -10 0 -5 -9 -10 -20 -10 -11 0 -23 -7 -26
-15 -4 -8 -14 -15 -23 -15 -18 0 -61 -43 -61 -60 0 -6 -8 -10 -19 -10 -10 0
-42 -22 -71 -50 -29 -27 -59 -50 -67 -50 -21 0 -63 -31 -63 -46 0 -8 -8 -14
-18 -14 -11 0 -27 -9 -37 -20 -10 -11 -24 -20 -32 -20 -7 0 -13 -5 -13 -11 0
-13 -55 -69 -68 -69 -5 0 -12 -6 -15 -14 -3 -7 -23 -16 -45 -20 -22 -3 -42
-10 -44 -15 -1 -5 -18 -12 -35 -16 -28 -6 -33 -4 -33 13 0 10 -3 40 -6 66 -7
46 -7 46 23 46 16 0 38 9 50 19 11 10 29 21 39 23 10 2 23 13 28 24 6 12 27
29 48 39 21 9 38 23 38 31 0 8 6 14 14 14 7 0 21 11 30 25 9 14 24 25 34 25 9
0 26 11 36 25 10 14 24 25 30 25 13 0 53 29 99 73 17 15 38 27 47 27 10 0 20
9 23 20 3 12 14 20 25 20 12 0 23 9 27 19 3 10 16 22 29 25 12 3 37 18 54 33
90 80 120 105 148 122 18 11 35 24 38 30 4 6 16 11 27 11 11 0 23 9 27 19 7
20 103 91 122 91 5 0 10 7 10 15 0 8 9 15 20 15 13 0 20 7 20 20 0 13 9 22 28
26 15 4 36 15 47 24 11 10 31 21 45 25 14 4 37 21 53 36 15 16 32 29 37 29 6
0 10 7 10 15 0 8 6 15 14 15 8 0 17 8 21 18 5 19 44 42 70 42 8 0 15 7 15 15
0 8 4 15 8 15 5 0 24 14 42 30 18 17 44 30 57 30 13 0 23 6 23 13 0 17 46 57
65 57 8 0 15 5 15 10 0 6 7 10 15 10 8 0 15 7 15 15 0 8 10 20 23 26 12 6 29
19 38 28 29 28 59 51 68 51 4 0 16 9 26 20 10 11 24 20 32 20 7 0 13 7 13 15
0 8 7 15 15 15 8 0 15 6 15 14 0 8 12 17 27 21 15 3 43 20 64 36 20 16 40 29
43 29 4 0 21 15 39 33 18 17 45 38 60 44 15 7 27 19 27 27 0 7 12 16 28 19 15
3 36 14 48 25 11 11 38 28 59 38 39 18 48 25 93 64 12 11 24 20 27 20 3 0 19
14 37 30 40 39 54 38 62 -4z m6584 4 c18 -16 34 -30 37 -30 3 0 14 -8 25 -17
11 -10 28 -25 38 -33 10 -9 35 -24 57 -34 21 -10 48 -27 59 -38 12 -11 33 -22
49 -25 15 -3 27 -12 27 -19 0 -8 12 -20 27 -27 15 -6 42 -27 60 -44 18 -18 35
-33 39 -33 3 0 23 -13 43 -29 21 -16 49 -33 64 -36 15 -4 27 -13 27 -21 0 -8
7 -14 15 -14 8 0 15 -7 15 -15 0 -8 6 -15 13 -15 8 0 22 -9 32 -20 10 -11 22
-20 26 -20 9 0 39 -23 68 -51 9 -9 26 -22 39 -28 12 -6 22 -18 22 -26 0 -8 7
-15 15 -15 8 0 15 -4 15 -10 0 -5 7 -10 15 -10 19 0 65 -40 65 -57 0 -7 10
-13 23 -13 13 0 39 -13 57 -30 18 -16 37 -30 42 -30 4 0 8 -7 8 -15 0 -8 7
-15 15 -15 26 0 65 -23 70 -42 4 -10 13 -18 21 -18 8 0 14 -7 14 -15 0 -8 4
-15 10 -15 5 0 22 -13 37 -29 16 -15 39 -32 53 -36 14 -4 34 -15 45 -25 11 -9
32 -20 48 -24 18 -4 27 -13 27 -26 0 -13 7 -20 20 -20 11 0 20 -7 20 -15 0 -8
5 -15 10 -15 19 0 115 -71 122 -91 4 -10 16 -19 27 -19 11 0 23 -5 27 -11 3
-6 20 -19 38 -30 28 -17 58 -42 148 -122 17 -15 42 -30 54 -33 13 -3 26 -15
29 -25 4 -10 15 -19 27 -19 11 0 22 -8 25 -20 3 -11 13 -20 23 -20 9 0 30 -12
47 -27 46 -44 86 -73 99 -73 6 0 20 -11 30 -25 10 -14 27 -25 36 -25 10 0 25
-11 34 -25 9 -14 23 -25 30 -25 8 0 14 -6 14 -14 0 -8 17 -22 38 -31 21 -10
42 -27 48 -39 5 -11 18 -22 28 -24 10 -2 28 -13 39 -23 12 -10 34 -19 50 -19
30 0 30 0 23 -46 -3 -26 -6 -56 -6 -66 0 -17 -5 -19 -32 -13 -18 4 -35 11 -36
16 -2 5 -22 12 -44 15 -22 4 -42 13 -45 20 -3 8 -10 14 -15 14 -13 0 -68 56
-68 69 0 6 -6 11 -13 11 -8 0 -22 9 -32 20 -10 11 -26 20 -37 20 -10 0 -18 6
-18 14 0 15 -42 46 -63 46 -8 0 -38 23 -67 50 -29 28 -61 50 -71 50 -11 0 -19
4 -19 10 0 17 -43 60 -61 60 -9 0 -19 7 -23 15 -3 8 -15 15 -26 15 -11 0 -20
5 -20 10 0 6 -5 10 -11 10 -14 0 -39 25 -39 39 0 6 -7 11 -15 11 -9 0 -18 6
-21 13 -3 8 -20 20 -39 27 -19 8 -35 17 -35 21 0 4 -11 10 -25 13 -14 4 -25
13 -25 21 0 9 -12 18 -28 21 -16 3 -37 17 -47 30 -10 13 -22 24 -27 24 -8 0
-20 8 -53 38 -7 6 -18 12 -24 12 -6 0 -11 5 -11 10 0 6 -7 10 -15 10 -8 0 -15
7 -15 15 0 8 -7 15 -16 15 -18 0 -44 23 -44 39 0 6 -9 11 -20 11 -11 0 -20 5
-20 10 0 6 -7 10 -15 10 -8 0 -15 4 -15 10 0 12 -68 80 -80 80 -6 0 -10 5 -10
10 0 6 -9 10 -20 10 -10 0 -24 8 -29 19 -6 10 -22 22 -35 25 -29 7 -76 48 -76
65 0 6 -6 11 -14 11 -7 0 -24 11 -37 24 -13 13 -34 26 -46 30 -13 4 -23 15
-23 25 0 10 -21 28 -57 46 -32 17 -65 37 -73 45 -8 9 -35 31 -60 50 -25 19
-52 42 -61 52 -9 10 -23 18 -31 18 -9 0 -21 7 -28 15 -7 8 -19 15 -26 15 -8 0
-14 5 -14 10 0 6 -5 10 -10 10 -6 0 -28 18 -49 40 -21 22 -43 40 -49 40 -7 0
-12 5 -12 10 0 6 -7 10 -15 10 -8 0 -15 5 -15 11 0 16 -31 38 -52 39 -10 0
-18 7 -18 15 0 8 -9 15 -20 15 -11 0 -20 5 -20 10 0 6 -5 10 -11 10 -6 0 -16
6 -23 13 -7 6 -27 23 -44 37 -18 14 -32 31 -32 38 0 6 -7 12 -15 12 -8 0 -15
5 -15 10 0 6 -11 10 -25 10 -14 0 -25 6 -25 13 0 15 -54 67 -69 67 -14 0 -22
48 -15 86 8 42 22 43 62 4z m-14055 4 c60 -7 101 -47 122 -120 8 -28 22 -54
30 -58 8 -3 15 -12 15 -21 0 -11 11 -15 44 -15 49 0 96 34 96 70 0 11 7 23 15
26 8 4 15 11 15 18 0 6 24 26 53 45 51 34 55 34 180 39 81 3 144 0 175 -8 26
-6 71 -16 100 -20 61 -10 384 4 422 18 14 5 42 12 63 16 36 7 38 6 35 -16 -2
-15 -19 -31 -53 -49 -27 -15 -56 -28 -63 -28 -14 -1 -23 -8 -83 -62 -21 -20
-39 -41 -39 -48 0 -17 -26 -41 -44 -41 -9 0 -16 -6 -16 -13 0 -7 -18 -20 -40
-30 -22 -9 -40 -21 -40 -27 0 -5 -6 -10 -14 -10 -8 0 -30 -14 -48 -31 -42 -39
-70 -50 -133 -53 -27 -2 -58 -6 -68 -11 -10 -4 -37 -4 -60 0 -23 4 -67 9 -97
11 -30 2 -83 6 -118 10 -83 9 -92 1 -92 -87 l0 -69 75 -76 c41 -42 75 -84 75
-94 0 -28 -11 -50 -25 -50 -7 0 -18 -7 -25 -15 -7 -8 -21 -15 -31 -15 -11 0
-19 -7 -19 -15 0 -8 -7 -15 -15 -15 -8 0 -15 -4 -15 -10 0 -5 -13 -10 -28 -10
-27 0 -30 5 -46 63 -13 49 -26 70 -59 101 -40 36 -44 38 -98 34 -46 -3 -61 -9
-83 -33 -14 -15 -26 -33 -27 -39 -6 -96 -2 -177 10 -199 13 -24 12 -31 -9 -72
-13 -25 -27 -45 -32 -45 -4 0 -8 -6 -8 -13 0 -8 -9 -24 -20 -37 -11 -13 -20
-30 -20 -38 0 -25 -41 -102 -54 -102 -6 0 -18 -20 -25 -45 -10 -33 -18 -45
-32 -45 -10 0 -19 -4 -19 -10 0 -5 -12 -10 -26 -10 -29 0 -50 -17 -55 -45 -3
-12 -16 -22 -35 -26 -18 -3 -42 -16 -55 -27 -12 -12 -27 -22 -32 -22 -5 0 -20
-11 -33 -25 -13 -14 -32 -25 -44 -25 -11 0 -20 -4 -20 -10 0 -5 -7 -10 -15
-10 -18 0 -20 38 -4 89 6 20 15 49 20 66 5 16 14 68 21 115 6 47 16 88 22 92
7 5 10 55 9 145 -4 231 18 393 55 393 6 0 12 8 13 18 1 32 63 72 131 83 34 6
68 15 75 21 7 6 13 31 12 57 0 66 -34 90 -137 102 -42 5 -78 13 -80 19 -2 5
-10 10 -18 10 -8 0 -14 10 -14 24 0 14 -4 27 -9 30 -4 3 -14 34 -20 68 -7 35
-19 85 -27 112 -23 79 -21 83 39 92 144 20 284 23 400 8z m20411 6 c14 -5 81
-12 148 -16 68 -4 125 -11 128 -15 5 -7 377 24 429 36 44 11 254 -17 283 -37
14 -10 31 -18 37 -18 6 0 16 -9 23 -20 7 -11 18 -20 25 -20 7 0 13 -9 13 -20
0 -11 4 -20 9 -20 5 0 12 -34 16 -76 6 -63 12 -81 32 -102 20 -20 31 -23 61
-19 20 4 46 18 60 33 20 21 23 32 17 62 -15 79 -22 147 -13 150 4 2 8 10 8 18
0 8 7 14 15 14 8 0 15 5 15 10 0 6 13 10 30 10 30 0 80 18 91 33 3 4 66 3 140
-4 74 -7 160 -12 193 -12 l58 1 -6 -42 c-4 -22 -11 -88 -16 -145 -10 -96 -30
-161 -52 -161 -4 0 -8 -6 -8 -14 0 -20 -52 -29 -116 -21 -67 8 -162 -12 -186
-38 -29 -32 -21 -87 12 -87 13 0 20 -9 22 -27 4 -34 25 -41 138 -42 102 -1
117 -8 205 -88 36 -33 45 -61 56 -184 9 -93 9 -123 0 -128 -9 -6 -9 -41 3
-153 8 -80 18 -154 24 -164 5 -11 13 -48 16 -84 4 -36 12 -70 17 -76 6 -7 7
-24 3 -38 -9 -35 -46 -34 -81 2 -16 16 -44 39 -63 52 -19 13 -46 37 -59 52
-13 15 -28 28 -32 28 -4 0 -20 11 -35 25 -16 14 -43 33 -61 42 -18 8 -33 19
-33 24 0 5 -7 9 -15 9 -8 0 -15 7 -15 15 0 8 -7 15 -16 15 -9 0 -30 15 -48 33
-17 17 -40 37 -50 43 -43 23 -74 211 -45 266 8 14 8 23 0 31 -6 6 -11 25 -11
42 0 19 -7 36 -20 45 -11 8 -20 20 -20 27 0 7 -9 13 -20 13 -11 0 -20 5 -20
10 0 6 -35 10 -85 10 -70 0 -85 -3 -85 -15 0 -9 -8 -18 -17 -22 -19 -7 -53
-38 -53 -49 0 -3 -9 -19 -21 -35 -18 -26 -26 -29 -72 -29 -49 0 -53 2 -64 30
-6 17 -18 30 -27 30 -9 0 -16 5 -16 10 0 6 -7 10 -16 10 -40 0 -61 63 -24 75
11 3 30 21 42 38 19 27 22 43 20 100 -2 53 1 69 13 73 20 8 20 54 0 54 -8 0
-15 5 -15 10 0 6 -11 10 -24 10 -14 0 -28 5 -31 10 -4 6 -93 10 -235 10 -228
0 -229 0 -247 24 -10 13 -36 29 -58 37 -22 8 -47 22 -56 31 -9 10 -28 18 -42
18 -20 0 -28 6 -33 25 -3 14 -12 25 -19 25 -37 0 -115 68 -115 100 0 21 -28
60 -43 60 -11 0 -37 26 -37 38 0 5 -9 12 -20 15 -12 3 -20 14 -20 26 0 18 6
21 44 21 25 0 56 -4 70 -10z m-16884 -9 c0 -6 37 -10 83 -10 101 0 168 -25
188 -71 8 -16 24 -32 36 -35 24 -6 31 -29 13 -40 -5 -3 -10 -33 -10 -66 0 -64
26 -132 55 -143 46 -17 89 3 100 47 4 15 10 27 14 27 4 0 5 28 3 61 -3 34 -1
64 4 68 12 8 33 42 40 64 4 10 17 17 33 17 15 0 33 6 39 13 9 8 67 13 197 15
l185 4 0 -45 c0 -25 -4 -48 -8 -51 -5 -3 -8 -64 -7 -135 2 -87 -1 -134 -9
-139 -6 -5 -51 -10 -100 -11 -49 -1 -93 -4 -97 -7 -5 -3 -9 -22 -9 -42 0 -26
-6 -41 -20 -50 -11 -7 -20 -23 -20 -36 0 -29 53 -57 123 -64 26 -2 47 -8 47
-13 0 -5 7 -9 15 -9 8 0 17 -14 20 -34 4 -21 15 -37 29 -44 20 -9 24 -21 30
-83 3 -40 11 -76 16 -79 16 -10 21 -82 13 -208 -5 -67 -5 -126 -2 -130 4 -4 9
-73 11 -154 l4 -148 -38 0 c-29 0 -41 6 -54 25 -9 14 -21 25 -28 25 -10 0 -23
24 -40 73 -3 9 -11 17 -18 17 -7 1 -29 23 -48 50 -19 28 -44 53 -55 57 -25 10
-115 105 -115 122 0 6 -8 23 -17 38 -21 31 -24 186 -5 205 7 7 12 40 12 78 0
51 -4 71 -19 86 -10 11 -22 30 -25 42 -6 19 -15 22 -57 22 -29 0 -60 -7 -75
-17 -44 -28 -84 -70 -84 -87 0 -9 -7 -19 -15 -22 -8 -4 -15 -12 -15 -20 0 -8
-4 -14 -10 -14 -5 0 -10 -7 -10 -15 0 -8 -4 -15 -8 -15 -5 0 -19 -25 -32 -55
-17 -39 -29 -55 -42 -55 -20 0 -48 22 -48 36 0 13 -63 64 -78 64 -16 0 -42 24
-42 39 0 6 7 11 15 11 9 0 18 6 21 14 3 8 19 16 35 20 17 3 36 12 44 19 22 23
55 150 55 215 0 59 -1 62 -48 110 -35 36 -59 51 -87 56 -26 5 -41 4 -43 -3 -2
-6 -15 -11 -28 -11 -13 0 -24 -4 -24 -10 0 -5 -19 -15 -42 -21 -24 -7 -51 -20
-62 -28 -50 -43 -265 3 -315 67 -14 19 -36 45 -48 58 -13 13 -23 26 -23 29 0
12 -45 44 -62 45 -10 0 -18 4 -18 9 0 12 -67 81 -79 81 -6 0 -11 5 -11 10 0 6
-5 10 -11 10 -6 0 -22 9 -36 20 -14 11 -39 20 -54 20 -19 0 -29 5 -29 15 0 8
-11 17 -25 21 -15 4 -25 13 -25 24 0 23 50 27 384 34 145 3 243 9 250 16 5 5
35 10 66 11 30 0 64 4 75 9 27 12 75 12 75 1z m22227 -36 c21 -20 53 -45 70
-58 18 -12 33 -28 33 -34 0 -7 7 -13 15 -13 25 0 65 -23 65 -37 0 -7 8 -13 18
-13 10 0 34 -18 53 -41 19 -23 45 -45 57 -50 13 -5 26 -18 29 -29 3 -11 13
-20 22 -20 18 0 71 -52 71 -69 0 -6 7 -11 15 -11 20 0 104 -62 104 -77 1 -7 8
-13 16 -13 8 0 15 -4 15 -10 0 -5 7 -10 15 -10 8 0 15 -4 15 -10 0 -5 7 -10
15 -10 8 0 15 -4 15 -10 0 -5 7 -10 15 -10 8 0 15 -6 15 -14 0 -8 14 -19 30
-25 17 -5 30 -17 30 -25 0 -9 4 -16 9 -16 6 0 21 -10 35 -22 44 -41 66 -58 74
-58 4 0 19 -13 33 -29 15 -17 38 -33 53 -37 14 -3 26 -12 26 -18 0 -7 18 -21
39 -32 25 -12 35 -22 28 -26 -7 -5 -3 -8 11 -8 12 0 25 -7 28 -15 4 -8 11 -15
18 -15 6 0 27 -18 46 -41 19 -22 52 -50 73 -61 20 -12 37 -27 37 -34 0 -6 15
-19 33 -27 40 -20 77 -51 77 -66 0 -6 6 -11 14 -11 7 0 25 -11 40 -25 15 -13
35 -29 46 -35 11 -6 20 -16 20 -23 0 -7 14 -18 30 -24 17 -6 30 -18 30 -27 0
-9 8 -16 18 -16 10 0 28 -13 40 -30 13 -16 29 -30 37 -30 8 0 15 -7 15 -15 0
-8 6 -15 13 -15 7 0 19 -9 27 -20 8 -11 19 -20 25 -20 6 0 21 -11 33 -25 13
-14 34 -30 47 -35 14 -5 25 -16 25 -24 0 -7 11 -17 24 -20 13 -3 44 -25 69
-48 70 -67 96 -88 107 -88 6 0 10 -4 10 -8 0 -4 18 -19 39 -32 22 -14 42 -33
44 -42 3 -10 14 -18 25 -18 12 0 23 -8 26 -18 3 -9 16 -22 28 -27 17 -7 23
-18 23 -40 0 -29 -1 -30 -45 -27 -56 3 -134 28 -150 48 -7 7 -21 14 -31 14
-11 0 -19 4 -19 10 0 14 -33 50 -46 50 -6 0 -17 11 -24 25 -7 14 -16 25 -20
25 -4 0 -17 9 -30 20 -13 11 -33 20 -44 20 -21 0 -56 31 -56 50 0 6 -7 10 -15
10 -8 0 -15 5 -15 10 0 6 -7 10 -15 10 -8 0 -15 5 -15 10 0 6 -7 10 -16 10
-10 0 -14 6 -10 15 3 9 0 15 -10 15 -8 0 -17 7 -20 15 -4 8 -10 15 -15 15 -5
0 -28 19 -51 42 -23 23 -58 47 -77 54 -24 8 -37 19 -39 33 -2 12 -10 21 -18
21 -8 0 -14 5 -14 10 0 6 -7 10 -16 10 -9 0 -27 10 -41 23 -73 66 -93 86 -93
96 0 6 -5 11 -11 11 -6 0 -25 11 -43 25 -18 14 -40 25 -49 25 -9 0 -19 10 -23
22 -12 39 -73 88 -109 88 -8 0 -16 9 -20 19 -3 11 -15 23 -26 26 -10 4 -19 10
-19 14 0 5 -13 14 -30 21 -16 7 -30 17 -30 22 0 14 -27 38 -43 38 -8 0 -17 7
-21 15 -3 8 -17 15 -31 15 -16 0 -24 4 -20 11 7 11 -22 49 -38 49 -9 0 -67 58
-67 68 0 14 -45 52 -62 52 -10 0 -18 5 -18 10 0 6 -9 10 -20 10 -11 0 -20 5
-20 11 0 16 -26 39 -44 39 -9 0 -16 4 -16 9 0 5 -9 12 -19 16 -10 3 -21 15
-24 26 -3 11 -23 27 -46 37 -26 11 -41 24 -41 35 0 11 -8 17 -25 17 -16 0 -25
6 -25 15 0 8 -6 15 -14 15 -8 0 -16 7 -20 15 -3 8 -13 15 -22 15 -9 0 -36 20
-60 45 -23 25 -47 45 -53 45 -6 0 -11 7 -11 15 0 8 -7 15 -15 15 -8 0 -32 18
-54 40 -21 22 -43 40 -49 40 -5 0 -12 7 -16 15 -3 8 -12 15 -21 15 -8 0 -15 6
-15 14 0 8 -9 22 -21 30 -17 11 -22 28 -26 80 -5 62 -4 66 15 66 12 0 38 -16
59 -35z m-20227 17 c0 -11 61 -32 93 -32 15 0 27 -4 27 -10 0 -5 7 -10 15 -10
8 0 15 -6 15 -14 0 -8 4 -16 8 -18 9 -3 2 -71 -13 -150 -6 -30 -3 -41 17 -62
14 -15 40 -29 60 -33 30 -4 41 -1 61 19 20 21 26 39 32 102 4 42 11 76 16 76
5 0 9 9 9 20 0 11 6 20 13 20 7 0 18 9 25 20 7 11 17 20 23 20 6 0 23 8 37 18
29 20 239 48 283 37 52 -12 424 -43 429 -36 3 4 60 11 128 15 67 4 134 11 148
16 14 6 45 10 70 10 38 0 44 -3 44 -21 0 -12 -8 -23 -20 -26 -11 -3 -20 -10
-20 -15 0 -12 -26 -38 -37 -38 -15 0 -43 -39 -43 -60 0 -32 -78 -100 -115
-100 -7 0 -16 -11 -19 -25 -5 -19 -13 -25 -33 -25 -14 0 -33 -8 -42 -18 -9 -9
-34 -23 -56 -31 -22 -8 -48 -24 -58 -37 -18 -24 -19 -24 -247 -24 -142 0 -231
-4 -235 -10 -3 -5 -17 -10 -31 -10 -13 0 -24 -4 -24 -10 0 -5 -7 -10 -15 -10
-20 0 -20 -46 0 -54 12 -4 15 -20 13 -73 -2 -57 1 -73 20 -100 12 -17 31 -35
42 -38 37 -12 16 -75 -24 -75 -9 0 -16 -4 -16 -10 0 -5 -7 -10 -16 -10 -9 0
-21 -13 -27 -30 -11 -28 -15 -30 -64 -30 -46 0 -54 3 -72 29 -12 16 -21 32
-21 35 0 11 -34 42 -52 49 -10 4 -18 13 -18 22 0 12 -15 15 -85 15 -50 0 -85
-4 -85 -10 0 -5 -9 -10 -20 -10 -11 0 -20 -6 -20 -13 0 -7 -9 -19 -20 -27 -13
-9 -20 -26 -20 -45 0 -17 -5 -36 -11 -42 -8 -8 -8 -17 0 -31 29 -55 -2 -243
-45 -266 -10 -6 -33 -26 -50 -43 -18 -18 -39 -33 -48 -33 -9 0 -16 -7 -16 -15
0 -8 -7 -15 -15 -15 -8 0 -15 -4 -15 -9 0 -5 -15 -16 -33 -24 -18 -9 -45 -28
-61 -42 -15 -14 -31 -25 -35 -25 -4 0 -19 -13 -32 -28 -13 -15 -40 -39 -59
-52 -19 -13 -47 -36 -63 -52 -35 -36 -72 -37 -81 -2 -4 14 -3 31 3 38 5 6 13
40 17 76 3 36 11 73 16 84 6 10 16 84 24 164 12 112 12 147 3 153 -9 5 -9 35
0 128 11 123 20 151 56 184 88 80 103 87 205 88 113 1 134 8 138 42 2 18 9 27
22 27 33 0 41 55 13 87 -25 26 -120 46 -187 38 -64 -8 -116 1 -116 21 0 8 -4
14 -8 14 -22 0 -42 65 -52 161 -5 57 -12 123 -16 145 l-6 42 58 -1 c33 0 104
5 159 10 133 13 175 15 175 5z m8984 -2 c14 -5 81 -12 148 -16 68 -4 125 -11
128 -15 5 -7 377 24 429 36 44 11 254 -17 283 -37 14 -10 31 -18 37 -18 6 0
16 -9 23 -20 7 -11 18 -20 25 -20 7 0 13 -9 13 -20 0 -11 4 -20 9 -20 5 0 12
-34 16 -76 6 -63 12 -81 32 -102 20 -20 31 -23 61 -19 20 4 46 18 60 33 20 21
23 32 17 62 -15 79 -22 147 -13 150 4 2 8 10 8 18 0 8 7 14 15 14 8 0 15 5 15
10 0 6 13 10 30 10 30 0 80 18 91 33 3 4 66 3 140 -4 74 -7 160 -12 193 -12
l58 1 -6 -42 c-4 -22 -11 -88 -16 -145 -10 -96 -30 -161 -52 -161 -4 0 -8 -6
-8 -14 0 -20 -52 -29 -116 -21 -67 8 -162 -12 -186 -38 -29 -32 -21 -87 12
-87 13 0 20 -9 22 -27 4 -34 25 -41 138 -42 102 -1 117 -8 205 -88 36 -33 45
-61 56 -184 9 -93 9 -123 0 -128 -9 -6 -9 -41 3 -153 8 -80 18 -154 24 -164 5
-11 13 -48 16 -84 4 -36 12 -70 17 -76 6 -7 7 -24 3 -38 -9 -35 -46 -34 -81 2
-16 16 -44 39 -63 52 -19 13 -46 37 -59 52 -13 15 -28 28 -32 28 -4 0 -20 11
-35 25 -16 14 -43 33 -61 42 -18 8 -33 19 -33 24 0 5 -7 9 -15 9 -8 0 -15 7
-15 15 0 8 -7 15 -16 15 -9 0 -30 15 -48 33 -17 17 -40 37 -50 43 -43 23 -74
211 -45 266 8 14 8 23 0 31 -6 6 -11 25 -11 42 0 19 -7 36 -20 45 -11 8 -20
20 -20 27 0 7 -9 13 -20 13 -11 0 -20 5 -20 10 0 6 -35 10 -85 10 -70 0 -85
-3 -85 -15 0 -9 -8 -18 -17 -22 -19 -7 -53 -38 -53 -49 0 -3 -9 -19 -21 -35
-18 -26 -26 -29 -72 -29 -49 0 -53 2 -64 30 -6 17 -18 30 -27 30 -9 0 -16 5
-16 10 0 6 -7 10 -16 10 -40 0 -61 63 -24 75 11 3 30 21 42 38 19 27 22 43 20
100 -2 53 1 69 13 73 20 8 20 54 0 54 -8 0 -15 5 -15 10 0 6 -11 10 -24 10
-14 0 -28 5 -31 10 -4 6 -93 10 -235 10 -228 0 -229 0 -247 24 -10 13 -36 29
-58 37 -22 8 -47 22 -56 31 -9 10 -28 18 -42 18 -20 0 -28 6 -33 25 -3 14 -12
25 -19 25 -37 0 -115 68 -115 100 0 21 -28 60 -43 60 -11 0 -37 26 -37 38 0 5
-9 12 -20 15 -12 3 -20 14 -20 26 0 18 6 21 44 21 25 0 56 -4 70 -10z m2951
-21 c96 -23 115 -45 115 -134 0 -23 7 -56 16 -73 13 -26 21 -32 49 -32 39 0
41 5 51 99 5 50 11 71 20 71 8 0 14 7 14 15 0 8 7 15 15 15 8 0 15 5 15 10 0
6 7 10 16 10 9 0 22 8 29 17 17 23 154 28 330 13 72 -6 186 -15 255 -20 69 -5
146 -14 170 -19 25 -6 107 -11 183 -11 118 0 139 -2 144 -16 4 -12 -3 -24 -22
-38 -16 -11 -48 -40 -72 -63 -23 -24 -46 -43 -50 -43 -5 0 -18 -11 -29 -23
-12 -12 -50 -31 -85 -41 -35 -11 -66 -22 -69 -25 -37 -45 -203 -111 -276 -111
-24 0 -44 -4 -44 -10 0 -5 -13 -10 -30 -10 -16 0 -30 5 -30 10 0 6 -11 10 -25
10 -14 0 -35 8 -46 19 -22 21 -62 31 -118 31 -45 0 -111 -18 -111 -30 0 -5 -7
-16 -16 -25 -28 -27 -30 -97 -4 -147 35 -70 118 -153 168 -167 39 -11 43 -15
40 -39 -2 -21 -9 -28 -32 -30 -16 -2 -35 -10 -43 -18 -8 -8 -23 -14 -34 -14
-10 0 -19 -6 -19 -14 0 -8 -9 -17 -19 -21 -11 -3 -23 -15 -26 -26 -4 -10 -13
-19 -21 -19 -8 0 -14 -7 -14 -15 0 -18 -39 -35 -81 -35 -28 0 -29 2 -29 45 0
25 -4 45 -10 45 -5 0 -10 14 -10 30 0 20 -5 30 -15 30 -8 0 -15 5 -15 11 0 13
-20 33 -42 42 -10 3 -18 13 -18 22 0 8 -9 15 -20 15 -11 0 -23 7 -26 15 -11
28 -144 9 -144 -20 0 -6 -9 -18 -20 -28 -12 -10 -20 -29 -20 -46 0 -16 -7 -36
-15 -45 -8 -8 -15 -26 -15 -40 0 -14 -8 -52 -19 -83 -10 -32 -24 -84 -31 -115
-7 -32 -17 -58 -22 -58 -4 0 -8 -5 -8 -12 0 -15 -53 -122 -62 -126 -5 -2 -8
-9 -8 -14 0 -11 -55 -72 -108 -121 -72 -67 -85 -77 -102 -77 -27 0 -30 19 -20
142 12 138 2 499 -14 551 -12 36 -4 111 18 158 4 9 8 42 9 75 l2 58 50 15 c28
9 52 19 53 23 2 5 28 8 57 8 30 0 70 8 90 17 29 14 35 22 35 49 0 18 -7 39
-15 48 -8 8 -15 18 -15 23 0 8 -42 22 -125 39 -58 13 -72 45 -77 174 l-3 105
50 6 c66 8 299 0 350 -12z m-15778 -55 c-4 -52 -9 -69 -26 -80 -12 -8 -21 -22
-21 -30 0 -8 -7 -14 -15 -14 -9 0 -18 -7 -21 -15 -4 -8 -11 -15 -16 -15 -6 0
-28 -18 -49 -40 -22 -22 -46 -40 -54 -40 -8 0 -15 -7 -15 -15 0 -8 -5 -15 -11
-15 -6 0 -30 -20 -53 -45 -24 -25 -51 -45 -60 -45 -9 0 -19 -7 -22 -15 -4 -8
-12 -15 -20 -15 -8 0 -14 -7 -14 -15 0 -9 -9 -15 -25 -15 -17 0 -25 -6 -25
-17 0 -11 -15 -24 -41 -35 -23 -10 -43 -26 -46 -37 -3 -11 -14 -23 -24 -26
-10 -4 -19 -11 -19 -16 0 -5 -7 -9 -16 -9 -18 0 -44 -23 -44 -39 0 -6 -9 -11
-20 -11 -11 0 -20 -4 -20 -10 0 -5 -8 -10 -17 -10 -17 0 -63 -37 -63 -51 0
-11 -57 -69 -67 -69 -16 0 -45 -38 -38 -49 4 -7 -4 -11 -20 -11 -14 0 -28 -7
-31 -15 -4 -8 -13 -15 -21 -15 -16 0 -43 -24 -43 -38 0 -5 -13 -15 -30 -22
-16 -7 -30 -16 -30 -21 0 -4 -9 -10 -19 -14 -11 -3 -23 -15 -26 -26 -4 -10
-12 -19 -20 -19 -36 0 -97 -49 -109 -88 -4 -12 -14 -22 -23 -22 -9 0 -31 -11
-49 -25 -18 -14 -37 -25 -43 -25 -6 0 -11 -5 -11 -11 0 -10 -20 -30 -93 -96
-14 -13 -32 -23 -41 -23 -9 0 -16 -4 -16 -10 0 -5 -6 -10 -14 -10 -8 0 -16 -9
-18 -21 -2 -14 -15 -25 -39 -33 -19 -7 -54 -31 -77 -54 -23 -23 -46 -42 -51
-42 -5 0 -11 -7 -15 -15 -3 -8 -12 -15 -20 -15 -10 0 -13 -6 -10 -15 4 -9 0
-15 -10 -15 -9 0 -16 -4 -16 -10 0 -5 -7 -10 -15 -10 -8 0 -15 -4 -15 -10 0
-5 -7 -10 -15 -10 -8 0 -15 -4 -15 -10 0 -19 -35 -50 -56 -50 -11 0 -31 -9
-44 -20 -13 -11 -26 -20 -30 -20 -4 0 -13 -11 -20 -25 -7 -14 -18 -25 -24 -25
-13 0 -46 -36 -46 -50 0 -6 -8 -10 -19 -10 -10 0 -24 -7 -31 -14 -16 -20 -94
-45 -150 -48 -44 -3 -45 -2 -45 27 0 22 6 33 23 40 12 5 25 18 28 27 3 10 14
18 26 18 11 0 22 8 25 18 2 9 22 28 44 42 21 13 39 28 39 32 0 4 4 8 10 8 11
0 37 21 107 88 25 23 56 45 69 48 13 3 24 13 24 20 0 8 11 19 25 24 13 5 34
21 47 35 12 14 27 25 33 25 6 0 17 9 25 20 8 11 20 20 27 20 7 0 13 7 13 15 0
8 7 15 15 15 8 0 24 14 37 30 12 17 30 30 40 30 10 0 18 7 18 16 0 9 14 21 30
27 17 6 30 17 30 24 0 7 9 17 20 23 11 6 31 22 46 35 15 14 33 25 40 25 8 0
14 5 14 11 0 15 37 46 77 66 18 8 33 21 33 27 0 7 17 22 38 34 20 11 53 39 72
61 19 23 40 41 46 41 7 0 14 7 18 15 3 8 16 15 28 15 14 0 18 3 11 8 -7 4 3
14 28 26 21 11 39 25 39 32 0 6 12 15 26 18 15 4 38 20 53 37 14 16 29 29 33
29 8 0 30 17 74 58 14 12 29 22 35 22 5 0 9 7 9 16 0 8 14 20 30 25 17 6 30
17 30 25 0 8 7 14 15 14 8 0 15 5 15 10 0 6 7 10 15 10 8 0 15 5 15 10 0 6 7
10 15 10 8 0 15 5 15 10 0 6 7 10 15 10 8 0 15 6 16 13 0 15 84 77 104 77 8 0
15 5 15 11 0 17 53 69 71 69 9 0 19 9 22 20 3 11 16 24 29 29 12 5 38 27 57
50 19 23 43 41 53 41 10 0 18 6 18 13 0 14 40 37 65 37 8 0 15 6 15 13 0 6 15
22 33 34 17 13 49 38 70 58 21 19 47 35 59 35 19 0 20 -4 15 -66z m7877 24 c7
-10 21 -18 30 -18 9 0 16 -4 16 -10 0 -5 7 -10 15 -10 8 0 15 -7 15 -15 0 -8
6 -15 14 -15 9 0 15 -21 20 -71 10 -94 12 -99 51 -99 28 0 36 6 49 32 9 17 16
50 16 73 0 89 17 109 118 135 58 15 378 18 392 4 7 -7 8 -45 4 -112 -8 -124
-25 -158 -81 -167 -63 -10 -123 -29 -123 -38 0 -5 -7 -15 -15 -23 -8 -9 -15
-30 -15 -48 0 -27 6 -35 35 -49 20 -9 60 -17 90 -17 29 0 55 -3 57 -8 2 -4 26
-14 53 -23 l50 -15 2 -58 c1 -33 5 -66 9 -75 22 -47 30 -122 18 -158 -16 -52
-26 -413 -14 -551 10 -123 7 -142 -20 -142 -17 0 -30 10 -102 77 -53 49 -108
110 -108 121 0 5 -3 12 -7 14 -10 4 -63 111 -63 126 0 7 -4 12 -8 12 -5 0 -15
26 -22 58 -7 31 -21 83 -31 115 -11 31 -19 69 -19 83 0 14 -7 32 -15 40 -8 9
-15 29 -15 45 0 17 -8 36 -20 46 -11 10 -20 22 -20 28 0 29 -133 48 -144 20
-3 -8 -15 -15 -26 -15 -11 0 -20 -7 -20 -15 0 -9 -8 -19 -17 -22 -23 -9 -43
-29 -43 -42 0 -6 -7 -11 -15 -11 -10 0 -15 -10 -15 -30 0 -16 -4 -30 -10 -30
-5 0 -10 -20 -10 -45 0 -43 -1 -45 -29 -45 -42 0 -81 17 -81 35 0 8 -6 15 -14
15 -8 0 -17 9 -21 19 -3 11 -15 23 -26 26 -10 4 -19 13 -19 21 0 8 -9 14 -19
14 -11 0 -26 6 -34 14 -8 8 -27 16 -43 18 -23 2 -30 9 -32 30 -3 24 1 28 40
39 50 14 133 97 168 167 26 50 24 120 -4 147 -9 9 -16 20 -16 25 0 12 -66 30
-111 30 -56 0 -96 -10 -118 -31 -11 -11 -32 -19 -46 -19 -14 0 -25 -4 -25 -10
0 -5 -13 -10 -30 -10 -16 0 -30 5 -30 10 0 6 -20 10 -44 10 -73 0 -239 66
-276 111 -3 3 -34 14 -69 25 -35 10 -73 29 -85 41 -11 12 -24 23 -29 23 -4 0
-27 19 -50 43 -24 23 -56 52 -72 63 -19 14 -26 26 -22 38 5 14 26 16 144 16
76 0 158 5 182 11 25 5 106 15 180 20 75 6 174 14 221 19 47 4 143 7 213 6
110 -1 130 -4 141 -18z m2001 1 c96 -23 115 -45 115 -134 0 -23 7 -56 16 -73
13 -26 21 -32 49 -32 39 0 41 5 51 99 5 50 11 71 20 71 8 0 14 7 14 15 0 8 7
15 15 15 8 0 15 5 15 10 0 6 7 10 16 10 9 0 22 8 29 17 17 23 154 28 330 13
72 -6 186 -15 255 -20 69 -5 146 -14 170 -19 25 -6 107 -11 183 -11 118 0 139
-2 144 -16 4 -12 -3 -24 -22 -38 -16 -11 -48 -40 -72 -63 -23 -24 -46 -43 -50
-43 -5 0 -18 -11 -29 -23 -12 -12 -50 -31 -85 -41 -35 -11 -66 -22 -69 -25
-37 -45 -203 -111 -276 -111 -24 0 -44 -4 -44 -10 0 -5 -13 -10 -30 -10 -16 0
-30 5 -30 10 0 6 -11 10 -25 10 -14 0 -35 8 -46 19 -22 21 -62 31 -118 31 -45
0 -111 -18 -111 -30 0 -5 -7 -16 -16 -25 -28 -27 -30 -97 -4 -147 35 -70 118
-153 168 -167 39 -11 43 -15 40 -39 -2 -21 -9 -28 -32 -30 -16 -2 -35 -10 -43
-18 -8 -8 -23 -14 -34 -14 -10 0 -19 -6 -19 -14 0 -8 -9 -17 -19 -21 -11 -3
-23 -15 -26 -26 -4 -10 -13 -19 -21 -19 -8 0 -14 -7 -14 -15 0 -18 -39 -35
-81 -35 -28 0 -29 2 -29 45 0 25 -4 45 -10 45 -5 0 -10 14 -10 30 0 20 -5 30
-15 30 -8 0 -15 5 -15 11 0 13 -20 33 -42 42 -10 3 -18 13 -18 22 0 8 -9 15
-20 15 -11 0 -23 7 -26 15 -11 28 -144 9 -144 -20 0 -6 -9 -18 -20 -28 -12
-10 -20 -29 -20 -46 0 -16 -7 -36 -15 -45 -8 -8 -15 -26 -15 -40 0 -14 -8 -52
-19 -83 -10 -32 -24 -84 -31 -115 -7 -32 -17 -58 -22 -58 -4 0 -8 -5 -8 -12 0
-15 -53 -122 -62 -126 -5 -2 -8 -9 -8 -14 0 -11 -55 -72 -108 -121 -72 -67
-85 -77 -102 -77 -27 0 -30 19 -20 142 12 138 2 499 -14 551 -12 36 -4 111 18
158 4 9 8 42 9 75 l2 58 50 15 c28 9 52 19 53 23 2 5 28 8 57 8 30 0 70 8 90
17 29 14 35 22 35 49 0 18 -7 39 -15 48 -8 8 -15 18 -15 23 0 8 -42 22 -125
39 -58 13 -72 45 -77 174 l-3 105 50 6 c66 8 299 0 350 -12z m7913 -401 c0
-95 5 -208 12 -251 15 -91 8 -274 -12 -328 -7 -20 -36 -57 -64 -83 -44 -39
-58 -46 -93 -46 -23 0 -41 -4 -41 -10 0 -6 -26 -10 -59 -10 -51 0 -63 -4 -90
-29 -18 -17 -31 -39 -31 -53 1 -54 51 -78 160 -78 69 0 82 -3 92 -20 7 -11 20
-20 28 -20 16 0 50 -52 50 -76 0 -8 7 -14 15 -14 13 0 15 -20 15 -124 l0 -124
-92 -8 c-119 -9 -247 -8 -261 4 -7 6 -25 13 -42 16 -16 4 -42 18 -57 31 -25
21 -28 31 -28 85 0 33 -4 60 -9 60 -5 0 -11 9 -14 19 -7 29 -63 54 -102 47
-41 -8 -47 -28 -43 -143 l3 -81 -40 -36 c-22 -19 -48 -35 -57 -36 -9 0 -23 -9
-31 -20 -10 -14 -33 -24 -73 -30 -79 -13 -334 -13 -334 0 0 6 -27 10 -60 10
-38 0 -60 4 -60 11 0 8 -20 9 -66 4 -48 -5 -69 -3 -74 5 -11 17 -360 28 -360
11 0 -6 -18 -11 -45 -11 -32 0 -45 4 -45 14 0 25 12 46 26 46 7 0 29 15 47 33
31 29 79 72 177 157 19 16 40 30 47 30 7 0 22 14 35 30 12 17 28 30 35 30 15
0 55 21 64 34 12 15 190 11 239 -6 55 -19 161 -32 189 -23 12 3 21 13 21 21 0
8 7 14 15 14 12 0 15 11 13 53 -2 39 0 51 11 49 48 -10 67 32 31 71 -12 12
-23 32 -26 44 -4 13 -13 23 -21 23 -16 0 -43 24 -43 38 0 5 -11 13 -25 16 -15
4 -27 16 -31 32 -5 21 0 31 32 60 22 18 42 34 47 34 4 0 7 7 7 15 0 8 8 15 18
15 9 0 28 9 42 20 30 23 120 28 120 7 0 -18 24 -67 33 -67 4 0 7 -8 7 -17 0
-10 12 -29 25 -42 14 -13 25 -29 25 -36 0 -13 87 -55 114 -55 35 0 106 25 106
37 0 7 6 13 14 13 18 0 41 37 48 75 3 17 3 98 -1 180 -7 146 -7 151 16 185 13
19 23 40 23 47 0 7 10 18 23 24 26 14 127 116 127 128 0 5 15 12 33 15 18 3
40 14 49 24 29 30 47 42 63 42 8 0 15 6 15 13 0 7 11 21 25 31 14 10 25 25 25
32 0 9 12 14 34 14 l35 0 -1 -172z m5762 132 c0 -22 -4 -40 -10 -40 -5 0 -10
-14 -10 -31 0 -17 -6 -45 -14 -62 -24 -54 -27 -77 -32 -237 -5 -165 -18 -270
-33 -279 -5 -3 -18 -22 -28 -41 -11 -19 -28 -37 -39 -39 -10 -2 -21 -6 -24
-10 -17 -22 -65 -41 -104 -41 -26 0 -51 -6 -60 -15 -8 -8 -19 -15 -24 -15 -16
0 -52 -37 -52 -54 0 -9 7 -19 15 -22 8 -4 15 -15 15 -25 0 -10 7 -19 15 -19 8
0 15 -4 15 -10 0 -5 22 -10 50 -10 35 0 54 -5 67 -19 10 -10 28 -22 40 -25 13
-4 36 -21 53 -37 24 -25 31 -41 36 -95 4 -40 11 -64 19 -64 8 0 15 -23 19 -61
4 -34 13 -70 19 -80 10 -16 9 -21 -3 -29 -18 -11 -64 -13 -74 -3 -13 13 -119
32 -185 32 -62 1 -136 -14 -155 -31 -14 -11 -86 -10 -86 2 0 6 -12 10 -26 10
-40 0 -113 89 -114 139 0 9 -7 24 -15 35 -11 15 -23 18 -55 13 -47 -6 -65 -24
-81 -82 -6 -22 -17 -45 -25 -52 -9 -6 -19 -24 -23 -40 -4 -17 -15 -29 -27 -31
-21 -3 -78 -18 -142 -38 -57 -19 -244 -18 -297 0 -83 29 -265 47 -265 26 0 -5
-10 -10 -23 -10 -13 0 -61 -11 -108 -25 -89 -26 -129 -31 -129 -16 0 5 -2 16
-5 23 -6 15 14 38 71 83 55 43 129 117 137 138 3 9 13 17 22 17 8 0 15 5 15
11 0 15 22 35 46 43 11 3 30 15 41 25 23 22 109 44 163 42 19 0 83 -3 143 -7
104 -6 107 -5 107 15 0 14 6 21 19 21 23 0 31 19 31 78 0 54 -19 112 -36 112
-16 0 -44 39 -44 62 0 16 90 68 118 68 7 0 12 7 12 15 0 22 36 18 59 -7 30
-32 86 -48 168 -48 86 0 153 24 153 54 0 18 44 92 62 106 3 3 10 34 13 70 7
66 24 120 37 120 5 0 8 6 8 14 0 7 6 24 13 38 13 26 106 118 119 118 4 0 8 6
8 14 0 8 14 20 30 28 17 7 30 16 30 20 0 5 11 8 25 8 14 0 25 5 25 10 0 6 9
10 19 10 11 0 37 15 59 33 83 68 98 79 120 88 12 4 22 13 22 19 0 5 7 10 15
10 8 0 15 5 15 10 0 6 14 10 30 10 28 0 30 -2 30 -40z m-23050 0 c0 -5 7 -10
15 -10 8 0 15 -5 15 -10 0 -6 10 -15 23 -19 21 -9 36 -20 119 -88 22 -18 48
-33 59 -33 10 0 19 -4 19 -10 0 -5 11 -10 25 -10 14 0 25 -3 25 -8 0 -4 14
-13 30 -20 17 -8 30 -20 30 -28 0 -8 4 -14 8 -14 13 0 106 -92 120 -118 6 -14
12 -31 12 -38 0 -8 3 -14 8 -14 13 0 30 -54 37 -120 3 -36 10 -67 13 -70 18
-14 62 -88 62 -106 0 -30 67 -54 153 -54 82 0 138 16 168 48 23 25 59 29 59 7
0 -8 5 -15 12 -15 28 0 118 -52 118 -68 0 -23 -28 -62 -44 -62 -17 0 -36 -58
-36 -112 0 -59 8 -78 31 -78 13 0 19 -7 19 -21 0 -20 3 -21 108 -15 59 4 123
7 142 7 54 2 140 -20 163 -42 11 -10 30 -22 41 -25 24 -8 46 -28 46 -43 0 -6
7 -11 15 -11 9 0 19 -8 22 -17 8 -21 82 -95 137 -138 57 -45 77 -68 71 -83 -3
-7 -5 -18 -5 -23 0 -15 -40 -10 -129 16 -47 14 -95 25 -108 25 -13 0 -23 5
-23 10 0 21 -182 3 -265 -26 -53 -18 -240 -19 -297 0 -64 20 -121 35 -142 38
-12 2 -23 14 -27 31 -4 16 -14 34 -23 40 -8 7 -19 30 -25 52 -16 58 -34 76
-81 82 -32 5 -44 2 -55 -13 -8 -11 -15 -26 -15 -35 -1 -50 -74 -139 -114 -139
-14 0 -26 -4 -26 -10 0 -12 -72 -13 -86 -2 -19 17 -93 32 -155 31 -66 0 -172
-19 -185 -32 -10 -10 -56 -8 -74 3 -12 8 -13 13 -3 29 6 10 15 46 19 80 4 38
11 61 19 61 8 0 15 24 19 64 5 54 12 70 36 95 17 16 40 33 53 37 12 3 30 15
40 25 13 14 32 19 67 19 28 0 50 5 50 10 0 6 7 10 15 10 8 0 15 9 15 19 0 10
7 21 15 25 8 3 15 13 15 22 0 17 -36 54 -52 54 -5 0 -16 7 -24 15 -9 9 -34 15
-60 15 -39 0 -87 19 -104 41 -3 4 -14 8 -24 10 -11 2 -28 20 -39 39 -10 19
-23 38 -28 41 -15 9 -28 114 -33 279 -5 160 -8 183 -32 237 -8 17 -14 45 -14
62 0 17 -4 31 -10 31 -5 0 -10 18 -10 40 0 38 2 40 30 40 17 0 30 -4 30 -10z
m5770 -4 c0 -7 11 -22 25 -32 14 -10 25 -24 25 -31 0 -7 7 -13 15 -13 16 0 34
-12 63 -42 9 -10 31 -21 49 -24 18 -3 33 -10 33 -15 0 -12 101 -114 128 -128
12 -6 22 -17 22 -24 0 -7 10 -28 23 -47 23 -34 23 -39 16 -185 -4 -82 -4 -163
-1 -180 7 -38 30 -75 48 -75 8 0 14 -6 14 -13 0 -12 71 -37 106 -37 27 0 114
42 114 55 0 7 11 23 25 36 13 13 25 32 25 42 0 9 3 17 8 17 8 0 32 49 32 67 0
21 90 16 120 -7 14 -11 33 -20 43 -20 9 0 17 -7 17 -15 0 -8 3 -15 8 -15 4 0
24 -16 46 -34 32 -29 37 -39 32 -60 -4 -16 -16 -28 -31 -32 -14 -3 -25 -11
-25 -16 0 -14 -27 -38 -43 -38 -8 0 -17 -10 -21 -23 -3 -12 -14 -32 -26 -44
-36 -39 -17 -81 31 -71 11 2 13 -10 11 -49 -2 -42 1 -53 13 -53 8 0 15 -6 15
-14 0 -8 9 -18 21 -21 28 -9 134 4 189 23 49 17 227 21 239 6 9 -13 49 -34 64
-34 7 0 23 -13 35 -30 13 -16 28 -30 35 -30 7 0 28 -14 47 -30 98 -85 146
-128 177 -157 18 -18 40 -33 47 -33 14 0 26 -21 26 -46 0 -10 -13 -14 -45 -14
-27 0 -45 5 -45 11 0 17 -349 6 -360 -11 -5 -8 -26 -10 -74 -5 -46 5 -66 4
-66 -4 0 -7 -22 -11 -60 -11 -33 0 -60 -4 -60 -10 0 -13 -255 -13 -334 0 -40
6 -63 16 -73 30 -8 11 -22 20 -31 20 -9 1 -35 17 -57 36 l-40 36 3 81 c4 115
-2 135 -43 143 -39 7 -95 -18 -102 -47 -3 -10 -9 -19 -14 -19 -5 0 -9 -27 -9
-60 0 -54 -3 -64 -27 -85 -16 -13 -41 -27 -58 -31 -16 -3 -35 -10 -42 -16 -14
-12 -142 -13 -260 -4 l-93 8 0 124 c0 104 2 124 15 124 8 0 15 6 15 14 0 24
34 76 50 76 8 0 21 9 28 20 10 17 23 20 92 20 109 0 159 24 160 78 0 14 -13
36 -31 53 -27 25 -39 29 -90 29 -33 0 -59 4 -59 10 0 6 -18 10 -41 10 -35 0
-49 7 -93 46 -28 26 -57 63 -64 83 -20 54 -27 237 -12 328 7 43 12 156 12 251
l-1 172 35 0 c22 0 34 -5 34 -14z m5618 -158 c0 -95 5 -208 12 -251 15 -91 8
-274 -12 -328 -7 -20 -36 -57 -64 -83 -44 -39 -58 -46 -93 -46 -23 0 -41 -4
-41 -10 0 -6 -26 -10 -59 -10 -51 0 -63 -4 -90 -29 -18 -17 -31 -39 -31 -53 1
-54 51 -78 160 -78 69 0 82 -3 92 -20 7 -11 20 -20 28 -20 16 0 50 -52 50 -76
0 -8 7 -14 15 -14 13 0 15 -20 15 -124 l0 -124 -92 -8 c-119 -9 -247 -8 -261
4 -7 6 -25 13 -42 16 -16 4 -42 18 -57 31 -25 21 -28 31 -28 85 0 33 -4 60 -9
60 -5 0 -11 9 -14 19 -7 29 -63 54 -102 47 -41 -8 -47 -28 -43 -143 l3 -81
-40 -36 c-22 -19 -48 -35 -57 -36 -9 0 -23 -9 -31 -20 -10 -14 -33 -24 -73
-30 -79 -13 -334 -13 -334 0 0 6 -27 10 -60 10 -38 0 -60 4 -60 11 0 8 -20 9
-66 4 -48 -5 -69 -3 -74 5 -11 17 -360 28 -360 11 0 -6 -18 -11 -45 -11 -32 0
-45 4 -45 14 0 25 12 46 26 46 7 0 29 15 47 33 31 29 79 72 177 157 19 16 40
30 47 30 7 0 22 14 35 30 12 17 28 30 35 30 15 0 55 21 64 34 12 15 190 11
239 -6 55 -19 161 -32 189 -23 12 3 21 13 21 21 0 8 7 14 15 14 12 0 15 11 13
53 -2 39 0 51 11 49 48 -10 67 32 31 71 -12 12 -23 32 -26 44 -4 13 -13 23
-21 23 -16 0 -43 24 -43 38 0 5 -11 13 -25 16 -15 4 -27 16 -31 32 -5 21 0 31
32 60 22 18 42 34 47 34 4 0 7 7 7 15 0 8 8 15 18 15 9 0 28 9 42 20 30 23
120 28 120 7 0 -18 24 -67 33 -67 4 0 7 -8 7 -17 0 -10 12 -29 25 -42 14 -13
25 -29 25 -36 0 -13 87 -55 114 -55 35 0 106 25 106 37 0 7 6 13 14 13 18 0
41 37 48 75 3 17 3 98 -1 180 -7 146 -7 151 16 185 13 19 23 40 23 47 0 7 10
18 23 24 26 14 127 116 127 128 0 5 15 12 33 15 18 3 40 14 49 24 29 30 47 42
63 42 8 0 15 6 15 13 0 7 11 21 25 31 14 10 25 25 25 32 0 9 12 14 34 14 l35
0 -1 -172z m6465 145 c4 -2 7 -10 7 -16 0 -15 32 -44 66 -59 13 -6 24 -17 24
-23 0 -7 14 -18 30 -25 17 -7 35 -21 41 -32 6 -11 24 -24 40 -30 16 -5 29 -16
29 -24 0 -8 7 -14 15 -14 8 0 15 -9 15 -20 0 -11 6 -20 14 -20 7 0 16 -13 19
-29 3 -16 13 -36 22 -44 8 -9 15 -20 15 -26 0 -6 4 -11 10 -11 5 0 19 -21 31
-47 21 -47 21 -49 4 -120 -14 -61 -21 -75 -43 -85 -22 -11 -28 -21 -30 -58 -5
-66 6 -108 28 -115 11 -4 20 -12 20 -20 0 -17 65 -29 90 -15 11 6 20 15 20 19
0 5 11 12 25 15 14 4 29 14 32 24 3 9 19 29 35 44 15 15 28 32 28 37 0 6 5 11
10 11 6 0 10 18 10 39 0 22 5 41 10 43 6 2 13 21 17 43 12 80 46 86 118 20 28
-25 56 -45 63 -45 6 0 12 -8 12 -18 0 -10 12 -22 30 -29 43 -16 42 -60 -3 -90
-18 -12 -58 -47 -90 -77 -49 -47 -57 -60 -57 -90 0 -20 -5 -45 -12 -56 -10
-15 -10 -27 1 -57 19 -54 29 -63 67 -63 18 0 36 -4 39 -10 3 -5 22 -10 41 -10
19 0 34 5 34 10 0 6 6 10 13 10 7 0 32 9 55 20 22 11 47 20 54 20 7 0 22 7 32
15 23 18 231 22 241 5 3 -5 14 -10 23 -10 9 0 30 -7 46 -15 15 -8 34 -15 40
-15 6 0 20 -13 29 -30 10 -16 25 -30 33 -30 8 0 14 -5 14 -10 0 -6 11 -16 25
-22 14 -6 25 -17 25 -25 0 -7 5 -13 10 -13 6 0 16 -11 22 -25 6 -14 17 -25 24
-25 8 0 31 -18 51 -40 21 -22 43 -40 48 -40 6 0 22 -11 37 -25 15 -14 32 -25
38 -25 6 0 22 -11 35 -24 13 -14 34 -27 45 -31 11 -3 20 -13 20 -21 0 -18 -32
-32 -38 -16 -2 7 -18 12 -35 12 -18 0 -75 9 -127 19 -160 31 -441 26 -525 -9
-22 -9 -87 -26 -155 -41 -49 -11 -170 -2 -170 12 0 5 -7 9 -15 9 -8 0 -15 5
-15 10 0 6 -15 10 -34 10 -19 0 -38 5 -41 10 -3 6 -15 10 -26 10 -10 0 -19 5
-19 10 0 6 -9 10 -20 10 -11 0 -20 6 -20 14 0 8 -7 16 -15 20 -11 4 -15 20
-15 57 0 61 -16 78 -72 79 -42 0 -68 -21 -68 -55 0 -13 -4 -27 -10 -30 -5 -3
-10 -24 -10 -46 0 -31 -7 -47 -29 -70 -16 -16 -36 -29 -43 -29 -8 0 -20 -6
-26 -12 -9 -9 -57 -13 -167 -13 -84 0 -156 3 -159 6 -11 10 -10 310 0 317 6 4
13 14 17 24 3 9 19 19 36 23 17 4 31 11 31 16 0 5 15 9 33 9 56 0 78 11 84 41
3 15 11 30 19 33 8 3 14 12 14 21 0 17 -54 75 -70 75 -6 0 -10 5 -10 10 0 6
-12 10 -28 10 -15 0 -39 11 -54 25 -15 14 -32 25 -38 25 -5 0 -10 5 -10 10 0
6 -7 10 -15 10 -8 0 -15 7 -15 15 0 8 -4 15 -10 15 -5 0 -10 22 -10 49 0 28
-5 53 -11 57 -8 5 -9 26 -4 68 6 51 9 140 7 206 0 8 2 48 4 87 5 58 2 76 -10
89 -12 11 -16 35 -16 84 0 38 -4 72 -10 75 -14 9 -12 72 3 78 12 6 65 -1 80
-10z m-12639 -19 c18 -7 23 -69 6 -79 -5 -3 -10 -37 -10 -75 0 -49 -4 -73 -16
-84 -12 -13 -15 -31 -10 -89 2 -39 4 -79 4 -87 -2 -66 1 -155 7 -206 5 -42 4
-63 -4 -68 -6 -4 -11 -29 -11 -57 0 -27 -4 -49 -10 -49 -5 0 -10 -7 -10 -15 0
-8 -7 -15 -15 -15 -8 0 -15 -4 -15 -10 0 -5 -5 -10 -10 -10 -6 0 -23 -11 -38
-25 -15 -14 -39 -25 -54 -25 -16 0 -28 -4 -28 -10 0 -5 -4 -10 -10 -10 -16 0
-70 -58 -70 -75 0 -9 6 -18 14 -21 8 -3 16 -18 19 -33 6 -30 28 -41 85 -41 17
0 32 -4 32 -9 0 -5 14 -12 31 -16 17 -4 33 -14 36 -23 4 -10 11 -20 17 -24 10
-7 11 -307 0 -317 -3 -3 -75 -6 -159 -6 -110 0 -158 4 -166 13 -7 6 -19 12
-27 12 -7 0 -27 13 -43 29 -22 23 -29 39 -29 70 0 22 -4 43 -10 46 -5 3 -10
17 -10 30 0 34 -26 55 -68 55 -56 -1 -72 -18 -72 -79 0 -37 -4 -53 -15 -57 -8
-4 -15 -12 -15 -20 0 -8 -9 -14 -20 -14 -11 0 -20 -4 -20 -10 0 -5 -9 -10 -19
-10 -11 0 -23 -4 -26 -10 -3 -5 -22 -10 -41 -10 -19 0 -34 -4 -34 -10 0 -5 -7
-10 -15 -10 -8 0 -15 -4 -15 -9 0 -14 -121 -23 -170 -12 -68 15 -133 32 -155
41 -84 35 -365 40 -525 9 -52 -10 -109 -19 -127 -19 -17 0 -33 -5 -35 -12 -6
-16 -38 -2 -38 16 0 8 9 18 20 21 11 4 32 17 45 31 13 13 29 24 35 24 6 0 23
11 38 25 15 14 31 25 37 25 5 0 27 18 48 40 20 22 43 40 51 40 7 0 18 11 24
25 6 14 16 25 22 25 5 0 10 6 10 13 0 8 11 19 25 25 14 6 25 16 25 22 0 5 6
10 14 10 8 0 23 14 33 30 9 17 23 30 29 30 6 0 25 7 40 15 16 8 37 15 46 15 9
0 20 5 23 10 10 17 218 13 241 -5 10 -8 25 -15 32 -15 7 0 32 -9 54 -20 23
-11 48 -20 55 -20 7 0 13 -4 13 -10 0 -5 15 -10 34 -10 19 0 38 5 41 10 3 6
21 10 39 10 38 0 48 9 67 63 11 30 11 42 1 57 -7 11 -12 36 -12 56 0 30 -8 43
-57 90 -32 30 -72 65 -90 77 -45 30 -46 74 -3 90 18 7 30 19 30 29 0 10 6 18
13 18 6 0 34 20 62 45 72 66 106 60 118 -20 4 -22 11 -41 17 -43 5 -2 10 -21
10 -43 0 -21 5 -39 10 -39 6 0 10 -5 10 -11 0 -5 13 -22 28 -37 16 -15 32 -35
35 -44 3 -10 18 -20 32 -24 14 -3 25 -10 25 -15 0 -4 9 -13 20 -19 25 -14 90
-2 90 15 0 8 9 16 20 20 22 7 33 49 28 115 -2 37 -8 47 -30 58 -22 10 -29 24
-43 85 -17 71 -17 73 4 120 12 26 26 47 31 47 6 0 10 5 10 11 0 6 7 17 15 26
9 8 19 28 22 44 3 16 12 29 19 29 8 0 14 9 14 20 0 11 7 20 15 20 8 0 15 6 15
14 0 8 13 19 29 24 16 6 34 19 40 30 6 11 24 25 41 32 16 7 30 18 30 26 0 7 8
15 19 19 24 7 66 46 74 67 3 9 16 18 29 21 13 2 26 5 30 6 3 0 13 -2 22 -5z
m6739 -11 c4 -2 7 -10 7 -16 0 -15 32 -44 66 -59 13 -6 24 -17 24 -23 0 -7 14
-18 30 -25 17 -7 35 -21 41 -32 6 -11 24 -24 40 -30 16 -5 29 -16 29 -24 0 -8
7 -14 15 -14 8 0 15 -9 15 -20 0 -11 6 -20 14 -20 7 0 16 -13 19 -29 3 -16 13
-36 22 -44 8 -9 15 -20 15 -26 0 -6 4 -11 10 -11 5 0 19 -21 31 -47 21 -47 21
-49 4 -120 -14 -61 -21 -75 -43 -85 -22 -11 -28 -21 -30 -58 -5 -66 6 -108 28
-115 11 -4 20 -12 20 -20 0 -17 65 -29 90 -15 11 6 20 15 20 19 0 5 11 12 25
15 14 4 29 14 32 24 3 9 19 29 35 44 15 15 28 32 28 37 0 6 5 11 10 11 6 0 10
18 10 39 0 22 5 41 10 43 6 2 13 21 17 43 12 80 46 86 118 20 28 -25 56 -45
63 -45 6 0 12 -8 12 -18 0 -10 12 -22 30 -29 43 -16 42 -60 -3 -90 -18 -12
-58 -47 -90 -77 -49 -47 -57 -60 -57 -90 0 -20 -5 -45 -12 -56 -10 -15 -10
-27 1 -57 19 -54 29 -63 67 -63 18 0 36 -4 39 -10 3 -5 22 -10 41 -10 19 0 34
5 34 10 0 6 6 10 13 10 7 0 32 9 55 20 22 11 47 20 54 20 7 0 22 7 32 15 23
18 231 22 241 5 3 -5 14 -10 23 -10 9 0 30 -7 46 -15 15 -8 34 -15 40 -15 6 0
20 -13 29 -30 10 -16 25 -30 33 -30 8 0 14 -5 14 -10 0 -6 11 -16 25 -22 14
-6 25 -17 25 -25 0 -7 5 -13 10 -13 6 0 16 -11 22 -25 6 -14 17 -25 24 -25 8
0 31 -18 51 -40 21 -22 43 -40 48 -40 6 0 22 -11 37 -25 15 -14 32 -25 38 -25
6 0 22 -11 35 -24 13 -14 34 -27 45 -31 11 -3 20 -13 20 -21 0 -18 -32 -32
-38 -16 -2 7 -18 12 -35 12 -18 0 -75 9 -127 19 -160 31 -441 26 -525 -9 -22
-9 -87 -26 -155 -41 -49 -11 -170 -2 -170 12 0 5 -7 9 -15 9 -8 0 -15 5 -15
10 0 6 -15 10 -34 10 -19 0 -38 5 -41 10 -3 6 -15 10 -26 10 -10 0 -19 5 -19
10 0 6 -9 10 -20 10 -11 0 -20 6 -20 14 0 8 -7 16 -15 20 -11 4 -15 20 -15 57
0 61 -16 78 -72 79 -42 0 -68 -21 -68 -55 0 -13 -4 -27 -10 -30 -5 -3 -10 -24
-10 -46 0 -31 -7 -47 -29 -70 -16 -16 -36 -29 -43 -29 -8 0 -20 -6 -26 -12 -9
-9 -57 -13 -167 -13 -84 0 -156 3 -159 6 -11 10 -10 310 0 317 6 4 13 14 17
24 3 9 19 19 36 23 17 4 31 11 31 16 0 5 15 9 33 9 56 0 78 11 84 41 3 15 11
30 19 33 8 3 14 12 14 21 0 17 -54 75 -70 75 -6 0 -10 5 -10 10 0 6 -12 10
-28 10 -15 0 -39 11 -54 25 -15 14 -32 25 -38 25 -5 0 -10 5 -10 10 0 6 -7 10
-15 10 -8 0 -15 7 -15 15 0 8 -4 15 -10 15 -5 0 -10 22 -10 49 0 28 -5 53 -11
57 -8 5 -9 26 -4 68 6 51 9 140 7 206 0 8 2 48 4 87 5 58 2 76 -10 89 -12 11
-16 35 -16 84 0 38 -4 72 -10 75 -14 9 -12 72 3 78 12 6 65 -1 80 -10z m11652
-87 c33 -18 45 -33 45 -63 0 -13 6 -23 14 -23 7 0 25 -11 40 -25 15 -14 31
-25 36 -25 5 0 12 -9 15 -20 4 -13 15 -20 32 -20 16 0 27 -7 30 -18 2 -10 18
-23 34 -29 16 -6 29 -18 29 -27 0 -9 5 -16 10 -16 6 0 10 -8 10 -19 0 -10 9
-21 20 -24 18 -5 20 -14 20 -85 0 -45 -4 -84 -10 -87 -13 -8 -13 -82 -1 -90 5
-3 12 -18 16 -35 4 -16 15 -32 26 -35 10 -4 19 -11 19 -16 0 -5 21 -9 46 -9
37 0 52 5 70 26 13 14 24 29 24 33 0 5 6 11 13 14 7 2 21 32 31 66 22 72 42
79 96 31 18 -16 37 -30 42 -30 4 0 8 -9 8 -20 0 -13 7 -20 19 -20 29 0 51 -11
51 -24 0 -7 11 -19 25 -26 14 -7 25 -16 25 -19 -1 -17 -31 -39 -75 -55 -27
-11 -67 -36 -88 -57 -21 -22 -41 -39 -44 -39 -2 0 -13 -10 -24 -22 -27 -33
-25 -93 4 -121 13 -12 26 -30 30 -39 10 -27 113 -26 122 1 3 10 32 32 65 50
53 27 70 31 138 31 49 0 87 -6 106 -15 15 -8 32 -15 38 -15 11 0 118 -109 118
-121 0 -5 9 -9 21 -9 12 0 34 -13 49 -30 15 -16 36 -30 45 -30 9 0 19 -9 22
-21 5 -18 11 -20 39 -14 21 3 34 2 34 -5 0 -5 7 -10 15 -10 18 0 61 -26 87
-52 10 -10 22 -18 26 -18 5 0 18 -9 30 -20 22 -21 31 -70 12 -70 -5 0 -10 -7
-10 -16 0 -14 -7 -16 -42 -10 -24 3 -67 9 -95 13 -29 3 -53 10 -53 14 0 5 -17
9 -38 9 -21 0 -43 5 -50 12 -20 20 -177 22 -267 4 -44 -9 -114 -22 -156 -27
-72 -11 -79 -10 -165 20 -49 16 -90 35 -92 41 -2 5 -10 10 -18 10 -8 0 -14 5
-14 10 0 6 -11 10 -24 10 -17 0 -26 7 -30 26 -7 27 -18 43 -48 72 -10 9 -18
23 -18 30 0 29 -34 72 -58 72 -28 0 -52 -49 -52 -107 0 -21 -3 -47 -6 -59 -7
-28 -63 -47 -116 -39 -28 4 -58 1 -87 -9 -24 -9 -65 -16 -92 -16 l-49 0 0 35
c0 20 -7 46 -16 60 -12 18 -14 37 -8 84 3 34 11 61 15 61 5 0 9 14 9 31 0 30
25 86 45 102 6 4 29 5 53 2 28 -4 62 -1 97 11 49 15 55 20 61 50 14 75 -6 94
-103 94 -29 0 -53 5 -53 10 0 10 -21 36 -82 101 -14 16 -31 29 -38 29 -9 0
-12 45 -9 183 2 187 -7 337 -22 337 -5 0 -9 18 -9 40 0 22 2 40 4 40 2 0 16
-6 31 -14z m-24185 -56 c0 -22 -4 -40 -9 -40 -15 0 -24 -150 -22 -337 3 -138
0 -183 -9 -183 -7 0 -24 -13 -38 -29 -61 -65 -82 -91 -82 -101 0 -5 -24 -10
-52 -10 -98 0 -118 -19 -104 -94 6 -30 12 -35 61 -50 35 -12 69 -15 97 -11 24
3 48 2 53 -2 20 -16 45 -72 45 -102 0 -17 4 -31 9 -31 4 0 12 -27 15 -61 6
-47 4 -66 -8 -84 -9 -14 -16 -40 -16 -60 l0 -35 -49 0 c-27 0 -68 7 -92 16
-29 10 -59 13 -87 9 -53 -8 -109 11 -116 39 -3 12 -6 38 -6 59 0 58 -24 107
-52 107 -24 0 -58 -43 -58 -72 0 -7 -8 -21 -17 -30 -31 -29 -42 -45 -49 -72
-4 -19 -13 -26 -30 -26 -13 0 -24 -4 -24 -10 0 -5 -6 -10 -14 -10 -8 0 -16 -5
-18 -10 -2 -6 -43 -25 -92 -41 -86 -30 -93 -31 -165 -20 -42 5 -112 18 -156
27 -90 18 -247 16 -267 -4 -7 -7 -29 -12 -50 -12 -21 0 -38 -4 -38 -9 0 -4
-24 -11 -52 -14 -29 -4 -72 -10 -95 -13 -36 -6 -43 -4 -43 10 0 9 -4 16 -10
16 -19 0 -10 49 12 70 12 11 25 20 30 20 4 0 16 8 26 18 26 26 69 52 87 52 8
0 15 5 15 10 0 7 13 8 34 5 28 -6 34 -4 39 14 3 12 13 21 22 21 9 0 30 14 45
30 15 17 37 30 49 30 12 0 21 4 21 9 0 12 107 121 118 121 6 0 23 7 38 15 19
9 57 15 106 15 68 0 85 -4 138 -31 33 -18 62 -40 65 -50 9 -27 112 -28 122 -1
4 9 17 27 30 39 29 28 31 88 4 121 -11 12 -22 22 -24 22 -3 0 -23 17 -44 39
-21 21 -60 46 -88 57 -44 16 -74 38 -75 55 0 3 11 12 25 19 14 7 25 19 25 26
0 13 22 24 51 24 12 0 19 7 19 20 0 11 4 20 8 20 5 0 24 14 42 30 54 48 74 41
96 -31 10 -34 24 -64 31 -66 7 -3 13 -9 13 -14 0 -4 11 -19 24 -33 18 -21 33
-26 70 -26 25 0 46 4 46 9 0 5 9 12 19 16 11 3 22 19 26 35 4 17 11 32 16 35
12 8 12 82 -1 90 -5 3 -10 42 -10 87 0 71 2 80 20 85 11 3 20 14 20 24 0 11 5
19 10 19 6 0 10 7 10 16 0 9 13 21 29 27 16 6 32 19 34 29 3 11 14 18 30 18
17 0 28 7 32 20 3 11 10 20 15 20 5 0 21 11 36 25 15 14 33 25 40 25 8 0 14
10 14 23 0 29 12 46 41 62 36 20 39 18 39 -25z m25773 -1437 c71 -1 140 2 153
7 13 5 24 6 24 1 0 -12 210 -12 232 0 10 5 19 5 22 0 3 -5 46 -9 96 -8 50 0
93 -3 97 -6 3 -4 -1 -15 -10 -25 -18 -20 -23 -57 -8 -66 5 -3 11 -16 13 -28
l4 -23 -460 -3 c-254 -2 -477 -7 -496 -12 -45 -11 -1281 -12 -1299 -1 -11 7
-13 24 -8 77 4 37 11 72 17 78 7 7 248 10 733 9 411 -1 729 2 737 7 8 5 17 6
20 2 3 -4 63 -8 133 -9z m-27680 -31 c60 0 107 4 107 10 0 5 6 6 13 1 16 -10
297 -11 297 0 0 4 8 3 18 -2 12 -6 284 -9 740 -8 484 1 725 -2 732 -9 6 -6 13
-41 17 -78 5 -53 3 -70 -8 -77 -18 -11 -1254 -10 -1299 1 -19 5 -242 10 -496
12 l-460 3 4 23 c2 12 8 25 13 28 15 9 10 46 -8 66 -9 10 -13 21 -10 25 4 3
47 6 97 6 50 -1 93 3 96 8 3 5 12 5 22 0 10 -5 66 -9 125 -9z m28117 -299 c8
-4 23 -5 34 -4 40 5 66 -9 66 -35 0 -57 -78 -344 -93 -344 -5 0 -16 -9 -25
-21 -11 -12 -34 -23 -60 -26 -23 -3 -42 -10 -42 -14 0 -5 -17 -9 -37 -9 -49 0
-89 -34 -98 -82 -6 -30 -3 -39 19 -61 24 -24 31 -25 157 -28 94 -3 134 -8 137
-16 2 -7 10 -13 17 -13 8 0 17 -9 20 -20 3 -11 13 -20 21 -20 8 0 14 -6 14
-12 0 -7 7 -25 15 -41 22 -43 37 -173 32 -282 -7 -153 -24 -307 -38 -354 -13
-43 -6 -130 23 -303 9 -53 8 -70 -2 -83 -19 -23 -46 -18 -65 13 -21 32 -103
112 -116 112 -5 0 -9 7 -9 15 0 16 -65 85 -81 85 -5 0 -9 6 -9 14 0 7 -13 27
-30 44 -16 18 -30 36 -30 41 0 4 -14 25 -30 46 -17 21 -33 50 -37 64 -3 14
-11 29 -17 33 -13 9 -17 186 -5 194 5 3 9 20 9 39 0 23 7 39 21 49 19 13 21
21 15 57 -9 56 -29 119 -38 119 -5 0 -8 6 -8 14 0 8 -13 17 -29 21 -16 3 -32
12 -34 19 -3 8 -33 15 -79 19 -63 5 -85 2 -158 -22 -68 -23 -86 -33 -88 -50
-2 -11 -11 -26 -21 -33 -10 -7 -26 -30 -36 -50 -9 -21 -21 -38 -26 -38 -5 0
-9 -11 -9 -24 0 -26 -41 -49 -48 -27 -2 6 -10 11 -18 11 -8 0 -14 4 -14 8 0 5
-11 15 -25 22 -14 7 -25 18 -25 24 0 7 -9 18 -20 26 -22 16 -27 59 -9 77 6 6
9 19 7 29 -3 16 7 21 52 32 30 7 61 13 67 14 7 1 17 16 24 35 6 18 16 36 22
40 21 13 37 62 37 108 0 35 -4 45 -20 50 -14 5 -20 15 -20 38 0 18 -4 37 -8
43 -9 14 -152 28 -152 14 0 -5 -15 -10 -34 -10 -19 0 -38 -4 -41 -10 -3 -5
-15 -10 -26 -10 -10 0 -19 -4 -19 -10 0 -5 -13 -10 -29 -10 -16 0 -40 -4 -53
-9 -28 -10 -130 4 -167 23 -14 8 -46 20 -71 27 -25 7 -57 25 -71 41 -15 15
-32 28 -38 28 -6 0 -11 4 -11 8 0 16 -117 132 -133 132 -9 0 -19 11 -23 25 -3
14 -12 25 -20 25 -7 0 -19 8 -26 19 -7 10 -24 22 -38 26 -38 11 -60 35 -60 65
l0 27 108 -4 c174 -6 213 -9 220 -20 10 -15 52 -26 52 -14 0 6 13 11 29 11 17
0 33 5 36 10 3 6 48 10 99 10 52 0 97 5 103 11 6 6 57 11 127 11 99 0 123 -4
161 -22 25 -12 45 -26 45 -31 0 -5 7 -9 15 -9 8 0 15 -4 15 -9 0 -5 11 -12 25
-15 14 -4 25 -13 25 -21 0 -8 5 -15 10 -15 6 0 10 -11 10 -25 0 -14 4 -25 9
-25 5 0 16 -19 24 -43 8 -24 26 -56 40 -71 24 -25 30 -27 69 -21 24 4 46 13
50 19 4 6 8 53 8 104 0 50 4 92 9 92 5 0 11 19 15 41 12 74 19 81 85 73 45 -5
61 -3 73 9 8 9 33 17 54 20 48 5 224 -3 244 -10z m-27971 -40 c11 -12 28 -14
72 -9 66 8 73 1 85 -73 4 -22 10 -41 15 -41 5 0 9 -42 9 -92 0 -51 4 -98 8
-104 4 -6 26 -15 50 -19 39 -6 45 -4 69 21 14 15 32 47 40 71 8 24 19 43 24
43 5 0 9 11 9 25 0 14 5 25 10 25 6 0 10 7 10 15 0 8 11 17 25 21 14 3 25 10
25 15 0 5 7 9 15 9 8 0 15 4 15 9 0 5 20 19 45 31 38 18 62 22 161 22 70 0
121 -5 127 -11 6 -6 51 -11 103 -11 51 0 96 -4 99 -10 3 -5 19 -10 36 -10 16
0 29 -5 29 -11 0 -12 42 -1 52 14 7 11 46 14 221 20 l107 4 0 -27 c0 -30 -22
-54 -60 -65 -14 -4 -31 -16 -38 -26 -7 -11 -19 -19 -26 -19 -8 0 -17 -11 -20
-25 -4 -14 -14 -25 -23 -25 -16 0 -133 -116 -133 -132 0 -4 -5 -8 -11 -8 -6 0
-23 -13 -38 -28 -14 -16 -46 -34 -71 -41 -25 -7 -57 -19 -71 -27 -37 -19 -139
-33 -167 -23 -13 5 -37 9 -53 9 -16 0 -29 5 -29 10 0 6 -9 10 -19 10 -11 0
-23 5 -26 10 -3 6 -22 10 -41 10 -19 0 -34 5 -34 10 0 14 -143 0 -152 -14 -4
-6 -8 -25 -8 -43 0 -23 -6 -33 -20 -38 -16 -5 -20 -15 -20 -50 0 -46 16 -95
37 -108 6 -4 16 -22 22 -40 7 -19 17 -34 24 -35 6 -1 37 -7 67 -14 45 -11 55
-16 52 -32 -2 -10 1 -23 7 -29 18 -18 13 -61 -9 -77 -11 -8 -20 -19 -20 -26 0
-6 -11 -17 -25 -24 -14 -7 -25 -17 -25 -22 0 -4 -6 -8 -14 -8 -8 0 -16 -5 -18
-11 -7 -22 -48 1 -48 27 0 13 -4 24 -9 24 -5 0 -17 17 -26 38 -10 20 -26 43
-36 50 -10 7 -19 22 -21 33 -2 17 -20 27 -88 50 -73 24 -95 27 -158 22 -46 -4
-76 -11 -79 -19 -2 -7 -18 -16 -34 -19 -16 -4 -29 -13 -29 -21 0 -8 -3 -14 -8
-14 -9 0 -29 -63 -38 -119 -6 -36 -4 -44 15 -57 14 -10 21 -26 21 -49 0 -19 4
-36 9 -39 12 -8 8 -185 -5 -194 -6 -4 -14 -19 -17 -33 -4 -14 -20 -43 -37 -64
-16 -21 -30 -42 -30 -46 0 -5 -13 -23 -30 -41 -16 -17 -30 -37 -30 -44 0 -8
-4 -14 -9 -14 -16 0 -81 -69 -81 -85 0 -8 -4 -15 -9 -15 -13 0 -95 -80 -116
-112 -19 -31 -46 -36 -65 -13 -10 13 -11 30 -2 83 29 173 36 260 23 303 -14
47 -31 201 -38 354 -5 109 10 239 32 282 8 16 15 34 15 41 0 6 6 12 14 12 8 0
18 9 21 20 3 11 12 20 20 20 7 0 15 6 17 13 3 8 43 13 137 16 126 3 133 4 157
28 22 22 25 31 19 61 -9 48 -49 82 -97 82 -21 0 -38 4 -38 9 0 4 -19 11 -42
14 -26 3 -49 14 -60 26 -9 12 -20 21 -25 21 -15 0 -93 287 -93 344 0 26 26 40
66 35 11 -1 26 1 34 4 49 21 276 13 299 -10z m25911 7 c0 -5 7 -10 15 -10 8 0
15 -4 15 -10 0 -13 37 -50 50 -50 6 0 10 -4 10 -10 0 -5 11 -12 25 -16 14 -3
25 -12 25 -20 0 -8 7 -14 15 -14 20 0 74 -58 81 -87 4 -14 14 -23 25 -23 10 0
19 -4 19 -10 0 -5 7 -10 15 -10 8 0 15 -4 15 -10 0 -12 118 -130 130 -130 6 0
10 -7 10 -15 0 -8 5 -15 10 -15 6 0 20 -9 32 -20 12 -11 27 -20 34 -20 6 0 17
-13 23 -28 7 -16 26 -36 44 -47 32 -18 77 -62 77 -75 0 -4 9 -10 21 -13 11 -3
23 -14 26 -25 3 -11 16 -23 29 -26 15 -4 24 -14 24 -26 0 -11 7 -20 15 -20 8
0 15 -5 15 -10 0 -6 8 -14 18 -17 21 -9 42 -28 42 -41 0 -6 7 -12 15 -16 8 -3
15 -12 15 -21 0 -9 9 -15 25 -15 18 0 26 -7 31 -25 3 -14 12 -25 20 -25 21 0
104 -88 104 -111 0 -12 7 -19 19 -19 10 0 21 -7 25 -15 3 -8 15 -15 26 -15 11
0 20 -7 20 -15 0 -8 6 -15 14 -15 8 0 20 -13 28 -30 7 -16 19 -30 25 -30 7 0
13 -4 13 -10 0 -5 6 -10 13 -10 7 0 17 -10 22 -22 6 -12 18 -26 28 -32 11 -6
37 -28 58 -49 22 -21 51 -42 65 -47 13 -5 28 -18 31 -27 8 -21 60 -73 73 -73
6 0 10 -4 10 -10 0 -5 8 -10 18 -10 12 0 23 -13 32 -34 8 -22 22 -37 37 -41
12 -3 23 -12 23 -20 0 -8 7 -15 15 -15 8 0 15 -4 15 -10 0 -5 7 -10 15 -10 8
0 15 -5 15 -11 0 -12 88 -99 101 -99 5 0 9 -7 9 -15 0 -8 5 -15 10 -15 6 0 36
-27 68 -60 32 -33 64 -60 70 -60 7 0 12 -7 12 -15 0 -8 6 -15 13 -15 8 0 20
-11 27 -25 7 -14 19 -25 26 -25 7 0 19 -10 25 -22 14 -26 49 -57 66 -58 6 0
14 -14 18 -30 4 -17 12 -30 19 -30 17 0 46 -37 46 -59 0 -13 -10 -20 -31 -25
-55 -11 -99 -7 -105 9 -4 8 -11 15 -18 15 -6 0 -20 9 -29 21 -10 11 -31 25
-47 31 -24 8 -30 16 -30 39 0 19 -5 29 -15 29 -8 0 -15 5 -15 10 0 6 -4 10
-10 10 -13 0 -46 26 -96 77 -23 24 -47 43 -53 43 -6 0 -11 4 -11 9 0 13 -76
91 -89 91 -6 0 -11 5 -11 10 0 6 -9 10 -19 10 -12 0 -24 12 -32 30 -8 16 -26
35 -41 41 -16 6 -28 18 -28 25 0 8 -5 14 -11 14 -14 0 -39 25 -39 39 0 6 -7
11 -15 11 -8 0 -15 6 -15 13 0 6 -14 21 -30 32 -16 11 -30 26 -30 33 0 6 -6
12 -14 12 -7 0 -33 21 -58 48 -24 26 -59 59 -76 75 -18 15 -32 32 -32 37 0 6
-7 10 -15 10 -8 0 -15 7 -15 15 0 8 -7 15 -15 15 -9 0 -18 7 -21 15 -4 8 -21
22 -40 31 -25 12 -34 23 -34 40 0 13 -4 24 -10 24 -5 0 -10 6 -10 14 0 7 -13
16 -30 20 -18 3 -30 12 -30 21 0 8 -6 15 -13 15 -7 0 -38 26 -69 58 -80 80
-93 92 -106 92 -6 0 -14 9 -17 21 -9 27 -120 135 -156 151 -16 7 -29 18 -29
24 0 7 -9 14 -20 17 -12 3 -20 14 -20 26 0 14 -6 21 -20 21 -11 0 -20 4 -20 8
0 14 -36 52 -49 52 -6 0 -11 5 -11 10 0 6 -4 10 -9 10 -12 0 -91 78 -91 90 0
6 -4 10 -8 10 -4 0 -32 23 -62 50 -30 28 -58 50 -62 50 -4 0 -8 6 -8 14 0 8
-11 17 -25 20 -14 4 -25 13 -25 21 0 8 -6 15 -13 15 -8 0 -19 11 -27 24 -7 13
-21 27 -31 29 -11 3 -19 12 -19 21 0 9 -8 16 -20 16 -11 0 -20 4 -20 9 0 5 -9
13 -20 16 -11 3 -20 12 -20 20 0 7 -14 19 -31 27 -30 13 -31 14 -24 70 4 37 2
57 -5 60 -7 2 -9 14 -5 31 5 20 13 27 31 27 13 0 24 -4 24 -10z m-24095 -47
c4 -17 2 -29 -5 -31 -7 -3 -9 -23 -5 -60 7 -56 6 -57 -24 -70 -17 -8 -31 -20
-31 -27 0 -8 -9 -17 -20 -20 -11 -3 -20 -11 -20 -16 0 -5 -9 -9 -20 -9 -12 0
-20 -7 -20 -16 0 -9 -8 -18 -19 -21 -10 -2 -24 -16 -31 -29 -8 -13 -19 -24
-27 -24 -7 0 -13 -7 -13 -15 0 -8 -11 -17 -25 -21 -14 -3 -25 -12 -25 -20 0
-8 -4 -14 -8 -14 -4 0 -32 -22 -62 -50 -30 -27 -58 -50 -62 -50 -4 0 -8 -4 -8
-10 0 -12 -79 -90 -91 -90 -5 0 -9 -4 -9 -10 0 -5 -5 -10 -11 -10 -13 0 -49
-38 -49 -52 0 -4 -9 -8 -20 -8 -14 0 -20 -7 -20 -21 0 -12 -8 -23 -20 -26 -11
-3 -20 -10 -20 -17 0 -6 -13 -17 -29 -24 -36 -16 -147 -124 -156 -151 -3 -12
-11 -21 -17 -21 -13 0 -26 -12 -106 -92 -31 -32 -62 -58 -69 -58 -7 0 -13 -7
-13 -15 0 -9 -12 -18 -30 -21 -16 -4 -30 -13 -30 -20 0 -8 -4 -14 -10 -14 -5
0 -10 -11 -10 -24 0 -17 -9 -28 -34 -40 -19 -9 -36 -23 -40 -31 -3 -8 -12 -15
-21 -15 -8 0 -15 -7 -15 -15 0 -8 -7 -15 -15 -15 -8 0 -15 -4 -15 -10 0 -5
-14 -22 -32 -37 -17 -16 -52 -49 -76 -75 -25 -27 -51 -48 -58 -48 -8 0 -14 -6
-14 -12 0 -7 -14 -22 -30 -33 -16 -11 -30 -26 -30 -32 0 -7 -7 -13 -15 -13 -8
0 -15 -5 -15 -11 0 -14 -25 -39 -39 -39 -6 0 -11 -6 -11 -14 0 -7 -12 -19 -28
-25 -15 -6 -33 -25 -41 -41 -8 -18 -20 -30 -32 -30 -10 0 -19 -4 -19 -10 0 -5
-5 -10 -11 -10 -13 0 -89 -78 -89 -91 0 -5 -5 -9 -11 -9 -6 0 -30 -19 -53 -42
-50 -52 -83 -78 -96 -78 -6 0 -10 -4 -10 -10 0 -5 -7 -10 -15 -10 -10 0 -15
-10 -15 -29 0 -23 -6 -31 -30 -39 -16 -6 -37 -20 -47 -31 -9 -12 -23 -21 -29
-21 -7 0 -14 -7 -18 -15 -6 -16 -50 -20 -105 -9 -21 5 -31 12 -31 25 0 22 29
59 46 59 7 0 15 14 19 30 4 16 12 30 18 30 17 1 52 32 66 58 6 12 18 22 25 22
7 0 19 11 26 25 7 14 19 25 27 25 7 0 13 7 13 15 0 8 5 15 12 15 6 0 38 27 70
60 32 33 62 60 68 60 5 0 10 7 10 15 0 8 4 15 9 15 13 0 101 87 101 99 0 6 7
11 15 11 8 0 15 5 15 10 0 6 7 10 15 10 8 0 15 7 15 15 0 8 11 17 23 20 15 4
29 19 37 41 9 21 20 34 32 34 10 0 18 5 18 10 0 6 4 10 10 10 13 0 65 52 73
73 3 9 18 22 31 27 14 5 43 26 65 47 21 21 47 43 58 49 10 6 22 20 28 32 5 12
15 22 22 22 7 0 13 5 13 10 0 6 6 10 13 10 6 0 18 14 25 30 8 17 20 30 28 30
8 0 14 7 14 15 0 8 9 15 20 15 11 0 23 7 26 15 4 8 15 15 25 15 12 0 19 7 19
19 0 23 83 111 104 111 8 0 17 11 20 25 5 18 13 25 31 25 16 0 25 6 25 15 0 9
7 18 15 21 8 4 15 10 15 16 0 13 26 38 40 38 6 0 13 7 16 15 4 8 12 15 20 15
8 0 14 9 14 20 0 12 9 22 24 26 13 3 26 15 29 26 3 11 15 22 26 25 12 3 21 9
21 13 0 13 45 57 77 75 18 11 37 31 44 47 6 15 17 28 23 28 7 0 22 9 34 20 12
11 26 20 32 20 5 0 10 7 10 15 0 8 4 15 10 15 12 0 130 118 130 130 0 6 7 10
15 10 8 0 15 5 15 10 0 6 9 10 19 10 11 0 21 9 25 23 7 29 61 87 81 87 8 0 15
6 15 14 0 8 11 17 25 20 14 4 25 11 25 16 0 6 5 10 10 10 6 0 19 9 30 20 11
11 20 25 20 30 0 6 7 10 15 10 8 0 15 5 15 10 0 6 11 10 24 10 18 0 26 -7 31
-27z m24235 -500 c0 -7 5 -13 11 -13 13 0 39 -25 39 -39 0 -5 9 -16 19 -23 11
-8 25 -26 32 -41 7 -15 16 -27 21 -27 12 0 38 -26 38 -37 0 -11 37 -43 49 -43
5 0 12 -17 16 -37 4 -21 10 -40 13 -43 4 -3 16 -23 26 -45 16 -32 21 -67 24
-172 2 -73 8 -133 13 -133 5 0 9 -11 9 -25 0 -14 5 -25 10 -25 6 0 10 -6 10
-12 1 -14 45 -68 55 -68 3 0 18 -12 33 -26 23 -22 33 -25 71 -20 24 3 63 6 87
6 24 0 44 5 44 10 0 13 37 50 50 50 6 0 10 4 10 9 0 5 10 13 23 17 12 4 33 15
45 25 23 18 24 18 49 -7 19 -19 23 -31 18 -54 -4 -17 -11 -30 -16 -30 -5 0 -9
-16 -9 -35 0 -19 -4 -35 -10 -35 -12 0 -13 -94 -1 -118 4 -9 16 -31 25 -49 9
-17 16 -36 16 -42 0 -19 47 -61 68 -61 10 0 23 5 30 12 7 7 29 11 49 10 21 -2
40 2 44 10 10 17 171 16 177 -1 2 -6 12 -11 23 -11 10 0 19 -6 19 -14 0 -8 11
-17 25 -20 14 -4 25 -11 25 -16 0 -6 9 -10 20 -10 11 0 20 -3 20 -7 0 -5 18
-19 40 -33 22 -13 40 -27 40 -30 0 -4 14 -22 30 -40 17 -18 30 -41 30 -51 0
-9 10 -19 24 -23 13 -3 26 -15 29 -26 3 -11 13 -23 24 -27 10 -3 33 -18 51
-31 42 -32 42 -63 2 -81 -31 -13 -39 -13 -165 9 -86 15 -233 9 -245 -10 -15
-24 -261 -34 -357 -14 -13 2 -23 11 -23 18 0 8 -12 17 -27 21 -21 4 -34 19
-51 53 -12 26 -22 53 -22 60 0 7 -6 30 -12 52 -10 30 -19 41 -40 46 -16 3 -28
10 -28 15 0 14 -54 11 -74 -4 -10 -8 -20 -34 -25 -67 -8 -56 -35 -120 -50
-120 -5 0 -26 -16 -46 -36 -44 -42 -40 -41 -287 -48 -171 -5 -178 -4 -178 15
0 10 4 19 9 19 10 0 18 46 27 153 4 37 10 67 15 67 5 0 9 13 9 29 0 16 6 34
14 40 8 7 17 30 21 52 4 24 12 39 21 39 8 0 14 9 14 19 0 14 10 21 33 26 17 4
37 11 42 15 6 4 34 10 64 12 32 3 59 12 66 21 6 8 22 17 35 19 34 4 39 40 8
60 -36 23 -166 44 -188 30 -29 -18 -110 17 -110 47 0 6 -11 13 -25 17 -14 3
-25 12 -25 19 0 7 -7 15 -15 19 -8 3 -15 14 -15 25 0 11 -5 23 -11 27 -8 4
-10 26 -6 65 4 33 3 59 -3 61 -5 2 -9 39 -8 83 5 322 3 412 -11 429 -11 13
-15 49 -17 124 -1 59 1 111 3 116 7 10 92 -74 93 -91z m-24334 -52 c-2 -78 -7
-115 -17 -127 -14 -17 -16 -107 -11 -429 1 -44 -3 -81 -8 -83 -6 -2 -7 -28 -3
-61 4 -39 2 -61 -6 -65 -6 -4 -11 -16 -11 -27 0 -11 -7 -22 -15 -25 -8 -4 -15
-12 -15 -19 0 -7 -11 -16 -25 -19 -14 -4 -25 -11 -25 -17 0 -30 -81 -65 -110
-47 -22 14 -152 -7 -188 -30 -31 -20 -26 -56 8 -60 13 -2 29 -11 35 -19 7 -9
34 -18 66 -21 30 -2 59 -8 64 -12 6 -4 25 -11 43 -15 22 -5 32 -12 32 -26 0
-10 6 -19 14 -19 9 0 17 -15 21 -39 4 -22 13 -45 21 -52 8 -6 14 -24 14 -40 0
-16 4 -29 9 -29 5 0 11 -30 15 -67 9 -107 17 -153 27 -153 5 0 9 -9 9 -19 0
-19 -7 -20 -177 -15 -248 7 -244 6 -288 48 -20 20 -41 36 -46 36 -15 0 -42 64
-50 120 -5 33 -15 59 -25 67 -20 15 -74 18 -74 4 0 -5 -12 -12 -28 -15 -21 -5
-30 -16 -40 -46 -6 -22 -12 -45 -12 -52 0 -7 -10 -34 -22 -60 -17 -34 -30 -49
-50 -53 -16 -4 -28 -13 -28 -21 0 -7 -10 -16 -22 -18 -97 -20 -343 -10 -358
14 -12 19 -159 25 -245 10 -126 -22 -134 -22 -165 -9 -40 18 -40 49 3 81 17
13 40 28 50 31 11 4 21 16 24 27 3 11 16 23 29 26 14 4 24 14 24 23 0 10 14
33 30 51 17 18 30 36 30 40 0 3 18 17 40 30 22 14 40 28 40 33 0 4 9 7 20 7
11 0 20 4 20 10 0 5 11 12 25 16 14 3 25 12 25 20 0 8 9 14 19 14 11 0 21 5
23 11 6 17 167 18 177 1 4 -8 23 -12 44 -10 20 1 42 -3 49 -10 7 -7 20 -12 30
-12 21 0 68 42 68 61 0 6 7 25 16 42 9 18 21 40 25 49 12 24 11 118 -1 118 -5
0 -10 16 -10 35 0 19 -4 35 -9 35 -5 0 -12 13 -16 30 -5 23 -1 35 18 54 25 25
26 25 49 7 12 -10 33 -21 46 -25 12 -4 22 -12 22 -17 0 -5 5 -9 10 -9 13 0 50
-37 50 -50 0 -5 20 -10 44 -10 24 0 63 -3 87 -6 38 -5 48 -2 71 20 15 14 30
26 33 26 10 0 54 54 55 68 0 6 5 12 10 12 6 0 10 11 10 25 0 14 4 25 9 25 5 0
11 60 13 133 3 105 8 140 24 172 10 22 22 42 26 45 3 3 9 22 13 43 4 20 11 37
16 37 12 0 49 32 49 43 0 11 26 37 38 37 5 0 14 12 21 27 7 15 21 33 32 41 10
7 19 18 19 23 0 14 26 39 39 39 6 0 11 5 11 11 0 15 81 99 90 94 5 -3 7 -54 6
-114z"/>
</g>
</svg>
