<?xml version="1.0" standalone="no"?>
<!DOCTYPE svg PUBLIC "-//W3C//DTD SVG 20010904//EN"
 "http://www.w3.org/TR/2001/REC-SVG-20010904/DTD/svg10.dtd">
<svg version="1.0" xmlns="http://www.w3.org/2000/svg"
 width="2161.000000pt" height="788.000000pt" viewBox="0 0 2161.000000 788.000000"
 preserveAspectRatio="xMidYMid meet">
<metadata>
Created by potrace 1.13, written by Peter Selinger 2001-2015
</metadata>
<g transform="translate(0.000000,788.000000) scale(0.100000,-0.100000)"
fill="#000000" stroke="none">
<path d="M11194 7215 c-4 -8 -15 -15 -25 -15 -10 0 -19 -5 -19 -11 0 -14 -25
-39 -39 -39 -6 0 -11 -5 -11 -11 0 -6 -18 -27 -39 -47 -37 -35 -71 -97 -71
-129 0 -24 -65 -80 -101 -86 -19 -4 -105 -8 -192 -9 -178 -3 -161 -12 -170 83
-3 30 -14 59 -31 81 -14 19 -26 40 -26 47 0 26 -70 115 -101 128 -17 7 -62 13
-100 13 -65 0 -70 -2 -79 -26 -16 -40 -12 -91 6 -98 10 -4 14 -12 10 -22 -3
-9 5 -30 19 -48 14 -18 25 -38 25 -44 0 -7 5 -12 10 -12 6 0 10 -7 10 -15 0
-8 8 -15 18 -15 10 0 28 -11 39 -24 12 -13 37 -30 57 -37 20 -7 36 -17 36 -21
0 -4 5 -8 11 -8 33 0 60 -88 36 -118 -7 -9 -7 -16 0 -20 14 -10 22 -61 10 -65
-6 -2 -7 -9 -2 -17 10 -15 13 -130 4 -124 -4 2 -6 -14 -5 -36 0 -22 3 -40 6
-40 6 0 6 -96 0 -115 -7 -27 -4 -121 5 -127 7 -5 6 -11 -1 -15 -14 -10 -15
-134 -2 -150 7 -9 7 -13 -1 -13 -13 0 -10 -87 3 -108 3 -6 0 -13 -6 -16 -10
-5 -10 -7 -1 -12 9 -4 10 -11 3 -25 -6 -10 -7 -19 -3 -19 4 0 2 -5 -4 -11 -14
-14 -93 -29 -93 -18 0 14 -78 10 -83 -3 -4 -10 -8 -9 -16 2 -10 13 -12 13 -21
0 -6 -10 -13 -11 -17 -5 -11 15 -126 16 -135 1 -6 -8 -10 -8 -16 1 -9 14 -203
13 -215 -2 -6 -6 -10 -6 -14 3 -5 13 -33 17 -33 5 0 -5 -18 -9 -40 -10 -25 -2
-40 2 -40 9 0 9 -3 9 -12 0 -7 -7 -36 -12 -65 -12 -29 0 -53 -4 -53 -10 0 -5
-7 -10 -15 -10 -8 0 -15 4 -15 9 0 5 -17 9 -37 8 -21 -1 -38 4 -41 11 -2 7
-17 25 -33 41 -16 16 -29 33 -29 38 0 4 -13 18 -28 30 -15 12 -44 38 -64 57
-21 20 -42 36 -48 36 -5 0 -10 3 -10 8 0 4 -27 8 -60 10 -58 2 -60 1 -66 -25
-3 -16 -7 -33 -9 -40 -6 -20 18 -83 32 -83 7 0 13 -4 13 -10 0 -5 7 -10 15
-10 8 0 15 -7 15 -16 0 -10 6 -14 15 -10 9 3 15 0 15 -9 0 -8 7 -15 15 -15 8
0 15 -3 15 -8 0 -7 30 -25 63 -38 9 -3 17 -10 17 -15 0 -5 7 -9 15 -9 8 0 15
-4 15 -10 0 -5 18 -10 40 -10 22 0 40 -4 40 -10 0 -5 6 -10 14 -10 21 0 26
-24 25 -130 0 -52 2 -108 6 -123 9 -33 -9 -51 -67 -67 -22 -6 -38 -17 -38 -25
0 -8 -4 -15 -9 -15 -15 0 -87 -76 -84 -87 2 -6 -7 -23 -20 -37 -29 -31 -44
-105 -27 -136 12 -22 49 -35 78 -26 19 6 184 167 190 186 2 6 10 10 18 10 17
0 18 12 2 28 -8 8 -8 15 1 25 23 29 101 38 310 37 113 -1 293 -1 399 -1 155 1
196 -2 208 -13 18 -18 18 -30 1 -23 -10 4 -13 -9 -12 -52 1 -31 5 -64 9 -73 4
-9 5 -22 1 -29 -4 -6 -2 -15 6 -19 10 -7 10 -11 0 -24 -10 -12 -11 -19 -2 -30
9 -11 9 -15 0 -18 -8 -3 -9 -9 -4 -18 9 -15 14 -99 6 -114 -9 -18 -8 -121 2
-127 5 -4 3 -16 -5 -29 -10 -17 -10 -24 -1 -27 8 -3 9 -12 3 -28 -5 -12 -6
-26 -3 -29 11 -11 13 -156 2 -183 -7 -19 -7 -29 0 -31 6 -2 11 -8 11 -13 0 -6
-4 -7 -10 -4 -6 4 -8 -13 -4 -47 7 -65 7 -101 1 -153 -2 -22 0 -48 5 -57 5
-10 5 -18 1 -18 -5 0 -7 -17 -6 -37 3 -45 5 -123 4 -140 -2 -25 -46 -38 -133
-42 -16 -1 -37 -10 -48 -21 -11 -11 -27 -20 -36 -20 -9 0 -30 -13 -46 -30 -15
-16 -33 -30 -39 -30 -7 0 -9 -10 -5 -24 3 -13 2 -26 -3 -28 -15 -5 -23 -151
-11 -204 6 -27 20 -54 30 -61 11 -8 20 -20 20 -26 0 -7 9 -19 21 -27 11 -8 30
-23 42 -33 11 -10 32 -20 46 -23 75 -17 105 -27 117 -38 14 -15 16 -76 2 -76
-4 0 -8 -6 -8 -14 0 -8 -13 -20 -30 -28 -16 -7 -31 -20 -31 -28 -1 -8 -2 -24
-3 -35 -1 -11 -14 -26 -31 -35 -16 -8 -32 -16 -34 -17 -2 -1 -5 -57 -7 -124
-2 -79 -8 -125 -15 -130 -8 -4 -10 -25 -7 -57 4 -38 1 -52 -9 -57 -25 -9 -30
-6 -36 25 -4 18 -13 30 -22 30 -8 0 -15 8 -15 18 0 9 -7 30 -15 46 -8 15 -15
37 -15 47 0 11 -4 19 -10 19 -5 0 -10 5 -10 11 0 6 -11 25 -25 43 -14 18 -25
40 -25 49 0 10 -7 17 -17 17 -9 0 -14 3 -10 6 3 3 -5 16 -19 29 -13 12 -24 27
-24 34 0 6 -4 11 -9 11 -5 0 -12 12 -15 26 -4 14 -17 36 -29 49 -12 12 -49 53
-82 90 -81 91 -85 95 -95 95 -16 0 -20 33 -5 50 8 9 15 22 15 28 0 7 4 12 10
12 5 0 7 22 4 53 -3 28 -6 80 -7 114 -1 35 -5 63 -9 63 -5 0 -8 20 -8 45 0 44
-21 91 -47 108 -7 4 -13 17 -13 27 0 11 -4 20 -10 20 -5 0 -10 6 -10 13 0 23
-59 105 -80 110 -12 3 -20 14 -20 25 0 22 -24 30 -118 39 -59 5 -135 -17 -150
-44 -7 -12 -18 -14 -51 -8 -32 5 -42 12 -47 31 -3 13 -11 24 -17 24 -6 0 -20
9 -32 20 -48 46 -66 60 -75 60 -5 0 -10 5 -10 10 0 6 -8 10 -18 10 -10 0 -26
6 -37 14 -11 7 -31 17 -45 21 -13 4 -30 14 -38 21 -7 8 -21 18 -30 23 -15 9
-15 11 3 31 11 13 15 24 9 28 -5 4 -9 22 -9 40 1 18 -5 38 -12 44 -7 6 -13 22
-13 35 0 25 -71 108 -83 97 -10 -10 -47 7 -47 21 0 8 -12 18 -27 21 -16 4 -31
11 -34 17 -11 15 -169 -2 -169 -19 0 -8 -6 -14 -14 -14 -8 0 -17 -11 -20 -25
-4 -16 -13 -25 -26 -25 -13 0 -22 -9 -26 -27 -3 -16 -9 -39 -13 -53 -5 -14 -7
-38 -6 -55 1 -29 -14 -55 -33 -55 -5 0 -14 11 -22 24 -7 13 -21 27 -31 29 -11
3 -19 12 -19 21 0 9 -4 16 -10 16 -5 0 -10 7 -10 15 0 8 -4 15 -8 15 -5 0 -15
11 -22 25 -7 14 -18 25 -24 25 -7 0 -20 20 -31 45 -12 27 -28 46 -41 49 -19 5
-38 37 -35 59 1 4 -4 7 -9 7 -6 0 -10 5 -10 10 0 6 -16 27 -35 47 -20 20 -38
47 -41 60 -4 13 -10 23 -15 23 -5 0 -9 7 -9 15 0 25 -77 95 -105 95 -15 0 -25
6 -25 14 0 13 -20 26 -41 26 -5 0 -9 -18 -9 -40 0 -22 4 -40 10 -40 5 0 7 -7
4 -15 -4 -8 -1 -15 5 -15 15 0 14 -27 -1 -33 -8 -3 -6 -6 5 -6 10 -1 17 -9 17
-21 0 -11 6 -23 14 -26 10 -4 13 -15 9 -40 -4 -27 -2 -34 11 -34 9 0 16 -7 16
-15 0 -8 4 -15 9 -15 5 0 12 -15 15 -32 4 -18 9 -45 13 -60 3 -16 12 -28 20
-28 12 0 14 -8 10 -35 -3 -19 -2 -35 3 -35 11 0 26 -56 35 -130 8 -66 47 -167
71 -182 7 -4 15 -24 18 -43 4 -19 11 -35 16 -35 6 0 10 -9 10 -19 0 -11 7 -26
15 -35 8 -8 15 -19 15 -25 0 -6 4 -11 9 -11 5 0 11 -9 14 -20 3 -11 12 -20 21
-20 9 0 16 -5 16 -11 0 -13 25 -39 39 -39 5 0 11 -10 13 -22 2 -13 11 -24 21
-26 19 -4 87 -67 87 -80 0 -5 16 -14 35 -22 19 -8 35 -17 35 -21 0 -4 3 -14 6
-23 4 -10 1 -16 -8 -16 -16 0 -38 -60 -38 -103 0 -14 -4 -29 -10 -32 -5 -3
-10 -22 -10 -41 0 -19 5 -34 10 -34 6 0 10 -8 10 -17 0 -27 43 -113 57 -113 7
0 24 -11 38 -24 15 -14 41 -28 58 -32 18 -4 40 -16 50 -27 12 -14 37 -23 78
-29 33 -4 66 -14 72 -20 7 -7 12 -42 13 -78 0 -63 36 -170 56 -170 4 0 8 -7 8
-15 0 -8 6 -15 14 -15 8 0 18 -9 21 -20 3 -11 13 -20 21 -20 8 0 14 -4 14 -10
0 -5 11 -10 25 -10 14 0 25 -6 25 -12 1 -18 67 -58 96 -58 13 0 24 -4 24 -10
0 -5 15 -10 33 -11 17 0 25 -3 17 -6 -18 -8 64 -33 107 -33 17 0 33 -5 35 -10
2 -6 45 -15 95 -21 92 -10 93 -10 118 15 14 15 31 26 37 26 7 0 2 9 -10 20
-12 11 -26 20 -31 20 -5 0 -12 8 -15 18 -3 9 -19 23 -36 30 -16 8 -30 20 -30
28 0 8 -7 14 -15 14 -8 0 -15 4 -15 10 0 5 -7 7 -15 4 -10 -4 -15 0 -15 12 0
9 -7 25 -16 35 -15 16 -14 20 11 53 23 30 34 36 66 36 21 0 40 -4 43 -9 3 -5
25 -13 49 -19 24 -6 56 -23 71 -37 15 -14 31 -25 36 -25 5 0 13 -6 17 -13 4
-7 24 -18 43 -23 28 -8 36 -15 38 -37 2 -15 10 -27 18 -27 8 0 14 -6 14 -14 0
-8 11 -17 25 -20 14 -4 25 -12 25 -19 0 -7 9 -19 20 -27 11 -8 20 -20 20 -27
0 -7 4 -13 8 -13 5 0 15 -25 22 -55 9 -37 19 -57 32 -60 10 -4 18 -15 18 -26
0 -10 5 -19 10 -19 6 0 10 -14 10 -31 0 -18 7 -37 16 -43 20 -15 8 -46 -18
-46 -10 0 -49 7 -85 17 -53 13 -72 14 -98 5 -17 -7 -40 -12 -51 -12 -11 0 -26
-9 -34 -20 -8 -11 -18 -20 -22 -20 -19 0 -88 -86 -88 -110 0 -27 -35 -48 -74
-45 -21 2 -42 7 -45 12 -25 35 -303 56 -346 27 -10 -8 -30 -14 -42 -14 -18 0
-23 6 -23 24 0 27 -18 65 -43 90 -29 29 -106 66 -138 66 -16 0 -29 5 -29 11 0
13 -109 3 -124 -12 -6 -5 -18 -9 -28 -9 -22 0 -58 -30 -58 -47 0 -7 -9 -13
-20 -13 -14 0 -22 -11 -32 -43 -6 -23 -22 -52 -35 -64 -21 -20 -32 -22 -136
-20 -71 1 -119 -2 -128 -9 -8 -6 -45 -10 -82 -9 -75 2 -87 10 -87 59 0 18 -9
35 -25 48 -14 11 -25 28 -25 39 0 10 -7 19 -15 19 -8 0 -15 4 -15 8 0 22 -143
61 -155 42 -3 -5 -18 -10 -32 -10 -14 0 -41 -11 -59 -25 -18 -14 -41 -25 -51
-26 -10 0 -13 -3 -5 -6 17 -7 15 -23 -3 -23 -8 0 -15 -4 -15 -10 0 -5 -9 -10
-20 -10 -23 0 -40 -28 -40 -68 0 -26 -4 -30 -32 -35 -18 -2 -58 -1 -88 4 -61
10 -267 -6 -287 -23 -7 -5 -20 -7 -30 -4 -14 4 -19 18 -21 58 -2 29 -7 55 -12
56 -6 2 -10 15 -10 28 0 14 -7 27 -15 30 -8 4 -15 12 -15 20 0 8 -9 14 -20 14
-12 0 -32 7 -45 16 -30 20 -176 17 -183 -4 -2 -7 -12 -12 -22 -12 -10 0 -20
-7 -24 -15 -3 -8 -12 -15 -21 -15 -8 0 -15 -7 -15 -15 0 -8 -7 -15 -15 -15 -8
0 -15 -7 -15 -15 0 -8 -4 -15 -10 -15 -5 0 -10 -10 -10 -22 0 -13 -3 -34 -7
-46 -6 -24 -7 -24 -97 -16 -106 8 -91 8 -186 0 -41 -4 -78 -12 -81 -18 -9 -15
-69 12 -70 32 -8 72 -20 110 -37 110 -8 0 -13 3 -9 6 9 9 -43 54 -63 54 -9 0
-25 8 -36 18 -22 19 -124 30 -124 13 0 -6 -14 -11 -31 -11 -21 0 -40 -9 -55
-25 -13 -14 -32 -25 -44 -25 -13 0 -20 -7 -20 -20 0 -11 -9 -25 -20 -32 -11
-7 -20 -18 -20 -25 0 -7 -4 -13 -10 -13 -5 0 -10 -13 -10 -29 0 -26 -4 -30
-41 -36 -23 -4 -44 -3 -48 2 -7 11 -174 10 -258 -1 -61 -9 -62 -9 -69 18 -3
14 -10 26 -14 26 -4 0 -10 14 -13 30 -4 18 -13 30 -22 30 -8 0 -15 5 -15 10 0
6 -9 10 -21 10 -11 0 -17 4 -14 10 3 6 0 10 -9 10 -8 0 -16 3 -18 8 -1 4 -17
15 -35 25 -38 21 -108 22 -147 2 -15 -8 -35 -15 -43 -15 -7 0 -25 -11 -39 -25
-14 -14 -29 -25 -34 -25 -12 0 -30 -34 -30 -56 0 -9 -8 -35 -17 -56 -16 -37
-18 -38 -70 -38 -29 0 -53 4 -53 9 0 17 -54 23 -65 7 -8 -11 -31 -15 -89 -14
-43 0 -81 -4 -85 -10 -3 -5 -34 -13 -68 -17 l-63 -7 0 31 c0 17 -4 31 -10 31
-5 0 -14 17 -19 37 -13 44 -83 113 -117 113 -12 0 -29 7 -38 15 -18 19 -70 19
-85 1 -7 -8 -28 -14 -48 -13 -21 1 -38 -4 -41 -11 -2 -7 -10 -12 -18 -12 -16
0 -64 -44 -64 -58 0 -5 -9 -12 -20 -15 -14 -4 -20 -14 -20 -35 0 -18 -6 -32
-16 -36 -23 -9 -64 -7 -64 2 0 12 -240 6 -273 -7 -16 -6 -60 -11 -98 -11 -39
0 -69 -4 -69 -10 0 -5 -12 -10 -28 -10 -16 0 -32 -8 -40 -20 -9 -15 -23 -20
-52 -20 -29 0 -40 -4 -40 -15 0 -8 -5 -15 -11 -15 -7 0 -17 -8 -24 -17 -11
-15 -15 -15 -29 -4 -9 7 -16 18 -16 24 0 11 -47 57 -59 57 -17 0 -34 50 -28
84 3 22 2 36 -5 36 -5 0 -8 6 -5 14 3 8 1 16 -4 18 -6 2 -13 48 -16 103 -3 55
-8 107 -13 115 -11 22 -3 260 9 293 6 16 8 33 5 39 -4 6 -1 14 7 19 7 4 18 25
24 46 9 32 19 43 63 65 28 15 52 23 52 19 0 -5 17 -13 38 -18 23 -5 41 -17 47
-31 5 -12 16 -22 23 -22 9 0 11 -7 7 -20 -8 -26 35 -38 80 -21 17 6 40 11 51
11 16 0 17 2 4 11 -13 8 -12 12 7 26 13 8 23 22 23 29 0 8 5 14 10 14 6 0 10
9 10 20 0 11 5 20 10 20 6 0 10 15 10 33 0 18 5 38 11 44 15 15 15 163 1 190
-7 12 -12 34 -12 48 0 17 -9 35 -24 46 -14 11 -30 35 -36 54 -6 19 -20 40 -31
45 -10 6 -19 17 -19 25 0 9 -10 15 -23 15 -14 0 -24 6 -24 15 0 8 4 15 8 15 5
0 16 16 25 35 17 37 13 117 -8 142 -6 7 -8 30 -6 51 2 30 -2 43 -19 58 -13 10
-23 23 -23 27 0 15 -75 77 -100 83 -14 3 -44 10 -67 16 -46 11 -130 3 -152
-15 -11 -9 -15 -9 -18 1 -3 6 -11 12 -19 12 -8 0 -11 6 -7 15 3 9 -1 23 -10
33 -8 9 -18 32 -22 50 -4 18 -13 32 -21 32 -8 0 -14 6 -14 14 0 7 -12 21 -26
31 -38 25 -64 53 -64 70 0 10 -11 15 -32 16 -18 0 -41 4 -51 8 -24 9 -201 -8
-205 -20 -2 -5 -14 -9 -27 -9 -16 0 -25 -7 -29 -25 -4 -14 -12 -25 -19 -25 -7
0 -19 -22 -26 -50 -10 -38 -17 -50 -32 -50 -11 0 -22 -8 -25 -17 -3 -10 -10
-26 -15 -35 -5 -10 -9 -31 -9 -47 0 -24 -5 -29 -30 -35 -17 -3 -51 -3 -75 1
-38 5 -45 3 -45 -11 0 -9 -8 -16 -19 -16 -11 0 -23 -5 -26 -10 -3 -6 -16 -10
-29 -10 -17 0 -28 -10 -41 -40 -10 -22 -22 -40 -27 -40 -4 0 -8 -7 -8 -15 0
-8 -4 -15 -10 -15 -5 0 -10 -7 -10 -15 0 -8 -4 -15 -8 -15 -14 0 -11 -213 3
-225 20 -15 30 -75 13 -75 -7 0 -20 -9 -28 -20 -8 -11 -20 -20 -27 -20 -7 0
-13 -7 -13 -15 0 -8 -4 -15 -10 -15 -5 0 -10 -7 -10 -15 0 -8 -4 -15 -8 -15
-28 0 -85 -221 -63 -243 6 -6 11 -30 11 -54 0 -24 5 -43 10 -43 6 0 10 -7 10
-15 0 -8 5 -15 10 -15 6 0 10 -7 10 -15 0 -8 5 -15 10 -15 6 0 10 -9 10 -20 0
-13 7 -20 19 -20 11 0 26 -8 33 -17 7 -10 27 -25 43 -33 17 -8 34 -21 38 -27
4 -7 19 -13 32 -13 13 0 25 -5 27 -10 2 -6 24 -11 49 -12 70 -3 88 19 84 105
-2 38 1 70 7 73 6 4 5 10 -3 15 -11 8 -11 12 4 23 9 7 17 20 17 29 0 15 53 37
88 37 25 0 82 -32 82 -46 0 -8 4 -14 9 -14 10 0 25 -144 24 -227 -1 -38 2 -63
9 -63 5 0 8 -7 4 -15 -11 -29 -9 -259 3 -263 14 -5 15 -42 1 -42 -5 0 -10 -13
-10 -30 0 -23 -7 -32 -35 -46 -21 -10 -44 -14 -58 -9 -42 13 -137 17 -137 6 0
-6 -13 -11 -29 -11 -16 0 -31 -5 -33 -11 -2 -6 -33 -11 -77 -11 -52 -1 -74 -5
-78 -14 -3 -8 -10 -14 -17 -14 -6 0 -23 -11 -38 -25 -15 -14 -36 -25 -48 -25
-11 0 -20 -4 -20 -10 0 -5 -16 -10 -36 -10 -35 0 -64 -18 -64 -39 0 -6 -5 -11
-11 -11 -5 0 -7 -4 -4 -10 4 -6 -5 -10 -19 -10 -16 0 -26 -6 -26 -15 0 -8 -6
-15 -13 -15 -7 0 -21 -13 -30 -30 -10 -16 -23 -30 -28 -30 -11 0 -39 -25 -39
-35 0 -3 -17 -23 -38 -43 -21 -21 -41 -45 -45 -55 -3 -9 -13 -17 -22 -17 -9 0
-18 -12 -22 -31 -3 -18 -13 -34 -22 -36 -15 -4 -51 -67 -51 -89 0 -5 -14 -23
-30 -41 -17 -18 -30 -37 -30 -42 0 -6 -4 -11 -10 -11 -5 0 -10 -7 -10 -15 0
-8 -5 -15 -11 -15 -16 0 -36 -24 -32 -37 3 -7 -5 -22 -16 -34 -11 -12 -23 -34
-26 -49 -3 -15 -15 -37 -26 -49 -11 -11 -15 -21 -9 -21 12 0 2 -83 -12 -88 -4
-2 -8 -9 -8 -16 0 -6 -9 -19 -20 -29 -11 -9 -20 -24 -20 -32 0 -16 -28 -65
-43 -76 -4 -3 -5 -13 -1 -22 3 -9 2 -17 -4 -17 -5 0 -15 -21 -23 -47 -7 -27
-19 -54 -26 -61 -7 -7 -13 -24 -13 -36 0 -12 -3 -26 -6 -29 -4 -4 -8 -21 -9
-38 -2 -17 -7 -34 -13 -38 -6 -3 -14 -19 -17 -34 -4 -15 -12 -27 -17 -27 -6 0
-8 -7 -4 -15 3 -8 2 -15 -2 -15 -4 0 -13 -13 -19 -30 -6 -16 -18 -30 -26 -30
-9 0 -19 -18 -27 -45 -7 -25 -17 -45 -21 -45 -5 0 -9 -4 -9 -9 0 -14 -65 -81
-79 -81 -6 0 -11 -4 -11 -10 0 -5 -7 -10 -15 -10 -8 0 -15 -6 -15 -13 0 -7 -9
-23 -20 -35 -11 -12 -20 -25 -20 -29 0 -5 -14 -17 -30 -26 -17 -10 -30 -22
-30 -28 0 -5 -9 -9 -20 -9 -11 0 -19 -3 -18 -8 4 -19 -16 -42 -37 -42 -24 0
-65 -30 -65 -48 0 -6 -16 -14 -35 -18 -19 -3 -39 -12 -46 -20 -6 -8 -18 -14
-26 -14 -19 0 -83 -33 -112 -59 -13 -12 -37 -21 -53 -21 -16 0 -31 -6 -34 -15
-4 -9 -19 -15 -40 -15 -30 0 -34 -3 -34 -25 0 -14 4 -25 9 -25 5 0 11 -9 14
-21 5 -19 10 -20 48 -14 25 4 44 3 48 -3 12 -20 198 -33 305 -21 56 6 108 14
116 19 9 4 39 11 68 15 35 4 52 12 52 21 0 10 14 14 50 14 29 0 50 5 50 11 0
18 24 36 58 43 18 3 46 9 63 12 19 4 34 15 39 29 5 12 20 25 34 29 14 3 26 13
26 21 0 8 12 17 28 21 54 12 62 16 62 29 0 8 18 20 40 26 25 8 40 18 40 28 0
9 14 22 31 30 18 8 34 22 36 32 3 12 14 19 29 19 14 0 24 6 24 14 0 20 55 76
74 76 9 0 16 6 16 13 0 8 11 19 25 25 15 7 25 20 25 32 0 11 4 20 9 20 5 0 12
11 15 25 4 14 13 25 21 25 8 0 15 7 15 15 0 9 6 18 14 21 8 3 12 12 9 20 -3 8
0 14 6 14 6 0 11 6 11 13 0 7 9 23 20 34 10 12 22 33 26 47 4 19 13 26 30 26
13 0 24 -4 24 -8 0 -16 85 -37 153 -37 37 0 67 -4 67 -8 0 -12 44 3 52 18 4 7
21 18 37 25 18 7 31 21 33 33 2 14 11 23 26 25 12 2 22 10 22 18 0 8 5 14 10
14 6 0 10 9 10 19 0 10 7 21 15 25 9 3 12 12 8 22 -4 10 0 20 9 25 8 5 21 29
28 54 7 25 16 45 21 45 5 0 6 19 4 42 -3 24 -2 75 2 113 8 68 9 70 37 73 16 2
32 -2 37 -9 6 -10 54 -13 193 -13 102 -1 186 1 186 4 0 7 77 40 93 40 7 0 18
5 24 11 5 5 36 13 67 16 53 5 56 4 56 -16 0 -16 8 -23 30 -27 16 -4 32 -15 35
-25 4 -10 17 -22 31 -25 13 -3 24 -10 24 -15 0 -5 15 -9 34 -9 19 0 36 -6 39
-12 3 -10 9 -10 26 0 11 6 28 12 38 12 9 0 24 7 33 15 9 8 34 21 55 28 29 10
41 21 48 43 5 16 13 38 18 49 5 11 13 32 19 48 10 29 46 37 67 16 15 -15 224
-25 249 -11 10 5 54 13 97 17 66 6 77 5 77 -8 0 -26 34 -77 52 -77 30 0 48
-12 48 -31 0 -14 14 -23 57 -35 32 -9 65 -21 74 -27 11 -7 30 -6 60 2 24 7 61
17 83 22 21 5 47 21 58 34 11 14 26 25 34 25 8 0 14 7 14 15 0 8 5 15 10 15 6
0 10 15 10 33 0 58 9 74 52 88 29 9 41 10 46 1 17 -26 311 -37 336 -12 15 15
56 12 56 -4 0 -8 7 -17 16 -20 10 -4 14 -13 10 -22 -3 -9 5 -26 19 -42 14 -15
25 -32 25 -39 0 -7 8 -13 18 -13 10 0 23 -5 29 -11 26 -26 243 -33 243 -7 0 5
20 29 45 52 35 34 45 51 45 75 0 17 5 31 10 31 6 0 10 8 10 19 0 21 50 37 61
19 4 -6 68 -11 160 -12 l154 -1 3 -27 c2 -16 7 -28 11 -28 4 0 13 -16 21 -35
8 -19 17 -35 22 -35 4 0 21 -13 38 -30 17 -16 43 -33 58 -36 15 -4 29 -10 32
-14 8 -11 90 -19 90 -9 0 5 5 9 11 9 6 0 35 7 65 16 88 25 137 85 138 169 1
53 17 63 73 44 43 -14 306 -5 311 11 5 14 46 12 60 -2 7 -7 12 -30 12 -53 0
-29 6 -45 20 -55 11 -8 20 -22 20 -32 0 -12 13 -21 43 -28 23 -6 48 -19 55
-28 19 -24 155 -31 177 -8 9 9 23 16 31 16 8 0 14 5 14 10 0 6 9 10 21 10 11
0 18 4 15 9 -6 10 33 94 47 99 4 2 7 19 7 37 0 27 5 34 27 39 14 4 29 3 32 -2
10 -15 263 -35 294 -23 41 16 77 14 77 -4 0 -8 5 -15 10 -15 6 0 10 -6 10 -13
0 -22 24 -67 36 -67 7 0 15 -11 18 -25 4 -15 16 -27 31 -31 14 -3 25 -13 25
-20 0 -8 12 -20 28 -27 15 -6 29 -14 32 -18 3 -3 46 -1 97 4 81 9 92 12 104
33 7 13 18 24 26 24 7 0 13 4 13 9 0 4 12 20 27 35 14 14 24 29 21 32 -11 10
20 89 33 86 8 -2 87 -6 176 -9 125 -5 163 -3 163 6 0 8 12 11 32 9 27 -3 33
-8 42 -41 11 -36 69 -107 88 -107 5 0 6 -4 3 -10 -3 -5 -1 -10 5 -10 6 0 18
-7 26 -15 9 -8 24 -15 35 -15 10 0 19 -4 19 -9 0 -12 88 -21 138 -14 23 3 42
10 42 15 0 17 28 38 49 38 13 0 21 7 21 18 1 20 44 72 60 72 6 0 9 8 6 18 -4
12 2 21 21 30 31 14 89 16 97 3 11 -17 234 -1 261 19 6 4 38 10 73 13 l62 7 0
-45 c0 -25 5 -45 10 -45 6 0 25 -15 43 -34 17 -19 44 -39 60 -45 15 -6 27 -17
27 -26 0 -8 8 -16 18 -17 43 -3 138 5 146 13 6 5 20 9 33 9 28 0 73 20 73 33
0 5 8 17 18 26 10 9 24 37 31 62 l13 46 111 9 c118 10 129 7 143 -39 15 -49
46 -108 59 -113 8 -3 17 -13 20 -22 5 -17 48 -42 72 -42 7 0 13 -4 13 -10 0
-5 9 -10 20 -10 12 0 20 -7 20 -16 0 -13 7 -15 38 -9 20 4 39 11 40 16 2 5 16
9 32 9 30 0 110 38 110 52 0 4 7 8 16 8 18 0 44 23 44 39 0 6 4 11 9 11 5 0
11 10 13 23 2 18 10 23 46 25 26 2 42 -1 42 -8 0 -7 13 -10 33 -9 17 2 48 -1
67 -5 23 -5 50 -2 80 8 25 8 82 15 127 15 l82 0 6 -29 c4 -17 14 -36 24 -42
10 -7 24 -28 32 -45 8 -19 21 -33 31 -33 10 0 18 -4 18 -10 0 -5 6 -10 14 -10
8 0 21 -8 28 -18 18 -25 198 -40 198 -16 0 8 7 14 15 14 8 0 15 6 15 13 0 7
14 23 30 37 17 14 30 30 30 37 0 7 3 13 8 13 8 0 32 48 32 66 0 19 26 24 136
24 57 0 104 4 104 9 0 5 36 9 80 8 56 -2 80 -6 80 -14 0 -7 6 -13 14 -13 8 0
18 -9 21 -20 3 -11 10 -20 15 -20 5 0 24 -14 42 -30 18 -17 40 -30 50 -30 9 0
20 -5 23 -11 13 -21 151 11 175 40 3 3 17 12 33 20 21 11 27 22 27 45 0 48 25
58 130 50 50 -4 90 -11 90 -15 0 -12 34 -11 46 0 5 6 60 12 122 14 104 4 112
3 112 -15 0 -11 7 -18 19 -18 12 0 18 -7 17 -17 0 -12 7 -19 22 -21 12 -2 22
-8 22 -13 0 -17 34 -49 52 -49 10 0 18 -4 18 -10 0 -6 33 -10 80 -10 47 0 80
4 80 10 0 6 5 10 11 10 13 0 89 78 89 91 0 5 6 9 14 9 8 0 16 5 18 10 5 17
488 17 515 0 11 -7 19 -20 16 -27 -3 -7 0 -13 5 -13 6 0 14 -9 17 -20 4 -13
15 -20 30 -20 13 0 27 -5 30 -10 3 -5 19 -10 36 -10 16 0 29 -5 29 -11 0 -16
90 -3 137 19 52 24 79 52 87 88 10 46 55 59 152 43 48 -7 118 -10 191 -6 91 5
118 4 129 -8 8 -7 14 -16 14 -20 0 -3 11 -16 25 -29 14 -13 25 -28 25 -35 0
-6 9 -11 20 -11 11 0 20 -6 20 -14 0 -7 14 -16 31 -20 46 -9 139 -7 139 3 0 4
20 14 45 21 25 7 45 17 45 23 0 5 11 20 24 32 13 12 27 33 31 46 14 47 17 48
183 42 86 -2 166 -8 177 -13 11 -4 28 -11 38 -14 9 -3 20 -14 24 -23 4 -10 15
-25 25 -34 10 -9 18 -21 18 -27 0 -6 14 -13 30 -17 17 -4 30 -13 30 -21 0 -8
9 -14 20 -14 11 0 20 -5 20 -11 0 -7 11 -9 30 -5 17 3 30 1 30 -4 0 -6 14 -10
30 -10 17 0 30 4 30 9 0 5 18 11 41 15 24 4 50 16 63 31 13 14 28 25 35 25 6
0 11 7 11 15 0 7 8 18 18 24 11 6 17 22 17 43 l0 33 50 -1 c151 -4 262 -12
278 -18 12 -6 17 -20 17 -47 0 -21 5 -39 10 -39 6 0 10 -7 10 -15 0 -9 7 -18
15 -21 8 -4 15 -10 15 -16 0 -16 28 -38 49 -38 12 0 21 -4 21 -9 0 -5 19 -12
43 -15 23 -4 59 -9 80 -12 24 -4 37 -2 37 5 0 6 9 11 19 11 10 0 21 6 24 14 6
15 62 46 83 46 8 0 16 17 20 40 6 39 8 40 45 40 22 0 39 -4 39 -10 0 -5 11
-10 25 -10 14 0 25 5 25 10 0 15 78 12 82 -2 6 -17 160 -16 166 0 2 7 17 12
33 12 16 0 29 5 29 10 0 6 9 10 20 10 16 0 20 -7 20 -30 0 -16 5 -30 10 -30 6
0 18 -18 27 -40 10 -22 23 -40 30 -40 7 0 13 -4 13 -10 0 -5 9 -10 20 -10 11
0 20 -3 20 -7 0 -13 53 -33 87 -33 18 0 33 -4 33 -10 0 -20 106 -6 168 23 12
6 22 17 22 24 0 8 11 24 25 37 13 12 28 33 33 47 11 28 82 54 172 65 47 5 169
23 263 39 19 3 27 0 27 -10 0 -8 5 -15 10 -15 6 0 10 -16 10 -35 0 -24 5 -35
15 -35 8 0 15 -6 15 -14 0 -8 10 -18 23 -21 31 -10 91 -38 97 -46 3 -3 35 -9
73 -11 52 -5 67 -3 67 8 0 7 11 16 24 20 13 3 26 14 29 24 3 10 15 20 28 22
19 2 26 12 36 52 7 26 14 51 17 53 3 3 39 0 81 -6 95 -14 381 -15 390 -1 3 6
15 10 26 10 10 0 19 5 19 10 0 6 11 10 24 10 13 0 26 6 29 13 2 6 28 21 56 32
28 11 51 25 51 32 0 18 35 16 50 -2 10 -12 10 -24 0 -60 -7 -25 -18 -45 -26
-45 -7 0 -15 -13 -19 -30 -4 -16 -11 -30 -16 -30 -5 0 -9 -7 -9 -15 0 -8 -9
-15 -19 -15 -12 0 -21 -9 -25 -25 -4 -16 -13 -25 -26 -25 -11 0 -20 -7 -20
-15 0 -11 -11 -15 -39 -15 -22 0 -41 -5 -43 -11 -3 -9 -10 -9 -23 -2 -26 13
-237 35 -259 27 -20 -8 -32 -50 -18 -67 6 -6 18 -47 28 -89 10 -43 22 -78 26
-78 4 0 8 -7 8 -15 0 -9 7 -18 15 -21 8 -4 15 -10 15 -15 0 -12 52 -64 73 -72
9 -3 17 -13 17 -22 0 -8 7 -15 15 -15 8 0 15 -4 15 -10 0 -5 9 -10 20 -10 11
0 20 -4 20 -10 0 -5 11 -10 25 -10 14 0 25 -4 25 -10 0 -19 181 -11 270 11 45
11 83 19 84 17 0 -2 6 -12 12 -23 6 -12 15 -35 19 -53 3 -18 11 -32 16 -32 5
0 9 -9 9 -21 0 -12 8 -23 20 -26 11 -3 20 -13 20 -22 1 -16 33 -61 45 -61 9 0
35 -27 35 -36 0 -13 35 -33 57 -34 12 0 26 -8 32 -17 8 -15 28 -19 124 -21
107 -3 116 -2 126 16 10 20 87 52 123 52 10 0 18 -7 18 -15 0 -8 9 -15 20 -15
11 0 20 -6 20 -13 0 -7 14 -21 30 -30 17 -10 30 -22 30 -27 0 -5 33 -19 73
-32 39 -12 74 -26 77 -30 3 -4 43 -10 88 -14 45 -4 82 -11 82 -16 0 -6 20 -7
50 -3 30 4 50 3 50 -3 0 -5 26 -12 58 -16 129 -15 147 -18 152 -26 8 -13 173
-11 243 3 44 9 57 15 57 29 0 11 10 20 28 24 44 9 52 13 52 22 0 17 -38 52
-56 52 -11 0 -28 6 -39 14 -11 7 -31 17 -45 21 -14 4 -35 18 -47 31 -13 14
-34 24 -50 24 -20 0 -46 17 -93 60 -35 33 -68 60 -72 60 -4 0 -8 7 -8 15 0 8
-7 15 -15 15 -8 0 -20 9 -27 20 -7 11 -21 20 -30 20 -25 0 -85 60 -93 92 -4
16 -11 28 -16 28 -5 0 -9 7 -9 15 0 9 -9 15 -22 15 -12 0 -19 3 -15 6 7 7 -17
34 -30 34 -4 0 -17 12 -28 27 -11 14 -39 46 -62 71 -26 27 -43 54 -43 68 0 13
-4 24 -10 24 -5 0 -10 4 -10 10 0 5 -13 23 -30 38 -16 16 -30 37 -30 46 0 9
-7 16 -15 16 -9 0 -15 9 -15 24 0 14 -4 28 -10 31 -5 3 -10 14 -10 23 0 10 -9
24 -20 32 -11 8 -20 20 -20 26 0 7 -7 14 -15 18 -8 3 -15 17 -15 31 0 14 -6
25 -12 25 -13 0 -38 44 -38 67 0 7 -4 13 -10 13 -5 0 -10 9 -10 20 0 15 -7 20
-25 20 -21 0 -25 5 -24 23 3 37 -1 57 -11 57 -18 0 -100 93 -100 112 0 10 -5
18 -11 18 -13 0 -39 25 -39 37 0 5 -22 33 -50 63 -27 30 -50 58 -50 62 0 4
-11 8 -24 8 -16 0 -27 7 -31 21 -9 28 -123 139 -142 139 -9 0 -29 12 -44 28
-53 50 -69 62 -84 62 -7 0 -18 7 -22 14 -5 10 -34 18 -78 22 -38 4 -75 13 -82
19 -12 12 -179 35 -261 35 -62 0 -89 8 -97 28 -11 26 -15 232 -5 232 5 0 7 19
4 42 -6 48 15 258 26 258 3 0 6 16 5 35 0 22 4 35 12 35 7 0 13 6 13 12 0 7
21 32 46 55 38 36 53 43 85 43 25 0 42 -5 45 -14 3 -8 16 -17 30 -20 22 -6 24
-11 25 -74 1 -37 0 -93 -1 -124 l-2 -57 46 -6 c53 -8 110 0 128 19 8 7 23 18
36 25 12 6 22 16 22 21 0 6 18 29 40 52 22 24 40 48 40 55 0 6 4 13 9 15 6 1
14 57 19 122 9 115 3 190 -18 228 -6 10 -10 24 -10 32 0 8 -5 16 -11 18 -5 2
-11 20 -12 41 -2 29 -6 37 -21 37 -39 0 -132 93 -109 109 6 3 13 28 17 56 3
27 10 53 15 58 6 6 4 15 -5 24 -8 8 -14 23 -14 33 0 10 -4 22 -10 25 -5 3 -10
26 -10 50 0 24 -6 50 -13 57 -7 7 -16 21 -20 31 -3 9 -13 17 -22 17 -10 0 -15
9 -15 26 0 19 -4 25 -15 20 -9 -3 -15 0 -15 8 0 17 -43 46 -69 46 -11 0 -23 5
-26 10 -3 6 -16 10 -27 10 -12 0 -32 10 -45 22 -15 14 -27 19 -31 12 -8 -10
-26 -13 -112 -17 -52 -2 -55 -1 -53 21 2 12 -2 22 -8 22 -5 0 -8 4 -5 8 8 13
-16 96 -31 105 -7 4 -13 17 -13 27 0 11 -7 20 -15 20 -8 0 -15 5 -15 10 0 6
-4 10 -10 10 -9 0 -35 19 -65 48 -8 6 -36 17 -64 24 -28 6 -51 15 -51 20 0 5
-43 8 -95 7 -52 -1 -95 -5 -95 -10 0 -5 -18 -9 -40 -9 -22 0 -40 -4 -40 -10 0
-5 -7 -10 -15 -10 -8 0 -15 -5 -15 -10 0 -6 -16 -27 -35 -47 -23 -24 -35 -46
-35 -65 0 -20 -5 -28 -18 -28 -10 0 -19 -6 -20 -12 -3 -39 -25 -108 -34 -108
-6 0 -8 -6 -5 -13 4 -11 -15 -13 -91 -13 -67 1 -97 -3 -100 -12 -2 -6 -14 -12
-28 -12 -34 0 -160 -128 -173 -177 -7 -25 -7 -39 0 -43 5 -4 9 -43 8 -90 -2
-57 1 -85 9 -88 7 -2 10 -8 7 -13 -4 -5 3 -19 14 -31 26 -27 29 -88 5 -88 -10
0 -14 -6 -10 -15 3 -9 0 -15 -9 -15 -8 0 -15 -7 -15 -15 0 -8 -4 -15 -10 -15
-5 0 -10 -19 -10 -43 0 -24 -4 -47 -9 -52 -15 -16 -18 -225 -3 -225 6 0 12
-12 12 -26 0 -29 20 -117 29 -124 3 -3 6 -9 7 -15 1 -22 26 -75 35 -75 5 0 9
-4 9 -10 0 -17 43 -60 61 -60 17 0 55 -28 117 -89 32 -31 39 -33 82 -28 61 7
100 26 100 49 0 10 -4 18 -10 18 -5 0 -10 14 -10 30 0 20 -5 30 -15 30 -17 0
-39 36 -30 51 4 5 2 16 -5 24 -6 8 -7 16 -1 19 5 3 14 28 21 54 9 41 17 52 46
65 68 33 131 17 157 -39 9 -19 21 -34 27 -34 5 0 10 -18 10 -40 0 -30 4 -40
16 -40 13 0 15 -8 9 -51 -5 -37 -4 -54 5 -59 12 -7 14 -38 10 -144 0 -16 5
-33 12 -37 9 -6 10 -18 1 -56 -13 -54 -14 -213 -1 -213 4 0 8 -20 8 -45 0 -25
-4 -45 -10 -45 -5 0 -10 -9 -10 -19 0 -20 -18 -31 -50 -31 -10 0 -20 -6 -23
-14 -11 -28 -157 -25 -157 3 0 12 -52 22 -140 28 -41 2 -79 9 -84 14 -13 12
-66 12 -66 -1 0 -6 -35 -10 -85 -10 -69 0 -85 3 -85 15 0 8 -4 15 -10 15 -5 0
-10 8 -10 19 0 10 -9 21 -20 24 -12 3 -20 14 -20 26 0 12 -6 21 -15 21 -8 0
-15 6 -15 13 0 24 -37 57 -63 57 -14 0 -27 5 -29 10 -5 16 -151 -7 -161 -25
-4 -8 -15 -15 -22 -15 -8 0 -15 -4 -15 -10 0 -5 -11 -10 -25 -10 -14 0 -25 -4
-25 -8 0 -5 -11 -15 -25 -22 -15 -8 -25 -22 -25 -36 0 -36 -18 -74 -35 -74 -8
0 -15 4 -15 9 0 5 -30 11 -67 14 -38 3 -88 9 -113 15 -28 6 -49 7 -54 1 -13
-12 -53 -12 -61 1 -9 15 -31 12 -49 -6 -24 -24 -80 -15 -84 14 -2 12 -8 22
-13 22 -5 0 -9 7 -9 15 0 26 -41 63 -78 70 -21 3 -48 13 -61 22 -33 21 -158
14 -176 -10 -7 -9 -15 -17 -19 -17 -17 0 -66 -64 -76 -100 -6 -21 -15 -42 -19
-45 -18 -10 -309 -7 -330 4 -13 7 -21 22 -21 36 0 14 -4 25 -10 25 -5 0 -10 7
-10 15 0 8 -4 15 -10 15 -5 0 -10 6 -10 14 0 18 -71 66 -98 66 -12 0 -27 9
-34 20 -9 14 -24 20 -50 20 -21 0 -38 -4 -38 -9 0 -5 -13 -11 -30 -15 -16 -3
-43 -9 -60 -12 -16 -4 -30 -10 -30 -15 0 -5 -9 -9 -20 -9 -13 0 -22 -9 -26
-25 -3 -14 -12 -25 -20 -25 -8 0 -14 -7 -14 -15 0 -8 -6 -15 -14 -15 -9 0 -16
-12 -18 -28 l-3 -27 -104 -2 c-57 -1 -107 -6 -110 -12 -4 -5 -35 -11 -70 -13
-53 -2 -65 0 -77 17 -8 10 -14 27 -14 37 0 10 -4 18 -9 18 -5 0 -12 11 -15 25
-4 15 -13 25 -25 25 -10 0 -21 8 -24 19 -3 12 -17 21 -38 24 -19 3 -58 11 -88
17 -38 8 -57 8 -64 1 -6 -6 -19 -11 -29 -11 -25 0 -68 -21 -68 -34 0 -7 -13
-23 -30 -38 -16 -14 -30 -35 -30 -47 0 -11 -5 -23 -11 -27 -6 -3 -87 -6 -180
-5 -114 2 -169 -1 -169 -8 0 -6 -16 -11 -35 -11 -19 0 -35 -4 -35 -10 0 -5
-11 -10 -24 -10 -14 0 -28 -4 -31 -10 -9 -14 -36 -12 -34 3 3 26 -2 37 -16 37
-8 0 -15 6 -15 13 -1 6 -13 21 -27 32 -14 11 -40 35 -56 53 -30 31 -70 42 -82
22 -3 -5 -23 -10 -44 -10 -59 0 -101 -11 -101 -26 0 -8 -4 -14 -10 -14 -5 0
-10 -7 -10 -15 0 -8 -8 -15 -19 -15 -13 0 -22 -12 -31 -44 -11 -39 -16 -45
-46 -51 -42 -7 -154 4 -154 16 0 5 -36 9 -80 9 -47 0 -80 -4 -80 -10 0 -5 -20
-10 -45 -10 -39 0 -45 3 -45 20 0 11 -7 23 -16 27 -8 3 -13 12 -10 19 3 7 1
16 -5 19 -5 4 -7 11 -4 16 9 13 -21 40 -37 34 -8 -3 -25 5 -38 17 -20 18 -38
24 -97 27 -62 3 -73 1 -73 -13 0 -9 -7 -16 -15 -16 -8 0 -27 -12 -43 -28 -16
-15 -39 -34 -51 -42 -11 -8 -21 -20 -21 -27 0 -15 -56 -18 -65 -3 -3 6 -17 10
-30 10 -13 0 -25 4 -27 8 -4 13 -108 23 -108 12 0 -6 -16 -10 -35 -10 -19 0
-35 5 -35 10 0 6 -12 10 -26 10 -38 0 -198 -34 -202 -42 -2 -5 -15 -8 -28 -8
-19 0 -24 5 -24 26 0 14 -7 32 -15 40 -8 9 -15 24 -15 35 0 10 -6 19 -13 19
-7 0 -29 9 -50 20 -42 23 -97 25 -164 8 -55 -14 -140 -92 -150 -138 -6 -34 7
-32 -235 -30 -77 1 -118 -3 -118 -9 0 -20 -42 -12 -47 9 -3 11 -11 20 -18 20
-15 0 -15 51 0 63 7 6 6 10 -1 13 -11 5 1 94 17 126 5 10 9 29 9 42 0 14 5 28
10 31 6 3 10 24 10 46 0 21 4 39 9 39 5 0 14 22 21 50 7 31 17 50 26 50 10 0
13 7 8 25 -3 14 -2 25 4 25 5 0 13 15 16 34 4 18 15 44 26 56 11 13 20 27 20
32 0 4 6 8 13 8 12 0 37 44 37 66 0 6 11 15 25 18 14 4 25 13 25 21 0 8 5 15
11 15 18 0 83 33 91 46 15 23 110 45 158 36 l45 -7 3 -53 c2 -42 0 -52 -12
-52 -9 0 -16 -7 -16 -15 0 -8 -6 -15 -12 -15 -7 0 -29 -13 -48 -30 -29 -24
-31 -30 -17 -36 9 -3 15 -9 12 -14 -2 -4 5 -16 15 -28 11 -12 20 -25 20 -29 0
-4 34 -19 75 -32 41 -13 75 -27 75 -32 0 -11 104 1 108 13 2 4 14 8 27 8 13 0
27 5 30 10 3 6 17 10 31 10 13 0 23 5 21 11 -1 6 11 16 27 21 30 11 96 70 96
87 0 5 6 14 14 18 8 4 21 25 29 46 14 33 20 37 54 39 21 0 49 0 62 -1 23 -2
79 8 169 31 23 6 42 16 42 23 0 12 38 29 123 55 20 6 37 17 37 24 0 6 8 19 18
28 37 35 71 98 84 153 11 46 11 56 2 107 -6 36 -5 37 35 49 23 7 41 16 41 21
0 4 7 8 15 8 8 0 15 6 15 14 0 8 14 17 30 21 21 5 30 13 30 26 0 10 7 19 15
19 8 0 15 9 15 20 0 11 5 20 10 20 6 0 10 11 10 25 0 14 5 25 10 25 6 0 10 13
10 29 0 16 6 31 15 35 8 3 12 12 9 21 -4 10 0 15 10 15 10 0 16 9 16 23 0 13
3 26 6 30 3 3 7 25 8 49 1 24 9 58 19 77 9 19 17 40 17 48 0 7 5 13 10 13 6 0
10 7 10 15 0 9 6 18 14 21 10 4 13 15 9 40 -4 27 -2 34 11 34 9 0 16 8 16 18
0 10 4 22 9 28 12 13 21 94 11 94 -5 0 -4 13 1 30 16 45 5 330 -12 341 -26 16
-39 9 -39 -21 0 -21 -8 -35 -26 -46 -21 -15 -25 -23 -20 -48 11 -51 8 -62 -18
-91 -14 -15 -26 -31 -26 -36 0 -4 -5 -20 -12 -36 -6 -15 -11 -31 -10 -35 1 -5
-2 -8 -8 -8 -5 0 -7 -7 -4 -15 4 -10 0 -15 -11 -15 -13 0 -16 -7 -13 -30 4
-24 1 -30 -14 -30 -10 0 -18 -7 -18 -15 0 -8 -7 -15 -15 -15 -9 0 -15 -9 -15
-21 0 -12 -8 -23 -20 -26 -11 -3 -20 -14 -20 -24 0 -11 -7 -19 -16 -19 -13 0
-14 9 -9 55 5 39 4 55 -4 55 -7 0 -9 4 -6 10 7 11 -86 110 -103 110 -7 0 -12
4 -12 8 0 11 -89 34 -103 25 -6 -3 -32 -5 -58 -4 -34 1 -48 -2 -52 -14 -4 -8
-16 -15 -27 -15 -11 0 -20 -4 -20 -10 0 -5 -9 -10 -20 -10 -11 0 -20 -4 -20
-10 0 -5 -7 -10 -15 -10 -8 0 -17 -11 -21 -25 -3 -14 -10 -25 -15 -25 -5 0 -9
-9 -9 -19 0 -11 -5 -21 -12 -23 -16 -6 -12 -119 5 -130 7 -5 2 -8 -14 -8 -14
0 -29 -3 -33 -7 -4 -5 -50 -6 -102 -5 -64 3 -94 0 -94 -7 0 -6 -15 -11 -34
-11 -18 0 -39 -7 -46 -15 -7 -8 -19 -15 -26 -15 -8 0 -14 -5 -14 -11 0 -7 -13
-8 -38 -4 -33 5 -41 3 -58 -19 -10 -15 -29 -26 -41 -26 -14 0 -23 -6 -23 -15
0 -18 -31 -35 -64 -35 -17 0 -26 6 -26 15 0 9 -10 19 -23 24 -28 11 -157 2
-157 -10 0 -5 -11 -9 -25 -9 -23 0 -51 -9 -103 -33 -12 -6 -20 -17 -18 -24 3
-7 -1 -13 -9 -13 -7 0 -16 -14 -20 -30 -4 -17 -13 -30 -21 -30 -8 0 -14 -6
-14 -12 0 -7 -13 -22 -29 -32 -15 -11 -33 -33 -40 -51 -20 -56 -43 -188 -45
-255 -1 -36 -5 -72 -9 -81 -5 -10 -28 -22 -53 -28 -34 -9 -45 -17 -50 -36 -4
-15 -13 -25 -24 -25 -10 0 -20 -7 -24 -15 -3 -8 -15 -15 -26 -15 -12 0 -20 -7
-20 -16 0 -9 -16 -32 -35 -51 -19 -19 -35 -38 -35 -42 0 -4 -9 -13 -20 -21
-11 -8 -20 -26 -20 -41 0 -15 -7 -29 -15 -33 -8 -3 -15 -12 -15 -21 0 -8 -7
-15 -15 -15 -10 0 -15 -11 -15 -35 0 -19 -4 -35 -8 -35 -4 0 -14 -27 -21 -60
-8 -33 -17 -60 -22 -60 -5 0 -9 -17 -9 -37 0 -55 -18 -113 -35 -113 -16 0 -19
14 -16 71 1 20 -5 61 -14 92 -9 31 -15 77 -15 104 1 26 -5 71 -14 98 -9 28
-16 65 -16 83 0 30 -2 32 -35 32 -19 0 -35 5 -35 10 0 6 -7 10 -16 10 -8 0
-12 5 -9 10 8 13 -3 50 -15 50 -5 0 -27 19 -50 42 -42 44 -56 98 -25 98 8 0
15 3 15 8 0 4 20 8 45 10 41 2 52 8 113 70 63 62 67 69 61 99 -3 18 -3 52 2
75 4 25 4 44 -2 46 -5 2 -12 21 -15 43 -4 24 -14 44 -26 50 -13 7 -17 16 -13
30 5 14 2 17 -8 13 -9 -3 -32 11 -56 35 -30 29 -50 41 -71 41 -16 0 -33 7 -37
15 -5 8 -28 15 -59 17 l-50 3 2 88 c1 48 -2 87 -7 87 -5 0 -9 7 -9 15 0 8 3
15 8 15 9 0 8 122 -2 138 -4 7 -13 9 -19 5 -7 -4 -7 0 1 10 9 10 10 22 5 32
-11 19 -4 77 8 69 5 -3 8 54 8 126 -1 104 -4 132 -16 139 -13 7 -13 9 -1 14
15 5 19 62 5 83 -9 15 -4 113 6 107 10 -6 9 11 -3 23 -9 9 -10 63 -8 309 0 90
2 100 20 105 41 11 842 2 846 -9 2 -6 10 -11 18 -11 8 0 14 -7 14 -15 0 -8 3
-15 8 -15 11 0 37 -62 34 -82 -2 -9 6 -19 18 -23 11 -3 20 -10 20 -15 0 -19
69 -80 89 -80 13 0 29 -7 37 -15 23 -22 38 -19 70 18 28 31 44 97 24 97 -6 0
-10 16 -10 35 0 24 -5 35 -15 35 -8 0 -15 5 -15 10 0 6 -6 10 -14 10 -7 0 -16
9 -19 20 -3 12 -14 20 -27 20 -12 0 -28 7 -37 15 -9 9 -23 13 -34 10 -10 -4
-19 -2 -19 4 0 5 -16 13 -35 17 -19 3 -32 10 -29 15 2 5 -3 20 -12 34 -9 14
-13 32 -10 42 4 9 1 20 -6 25 -11 6 -11 10 0 16 10 7 11 19 3 50 -5 25 -5 42
0 42 5 0 9 7 9 15 0 8 -4 15 -8 15 -11 0 -2 114 9 118 5 2 9 10 9 17 0 8 9 17
20 20 11 3 20 11 20 16 0 5 9 9 20 9 11 0 20 5 20 10 0 6 13 10 28 10 45 0 79
21 92 60 7 19 21 47 32 62 12 17 15 29 8 33 -6 4 -2 18 11 37 17 23 19 32 9
38 -7 4 -13 23 -14 41 -1 32 -3 34 -44 37 -29 2 -47 -2 -58 -13 -9 -9 -24 -13
-35 -10 -11 4 -19 2 -19 -4 0 -6 -5 -11 -12 -11 -14 0 -78 -71 -78 -87 0 -7
-4 -13 -10 -13 -5 0 -10 -8 -10 -19 0 -10 -7 -24 -15 -31 -15 -13 -16 -71 -1
-82 5 -3 2 -13 -7 -22 -14 -15 -59 -16 -399 -15 -211 0 -406 0 -435 -1 -44 -1
-54 2 -63 21 -15 27 -6 96 14 111 6 4 6 12 -1 20 -6 8 -7 21 -2 33 11 29 11
37 -2 29 -7 -4 -7 1 1 16 10 18 9 24 -1 31 -10 6 -11 11 -3 17 11 7 11 30 -2
71 -5 16 -4 22 3 18 11 -7 10 54 -1 72 -3 5 0 12 6 14 10 4 10 6 1 6 -7 1 -13
6 -13 12 0 5 5 7 10 4 6 -3 10 -1 10 4 0 6 -4 11 -8 11 -4 0 -7 30 -6 68 1 40
-3 70 -10 75 -8 5 -8 9 0 15 14 9 15 85 1 94 -6 3 -10 32 -10 65 4 166 16 206
71 234 27 14 43 24 119 73 22 15 47 41 53 57 7 16 16 29 20 29 5 0 20 21 34
46 55 99 23 164 -81 164 -38 0 -55 -4 -59 -15z m-239 -458 c18 -18 20 -37 4
-37 -8 0 -8 -4 -1 -12 7 -9 9 -88 7 -223 -2 -115 -4 -307 -5 -425 -2 -208 -3
-216 -26 -252 -13 -21 -28 -38 -33 -38 -6 0 -13 -9 -16 -20 -4 -11 -10 -18
-15 -15 -5 3 -11 -3 -15 -12 -9 -27 -50 -71 -71 -75 -11 -2 -18 -11 -16 -19 1
-8 -15 6 -37 29 -22 24 -37 50 -35 57 3 8 -4 16 -18 20 -23 8 -71 57 -68 71 1
4 -4 10 -10 14 -12 7 -22 281 -22 623 -1 101 -4 147 -12 147 -7 0 -6 4 2 9 14
9 13 32 -3 43 -6 5 -5 8 2 8 9 0 10 7 3 26 -13 33 -13 77 0 90 6 6 79 10 190
8 146 -2 182 -5 195 -17z m766 -1049 c4 -6 20 -7 37 -3 17 3 52 3 77 -1 l46
-6 -6 -42 c-3 -22 -9 -54 -12 -70 -3 -19 -2 -26 6 -22 7 5 11 -5 11 -28 0 -19
3 -41 6 -50 4 -11 1 -16 -10 -16 -9 0 -16 -5 -16 -11 0 -6 -7 -8 -16 -5 -9 4
-125 6 -258 5 -221 -1 -434 1 -528 5 -21 1 -38 -2 -38 -6 0 -17 -23 -6 -51 23
-16 17 -29 34 -29 38 0 4 -11 14 -25 21 -14 8 -25 22 -25 34 0 17 2 18 10 6 8
-13 10 -12 10 3 0 9 6 17 14 17 7 0 19 13 26 29 16 39 38 57 80 66 19 4 40 11
45 15 14 10 235 9 235 -1 0 -12 47 -11 54 0 3 5 58 8 121 7 63 -1 115 1 115 4
0 10 114 -2 121 -12z m-1404 1 c5 -5 55 -11 109 -13 102 -3 133 -10 147 -33 4
-7 15 -13 22 -13 9 0 15 -10 15 -25 0 -14 5 -25 10 -25 6 0 10 -9 10 -21 0
-25 -61 -89 -84 -89 -9 0 -16 -4 -16 -10 0 -5 -9 -10 -19 -10 -11 0 -21 -4
-23 -9 -4 -12 -88 -21 -88 -9 0 5 -6 6 -12 1 -7 -4 -120 -8 -252 -9 -173 -1
-240 -5 -246 -14 -5 -9 -20 -8 -60 4 -67 20 -80 20 -80 1 0 -18 -4 -18 -69 -4
-58 12 -71 25 -46 43 14 10 17 30 18 104 1 64 5 92 13 92 7 0 14 5 16 11 2 6
43 11 101 12 53 1 97 5 97 9 0 13 118 9 122 -3 3 -8 22 -8 73 0 47 7 71 7 76
0 6 -11 104 -2 129 12 20 11 24 11 37 -2z m485 -271 c13 -13 31 -21 41 -20 15
3 17 -1 12 -17 -3 -12 -2 -21 4 -21 5 0 27 -17 49 -38 l40 -38 2 -130 c2 -170
7 -362 20 -741 8 -227 8 -317 0 -332 -6 -12 -8 -21 -4 -21 7 0 -25 -32 -83
-82 -17 -14 -34 -24 -37 -21 -3 4 -6 1 -6 -6 0 -6 -12 -23 -26 -36 -21 -20
-30 -22 -51 -14 -40 15 -84 56 -120 112 -18 28 -37 53 -42 57 -7 3 -12 227
-14 605 -5 595 -5 600 16 623 11 12 27 22 34 22 8 0 12 4 8 9 -3 5 -1 12 5 16
5 3 10 1 10 -4 0 -28 19 -6 29 34 17 66 70 86 113 43z m168 -2813 c0 -14 4
-25 8 -25 8 0 32 -137 32 -188 0 -17 5 -32 10 -32 6 0 10 -10 10 -23 0 -18 -9
-25 -47 -36 -27 -8 -50 -17 -53 -21 -3 -3 -39 -17 -80 -29 -41 -13 -82 -30
-91 -37 -8 -8 -22 -14 -31 -14 -12 0 -15 17 -15 98 0 53 3 99 7 102 11 8 40
136 40 179 0 22 5 42 13 44 6 3 54 6 105 6 92 1 92 1 92 -24z m8260 -271 c0
-38 -23 -91 -44 -100 -27 -11 -36 -71 -12 -80 29 -11 17 -24 -21 -24 -21 0
-51 -7 -67 -15 -15 -8 -39 -15 -53 -15 -36 0 -113 -21 -113 -31 0 -5 -9 -9
-19 -9 -10 0 -21 -7 -25 -15 -3 -8 -12 -15 -21 -15 -8 0 -15 -4 -15 -9 0 -5
-17 -11 -39 -15 -21 -3 -44 -13 -51 -21 -7 -8 -19 -15 -26 -15 -8 0 -14 -7
-14 -15 0 -8 -7 -15 -17 -15 -9 0 -33 -18 -54 -40 -21 -22 -43 -40 -49 -40 -5
0 -10 -6 -10 -14 0 -8 -12 -17 -27 -21 -16 -3 -46 -21 -68 -40 -22 -19 -45
-40 -52 -45 -7 -6 -23 -10 -35 -10 -13 0 -30 -9 -38 -20 -8 -11 -26 -20 -40
-20 -15 0 -35 -7 -46 -15 -10 -8 -31 -15 -46 -15 -15 0 -48 -5 -73 -12 -37
-10 -48 -10 -54 0 -6 10 -18 10 -56 2 -33 -7 -50 -8 -55 -1 -11 18 -102 41
-165 41 -33 0 -65 4 -71 8 -15 10 -28 52 -16 52 6 0 24 14 42 30 18 17 38 30
45 30 7 0 15 9 18 20 6 24 30 25 89 6 49 -15 215 -20 223 -5 4 5 14 9 23 9 10
0 24 9 32 20 8 11 23 20 34 20 56 0 196 53 196 75 0 8 7 15 15 15 8 0 15 6 15
13 0 6 14 21 30 32 16 11 30 23 30 28 0 4 5 7 10 7 13 0 50 37 50 49 0 5 9 12
20 16 22 7 80 62 80 76 0 5 5 9 11 9 5 0 35 11 65 25 30 14 59 25 64 25 5 0
13 7 18 16 9 16 56 30 135 41 20 3 40 9 43 14 3 5 23 9 44 9 21 0 42 5 45 10
3 6 31 10 61 10 43 0 54 -3 54 -16z m-6330 -94 c0 -5 9 -10 19 -10 11 0 23 5
26 10 3 6 17 10 30 10 13 0 27 -4 30 -10 3 -5 22 -10 41 -10 19 0 34 -4 34
-10 0 -5 11 -10 24 -10 47 0 89 -13 93 -30 3 -9 20 -23 39 -30 39 -16 41 -20
14 -40 -11 -8 -20 -20 -20 -27 0 -6 -9 -15 -20 -18 -11 -3 -20 -11 -20 -16 0
-5 -7 -9 -15 -9 -8 0 -15 -4 -15 -9 0 -13 -113 -1 -122 12 -9 14 -207 14 -216
0 -4 -5 -29 -13 -57 -17 -27 -3 -51 -11 -53 -16 -2 -6 -15 -10 -29 -10 -13 0
-31 -6 -38 -12 -36 -33 -46 -38 -69 -38 -18 0 -25 -6 -28 -22 -2 -15 -13 -26
-34 -33 -30 -10 -34 -14 -34 -35 0 -5 -7 -10 -15 -10 -9 0 -18 -7 -21 -15 -4
-8 -15 -15 -25 -15 -10 0 -19 -4 -19 -9 0 -10 -96 -61 -117 -61 -8 0 -21 -6
-29 -14 -7 -8 -23 -12 -34 -9 -11 3 -20 0 -20 -6 0 -6 -7 -11 -15 -11 -9 0
-18 -7 -21 -15 -4 -10 -20 -15 -48 -15 -22 0 -75 -9 -116 -20 -107 -28 -224
-10 -273 42 -35 38 -29 90 15 117 27 17 176 17 224 -1 26 -9 37 -9 46 0 7 7
21 12 33 12 11 0 44 9 73 20 29 11 59 20 68 20 17 0 44 23 44 38 0 5 20 13 45
16 27 5 45 12 45 20 0 8 12 21 26 31 14 9 34 25 45 36 10 10 24 19 29 19 6 0
15 12 20 26 6 14 19 28 30 31 11 3 20 12 20 19 0 8 14 17 30 21 19 3 30 12 30
22 0 22 41 39 125 53 39 7 72 15 75 19 6 7 92 26 128 28 12 0 22 -3 22 -9z
m2843 -10 c4 -15 14 -20 40 -20 20 0 38 -4 41 -9 4 -5 23 -12 45 -16 27 -4 42
-13 49 -31 15 -32 5 -54 -23 -54 -13 0 -30 -6 -37 -14 -20 -19 -79 -24 -182
-15 -92 9 -228 -4 -234 -21 -2 -6 -19 -10 -38 -10 -19 0 -34 -4 -34 -10 0 -5
-11 -10 -25 -10 -14 0 -38 -11 -53 -25 -15 -14 -39 -25 -54 -25 -16 0 -28 -4
-28 -9 0 -5 -9 -13 -21 -16 -11 -4 -24 -18 -29 -31 -6 -14 -18 -24 -30 -24
-11 0 -20 -4 -20 -10 0 -5 -7 -10 -16 -10 -9 0 -14 -6 -11 -13 8 -22 -16 -43
-57 -51 -25 -5 -40 -14 -43 -26 -4 -14 -20 -22 -59 -30 -30 -6 -54 -15 -54
-20 0 -4 -8 -6 -19 -3 -10 3 -22 0 -25 -6 -4 -6 -20 -11 -37 -11 -16 0 -29 -3
-29 -7 0 -5 -47 -9 -105 -9 -58 -1 -105 2 -105 7 0 5 -16 9 -35 9 -64 0 -125
22 -131 47 -4 13 -10 23 -15 23 -22 0 -6 19 21 25 17 4 30 12 30 18 0 7 16 25
35 40 35 28 35 28 115 17 45 -6 89 -8 100 -5 10 3 21 2 24 -3 16 -27 270 38
279 71 3 9 15 17 26 17 14 0 21 6 21 20 0 15 9 22 30 26 16 4 32 14 35 24 3
10 20 23 36 29 17 6 33 19 36 30 3 13 16 20 48 23 23 3 57 13 75 22 18 9 41
16 52 16 10 0 18 5 18 10 0 6 15 10 34 10 25 0 35 5 39 20 4 14 14 20 35 20
17 0 34 5 37 10 9 14 53 12 57 -2 4 -10 13 -10 44 -1 131 39 140 39 147 13z
m-7183 -10 c10 -6 29 -10 42 -10 40 0 188 -53 188 -67 0 -7 -6 -13 -12 -13 -7
0 -24 -9 -38 -20 -14 -11 -32 -20 -41 -20 -9 0 -19 -7 -23 -15 -3 -8 -14 -15
-25 -15 -11 0 -21 -5 -23 -10 -3 -11 -68 16 -80 33 -8 13 -207 2 -221 -12 -6
-6 -33 -11 -59 -11 -26 0 -48 -4 -48 -10 0 -5 -9 -10 -20 -10 -11 0 -20 -4
-20 -10 0 -5 -8 -10 -18 -10 -10 0 -25 -11 -32 -25 -7 -14 -20 -25 -27 -25 -8
0 -21 -6 -29 -12 -35 -29 -84 -82 -84 -90 0 -4 -5 -8 -11 -8 -6 0 -25 -11 -43
-25 -18 -14 -40 -25 -49 -25 -10 0 -17 -4 -17 -10 0 -5 -7 -10 -15 -10 -9 0
-18 -7 -21 -15 -4 -9 -19 -15 -35 -15 -16 0 -29 -4 -29 -10 0 -5 -12 -10 -26
-10 -14 0 -51 -7 -81 -16 -32 -9 -73 -14 -94 -11 -23 3 -39 1 -39 -5 0 -5 -15
-8 -33 -7 -18 2 -38 0 -45 -5 -6 -4 -12 -4 -12 1 0 4 -24 8 -52 9 -57 0 -168
29 -178 45 -8 12 -67 29 -102 29 -23 0 -28 4 -28 24 0 19 7 26 30 31 17 4 30
12 30 20 0 29 54 38 152 25 51 -7 97 -16 101 -20 9 -8 161 -2 187 7 8 3 29 6
45 7 17 1 44 3 61 4 16 1 40 11 51 21 11 11 40 25 63 32 23 7 48 22 56 34 8
12 29 27 48 35 19 7 36 21 39 30 2 10 19 20 38 24 19 3 50 20 71 36 20 17 44
30 52 30 9 0 16 5 16 10 0 6 7 10 15 10 8 0 15 4 15 9 0 5 17 15 38 21 20 7
41 16 47 21 5 5 18 9 30 9 11 0 54 9 95 20 77 20 163 20 200 0z m1879 1 c24
-5 46 -13 50 -17 3 -5 18 -15 34 -23 26 -14 32 -30 27 -76 -2 -25 -28 -55 -47
-55 -8 0 -11 -4 -8 -10 10 -16 -52 -12 -68 4 -21 21 -84 35 -150 33 -31 -1
-57 1 -57 6 0 4 -7 7 -15 7 -8 0 -15 -4 -15 -10 0 -5 -13 -10 -29 -10 -17 0
-33 -4 -36 -10 -3 -5 -17 -10 -31 -10 -13 0 -24 -3 -24 -7 0 -12 -51 -33 -77
-33 -13 0 -23 -4 -23 -9 0 -5 -8 -11 -17 -15 -20 -6 -55 -27 -63 -37 -14 -18
-85 -59 -101 -59 -12 0 -16 -5 -13 -15 4 -9 0 -15 -10 -15 -9 0 -16 -4 -16 -9
0 -5 -10 -13 -22 -17 -13 -3 -35 -15 -50 -25 -14 -11 -33 -19 -42 -19 -9 0
-16 -6 -16 -14 0 -8 -16 -16 -40 -20 -22 -3 -40 -10 -40 -15 0 -5 -16 -12 -35
-15 -19 -4 -35 -11 -35 -16 0 -6 -18 -10 -40 -10 -22 0 -40 -4 -40 -9 0 -19
-90 -23 -217 -11 -137 13 -179 24 -186 51 -3 10 -15 19 -28 21 -13 2 -23 9
-22 16 2 6 -2 12 -8 12 -5 0 -7 5 -4 10 3 6 1 10 -4 10 -26 0 -7 28 29 44 22
10 40 23 40 29 0 13 66 37 100 37 11 0 20 -4 20 -10 0 -5 7 -10 15 -10 8 0 15
-4 15 -10 0 -5 15 -16 33 -24 69 -31 298 4 352 54 12 11 28 20 36 20 8 0 24 7
35 15 10 8 26 15 35 15 9 0 19 6 22 14 3 8 23 23 44 32 21 10 44 24 51 31 7 7
22 13 33 13 10 0 19 5 19 10 0 6 6 10 14 10 8 0 16 7 20 15 3 8 12 15 21 15 8
0 15 4 15 9 0 5 18 12 39 16 27 4 41 13 44 26 4 14 14 19 36 19 17 0 31 5 31
10 0 6 11 10 25 10 14 0 25 5 25 10 0 6 21 10 48 11 26 1 58 5 72 9 34 11 194
11 249 1z m6071 -3 c0 -5 9 -8 20 -8 11 0 20 -5 20 -11 0 -7 17 -10 45 -7 29
2 46 -1 50 -9 2 -7 18 -13 35 -13 16 0 30 -4 30 -10 0 -5 6 -10 13 -10 16 0
67 -23 66 -30 0 -3 -23 -21 -50 -40 -28 -19 -57 -40 -64 -47 -7 -6 -23 -13
-36 -15 -31 -3 -109 20 -109 32 0 6 -45 10 -106 10 -80 0 -109 -4 -120 -15 -9
-8 -26 -15 -40 -15 -13 0 -24 -4 -24 -10 0 -5 -13 -10 -30 -10 -16 0 -30 -4
-30 -10 0 -5 -7 -10 -15 -10 -8 0 -29 -9 -47 -20 -18 -11 -40 -20 -48 -20 -8
0 -27 -11 -42 -25 -15 -14 -32 -25 -38 -25 -6 0 -13 -7 -16 -15 -4 -8 -12 -15
-19 -15 -19 0 -75 -30 -75 -41 0 -5 -7 -9 -15 -9 -9 0 -18 -7 -21 -15 -4 -8
-14 -15 -23 -15 -20 0 -71 -22 -71 -31 0 -4 -21 -12 -47 -19 -27 -6 -57 -15
-68 -20 -45 -18 -303 4 -327 28 -7 7 -24 12 -38 12 -30 0 -70 33 -70 58 0 10
12 22 30 29 17 6 30 19 30 28 0 15 8 16 68 9 37 -3 69 -11 70 -15 10 -25 312
8 312 33 0 4 6 8 14 8 8 0 16 7 20 15 3 10 19 15 46 15 27 0 47 7 60 20 11 11
26 20 34 20 8 0 18 9 21 20 3 11 11 20 17 20 6 0 18 8 27 19 9 10 26 21 38 25
12 4 38 20 58 36 21 17 44 30 51 30 8 0 14 7 14 15 0 8 7 15 15 15 8 0 32 9
55 21 22 11 58 23 80 26 22 3 43 9 45 13 6 10 205 7 205 -2z m-10710 -10 c0
-6 13 -8 32 -6 50 8 168 -30 168 -52 0 -6 5 -10 11 -10 6 0 17 -7 26 -16 14
-14 13 -18 -18 -44 -19 -16 -46 -32 -61 -35 -16 -4 -28 -11 -28 -16 0 -5 -23
-9 -51 -9 -42 0 -52 3 -56 19 -4 16 -18 21 -80 27 -90 8 -202 -2 -223 -20 -8
-7 -21 -11 -27 -9 -7 3 -13 0 -13 -6 0 -6 -9 -11 -20 -11 -11 0 -20 -4 -20
-10 0 -5 -6 -10 -13 -10 -6 0 -25 -13 -40 -30 -16 -16 -37 -30 -48 -30 -10 0
-19 -4 -19 -10 0 -5 -11 -12 -24 -16 -15 -3 -27 -15 -30 -30 -4 -13 -13 -24
-22 -24 -9 0 -21 -13 -27 -30 -7 -18 -19 -30 -29 -30 -10 0 -18 -4 -18 -10 0
-5 -6 -10 -14 -10 -7 0 -19 -6 -26 -14 -6 -8 -17 -13 -24 -10 -8 3 -16 -4 -19
-15 -3 -12 -12 -21 -21 -21 -9 0 -26 -9 -38 -20 -12 -11 -30 -20 -39 -20 -10
0 -21 -4 -24 -10 -3 -5 -22 -10 -41 -10 -19 0 -34 -4 -34 -10 0 -6 -45 -10
-116 -10 -74 0 -113 4 -109 10 9 14 -19 12 -33 -2 -8 -8 -12 -8 -12 -1 0 13
-105 43 -153 43 -26 0 -37 4 -37 15 0 8 -17 19 -41 25 -38 11 -40 12 -23 25
11 8 25 15 32 15 6 0 12 6 12 13 0 14 88 57 118 57 11 0 22 -5 24 -12 3 -9 46
-14 141 -16 121 -4 137 -2 137 12 0 12 10 16 37 16 39 0 142 45 209 91 24 16
45 29 48 29 12 0 56 44 56 56 0 7 16 21 35 30 19 9 35 19 35 23 0 4 16 13 35
21 19 8 35 16 35 20 0 33 273 108 398 108 51 1 82 -3 82 -10z m1640 5 c0 -5
47 -8 106 -7 58 0 107 -3 110 -8 3 -4 18 -8 34 -8 16 0 32 -4 35 -10 3 -5 14
-10 23 -10 10 0 22 -8 29 -19 6 -10 24 -22 39 -25 29 -8 54 -28 54 -46 0 -14
-25 -40 -39 -40 -6 0 -11 -4 -11 -10 0 -19 -69 -23 -108 -5 -20 10 -39 21 -42
25 -3 3 -50 11 -105 18 -111 12 -244 0 -258 -24 -4 -8 -15 -14 -22 -14 -8 0
-15 -4 -15 -10 0 -5 -11 -10 -24 -10 -13 0 -26 -7 -30 -15 -3 -8 -12 -15 -21
-15 -8 0 -15 -4 -15 -10 0 -5 -9 -10 -20 -10 -19 0 -29 -6 -65 -37 -7 -7 -21
-13 -29 -13 -9 0 -16 -4 -16 -10 0 -5 -9 -10 -20 -10 -11 0 -23 -6 -26 -13 -3
-8 -20 -20 -39 -27 -21 -8 -36 -22 -40 -37 -4 -18 -12 -23 -39 -23 -19 0 -36
-4 -38 -8 -6 -16 -98 -62 -123 -62 -13 0 -27 -4 -30 -10 -3 -5 -19 -10 -35
-10 -15 0 -30 -4 -32 -9 -4 -10 -205 3 -263 18 -22 5 -61 15 -87 21 -27 6 -48
16 -48 21 0 5 -9 9 -19 9 -25 0 -37 31 -16 42 8 5 15 13 15 19 0 5 15 24 33
42 28 28 39 32 85 32 31 0 56 -5 60 -12 6 -9 38 -11 112 -8 121 4 207 19 267
46 23 10 53 19 67 19 14 0 28 5 31 10 3 6 26 10 50 10 41 0 44 2 65 45 12 24
30 47 41 50 10 4 19 12 19 19 0 12 65 46 88 46 7 0 12 4 12 8 0 16 68 46 135
59 38 8 88 18 110 22 56 12 55 12 55 4z m10918 -14 c2 -5 10 -9 18 -9 8 0 14
-4 14 -10 0 -5 18 -10 40 -10 22 0 40 -4 40 -10 0 -5 7 -10 15 -10 8 0 15 -2
15 -5 0 -12 -56 -58 -82 -67 -18 -7 -28 -17 -28 -30 0 -19 -4 -20 -52 -13 -96
13 -250 16 -263 5 -7 -6 -43 -13 -80 -17 -36 -3 -72 -12 -79 -19 -7 -6 -37
-25 -67 -40 -60 -31 -112 -65 -117 -76 -2 -5 -12 -8 -23 -8 -10 0 -19 -7 -19
-15 0 -8 -8 -15 -18 -15 -9 0 -29 -11 -44 -25 -15 -14 -34 -25 -43 -25 -8 0
-15 -5 -15 -11 0 -16 -26 -39 -44 -39 -9 0 -16 -4 -16 -10 0 -5 -11 -10 -25
-10 -16 0 -25 -6 -25 -15 0 -8 -7 -15 -15 -15 -8 0 -15 -4 -15 -10 0 -5 -18
-10 -40 -10 -22 0 -40 -4 -40 -10 0 -6 -36 -10 -88 -10 -50 0 -93 -5 -99 -11
-25 -25 -143 17 -143 51 0 6 -21 10 -47 10 -50 0 -114 25 -121 48 -2 7 9 15
27 18 17 4 31 13 31 20 0 7 11 21 25 30 14 9 25 23 25 30 0 19 48 18 93 -1 20
-8 52 -15 71 -15 19 0 36 -5 38 -11 5 -14 108 -2 108 12 0 5 12 9 28 9 52 0
133 28 157 54 13 14 29 27 35 27 5 1 15 2 20 3 6 0 14 6 18 13 9 15 105 63
126 63 9 0 16 7 16 15 0 8 20 24 45 35 25 11 45 27 45 34 0 9 26 20 69 31 38
9 72 23 75 31 3 9 20 14 46 14 28 0 40 4 40 14 0 15 40 22 155 29 73 5 209 -5
213 -14z m-7187 -3 c15 -8 60 -17 100 -21 41 -4 76 -10 79 -14 9 -11 50 -31
64 -31 8 0 16 -7 20 -15 3 -8 17 -15 31 -15 18 0 25 -5 25 -20 0 -11 -7 -20
-15 -20 -9 0 -20 -12 -25 -26 -6 -14 -19 -28 -30 -31 -11 -3 -20 -9 -20 -13 0
-5 -14 -13 -32 -19 -27 -10 -34 -8 -55 11 -16 15 -40 23 -78 26 -30 2 -55 8
-55 12 0 24 -226 11 -266 -15 -13 -8 -30 -15 -39 -15 -8 0 -23 -4 -33 -9 -9
-5 -40 -20 -69 -33 -35 -15 -54 -31 -58 -45 -3 -15 -13 -23 -28 -23 -22 0 -57
-31 -57 -50 0 -6 -18 -10 -40 -10 -22 0 -40 -4 -40 -10 0 -5 -7 -10 -15 -10
-8 0 -23 -4 -33 -9 -25 -13 -86 -31 -103 -31 -9 0 -25 -9 -37 -20 -25 -23 -78
-26 -264 -15 -95 6 -109 9 -129 31 -12 13 -27 24 -31 24 -15 0 -38 27 -38 44
0 9 7 16 15 16 8 0 15 4 15 9 0 5 23 12 52 15 28 4 60 12 70 17 14 7 31 6 62
-6 71 -27 212 -8 304 41 25 13 51 24 59 24 8 0 46 20 84 45 38 25 74 45 79 45
5 0 14 9 20 19 5 11 26 25 45 32 19 7 35 18 35 24 0 11 137 65 167 65 11 0 23
3 27 8 27 27 195 40 237 18z m2837 -27 c23 -8 42 -17 42 -21 0 -5 11 -8 25 -8
14 0 37 -11 50 -24 13 -13 29 -26 36 -28 16 -5 2 -48 -17 -48 -8 0 -14 -4 -14
-10 0 -5 -9 -10 -20 -10 -11 0 -20 -7 -20 -15 0 -12 -13 -15 -60 -15 -33 0
-60 4 -60 10 0 5 -19 14 -42 21 -49 13 -256 5 -272 -11 -6 -6 -23 -10 -38 -10
-17 0 -28 -5 -28 -14 0 -7 -8 -16 -17 -19 -10 -4 -36 -18 -58 -32 -22 -14 -48
-28 -57 -31 -10 -4 -18 -10 -18 -15 0 -5 -7 -9 -15 -9 -9 0 -18 -7 -21 -15 -4
-8 -17 -15 -29 -15 -13 0 -25 -3 -27 -7 -4 -11 -75 -55 -120 -77 -21 -9 -38
-21 -38 -26 0 -6 -19 -10 -42 -10 -52 0 -88 -9 -88 -22 0 -5 -7 -17 -16 -26
-14 -13 -49 -17 -215 -20 -122 -3 -199 -1 -199 5 0 5 -22 16 -50 23 -27 7 -50
17 -50 22 0 4 -10 8 -22 8 l-23 1 24 20 c14 11 35 34 47 50 30 42 89 69 146
69 26 0 48 -3 48 -7 0 -5 29 -8 65 -9 36 0 65 3 65 8 0 4 19 8 43 8 45 0 85
13 156 48 25 12 53 22 63 22 10 0 18 5 18 10 0 6 7 10 15 10 7 0 18 6 22 13
11 17 43 34 92 47 24 6 41 17 41 25 0 9 10 15 25 15 14 0 25 4 25 10 0 5 11
12 25 16 14 3 25 10 25 15 0 5 5 9 10 9 6 0 20 9 32 20 12 11 29 20 38 20 9 0
20 3 24 7 4 4 38 15 74 24 83 20 334 19 400 -2z m-9066 0 c48 -7 88 -16 88
-20 0 -5 14 -9 30 -9 17 0 30 -4 30 -10 0 -5 11 -10 24 -10 16 0 27 -7 31 -20
7 -22 0 -40 -16 -40 -5 0 -15 -4 -22 -10 -76 -62 -77 -62 -115 -56 -20 4 -48
8 -62 10 -14 1 -36 9 -50 16 -14 8 -70 15 -129 18 -89 4 -105 2 -113 -12 -5
-9 -21 -16 -36 -16 -16 0 -32 -8 -40 -20 -7 -11 -21 -20 -32 -20 -11 0 -20 -4
-20 -10 0 -5 -6 -10 -14 -10 -8 0 -30 -13 -48 -30 -18 -16 -38 -30 -44 -30 -7
0 -14 -7 -18 -15 -3 -8 -14 -15 -24 -15 -10 0 -35 -16 -55 -35 -20 -19 -40
-35 -45 -35 -6 0 -12 -7 -16 -15 -3 -8 -17 -15 -31 -15 -14 0 -25 -4 -25 -10
0 -5 -7 -10 -15 -10 -9 0 -26 -11 -39 -25 -13 -14 -31 -25 -40 -25 -9 0 -16
-4 -16 -10 0 -5 -18 -10 -41 -10 -23 0 -47 -7 -55 -15 -10 -10 -35 -15 -70
-15 -30 0 -54 -4 -54 -10 0 -6 -55 -10 -144 -10 -86 0 -147 4 -151 10 -3 6
-26 10 -51 10 -27 0 -43 4 -41 11 1 6 -11 19 -28 28 -22 13 -31 26 -33 49 -2
18 1 32 6 32 5 0 12 9 15 20 3 12 14 20 26 20 12 0 21 6 21 15 0 8 7 15 15 15
8 0 15 4 15 9 0 16 53 20 67 5 8 -8 20 -14 27 -14 7 0 27 -7 45 -16 42 -21
181 -24 244 -4 26 8 47 17 47 21 0 4 29 10 65 14 36 3 65 11 65 15 0 5 16 12
36 16 20 4 47 17 61 30 13 12 34 24 46 26 12 2 21 9 19 16 -1 6 5 12 13 12 8
0 20 9 27 21 15 23 100 69 128 69 28 0 50 11 50 24 0 14 68 46 98 46 14 0 22
6 22 16 0 11 5 14 17 10 20 -8 113 14 113 26 0 12 139 10 242 -3z m14268 -129
c0 -5 17 -10 38 -10 31 -1 84 -24 71 -32 -31 -20 -52 -28 -69 -28 -11 0 -20
-4 -20 -10 0 -14 -168 -11 -210 4 -53 19 -44 38 27 56 34 9 65 19 69 23 11 11
94 8 94 -3z m-10747 -41 c128 -19 117 -42 -26 -53 -50 -4 -97 -11 -105 -15
-18 -10 -115 12 -120 27 -2 6 9 14 25 17 15 3 46 12 68 20 50 17 69 18 158 4z
m968 -6 c9 -9 8 -15 -3 -25 -33 -31 -60 -38 -145 -37 -139 2 -168 16 -110 57
29 21 41 23 139 20 65 -2 112 -8 119 -15z m5393 1 c4 -9 5 -17 4 -18 -2 -1
-13 -7 -25 -13 -32 -18 -96 -27 -138 -19 -48 9 -44 21 13 35 26 7 58 16 72 20
41 14 67 12 74 -5z m-9109 -4 c3 -5 15 -10 26 -10 10 0 19 -7 19 -15 0 -9 -9
-15 -25 -15 -14 0 -36 -7 -50 -16 -19 -12 -27 -13 -44 -3 -16 11 -25 10 -47
-1 -21 -12 -28 -12 -31 -2 -3 6 -16 12 -29 12 -28 0 -33 24 -6 35 14 6 93 18
164 24 9 0 20 -3 23 -9z m1900 -12 c21 -9 41 -20 42 -25 3 -9 -163 -33 -229
-33 -21 0 -38 5 -38 10 0 6 -16 10 -36 10 -28 0 -35 4 -32 17 8 40 208 54 293
21z m2720 7 c17 -14 18 -17 3 -31 -12 -12 -40 -16 -126 -17 -150 -3 -164 11
-45 43 83 23 142 24 168 5z m-3701 -15 c16 -16 -1 -22 -74 -28 -48 -3 -70 -1
-70 7 0 6 -8 11 -17 11 -24 0 -4 17 27 23 34 7 123 -2 134 -13z m9006 3 c0
-20 -68 -36 -126 -28 -60 7 -68 18 -26 33 38 14 152 10 152 -5z m878 0 c-3
-17 -79 -42 -130 -43 -28 0 -50 21 -30 28 7 2 12 9 12 15 0 8 26 13 76 15 66
2 75 0 72 -15z m865 -2 c19 -19 -10 -30 -83 -33 -156 -5 -184 8 -79 37 60 16
144 14 162 -4z m-4403 -1 c25 -16 -17 -37 -86 -45 -102 -11 -185 15 -96 31 20
3 51 10 67 14 42 11 97 11 115 0z m-10220 -19 c0 -5 14 -11 30 -15 17 -3 44
-9 61 -12 24 -5 29 -11 27 -28 -3 -18 -9 -21 -42 -18 -24 3 -42 -1 -47 -9 -5
-8 -35 -15 -78 -17 -65 -4 -72 -2 -94 22 -18 19 -34 26 -61 26 -20 0 -36 3
-36 6 0 12 34 33 53 34 9 0 17 5 17 10 0 6 35 10 85 10 47 0 85 -4 85 -9z
m2137 -7 c30 -8 30 -24 -1 -24 -14 0 -28 -4 -31 -10 -3 -5 -19 -10 -35 -10
-16 0 -32 -4 -35 -10 -3 -5 -28 -10 -56 -10 -27 0 -49 5 -49 10 0 6 -20 10
-45 10 -25 0 -45 4 -45 10 0 11 64 30 103 30 15 0 27 5 27 11 0 12 111 7 167
-7z m6295 -1 c32 -10 58 -20 58 -23 0 -3 -7 -13 -15 -24 -12 -16 -28 -19 -117
-18 -65 0 -104 4 -106 11 -2 6 -16 11 -30 11 -15 0 -33 4 -41 9 -12 8 -12 11
1 24 28 28 169 34 250 10z m7003 7 c13 -20 -17 -40 -59 -40 -23 0 -47 -5 -53
-11 -7 -7 -22 -7 -52 2 -40 12 -56 29 -26 29 9 0 18 7 21 15 5 12 24 15 84 15
44 0 82 -5 85 -10z m-4404 -10 c19 0 29 -5 29 -15 0 -11 -13 -15 -54 -15 -30
0 -57 4 -61 9 -7 12 26 32 43 26 8 -3 27 -5 43 -5z m-1726 -20 c-3 -5 -22 -10
-41 -10 -19 0 -34 5 -34 10 0 6 18 10 41 10 24 0 38 -4 34 -10z"/>
</g>
</svg>
