<?xml version="1.0" standalone="no"?>
<!DOCTYPE svg PUBLIC "-//W3C//DTD SVG 20010904//EN"
 "http://www.w3.org/TR/2001/REC-SVG-20010904/DTD/svg10.dtd">
<svg version="1.0" xmlns="http://www.w3.org/2000/svg"
 width="1085.000000pt" height="545.000000pt" viewBox="0 0 1085.000000 545.000000"
 preserveAspectRatio="xMidYMid meet">
<metadata>
Created by potrace 1.13, written by Peter Selinger 2001-2015
</metadata>
<g transform="translate(0.000000,545.000000) scale(0.100000,-0.100000)"
fill="#000000" stroke="none">
<path d="M9813 5283 c-7 -2 -13 -10 -13 -17 0 -7 -8 -21 -19 -30 -10 -9 -31
-45 -47 -79 -30 -67 -35 -134 -11 -171 7 -12 20 -43 27 -71 8 -27 20 -56 27
-63 14 -15 18 -78 5 -86 -5 -3 -30 6 -57 19 -69 36 -117 32 -136 -9 -13 -27
-29 -54 -55 -91 -17 -24 -22 -50 -26 -136 -3 -58 -2 -112 3 -121 5 -9 4 -22
-4 -32 -11 -15 -43 -17 -277 -21 -146 -2 -314 -7 -375 -10 -136 -7 -166 0
-177 43 -5 18 -13 32 -17 32 -5 0 -22 21 -37 47 -58 100 -421 432 -439 403 -3
-5 -24 -14 -46 -20 -38 -10 -109 -55 -154 -97 -80 -75 -165 -196 -165 -236 0
-6 -8 -20 -18 -31 -10 -12 -30 -58 -43 -103 -24 -82 -39 -99 -65 -73 -6 6 -22
6 -44 0 -41 -11 -159 -9 -178 4 -8 5 -18 4 -25 -3 -14 -14 -134 -14 -142 0 -7
10 -32 9 -142 -7 -17 -3 -34 -1 -37 5 -8 13 -544 15 -560 2 -16 -14 -463 -20
-476 -7 -5 5 -10 19 -10 29 0 10 -9 21 -20 24 -11 3 -20 12 -20 19 0 8 -25 50
-55 94 -30 44 -55 84 -55 88 0 5 -13 21 -30 35 -16 15 -30 32 -30 38 0 18
-121 146 -156 165 -33 18 -34 18 -63 -4 -17 -12 -33 -22 -36 -22 -12 0 -81
-56 -135 -110 -109 -109 -150 -171 -184 -282 -28 -92 -24 -91 -258 -89 -112 1
-206 5 -210 9 -5 5 -37 4 -73 -2 -43 -6 -69 -6 -75 0 -7 7 -35 6 -81 -1 -42
-6 -108 -7 -158 -3 -47 4 -238 7 -424 7 -262 0 -343 3 -355 13 -20 17 -287 17
-304 0 -15 -15 -48 -16 -48 -2 0 13 -43 13 -56 0 -16 -16 -239 -16 -258 -1 -9
8 -16 17 -16 22 0 15 -70 119 -80 119 -5 0 -25 28 -45 63 -20 34 -51 75 -68
91 -17 15 -38 42 -47 60 -10 17 -27 36 -39 42 -13 7 -28 17 -34 23 -22 22 -55
11 -98 -33 -23 -25 -47 -53 -52 -63 -6 -10 -40 -62 -76 -117 -36 -54 -73 -110
-81 -125 -9 -14 -23 -37 -32 -51 -9 -14 -19 -39 -22 -56 l-7 -31 -242 -6
c-133 -3 -350 -2 -482 2 -132 3 -329 6 -439 6 l-198 -1 7 50 c8 65 20 86 45
79 12 -3 22 1 26 11 3 9 14 16 23 16 9 0 22 5 29 12 9 9 16 7 31 -6 19 -17 21
-17 44 6 43 41 40 71 -12 141 -31 42 -54 63 -71 65 -14 2 -29 8 -34 13 -13 12
-93 12 -101 -1 -3 -6 -22 -10 -42 -10 -34 0 -35 1 -29 33 4 17 9 55 12 84 6
48 4 55 -26 93 -17 22 -40 40 -49 40 -23 0 -100 -78 -108 -108 -3 -13 1 -57 9
-98 8 -41 14 -74 13 -74 -12 0 -113 34 -119 41 -18 17 -66 9 -109 -18 -23 -15
-44 -30 -47 -33 -3 -3 -14 -10 -25 -16 -11 -6 -25 -20 -30 -30 -6 -10 -21 -35
-33 -54 -27 -44 -28 -90 -2 -123 11 -14 20 -30 20 -36 0 -33 74 8 82 45 3 17
11 19 81 15 l78 -3 44 -46 43 -47 1 -109 c1 -60 3 -112 6 -114 2 -3 0 -13 -6
-24 -5 -10 -7 -23 -4 -28 8 -14 18 -268 14 -395 0 -16 0 -109 0 -205 0 -96 -2
-192 -6 -213 -3 -21 0 -63 7 -93 16 -66 8 -79 -50 -76 -54 4 -180 -35 -205
-62 -11 -13 -35 -28 -52 -36 -18 -7 -33 -17 -33 -22 0 -5 -16 -16 -35 -24 -19
-8 -35 -18 -35 -22 0 -4 -34 -41 -75 -82 -68 -68 -122 -148 -113 -167 10 -24
131 -125 178 -149 30 -15 57 -30 60 -34 10 -11 116 -44 165 -52 28 -4 70 -11
95 -15 l45 -8 8 -80 c4 -44 6 -199 6 -345 -2 -399 12 -1163 21 -1180 9 -16 60
-17 635 -18 110 -1 209 -2 220 -2 49 -4 213 -11 364 -15 175 -5 203 -12 216
-57 13 -44 46 -105 65 -123 11 -10 20 -24 20 -30 0 -7 7 -19 16 -26 17 -14
134 -187 134 -198 0 -7 80 -51 93 -51 4 0 7 5 7 11 0 6 9 18 21 28 34 28 136
180 181 271 23 47 46 87 50 88 5 2 17 21 28 42 11 21 24 41 29 45 8 5 84 12
176 18 11 0 98 -2 194 -6 120 -5 178 -4 187 4 9 7 19 7 36 -2 27 -16 363 -22
1090 -22 345 0 482 3 527 13 51 11 66 11 86 0 20 -11 37 -11 95 0 82 15 91 11
129 -65 12 -25 29 -45 37 -45 8 0 14 -5 14 -12 0 -6 32 -44 70 -84 39 -39 70
-77 70 -84 0 -11 38 -60 88 -113 15 -17 17 -17 29 -1 7 9 17 42 24 73 6 31 23
76 39 102 15 25 31 56 35 70 8 27 54 100 70 111 5 3 27 22 49 41 36 33 43 35
125 40 47 2 90 1 95 -4 11 -10 50 -12 58 -4 5 5 271 18 342 16 15 0 33 -4 40
-9 15 -13 533 -16 540 -3 4 6 18 4 36 -6 16 -8 38 -12 48 -9 10 4 204 8 431
10 l412 3 30 -32 c17 -17 37 -44 44 -59 8 -16 24 -45 34 -65 11 -20 31 -61 46
-91 33 -69 54 -106 83 -147 13 -18 29 -54 37 -81 8 -27 21 -55 29 -61 8 -6 24
-35 36 -64 21 -48 35 -66 51 -67 14 0 136 103 162 138 49 63 121 175 143 222
11 25 28 51 37 59 10 7 17 19 17 26 0 7 11 29 25 49 13 20 31 60 40 89 9 28
27 64 40 79 21 24 32 28 77 28 29 0 70 -5 91 -11 27 -7 42 -7 51 0 11 10 301
16 356 9 8 -1 53 1 100 5 47 4 144 12 215 18 72 6 171 18 220 26 75 14 123 18
259 23 5 0 6 54 3 130 -25 493 -45 748 -59 767 -5 6 -9 36 -8 65 2 29 0 60 -3
68 -3 8 -11 76 -17 150 -5 74 -14 160 -18 190 -11 83 -3 113 33 121 87 19 167
75 305 212 26 26 52 47 57 47 6 0 26 16 47 36 38 37 153 104 179 104 8 0 17 9
20 19 4 16 -2 21 -35 26 -43 8 -90 44 -243 189 -51 49 -102 88 -118 92 -15 3
-33 14 -40 25 -18 30 -133 79 -219 94 -62 12 -72 31 -65 132 6 81 2 232 -22
833 -7 190 -6 217 8 233 22 26 79 48 107 41 32 -8 104 -79 104 -103 0 -10 6
-24 14 -30 12 -10 17 -9 24 6 34 65 43 276 15 362 -9 28 -20 51 -25 51 -4 0
-8 6 -8 14 0 7 -9 25 -20 39 -23 29 -151 66 -173 50 -10 -8 -103 -43 -114 -43
-11 0 7 64 52 190 22 60 13 122 -30 210 -46 91 -61 106 -92 93z m64 -143 c39
-75 40 -90 9 -155 -13 -27 -31 -67 -40 -88 -20 -47 -38 -43 -48 10 -4 23 -16
60 -27 84 -22 46 -28 104 -11 114 6 4 22 29 36 56 14 28 30 49 37 46 6 -2 26
-32 44 -67z m-9070 -339 c2 -13 -1 -29 -7 -35 -6 -8 -6 -25 1 -50 6 -21 8 -44
5 -52 -10 -25 -37 -15 -52 21 -21 50 -18 93 9 121 26 28 39 26 44 -5z m7464
-23 c76 -66 280 -273 314 -319 36 -51 62 -100 70 -136 3 -18 11 -35 16 -38 14
-9 11 -59 -6 -91 -8 -16 -15 -38 -15 -49 0 -26 -51 -129 -89 -180 -16 -22 -40
-58 -52 -80 -12 -22 -45 -59 -73 -81 l-53 -41 -24 30 c-13 17 -33 40 -45 51
-11 12 -30 37 -42 56 l-21 36 35 49 c19 28 41 60 50 72 13 19 44 168 44 215 0
36 -41 59 -105 59 -33 0 -96 2 -140 4 -44 2 -137 4 -207 4 l-128 1 0 30 c0 31
2 37 38 107 12 23 22 48 22 56 0 7 14 23 30 36 17 12 29 28 28 36 -3 14 1 19
93 110 77 76 134 115 170 115 19 0 47 -16 90 -52z m1827 -13 c28 -9 54 -20 57
-25 13 -21 33 -119 39 -192 10 -116 -19 -151 -73 -88 -26 29 -44 34 -113 32
-26 -2 -38 -7 -38 -17 0 -8 -13 -24 -29 -36 -16 -12 -32 -30 -34 -40 -11 -41
-77 -5 -77 41 0 20 -47 65 -78 75 -34 10 -119 -24 -152 -61 -26 -30 -28 -31
-37 -13 -9 21 0 145 15 218 12 53 43 80 93 81 29 0 44 -9 92 -56 33 -33 63
-54 73 -52 18 3 82 84 83 105 1 19 52 42 92 43 19 0 58 -7 87 -15z m-4360 -25
c12 -16 22 -34 22 -41 0 -18 40 -69 55 -69 8 0 22 -12 31 -27 49 -79 126 -192
139 -203 24 -20 55 -99 67 -171 10 -58 9 -82 -11 -190 -31 -166 -31 -167 -96
-252 -61 -81 -76 -92 -105 -77 -26 14 -70 55 -70 65 0 5 -6 15 -14 24 -88 97
-91 103 -62 133 48 49 78 327 39 359 -12 11 -57 14 -187 14 -122 0 -178 4
-195 14 -17 9 -20 16 -12 24 6 6 11 19 11 29 0 10 15 50 34 90 25 54 53 91
103 140 105 103 186 168 209 168 11 0 30 -13 42 -30z m-3058 -55 c0 -8 15 -29
33 -47 18 -18 38 -45 46 -59 7 -15 23 -37 35 -50 38 -42 122 -153 139 -184 9
-16 27 -66 42 -111 23 -74 25 -86 15 -153 -10 -73 -23 -108 -46 -126 -14 -11
-47 -64 -69 -112 -8 -17 -32 -44 -52 -60 -21 -15 -50 -41 -64 -57 -38 -44 -65
-32 -116 53 -49 78 -51 91 -23 116 11 10 22 27 26 39 4 11 20 36 35 54 26 30
29 40 29 107 0 63 -4 80 -27 119 -22 36 -34 45 -56 46 -15 0 -36 5 -46 12 -15
9 -22 8 -37 -6 -15 -15 -18 -16 -25 -3 -7 11 -23 14 -73 10 -59 -5 -65 -4 -76
17 -10 19 -10 24 4 32 9 5 16 16 16 25 0 18 79 142 104 162 9 8 26 36 37 62
12 27 36 60 55 74 19 14 34 32 34 39 0 6 5 17 12 24 14 14 48 -2 48 -23z
m-1655 -77 c14 -6 25 -16 25 -22 0 -6 12 -22 26 -35 17 -16 24 -33 22 -50 -3
-25 -6 -26 -66 -27 -111 -3 -134 -31 -136 -167 l-1 -82 355 -4 c463 -6 904 -7
1060 -3 154 4 306 -16 326 -43 29 -40 8 -164 -36 -215 l-25 -30 -115 9 c-65 5
-165 5 -230 0 -63 -5 -126 -8 -140 -8 -38 3 -120 2 -580 -5 -354 -5 -427 -9
-439 -21 -11 -11 -15 -44 -16 -137 -1 -109 -33 -699 -38 -704 -1 -1 -22 2 -47
6 -25 5 -87 9 -138 10 l-93 0 6 53 c8 66 9 801 2 1007 -6 170 -14 213 -46 258
-11 17 -21 34 -21 39 0 6 -10 15 -22 22 -13 6 -36 20 -53 30 -33 21 -83 19
-122 -5 -12 -8 -30 -14 -39 -14 -10 0 -26 -7 -36 -17 -17 -15 -18 -15 -18 5 0
12 11 29 24 37 14 10 27 30 30 50 5 25 12 35 26 35 10 0 21 4 24 9 9 14 81 24
115 16 29 -6 111 -74 111 -92 0 -5 13 -14 29 -20 34 -13 51 -2 51 34 0 13 4
23 9 23 5 0 23 12 40 26 26 22 74 37 138 43 7 0 24 -4 38 -11z m8730 -134 c24
-10 49 -64 35 -78 -11 -11 -144 -15 -155 -4 -12 12 19 47 47 53 14 4 32 13 39
21 13 16 12 16 34 8z m131 -151 c11 -8 31 -485 39 -945 2 -103 6 -192 10 -199
4 -6 9 -52 10 -103 1 -50 6 -141 10 -202 l8 -112 -29 -18 c-21 -14 -47 -19
-112 -19 -106 0 -112 7 -113 119 0 45 -4 104 -9 131 -7 42 3 139 15 153 2 2
17 -6 33 -18 40 -29 82 -21 82 15 0 31 -31 48 -81 43 -36 -3 -40 -1 -45 22 -3
14 -8 32 -11 40 -3 8 -9 89 -14 180 -5 91 -11 201 -14 245 -2 44 -7 136 -11
204 -6 112 -8 126 -30 148 l-23 23 -353 0 c-615 -1 -566 -3 -578 21 -9 16 -8
28 3 52 43 91 50 115 48 154 -3 52 3 54 140 52 91 -2 631 11 636 15 7 6 381 5
389 -1z m-6281 -34 c72 -5 308 -12 525 -14 217 -2 420 -7 450 -10 30 -3 102
-1 159 3 102 9 164 3 205 -20 13 -7 26 -6 43 3 18 10 26 10 35 1 16 -16 61
-15 76 0 9 9 15 9 24 0 17 -17 99 -14 122 3 20 15 77 20 90 8 3 -4 29 -6 56
-4 67 3 110 -16 110 -50 0 -33 36 -71 63 -67 32 4 33 36 1 69 -24 25 -25 29
-10 35 9 3 44 4 78 2 44 -3 64 -10 74 -23 22 -30 16 -93 -15 -159 -16 -34 -31
-68 -34 -77 -4 -13 -31 -17 -154 -22 -148 -7 -192 -3 -205 17 -11 16 -333 15
-349 -1 -9 -9 -49 -13 -124 -13 -60 0 -153 -5 -205 -10 -52 -5 -259 -10 -460
-11 -201 -1 -529 -5 -730 -9 -201 -5 -376 -6 -388 -3 -20 5 -23 10 -18 32 3
14 11 65 17 112 10 74 10 93 -5 134 -26 78 -30 75 97 69 61 -3 157 -1 212 4
55 5 107 10 115 10 8 1 74 -3 145 -9z m3635 -5 c146 -2 285 -7 310 -12 42 -8
108 -4 226 13 29 4 54 4 57 -2 6 -9 414 -8 453 1 31 8 46 -58 27 -122 -46
-149 -49 -151 -239 -150 -429 1 -727 -3 -796 -12 -42 -6 -107 -11 -145 -11
-37 -1 -70 -5 -74 -10 -6 -11 -948 -17 -966 -6 -8 5 -7 23 4 70 9 37 13 96 11
147 l-3 85 150 3 c83 1 269 6 415 11 146 4 274 6 285 3 11 -2 139 -6 285 -8z
m833 -331 c70 -5 80 -9 102 -35 13 -15 27 -28 32 -28 4 -1 35 -34 68 -75 33
-41 67 -77 76 -80 9 -3 38 -32 63 -65 26 -33 54 -60 62 -60 8 0 14 -7 14 -15
0 -9 7 -18 15 -21 20 -8 19 -34 0 -34 -9 0 -18 -6 -21 -14 -3 -8 -17 -16 -32
-19 -15 -3 -47 -19 -72 -36 -25 -17 -50 -31 -56 -31 -21 0 -324 320 -324 343
0 8 -9 22 -19 31 -20 18 -71 114 -71 134 0 15 21 22 55 16 17 -3 65 -8 108
-11z m-2496 -59 c27 -15 78 -59 118 -105 39 -43 93 -94 120 -113 28 -19 70
-53 95 -75 l45 -41 -24 -18 c-13 -9 -35 -29 -50 -43 -14 -14 -39 -34 -55 -45
-95 -63 -106 -66 -106 -28 0 18 -17 43 -55 83 -30 31 -89 92 -131 135 -41 44
-85 84 -96 90 -12 6 -25 23 -29 38 -4 15 -17 39 -28 54 -12 15 -21 39 -21 55
0 26 3 28 48 32 108 8 120 7 169 -19z m-3156 -13 c80 14 82 13 135 -67 45 -67
214 -240 231 -236 7 2 23 -13 34 -33 15 -25 26 -34 38 -30 9 3 25 -1 35 -8 18
-13 17 -15 -12 -35 -16 -12 -33 -22 -37 -22 -7 0 -73 -51 -113 -88 -32 -28
-56 -21 -97 26 -52 61 -178 195 -222 236 -24 22 -43 45 -43 53 0 7 -12 19 -27
27 -45 23 -111 98 -127 143 l-15 42 47 3 c26 2 60 -3 75 -10 24 -11 42 -11 98
-1z m5598 -186 c17 -20 31 -39 31 -43 0 -4 18 -27 40 -51 42 -45 49 -73 25
-105 -8 -11 -15 -28 -15 -37 0 -9 -21 -42 -46 -73 -32 -40 -55 -83 -78 -149
-17 -52 -41 -107 -53 -123 -32 -46 -46 -76 -53 -114 -3 -19 -10 -35 -16 -35
-15 0 -79 80 -102 126 -9 19 -36 58 -60 86 -23 28 -42 55 -42 60 0 6 20 41 45
79 25 38 49 83 54 101 5 17 21 47 35 66 14 19 26 39 26 45 0 25 40 102 53 102
8 0 27 17 42 38 55 73 70 77 114 27z m1298 -98 c2 -83 -2 -157 -11 -213 -8
-46 -13 -90 -10 -97 2 -7 -5 -23 -16 -35 -11 -12 -23 -35 -26 -52 -4 -16 -10
-30 -15 -30 -5 0 -9 -6 -9 -13 0 -7 -9 -18 -20 -25 -11 -7 -20 -21 -20 -31 0
-12 -12 -26 -29 -34 l-29 -14 -87 87 c-86 86 -87 88 -71 111 9 13 16 34 16 46
0 20 -5 23 -42 23 -55 -1 -201 -23 -255 -40 -23 -7 -55 -25 -72 -40 -16 -15
-44 -33 -63 -39 -18 -6 -42 -23 -54 -38 -16 -20 -26 -25 -46 -20 -31 8 -228
136 -228 149 0 5 8 17 18 27 22 23 134 99 164 110 13 5 38 21 57 35 19 14 41
26 47 26 7 0 100 43 206 95 187 92 198 96 328 119 74 13 164 24 199 23 l65 -2
3 -128z m-2470 31 c-6 -100 -21 -190 -34 -210 -17 -27 -33 -85 -33 -120 0 -27
-6 -40 -20 -48 -11 -6 -20 -21 -20 -33 0 -23 -67 -138 -114 -193 -14 -18 -26
-37 -26 -43 0 -15 -29 10 -137 116 -90 89 -93 94 -93 136 0 67 -24 72 -146 31
-81 -27 -163 -74 -199 -114 -36 -41 -97 -80 -125 -80 -19 0 -44 15 -76 43 -27
24 -67 56 -89 70 -22 14 -51 35 -65 46 l-25 20 40 41 c22 23 69 55 104 73 36
17 83 50 105 73 53 53 129 104 156 104 12 0 33 9 47 20 14 11 31 20 38 20 7 0
19 8 26 17 24 29 151 81 229 93 41 6 122 14 180 17 58 3 107 7 109 9 2 2 42 4
89 4 l84 0 -5 -92z m503 62 c38 -13 68 -26 142 -59 26 -12 51 -21 54 -21 4 0
21 -11 39 -24 17 -14 47 -27 66 -31 19 -3 45 -14 58 -24 22 -17 23 -19 7 -49
-9 -17 -16 -42 -16 -55 0 -15 -10 -31 -25 -41 -14 -9 -25 -22 -25 -29 0 -7 -9
-30 -20 -52 -31 -61 -26 -94 23 -157 23 -30 55 -73 71 -94 17 -22 44 -55 62
-74 17 -19 35 -44 38 -56 4 -11 19 -27 34 -35 44 -23 95 -93 155 -213 l40 -80
-7 -175 c-5 -112 -12 -186 -21 -206 -7 -16 -21 -54 -30 -82 -9 -29 -21 -56
-26 -59 -12 -7 -49 24 -49 42 0 7 -13 26 -30 42 -46 46 -53 76 -55 217 -3 159
-13 209 -54 246 -17 15 -31 33 -31 39 0 42 -109 148 -215 210 -23 14 -57 42
-75 63 -18 20 -36 37 -41 37 -5 0 -23 15 -39 34 -17 19 -46 41 -65 50 -19 9
-35 22 -35 28 0 6 -22 33 -50 59 -27 26 -50 50 -50 53 0 2 -16 28 -35 57 -21
32 -37 70 -40 98 -3 25 -11 54 -16 64 -18 32 -23 183 -9 230 22 70 23 70 135
64 55 -3 116 -11 135 -17z m-1903 -29 c7 -9 13 -19 13 -23 0 -5 39 -47 87 -94
l87 -86 -49 -44 c-28 -24 -100 -82 -160 -128 -65 -49 -122 -101 -140 -127 -63
-95 -137 -157 -173 -144 -18 6 -62 69 -62 89 0 6 -4 16 -9 22 -11 11 -51 122
-51 141 0 7 10 15 23 19 12 3 34 22 49 41 16 20 36 41 46 47 69 42 91 60 101
84 7 16 25 36 41 46 17 9 30 21 30 25 0 4 14 22 30 39 17 18 30 35 30 40 0 4
10 12 23 17 14 6 23 21 25 38 3 24 7 27 25 21 12 -4 27 -14 34 -23z m-3703
-26 c63 -8 143 -24 178 -35 35 -11 79 -20 99 -20 20 0 47 -8 60 -19 13 -10 33
-20 44 -23 16 -3 11 -11 -32 -42 -29 -21 -53 -42 -53 -46 0 -5 -29 -27 -65
-49 -84 -53 -175 -131 -175 -150 0 -6 24 -34 53 -63 28 -29 72 -86 97 -127 25
-41 78 -110 118 -155 60 -66 72 -86 69 -108 -2 -20 4 -34 20 -50 28 -27 29
-40 2 -64 -13 -12 -18 -26 -15 -40 4 -16 -3 -31 -24 -54 -17 -18 -30 -40 -30
-50 0 -9 -9 -25 -20 -35 -11 -10 -20 -30 -20 -45 0 -18 -8 -31 -25 -40 -13 -7
-35 -30 -49 -50 -21 -32 -30 -37 -58 -35 -37 3 -50 23 -108 161 -26 63 -31 85
-25 120 3 24 10 46 16 49 5 4 9 33 9 66 0 70 -12 93 -84 164 -70 70 -106 111
-106 123 0 5 -10 16 -22 24 -28 19 -168 155 -168 163 0 4 -20 32 -44 64 -64
83 -103 174 -117 276 -5 43 -4 63 5 73 12 12 159 28 288 31 37 0 119 -6 182
-14z m699 -255 c-37 -37 -83 -75 -101 -84 -19 -10 -76 -59 -128 -109 -103
-101 -173 -162 -178 -156 -2 2 -15 29 -29 59 -15 31 -42 74 -60 95 -19 22 -40
51 -47 65 -11 21 -11 26 4 35 76 45 258 192 288 231 20 27 52 67 70 90 l33 41
108 -100 108 -101 -68 -66z m1346 211 c17 -11 18 -49 2 -176 -19 -159 -27
-183 -80 -244 -26 -31 -55 -70 -64 -87 -9 -17 -26 -38 -39 -46 -13 -9 -34 -26
-48 -40 -38 -37 -86 -68 -106 -68 -20 0 -182 164 -195 198 -5 12 -16 25 -24
28 -18 7 -145 -26 -145 -37 0 -5 -7 -9 -15 -9 -9 0 -37 -11 -63 -24 -27 -13
-66 -28 -88 -32 -21 -4 -55 -20 -75 -36 l-36 -29 -55 55 c-30 30 -78 68 -106
85 -27 18 -53 38 -56 46 -3 8 -12 15 -21 15 -29 0 -15 19 21 29 20 5 46 20 58
33 12 13 42 35 67 51 46 28 102 68 130 91 9 8 26 17 38 21 25 8 85 81 76 94
-13 21 32 49 79 49 52 0 198 22 208 31 12 10 522 12 537 2z m991 -5 c30 -1 62
-5 70 -8 23 -9 130 -29 183 -35 31 -4 47 -10 47 -20 0 -7 7 -16 15 -19 20 -8
19 -45 -2 -74 -10 -13 -49 -54 -87 -92 -80 -81 -80 -73 -5 -223 81 -161 125
-225 156 -225 7 0 14 -8 14 -17 2 -24 4 -35 11 -53 3 -8 11 -44 17 -80 7 -36
19 -75 27 -88 10 -15 13 -34 9 -54 -7 -28 -2 -45 26 -100 17 -34 10 -123 -11
-151 -12 -14 -29 -50 -39 -80 -10 -29 -28 -72 -40 -95 -12 -23 -25 -59 -29
-79 -4 -21 -15 -39 -23 -41 -8 -1 -41 22 -72 52 -31 30 -80 73 -109 94 -29 22
-66 54 -83 71 -25 27 -28 35 -17 51 15 25 36 195 27 228 -4 15 -9 47 -11 72
-4 52 -74 220 -125 300 -20 30 -57 81 -82 112 -26 32 -47 65 -47 74 0 25 -19
54 -80 124 -31 36 -72 85 -90 110 -19 25 -58 71 -87 102 -29 31 -53 65 -53 75
0 11 -5 24 -12 31 -17 17 -6 23 53 27 88 6 174 17 179 22 3 3 52 2 110 -2 58
-3 130 -8 160 -9z m3381 -321 c33 -25 61 -45 63 -45 2 0 62 -39 132 -86 71
-48 136 -89 144 -92 22 -9 221 -156 250 -186 51 -51 79 -93 85 -129 4 -20 11
-40 16 -43 14 -8 10 -68 -6 -90 -8 -10 -14 -26 -15 -34 0 -26 -90 -196 -124
-236 -18 -22 -42 -54 -54 -72 -22 -38 -20 -40 -57 48 -27 63 -105 347 -105
381 0 45 -51 106 -130 154 -25 15 -58 40 -75 55 -16 16 -48 33 -71 39 -22 6
-51 22 -64 36 -13 14 -43 36 -66 50 -44 26 -114 100 -114 120 0 7 11 28 24 48
13 19 27 46 31 58 12 42 35 69 56 69 12 0 48 -20 80 -45z m-5646 -2 c24 -22
35 -38 27 -41 -30 -10 -6 -48 96 -150 109 -110 195 -178 211 -168 5 3 20 -3
32 -14 18 -15 21 -22 11 -28 -15 -10 9 -36 44 -46 12 -4 29 -15 39 -26 21 -23
22 -22 -60 -160 -25 -41 -45 -82 -45 -90 0 -9 -11 -32 -25 -52 -14 -20 -25
-42 -25 -47 0 -6 -12 -17 -27 -25 -28 -14 -28 -13 -126 85 l-98 100 7 62 6 62
-49 45 c-72 66 -95 83 -130 100 -18 8 -77 55 -133 104 l-100 90 97 101 c143
147 179 162 248 98z m6323 -18 c11 -14 24 -25 29 -25 10 0 52 -39 132 -123 29
-31 97 -86 152 -123 54 -37 108 -77 120 -90 12 -13 27 -24 32 -24 6 0 26 -12
45 -26 31 -24 34 -31 29 -63 -2 -21 -16 -62 -31 -93 -14 -30 -26 -60 -26 -66
0 -7 -2 -12 -4 -12 -9 0 -158 92 -191 118 -5 4 -27 18 -47 31 -21 12 -38 26
-38 31 0 5 -24 23 -52 41 -114 72 -138 88 -218 154 -102 82 -170 155 -170 180
0 23 66 65 101 65 10 0 19 6 19 14 0 15 41 34 77 35 12 1 30 -10 41 -24z
m-3250 -5 c8 -4 30 -21 50 -38 84 -73 138 -112 153 -112 9 0 23 -7 30 -17 8
-9 58 -49 111 -90 113 -85 113 -85 105 -250 -6 -109 -9 -136 -20 -163 -3 -8
-14 -42 -23 -75 -16 -58 -46 -127 -66 -152 -7 -9 -27 1 -76 39 -90 69 -132
109 -132 125 0 8 6 24 14 36 8 12 17 41 21 64 4 23 15 59 26 80 10 20 19 49
19 63 0 29 -25 70 -43 70 -7 0 -45 25 -86 55 -41 30 -79 55 -85 55 -8 -1 -247
115 -285 137 -2 2 3 11 12 21 10 10 17 23 17 29 0 5 11 20 25 33 14 13 25 29
25 36 0 7 21 26 48 42 41 27 53 30 97 25 28 -3 56 -9 63 -13z m724 -47 c15
-15 28 -32 28 -39 0 -6 65 -76 143 -155 199 -199 221 -219 238 -219 23 0 39
-21 39 -50 0 -40 -10 -49 -110 -95 -19 -9 -41 -22 -50 -30 -8 -8 -34 -18 -58
-23 -40 -10 -43 -9 -64 22 -13 17 -36 45 -53 62 -16 17 -61 66 -100 108 -97
107 -93 102 -186 193 -47 45 -91 93 -98 106 -20 38 6 69 81 96 35 12 72 28 82
36 31 24 76 18 108 -12z m3861 -91 c101 -52 165 -101 278 -213 36 -36 80 -72
98 -80 17 -8 31 -19 31 -25 0 -15 -29 -38 -68 -54 -18 -7 -52 -32 -77 -56 -24
-24 -49 -44 -54 -44 -6 0 -43 -32 -83 -71 -40 -39 -87 -77 -103 -84 -17 -6
-37 -19 -45 -26 -59 -58 -362 -102 -414 -60 -6 5 -33 21 -61 36 -27 15 -54 31
-58 35 -11 10 73 178 93 186 8 3 48 10 89 15 40 4 78 13 85 18 6 5 33 8 59 6
70 -4 78 13 67 135 -5 52 -12 151 -16 219 l-7 124 44 -6 c25 -3 88 -28 142
-55z m-525 -39 c-6 -37 -5 -60 2 -67 5 -5 10 -55 10 -112 0 -58 4 -106 10
-109 6 -3 10 -17 10 -31 0 -13 -4 -24 -10 -24 -5 0 -10 -8 -10 -17 0 -25 -90
-196 -111 -211 -10 -7 -34 -43 -52 -80 -18 -37 -43 -83 -55 -102 -12 -19 -24
-47 -28 -63 -6 -27 -23 -63 -60 -123 -9 -15 -20 -20 -36 -17 -22 4 -38 24
-100 125 l-18 29 65 127 c36 69 74 136 84 147 11 11 25 39 32 63 7 23 16 42
21 42 4 0 8 11 8 24 0 13 9 35 20 49 11 14 20 31 20 37 0 18 41 99 72 144 16
21 28 46 28 55 0 25 42 103 75 139 16 17 30 32 31 32 0 0 -3 -25 -8 -57z
m-6413 8 c17 -16 37 -39 45 -51 21 -32 103 -110 115 -110 6 0 16 -9 23 -20 7
-11 18 -20 26 -20 8 0 16 -6 19 -14 3 -7 27 -23 54 -35 26 -13 55 -27 63 -32
8 -5 25 -13 38 -19 27 -12 28 -20 2 -53 -11 -14 -20 -29 -20 -34 0 -14 -136
-143 -151 -143 -8 0 -45 27 -84 60 -121 102 -139 116 -195 152 -60 38 -110 84
-110 101 0 6 -11 22 -24 36 -13 15 -36 50 -52 80 -27 52 -27 54 -9 67 10 8 28
14 40 14 25 0 116 29 130 41 19 18 61 8 90 -20z m-2225 -79 c11 -13 26 -20 44
-18 74 8 234 -50 268 -98 17 -24 17 -26 -8 -55 -14 -17 -34 -31 -43 -31 -10 0
-29 -9 -42 -21 -56 -49 -179 -97 -179 -69 0 18 -55 66 -72 62 -9 -1 -19 2 -23
7 -7 13 -65 15 -65 2 0 -5 -19 -11 -42 -15 -72 -11 -166 -49 -178 -72 -7 -11
-12 -73 -13 -137 -2 -111 -3 -117 -22 -117 -12 0 -25 4 -30 8 -13 12 -92 39
-135 47 -60 11 -177 74 -214 116 -39 42 -45 73 -21 105 8 10 15 27 15 37 0 9
5 17 10 17 6 0 15 11 20 25 5 14 14 25 20 25 6 0 34 24 63 53 29 28 68 59 87
69 82 39 189 72 238 73 29 1 56 5 60 10 4 4 61 5 126 2 105 -4 122 -7 136 -25z
m630 -76 c0 -14 17 -36 45 -59 51 -43 55 -54 21 -67 -13 -5 -27 -17 -30 -28
-6 -19 -45 -42 -71 -42 -8 0 -23 -8 -33 -17 -9 -10 -29 -26 -42 -35 -14 -9
-67 -55 -119 -102 -52 -47 -100 -86 -107 -86 -7 0 -19 -8 -26 -17 -12 -17 -25
-26 -83 -57 -11 -6 -22 -14 -25 -17 -13 -16 -82 -40 -96 -35 -15 6 -16 20 -10
128 4 77 12 128 21 140 7 11 37 33 67 48 116 59 140 73 145 86 3 8 14 14 25
14 18 0 71 48 93 85 6 10 28 25 50 33 38 15 74 47 75 66 0 5 8 14 17 21 14 11
23 9 50 -12 19 -15 33 -34 33 -47z m3030 -31 c0 -8 9 -22 19 -32 28 -26 60
-114 51 -138 -4 -11 -41 -51 -81 -89 -188 -175 -194 -182 -212 -244 -18 -57
-29 -72 -152 -202 -23 -25 -61 -70 -85 -100 -64 -83 -112 -120 -153 -120 -20
0 -39 5 -42 10 -8 12 -112 80 -123 80 -5 0 -26 17 -48 37 -40 38 -64 57 -121
94 -55 35 -37 86 57 169 l61 52 40 -27 c26 -17 47 -24 57 -19 10 4 21 6 27 5
5 -1 33 5 62 14 40 13 69 32 112 75 33 32 71 66 85 75 14 10 26 21 26 26 0 17
90 125 169 204 45 44 81 86 81 94 0 8 26 42 58 75 l57 61 28 -43 c15 -23 27
-49 27 -57z m1484 0 c15 -19 74 -83 131 -141 l105 -106 -6 -102 c-8 -126 10
-205 63 -274 19 -26 41 -50 48 -54 7 -4 15 -19 19 -32 3 -13 14 -26 24 -28 10
-3 39 -37 66 -77 27 -39 65 -88 85 -109 35 -35 55 -65 116 -177 15 -27 38 -64
51 -82 20 -26 24 -44 24 -101 0 -44 -5 -73 -12 -79 -26 -21 -153 -30 -293 -23
-77 5 -149 12 -160 16 -46 18 -165 118 -165 140 0 6 -8 22 -18 34 -19 23 -18
24 39 100 32 42 65 83 74 90 33 28 19 53 -95 166 -70 69 -64 63 -101 107 -17
20 -29 43 -26 51 3 8 0 22 -8 32 -7 10 -11 24 -8 31 3 7 1 13 -4 13 -26 0 -42
215 -22 300 6 25 11 108 11 185 0 77 2 143 5 148 9 16 32 5 57 -28z m-578 -2
c14 -9 39 -23 56 -32 46 -24 55 -43 40 -93 -7 -24 -22 -80 -34 -125 l-22 -83
22 -20 c12 -12 22 -27 22 -35 0 -16 151 -168 158 -160 3 3 28 -16 56 -42 28
-25 68 -62 89 -80 52 -49 49 -71 -20 -132 -31 -28 -61 -51 -66 -51 -5 0 -33
20 -61 45 -29 25 -58 45 -64 45 -6 0 -20 16 -32 35 -12 19 -93 103 -180 187
-182 175 -178 167 -141 302 11 44 21 87 21 96 0 9 11 31 25 50 14 19 25 42 25
53 0 55 53 75 106 40z m1546 -63 c42 -45 78 -84 80 -88 2 -4 33 -34 70 -66 37
-33 70 -67 73 -76 5 -15 -39 -76 -80 -112 -28 -24 -85 -56 -85 -48 0 13 -77
83 -102 92 -25 10 -64 -11 -128 -67 -28 -25 -54 -45 -59 -45 -5 0 -41 -25 -82
-55 -41 -30 -106 -70 -144 -88 -39 -19 -76 -42 -84 -51 -13 -15 -16 -13 -38
19 -13 19 -29 35 -36 35 -7 0 -24 21 -37 48 -53 101 -52 95 -20 146 17 26 40
50 52 55 13 5 48 20 78 33 30 14 81 36 113 49 32 13 72 36 89 52 17 15 34 27
39 27 5 0 9 4 9 9 0 15 131 141 146 141 8 0 22 16 31 35 9 19 22 35 28 35 6 0
45 -36 87 -80z m-3133 48 c44 -45 131 -156 131 -166 0 -6 13 -18 29 -27 75
-38 75 -84 -1 -136 -90 -61 -138 -89 -138 -79 0 18 -82 90 -102 90 -26 0 -98
-59 -98 -80 0 -10 -16 -32 -36 -51 -44 -41 -54 -51 -169 -169 -120 -122 -120
-122 -146 -63 -23 53 -49 168 -49 214 0 32 54 109 76 109 7 0 23 13 36 28 13
16 42 42 65 58 24 16 45 37 48 46 4 10 26 38 51 63 24 26 42 51 38 57 -8 13
28 88 43 88 6 0 13 6 15 13 3 7 34 14 84 18 43 3 84 6 90 7 6 1 21 -8 33 -20z
m-1646 -9 c20 -11 35 -23 100 -83 14 -13 32 -26 41 -29 20 -8 20 -31 0 -62
-22 -33 -16 -47 35 -86 24 -19 49 -43 55 -54 14 -25 124 -135 135 -135 5 0 18
-22 30 -50 12 -27 26 -50 31 -50 6 0 10 -11 10 -25 0 -15 6 -25 15 -25 8 0 24
-21 35 -47 11 -27 25 -55 29 -64 17 -30 1 -67 -36 -84 -19 -9 -49 -37 -66 -61
-41 -59 -72 -67 -105 -28 -13 16 -35 42 -48 58 -14 16 -28 42 -31 57 -3 19
-21 37 -57 60 -28 18 -83 58 -123 91 -39 32 -74 58 -78 58 -15 0 -80 35 -97
52 -10 10 -22 18 -28 18 -5 0 -24 10 -43 23 -32 22 -33 24 -20 55 7 17 17 32
23 32 15 0 50 76 57 125 3 25 10 48 14 51 5 3 9 36 9 74 0 82 12 117 42 130
31 12 46 12 71 -1z m5874 -1 c15 -7 47 -27 70 -45 23 -18 48 -33 56 -33 9 0
22 -6 29 -13 7 -7 25 -20 41 -30 19 -12 27 -26 27 -47 0 -16 4 -31 10 -35 5
-3 7 -12 4 -20 -8 -20 20 -148 64 -290 32 -107 123 -278 193 -365 19 -25 44
-68 54 -97 22 -62 14 -86 -47 -134 -42 -34 -62 -30 -96 18 -11 16 -36 45 -56
67 -20 21 -49 61 -64 88 -51 94 -58 106 -84 137 -15 17 -30 45 -33 63 -4 18
-21 52 -36 75 -16 23 -29 48 -29 56 0 9 -4 17 -9 19 -8 3 -82 163 -96 208 -4
14 -12 28 -17 31 -22 14 -47 321 -28 344 15 18 12 18 47 3z m-661 -56 c16 -15
41 -41 55 -58 14 -16 47 -48 73 -72 45 -42 46 -45 46 -102 0 -80 -20 -116 -97
-175 -35 -27 -110 -94 -166 -147 -56 -54 -107 -98 -113 -98 -6 0 -29 -16 -50
-35 -21 -19 -43 -35 -50 -35 -7 0 -46 -13 -87 -30 -42 -16 -89 -30 -106 -30
-16 0 -41 -4 -56 -10 -19 -7 -33 -6 -53 4 -31 16 -110 97 -135 138 -42 68 -58
101 -50 108 25 22 216 140 228 140 7 0 16 -9 20 -19 10 -31 53 -54 89 -46 17
3 44 8 59 9 15 2 42 17 60 34 18 18 38 32 44 32 22 0 95 89 125 151 17 35 33
66 37 69 6 5 40 123 48 170 11 59 21 59 79 2z m1475 -84 c74 -54 99 -78 99
-94 0 -13 -4 -26 -10 -29 -13 -8 -13 -162 -1 -169 5 -4 13 -41 16 -84 4 -42
16 -99 27 -126 26 -66 96 -154 128 -161 41 -9 206 -193 215 -240 2 -11 9 -49
16 -85 21 -102 17 -265 -7 -325 -28 -71 -49 -79 -172 -65 -137 16 -283 63
-296 95 -3 8 -13 15 -21 15 -23 0 -105 58 -105 75 0 18 71 104 87 104 7 1 22
14 34 31 12 16 35 32 50 35 46 10 53 27 40 96 -5 33 -17 74 -26 91 -8 17 -15
36 -15 41 0 6 -12 25 -26 44 -14 19 -28 53 -31 76 -3 23 -11 47 -18 52 -7 6
-16 25 -19 43 -4 17 -11 32 -16 32 -14 0 -50 132 -66 245 -19 127 -19 119 -5
250 6 55 10 106 11 113 0 6 3 12 6 12 3 0 50 -32 105 -72z m-5918 32 c14 -11
28 -20 31 -20 4 0 50 -38 104 -86 102 -90 116 -112 106 -176 -9 -50 13 -187
43 -272 13 -38 26 -86 28 -108 3 -22 12 -49 20 -61 8 -12 21 -42 29 -65 17
-47 78 -171 104 -213 10 -14 27 -40 39 -59 18 -27 19 -36 10 -54 -17 -30 -39
-45 -65 -46 -12 0 -25 -7 -28 -15 -4 -9 -19 -15 -40 -15 -22 0 -41 -8 -58 -25
-14 -14 -33 -25 -44 -25 -10 0 -23 -5 -29 -11 -7 -7 -17 -8 -28 -1 -11 6 -31
6 -54 0 -53 -14 -99 -11 -118 7 -6 7 -48 15 -92 18 -54 3 -86 10 -96 21 -9 9
-26 16 -38 16 -22 0 -97 54 -97 70 0 8 100 77 218 149 28 18 52 37 52 42 0 5
9 9 20 9 26 0 25 22 -3 68 -46 72 -84 227 -91 372 -3 58 -8 141 -11 185 -9
135 22 315 55 315 4 0 19 -9 33 -20z m-2157 -46 c19 -9 39 -25 45 -36 6 -10
11 -108 13 -222 1 -111 6 -208 10 -214 10 -17 11 -195 1 -211 -6 -11 -18 -423
-17 -616 0 -74 15 -172 28 -184 5 -5 27 -11 49 -12 22 -2 46 -10 54 -17 10
-10 29 -12 65 -8 131 16 231 18 268 5 21 -7 38 -15 38 -18 0 -4 8 -7 18 -7 92
-4 187 -16 192 -24 4 -6 46 -10 100 -9 90 1 140 12 140 31 0 18 28 7 56 -23
29 -30 29 -32 29 -144 0 -96 3 -116 19 -134 10 -11 16 -27 13 -35 -8 -20 -41
-22 -181 -14 -77 5 -125 4 -138 -3 -11 -6 -27 -7 -36 -4 -9 4 -136 9 -282 11
-464 6 -659 13 -679 23 -27 15 -33 60 -37 301 -2 118 -6 325 -9 460 -3 135 -6
424 -6 644 0 361 2 400 17 417 9 11 25 19 34 19 9 0 33 8 53 18 50 24 100 26
143 6z m698 -40 c9 -3 16 -12 16 -19 0 -7 7 -18 14 -25 17 -13 45 -69 76 -150
33 -87 50 -120 96 -191 39 -60 47 -67 84 -73 l42 -6 -20 -31 c-48 -76 -92
-117 -142 -134 -28 -9 -62 -14 -75 -11 -21 5 -25 12 -25 44 0 22 -13 61 -32
97 -17 33 -40 77 -51 98 -11 21 -28 42 -39 48 -11 6 -34 27 -51 46 -16 19 -46
42 -66 53 -20 10 -46 29 -58 42 l-23 24 73 74 c103 106 141 129 181 114z
m3055 -314 c12 0 21 -6 21 -12 0 -7 16 -28 35 -47 19 -19 35 -40 35 -47 0 -8
17 -25 38 -38 20 -14 51 -39 67 -57 33 -35 124 -107 161 -127 13 -7 24 -21 24
-30 0 -20 -38 -97 -69 -140 -11 -17 -21 -34 -21 -39 0 -14 -52 -60 -75 -67
-14 -4 -42 7 -85 34 -36 21 -81 48 -100 59 -19 11 -66 54 -103 95 -38 42 -73
76 -78 76 -10 0 -87 63 -146 118 l-24 22 32 40 c18 22 37 40 43 40 19 1 48 50
46 78 -4 57 1 73 36 112 l36 39 53 -54 c31 -32 62 -55 74 -55z m2993 -18 c10
-8 15 -19 12 -23 -3 -5 -1 -9 4 -9 6 0 14 -12 20 -28 18 -52 185 -222 289
-293 55 -38 59 -78 12 -118 -17 -14 -44 -38 -60 -53 -16 -14 -29 -23 -29 -20
0 4 -4 2 -8 -3 -8 -12 -116 -65 -132 -65 -5 0 -53 54 -107 121 -135 166 -137
169 -150 169 -6 0 -21 24 -33 53 -12 28 -31 63 -41 76 l-19 23 93 93 c94 95
115 106 149 77z m-5488 -32 c8 0 37 -16 65 -35 28 -19 53 -35 56 -35 9 0 150
-121 158 -136 12 -21 -12 -55 -89 -127 -35 -34 -64 -67 -64 -74 0 -8 -7 -16
-15 -19 -8 -4 -15 -12 -15 -20 0 -8 -5 -14 -12 -14 -7 0 -33 -20 -58 -44 -69
-67 -181 -140 -254 -166 -46 -17 -238 -40 -367 -45 -160 -6 -152 -18 -153 223
0 165 2 197 22 272 13 47 28 108 33 135 17 82 26 81 83 -8 48 -77 63 -118 71
-199 8 -78 22 -97 61 -79 14 6 33 11 42 11 25 0 134 72 164 109 14 16 60 82
102 145 42 63 86 122 97 130 19 13 23 12 40 -5 10 -10 25 -19 33 -19z m7694
25 c54 -1 97 -6 104 -13 7 -7 13 -59 15 -133 2 -66 10 -205 19 -307 8 -103 20
-252 25 -332 6 -80 14 -146 19 -148 5 -2 6 -10 3 -18 -3 -9 0 -26 7 -39 7 -14
10 -35 6 -52 -12 -49 -12 -68 -3 -80 12 -16 17 -262 6 -269 -5 -3 -49 -9 -97
-14 -82 -8 -144 -23 -167 -41 -6 -4 -33 -8 -60 -8 -28 0 -120 -5 -205 -10
-211 -14 -1197 -6 -1215 9 -8 7 -17 22 -21 33 -4 12 -13 26 -20 32 -8 6 -13
39 -15 85 -3 125 -1 147 19 155 9 3 69 8 132 11 63 2 151 7 195 11 44 4 122 7
173 7 50 0 92 3 92 6 0 10 197 -1 266 -16 57 -12 89 -13 175 -4 70 7 105 7
107 0 5 -14 59 -13 64 1 3 9 28 7 93 -5 122 -22 160 -21 186 5 18 18 20 28 14
63 -11 67 -29 283 -45 531 -6 88 -15 220 -21 293 -6 73 -8 162 -4 198 7 65 7
66 33 58 15 -4 69 -8 120 -9z m-4330 -102 c48 -49 97 -99 109 -113 l23 -26
-40 -48 c-22 -27 -40 -54 -40 -60 0 -7 -19 -35 -42 -64 -57 -69 -81 -102 -97
-134 -8 -16 -18 -28 -22 -28 -13 0 -76 -63 -89 -88 -6 -13 -27 -30 -45 -38
-22 -9 -41 -28 -55 -56 -27 -54 -110 -121 -186 -152 -93 -38 -281 -52 -409
-30 -55 9 -115 18 -132 21 -18 3 -33 9 -33 14 0 5 -6 9 -14 9 -7 0 -19 7 -26
15 -7 8 -23 15 -35 15 -13 0 -32 11 -43 25 -16 20 -18 32 -11 67 11 63 24 90
53 117 14 14 26 35 26 48 0 13 4 23 9 23 5 0 19 15 30 34 12 18 35 39 51 46
17 7 30 16 30 20 0 5 42 -15 93 -42 141 -78 221 -118 235 -118 7 0 33 14 58
31 41 28 73 72 129 178 16 30 371 421 383 421 1 0 42 -39 90 -87z m-2622 -21
c23 -14 65 -133 59 -164 -5 -22 1 -45 25 -93 34 -68 34 -95 1 -95 -11 0 -48
-25 -83 -56 -34 -31 -76 -63 -93 -71 -16 -9 -51 -35 -77 -59 -26 -24 -53 -44
-61 -44 -7 0 -26 -13 -41 -29 -43 -45 -78 -56 -110 -36 -14 10 -26 21 -26 26
0 5 -18 21 -40 35 -51 34 -53 64 -7 95 17 12 37 27 42 34 6 6 39 37 75 70 36
32 106 96 155 141 50 46 107 96 127 111 44 33 55 58 35 81 -8 9 -18 27 -21 40
-6 17 -3 22 11 22 10 0 23 -4 29 -8z m3186 -106 c15 -17 56 -62 90 -99 53 -58
60 -71 50 -85 -7 -9 -16 -27 -22 -40 -5 -12 -16 -25 -25 -28 -8 -3 -13 -10
-10 -15 3 -4 -4 -13 -15 -19 -11 -6 -27 -24 -35 -40 -9 -17 -22 -30 -29 -30
-17 0 -96 -89 -96 -107 0 -7 -4 -13 -8 -13 -4 0 -23 -16 -42 -36 -19 -20 -59
-60 -89 -88 -29 -28 -57 -60 -60 -70 -7 -16 -16 -11 -77 44 -71 64 -154 156
-154 169 0 5 17 28 38 52 21 24 54 67 72 94 19 28 36 52 40 55 3 3 27 31 54
63 27 31 55 57 63 57 7 0 16 6 19 13 2 7 38 41 79 76 41 35 75 68 75 75 0 23
52 5 82 -28z m2231 -35 c24 -49 46 -81 58 -84 10 -3 19 -13 19 -24 0 -10 6
-30 14 -45 13 -24 12 -30 -10 -60 -29 -39 -155 -158 -168 -158 -5 0 -26 -16
-47 -35 -22 -19 -44 -35 -50 -35 -6 0 -32 -15 -58 -33 -45 -33 -111 -67 -128
-67 -8 0 -141 -52 -213 -83 -23 -10 -88 -18 -191 -22 l-157 -8 0 141 c0 77 -3
145 -6 151 -9 15 22 160 45 208 29 60 47 63 89 14 20 -23 40 -41 46 -41 6 0
17 -15 26 -32 8 -18 36 -56 62 -84 25 -29 46 -55 46 -60 0 -4 7 -16 17 -26 17
-19 73 -25 73 -8 0 6 12 16 28 23 83 36 227 155 284 234 54 74 114 149 130
161 10 7 18 19 18 27 0 11 13 22 30 24 3 0 22 -35 43 -78z m-5779 -71 c25 -27
46 -55 46 -62 0 -16 -96 -112 -160 -161 l-44 -34 -43 31 c-24 16 -43 35 -43
40 0 20 39 75 65 92 14 9 25 21 25 27 0 17 81 117 95 117 7 0 33 -22 59 -50z
m6401 -20 c4 -16 19 -40 33 -52 77 -65 64 -187 -23 -223 -18 -8 -45 -29 -59
-47 -14 -18 -39 -42 -56 -53 -16 -11 -30 -26 -30 -33 0 -7 -27 -41 -61 -75
-34 -33 -72 -76 -86 -94 -14 -18 -30 -33 -36 -33 -16 0 -77 50 -77 63 0 7 -9
18 -20 24 -10 7 -22 29 -26 48 -6 32 -3 40 32 76 22 22 50 46 64 53 14 8 42
30 63 50 21 19 46 41 56 48 22 16 97 129 106 160 6 21 90 113 107 117 3 0 9
-12 13 -29z m-6636 -250 c29 -23 51 -49 51 -59 0 -10 39 -56 87 -102 180 -174
203 -198 203 -218 0 -12 3 -21 8 -21 8 0 36 -59 31 -65 -3 -2 -60 -7 -127 -11
l-123 -7 -35 34 c-19 18 -46 58 -60 89 -28 62 -86 119 -156 155 -25 14 -49 33
-52 42 -3 10 -24 26 -46 36 -46 20 -51 34 -15 47 14 5 51 34 82 65 34 33 66
55 79 55 12 0 45 -18 73 -40z m3233 -145 c11 -22 32 -51 47 -66 14 -14 37 -42
51 -62 14 -21 36 -40 50 -43 14 -4 32 -12 40 -18 8 -7 27 -18 43 -26 22 -11
27 -20 27 -51 0 -45 2 -45 -188 -54 l-124 -6 -61 57 c-204 187 -204 186 -79
309 31 30 64 55 73 55 10 0 21 5 25 11 8 14 65 -49 96 -106z m2813 34 c18 -33
71 -107 86 -119 3 -3 16 -27 30 -54 16 -32 44 -65 82 -95 55 -44 75 -76 64
-104 -4 -10 -45 -13 -167 -15 -94 -1 -168 -6 -175 -12 -9 -7 -23 -1 -51 21
-21 17 -41 34 -44 38 -3 4 -13 10 -23 14 -9 4 -21 17 -26 29 -5 13 -32 54 -60
92 -38 53 -48 73 -39 83 6 7 17 13 25 13 7 0 16 6 19 14 3 7 22 16 42 20 22 3
51 19 71 38 93 87 133 96 166 37z m-6145 -175 c38 -34 70 -84 70 -109 0 -6 10
-20 23 -31 21 -19 22 -25 16 -95 -4 -41 -12 -112 -18 -159 -16 -126 -12 -257
11 -302 10 -21 22 -38 27 -38 14 0 33 28 26 40 -4 6 17 10 62 11 37 0 91 2
118 4 77 4 87 -1 79 -38 -8 -39 -20 -60 -61 -113 -18 -23 -38 -53 -44 -68 -7
-14 -16 -26 -20 -26 -4 0 -13 -16 -19 -36 -7 -20 -31 -56 -54 -80 l-42 -44
-29 30 c-16 17 -35 30 -42 30 -8 0 -17 8 -20 18 -9 24 -71 113 -88 126 -16 13
-49 67 -72 121 -9 22 -27 58 -39 81 -12 22 -25 65 -29 95 -13 91 -13 263 -1
278 8 11 8 15 -1 18 -21 7 -15 64 16 154 32 97 67 169 81 169 6 0 28 -16 50
-36z m3120 -123 l69 -68 0 -59 c0 -33 -5 -76 -11 -97 -9 -28 -8 -62 1 -135 15
-109 32 -152 61 -152 11 0 20 -4 20 -10 0 -13 47 -13 55 0 3 6 24 10 45 10 21
0 42 -4 45 -10 3 -5 17 -10 31 -10 35 0 31 -28 -10 -73 -18 -20 -36 -50 -40
-67 -3 -17 -18 -50 -34 -73 -15 -23 -33 -54 -40 -69 -17 -41 -47 -36 -71 9
-10 21 -50 67 -87 103 -38 36 -76 79 -85 95 -8 17 -30 55 -47 87 -18 31 -32
65 -32 75 0 11 -7 28 -15 39 -9 12 -12 31 -9 52 4 20 1 38 -7 49 -19 22 -19
186 0 233 17 41 78 140 87 140 3 0 36 -31 74 -69z m1128 -90 c107 1 134 -2
156 -16 32 -21 75 -22 224 -5 104 12 114 11 132 -5 16 -15 29 -17 72 -10 29 4
60 7 68 6 8 -1 50 -4 93 -7 50 -4 88 -2 106 6 23 9 35 8 63 -3 27 -11 91 -14
312 -13 273 1 277 1 271 -19 -3 -11 -8 -36 -11 -55 -6 -38 -30 -115 -45 -142
-5 -10 -9 -29 -9 -42 0 -14 -4 -36 -9 -49 -9 -23 -13 -24 -163 -31 -327 -16
-2232 -5 -2249 13 -16 17 -32 106 -34 186 -2 89 8 128 37 152 7 6 72 14 143
17 72 3 184 10 250 16 121 11 320 14 359 5 12 -3 32 1 46 8 21 12 28 12 41 0
12 -10 49 -13 147 -12z m1682 14 c0 -8 8 -15 18 -15 41 0 51 -29 49 -140 -2
-102 4 -135 39 -217 18 -43 49 -50 267 -59 146 -5 177 -9 177 -21 0 -25 -171
-345 -211 -397 -22 -27 -39 -52 -39 -57 0 -15 -148 -159 -164 -159 -9 0 -19 8
-22 18 -31 97 -88 225 -118 262 -7 8 -20 35 -30 60 -23 58 -34 81 -83 160 -21
36 -45 84 -52 108 -7 24 -19 46 -27 49 -16 6 -19 54 -5 81 5 9 19 44 32 77 23
64 54 139 70 168 42 79 57 97 81 97 10 0 18 -7 18 -15z m-3400 -40 c23 -20 72
-27 117 -17 24 6 47 6 57 0 9 -5 21 -6 27 -2 6 3 32 6 58 6 97 0 88 8 94 -89
4 -77 24 -205 43 -269 6 -21 4 -22 -143 -21 -81 1 -220 -3 -308 -8 -186 -9
-145 -9 -460 -1 -540 13 -1135 24 -1425 27 -86 1 -320 -10 -348 -16 -41 -9
-88 10 -96 38 -17 65 3 312 28 329 19 12 202 21 396 19 107 -2 227 -3 265 -2
211 3 363 9 372 14 6 4 33 0 59 -8 58 -17 96 -19 111 -4 13 13 438 14 513 1
88 -16 140 -21 145 -12 5 8 209 24 261 21 18 -1 34 1 37 6 8 13 180 3 197 -12z"/>
<path d="M1269 4148 c-5 -52 14 -80 50 -76 53 6 29 88 -26 88 -12 0 -24 -6
-24 -12z"/>
<path d="M1456 4144 c-3 -9 0 -28 7 -42 15 -32 63 -38 81 -10 8 14 5 22 -14
43 -27 28 -65 33 -74 9z"/>
<path d="M1110 4135 c-20 -24 13 -67 48 -63 40 5 42 42 3 62 -37 19 -36 19
-51 1z"/>
<path d="M1717 4143 c-12 -12 -7 -60 7 -73 24 -19 61 -8 64 18 6 39 -47 80
-71 55z"/>
<path d="M2414 4126 c-11 -47 -2 -61 41 -61 36 0 40 3 43 27 6 49 -72 81 -84
34z"/>
<path d="M2160 4125 c-24 -29 -8 -50 43 -53 55 -4 62 11 22 46 -29 26 -48 28
-65 7z"/>
<path d="M1937 4123 c-15 -14 -6 -41 16 -47 35 -9 75 -7 82 5 12 18 -26 49
-60 49 -17 0 -35 -3 -38 -7z"/>
<path d="M871 4051 c-15 -27 -14 -46 3 -60 19 -16 68 24 64 53 -4 29 -53 35
-67 7z"/>
<path d="M847 3792 c-33 -36 -17 -68 28 -56 27 7 35 40 13 62 -16 16 -22 15
-41 -6z"/>
<path d="M816 3354 c-3 -9 0 -28 7 -42 17 -37 70 -39 75 -4 7 46 -66 87 -82
46z"/>
<path d="M8772 4228 c-15 -15 -16 -45 -1 -53 16 -10 79 4 79 18 0 16 -36 47
-53 47 -7 0 -18 -5 -25 -12z"/>
<path d="M9026 4224 c-3 -9 0 -28 7 -42 9 -20 20 -27 42 -27 38 0 45 28 14 61
-26 28 -54 31 -63 8z"/>
<path d="M9570 4222 c0 -47 52 -77 90 -52 12 9 9 15 -20 40 -40 33 -70 39 -70
12z"/>
<path d="M9254 4195 c-9 -49 0 -67 33 -63 38 4 54 49 28 78 -29 32 -53 26 -61
-15z"/>
<path d="M9781 4126 c-23 -27 -9 -51 32 -54 33 -3 37 -1 37 21 0 14 -7 27 -17
31 -10 3 -23 8 -29 11 -6 3 -17 -1 -23 -9z"/>
<path d="M9749 3914 c-24 -30 20 -71 64 -60 20 5 27 13 27 31 0 41 -64 61 -91
29z"/>
<path d="M9714 3656 c-13 -34 0 -51 42 -54 51 -4 72 16 52 47 -16 25 -85 30
-94 7z"/>
<path d="M9772 3433 c-11 -21 -6 -41 16 -65 18 -22 40 -22 67 -2 17 13 18 16
5 24 -8 5 -12 10 -8 10 5 0 -2 11 -14 25 -25 29 -54 32 -66 8z"/>
<path d="M9810 2866 c-19 -36 -7 -58 27 -50 39 9 43 13 43 33 0 43 -49 55 -70
17z"/>
<path d="M5289 4188 c-5 -56 14 -80 60 -76 47 4 54 32 14 64 -30 25 -72 32
-74 12z"/>
<path d="M5070 4175 c-20 -24 13 -67 48 -63 40 5 42 42 3 62 -37 19 -36 19
-51 1z"/>
<path d="M3370 4171 c-33 -22 27 -71 88 -71 27 0 32 4 32 24 0 13 -6 28 -13
34 -19 16 -90 24 -107 13z"/>
<path d="M4840 4163 c0 -45 41 -73 84 -57 36 14 5 59 -47 69 -32 6 -37 5 -37
-12z"/>
<path d="M3074 4156 c-14 -36 0 -51 46 -51 55 0 64 22 19 48 -37 21 -58 22
-65 3z"/>
<path d="M3896 4154 c-10 -27 16 -69 47 -72 25 -3 27 0 27 30 0 19 -5 39 -12
46 -17 17 -55 15 -62 -4z"/>
<path d="M4569 4158 c-5 -52 14 -80 50 -76 53 6 29 88 -26 88 -12 0 -24 -6
-24 -12z"/>
<path d="M3616 4144 c-3 -9 0 -28 7 -42 9 -20 20 -27 42 -27 38 0 45 28 14 61
-26 28 -54 31 -63 8z"/>
<path d="M4100 4146 c-6 -8 -10 -25 -8 -38 2 -19 10 -24 41 -26 34 -3 37 -1
37 24 0 43 -45 69 -70 40z"/>
<path d="M4330 4146 c-6 -8 -10 -25 -8 -38 2 -19 10 -24 41 -26 34 -3 37 -1
37 24 0 43 -45 69 -70 40z"/>
<path d="M8004 4209 c-16 -17 -16 -22 -4 -29 23 -15 70 -12 88 6 15 15 14 18
-3 30 -27 20 -59 17 -81 -7z"/>
<path d="M7192 4204 c-11 -20 -4 -60 13 -74 8 -6 29 -10 47 -8 46 4 49 32 6
69 -38 32 -53 36 -66 13z"/>
<path d="M7447 4202 c-44 -48 12 -94 74 -62 25 14 25 50 -1 57 -11 3 -20 9
-20 14 0 16 -36 9 -53 -9z"/>
<path d="M7724 4199 c-3 -6 0 -22 7 -35 9 -18 20 -24 38 -22 48 6 34 68 -15
68 -12 0 -26 -5 -30 -11z"/>
<path d="M6960 4186 c-6 -8 -10 -25 -8 -38 2 -18 10 -24 34 -26 27 -3 33 1 38
24 11 41 -37 71 -64 40z"/>
<path d="M6432 4177 c-19 -23 9 -62 43 -62 39 0 46 31 14 56 -29 22 -43 23
-57 6z"/>
<path d="M6673 4174 c-16 -43 38 -67 78 -35 24 20 24 20 4 35 -27 21 -74 20
-82 0z"/>
<path d="M6170 4166 c-6 -8 -10 -25 -8 -38 3 -20 9 -23 43 -23 34 0 41 4 43
22 2 16 -5 26 -27 37 -37 19 -36 19 -51 2z"/>
<path d="M825 2620 c-10 -16 3 -44 35 -75 23 -22 33 -26 42 -17 9 9 9 22 -3
55 -12 33 -21 43 -41 45 -15 2 -29 -2 -33 -8z"/>
<path d="M807 2374 c-15 -15 -7 -63 12 -74 35 -18 42 -12 39 33 -2 33 -7 43
-23 45 -12 2 -24 0 -28 -4z"/>
<path d="M837 2094 c-13 -13 -7 -61 9 -75 14 -11 18 -10 31 6 20 28 13 69 -12
73 -12 2 -24 0 -28 -4z"/>
<path d="M805 1800 c-9 -15 4 -67 21 -80 23 -20 44 -4 44 34 0 25 -6 38 -19
46 -25 13 -38 13 -46 0z"/>
<path d="M764 1546 c-14 -37 40 -114 72 -102 13 5 16 16 11 52 -6 53 -5 52
-45 60 -24 5 -33 3 -38 -10z"/>
<path d="M808 1259 c-44 -25 3 -100 52 -84 15 5 20 15 20 41 0 28 -5 36 -26
44 -30 12 -25 12 -46 -1z"/>
<path d="M1025 1073 c-11 -2 -30 -6 -42 -9 -48 -10 -13 -74 41 -74 60 0 86 39
48 73 -10 10 -20 16 -23 16 -2 -1 -13 -3 -24 -6z"/>
<path d="M1234 1046 c-9 -24 0 -51 19 -54 23 -5 77 17 77 31 0 31 -85 51 -96
23z"/>
<path d="M764 1026 c-10 -27 1 -51 25 -54 31 -5 45 11 37 42 -5 19 -13 26 -32
26 -13 0 -27 -6 -30 -14z"/>
<path d="M1504 1026 c-17 -45 16 -67 67 -46 31 13 36 29 17 48 -17 17 -77 15
-84 -2z"/>
<path d="M1780 1017 c0 -27 16 -37 61 -37 27 0 30 3 27 28 -3 24 -7 27 -45 30
-40 3 -43 1 -43 -21z"/>
<path d="M9834 2218 c8 -40 23 -58 50 -58 27 1 56 23 56 42 0 26 -35 48 -75
48 -37 0 -37 -1 -31 -32z"/>
<path d="M9860 2006 c-6 -8 -10 -25 -8 -38 3 -20 9 -23 43 -23 37 0 40 2 43
29 2 16 -2 32 -10 37 -20 13 -54 11 -68 -5z"/>
<path d="M9917 1783 c-11 -10 -8 -51 4 -58 16 -10 59 4 59 19 0 8 -11 21 -25
30 -28 18 -29 19 -38 9z"/>
<path d="M9930 1566 c-6 -8 -10 -25 -8 -38 2 -18 10 -24 34 -26 42 -4 53 22
23 55 -26 27 -32 28 -49 9z"/>
<path d="M9952 1348 c-17 -17 -15 -67 2 -74 23 -9 56 15 56 39 0 24 -17 47
-35 47 -6 0 -16 -5 -23 -12z"/>
<path d="M8463 1083 c-30 -20 -29 -47 3 -72 33 -26 39 -26 64 -1 23 23 14 63
-16 69 -11 2 -21 7 -24 11 -3 4 -15 1 -27 -7z"/>
<path d="M8720 1066 c-6 -8 -10 -25 -8 -38 2 -18 10 -24 37 -26 36 -4 51 9 51
44 0 34 -56 47 -80 20z"/>
<path d="M9155 1069 c-12 -18 4 -59 24 -59 16 0 60 37 50 43 -51 30 -64 33
-74 16z"/>
<path d="M8942 1058 c-14 -14 -16 -54 -2 -63 5 -3 22 0 37 7 38 18 39 62 3 66
-14 2 -31 -3 -38 -10z"/>
<path d="M9909 1054 c-14 -17 -5 -40 24 -58 23 -15 51 4 55 36 2 19 -2 27 -20
32 -35 9 -44 7 -59 -10z"/>
<path d="M9317 1043 c-4 -3 -7 -17 -7 -30 0 -20 5 -23 40 -23 32 0 40 4 40 18
0 10 -5 23 -12 30 -13 13 -50 16 -61 5z"/>
<path d="M9682 1033 c-13 -26 -4 -43 24 -43 20 0 24 5 24 30 0 23 -4 30 -20
30 -10 0 -23 -8 -28 -17z"/>
<path d="M5610 1095 c-18 -22 12 -65 46 -65 38 0 42 28 8 56 -35 28 -38 28
-54 9z"/>
<path d="M5844 1095 c-10 -24 31 -57 65 -53 52 6 35 55 -22 65 -29 4 -38 2
-43 -12z"/>
<path d="M6382 1080 c-7 -12 -8 -20 -2 -20 5 0 10 -8 10 -19 0 -27 24 -43 62
-39 46 4 49 32 6 69 -39 34 -59 36 -76 9z"/>
<path d="M6122 1078 c-30 -30 -5 -68 43 -68 30 0 55 15 55 32 0 4 -7 8 -15 8
-8 0 -23 9 -32 20 -20 23 -34 25 -51 8z"/>
<path d="M7332 1078 c-30 -30 -5 -68 43 -68 51 0 73 33 30 44 -14 4 -25 13
-25 21 0 18 -31 20 -48 3z"/>
<path d="M7636 1074 c-3 -8 2 -26 12 -39 35 -49 112 -16 80 35 -16 25 -83 28
-92 4z"/>
<path d="M6680 1060 c0 -24 38 -52 66 -48 23 2 29 8 29 28 0 23 -4 25 -47 28
-30 2 -48 -1 -48 -8z"/>
<path d="M6974 1056 c-9 -24 0 -51 19 -54 23 -5 77 17 77 31 0 31 -85 51 -96
23z"/>
<path d="M3269 1058 c-4 -39 22 -78 51 -78 18 0 50 30 50 46 0 13 -58 44 -81
44 -10 0 -20 -6 -20 -12z"/>
<path d="M2444 1036 c-14 -36 0 -51 46 -51 36 0 45 4 48 19 2 11 -4 26 -14 33
-24 17 -73 17 -80 -1z"/>
<path d="M3604 1035 c-11 -27 4 -47 32 -43 34 4 56 34 34 48 -23 15 -60 12
-66 -5z"/>
<path d="M3898 1039 c-10 -5 -18 -21 -18 -34 0 -47 78 -71 94 -30 7 18 -10 65
-23 65 -5 0 -15 2 -23 5 -7 2 -21 0 -30 -6z"/>
<path d="M2704 1008 c8 -42 23 -58 55 -58 33 0 51 17 51 47 0 28 -27 43 -76
43 -36 0 -36 -1 -30 -32z"/>
<path d="M4854 1026 c-9 -23 12 -44 56 -57 46 -14 70 -7 70 19 0 28 -24 44
-75 50 -35 4 -46 1 -51 -12z"/>
<path d="M2980 1016 c-6 -8 -10 -25 -8 -38 3 -20 9 -23 43 -23 37 0 40 2 43
29 2 16 -2 32 -10 37 -20 13 -54 11 -68 -5z"/>
<path d="M4514 1016 c-13 -34 0 -51 44 -54 35 -3 42 0 42 15 0 39 -73 72 -86
39z"/>
<path d="M4209 1004 c-24 -30 20 -71 64 -60 20 5 27 13 27 31 0 41 -64 61 -91
29z"/>
</g>
</svg>
