<?xml version="1.0" standalone="no"?>
<!DOCTYPE svg PUBLIC "-//W3C//DTD SVG 20010904//EN"
 "http://www.w3.org/TR/2001/REC-SVG-20010904/DTD/svg10.dtd">
<svg version="1.0" xmlns="http://www.w3.org/2000/svg"
 width="1556.000000pt" height="1984.000000pt" viewBox="0 0 1556.000000 1984.000000"
 preserveAspectRatio="xMidYMid meet">
<metadata>
Created by potrace 1.13, written by Peter Selinger 2001-2015
</metadata>
<g transform="translate(0.000000,1984.000000) scale(0.100000,-0.100000)"
fill="#000000" stroke="none">
<path d="M0 9920 l0 -9920 7780 0 7780 0 0 9920 0 9920 -7780 0 -7780 0 0
-9920z m11933 9454 c50 -25 99 -52 107 -60 9 -7 58 -34 110 -60 52 -26 97 -51
98 -56 2 -5 50 -31 107 -59 57 -27 105 -53 107 -58 2 -5 46 -30 98 -56 52 -25
97 -50 100 -55 3 -4 51 -30 107 -58 55 -28 103 -55 105 -59 1 -5 47 -30 100
-56 53 -26 98 -52 100 -56 2 -5 42 -28 90 -50 98 -47 141 -79 164 -123 9 -17
44 -59 80 -95 35 -36 64 -70 64 -77 0 -6 29 -41 65 -76 36 -35 65 -69 65 -74
0 -5 30 -42 68 -83 120 -130 169 -188 182 -213 7 -14 42 -54 77 -89 35 -36 63
-70 63 -76 0 -6 29 -40 65 -75 36 -35 65 -69 65 -75 0 -6 27 -37 61 -70 33
-33 68 -73 76 -90 9 -16 26 -39 38 -50 21 -20 125 -220 125 -242 0 -6 50 -111
110 -232 61 -121 110 -225 110 -231 0 -5 52 -114 115 -240 63 -126 115 -235
115 -241 0 -7 21 -53 46 -102 l45 -91 -5 -90 c-11 -176 -18 -241 -29 -255 -6
-7 -10 -40 -9 -73 2 -40 -2 -68 -12 -83 -8 -12 -17 -54 -20 -93 -3 -40 -9
-105 -12 -144 -3 -40 -10 -77 -15 -83 -5 -5 -9 -38 -9 -73 0 -35 -6 -73 -12
-85 -12 -22 -23 -101 -34 -242 -3 -38 -10 -74 -15 -80 -5 -5 -9 -37 -9 -71 0
-34 -3 -69 -6 -77 -3 -9 -152 -88 -330 -177 -178 -89 -327 -166 -330 -171 -8
-13 -663 -339 -680 -339 -20 0 -53 20 -97 58 -20 17 -42 32 -47 32 -5 0 -23
14 -38 30 -16 17 -34 30 -40 30 -10 0 -46 27 -143 110 -20 16 -41 30 -46 30
-5 0 -20 12 -34 26 -13 14 -37 33 -54 41 -16 9 -38 25 -47 36 -10 10 -30 27
-47 36 -50 28 -105 67 -125 90 -11 11 -24 21 -31 21 -6 0 -22 12 -36 26 -13
14 -37 33 -54 41 -16 9 -40 26 -52 39 -12 13 -26 24 -32 24 -9 0 -46 29 -142
110 -20 16 -41 30 -46 30 -5 0 -22 13 -37 29 -16 16 -42 35 -58 42 -21 9 -37
27 -54 65 -13 29 -29 56 -35 59 -6 4 -30 48 -54 99 -24 51 -56 109 -70 130
-14 21 -53 92 -85 156 -33 65 -64 121 -69 124 -5 4 -30 48 -54 100 -25 51 -49
96 -55 100 -5 3 -36 58 -67 121 -31 63 -61 117 -66 121 -5 3 -34 56 -65 117
-31 62 -62 119 -69 127 -7 8 -23 35 -35 60 -23 48 -126 160 -146 160 -7 0 -61
49 -121 109 -61 60 -121 114 -134 121 -23 12 -96 79 -365 335 -66 63 -124 115
-130 115 -5 0 -57 48 -114 106 -58 58 -118 112 -134 121 -16 8 -50 36 -76 62
-25 25 -68 56 -96 68 -143 63 -168 73 -185 73 -10 0 -21 5 -24 10 -3 6 -15 10
-27 10 -11 0 -41 11 -67 23 -25 13 -61 29 -78 35 -18 7 -48 17 -65 24 -18 6
-54 22 -79 35 -26 12 -53 23 -61 23 -8 0 -30 8 -49 17 -19 10 -68 29 -109 44
-41 15 -91 32 -110 39 -19 7 -56 23 -82 36 -27 13 -54 24 -63 24 -8 0 -29 8
-47 18 -18 10 -44 21 -58 24 -14 3 -47 15 -75 26 -27 11 -66 26 -85 32 -19 7
-56 23 -82 36 -56 28 -143 32 -174 9 -14 -11 -51 -14 -156 -15 -80 0 -139 -4
-143 -10 -4 -6 -59 -10 -134 -10 -70 0 -131 -4 -137 -9 -5 -6 -70 -12 -144
-15 -298 -12 -426 -21 -447 -33 -12 -7 -48 -13 -80 -13 -47 0 -72 -7 -133 -37
-41 -21 -77 -42 -78 -46 -2 -4 -50 -31 -105 -59 -56 -28 -104 -54 -107 -58 -3
-5 -37 -24 -77 -44 -40 -20 -75 -41 -78 -46 -4 -6 -40 -26 -80 -45 -41 -20
-77 -40 -81 -46 -3 -6 -39 -26 -78 -45 -40 -18 -89 -45 -110 -59 -21 -14 -66
-39 -99 -56 -34 -17 -69 -37 -77 -44 -8 -7 -57 -34 -107 -60 -51 -25 -95 -50
-98 -54 -5 -10 -195 -102 -245 -120 -19 -7 -46 -14 -60 -16 -22 -3 -49 -11
-115 -35 -11 -4 -42 -15 -70 -23 -72 -23 -118 -38 -137 -48 -10 -5 -28 -9 -40
-9 -22 0 -80 -16 -108 -30 -9 -4 -30 -11 -48 -14 -17 -4 -34 -12 -37 -17 -4
-5 -15 -9 -26 -9 -10 0 -27 -4 -37 -9 -28 -14 -87 -31 -109 -31 -18 0 -49 -10
-118 -39 -11 -5 -40 -14 -65 -21 -25 -7 -54 -16 -65 -20 -64 -23 -92 -32 -112
-35 -21 -3 -81 -21 -118 -36 -21 -8 -58 -15 -143 -27 -28 -5 -57 -13 -64 -20
-7 -7 -33 -12 -59 -12 -26 0 -51 -4 -54 -10 -3 -5 -28 -10 -55 -10 -27 0 -52
-4 -55 -10 -3 -5 -28 -10 -55 -10 -27 0 -52 -4 -55 -10 -3 -5 -25 -10 -48 -10
-23 -1 -53 -7 -67 -15 -14 -8 -44 -14 -67 -15 -23 0 -45 -4 -48 -10 -3 -5 -23
-10 -44 -10 -20 0 -41 -4 -46 -9 -6 -5 -30 -12 -55 -15 -113 -13 -161 -23
-172 -34 -7 -7 -33 -12 -59 -12 -26 0 -51 -4 -54 -10 -3 -5 -28 -10 -55 -10
-27 0 -52 -4 -55 -10 -3 -5 -28 -10 -55 -10 -27 0 -52 -4 -55 -10 -3 -5 -18
-10 -32 -10 -14 0 -39 -6 -56 -14 -18 -7 -52 -19 -77 -26 -25 -7 -54 -16 -65
-20 -11 -4 -38 -13 -60 -20 -22 -7 -53 -18 -70 -25 -35 -14 -80 -30 -154 -56
-43 -15 -56 -16 -63 -7 -11 18 -10 29 7 58 8 14 14 39 15 57 0 17 4 35 10 38
6 3 10 15 10 25 0 19 5 31 74 184 20 43 36 84 36 92 0 7 11 33 25 58 14 25 25
51 25 58 0 7 13 40 29 73 16 33 36 78 44 100 8 22 25 67 37 100 13 33 34 73
46 88 13 16 24 33 24 38 0 5 14 24 30 42 17 17 48 59 69 92 21 33 48 69 60 79
11 11 21 24 21 31 0 6 12 22 26 36 14 13 35 41 45 62 11 20 28 43 39 49 11 7
20 18 20 25 0 6 11 25 25 41 14 17 25 34 25 39 0 5 16 24 35 43 19 19 35 39
35 46 0 6 15 27 33 46 17 20 40 49 49 64 10 16 33 49 53 74 19 25 39 54 44 65
5 11 19 29 31 40 12 11 29 33 37 50 9 16 27 41 42 56 14 15 34 40 43 55 10 16
33 49 53 74 19 25 39 54 44 65 5 11 19 29 31 40 12 11 30 36 41 56 19 37 72
89 91 89 6 0 40 26 74 58 35 31 88 77 119 102 30 25 84 71 120 103 35 31 69
57 74 57 5 0 30 20 55 45 26 25 52 45 59 45 7 0 37 25 67 55 30 30 59 55 65
55 6 0 31 20 55 45 24 25 50 45 56 45 7 0 36 25 65 55 28 30 61 58 73 61 11 4
40 26 64 50 24 24 49 44 56 44 6 0 36 25 66 55 30 30 59 55 66 55 6 0 19 9 29
20 18 20 31 20 3367 20 l3348 0 93 -46z m840 34 c12 -7 39 -28 60 -45 20 -18
41 -33 47 -33 5 0 31 -22 57 -48 27 -27 60 -55 73 -62 14 -7 51 -36 83 -64
130 -115 557 -556 557 -576 0 -17 95 -110 113 -110 15 0 177 -162 177 -177 0
-6 16 -26 35 -46 19 -20 35 -42 35 -49 0 -7 41 -54 90 -103 50 -49 90 -94 90
-100 0 -5 38 -48 84 -95 46 -47 96 -109 111 -137 15 -29 31 -53 35 -53 4 0 13
-12 19 -27 10 -26 78 -129 117 -178 26 -34 56 -106 50 -122 -8 -19 -28 -12
-41 13 -5 11 -34 44 -62 73 -29 30 -53 59 -53 65 0 7 -16 27 -35 46 -19 19
-35 38 -35 43 0 5 -11 22 -25 39 -14 16 -25 35 -25 41 0 7 -9 18 -20 25 -11 6
-28 29 -39 49 -10 21 -31 49 -45 62 -14 14 -26 29 -26 34 0 5 -10 22 -22 38
-13 15 -36 47 -53 69 -16 22 -47 61 -67 85 -20 25 -39 54 -43 65 -3 11 -34 46
-67 77 -33 32 -63 66 -67 76 -9 23 -412 427 -426 427 -6 0 -62 52 -125 116
-63 63 -128 123 -145 131 -16 9 -83 69 -148 134 -65 66 -123 119 -129 119 -6
0 -45 33 -87 73 -42 40 -88 81 -103 90 -38 24 -36 47 2 47 17 0 40 -6 53 -12z
m-9513 -1081 c0 -2 -10 -12 -21 -23 -22 -19 -22 -19 -8 4 12 19 29 30 29 19z
m140 -180 c0 -14 -20 -43 -55 -77 -30 -30 -55 -60 -55 -66 0 -7 -12 -23 -27
-36 -16 -13 -39 -46 -52 -73 -13 -28 -30 -54 -38 -58 -7 -4 -13 -14 -13 -21 0
-7 -13 -30 -30 -51 -16 -20 -32 -46 -36 -58 -4 -12 -16 -34 -28 -49 -11 -14
-34 -49 -51 -78 -16 -28 -40 -66 -52 -83 -29 -43 -213 -410 -213 -425 0 -6
-76 -164 -170 -350 -106 -211 -170 -350 -170 -368 0 -17 -5 -35 -10 -40 -6 -6
-12 -26 -14 -45 -2 -19 -8 -47 -14 -64 -24 -70 -32 -103 -32 -134 0 -48 -16
-69 -60 -81 -22 -6 -40 -15 -40 -20 0 -6 -9 -10 -20 -10 -17 0 -19 5 -13 33 3
17 12 41 20 52 7 11 13 27 13 37 0 10 9 33 20 53 11 20 20 42 20 49 0 8 14 47
31 87 17 41 33 83 36 94 3 11 16 43 29 71 13 28 24 56 24 63 0 6 4 19 9 29 4
9 13 31 19 47 28 83 36 102 48 127 8 14 14 33 14 41 0 8 9 32 19 54 11 21 22
50 25 64 3 14 17 41 30 60 14 19 30 44 35 56 5 11 14 24 19 27 6 3 22 29 37
57 14 28 42 72 60 97 19 26 46 70 59 97 14 28 39 68 55 90 17 22 75 130 131
240 55 110 113 213 129 230 16 16 32 40 35 52 4 12 29 42 56 65 28 24 50 48
50 55 0 6 11 25 25 41 14 17 25 34 25 40 0 5 7 16 16 23 9 7 20 24 25 36 15
41 79 57 79 20z m4508 -499 c13 -13 155 -23 472 -33 80 -3 154 -10 165 -15 11
-5 85 -12 165 -14 318 -11 262 5 645 -187 186 -93 344 -169 350 -169 7 0 175
-81 373 -181 273 -136 369 -189 392 -215 16 -19 30 -39 30 -45 0 -5 36 -46 80
-90 44 -44 80 -85 80 -92 0 -7 29 -42 65 -77 36 -35 65 -69 65 -74 0 -5 34
-46 75 -90 191 -204 245 -265 245 -275 0 -6 32 -43 70 -82 39 -39 70 -76 70
-82 0 -6 35 -48 78 -93 124 -134 158 -176 181 -226 11 -26 26 -50 32 -54 6 -3
31 -47 55 -97 24 -50 50 -97 58 -106 8 -9 33 -54 56 -101 23 -47 48 -92 56
-100 7 -9 34 -57 59 -107 25 -51 50 -95 55 -98 5 -3 30 -48 55 -100 26 -52 51
-97 56 -101 5 -3 30 -47 55 -97 26 -51 52 -99 59 -107 7 -8 34 -57 60 -107 25
-51 51 -95 56 -98 4 -3 17 -25 27 -49 18 -40 28 -47 124 -94 57 -29 109 -52
115 -52 7 0 52 -20 102 -45 50 -25 95 -45 101 -45 6 0 51 -20 100 -45 49 -25
94 -45 100 -45 5 0 38 -13 72 -30 34 -16 67 -30 74 -30 6 0 56 -22 110 -50 54
-27 104 -50 111 -50 8 0 54 -20 103 -45 49 -25 94 -45 100 -45 6 0 56 -23 112
-50 93 -47 138 -80 138 -101 0 -5 22 -35 50 -66 27 -32 72 -85 100 -118 28
-33 77 -90 110 -127 33 -37 60 -72 60 -79 0 -6 20 -31 45 -56 25 -24 45 -49
45 -54 0 -5 26 -39 58 -74 31 -36 77 -90 102 -120 25 -30 71 -84 103 -120 31
-35 57 -69 57 -75 0 -6 25 -36 55 -67 30 -31 55 -61 55 -65 0 -4 21 -33 48
-63 96 -112 112 -133 112 -146 0 -8 9 -39 21 -69 11 -30 23 -64 26 -75 2 -11
8 -29 13 -40 4 -11 19 -56 33 -100 26 -80 44 -133 57 -170 5 -11 20 -60 35
-110 16 -49 32 -94 36 -100 5 -5 9 -17 9 -27 0 -10 4 -26 9 -36 5 -9 16 -39
24 -67 15 -46 29 -91 47 -140 20 -55 72 -213 77 -232 4 -17 -2 -27 -28 -42
-19 -12 -41 -21 -50 -21 -10 0 -42 54 -93 158 -43 86 -84 164 -92 173 -8 9
-59 104 -113 213 -54 108 -105 204 -113 214 -9 9 -60 107 -114 217 -55 110
-103 202 -107 203 -4 2 -36 61 -71 131 -35 70 -71 133 -80 140 -9 8 -16 19
-16 26 0 6 -9 20 -20 30 -11 10 -20 24 -20 30 0 7 -7 19 -17 26 -9 8 -22 29
-30 47 -7 17 -17 32 -22 32 -6 0 -13 9 -16 21 -4 12 -21 38 -39 58 -17 20 -35
43 -41 52 -31 50 -96 148 -114 171 -12 14 -21 30 -21 35 0 5 -12 20 -26 34
-19 18 -37 24 -69 24 -54 0 -66 -11 -72 -67 -5 -42 17 -106 49 -142 5 -6 19
-26 31 -45 23 -37 36 -55 80 -117 15 -21 39 -55 52 -74 14 -19 34 -46 45 -60
11 -14 20 -30 20 -36 0 -6 9 -19 20 -29 11 -10 20 -24 20 -30 0 -7 7 -19 16
-26 9 -7 93 -166 186 -354 94 -187 176 -347 183 -355 19 -22 385 -756 385
-773 0 -28 -87 -87 -129 -87 -11 0 -23 -4 -26 -10 -12 -19 -51 -10 -77 18 -14
15 -36 56 -48 92 -22 63 -47 124 -76 184 -8 16 -14 34 -14 41 0 7 -11 33 -25
59 -14 26 -25 53 -25 61 0 14 -10 39 -66 163 -13 29 -24 59 -24 67 0 8 -9 30
-20 50 -11 20 -20 41 -20 48 0 7 -11 34 -25 61 -14 27 -25 56 -25 63 0 8 -8
30 -18 51 -11 20 -27 62 -37 92 -26 78 -40 110 -70 153 -14 21 -37 60 -50 87
-14 27 -29 51 -35 55 -6 3 -17 23 -26 43 -8 20 -23 46 -33 57 -11 11 -28 41
-39 66 -12 25 -28 52 -37 59 -8 7 -15 18 -15 25 0 7 -7 18 -16 26 -8 7 -27 35
-41 63 -14 27 -31 56 -39 64 -8 7 -23 33 -34 57 -11 24 -25 47 -31 50 -5 4
-21 31 -35 61 -13 30 -29 54 -34 54 -5 0 -12 11 -16 25 -6 25 -15 29 -69 25
-41 -2 -57 -20 -59 -69 -3 -51 21 -108 63 -152 17 -17 31 -37 31 -43 0 -7 20
-32 45 -56 25 -24 45 -49 45 -54 0 -5 8 -19 19 -30 10 -12 27 -43 37 -71 10
-27 35 -84 55 -125 20 -41 40 -86 44 -100 4 -14 21 -51 36 -82 16 -32 29 -62
29 -68 0 -6 20 -53 45 -103 25 -51 45 -98 45 -105 0 -6 16 -41 35 -78 19 -36
35 -72 35 -80 0 -7 20 -55 44 -106 96 -204 116 -249 116 -262 0 -8 20 -53 45
-102 25 -48 45 -94 45 -102 0 -8 11 -35 23 -61 13 -25 29 -59 34 -76 6 -16 17
-46 23 -65 7 -19 17 -43 21 -52 5 -10 9 -40 9 -68 0 -45 -3 -51 -31 -66 -42
-21 -77 -11 -85 24 -3 15 -62 140 -130 277 -68 138 -124 255 -124 261 0 16
-281 577 -294 586 -5 3 -17 19 -25 35 -28 51 -111 185 -138 221 -9 12 -26 40
-37 61 -12 21 -34 58 -51 82 -31 45 -73 116 -120 202 -14 26 -35 57 -45 67
-11 11 -20 26 -20 33 0 8 -9 22 -20 32 -11 10 -20 22 -20 27 0 9 -68 119 -95
153 -9 11 -25 38 -35 61 -11 22 -26 47 -35 54 -8 7 -15 18 -15 25 0 6 -9 20
-19 29 -11 10 -29 38 -40 64 -12 26 -39 72 -61 102 -22 30 -63 102 -91 160
-29 58 -56 108 -61 111 -15 10 -118 220 -118 240 0 23 -56 69 -85 69 -51 0
-55 -16 -55 -218 0 -103 -4 -193 -9 -200 -6 -10 -25 -12 -72 -8 -35 3 -82 7
-104 8 l-40 3 -3 -54 c-2 -30 2 -59 7 -64 6 -6 11 -21 11 -33 0 -11 11 -33 25
-48 14 -15 25 -33 25 -39 0 -7 20 -33 45 -57 25 -24 45 -49 45 -55 0 -6 18
-28 39 -49 22 -22 45 -51 51 -67 21 -49 37 -44 124 41 45 44 89 80 97 80 24 0
63 -49 98 -120 30 -61 96 -164 141 -220 11 -14 20 -29 20 -34 0 -5 7 -18 17
-28 9 -10 21 -27 27 -37 6 -10 27 -43 47 -72 68 -103 75 -179 14 -151 -14 7
-36 12 -48 12 -23 0 -167 68 -195 93 -10 8 -55 33 -102 56 -47 23 -92 48 -100
56 -8 7 -47 29 -87 49 -39 19 -74 40 -77 45 -3 5 -48 30 -100 55 -52 25 -97
50 -100 55 -3 5 -36 24 -73 42 -38 19 -71 38 -75 44 -12 16 -9 110 4 123 12
12 26 84 34 187 3 33 10 64 15 70 12 12 12 388 0 401 -6 5 -12 77 -15 159 -3
83 -9 215 -13 295 l-8 146 -38 37 c-41 39 -79 48 -110 25 -16 -12 -17 -55 -13
-593 3 -319 6 -607 8 -640 4 -82 -16 -85 -87 -15 -52 51 -59 66 -72 153 -3 20
-9 40 -14 43 -5 3 -9 15 -9 28 0 12 -7 31 -15 42 -8 10 -15 30 -15 43 0 26
-16 84 -31 113 -5 10 -9 58 -9 107 0 50 -4 93 -10 96 -5 3 -10 44 -10 91 0 50
-5 94 -12 107 -13 22 -24 133 -34 322 -2 55 -9 109 -14 120 -5 11 -12 58 -14
105 -11 179 -22 286 -34 307 -7 12 -12 59 -12 106 l0 84 -64 61 c-60 58 -68
62 -110 62 -68 0 -86 -22 -86 -107 1 -40 7 -78 15 -93 8 -14 14 -44 15 -67 0
-23 4 -44 9 -47 5 -3 11 -23 14 -43 3 -21 10 -58 16 -83 5 -25 14 -63 19 -86
5 -22 13 -47 18 -55 4 -8 12 -36 16 -64 4 -27 10 -67 14 -88 8 -47 -8 -67 -52
-67 -18 0 -36 -4 -39 -10 -3 -5 -43 -10 -89 -10 -45 0 -86 -4 -91 -9 -12 -11
-87 -21 -170 -24 l-60 -2 -7 195 c-14 360 -22 489 -35 501 -10 10 -13 9 -17
-2 -7 -23 -17 -72 -23 -112 -3 -20 -9 -40 -14 -43 -5 -3 -9 -22 -9 -43 0 -20
-4 -41 -9 -47 -17 -19 -39 -94 -57 -199 -3 -16 -9 -39 -13 -50 -29 -73 -35
-96 -39 -147 l-4 -58 -64 0 c-60 0 -134 23 -134 42 0 4 -21 17 -47 29 -27 12
-56 28 -66 37 -9 8 -25 20 -35 26 -38 22 -87 55 -98 65 -6 5 -34 21 -61 34
-27 14 -55 33 -62 41 -8 9 -19 16 -26 16 -7 0 -18 6 -24 14 -7 8 -31 24 -54
36 -23 12 -66 38 -96 58 -29 21 -62 42 -72 48 -10 6 -27 18 -36 26 -10 8 -38
25 -63 37 -25 12 -79 46 -120 76 -41 30 -95 63 -120 75 -25 12 -54 29 -65 38
-33 29 -72 45 -87 36 -7 -5 -42 -12 -78 -17 -158 -19 -186 -23 -205 -34 -11
-6 -36 -10 -55 -9 -19 1 -46 -2 -60 -8 -26 -10 -115 -23 -215 -32 -33 -3 -64
-10 -70 -15 -5 -5 -31 -9 -58 -9 -26 0 -58 -5 -70 -12 -22 -12 -94 -24 -212
-34 -33 -3 -64 -10 -70 -15 -5 -5 -35 -9 -66 -9 -32 0 -61 -4 -64 -10 -3 -5
-22 -10 -40 -10 -38 0 -75 -28 -229 -172 -45 -43 -87 -78 -93 -78 -6 0 -42
-32 -79 -71 -38 -39 -85 -79 -104 -89 -19 -10 -66 -50 -104 -89 -37 -39 -73
-71 -79 -71 -6 0 -47 -34 -91 -75 -200 -187 -265 -245 -274 -245 -5 0 -46 -36
-90 -80 -45 -44 -87 -80 -94 -80 -18 0 -124 -109 -132 -136 -4 -12 -20 -33
-36 -48 -17 -14 -30 -31 -30 -37 0 -12 -25 -47 -77 -108 -18 -21 -33 -43 -33
-50 0 -6 -13 -23 -29 -37 -16 -14 -35 -39 -41 -55 -7 -16 -16 -29 -20 -29 -10
0 -50 -81 -50 -102 0 -8 -8 -24 -17 -36 -10 -11 -23 -29 -29 -39 -9 -14 -15
-15 -24 -6 -10 9 -3 30 30 95 23 45 49 87 56 91 8 4 14 14 14 22 0 8 11 26 25
41 14 15 25 33 25 41 0 7 9 21 20 30 11 10 20 23 20 30 0 8 13 28 30 46 35 38
76 94 89 122 5 12 16 27 25 34 9 7 16 19 16 25 0 6 9 22 20 36 11 14 38 52 59
85 21 33 68 87 105 120 36 33 115 106 175 163 60 56 114 102 121 102 6 0 59
47 117 105 57 58 110 105 117 105 6 0 61 50 121 110 60 61 114 110 119 110 6
0 58 47 116 105 59 58 112 105 118 105 7 0 36 25 65 55 38 39 61 55 79 55 15
0 29 4 32 9 3 5 23 11 43 14 63 9 135 26 147 36 6 5 29 12 51 15 22 4 63 11
90 16 28 5 68 12 90 16 22 4 50 13 62 21 12 8 28 13 35 10 7 -2 28 2 47 9 18
8 51 14 72 14 21 0 41 5 44 10 3 6 24 10 45 10 21 0 42 5 45 10 3 6 20 10 36
10 17 0 40 5 52 12 23 12 68 23 152 38 28 5 70 13 95 19 25 5 63 14 85 19 22
5 50 14 62 20 12 7 35 12 52 12 16 0 33 5 36 10 4 7 248 10 698 10 690 0 692
0 705 21 13 20 14 20 39 4 l26 -17 -8 28 c-5 16 -10 96 -12 179 -4 163 -7 171
-68 203 -16 8 -39 26 -50 38 -11 13 -26 24 -32 24 -12 0 -71 45 -152 118 -27
23 -52 42 -58 42 -5 0 -24 16 -43 35 -19 19 -40 35 -48 35 -7 0 -27 14 -44 30
-16 17 -42 37 -57 44 -14 8 -42 30 -60 50 -19 20 -40 36 -46 36 -6 0 -26 16
-45 35 -19 19 -40 35 -47 35 -7 0 -27 16 -45 36 -18 20 -49 44 -68 54 -19 10
-45 30 -57 44 -13 14 -28 26 -34 26 -11 0 -34 18 -144 113 -30 26 -60 47 -65
47 -5 0 -23 14 -38 30 -16 17 -34 30 -41 30 -6 0 -28 15 -48 33 -52 45 -143
103 -173 110 -14 3 -58 19 -99 36 -40 17 -81 31 -91 31 -11 0 -22 5 -25 10 -3
6 -15 10 -26 10 -11 0 -41 10 -67 23 -26 13 -67 29 -92 36 -25 7 -53 17 -62
22 -10 5 -24 9 -31 9 -7 0 -32 9 -54 20 -22 10 -71 30 -109 43 -125 44 -139
50 -166 63 -14 8 -35 14 -46 14 -12 0 -24 5 -27 10 -3 6 -15 10 -26 10 -11 0
-36 8 -57 18 -20 11 -62 27 -92 37 -30 9 -63 21 -72 26 -10 5 -24 9 -31 9 -7
0 -31 9 -54 20 -105 51 -94 50 -644 50 -421 0 -519 -3 -534 -14 -15 -10 -19
-26 -18 -70 1 -85 3 -86 164 -86 81 0 140 -4 144 -10 3 -5 32 -10 63 -10 31
-1 68 -7 82 -15 14 -8 48 -14 76 -15 27 0 54 -4 60 -9 5 -5 41 -12 79 -15 39
-3 102 -10 140 -16 39 -6 101 -14 140 -16 38 -3 78 -12 89 -20 12 -8 45 -14
78 -14 31 0 60 -4 63 -10 3 -5 33 -10 65 -10 32 0 62 -4 65 -10 3 -5 35 -10
69 -10 35 0 79 -6 97 -13 19 -8 50 -13 69 -12 19 1 47 -4 62 -11 15 -8 37 -14
50 -14 24 0 183 -74 193 -90 3 -5 47 -30 98 -56 51 -25 99 -52 107 -59 8 -7
43 -27 76 -43 34 -17 81 -44 105 -60 24 -16 63 -37 87 -47 23 -11 42 -22 42
-27 0 -4 47 -30 105 -58 58 -28 105 -54 105 -59 0 -4 31 -23 70 -40 38 -18 72
-37 76 -42 3 -5 50 -32 104 -59 54 -27 101 -54 104 -59 4 -5 39 -26 79 -45 61
-29 94 -57 212 -175 77 -78 145 -141 151 -141 6 0 88 -75 181 -167 93 -93 178
-173 188 -179 11 -6 15 -15 11 -22 -9 -15 -158 -16 -173 -1 -6 6 -37 15 -69
20 -33 6 -84 15 -114 20 -30 6 -82 13 -115 15 -33 3 -64 10 -69 15 -6 5 -28 9
-50 9 -23 1 -52 7 -66 15 -31 18 -114 19 -143 3 -22 -13 -142 -24 -352 -34
-60 -2 -119 -9 -130 -14 -11 -5 -69 -12 -130 -14 -254 -12 -364 -21 -377 -33
-8 -9 -46 -13 -113 -13 -56 0 -105 -4 -110 -9 -6 -5 -41 -11 -80 -13 -54 -4
-90 -13 -155 -42 -47 -21 -97 -41 -113 -43 -15 -3 -30 -9 -33 -14 -3 -5 -14
-9 -25 -9 -10 0 -40 -11 -67 -24 -77 -39 -202 -67 -202 -45 0 21 89 99 113 99
13 0 27 4 32 9 6 5 35 11 65 14 49 3 96 16 140 37 18 8 26 84 12 114 -15 33
-32 91 -32 107 0 9 -13 28 -30 44 -25 24 -33 27 -52 18 -13 -6 -43 -17 -68
-24 -25 -7 -58 -19 -75 -27 -33 -15 -285 -261 -285 -277 0 -6 -117 -127 -260
-270 -143 -143 -260 -265 -260 -271 0 -7 -66 -79 -147 -162 -82 -82 -153 -158
-159 -168 -10 -17 -15 -12 -43 43 -17 34 -31 74 -31 88 0 14 -4 33 -9 43 -15
31 -31 88 -31 115 0 14 -4 29 -10 32 -5 3 -10 13 -10 22 0 8 -6 29 -14 46 -8
18 -17 46 -20 62 -15 84 -25 124 -41 165 -9 25 -18 58 -20 74 -2 16 -7 38 -13
50 -19 43 -32 93 -32 127 0 68 -85 115 -132 72 -15 -13 -18 -32 -18 -115 0
-61 5 -108 12 -121 7 -12 16 -65 20 -117 7 -102 14 -153 28 -185 4 -11 13 -40
19 -65 7 -25 17 -58 23 -75 6 -16 13 -42 15 -58 3 -15 9 -30 14 -33 5 -3 9
-17 9 -31 0 -27 16 -84 31 -115 5 -10 9 -29 9 -44 0 -14 6 -38 14 -52 22 -44
36 -96 36 -138 0 -34 -7 -46 -45 -84 -26 -25 -45 -53 -45 -66 0 -25 -24 -49
-40 -39 -6 4 -58 100 -115 215 -103 205 -127 240 -170 240 -48 0 -65 -34 -81
-165 -3 -22 -9 -49 -14 -60 -5 -11 -11 -45 -14 -75 -9 -100 -22 -170 -34 -182
-7 -7 -12 -38 -12 -69 0 -32 -4 -61 -10 -64 -5 -3 -10 -28 -10 -55 0 -27 -4
-52 -10 -55 -5 -3 -10 -30 -10 -59 0 -30 -7 -66 -15 -82 -8 -16 -12 -38 -9
-50 3 -12 -1 -36 -10 -52 -9 -17 -16 -55 -16 -86 0 -30 -4 -58 -10 -61 -5 -3
-10 -28 -10 -55 0 -34 -4 -50 -16 -54 -17 -7 -54 10 -54 24 0 5 -11 12 -24 16
-14 3 -32 14 -42 25 -9 10 -22 19 -29 19 -7 0 -20 9 -29 19 -10 11 -30 25 -46
31 -22 9 -38 32 -69 96 -23 46 -41 89 -41 94 0 6 -31 73 -70 150 -38 77 -70
145 -70 152 0 7 -29 71 -65 142 -36 71 -65 134 -65 141 0 6 -31 74 -70 150
-38 77 -70 146 -70 154 0 7 -16 42 -35 78 -31 58 -35 73 -35 142 0 47 5 82 12
89 7 7 11 36 10 72 -2 38 3 71 13 89 8 17 15 51 15 76 0 26 5 55 10 65 8 15 4
25 -20 50 -38 39 -86 41 -129 4 -30 -25 -31 -29 -31 -101 0 -41 -5 -84 -11
-95 -6 -12 -11 -57 -10 -99 1 -54 -3 -88 -14 -108 -9 -19 -15 -57 -15 -105 0
-41 -4 -78 -10 -81 -6 -4 -10 -73 -10 -175 0 -102 4 -171 10 -175 6 -3 10 -35
10 -71 0 -39 6 -77 15 -94 9 -18 15 -52 14 -83 -1 -29 3 -62 10 -74 16 -30 14
-98 -3 -113 -8 -6 -25 -10 -38 -8 -20 3 -24 11 -31 58 -5 30 -11 118 -15 195
-4 80 -12 149 -20 162 -8 14 -12 66 -12 150 l0 129 -47 45 c-27 26 -56 49 -66
52 -30 11 -62 -9 -81 -50 -18 -41 -18 -20 0 -428 3 -71 9 -134 15 -140 5 -5 9
-19 9 -31 0 -12 9 -33 20 -47 28 -35 25 -47 -9 -47 -37 0 -61 23 -61 58 -1 15
-7 38 -15 52 -9 15 -14 54 -15 100 0 42 -4 80 -9 85 -22 23 -32 389 -13 485
21 106 30 145 40 175 23 68 32 103 32 128 0 14 5 29 10 32 6 3 10 28 10 55 0
27 5 52 10 55 6 3 10 21 10 38 1 18 7 43 15 57 8 14 14 39 15 57 0 17 4 34 9
37 5 3 11 23 15 43 16 110 24 150 33 173 6 14 8 31 6 38 -3 7 1 20 8 28 12 14
24 63 36 147 3 20 9 40 14 43 5 3 9 25 9 48 0 24 7 57 15 72 8 16 15 40 15 53
0 24 25 56 151 194 37 40 69 81 73 93 3 11 36 49 71 83 36 35 65 68 65 74 0 6
29 42 65 81 36 39 97 105 135 147 39 41 70 80 70 86 0 6 29 40 65 75 36 36 65
70 65 76 0 6 34 48 75 94 105 117 192 217 223 257 17 22 59 49 126 82 55 27
106 49 112 49 6 0 51 20 100 45 49 25 94 45 100 45 7 0 53 20 103 45 50 25 96
45 101 45 6 0 51 20 100 45 49 25 96 45 103 45 7 0 57 23 110 50 53 28 103 50
111 50 7 0 53 20 102 45 48 25 95 45 103 46 9 0 54 20 101 44 81 42 89 44 171
44 55 1 89 -3 97 -11z m-2540 -1230 c-3 -9 -42 -14 -139 -16 -73 -1 -138 -7
-143 -12 -16 -16 -219 -13 -214 3 3 7 30 13 74 15 38 2 73 7 79 13 5 5 85 9
178 9 130 0 168 -3 165 -12z m-542 -39 c10 -16 -15 -29 -56 -29 -19 0 -41 4
-49 9 -25 16 -1 31 49 31 27 0 52 -5 56 -11z m-138 -31 c-3 -7 -31 -16 -64
-20 -32 -4 -90 -12 -129 -18 -38 -6 -97 -14 -130 -18 -33 -4 -67 -12 -75 -17
-8 -5 -40 -13 -70 -18 -30 -4 -83 -12 -117 -17 -35 -6 -91 -13 -125 -18 -35
-4 -70 -12 -78 -17 -8 -5 -42 -13 -75 -17 -33 -4 -91 -12 -130 -18 -38 -6 -97
-13 -130 -16 -33 -3 -64 -10 -70 -15 -13 -13 -77 -11 -73 2 4 11 120 56 171
66 15 3 30 9 33 14 3 5 27 9 53 9 26 0 51 4 56 9 6 5 42 12 80 15 127 9 220
22 242 34 12 7 50 12 85 12 35 0 68 4 74 9 5 5 45 12 89 15 131 8 233 20 241
29 4 4 38 7 77 7 50 0 68 -3 65 -12z m329 -179 c12 -12 126 -8 156 5 14 7 17
3 17 -16 0 -17 -8 -29 -25 -36 -15 -7 -38 -38 -61 -84 -20 -40 -40 -75 -43
-78 -20 -14 -71 -128 -71 -156 0 -18 -4 -35 -9 -38 -5 -3 -11 -23 -15 -43 -3
-21 -9 -63 -14 -94 -4 -32 -13 -63 -19 -70 -10 -13 -15 -35 -29 -132 -4 -20
-10 -40 -15 -43 -5 -3 -9 -20 -9 -38 0 -19 -7 -47 -15 -62 -8 -16 -15 -41 -15
-56 0 -15 -4 -30 -10 -33 -5 -3 -10 -28 -10 -55 0 -27 -4 -51 -9 -54 -5 -3
-11 -23 -15 -43 -14 -95 -19 -119 -27 -129 -10 -12 -27 -84 -36 -147 -3 -20
-9 -40 -14 -43 -5 -3 -9 -27 -9 -54 0 -27 -4 -52 -10 -55 -5 -3 -10 -21 -10
-38 -1 -18 -7 -43 -15 -57 -19 -33 -21 -271 -2 -303 12 -21 22 -129 33 -342 2
-55 9 -110 16 -122 22 -44 7 -53 -95 -53 -56 0 -98 5 -104 11 -8 8 -64 11
-172 10 -128 -2 -166 1 -190 14 -20 10 -57 15 -111 15 l-80 0 -713 356 c-391
196 -719 362 -727 369 -8 7 -116 63 -240 125 -124 62 -228 116 -231 121 -9 14
-482 249 -501 249 -26 0 -48 -40 -48 -87 0 -36 4 -44 30 -60 17 -9 30 -20 30
-24 0 -4 13 -12 29 -19 16 -6 41 -25 57 -41 15 -16 33 -29 39 -29 7 0 20 -9
30 -20 10 -11 23 -20 30 -20 6 0 21 -9 33 -21 13 -11 42 -29 65 -39 49 -22 92
-63 82 -79 -12 -20 -37 -12 -76 24 -22 19 -46 35 -54 35 -24 0 -157 69 -187
97 -15 14 -35 31 -45 37 -79 47 -93 59 -93 82 0 17 -12 31 -40 49 -50 31 -56
45 -38 86 10 23 31 40 83 66 39 20 72 39 75 43 3 4 29 20 58 35 29 15 55 31
58 36 3 5 38 25 79 44 41 20 77 41 80 46 8 12 302 159 319 159 7 0 43 16 80
35 37 19 74 35 82 35 14 0 63 22 242 106 51 24 97 44 102 44 6 0 43 16 83 35
39 19 77 35 84 35 6 0 51 20 99 45 47 25 92 45 99 45 7 0 45 16 84 35 39 19
75 35 81 35 6 0 47 19 93 42 79 40 106 48 226 68 29 5 58 13 64 19 6 6 37 11
68 11 32 0 61 5 64 10 3 6 28 10 55 10 27 0 52 5 55 10 3 6 24 10 46 10 22 0
53 7 69 15 16 8 49 14 73 14 24 -1 50 2 58 7 8 4 38 12 67 16 28 4 78 13 110
18 31 6 85 14 119 18 34 4 68 13 75 20 6 6 33 12 59 12 26 0 51 5 54 10 3 6
33 10 65 10 32 0 62 5 65 10 3 6 28 10 55 10 27 0 52 5 55 10 9 14 208 13 222
-1z m-1620 -45 c3 -10 -14 -19 -132 -66 -27 -11 -65 -26 -83 -34 -18 -8 -39
-14 -47 -14 -8 0 -30 -9 -50 -20 -20 -11 -42 -20 -50 -20 -9 0 -36 -11 -63
-24 -43 -21 -62 -29 -147 -58 -16 -6 -38 -15 -49 -20 -10 -5 -29 -12 -42 -14
-13 -2 -40 -13 -59 -24 -20 -11 -42 -20 -50 -20 -8 0 -38 -11 -67 -24 -123
-55 -149 -66 -162 -66 -7 0 -34 -11 -60 -25 -26 -14 -54 -25 -62 -25 -8 0 -22
-4 -32 -9 -9 -4 -33 -14 -52 -21 -114 -40 -260 -108 -272 -126 -4 -6 -21 -17
-38 -24 -16 -7 -30 -16 -30 -21 0 -4 -16 -13 -35 -20 -19 -7 -35 -18 -35 -24
0 -7 -25 -22 -55 -35 -30 -13 -55 -27 -55 -32 0 -5 -16 -16 -35 -24 -19 -8
-35 -18 -35 -23 0 -6 -16 -15 -35 -22 -19 -7 -35 -19 -35 -26 0 -7 -6 -13 -14
-13 -8 0 -27 -10 -43 -22 -30 -24 -50 -38 -97 -66 -16 -9 -36 -25 -45 -34 -8
-10 -21 -18 -28 -18 -6 0 -24 -11 -39 -25 -15 -14 -32 -25 -39 -25 -7 0 -18
-7 -26 -16 -7 -8 -36 -27 -63 -41 -28 -14 -55 -32 -59 -39 -4 -8 -14 -14 -22
-14 -7 0 -27 -11 -43 -25 -17 -14 -33 -25 -37 -25 -4 0 -20 -11 -37 -25 -16
-14 -36 -25 -44 -25 -8 0 -20 -13 -25 -30 -6 -16 -17 -30 -23 -30 -7 0 -21 -9
-31 -20 -22 -24 -41 -26 -49 -4 -7 18 53 84 77 84 8 0 22 12 32 26 9 14 32 32
51 40 19 8 34 19 34 24 0 5 11 12 24 16 14 3 33 15 42 26 10 10 40 29 66 40
26 11 48 25 48 30 0 5 16 16 35 24 19 8 35 18 35 23 0 5 12 14 27 20 16 6 48
26 73 46 43 32 122 75 141 75 5 0 9 7 9 15 0 8 6 15 14 15 7 0 30 14 51 30 21
17 44 30 51 30 8 0 14 5 14 10 0 6 16 18 35 27 19 9 35 20 35 23 0 4 24 17 53
31 28 13 58 32 65 41 7 10 19 18 26 18 7 0 25 11 40 25 15 14 32 25 38 25 6 0
18 7 27 15 24 23 81 61 121 81 19 10 48 28 63 41 16 13 35 23 42 23 8 0 18 6
22 13 10 16 127 77 148 77 8 0 23 4 33 9 9 5 53 20 97 34 78 25 130 43 170 57
11 4 56 19 100 33 75 24 123 40 170 57 36 13 149 50 200 67 28 8 59 19 70 23
11 4 61 20 110 36 50 15 94 32 100 36 12 11 37 6 42 -8z m-2123 -1359 c6 -28
15 -39 47 -55 21 -11 45 -29 51 -40 7 -11 18 -20 25 -20 12 0 39 -22 173 -138
25 -22 56 -45 70 -52 14 -7 34 -24 45 -37 11 -12 26 -23 33 -23 6 0 29 -15 50
-34 22 -21 184 -108 399 -215 199 -99 364 -184 367 -189 3 -6 158 -85 343
-178 186 -92 345 -173 354 -181 34 -29 156 -87 194 -92 32 -5 41 -11 43 -28 2
-16 -3 -26 -20 -32 -13 -5 -34 -21 -48 -36 -14 -15 -52 -44 -85 -66 -33 -21
-69 -45 -80 -54 -11 -9 -30 -21 -41 -28 -35 -20 -147 -95 -174 -117 -14 -11
-29 -20 -34 -20 -5 0 -18 -7 -28 -17 -10 -9 -27 -21 -37 -27 -40 -24 -147 -97
-169 -116 -13 -11 -29 -20 -35 -20 -6 0 -19 -7 -29 -17 -10 -9 -27 -21 -37
-27 -40 -24 -147 -97 -169 -116 -13 -11 -29 -20 -35 -20 -14 0 -57 -40 -57
-54 0 -6 -9 -22 -20 -36 -18 -22 -86 -122 -115 -169 -5 -9 -24 -32 -41 -52
-18 -20 -35 -46 -39 -58 -3 -12 -10 -21 -16 -21 -5 0 -15 -15 -22 -32 -8 -18
-21 -39 -30 -47 -10 -7 -17 -18 -17 -24 0 -5 -15 -27 -32 -47 -44 -51 -71 -89
-85 -122 -7 -16 -16 -28 -22 -28 -5 0 -13 -10 -17 -22 -7 -24 -28 -55 -80
-116 -17 -20 -34 -47 -38 -59 -4 -11 -13 -24 -21 -27 -8 -3 -15 -10 -15 -16 0
-14 -74 -121 -100 -145 -11 -10 -20 -23 -20 -30 0 -7 -9 -20 -20 -30 -11 -10
-20 -23 -20 -29 0 -6 -9 -22 -20 -36 -61 -75 -100 -150 -100 -192 0 -32 -6
-49 -27 -70 -57 -60 -70 -50 -521 390 -109 105 -202 192 -208 192 -6 0 -55 43
-108 96 l-96 97 0 749 c0 797 -1 774 45 828 7 8 34 56 59 107 25 51 50 95 56
98 5 3 30 48 55 100 25 52 49 96 54 100 6 3 31 48 57 101 26 52 51 97 56 100
5 3 31 50 58 104 27 54 54 101 59 104 5 4 30 48 54 100 25 51 50 97 56 100 6
4 20 28 32 54 35 80 82 98 93 37z m8393 -274 c301 -151 549 -281 562 -295 14
-14 29 -26 36 -26 6 0 35 -25 65 -55 30 -30 59 -55 66 -55 6 0 35 -22 64 -50
29 -27 58 -50 64 -50 7 0 36 -25 66 -55 30 -30 59 -55 65 -55 6 0 31 -20 55
-45 24 -25 49 -45 55 -45 6 0 31 -20 55 -45 24 -25 50 -45 57 -45 8 0 43 -26
78 -57 36 -32 90 -78 120 -103 30 -25 84 -70 119 -101 35 -31 72 -59 82 -63
21 -7 70 -73 61 -82 -3 -3 -1 -18 5 -33 6 -14 15 -48 19 -76 4 -27 13 -72 19
-100 6 -27 14 -73 18 -101 5 -29 13 -58 19 -65 6 -8 14 -32 17 -54 4 -22 11
-65 17 -95 5 -30 12 -72 15 -93 4 -20 10 -40 15 -43 5 -3 9 -20 9 -38 0 -18 7
-41 15 -52 8 -10 15 -40 15 -66 0 -26 5 -50 10 -53 6 -3 10 -23 10 -44 0 -20
4 -41 9 -46 5 -6 11 -30 14 -55 8 -67 26 -143 37 -154 6 -6 10 -31 10 -57 0
-26 5 -51 10 -54 6 -3 10 -31 10 -62 0 -48 -5 -63 -37 -111 -21 -30 -45 -64
-53 -76 -8 -12 -25 -38 -37 -57 -12 -19 -26 -39 -32 -45 -5 -6 -21 -34 -34
-61 -14 -27 -33 -55 -41 -62 -9 -8 -16 -19 -16 -26 0 -6 -9 -20 -20 -30 -11
-10 -20 -24 -20 -31 0 -7 -9 -23 -20 -36 -28 -33 -67 -92 -91 -141 -12 -23
-28 -46 -35 -50 -8 -4 -14 -14 -14 -22 0 -7 -11 -27 -25 -43 -14 -17 -25 -34
-25 -40 0 -5 -7 -16 -16 -23 -9 -7 -20 -22 -25 -34 -10 -21 -50 -80 -71 -105
-8 -8 -24 -36 -36 -62 -13 -26 -28 -50 -33 -54 -6 -3 -15 -16 -20 -27 -5 -12
-21 -38 -34 -57 -14 -19 -30 -42 -35 -50 -5 -8 -21 -31 -35 -50 -13 -19 -29
-45 -34 -57 -10 -22 -16 -23 -111 -23 -63 0 -110 5 -123 13 -22 12 -195 23
-557 33 -102 3 -189 9 -194 14 -6 6 -49 10 -98 10 -48 0 -97 4 -110 9 -13 5
-59 15 -103 23 -63 10 -89 20 -122 45 -24 18 -50 33 -57 33 -8 0 -28 11 -44
25 -17 14 -41 25 -54 25 -28 0 -108 36 -108 49 0 5 -12 14 -27 20 -16 6 -62
36 -103 66 -41 30 -86 59 -100 65 -13 6 -31 18 -40 26 -28 27 -144 103 -197
128 -29 14 -53 30 -53 35 0 5 -10 13 -22 17 -13 3 -31 13 -41 22 -17 15 -23
19 -86 57 -19 11 -41 28 -50 38 -8 9 -21 17 -27 17 -7 0 -26 11 -42 25 -17 14
-34 25 -40 25 -5 0 -16 7 -23 16 -7 9 -22 20 -34 25 -24 11 -84 53 -106 74 -9
8 -21 15 -27 15 -10 0 -45 27 -143 110 -20 16 -41 30 -46 30 -5 0 -20 12 -34
26 -13 14 -41 35 -62 45 -20 11 -43 28 -49 39 -7 11 -18 20 -25 20 -6 0 -33
18 -58 40 -25 22 -49 40 -53 40 -4 0 -29 37 -57 82 -49 80 -65 99 -121 146
-23 19 -39 22 -107 22 -61 0 -85 4 -99 17 -28 25 -22 60 14 94 32 28 68 39 68
19 0 -18 56 -11 75 10 10 11 24 20 32 20 32 0 43 27 43 104 0 44 -4 76 -10 76
-5 0 -10 19 -10 41 0 61 -36 89 -112 89 -31 0 -60 -4 -63 -10 -7 -11 -75 -14
-75 -3 0 13 54 63 67 63 8 0 35 23 62 50 48 50 49 50 114 50 45 0 68 -4 77
-15 7 -8 19 -15 26 -15 18 0 74 -53 74 -71 0 -7 14 -27 31 -45 l31 -32 0 -127
0 -127 -57 -58 -56 -57 26 -17 c14 -9 35 -31 45 -49 16 -25 27 -32 52 -32 32
0 33 -2 36 -45 2 -24 7 -49 12 -55 4 -5 11 -25 15 -43 8 -39 33 -40 51 -3 7
13 30 42 53 65 40 41 41 43 41 113 0 40 -4 75 -10 78 -12 8 -13 42 -1 49 5 3
28 -10 51 -29 23 -19 45 -35 49 -35 5 0 16 -19 27 -42 10 -24 38 -62 61 -85
24 -23 43 -48 43 -55 0 -8 20 -34 45 -58 25 -24 45 -49 45 -54 0 -14 52 -66
66 -66 6 0 17 -7 24 -15 7 -9 36 -27 64 -41 28 -14 73 -41 100 -61 27 -19 71
-46 98 -60 26 -13 48 -28 48 -34 0 -5 6 -9 14 -9 8 0 27 -10 43 -23 15 -13 44
-31 63 -40 19 -10 46 -26 60 -36 39 -29 138 -93 185 -121 23 -14 53 -32 66
-41 74 -49 82 -51 170 -53 144 -2 166 -32 173 -239 2 -67 9 -135 15 -150 6
-16 11 -33 11 -38 0 -21 30 -39 64 -39 29 0 36 4 36 20 0 10 7 23 15 27 11 6
15 34 17 113 3 103 3 105 28 108 28 4 120 95 120 118 0 9 18 46 41 84 40 68
43 70 152 127 62 32 128 65 147 75 48 23 135 125 143 167 10 50 -21 81 -82 81
-43 0 -96 -13 -133 -31 -10 -5 -23 -9 -29 -9 -6 0 -25 -6 -42 -14 -18 -7 -52
-19 -77 -26 -74 -22 -109 -66 -161 -205 -31 -83 -73 -103 -146 -68 -36 17 -75
69 -87 116 -7 28 -24 35 -43 16 -7 -7 -23 -9 -37 -5 -23 6 -26 12 -26 49 -1
23 -7 53 -15 67 -8 14 -14 39 -15 57 0 17 -4 35 -10 38 -5 3 -10 21 -10 40 0
19 -4 37 -10 40 -27 17 7 85 42 85 14 0 18 8 18 39 0 22 5 43 10 46 30 18 -14
105 -53 105 -8 0 -20 7 -27 15 -7 8 -24 15 -39 15 -21 0 -29 7 -39 33 -7 18
-12 43 -12 55 0 30 -12 33 -49 11 -31 -19 -32 -21 -29 -77 3 -48 6 -57 23 -60
19 -3 64 -22 115 -48 33 -17 50 -82 26 -99 -9 -7 -16 -16 -16 -21 0 -6 -13
-25 -30 -44 -23 -28 -29 -45 -30 -82 0 -26 -4 -50 -10 -53 -5 -3 -10 -26 -10
-49 0 -24 -7 -57 -15 -72 -8 -16 -15 -50 -15 -76 0 -42 -3 -49 -30 -63 -16 -8
-55 -15 -90 -15 l-60 0 -425 425 c-234 234 -425 430 -425 437 0 6 -30 44 -67
84 -38 40 -92 102 -121 136 -29 35 -79 93 -112 130 -33 37 -60 72 -60 78 0 6
-31 42 -70 81 -38 39 -70 77 -70 84 0 6 -9 20 -20 30 -30 27 -25 69 11 106 18
18 35 43 38 57 5 19 14 25 38 27 34 3 29 11 124 -205 16 -36 35 -77 42 -92 6
-14 91 -109 188 -210 96 -100 262 -275 369 -388 107 -113 201 -210 210 -217 8
-7 27 -13 41 -13 15 0 37 -12 55 -31 16 -17 44 -37 62 -46 17 -8 32 -19 32
-24 0 -5 13 -9 29 -9 17 0 32 -4 36 -9 6 -11 64 -41 78 -41 5 0 23 -16 40 -35
16 -19 34 -35 40 -35 17 0 47 32 47 51 0 9 6 20 13 23 10 5 10 7 0 12 -7 3
-13 12 -13 20 0 16 -55 74 -70 74 -5 0 -25 9 -45 20 -20 11 -47 20 -61 20 -13
0 -27 7 -30 15 -4 8 -14 15 -23 15 -10 0 -30 14 -46 30 -16 17 -34 30 -41 30
-6 0 -17 7 -24 15 -7 8 -23 15 -35 15 -23 0 -85 47 -85 64 0 5 -18 30 -40 55
-104 117 -140 162 -140 171 0 6 -22 32 -49 59 -27 27 -56 62 -65 78 -8 15 -42
55 -75 88 -34 33 -61 64 -61 70 0 6 -27 37 -60 70 -33 33 -75 84 -93 114 -17
29 -44 67 -59 84 -54 58 -53 58 220 53 136 -3 323 -8 416 -11 143 -5 174 -4
200 10 29 15 88 54 112 73 5 5 21 15 35 22 13 7 36 24 51 37 15 14 35 31 46
37 61 36 101 68 107 86 17 54 -30 123 -84 123 -19 0 -44 -12 -70 -34 -100 -85
-166 -128 -198 -129 -30 0 -29 6 7 47 17 18 30 42 30 51 0 10 7 27 15 37 33
43 65 91 74 110 5 12 16 27 25 34 9 7 16 19 16 25 0 6 9 22 20 36 27 33 70 99
70 107 0 3 -20 -13 -44 -35 -25 -23 -86 -62 -138 -88 -55 -27 -116 -68 -150
-99 -58 -54 -125 -85 -183 -85 -19 0 -39 -8 -50 -20 -10 -11 -31 -20 -46 -20
-15 0 -31 -4 -34 -10 -3 -5 -19 -10 -35 -10 -15 0 -30 -7 -34 -15 -4 -12 -28
-15 -122 -15 -117 0 -117 0 -145 30 -33 34 -38 74 -12 102 14 15 32 18 118 18
79 0 105 -3 115 -15 7 -8 23 -15 37 -15 13 0 26 7 29 15 4 10 20 15 48 15 30
0 46 5 56 20 8 11 21 20 29 20 21 0 51 30 51 52 0 10 5 18 10 18 6 0 10 20 10
45 0 25 5 45 10 45 18 0 11 56 -10 75 -11 10 -20 23 -20 28 0 6 -7 19 -17 29
-13 14 -31 18 -89 18 -75 0 -95 9 -69 30 8 7 15 18 15 26 0 15 80 93 96 94 6
0 19 9 29 20 10 11 29 20 43 20 27 0 62 -25 62 -45 0 -6 16 -26 35 -45 32 -31
35 -39 35 -93 0 -63 19 -98 43 -79 15 13 74 129 119 237 l34 80 -64 129 c-36
71 -73 137 -84 148 -10 10 -18 24 -18 32 0 39 -58 23 -105 -28 -16 -18 -43
-40 -60 -49 -16 -8 -41 -27 -54 -41 -14 -14 -30 -26 -36 -26 -6 0 -31 -20 -55
-45 -24 -25 -50 -45 -57 -45 -7 0 -27 -16 -45 -36 -18 -20 -46 -43 -63 -51
-16 -9 -42 -29 -58 -44 -15 -16 -33 -29 -40 -29 -7 0 -33 -20 -57 -45 -24 -25
-49 -45 -55 -45 -6 0 -31 -20 -55 -45 -24 -25 -50 -45 -57 -45 -7 0 -23 -12
-36 -26 -12 -14 -38 -34 -57 -44 -19 -10 -51 -34 -69 -54 -19 -20 -40 -36 -46
-36 -6 0 -31 -20 -55 -45 -24 -25 -49 -45 -55 -45 -6 0 -35 -25 -65 -55 -35
-36 -63 -55 -78 -55 -32 0 -25 31 11 48 15 7 27 19 27 26 0 6 16 27 35 46 19
19 35 39 35 45 0 6 12 22 26 36 14 13 33 38 41 54 9 17 27 39 39 50 13 11 24
26 24 32 0 11 26 46 110 144 16 20 30 41 30 46 0 22 87 88 168 128 28 14 52
30 52 34 0 5 12 14 28 20 15 6 45 25 67 41 22 17 63 42 90 56 28 15 58 33 68
42 9 8 26 20 36 26 11 6 40 26 66 44 26 18 68 43 94 57 26 13 53 31 60 39 8 9
19 16 26 16 6 0 20 9 30 20 10 11 24 20 30 20 7 0 19 7 26 16 7 9 37 28 65 43
56 28 170 101 194 124 8 8 33 22 55 32 22 10 49 26 60 35 25 22 76 49 92 50 7
0 254 -121 550 -269z m5451 9 c2 -24 -1 -53 -6 -64 -12 -27 -29 -77 -49 -141
-8 -27 -19 -58 -24 -67 -5 -10 -9 -24 -9 -31 0 -7 -10 -35 -23 -63 -13 -27
-34 -83 -46 -124 -13 -41 -30 -89 -37 -107 -8 -17 -14 -36 -14 -42 0 -6 -4
-19 -9 -29 -5 -9 -14 -37 -21 -62 -7 -25 -16 -53 -21 -62 -5 -10 -9 -27 -9
-37 0 -11 -4 -22 -9 -25 -5 -3 -12 -18 -15 -33 -4 -16 -15 -46 -25 -68 -10
-22 -24 -60 -31 -85 -7 -25 -18 -57 -26 -72 -8 -14 -14 -35 -14 -46 0 -12 -4
-24 -10 -27 -5 -3 -10 -30 -10 -59 0 -76 18 -90 107 -81 37 3 120 7 183 8
l115 2 3 -491 c2 -428 0 -493 -13 -504 -22 -18 -45 4 -45 43 0 30 -7 39 -112
162 -27 30 -48 60 -48 66 0 7 -15 29 -32 50 -18 21 -49 59 -68 84 -19 25 -56
70 -82 100 -27 31 -48 60 -48 66 0 5 -11 20 -24 32 -13 12 -30 36 -39 52 -8
17 -27 41 -41 54 -14 14 -26 30 -26 36 0 6 -20 31 -45 55 -25 24 -45 49 -45
55 0 6 -12 22 -26 36 -14 13 -33 37 -41 53 -8 16 -32 46 -54 67 -21 21 -39 44
-39 52 0 7 -16 28 -35 47 -19 19 -35 38 -35 43 0 9 -20 35 -112 142 -27 30
-48 60 -48 66 0 15 -42 59 -56 59 -16 0 -31 20 -39 53 -6 24 -4 27 17 27 14 0
35 12 49 26 13 14 37 33 53 41 15 8 41 28 57 44 16 16 34 29 40 29 6 0 30 16
53 35 22 19 64 53 91 75 28 23 72 59 98 80 27 22 53 40 60 40 6 0 21 11 32 24
11 12 34 30 50 39 17 8 41 27 54 41 14 14 30 26 36 26 6 0 27 16 46 36 18 20
46 42 60 50 15 7 41 27 57 44 17 16 37 30 44 30 8 0 29 16 48 35 19 19 39 35
45 35 6 0 40 29 75 65 36 36 69 64 75 62 5 -2 11 -23 13 -47z m-7614 -626 c4
-9 -10 -32 -37 -62 -61 -66 -167 -277 -167 -332 0 -23 5 -50 11 -62 9 -16 7
-24 -10 -42 -34 -36 -27 -84 29 -197 47 -93 50 -103 44 -152 -7 -58 -18 -77
-43 -77 -34 0 -52 24 -56 75 -13 147 -74 222 -161 199 -27 -7 -84 -130 -84
-180 0 -13 -4 -32 -9 -42 -18 -37 -36 -96 -57 -187 -4 -16 -13 -38 -22 -48 -8
-9 -20 -25 -26 -35 -6 -10 -20 -33 -31 -51 -11 -18 -28 -45 -37 -62 -20 -34
-65 -41 -75 -11 -8 23 -54 72 -68 72 -6 0 -26 15 -44 34 l-34 35 18 38 c17 36
30 53 113 152 17 21 32 43 32 48 0 5 12 20 26 34 14 13 34 40 44 59 10 19 30
45 44 57 14 13 26 29 26 36 0 7 20 33 45 57 25 24 45 48 45 53 0 5 15 27 33
48 84 100 95 115 101 136 4 12 18 31 30 41 13 10 30 31 39 47 8 17 27 41 41
54 14 14 26 30 26 36 0 7 9 20 20 30 11 10 20 23 20 29 0 6 11 24 25 40 14 16
25 33 25 38 0 14 91 108 105 108 7 0 16 -7 19 -16z m-2600 -422 c6 -6 27 -12
46 -15 82 -14 106 -19 125 -27 11 -5 34 -11 50 -14 44 -7 117 -27 137 -37 10
-5 26 -9 37 -9 31 0 53 -28 40 -51 -6 -11 -16 -22 -22 -23 -7 -2 -32 -9 -57
-16 -25 -7 -66 -23 -91 -36 -26 -13 -56 -24 -67 -24 -12 0 -24 -4 -27 -10 -3
-5 -15 -10 -25 -10 -19 0 -33 -6 -166 -65 -34 -15 -67 -24 -73 -21 -7 5 -11
48 -11 120 0 110 -1 113 -27 138 -38 35 -62 41 -97 23 -15 -8 -38 -15 -49 -15
-20 0 -68 -13 -112 -31 -11 -4 -33 -10 -50 -12 -16 -3 -55 -14 -85 -26 -30
-11 -65 -21 -77 -21 -13 0 -31 -4 -41 -9 -27 -14 -87 -31 -108 -31 -10 0 -32
-7 -48 -15 -15 -8 -52 -15 -82 -15 -29 0 -56 -4 -59 -10 -3 -6 -52 -10 -110
-10 -58 0 -107 -4 -110 -10 -3 -5 -31 -10 -61 -10 -84 0 -94 -9 -94 -83 0 -36
5 -68 12 -75 7 -7 44 -12 94 -12 46 0 86 -4 89 -10 3 -5 32 -10 64 -10 31 0
62 -5 69 -12 7 -7 12 -37 12 -68 0 -44 5 -61 20 -75 33 -30 9 -45 -71 -45 -37
0 -71 -4 -74 -10 -3 -5 -39 -10 -78 -10 -68 0 -147 -19 -174 -42 -8 -6 -13
-33 -13 -64 0 -59 17 -84 55 -84 13 0 27 -4 30 -10 3 -5 32 -10 63 -10 34 -1
65 -7 76 -15 12 -9 42 -15 77 -15 32 0 61 -4 64 -10 3 -5 33 -10 65 -10 32 0
62 -4 65 -10 3 -5 32 -10 64 -10 84 0 98 -26 61 -116 -22 -52 -9 -67 53 -59
93 12 220 11 224 -1 6 -18 -26 -44 -55 -44 -26 0 -83 -16 -114 -31 -10 -5 -26
-9 -36 -9 -10 0 -27 -7 -38 -15 -10 -8 -30 -15 -43 -15 -43 0 -151 -40 -168
-62 -14 -18 -35 -114 -50 -228 -3 -25 -12 -54 -19 -65 -8 -11 -14 -44 -14 -77
0 -31 -4 -60 -10 -63 -5 -3 -10 -28 -10 -55 0 -27 -4 -52 -10 -55 -5 -3 -10
-26 -10 -49 0 -24 -7 -56 -15 -72 -8 -16 -12 -38 -9 -50 3 -13 -5 -42 -20 -72
-14 -28 -26 -59 -26 -68 0 -9 -11 -29 -25 -46 -14 -16 -25 -39 -25 -50 0 -11
-5 -18 -12 -15 -7 2 -12 17 -11 33 6 77 19 160 27 173 13 20 33 116 52 244 4
20 10 40 15 43 5 3 9 23 9 44 0 21 5 42 10 45 17 10 11 37 -12 62 -32 34 -105
33 -139 -3 -21 -22 -24 -37 -27 -109 -4 -82 -5 -84 -34 -96 -42 -17 -57 0 -39
44 8 17 16 55 18 83 4 48 -1 62 -126 313 -72 145 -140 275 -151 288 -18 23
-20 41 -20 149 0 71 4 125 10 129 17 10 11 37 -12 62 -29 31 -87 32 -115 1
-24 -28 -93 -164 -93 -185 0 -8 -20 -54 -45 -101 -25 -47 -45 -91 -45 -99 0
-7 -20 -54 -45 -103 -25 -49 -45 -96 -45 -104 0 -9 -11 -35 -25 -60 -14 -25
-25 -51 -25 -59 0 -22 -32 -80 -54 -99 -27 -22 -46 -5 -23 20 9 10 17 27 17
38 0 11 7 29 15 40 11 15 14 55 15 182 0 90 4 171 10 181 18 34 -11 56 -74 56
-49 0 -59 -4 -90 -34 -20 -19 -36 -41 -36 -48 0 -7 -36 -48 -80 -92 -44 -44
-80 -85 -80 -91 0 -11 -54 -71 -245 -276 -41 -44 -75 -85 -75 -90 0 -5 -36
-45 -80 -89 -44 -44 -80 -85 -80 -92 0 -7 -16 -30 -35 -52 -28 -31 -35 -47
-35 -79 0 -54 8 -72 36 -83 45 -17 70 3 130 104 7 10 25 33 42 50 16 18 33 42
37 55 3 12 10 22 16 22 5 0 15 15 24 33 8 17 31 52 50 77 50 65 88 118 105
151 9 16 26 39 38 52 22 21 92 123 119 172 15 25 35 44 67 60 11 6 30 25 41
42 26 42 39 37 43 -16 3 -42 -17 -103 -38 -116 -6 -4 -24 -32 -41 -63 -51 -95
-87 -156 -101 -172 -21 -23 -48 -78 -48 -98 0 -10 -4 -22 -9 -27 -5 -6 -21
-46 -36 -90 -16 -44 -36 -97 -46 -117 -11 -21 -19 -43 -19 -51 0 -7 -9 -32
-20 -54 -10 -22 -30 -71 -43 -109 -35 -99 -49 -135 -64 -171 -7 -17 -13 -36
-13 -42 0 -6 -9 -26 -20 -46 -11 -20 -20 -42 -20 -51 0 -8 -10 -36 -23 -62
-13 -26 -29 -67 -36 -92 -7 -25 -22 -63 -32 -85 -10 -22 -29 -71 -43 -110 -41
-121 -48 -139 -72 -187 -22 -44 -24 -60 -24 -207 0 -96 4 -162 10 -166 6 -4
10 -60 10 -137 0 -93 4 -139 15 -161 9 -20 16 -78 19 -152 3 -66 10 -186 16
-267 5 -82 14 -212 18 -290 6 -94 15 -159 26 -188 16 -41 27 -61 82 -144 10
-16 30 -47 44 -70 55 -92 66 -106 80 -106 22 1 53 48 44 68 -4 9 -11 41 -15
70 -5 28 -13 77 -19 107 -5 30 -14 79 -18 109 -4 30 -13 60 -19 67 -6 8 -14
32 -17 54 -4 22 -11 64 -16 93 -25 131 -31 170 -37 212 -3 25 -12 54 -19 65
-19 26 -20 266 -2 298 12 21 23 109 34 272 3 44 10 84 15 90 5 5 9 45 9 90 0
47 5 86 11 92 7 7 11 40 10 82 -1 47 3 81 14 100 9 19 15 57 15 104 0 40 4 77
9 83 5 5 12 45 15 89 16 233 20 258 54 319 17 33 32 66 32 73 0 7 20 54 45
103 25 49 45 96 45 103 0 7 25 62 55 122 30 59 55 113 55 120 0 18 59 131 75
145 8 7 15 18 15 26 0 16 43 64 59 64 19 0 13 -24 -29 -108 -22 -44 -40 -85
-40 -91 0 -6 -20 -52 -45 -101 -25 -49 -45 -94 -45 -100 0 -5 -13 -38 -30 -72
-16 -34 -30 -67 -30 -74 0 -6 -11 -32 -25 -55 -18 -33 -25 -59 -25 -101 0 -31
-4 -60 -10 -63 -5 -3 -10 -30 -10 -59 0 -30 -7 -66 -15 -82 -8 -16 -12 -38 -9
-50 3 -12 -1 -36 -10 -52 -9 -17 -16 -55 -16 -86 0 -30 -4 -58 -10 -61 -5 -3
-10 -33 -10 -65 0 -32 -4 -62 -10 -65 -5 -3 -10 -30 -10 -59 0 -30 -7 -67 -15
-82 -8 -16 -15 -52 -15 -81 0 -28 -4 -55 -10 -58 -5 -3 -10 -33 -10 -65 0 -32
-4 -62 -10 -65 -5 -3 -10 -28 -10 -55 0 -27 -4 -52 -10 -55 -5 -3 -10 -32 -10
-63 -1 -31 -7 -68 -15 -82 -19 -34 -20 -191 -1 -233 8 -18 17 -48 21 -67 3
-19 10 -60 16 -90 5 -30 12 -72 15 -93 4 -20 10 -40 15 -43 5 -3 9 -23 9 -45
0 -22 5 -50 12 -62 6 -12 16 -42 20 -67 18 -90 29 -156 35 -200 3 -24 12 -54
20 -67 8 -12 13 -28 10 -35 -2 -7 0 -24 6 -38 9 -23 17 -63 33 -173 4 -20 10
-40 15 -43 5 -3 9 -24 9 -47 1 -23 7 -53 15 -67 8 -14 14 -39 15 -57 0 -17 5
-35 10 -38 6 -3 10 -28 10 -54 0 -32 5 -53 16 -62 50 -41 72 -159 34 -179 -16
-9 -22 -6 -37 17 -10 16 -26 34 -36 42 -11 7 -25 28 -33 45 -8 17 -30 51 -49
76 -19 25 -39 55 -44 67 -6 11 -15 24 -21 28 -6 4 -22 30 -36 58 -42 88 -82
137 -110 137 -33 0 -84 51 -84 84 0 13 -4 28 -10 31 -5 3 -10 15 -10 26 0 11
-11 40 -25 65 -14 25 -25 53 -25 62 0 10 -7 27 -15 37 -34 44 -65 92 -81 125
-10 19 -28 48 -41 63 -13 16 -23 33 -23 38 0 5 -8 17 -17 27 -10 11 -27 34
-38 53 -11 18 -27 45 -37 60 -9 15 -19 59 -22 100 -4 41 -9 106 -12 144 -3 39
-10 74 -15 80 -5 5 -9 39 -9 75 0 40 -5 73 -14 86 -8 11 -17 51 -20 89 -7 85
-22 224 -35 325 -6 41 -14 112 -19 158 -5 45 -14 88 -20 94 -7 7 -12 41 -12
79 0 37 -4 71 -10 74 -6 3 -10 52 -10 110 0 82 4 111 18 137 18 33 29 60 72
188 12 36 33 86 46 112 13 27 24 57 24 67 0 11 5 23 10 26 6 3 10 15 10 25 0
11 11 43 24 72 57 127 66 150 66 168 0 10 5 22 10 25 6 3 10 15 10 27 0 11 11
41 24 67 13 25 29 66 36 91 7 25 23 66 36 92 13 27 24 54 24 63 0 8 9 30 20
50 11 20 20 42 20 50 0 14 9 38 51 133 11 23 19 50 19 60 0 18 78 102 95 102
4 0 41 32 81 70 39 39 77 70 82 70 6 0 35 25 64 56 29 31 69 64 88 74 19 11
62 46 94 79 33 34 64 61 70 61 9 0 42 28 203 175 45 41 88 75 95 75 7 0 35 25
63 56 27 31 65 64 85 74 19 10 62 46 95 79 33 34 64 61 70 61 6 0 24 14 40 30
16 17 35 30 43 30 8 0 28 6 45 14 18 8 46 17 62 20 17 3 50 10 75 15 25 5 63
14 85 19 22 5 51 14 63 21 13 7 34 10 46 7 12 -3 34 1 50 9 16 8 43 15 62 15
18 0 35 4 38 9 3 5 23 11 43 14 63 9 135 26 147 36 6 5 31 11 56 14 25 3 68
11 95 17 28 6 67 14 88 17 20 3 40 9 43 14 3 5 24 9 47 9 23 1 53 7 67 15 14
8 39 14 57 15 17 0 35 5 38 10 3 6 24 10 45 10 21 0 42 5 45 10 3 6 19 10 34
10 16 0 44 7 62 15 36 16 121 14 143 -3z m6916 -596 c24 -25 49 -46 55 -46 6
0 26 -16 45 -35 19 -19 40 -35 47 -35 7 0 26 -13 43 -30 16 -16 40 -35 52 -41
24 -12 60 -40 127 -96 21 -18 43 -33 48 -33 5 0 24 -16 43 -35 19 -19 40 -35
47 -35 8 0 26 -13 42 -29 16 -16 42 -36 57 -44 16 -8 40 -27 53 -41 14 -14 29
-26 34 -26 5 0 27 -15 48 -32 100 -84 115 -96 136 -102 12 -4 31 -18 41 -30
10 -13 31 -30 47 -39 17 -8 41 -27 54 -41 14 -14 30 -26 36 -26 6 0 22 -12 36
-26 13 -14 38 -33 54 -41 17 -9 39 -27 50 -39 11 -13 25 -24 31 -24 9 0 71
-47 145 -109 20 -17 41 -31 46 -31 5 0 24 -16 43 -35 19 -19 40 -35 47 -35 7
0 25 -13 40 -29 16 -15 38 -33 51 -40 29 -15 30 -67 2 -121 -11 -22 -20 -46
-20 -54 0 -9 -11 -35 -25 -60 -14 -25 -25 -52 -25 -60 0 -9 -9 -31 -20 -51
-11 -20 -20 -42 -20 -51 0 -8 -11 -37 -25 -64 -14 -27 -25 -60 -25 -73 0 -13
-20 -62 -45 -109 -25 -47 -45 -92 -45 -100 0 -8 -9 -33 -20 -56 -11 -22 -20
-46 -20 -52 0 -6 -11 -33 -25 -60 -14 -27 -25 -54 -25 -60 0 -6 -9 -29 -19
-53 -57 -126 -71 -161 -71 -171 0 -7 -9 -32 -21 -56 -11 -23 -29 -68 -39 -99
l-17 -56 -77 -3 c-63 -2 -76 0 -76 13 0 8 6 15 13 15 8 0 24 11 36 24 26 27
359 683 371 731 5 17 14 45 21 63 12 29 11 34 -8 54 -29 29 -76 28 -108 -2
-14 -13 -25 -32 -25 -42 0 -9 -11 -41 -24 -70 -14 -29 -30 -68 -37 -87 -13
-34 -60 -71 -91 -71 -10 0 -32 -9 -50 -20 -18 -11 -39 -20 -46 -20 -8 0 -28
-6 -45 -14 -18 -7 -52 -19 -77 -26 -25 -6 -53 -16 -62 -21 -10 -5 -23 -9 -30
-9 -7 0 -35 -11 -62 -25 -27 -14 -55 -25 -63 -25 -7 0 -21 -4 -31 -9 -9 -5
-39 -16 -67 -24 -70 -22 -114 -37 -160 -57 -60 -26 -166 -62 -198 -67 -15 -3
-30 -9 -33 -14 -3 -5 -13 -9 -23 -9 -9 0 -37 -10 -62 -22 -24 -12 -53 -23 -64
-25 -11 -2 -24 -8 -29 -13 -15 -15 -70 -12 -102 5 -16 8 -37 15 -46 15 -9 0
-20 5 -23 10 -3 6 -18 10 -32 10 -25 0 -74 13 -118 31 -11 5 -33 10 -49 11
-46 5 -55 30 -23 68 16 18 27 44 27 61 0 16 4 37 9 47 4 9 14 33 21 52 6 19
21 58 32 85 10 28 26 73 35 100 8 28 25 73 37 100 12 28 33 84 45 125 13 41
34 98 47 126 13 28 24 56 24 63 0 6 4 19 9 29 27 54 31 102 31 410 0 203 4
323 10 327 6 4 10 123 10 325 0 202 4 321 10 325 16 10 11 41 -10 60 -20 18
-26 45 -14 58 10 10 35 -7 84 -57z m-5578 -220 c125 -58 168 -76 182 -76 21 0
157 -70 184 -94 32 -28 54 -73 47 -95 -5 -17 -56 -43 -105 -55 -15 -3 -36 -21
-50 -45 -28 -45 -27 -45 -286 -59 -76 -4 -137 -12 -145 -19 -8 -6 -39 -13 -69
-15 -53 -3 -55 -4 -58 -33 -1 -16 -7 -39 -12 -50 -5 -11 -11 -36 -15 -55 -3
-19 -10 -57 -15 -85 -10 -60 -29 -132 -42 -161 -12 -25 -7 -86 7 -91 6 -2 32
38 57 89 39 79 59 105 135 178 107 101 160 141 179 133 16 -6 19 -29 3 -38 -5
-4 -14 -18 -19 -31 -5 -13 -21 -29 -35 -34 -14 -5 -29 -20 -34 -32 -5 -13 -23
-36 -40 -53 -17 -16 -31 -36 -31 -42 0 -7 -22 -37 -49 -67 -27 -30 -52 -63
-55 -74 -8 -25 24 -77 85 -141 26 -26 52 -58 59 -72 7 -13 30 -44 52 -69 99
-115 155 -181 176 -209 21 -27 128 -91 153 -91 5 0 28 -8 52 -19 23 -10 62
-24 87 -31 25 -8 66 -24 92 -37 26 -13 52 -23 57 -23 6 0 35 -11 65 -25 30
-14 57 -25 60 -25 4 0 25 -8 49 -19 23 -10 62 -24 87 -31 25 -8 66 -24 92 -37
26 -13 52 -23 58 -23 6 0 30 -9 52 -20 23 -11 47 -20 54 -20 7 0 34 -11 61
-23 26 -13 64 -29 83 -36 19 -7 58 -22 85 -32 28 -11 70 -27 95 -35 25 -9 49
-20 55 -25 5 -5 17 -9 26 -9 22 0 173 -76 189 -95 7 -8 19 -15 26 -15 8 0 23
-9 33 -19 11 -11 33 -27 48 -35 33 -16 113 -100 113 -117 0 -15 -121 -139
-136 -139 -7 0 -36 -25 -65 -55 -28 -30 -61 -57 -73 -61 -12 -3 -44 -29 -72
-56 -29 -28 -62 -55 -74 -61 -13 -7 -29 -28 -35 -47 -8 -24 -19 -36 -34 -38
-40 -6 -16 -27 35 -30 26 -2 54 -8 62 -14 7 -6 32 -12 55 -14 23 -2 53 -6 67
-9 22 -6 27 -1 42 34 19 43 32 51 42 25 3 -9 6 -343 6 -743 0 -568 -3 -730
-12 -739 -23 -23 -48 -603 -27 -628 16 -20 68 -44 94 -44 13 0 38 -6 56 -14
19 -7 40 -11 47 -9 7 3 24 -2 37 -11 13 -9 34 -16 46 -16 24 0 82 -16 111 -31
10 -5 29 -9 44 -9 14 0 35 -5 47 -12 12 -6 40 -15 62 -20 22 -5 60 -14 85 -19
132 -30 164 -21 162 47 -1 20 5 49 13 65 8 15 15 41 15 57 0 15 4 32 9 37 5 6
11 38 14 71 l5 61 -177 177 c-97 97 -184 176 -194 176 -27 0 -95 38 -107 59
-5 11 -10 32 -10 48 0 22 -18 46 -86 113 -89 89 -118 133 -112 172 2 16 11 24
29 26 15 2 39 16 55 33 49 52 84 34 84 -45 0 -46 7 -78 32 -151 6 -16 13 -46
15 -65 4 -26 21 -52 71 -102 37 -38 73 -68 82 -68 8 0 27 13 42 28 27 28 28
29 17 98 -5 38 -12 86 -16 107 -3 20 -9 40 -14 43 -5 3 -9 24 -9 47 -1 23 -7
53 -15 67 -8 14 -14 39 -15 57 0 17 -4 35 -10 38 -5 3 -10 36 -10 73 0 66 2
72 131 330 114 230 135 266 167 286 21 13 46 33 56 45 23 25 56 28 56 5 0 -9
-16 -34 -35 -55 -19 -21 -37 -51 -40 -66 -4 -16 -10 -36 -16 -45 -5 -10 -9
-31 -9 -47 0 -16 -7 -42 -15 -57 -8 -16 -15 -37 -15 -46 0 -9 -4 -20 -10 -23
-5 -3 -10 -18 -10 -32 0 -27 -16 -84 -31 -115 -5 -10 -9 -30 -9 -45 -1 -16 -7
-39 -15 -53 -10 -18 -14 -61 -14 -155 0 -117 2 -134 23 -170 19 -34 28 -40 60
-43 46 -4 67 15 105 96 25 53 36 80 64 157 5 17 21 51 34 76 12 26 23 54 23
63 0 8 9 31 20 51 11 20 20 43 20 53 0 9 11 35 24 58 13 22 26 52 28 65 3 13
23 62 43 109 20 47 39 94 42 105 3 11 16 43 29 71 13 28 24 58 24 67 0 13 10
17 41 17 22 0 50 6 62 12 21 12 117 23 316 34 l94 5 166 -170 c555 -570 523
-535 533 -588 5 -26 12 -65 15 -86 3 -20 9 -40 14 -43 5 -3 9 -20 9 -37 1 -18
7 -43 15 -57 8 -14 14 -39 15 -57 0 -17 4 -34 9 -37 5 -3 11 -23 14 -43 11
-75 19 -108 28 -128 6 -12 9 -45 7 -75 l-3 -55 -60 -32 c-33 -18 -67 -33 -75
-33 -15 0 -70 96 -70 123 0 6 -20 52 -45 101 -25 49 -45 95 -45 102 0 8 -16
43 -35 80 -19 36 -35 73 -35 82 0 34 -38 82 -65 82 -14 0 -25 3 -25 8 0 4 -3
17 -6 30 -8 29 6 28 52 -3 54 -37 137 -36 176 2 23 22 28 35 28 73 0 47 -21
90 -44 90 -7 0 -23 12 -37 26 -13 14 -37 33 -54 41 -16 9 -39 26 -50 38 -11
13 -30 26 -41 29 -12 4 -29 15 -39 26 -10 11 -22 20 -28 20 -5 0 -26 14 -46
30 -97 83 -132 109 -151 115 -11 3 -20 10 -20 14 0 5 -13 14 -29 21 -16 6 -41
25 -57 41 -15 16 -33 29 -39 29 -6 0 -22 12 -36 26 -34 36 -92 64 -134 64 -31
0 -37 -4 -51 -37 -9 -21 -36 -80 -60 -131 -24 -51 -44 -100 -44 -110 0 -9 -7
-26 -16 -37 -9 -12 -12 -30 -8 -47 4 -21 2 -28 -10 -28 -8 0 -18 9 -21 21 -4
12 -33 33 -71 52 -61 30 -66 31 -92 16 l-27 -15 -3 -287 -2 -287 40 -25 c22
-14 44 -25 49 -25 5 0 14 -7 21 -15 7 -9 28 -22 46 -31 18 -9 36 -24 39 -35 9
-27 -12 -58 -43 -65 -15 -3 -36 -9 -47 -14 -11 -4 -42 -15 -70 -23 -49 -15
-161 -52 -200 -67 -11 -4 -40 -14 -65 -21 -65 -18 -118 -46 -130 -68 -16 -32
-12 -82 11 -115 15 -22 55 -48 133 -85 105 -52 166 -93 166 -114 0 -5 11 -22
25 -39 14 -16 25 -35 25 -42 0 -6 8 -19 18 -27 9 -9 26 -31 37 -50 35 -58 40
-66 55 -84 8 -9 19 -25 25 -35 5 -9 18 -28 27 -41 9 -13 19 -35 23 -49 5 -21
1 -28 -27 -41 -18 -9 -53 -22 -78 -29 -25 -6 -53 -16 -62 -21 -10 -5 -27 -9
-37 -9 -11 0 -23 -4 -26 -10 -3 -5 -13 -10 -22 -10 -8 0 -29 -6 -46 -13 -31
-13 -61 -24 -129 -48 -18 -7 -41 -16 -50 -20 -10 -5 -23 -9 -29 -9 -6 0 -25
-6 -42 -14 -18 -7 -66 -23 -107 -36 -41 -12 -82 -26 -90 -30 -9 -4 -30 -11
-48 -14 -17 -4 -34 -12 -37 -17 -8 -13 -202 -11 -227 2 -12 7 -81 10 -179 10
-126 -1 -163 1 -182 13 -18 12 -66 16 -235 18 -135 2 -211 7 -210 13 2 6 31
10 64 10 79 0 104 19 104 80 0 51 -27 79 -122 123 -37 18 -70 36 -73 42 -9 15
-203 110 -224 110 -23 0 -37 16 -47 54 -7 28 -6 29 22 22 16 -4 56 -11 89 -16
68 -9 97 -16 142 -36 17 -8 36 -14 42 -14 6 0 19 -4 29 -9 9 -4 31 -13 47 -19
83 -28 102 -36 127 -48 14 -8 35 -14 46 -14 12 0 24 -4 27 -10 3 -5 17 -10 30
-10 13 0 27 -4 30 -10 3 -5 32 -10 63 -10 47 0 60 4 84 27 32 30 35 58 12 105
-14 28 -36 42 -143 92 -69 32 -168 78 -219 102 -51 24 -98 44 -105 44 -7 0
-66 27 -132 60 -66 33 -124 60 -129 60 -19 0 -212 98 -225 114 -8 9 -19 16
-26 16 -20 0 -42 33 -48 70 -3 19 -7 44 -9 55 -3 19 2 20 82 18 103 -2 210
-15 230 -28 8 -5 42 -13 75 -17 33 -4 75 -10 93 -14 68 -14 119 78 74 132 -21
25 -73 54 -97 54 -8 0 -23 4 -33 10 -9 5 -30 14 -45 20 -41 14 -24 30 33 30
33 0 54 -6 66 -17 14 -14 299 -163 311 -163 2 0 26 22 53 50 52 51 66 96 38
120 -17 14 -134 92 -164 108 -13 7 -24 22 -24 32 0 19 25 50 40 50 15 0 80 61
80 74 0 22 -85 92 -148 121 -59 27 -65 28 -90 14 -24 -13 -27 -20 -25 -64 1
-28 5 -70 8 -95 l7 -46 -104 4 c-56 2 -116 8 -131 14 -53 20 -127 12 -196 -21
-36 -17 -69 -31 -75 -31 -6 0 -42 -16 -80 -35 -39 -19 -76 -35 -83 -35 -7 0
-42 -16 -79 -35 -36 -19 -72 -35 -80 -35 -8 0 -46 -16 -84 -35 -38 -19 -75
-35 -81 -35 -6 0 -38 -13 -71 -30 -32 -16 -64 -30 -71 -30 -7 0 -43 -16 -81
-35 -39 -19 -75 -35 -82 -35 -6 0 -43 -16 -80 -35 -38 -19 -75 -35 -82 -35 -7
0 -47 -18 -90 -39 -58 -29 -99 -60 -160 -121 -78 -78 -82 -85 -82 -126 0 -37
-3 -44 -19 -44 -23 0 -61 45 -61 72 0 20 -97 215 -111 224 -10 6 -105 200
-114 234 -4 14 -21 38 -38 53 -27 26 -28 30 -14 44 14 14 17 14 38 -1 18 -12
48 -16 136 -16 64 0 114 -4 118 -10 3 -5 46 -10 95 -10 49 0 92 5 95 10 3 6
21 10 38 10 18 1 43 7 57 15 14 8 39 14 57 15 17 0 34 4 37 9 3 5 23 11 43 14
130 19 193 41 233 82 41 42 44 84 10 120 -31 33 -79 41 -118 21 -20 -10 -57
-16 -106 -16 -41 0 -78 -4 -81 -10 -3 -5 -44 -10 -90 -10 -46 0 -87 -4 -90
-10 -3 -5 -41 -10 -83 -10 -48 -1 -86 -6 -102 -15 -52 -30 -176 -4 -203 41 -4
8 -15 14 -23 14 -8 0 -29 13 -47 30 -63 59 -152 110 -190 110 -21 0 -26 -6
-30 -37 -7 -58 -33 -118 -52 -121 -21 -5 -318 287 -345 338 -11 19 -86 102
-169 184 l-150 148 -5 82 c-3 44 -10 122 -15 171 -6 50 -14 128 -18 175 -5 47
-12 92 -18 100 -9 14 -19 100 -31 270 -2 41 -9 84 -14 95 -5 11 -12 54 -14 95
-11 170 -23 261 -34 272 -14 14 -17 214 -3 223 5 3 12 19 16 36 4 17 20 56 36
86 16 30 29 61 29 69 0 8 16 46 35 84 19 38 35 76 35 84 0 8 16 43 35 79 19
36 35 72 35 80 0 8 16 45 35 81 19 37 35 72 35 79 0 6 16 45 35 84 19 40 35
77 35 83 0 6 14 37 30 70 17 33 30 65 30 73 0 7 16 42 35 77 19 36 35 72 35
81 0 38 32 78 82 103 29 14 58 26 66 26 8 0 26 6 40 14 27 13 41 19 166 63 38
13 87 33 109 43 22 11 47 20 54 20 8 0 28 7 44 16 28 14 118 49 219 84 19 7
43 17 54 22 10 5 29 12 42 14 13 2 40 13 59 24 20 11 42 20 51 20 8 0 36 10
62 23 26 13 67 29 92 36 25 7 63 22 85 32 22 10 52 21 68 25 15 3 30 10 33 15
3 5 15 9 27 9 12 1 38 9 57 20 50 28 90 24 172 -14z m631 -557 c-11 -11 -75
-28 -106 -29 -29 0 -14 24 19 31 51 11 99 10 87 -2z m-143 -40 c0 -5 -7 -9
-15 -9 -15 0 -20 12 -9 23 8 8 24 -1 24 -14z m-190 -51 c0 -7 -34 -53 -75
-101 -66 -78 -75 -93 -75 -128 0 -51 15 -79 41 -79 17 0 241 144 292 188 9 8
20 12 24 8 4 -4 -2 -15 -13 -24 -11 -9 -98 -79 -192 -155 -97 -77 -172 -145
-172 -154 0 -9 14 -40 30 -70 35 -61 36 -69 14 -77 -29 -11 -50 3 -75 50 -13
26 -29 49 -37 51 -19 8 -52 82 -52 118 0 17 6 39 14 50 7 11 39 70 71 130 86
162 99 180 137 192 46 15 68 15 68 1z m-3112 -90 c2 -27 -3 -42 -22 -63 -15
-16 -26 -38 -26 -51 0 -12 -4 -26 -10 -29 -5 -3 -10 -18 -10 -32 0 -28 -14
-76 -37 -130 -7 -17 -13 -38 -13 -46 0 -9 -4 -19 -10 -22 -5 -3 -10 -18 -10
-32 0 -25 -12 -71 -31 -118 -4 -11 -10 -33 -12 -50 -5 -32 -43 -148 -58 -177
-5 -10 -9 -28 -9 -41 0 -13 -11 -52 -25 -87 -14 -35 -25 -74 -25 -87 0 -13 -4
-31 -9 -41 -15 -29 -31 -87 -31 -111 0 -12 -5 -32 -12 -44 -11 -21 -24 -70
-34 -132 -3 -16 -9 -39 -13 -50 -18 -44 -31 -92 -31 -112 0 -11 -7 -34 -15
-49 -8 -16 -15 -38 -15 -48 0 -21 -17 -81 -31 -108 -5 -10 -9 -56 -9 -102 0
-83 -12 -115 -31 -85 -5 8 -8 118 -6 244 3 240 4 245 58 380 4 11 10 34 12 50
4 31 42 146 58 177 5 10 9 27 9 37 0 11 5 23 10 26 6 3 10 21 10 39 0 19 7 47
15 62 8 16 15 37 15 46 0 9 5 20 10 23 6 3 10 15 10 26 0 10 4 27 9 37 5 9 15
37 21 62 7 25 19 59 26 77 8 17 14 39 14 48 0 16 31 121 50 170 5 11 11 29 13
40 3 11 10 34 16 50 5 17 15 50 22 75 6 25 15 54 20 65 4 11 9 29 11 40 2 11
12 24 23 30 28 14 60 46 68 68 11 29 32 14 35 -25z m3908 -83 c16 -8 43 -28
59 -46 17 -17 46 -39 65 -49 19 -10 45 -30 57 -44 13 -14 29 -26 36 -26 7 0
33 -20 57 -45 24 -25 49 -45 55 -45 6 0 22 -12 36 -26 13 -14 38 -33 54 -41
17 -9 41 -29 55 -45 13 -17 40 -38 60 -48 19 -10 50 -34 68 -54 18 -20 37 -36
44 -36 10 0 34 -18 143 -112 30 -27 60 -48 65 -48 5 0 23 -13 38 -30 16 -16
34 -30 40 -30 7 0 37 -21 67 -47 107 -93 133 -113 142 -113 5 0 24 -15 42 -34
18 -19 44 -37 57 -40 13 -4 24 -11 24 -16 0 -5 25 -21 55 -35 30 -15 57 -30
60 -36 4 -5 30 -20 60 -34 50 -24 71 -46 58 -59 -10 -10 -131 -7 -138 4 -3 6
-28 10 -55 10 -27 0 -52 5 -55 10 -3 6 -28 10 -55 10 -27 0 -52 5 -55 10 -3 6
-28 10 -54 10 -26 0 -52 5 -59 12 -7 7 -37 16 -67 20 -30 4 -81 13 -112 18
-32 6 -78 13 -103 17 -25 3 -51 10 -57 15 -7 6 -32 10 -55 10 -23 -1 -51 6
-62 14 -11 8 -33 14 -48 14 -16 0 -115 44 -221 97 -137 69 -206 98 -241 102
-27 3 -51 11 -53 17 -4 13 63 47 143 73 136 44 164 67 164 131 0 38 -5 51 -28
73 -35 33 -42 33 -98 2 -25 -14 -51 -25 -59 -25 -14 0 -56 -17 -152 -62 -49
-23 -127 -33 -350 -44 -82 -4 -108 -2 -133 11 -35 18 -35 38 1 43 29 4 75 46
96 87 9 17 39 53 68 81 29 28 60 64 68 80 9 16 43 56 76 89 34 33 61 64 61 70
0 6 20 31 45 55 25 25 45 53 45 65 0 18 7 35 15 35 1 0 15 -7 31 -15z m6402
-312 c2 -12 32 -79 68 -149 35 -70 64 -133 64 -139 0 -6 20 -53 45 -103 25
-50 45 -102 45 -116 0 -16 -15 -40 -40 -66 -22 -22 -45 -50 -51 -63 -11 -21
-80 -97 -334 -363 -63 -66 -115 -124 -115 -130 0 -5 -48 -57 -106 -114 -58
-58 -114 -121 -124 -140 -46 -87 -190 -180 -278 -180 -12 0 -30 -4 -40 -9 -31
-16 -146 -54 -177 -58 -16 -2 -39 -8 -50 -12 -60 -24 -154 -53 -184 -56 -18
-2 -38 -8 -44 -14 -6 -6 -21 -11 -33 -11 -14 0 -25 -8 -29 -20 -10 -30 -63
-70 -95 -70 -16 0 -46 9 -65 20 l-36 20 -26 -20 c-14 -11 -36 -20 -49 -20 -12
0 -26 -4 -29 -10 -3 -5 -18 -10 -33 -10 -15 0 -52 -10 -82 -21 -30 -12 -67
-24 -83 -26 -15 -3 -30 -9 -33 -14 -3 -5 -17 -9 -32 -9 -15 0 -52 -9 -82 -20
-30 -11 -66 -20 -81 -20 -14 0 -34 9 -44 20 -10 11 -24 20 -31 20 -7 0 -25 13
-41 29 -16 15 -43 35 -60 44 -17 9 -42 29 -55 46 -14 16 -38 36 -54 44 -16 8
-45 31 -63 51 -19 20 -40 36 -46 36 -6 0 -24 13 -39 29 -16 16 -41 35 -55 41
-17 7 -36 28 -49 56 -24 49 -25 54 -14 71 9 15 66 0 152 -40 159 -74 213 -97
226 -97 7 0 30 -10 51 -22 36 -20 82 -33 166 -45 20 -3 40 -9 43 -14 3 -5 27
-9 53 -9 26 0 52 -5 58 -11 9 -9 34 -15 163 -36 19 -3 40 -10 47 -15 17 -14
199 -14 215 -1 7 6 24 13 38 15 35 4 40 54 8 91 -24 28 -64 40 -183 57 -33 5
-87 14 -120 20 -33 6 -87 15 -120 19 -84 12 -114 25 -435 186 -353 177 -414
215 -383 246 9 9 45 1 98 -21 33 -14 67 -22 130 -31 139 -19 171 -26 192 -37
12 -7 40 -12 62 -12 22 0 43 -4 46 -10 3 -5 33 -10 65 -10 32 0 62 -4 65 -10
3 -6 50 -10 106 -10 62 0 109 -5 122 -12 13 -8 87 -16 187 -21 91 -4 246 -12
345 -17 99 -6 252 -13 340 -16 88 -3 164 -9 169 -15 6 -5 40 -9 76 -9 l66 0
27 53 c15 28 27 58 27 65 0 7 20 53 45 102 25 49 45 95 45 101 0 6 20 51 45
100 25 49 45 94 45 102 0 7 20 52 45 100 25 48 45 95 45 103 0 8 20 54 45 101
25 47 45 91 45 99 0 7 20 55 44 106 106 226 116 250 116 286 0 21 3 42 7 46
12 11 28 0 31 -21z m-7133 -42 c3 -6 -1 -13 -8 -18 -7 -4 -17 -16 -20 -26 -9
-24 -27 -12 -27 18 0 29 40 49 55 26z m-6022 -302 c40 -21 106 -85 107 -103 0
-6 39 -52 88 -103 48 -51 123 -133 167 -183 44 -49 122 -135 173 -189 50 -54
92 -105 92 -113 0 -8 20 -34 45 -58 41 -40 45 -49 45 -91 0 -27 5 -51 10 -54
6 -3 10 -28 10 -55 0 -27 5 -52 10 -55 6 -3 10 -25 10 -48 1 -23 7 -53 15 -67
8 -14 14 -44 15 -67 0 -23 5 -45 10 -48 6 -3 10 -28 10 -55 0 -27 5 -52 10
-55 6 -3 10 -28 10 -55 0 -27 5 -52 10 -55 6 -3 10 -21 10 -38 1 -18 7 -43 15
-57 8 -14 14 -44 15 -67 0 -23 5 -45 10 -48 6 -3 10 -28 10 -55 0 -27 5 -52
10 -55 6 -3 10 -28 10 -55 0 -27 5 -52 10 -55 6 -3 10 -24 10 -46 0 -22 5 -50
12 -62 26 -48 49 -310 29 -330 -6 -6 -11 -24 -11 -40 0 -15 -5 -38 -12 -50 -6
-12 -15 -40 -20 -62 -5 -22 -14 -60 -19 -85 -6 -25 -13 -62 -16 -83 -3 -20 -9
-40 -14 -43 -5 -3 -9 -20 -9 -37 -1 -18 -7 -43 -15 -57 -8 -14 -14 -39 -15
-57 0 -17 -4 -34 -9 -37 -5 -3 -12 -24 -15 -46 -3 -22 -9 -58 -12 -80 -3 -22
-10 -43 -15 -46 -5 -3 -9 -20 -9 -37 -1 -18 -7 -43 -15 -57 -8 -14 -14 -39
-15 -57 0 -17 -4 -34 -9 -37 -5 -3 -11 -23 -14 -43 -8 -55 -23 -123 -35 -158
-22 -64 -32 -102 -32 -121 0 -26 -38 -104 -50 -104 -6 0 -10 -6 -10 -14 0 -8
-10 -27 -23 -43 -13 -15 -27 -35 -30 -43 -4 -8 -23 -35 -42 -60 -19 -25 -41
-60 -49 -77 -8 -18 -19 -33 -25 -33 -5 0 -13 -10 -17 -22 -3 -13 -13 -31 -22
-41 -15 -17 -19 -23 -57 -86 -11 -19 -28 -41 -37 -50 -10 -8 -18 -21 -18 -28
0 -6 -11 -24 -25 -39 -14 -15 -25 -32 -25 -39 0 -7 -7 -19 -16 -26 -9 -7 -20
-22 -25 -34 -11 -23 -52 -83 -72 -105 -8 -8 -17 -25 -21 -36 -4 -12 -15 -29
-26 -39 -11 -10 -20 -24 -20 -30 0 -7 -7 -18 -16 -26 -20 -16 -46 -66 -53
-103 -6 -28 -34 -56 -46 -45 -7 8 -7 4678 1 4690 7 12 9 12 57 -12z m8833
-256 c-10 -10 -19 5 -10 18 6 11 8 11 12 0 2 -7 1 -15 -2 -18z m5679 -5193 l0
-5095 -24 -3 c-13 -2 -28 1 -34 7 -6 6 -19 11 -29 11 -10 0 -26 4 -36 9 -9 5
-37 14 -62 21 -25 7 -57 18 -72 26 -14 8 -33 14 -42 14 -9 0 -24 4 -34 9 -9 5
-51 19 -92 31 -41 12 -96 33 -121 46 -26 13 -54 24 -63 24 -9 0 -24 4 -34 9
-28 14 -145 53 -175 58 -15 3 -30 9 -33 14 -3 5 -16 9 -29 9 -13 0 -27 4 -30
10 -3 5 -15 10 -26 10 -23 0 -158 66 -222 109 -25 17 -49 31 -55 31 -5 0 -15
7 -22 15 -7 9 -37 27 -66 41 -30 14 -57 30 -60 36 -4 6 -26 19 -50 29 -24 11
-46 24 -49 30 -4 5 -33 23 -65 39 -32 16 -61 34 -65 40 -3 5 -27 20 -53 31
-26 12 -51 28 -55 35 -4 8 -14 14 -21 14 -7 0 -21 9 -33 19 -11 11 -43 31 -71
45 -28 14 -53 30 -57 36 -3 5 -30 21 -60 34 -29 14 -56 30 -60 35 -3 6 -26 20
-50 31 -24 11 -46 24 -49 29 -3 5 -28 20 -55 34 -26 14 -64 36 -84 49 -86 57
-294 168 -314 168 -7 0 -36 11 -65 24 -123 55 -149 66 -162 66 -7 0 -43 16
-80 35 -37 19 -74 35 -82 35 -7 0 -37 11 -66 24 -124 56 -149 66 -163 66 -8 0
-34 11 -59 25 -25 14 -52 25 -60 25 -9 0 -31 9 -51 20 -20 11 -42 20 -50 20
-8 0 -38 11 -67 24 -49 22 -90 40 -252 110 -32 14 -64 26 -70 26 -7 0 -36 11
-64 25 -50 24 -104 31 -149 19 -52 -14 -86 -162 -45 -195 22 -19 55 -33 112
-50 25 -7 66 -23 92 -36 26 -13 56 -23 67 -23 11 0 22 -4 25 -9 3 -5 18 -11
33 -14 16 -2 64 -18 108 -35 44 -16 96 -36 115 -43 19 -7 49 -18 67 -26 17 -7
36 -13 42 -13 6 0 19 -4 29 -9 9 -5 37 -14 62 -21 25 -7 53 -16 62 -21 10 -5
24 -9 32 -9 8 0 36 -11 62 -25 26 -14 55 -25 65 -25 10 0 21 -4 24 -10 3 -5
15 -10 26 -10 27 0 261 -123 306 -161 10 -9 36 -24 58 -34 22 -9 49 -26 60
-36 11 -10 37 -25 57 -33 20 -9 40 -20 43 -26 4 -6 28 -21 55 -35 26 -13 68
-37 91 -53 24 -16 54 -33 67 -36 12 -4 22 -11 22 -17 0 -5 16 -15 35 -23 19
-8 35 -19 35 -24 0 -5 22 -19 49 -31 28 -11 53 -26 56 -31 4 -6 28 -21 55 -35
26 -13 68 -38 93 -55 25 -16 49 -30 55 -30 5 0 15 -7 22 -15 7 -9 34 -25 59
-37 25 -11 55 -28 66 -39 11 -10 36 -25 56 -33 20 -8 40 -21 46 -28 10 -12 98
-55 311 -154 40 -19 79 -34 87 -34 8 0 30 -9 50 -20 20 -11 43 -20 53 -20 9 0
37 -11 61 -25 23 -14 49 -25 57 -25 7 0 46 -15 86 -34 126 -59 168 -76 183
-76 8 0 34 -11 59 -25 25 -14 51 -25 59 -25 7 0 46 -16 86 -35 39 -19 76 -35
82 -35 5 0 37 -14 70 -30 43 -22 59 -36 57 -48 -3 -16 -140 -17 -2228 -17
l-2224 0 -38 74 c-21 41 -38 79 -38 85 0 7 -31 75 -70 151 -38 77 -70 146 -70
153 0 7 -36 84 -80 171 -44 88 -80 164 -80 170 0 6 -16 43 -35 81 -19 38 -35
78 -35 88 0 20 -28 48 -77 75 -41 22 -68 22 -93 -3 -17 -17 -20 -33 -20 -104
0 -47 5 -88 10 -91 6 -3 10 -36 10 -73 0 -42 5 -75 14 -88 8 -11 17 -51 20
-89 3 -39 8 -101 11 -140 3 -38 10 -79 15 -90 5 -11 11 -49 14 -85 13 -170 21
-218 40 -239 10 -11 16 -27 12 -36 -5 -13 -33 -15 -213 -13 l-208 3 -5 50 c-3
28 -11 60 -18 72 -7 12 -12 40 -12 62 0 22 -4 43 -10 46 -5 3 -10 28 -10 55 0
27 -4 52 -10 55 -5 3 -10 28 -10 55 0 27 -4 52 -10 55 -5 3 -10 25 -10 48 -1
23 -7 53 -15 67 -8 14 -14 39 -15 57 0 17 -4 35 -10 38 -5 3 -10 28 -10 55 0
27 -4 52 -10 55 -5 3 -10 28 -10 55 0 27 -4 52 -10 55 -5 3 -10 25 -10 48 -1
23 -7 53 -15 67 -9 15 -14 54 -15 101 0 67 -3 78 -25 99 -59 55 -145 5 -145
-85 0 -24 -4 -46 -9 -49 -5 -3 -11 -23 -15 -43 -3 -21 -10 -63 -15 -93 -6 -30
-13 -73 -17 -95 -3 -22 -11 -46 -17 -54 -6 -7 -15 -37 -19 -67 -4 -30 -12 -78
-18 -106 -5 -29 -12 -71 -16 -93 -3 -22 -11 -46 -16 -52 -6 -7 -10 -32 -10
-55 1 -23 -4 -48 -10 -56 -13 -15 -27 -82 -35 -161 -5 -51 -3 -55 32 -91 24
-25 35 -44 32 -54 -9 -23 -20 -20 -67 19 -23 19 -46 35 -51 35 -5 0 -19 21
-30 48 -12 26 -32 71 -45 100 -13 29 -24 59 -24 67 0 8 -9 30 -20 50 -11 20
-20 42 -20 50 0 9 -11 36 -24 63 -13 26 -29 63 -36 82 -29 81 -42 115 -60 153
-11 23 -20 48 -20 57 0 9 -4 20 -9 25 -4 6 -20 42 -36 80 -15 39 -36 93 -47
120 -11 28 -27 70 -36 95 -9 25 -24 60 -34 78 -10 18 -18 40 -18 50 0 9 -11
37 -25 61 -14 23 -25 50 -25 57 0 8 -9 32 -20 54 -33 64 -25 130 26 232 13 27
24 54 24 61 0 7 16 44 35 83 19 38 35 76 35 84 0 8 9 30 20 48 11 18 20 39 20
47 0 8 15 47 34 87 58 124 76 168 76 182 0 7 16 43 35 80 19 37 35 74 35 82 0
7 11 37 24 66 22 49 40 90 110 252 14 32 26 66 26 75 0 9 5 22 11 28 13 13 7
123 -11 198 -6 28 -14 73 -18 101 -5 29 -14 59 -21 68 -7 8 -11 21 -8 28 2 7
0 24 -6 38 -6 14 -14 49 -19 78 -25 157 -41 233 -54 253 -4 8 -12 38 -16 67
-4 28 -13 78 -18 110 -6 31 -13 74 -16 95 -4 20 -10 40 -15 43 -5 3 -9 24 -9
47 -1 23 -7 53 -15 67 -8 14 -14 39 -15 57 0 17 -4 35 -10 38 -5 3 -10 26 -10
51 0 41 -2 45 -21 39 -11 -4 -134 -63 -272 -132 -242 -121 -307 -161 -307
-190 0 -7 -7 -13 -16 -13 -13 0 -15 6 -9 27 4 16 9 62 12 103 2 41 8 84 13 95
5 11 11 45 14 75 11 111 19 155 32 175 8 11 14 44 14 77 0 31 5 60 10 63 6 3
10 28 10 55 0 27 5 52 10 55 6 3 10 40 10 81 0 42 5 84 11 95 5 11 12 32 14
47 1 15 3 30 4 35 3 23 89 -18 97 -47 3 -15 21 -29 49 -41 25 -10 52 -26 61
-36 10 -11 23 -19 29 -19 7 0 18 -6 24 -14 7 -8 35 -26 63 -41 28 -15 55 -31
62 -36 22 -19 135 -89 144 -89 5 0 17 -9 27 -20 10 -11 24 -20 32 -20 7 0 22
-9 33 -20 10 -10 37 -28 59 -39 43 -22 107 -63 131 -83 36 -31 90 -49 90 -29
0 5 -29 37 -65 72 -35 34 -68 71 -71 83 -4 11 -35 49 -70 84 -35 35 -64 70
-64 76 0 7 -20 32 -45 56 -25 24 -45 49 -45 55 0 6 -16 27 -36 46 -20 18 -43
48 -51 64 -9 17 -24 36 -35 43 -10 7 -27 30 -37 50 -11 20 -31 48 -45 61 -14
14 -26 29 -26 34 0 6 -19 32 -42 58 -69 79 -104 122 -117 148 -7 12 -26 37
-42 54 -16 16 -29 34 -29 40 0 5 -19 31 -42 58 -24 26 -58 67 -76 91 -18 24
-48 63 -67 86 -19 24 -35 47 -35 51 0 4 -20 29 -45 54 -25 26 -45 52 -45 57 0
6 -15 27 -32 47 -18 21 -37 45 -43 54 -39 63 -98 149 -120 174 -14 17 -31 40
-38 51 -28 51 -99 152 -127 181 -16 18 -30 39 -30 47 0 8 -6 19 -14 23 -7 4
-20 22 -29 38 -8 17 -27 41 -41 54 -14 14 -26 30 -26 36 0 7 -9 20 -20 30 -11
10 -22 26 -26 37 -3 11 -13 28 -22 37 -10 10 -26 33 -37 51 -38 64 -42 70 -60
91 -17 17 -17 22 -5 29 20 13 17 14 90 -25 35 -19 79 -35 96 -35 18 0 36 -4
39 -10 3 -5 16 -10 29 -10 12 0 26 -4 32 -10 30 -30 116 -34 835 -37 l726 -3
208 105 c115 58 214 105 220 105 7 0 111 50 233 110 121 61 225 110 231 110 6
0 107 48 224 107 l214 106 94 190 c52 105 104 203 117 219 44 52 122 74 122
33 0 -9 6 -28 14 -43 12 -23 12 -31 0 -52 -7 -14 -13 -39 -14 -57 0 -17 -4
-34 -9 -37 -5 -3 -11 -23 -15 -43 -14 -95 -19 -119 -27 -129 -11 -13 -29 -91
-36 -154 -3 -25 -9 -49 -14 -54 -5 -6 -9 -27 -9 -47 0 -21 -4 -41 -10 -44 -5
-3 -10 -20 -10 -36 0 -17 -5 -40 -12 -52 -7 -12 -14 -39 -17 -61 -5 -30 -13
-42 -37 -55 -18 -10 -39 -25 -49 -34 -9 -9 -21 -17 -27 -17 -6 0 -28 -15 -49
-32 -59 -51 -96 -78 -107 -78 -5 0 -21 -11 -36 -25 -15 -14 -33 -25 -39 -25
-7 0 -20 -8 -28 -17 -9 -10 -31 -27 -50 -38 -18 -11 -41 -25 -52 -31 -10 -6
-30 -23 -45 -37 -15 -13 -38 -30 -51 -37 -14 -7 -30 -17 -35 -22 -25 -20 -82
-58 -101 -67 -12 -5 -27 -16 -34 -25 -7 -9 -19 -16 -25 -16 -7 0 -23 -12 -37
-26 -13 -14 -37 -33 -53 -41 -16 -8 -38 -24 -49 -34 -12 -10 -25 -19 -31 -19
-5 0 -18 -7 -28 -17 -10 -9 -26 -21 -37 -27 -64 -38 -147 -96 -178 -123 -20
-18 -41 -33 -48 -33 -7 0 -18 -7 -26 -16 -20 -25 -125 -74 -158 -74 -16 0 -33
-4 -36 -10 -3 -5 -20 -10 -36 -10 -17 0 -39 -5 -51 -11 -11 -6 -35 -12 -54
-14 -51 -5 -64 -20 -64 -77 0 -65 13 -88 50 -88 16 0 31 4 34 9 3 5 23 11 43
14 37 6 86 16 168 35 37 9 81 24 130 43 11 4 34 10 50 13 105 18 180 40 200
57 5 5 26 9 46 9 21 0 40 4 43 9 3 5 23 11 43 14 141 20 190 44 223 107 13 25
52 73 148 179 28 32 52 62 52 67 0 6 20 30 45 54 25 24 45 50 45 56 0 7 25 39
56 71 30 32 62 69 69 83 7 14 29 41 49 59 20 19 36 40 36 46 0 6 25 35 55 65
30 30 55 59 55 65 0 6 20 30 45 55 24 25 44 51 45 58 0 7 26 42 58 77 52 59
74 85 175 210 39 48 67 98 67 118 0 8 20 54 45 101 25 48 45 93 45 101 0 7 20
54 45 103 25 49 45 94 45 101 0 6 16 43 35 81 19 38 35 74 35 80 0 6 20 52 45
102 25 50 45 97 45 103 0 6 20 52 45 101 25 48 45 94 45 100 0 6 7 25 16 42
19 38 46 41 104 12 22 -11 45 -20 53 -20 7 0 31 -9 54 -20 38 -18 68 -30 153
-60 19 -7 44 -17 55 -22 12 -5 27 -10 35 -12 8 -1 34 -12 57 -24 23 -12 48
-22 56 -22 7 0 31 -9 54 -20 37 -18 61 -27 153 -61 19 -7 58 -23 86 -36 28
-12 56 -23 62 -23 5 0 27 -9 49 -19 21 -10 58 -25 83 -32 25 -7 66 -23 92 -36
26 -13 54 -23 62 -23 9 0 31 -9 51 -20 19 -11 45 -22 57 -24 13 -2 38 -12 56
-21 32 -17 34 -17 58 6 13 12 24 28 24 34 0 6 20 31 45 55 25 24 45 51 45 59
0 8 25 38 55 66 30 29 55 58 55 65 0 6 27 40 60 74 33 35 60 66 60 71 0 8 43
60 143 169 31 34 57 68 57 75 0 7 18 31 40 54 47 50 90 112 90 132 0 21 -33
35 -83 35 -45 0 -60 -10 -82 -54 -5 -11 -45 -39 -87 -61 -42 -22 -83 -45 -90
-51 -7 -7 -54 -32 -105 -58 -50 -25 -94 -50 -97 -55 -4 -5 -38 -24 -76 -42
-39 -17 -70 -36 -70 -40 0 -5 -47 -31 -104 -59 -58 -28 -106 -55 -108 -59 -4
-12 -164 -91 -183 -91 -8 0 -56 20 -105 45 -49 25 -95 45 -101 45 -6 0 -60 25
-120 55 -60 30 -116 57 -126 58 -10 2 -61 25 -114 50 -53 26 -102 47 -107 47
-46 0 16 38 265 163 277 139 397 208 455 262 15 14 37 30 50 35 13 6 43 26 68
45 25 19 57 40 73 46 15 6 27 15 27 20 0 6 16 17 35 25 19 8 35 18 35 23 0 6
9 13 21 16 12 4 38 21 58 39 20 17 43 36 52 41 50 31 148 96 171 114 14 12 30
21 36 21 5 0 17 9 27 20 10 11 23 20 30 20 6 0 22 12 36 26 13 14 37 33 53 41
16 8 38 24 49 34 12 10 25 19 31 19 5 0 18 7 28 17 10 9 27 21 37 27 54 32
149 98 168 118 13 12 36 29 52 38 16 8 53 31 83 51 29 20 118 70 198 109 80
40 152 79 161 86 8 8 86 49 172 93 87 43 165 85 175 93 9 8 87 49 172 92 85
42 157 80 160 85 9 15 349 181 369 181 11 0 23 5 26 11 4 5 23 9 43 7 l37 -3
0 -5095z m-4257 4440 c1 -74 6 -144 12 -155 5 -11 12 -60 14 -110 3 -49 10
-139 15 -200 6 -60 14 -156 18 -211 5 -56 14 -108 20 -115 13 -16 23 -162 26
-398 l2 -165 -35 -17 c-56 -26 -103 -39 -147 -39 -45 0 -67 18 -77 65 -19 85
-23 98 -56 190 -24 65 -50 155 -50 170 0 9 -6 31 -14 48 -7 18 -23 66 -36 107
-12 41 -29 87 -37 102 -7 15 -13 33 -11 41 3 15 -37 147 -61 196 -9 19 -24 43
-33 53 -10 10 -18 24 -18 31 0 7 -8 20 -17 28 -10 9 -27 31 -38 50 -11 18 -27
43 -35 55 -8 12 -31 46 -51 75 -19 30 -44 67 -55 83 -10 16 -24 37 -29 46 -6
10 -17 26 -25 35 -8 9 -19 27 -25 39 -6 11 -23 27 -38 34 -22 11 -27 20 -25
39 l3 26 201 -2 c135 -2 204 1 209 8 4 7 63 11 163 11 87 0 164 5 172 10 8 6
24 9 35 8 19 -3 20 -11 23 -138z m-8198 -1523 c11 -22 20 -52 20 -66 0 -13 6
-32 14 -40 8 -9 30 -47 49 -85 20 -37 42 -76 50 -85 8 -9 24 -37 36 -63 11
-25 24 -48 29 -50 4 -1 23 -32 41 -68 18 -36 39 -72 46 -80 7 -8 27 -44 45
-80 18 -36 38 -72 45 -80 7 -8 25 -39 40 -68 15 -29 31 -55 36 -58 5 -3 25
-39 45 -80 20 -41 40 -74 45 -74 4 0 11 -10 15 -22 3 -12 27 -43 51 -69 59
-63 56 -83 -16 -87 -53 -3 -53 -3 -106 52 -29 31 -58 56 -64 56 -11 0 -80 57
-185 153 -34 31 -67 57 -72 57 -6 0 -26 16 -45 36 -18 20 -50 44 -69 54 -19
10 -46 30 -60 45 l-25 27 -6 311 c-4 172 -10 329 -14 349 -15 77 21 86 55 15z
m6665 -417 c11 -9 36 -23 56 -29 28 -9 39 -21 54 -54 10 -23 26 -51 35 -62 10
-11 44 -72 75 -135 32 -63 61 -117 65 -120 4 -3 22 -34 40 -70 58 -116 97
-140 168 -105 38 19 142 139 142 163 0 6 8 18 17 27 9 10 24 31 32 49 13 25
24 32 56 37 22 3 49 10 61 16 33 18 48 2 35 -38 -5 -19 -13 -46 -15 -60 -12
-57 -48 -90 -166 -149 -63 -32 -122 -64 -130 -71 -24 -22 -264 -139 -284 -139
-25 0 -56 28 -56 50 0 9 -11 45 -25 80 -14 35 -25 74 -25 87 0 13 -4 31 -9 41
-5 9 -16 40 -24 67 -9 28 -25 75 -36 105 -12 30 -21 64 -21 75 0 11 -9 45 -20
75 -11 30 -20 63 -20 73 0 9 -11 22 -25 27 -14 5 -25 16 -25 24 0 7 -7 19 -15
26 -8 7 -15 19 -15 27 0 20 47 9 75 -17z m-7137 -205 c17 -14 33 -25 37 -25 4
0 25 -15 46 -32 62 -53 96 -78 108 -78 7 0 26 -14 44 -30 17 -17 46 -39 62
-50 17 -11 50 -36 75 -55 25 -19 54 -39 65 -44 11 -5 32 -21 46 -34 14 -14 40
-32 57 -41 18 -9 32 -21 32 -26 0 -6 6 -10 14 -10 8 0 35 -17 60 -37 75 -62
104 -83 114 -83 6 0 26 -15 45 -32 19 -18 59 -48 90 -66 30 -18 65 -44 77 -57
13 -14 29 -25 35 -25 6 0 22 -12 36 -26 13 -14 38 -33 54 -41 17 -9 34 -22 38
-29 4 -8 15 -14 22 -14 8 0 32 -15 52 -33 48 -42 141 -105 202 -137 27 -14 56
-32 66 -40 18 -15 26 -20 84 -55 19 -11 41 -28 50 -37 8 -10 21 -18 28 -18 7
0 21 -8 31 -17 10 -10 36 -27 58 -37 21 -11 48 -28 59 -37 11 -9 30 -20 42
-23 12 -4 25 -15 28 -25 6 -21 -10 -69 -31 -91 -17 -17 -92 -129 -113 -169 -8
-14 -20 -30 -28 -34 -7 -4 -13 -14 -13 -22 0 -7 -9 -24 -20 -37 -24 -27 -99
-138 -119 -177 -8 -14 -18 -29 -23 -32 -5 -3 -17 -20 -26 -37 -9 -17 -39 -63
-67 -102 -27 -40 -57 -85 -65 -99 -8 -15 -21 -34 -28 -42 -23 -26 -132 -197
-132 -208 0 -6 -8 -19 -17 -29 -10 -10 -28 -38 -41 -64 -12 -25 -29 -51 -37
-58 -8 -7 -15 -18 -15 -25 0 -7 -7 -18 -16 -26 -8 -7 -26 -34 -39 -60 -14 -26
-37 -67 -53 -90 -16 -24 -32 -54 -36 -66 -4 -11 -13 -24 -21 -27 -8 -3 -15
-12 -15 -20 0 -8 -11 -28 -25 -44 -14 -17 -32 -46 -40 -65 -8 -20 -19 -39 -25
-42 -6 -4 -24 -32 -40 -63 -16 -31 -43 -75 -59 -97 -17 -22 -41 -64 -55 -92
-14 -29 -30 -53 -35 -53 -5 0 -18 -21 -30 -47 -21 -45 -55 -100 -83 -133 -18
-21 -40 -73 -67 -160 -13 -41 -27 -83 -32 -92 -5 -10 -9 -25 -9 -34 0 -9 -11
-37 -24 -63 -13 -25 -29 -66 -36 -91 -6 -25 -16 -53 -21 -62 -5 -10 -9 -26 -9
-35 0 -10 -7 -27 -15 -37 -9 -12 -15 -42 -15 -78 0 -55 -1 -58 -24 -58 -14 0
-28 5 -31 10 -3 6 -15 10 -26 10 -10 0 -180 81 -377 179 -292 146 -365 186
-394 219 -20 22 -47 46 -60 53 -22 11 -91 74 -334 304 -60 58 -115 105 -121
105 -5 0 -55 44 -109 99 -55 54 -108 101 -120 105 -11 3 -65 51 -119 106 -54
55 -103 100 -110 100 -21 0 -115 107 -111 126 2 11 25 62 50 115 25 53 46 101
46 106 0 5 49 108 110 228 60 121 110 226 110 232 0 7 52 116 115 242 63 126
115 234 115 240 0 19 127 263 160 306 16 22 34 51 40 65 6 13 18 31 26 40 17
17 92 129 113 169 8 14 20 30 28 34 7 4 13 14 13 22 0 7 9 24 20 37 24 27 99
139 119 177 8 14 20 30 28 34 7 4 13 14 13 22 0 7 9 24 20 37 27 30 100 141
123 184 9 19 22 34 27 34 6 0 10 4 10 10 0 5 28 50 63 100 34 50 69 104 77
119 8 15 21 34 28 42 7 8 30 42 52 76 62 97 96 112 148 68z m3969 -372 c9 -16
32 -45 50 -66 18 -20 33 -44 33 -52 0 -7 6 -18 14 -22 7 -4 20 -21 29 -38 8
-16 27 -41 41 -54 14 -14 26 -30 26 -36 0 -7 8 -19 19 -29 25 -23 55 -91 48
-110 -11 -28 -35 -17 -66 30 -42 61 -61 99 -61 121 0 24 -71 56 -106 47 -49
-12 -58 -86 -19 -166 14 -28 25 -57 25 -63 0 -6 9 -30 20 -53 11 -22 20 -51
20 -64 1 -13 7 -34 15 -48 8 -14 14 -39 15 -57 0 -17 5 -35 10 -38 6 -3 10
-28 10 -55 0 -27 5 -52 10 -55 6 -3 10 -20 10 -36 0 -17 7 -43 15 -60 9 -16
13 -34 10 -39 -3 -5 1 -24 9 -42 14 -32 21 -64 33 -141 3 -20 9 -40 14 -43 5
-3 9 -26 9 -52 0 -26 7 -56 15 -66 8 -11 15 -34 15 -52 0 -18 5 -36 10 -39 6
-3 10 -24 10 -45 0 -21 4 -41 9 -44 5 -3 11 -23 14 -43 9 -63 26 -135 36 -147
5 -6 11 -31 14 -56 3 -25 11 -67 17 -95 6 -27 14 -66 17 -85 3 -19 13 -44 23
-55 25 -28 70 -121 63 -129 -14 -14 -41 -4 -68 24 -16 17 -38 30 -50 30 -27 0
-45 18 -45 46 0 13 -4 26 -10 29 -5 3 -10 18 -10 33 0 15 -10 52 -21 82 -12
30 -24 67 -26 83 -3 15 -9 30 -14 33 -5 3 -9 17 -9 31 0 27 -16 84 -31 115 -5
10 -9 27 -9 39 0 11 -6 35 -14 52 -7 18 -19 52 -26 77 -7 25 -16 54 -20 65 -5
11 -11 34 -13 50 -4 31 -42 146 -58 177 -5 10 -9 28 -9 40 0 28 -23 96 -50
149 -11 21 -20 45 -20 53 0 9 -9 31 -20 51 -11 20 -20 42 -20 49 0 8 -16 45
-35 82 -19 38 -35 75 -35 82 0 7 -11 35 -25 62 -14 27 -25 55 -25 61 0 6 -13
38 -30 71 -16 32 -30 64 -30 70 0 6 -11 34 -24 62 -13 28 -31 76 -40 106 -10
31 -30 69 -47 86 -47 49 -37 68 36 72 33 2 64 7 70 13 5 5 34 9 65 9 30 0 62
5 70 10 8 5 34 10 57 10 36 0 45 -5 60 -27z m-1941 -231 c15 -10 44 -67 44
-88 0 -10 27 -45 60 -80 33 -34 60 -68 60 -74 0 -7 47 -58 104 -114 57 -56
110 -115 119 -132 8 -16 39 -51 67 -78 48 -45 53 -47 68 -32 13 12 14 19 4 28
-7 7 -12 26 -12 43 -1 16 -7 41 -15 55 -8 14 -14 39 -15 57 0 17 -4 34 -9 37
-5 3 -11 23 -14 43 -15 101 -23 123 -59 162 -41 43 -47 61 -23 61 8 0 15 -4
15 -9 0 -5 14 -14 31 -21 19 -8 45 -35 70 -74 21 -34 44 -68 49 -76 6 -8 20
-30 33 -49 12 -19 29 -44 37 -56 8 -12 34 -51 57 -86 23 -35 52 -75 63 -89 11
-14 20 -30 20 -36 0 -6 11 -21 25 -34 13 -12 39 -47 57 -77 18 -30 43 -66 55
-81 13 -15 23 -31 23 -36 0 -5 7 -18 17 -28 9 -10 21 -27 27 -37 6 -10 30 -47
54 -82 23 -35 42 -66 42 -70 0 -4 9 -10 20 -14 10 -3 33 -25 50 -48 36 -49 28
-67 -23 -49 -18 7 -50 12 -70 12 -20 0 -39 5 -42 10 -3 6 -17 10 -31 10 -29 0
-127 87 -151 133 -8 16 -64 78 -124 138 -60 60 -109 116 -109 123 0 8 -18 30
-40 50 -36 32 -46 36 -94 36 -46 0 -59 4 -87 31 -19 17 -41 44 -49 59 -18 33
-132 206 -155 235 -9 11 -21 30 -28 41 -18 32 -49 77 -68 99 -9 11 -24 43 -34
70 -9 28 -25 59 -36 71 -27 29 -13 66 17 46z m3090 -59 c71 -34 71 -53 1 -53
-46 0 -57 4 -81 29 -52 54 -9 68 80 24z m-619 -213 c14 -17 36 -30 49 -30 27
0 80 -42 89 -71 4 -10 31 -43 62 -72 31 -28 62 -65 69 -82 7 -16 42 -59 78
-95 36 -35 66 -69 66 -75 0 -7 12 -22 26 -36 28 -26 64 -89 64 -112 0 -8 20
-54 45 -103 25 -48 45 -94 45 -101 0 -7 20 -53 45 -102 25 -49 45 -94 45 -100
0 -6 20 -52 45 -101 25 -49 45 -96 45 -103 0 -7 20 -52 45 -100 25 -48 45 -95
45 -103 0 -8 20 -54 45 -101 25 -47 45 -91 45 -99 0 -8 20 -55 45 -104 25 -49
45 -98 45 -108 0 -10 5 -23 11 -29 11 -11 7 -159 -11 -333 -6 -58 -13 -139
-16 -180 -3 -41 -12 -89 -20 -107 -9 -20 -14 -65 -14 -130 0 -91 -17 -178 -35
-178 -4 0 -17 19 -29 42 -22 40 -34 56 -126 168 -93 113 -101 125 -111 157
-15 53 -12 58 22 51 21 -4 34 -1 40 8 14 23 10 151 -6 179 -9 16 -14 54 -15
102 0 42 -4 80 -10 83 -5 3 -10 48 -10 99 0 50 -4 96 -9 102 -5 5 -12 45 -15
89 -13 195 -23 282 -34 302 -7 12 -12 55 -12 97 0 41 -4 78 -10 81 -6 3 -10
48 -10 100 0 53 -4 97 -10 100 -6 4 -28 34 -50 68 -22 34 -53 77 -70 94 -16
18 -30 38 -30 46 0 7 -16 28 -35 47 -19 19 -35 39 -35 45 0 7 -9 20 -20 30
-11 10 -20 23 -20 30 0 6 -12 22 -26 36 -14 13 -33 37 -41 53 -8 15 -28 41
-44 57 -16 16 -29 33 -29 40 0 12 -25 46 -77 108 -18 21 -33 44 -33 50 0 6
-12 21 -26 34 -14 12 -33 36 -41 52 -9 17 -19 32 -23 35 -18 11 -70 130 -70
157 0 52 18 56 57 13z m78 -727 c9 -32 36 -98 59 -148 24 -49 48 -106 55 -125
7 -19 22 -57 33 -85 11 -27 23 -61 26 -75 3 -14 14 -40 24 -58 10 -18 18 -39
18 -47 0 -9 11 -36 24 -63 13 -26 30 -67 36 -92 7 -25 23 -67 36 -94 13 -28
24 -58 24 -67 0 -10 5 -21 10 -24 6 -3 10 -15 10 -25 0 -18 9 -41 66 -168 13
-29 24 -61 24 -72 0 -10 5 -22 10 -25 6 -3 10 -14 10 -24 0 -10 11 -39 25 -65
14 -26 25 -56 25 -66 0 -10 5 -22 10 -25 6 -3 10 -35 10 -71 0 -51 -4 -66 -16
-71 -21 -8 -46 7 -60 37 -7 12 -33 44 -59 70 -36 37 -54 66 -75 126 -47 133
-52 148 -61 166 -5 10 -9 23 -9 29 0 6 -6 25 -14 42 -7 18 -19 52 -26 77 -7
25 -20 61 -30 80 -10 19 -21 50 -25 67 -3 18 -11 35 -16 38 -5 4 -9 15 -9 26
0 10 -4 27 -9 37 -5 9 -15 37 -22 62 -7 25 -23 66 -36 92 -13 26 -23 54 -23
63 0 8 -4 23 -9 33 -5 9 -16 40 -24 67 -22 71 -37 114 -57 160 -10 22 -23 60
-29 85 -7 25 -17 59 -23 75 -23 67 -22 82 9 98 55 29 69 23 88 -40z m-2347
-62 c31 -16 146 -54 177 -58 17 -2 39 -8 50 -13 11 -4 40 -13 65 -20 25 -7 59
-19 77 -26 17 -8 39 -14 48 -14 16 0 121 -31 170 -50 11 -5 29 -11 40 -13 11
-3 34 -10 50 -16 17 -5 50 -15 75 -22 25 -6 54 -15 65 -19 51 -19 93 -30 116
-30 13 0 33 -7 43 -15 11 -8 28 -15 38 -15 10 0 26 -4 36 -9 31 -15 88 -31
115 -31 14 0 28 -4 32 -9 3 -5 19 -12 36 -16 55 -12 92 -37 207 -141 31 -28
68 -57 82 -64 24 -12 69 -51 233 -202 41 -38 78 -68 83 -68 5 0 34 -25 64 -55
30 -30 59 -55 65 -55 7 0 41 -29 77 -64 37 -36 79 -71 95 -79 15 -8 52 -40 81
-71 29 -31 58 -56 63 -56 6 0 39 -27 73 -60 35 -33 67 -60 72 -60 6 0 28 -19
51 -42 37 -38 42 -50 47 -103 5 -62 17 -146 36 -250 6 -33 14 -88 19 -122 5
-35 13 -68 19 -75 5 -7 13 -40 16 -73 3 -33 10 -89 15 -125 6 -36 14 -90 19
-120 4 -30 13 -65 20 -77 7 -12 11 -43 10 -68 0 -25 4 -51 10 -57 7 -7 12 -38
12 -70 0 -80 -18 -91 -196 -116 -29 -5 -58 -13 -65 -19 -8 -6 -32 -14 -54 -17
-22 -4 -64 -11 -92 -16 -29 -6 -77 -14 -105 -19 -86 -15 -134 -27 -149 -37 -8
-4 -39 -12 -69 -17 -30 -4 -72 -10 -93 -13 -20 -4 -40 -10 -43 -15 -3 -5 -27
-9 -54 -9 -27 0 -52 -5 -55 -10 -3 -5 -21 -10 -39 -10 -18 0 -41 -7 -52 -15
-10 -8 -40 -15 -66 -15 -26 0 -50 -4 -53 -10 -3 -5 -28 -10 -55 -10 -27 0 -51
-4 -54 -9 -10 -15 -83 -23 -286 -29 -107 -4 -202 -11 -210 -17 -9 -6 -163 -13
-370 -17 -195 -5 -456 -10 -579 -13 -149 -4 -228 -2 -235 5 -5 5 -24 10 -42
10 -17 0 -45 7 -60 15 -16 8 -41 15 -56 15 -15 0 -29 4 -32 9 -3 5 -23 11 -43
15 -109 16 -226 40 -268 54 -68 23 -103 32 -128 32 -14 0 -29 5 -32 10 -3 6
-28 10 -55 10 -27 0 -52 5 -55 10 -3 6 -21 10 -38 10 -18 1 -43 7 -57 15 -14
8 -39 14 -57 15 -17 0 -35 5 -38 10 -3 6 -28 10 -55 10 -27 0 -52 5 -55 10 -3
6 -19 10 -34 10 -16 0 -44 6 -62 14 -19 7 -40 11 -47 9 -7 -3 -20 1 -28 8 -17
14 -84 29 -166 36 -31 2 -62 11 -69 19 -16 20 -3 98 21 119 11 10 20 24 20 32
0 7 9 21 20 30 11 10 20 23 20 29 0 7 10 25 23 41 13 15 27 35 30 43 4 8 23
35 42 60 19 25 40 56 45 70 6 14 22 36 36 50 25 25 96 129 123 179 8 14 20 30
28 34 7 4 13 13 13 20 0 7 10 24 23 39 12 15 37 51 55 81 18 30 44 65 57 77
14 13 25 28 25 34 0 6 9 22 20 36 20 25 95 135 116 171 6 10 18 27 27 37 10
10 17 23 17 28 0 5 9 20 20 34 11 14 40 54 63 89 23 35 49 74 57 86 8 12 25
37 37 56 13 19 27 41 33 49 5 8 29 44 53 79 23 35 49 74 57 86 8 12 24 35 34
51 11 16 36 53 55 82 20 30 47 75 60 100 13 26 30 51 38 55 7 4 13 12 13 17 0
5 28 50 63 100 34 50 69 104 77 119 8 15 21 34 28 42 13 14 87 124 108 160 6
10 17 27 25 36 9 10 20 30 27 46 6 15 16 27 21 27 4 0 18 23 30 50 18 41 26
50 46 50 14 0 33 -4 43 -9z m2897 -2791 c3 -5 -9 -26 -28 -46 -33 -37 -54 -44
-170 -61 -20 -3 -40 -9 -43 -14 -3 -5 -17 -9 -32 -9 -15 0 -40 -7 -56 -15 -15
-8 -43 -15 -62 -15 -18 0 -35 -4 -38 -9 -3 -5 -23 -11 -43 -15 -95 -14 -119
-20 -140 -33 -12 -8 -28 -13 -35 -10 -7 2 -28 -2 -47 -9 -18 -8 -46 -14 -62
-14 -15 0 -30 -4 -33 -9 -3 -5 -23 -11 -43 -14 -80 -12 -132 -24 -145 -34 -17
-14 -74 -23 -173 -30 -44 -2 -84 -9 -90 -14 -5 -5 -53 -9 -107 -9 -80 0 -98 3
-98 15 0 10 10 15 33 15 18 0 38 5 45 12 11 11 69 25 147 34 22 3 49 9 60 14
11 5 34 11 50 14 67 11 129 26 139 35 6 5 29 12 51 15 124 20 216 40 285 61
51 15 111 28 203 41 20 4 40 10 43 15 3 5 20 9 37 9 18 1 43 7 57 15 14 8 39
14 57 15 17 0 35 5 38 10 3 6 27 10 53 10 35 0 52 5 65 20 18 21 71 28 82 10z
m-4022 -247 c-7 -2 -19 -2 -25 0 -7 3 -2 5 12 5 14 0 19 -2 13 -5z m172 -23
c3 -5 -15 -7 -47 -3 -70 8 -74 13 -10 13 28 0 53 -4 57 -10z m175 -25 c0 -18
-10 -18 -75 0 l-50 14 63 0 c49 1 62 -2 62 -14z m155 -25 c0 -12 -13 -15 -57
-15 -60 0 -82 10 -58 26 24 15 115 7 115 -11z m165 -25 c0 -12 -14 -15 -65
-15 -51 0 -65 3 -65 15 0 12 14 15 65 15 51 0 65 -3 65 -15z m180 -20 c0 -12
-14 -15 -65 -15 -51 0 -65 3 -65 15 0 12 14 15 65 15 51 0 65 -3 65 -15z
m1700 0 c0 -12 -19 -15 -107 -15 -75 -1 -116 -5 -133 -15 -17 -10 -59 -14
-135 -15 -61 0 -115 -4 -120 -9 -6 -6 -57 -12 -115 -15 -58 -3 -161 -10 -230
-16 -215 -18 -343 -22 -364 -11 -12 6 -52 13 -91 16 -38 3 -103 8 -142 11 -51
4 -73 10 -73 19 0 20 32 24 220 25 100 0 178 4 184 10 6 6 144 10 362 10 225
0 355 4 359 10 4 6 80 10 196 10 161 0 189 -2 189 -15z m-1545 -25 c0 -11 -14
-16 -54 -18 -55 -3 -79 7 -66 28 11 18 120 9 120 -10z"/>
<path d="M7885 17494 c-12 -13 -15 -32 -13 -88 l3 -71 45 -22 c25 -13 53 -23
62 -23 9 0 20 -4 23 -10 3 -5 24 -10 45 -10 21 0 42 -4 45 -10 3 -5 15 -10 26
-10 10 0 27 -4 37 -9 20 -10 67 -26 137 -48 28 -8 58 -19 67 -24 10 -5 28 -9
41 -9 12 0 47 -10 77 -21 30 -12 67 -24 83 -26 15 -3 30 -9 33 -14 3 -5 14 -9
25 -9 10 0 27 -4 37 -9 27 -14 90 -32 124 -37 17 -2 36 -8 42 -14 5 -5 18 -10
28 -10 10 0 26 -4 36 -9 9 -5 37 -15 62 -21 25 -7 59 -19 77 -26 17 -8 38 -14
46 -14 9 0 19 -4 22 -10 3 -5 18 -10 32 -10 49 0 180 -54 249 -103 34 -24 82
-53 123 -76 15 -8 30 -20 34 -28 4 -7 14 -13 22 -13 7 0 27 -11 43 -25 17 -14
34 -25 40 -25 5 0 15 -7 23 -16 7 -8 35 -27 62 -41 27 -13 55 -29 61 -34 24
-21 82 -59 101 -68 12 -5 27 -16 34 -25 7 -9 19 -16 26 -16 7 0 18 -7 26 -16
7 -8 34 -26 60 -39 26 -14 68 -39 94 -57 98 -68 165 -112 266 -173 18 -11 45
-28 59 -37 16 -11 47 -17 86 -17 77 -1 104 22 104 90 0 37 -5 50 -28 72 -15
15 -33 27 -38 27 -6 0 -19 9 -29 20 -10 11 -24 20 -31 20 -7 0 -28 14 -46 30
-29 27 -125 94 -180 126 -11 7 -34 25 -51 42 -18 16 -42 33 -54 37 -13 3 -23
10 -23 16 0 5 -15 15 -32 22 -18 8 -39 21 -47 30 -7 10 -19 17 -26 17 -6 0
-20 10 -31 21 -19 22 -75 62 -124 89 -14 8 -33 21 -41 28 -8 7 -36 27 -64 44
-27 17 -62 42 -77 56 -15 13 -35 30 -46 36 -36 21 -87 55 -98 64 -6 6 -24 17
-40 25 -16 8 -38 25 -49 37 -11 12 -29 26 -40 31 -11 5 -35 21 -54 35 -19 13
-46 27 -60 30 -14 3 -35 9 -46 14 -19 8 -43 13 -125 27 -19 3 -41 10 -48 16
-13 10 -65 22 -145 34 -20 3 -40 9 -43 14 -3 5 -18 9 -33 9 -16 0 -44 6 -62
14 -19 7 -40 11 -47 9 -7 -3 -23 2 -35 10 -12 8 -38 17 -57 20 -88 15 -106 19
-125 27 -11 5 -33 11 -50 14 -37 6 -113 26 -140 37 -20 8 -59 16 -128 26 -20
3 -40 9 -43 14 -3 5 -20 9 -38 9 -19 0 -47 7 -62 15 -16 8 -41 15 -56 15 -15
0 -30 5 -33 10 -10 17 -111 12 -130 -6z"/>
<path d="M7116 16772 c-3 -5 -23 -12 -43 -15 -21 -3 -58 -10 -83 -16 -25 -5
-63 -14 -85 -19 -22 -5 -50 -14 -62 -20 -12 -7 -35 -12 -52 -12 -16 0 -33 -4
-36 -10 -3 -5 -24 -10 -45 -10 -21 0 -42 -4 -45 -10 -3 -5 -19 -10 -34 -10
-15 0 -56 -11 -91 -25 -35 -14 -76 -25 -91 -25 -15 0 -30 -4 -33 -9 -3 -5 -23
-11 -43 -14 -55 -8 -123 -23 -158 -35 -65 -22 -102 -32 -123 -32 -35 0 -73
-22 -88 -51 -19 -37 -19 -133 1 -149 20 -16 208 1 221 21 3 5 19 9 35 9 17 0
43 7 60 15 16 9 34 13 39 10 5 -3 24 1 42 9 32 14 64 21 141 33 20 3 40 9 43
14 3 5 20 9 37 9 18 1 43 7 57 15 14 8 39 14 57 15 17 0 34 4 37 9 3 5 23 11
43 14 21 3 58 10 83 16 25 5 63 14 85 19 22 5 50 14 62 20 12 7 35 12 52 12
16 0 33 5 36 10 3 6 24 10 45 10 21 0 41 4 44 9 3 5 23 11 43 14 21 3 53 9 71
13 19 3 43 2 55 -4 12 -6 36 -13 52 -16 17 -3 53 -10 80 -16 28 -6 66 -14 85
-17 19 -3 44 -12 55 -19 11 -8 34 -14 52 -14 17 0 35 -4 38 -10 3 -5 24 -10
45 -10 21 0 41 -4 44 -9 3 -5 23 -11 43 -15 96 -14 119 -19 131 -29 13 -10 65
-22 145 -34 20 -3 40 -9 43 -14 3 -5 18 -9 33 -9 16 0 44 -6 62 -14 19 -7 40
-11 47 -9 7 3 23 -2 35 -10 23 -15 68 -25 155 -34 49 -4 57 -2 83 23 25 24 29
35 29 80 0 58 -17 84 -54 84 -12 0 -27 5 -34 12 -6 6 -34 10 -63 9 -29 -1 -58
4 -66 11 -8 7 -39 16 -69 20 -30 4 -80 13 -111 18 -32 6 -85 14 -118 19 -33 4
-73 13 -88 19 -16 7 -33 10 -37 7 -5 -3 -28 1 -52 10 -24 8 -60 15 -80 15 -20
0 -40 5 -43 10 -3 6 -33 10 -65 10 -32 0 -62 5 -65 10 -3 6 -28 10 -54 10 -26
0 -52 5 -58 11 -6 6 -37 15 -69 20 -33 6 -84 14 -114 20 -180 32 -286 44 -294
31z"/>
<path d="M7027 16295 c-20 -20 -24 -124 -5 -143 7 -7 29 -12 49 -12 21 0 40
-4 43 -9 3 -5 23 -11 43 -14 21 -2 52 -9 68 -15 17 -6 50 -16 75 -22 25 -7 53
-16 62 -21 10 -5 31 -9 47 -9 16 0 41 -6 56 -14 15 -8 33 -12 41 -9 7 2 26 -2
41 -10 40 -21 95 -37 126 -37 14 0 29 -4 32 -10 3 -5 19 -10 34 -10 15 0 56
-11 91 -25 35 -14 76 -25 91 -25 15 0 31 -4 34 -10 3 -5 22 -10 41 -10 19 0
42 -4 52 -9 41 -20 126 -45 197 -57 46 -8 96 -34 102 -52 3 -9 13 -25 21 -35
8 -9 20 -26 26 -36 6 -11 26 -40 44 -66 18 -26 43 -68 57 -94 13 -26 31 -53
39 -60 9 -8 16 -19 16 -26 0 -7 7 -19 16 -26 9 -7 27 -37 40 -65 27 -58 36
-64 105 -64 40 0 51 4 64 24 15 23 10 35 -140 335 -140 280 -158 311 -180 311
-13 0 -26 4 -29 9 -3 5 -23 11 -43 14 -55 8 -123 23 -158 35 -68 23 -103 32
-128 32 -14 0 -29 5 -32 10 -3 6 -24 10 -45 10 -21 0 -42 5 -45 10 -3 6 -20
10 -36 10 -17 0 -40 5 -52 12 -12 6 -40 15 -62 20 -22 5 -60 14 -85 19 -25 6
-60 13 -79 16 -18 3 -45 11 -58 18 -14 8 -31 11 -38 8 -7 -2 -27 3 -44 11 -16
9 -43 16 -60 16 -16 0 -32 4 -35 9 -3 5 -23 11 -43 15 -95 14 -119 19 -129 27
-15 12 -96 30 -160 36 -39 4 -55 1 -67 -12z"/>
<path d="M9270 11831 c0 -12 5 -21 10 -21 6 0 10 6 10 14 0 8 -4 18 -10 21 -5
3 -10 -3 -10 -14z"/>
<path d="M9973 11207 c-60 -38 -85 -61 -97 -87 -8 -19 -24 -56 -34 -81 -13
-31 -32 -54 -56 -69 -55 -33 -66 -48 -66 -86 0 -19 -4 -34 -10 -34 -5 0 -10
-11 -10 -25 0 -17 9 -28 33 -40 29 -14 36 -14 63 -1 16 8 54 40 84 71 30 30
59 55 65 55 8 0 10 -29 7 -90 -4 -72 -1 -95 12 -115 16 -24 22 -26 78 -23 l61
3 99 195 c61 121 98 207 98 226 0 56 -40 79 -175 102 -31 6 -41 12 -43 30 -2
12 -9 22 -15 22 -7 0 -49 -24 -94 -53z"/>
<path d="M6010 12471 c0 -28 -4 -53 -10 -56 -5 -3 -10 -19 -10 -34 0 -16 -7
-45 -16 -66 -11 -27 -12 -41 -4 -49 7 -7 31 11 86 65 61 61 75 81 76 107 1 47
-35 82 -84 82 l-38 0 0 -49z"/>
<path d="M5433 11343 c-7 -2 -13 -10 -13 -18 0 -7 -7 -18 -15 -25 -9 -7 -25
-33 -35 -56 -25 -54 -32 -58 -63 -34 -14 11 -36 20 -50 20 -14 0 -36 6 -51 14
-14 7 -49 12 -78 11 -30 -1 -65 4 -80 11 -51 26 -85 18 -138 -32 -28 -26 -50
-52 -50 -59 0 -7 -13 -26 -29 -43 -16 -17 -36 -43 -44 -59 -8 -15 -27 -39 -41
-52 -14 -14 -26 -30 -26 -36 0 -6 -16 -26 -35 -45 -19 -19 -35 -39 -35 -45 0
-6 -12 -22 -26 -36 -14 -13 -35 -41 -45 -62 -11 -20 -28 -43 -39 -49 -11 -7
-20 -18 -20 -25 0 -7 -15 -30 -34 -50 -52 -59 -69 -99 -63 -152 6 -55 26 -71
87 -71 50 0 79 19 110 72 8 14 38 58 65 98 28 40 57 85 65 100 8 15 23 35 33
44 9 10 17 23 17 30 0 7 9 21 20 31 11 10 20 23 20 30 0 14 60 72 61 59 1 -5
1 -52 0 -104 -1 -52 3 -101 8 -109 5 -8 29 -17 53 -20 36 -5 42 -10 39 -26 -2
-11 -5 -54 -8 -95 -2 -41 -8 -84 -13 -95 -5 -11 -12 -54 -14 -95 -13 -186 -22
-260 -33 -272 -9 -8 -13 -44 -13 -103 0 -50 -4 -95 -9 -100 -5 -6 -12 -46 -15
-90 -12 -181 -22 -261 -35 -284 -17 -30 -11 -161 8 -185 10 -12 30 -16 79 -16
58 0 69 3 94 27 23 22 28 35 28 74 0 26 5 51 10 54 6 3 10 20 10 36 0 17 7 43
15 59 8 16 12 36 9 44 -3 9 0 26 9 39 13 21 19 45 33 140 4 20 10 40 15 43 5
3 9 19 9 35 0 17 5 40 12 52 12 23 23 67 38 152 5 28 13 70 17 94 4 24 13 46
19 48 16 5 24 -46 11 -76 -5 -15 -14 -48 -18 -76 -4 -27 -13 -72 -19 -100 -6
-27 -14 -72 -19 -100 -4 -27 -13 -61 -20 -74 -7 -12 -10 -32 -7 -44 3 -11 -2
-33 -10 -48 -7 -15 -14 -41 -14 -58 0 -16 -4 -33 -10 -36 -15 -9 -13 -178 3
-199 10 -14 25 -16 87 -14 74 3 75 4 90 36 9 18 28 44 43 58 15 13 27 29 27
34 0 13 37 50 51 50 6 0 37 -25 70 -57 45 -43 67 -56 89 -56 17 0 31 2 33 4 1
2 116 232 255 511 205 413 252 514 252 547 0 39 2 41 30 41 34 0 123 -43 185
-89 63 -47 162 -91 205 -91 30 0 46 7 69 31 55 54 32 110 -61 153 -20 9 -43
23 -51 30 -7 8 -36 25 -65 40 -28 14 -53 30 -57 36 -3 5 -39 25 -80 45 -40 19
-76 39 -80 45 -3 5 -26 19 -50 30 -24 11 -47 25 -50 30 -7 12 -119 70 -135 70
-5 0 -10 -7 -10 -15 0 -9 -14 -30 -30 -48 -32 -34 -144 -198 -172 -251 -9 -18
-23 -38 -32 -45 -9 -8 -16 -19 -16 -26 0 -7 -7 -19 -16 -26 -9 -7 -20 -22 -25
-34 -11 -24 -53 -84 -74 -106 -8 -9 -15 -21 -15 -27 0 -7 -9 -21 -19 -31 -11
-11 -27 -34 -36 -50 -8 -17 -20 -31 -25 -31 -18 0 -10 50 11 71 12 12 30 41
40 65 11 24 24 46 30 49 5 4 27 42 49 85 22 43 44 81 50 85 5 3 19 27 31 53
11 26 26 52 32 57 22 18 47 73 47 100 0 16 -12 38 -29 56 -26 26 -37 29 -89
29 l-59 0 -139 -140 c-76 -77 -146 -140 -154 -140 -19 0 -16 58 6 107 8 17 14
43 14 57 0 14 6 30 13 36 31 27 145 101 170 111 15 6 27 15 27 20 0 5 24 21
53 35 50 24 166 99 197 127 21 19 80 47 100 47 31 0 70 53 70 96 0 33 -7 46
-38 77 l-38 37 -106 0 c-74 0 -114 4 -134 15 -21 11 -60 15 -144 14 -63 0
-121 -3 -127 -6z m-85 -875 c-2 -13 -7 -23 -13 -23 -5 0 -11 10 -13 23 -2 15
2 22 13 22 11 0 15 -7 13 -22z m-23 -91 c0 -26 -20 -25 -23 2 -3 16 1 22 10
19 7 -3 13 -12 13 -21z m-20 -102 c0 -16 -5 -30 -12 -32 -14 -5 -28 40 -18 57
12 19 30 4 30 -25z m215 -119 c0 -8 -4 -17 -9 -21 -12 -7 -24 12 -16 25 9 15
25 12 25 -4z"/>
<path d="M6110 11141 c-5 -11 -10 -52 -10 -91 0 -65 2 -71 24 -80 13 -5 27
-14 31 -19 3 -6 27 -20 53 -32 26 -11 52 -27 57 -34 14 -17 120 -69 175 -84
25 -7 54 -17 65 -21 11 -4 40 -13 65 -20 25 -7 66 -23 91 -36 26 -13 54 -24
63 -24 9 0 24 -4 34 -9 19 -10 120 -44 197 -68 28 -8 59 -19 70 -23 23 -8 59
-20 165 -56 41 -14 79 -30 85 -35 5 -5 18 -9 30 -9 12 0 25 -4 30 -8 20 -18
176 -62 219 -62 36 0 50 5 71 27 37 41 34 81 -12 124 -36 33 -136 89 -161 89
-6 0 -27 9 -47 20 -20 11 -42 20 -50 20 -8 0 -38 11 -67 24 -124 56 -149 66
-163 66 -8 0 -34 11 -59 25 -25 14 -51 25 -59 25 -7 0 -32 9 -55 20 -22 11
-46 20 -52 20 -6 0 -33 11 -60 25 -27 14 -54 25 -60 25 -6 0 -30 9 -52 20 -23
11 -47 20 -54 20 -7 0 -34 11 -61 23 -26 13 -63 29 -80 35 -18 7 -48 17 -65
24 -18 6 -54 22 -79 35 -26 12 -54 23 -63 23 -8 0 -31 9 -51 20 -50 28 -150
28 -165 1z"/>
<path d="M7091 10376 c-7 -8 -13 -27 -14 -43 -2 -26 34 -157 54 -195 5 -10 9
-25 9 -34 0 -9 6 -28 14 -42 14 -29 24 -55 62 -167 13 -38 29 -78 34 -87 6
-10 10 -25 10 -33 0 -8 4 -23 9 -33 5 -9 14 -37 21 -62 7 -25 16 -53 21 -62 5
-10 9 -24 9 -32 0 -29 28 -44 76 -41 58 4 94 35 94 80 0 34 -31 103 -67 149
-13 16 -23 33 -23 38 0 5 -20 30 -45 56 -25 25 -45 51 -45 57 0 7 -9 20 -20
30 -11 10 -20 27 -20 37 0 10 -7 29 -15 41 -9 15 -11 27 -5 37 15 25 44 -2 50
-45 4 -34 9 -40 37 -47 18 -5 35 -13 38 -18 3 -6 28 -10 55 -10 27 0 52 -4 55
-10 3 -5 32 -10 63 -10 l57 0 -112 108 c-62 59 -145 136 -184 172 -71 65 -109
121 -109 160 0 17 -6 20 -49 20 -30 0 -53 -5 -60 -14z"/>
<path d="M14460 6430 c-11 -21 -20 -45 -20 -53 0 -7 -11 -36 -25 -63 -14 -27
-25 -55 -25 -61 0 -7 -13 -41 -29 -75 -69 -152 -81 -179 -81 -192 0 -8 -16
-44 -35 -80 -19 -37 -35 -72 -35 -79 0 -7 -16 -44 -35 -83 -19 -38 -35 -75
-35 -81 0 -13 -19 -59 -76 -181 -19 -40 -34 -79 -34 -87 0 -8 -9 -30 -20 -50
-11 -20 -20 -43 -20 -53 0 -9 -11 -37 -25 -61 l-25 -43 0 -297 0 -297 28 -27
c24 -23 37 -27 83 -27 47 0 59 4 80 26 23 25 24 32 27 187 2 89 8 166 13 172
5 5 9 69 9 142 0 114 3 137 20 168 11 20 20 42 20 51 0 8 11 37 25 64 14 27
25 54 25 60 0 6 16 42 35 81 19 39 35 77 35 83 0 7 16 43 35 82 19 38 35 76
35 84 0 8 9 30 20 48 11 18 20 39 20 47 0 9 16 47 35 85 19 38 35 74 35 79 0
5 16 43 35 84 19 41 35 80 35 86 0 6 9 26 20 46 11 20 20 42 20 51 0 8 11 37
25 64 31 62 31 71 -1 109 -24 29 -29 31 -100 31 l-74 0 -20 -40z"/>
<path d="M14714 6102 c-22 -13 -164 -310 -164 -341 0 -16 -4 -32 -9 -35 -5 -3
-11 -23 -15 -43 -14 -95 -19 -119 -27 -129 -9 -10 -24 -72 -35 -139 -3 -16 -9
-39 -14 -50 -5 -11 -11 -35 -14 -52 -3 -18 -9 -48 -12 -65 -3 -18 -9 -42 -14
-53 -20 -44 -40 -111 -40 -137 0 -15 -4 -29 -9 -32 -5 -3 -11 -23 -15 -43 -14
-96 -19 -119 -29 -131 -10 -13 -22 -65 -34 -145 -3 -20 -9 -40 -14 -43 -5 -3
-9 -18 -9 -33 0 -16 -6 -44 -14 -62 -7 -19 -11 -40 -9 -47 3 -7 -2 -23 -10
-35 -8 -12 -18 -40 -22 -62 -4 -22 -10 -294 -12 -605 l-4 -565 22 -17 c14 -12
39 -18 75 -18 45 0 59 5 85 28 l31 27 -2 183 c0 132 3 188 12 205 8 13 16 80
20 162 4 77 12 203 18 280 6 77 14 203 18 280 4 80 12 149 20 162 8 14 12 64
12 144 0 117 16 203 51 271 5 10 9 24 9 33 0 8 11 34 25 59 14 25 25 52 25 61
0 8 4 23 9 33 5 9 14 37 21 62 7 25 18 57 26 72 8 14 14 33 14 42 0 9 4 24 9
34 4 9 14 33 21 52 6 19 21 58 32 85 10 28 26 73 35 100 8 28 19 59 23 70 4
11 15 45 25 75 10 30 26 72 37 92 10 21 18 44 18 53 0 8 4 23 9 33 40 80 43
133 11 167 -21 22 -32 25 -99 25 -42 0 -81 -4 -87 -8z"/>
<path d="M14805 5245 c-22 -23 -25 -34 -25 -95 0 -38 -4 -72 -10 -75 -5 -3
-10 -30 -10 -59 0 -30 -7 -67 -15 -82 -8 -17 -15 -55 -15 -90 0 -33 -4 -64 -9
-70 -9 -9 -15 -53 -27 -209 -3 -38 -10 -74 -15 -79 -5 -6 -9 -39 -9 -75 -1
-42 -6 -73 -15 -85 -9 -12 -15 -42 -15 -76 0 -31 -4 -60 -9 -65 -10 -11 -19
-99 -27 -275 -3 -63 -10 -121 -16 -128 -7 -8 -11 -50 -9 -108 2 -72 -2 -99
-13 -116 -12 -17 -16 -49 -16 -133 0 -61 -4 -115 -9 -121 -6 -5 -12 -61 -15
-124 -14 -282 -18 -327 -31 -357 -10 -21 -15 -65 -15 -135 0 -85 -3 -109 -20
-136 -11 -18 -20 -39 -20 -47 0 -9 -16 -47 -35 -85 -19 -38 -35 -75 -35 -82 0
-7 -16 -44 -35 -82 -19 -37 -35 -74 -35 -80 0 -7 -16 -43 -35 -82 -19 -38 -35
-74 -35 -81 0 -7 -13 -39 -30 -71 -16 -33 -30 -65 -30 -71 0 -6 -16 -43 -35
-81 -19 -38 -35 -76 -35 -84 0 -8 -16 -44 -35 -80 -19 -37 -35 -72 -35 -79 0
-7 -16 -44 -35 -83 -19 -38 -35 -77 -35 -86 0 -9 -4 -20 -10 -23 -15 -9 -12
-128 3 -149 16 -21 83 -31 118 -18 19 8 37 33 68 95 22 47 41 90 41 96 0 6 36
83 80 171 44 88 80 165 80 171 0 6 29 69 65 140 36 72 65 135 65 142 0 7 36
84 80 172 44 88 80 166 80 173 0 7 20 53 45 102 l45 90 0 109 c0 62 4 112 10
116 6 3 10 50 10 103 1 65 5 105 15 122 10 17 14 59 15 136 0 60 4 114 9 120
6 5 12 61 15 124 14 282 18 335 28 347 5 7 11 64 12 126 0 70 6 119 13 128 6
8 14 50 17 94 13 188 18 231 27 240 5 5 9 44 9 86 0 49 5 87 15 105 9 18 15
57 15 101 0 39 5 75 10 78 6 3 10 44 10 90 0 46 5 87 10 90 6 3 10 37 10 75 0
38 5 72 10 75 6 3 10 44 10 90 0 46 5 87 10 90 17 11 11 41 -13 63 -19 18 -35
22 -90 22 -58 0 -69 -3 -92 -25z"/>
<path d="M11062 4694 l-22 -15 0 -684 0 -685 -36 -15 c-20 -8 -49 -15 -65 -15
-15 0 -31 -4 -34 -10 -3 -5 -16 -10 -29 -10 -12 0 -31 -7 -42 -15 -10 -8 -30
-15 -43 -15 -23 0 -65 -11 -116 -30 -19 -7 -78 -24 -120 -34 -18 -4 -45 -13
-110 -36 -65 -24 -155 -50 -170 -50 -9 0 -31 -6 -48 -14 -53 -22 -163 -56
-184 -56 -27 0 -143 -47 -165 -66 -13 -13 -18 -31 -18 -73 0 -77 18 -101 75
-101 24 0 46 4 49 9 3 5 23 11 43 14 59 7 130 38 396 172 137 69 255 125 261
125 15 0 559 271 581 290 21 18 22 375 1 403 -11 14 -14 64 -14 219 -1 129 -4
204 -11 211 -7 7 -11 87 -11 228 l0 217 -31 26 c-36 30 -101 35 -137 10z"/>
<path d="M9140 4412 c0 -4 4 -12 9 -17 5 -6 12 -41 15 -80 8 -116 21 -199 34
-222 7 -12 11 -42 10 -67 0 -25 4 -51 10 -58 5 -7 13 -44 16 -83 12 -146 17
-191 27 -215 30 -70 34 -75 70 -78 31 -3 41 2 67 33 18 19 34 48 38 63 3 15
16 48 30 74 13 27 24 54 24 61 0 7 9 32 20 55 38 78 34 86 -112 247 -38 41
-68 78 -68 84 0 5 -30 39 -66 76 -36 37 -69 78 -74 91 -9 22 -50 53 -50 36z"/>
</g>
</svg>
