<?xml version="1.0" standalone="no"?>
<!DOCTYPE svg PUBLIC "-//W3C//DTD SVG 20010904//EN"
 "http://www.w3.org/TR/2001/REC-SVG-20010904/DTD/svg10.dtd">
<svg version="1.0" xmlns="http://www.w3.org/2000/svg"
 width="1128.000000pt" height="1136.000000pt" viewBox="0 0 1128.000000 1136.000000"
 preserveAspectRatio="xMidYMid meet">
<metadata>
Created by potrace 1.13, written by Peter Selinger 2001-2015
</metadata>
<g transform="translate(0.000000,1136.000000) scale(0.100000,-0.100000)"
fill="#e94e61" stroke="none">
<path d="M7405 10698 c-22 -5 -60 -12 -85 -17 -77 -13 -157 -57 -190 -106 -16
-23 -44 -52 -63 -62 -25 -15 -39 -35 -56 -79 -13 -33 -31 -75 -40 -94 -10 -19
-23 -53 -29 -75 -6 -22 -18 -63 -26 -92 -10 -33 -16 -91 -16 -161 0 -90 -3
-112 -17 -123 -9 -8 -25 -33 -35 -56 -12 -27 -27 -44 -46 -51 -15 -5 -45 -26
-66 -47 -38 -36 -82 -60 -100 -56 -5 1 -18 -6 -30 -17 -20 -18 -128 -49 -191
-55 -33 -4 -134 -35 -150 -47 -5 -4 -26 -10 -45 -14 -61 -11 -74 -14 -120 -26
-25 -7 -67 -14 -95 -16 -27 -2 -79 -8 -115 -13 -36 -5 -74 -10 -85 -10 -11 0
-123 -5 -250 -9 -207 -8 -242 -7 -355 10 -69 11 -171 35 -228 54 -56 19 -110
34 -120 34 -9 0 -55 14 -102 30 -47 16 -103 30 -125 30 -24 0 -54 9 -75 22
-19 12 -57 32 -84 45 -162 77 -208 145 -156 231 22 35 26 67 10 77 -5 3 -10
26 -10 51 0 25 -6 55 -14 67 -8 12 -17 46 -21 75 -11 85 -41 153 -83 189 -20
18 -44 35 -53 38 -9 3 -22 18 -28 33 -25 61 -113 120 -181 122 -14 0 -36 7
-50 15 -18 10 -61 14 -153 15 l-127 0 -83 -41 c-45 -23 -95 -51 -111 -63 -17
-11 -55 -34 -85 -51 -60 -32 -53 -20 -122 -205 -16 -43 -24 -212 -11 -237 5
-10 7 -26 3 -35 -3 -9 -5 -51 -3 -93 l4 -75 51 -26 c29 -15 72 -48 96 -76 63
-72 149 -109 271 -120 113 -9 116 -9 201 -2 80 7 122 -10 145 -60 11 -21 28
-37 50 -45 19 -7 42 -25 52 -39 9 -15 22 -31 29 -35 21 -13 43 -63 43 -96 0
-26 7 -34 41 -51 31 -16 46 -33 61 -68 40 -93 59 -130 81 -156 13 -15 31 -48
40 -74 10 -26 34 -70 55 -97 21 -28 37 -55 35 -61 -2 -6 3 -17 12 -24 8 -7 15
-18 15 -24 0 -7 5 -17 12 -24 7 -7 17 -31 24 -55 19 -67 36 -109 65 -153 15
-23 32 -58 39 -78 6 -19 16 -38 21 -41 5 -4 9 -14 9 -24 0 -19 33 -131 49
-166 15 -32 90 -291 94 -325 2 -8 7 -24 13 -35 6 -11 12 -40 13 -65 1 -25 9
-55 17 -67 7 -12 16 -41 19 -65 3 -24 9 -67 14 -96 4 -29 6 -63 4 -76 -3 -13
0 -34 7 -46 6 -12 14 -38 17 -58 6 -53 14 -323 16 -577 l2 -220 -55 -2 c-30
-1 -80 4 -110 11 -30 8 -98 14 -150 15 -199 1 -301 8 -312 19 -7 7 -22 12 -35
12 -13 0 -23 4 -23 8 0 5 -33 8 -72 7 -40 0 -87 3 -105 8 -33 8 -64 11 -258
26 -125 9 -466 63 -523 82 -18 6 -146 30 -285 54 -401 70 -430 77 -542 130
-38 18 -110 52 -160 75 -49 23 -117 54 -150 70 -33 16 -99 46 -147 68 -67 31
-90 47 -103 72 -9 17 -24 39 -34 49 -10 10 -26 39 -37 64 -10 26 -22 47 -26
47 -4 0 -10 17 -14 38 -4 20 -15 49 -26 65 -11 15 -21 37 -22 50 -4 33 -53
132 -88 176 -18 24 -35 36 -88 63 -14 7 -41 23 -60 36 -31 21 -42 23 -95 17
-32 -3 -66 -10 -75 -15 -9 -5 -52 -16 -96 -24 -201 -39 -246 -55 -259 -96 -4
-11 -20 -27 -36 -35 -17 -9 -39 -36 -55 -68 -15 -28 -33 -56 -40 -62 -29 -22
-84 -120 -84 -151 0 -17 -7 -37 -15 -44 -8 -7 -12 -17 -8 -23 4 -6 8 -34 9
-62 9 -164 27 -221 91 -282 38 -35 102 -69 149 -77 14 -3 67 -25 117 -49 105
-51 154 -63 250 -58 37 2 81 -2 96 -9 24 -9 35 -9 59 4 42 22 231 22 271 1 16
-8 41 -35 55 -60 15 -25 34 -45 44 -45 31 0 78 -37 92 -71 8 -19 20 -38 28
-43 19 -11 58 -101 67 -153 3 -23 13 -47 22 -54 19 -16 49 -75 69 -136 8 -26
18 -55 21 -63 4 -8 7 -17 8 -20 1 -3 6 -16 12 -30 41 -99 43 -122 43 -413 0
-160 -4 -288 -9 -291 -5 -4 -12 -30 -16 -59 -3 -28 -8 -69 -11 -89 -3 -21 -14
-63 -24 -94 -11 -32 -20 -65 -20 -74 0 -9 -25 -54 -55 -99 -30 -45 -55 -89
-55 -98 0 -32 -60 -119 -105 -153 -25 -19 -54 -49 -65 -67 -11 -18 -24 -33
-29 -33 -5 0 -14 -14 -20 -31 -8 -24 -15 -30 -28 -24 -10 4 -47 15 -83 24 -57
15 -73 16 -128 4 -34 -7 -71 -17 -81 -23 -11 -5 -28 -10 -38 -10 -47 0 -243
-120 -306 -187 -75 -80 -86 -93 -92 -115 -4 -13 -14 -30 -21 -39 -8 -9 -28
-45 -46 -80 -46 -93 -44 -169 5 -264 37 -72 99 -153 139 -184 45 -35 115 -71
137 -71 13 0 36 -11 52 -24 61 -52 190 -69 274 -38 17 6 43 14 58 17 16 3 46
24 67 45 22 22 47 40 57 40 52 2 132 81 169 170 8 19 27 55 42 80 14 25 27 47
27 50 3 25 74 134 92 141 13 5 23 17 23 28 0 28 27 51 61 51 22 0 43 13 84 53
63 61 158 137 172 137 5 0 26 16 47 35 21 19 74 55 119 81 45 26 90 55 100 65
10 10 30 22 45 25 15 4 35 15 45 25 10 11 24 19 32 19 8 0 15 5 15 10 0 6 4
10 10 10 5 0 38 13 72 28 99 45 118 52 141 52 12 0 33 7 47 15 110 63 320 157
380 170 8 2 33 10 55 18 22 9 69 23 105 31 36 9 96 32 134 51 39 19 81 35 95
35 14 0 49 11 76 23 29 14 81 27 125 31 180 17 302 38 324 55 38 29 126 43
299 45 123 1 151 -1 162 -14 10 -12 15 -47 16 -126 1 -60 1 -116 0 -124 -1 -8
3 -34 8 -57 8 -29 8 -100 1 -230 -6 -103 -12 -226 -14 -273 -3 -77 -7 -112
-20 -177 -3 -13 -8 -85 -11 -160 -3 -76 -10 -156 -15 -178 -5 -22 -10 -55 -10
-73 0 -19 -10 -73 -21 -120 -12 -48 -23 -96 -24 -107 -1 -11 -4 -21 -5 -22 -1
-2 -3 -6 -4 -10 -1 -5 -7 -24 -13 -43 -6 -19 -18 -64 -28 -100 -10 -36 -26
-90 -37 -120 -11 -30 -27 -80 -34 -110 -8 -30 -21 -61 -28 -70 -7 -8 -16 -28
-20 -44 -4 -16 -29 -74 -57 -129 -27 -55 -49 -105 -49 -112 0 -7 -11 -28 -24
-47 -13 -20 -29 -53 -36 -74 -9 -28 -43 -69 -119 -144 -58 -58 -128 -132 -156
-165 -27 -33 -76 -87 -108 -120 l-58 -60 -69 1 c-39 1 -70 -2 -70 -7 0 -5 -15
-18 -32 -29 -34 -21 -83 -26 -107 -11 -12 8 -78 -12 -133 -40 -10 -5 -24 -9
-32 -9 -21 0 -158 -70 -186 -95 -39 -35 -131 -91 -172 -104 -21 -7 -38 -16
-38 -21 0 -5 -9 -11 -19 -15 -10 -3 -24 -20 -31 -38 -19 -51 -51 -129 -70
-172 -10 -22 -26 -62 -36 -90 -9 -27 -23 -56 -29 -63 -9 -10 -9 -30 0 -85 11
-72 47 -139 142 -270 60 -84 161 -157 214 -157 15 0 32 -7 40 -16 7 -8 34 -26
61 -40 43 -22 60 -24 177 -24 l131 0 67 45 c38 25 78 48 91 52 15 3 33 25 52
63 16 32 38 61 49 65 28 9 80 70 86 103 4 15 16 47 27 72 57 123 60 137 67
330 8 217 14 236 91 275 27 13 51 29 55 35 3 6 23 19 43 29 21 11 55 36 77 56
22 21 58 46 81 56 22 10 52 29 65 42 17 17 40 26 83 31 32 3 105 22 162 41 66
22 124 35 157 35 34 0 63 7 85 20 30 19 50 20 302 20 214 0 276 -3 302 -15 18
-8 78 -21 132 -30 55 -9 107 -20 117 -25 10 -6 56 -10 104 -10 60 0 95 -5 118
-17 17 -9 63 -18 102 -21 39 -3 86 -13 107 -23 21 -11 48 -19 60 -19 13 0 54
-18 92 -40 37 -22 72 -40 76 -40 4 0 25 -17 47 -38 22 -20 61 -54 86 -75 35
-28 47 -45 47 -65 0 -15 7 -45 14 -67 9 -24 12 -57 9 -82 -7 -56 24 -208 53
-253 13 -21 25 -60 29 -99 3 -35 15 -87 26 -115 20 -55 105 -170 118 -162 4 3
19 -6 32 -20 29 -31 140 -97 189 -112 85 -27 204 -21 283 12 17 8 57 22 87 30
70 21 72 22 108 79 16 26 41 56 55 67 54 43 122 153 146 235 28 98 30 112 37
252 6 110 6 113 -25 174 -17 34 -31 68 -31 75 0 7 -8 19 -19 26 -10 7 -28 32
-39 54 -23 46 -110 124 -157 142 -79 31 -180 42 -375 42 l-198 0 -80 83 c-165
170 -192 201 -192 218 0 10 -4 21 -10 24 -5 3 -10 18 -10 32 0 13 -6 37 -14
51 -8 15 -26 61 -41 102 -15 41 -33 82 -40 90 -17 22 -82 177 -95 230 -6 25
-15 54 -19 65 -13 32 -58 156 -71 198 -6 20 -11 64 -11 98 0 42 -4 62 -14 65
-14 6 -21 39 -30 132 -2 29 -6 56 -9 60 -10 17 -18 132 -20 318 -2 110 -9 256
-16 325 -9 90 -10 138 -3 166 7 29 7 46 -1 59 -6 11 -12 44 -13 74 -11 346
-11 425 -3 436 6 6 9 36 8 65 -1 30 -2 84 0 121 2 67 2 68 42 93 22 14 48 25
58 25 10 0 21 2 24 6 3 3 86 4 184 3 99 0 197 -1 219 -1 61 0 255 -18 302 -29
23 -5 75 -11 116 -14 40 -3 109 -14 152 -25 43 -11 92 -20 110 -20 17 0 35 -4
41 -9 5 -5 25 -12 44 -15 19 -3 49 -9 65 -12 17 -4 39 -6 50 -6 11 1 36 -4 55
-10 19 -7 41 -11 47 -10 7 2 22 -2 33 -8 11 -6 33 -13 48 -16 15 -2 50 -8 77
-13 28 -4 74 -18 103 -30 30 -12 57 -19 61 -16 5 2 32 -10 62 -28 30 -18 72
-38 94 -45 22 -7 60 -23 85 -34 25 -11 54 -24 65 -28 11 -4 39 -15 62 -25 23
-10 49 -15 58 -11 9 3 38 -5 66 -19 27 -14 49 -23 49 -20 0 8 99 -44 147 -77
24 -16 60 -35 82 -42 21 -8 47 -19 57 -24 20 -11 52 -24 70 -27 6 -2 35 -19
64 -39 29 -20 55 -34 58 -32 10 11 34 -26 39 -61 3 -21 10 -43 15 -49 4 -6 15
-36 24 -65 24 -83 92 -219 134 -269 20 -25 42 -55 49 -68 6 -12 16 -22 22 -22
6 0 36 -19 67 -42 118 -88 145 -99 277 -109 118 -10 155 -8 225 11 49 13 226
126 234 150 3 8 20 42 38 75 19 33 39 76 45 95 6 19 20 58 30 85 20 51 19 141
-1 174 -5 8 -11 30 -13 50 -5 48 -52 114 -158 220 -103 105 -132 126 -181 138
-27 6 -87 26 -134 44 -76 29 -99 33 -220 38 -143 6 -161 12 -257 77 -35 23
-93 111 -93 141 0 15 -40 100 -64 136 -17 25 -41 96 -67 197 -12 48 -12 767 1
775 5 3 13 20 19 38 22 75 60 168 80 193 15 19 21 41 21 78 0 70 28 141 86
218 27 36 67 96 89 133 22 37 57 86 79 109 21 22 45 51 53 63 22 34 103 83
135 83 16 0 41 8 55 18 17 11 56 19 108 23 68 5 88 11 138 42 32 19 63 40 70
45 7 5 35 17 62 27 69 22 90 38 105 77 8 18 27 44 42 58 15 14 44 50 63 80
l35 54 0 147 c0 141 -1 147 -28 195 -62 109 -72 121 -127 147 -30 15 -58 33
-62 41 -11 18 -95 43 -178 52 -38 4 -79 9 -90 10 -11 1 -66 6 -122 9 -146 11
-190 -7 -309 -124 -49 -47 -104 -108 -121 -134 l-33 -48 0 -182 c0 -171 -1
-183 -20 -195 -13 -8 -20 -23 -20 -43 0 -54 -25 -83 -122 -143 -109 -67 -168
-107 -229 -156 -24 -20 -57 -44 -74 -55 -54 -34 -298 -156 -375 -187 -41 -16
-79 -33 -85 -38 -5 -4 -53 -27 -105 -50 -102 -45 -156 -60 -320 -90 -58 -11
-116 -24 -130 -29 -14 -6 -47 -13 -75 -17 -27 -3 -63 -12 -80 -20 -58 -25
-139 -44 -192 -44 -30 0 -64 -5 -75 -11 -11 -6 -50 -12 -87 -14 -36 -2 -78 -8
-92 -13 -14 -6 -62 -11 -105 -13 -43 -1 -113 -8 -154 -15 -41 -7 -106 -16
-145 -19 -38 -4 -88 -10 -110 -15 -34 -7 -231 -20 -370 -24 l-40 -1 1 100 c1
56 7 119 14 140 9 26 14 96 15 200 1 88 5 171 8 185 12 47 19 156 23 369 2
118 8 228 13 245 6 17 10 47 9 66 0 19 5 53 11 75 15 49 27 107 41 205 7 41
16 82 21 92 5 9 9 33 9 53 0 19 6 46 14 58 20 30 71 173 80 222 4 22 15 63 25
90 10 28 16 56 14 63 -6 14 44 102 57 102 5 0 7 7 4 15 -3 8 5 38 19 67 60
125 96 216 102 256 7 45 30 97 46 107 5 4 9 15 9 25 0 10 13 45 29 77 41 79
95 197 96 205 1 24 39 31 210 37 141 6 152 8 187 32 22 16 58 29 90 33 50 7
58 12 128 84 123 125 218 246 257 324 35 72 35 74 30 168 -7 106 -19 148 -59
201 -16 20 -28 40 -28 46 0 17 -84 100 -120 119 -19 9 -50 19 -68 21 -19 2
-59 10 -90 18 -62 16 -194 18 -257 3z"/>
</g>
</svg>
