<?xml version="1.0" standalone="no"?>
<!DOCTYPE svg PUBLIC "-//W3C//DTD SVG 20010904//EN"
 "http://www.w3.org/TR/2001/REC-SVG-20010904/DTD/svg10.dtd">
<svg version="1.0" xmlns="http://www.w3.org/2000/svg"
 width="920.000000pt" height="1016.000000pt" viewBox="0 0 920.000000 1016.000000"
 preserveAspectRatio="xMidYMid meet">
<metadata>
Created by potrace 1.13, written by Peter Selinger 2001-2015
</metadata>
<g transform="translate(0.000000,1016.000000) scale(0.100000,-0.100000)"
fill="#000000" stroke="none">
<path d="M6098 9533 c-10 -2 -18 -9 -18 -14 0 -5 -9 -9 -20 -9 -25 0 -90 -41
-90 -57 0 -6 -3 -13 -7 -15 -13 -5 -63 -76 -63 -87 0 -6 -4 -11 -10 -11 -5 0
-7 -7 -4 -15 3 -8 -14 -40 -41 -75 -75 -97 -93 -154 -85 -270 0 -8 -1 -46 -3
-85 -2 -38 1 -76 6 -83 5 -7 12 -29 14 -51 4 -29 -1 -47 -22 -77 -15 -21 -35
-42 -46 -46 -10 -4 -19 -16 -19 -27 0 -15 -17 -28 -65 -51 -35 -17 -67 -35
-70 -39 -3 -5 -28 -12 -55 -16 -28 -4 -50 -11 -50 -16 0 -5 -11 -9 -24 -9 -13
0 -26 -3 -28 -7 -1 -5 -48 -19 -103 -32 -55 -13 -109 -26 -120 -29 -11 -3 -33
-5 -50 -3 -16 1 -49 -5 -73 -13 -23 -8 -43 -15 -45 -15 -1 1 -18 -2 -37 -6
-19 -3 -48 -8 -65 -10 -16 -2 -30 -4 -30 -5 0 -11 -131 -13 -215 -4 -76 9
-187 9 -270 1 -41 -4 -70 -2 -95 9 -31 13 -39 13 -65 -1 -44 -23 -73 -19 -151
21 -54 27 -74 32 -84 24 -19 -16 -103 -3 -137 21 -15 10 -35 19 -44 19 -18 0
-75 30 -86 45 -4 6 -13 18 -20 28 -7 9 -18 17 -26 17 -7 0 -35 11 -62 25 -27
14 -57 25 -66 25 -8 0 -14 5 -12 12 3 7 -6 28 -19 47 -22 32 -23 43 -23 196
l0 162 -37 36 c-20 20 -40 37 -45 37 -4 0 -8 16 -8 35 0 43 -23 90 -50 105
-11 6 -27 24 -35 41 -15 28 -34 39 -163 95 -23 10 -73 14 -167 14 -110 0 -141
-3 -179 -19 -25 -11 -62 -23 -83 -27 -60 -11 -88 -30 -122 -81 l-32 -48 4
-120 c5 -127 14 -185 28 -185 5 0 9 -7 9 -15 0 -15 11 -39 55 -125 10 -19 30
-46 44 -61 33 -34 46 -51 51 -64 9 -26 46 -64 81 -84 21 -12 42 -27 46 -34 17
-26 98 -57 151 -57 36 0 68 -8 102 -25 51 -26 66 -46 90 -123 8 -24 27 -56 43
-70 16 -15 37 -35 46 -46 9 -10 24 -26 34 -36 40 -39 87 -125 87 -160 0 -38
20 -101 50 -161 11 -21 20 -46 20 -56 0 -10 13 -34 28 -53 44 -53 52 -74 52
-130 0 -33 8 -66 22 -93 12 -23 22 -46 23 -52 3 -34 29 -102 42 -112 9 -7 14
-15 11 -19 -4 -3 0 -21 8 -40 8 -19 12 -34 9 -34 -3 0 0 -10 7 -22 7 -13 11
-29 9 -36 -1 -8 5 -22 15 -33 9 -11 17 -38 19 -67 1 -27 5 -54 9 -60 4 -7 4
-17 0 -23 -3 -6 -2 -14 4 -18 11 -7 22 -56 27 -121 1 -19 4 -37 5 -40 1 -3 2
-8 1 -12 0 -5 4 -8 10 -8 7 0 9 -27 6 -84 -3 -46 -1 -88 4 -93 4 -4 9 -44 10
-88 1 -44 5 -84 9 -90 4 -5 7 -17 7 -25 1 -44 16 -147 24 -163 6 -10 13 -43
16 -75 3 -31 9 -65 13 -76 4 -12 3 -36 -2 -54 -6 -22 -5 -45 2 -67 6 -19 9
-39 5 -45 -3 -5 -1 -10 5 -10 17 0 3 -52 -18 -68 -11 -8 -38 -12 -72 -11 -30
2 -76 -1 -103 -5 -32 -6 -57 -4 -76 4 -16 6 -58 13 -93 14 -68 3 -116 13 -135
28 -7 5 -13 4 -15 -3 -3 -9 -9 -9 -25 0 -12 6 -34 13 -50 15 -15 2 -35 6 -43
9 -13 5 -87 13 -190 21 -62 4 -124 18 -145 30 -11 7 -39 13 -63 15 -24 1 -53
6 -65 10 -12 4 -28 6 -34 4 -7 -3 -13 0 -13 6 0 5 -8 10 -17 10 -10 0 -58 3
-108 6 -49 3 -101 5 -115 5 -29 0 -120 20 -135 31 -13 8 -104 24 -127 21 -10
-1 -18 2 -18 7 0 5 -14 12 -31 16 -17 4 -33 13 -36 20 -2 8 -11 11 -18 8 -8
-2 -63 25 -123 61 -60 36 -119 69 -133 74 -13 6 -73 39 -134 76 -60 36 -114
66 -118 66 -5 0 -51 26 -104 57 l-95 57 8 75 c12 105 5 259 -12 293 -8 15 -14
36 -14 47 0 10 -13 49 -30 86 -26 59 -35 68 -75 86 -26 11 -62 31 -82 45 -24
16 -50 24 -79 24 -23 0 -46 5 -49 10 -3 6 -18 10 -33 10 -15 0 -36 7 -46 15
-25 19 -74 19 -120 0 -20 -9 -41 -13 -47 -10 -5 4 -26 -7 -46 -24 -21 -17 -43
-31 -50 -31 -7 0 -22 -18 -33 -40 -11 -22 -17 -40 -13 -40 3 0 -3 -10 -15 -22
-11 -13 -26 -42 -34 -65 -9 -31 -22 -47 -50 -63 -45 -25 -50 -59 -18 -112 15
-26 20 -51 20 -111 0 -74 2 -81 40 -139 22 -34 40 -65 40 -69 0 -4 13 -12 30
-19 16 -7 44 -31 62 -55 18 -24 48 -49 68 -56 20 -7 98 -16 181 -19 172 -6
185 -12 219 -97 13 -32 26 -62 30 -68 7 -10 18 -79 74 -475 39 -274 41 -284
38 -300 -2 -8 -2 -35 -2 -60 2 -60 2 -58 -10 -114 -5 -27 -12 -100 -15 -163
-3 -63 -12 -146 -20 -186 -8 -40 -15 -92 -15 -117 -1 -25 -5 -65 -11 -90 -6
-25 -12 -56 -14 -70 -2 -14 -8 -54 -15 -90 -6 -36 -13 -78 -14 -95 -4 -38 -16
-87 -27 -100 -4 -6 -10 -28 -12 -50 -6 -54 -31 -111 -54 -123 -35 -19 -134
-19 -155 0 -7 7 -18 14 -23 14 -98 15 -145 7 -188 -34 -13 -12 -28 -22 -33
-22 -6 0 -37 -18 -71 -39 -45 -30 -64 -50 -76 -79 -9 -22 -23 -42 -31 -45 -8
-3 -27 -29 -41 -56 -23 -47 -25 -60 -25 -193 1 -210 14 -256 88 -303 20 -13
31 -28 32 -43 1 -61 57 -112 121 -112 20 0 42 -9 57 -22 13 -13 31 -23 40 -24
9 0 24 -3 32 -6 8 -3 40 -10 70 -16 43 -8 61 -7 82 4 15 8 45 14 67 14 37 0
47 7 116 75 41 42 75 79 76 83 2 19 10 54 25 108 9 32 19 72 23 89 4 17 17 35
30 41 23 12 23 12 3 23 -18 10 -19 13 -6 48 7 21 13 56 14 77 0 65 20 106 50
106 36 0 85 33 99 67 6 16 27 37 46 47 19 11 35 23 35 27 0 12 53 59 67 59 7
0 20 8 30 18 10 10 36 31 58 47 22 16 43 33 47 39 3 5 16 11 29 13 28 4 79 35
105 64 23 26 72 52 83 45 5 -3 14 1 21 9 7 8 17 15 22 15 6 0 26 14 45 30 18
17 40 31 48 31 8 1 20 3 25 4 6 1 14 3 18 4 5 0 18 10 30 21 23 22 95 50 128
50 12 0 32 8 45 18 37 28 86 45 114 39 15 -2 32 1 38 7 7 7 44 20 82 30 39 10
77 25 86 32 8 8 21 14 27 14 7 0 12 5 12 11 0 5 3 8 8 5 4 -2 29 6 55 18 27
14 47 19 47 12 0 -6 4 -6 9 2 4 7 28 15 52 16 25 2 55 9 67 15 13 7 37 14 55
15 46 5 145 34 152 46 3 5 14 7 25 5 11 -2 20 0 20 6 0 5 10 9 23 9 13 0 27 3
30 7 4 3 17 8 30 9 48 6 84 14 123 28 31 10 45 11 53 3 8 -8 11 -8 11 0 0 7
26 11 68 12 37 1 115 3 174 4 l107 3 16 -38 c10 -26 15 -67 13 -122 -1 -45 1
-87 5 -92 3 -6 6 -44 6 -85 1 -41 1 -82 1 -91 0 -10 1 -24 1 -30 1 -7 -2 -29
-6 -48 -3 -19 -8 -96 -10 -170 -3 -159 -28 -334 -56 -407 -12 -29 -19 -56 -16
-60 3 -4 1 -33 -4 -63 -16 -91 -17 -105 -7 -111 4 -3 -1 -44 -12 -93 -12 -49
-19 -90 -16 -93 3 -3 -1 -17 -8 -32 -13 -25 -26 -85 -31 -144 -2 -15 -11 -37
-21 -48 -14 -15 -18 -38 -19 -92 -2 -83 -6 -97 -50 -192 -18 -39 -35 -79 -37
-90 -1 -11 -9 -26 -15 -33 -7 -7 -13 -22 -13 -32 0 -10 -5 -22 -10 -25 -6 -4
-8 -10 -5 -15 3 -5 -7 -44 -21 -87 -15 -43 -26 -86 -26 -95 0 -10 -3 -20 -9
-23 -5 -4 -9 -13 -9 -20 0 -8 -12 -39 -26 -70 -15 -31 -24 -58 -21 -61 3 -3
-8 -32 -24 -64 -16 -31 -29 -64 -29 -72 0 -8 -3 -18 -7 -22 -4 -3 -8 -16 -10
-28 -4 -23 -46 -102 -70 -129 -7 -9 -15 -25 -18 -37 -5 -30 -31 -76 -98 -179
-62 -96 -69 -101 -157 -119 -19 -3 -46 -14 -60 -24 -14 -10 -35 -21 -48 -25
-13 -4 -21 -9 -19 -11 3 -3 -7 -17 -22 -32 -14 -15 -42 -45 -61 -67 -20 -22
-48 -48 -63 -58 -15 -9 -27 -23 -27 -30 0 -7 -12 -28 -27 -47 -28 -35 -28 -37
-27 -180 0 -127 3 -152 24 -205 33 -86 161 -262 180 -250 5 3 28 -4 51 -15 56
-25 91 -25 186 1 78 20 84 24 134 69 16 14 42 37 59 52 37 32 66 71 115 156
29 51 45 67 78 81 l41 18 -32 6 c-30 6 -31 9 -25 39 7 38 27 65 55 74 11 3 35
23 53 43 19 20 59 50 89 65 31 16 56 32 56 37 0 5 6 9 13 9 21 0 140 62 158
82 9 10 26 18 38 18 11 0 21 4 21 9 0 6 55 27 100 37 3 0 12 3 20 6 8 3 47 13
85 23 39 9 75 21 82 27 7 5 43 11 80 13 37 1 95 8 128 14 80 14 205 21 205 12
0 -4 30 -6 68 -5 37 1 85 -2 107 -6 56 -12 181 -23 237 -21 26 1 49 -3 53 -9
3 -6 11 -8 16 -5 5 3 23 -11 41 -31 48 -54 103 -76 164 -65 26 5 57 6 68 1 12
-4 26 -8 31 -10 6 -1 14 -8 18 -16 4 -8 17 -14 27 -14 11 0 20 -5 20 -11 0 -6
11 -33 25 -61 14 -27 25 -56 25 -64 0 -8 7 -29 16 -46 9 -17 18 -45 21 -62 3
-17 9 -36 14 -42 4 -5 10 -26 13 -45 5 -42 37 -119 50 -119 5 0 33 -16 63 -36
43 -29 65 -36 116 -39 34 -3 89 -6 122 -9 33 -2 62 0 65 4 8 13 130 61 140 55
10 -6 137 111 177 163 14 18 27 52 30 74 2 23 12 62 22 88 14 36 16 60 11 101
-12 85 -20 109 -60 179 -54 97 -107 147 -165 157 -121 20 -135 25 -177 70 -24
24 -54 54 -68 66 -54 47 -119 119 -126 139 -3 12 -14 30 -24 41 -10 10 -21 35
-25 55 -6 35 -22 74 -82 199 -13 29 -21 57 -18 63 4 6 -7 27 -23 48 -15 20
-34 53 -41 72 -8 19 -29 65 -47 101 -19 37 -34 74 -34 83 0 9 -7 33 -17 54
-24 54 -43 104 -48 126 -3 11 -16 36 -31 57 -21 31 -25 47 -22 86 3 33 0 51
-10 59 -8 5 -15 23 -15 40 -1 16 -9 36 -18 44 -16 14 -31 68 -49 176 -4 28
-17 72 -28 97 -11 25 -18 47 -16 50 2 2 -3 23 -11 47 -8 23 -15 55 -15 71 0
15 -4 31 -10 34 -5 3 -10 25 -10 48 0 23 -9 93 -20 156 -11 62 -18 117 -15
121 3 4 -2 21 -10 36 -8 16 -16 56 -19 88 -3 32 -10 64 -16 71 -5 6 -9 29 -8
51 3 81 -15 309 -25 316 -8 4 -7 15 1 33 10 21 10 30 1 42 -7 8 -14 47 -17 86
-2 40 -5 97 -6 127 -2 30 -7 63 -11 72 -4 10 -3 30 2 45 10 30 54 48 88 36 22
-8 68 -12 190 -17 44 -2 105 -10 137 -20 31 -9 63 -14 70 -11 8 3 35 1 60 -4
25 -6 90 -13 144 -16 54 -3 108 -9 119 -12 11 -4 31 -5 44 -4 21 3 40 -3 92
-29 17 -9 119 -37 189 -52 25 -6 61 -9 81 -9 20 1 54 -5 75 -12 22 -8 68 -23
104 -33 36 -10 83 -30 105 -45 22 -15 51 -30 65 -34 14 -4 32 -14 40 -21 54
-48 69 -60 88 -72 13 -7 27 -10 32 -7 5 3 11 1 15 -5 4 -6 10 -8 15 -5 5 3 20
-1 32 -9 23 -14 56 -23 118 -30 88 -11 128 -28 186 -80 21 -20 43 -36 47 -36
5 0 30 -18 56 -40 27 -23 58 -40 72 -40 45 0 122 -50 200 -130 44 -44 79 -83
79 -88 0 -4 15 -16 33 -27 57 -33 85 -73 92 -130 5 -39 45 -167 57 -180 4 -5
8 -19 8 -32 0 -13 5 -23 10 -23 6 0 10 -8 10 -18 0 -11 9 -27 20 -37 11 -10
20 -23 20 -30 0 -20 64 -74 110 -91 64 -24 269 -20 343 7 58 21 132 91 143
136 4 14 18 42 31 61 12 19 23 46 23 59 0 13 8 40 18 61 10 20 24 71 31 112 7
41 15 80 17 87 2 7 -1 15 -7 18 -5 4 -7 10 -4 14 10 17 -13 162 -28 174 -8 7
-34 35 -58 62 -23 28 -55 58 -70 67 -15 9 -30 26 -34 37 -4 14 -15 21 -31 21
-14 0 -34 5 -45 10 -14 8 -27 7 -48 -5 -17 -8 -46 -15 -65 -15 -19 0 -50 -9
-68 -19 -18 -11 -58 -22 -89 -26 -69 -8 -101 6 -139 61 -15 21 -32 38 -37 37
-10 -2 -36 42 -47 80 -3 9 -14 17 -25 17 -19 0 -61 69 -61 99 0 8 -13 40 -30
73 -32 62 -37 97 -19 130 8 15 8 19 0 14 -6 -4 -14 1 -18 11 -4 10 -10 20 -13
23 -16 12 -48 344 -56 570 -10 318 -10 355 -3 388 4 17 3 49 -2 70 -5 23 -4
52 3 77 11 41 18 84 19 120 1 11 7 52 15 90 8 39 16 84 18 100 2 17 14 57 26
90 12 33 23 71 25 85 1 14 12 58 23 99 12 41 19 78 16 82 -3 5 2 9 11 9 29 0
74 30 89 59 14 27 19 28 107 34 51 4 97 10 103 15 6 4 20 7 31 7 11 -1 39 9
62 22 22 12 66 32 96 43 30 11 61 28 68 36 7 8 36 31 64 49 58 39 81 74 77
115 -2 16 3 50 10 77 21 73 15 216 -12 294 -17 50 -34 75 -77 116 -30 28 -69
58 -86 66 -113 53 -128 57 -191 57 -56 0 -78 -6 -150 -40 -46 -22 -89 -40 -96
-40 -7 0 -26 -10 -43 -22 -18 -13 -63 -39 -102 -58 -84 -42 -119 -93 -123
-175 -1 -27 -9 -68 -16 -90 -8 -22 -11 -44 -6 -48 4 -5 1 -30 -7 -55 -9 -30
-13 -74 -10 -121 3 -67 2 -76 -22 -104 -40 -48 -93 -92 -110 -92 -9 0 -29 -12
-45 -27 -16 -16 -33 -28 -38 -28 -5 0 -29 -13 -53 -30 -23 -16 -59 -31 -78
-32 -23 -2 -50 -15 -76 -37 -22 -19 -73 -48 -113 -64 -40 -17 -75 -34 -78 -37
-8 -12 -100 -57 -185 -90 -44 -17 -87 -35 -95 -40 -32 -20 -117 -60 -127 -60
-21 0 -113 -33 -113 -41 0 -8 -47 -17 -119 -24 -24 -2 -49 -9 -54 -14 -6 -6
-19 -11 -28 -11 -25 0 -140 -38 -157 -52 -18 -16 -81 -38 -107 -38 -11 0 -33
-7 -50 -16 -16 -9 -59 -18 -94 -20 -40 -3 -72 -10 -82 -20 -12 -11 -43 -17
-95 -20 -42 -2 -82 -8 -88 -13 -32 -27 -303 -56 -335 -36 -14 8 -14 56 0 92 6
15 11 45 11 65 -1 21 8 68 19 105 11 38 20 81 19 96 0 16 3 34 7 40 4 7 9 21
10 32 1 11 4 45 6 75 3 30 10 67 15 81 6 14 13 62 17 105 3 43 13 99 21 123 8
24 12 51 9 61 -3 10 1 37 8 61 27 85 68 253 72 296 2 18 12 45 23 60 23 34 42
87 42 120 0 13 4 31 10 41 18 30 50 122 50 141 0 10 7 24 15 31 9 7 13 20 10
29 -3 9 4 34 15 56 11 22 20 45 20 53 0 7 13 40 30 73 16 33 34 78 41 101 6
22 21 57 33 77 12 20 33 63 46 96 13 33 28 67 35 75 6 8 27 51 45 95 19 44 43
96 55 115 23 40 32 58 74 153 29 64 38 73 78 68 6 -1 14 3 18 9 3 5 24 10 45
10 22 0 49 4 62 9 13 4 49 16 81 26 31 10 57 22 57 27 0 4 7 8 15 8 9 0 18 7
22 16 3 8 16 19 28 24 13 5 32 28 43 52 63 135 75 167 79 203 2 22 7 69 11
104 9 68 -3 103 -55 167 -13 16 -28 44 -34 64 -22 65 -76 149 -96 150 -7 0
-16 7 -21 15 -4 9 -35 27 -68 40 -47 19 -76 24 -139 24 -44 -1 -88 -3 -97 -6z"/>
</g>
</svg>
