<?xml version="1.0" standalone="no"?>
<!DOCTYPE svg PUBLIC "-//W3C//DTD SVG 20010904//EN"
 "http://www.w3.org/TR/2001/REC-SVG-20010904/DTD/svg10.dtd">
<svg version="1.0" xmlns="http://www.w3.org/2000/svg"
 width="746.000000pt" height="790.000000pt" viewBox="0 0 746.000000 790.000000"
 preserveAspectRatio="xMidYMid meet">
<metadata>
Created by potrace 1.13, written by Peter Selinger 2001-2015
</metadata>
<g transform="translate(0.000000,790.000000) scale(0.100000,-0.100000)"
fill="#000000" stroke="none">
<path d="M4400 7370 c-11 -11 -20 -26 -20 -32 -1 -7 -2 -37 -4 -65 -2 -29 0
-53 5 -53 20 0 28 -76 24 -235 -3 -178 -13 -256 -44 -364 -11 -36 -22 -83 -25
-103 -8 -45 -43 -73 -106 -83 -25 -4 -61 -17 -80 -29 -33 -20 -46 -21 -239
-19 -174 2 -232 7 -390 33 -102 17 -205 40 -229 50 -23 11 -49 20 -57 20 -31
0 -134 81 -157 123 -47 83 -102 354 -99 486 0 35 -4 70 -10 77 -6 7 -8 21 -5
31 13 39 9 101 -6 117 -14 14 -27 14 -129 0 -127 -16 -179 -25 -289 -49 -62
-14 -111 -16 -290 -11 -206 6 -351 -3 -392 -24 -9 -5 -108 -6 -220 -3 -111 3
-270 5 -353 4 -82 -1 -193 3 -245 8 -52 6 -151 16 -218 22 l-124 12 -44 -47
c-24 -26 -42 -51 -40 -54 7 -12 25 -185 27 -262 1 -41 6 -80 11 -87 12 -16 9
-874 -6 -1573 -6 -235 -11 -297 -37 -440 -26 -145 -1 -187 89 -145 48 22 61
24 194 20 130 -3 173 -9 389 -52 16 -3 31 -17 41 -36 37 -77 58 -129 58 -142
0 -7 9 -29 19 -47 25 -42 45 -103 66 -198 9 -41 23 -93 31 -115 16 -47 18 -86
12 -290 -4 -118 -8 -158 -23 -186 -16 -34 -22 -37 -86 -48 -98 -16 -313 -14
-406 4 -43 9 -120 20 -171 25 -79 7 -97 6 -122 -8 -31 -18 -32 -21 -18 -132
12 -93 15 -119 23 -245 4 -55 11 -104 16 -110 5 -5 9 -82 9 -172 0 -109 4
-163 11 -163 6 0 8 -9 3 -22 -4 -13 -9 -183 -10 -378 -4 -468 -11 -787 -19
-830 -4 -19 -8 -82 -9 -140 -2 -58 -10 -152 -18 -210 -8 -58 -13 -150 -11
-205 2 -76 -1 -112 -15 -149 l-17 -49 24 -15 c31 -21 179 -24 291 -7 47 8 114
14 150 14 36 0 97 5 135 11 39 6 135 9 215 8 80 -1 303 1 495 6 402 8 428 8
461 -4 13 -5 54 -12 91 -16 38 -3 86 -12 108 -19 22 -7 83 -16 135 -20 52 -4
106 -13 120 -20 14 -7 57 -20 95 -29 39 -10 88 -26 109 -37 33 -17 44 -18 67
-9 27 11 28 14 22 63 -3 29 -9 59 -13 67 -5 8 -7 40 -5 70 10 179 16 261 25
310 5 30 12 73 15 95 3 22 10 64 15 94 6 30 10 73 10 96 0 43 13 65 40 65 9 0
21 5 28 12 6 6 31 12 55 13 71 4 131 16 147 30 8 7 49 16 90 20 117 11 142 15
185 27 45 13 191 11 217 -3 10 -6 44 -14 75 -20 61 -11 135 -36 191 -64 23
-12 31 -22 27 -33 -3 -8 0 -19 6 -23 18 -11 79 -201 79 -245 0 -9 6 -22 13
-28 21 -17 46 -94 53 -161 3 -33 11 -69 17 -80 6 -11 10 -24 9 -29 -2 -5 0
-16 4 -25 6 -14 11 -74 17 -209 3 -55 21 -67 63 -41 17 10 41 19 53 19 11 0
21 5 21 10 0 7 28 10 73 9 40 -1 121 8 182 19 61 12 141 22 178 22 37 0 103 7
145 16 93 20 381 25 427 7 38 -14 180 -31 361 -43 77 -5 152 -14 165 -20 31
-14 279 -59 389 -70 47 -5 106 -13 131 -18 72 -14 95 1 118 73 9 30 10 47 1
70 -22 58 -31 174 -34 465 -2 162 -5 300 -7 305 -2 6 0 48 4 95 4 47 10 166
13 265 9 236 12 310 14 310 3 0 11 108 14 180 3 127 16 273 32 368 8 48 12 92
9 97 -3 5 -1 11 5 15 6 4 8 11 5 16 -7 11 20 171 41 246 20 71 26 192 11 208
-7 7 -26 15 -42 18 -17 3 -59 13 -95 21 -36 9 -97 16 -136 16 -39 0 -96 5
-128 11 -31 5 -112 14 -179 19 -139 10 -240 31 -275 57 -27 20 -44 50 -62 108
-25 76 -10 360 25 495 4 14 9 40 11 57 2 18 10 53 19 78 8 25 15 57 15 72 0
23 12 67 42 158 5 17 13 46 18 65 21 99 48 114 210 117 63 1 133 3 155 4 55 1
229 -18 268 -30 18 -5 64 -14 102 -19 39 -5 78 -12 87 -16 38 -17 41 110 4
214 -9 25 -16 55 -16 67 0 13 -11 55 -24 95 -13 40 -27 107 -31 148 -3 41 -8
89 -10 105 -2 17 -5 68 -6 115 -1 47 -4 90 -8 95 -3 6 -7 93 -8 195 -2 241
-13 558 -27 755 -15 209 -18 283 -20 535 -3 261 -3 266 -27 302 -25 38 -37 47
-102 67 -28 10 -41 10 -52 1 -7 -6 -15 -7 -18 -3 -3 4 -49 4 -104 0 -165 -14
-207 -15 -226 -5 -12 6 -63 6 -141 -1 -89 -9 -142 -9 -196 0 -41 6 -93 11
-115 11 -22 -1 -84 6 -138 14 -54 8 -103 12 -109 8 -12 -8 -325 -7 -338 1 -5
3 -37 6 -72 6 -35 1 -80 7 -100 14 -22 7 -65 10 -110 7 -58 -3 -82 -1 -108 13
-18 9 -56 21 -84 26 -109 18 -122 21 -153 35 -49 22 -148 19 -173 -6z m995
-795 c22 -2 85 -6 140 -9 55 -4 107 -8 115 -11 8 -2 40 -6 70 -9 119 -13 232
-36 248 -53 7 -7 22 -13 32 -13 10 0 22 -5 25 -11 4 -6 12 -8 19 -6 20 8 52
-25 69 -73 16 -42 36 -350 34 -510 0 -30 0 -86 1 -125 2 -38 0 -104 -2 -145
-3 -41 -8 -118 -11 -171 -3 -53 -12 -134 -21 -180 -9 -46 -18 -102 -19 -124
-1 -22 -9 -88 -19 -148 -9 -59 -18 -136 -20 -172 -5 -77 -42 -166 -81 -191
-36 -23 -721 -139 -945 -159 -173 -16 -721 -24 -777 -11 -27 6 -33 13 -40 49
-9 48 -9 59 2 142 4 33 7 146 7 250 0 186 4 232 33 445 8 58 17 141 21 185 11
151 13 176 24 214 22 82 31 150 35 256 3 76 13 140 30 205 14 52 26 104 26
115 0 30 40 84 76 101 18 9 35 24 38 34 12 39 77 72 196 100 30 7 59 16 64 21
6 4 38 10 70 12 57 4 474 -2 560 -8z m-3315 -5 c11 -6 36 -7 62 -2 23 4 61 4
83 0 64 -13 257 -38 264 -34 5 3 52 -4 216 -34 33 -7 91 -14 129 -16 62 -4
116 -22 166 -53 8 -5 29 -15 47 -21 28 -11 34 -19 44 -66 7 -30 16 -57 21 -60
4 -3 8 -16 8 -29 0 -13 5 -27 10 -30 6 -3 10 -23 10 -44 0 -20 5 -42 11 -48 6
-6 14 -41 16 -77 3 -37 10 -69 14 -72 5 -3 9 -17 9 -32 0 -15 9 -65 20 -112
10 -47 25 -132 31 -190 20 -180 28 -242 44 -345 8 -55 17 -118 19 -140 2 -22
6 -47 9 -55 3 -8 8 -70 12 -138 3 -67 9 -132 11 -145 7 -26 23 -252 24 -321 0
-38 -3 -47 -15 -43 -8 4 -60 -1 -117 -9 -58 -9 -125 -13 -153 -10 -27 4 -149
9 -270 11 -271 6 -238 4 -375 26 -63 10 -142 20 -175 23 -33 3 -124 12 -203
20 -79 8 -149 13 -156 10 -8 -3 -30 2 -51 10 -21 9 -48 16 -62 16 -13 0 -43
10 -66 23 -23 13 -62 29 -86 36 -24 7 -49 17 -55 22 -6 5 -34 27 -62 49 -68
52 -61 35 -94 255 -7 44 -16 85 -21 91 -5 6 -11 38 -15 70 -3 32 -7 69 -10 81
-2 12 -7 55 -10 95 -3 40 -9 87 -14 103 -5 17 -9 65 -10 107 0 43 -4 88 -8
100 -5 13 -7 55 -6 93 2 39 3 115 2 170 -2 438 -2 468 17 573 9 48 56 98 103
107 15 3 41 10 57 15 17 5 128 9 247 9 139 -1 222 3 234 10 24 13 70 14 94 1z
m1263 -2906 l29 -6 -6 -121 c-4 -67 -9 -156 -13 -197 -8 -96 -7 -185 1 -199 4
-6 3 -19 -2 -28 -12 -23 -20 -76 -28 -188 -3 -49 -8 -93 -11 -97 -2 -5 0 -8 5
-8 5 0 5 -21 1 -47 -25 -148 -39 -262 -33 -277 3 -9 -3 -60 -15 -114 -23 -107
-36 -190 -32 -209 1 -7 -4 -48 -12 -90 -8 -43 -15 -118 -17 -168 -2 -49 -3
-106 -4 -125 -1 -20 -9 -47 -19 -60 -9 -13 -17 -32 -17 -42 0 -23 -37 -66 -75
-86 -16 -9 -68 -20 -115 -25 -167 -16 -226 -24 -275 -36 -175 -45 -160 -43
-310 -43 -27 1 -63 0 -80 -1 -16 0 -79 0 -140 1 -60 2 -157 3 -215 3 -58 0
-110 5 -117 11 -8 6 -18 6 -32 -1 -25 -14 -67 -14 -92 0 -11 6 -44 12 -72 14
-68 4 -136 18 -165 34 -46 25 -57 57 -59 176 -2 131 -2 133 0 188 0 23 0 80
-2 127 -1 47 3 137 10 200 6 63 13 178 14 255 1 77 6 154 9 170 4 17 7 52 7
79 0 28 7 93 15 145 8 53 19 132 25 176 6 44 21 109 34 145 13 36 29 90 36
120 6 30 15 69 19 85 3 17 16 35 29 41 12 6 32 21 45 33 15 14 35 21 62 21 40
0 116 20 169 44 27 12 219 30 288 27 15 -1 27 3 27 8 0 8 91 28 172 36 18 2
60 9 93 15 33 6 110 14 170 17 61 3 112 7 115 10 6 6 545 -6 583 -13z m1065
-55 c52 -8 77 -7 86 0 9 8 50 8 137 1 68 -5 144 -9 169 -9 25 1 63 -3 85 -9
54 -14 154 -25 245 -27 89 -2 249 -21 340 -41 8 -1 42 -8 75 -15 33 -7 62 -15
65 -19 3 -4 28 -12 55 -20 28 -7 60 -19 72 -26 11 -7 32 -16 45 -18 36 -8 126
-40 133 -48 4 -4 9 -40 12 -80 2 -40 8 -82 12 -93 21 -48 30 -108 36 -214 3
-62 8 -117 10 -121 8 -14 39 -390 39 -480 1 -141 -14 -398 -29 -515 -8 -60
-18 -157 -21 -215 -11 -173 -38 -200 -199 -199 -55 0 -131 4 -170 9 -38 5
-137 14 -220 20 -82 6 -208 20 -280 30 -71 11 -173 22 -225 26 -52 4 -102 10
-111 15 -9 4 -72 17 -140 29 -68 11 -135 23 -148 26 -39 9 -109 89 -116 132
-4 20 -10 51 -15 67 -4 17 -8 46 -9 66 0 20 -10 123 -21 230 -11 107 -23 232
-26 279 -3 47 -8 88 -10 91 -2 3 -8 63 -14 133 -5 70 -19 171 -30 224 -11 55
-19 136 -19 187 0 52 -6 107 -14 130 -11 30 -14 95 -14 250 -1 116 2 214 4
218 5 9 86 3 211 -14z"/>
</g>
</svg>
