<?xml version="1.0" standalone="no"?>
<!DOCTYPE svg PUBLIC "-//W3C//DTD SVG 20010904//EN"
 "http://www.w3.org/TR/2001/REC-SVG-20010904/DTD/svg10.dtd">
<svg version="1.0" xmlns="http://www.w3.org/2000/svg"
 width="601.000000pt" height="824.000000pt" viewBox="0 0 601.000000 824.000000"
 preserveAspectRatio="xMidYMid meet">
<metadata>
Created by potrace 1.13, written by Peter Selinger 2001-2015
</metadata>
<g transform="translate(0.000000,824.000000) scale(0.100000,-0.100000)"
fill="#000000" stroke="none">
<path d="M2192 7550 c-17 -23 -21 -39 -18 -72 2 -24 5 -43 6 -43 0 0 2 -20 3
-45 2 -25 10 -60 20 -79 9 -19 17 -46 17 -61 0 -15 7 -45 16 -66 9 -21 18 -50
20 -64 3 -14 9 -37 15 -52 6 -15 8 -31 5 -36 -3 -6 1 -26 9 -45 8 -19 11 -37
8 -41 -4 -3 -1 -6 6 -6 9 0 12 -9 9 -25 -3 -14 0 -29 7 -35 7 -6 12 -43 12
-97 1 -48 6 -99 11 -113 5 -14 13 -45 16 -70 10 -73 12 -79 19 -86 4 -4 7 -20
7 -35 0 -15 5 -31 10 -34 6 -3 10 -25 10 -48 0 -37 5 -64 26 -142 12 -48 21
-134 20 -202 -1 -40 3 -73 8 -73 5 0 5 -21 1 -47 -10 -67 -5 -137 14 -170 4
-9 4 -36 -1 -62 -6 -25 -10 -52 -11 -58 0 -10 -26 -12 -106 -8 -58 3 -123 7
-144 10 -20 2 -52 6 -70 9 -17 2 -75 11 -127 20 -52 9 -120 21 -150 26 -30 5
-65 7 -77 4 -13 -4 -23 -2 -23 3 0 5 -22 15 -50 22 -27 7 -50 16 -50 20 0 4
-25 14 -55 21 -30 7 -55 17 -55 22 0 4 -16 8 -35 8 -20 0 -52 7 -72 15 -21 9
-52 16 -71 17 -18 1 -35 5 -38 9 -2 4 -25 11 -49 15 -25 3 -48 10 -51 15 -3 5
-27 9 -54 9 -27 0 -51 4 -54 9 -3 5 -21 12 -39 15 -18 3 -49 15 -70 26 -20 11
-50 22 -65 23 -48 6 -132 38 -157 61 -13 12 -45 33 -70 46 l-47 24 -65 -34
c-70 -37 -103 -77 -103 -123 0 -38 15 -65 61 -110 38 -36 120 -163 141 -216 5
-14 31 -61 57 -105 48 -80 49 -82 54 -187 4 -58 9 -113 12 -121 3 -8 -1 -46
-10 -84 -9 -38 -25 -116 -35 -174 -11 -58 -24 -116 -29 -130 -5 -14 -14 -54
-20 -90 -7 -44 -17 -70 -31 -82 -11 -9 -20 -19 -20 -23 0 -4 -10 -24 -22 -44
-31 -50 -68 -141 -68 -169 0 -36 27 -80 60 -97 39 -20 79 -19 118 5 17 11 32
15 32 10 0 -6 17 -10 38 -10 42 0 102 32 102 55 0 8 21 24 48 35 26 12 60 28
76 37 16 9 44 18 63 20 18 2 45 9 60 15 16 6 34 12 42 14 34 7 131 47 131 55
0 4 19 13 43 20 23 6 61 20 84 30 24 11 51 19 61 19 10 0 54 9 98 21 43 11 92
23 108 25 17 2 32 8 35 13 7 10 130 49 181 57 19 3 38 8 42 10 14 9 153 31
165 27 7 -3 19 0 26 5 7 6 42 16 77 22 36 7 85 16 110 20 87 17 119 13 132
-16 9 -19 9 -33 0 -57 -9 -24 -9 -33 0 -38 14 -9 15 -82 5 -284 -4 -71 -7
-178 -7 -238 1 -59 -6 -145 -15 -190 -9 -46 -15 -108 -14 -138 3 -71 -8 -196
-21 -235 -6 -17 -10 -100 -9 -185 1 -85 -1 -172 -4 -194 -10 -65 -20 -168 -19
-195 4 -117 1 -172 -12 -214 -8 -27 -13 -53 -10 -58 3 -4 1 -8 -3 -8 -5 0 -10
-25 -11 -56 -1 -30 -4 -59 -7 -64 -3 -5 -1 -12 5 -15 6 -4 8 -16 5 -26 -4 -11
-8 -44 -11 -72 -4 -57 -6 -69 -30 -172 -8 -38 -17 -95 -18 -125 -1 -30 -12
-82 -23 -115 -20 -58 -26 -83 -60 -240 -8 -38 -22 -86 -30 -105 -8 -19 -46
-129 -85 -245 -38 -115 -76 -214 -84 -218 -34 -19 -65 -131 -70 -249 -1 -42
-7 -85 -13 -97 -37 -69 24 -161 106 -161 31 0 93 34 93 50 0 5 20 10 45 10 25
0 45 4 45 9 0 13 58 22 190 29 63 4 122 11 130 16 30 20 105 23 253 9 84 -7
186 -13 227 -13 140 -1 288 -19 338 -42 26 -11 58 -25 72 -31 14 -5 39 -15 55
-22 167 -73 273 -76 290 -6 4 14 13 33 20 41 20 23 21 62 2 91 -26 39 -37 85
-36 153 0 46 -7 79 -29 131 -16 39 -35 95 -42 125 -8 30 -17 60 -21 65 -15 22
-38 146 -44 240 -6 110 -14 165 -25 180 -12 18 -30 89 -46 184 -8 53 -26 116
-40 144 -16 30 -29 79 -34 126 -5 42 -14 96 -19 121 -6 25 -10 68 -11 97 0 28
-9 72 -20 99 -22 50 -28 101 -34 281 -3 94 -7 118 -26 147 -15 25 -23 56 -25
98 -1 35 -6 74 -9 88 -4 14 -3 61 2 105 7 61 6 91 -5 129 -8 26 -12 54 -9 61
2 7 0 17 -5 22 -6 6 -12 73 -14 149 -2 76 -8 173 -14 214 -6 48 -6 91 0 118 5
24 7 47 5 51 -3 4 -6 47 -7 96 -1 50 -6 95 -11 102 -5 7 -5 51 2 113 5 56 10
106 10 111 0 5 8 9 18 9 16 1 16 1 -1 11 -16 9 -17 24 -12 162 3 84 8 163 10
177 2 14 4 34 4 46 1 19 5 20 69 13 37 -4 112 -10 167 -14 55 -3 130 -15 167
-26 37 -12 89 -22 115 -24 55 -3 197 -21 234 -29 13 -3 59 -8 101 -10 69 -5
306 -71 384 -108 11 -5 36 -11 55 -13 19 -3 63 -12 99 -20 36 -9 75 -18 87
-20 12 -3 68 -29 125 -59 57 -30 108 -55 113 -56 6 -2 19 -9 30 -16 11 -7 46
-28 77 -47 32 -18 55 -36 52 -40 -3 -3 5 -11 17 -18 13 -6 32 -20 43 -30 31
-30 101 -26 131 7 37 40 37 88 -1 204 -14 41 -31 89 -39 107 -8 17 -15 37 -15
45 0 7 -18 48 -40 92 -33 62 -41 88 -39 125 2 50 -16 126 -31 136 -6 3 -10 21
-10 38 0 18 -7 66 -16 107 -21 98 -25 283 -6 330 7 19 16 69 19 110 4 52 15
96 35 143 16 38 31 77 33 87 2 10 8 26 13 36 5 11 17 36 27 57 10 20 33 49 52
63 23 17 33 33 33 52 1 15 7 38 15 52 15 27 19 78 7 97 -8 12 -65 25 -122 27
-31 1 -39 -3 -48 -24 -10 -22 -127 -103 -212 -148 -13 -7 -27 -17 -30 -22 -6
-10 -165 -85 -220 -105 -21 -7 -41 -11 -45 -7 -3 4 -9 2 -13 -4 -10 -16 -61
-40 -99 -49 -18 -3 -33 -10 -33 -13 0 -10 -49 -30 -100 -41 -25 -6 -67 -17
-95 -25 -27 -8 -79 -23 -115 -32 -36 -9 -74 -20 -85 -25 -11 -4 -85 -15 -165
-24 -148 -16 -236 -32 -256 -47 -6 -5 -29 -10 -50 -13 -22 -2 -75 -9 -119 -15
-185 -25 -192 -25 -200 -1 -3 11 -3 26 0 31 4 6 8 59 10 118 3 98 10 141 62
365 11 48 12 72 5 79 -6 6 -7 19 -3 32 5 11 9 44 10 73 0 28 5 72 11 98 6 25
8 50 6 54 -3 4 -1 25 4 47 5 21 11 64 15 94 3 30 7 66 10 80 3 14 7 41 10 60
2 19 14 78 26 130 12 52 23 118 24 145 4 55 24 110 61 164 17 25 24 50 24 81
0 44 29 110 49 110 23 0 35 74 15 91 -33 27 -261 6 -335 -31 -26 -14 -75 -25
-133 -31 -50 -5 -129 -13 -175 -18 -47 -5 -98 -5 -113 0 -16 4 -123 9 -239 10
-184 2 -216 4 -250 21 -24 11 -58 18 -87 17 -66 -2 -118 9 -184 42 -32 16 -61
29 -66 29 -4 0 -18 -13 -30 -30z"/>
<path d="M4420 6901 c-8 -6 -29 -11 -46 -11 -22 0 -41 -10 -67 -37 -20 -20
-37 -39 -37 -42 0 -3 -9 -47 -19 -98 -19 -96 -20 -128 -3 -159 12 -22 51 -57
82 -74 27 -14 138 -10 165 6 11 7 39 18 61 24 31 9 51 25 78 60 20 26 36 51
36 56 0 5 9 20 19 34 18 22 18 27 5 52 -8 16 -13 32 -10 37 3 4 -4 26 -15 49
-15 30 -33 47 -67 63 -26 13 -49 26 -52 30 -9 13 -114 21 -130 10z"/>
<path d="M1495 6771 c-57 -15 -141 -70 -156 -101 -6 -14 -16 -33 -21 -44 -5
-10 -12 -35 -14 -55 -7 -63 -14 -81 -32 -81 -9 -1 0 -7 21 -15 21 -7 59 -34
83 -59 31 -33 52 -46 71 -46 16 -1 39 -7 52 -14 27 -15 29 -15 118 42 29 18
65 49 80 70 16 20 36 43 47 51 10 7 24 29 32 47 15 36 19 94 6 94 -4 0 -16 16
-26 35 -29 54 -76 78 -160 81 -39 2 -84 0 -101 -5z"/>
<path d="M4123 4069 c-56 -22 -138 -102 -149 -146 -9 -33 14 -139 39 -185 30
-56 116 -109 186 -115 52 -5 59 -3 98 28 23 19 42 39 42 46 1 6 16 22 34 34
17 13 33 27 35 31 2 4 14 24 28 43 38 57 22 100 -74 193 -43 41 -87 78 -100
83 -36 14 -82 10 -139 -12z"/>
<path d="M1837 3954 c-3 -4 -35 -8 -69 -10 -105 -5 -134 -17 -162 -66 -10 -15
-22 -28 -27 -28 -6 0 -8 -4 -5 -9 3 -4 -3 -19 -14 -31 -11 -13 -20 -27 -20
-32 0 -6 -14 -39 -30 -75 -20 -42 -28 -73 -24 -87 7 -24 45 -59 89 -82 17 -9
41 -29 55 -44 36 -41 84 -43 140 -8 42 27 97 48 126 48 22 0 63 39 84 79 7 13
12 51 12 85 0 38 7 75 18 98 13 28 15 38 5 42 -7 2 -17 22 -22 43 -11 47 -60
83 -113 83 -20 0 -40 -3 -43 -6z"/>
</g>
</svg>
