<?xml version="1.0" standalone="no"?>
<!DOCTYPE svg PUBLIC "-//W3C//DTD SVG 20010904//EN"
 "http://www.w3.org/TR/2001/REC-SVG-20010904/DTD/svg10.dtd">
<svg version="1.0" xmlns="http://www.w3.org/2000/svg"
 width="697.000000pt" height="1184.000000pt" viewBox="0 0 697.000000 1184.000000"
 preserveAspectRatio="xMidYMid meet">
<metadata>
Created by potrace 1.13, written by Peter Selinger 2001-2015
</metadata>
<g transform="translate(0.000000,1184.000000) scale(0.100000,-0.100000)"
fill="#000000" stroke="none">
<path d="M3333 10922 c-17 -4 -52 -21 -76 -38 -42 -30 -45 -35 -51 -90 -4 -33
-9 -70 -10 -84 -2 -14 -11 -43 -21 -65 -9 -22 -19 -49 -21 -61 -2 -12 -10 -39
-18 -62 -8 -22 -12 -43 -9 -46 3 -3 -2 -26 -11 -50 -14 -38 -29 -53 -56 -61
-3 0 -15 -4 -28 -9 -12 -4 -37 -3 -55 3 -28 9 -115 15 -157 11 -8 -1 -41 3
-73 10 -66 13 -88 8 -122 -26 -21 -21 -24 -32 -24 -101 1 -43 -4 -89 -9 -103
-6 -16 -6 -34 0 -50 5 -14 11 -34 14 -45 2 -11 6 -32 10 -47 3 -15 7 -42 9
-61 3 -39 24 -82 54 -114 23 -24 74 -41 137 -45 21 -2 41 -6 44 -10 8 -10 108
-12 160 -4 72 12 88 -9 95 -124 3 -50 8 -104 20 -185 6 -45 -13 -94 -38 -100
-12 -3 -51 -10 -87 -15 -36 -5 -86 -13 -112 -18 -29 -5 -48 -5 -48 0 0 5 -4 7
-9 3 -5 -3 -83 -6 -173 -8 -90 -1 -166 -6 -170 -11 -4 -6 -12 -5 -20 2 -15 12
-65 7 -84 -9 -6 -5 -13 -7 -16 -4 -17 18 -323 22 -385 6 -75 -20 -129 -22
-211 -8 -54 10 -95 12 -120 6 -20 -4 -66 -9 -102 -9 -36 -1 -74 -1 -85 -2 -11
0 -36 1 -55 1 -45 2 -115 -5 -127 -12 -5 -3 -50 -6 -99 -7 -49 0 -122 -2 -163
-5 -44 -3 -80 0 -87 6 -7 6 -23 8 -36 4 -32 -10 -107 -67 -108 -82 0 -7 -5
-13 -11 -13 -6 0 -9 -12 -8 -27 2 -16 -5 -44 -14 -63 -39 -83 -48 -218 -17
-255 12 -15 19 -53 27 -152 6 -83 37 -105 128 -90 22 4 65 9 95 12 30 3 87 12
125 20 39 8 121 14 183 14 62 0 116 2 120 5 4 2 55 7 113 10 58 4 119 10 136
15 17 5 73 7 125 4 194 -12 492 -5 540 12 38 13 89 18 258 21 210 5 251 7 370
22 137 18 146 16 164 -32 9 -23 16 -47 16 -54 0 -7 5 -12 11 -12 6 0 8 -9 4
-21 -4 -12 -2 -39 5 -60 10 -30 10 -42 1 -53 -9 -10 -9 -16 -1 -21 12 -8 9
-122 -4 -143 -4 -7 -3 -12 1 -12 5 0 9 -17 10 -37 0 -21 4 -92 8 -158 4 -66 7
-126 8 -132 0 -7 3 -13 7 -13 7 0 10 -57 9 -160 -2 -164 -5 -240 -9 -240 -3 0
-4 -37 -2 -83 3 -80 11 -348 12 -397 1 -25 -8 -222 -15 -340 -2 -36 -6 -75 -9
-87 -2 -11 -8 -42 -11 -67 -4 -25 -12 -46 -17 -46 -5 0 -6 -10 -2 -22 9 -28 8
-323 -1 -337 -3 -6 -1 -11 5 -11 7 0 9 -8 4 -22 -12 -37 -15 -119 -17 -371 -1
-132 2 -241 6 -244 4 -3 3 -10 -2 -17 -6 -7 -8 -23 -5 -37 3 -13 7 -58 9 -99
1 -41 5 -95 8 -120 10 -89 19 -205 17 -220 -5 -38 -6 -369 0 -442 3 -51 1 -93
-6 -115 -12 -35 -27 -97 -28 -122 -1 -20 -53 -23 -60 -4 -4 8 -13 13 -21 9
-14 -5 -41 4 -183 62 -67 27 -142 33 -165 13 -8 -6 -20 -33 -27 -59 -8 -26
-20 -57 -28 -69 -10 -16 -12 -34 -7 -60 4 -21 9 -49 12 -63 7 -42 8 -209 0
-216 -4 -4 -5 -24 -2 -43 19 -117 51 -161 120 -161 29 0 55 -9 88 -30 26 -16
50 -30 53 -30 3 0 17 -11 32 -25 15 -14 55 -34 90 -46 35 -12 77 -34 93 -50
16 -16 34 -29 39 -29 6 0 10 -4 10 -9 0 -5 5 -22 12 -38 11 -27 13 -76 19
-338 2 -113 -6 -414 -16 -570 -2 -38 -6 -137 -8 -220 -8 -246 -34 -305 -147
-330 -16 -4 -30 -11 -30 -17 0 -6 -11 -8 -25 -6 -14 3 -25 2 -25 -1 0 -4 -19
-11 -42 -17 -32 -7 -48 -17 -65 -44 -13 -19 -28 -41 -34 -48 -6 -8 -11 -32
-11 -55 1 -23 -4 -47 -10 -54 -5 -7 -8 -18 -5 -25 7 -20 -39 -103 -67 -122
-14 -9 -26 -13 -26 -9 0 5 -5 1 -10 -7 -7 -11 -12 -12 -18 -3 -4 7 -25 10 -52
8 -25 -2 -51 2 -59 8 -8 7 -17 10 -20 9 -3 -2 -13 16 -21 40 -9 23 -28 68 -43
98 -14 31 -27 71 -28 90 -2 19 -7 40 -11 47 -5 6 -11 38 -13 70 -2 32 -9 92
-14 133 -6 41 -13 107 -15 145 -3 39 -12 84 -20 100 -9 17 -16 45 -16 63 0 17
-5 32 -10 32 -6 0 -10 6 -8 12 2 7 -2 31 -9 53 -21 74 -61 268 -67 327 -2 15
-9 34 -16 43 -9 11 -9 19 -2 28 8 10 6 22 -10 48 -12 18 -22 52 -24 74 -4 69
-40 259 -62 330 -18 58 -24 90 -24 125 0 13 -8 36 -19 51 -10 15 -24 51 -30
80 -6 30 -15 59 -19 64 -11 15 -31 105 -26 114 10 15 -34 215 -73 330 -11 35
-21 79 -21 97 0 18 -4 35 -9 38 -4 3 -7 21 -4 41 2 19 -1 35 -6 35 -11 0 -42
92 -47 140 -2 19 -6 64 -9 100 -3 35 -12 78 -20 95 -7 16 -16 52 -20 78 -3 27
-12 59 -20 70 -14 23 -27 68 -44 157 -24 120 -37 168 -53 193 -27 40 -47 144
-53 264 -2 40 -7 83 -11 95 -4 13 -8 37 -9 53 -2 32 -19 91 -40 140 -8 17 -20
46 -29 65 -8 19 -22 73 -31 120 -24 124 -27 141 -26 185 1 22 -6 54 -14 71 -8
16 -17 49 -21 72 -4 24 -11 45 -15 48 -5 3 -9 17 -9 32 0 15 -11 58 -25 96
-14 38 -25 86 -24 105 1 20 -6 70 -15 111 -31 142 -36 176 -34 211 1 18 -1 51
-5 71 -8 36 -6 39 25 52 18 7 57 24 87 37 78 34 171 130 171 177 0 31 -49 72
-94 78 -34 5 -53 19 -107 74 -37 37 -70 74 -75 83 -5 8 -35 42 -66 76 -32 34
-58 68 -58 76 0 8 -8 20 -17 27 -28 20 -50 67 -63 133 -18 91 -62 128 -139
118 -64 -9 -83 -43 -79 -150 2 -63 0 -84 -11 -88 -11 -4 -11 -8 -1 -20 7 -8 8
-15 3 -15 -6 0 -10 -47 -11 -112 0 -121 -4 -157 -16 -176 -10 -17 -17 -55 -21
-116 -2 -37 -8 -53 -28 -70 -70 -59 -58 -164 24 -196 19 -7 46 -24 60 -37 22
-21 34 -24 72 -20 55 6 66 -4 97 -83 12 -30 21 -56 21 -57 -1 -2 -1 -4 0 -5 6
-21 5 -38 -2 -38 -5 0 -9 -7 -9 -15 0 -8 6 -15 14 -15 14 0 24 -33 32 -115 3
-27 12 -64 19 -81 21 -45 87 -310 92 -369 4 -44 24 -130 54 -235 6 -19 10 -44
10 -55 0 -10 4 -24 8 -30 4 -5 14 -32 20 -59 7 -28 23 -73 36 -100 14 -31 26
-81 30 -126 11 -132 15 -164 21 -190 3 -14 8 -38 11 -55 2 -16 7 -37 10 -45 3
-8 7 -22 9 -30 2 -8 7 -23 12 -35 25 -52 42 -108 42 -140 0 -18 5 -37 10 -40
6 -3 10 -16 10 -29 0 -12 3 -26 7 -30 4 -3 8 -16 10 -29 2 -12 8 -26 13 -31 6
-6 10 -19 10 -31 0 -12 4 -25 9 -30 15 -15 43 -124 47 -177 1 -26 6 -53 10
-60 4 -6 8 -39 9 -72 1 -41 11 -82 28 -123 15 -34 27 -69 27 -78 0 -8 4 -15 9
-15 5 0 13 -29 16 -65 4 -36 11 -65 15 -65 8 0 32 -106 36 -155 1 -16 9 -53
17 -82 8 -28 13 -54 10 -56 -5 -5 41 -196 56 -232 19 -46 29 -93 29 -132 -1
-25 7 -52 19 -70 19 -27 30 -63 39 -128 2 -16 9 -43 14 -60 9 -29 20 -124 25
-213 1 -23 5 -46 9 -49 3 -3 6 -16 6 -27 0 -12 9 -45 19 -73 10 -29 17 -54 14
-57 -3 -2 5 -44 16 -93 11 -48 22 -104 24 -123 2 -20 12 -50 21 -69 10 -18 19
-42 20 -54 6 -41 19 -87 26 -92 4 -2 6 -25 4 -50 -2 -25 0 -45 5 -45 5 0 9
-17 8 -38 0 -36 11 -99 39 -217 8 -33 16 -85 18 -115 2 -30 9 -82 15 -115 6
-33 13 -76 16 -95 7 -52 14 -87 24 -112 4 -13 6 -29 4 -35 -3 -7 1 -30 8 -50
28 -85 17 -197 -22 -221 -32 -20 -139 -38 -139 -23 0 3 -63 6 -141 6 l-141 0
-24 -28 c-13 -15 -24 -38 -24 -51 0 -13 -7 -37 -16 -55 -9 -18 -18 -60 -20
-94 -2 -34 -6 -80 -10 -101 -7 -42 19 -148 43 -177 7 -8 13 -20 13 -25 1 -20
57 -75 85 -83 53 -15 96 7 124 62 20 40 21 50 10 64 -11 13 -11 17 -1 20 7 3
12 24 12 58 0 34 5 57 15 65 8 7 15 34 17 63 l3 52 105 -4 c58 -2 123 1 145 7
22 6 66 13 98 17 103 12 131 65 129 243 l-2 103 27 10 c15 5 50 7 77 4 28 -3
94 -2 147 3 l97 9 57 49 c64 56 76 79 94 184 25 149 21 140 74 160 26 10 47
14 47 9 0 -12 173 -1 255 17 54 12 95 14 180 8 60 -4 114 -7 120 -5 27 7 79
11 167 13 92 1 99 0 120 -23 36 -40 50 -72 53 -130 5 -67 21 -175 29 -188 4
-5 32 -24 62 -42 l57 -32 172 -1 172 -1 11 -24 c7 -14 12 -37 12 -53 0 -29 32
-96 56 -114 7 -6 19 -34 25 -62 6 -29 15 -54 20 -58 5 -3 9 -14 9 -24 0 -10
15 -29 33 -42 17 -12 41 -31 52 -41 34 -32 62 -37 194 -32 l129 5 17 -42 c24
-56 25 -61 31 -142 5 -60 10 -74 37 -103 33 -34 70 -43 107 -23 24 13 76 106
83 150 4 19 2 55 -4 80 -5 25 -11 86 -13 136 -3 73 -8 100 -26 132 -34 60 -78
75 -217 73 -69 -1 -114 2 -118 8 -3 6 -19 11 -36 11 -20 0 -40 11 -67 38 -21
21 -39 45 -40 53 0 8 -8 35 -17 60 -16 45 -16 47 9 102 27 59 32 92 16 102
-15 9 -12 210 4 290 8 39 17 96 21 128 3 33 10 69 15 82 5 13 12 52 16 87 3
34 10 68 14 73 4 6 11 29 15 52 4 24 10 43 15 43 4 0 8 39 9 88 1 48 6 119 12
157 5 39 14 112 19 164 5 52 13 97 18 100 5 3 9 29 9 56 -1 152 31 420 57 485
8 19 20 94 27 165 19 212 21 225 29 225 4 0 10 22 14 49 3 27 13 54 20 60 8 7
20 42 26 79 14 74 15 84 30 264 6 86 16 141 29 170 11 24 22 59 25 79 4 21 13
50 21 65 11 25 36 227 33 274 -1 8 8 53 20 100 48 190 65 268 69 328 3 34 9
62 14 62 6 0 8 4 5 8 -3 4 0 26 5 48 5 21 11 46 14 56 2 9 6 38 10 65 4 26 14
82 22 123 9 41 17 84 18 95 2 11 4 21 5 23 2 1 4 14 5 30 5 42 36 156 44 162
4 3 11 31 15 64 3 32 11 66 16 77 6 10 13 66 15 125 3 59 9 112 14 118 4 6 11
33 15 60 3 27 13 57 22 67 8 9 19 42 23 72 4 31 13 62 19 70 9 11 27 130 35
229 1 10 4 18 8 18 3 0 9 23 13 51 4 28 11 58 15 67 5 10 13 28 19 42 7 18 22
28 55 37 34 9 46 18 51 37 3 14 15 28 27 31 58 19 159 155 159 214 0 18 5 41
10 51 18 34 42 183 44 271 1 83 0 89 -30 125 -33 41 -168 116 -234 130 -19 4
-41 8 -48 10 -7 1 -39 -9 -70 -24 -31 -14 -85 -33 -118 -42 -69 -17 -129 -61
-139 -103 -4 -15 -11 -27 -16 -27 -5 0 -18 -17 -29 -37 -11 -21 -24 -45 -30
-53 -31 -51 -43 -96 -43 -172 0 -62 4 -84 16 -93 9 -6 19 -24 23 -41 9 -37 41
-100 69 -139 30 -40 39 -71 37 -125 0 -25 -2 -47 -3 -50 -1 -3 -3 -9 -4 -15
-1 -5 -8 -23 -14 -40 -7 -16 -15 -50 -18 -75 -2 -25 -5 -57 -7 -71 -1 -14 -5
-30 -9 -36 -3 -5 -3 -23 2 -39 5 -17 3 -51 -5 -84 -6 -30 -15 -82 -19 -115 -3
-33 -11 -62 -16 -63 -5 -2 -7 -8 -3 -13 3 -5 1 -9 -4 -9 -6 0 -10 -10 -10 -22
1 -13 -2 -50 -6 -83 -4 -33 -8 -100 -9 -148 -2 -62 -6 -90 -16 -96 -8 -5 -12
-18 -8 -30 3 -12 1 -23 -3 -26 -5 -3 -8 -24 -7 -46 1 -22 -4 -43 -9 -47 -10
-6 -33 -85 -40 -132 -1 -8 -12 -69 -24 -135 -11 -66 -25 -144 -30 -174 -5 -30
-14 -59 -20 -65 -5 -5 -10 -28 -10 -51 0 -23 -4 -45 -9 -50 -8 -9 -19 -67 -26
-140 -1 -11 -5 -31 -8 -45 -3 -14 -9 -50 -12 -80 -3 -30 -10 -75 -15 -100 -17
-83 -38 -168 -43 -177 -3 -4 -8 -40 -12 -78 -8 -95 -16 -148 -24 -160 -3 -5
-7 -21 -8 -35 -1 -14 -5 -38 -8 -55 -3 -16 -7 -36 -7 -42 -1 -7 -4 -13 -8 -13
-4 0 -10 -19 -14 -42 -4 -24 -8 -54 -11 -68 -2 -14 -8 -56 -14 -95 -13 -100
-43 -277 -48 -295 -3 -8 -7 -26 -9 -40 -6 -46 -10 -65 -20 -85 -6 -11 -10 -31
-9 -45 1 -14 -2 -30 -6 -35 -4 -6 -10 -35 -12 -65 -8 -80 -19 -144 -27 -155
-4 -5 -11 -30 -15 -55 -4 -25 -14 -58 -22 -73 -8 -16 -12 -31 -10 -34 3 -3 -1
-26 -8 -51 -12 -44 -22 -95 -32 -167 -2 -16 -6 -74 -8 -128 -3 -54 -7 -101 -9
-105 -2 -4 -7 -43 -11 -87 -3 -43 -9 -83 -12 -88 -3 -5 -7 -46 -8 -91 -4 -97
-40 -235 -86 -331 -6 -12 -8 -87 -6 -175 3 -141 -6 -230 -24 -230 -4 0 -10
-40 -14 -90 -4 -49 -12 -93 -19 -99 -24 -19 -105 -39 -183 -45 -80 -5 -83 -5
-99 19 -12 19 -14 34 -8 62 8 38 8 47 6 122 -2 37 -5 41 -52 63 -35 16 -53 32
-61 53 -6 17 -30 44 -53 61 -34 26 -53 32 -110 37 -47 3 -74 10 -81 21 -23 30
-36 175 -24 261 13 95 12 149 -2 230 -6 33 -12 174 -13 313 l-3 254 25 9 c17
7 28 6 32 -1 4 -6 14 -12 22 -14 8 -1 28 -11 44 -21 21 -15 47 -20 99 -21 39
-1 83 -7 98 -13 30 -12 135 -15 162 -5 27 11 47 63 52 138 3 39 12 88 19 110
8 21 14 49 14 62 0 13 4 24 8 24 10 0 11 7 17 85 4 72 -14 119 -53 133 -15 5
-64 24 -109 41 -45 17 -86 31 -91 31 -5 0 -19 12 -33 26 -34 37 -104 84 -125
84 -34 0 -159 43 -171 59 -7 9 -12 43 -11 81 1 36 0 87 -1 113 -2 26 2 54 8
61 6 7 8 16 4 20 -4 4 -8 39 -10 79 -1 40 -7 102 -13 139 -7 37 -8 77 -4 90 4
13 6 42 5 66 -1 24 2 49 8 56 13 15 7 294 -6 356 -5 19 -7 55 -7 80 6 197 1
521 -8 536 -6 8 -23 367 -20 414 1 20 9 528 10 655 1 55 -2 116 -6 135 -14 73
-4 248 16 269 7 7 10 21 7 31 -3 10 -8 29 -11 42 -5 24 -32 308 -33 343 -2
138 0 198 6 208 4 7 8 147 9 312 3 417 14 718 28 732 19 19 72 19 276 -4 64
-7 385 -6 545 2 72 3 154 -1 235 -11 88 -12 159 -14 240 -10 63 4 156 5 205 4
140 -4 240 -3 368 3 64 3 117 2 117 -3 0 -4 35 -8 78 -8 56 0 89 6 122 21 25
11 78 27 119 35 41 8 76 15 77 17 7 9 39 74 40 82 0 6 6 22 12 36 16 39 12 91
-9 118 -11 13 -19 31 -19 40 0 9 -18 42 -40 73 -21 32 -35 60 -31 63 5 3 -2
27 -15 55 -29 61 -79 91 -148 88 -25 -1 -46 -5 -46 -9 0 -3 -26 -5 -57 -3 -60
3 -385 11 -703 16 -115 2 -217 -1 -270 -9 -87 -13 -217 -10 -248 6 -19 10
-192 7 -294 -4 -36 -4 -75 -4 -85 0 -24 10 -33 12 -128 26 -76 10 -110 8 -242
-15 -13 -2 -23 0 -23 5 0 5 -5 9 -11 9 -6 0 -23 9 -38 20 -27 19 -28 21 -30
130 -1 61 2 116 6 123 4 7 8 30 9 52 0 22 3 54 7 71 l8 31 107 7 c185 11 264
26 308 55 l39 27 0 100 c0 54 4 108 9 119 25 61 28 81 23 133 -3 33 -16 78
-32 108 -21 42 -34 54 -66 64 -35 12 -46 11 -87 -3 -26 -10 -67 -17 -92 -17
-25 0 -61 -4 -80 -10 -27 -8 -44 -6 -77 6 -50 19 -50 20 -57 244 -8 230 -24
275 -112 305 -42 14 -67 16 -121 10 -67 -7 -171 -8 -288 -1 -33 2 -74 1 -92
-2z"/>
</g>
</svg>
