<?xml version="1.0" standalone="no"?>
<!DOCTYPE svg PUBLIC "-//W3C//DTD SVG 20010904//EN"
 "http://www.w3.org/TR/2001/REC-SVG-20010904/DTD/svg10.dtd">
<svg version="1.0" xmlns="http://www.w3.org/2000/svg"
 width="1092.000000pt" height="1104.000000pt" viewBox="0 0 1092.000000 1104.000000"
 preserveAspectRatio="xMidYMid meet">
<metadata>
Created by potrace 1.13, written by Peter Selinger 2001-2015
</metadata>
<g transform="translate(0.000000,1104.000000) scale(0.100000,-0.100000)"
fill="#e94e61" stroke="none">
<path d="M6270 10439 c-97 -20 -184 -51 -211 -74 -10 -10 -43 -19 -81 -22 -35
-3 -67 -9 -73 -13 -36 -26 -131 -35 -375 -34 -275 1 -368 10 -398 37 -27 25
-147 68 -212 77 -30 4 -71 14 -91 23 -23 9 -42 12 -50 6 -8 -5 -31 -9 -52 -9
-98 0 -155 -87 -112 -170 8 -16 21 -33 28 -37 8 -4 26 -39 41 -78 15 -38 34
-80 42 -92 7 -12 32 -68 55 -125 22 -57 47 -113 54 -124 37 -57 66 -154 76
-249 6 -55 15 -136 20 -180 4 -44 15 -150 24 -235 9 -85 20 -191 24 -235 26
-227 31 -304 30 -455 0 -91 1 -176 2 -190 1 -14 -2 -90 -6 -170 -5 -101 -4
-152 3 -167 8 -15 7 -152 -3 -509 -8 -269 -13 -608 -11 -754 2 -146 1 -283 -3
-305 l-6 -40 -134 -7 c-74 -3 -136 -10 -140 -15 -3 -5 -39 -15 -79 -23 -59
-11 -88 -11 -145 -2 -215 35 -447 41 -481 13 -18 -16 -332 -9 -421 9 -35 6
-187 13 -360 16 -345 5 -382 7 -565 28 -74 9 -162 18 -195 21 -33 4 -67 8 -74
11 -8 3 -35 7 -60 10 -25 3 -58 12 -73 20 -16 8 -32 13 -36 10 -4 -2 -50 7
-102 20 -52 14 -113 27 -135 30 -22 2 -58 17 -80 32 -73 51 -105 62 -265 87
-45 8 -154 52 -194 79 -21 14 -44 26 -50 26 -6 0 -29 9 -51 19 -22 11 -66 29
-97 41 -31 12 -59 28 -62 35 -10 26 -165 95 -214 95 -86 0 -140 -102 -92 -175
11 -16 25 -39 32 -50 41 -65 50 -74 63 -68 8 3 15 0 15 -6 0 -6 5 -11 11 -11
18 0 38 -32 39 -62 0 -15 8 -32 18 -37 9 -6 13 -11 9 -11 -4 0 3 -20 17 -44
13 -24 23 -46 21 -48 -2 -1 1 -26 6 -53 5 -28 12 -72 15 -100 2 -27 6 -68 9
-90 2 -22 5 -67 6 -100 1 -33 7 -69 14 -80 7 -12 13 -61 14 -119 0 -55 6 -116
11 -137 10 -35 8 -129 -4 -209 -3 -19 -7 -68 -11 -109 -7 -87 -26 -129 -66
-143 -16 -5 -29 -14 -29 -20 0 -5 4 -6 10 -3 5 3 11 1 11 -4 1 -6 2 -17 3 -23
2 -15 -47 -103 -69 -125 -8 -8 -15 -18 -15 -22 0 -4 -11 -21 -25 -37 -83 -96
-71 -174 33 -207 67 -20 112 -12 161 29 34 28 172 94 257 122 33 11 89 34 126
51 37 18 75 34 85 36 10 2 38 10 63 18 143 49 284 78 446 93 38 4 74 10 79 14
6 5 37 11 70 15 33 4 74 10 90 15 17 5 64 12 105 15 41 4 93 8 115 11 22 2 82
6 134 9 52 3 100 10 107 16 7 6 77 15 156 20 79 5 168 11 198 14 30 3 87 8
125 11 84 7 128 12 135 15 3 1 34 3 70 4 59 1 118 4 444 21 55 3 102 7 106 9
4 2 62 7 131 10 68 3 142 7 164 10 22 3 145 7 273 10 129 3 238 7 242 10 5 3
25 -1 44 -9 l34 -14 -4 -74 c-2 -40 -6 -98 -9 -128 -6 -68 -6 -188 0 -258 2
-29 0 -52 -6 -52 -5 0 -9 -9 -9 -20 0 -11 4 -20 9 -20 5 0 8 -22 8 -50 -1 -27
-5 -50 -9 -50 -5 0 -8 -17 -8 -38 0 -21 -5 -43 -12 -50 -6 -6 -12 -41 -14 -77
-1 -35 -5 -74 -9 -84 -3 -11 -1 -22 4 -26 7 -4 7 -14 0 -32 -5 -14 -8 -72 -6
-129 3 -77 0 -123 -14 -181 -24 -101 -29 -137 -34 -266 -3 -59 -10 -127 -17
-150 -6 -23 -11 -46 -9 -51 1 -5 -5 -6 -13 -3 -10 4 -14 -3 -14 -29 0 -19 4
-34 9 -34 9 0 7 -22 -4 -50 -18 -45 -32 -276 -18 -285 8 -4 8 -12 0 -27 -6
-12 -12 -52 -13 -90 0 -37 -5 -68 -9 -68 -5 0 -5 -5 -2 -10 4 -6 1 -27 -6 -47
-9 -28 -9 -38 0 -41 14 -5 15 -34 1 -48 -5 -5 -12 -59 -15 -119 -2 -61 -7
-126 -10 -145 -6 -31 -8 -83 -15 -325 -2 -38 -8 -73 -13 -77 -12 -7 -13 -17
-21 -223 -3 -77 -7 -160 -10 -185 -2 -25 -7 -73 -9 -107 -3 -34 -9 -68 -13
-75 -9 -14 -23 -96 -29 -173 -9 -117 -34 -195 -81 -260 -36 -50 -57 -143 -55
-244 1 -40 28 -69 73 -82 69 -19 167 -6 308 41 36 12 103 25 150 29 47 5 128
21 180 36 52 15 109 30 125 33 17 2 35 9 42 14 6 5 85 14 174 19 90 5 189 11
221 14 38 4 69 1 92 -9 19 -8 75 -17 123 -20 102 -7 120 -10 129 -19 4 -4 16
-7 26 -7 10 0 52 -18 92 -40 56 -31 84 -40 120 -40 37 0 131 16 143 24 1 1 14
27 27 58 l25 57 -25 23 c-14 13 -38 48 -54 78 -15 30 -38 61 -49 67 -19 12
-36 39 -87 137 -19 36 -39 108 -36 128 1 4 -6 26 -14 50 -9 24 -22 68 -30 98
-7 30 -18 73 -23 95 -20 76 -53 210 -62 245 -4 19 -17 62 -28 94 -12 33 -21
71 -21 85 -1 31 -21 118 -43 183 -9 26 -19 75 -22 110 -3 35 -7 83 -10 108 -3
25 -7 88 -11 140 -3 52 -10 113 -15 135 -16 68 -24 331 -10 339 8 5 9 12 3 19
-6 7 -12 73 -16 149 -3 79 -12 154 -20 179 -8 23 -13 46 -10 51 3 4 7 45 9 91
3 45 7 109 11 142 3 33 7 229 9 435 2 206 4 407 5 445 1 39 1 142 1 230 -1 88
-1 171 -1 185 0 14 0 45 -1 70 -1 53 9 162 17 169 12 12 253 17 337 7 27 -3
65 -2 85 2 20 4 59 5 85 2 27 -3 51 -2 54 3 3 5 53 6 112 2 58 -3 144 -8 191
-11 47 -2 110 -7 140 -11 55 -6 112 -7 290 -5 52 1 124 -2 160 -7 52 -8 162
-18 235 -23 6 -1 48 2 95 7 114 10 263 8 330 -5 106 -19 136 -22 245 -26 146
-5 189 -11 193 -23 2 -6 8 -11 13 -11 6 0 29 -9 52 -21 77 -39 153 -58 194
-49 20 5 43 5 51 1 8 -5 23 -6 33 -4 18 5 79 -17 79 -28 0 -3 18 -12 40 -19
22 -7 40 -16 40 -20 0 -4 11 -5 25 -2 14 2 35 -2 47 -10 13 -8 34 -17 48 -20
151 -32 186 -42 213 -59 41 -25 154 -79 165 -79 5 0 22 -14 38 -30 58 -61 97
-71 173 -44 65 22 79 32 96 64 23 44 19 73 -24 158 -22 42 -43 95 -47 117 -5
22 -8 159 -8 305 0 213 3 276 16 322 17 62 48 131 84 189 13 20 30 65 39 100
19 72 55 154 83 185 10 12 33 29 51 38 17 9 37 28 43 41 7 16 19 25 34 25 27
0 40 21 60 96 20 77 18 97 -12 125 -23 21 -35 24 -102 24 -66 -1 -88 -6 -157
-37 -56 -25 -100 -37 -149 -41 -37 -4 -78 -12 -90 -20 -28 -18 -112 -41 -124
-33 -5 3 -22 1 -38 -4 -53 -16 -139 -38 -179 -46 -22 -4 -47 -9 -55 -11 -8 -2
-33 -6 -55 -8 -22 -3 -53 -7 -70 -10 -16 -2 -84 -7 -150 -10 -166 -7 -221 -14
-285 -32 -40 -11 -108 -16 -250 -17 -121 -2 -212 -7 -239 -15 -27 -8 -66 -10
-105 -6 -68 8 -105 11 -221 20 -44 3 -85 8 -92 10 -6 2 -13 0 -15 -6 -2 -6
-21 -6 -53 0 -123 23 -313 12 -382 -21 -12 -6 -33 -8 -47 -4 -13 3 -28 2 -31
-4 -3 -5 -22 -10 -41 -10 -19 0 -48 -7 -64 -15 -30 -15 -72 -15 -415 3 -82 5
-156 4 -180 -2 -22 -5 -80 -10 -130 -12 -92 -2 -394 12 -401 19 -3 3 -12 289
-15 462 -1 58 11 115 25 115 7 0 7 3 -1 8 -19 12 -24 997 -6 1029 9 15 13 106
13 340 1 175 5 361 11 413 9 90 17 166 39 360 5 47 14 128 20 180 6 52 15 133
20 180 5 47 15 141 21 210 9 105 15 134 40 181 16 32 29 73 29 92 0 45 15 84
40 106 11 9 39 52 62 96 63 118 81 144 101 151 27 9 57 64 57 106 0 110 -69
136 -260 97z"/>
<path d="M7621 10249 c-35 -21 -66 -81 -56 -108 3 -9 6 -18 7 -21 1 -13 38
-78 51 -88 8 -7 18 -34 22 -60 8 -55 63 -163 106 -207 16 -17 29 -36 29 -42 0
-6 6 -18 13 -25 12 -13 15 -19 61 -120 39 -88 116 -441 116 -534 0 -65 -15
-72 -155 -69 -66 1 -133 8 -150 14 -16 7 -61 14 -100 17 -193 13 -293 24 -319
33 -17 7 -54 9 -92 5 -44 -5 -77 -2 -111 9 -26 8 -66 18 -88 22 -21 4 -56 15
-76 26 -51 26 -120 49 -146 49 -24 0 -93 -30 -93 -40 0 -4 -18 -15 -41 -25
-28 -13 -45 -29 -55 -53 -18 -45 -18 -47 11 -60 27 -12 48 -48 80 -137 13 -34
28 -60 36 -60 10 0 13 -10 11 -32 -2 -17 2 -34 8 -38 6 -3 8 -11 4 -16 -14
-23 -20 -104 -15 -214 2 -68 -5 -123 -22 -165 -4 -8 -11 -37 -17 -65 -6 -27
-16 -56 -23 -63 -16 -19 -47 -123 -41 -134 3 -5 1 -15 -5 -22 -6 -7 -11 -29
-11 -47 1 -19 1 -61 1 -93 -1 -72 16 -103 63 -111 36 -7 78 9 127 49 14 12 36
28 49 36 13 8 35 25 49 36 53 43 174 93 268 110 21 4 50 13 65 20 54 27 353
86 566 111 28 3 52 9 52 13 0 4 10 6 23 4 12 -2 43 -6 69 -9 37 -5 49 -11 54
-28 12 -34 12 -39 3 -90 -23 -123 -26 -134 -73 -257 -11 -30 -21 -57 -21 -60
-1 -3 -5 -30 -10 -60 -5 -30 -10 -59 -11 -65 0 -5 -3 -17 -7 -25 -3 -8 -7 -24
-10 -35 -3 -11 -17 -60 -31 -110 -15 -49 -29 -102 -31 -117 -5 -36 -26 -98
-42 -123 -7 -11 -13 -26 -13 -33 0 -19 -30 -83 -48 -104 -8 -10 -12 -18 -9
-18 7 0 -63 -138 -101 -200 -38 -61 -21 -135 38 -165 43 -22 79 -18 135 15 28
16 59 30 70 30 11 0 45 9 75 20 30 11 70 20 89 20 18 0 61 9 95 19 33 11 104
25 158 32 94 11 97 11 145 -14 31 -16 81 -29 143 -37 100 -13 133 -25 164 -59
11 -12 24 -21 31 -21 7 0 25 -6 41 -14 88 -43 121 -54 146 -49 33 6 81 51 74
69 -3 8 1 20 9 28 8 8 15 22 15 31 0 8 8 27 17 42 16 24 16 28 0 73 -9 26 -17
55 -17 63 0 9 -15 28 -33 44 -41 34 -83 120 -93 188 -4 28 -14 60 -22 73 -14
21 -37 114 -64 252 -5 30 -14 134 -18 230 -4 96 -11 191 -15 211 -7 39 14 95
39 105 8 3 16 23 20 45 6 36 15 45 41 39 6 -1 39 -3 75 -5 58 -2 115 -7 248
-21 43 -4 92 -28 92 -45 0 -5 7 -9 15 -9 8 0 15 -4 15 -10 0 -5 20 -18 45 -29
25 -11 52 -27 61 -35 8 -9 34 -21 57 -28 23 -6 52 -22 64 -35 12 -13 26 -23
31 -23 5 0 12 -9 15 -20 3 -14 11 -18 29 -15 15 3 34 -4 52 -20 16 -14 41 -25
55 -25 14 0 40 -7 56 -16 42 -23 167 -22 203 2 36 24 61 55 62 77 0 25 -26 73
-45 81 -8 3 -20 17 -26 30 -7 14 -21 26 -33 28 -15 2 -21 10 -21 30 -1 15 -8
35 -17 45 -38 43 -73 138 -83 226 -12 94 -12 121 -2 134 5 7 5 17 1 24 -4 7
-8 44 -9 83 -2 72 24 166 47 166 6 0 8 6 5 14 -3 8 2 32 13 53 10 21 32 68 48
104 17 37 44 82 60 100 16 19 32 44 36 56 4 12 22 32 39 44 18 13 44 35 59 49
26 26 28 31 21 89 -11 107 -47 130 -141 92 -57 -22 -120 -40 -187 -51 -64 -11
-80 -17 -137 -56 -50 -34 -189 -88 -252 -98 -21 -4 -42 -8 -46 -11 -4 -2 -43
-7 -86 -10 -98 -7 -204 -26 -204 -37 0 -4 -9 -8 -20 -8 -12 0 -32 -7 -46 -17
-16 -10 -48 -16 -87 -17 l-62 -1 3 40 c2 22 8 45 13 51 5 7 10 37 11 68 1 31
4 56 7 56 3 0 6 35 7 77 0 43 4 96 8 118 7 46 44 220 52 250 4 11 10 43 14 70
14 89 20 109 50 170 16 33 32 71 35 85 14 52 61 139 78 145 9 4 17 13 17 21 0
8 6 27 14 42 14 26 13 29 -22 58 -48 39 -64 45 -102 34 -17 -5 -85 -12 -153
-15 -89 -5 -134 -12 -166 -27 -33 -15 -80 -22 -205 -29 -90 -5 -181 -16 -207
-25 -84 -27 -162 -19 -251 27 -20 10 -43 19 -51 19 -7 0 -42 11 -78 25 -89 35
-232 42 -278 14z"/>
<path d="M3303 10156 c-18 -8 -55 -37 -83 -65 -28 -28 -53 -51 -56 -51 -2 0
-27 -14 -56 -32 -43 -27 -64 -33 -118 -35 -57 -2 -133 -9 -195 -17 -11 -1 -44
-8 -74 -16 -57 -13 -188 -9 -291 10 -30 6 -76 13 -101 16 -37 5 -56 15 -90 48
-24 22 -56 47 -71 53 -16 7 -28 19 -28 27 0 8 -14 26 -31 40 -24 20 -35 24
-49 16 -10 -6 -27 -10 -38 -10 -24 0 -44 -24 -64 -77 -15 -40 -15 -44 8 -90
27 -55 42 -79 67 -107 10 -11 20 -31 23 -43 4 -13 10 -23 14 -23 5 0 11 -13
15 -30 4 -16 13 -30 21 -30 8 0 14 -3 15 -7 0 -5 2 -18 3 -30 2 -13 10 -31 19
-41 9 -10 17 -26 17 -34 0 -9 6 -18 13 -21 7 -3 12 -19 11 -40 -2 -29 3 -37
25 -48 14 -7 29 -12 32 -11 7 1 18 -39 25 -87 1 -13 8 -27 14 -31 7 -4 10 -18
9 -31 -2 -13 2 -34 9 -46 7 -12 12 -32 12 -45 0 -13 4 -28 10 -34 5 -5 11 -61
14 -123 3 -80 8 -116 18 -122 10 -7 10 -9 0 -9 -9 0 -13 -14 -12 -42 0 -65 -2
-77 -15 -71 -7 2 -15 -3 -18 -11 -5 -14 -22 -15 -109 -12 -317 15 -337 17
-381 40 -38 21 -160 50 -247 61 -47 5 -154 37 -171 51 -8 7 -36 19 -64 29 -31
10 -60 29 -77 49 -48 58 -131 84 -159 50 -29 -35 -37 -129 -14 -155 10 -10 22
-19 28 -19 11 0 67 -59 67 -71 0 -19 24 -59 36 -59 6 0 22 -21 35 -47 27 -57
28 -63 30 -128 1 -27 4 -54 7 -59 8 -15 9 -129 1 -146 -18 -37 -38 -87 -44
-112 -4 -16 -11 -28 -16 -28 -5 0 -7 -14 -5 -30 2 -17 -2 -34 -8 -38 -14 -8
-51 -83 -48 -94 1 -5 -2 -8 -8 -8 -5 0 -10 -15 -10 -33 0 -18 -4 -37 -10 -43
-5 -5 -11 -18 -13 -29 -1 -11 -11 -33 -21 -48 -23 -34 -34 -117 -16 -117 7 0
10 -6 7 -14 -3 -8 6 -28 20 -45 21 -25 33 -31 66 -31 58 0 117 20 134 46 16
26 103 74 132 74 11 0 21 4 23 8 3 9 74 36 153 57 99 28 221 58 250 62 17 2
64 10 105 18 41 8 136 17 210 20 125 6 137 4 165 -14 17 -12 26 -21 20 -21 -5
0 -5 -4 2 -8 17 -11 26 -97 13 -122 -6 -11 -7 -20 -1 -20 5 0 7 -24 5 -52 -6
-72 -6 -170 1 -176 3 -3 0 -11 -5 -17 -6 -7 -12 -37 -14 -67 -2 -31 -7 -62
-12 -69 -5 -8 -9 -21 -10 -29 0 -8 -4 -42 -9 -75 -5 -33 -8 -70 -7 -82 1 -13
-2 -23 -8 -23 -5 0 -8 -16 -6 -37 2 -22 -4 -48 -14 -67 -10 -17 -21 -55 -24
-84 -4 -29 -18 -85 -32 -125 -14 -39 -27 -79 -29 -88 -2 -9 -8 -34 -14 -55 -6
-21 -9 -40 -6 -42 2 -2 -2 -11 -10 -19 -16 -15 -35 -76 -35 -110 0 -12 11 -34
25 -49 14 -15 25 -24 25 -20 0 4 9 2 19 -4 38 -20 98 -15 138 12 46 30 76 39
173 49 41 4 93 12 115 17 22 6 51 13 65 17 14 3 35 8 47 11 13 2 46 10 74 17
28 8 63 12 78 11 56 -7 139 -30 155 -43 9 -8 27 -15 39 -16 23 -2 71 -19 97
-34 40 -23 241 -32 248 -11 2 6 13 10 24 10 18 0 19 4 14 33 -4 17 -9 47 -13
65 -3 17 -16 42 -30 55 -13 12 -30 34 -38 48 -17 31 -55 170 -55 199 0 11 -4
20 -9 20 -5 0 -12 12 -16 28 -3 15 -13 34 -21 44 -17 17 -40 100 -54 189 -5
31 -16 76 -24 100 -22 65 -46 171 -40 180 3 5 -2 22 -11 39 -9 17 -15 50 -14
73 1 23 -4 67 -11 97 -6 30 -14 103 -17 161 -6 123 -19 111 127 111 105 -1
147 -7 200 -29 14 -6 42 -13 63 -16 20 -3 44 -10 52 -17 8 -7 15 -8 15 -3 0
14 123 -11 203 -41 37 -14 67 -22 67 -19 0 4 5 2 12 -5 7 -7 24 -12 38 -12 14
0 30 -4 36 -10 5 -5 18 -11 29 -13 11 -2 31 -9 45 -14 14 -6 30 -12 35 -13 6
-2 19 -14 31 -27 21 -25 105 -53 160 -53 17 0 46 10 65 23 31 21 34 28 32 67
-3 65 -34 120 -85 152 -50 33 -138 191 -138 250 0 10 -4 18 -9 18 -18 0 -23
41 -11 93 7 29 16 57 20 62 5 6 8 31 8 57 -1 36 6 58 32 100 43 67 219 288
229 288 5 0 14 13 20 28 16 39 0 109 -31 130 -37 26 -177 26 -258 -1 -36 -11
-67 -24 -70 -27 -6 -8 -105 -50 -145 -62 -95 -29 -247 -42 -336 -29 -69 10
-201 -7 -223 -29 -6 -6 -59 -10 -122 -10 l-111 0 -7 68 c-15 145 -15 204 -1
274 8 40 18 91 21 113 8 66 12 78 28 117 9 21 16 47 16 60 0 23 56 142 78 166
6 7 12 14 12 15 1 1 3 20 7 42 6 44 46 109 94 152 105 95 99 85 99 155 0 87
-14 104 -82 106 -29 1 -67 -5 -85 -12z"/>
<path d="M9700 10122 c-14 -2 -30 -8 -36 -13 -6 -5 -19 -6 -29 -3 -9 4 -20 3
-24 -2 -3 -5 -29 -24 -57 -42 -46 -29 -52 -37 -64 -86 -20 -86 11 -141 86
-153 22 -3 44 -10 50 -15 7 -5 20 -11 30 -13 11 -2 34 -8 52 -14 18 -5 40 -7
48 -4 8 3 14 -1 14 -8 0 -13 8 -5 62 60 10 12 29 21 43 21 34 0 45 27 45 108
0 62 -3 71 -24 85 -13 9 -30 22 -38 30 -34 35 -108 58 -158 49z"/>
<path d="M6936 10040 c-22 -11 -42 -24 -45 -29 -4 -5 -22 -28 -41 -51 -52 -64
-50 -113 10 -181 11 -13 29 -39 40 -56 22 -37 54 -48 107 -38 39 7 93 53 93
80 0 9 11 31 25 49 43 57 44 186 1 186 -8 0 -16 9 -19 20 -11 42 -105 53 -171
20z"/>
<path d="M1217 9866 c-21 -8 -47 -22 -59 -32 -24 -23 -62 -98 -50 -102 4 -1 6
-29 4 -63 -4 -48 -1 -64 14 -80 33 -36 73 -52 113 -43 20 4 50 6 68 5 42 -3
89 23 108 60 23 43 22 162 -1 205 -28 52 -125 77 -197 50z"/>
<path d="M3890 9822 c-75 -38 -122 -108 -117 -171 7 -78 24 -106 81 -130 71
-29 133 -28 180 4 20 14 41 25 47 25 25 0 70 33 85 61 36 70 -26 208 -93 209
-10 1 -29 7 -43 15 -38 22 -82 18 -140 -13z"/>
<path d="M1335 7388 c-31 -17 -74 -60 -90 -90 -22 -40 -18 -72 15 -137 38 -75
96 -116 179 -126 93 -11 128 15 166 122 16 44 17 58 6 93 -12 41 -77 117 -118
139 -28 14 -132 14 -158 -1z"/>
<path d="M9560 7300 c-121 -28 -144 -39 -165 -80 -19 -37 -19 -73 1 -111 8
-17 13 -33 10 -36 -12 -12 26 -77 66 -115 42 -39 44 -40 105 -36 l63 4 65 69
c68 73 105 134 105 176 0 33 -45 80 -107 112 -54 28 -81 31 -143 17z"/>
<path d="M4056 7260 c-26 -21 -52 -43 -59 -47 -62 -39 -78 -153 -29 -209 15
-17 39 -39 54 -48 26 -17 32 -17 110 -1 85 17 102 23 151 46 29 13 57 55 57
84 0 9 -9 35 -20 57 -11 23 -20 51 -20 62 0 24 -56 66 -109 84 -59 21 -86 15
-135 -28z"/>
<path d="M6653 7273 c-34 -17 -68 -77 -103 -181 -17 -53 -19 -69 -9 -100 11
-40 43 -62 88 -62 15 -1 37 -7 51 -15 43 -24 79 -17 162 31 90 53 113 86 104
143 -4 20 -8 52 -10 72 -8 75 -38 103 -108 100 -28 -1 -55 3 -62 8 -22 18 -80
21 -113 4z"/>
<path d="M3355 4890 c-27 -11 -72 -23 -100 -26 -49 -6 -170 -37 -210 -54 -60
-25 -240 -44 -302 -31 -26 5 -79 16 -118 24 -73 16 -138 20 -242 18 -50 -1
-67 -6 -92 -26 -17 -15 -28 -32 -25 -40 3 -8 -4 -28 -15 -44 -29 -40 -27 -51
18 -131 22 -39 38 -70 35 -70 -3 0 0 -8 5 -18 9 -17 26 -73 65 -217 8 -27 17
-70 21 -95 4 -25 11 -50 17 -56 10 -13 16 -38 24 -103 3 -25 7 -48 10 -52 24
-39 53 -383 36 -428 -4 -10 -20 -12 -66 -7 -34 3 -88 2 -121 -2 -73 -9 -280
26 -350 59 -11 6 -50 16 -85 24 -36 8 -74 17 -85 20 -11 4 -30 8 -43 11 -12 2
-37 13 -55 24 -17 11 -41 20 -52 20 -11 0 -42 12 -70 25 -27 14 -62 25 -77 25
-18 0 -33 9 -44 25 -13 20 -25 25 -56 25 -80 0 -117 -39 -118 -122 0 -47 5
-62 28 -90 15 -18 30 -34 35 -36 4 -2 7 -12 7 -23 0 -10 5 -19 10 -19 6 0 10
-9 10 -19 0 -11 5 -21 10 -23 6 -2 13 -26 16 -53 8 -83 10 -275 2 -275 -5 0
-8 -21 -8 -47 0 -65 -20 -176 -34 -188 -6 -5 -13 -39 -15 -75 -2 -36 -8 -73
-13 -84 -6 -10 -10 -59 -11 -109 0 -85 1 -92 26 -113 21 -18 115 -54 141 -54
3 0 20 13 38 29 18 15 51 34 73 42 22 7 47 18 55 25 8 6 29 14 45 17 79 14
176 37 185 42 6 3 18 8 27 10 10 2 54 12 98 23 86 22 157 33 220 36 22 1 85
11 140 21 113 21 146 17 163 -20 14 -30 16 -81 3 -89 -4 -3 -9 -34 -9 -69 -1
-36 -8 -96 -17 -133 -8 -38 -17 -94 -19 -124 -2 -30 -11 -76 -20 -102 -9 -26
-21 -72 -27 -102 -5 -31 -16 -68 -24 -83 -8 -16 -15 -36 -15 -45 0 -10 -11
-41 -24 -70 -14 -29 -34 -75 -46 -103 -13 -27 -40 -65 -61 -83 -21 -18 -38
-36 -37 -40 1 -4 -8 -37 -20 -74 -12 -37 -22 -79 -22 -94 0 -27 26 -90 41
-100 26 -16 82 -11 145 13 38 14 87 27 109 29 22 1 67 8 100 15 54 10 210 19
365 21 30 0 79 -7 109 -16 30 -9 74 -16 98 -16 24 0 60 -7 81 -16 59 -25 155
-54 180 -54 12 0 39 -9 60 -19 20 -10 41 -19 45 -19 4 -1 34 -17 66 -36 59
-36 106 -45 141 -26 24 13 76 108 78 143 2 37 -22 72 -69 99 -30 17 -40 29
-45 57 -4 20 -24 62 -45 95 -22 32 -39 64 -39 71 0 7 -14 39 -32 71 -17 32
-45 109 -61 169 -16 61 -36 132 -43 160 -8 27 -14 65 -14 83 0 19 -6 48 -14
65 -13 32 -76 245 -76 260 0 4 10 12 23 17 l22 9 -22 0 c-30 1 -44 31 -49 102
-4 62 -1 65 46 61 8 -1 44 -2 80 -2 42 -1 87 -10 128 -27 44 -16 73 -22 93
-18 16 4 35 2 42 -3 7 -6 28 -10 47 -10 43 -1 154 -34 235 -71 33 -16 74 -34
92 -40 17 -7 41 -23 54 -37 12 -13 28 -24 34 -24 17 0 88 58 102 83 15 28 17
112 2 139 -6 12 -11 76 -10 157 0 89 -5 160 -15 206 -25 112 -28 163 -11 204
9 20 25 70 37 111 12 41 32 111 45 155 13 44 29 105 36 135 7 30 26 89 44 131
l32 77 -47 22 c-58 27 -131 21 -185 -16 -58 -39 -181 -104 -197 -104 -8 0 -39
-13 -69 -30 -30 -16 -67 -30 -84 -30 -16 0 -68 -14 -115 -30 -47 -16 -100 -30
-119 -30 -19 0 -61 -9 -94 -21 -42 -15 -72 -19 -105 -15 -26 3 -69 8 -97 11
-95 11 -92 9 -99 75 -5 42 -3 72 8 103 8 24 19 93 25 153 5 61 15 123 21 138
5 15 8 32 4 37 -3 5 6 44 20 87 13 42 28 93 31 112 4 19 12 53 20 75 7 22 21
69 30 105 21 79 35 110 49 110 13 0 37 65 67 184 8 30 6 44 -6 62 -8 13 -21
21 -29 18 -8 -3 -17 -1 -21 5 -9 15 -33 13 -90 -9z"/>
<path d="M7390 4865 c0 0 -9 -24 -19 -53 l-19 -53 33 -57 c41 -69 85 -157 115
-232 12 -30 26 -62 31 -70 27 -43 47 -100 53 -145 4 -27 11 -61 17 -75 21 -54
45 -234 35 -262 -6 -18 -6 -49 0 -89 6 -35 7 -82 2 -112 -5 -29 -9 -58 -10
-64 -4 -33 -38 -46 -124 -48 -101 -3 -152 7 -214 39 -41 21 -53 23 -135 17
-92 -7 -170 5 -225 34 -14 8 -59 26 -100 41 -58 20 -86 38 -121 74 -26 26 -56
51 -68 55 -39 12 -102 -27 -130 -82 -13 -25 -31 -173 -21 -173 4 0 7 -13 7
-30 0 -16 8 -39 17 -49 12 -13 19 -40 21 -78 2 -32 10 -77 19 -100 8 -24 17
-64 21 -90 3 -26 8 -56 11 -65 9 -29 12 -138 3 -133 -15 10 -22 -18 -8 -29 14
-10 17 -61 5 -73 -3 -3 -1 -16 4 -29 7 -17 6 -24 -3 -24 -8 0 -8 -3 2 -9 9 -6
10 -10 2 -12 -6 -2 -12 -21 -13 -42 -1 -20 -4 -37 -8 -37 -8 0 -30 -61 -30
-83 0 -10 -4 -26 -10 -37 -5 -11 -14 -29 -20 -40 -5 -11 -10 -25 -10 -32 0 -6
-7 -20 -17 -30 -22 -25 -19 -73 9 -113 12 -19 24 -32 26 -30 2 2 20 -5 40 -15
67 -35 118 -11 198 92 26 34 134 100 195 121 24 8 63 15 86 15 41 1 188 37
208 52 24 18 168 44 255 47 159 5 230 4 239 -2 11 -6 23 -71 23 -121 0 -19 4
-37 9 -40 12 -7 12 -51 0 -58 -12 -8 -19 -85 -8 -89 4 -1 1 -19 -8 -39 -18
-45 -19 -62 -2 -52 6 4 3 -3 -8 -15 -11 -13 -15 -25 -10 -29 11 -7 11 -27 3
-52 -18 -49 -25 -93 -22 -129 2 -23 -1 -41 -6 -41 -5 0 -7 -16 -5 -36 3 -19 1
-33 -4 -30 -10 6 -24 -51 -15 -65 3 -5 0 -9 -5 -9 -6 0 -11 -10 -11 -23 0 -13
-5 -28 -11 -34 -6 -6 -12 -25 -14 -41 -1 -17 -9 -38 -18 -47 -10 -9 -18 -22
-18 -28 -3 -28 -5 -33 -23 -60 -15 -21 -16 -30 -6 -42 6 -8 8 -19 4 -26 -4 -7
-7 -26 -6 -43 1 -31 -45 -136 -60 -136 -14 0 -38 -59 -38 -93 0 -43 17 -63 58
-71 39 -7 82 9 135 52 24 20 59 35 95 42 31 6 74 20 94 30 32 17 58 19 207 17
94 -1 172 1 174 5 1 4 23 -3 48 -15 38 -20 106 -39 179 -52 8 -1 28 -7 43 -14
16 -6 33 -11 39 -11 5 0 36 -13 67 -29 31 -16 70 -34 86 -40 42 -15 174 -41
208 -41 33 0 79 24 95 50 15 25 0 73 -32 103 -14 14 -26 32 -26 41 0 9 -8 16
-18 16 -10 0 -24 10 -30 23 -11 22 -26 70 -24 74 1 2 -7 19 -18 38 -11 20 -20
40 -20 46 0 6 -6 25 -14 42 -8 18 -25 68 -37 112 -12 44 -29 89 -36 100 -15
25 -93 244 -93 264 0 8 -7 19 -16 25 -13 10 -21 67 -40 292 -28 330 -27 307
-12 298 7 -5 9 -2 6 8 -9 21 109 22 182 2 30 -9 75 -18 100 -20 50 -6 109 -22
127 -36 6 -5 41 -11 78 -13 90 -6 228 -26 240 -35 12 -10 114 -37 170 -46 51
-8 70 -18 104 -56 35 -39 72 -41 137 -7 82 42 107 120 62 196 -23 38 -26 53
-32 188 -2 39 -8 81 -14 95 -11 29 -5 300 8 345 5 17 11 53 15 80 3 28 8 65
10 84 2 19 24 64 49 100 56 83 90 187 75 231 -15 43 -82 80 -143 80 -26 0 -52
-4 -59 -10 -46 -38 -137 -100 -146 -100 -7 0 -10 -4 -7 -8 18 -30 -236 -152
-388 -187 -37 -8 -73 -18 -80 -22 -6 -4 -15 -8 -21 -9 -5 -1 -50 -9 -100 -18
-49 -9 -101 -18 -115 -21 -52 -10 -180 -13 -186 -4 -3 5 -9 7 -13 5 -4 -3 -8
24 -8 60 -1 52 2 64 14 64 12 0 13 3 4 14 -11 13 -12 27 -12 136 1 92 16 265
25 279 5 8 9 31 8 51 -1 20 8 57 20 81 21 44 92 238 107 294 4 17 20 48 34 69
15 21 27 47 27 57 0 10 5 30 12 44 14 31 5 42 -49 63 -71 26 -99 26 -147 -2
-25 -14 -55 -26 -68 -26 -13 0 -37 -9 -54 -19 -17 -10 -51 -21 -75 -24 -24 -3
-69 -11 -99 -18 -30 -6 -148 -14 -263 -16 -175 -3 -214 -1 -255 13 -26 9 -76
23 -112 30 -92 18 -159 44 -171 65 -16 30 -50 43 -127 49 -39 3 -72 5 -72 5z"/>
<path d="M4100 4790 c0 -5 -11 -10 -25 -10 -23 0 -95 -62 -95 -81 0 -4 -7 -15
-16 -23 -29 -30 -40 -120 -20 -168 16 -37 47 -63 60 -51 3 3 6 1 6 -5 0 -17
72 -15 112 2 18 7 51 19 73 26 63 20 141 84 155 125 10 30 9 41 -7 73 -16 29
-37 46 -99 79 -74 39 -144 55 -144 33z"/>
<path d="M6647 4723 c-32 -8 -147 -134 -147 -160 0 -58 65 -146 144 -197 28
-18 30 -18 82 4 106 44 164 80 171 108 16 60 9 99 -23 128 -16 16 -36 38 -44
50 -36 50 -123 82 -183 67z"/>
<path d="M9379 4626 c-53 -19 -110 -55 -141 -90 -35 -40 -36 -84 -3 -132 14
-20 25 -45 25 -55 0 -10 17 -36 38 -59 38 -39 66 -48 122 -40 15 2 105 44 150
70 43 26 82 72 74 89 -4 9 -10 34 -13 56 -4 22 -13 50 -19 62 -7 12 -12 30
-12 40 0 14 -20 24 -88 46 -100 31 -87 30 -133 13z"/>
<path d="M1515 4508 c-117 -73 -139 -129 -89 -217 48 -83 150 -165 178 -142 7
6 31 13 54 17 53 8 126 54 151 94 11 20 19 52 20 87 1 54 -1 58 -42 98 -23 23
-52 47 -65 54 -34 18 -182 25 -207 9z"/>
<path d="M4033 2058 c-12 -6 -29 -26 -39 -46 -21 -44 -10 -85 43 -161 73 -103
144 -115 253 -40 50 34 60 46 60 69 0 39 -20 81 -50 105 -14 11 -35 29 -47 41
-30 30 -178 51 -220 32z"/>
<path d="M9430 1991 c-67 -8 -95 -23 -114 -59 -8 -15 -26 -34 -40 -42 -36 -19
-40 -45 -16 -110 11 -30 20 -63 20 -72 0 -11 10 -20 28 -23 15 -4 39 -13 54
-21 31 -17 218 -20 218 -4 0 6 16 20 36 32 27 16 34 26 30 41 -3 11 4 47 14
78 11 32 20 65 20 73 0 22 -42 83 -66 94 -30 15 -120 21 -184 13z"/>
<path d="M6721 1930 c-27 -27 -41 -51 -42 -68 0 -15 -3 -47 -5 -72 -6 -51 3
-110 16 -110 5 0 21 -11 36 -25 31 -29 67 -32 138 -10 56 17 76 29 126 74 19
18 45 39 58 48 33 23 31 95 -3 127 -28 26 -156 67 -231 73 -50 5 -53 3 -93
-37z"/>
<path d="M1458 1912 c-97 -49 -110 -131 -37 -229 22 -29 45 -53 52 -53 7 -1
43 -5 80 -9 78 -10 123 -1 144 29 8 11 21 20 29 20 8 0 14 6 14 13 0 6 9 23
20 37 25 32 25 83 0 134 -28 58 -71 79 -170 82 -69 2 -87 -1 -132 -24z"/>
</g>
</svg>
