<?xml version="1.0" standalone="no"?>
<!DOCTYPE svg PUBLIC "-//W3C//DTD SVG 20010904//EN"
 "http://www.w3.org/TR/2001/REC-SVG-20010904/DTD/svg10.dtd">
<svg version="1.0" xmlns="http://www.w3.org/2000/svg"
 width="2007.000000pt" height="1995.000000pt" viewBox="0 0 2007.000000 1995.000000"
 preserveAspectRatio="xMidYMid meet">
<metadata>
Created by potrace 1.13, written by Peter Selinger 2001-2015
</metadata>
<g transform="translate(0.000000,1995.000000) scale(0.100000,-0.100000)"
fill="#000000" stroke="none">
<path d="M19038 19455 c-72 -15 -347 -29 -518 -26 -58 1 -168 -3 -245 -9 -414
-31 -431 -31 -795 -14 -353 17 -357 17 -679 -5 -316 -22 -400 -22 -736 -6
-329 16 -659 16 -850 1 -110 -9 -209 -19 -221 -21 -27 -6 -910 -28 -1064 -26
-150 1 -278 7 -475 23 -180 14 -546 15 -675 1 -48 -6 -116 -6 -155 -2 -78 9
-1490 4 -1505 -6 -10 -6 -796 -5 -895 2 -244 17 -381 18 -1245 7 -831 -11
-965 -11 -1110 -1 -122 8 -343 32 -423 46 -26 5 -213 9 -415 10 -202 0 -441 4
-532 7 -130 4 -182 2 -245 -10 -44 -9 -168 -23 -275 -31 -176 -13 -331 -18
-875 -30 -163 -3 -256 -12 -375 -37 -38 -8 -256 -13 -695 -14 -352 -1 -744 -3
-872 -3 -128 -1 -274 4 -325 10 -51 6 -122 13 -158 15 -36 2 -67 4 -70 5 -29
10 -693 16 -805 7 -131 -10 -112 -10 -255 -3 -231 11 -355 11 -362 0 -5 -7
-14 -6 -28 3 -23 14 -42 16 -20 2 11 -7 6 -10 -20 -10 -396 -6 -440 -10 -440
-44 0 -8 -8 -17 -18 -19 -14 -4 -13 -6 6 -12 18 -6 22 -12 17 -29 -4 -11 -12
-70 -19 -131 -7 -60 -18 -120 -25 -132 -6 -13 -10 -23 -7 -23 3 0 0 -15 -5
-32 -9 -31 -23 -135 -22 -168 2 -80 14 -244 19 -251 3 -5 2 -15 -3 -21 -9 -15
-10 -28 -19 -378 -13 -473 -10 -622 14 -785 8 -56 5 -880 -4 -965 -3 -30 -6
-71 -6 -90 -1 -47 0 -376 0 -420 1 -19 1 -172 2 -340 0 -168 5 -352 11 -410
15 -150 19 -349 8 -459 -14 -150 -17 -336 -7 -461 10 -137 11 -389 2 -555 -8
-147 -8 -242 0 -690 3 -192 6 -357 6 -365 0 -8 -2 -58 -5 -110 -5 -104 -5
-185 0 -775 4 -412 8 -521 24 -685 5 -52 9 -104 9 -115 0 -11 2 -103 5 -205 6
-192 19 -329 32 -351 5 -7 7 -37 6 -68 -1 -31 3 -71 8 -88 5 -18 6 -35 1 -38
-5 -3 -6 -74 -3 -158 3 -83 4 -158 4 -164 -4 -37 -3 -55 3 -131 3 -46 3 -89
-1 -95 -4 -7 -9 -32 -10 -57 -2 -48 -3 -607 -1 -805 1 -66 1 -158 0 -205 -2
-47 2 -130 8 -185 5 -55 14 -140 19 -190 5 -49 8 -101 5 -115 -10 -61 -29
-334 -28 -425 0 -33 3 -130 7 -215 15 -330 13 -424 -12 -590 -9 -60 -8 -219 2
-300 2 -19 9 -75 16 -125 20 -161 42 -473 41 -588 -1 -127 -2 -137 -17 -192
-19 -63 -25 -158 -24 -335 1 -252 10 -650 16 -695 2 -22 7 -96 9 -165 10 -312
20 -524 32 -675 4 -44 5 -161 4 -260 -2 -99 -1 -358 1 -575 5 -522 4 -762 -5
-950 -10 -220 -10 -316 -3 -558 4 -118 3 -231 -2 -253 -5 -23 -5 -56 0 -80 5
-23 11 -76 13 -118 2 -42 11 -111 21 -154 15 -67 21 -80 43 -88 15 -6 142 -9
301 -9 171 1 294 -2 324 -9 35 -8 72 -8 145 1 59 7 242 12 472 12 306 1 398
-3 499 -17 122 -17 238 -23 716 -32 132 -3 321 -10 420 -16 99 -6 243 -8 320
-4 86 4 204 2 305 -6 294 -23 585 -16 1025 22 391 34 424 35 805 34 353 -2
397 -5 545 -37 89 -20 459 -14 660 10 219 25 375 31 1015 36 272 2 524 8 560
13 36 6 96 7 135 2 66 -7 445 -4 600 5 39 2 99 4 135 4 175 2 756 3 840 2 265
-3 591 -11 635 -15 28 -3 66 -7 85 -8 19 -2 42 -6 50 -10 27 -13 605 6 885 29
155 12 194 14 595 18 340 3 504 9 635 20 11 1 30 -1 42 -6 13 -4 25 -3 29 3 4
8 32 9 83 4 42 -4 90 -6 106 -5 35 2 33 2 105 -3 30 -2 76 -1 102 3 30 4 51 3
58 -4 6 -6 55 -12 108 -14 53 -1 102 -3 107 -3 6 -1 55 2 110 6 55 3 147 6
205 5 249 -5 282 -5 287 3 4 7 234 3 463 -8 238 -11 368 -15 477 -14 65 0 129
0 143 0 475 -6 1153 -3 1220 4 30 4 78 6 105 5 76 -3 84 -2 175 4 158 10 244
17 360 30 140 16 187 17 168 4 -11 -7 51 -6 107 3 21 3 488 -12 495 -16 18
-11 557 -38 705 -35 49 1 93 20 46 20 -13 0 -20 4 -15 11 7 11 55 8 87 -6 14
-6 17 -2 17 23 0 16 7 49 16 73 23 62 42 240 36 334 -12 199 2 486 25 523 10
17 15 53 15 125 -1 56 2 145 4 197 13 247 14 458 5 845 -5 231 -12 438 -14
460 -3 22 -8 94 -12 160 -7 126 -12 203 -20 270 -15 137 -19 217 -18 350 0 83
4 164 7 180 12 55 24 279 20 365 -2 47 -6 191 -8 320 -3 129 -7 244 -10 255
-8 28 -26 316 -34 540 -12 328 -8 1349 6 1450 14 108 21 227 27 475 2 102 8
250 12 330 9 180 9 466 -1 585 -4 50 -9 113 -10 141 -2 28 -6 56 -10 62 -3 6
-8 28 -10 49 -2 21 -8 65 -14 98 -11 60 -15 423 -9 975 1 151 -1 329 -5 395
-10 191 -10 229 1 430 16 269 15 509 -4 740 -12 152 -14 269 -9 490 3 159 7
306 9 325 2 19 7 172 9 340 3 168 8 331 11 362 4 33 1 66 -5 77 -5 11 -6 22
-1 25 16 10 22 94 10 135 -9 30 -9 44 -1 54 15 18 27 203 14 211 -6 3 -5 25 3
58 7 31 8 65 4 82 -5 16 -6 33 -3 37 6 10 5 214 -2 429 -2 85 -6 223 -9 305
-7 272 -21 447 -45 585 -5 30 -14 118 -20 195 -6 77 -13 161 -16 187 -3 25 -1
49 3 51 5 3 8 133 6 289 -1 156 -3 355 -3 443 -1 233 10 697 19 795 10 105 7
533 -4 550 -5 8 -1 16 9 22 13 7 17 21 15 51 -1 23 2 50 6 59 8 21 10 90 5
263 -2 91 0 137 9 154 7 12 10 33 7 46 -3 13 -1 27 5 30 6 4 8 14 5 22 -3 8 1
27 9 42 8 17 10 32 5 37 -5 5 -11 50 -14 99 -2 50 -5 92 -6 95 -6 13 -5 37 3
60 14 39 17 116 17 390 0 287 -8 479 -22 496 -5 7 -8 16 -7 20 4 24 -4 36 -38
58 -34 22 -51 25 -178 30 -100 4 -159 1 -207 -9z m-446 -794 c11 -10 24 -297
15 -329 -4 -15 -7 -76 -6 -137 1 -60 1 -126 1 -145 1 -54 -12 -299 -17 -350
-2 -25 -7 -130 -10 -235 -3 -104 -10 -230 -16 -278 -11 -101 -14 -933 -4
-1089 5 -77 3 -127 -10 -198 -15 -88 -23 -359 -11 -379 3 -4 8 -100 11 -212 2
-112 10 -259 16 -326 6 -67 8 -168 4 -225 -3 -57 -8 -173 -10 -258 -2 -85 -8
-247 -12 -360 -17 -434 -7 -1127 21 -1545 7 -104 11 -253 9 -330 -8 -324 -9
-826 -1 -905 5 -47 10 -263 12 -481 2 -218 7 -402 12 -410 15 -25 19 -1061 5
-1314 -10 -172 -7 -1308 4 -1480 2 -33 6 -136 10 -230 3 -93 10 -215 16 -270
23 -250 30 -670 13 -795 -4 -36 -7 -416 -6 -845 3 -885 7 -1057 32 -1405 15
-201 19 -354 21 -796 1 -221 6 -430 10 -465 4 -35 11 -98 14 -139 4 -41 11
-104 16 -140 8 -62 3 -693 -6 -755 -3 -16 -7 -68 -10 -115 -3 -47 -8 -109 -11
-139 -3 -32 0 -65 7 -83 21 -50 7 -54 -226 -69 -115 -7 -248 -14 -295 -15
-212 -6 -558 -9 -690 -6 -80 2 -192 -1 -250 -7 -59 -6 -167 -8 -245 -4 -77 3
-392 7 -700 8 -308 2 -639 8 -735 14 -96 6 -391 14 -655 17 -264 3 -483 8
-486 10 -9 5 -1185 5 -1314 0 -96 -4 -191 -9 -440 -21 -393 -19 -782 -25
-1655 -25 -664 0 -1350 13 -1370 25 -5 3 -188 11 -407 16 -703 19 -875 21
-933 10 -130 -24 -342 -29 -1030 -21 -242 3 -337 0 -460 -14 -85 -9 -240 -21
-345 -26 -104 -5 -269 -14 -365 -21 -216 -14 -482 -7 -610 18 -79 15 -141 18
-370 16 -151 0 -360 -7 -465 -13 -176 -12 -831 -7 -935 7 -19 2 -217 8 -440
13 -643 15 -924 25 -939 34 -13 9 -275 18 -486 19 -50 0 -146 -10 -215 -23
-187 -34 -244 -40 -255 -29 -10 10 -13 1260 -3 1404 3 39 -1 144 -8 235 -8 98
-11 217 -7 295 7 144 9 487 3 695 -2 74 1 207 6 295 5 88 9 201 8 250 -3 422
-3 548 0 554 3 4 7 117 10 251 3 135 9 286 13 335 7 87 9 470 3 835 -1 120 3
210 14 288 20 139 20 242 1 492 -8 107 -17 337 -20 510 -4 173 -8 331 -11 350
-40 303 -44 448 -48 1650 -2 454 -6 949 -9 1100 -4 151 -9 415 -13 585 -3 171
-7 326 -9 345 -8 89 -5 403 12 1275 8 417 8 541 2 1660 -2 374 0 799 4 945 12
379 10 872 -7 1615 -2 66 0 152 4 190 19 172 21 231 22 620 1 347 1 345 18
355 28 15 1063 32 1305 21 50 -2 185 -4 300 -3 116 1 392 -1 615 -3 291 -4
480 -1 669 10 145 9 359 16 475 16 116 1 249 5 296 9 139 14 511 24 910 25
257 1 403 5 465 14 67 10 280 15 840 17 413 2 885 5 1050 6 265 1 422 -1 950
-18 72 -2 166 -8 210 -13 44 -5 247 -14 450 -20 204 -6 447 -16 541 -22 242
-15 1173 -11 1451 6 49 2 187 7 308 10 218 6 250 8 455 21 232 15 522 1 760
-36 94 -14 351 -12 525 4 167 16 569 14 765 -5 82 -7 166 -7 294 0 98 6 339
11 535 11 357 0 486 8 616 35 184 38 296 42 1130 37 292 -1 561 2 600 7 76 10
685 3 697 -8z"/>
<path d="M9717 18364 c-3 -3 -31 -7 -61 -8 -39 -2 -65 -9 -85 -24 -33 -24
-102 -32 -124 -14 -11 9 -27 10 -63 2 -27 -5 -184 -12 -349 -15 -165 -2 -320
-7 -345 -11 -25 -3 -85 -6 -135 -6 -275 -1 -467 0 -700 3 -545 7 -782 2 -995
-20 -47 -5 -89 -7 -94 -3 -14 8 -132 3 -251 -13 -60 -8 -240 -17 -400 -20
-280 -5 -402 -6 -1000 -7 -154 0 -296 -2 -315 -4 -107 -12 -341 -11 -410 1
-60 12 -120 12 -300 5 -317 -13 -660 -16 -905 -7 -115 4 -410 9 -655 11 -362
3 -452 6 -485 18 -65 24 -233 32 -278 13 -21 -9 -42 -13 -46 -10 -18 10 -31
-24 -36 -98 -3 -44 -1 -85 4 -95 6 -11 6 -23 1 -28 -9 -10 4 -178 19 -254 5
-25 7 -109 5 -188 -3 -112 -1 -150 11 -179 9 -20 13 -43 11 -52 -14 -44 -21
-217 -17 -396 1 -38 -6 -108 -15 -155 -8 -47 -19 -105 -23 -129 -5 -24 -4 -62
1 -85 5 -22 6 -66 3 -96 -7 -53 -7 -123 -2 -220 2 -25 -1 -58 -5 -75 -15 -50
-28 -136 -34 -220 -7 -95 -7 -89 -4 -95 2 -5 5 -39 11 -130 1 -25 -1 -97 -6
-160 -5 -63 -8 -122 -8 -130 1 -8 4 -55 7 -103 3 -49 10 -105 15 -125 13 -47
14 -122 6 -407 -3 -126 -8 -342 -10 -480 -3 -137 -6 -277 -7 -310 0 -33 0 -80
1 -105 1 -25 0 -92 -3 -150 -2 -58 -1 -109 2 -114 6 -10 8 -27 16 -135 3 -41
10 -117 15 -170 6 -56 6 -127 1 -170 -8 -75 -6 -134 9 -246 5 -33 7 -163 4
-290 -4 -216 -5 -329 -4 -331 1 -1 3 -56 5 -123 2 -67 6 -125 9 -128 3 -3 2
-15 -3 -28 -5 -14 -5 -26 2 -33 8 -8 8 -15 0 -25 -9 -10 -11 -83 -9 -259 2
-134 6 -248 9 -254 3 -5 2 -36 -3 -68 -7 -45 -7 -61 2 -67 10 -6 10 -11 1 -21
-10 -13 -25 -498 -22 -730 0 -48 -4 -106 -10 -128 -8 -30 -8 -45 0 -55 8 -10
8 -14 -2 -17 -14 -5 -18 -60 -23 -333 -3 -99 -8 -227 -13 -285 -6 -65 -6 -171
0 -280 12 -211 12 -213 3 -465 -7 -186 -6 -206 15 -290 18 -74 23 -136 31
-353 5 -145 11 -267 13 -271 3 -5 6 -86 7 -182 2 -96 8 -226 14 -289 11 -109
10 -139 -12 -315 -5 -33 -7 -134 -6 -225 1 -91 1 -237 1 -325 -1 -236 -1 -457
3 -1085 2 -311 0 -592 -3 -625 -10 -95 -12 -224 -10 -967 2 -479 6 -706 13
-725 6 -16 13 -115 15 -222 2 -107 7 -249 10 -315 4 -67 2 -191 -5 -276 -21
-298 -29 -696 -13 -712 4 -4 34 -9 68 -11 35 -3 72 -12 88 -22 25 -16 35 -17
100 -7 62 10 88 8 182 -9 96 -18 133 -19 304 -13 143 5 206 3 235 -6 23 -7
113 -14 212 -16 116 -2 188 -8 222 -18 41 -12 76 -14 164 -8 185 12 306 8 380
-11 57 -15 105 -18 305 -16 190 2 471 -5 607 -15 11 0 93 5 183 13 127 11 182
11 250 2 55 -7 162 -9 292 -5 302 9 708 10 765 2 27 -4 113 -10 190 -13 77 -3
192 -8 255 -11 214 -11 395 -10 530 4 100 9 212 11 431 6 193 -4 330 -3 395 4
113 13 467 25 689 24 83 0 222 0 310 1 675 4 1088 -7 1200 -33 73 -17 185 -20
313 -9 87 8 117 7 128 -2 11 -9 51 -10 157 -5 490 24 789 31 909 21 26 -2 50
1 53 6 4 5 13 5 23 0 32 -16 417 -31 942 -37 559 -6 1042 -5 1180 2 69 4 215
7 324 8 150 1 200 4 203 14 6 15 123 17 123 2 0 -6 29 -9 73 -8 39 1 151 -2
247 -6 117 -5 212 -4 285 4 134 15 671 23 2175 34 921 7 1100 13 1122 33 11
10 16 24 12 35 -3 11 0 18 8 18 8 1 6 6 -6 15 -10 7 -18 24 -17 37 0 13 3 61
5 108 2 52 -2 110 -10 150 -13 58 -13 87 3 260 10 107 16 236 15 285 -7 298
-3 595 12 744 8 90 14 166 12 170 -4 6 -10 67 -21 201 -14 172 -18 277 -16
435 1 99 -3 230 -8 290 -6 61 -13 153 -17 205 -3 52 -8 109 -9 125 -2 17 -4
129 -5 250 -2 124 -9 257 -16 305 -16 100 -19 430 -5 510 5 33 7 149 3 285
-10 351 -7 556 12 710 24 203 22 443 -5 570 -23 108 -25 182 -14 500 6 148 3
216 -15 385 -17 163 -22 294 -26 647 -4 279 -2 448 4 459 10 19 -9 61 -36 77
-10 7 -8 15 10 36 48 59 104 172 124 251 23 92 7 290 -32 395 -8 22 -17 83
-19 135 -2 52 -10 129 -18 170 -10 54 -13 121 -10 240 9 363 4 727 -12 870 -3
25 -10 117 -16 205 -5 88 -17 257 -25 375 -8 118 -14 285 -14 370 1 85 1 209
2 275 0 66 -3 163 -8 215 -8 100 -8 1327 1 1465 6 95 7 401 2 500 -2 39 0 104
5 145 10 102 17 271 23 600 2 151 10 343 16 425 10 130 8 350 -6 545 -7 98 -5
212 5 268 21 121 28 334 30 927 0 134 5 196 17 242 16 59 16 63 -3 98 -11 22
-36 46 -59 58 -44 24 -15 23 -520 12 -213 -5 -723 -7 -1140 -6 -126 1 -351 -4
-500 -9 -148 -6 -353 -13 -455 -15 -102 -2 -293 -7 -425 -11 -352 -10 -801
-11 -1125 -4 -157 4 -357 3 -445 -2 -88 -4 -306 -10 -485 -13 -179 -2 -419 -8
-535 -12 -115 -3 -235 -6 -265 -5 -30 1 -239 3 -465 5 -282 3 -419 7 -438 15
-35 15 -139 15 -189 2 -57 -16 -229 -18 -253 -4 -14 9 -106 14 -317 18 -163 3
-317 10 -343 16 -25 6 -97 10 -158 9 -69 0 -141 5 -187 15 -73 16 -221 22
-233 10z m372 -150 c182 -60 253 -111 442 -317 120 -130 136 -156 218 -342 31
-71 44 -116 60 -200 l9 -47 -31 6 c-92 19 -224 77 -237 106 -4 8 -12 25 -18
36 -6 12 -8 32 -5 44 4 13 -2 32 -14 48 -11 15 -32 53 -47 85 -29 62 -121 161
-188 203 -21 13 -53 24 -72 24 -18 0 -39 7 -46 15 -7 8 -18 15 -25 15 -8 0
-15 4 -17 8 -1 5 -21 15 -43 24 -24 10 -39 22 -37 30 2 12 -16 14 -85 15 -49
0 -90 -3 -93 -8 -3 -5 -45 -11 -93 -14 -64 -4 -99 -12 -136 -30 -27 -14 -54
-25 -59 -25 -6 0 -17 -6 -24 -12 -7 -7 -30 -25 -50 -40 -20 -16 -40 -37 -43
-48 -8 -26 -35 -25 -145 1 -47 11 -125 28 -175 36 -49 9 -92 18 -94 19 -6 6
43 54 56 54 6 0 21 12 32 26 11 14 42 40 68 57 26 17 71 52 100 77 28 25 100
70 160 101 93 49 136 64 258 93 11 3 75 3 141 1 108 -3 135 -8 233 -41z m7654
-274 c-12 -26 -15 -170 -4 -184 7 -8 8 -61 4 -162 -13 -253 -7 -863 11 -1157
13 -221 15 -358 9 -665 -4 -213 -8 -598 -8 -857 -1 -258 -5 -515 -8 -570 -23
-397 -28 -1206 -9 -1455 12 -158 28 -585 36 -970 3 -118 7 -236 10 -261 3 -26
2 -77 -3 -113 -4 -37 -4 -69 -1 -71 10 -6 1 -158 -20 -340 -10 -85 -15 -132
-31 -315 -9 -105 -28 -188 -65 -280 -8 -19 -23 -66 -35 -105 -12 -38 -29 -86
-39 -105 -11 -19 -34 -71 -52 -115 -20 -47 -41 -81 -50 -83 -11 -2 -31 18 -56
55 -22 32 -54 71 -70 87 -23 21 -28 33 -22 45 5 9 23 63 40 121 18 58 36 116
40 130 5 14 16 52 25 85 9 33 26 77 36 97 11 21 21 64 23 96 3 31 10 71 16 87
7 17 14 68 16 115 2 47 7 130 11 185 8 112 9 170 3 265 -2 36 0 198 5 360 11
353 11 389 3 731 -4 162 -10 275 -17 287 -20 38 -24 118 -23 457 0 246 3 551
5 625 0 30 -1 100 -3 155 -3 89 5 456 15 730 10 276 13 715 4 753 -11 52 -11
37 -4 697 10 794 8 1094 -6 1132 -4 12 -9 48 -10 80 -1 32 -10 77 -19 100
l-18 42 -74 -5 c-108 -7 -161 -12 -285 -28 -90 -12 -143 -13 -265 -5 -131 9
-481 4 -498 -6 -17 -11 -966 1 -984 12 -7 5 -1077 11 -2906 17 -185 1 -209 -1
-234 -18 -27 -17 -38 -18 -185 -7 -86 7 -212 18 -281 26 -231 26 -872 21 -907
-7 -20 -16 -38 5 -63 73 -13 33 -38 85 -56 116 -19 30 -34 57 -34 58 0 5 194
25 490 51 170 14 259 15 693 7 274 -5 537 -5 585 -1 104 10 1094 1 1306 -11
82 -5 161 -7 175 -5 52 7 369 4 392 -4 13 -4 83 -4 154 1 125 8 184 9 475 7
74 0 186 4 248 10 81 7 241 7 555 0 431 -11 506 -9 862 18 50 4 318 7 598 7
447 0 506 -2 500 -15z m-11408 -130 c55 -1 226 -2 380 -2 154 0 316 0 360 0
44 0 190 0 325 -1 135 0 331 -1 435 -3 958 -14 981 -15 1155 -40 57 -9 138
-25 180 -35 125 -33 260 -59 302 -59 40 0 65 -3 262 -36 105 -17 256 -67 238
-78 -6 -3 -35 -19 -64 -35 -29 -15 -69 -38 -90 -50 l-36 -22 -59 20 c-32 10
-83 24 -113 30 -342 69 -298 65 -680 68 -208 2 -430 -2 -535 -9 -172 -11 -544
-13 -1095 -4 -140 2 -262 0 -270 -4 -13 -7 -252 -11 -1335 -26 -280 -3 -420
-7 -848 -20 -189 -6 -231 -10 -245 -23 -13 -14 -45 -16 -206 -16 -118 0 -210
5 -241 12 -64 16 -104 17 -415 8 -140 -4 -259 -7 -265 -6 -5 1 -34 4 -63 7
-45 5 -51 4 -46 -10 4 -11 1 -16 -11 -16 -9 0 -14 4 -11 9 9 14 -13 17 -91 13
-60 -3 -71 -6 -66 -19 5 -13 3 -13 -15 -4 -14 8 -73 10 -184 6 -178 -5 -236
-12 -256 -28 -7 -6 -50 -11 -95 -13 -45 -1 -84 -3 -87 -5 -3 -1 -9 -3 -15 -4
-39 -5 -87 -31 -117 -63 l-36 -37 -6 -171 c-5 -134 -2 -216 14 -385 16 -165
21 -278 20 -494 -2 -323 7 -782 15 -795 3 -5 8 -69 10 -142 13 -392 17 -483
21 -490 7 -11 6 -330 -1 -408 -2 -30 2 -111 10 -180 19 -170 26 -683 28 -2060
l2 -1155 -50 -7 c-27 -4 -84 -16 -125 -27 -41 -10 -78 -17 -81 -15 -3 2 -4 47
-1 101 7 128 7 139 -9 333 -8 91 -11 197 -8 235 4 39 3 104 -1 145 -4 41 -4
82 1 91 4 8 8 119 9 245 1 126 1 263 2 304 1 41 -2 122 -6 180 -14 213 -23
644 -18 934 1 22 -3 46 -7 54 -4 7 -2 35 5 61 7 29 10 79 7 127 -7 106 -6 215
2 236 4 9 4 133 0 275 -8 315 -6 286 -17 300 -5 7 -5 13 0 17 10 6 10 175 0
191 -8 14 -21 240 -23 410 0 77 -5 248 -11 380 -5 132 -8 308 -7 390 0 83 4
512 7 954 4 597 8 806 17 812 6 4 55 10 108 14 94 8 146 13 186 18 11 2 26 -1
33 -6 8 -7 12 -4 12 8 0 13 5 16 23 10 42 -13 93 -16 412 -20 176 -3 408 -6
515 -8 107 -2 251 -1 320 2 69 3 168 3 220 -1 177 -12 504 -19 760 -17 140 1
347 3 460 4 113 1 232 7 265 13 34 7 189 14 355 17 162 2 313 8 335 13 22 5
42 7 45 6 3 -1 51 -3 105 -4z m4033 -191 c23 -35 50 -72 58 -83 15 -17 14 -20
-12 -42 -16 -13 -40 -27 -54 -30 -39 -11 -232 -114 -260 -139 -14 -13 -36 -26
-50 -30 -14 -4 -36 -14 -50 -23 -14 -9 -67 -38 -118 -64 -51 -26 -111 -62
-135 -80 -74 -58 -107 -71 -107 -43 0 20 -9 19 -45 -5 -34 -23 -45 -25 -45 -8
0 6 -6 19 -14 27 -25 29 -67 114 -63 125 3 7 24 18 48 25 24 7 66 25 94 40 27
15 59 32 70 38 11 5 35 18 53 27 19 10 41 15 54 10 16 -5 20 -3 15 9 -4 12 12
26 61 53 37 21 93 57 126 81 32 24 68 43 80 43 22 0 63 24 81 47 14 17 148 91
160 89 6 -1 29 -31 53 -67z m-1096 -155 c51 -9 95 -17 96 -19 2 -2 -5 -8 -16
-14 -16 -9 -18 -16 -11 -58 4 -26 5 -60 2 -75 -4 -18 1 -38 13 -55 24 -36 54
-95 54 -105 0 -5 17 -37 39 -71 21 -34 41 -74 44 -88 4 -14 18 -42 32 -63 14
-20 25 -40 25 -45 0 -17 266 -264 391 -363 27 -21 49 -42 49 -46 0 -5 -27 -44
-60 -87 -33 -43 -60 -81 -60 -84 -1 -3 -14 -21 -30 -40 l-29 -34 -18 36 c-30
59 -93 149 -138 197 -23 25 -75 90 -115 145 -39 55 -113 141 -164 190 -51 50
-106 108 -122 130 -16 22 -46 60 -66 84 -21 24 -38 49 -38 56 0 6 -19 50 -41
96 -52 104 -69 165 -69 251 l0 67 38 4 c77 8 104 7 194 -9z m1179 -88 c44 -43
220 -126 324 -152 28 -7 97 -31 155 -53 58 -23 177 -62 265 -87 88 -25 199
-59 248 -75 136 -47 231 -60 412 -57 123 2 173 -2 215 -14 30 -9 89 -22 130
-29 55 -9 86 -21 116 -43 22 -17 68 -52 103 -78 69 -52 249 -163 411 -253 126
-71 175 -118 292 -286 48 -68 110 -155 138 -194 28 -38 70 -99 93 -135 24 -36
68 -101 98 -145 53 -77 100 -166 132 -250 8 -22 27 -68 41 -103 14 -35 26 -72
26 -82 0 -11 8 -41 18 -67 11 -26 29 -104 41 -173 12 -69 26 -150 32 -180 35
-189 41 -238 48 -360 3 -74 3 -164 -1 -200 -4 -36 -7 -110 -8 -165 0 -71 -5
-109 -16 -130 -9 -16 -27 -65 -40 -108 -36 -113 -77 -198 -109 -227 -58 -52
-125 -123 -125 -131 0 -5 -7 -9 -15 -9 -7 0 -18 -6 -22 -14 -8 -14 -59 -47
-100 -65 -11 -5 -24 -14 -27 -20 -4 -5 -19 -16 -34 -24 -87 -44 -133 -70 -138
-78 -3 -5 -12 -9 -20 -9 -8 0 -43 -18 -79 -39 -36 -22 -73 -42 -83 -45 -46
-15 -205 -189 -223 -243 -7 -21 -19 -43 -27 -49 -22 -16 -9 -53 38 -110 30
-37 53 -53 93 -67 69 -23 183 -47 228 -47 45 0 135 27 171 52 14 10 30 18 35
18 34 0 225 170 253 225 8 17 28 44 46 61 17 18 39 49 49 70 48 103 198 289
256 320 15 7 42 29 60 49 53 56 112 89 274 153 198 78 326 117 460 141 61 11
130 24 155 29 63 14 394 15 515 2 139 -15 373 -56 421 -73 132 -48 193 -78
252 -124 37 -28 108 -78 157 -109 187 -120 273 -199 415 -384 174 -228 238
-333 270 -450 10 -36 43 -125 73 -198 30 -72 64 -169 75 -215 25 -99 45 -283
39 -353 -2 -28 0 -78 4 -110 5 -34 4 -135 -3 -239 -6 -99 -12 -207 -13 -240
-3 -86 -19 -205 -35 -265 -14 -49 -13 -260 1 -260 5 0 7 -4 4 -10 -3 -5 -18
-10 -33 -10 -15 0 -61 -11 -102 -25 -41 -13 -84 -25 -95 -25 -11 0 -51 -11
-90 -25 -85 -30 -95 -30 -95 -5 0 11 -6 20 -13 20 -19 0 -40 39 -28 54 15 17
-41 95 -123 174 -37 35 -64 66 -62 71 3 4 -8 15 -24 25 -16 9 -37 30 -47 46
-9 17 -23 30 -31 30 -19 0 -100 68 -126 106 -11 17 -41 48 -66 69 -25 20 -54
44 -65 54 -12 9 -50 35 -85 56 -36 22 -92 61 -125 86 -58 45 -141 89 -166 89
-7 0 -40 16 -74 35 -62 35 -163 76 -245 100 -25 8 -70 23 -100 34 -92 35 -340
93 -450 105 -112 13 -854 17 -985 5 -257 -22 -546 -70 -860 -142 -60 -14 -141
-28 -180 -32 -273 -25 -568 -99 -763 -192 -62 -29 -117 -53 -121 -53 -31 0
-173 -56 -203 -81 -20 -16 -50 -34 -65 -40 -38 -14 -131 -74 -205 -131 -34
-27 -65 -48 -69 -48 -12 0 -114 -66 -183 -119 -33 -25 -74 -55 -92 -66 -95
-59 -177 -140 -336 -333 -26 -31 -68 -79 -93 -107 -89 -99 -145 -170 -145
-185 0 -8 -21 -42 -45 -74 -25 -33 -45 -65 -45 -73 0 -19 -4 -17 -65 25 -57
40 -285 248 -285 260 0 4 28 26 63 50 101 70 285 225 329 278 86 104 185 231
209 269 14 22 47 73 72 113 26 39 67 104 92 142 25 39 65 102 90 140 112 175
140 217 162 251 12 19 23 44 23 55 0 10 43 73 96 139 52 66 105 138 116 160
26 51 217 338 284 428 30 40 69 111 95 175 24 59 70 161 102 227 72 147 151
378 172 505 9 52 20 109 25 125 35 110 45 807 14 950 -8 39 -24 113 -35 165
-11 52 -37 154 -58 225 -21 72 -48 165 -60 207 -11 42 -32 101 -45 130 -13 29
-44 98 -69 153 -25 55 -59 123 -76 150 -17 28 -36 61 -43 75 -7 14 -32 57 -57
95 -24 39 -58 99 -74 135 -17 36 -40 76 -53 90 -12 14 -41 59 -64 100 -22 41
-49 86 -60 100 -26 35 -140 210 -140 216 0 4 -126 187 -218 317 -28 39 -108
121 -188 194 -76 69 -168 153 -204 187 -82 76 -165 147 -185 159 -8 4 -15 16
-15 26 0 12 -13 24 -37 34 l-37 15 69 35 c83 43 95 44 126 13z m-6446 -116
c44 -12 106 -28 138 -36 107 -26 222 -130 245 -220 13 -50 5 -158 -16 -230
-33 -109 -137 -214 -237 -239 -53 -12 -156 -6 -183 11 -18 12 -38 15 -71 11
-53 -5 -71 -1 -71 18 0 7 -27 39 -59 71 -46 46 -63 71 -75 113 -15 53 -15 55
5 77 14 15 18 29 13 48 -3 14 -8 26 -10 26 -17 0 -54 -27 -68 -51 -11 -19 -25
-29 -41 -29 -50 0 -76 -72 -76 -210 0 -85 9 -104 76 -172 97 -99 157 -121 320
-122 57 -1 121 5 150 13 78 22 235 87 336 139 91 46 93 47 183 46 209 -4 403
-57 542 -149 29 -19 55 -35 57 -35 13 0 182 -110 241 -155 35 -28 75 -67 87
-87 13 -21 27 -38 32 -38 4 0 17 -19 27 -42 11 -24 31 -61 45 -83 28 -46 26
-42 50 -115 10 -30 30 -81 46 -114 47 -98 139 -406 139 -470 1 -22 9 -88 19
-146 12 -74 17 -141 14 -225 -2 -66 -3 -129 -3 -140 0 -11 -9 -38 -20 -60 -10
-22 -24 -73 -31 -112 -8 -46 -19 -79 -31 -89 -10 -10 -18 -26 -18 -36 0 -28
-75 -118 -133 -161 -52 -38 -129 -67 -176 -67 -15 0 -44 -12 -66 -27 -31 -21
-49 -26 -89 -25 -28 1 -76 -2 -106 -7 -38 -6 -76 -5 -125 5 -38 7 -118 16
-178 19 -59 4 -110 11 -113 16 -3 5 -18 9 -34 9 -16 0 -58 9 -92 19 -95 30
-287 70 -338 70 -68 1 -245 47 -290 76 -22 14 -42 25 -46 25 -11 0 -79 34 -85
42 -6 9 -118 78 -127 78 -3 0 -20 11 -38 25 -18 14 -41 25 -52 25 -11 0 -22 7
-26 15 -3 8 -11 15 -19 15 -7 0 -26 14 -42 30 -16 17 -35 30 -43 30 -8 0 -12
6 -8 15 3 9 -3 19 -17 27 -32 17 -72 62 -87 98 -7 18 -21 35 -30 38 -27 11
-133 152 -149 197 -7 22 -46 108 -86 190 -41 83 -84 182 -96 220 -12 39 -28
84 -35 102 -8 17 -14 37 -14 44 0 7 -15 44 -34 83 -41 86 -76 245 -76 343 0
39 -7 107 -15 150 -22 115 -30 287 -16 358 7 33 14 69 15 80 2 11 6 29 9 40 4
11 9 36 11 55 3 19 9 49 15 67 5 17 7 33 5 36 -5 5 78 166 115 222 36 54 169
166 244 206 34 18 98 43 142 55 74 21 96 23 285 19 168 -3 219 -8 285 -25z
m13083 -154 c36 -18 48 -32 68 -82 14 -32 36 -100 49 -151 22 -86 23 -104 19
-300 -6 -233 -17 -288 -84 -418 -21 -38 -40 -82 -43 -97 -6 -22 -93 -98 -113
-98 -4 0 -31 -21 -61 -46 -51 -44 -57 -46 -101 -42 -26 3 -80 20 -120 38 -64
29 -75 38 -102 85 -17 29 -32 70 -35 92 -6 53 -16 96 -25 108 -12 15 149 182
192 200 53 21 129 20 159 -4 34 -26 92 -25 117 3 27 29 38 133 19 178 -19 46
-121 113 -195 129 -85 17 -157 5 -267 -48 -170 -80 -234 -133 -323 -267 -52
-78 -61 -128 -51 -291 5 -77 9 -183 8 -235 -2 -107 16 -354 31 -446 14 -87 12
-237 -6 -382 -14 -115 -19 -135 -64 -228 -28 -56 -67 -124 -88 -150 -21 -27
-59 -83 -84 -124 -50 -81 -126 -164 -202 -220 -26 -19 -75 -58 -110 -86 -35
-27 -83 -57 -107 -66 -226 -81 -455 -138 -560 -138 -27 0 -57 -4 -67 -9 -18
-10 -211 -31 -281 -31 -80 0 -293 48 -378 86 -17 8 -35 14 -40 14 -14 0 -142
92 -183 131 -71 68 -100 111 -100 146 0 18 -6 36 -13 39 -8 3 -13 31 -14 87
-2 100 -21 251 -63 502 -6 39 -13 134 -15 213 -4 136 1 181 35 337 6 28 18 86
26 130 9 44 31 109 49 145 18 36 44 99 58 141 39 114 87 195 220 365 18 23 41
54 52 69 106 150 124 164 296 244 25 12 83 46 127 76 45 30 103 60 129 66 26
7 59 18 73 25 14 8 59 25 100 38 41 13 110 38 154 55 56 23 102 33 160 37 44
4 187 24 316 46 320 55 301 53 525 56 326 5 527 27 795 87 73 17 69 17 118 -9z
m-6574 -116 c14 -21 39 -49 56 -62 27 -19 29 -26 24 -57 -3 -20 -14 -48 -25
-63 -10 -15 -19 -31 -19 -36 0 -5 -13 -27 -28 -48 -15 -21 -52 -79 -81 -129
-30 -49 -73 -116 -97 -148 -24 -31 -44 -62 -44 -67 0 -6 -6 -13 -14 -16 -8 -3
-27 -24 -42 -47 -15 -23 -38 -53 -49 -67 -12 -14 -36 -58 -54 -99 -18 -41 -49
-99 -69 -130 -20 -31 -46 -76 -59 -101 -13 -25 -31 -58 -41 -75 -10 -16 -24
-48 -31 -70 -7 -22 -16 -49 -21 -60 -5 -11 -22 -51 -38 -90 -48 -110 -99 -300
-89 -328 2 -6 0 -21 -6 -32 -13 -25 -11 -195 3 -209 5 -5 10 -17 10 -26 0 -28
59 -136 83 -154 59 -42 96 -64 123 -70 81 -20 78 -21 134 36 29 29 62 73 75
98 33 65 56 187 62 325 5 100 2 134 -15 200 -11 44 -23 99 -26 123 -10 68 -61
166 -101 193 -19 13 -35 30 -35 37 0 13 153 314 173 339 7 10 27 -6 79 -60
124 -129 180 -214 338 -512 68 -129 127 -321 136 -444 3 -36 7 -68 10 -73 3
-4 0 -56 -6 -115 -17 -160 -17 -165 -28 -198 -6 -16 -16 -49 -23 -73 -7 -23
-18 -47 -25 -53 -8 -6 -16 -27 -20 -48 -4 -20 -15 -48 -26 -63 -10 -15 -25
-44 -32 -65 -8 -21 -25 -58 -39 -83 -15 -25 -36 -65 -49 -90 -12 -25 -53 -86
-90 -136 -36 -51 -73 -105 -82 -122 -9 -17 -31 -46 -49 -66 -18 -19 -40 -54
-47 -77 -8 -23 -21 -48 -29 -56 -8 -8 -14 -35 -15 -61 0 -26 -5 -50 -9 -53
-15 -11 3 -50 26 -58 42 -16 106 26 281 183 143 130 290 195 434 196 67 0 198
-60 257 -118 44 -43 115 -136 115 -151 0 -5 7 -14 15 -21 8 -7 20 -31 26 -53
6 -22 21 -63 34 -89 13 -26 26 -66 30 -88 4 -22 10 -42 15 -45 11 -7 5 -127
-9 -189 -7 -30 -21 -56 -36 -67 -13 -11 -27 -34 -31 -51 -9 -44 -43 -96 -92
-140 -53 -48 -77 -59 -202 -98 -168 -52 -182 -49 -483 110 -101 53 -127 62
-170 62 -50 0 -53 -1 -114 -65 -84 -89 -96 -114 -97 -212 -1 -99 12 -310 24
-389 5 -32 9 -61 8 -65 -5 -21 61 -294 100 -417 11 -33 36 -92 54 -130 19 -38
41 -85 48 -104 8 -19 26 -53 40 -75 15 -22 35 -64 44 -93 10 -29 33 -69 52
-89 19 -20 34 -44 34 -54 0 -27 -43 -103 -106 -188 -30 -41 -54 -80 -54 -87 0
-31 -21 -21 -38 18 -41 92 -38 87 -213 383 -26 45 -99 216 -99 234 0 9 -7 29
-15 45 -8 15 -15 37 -15 47 0 30 -48 26 -56 -5 -3 -15 -14 -26 -27 -28 -23 -3
-33 -28 -47 -128 -17 -119 -29 -182 -39 -194 -5 -6 -14 -27 -19 -46 -29 -99
-129 -318 -162 -355 -10 -11 -29 -39 -44 -63 -43 -70 -158 -201 -206 -237
-115 -85 -160 -122 -225 -185 -47 -45 -95 -81 -145 -105 -101 -50 -413 -225
-480 -269 -30 -20 -84 -45 -120 -57 -36 -12 -69 -25 -75 -30 -5 -5 -19 -9 -31
-9 -44 0 -100 -104 -61 -114 70 -19 119 -30 157 -36 25 -4 57 -12 71 -18 14
-5 52 -13 85 -17 87 -11 128 -35 244 -144 l104 -98 -12 -39 c-14 -45 -204
-250 -221 -239 -6 3 -18 19 -26 35 -8 16 -25 32 -37 36 -13 4 -25 10 -28 13
-3 4 -25 22 -50 41 -25 18 -57 46 -73 61 -15 15 -60 43 -100 63 -58 28 -85 36
-130 36 -31 0 -59 5 -62 10 -3 6 -14 10 -23 10 -20 1 -72 44 -72 60 0 5 -22
10 -52 10 -60 0 -118 18 -118 37 0 9 -16 13 -54 13 -30 0 -57 4 -61 9 -6 11
-63 41 -77 41 -5 0 -21 9 -36 19 -15 11 -56 25 -92 32 -36 6 -83 18 -105 27
-43 16 -262 29 -292 18 -17 -7 -16 -9 6 -27 13 -10 32 -19 43 -19 11 0 35 -12
53 -27 18 -16 56 -44 83 -63 31 -21 46 -38 39 -42 -7 -4 -4 -10 8 -14 24 -9
49 -37 72 -79 9 -16 29 -46 44 -65 79 -99 101 -311 48 -444 -25 -61 -109 -145
-171 -171 -24 -9 -61 -25 -83 -35 -77 -35 -181 -68 -298 -95 -110 -25 -124
-26 -200 -15 -45 6 -127 13 -182 16 -93 4 -106 7 -190 48 -49 25 -101 48 -114
51 -25 8 -83 43 -139 84 -32 25 -50 67 -58 136 -1 17 -6 51 -10 77 -6 42 -3
56 27 114 45 88 170 199 276 245 23 10 47 27 53 38 6 12 16 21 23 21 25 0 55
30 50 49 -6 23 -56 46 -79 37 -10 -4 -33 -1 -52 5 -56 18 -138 -29 -395 -228
-23 -18 -53 -38 -67 -43 -14 -6 -41 -19 -60 -29 -31 -16 -138 -46 -343 -95
-37 -8 -125 -23 -195 -32 -70 -9 -137 -21 -149 -27 -13 -6 -25 -8 -28 -5 -3 3
-26 0 -51 -7 -54 -14 -142 -1 -239 34 -32 11 -69 21 -80 21 -12 0 -25 4 -30 9
-6 4 -32 14 -60 20 -27 7 -54 16 -60 21 -5 4 -55 20 -110 36 -55 15 -111 35
-125 44 -14 9 -63 34 -110 57 -140 68 -434 213 -455 226 -27 16 -239 152 -293
189 -23 15 -47 28 -52 28 -6 0 -10 4 -10 9 0 8 -224 156 -295 194 -34 19 -131
105 -124 110 2 2 29 20 59 40 30 19 70 49 89 66 18 17 37 31 40 31 4 0 21 14
39 30 18 17 37 30 42 30 4 0 13 -14 19 -31 13 -37 24 -47 111 -96 36 -21 94
-67 130 -103 36 -37 85 -78 110 -91 78 -44 94 -54 105 -65 5 -7 52 -31 103
-55 65 -31 92 -48 92 -61 0 -21 53 -50 142 -77 142 -43 171 -51 197 -51 14 0
42 -4 61 -9 19 -6 56 -12 82 -15 26 -2 52 -7 58 -11 5 -3 54 -8 109 -10 155
-7 274 26 355 99 38 33 39 36 23 54 -9 10 -17 22 -17 26 0 15 -46 47 -119 82
-61 30 -88 36 -162 41 -88 6 -215 -6 -334 -32 -33 -7 -85 -13 -115 -14 -30 -1
-81 -7 -113 -13 l-59 -11 -122 62 c-68 34 -132 68 -142 76 -18 13 -18 14 8 24
15 5 49 25 75 44 26 18 80 48 118 66 39 18 113 59 166 91 52 32 113 65 135 73
86 31 171 56 214 62 25 4 68 13 95 20 88 24 198 45 260 49 33 3 95 12 137 21
119 24 391 9 533 -29 28 -8 68 -17 89 -21 22 -4 56 -15 75 -25 44 -23 224 -80
253 -80 12 0 41 -22 69 -50 27 -27 55 -50 62 -50 8 0 26 -17 40 -39 20 -30 35
-41 71 -50 25 -6 54 -11 64 -11 34 0 35 41 2 109 -24 50 -30 74 -30 129 0 37
5 83 10 102 5 19 18 67 28 105 11 39 25 95 32 125 21 99 56 157 108 185 26 14
65 36 87 49 57 36 125 66 145 66 10 0 20 5 22 11 3 10 183 27 348 33 36 2 88
6 116 11 41 6 57 4 75 -9 13 -9 38 -16 57 -16 43 0 103 -31 133 -70 13 -17 43
-42 66 -56 53 -32 111 -142 120 -228 10 -100 -43 -201 -159 -301 -38 -33 -87
-77 -109 -98 -34 -33 -55 -43 -132 -62 -63 -16 -97 -30 -109 -45 -26 -33 -22
-48 15 -55 50 -9 231 1 356 20 62 9 124 15 138 12 14 -2 46 1 72 8 25 6 52 10
58 8 7 -3 46 3 85 12 40 9 118 18 173 20 86 2 114 8 198 38 53 20 117 48 140
62 24 14 54 25 66 25 12 0 35 7 52 15 16 9 34 13 40 10 19 -13 123 49 226 135
7 5 19 7 27 4 9 -3 27 4 42 15 15 12 32 21 39 21 7 0 37 18 66 40 30 22 57 40
61 40 5 0 8 7 8 15 0 8 7 15 15 15 8 0 15 5 15 11 0 6 6 16 13 23 6 8 44 50
82 96 39 45 98 110 131 144 74 75 108 127 141 215 13 36 42 104 63 151 21 47
50 124 64 173 14 48 31 97 37 108 6 12 12 31 14 43 5 37 36 170 51 214 8 24
12 48 8 53 -3 6 -1 15 4 22 16 20 52 190 52 244 0 28 5 75 11 104 6 30 12 122
14 204 1 83 6 173 10 201 6 40 4 54 -9 67 -9 8 -16 25 -16 36 0 25 -36 51 -70
51 -38 0 -52 -13 -45 -42 6 -22 -4 -37 -62 -101 -93 -101 -177 -167 -215 -167
-8 0 -30 -8 -49 -17 -92 -48 -217 -5 -329 111 -62 64 -140 177 -140 203 0 6
-5 24 -12 40 -6 15 -13 35 -14 43 -1 8 -10 56 -19 105 -19 101 -16 167 12 352
l20 122 84 81 c46 45 94 89 107 97 31 21 222 30 312 14 37 -7 88 -14 112 -16
86 -6 157 -34 214 -86 53 -48 77 -59 89 -39 3 6 12 10 20 10 22 0 65 45 65 68
0 11 7 23 16 26 21 8 12 63 -14 82 -22 18 -114 62 -165 80 -75 27 -126 64
-182 133 -30 37 -55 71 -55 75 0 3 -16 28 -35 54 -18 26 -53 88 -75 137 -23
50 -48 101 -55 115 -12 22 -43 119 -52 160 -6 29 -4 290 2 300 4 6 11 48 16
93 16 147 28 204 57 269 16 35 32 75 36 91 12 50 141 302 198 388 31 46 82
113 113 149 61 69 165 205 165 215 0 3 59 95 132 203 72 108 148 222 167 252
20 30 39 57 42 60 13 12 97 138 113 170 9 19 26 50 36 68 11 18 20 36 21 40 5
28 33 82 44 82 7 0 24 -18 39 -40z m-1438 8 c3 -12 13 -29 21 -37 8 -8 44 -53
79 -100 35 -47 75 -94 88 -104 l25 -17 -60 -88 c-32 -48 -79 -114 -104 -147
-24 -33 -56 -82 -71 -110 -14 -27 -37 -64 -50 -82 -13 -17 -24 -34 -24 -37 0
-3 -27 -51 -61 -107 -33 -56 -67 -120 -76 -143 -9 -22 -31 -64 -49 -92 -18
-28 -43 -80 -54 -115 -12 -35 -30 -78 -40 -95 -26 -41 -98 -242 -120 -334 -10
-41 -33 -122 -50 -180 -53 -180 -77 -281 -100 -415 -13 -71 -26 -134 -30 -140
-12 -15 -19 -66 -25 -185 -12 -212 -15 -266 -21 -308 -3 -23 -8 -84 -10 -135
-3 -51 -7 -108 -8 -127 -2 -19 0 -91 5 -160 4 -69 11 -181 14 -249 3 -69 8
-128 10 -132 3 -3 7 -37 10 -75 4 -38 13 -103 20 -144 8 -41 22 -115 31 -165
25 -138 29 -157 47 -195 25 -53 56 -138 79 -210 11 -36 26 -78 33 -95 24 -56
43 -121 55 -185 6 -36 15 -69 20 -75 4 -5 20 -53 35 -105 15 -52 51 -144 80
-205 29 -60 70 -150 90 -200 31 -77 84 -181 145 -286 48 -83 130 -182 195
-236 30 -25 55 -50 55 -55 0 -5 -35 -44 -79 -87 -84 -83 -156 -130 -174 -112
-6 6 -35 11 -65 11 -45 0 -68 8 -150 52 -126 67 -197 112 -252 161 -25 22 -65
48 -89 58 -24 11 -87 52 -140 93 -115 87 -284 204 -309 213 -9 4 -44 24 -76
45 -33 22 -104 55 -159 73 -54 19 -113 43 -131 54 -48 30 -182 67 -396 110
-263 54 -389 60 -650 32 -107 -11 -208 -25 -225 -31 -52 -17 -297 -71 -367
-80 -95 -12 -194 -38 -258 -67 -118 -54 -143 -63 -174 -63 -33 0 -137 -21
-315 -64 -81 -20 -146 -47 -307 -126 -112 -55 -206 -100 -209 -100 -5 0 -292
-137 -355 -170 -19 -10 -49 -21 -67 -25 -18 -3 -67 -21 -110 -39 -43 -19 -103
-43 -133 -55 -74 -29 -215 -100 -250 -126 -96 -70 -139 -107 -145 -122 -3 -10
-28 -29 -56 -43 -28 -13 -70 -41 -93 -60 -58 -51 -171 -130 -238 -168 -31 -18
-72 -47 -90 -65 -18 -17 -44 -37 -57 -44 -30 -17 -80 -57 -138 -110 -63 -59
-70 -58 -130 23 -21 28 -55 65 -75 83 -21 18 -38 38 -38 45 0 6 32 43 71 81
39 39 92 104 117 145 26 41 61 97 78 123 39 59 68 153 85 271 14 96 14 104 5
216 -3 41 -11 149 -16 239 -6 90 -13 167 -15 171 -8 13 -28 515 -28 715 0 115
1 124 40 231 22 60 48 147 57 192 10 48 29 103 46 133 17 27 30 54 30 58 0 5
38 72 85 150 47 78 85 144 85 147 0 16 67 104 80 104 8 0 33 26 55 57 69 98
103 129 223 209 64 43 142 99 172 124 59 51 221 151 311 193 126 59 423 87
651 61 175 -20 355 -42 393 -48 17 -3 98 -10 180 -15 165 -11 184 -13 330 -35
172 -25 186 -28 192 -45 7 -22 15 -43 52 -129 17 -39 30 -75 29 -80 -2 -9 19
-113 35 -167 11 -39 42 -102 107 -219 38 -68 44 -75 130 -161 48 -48 74 -66
100 -70 19 -3 63 -12 98 -20 59 -14 66 -14 105 4 23 10 68 28 99 40 65 26 119
83 143 150 22 63 23 214 2 286 -21 69 -85 158 -167 229 -105 92 -130 115 -130
123 0 9 -137 76 -189 92 -19 6 -46 11 -62 11 -15 0 -62 14 -104 31 -43 17 -93
33 -111 36 -19 3 -34 10 -34 14 0 5 -9 9 -20 9 -11 0 -24 8 -27 18 -4 9 -15
23 -25 31 -17 12 -19 26 -18 130 1 64 6 134 10 156 25 123 33 380 17 540 -15
153 -38 340 -46 377 -6 26 -5 45 5 62 7 15 10 26 7 26 -3 0 -1 6 5 13 6 6 15
55 21 107 15 122 22 154 65 277 38 111 71 180 120 255 17 26 47 73 66 103 58
94 199 230 331 319 20 13 44 32 53 42 10 9 32 27 49 39 108 73 151 105 189
140 51 47 103 85 116 85 5 0 16 7 23 16 14 17 93 70 149 98 60 32 398 41 740
21 127 -7 510 -19 635 -19 85 0 136 6 225 27 159 37 214 53 236 65 30 18 52
14 60 -10z m4754 -206 c0 -15 13 -66 30 -112 54 -152 71 -237 71 -340 -1 -129
-12 -182 -71 -328 -28 -69 -50 -129 -50 -134 0 -5 -11 -33 -24 -61 -14 -29
-34 -78 -46 -109 -30 -82 -32 -82 -75 44 -13 37 -33 77 -45 90 -11 12 -23 34
-27 48 -3 14 -13 39 -23 55 -43 74 -84 234 -96 373 -12 145 21 227 140 347 70
71 179 154 204 154 7 1 12 -11 12 -27z m-773 -5396 c133 -28 178 -56 194 -122
6 -24 15 -44 19 -44 4 0 21 -26 36 -57 26 -51 29 -66 29 -157 0 -93 -3 -106
-31 -166 -43 -88 -83 -126 -163 -150 -35 -11 -70 -25 -78 -31 -18 -15 -17 -39
2 -39 8 0 15 -7 15 -15 0 -9 7 -18 15 -21 8 -4 15 -11 15 -16 0 -29 70 -62 84
-39 3 4 27 14 53 21 27 7 53 16 58 20 6 4 35 17 65 28 30 11 79 32 107 46 29
14 58 26 64 26 16 0 230 113 296 157 32 21 74 45 93 53 19 7 67 31 105 51 67
36 166 63 285 80 30 4 84 12 120 18 141 23 277 13 595 -44 180 -33 284 -60
425 -112 85 -32 125 -54 210 -117 58 -44 124 -93 148 -110 24 -17 56 -41 72
-53 15 -13 30 -23 33 -23 10 0 207 -137 248 -173 73 -63 152 -118 199 -141 53
-25 80 -46 80 -62 0 -7 38 -42 84 -78 47 -36 111 -91 143 -121 32 -30 81 -69
109 -87 46 -29 51 -37 48 -62 -2 -18 -19 -45 -43 -70 l-41 -41 -16 24 c-11 15
-23 21 -36 17 -11 -2 -30 1 -42 7 -27 16 -138 110 -173 148 -15 17 -53 48 -83
69 -30 20 -70 51 -88 68 -18 17 -67 53 -110 81 -111 72 -129 85 -207 143 -101
74 -257 153 -355 180 -73 20 -108 23 -245 23 -159 -1 -160 -1 -258 -37 -54
-20 -118 -52 -142 -70 -47 -36 -110 -120 -120 -160 -7 -26 -1 -33 89 -128 36
-38 175 -113 241 -130 132 -35 412 -14 550 40 159 63 191 79 227 112 l42 38
35 -26 c20 -14 60 -42 88 -61 29 -20 50 -39 47 -44 -3 -5 -26 -15 -51 -22 -38
-11 -51 -21 -66 -51 -22 -42 -147 -161 -227 -216 -155 -106 -397 -203 -636
-255 -65 -14 -130 -28 -143 -31 -41 -9 -252 -5 -307 5 -28 6 -89 13 -135 17
-89 6 -158 25 -199 54 -14 9 -70 38 -125 64 -291 136 -457 234 -560 332 -46
43 -131 100 -190 127 -22 10 -57 34 -77 54 -23 22 -42 33 -52 30 -8 -3 -18 -2
-21 4 -4 5 -27 7 -54 3 -28 -4 -57 -2 -68 5 -31 16 -54 -6 -45 -44 10 -43 21
-56 81 -100 58 -42 150 -152 199 -237 75 -130 99 -335 52 -433 -37 -77 -134
-170 -225 -217 -56 -29 -250 -61 -329 -54 -123 11 -190 22 -228 39 -21 10 -46
17 -57 17 -32 0 -173 60 -226 97 -27 19 -69 46 -93 61 -32 20 -50 43 -72 87
-31 64 -48 157 -33 177 5 7 22 45 37 83 25 64 32 73 79 100 106 61 207 53 318
-24 89 -62 121 -101 117 -143 -2 -26 2 -35 23 -47 25 -14 30 -13 73 10 62 32
75 48 82 98 13 94 -65 248 -165 323 -106 81 -140 97 -224 108 -139 18 -256 13
-338 -16 -41 -14 -99 -30 -129 -35 -30 -6 -102 -30 -160 -54 -58 -23 -132 -51
-165 -61 -38 -11 -90 -40 -143 -79 -46 -33 -91 -64 -100 -70 -9 -5 -19 -13
-22 -16 -3 -3 -17 -12 -32 -20 -28 -15 -122 -99 -228 -203 -36 -36 -119 -110
-185 -165 -150 -125 -152 -126 -200 -185 -22 -27 -67 -79 -100 -115 -68 -74
-110 -128 -147 -186 -14 -22 -54 -69 -88 -105 -98 -102 -138 -168 -222 -360
-13 -30 -30 -75 -37 -100 -7 -25 -17 -58 -22 -75 -6 -16 -11 -34 -13 -40 -1
-5 -9 -32 -19 -60 -9 -27 -21 -79 -27 -115 -6 -36 -15 -78 -20 -95 -18 -60
-21 -93 -20 -285 1 -228 12 -303 52 -333 32 -24 78 -17 78 11 0 48 250 220
366 251 22 6 87 17 146 24 105 14 157 11 333 -18 81 -14 171 -49 227 -89 70
-51 111 -123 162 -286 20 -63 43 -122 52 -131 16 -18 14 -119 -7 -299 -5 -47
-12 -110 -15 -140 -9 -87 -43 -168 -110 -266 -34 -49 -68 -95 -76 -101 -20
-17 -111 -31 -238 -39 -63 -4 -123 -7 -134 -6 -34 2 -210 64 -293 103 -45 21
-84 39 -87 39 -20 0 -144 88 -205 145 -76 73 -115 89 -127 52 -3 -10 -3 -21 0
-25 3 -3 -3 -15 -14 -27 -28 -30 -13 -73 49 -138 72 -76 131 -150 131 -165 0
-7 11 -28 24 -45 13 -18 57 -95 96 -172 40 -77 86 -160 102 -185 38 -56 57
-129 68 -255 5 -70 14 -113 29 -143 27 -52 38 -117 44 -247 3 -55 6 -104 8
-110 3 -11 -7 -115 -22 -225 -6 -41 -26 -129 -46 -195 -51 -173 -83 -297 -83
-320 0 -49 -129 -345 -169 -390 -10 -11 -27 -36 -36 -55 -10 -19 -37 -60 -60
-90 -59 -78 -110 -152 -128 -186 -8 -16 -32 -47 -52 -69 -20 -22 -65 -83 -101
-135 -67 -97 -79 -115 -150 -210 -23 -30 -63 -93 -89 -140 -27 -47 -50 -87
-52 -90 -6 -7 -104 48 -141 79 l-33 28 23 29 c28 36 36 49 111 194 32 63 63
120 67 125 4 6 34 62 66 125 32 63 71 136 86 162 16 26 38 77 48 113 11 37 24
73 29 79 6 7 8 16 5 19 -3 3 1 25 9 49 29 85 38 117 43 155 2 21 9 52 13 68 5
17 19 64 32 105 18 60 23 106 26 225 2 83 8 162 14 176 13 33 1 63 -50 132
-48 65 -79 87 -126 87 -48 0 -61 -8 -144 -88 -48 -46 -79 -86 -98 -127 -27
-58 -28 -65 -27 -220 1 -195 1 -198 51 -345 8 -25 17 -55 18 -67 2 -12 6 -26
9 -32 4 -5 8 -27 10 -49 2 -22 11 -50 19 -63 8 -13 17 -42 20 -64 2 -22 10
-51 16 -65 11 -22 8 -34 -18 -87 -17 -34 -31 -69 -31 -78 0 -24 -10 -17 -70
50 -29 33 -61 64 -69 69 -18 11 -119 116 -112 116 3 0 -16 14 -42 30 -26 17
-53 30 -60 30 -7 0 -27 16 -46 35 -18 19 -38 35 -45 35 -7 0 -26 11 -41 24
-16 14 -44 33 -63 43 -22 12 -35 28 -39 46 -3 15 -10 30 -14 33 -5 3 -9 13 -9
23 0 9 -27 53 -60 97 -33 43 -74 107 -90 141 -16 34 -41 69 -54 78 -13 9 -28
28 -34 43 -12 32 -39 125 -48 167 -4 17 -9 34 -12 39 -7 12 -3 705 5 745 3 19
20 59 37 90 39 70 96 194 96 209 0 6 13 33 28 59 16 26 39 70 51 96 24 49 77
113 188 225 35 35 63 65 63 68 0 8 43 48 95 89 28 21 83 72 123 114 41 42 88
83 105 91 27 13 32 21 35 57 3 37 0 43 -24 55 -18 8 -31 25 -36 46 -9 35 -40
44 -55 17 -21 -37 -97 -105 -117 -105 -12 0 -46 -16 -76 -35 -30 -19 -60 -35
-66 -35 -5 0 -37 -16 -70 -36 -199 -121 -591 -169 -702 -87 -42 31 -140 152
-177 218 -33 60 -75 231 -75 308 0 82 83 399 119 457 30 48 131 175 173 218
24 24 76 59 115 78 40 20 75 39 78 44 8 12 128 67 166 75 19 4 39 10 44 13 10
6 33 9 135 15 50 3 61 0 115 -36 33 -22 85 -67 117 -99 45 -48 57 -69 62 -103
4 -24 14 -49 21 -55 8 -7 15 -21 15 -30 0 -10 5 -20 11 -22 6 -2 11 -26 11
-53 -1 -82 7 -107 29 -100 12 4 19 2 19 -7 0 -24 39 59 46 98 3 22 14 53 24
69 26 44 60 229 66 352 3 59 9 112 13 118 9 12 6 282 -4 316 -25 84 -63 167
-122 264 -7 11 -17 30 -22 41 -13 29 -68 82 -164 157 -79 61 -166 133 -198
163 -20 18 -14 51 13 67 11 7 33 38 49 69 16 31 33 59 38 63 6 3 22 28 37 55
31 57 52 63 76 22 25 -42 98 -112 117 -112 6 0 14 -6 18 -13 4 -6 21 -19 37
-27 16 -8 56 -41 90 -74 33 -32 72 -63 86 -68 29 -10 59 -68 85 -163 9 -33 24
-71 33 -85 9 -14 18 -34 19 -45 19 -174 33 -184 82 -58 35 91 52 119 113 186
34 37 75 111 123 221 10 21 49 71 87 110 39 39 91 97 115 129 25 32 55 68 67
81 11 12 68 77 125 144 114 134 186 200 321 291 19 13 42 30 50 37 40 37 173
145 189 153 10 6 31 21 47 35 114 97 142 119 169 133 17 8 53 33 82 54 34 25
72 43 110 52 37 8 59 18 61 28 1 8 -15 33 -36 56 -29 30 -56 46 -108 62 -120
39 -241 107 -382 213 -52 39 -119 83 -150 99 -31 16 -87 53 -125 83 -37 31
-75 59 -84 64 -14 8 -10 17 31 63 25 30 63 65 83 79 20 14 48 37 62 53 14 15
31 27 38 27 15 0 88 -56 184 -141 35 -32 109 -87 163 -123 188 -125 337 -183
511 -201 33 -3 107 -18 165 -33 95 -24 122 -27 282 -27 128 0 180 3 190 13 6
6 24 12 39 12 25 0 27 4 33 53 4 29 11 58 16 66 16 27 -42 100 -65 81 -6 -5
-15 -7 -19 -3 -3 4 -26 8 -50 8 -28 1 -67 14 -107 35 -35 19 -81 43 -101 53
-21 11 -38 24 -38 29 0 6 -11 23 -25 40 -33 40 -48 99 -43 183 4 93 58 206
132 280 71 71 219 141 336 158 53 8 281 -3 347 -17z m-10242 -442 c152 -33
155 -35 155 -72 0 -19 -9 -46 -19 -61 -10 -14 -24 -45 -30 -68 -7 -26 -20 -47
-34 -54 -12 -7 -25 -16 -28 -21 -3 -5 -18 -4 -35 3 -34 13 -66 17 -222 25
-101 6 -121 4 -180 -16 -124 -41 -225 -112 -215 -150 3 -11 -6 -25 -23 -39
-117 -92 -168 -342 -117 -581 19 -90 52 -152 110 -203 32 -29 43 -46 43 -68 0
-16 -4 -29 -10 -29 -14 0 -37 -59 -43 -108 -3 -24 -8 -46 -12 -50 -19 -19
-171 204 -186 273 -4 17 -17 68 -29 115 -19 73 -34 272 -31 410 0 8 0 57 1
109 0 82 5 108 36 195 53 151 59 161 137 227 93 78 170 115 326 155 113 29
137 32 231 28 58 -3 137 -12 175 -20z m14550 -176 c3 -3 -7 -48 -22 -101 l-27
-97 -56 0 c-61 0 -190 -28 -190 -41 0 -5 -17 -9 -37 -9 -21 0 -69 -12 -108
-25 -47 -17 -81 -23 -102 -19 -22 4 -33 2 -33 -5 0 -6 -12 -16 -27 -22 -81
-30 -243 -127 -273 -165 -13 -15 -40 -19 -40 -6 -1 4 -36 34 -80 67 -43 33
-79 65 -79 70 -1 6 36 25 82 42 57 23 96 46 128 76 25 24 57 47 71 50 15 4 40
18 56 32 30 25 257 103 367 125 149 31 352 46 370 28z m-7683 -23 c6 -14 15
-25 20 -25 17 0 98 -83 98 -101 0 -11 7 -19 15 -19 9 0 35 -18 59 -40 24 -22
48 -40 55 -40 6 0 11 -9 11 -20 0 -11 7 -20 14 -20 8 0 41 -26 73 -58 50 -50
119 -110 187 -162 11 -8 38 -32 60 -52 72 -65 99 -84 181 -124 72 -35 99 -58
269 -226 103 -104 196 -188 205 -188 10 0 20 -3 23 -6 6 -5 -249 -264 -260
-264 -3 0 -16 -10 -28 -21 l-23 -21 -29 23 c-214 174 -363 320 -534 525 -72
85 -246 247 -307 286 -15 10 -42 36 -59 57 -18 22 -46 48 -62 58 -17 10 -30
26 -30 37 0 22 -41 61 -120 116 -92 63 -94 52 38 188 64 67 120 122 125 122 4
0 13 -11 19 -25z m8238 -129 c149 -159 249 -339 274 -492 15 -97 9 -250 -13
-309 -25 -64 -77 -161 -103 -190 -16 -16 -28 -33 -28 -37 0 -16 -199 -182
-240 -200 -155 -69 -239 -97 -315 -103 -89 -8 -199 8 -222 31 -8 8 -23 14 -34
14 -28 0 -23 23 14 56 17 16 48 48 67 72 22 26 40 40 50 36 8 -3 57 -8 110
-10 81 -5 103 -3 148 15 130 52 263 206 287 334 4 20 11 39 15 42 8 5 12 60
12 183 -1 126 -71 355 -130 424 -8 10 -14 28 -14 41 0 32 43 157 54 157 5 0
36 -29 68 -64z m-15420 -28 c19 -39 45 -67 112 -120 48 -38 89 -76 92 -86 3
-9 19 -25 34 -36 15 -10 39 -37 52 -60 33 -58 101 -137 203 -234 48 -47 87
-90 87 -96 0 -6 17 -29 37 -50 56 -58 82 -96 76 -113 -4 -9 2 -16 16 -20 12
-3 21 -11 19 -18 -5 -18 -135 -125 -154 -125 -9 0 -18 -9 -21 -20 -3 -11 -9
-20 -13 -20 -9 0 -50 53 -50 65 0 10 -88 107 -221 245 -67 69 -137 148 -155
177 -19 28 -61 73 -95 100 -34 26 -68 53 -76 60 -8 6 -16 27 -17 47 -2 19 -11
46 -20 58 -24 33 -126 188 -126 191 0 2 20 18 45 37 35 26 104 59 145 69 3 0
16 -22 30 -51z m14604 -188 c12 -11 45 -41 75 -68 87 -76 103 -93 162 -172 31
-41 65 -84 76 -95 10 -11 29 -38 43 -59 13 -22 47 -65 74 -97 28 -31 73 -96
100 -143 47 -84 48 -87 30 -102 -20 -16 -119 -64 -132 -64 -4 0 -16 17 -27 37
-11 21 -49 69 -85 108 -36 38 -77 86 -92 105 -14 19 -69 79 -120 132 -52 54
-115 123 -139 155 -24 32 -46 60 -49 63 -8 8 -29 43 -42 70 -7 14 -23 38 -36
54 -12 16 -21 33 -19 39 3 9 124 54 151 56 5 1 18 -8 30 -19z m-7322 -325 c81
-56 157 -127 194 -181 l38 -55 -125 -123 c-68 -68 -145 -147 -171 -177 -126
-145 -198 -235 -198 -246 0 -7 -15 -30 -33 -50 -18 -21 -53 -67 -78 -103 -67
-99 -153 -209 -215 -275 -31 -33 -82 -101 -113 -152 -31 -50 -83 -130 -116
-178 -98 -142 -115 -169 -125 -191 -5 -12 -55 -75 -113 -140 -57 -66 -130
-157 -162 -204 -122 -175 -165 -242 -165 -253 0 -6 -22 -54 -49 -108 -28 -53
-62 -126 -77 -160 -14 -35 -48 -110 -75 -165 -63 -132 -96 -240 -104 -338 -4
-44 -13 -97 -21 -118 -7 -21 -13 -39 -12 -41 1 -1 -8 -31 -20 -67 -11 -36 -23
-78 -26 -95 -10 -51 -37 -257 -42 -320 -2 -33 -10 -94 -16 -135 -14 -90 -13
-458 1 -550 25 -158 42 -249 57 -300 15 -52 20 -67 43 -122 5 -13 12 -34 14
-48 8 -36 71 -194 79 -198 5 -2 8 -12 8 -22 0 -10 4 -21 8 -24 5 -3 25 -36 44
-73 20 -37 60 -109 90 -159 30 -50 83 -149 117 -220 80 -162 78 -159 141 -279
72 -138 114 -216 127 -240 6 -11 28 -49 49 -85 41 -71 104 -150 201 -250 35
-36 63 -72 63 -80 0 -26 30 -60 52 -60 13 0 56 -32 108 -82 199 -189 243 -228
262 -228 11 0 36 -19 56 -41 84 -95 317 -266 467 -343 33 -17 78 -44 100 -59
22 -15 45 -27 52 -27 24 0 13 -21 -19 -38 -17 -9 -59 -35 -92 -58 -34 -22 -69
-43 -79 -47 -19 -7 -67 11 -67 25 0 20 -117 80 -231 118 l-124 41 -187 -1
c-142 0 -215 4 -305 19 -65 11 -230 32 -368 46 -381 39 -518 57 -580 75 -16 5
-59 14 -95 19 -36 6 -96 17 -135 26 -38 8 -92 20 -118 25 -27 5 -52 12 -57 15
-5 3 -48 12 -97 21 -61 10 -126 32 -213 70 -210 93 -336 183 -552 393 -134
130 -213 231 -290 371 -88 159 -112 209 -161 330 -159 394 -189 554 -181 960
4 239 9 319 26 400 6 30 12 66 14 80 2 14 10 54 19 90 8 36 20 96 25 134 16
110 40 151 143 241 26 22 46 46 47 53 0 6 4 12 10 12 5 0 9 5 7 10 -2 11 98
52 107 43 9 -9 154 69 182 98 15 16 33 29 39 29 19 0 114 117 136 167 17 38
22 70 23 153 1 95 -2 111 -27 164 -15 32 -27 66 -27 76 0 26 -37 68 -79 89
-20 11 -47 30 -61 44 -34 33 -67 42 -88 24 -9 -8 -35 -17 -56 -20 -67 -10
-147 -58 -217 -128 -55 -55 -77 -87 -128 -193 -34 -69 -64 -141 -67 -159 -13
-67 -45 -151 -79 -202 -51 -76 -192 -157 -305 -173 -197 -29 -332 -53 -400
-72 -212 -58 -1060 -58 -1396 0 -59 10 -129 51 -252 148 -83 66 -91 75 -71 88
7 4 -4 20 -28 42 -50 47 -133 156 -161 210 -55 106 -62 120 -62 131 0 7 -17
38 -37 69 -70 109 -129 277 -163 467 -22 116 -18 432 5 525 3 14 10 75 15 135
6 61 17 153 25 205 9 52 18 117 21 143 2 26 12 69 21 95 8 26 18 76 20 112 6
95 7 101 31 149 12 24 25 60 28 80 4 20 10 41 14 46 4 6 4 37 -1 70 -5 33 -11
108 -13 166 -4 108 -21 188 -41 195 -6 3 -10 18 -7 33 3 22 29 52 100 115 205
182 209 185 250 179 45 -7 85 -26 133 -64 20 -16 39 -29 42 -29 4 0 36 -21 73
-47 61 -43 158 -84 274 -118 65 -19 140 -53 177 -81 17 -13 37 -24 44 -24 7 0
42 -14 78 -31 96 -45 94 -44 242 -98 75 -27 151 -56 170 -64 19 -9 70 -30 114
-48 44 -18 85 -36 90 -40 6 -4 30 -10 55 -14 25 -3 79 -18 120 -32 102 -35
175 -53 210 -53 16 0 52 -9 80 -20 28 -11 61 -20 73 -20 26 0 163 -52 179 -68
7 -7 29 -12 49 -12 21 0 41 -4 44 -10 3 -5 15 -10 26 -10 10 0 27 -4 37 -9 9
-5 55 -16 101 -25 47 -9 92 -23 101 -31 9 -8 69 -24 134 -35 64 -11 125 -24
135 -30 46 -24 478 -2 601 31 19 5 50 9 68 9 18 0 72 11 120 24 49 14 148 30
227 37 77 6 158 19 180 27 22 8 65 20 95 28 67 16 166 50 200 68 14 7 40 16
58 20 19 3 62 19 95 35 34 16 78 36 97 45 19 9 49 25 65 36 17 11 45 27 62 35
18 8 39 24 45 35 7 11 20 20 28 20 9 0 35 18 59 40 23 22 47 40 52 40 5 0 19
11 31 25 12 14 26 25 32 25 6 1 27 14 46 30 19 17 38 30 43 30 28 0 273 234
376 360 137 168 256 303 300 343 8 6 32 32 55 55 23 24 92 97 155 162 l114
119 33 -22 c18 -12 52 -35 76 -52z m-7264 -12 c7 -16 48 -66 92 -113 l80 -84
-25 -21 c-13 -11 -39 -49 -56 -85 -17 -36 -37 -72 -44 -80 -7 -8 -15 -44 -18
-80 -9 -87 -42 -191 -67 -210 -19 -14 -21 -28 -24 -130 -2 -63 0 -119 4 -125
4 -5 11 -84 14 -175 8 -182 11 -213 28 -315 6 -38 11 -101 11 -140 -1 -51 -10
-345 -13 -405 0 -3 -3 -44 -6 -91 -4 -71 -2 -88 10 -92 13 -5 14 -29 11 -149
-2 -79 -4 -143 -5 -143 -2 0 -13 -321 -14 -410 -1 -266 2 -443 10 -489 3 -17
7 -161 9 -319 2 -193 7 -293 14 -300 16 -16 14 -42 -4 -57 -13 -11 -14 -45 -9
-249 3 -130 9 -285 14 -346 4 -60 6 -171 4 -245 -3 -74 -4 -142 -4 -150 0 -8
-1 -46 -1 -85 0 -38 -2 -95 -4 -125 -3 -30 -7 -91 -10 -135 -2 -44 -9 -145
-15 -225 -18 -260 -29 -1640 -14 -1755 3 -22 9 -44 14 -50 4 -5 10 -30 13 -55
12 -110 33 -198 53 -225 13 -17 17 -18 37 -5 18 11 67 13 252 11 126 -1 233
-5 237 -7 3 -2 339 3 745 12 932 20 995 21 1413 10 314 -7 601 -10 2155 -20
275 -2 525 1 555 5 173 25 708 31 925 11 146 -13 361 -10 423 7 15 4 40 5 57
2 26 -6 30 -11 40 -61 14 -67 44 -160 58 -177 5 -7 6 -13 1 -14 -28 -4 -599 3
-606 7 -4 3 -47 -1 -95 -7 -48 -7 -169 -13 -268 -14 -99 -1 -306 -7 -460 -13
-154 -6 -453 -11 -665 -12 -259 0 -431 -5 -525 -15 -177 -18 -250 -18 -350 -1
-61 10 -211 14 -630 15 -1116 2 -2009 12 -2054 22 -26 6 -86 22 -135 36 -83
24 -94 25 -160 14 -171 -29 -531 -43 -671 -27 -48 6 -106 3 -189 -8 -96 -12
-144 -13 -260 -5 -116 8 -226 28 -245 45 -2 2 2 10 9 19 7 8 10 15 7 15 -3 0
1 28 10 62 22 95 22 96 23 348 0 129 0 330 0 445 1 294 8 535 20 635 5 47 12
240 15 430 4 190 9 395 12 455 3 61 5 124 4 140 -6 179 -5 1588 2 1675 14 179
15 259 6 486 -4 116 -10 361 -13 545 -6 436 -15 767 -22 804 -3 17 -8 93 -10
170 -3 77 -12 187 -20 245 -8 58 -22 168 -30 245 -16 146 -16 147 20 355 29
167 39 215 47 230 23 44 58 129 63 153 10 44 124 306 159 365 17 28 36 52 42
52 5 0 16 -12 23 -27z m1275 -174 c37 -23 67 -47 67 -53 0 -20 -22 -41 -70
-68 -25 -14 -86 -68 -136 -119 -50 -52 -138 -137 -194 -189 -57 -52 -113 -104
-124 -116 -12 -12 -26 -23 -33 -25 -6 -2 -30 -20 -53 -39 -46 -38 -215 -129
-288 -155 -55 -19 -193 -45 -239 -45 -17 0 -33 -5 -35 -12 -3 -7 -13 -5 -32 7
-23 15 -29 16 -36 4 -5 -7 -11 -11 -14 -8 -9 9 -33 159 -31 191 1 15 2 43 3
61 4 56 11 60 107 58 109 -3 131 4 304 85 71 33 120 64 153 97 27 26 52 47 56
47 9 0 292 290 292 300 0 4 18 26 41 49 29 31 38 47 34 62 -5 15 14 6 77 -35
46 -31 113 -74 151 -97z m13433 -46 c60 -64 119 -128 132 -141 20 -21 21 -25
7 -38 -8 -9 -15 -19 -15 -23 0 -5 -52 -62 -115 -127 -63 -65 -115 -121 -115
-125 0 -5 -11 -20 -25 -35 -18 -20 -22 -30 -14 -40 7 -9 7 -18 0 -31 -22 -37
-71 -178 -71 -203 0 -14 -9 -38 -20 -55 -11 -16 -20 -43 -20 -58 0 -15 -7 -39
-16 -52 -9 -13 -24 -59 -35 -102 -11 -42 -34 -109 -53 -148 -36 -76 -42 -94
-50 -140 -11 -64 -19 -87 -53 -167 -19 -46 -43 -105 -53 -131 -11 -27 -26 -60
-35 -74 -9 -13 -28 -55 -41 -91 -14 -37 -31 -80 -39 -97 -7 -16 -32 -70 -55
-120 -23 -49 -49 -99 -59 -110 -10 -11 -33 -47 -51 -80 -34 -62 -131 -218
-232 -375 -32 -49 -58 -92 -58 -95 0 -20 -183 -276 -231 -324 -56 -56 -85
-104 -91 -151 -2 -14 -13 -30 -26 -36 -30 -15 -114 -86 -177 -150 -27 -28 -81
-75 -120 -105 -38 -29 -71 -57 -73 -61 -2 -5 -8 -8 -13 -8 -5 0 -27 -11 -49
-25 -49 -31 -124 -59 -210 -80 -48 -11 -123 -15 -290 -15 -221 1 -258 4 -435
45 -11 2 -42 9 -68 14 -78 17 -274 149 -341 229 -22 26 -61 70 -88 98 -56 58
-60 65 -169 284 -100 202 -129 247 -212 332 -89 92 -155 123 -262 123 -86 0
-125 -11 -191 -56 -50 -34 -107 -126 -124 -200 -6 -30 -16 -70 -21 -90 -5 -20
-9 -71 -9 -113 0 -64 4 -83 24 -114 39 -61 240 -242 331 -299 65 -41 232 -106
312 -122 96 -18 145 -45 209 -112 32 -35 70 -74 83 -88 33 -35 91 -177 91
-223 0 -21 9 -80 20 -131 10 -50 24 -132 30 -182 6 -49 18 -128 25 -175 14
-81 31 -233 41 -350 2 -30 7 -70 10 -88 9 -58 5 -254 -6 -267 -6 -7 -13 -37
-17 -66 -3 -30 -10 -59 -15 -65 -5 -7 -8 -25 -7 -40 0 -16 -6 -53 -14 -81 -8
-29 -13 -62 -10 -73 3 -11 1 -26 -5 -33 -10 -12 -26 -80 -37 -154 -4 -24 -10
-43 -14 -43 -8 0 -41 -75 -41 -95 0 -17 -19 -62 -40 -95 -9 -14 -23 -41 -30
-60 -8 -19 -29 -53 -47 -76 -18 -23 -53 -72 -78 -110 -25 -38 -56 -82 -70 -97
-14 -15 -49 -65 -79 -110 -29 -45 -82 -111 -117 -147 -83 -85 -236 -198 -321
-237 -38 -18 -68 -36 -68 -41 0 -14 -41 -29 -194 -67 -138 -34 -224 -70 -321
-131 -73 -46 -102 -52 -299 -58 -173 -6 -477 11 -601 33 -27 5 -73 9 -102 10
-28 0 -89 5 -134 11 -100 14 -201 6 -339 -26 -129 -30 -160 -42 -182 -68 -16
-19 -16 -19 -28 25 -6 24 -20 67 -31 94 -10 28 -19 55 -19 61 0 6 -9 19 -21
30 -12 10 -31 39 -44 64 l-23 45 37 36 c20 19 51 46 70 60 18 13 62 67 96 120
35 52 83 120 108 150 24 30 65 90 92 134 26 44 60 96 75 115 15 19 35 51 45
70 10 19 34 55 55 80 20 25 40 54 44 65 4 11 23 45 42 75 19 30 58 91 86 135
27 44 60 91 73 105 23 26 98 147 129 210 9 19 27 53 39 75 13 22 40 71 62 110
21 38 46 81 56 95 70 100 159 283 159 327 0 7 4 21 9 31 48 87 114 263 131
348 17 86 72 247 91 264 21 19 39 73 39 119 0 19 8 71 17 114 13 62 14 83 5
98 -15 23 -16 84 -2 109 14 26 13 292 -1 420 -6 58 -12 116 -14 130 -1 14 -7
50 -14 80 -6 30 -18 89 -26 132 -8 42 -19 88 -24 102 -6 14 -11 44 -12 68 -2
30 -21 80 -64 163 -60 118 -119 244 -151 320 -9 22 -22 54 -29 70 -8 17 -32
74 -54 128 -39 94 -70 150 -96 172 -7 6 -38 48 -69 95 -31 47 -64 96 -73 110
-9 14 -27 36 -39 50 -12 14 -32 45 -44 70 -12 25 -46 77 -75 115 -28 39 -84
116 -123 172 -40 55 -75 103 -79 105 -5 1 -24 23 -43 48 -19 25 -44 56 -56 70
-126 144 -197 218 -229 236 -17 9 -17 13 -4 30 8 11 57 58 109 103 52 46 124
108 159 140 35 31 69 59 76 63 13 8 105 -55 105 -71 0 -10 116 -79 259 -154
64 -33 148 -79 188 -103 39 -24 74 -44 77 -44 3 0 56 -24 118 -54 62 -29 156
-68 208 -86 52 -18 115 -43 140 -55 95 -48 429 -138 702 -190 43 -8 126 -26
185 -39 181 -42 253 -45 728 -34 176 4 269 12 395 31 248 39 304 51 503 111
100 30 217 62 259 71 96 19 347 119 556 221 86 42 198 96 247 120 50 24 106
54 125 66 19 12 55 32 80 45 102 52 163 91 232 149 40 34 87 68 103 77 33 17
97 72 255 222 58 56 117 110 132 122 16 11 43 44 62 72 36 54 84 100 102 101
7 0 61 -53 120 -117z m564 -680 c2 -69 4 -89 16 -199 4 -42 1 -84 -10 -133
-17 -73 -14 -163 6 -188 5 -6 5 -12 0 -15 -19 -7 -27 -445 -16 -843 3 -99 6
-200 6 -225 -1 -24 3 -49 7 -55 5 -5 11 -25 14 -42 5 -25 3 -33 -8 -33 -8 0
-15 -5 -15 -11 0 -5 5 -7 12 -3 8 5 9 -8 3 -52 -4 -32 -9 -160 -11 -284 -2
-124 -8 -288 -12 -365 -9 -157 -8 -407 4 -750 9 -283 9 -446 -2 -505 -4 -25
-7 -76 -6 -115 5 -287 2 -570 -7 -625 -14 -85 -14 -908 0 -970 6 -26 11 -235
13 -495 1 -247 6 -479 10 -515 5 -41 3 -87 -4 -125 -7 -33 -13 -118 -15 -190
-1 -71 -8 -165 -15 -208 -6 -43 -9 -85 -6 -92 3 -8 1 -17 -4 -20 -5 -3 -103
-5 -217 -4 -374 3 -423 3 -928 0 -454 -3 -665 2 -687 15 -5 3 -113 8 -241 10
-173 4 -264 1 -357 -10 -96 -12 -176 -14 -345 -9 -121 3 -247 6 -280 6 -33 0
-153 4 -267 8 -141 6 -234 5 -290 -2 -61 -9 -112 -9 -193 0 -137 13 -265 15
-465 6 -125 -6 -165 -5 -205 7 -38 12 -81 14 -180 10 -71 -3 -159 -5 -195 -5
-36 0 -155 1 -265 1 -110 1 -261 1 -335 0 -146 -2 -380 6 -500 17 -41 3 -230
7 -420 9 l-345 2 -190 46 c-104 26 -224 51 -265 58 -56 8 -88 19 -125 44 -27
18 -78 44 -113 58 -35 14 -63 28 -63 32 0 4 20 23 45 42 26 19 46 38 46 43 0
4 11 13 23 20 21 11 33 8 98 -22 69 -33 122 -48 274 -78 33 -7 69 -17 80 -23
11 -5 105 -11 210 -12 271 -3 485 -13 501 -22 8 -5 45 -5 82 -1 37 3 251 6
475 5 225 -1 410 0 412 2 6 6 98 11 315 17 353 9 732 25 741 31 8 5 118 6 174
2 11 -1 49 2 85 6 38 4 104 2 160 -5 52 -6 179 -10 282 -9 143 1 200 -2 240
-13 89 -25 254 -39 364 -30 54 4 124 7 154 6 110 -3 249 -3 455 0 139 2 244
-1 310 -10 55 -7 132 -11 170 -8 240 18 285 18 329 1 63 -24 290 -55 371 -50
118 7 272 32 356 57 25 8 104 14 184 15 77 1 174 7 215 12 41 6 87 10 102 10
23 0 26 4 23 26 -1 15 -9 31 -17 35 -11 6 -15 28 -16 79 -1 39 -7 100 -13 136
-8 49 -8 68 1 79 8 9 8 19 1 33 -12 22 -2 756 11 810 1 4 -2 41 -7 82 -8 78
-9 302 0 825 14 920 19 1518 11 1710 -1 44 1 109 6 145 12 92 31 471 31 620 0
69 -3 251 -6 405 -19 780 -21 1021 -11 1330 4 121 7 238 8 260 0 22 -3 77 -7
121 l-8 82 44 6 c25 4 78 20 118 35 41 16 77 27 80 25 3 -2 7 -34 9 -71z
m-2623 -3072 c54 -5 150 -17 213 -26 63 -9 131 -18 151 -20 69 -7 252 -69 440
-151 31 -13 61 -24 66 -24 5 0 25 -12 44 -26 19 -14 74 -46 122 -70 133 -67
234 -141 337 -245 112 -114 285 -335 329 -421 32 -64 137 -317 145 -348 2 -8
15 -51 29 -95 22 -69 42 -228 40 -320 -1 -11 5 -71 13 -134 8 -62 11 -117 8
-122 -2 -5 0 -28 7 -51 6 -24 13 -104 15 -178 2 -74 8 -207 13 -294 5 -88 8
-162 6 -166 -2 -3 -5 -38 -6 -79 -2 -71 -17 -170 -37 -241 -5 -19 -15 -60 -22
-90 -26 -112 -106 -241 -170 -275 -21 -11 -88 -21 -200 -30 -37 -3 -157 23
-204 44 -65 29 -175 104 -244 166 l-62 57 6 50 c15 115 24 130 95 164 74 36
212 54 263 34 15 -5 58 -15 96 -21 82 -12 129 -2 180 40 33 28 35 33 33 86 -3
89 -68 195 -120 195 -12 0 -44 16 -69 35 -26 20 -58 42 -73 49 -47 25 -165 54
-242 61 -73 6 -78 5 -170 -36 -101 -45 -219 -82 -337 -105 -90 -17 -487 -15
-542 3 -124 41 -169 52 -202 51 -20 -1 -43 3 -50 8 -7 6 -49 37 -93 69 -158
116 -282 259 -391 451 -112 199 -204 471 -219 654 -4 41 -13 111 -21 155 -9
44 -18 111 -20 150 -3 38 -7 90 -9 115 -3 25 -7 155 -11 290 -7 270 10 455 44
493 49 54 191 109 312 121 30 3 82 11 115 17 33 5 107 13 165 16 58 3 107 7
109 9 2 2 7 1 11 -1 5 -3 52 -9 107 -14z m-9738 -230 c12 -21 48 -34 57 -20
13 22 135 1 204 -35 48 -26 123 -78 133 -93 4 -7 14 -13 20 -13 7 0 34 -21 59
-47 36 -37 52 -65 71 -123 14 -41 34 -96 45 -121 16 -37 19 -62 16 -119 -2
-39 -6 -76 -9 -81 -11 -17 -7 -363 4 -367 12 -4 15 -102 4 -102 -11 0 -9 -47
4 -95 42 -160 46 -307 12 -464 -28 -126 -47 -174 -100 -252 -24 -35 -53 -80
-64 -99 -32 -59 -77 -112 -146 -175 -143 -131 -254 -218 -344 -269 -121 -69
-155 -86 -230 -111 -44 -15 -84 -31 -90 -35 -5 -4 -71 -28 -145 -54 -74 -25
-189 -64 -255 -86 -116 -40 -242 -77 -355 -106 -30 -7 -71 -20 -90 -28 -19 -8
-98 -33 -175 -56 -155 -45 -438 -87 -510 -75 -22 4 -59 6 -82 6 -137 -5 -330
56 -462 144 -84 55 -82 53 -179 216 -94 159 -102 190 -96 359 9 253 75 434
177 485 61 31 168 50 267 48 l95 -1 33 -39 c50 -57 79 -120 96 -212 30 -155
16 -283 -41 -392 -30 -58 -45 -74 -87 -98 -28 -16 -65 -32 -83 -36 -17 -3 -34
-13 -37 -21 -3 -8 -16 -14 -29 -14 -13 0 -31 -6 -42 -13 -16 -13 -14 -15 26
-35 105 -51 199 -57 299 -22 69 25 130 54 130 61 0 5 14 24 30 43 45 51 80
196 80 330 0 95 -24 254 -48 317 -6 14 -13 41 -16 60 -13 79 -18 98 -46 174
-98 270 -113 338 -105 459 8 120 23 187 69 321 106 307 182 443 301 538 40 31
78 57 84 57 6 0 11 4 11 8 0 11 175 127 245 163 198 103 185 99 328 92 75 -4
155 -1 199 5 71 11 164 17 528 32 96 4 187 8 202 8 18 1 31 -5 37 -17z m737
-1927 c6 -32 20 -80 32 -106 12 -26 22 -50 22 -54 0 -15 81 -171 98 -190 76
-82 38 -277 -77 -397 -51 -54 -90 -76 -171 -100 -149 -44 -231 -58 -383 -68
-89 -5 -173 -14 -186 -20 -13 -5 -32 -7 -43 -3 -12 3 -18 2 -15 -3 4 -6 -6
-16 -21 -23 -15 -7 -35 -16 -44 -21 -31 -16 -36 -10 -52 62 -20 91 -21 149 -2
149 8 0 47 22 88 49 40 27 101 63 136 81 34 18 62 36 62 41 0 5 8 13 18 17 18
7 32 17 125 91 58 46 131 136 161 197 13 28 38 65 55 82 17 17 31 35 31 40 0
6 3 12 8 14 20 9 93 142 116 211 11 34 31 11 42 -49z m4216 -521 c108 -87 181
-166 253 -274 13 -21 28 -39 32 -40 5 -2 22 -26 37 -54 16 -27 37 -59 47 -70
22 -25 69 -129 69 -153 0 -10 6 -24 12 -30 8 -8 14 -60 16 -154 l4 -141 -48 7
c-96 14 -94 13 -92 65 1 25 -8 84 -20 131 -12 47 -24 96 -27 110 -9 49 -169
271 -254 354 -28 26 -49 52 -46 56 3 5 -4 11 -15 15 -11 3 -20 13 -20 21 0 8
-3 13 -7 11 -5 -3 -22 3 -40 12 l-31 17 51 67 c29 36 53 66 54 66 2 1 13 -7
25 -16z m136 -509 c42 -51 84 -137 76 -158 -4 -9 -32 -30 -64 -46 -60 -30 -81
-47 -213 -173 -110 -105 -205 -168 -315 -209 -31 -11 -61 -24 -66 -29 -28 -26
-81 17 -116 93 l-20 43 26 23 c16 14 38 22 60 22 22 0 34 5 34 13 0 8 33 30
73 50 40 20 109 65 151 99 43 35 86 68 95 73 9 6 39 34 66 64 66 72 168 171
177 171 3 0 20 -16 36 -36z m-926 -265 c108 -35 149 -63 133 -89 -12 -19 -5
-168 9 -216 31 -100 148 -213 259 -250 28 -9 62 -24 75 -32 19 -12 46 -14 141
-9 139 7 180 22 254 92 l47 46 109 -17 c60 -9 114 -20 121 -24 16 -10 -34 -60
-59 -60 -10 0 -50 -28 -89 -63 -47 -43 -93 -73 -139 -92 -37 -15 -81 -34 -98
-41 -164 -71 -308 -58 -532 47 -87 40 -221 170 -232 224 -1 6 -10 19 -21 30
-10 11 -32 66 -50 123 -31 99 -32 107 -26 219 4 64 9 120 12 124 7 13 17 11
86 -12z"/>
<path d="M9810 16280 c0 -5 5 -10 11 -10 5 0 7 5 4 10 -3 6 -8 10 -11 10 -2 0
-4 -4 -4 -10z"/>
<path d="M16400 11086 c0 -2 8 -10 18 -17 15 -13 16 -12 3 4 -13 16 -21 21
-21 13z"/>
<path d="M16585 10830 c3 -5 8 -10 11 -10 2 0 4 5 4 10 0 6 -5 10 -11 10 -5 0
-7 -4 -4 -10z"/>
<path d="M9561 7504 c0 -11 3 -14 6 -6 3 7 2 16 -1 19 -3 4 -6 -2 -5 -13z"/>
<path d="M676 7417 c3 -10 9 -15 12 -12 3 3 0 11 -7 18 -10 9 -11 8 -5 -6z"/>
</g>
</svg>
