<?xml version="1.0" standalone="no"?>
<!DOCTYPE svg PUBLIC "-//W3C//DTD SVG 20010904//EN"
 "http://www.w3.org/TR/2001/REC-SVG-20010904/DTD/svg10.dtd">
<svg version="1.0" xmlns="http://www.w3.org/2000/svg"
 width="1613.000000pt" height="1594.000000pt" viewBox="0 0 1613.000000 1594.000000"
 preserveAspectRatio="xMidYMid meet">
<metadata>
Created by potrace 1.13, written by Peter Selinger 2001-2015
</metadata>
<g transform="translate(0.000000,1594.000000) scale(0.100000,-0.100000)"
fill="#000000" stroke="none">
<path d="M8042 15022 c-59 -9 -33 -59 66 -127 53 -36 99 -56 184 -82 162 -48
197 -81 135 -127 -24 -17 -42 -21 -110 -21 -101 0 -123 11 -332 160 -82 59
-162 113 -177 121 -36 19 -244 54 -319 54 -74 0 -158 -31 -206 -76 -32 -30
-35 -37 -22 -49 8 -8 64 -24 124 -35 157 -29 181 -37 205 -67 25 -31 22 -44
-12 -61 -45 -22 -242 36 -423 125 -82 40 -170 84 -194 98 -59 33 -95 32 -188
-9 -43 -19 -123 -44 -178 -55 -114 -24 -175 -48 -175 -68 0 -20 52 -39 198
-74 170 -40 227 -62 227 -85 0 -15 -15 -22 -80 -36 -154 -34 -176 -34 -247 -1
-35 17 -103 60 -151 96 -85 63 -205 117 -263 117 -11 0 -65 -15 -120 -34 -157
-53 -294 -128 -294 -161 0 -28 60 -47 174 -55 61 -5 137 -16 168 -26 54 -16
98 -44 98 -64 0 -33 -77 -60 -237 -84 -120 -18 -117 -19 -327 73 -86 37 -154
61 -175 61 -24 0 -79 -21 -161 -61 -69 -34 -170 -80 -225 -103 -77 -32 -101
-46 -103 -62 -5 -35 36 -44 201 -44 154 0 262 -11 280 -29 23 -23 -11 -60 -84
-93 -165 -76 -388 -188 -439 -220 -128 -82 -296 -156 -432 -192 -74 -19 -147
-40 -163 -46 -64 -24 -114 -15 -229 44 -142 73 -154 73 -224 -4 -31 -33 -92
-83 -136 -111 -91 -58 -136 -96 -136 -116 0 -29 146 -8 337 48 122 36 196 37
201 2 10 -70 -141 -222 -378 -380 -91 -61 -187 -134 -215 -163 -27 -29 -84
-78 -125 -110 -87 -67 -264 -246 -337 -340 -28 -36 -68 -81 -88 -100 -21 -19
-62 -66 -93 -105 -30 -38 -80 -97 -111 -131 -86 -93 -187 -225 -366 -475 -33
-46 -80 -106 -105 -134 -26 -27 -61 -70 -80 -95 -19 -25 -53 -66 -76 -91 -42
-47 -54 -72 -75 -173 -15 -68 -44 -116 -81 -134 -15 -7 -69 -21 -120 -32 -100
-22 -125 -36 -291 -158 -48 -36 -92 -73 -97 -83 -34 -62 25 -145 88 -125 11 4
69 43 128 87 114 84 145 99 169 79 19 -16 19 -54 0 -138 -20 -86 -43 -124
-101 -165 -26 -17 -88 -62 -137 -99 -50 -37 -149 -97 -220 -134 -83 -44 -137
-78 -151 -98 -28 -37 -66 -137 -66 -172 0 -45 27 -39 138 34 121 80 153 95
188 86 30 -8 64 -49 64 -79 0 -13 -9 -51 -19 -86 -11 -35 -25 -83 -31 -106
-22 -85 -56 -110 -268 -194 -205 -82 -199 -76 -263 -268 -46 -136 -49 -177
-16 -192 30 -14 129 9 243 56 101 42 116 43 143 9 18 -23 21 -41 21 -118 0
-50 -4 -107 -10 -126 -5 -19 -14 -80 -20 -135 -6 -55 -17 -154 -25 -220 -9
-66 -20 -165 -25 -220 -5 -55 -14 -116 -20 -135 -17 -57 -13 -590 5 -683 9
-50 15 -138 15 -240 0 -89 4 -178 9 -197 9 -32 17 -94 42 -339 10 -95 18 -127
159 -576 38 -121 85 -274 105 -340 34 -109 67 -201 172 -475 55 -143 243 -513
360 -708 117 -197 414 -642 498 -747 30 -38 96 -124 147 -190 50 -66 139 -170
197 -232 58 -61 151 -161 206 -222 55 -60 129 -134 164 -163 35 -29 96 -83
135 -120 39 -36 103 -93 143 -125 39 -32 115 -94 168 -138 246 -205 426 -345
479 -372 17 -9 76 -46 131 -83 93 -62 175 -112 415 -252 206 -121 542 -280
775 -368 55 -20 156 -60 225 -88 184 -73 618 -210 738 -232 202 -37 567 -105
677 -127 72 -14 189 -29 260 -33 72 -5 163 -13 203 -20 100 -15 1104 -9 1182
8 50 11 167 33 700 133 224 42 543 122 637 160 43 17 134 51 203 74 69 24 163
60 210 80 47 20 123 53 169 72 47 19 111 48 143 64 31 16 91 42 132 59 116 46
411 196 511 260 50 32 144 92 210 133 66 42 145 91 175 111 52 33 203 153 405
321 50 42 131 108 180 149 50 40 97 81 105 91 8 10 56 51 105 90 101 82 251
233 312 315 23 30 76 89 118 130 42 41 103 109 136 150 32 41 86 109 119 150
118 148 198 256 256 347 145 226 213 339 339 563 23 41 60 106 83 144 22 38
55 105 73 150 18 44 47 111 65 147 31 62 118 279 227 564 48 125 162 566 192
740 10 55 35 190 56 300 21 110 43 229 49 265 5 36 19 108 30 160 15 71 20
136 20 255 1 88 5 180 10 205 6 25 14 95 19 157 17 201 50 205 141 20 38 -78
49 -92 71 -95 35 -4 49 17 140 200 43 89 73 162 76 189 6 56 -40 275 -63 300
-27 30 -64 23 -139 -27 -99 -66 -123 -91 -140 -148 -26 -88 -56 -116 -86 -80
-13 16 -21 63 -49 279 -6 50 -15 119 -20 155 -15 103 -31 238 -40 330 -4 47
-20 144 -34 215 -29 152 -41 255 -32 290 13 51 62 23 136 -77 71 -96 95 -89
153 47 57 134 64 175 44 253 -23 86 -87 216 -109 220 -12 2 -43 -36 -108 -133
-113 -168 -144 -187 -190 -113 -26 44 -110 274 -110 303 0 34 45 82 104 112
137 69 216 138 216 190 0 10 -34 89 -77 176 l-77 159 -5 107 c-6 117 -16 141
-59 141 -44 0 -91 -40 -168 -142 -125 -165 -138 -161 -255 61 -46 86 -103 197
-127 246 -25 50 -58 106 -74 127 -87 111 -77 208 41 387 69 105 69 111 17 199
-55 94 -124 171 -176 197 -56 28 -75 58 -85 130 -3 28 -15 91 -26 140 -18 84
-24 95 -89 178 -38 48 -106 128 -151 177 -106 116 -116 117 -164 16 -36 -75
-63 -102 -115 -112 -25 -5 -30 -3 -35 17 -3 13 1 44 10 68 28 81 22 105 -79
308 -51 103 -105 200 -119 215 -28 30 -140 89 -207 109 -35 10 -63 32 -123 94
-43 44 -95 100 -115 125 -72 90 -209 223 -278 270 -40 27 -103 72 -140 101
-38 29 -91 63 -119 75 -44 21 -59 23 -128 17 l-79 -6 -71 76 c-40 41 -112 106
-162 143 -49 37 -108 83 -129 101 -44 36 -94 44 -116 17 -23 -27 -48 -36 -70
-24 -11 6 -46 46 -78 90 -32 44 -71 89 -86 101 -35 27 -250 120 -294 126 -24
4 -49 -2 -88 -22 -35 -18 -62 -25 -77 -21 -14 3 -55 40 -92 81 -41 46 -86 85
-114 99 -53 27 -483 170 -647 215 -110 31 -113 31 -180 17 -38 -8 -82 -12 -99
-10 -16 3 -177 42 -356 86 -210 52 -336 78 -352 74 -36 -9 -84 -52 -91 -82
-11 -41 15 -59 137 -99 62 -20 146 -49 188 -65 41 -16 122 -38 180 -50 57 -12
130 -28 162 -36 40 -10 80 -13 130 -8 l73 6 129 -66 c71 -36 139 -76 152 -88
30 -28 29 -56 -1 -69 -24 -12 -121 9 -296 62 -36 11 -117 24 -180 30 -63 5
-165 14 -227 19 -81 6 -123 15 -155 31 -69 35 -182 115 -261 183 -53 46 -95
73 -162 101 -134 56 -265 106 -305 116 -45 11 -198 25 -228 21z m528 -530 c91
-6 181 -16 200 -22 19 -5 56 -10 81 -10 26 0 82 -6 125 -14 44 -8 126 -22 184
-31 232 -38 372 -69 503 -112 208 -67 249 -118 90 -112 -43 2 -784 3 -1648 3
l-1570 1 -120 -37 c-66 -21 -139 -42 -162 -48 -25 -6 -51 -21 -63 -37 -20 -26
-21 -30 -15 -622 3 -328 9 -1077 13 -1666 6 -848 10 -1078 21 -1110 13 -38 11
-173 -5 -350 -9 -99 -8 -99 196 -103 129 -3 188 1 240 12 61 14 225 16 1368
16 1273 0 1300 0 1357 20 48 17 84 20 212 20 122 0 173 4 242 21 82 19 93 20
145 6 64 -16 79 -10 93 41 5 15 8 356 8 757 l0 730 -24 44 c-13 25 -25 69 -28
100 -2 31 -5 493 -6 1027 l-2 972 -41 48 c-45 53 -74 104 -74 129 0 18 39 20
90 4 19 -6 78 -14 130 -18 72 -7 133 -21 253 -61 131 -43 225 -85 545 -244
213 -106 434 -221 492 -256 206 -123 428 -267 511 -331 31 -24 85 -66 120 -94
35 -27 86 -71 114 -96 27 -25 70 -60 95 -79 25 -19 68 -54 96 -79 51 -46 128
-109 253 -209 89 -71 221 -202 284 -282 28 -36 92 -108 141 -160 69 -72 139
-166 289 -390 109 -162 257 -380 328 -485 174 -255 237 -362 370 -626 117
-235 138 -286 194 -486 43 -151 44 -175 8 -203 -26 -20 -35 -21 -108 -15 -157
15 -1299 -5 -1355 -23 -45 -15 -2146 -17 -2200 -2 -54 15 -246 34 -335 34 -86
-1 -263 -19 -329 -34 -23 -5 -87 -10 -143 -10 -56 0 -137 -7 -180 -15 -65 -13
-215 -15 -928 -15 -699 -1 -862 -3 -915 -15 -96 -21 -1324 -21 -1420 0 -36 8
-103 14 -150 14 -47 0 -114 -6 -150 -14 -36 -8 -90 -15 -120 -15 -30 0 -84 -7
-120 -15 -54 -12 -237 -14 -1074 -15 -867 0 -1020 -2 -1085 -15 -65 -14 -185
-15 -852 -13 l-776 3 -78 40 c-85 43 -118 78 -118 123 0 32 60 205 136 387 71
172 436 896 496 985 79 117 175 251 306 426 66 89 157 213 203 276 64 89 144
174 351 379 270 267 375 365 483 452 33 26 85 69 116 97 69 60 172 133 404
287 356 237 473 305 838 488 179 89 357 175 395 190 39 15 100 43 136 61 36
18 115 48 175 67 222 71 411 126 469 136 33 6 166 31 295 56 457 86 749 134
831 136 24 1 55 5 69 9 36 12 903 5 1100 -8z m-1988 -440 c59 -26 72 -56 63
-159 -3 -43 -9 -323 -13 -623 -7 -570 -8 -576 -52 -600 -29 -16 -91 -11 -138
10 -75 34 -73 7 -70 719 l3 629 25 27 c23 25 30 27 81 22 31 -3 76 -14 101
-25z m2045 4 c26 -23 28 -28 33 -150 l6 -127 60 -117 c51 -101 63 -117 86
-120 35 -4 62 33 128 170 50 105 70 180 70 266 0 50 34 92 73 92 51 0 221 -50
244 -72 48 -45 32 -80 -172 -388 -69 -103 -95 -134 -153 -178 -81 -61 -107
-105 -97 -160 26 -141 16 -125 181 -293 177 -180 185 -196 140 -274 -44 -75
-104 -98 -147 -59 -12 11 -36 48 -54 84 -18 36 -55 88 -82 116 -26 28 -64 70
-83 94 -39 46 -57 47 -86 2 -12 -19 -20 -59 -25 -131 -20 -273 -76 -331 -194
-199 -55 61 -63 97 -37 163 60 151 106 256 147 330 25 46 45 92 45 103 0 18
-97 153 -220 307 -60 76 -78 120 -91 230 -27 241 -23 300 24 323 12 6 57 11
99 11 67 1 80 -2 105 -23z m1051 -9 c14 -12 44 -62 68 -111 68 -139 61 -177
-65 -329 -100 -122 -101 -126 -101 -346 l0 -189 38 -73 c21 -41 69 -129 106
-196 78 -142 83 -176 27 -181 -43 -4 -223 83 -268 130 -18 18 -59 71 -93 118
-169 237 -190 281 -172 349 9 34 29 87 147 401 26 69 66 177 90 240 58 161 79
195 125 213 25 10 73 -2 98 -26z m1573 8 c57 -9 117 -18 132 -21 24 -5 70 -42
223 -183 57 -52 67 -121 18 -121 -34 0 -74 22 -173 92 -45 34 -149 97 -229
142 -80 44 -147 87 -150 94 -5 17 49 16 179 -3z m-3182 -22 c26 -26 71 -122
112 -240 18 -49 19 -95 19 -671 0 -428 3 -629 11 -651 13 -37 61 -65 129 -76
25 -4 79 -16 120 -28 72 -20 104 -21 735 -26 703 -6 705 -7 705 -54 0 -42
-156 -169 -236 -193 -67 -20 -611 -19 -704 1 -88 19 -672 21 -710 2 -48 -24
-55 -58 -35 -166 l17 -96 -26 -79 -26 -79 25 -92 c25 -92 25 -97 25 -489 0
-321 -3 -403 -14 -431 -28 -65 -150 -100 -192 -54 -18 20 -19 47 -24 528 -4
454 -7 510 -22 545 -22 47 -23 107 -3 163 12 34 12 57 3 128 -7 54 -18 95 -29
108 l-17 22 -727 5 -727 5 -24 28 c-20 24 -24 39 -24 93 0 59 3 69 28 94 23
23 41 29 95 35 97 11 595 0 637 -14 22 -7 136 -11 319 -11 l284 0 37 39 c28
29 52 75 89 169 l51 130 1 628 c0 346 4 651 8 678 8 45 29 76 54 76 5 0 21
-12 36 -27z m-555 -23 c73 -45 206 -172 206 -198 0 -42 -25 -54 -169 -81 -121
-23 -126 -28 -306 -286 -54 -77 -69 -122 -55 -161 21 -54 178 -309 210 -339
31 -30 32 -30 178 -35 161 -6 187 -14 197 -59 7 -33 -60 -220 -96 -264 -39
-51 -55 -49 -312 47 -141 52 -145 55 -229 158 -42 51 -95 116 -117 143 -67 82
-120 165 -127 200 -10 55 93 399 143 479 63 99 297 399 326 417 41 26 83 20
151 -21z m6181 -2076 c31 -15 62 -36 70 -48 33 -46 1 -165 -50 -188 -42 -19
-72 3 -105 76 -41 91 -56 152 -40 171 18 22 63 18 125 -11z m-7167 2 c46 -24
61 -50 82 -137 46 -190 52 -207 78 -232 35 -33 285 -157 316 -157 44 0 51 22
56 192 l5 160 36 32 c37 35 128 75 189 83 72 10 96 -72 66 -219 -9 -44 -16
-126 -16 -191 0 -85 -7 -145 -26 -238 -23 -105 -27 -157 -31 -339 -5 -233 -5
-231 -70 -321 -64 -90 -98 -55 -89 91 3 47 8 152 12 233 8 204 13 199 -207
236 -119 20 -157 35 -273 105 -64 39 -100 45 -110 21 -3 -9 13 -91 36 -183 34
-139 41 -185 42 -272 1 -125 -10 -151 -82 -182 -72 -32 -123 -35 -147 -8 -20
22 -20 36 -20 660 0 613 1 639 19 659 23 25 92 29 134 7z m2077 -36 c26 -16
38 -34 52 -77 22 -70 53 -95 125 -100 48 -4 63 1 155 46 136 67 189 84 214 71
10 -6 19 -17 19 -26 0 -39 -143 -260 -190 -294 -15 -11 -99 -44 -187 -74 -195
-66 -217 -77 -233 -116 -12 -28 -10 -36 16 -88 35 -68 87 -109 229 -184 90
-48 116 -69 259 -208 87 -85 172 -173 187 -194 38 -51 40 -112 6 -152 -43 -50
-89 -33 -247 89 -34 27 -75 72 -107 122 -96 146 -104 156 -135 173 -16 9 -60
38 -96 65 -73 51 -96 57 -112 28 -26 -49 -2 -120 95 -286 42 -73 46 -118 10
-141 -32 -21 -129 -29 -183 -15 -81 22 -77 -11 -80 651 -2 322 0 609 3 639 5
38 14 61 32 79 22 22 30 24 79 19 30 -3 70 -15 89 -27z m1100 10 c24 0 143
-119 164 -164 20 -41 21 -58 21 -470 0 -370 -2 -433 -16 -461 -24 -52 -185
-193 -251 -221 -28 -12 -38 -12 -65 0 -42 18 -405 384 -492 495 -97 124 -97
123 55 353 67 101 133 196 148 212 14 15 64 55 111 87 47 32 116 82 154 109
69 50 119 72 144 64 8 -2 20 -4 27 -4z m-1969 -32 c26 -13 57 -35 68 -50 27
-37 32 -119 12 -215 -13 -67 -16 -159 -16 -575 0 -320 -4 -506 -10 -525 -15
-41 -51 -56 -99 -43 -50 13 -119 64 -134 98 -13 30 -24 1124 -12 1240 9 86 29
107 95 99 27 -3 70 -16 96 -29z m1468 -2082 c28 -12 66 -35 84 -50 62 -53 47
-94 -159 -404 -38 -57 -69 -110 -69 -118 0 -8 12 -38 26 -66 19 -37 29 -76 34
-137 9 -102 17 -126 74 -205 76 -106 90 -143 91 -222 0 -74 -13 -104 -45 -104
-26 0 -43 25 -103 155 -30 66 -75 165 -101 221 -25 55 -46 109 -46 120 -1 100
-64 89 -110 -19 -44 -102 -100 -319 -106 -415 -8 -113 -25 -143 -70 -127 -18
7 -45 33 -69 69 -37 53 -40 63 -40 124 0 56 6 81 36 147 20 44 52 116 72 160
21 48 51 97 76 123 23 24 47 56 53 70 5 15 19 48 31 74 27 64 16 90 -50 113
-122 44 -149 62 -181 123 -46 88 -125 319 -118 347 7 29 38 40 67 25 12 -7 54
-42 93 -78 130 -121 241 -162 285 -106 12 15 21 31 21 35 0 5 14 41 32 79 47
106 81 117 192 66z m499 8 c76 -39 165 -101 178 -125 19 -37 2 -63 -111 -163
-61 -54 -116 -108 -122 -120 -16 -29 -22 -237 -10 -325 9 -59 20 -90 58 -155
106 -181 154 -275 154 -302 0 -56 -54 -113 -106 -114 -39 0 -58 21 -178 196
-130 191 -156 243 -156 308 0 28 -7 82 -15 121 -22 104 -19 276 6 345 11 30
33 91 48 135 42 117 70 177 93 203 30 31 93 30 161 -4z m-6616 -4 c38 -24 58
-73 54 -134 -2 -32 -199 -216 -266 -247 -73 -35 -99 -36 -130 -4 -29 28 -30
34 -9 83 12 29 14 56 9 124 -5 72 -3 92 10 115 21 35 59 64 99 74 46 12 208 4
233 -11z m4532 -4 c36 -19 59 -55 106 -171 64 -155 66 -160 54 -195 -12 -32
-53 -60 -89 -60 -29 0 -55 15 -123 72 -60 50 -75 55 -108 37 -21 -11 -173
-233 -184 -270 -13 -40 5 -85 63 -156 31 -39 95 -119 142 -178 48 -61 108
-125 140 -148 80 -59 190 -177 190 -203 0 -31 -20 -35 -140 -24 -194 16 -236
40 -345 196 -27 38 -76 107 -111 154 -73 100 -96 145 -119 225 -9 33 -28 100
-42 148 -19 67 -23 100 -18 134 8 56 173 389 209 423 34 31 91 40 233 35 74
-3 123 -9 142 -19z m6734 -3 c30 -34 54 -110 115 -363 58 -241 71 -320 92
-537 5 -51 14 -110 19 -130 6 -21 11 -114 11 -208 1 -109 6 -193 15 -235 20
-90 20 -382 0 -475 -9 -45 -15 -129 -15 -235 0 -91 -5 -183 -11 -205 -6 -22
-14 -134 -19 -250 -8 -207 -17 -297 -46 -465 -8 -47 -14 -105 -14 -130 0 -53
-36 -133 -62 -138 -34 -6 -40 43 -47 398 -3 190 -10 352 -16 360 -12 19 -24
347 -33 885 -4 253 -11 446 -17 455 -5 8 -12 114 -16 235 -4 121 -12 236 -18
255 -15 46 -15 711 0 763 11 41 35 49 62 20z m-7785 -14 c65 -32 85 -69 78
-149 -3 -36 -13 -103 -22 -150 -11 -58 -18 -177 -22 -370 -4 -157 -11 -291
-15 -298 -5 -7 -12 -64 -17 -126 -13 -172 -29 -186 -124 -115 -69 52 -76 73
-76 235 0 72 -6 153 -16 198 -12 59 -15 125 -12 298 l3 223 39 112 c55 162 88
188 184 142z m1609 -1 c26 -29 50 -77 99 -198 l39 -95 5 -648 c5 -634 5 -649
25 -663 15 -12 34 -14 75 -9 30 4 314 9 630 11 564 5 577 4 663 -17 84 -21
146 -51 154 -76 7 -20 -40 -53 -97 -69 -30 -8 -82 -25 -115 -36 -55 -20 -87
-22 -361 -26 -243 -3 -318 -1 -392 12 -143 25 -243 21 -384 -15 -123 -31 -170
-49 -185 -71 -4 -7 -10 -310 -13 -673 -6 -742 -1 -696 -83 -756 -77 -56 -114
-60 -135 -13 -17 35 -17 1337 -1 1417 15 73 7 101 -32 118 -26 10 -41 10 -88
-1 -44 -11 -191 -15 -669 -18 -521 -2 -626 -1 -703 13 -117 20 -159 37 -159
66 0 26 54 77 123 115 l52 29 667 5 668 5 24 25 c13 14 34 52 47 85 l24 60 5
695 c5 709 6 729 42 743 28 12 56 6 75 -15z m-3952 -33 c39 -8 122 -15 188
-15 144 0 179 -12 197 -65 17 -53 8 -154 -19 -201 -12 -22 -37 -50 -56 -64
-18 -14 -46 -47 -62 -75 -47 -82 -109 -87 -166 -11 -80 106 -157 192 -224 246
-56 46 -75 69 -84 100 -11 35 -10 42 6 60 36 40 109 48 220 25z m-2494 -12
c11 -13 13 -75 11 -325 -6 -645 -4 -2571 3 -2753 4 -126 3 -199 -4 -217 -21
-55 -72 -25 -111 67 -23 52 -63 221 -75 315 -4 30 -18 107 -31 170 -19 93 -24
146 -24 280 -1 105 -6 189 -15 230 -8 36 -15 90 -15 120 0 30 -7 84 -15 120
-11 48 -14 139 -14 345 0 206 3 297 14 345 9 41 14 125 15 228 0 137 5 186 30
320 17 86 37 198 46 247 17 94 95 411 114 461 12 31 38 64 50 64 4 0 14 -7 21
-17z m486 -45 c55 -60 155 -249 220 -417 67 -172 95 -269 82 -292 -14 -27 -33
-24 -105 16 -70 39 -109 43 -231 21 -61 -11 -86 -22 -164 -75 -103 -69 -142
-77 -147 -30 -4 38 40 205 97 365 123 345 137 381 169 417 21 24 54 21 79 -5z
m8046 -17 c22 -22 22 -22 27 -649 4 -449 9 -637 18 -662 9 -26 12 -293 12
-1081 0 -738 3 -1055 11 -1078 6 -17 19 -36 29 -41 28 -15 1004 -13 1055 2 27
8 259 14 710 20 369 4 947 11 1285 15 338 5 620 12 627 16 7 4 62 12 123 17
63 6 132 19 163 30 77 29 87 27 87 -17 -1 -42 -64 -238 -164 -503 -36 -96 -85
-224 -108 -285 -112 -299 -163 -418 -216 -506 -31 -53 -84 -145 -117 -203
-115 -204 -409 -665 -434 -681 -6 -3 -71 -81 -145 -173 -74 -92 -164 -196
-201 -232 -37 -36 -87 -92 -112 -125 -63 -82 -233 -255 -318 -322 -38 -31
-101 -86 -140 -123 -38 -37 -91 -83 -116 -102 -26 -19 -71 -55 -100 -81 -56
-50 -280 -230 -384 -308 -33 -26 -87 -61 -120 -79 -33 -19 -92 -52 -130 -76
-39 -23 -107 -60 -150 -83 -44 -22 -134 -72 -200 -111 -66 -38 -183 -102 -260
-141 -127 -65 -159 -77 -334 -121 -141 -35 -203 -47 -229 -42 -40 8 -89 53
-146 136 -36 53 -40 65 -47 150 -5 51 -13 111 -19 133 -5 22 -10 166 -10 320
-1 204 -5 298 -15 345 -12 52 -14 188 -15 695 -1 507 -3 643 -15 695 -18 81
-21 820 -4 885 6 22 14 121 18 220 5 99 11 188 15 197 11 25 33 29 57 10 20
-17 38 -73 114 -352 12 -44 15 -130 15 -445 0 -305 3 -407 15 -468 12 -65 15
-189 15 -700 0 -451 3 -632 12 -657 8 -23 13 -171 17 -444 l6 -409 27 -20 27
-20 158 32 c154 30 163 34 353 127 107 52 229 117 270 144 116 74 266 167 366
228 131 78 469 334 608 459 219 198 725 706 809 812 45 57 102 126 126 155 44
52 177 251 308 459 39 62 146 263 237 445 91 183 186 364 211 404 78 125 90
199 56 362 -29 137 -14 130 -306 134 -190 3 -263 0 -328 -12 -70 -13 -184 -16
-703 -16 -499 -1 -632 -3 -684 -15 -53 -12 -216 -14 -905 -15 -689 -1 -852 -3
-905 -15 -50 -11 -155 -14 -450 -15 -295 -1 -400 -4 -450 -15 -52 -12 -186
-14 -685 -15 -495 0 -636 -3 -700 -15 -66 -12 -263 -14 -1155 -15 -723 0
-1090 -4 -1120 -11 -65 -15 -410 -30 -905 -38 -284 -5 -447 -11 -480 -19 -38
-10 -256 -12 -940 -8 -490 2 -920 7 -956 11 -87 9 -114 -5 -167 -87 -73 -112
-73 -112 68 -323 48 -71 149 -233 225 -360 76 -126 156 -257 178 -290 44 -64
275 -371 434 -576 54 -69 120 -154 148 -190 71 -92 487 -511 575 -579 41 -32
91 -75 110 -95 72 -76 576 -464 677 -520 26 -15 84 -49 128 -75 44 -26 114
-64 155 -85 41 -21 99 -53 128 -72 176 -112 760 -373 836 -373 27 0 42 9 74
44 69 75 111 147 123 211 13 68 6 326 -10 390 -7 25 -11 274 -11 658 0 513 -3
630 -15 691 -13 63 -15 175 -13 739 l3 666 30 31 c59 62 114 76 140 36 15 -23
20 -48 44 -256 6 -52 16 -120 21 -151 6 -33 10 -397 11 -895 0 -556 4 -858 11
-894 17 -85 22 -1368 6 -1399 -22 -41 -61 -61 -179 -91 -172 -44 -166 -45
-482 51 -68 21 -213 88 -470 216 -205 102 -383 193 -397 203 -14 10 -62 38
-106 62 -74 41 -591 423 -789 583 -44 36 -105 84 -135 107 -74 55 -557 535
-628 623 -31 39 -91 107 -133 151 -136 144 -444 625 -643 1004 -40 74 -83 153
-98 176 -60 93 -229 448 -285 599 -20 55 -5 106 45 142 20 16 64 55 98 88 53
53 74 87 187 310 70 138 157 302 194 365 36 63 89 158 117 210 60 110 132 236
192 335 23 39 57 102 77 140 19 39 57 107 83 152 88 148 127 216 184 323 159
293 253 447 357 585 157 209 193 237 247 194 15 -12 77 -96 138 -188 121 -181
208 -295 308 -405 99 -108 176 -209 390 -511 39 -55 109 -152 156 -215 46 -63
105 -143 130 -177 77 -107 205 -265 264 -328 127 -135 190 -256 190 -365 0
-40 -4 -50 -21 -55 -34 -11 -62 2 -121 54 -31 27 -83 69 -115 94 -33 25 -97
94 -144 152 -46 59 -109 138 -139 174 -64 78 -126 172 -243 366 -52 88 -95
148 -115 161 -32 22 -36 22 -635 23 -602 2 -603 2 -630 -20 -30 -23 -67 -89
-103 -186 -35 -93 -330 -678 -382 -758 -97 -149 -172 -280 -172 -301 0 -64 68
-69 840 -67 849 2 1554 16 1600 31 24 8 143 12 375 12 262 0 356 4 410 15 38
8 93 15 120 15 73 0 166 27 195 56 l25 24 3 592 c2 497 0 604 -13 673 -9 51
-15 142 -15 241 -1 100 -6 183 -15 224 -11 48 -14 141 -14 355 0 214 3 307 14
355 8 36 14 87 15 114 0 27 7 85 16 128 24 117 15 353 -19 518 -55 273 -57
321 -13 341 31 15 77 -7 145 -69 39 -35 55 -58 61 -87 5 -22 10 -408 10 -860
0 -585 4 -831 12 -860 8 -27 14 -258 19 -710 4 -368 12 -756 16 -862 12 -263
0 -253 249 -203 147 29 154 30 469 30 239 1 336 4 385 15 50 11 157 14 465 15
308 1 415 4 465 15 53 12 214 14 897 15 566 0 848 -3 883 -11 64 -14 93 -7
108 26 19 41 16 779 -3 870 -12 56 -15 165 -15 550 0 312 -4 494 -11 520 -13
48 -29 557 -35 1134 -5 459 -5 458 49 481 37 16 116 5 140 -19z m3405 -65 c15
-8 41 -29 58 -48 39 -41 251 -359 270 -404 8 -18 14 -60 14 -92 0 -80 -29
-126 -83 -130 -38 -3 -92 25 -271 140 -68 44 -110 48 -152 16 -16 -12 -78 -70
-139 -128 -115 -112 -145 -131 -172 -109 -31 26 7 249 59 342 34 60 295 404
316 416 25 15 69 13 100 -3z m-2533 -57 c47 -43 276 -376 302 -438 21 -49 9
-93 -33 -130 -54 -48 -83 -43 -266 45 -122 59 -164 75 -184 70 -14 -4 -60 -36
-103 -71 -209 -177 -240 -196 -259 -157 -21 40 72 282 146 379 98 128 173 220
230 281 74 79 101 82 167 21z m1233 5 c22 -14 49 -55 220 -324 68 -107 145
-296 140 -344 -2 -25 -8 -32 -30 -34 -39 -5 -73 17 -184 114 -54 48 -118 96
-142 106 -53 24 -76 17 -192 -51 -106 -64 -157 -78 -197 -57 -32 16 -61 66
-69 119 -8 47 25 101 181 295 165 206 196 226 273 176z m-8774 -246 c20 -23
59 -76 88 -117 92 -134 375 -515 468 -631 33 -41 87 -109 120 -150 33 -41 87
-109 120 -150 33 -41 87 -109 120 -150 32 -41 92 -115 132 -165 40 -49 106
-133 146 -185 40 -52 99 -129 132 -170 33 -41 87 -110 120 -152 54 -69 199
-199 280 -251 32 -20 58 -14 65 17 3 11 6 291 7 621 3 584 4 601 23 635 23 39
86 86 127 96 21 4 33 0 53 -20 l25 -26 -3 -652 c-2 -447 -7 -678 -15 -733 -7
-44 -17 -111 -22 -150 -5 -38 -12 -92 -16 -119 -12 -89 -63 -107 -164 -60 -30
14 -82 36 -116 49 -118 45 -172 92 -309 274 -11 15 -65 83 -121 151 -55 69
-175 224 -266 345 -91 121 -187 240 -213 265 -26 25 -65 70 -88 100 -22 30
-73 89 -112 130 -39 41 -93 104 -120 140 -27 36 -92 118 -144 184 -53 65 -114
142 -136 170 -22 29 -69 85 -104 124 -77 87 -103 93 -149 35 -94 -121 -253
-382 -447 -735 -177 -322 -249 -444 -377 -638 l-137 -208 -118 -78 c-65 -42
-149 -98 -188 -123 -38 -25 -76 -58 -83 -73 -7 -15 -30 -114 -52 -221 -50
-248 -64 -304 -102 -388 -33 -75 -51 -89 -70 -56 -21 36 -24 630 -4 736 11 54
16 140 16 245 0 88 5 177 10 196 6 19 15 132 20 250 9 211 25 400 36 430 3 8
10 59 14 112 5 54 16 110 24 125 21 40 151 163 173 163 26 0 40 -12 52 -43 16
-41 13 -300 -4 -377 -9 -41 -15 -126 -15 -230 0 -104 -6 -189 -15 -230 -25
-112 -14 -260 19 -260 23 0 73 64 182 231 179 274 260 408 388 639 23 41 54
93 68 116 14 22 43 74 63 115 21 40 59 110 85 154 96 163 159 272 194 340 55
106 167 299 203 350 28 38 38 45 67 45 28 0 41 -8 70 -42z m1937 -174 c85 -19
124 -50 156 -121 28 -65 30 -123 5 -146 -10 -9 -47 -21 -83 -26 -35 -5 -96
-15 -134 -21 -81 -14 -140 -3 -171 31 -16 18 -19 37 -19 136 0 113 0 115 28
139 34 29 111 32 218 8z m6854 -730 c47 -22 221 -204 282 -294 84 -125 194
-312 200 -340 9 -45 -20 -64 -88 -56 -81 8 -137 32 -274 116 -168 103 -190
113 -222 105 -15 -3 -84 -62 -157 -134 -72 -70 -141 -130 -153 -133 -12 -3
-31 1 -44 10 -19 13 -21 21 -16 81 17 192 18 195 166 381 233 292 238 297 306
264z m1408 -62 c26 -31 78 -95 116 -142 87 -105 93 -117 126 -260 39 -172 40
-177 21 -205 -32 -49 -63 -37 -254 100 -104 74 -112 72 -326 -93 -111 -86
-154 -100 -181 -58 -19 29 -18 50 9 200 17 91 21 97 199 335 171 228 197 239
290 123z m-2747 -1 c17 -10 48 -40 70 -66 21 -25 67 -79 101 -119 71 -84 195
-286 218 -357 30 -88 -11 -102 -122 -42 -37 20 -104 56 -148 79 -61 33 -91 43
-126 44 -49 0 -51 -1 -206 -117 -85 -64 -123 -79 -153 -63 -31 16 -61 92 -63
153 -1 83 10 101 246 391 101 124 121 135 183 97z m-4500 -576 c41 -17 60 -54
99 -195 39 -139 55 -176 152 -338 97 -162 113 -182 145 -182 22 0 87 64 136
134 26 38 27 43 33 225 7 251 15 264 178 291 68 11 75 11 100 -7 39 -30 48
-92 28 -197 -10 -47 -17 -106 -17 -133 -1 -26 -7 -77 -15 -113 -9 -41 -14
-125 -15 -228 0 -192 -8 -220 -69 -251 -53 -27 -181 -62 -231 -63 -51 -1 -76
17 -144 99 -31 38 -81 99 -112 136 -102 124 -231 177 -242 98 -2 -11 9 -63 25
-114 26 -86 28 -103 28 -272 0 -152 -3 -185 -17 -206 -35 -55 -134 -76 -179
-40 -23 19 -24 25 -30 218 -4 109 -12 216 -18 238 -6 22 -11 117 -11 210 0
108 -6 194 -15 235 -18 80 -20 362 -4 410 20 55 117 78 195 45z m2231 -19 c27
-32 27 -37 7 -279 -7 -93 7 -127 56 -127 37 0 54 29 70 120 41 230 49 256 85
272 37 17 217 -9 259 -37 63 -42 61 -51 -57 -292 -100 -205 -148 -331 -178
-465 -17 -80 -4 -117 81 -225 106 -132 140 -185 146 -225 5 -31 2 -41 -20 -63
-47 -47 -68 -34 -208 127 -25 30 -65 78 -87 106 -93 117 -119 107 -130 -51 -5
-71 -13 -113 -24 -131 -22 -32 -110 -78 -154 -79 -63 -2 -67 11 -74 231 -4
108 -12 213 -18 232 -17 54 -15 837 3 869 23 41 54 52 139 49 73 -3 81 -5 104
-32z m1007 20 c46 -19 68 -51 117 -174 l44 -107 0 -432 c0 -421 -1 -432 -21
-460 -25 -34 -233 -143 -274 -143 -16 0 -42 11 -61 28 -45 37 -238 333 -255
390 -10 32 -14 107 -14 257 0 230 -3 211 80 496 22 75 55 128 90 146 35 18
251 17 294 -1z m-1986 -33 c36 -12 64 -29 84 -52 29 -33 30 -38 24 -95 -3 -34
-13 -97 -22 -141 -13 -65 -18 -175 -23 -581 -6 -475 -7 -503 -25 -523 -27 -29
-68 -26 -137 10 -102 55 -94 -3 -97 699 -2 409 0 627 7 651 18 61 68 70 189
32z m-3568 -522 c9 -22 9 -43 1 -83 -5 -29 -13 -77 -17 -106 -9 -74 -198 -457
-245 -497 -30 -24 -38 -27 -89 -22 -30 3 -102 10 -160 16 -137 12 -208 39
-257 95 -21 24 -75 106 -121 182 -63 106 -82 146 -80 169 3 29 5 30 48 29 25
0 78 -14 120 -31 74 -30 234 -66 339 -77 73 -7 110 10 159 77 23 30 73 90 112
133 40 44 85 94 101 112 38 41 72 43 89 3z m8118 -29 c52 -54 125 -148 182
-232 83 -124 186 -293 195 -319 19 -61 -27 -101 -118 -101 -47 0 -74 10 -217
80 -90 44 -176 80 -191 80 -30 0 -106 -58 -194 -150 -43 -44 -91 -80 -109 -80
-15 0 -36 36 -36 63 0 56 37 215 63 269 24 52 188 263 284 366 60 63 98 70
141 24z m1351 -4 c99 -110 171 -203 274 -358 89 -134 117 -183 117 -207 0 -62
-58 -91 -161 -81 -54 6 -96 30 -229 137 -62 50 -82 61 -113 61 -36 0 -48 -9
-165 -124 -119 -116 -156 -146 -181 -146 -22 0 -41 33 -41 71 0 50 19 176 33
213 11 28 69 109 179 247 184 229 172 218 225 219 24 0 40 -8 62 -32z m-2612
-31 c16 -19 54 -73 84 -121 30 -48 88 -141 129 -207 152 -242 161 -259 162
-290 1 -44 -23 -59 -97 -59 -56 0 -75 7 -225 80 -91 44 -178 80 -193 80 -35 0
-75 -20 -107 -55 -28 -30 -177 -147 -209 -164 -28 -15 -57 0 -65 34 -6 23 22
166 54 285 10 37 72 119 198 264 149 171 165 186 205 186 27 0 41 -7 64 -33z
m-6628 -321 c12 -13 49 -68 83 -122 202 -327 209 -339 206 -369 -4 -41 -40
-44 -124 -11 -35 14 -76 26 -91 26 -15 0 -84 -27 -154 -60 -69 -33 -135 -60
-146 -60 -55 0 -93 66 -93 163 0 69 1 71 108 259 69 122 98 167 120 186 25 19
66 14 91 -12z m-1290 -70 c8 -6 63 -84 123 -174 117 -177 127 -207 90 -265
-41 -62 -108 -91 -267 -118 -157 -27 -199 -14 -242 71 -38 73 -38 74 75 280
63 115 125 204 151 217 24 12 45 8 70 -11z m10629 -972 c34 -24 27 -54 -37
-141 -89 -121 -94 -123 -372 -123 -123 0 -244 5 -269 11 -25 6 -85 14 -135 19
-49 5 -126 14 -170 19 -44 6 -116 16 -160 21 -44 5 -116 15 -160 20 -44 6
-115 15 -157 20 -123 16 -358 76 -379 97 -31 31 41 37 526 44 266 4 496 11
515 17 20 6 192 10 405 11 320 1 374 -1 393 -15z m-2982 -77 c13 -16 24 -36
24 -45 0 -31 -41 -96 -113 -177 -86 -98 -95 -105 -124 -105 -43 0 -53 54 -32
179 6 36 13 81 15 100 3 18 17 44 30 58 23 23 31 25 101 21 67 -3 78 -6 99
-31z m-908 -13 c36 -24 44 -60 40 -187 -3 -111 -5 -120 -27 -138 -13 -10 -37
-19 -54 -19 -46 0 -105 -33 -188 -105 -41 -36 -89 -78 -106 -94 -61 -52 -46
-88 170 -423 46 -71 169 -378 170 -425 1 -35 -14 -53 -43 -53 -21 0 -133 67
-183 110 -47 40 -265 370 -294 444 -7 20 -12 109 -12 254 -1 259 0 263 87 355
32 34 73 82 92 107 48 65 120 138 159 162 63 39 139 44 189 12z m-752 -5 c24
-11 66 -42 94 -68 79 -74 81 -66 -94 -363 -40 -68 -57 -107 -58 -135 -3 -68
78 -336 137 -453 61 -122 105 -248 105 -304 0 -60 -29 -129 -61 -146 -44 -24
-164 6 -196 49 -7 9 -15 36 -18 61 -15 109 -37 237 -47 262 -12 34 -67 60
-135 66 -50 4 -53 3 -72 -28 -11 -18 -27 -65 -37 -104 -9 -39 -23 -89 -31
-111 -8 -22 -18 -83 -23 -135 -10 -112 -15 -127 -42 -136 -32 -10 -65 14 -120
89 -80 108 -81 100 33 470 l39 128 0 187 c0 169 -2 195 -25 277 -68 240 -79
294 -67 320 19 42 52 41 144 -1 59 -28 102 -57 150 -102 95 -91 115 -81 117
61 2 107 25 136 110 137 35 0 70 -7 97 -21z m-927 -32 c21 -24 26 -41 56 -227
8 -47 19 -112 25 -145 6 -37 10 -294 10 -662 l0 -602 23 -25 c26 -30 115 -56
197 -56 30 -1 84 -7 120 -15 98 -22 649 -21 755 1 50 10 111 15 173 12 89 -3
105 -7 192 -47 105 -48 130 -65 130 -92 0 -30 -43 -50 -132 -59 -45 -5 -107
-14 -137 -19 -78 -16 -1057 -15 -1174 1 -88 12 -90 12 -108 -11 -14 -17 -19
-40 -19 -90 0 -61 -14 -118 -54 -228 -15 -40 -14 -50 7 -150 21 -102 22 -132
22 -528 l0 -420 -34 -100 c-18 -55 -46 -128 -62 -162 -23 -53 -32 -63 -52 -63
-35 0 -47 41 -47 161 0 53 -7 133 -15 176 -12 64 -15 187 -15 678 0 376 -4
617 -11 645 -20 86 13 80 -470 80 -307 0 -443 -4 -481 -12 -36 -9 -145 -13
-338 -13 -260 0 -288 2 -314 18 -23 15 -27 23 -21 45 7 28 69 99 120 135 30
22 33 22 692 27 l661 5 27 25 c15 14 32 47 41 80 8 30 25 87 37 125 22 69 22
85 27 777 l5 706 24 26 c34 36 107 37 140 3z m-667 -17 c54 -11 108 -26 119
-33 29 -18 53 -76 53 -134 1 -69 -19 -89 -165 -165 -170 -87 -163 -76 -167
-269 -3 -121 0 -171 11 -203 8 -24 82 -144 165 -268 175 -262 212 -325 212
-361 0 -48 -54 -40 -195 30 -151 76 -162 87 -322 343 -119 190 -121 195 -132
287 -6 43 -15 110 -21 148 -6 40 -8 102 -4 144 6 68 15 92 99 260 51 102 101
194 111 203 48 43 96 46 236 18z m-1795 -44 c22 -26 23 -34 23 -184 0 -126 -3
-162 -16 -180 -27 -39 -64 -29 -135 36 -35 32 -88 76 -117 99 -118 93 -128
147 -38 203 108 66 238 78 283 26z m804 14 c76 -39 80 -54 75 -305 -3 -121 -9
-411 -13 -645 -7 -383 -10 -429 -26 -453 -33 -50 -69 -33 -135 66 -27 40 -54
87 -60 106 -7 20 -12 99 -12 195 0 103 -6 186 -15 231 -24 111 -21 476 5 580
41 169 78 245 122 245 10 0 37 -9 59 -20z m5298 -39 c188 -45 254 -57 511 -92
166 -22 206 -30 380 -74 200 -50 320 -72 468 -86 114 -11 204 -39 227 -72 18
-25 21 -138 4 -169 -23 -42 -116 -60 -204 -37 -22 5 -89 13 -150 18 -84 6
-142 18 -245 50 -206 64 -352 113 -490 166 -150 57 -485 171 -630 215 -112 34
-270 104 -270 120 0 6 41 10 97 10 81 0 129 -8 302 -49z m-7244 -11 c0 -31
-224 -96 -495 -144 -52 -10 -187 -35 -300 -56 -113 -21 -248 -46 -300 -55 -52
-9 -120 -21 -150 -26 -30 -6 -95 -14 -145 -19 -152 -13 -234 -30 -398 -81 -86
-27 -168 -49 -181 -49 -32 0 -71 32 -86 72 -8 18 -33 77 -57 131 -54 122 -56
180 -6 202 27 12 577 26 1333 34 850 8 785 9 785 -9z m6801 -89 c49 -16 143
-49 209 -74 66 -25 175 -66 243 -91 67 -25 177 -67 245 -92 67 -26 176 -67
242 -91 66 -25 167 -63 225 -85 58 -22 152 -57 210 -78 282 -105 346 -131 369
-155 43 -43 27 -117 -39 -184 -43 -43 -81 -41 -248 14 -75 24 -157 47 -182 51
-229 33 -272 44 -363 92 -207 110 -343 185 -385 214 -24 17 -89 58 -145 92
-369 226 -535 340 -558 382 -28 54 26 56 177 5z m-6421 -12 c21 -33 -82 -91
-385 -216 -46 -19 -107 -46 -135 -60 -50 -26 -182 -83 -345 -150 -47 -19 -179
-70 -295 -113 -273 -101 -640 -249 -735 -294 -101 -49 -132 -48 -184 7 -50 52
-136 213 -136 254 0 55 27 68 285 132 132 33 260 63 285 67 192 27 1049 229
1271 300 114 36 297 82 336 83 17 1 35 -4 38 -10z m105 -132 c0 -45 -454 -438
-795 -688 -50 -36 -135 -98 -190 -139 -101 -74 -211 -132 -275 -145 -19 -4
-109 -31 -200 -60 -180 -59 -315 -95 -352 -95 -31 0 -48 18 -48 50 0 42 73
182 114 218 22 19 309 168 669 349 347 173 655 331 685 349 29 19 101 59 160
89 59 30 123 64 142 75 19 11 47 20 62 20 22 0 28 -5 28 -23z m6167 -44 c57
-32 154 -93 216 -135 190 -131 460 -309 588 -388 66 -41 243 -156 392 -255
307 -204 311 -208 311 -314 0 -92 -18 -120 -101 -163 -86 -45 -125 -54 -160
-36 -55 28 -171 126 -318 269 -82 80 -177 166 -210 192 -33 25 -114 100 -180
167 -66 67 -160 155 -210 195 -130 105 -457 442 -475 489 -20 54 21 48 147
-21z m-5992 -72 c-3 -14 -22 -51 -42 -81 -40 -60 -296 -399 -393 -520 -33 -41
-87 -109 -120 -150 -32 -41 -90 -112 -127 -157 -37 -45 -139 -170 -226 -278
-87 -107 -171 -203 -185 -214 -44 -31 -229 -91 -280 -91 -53 0 -185 25 -214
41 -42 23 -40 79 5 128 12 13 56 49 97 81 41 32 111 95 155 140 44 45 121 115
170 155 50 40 106 89 125 110 19 21 53 51 75 66 42 31 262 233 469 430 66 63
141 131 166 149 25 19 80 67 122 106 117 109 219 152 203 85z m5613 -99 c45
-57 64 -87 373 -585 41 -66 117 -185 171 -265 91 -140 119 -180 281 -402 42
-57 107 -170 163 -282 130 -260 128 -283 -23 -271 l-79 6 -33 -42 c-54 -68
-86 -56 -182 70 -57 75 -92 144 -188 369 -19 47 -142 299 -273 560 -130 261
-242 489 -248 505 -17 45 -60 281 -60 330 0 48 5 55 36 55 16 0 36 -16 62 -48z
m791 -557 c460 -458 547 -548 634 -665 55 -74 107 -147 115 -162 29 -59 -8
-111 -133 -186 -62 -37 -93 -44 -127 -29 -25 11 -114 124 -215 272 -22 33
-117 162 -211 286 -168 224 -282 387 -337 484 -16 28 -100 157 -187 289 -96
145 -158 248 -158 263 l0 24 43 -23 c25 -14 258 -237 576 -553z m-6145 493
c29 -41 20 -128 -40 -368 -30 -124 -73 -281 -94 -350 -21 -69 -57 -183 -79
-255 -22 -71 -65 -231 -96 -354 -31 -124 -71 -272 -89 -330 -19 -59 -46 -146
-61 -196 -41 -137 -48 -144 -182 -210 -145 -70 -164 -74 -193 -45 -19 19 -21
29 -15 68 13 95 38 199 65 282 60 181 203 545 250 640 28 56 190 453 190 465
0 4 36 98 79 209 92 232 193 451 213 459 25 10 37 7 52 -15z m-224 -88 c-6
-24 -49 -125 -95 -224 -46 -100 -99 -217 -118 -261 -94 -215 -140 -312 -341
-713 -119 -237 -225 -441 -236 -452 -29 -29 -53 -25 -107 21 l-47 42 -79 -6
c-93 -8 -117 1 -117 43 0 43 467 740 732 1092 117 156 235 315 263 353 66 94
136 168 147 157 6 -6 5 -27 -2 -52z m428 -81 c9 -16 11 -45 7 -89 -3 -36 -10
-105 -14 -155 -5 -49 -20 -151 -34 -225 -70 -364 -79 -421 -87 -500 -20 -204
-46 -367 -111 -704 -16 -82 -29 -172 -29 -200 0 -28 -5 -71 -11 -96 -6 -25
-14 -80 -19 -124 -6 -62 -12 -83 -31 -102 -47 -46 -204 -41 -230 8 -18 34 -13
74 34 263 25 99 54 230 65 290 12 61 30 162 42 225 21 114 295 1220 331 1335
32 102 59 126 87 74z m4816 -61 c9 -24 27 -74 41 -112 18 -50 25 -88 25 -142
0 -40 5 -85 11 -101 6 -15 15 -68 20 -118 5 -49 20 -144 33 -210 52 -256 86
-452 87 -495 0 -25 6 -74 14 -110 8 -36 15 -90 15 -120 0 -30 5 -73 10 -95 22
-92 63 -335 67 -403 5 -63 2 -79 -21 -125 -14 -29 -42 -72 -61 -95 -44 -51
-77 -55 -142 -17 -79 47 -77 34 -84 525 -4 294 -10 453 -19 490 -9 42 -11 147
-7 437 6 331 4 388 -9 435 -11 35 -15 74 -11 115 2 34 1 84 -4 110 -16 81 9
102 35 31z m271 -242 c20 -30 108 -229 125 -281 21 -67 170 -436 200 -495 15
-30 40 -86 55 -125 16 -38 77 -168 137 -288 122 -246 126 -266 82 -355 -14
-28 -41 -65 -60 -81 -60 -53 -194 -79 -241 -46 -12 8 -28 36 -37 63 -26 82
-103 402 -125 522 -12 63 -39 210 -61 325 -37 200 -57 307 -101 545 -33 185
-21 288 26 216z m-4971 -322 c15 -44 20 -1422 6 -1488 -6 -28 -15 -85 -20
-126 -22 -188 -44 -260 -81 -260 -21 0 -73 60 -116 133 l-48 82 0 130 c1 122
8 207 34 386 24 173 32 239 41 334 5 55 14 116 20 135 5 19 10 60 10 90 1 30
7 84 15 120 8 36 14 88 15 117 0 63 63 333 87 376 9 15 27 1 37 -29z m4087
-750 c24 -25 24 -27 30 -312 4 -158 11 -307 17 -332 14 -55 14 -316 1 -385 -5
-27 -13 -90 -18 -139 -7 -61 -16 -98 -29 -115 -10 -14 -70 -53 -133 -86 -63
-33 -155 -85 -204 -116 -128 -79 -161 -95 -251 -117 -102 -26 -308 -39 -330
-22 -12 10 -13 27 -8 84 5 58 0 99 -26 226 -18 85 -36 162 -41 172 -5 9 -35
38 -66 64 -32 27 -77 65 -100 86 -43 39 -75 48 -90 26 -4 -7 -10 -92 -13 -189
l-5 -176 -47 -94 c-49 -99 -87 -145 -112 -136 -33 13 -36 77 -34 704 3 694 -2
645 80 738 42 48 75 58 99 29 8 -10 15 -58 19 -133 3 -78 10 -124 19 -134 28
-35 146 -11 168 33 8 15 13 66 13 131 0 193 8 199 247 199 194 0 217 -6 221
-60 2 -30 -11 -52 -94 -165 -53 -71 -107 -152 -119 -180 -13 -27 -44 -95 -70
-150 -103 -220 -108 -280 -30 -365 13 -14 45 -53 72 -87 26 -34 75 -97 109
-140 70 -89 184 -200 221 -214 39 -15 56 5 49 56 -16 102 -43 164 -153 348
-62 105 -118 208 -124 227 -16 54 1 90 196 388 61 93 81 115 155 170 47 35
110 82 140 106 115 91 193 110 241 60z m-3386 -66 c58 -64 209 -282 304 -440
95 -160 148 -192 210 -130 28 27 28 30 33 177 6 170 10 185 86 298 65 95 106
131 133 116 30 -16 39 -51 39 -162 1 -56 7 -131 15 -167 23 -103 20 -375 -5
-475 -11 -44 -20 -93 -20 -110 0 -16 -10 -50 -22 -75 -20 -40 -22 -67 -27
-256 -5 -190 -8 -214 -25 -233 -26 -29 -60 -27 -74 4 -7 15 -12 77 -12 150 0
69 -5 135 -11 148 -6 14 -28 34 -50 46 -21 12 -55 43 -76 69 -20 26 -64 77
-98 113 -33 36 -83 93 -111 126 -57 65 -152 123 -203 123 -39 0 -55 -28 -48
-84 15 -134 29 -238 37 -287 6 -30 10 -133 10 -227 0 -159 -2 -174 -20 -192
-11 -11 -25 -20 -32 -20 -22 0 -84 77 -125 159 l-43 83 0 188 c0 126 -5 214
-15 267 -23 121 -21 584 4 720 10 57 24 110 31 118 25 30 56 17 115 -47z
m1232 -7 c94 -75 104 -91 115 -180 5 -46 8 -322 6 -653 -3 -529 -4 -576 -21
-601 -31 -47 -82 -29 -157 57 -49 56 -49 57 -50 491 0 322 -4 425 -15 480 -18
86 -21 375 -4 408 26 50 62 49 126 -2z m-507 -1712 c107 1 605 4 1105 7 622 3
926 2 960 -5 28 -6 99 -17 158 -25 59 -7 110 -16 114 -19 12 -13 -11 -27 -85
-51 -193 -63 -482 -102 -862 -116 -113 -4 -221 -13 -240 -19 -47 -15 -881 -15
-930 0 -19 5 -89 12 -155 15 -66 3 -174 16 -240 29 -66 13 -140 26 -165 30
-110 16 -308 60 -344 77 -45 20 -41 58 9 79 11 5 124 6 250 3 127 -3 318 -5
425 -5z m2485 -20 c9 -13 6 -16 -25 -23 -14 -4 -32 -2 -40 4 -13 9 -13 11 0
20 20 13 57 13 65 -1z"/>
<path d="M5664 13841 c-72 -27 -167 -64 -210 -84 -44 -19 -117 -51 -164 -72
-137 -59 -406 -192 -465 -230 -30 -19 -92 -54 -138 -76 -45 -23 -154 -91 -242
-151 -296 -202 -419 -295 -525 -394 -36 -33 -92 -81 -125 -106 -76 -59 -507
-493 -567 -573 -25 -33 -58 -71 -73 -85 -15 -14 -48 -52 -73 -85 -25 -33 -63
-79 -85 -102 -95 -99 -548 -778 -611 -913 -163 -357 -178 -406 -134 -469 54
-80 79 -69 195 84 97 128 116 144 163 145 39 0 177 -35 315 -80 50 -16 304
-83 565 -149 458 -116 638 -165 649 -177 24 -24 -157 -55 -231 -40 -18 4 -134
11 -258 16 -124 4 -241 13 -260 19 -19 6 -107 11 -197 11 -102 0 -190 6 -240
15 -144 28 -274 19 -518 -36 -91 -20 -199 -70 -219 -102 -27 -42 -41 -42 1111
-45 944 -2 1107 0 1175 13 44 8 99 15 122 15 22 0 75 7 116 16 81 17 242 14
313 -6 24 -7 149 -10 360 -8 l323 3 121 73 c73 43 131 85 145 105 l23 32 3
1410 c2 974 -1 1431 -8 1480 -6 38 -15 113 -20 165 -7 70 -23 134 -60 244 -28
83 -58 158 -67 168 -25 27 -66 21 -209 -31z m174 -154 c12 -24 11 -42 -2 -115
-24 -130 -24 -1236 0 -1350 14 -67 16 -129 10 -484 -4 -223 -11 -419 -15 -435
-4 -15 -14 -29 -23 -31 -22 -4 -28 38 -28 197 0 108 -4 149 -20 199 -11 35
-20 87 -20 115 -1 29 -7 79 -15 112 -8 33 -15 83 -15 110 0 28 -7 82 -15 120
-8 39 -15 93 -15 120 0 28 -7 82 -15 120 -8 39 -15 92 -15 118 0 27 -5 67 -10
90 -6 23 -15 85 -20 137 -25 251 -35 310 -86 512 -30 120 -54 225 -54 234 0
55 72 128 223 225 74 48 114 50 135 6z m-461 -176 c15 -19 15 -24 14 -311 -1
-129 3 -250 10 -285 6 -33 14 -98 18 -145 5 -47 20 -150 36 -230 15 -80 45
-235 65 -345 21 -110 42 -222 46 -250 3 -27 17 -101 30 -164 13 -62 24 -136
24 -165 1 -28 7 -80 15 -116 8 -36 14 -94 15 -129 0 -36 5 -90 12 -121 11 -55
8 -90 -12 -120 -18 -29 -41 14 -81 151 -38 128 -67 260 -103 469 -15 89 -42
186 -137 492 -21 69 -48 177 -60 240 -11 62 -29 163 -40 223 -12 61 -36 148
-54 195 -117 296 -129 344 -101 398 16 30 200 214 231 230 24 13 55 6 72 -17z
m-469 -219 c12 -12 25 -52 35 -108 9 -49 30 -165 47 -259 17 -93 40 -219 51
-280 32 -167 145 -612 175 -685 63 -155 124 -345 124 -387 0 -40 -2 -44 -21
-41 -32 5 -117 169 -234 453 -18 44 -49 112 -68 150 -63 127 -98 228 -108 310
-5 44 -14 98 -19 120 -5 22 -10 54 -10 72 0 59 -18 81 -84 105 -51 19 -77 38
-158 118 -139 137 -141 163 -18 267 160 134 226 182 258 183 6 0 20 -8 30 -18z
m-495 -372 c59 -69 107 -164 143 -280 97 -317 116 -367 168 -455 77 -130 133
-228 186 -325 25 -47 68 -121 94 -165 181 -300 225 -432 100 -300 -30 32 -90
103 -133 159 -108 140 -356 515 -371 562 -12 36 -35 89 -126 279 -39 85 -62
100 -213 144 -174 50 -186 83 -86 238 131 202 168 224 238 143z m-510 -364
c37 -16 225 -203 289 -287 24 -31 86 -110 139 -175 52 -66 123 -155 157 -199
240 -313 357 -457 453 -559 41 -45 91 -101 109 -126 19 -25 57 -70 85 -101 55
-61 175 -254 175 -282 0 -27 -19 -21 -110 39 -97 63 -366 323 -460 444 -32 41
-90 107 -130 145 -40 39 -98 104 -130 145 -32 41 -70 86 -85 100 -15 14 -54
59 -87 100 -33 41 -74 87 -91 101 -51 41 -223 142 -354 208 -140 70 -163 90
-163 141 0 38 63 206 99 264 17 26 46 50 69 55 1 1 17 -5 35 -13z m-340 -393
c37 -29 104 -90 329 -301 72 -68 154 -141 182 -161 28 -21 62 -51 76 -66 14
-15 54 -50 90 -78 36 -28 162 -145 280 -261 119 -116 256 -245 305 -286 145
-122 174 -160 123 -160 -26 0 -271 143 -441 257 -645 433 -712 475 -953 596
-189 95 -216 113 -228 154 -12 38 78 267 123 312 29 29 70 26 114 -6z m-296
-446 c48 -24 211 -124 360 -223 524 -344 691 -447 993 -609 271 -146 460 -280
447 -319 -2 -5 -16 -14 -31 -19 -50 -17 -150 18 -386 133 -124 60 -252 120
-285 134 -154 63 -211 89 -355 161 -85 42 -209 110 -275 150 -174 105 -240
136 -430 198 -183 61 -196 63 -295 52 -78 -8 -104 5 -102 53 1 51 147 306 190
332 27 17 74 5 169 -43z m-266 -512 c92 -46 205 -100 251 -119 45 -19 123 -53
172 -76 48 -23 125 -55 170 -71 44 -15 142 -51 216 -79 74 -28 164 -62 200
-74 36 -13 124 -47 195 -76 72 -29 168 -66 215 -82 47 -17 119 -47 160 -67 41
-21 112 -52 158 -71 93 -37 157 -79 167 -110 8 -25 -19 -60 -47 -60 -23 0
-306 80 -408 115 -41 14 -174 51 -295 81 -121 30 -276 73 -345 94 -208 65
-330 99 -430 119 -130 27 -196 52 -302 112 l-90 53 -126 -14 c-217 -22 -216
-22 -237 -7 -14 11 -19 26 -18 54 2 49 103 300 136 336 40 44 71 37 258 -58z
m2866 -395 c19 -38 17 -194 -4 -237 -19 -42 -197 -184 -261 -209 -42 -17 -46
-17 -77 0 -40 22 -75 82 -75 128 0 43 51 105 144 175 33 26 91 75 128 110 58
56 72 64 100 61 23 -2 36 -10 45 -28z"/>
<path d="M10230 13790 c-20 -20 -20 -33 -20 -563 0 -367 4 -553 11 -577 19
-59 30 -428 38 -1245 5 -514 12 -800 19 -840 7 -33 14 -86 18 -117 8 -82 28
-99 195 -153 133 -43 142 -45 261 -45 68 0 139 5 158 10 55 16 1281 14 1350
-2 72 -16 406 -17 478 0 37 8 170 12 435 12 222 0 407 5 442 11 33 5 88 14
123 19 35 4 72 16 82 25 25 23 33 74 19 132 -6 26 -14 91 -19 143 -8 100 -20
133 -95 260 -18 30 -61 105 -96 165 -103 179 -354 549 -471 695 -59 74 -136
171 -171 214 -34 44 -109 129 -168 190 -58 61 -126 138 -151 171 -57 74 -270
284 -358 352 -36 28 -81 68 -100 88 -79 83 -589 472 -698 531 -37 20 -96 54
-132 75 -119 70 -283 158 -495 265 -202 103 -217 108 -400 155 -104 27 -200
49 -212 49 -13 0 -32 -9 -43 -20z m251 -237 c118 -131 151 -255 114 -423 -8
-36 -15 -90 -15 -120 0 -30 -7 -82 -15 -115 -9 -40 -14 -116 -15 -226 0 -126
-4 -178 -16 -215 -12 -34 -19 -104 -23 -231 -7 -184 -15 -223 -43 -195 -14 14
-26 360 -27 787 -1 215 -5 308 -16 360 -8 38 -15 90 -15 115 0 25 -7 81 -15
125 -9 44 -13 93 -9 110 16 76 44 84 95 28z m475 -152 c91 -43 124 -78 124
-127 0 -35 -30 -150 -85 -324 -18 -58 -43 -159 -55 -225 -24 -136 -80 -429
-146 -775 -105 -544 -124 -614 -156 -582 -23 23 -8 376 22 497 5 22 10 65 10
95 0 30 5 75 11 100 6 25 14 86 19 135 6 50 17 144 25 210 9 66 19 217 24 335
4 119 11 222 16 230 5 8 12 107 15 218 l5 204 28 24 c15 13 36 24 46 24 9 0
53 -17 97 -39z m347 -195 c22 -24 42 -62 116 -234 50 -112 54 -172 17 -260
-13 -31 -29 -75 -36 -97 -21 -67 -151 -386 -181 -447 -46 -91 -145 -346 -169
-433 -58 -216 -184 -543 -226 -585 -13 -13 -16 -13 -24 0 -5 8 -8 22 -5 30 2
8 9 58 16 110 6 52 40 212 74 355 35 143 71 301 80 350 8 50 22 128 31 175 8
47 45 213 83 370 38 157 74 332 81 390 6 58 15 138 20 178 5 40 16 84 24 98
22 32 69 33 99 0z m529 -378 c26 -29 80 -89 119 -133 108 -119 129 -183 72
-220 -13 -9 -80 -29 -148 -44 -69 -16 -136 -36 -151 -45 -14 -10 -37 -43 -51
-74 -14 -32 -47 -104 -73 -162 -48 -105 -180 -432 -180 -445 0 -35 -112 -270
-193 -405 -116 -192 -147 -230 -193 -230 -69 0 -71 64 -4 205 24 50 76 168
116 263 41 96 84 192 96 215 12 23 38 83 59 132 20 50 55 133 77 185 22 53 51
119 66 148 30 59 157 373 191 472 69 201 112 231 197 138z m496 -412 c44 -23
149 -138 156 -172 4 -17 2 -43 -3 -57 -16 -41 -125 -198 -161 -232 -17 -16
-55 -59 -83 -95 -68 -88 -298 -321 -372 -377 -33 -26 -166 -151 -295 -278
-238 -235 -284 -275 -315 -275 -43 0 13 107 208 399 49 74 191 270 315 435
124 165 272 371 329 458 102 153 149 208 179 208 8 0 27 -6 42 -14z m469 -458
c33 -36 100 -134 127 -185 9 -18 16 -49 16 -69 0 -32 -8 -45 -49 -85 -75 -72
-128 -98 -254 -125 -61 -14 -120 -27 -130 -30 -10 -3 -71 -57 -136 -119 -80
-77 -137 -123 -180 -144 -33 -17 -85 -46 -114 -65 -28 -18 -86 -50 -127 -71
-41 -21 -111 -59 -155 -85 -267 -158 -334 -190 -368 -177 -11 4 -17 18 -17 37
0 24 12 42 53 83 59 58 143 132 252 222 40 33 100 83 133 110 33 28 86 71 118
97 33 25 84 67 114 92 30 25 82 67 115 93 33 26 107 93 165 149 58 55 125 116
150 135 25 18 77 64 117 101 87 82 120 89 170 36z m394 -524 c27 -24 46 -83
64 -196 33 -202 24 -211 -225 -218 l-175 -5 -170 -84 c-176 -86 -330 -152
-450 -191 -38 -12 -114 -40 -167 -61 -54 -21 -189 -62 -300 -90 -167 -42 -214
-50 -263 -46 -71 5 -121 28 -131 59 -9 30 44 76 117 102 30 11 81 33 114 49
33 17 102 47 153 69 50 21 134 55 185 76 50 22 115 50 142 64 28 15 89 42 135
61 224 93 307 130 457 205 89 45 191 100 227 121 175 107 241 127 287 85z
m-2556 -557 c156 -161 266 -288 298 -348 24 -46 26 -54 14 -73 -19 -28 -49
-30 -165 -12 -80 13 -115 24 -201 68 -142 72 -143 73 -139 284 3 174 9 194 56
194 20 0 52 -27 137 -113z m2863 -2 c21 -18 43 -59 77 -146 59 -150 65 -189
36 -218 -27 -27 -29 -27 -218 10 -182 35 -208 34 -326 -15 -205 -85 -214 -86
-547 -86 -226 0 -317 -4 -377 -15 -110 -22 -223 -7 -223 29 0 17 110 66 225
101 50 15 137 42 196 61 58 18 206 58 330 89 123 31 280 74 349 95 446 138
430 135 478 95z"/>
<path d="M9518 11568 c-28 -23 -227 -269 -246 -305 -21 -38 -14 -79 16 -106
15 -14 62 -57 106 -96 88 -81 172 -141 197 -141 27 0 36 20 53 111 24 130 21
265 -9 377 -41 154 -72 195 -117 160z"/>
<path d="M3577 8130 c-54 -42 -297 -493 -297 -551 0 -15 6 -32 14 -38 24 -20
99 -23 176 -7 94 20 257 21 348 1 74 -15 232 -22 251 -11 23 15 8 49 -79 178
-91 135 -119 172 -238 312 -127 150 -129 152 -175 116z"/>
<path d="M9588 7430 c-41 -32 -106 -141 -119 -198 -6 -31 -9 -113 -7 -197 3
-139 4 -146 28 -170 34 -34 192 -97 232 -93 50 5 58 31 58 204 0 168 -3 182
-74 344 -42 94 -66 130 -87 130 -3 0 -18 -9 -31 -20z"/>
<path d="M9692 3258 c-30 -33 -89 -135 -103 -177 -6 -20 -38 -93 -70 -162 -71
-154 -79 -193 -48 -233 25 -31 248 -146 284 -146 30 0 43 18 50 70 3 25 13 87
22 139 20 121 13 222 -27 376 -40 153 -62 181 -108 133z"/>
<path d="M4505 14174 c-16 -8 -49 -40 -72 -69 -24 -30 -71 -75 -105 -101 -84
-63 -118 -95 -118 -111 0 -41 269 20 432 99 114 54 153 85 143 111 -8 18 -32
29 -144 62 -99 29 -97 29 -136 9z"/>
<path d="M3194 13293 c-54 -31 -233 -261 -234 -300 0 -34 43 -30 176 15 135
46 210 90 275 160 59 65 63 94 17 119 -50 26 -194 30 -234 6z"/>
<path d="M2754 12695 c-86 -44 -208 -143 -212 -173 -3 -19 1 -22 29 -22 43 0
186 44 222 69 35 22 97 108 97 132 0 18 -19 29 -49 29 -10 0 -49 -16 -87 -35z"/>
<path d="M2251 12196 c-83 -12 -85 -13 -129 -62 -64 -69 -102 -124 -102 -145
0 -41 103 -82 161 -64 27 9 187 162 223 214 50 72 23 82 -153 57z"/>
<path d="M14343 11870 c15 -37 62 -119 120 -210 19 -30 42 -68 50 -85 8 -16
27 -41 42 -55 l27 -25 -15 37 c-31 75 -190 331 -221 358 -17 13 -17 12 -3 -20z"/>
<path d="M1860 11559 c-45 -27 -177 -156 -196 -192 -28 -52 -1 -59 101 -25 40
13 82 36 108 58 45 40 102 141 93 165 -8 22 -65 18 -106 -6z"/>
<path d="M14183 11512 c-18 -12 -123 -292 -123 -329 0 -32 11 -45 111 -141
135 -130 149 -139 186 -126 43 15 86 84 85 138 -1 82 -48 198 -132 326 -77
116 -105 145 -127 132z"/>
<path d="M14641 11336 c21 -63 50 -138 65 -167 14 -29 37 -82 51 -118 13 -35
75 -193 138 -352 63 -159 115 -291 115 -294 0 -3 20 -56 44 -118 29 -75 51
-153 65 -237 12 -69 29 -163 37 -210 15 -87 63 -256 136 -480 28 -87 43 -153
48 -215 9 -108 27 -259 40 -336 6 -30 10 -125 10 -210 1 -89 7 -188 15 -234
10 -54 15 -154 15 -308 0 -219 -1 -231 -26 -307 -30 -91 -55 -120 -122 -145
-75 -28 -299 -181 -318 -217 -20 -39 -15 -148 10 -196 26 -49 56 -44 152 29
30 23 62 39 78 39 32 0 131 -72 150 -109 19 -37 29 -167 17 -226 -12 -64 -41
-88 -145 -116 -106 -28 -134 -43 -235 -125 -124 -101 -125 -104 -129 -237 -4
-121 6 -167 36 -167 10 0 56 25 102 56 80 53 88 56 134 51 55 -5 96 -39 96
-80 0 -57 -32 -81 -237 -186 -110 -55 -208 -110 -218 -122 -12 -13 -24 -50
-32 -102 -7 -45 -15 -101 -19 -124 -5 -31 -2 -49 10 -68 15 -23 21 -25 94 -24
117 2 202 -41 202 -104 0 -31 -32 -67 -135 -151 -93 -77 -135 -88 -261 -64
-106 19 -119 3 -181 -229 l-37 -136 22 -17 c17 -14 34 -16 90 -12 56 4 75 1
110 -17 45 -23 88 -78 98 -126 10 -54 -20 -76 -276 -205 -276 -138 -305 -161
-315 -243 -9 -71 8 -135 39 -143 13 -3 53 7 99 25 86 34 100 37 115 18 17 -21
-4 -53 -95 -148 -94 -98 -143 -128 -208 -129 -22 0 -60 -5 -85 -11 -25 -6 -82
-14 -128 -19 -76 -7 -86 -10 -119 -41 -39 -38 -111 -136 -137 -187 -10 -18
-14 -42 -11 -53 6 -19 13 -19 135 -13 l129 7 36 -36 c26 -26 35 -43 35 -69 0
-69 -29 -85 -250 -138 -118 -28 -178 -58 -347 -172 -151 -101 -171 -125 -132
-163 13 -13 55 -37 93 -53 78 -32 118 -71 100 -100 -16 -25 -45 -37 -179 -72
-250 -65 -412 -113 -455 -135 -106 -54 -298 -227 -287 -259 5 -15 96 -14 182
3 51 9 77 10 97 2 51 -19 47 -91 -6 -126 -25 -17 -457 -130 -631 -165 -117
-24 -185 -53 -263 -113 -129 -100 -143 -127 -64 -127 27 0 74 5 106 11 75 13
111 0 126 -46 14 -42 5 -77 -27 -107 -24 -22 -31 -23 -251 -29 l-227 -5 -168
-43 c-93 -24 -179 -52 -192 -63 -28 -22 -35 -78 -12 -96 24 -20 91 -23 174 -9
82 15 127 13 151 -6 32 -25 -2 -65 -92 -108 -80 -38 -126 -43 -214 -25 -40 9
-97 16 -125 16 -29 1 -81 7 -117 15 -85 19 -169 19 -267 0 -43 -8 -103 -15
-133 -15 -78 0 -121 -24 -139 -77 -27 -76 9 -86 216 -62 122 15 143 7 143 -52
0 -35 -6 -48 -38 -79 -34 -34 -44 -39 -107 -45 -39 -3 -92 -10 -118 -16 -26
-5 -108 -9 -181 -9 -117 0 -148 4 -275 35 -78 19 -160 35 -181 35 -82 0 -250
-46 -250 -69 0 -14 63 -45 125 -61 105 -28 165 -72 165 -122 0 -45 -29 -50
-260 -46 l-205 4 -190 78 c-168 69 -195 77 -235 73 -63 -8 -150 -36 -150 -48
0 -11 97 -57 177 -83 28 -9 63 -28 77 -41 45 -42 47 -111 3 -139 -36 -24 -198
-40 -424 -42 -160 -2 -223 -7 -258 -18 -35 -12 -90 -16 -234 -16 -161 0 -199
3 -254 20 -49 15 -87 19 -158 17 l-94 -2 -170 83 c-101 48 -182 82 -200 82
-16 0 -50 -10 -74 -21 -79 -35 -123 -40 -201 -24 -39 8 -90 15 -113 15 -66 0
-117 18 -129 45 -14 31 1 51 57 75 47 20 70 44 61 65 -7 20 -126 96 -218 140
-83 40 -143 45 -198 17 -38 -19 -40 -29 -24 -144 5 -44 4 -48 -19 -59 -46 -21
-311 35 -324 67 -3 9 2 31 11 50 9 19 16 43 16 53 0 21 -71 130 -116 178 -46
49 -71 45 -210 -38 -277 -166 -346 -170 -309 -21 20 77 15 160 -10 198 -18 28
-129 103 -188 127 -56 24 -67 15 -67 -53 0 -88 -12 -95 -166 -95 -110 0 -126
2 -143 20 -17 18 -18 25 -8 71 9 46 8 60 -12 115 -13 35 -38 96 -56 134 -37
78 -65 100 -164 129 -75 22 -110 20 -164 -8 -25 -14 -62 -28 -81 -31 -19 -4
-42 -16 -52 -26 -25 -28 -68 -24 -93 7 -33 42 -28 58 15 50 19 -4 42 -10 50
-13 23 -9 36 46 32 144 -2 74 -7 97 -24 120 -24 32 -233 141 -289 150 -30 5
-35 3 -35 -14 0 -11 11 -46 25 -77 41 -92 38 -98 -52 -119 -43 -9 -86 -17 -95
-17 -32 0 -234 110 -283 155 l-50 45 23 19 c13 11 43 23 68 27 54 8 78 28 70
59 -3 13 -31 64 -62 114 -63 102 -78 111 -154 92 -44 -11 -51 -10 -103 15
l-56 28 -78 -32 c-135 -56 -147 -47 -137 95 4 64 2 118 -5 153 -7 30 -16 90
-21 133 -5 51 -14 85 -24 95 -14 14 -47 18 -191 22 -156 5 -176 7 -202 26 -38
29 -39 48 -3 136 50 127 41 166 -74 300 -81 95 -99 106 -120 76 -35 -50 -11
-183 59 -330 40 -83 45 -132 16 -148 -56 -29 -108 1 -204 120 -122 151 -125
161 -82 315 86 307 88 325 38 377 -40 42 -145 116 -200 140 -39 17 -57 19
-120 13 -63 -6 -77 -4 -94 11 -28 25 -24 43 22 115 62 94 62 123 3 238 -27 52
-56 99 -65 104 -28 17 -63 -1 -105 -55 -53 -69 -102 -97 -139 -80 -32 15 -77
105 -95 191 -15 71 -11 86 27 95 49 13 70 44 109 163 37 110 37 116 23 156
-11 33 -32 56 -99 109 -47 38 -99 71 -115 74 -22 4 -53 -4 -112 -30 -45 -20
-92 -36 -106 -36 -47 0 -74 38 -176 243 -79 157 -118 252 -176 426 -42 123
-86 244 -99 270 -50 99 -97 233 -141 401 -44 168 -54 229 -75 440 -5 52 -14
115 -19 140 -5 25 -12 80 -16 123 -3 43 -10 90 -16 103 -5 15 -11 277 -13 622
-2 328 -8 613 -13 632 l-10 35 -11 -40 c-35 -129 -54 -725 -33 -1055 64 -1006
277 -1852 693 -2745 351 -752 911 -1538 1457 -2045 57 -52 151 -140 209 -196
99 -93 138 -127 321 -271 36 -29 100 -80 141 -113 41 -33 111 -88 154 -123 43
-34 109 -86 145 -115 166 -132 317 -230 551 -358 52 -28 147 -81 210 -118 179
-103 478 -252 668 -332 95 -41 175 -74 178 -74 2 0 90 -33 196 -74 814 -310
1635 -455 2608 -458 955 -2 1875 177 2810 550 282 112 485 205 715 328 948
507 1736 1166 2397 2006 560 712 990 1536 1254 2403 204 669 303 1298 319
2035 8 325 -3 574 -41 905 -26 238 -29 255 -81 545 -113 638 -339 1322 -625
1895 -50 100 -173 305 -183 305 -1 0 15 -51 36 -114z m-10422 -9311 c34 -39
40 -65 15 -65 -22 0 -74 57 -74 81 0 29 25 23 59 -16z"/>
<path d="M15077 9232 c-9 -9 -31 -49 -49 -87 -31 -66 -33 -76 -32 -175 0 -74
6 -128 21 -183 12 -43 24 -81 27 -84 17 -18 67 64 102 167 26 78 24 212 -5
308 -23 74 -36 86 -64 54z"/>
<path d="M597 9013 c-14 -52 -17 -77 -11 -96 6 -20 7 -20 20 4 15 27 19 109 5
109 -5 0 -12 -8 -14 -17z"/>
<path d="M1058 8941 c-35 -32 -90 -96 -123 -142 l-60 -83 -3 -93 c-5 -117 1
-143 31 -143 27 0 56 29 161 160 101 126 116 158 116 249 0 129 -27 141 -122
52z"/>
<path d="M577 8833 c-24 -39 -30 -189 -6 -151 19 29 29 87 21 124 -4 22 -11
34 -15 27z"/>
<path d="M1005 8188 c-11 -6 -40 -30 -65 -52 -25 -23 -67 -57 -93 -76 -90 -64
-104 -118 -68 -258 40 -154 79 -160 180 -23 27 36 61 77 76 91 42 39 58 79 58
145 1 69 -27 161 -52 174 -10 6 -24 5 -36 -1z"/>
<path d="M950 7542 c-139 -70 -140 -71 -140 -291 0 -189 9 -231 59 -275 36
-33 67 -12 143 94 116 163 113 153 113 326 0 135 -2 154 -19 173 -27 30 -50
26 -156 -27z"/>
<path d="M1105 6839 c-42 -37 -180 -264 -196 -323 -20 -72 37 -230 87 -242 25
-6 34 -1 86 57 75 82 135 170 150 221 10 34 8 55 -11 141 -23 106 -48 168 -68
174 -6 2 -28 -10 -48 -28z"/>
<path d="M1227 6138 c-63 -85 -72 -114 -72 -248 0 -112 2 -129 23 -165 40 -70
148 -125 251 -128 87 -3 88 12 8 213 -35 91 -75 197 -87 235 -43 132 -75 157
-123 93z"/>
<path d="M7368 1043 c-65 -11 -16 -63 125 -134 103 -52 249 -109 279 -109 29
0 21 32 -24 96 -64 92 -77 103 -147 124 -66 21 -183 32 -233 23z"/>
<path d="M8008 979 c-42 -24 1 -93 81 -133 55 -27 298 -89 332 -84 37 5 35 42
-5 123 -49 99 -63 105 -248 105 -78 0 -151 -5 -160 -11z"/>
</g>
</svg>
