<?xml version="1.0" standalone="no"?>
<!DOCTYPE svg PUBLIC "-//W3C//DTD SVG 20010904//EN"
 "http://www.w3.org/TR/2001/REC-SVG-20010904/DTD/svg10.dtd">
<svg version="1.0" xmlns="http://www.w3.org/2000/svg"
 width="619.000000pt" height="765.000000pt" viewBox="0 0 619.000000 765.000000"
 preserveAspectRatio="xMidYMid meet">
<metadata>
Created by potrace 1.13, written by Peter Selinger 2001-2015
</metadata>
<g transform="translate(0.000000,765.000000) scale(0.100000,-0.100000)"
fill="#000000" stroke="none">
<path d="M3505 7462 c-43 -15 -53 -24 -77 -67 -36 -69 -34 -151 7 -212 16 -24
32 -43 37 -43 4 0 17 -9 28 -20 20 -20 20 -21 1 -58 -11 -20 -34 -73 -51 -117
-18 -44 -36 -88 -41 -97 -5 -10 -9 -28 -9 -41 0 -13 -7 -32 -15 -43 -8 -10
-15 -26 -15 -35 0 -9 -10 -21 -22 -27 -26 -14 -123 -19 -153 -9 -11 4 -66 9
-123 12 -57 2 -106 6 -110 8 -4 3 -34 0 -67 -5 -33 -6 -85 -11 -115 -13 -94
-3 -144 -19 -178 -55 -33 -34 -34 -34 -78 5 -6 6 -33 28 -60 50 -97 81 -179
172 -198 220 l-19 48 21 18 c12 9 22 22 22 28 0 7 7 14 15 17 22 9 26 35 15
94 -11 60 -45 104 -97 126 -44 19 -77 18 -121 -5 -43 -22 -112 -104 -112 -134
0 -11 -5 -37 -12 -59 -9 -31 -9 -44 0 -59 14 -22 16 -56 3 -63 -4 -3 -16 -26
-26 -52 -17 -44 -17 -49 -2 -78 9 -17 25 -56 35 -86 11 -30 25 -69 33 -87 10
-26 10 -38 0 -70 -22 -66 -18 -91 32 -201 l19 -42 -49 -46 c-187 -175 -255
-249 -280 -306 -7 -16 -17 -28 -21 -28 -11 0 -68 -85 -106 -156 -15 -27 -38
-69 -52 -94 -15 -25 -30 -64 -35 -86 -8 -43 -50 -113 -75 -127 -8 -4 -14 -14
-14 -21 0 -7 -13 -31 -28 -52 -16 -22 -31 -58 -34 -82 -4 -23 -20 -64 -36 -90
-17 -26 -35 -73 -41 -106 -6 -33 -23 -93 -37 -134 -14 -41 -23 -84 -20 -95 4
-18 -9 -93 -35 -197 -4 -19 -13 -82 -19 -140 -6 -58 -15 -139 -20 -180 -5 -41
-12 -109 -15 -150 -9 -110 -11 -113 -66 -139 -27 -13 -49 -28 -49 -32 0 -5 -6
-9 -12 -9 -7 -1 -26 -21 -41 -45 -25 -39 -28 -54 -29 -127 -1 -127 6 -142 92
-201 32 -23 58 -32 90 -33 44 -2 45 -2 57 -45 6 -24 12 -55 12 -69 1 -14 9
-45 17 -70 9 -25 20 -60 24 -77 7 -31 6 -33 -19 -34 -14 -1 -30 -1 -36 -1 -5
1 -34 -15 -63 -36 -60 -41 -83 -85 -83 -162 -1 -74 72 -183 137 -207 94 -35
126 -38 174 -20 18 7 81 -114 80 -155 0 -16 5 -28 10 -28 6 0 10 -5 10 -11 0
-8 -16 -10 -49 -6 -40 5 -52 2 -66 -13 -9 -10 -24 -16 -36 -13 -24 7 -83 -53
-93 -94 -21 -89 -23 -107 -12 -148 11 -42 56 -105 75 -105 5 0 13 -9 16 -20 4
-11 28 -31 53 -43 91 -45 240 -23 312 44 14 13 32 23 41 21 13 -2 99 -166 99
-190 0 -6 20 -31 45 -56 25 -26 45 -52 45 -59 0 -8 16 -27 35 -43 20 -16 45
-44 57 -62 11 -19 30 -44 42 -57 12 -13 35 -41 51 -64 17 -22 51 -55 77 -73
27 -18 48 -38 48 -44 0 -20 135 -119 225 -165 78 -40 90 -50 87 -70 -4 -42 -8
-53 -26 -88 -20 -38 -18 -142 4 -201 49 -132 81 -186 114 -196 12 -3 30 -14
41 -24 11 -10 33 -20 49 -22 26 -3 30 -9 42 -58 8 -30 18 -63 24 -73 6 -10 24
-44 41 -75 39 -73 123 -154 174 -169 109 -33 175 -28 227 15 18 15 29 21 24
14 -13 -21 10 -13 60 21 62 43 131 168 132 240 1 56 21 128 36 132 37 8 123
39 133 47 31 25 82 138 98 220 17 85 17 88 -4 151 -12 35 -28 73 -36 83 -8 10
-15 25 -15 32 0 14 24 42 36 42 4 0 30 16 58 35 l51 35 45 -17 c25 -9 54 -25
66 -35 15 -13 37 -18 85 -18 64 0 66 1 114 48 83 79 125 131 125 156 0 13 6
29 14 35 19 16 25 117 10 175 -7 27 -12 54 -11 59 1 6 27 36 57 68 113 117
223 238 239 260 9 13 33 41 54 62 20 21 37 44 37 50 0 7 26 64 58 127 57 114
58 116 87 109 17 -3 50 -16 74 -28 71 -37 186 -24 244 27 10 9 33 21 50 27 37
12 62 57 80 141 9 46 8 57 -8 88 -22 40 -86 86 -120 86 -13 0 -27 5 -31 11 -4
8 -25 9 -61 5 -63 -7 -72 3 -55 68 16 62 39 120 43 109 2 -6 24 -13 49 -16 25
-3 60 -11 78 -17 25 -9 36 -9 47 0 9 7 30 14 48 15 17 1 51 11 73 23 49 25
124 106 124 134 0 11 5 28 11 39 7 14 7 30 -2 57 -8 25 -9 37 -1 40 6 2 -1 24
-16 54 -29 54 -83 97 -145 115 -55 16 -131 -8 -173 -54 l-32 -35 4 74 c4 75 9
117 22 214 3 16 77 38 106 30 14 -3 26 -2 26 3 0 5 19 15 42 23 44 14 54 28
103 144 18 44 17 123 -3 199 -22 82 -125 133 -229 114 -27 -5 -51 -5 -56 0 -5
5 -10 35 -11 67 -3 62 -24 154 -44 191 -8 15 -9 29 -1 51 8 24 7 36 -6 56 -11
16 -18 49 -19 90 -1 45 -7 71 -19 84 -9 10 -17 30 -17 45 0 14 -4 28 -9 31 -4
3 -11 33 -15 67 -4 34 -18 84 -30 113 -13 28 -27 64 -30 81 -4 16 -12 33 -18
36 -6 4 -10 29 -10 57 1 33 -3 54 -13 62 -8 7 -15 17 -15 22 0 6 -15 43 -33
82 -19 39 -40 89 -47 111 -7 22 -25 58 -40 80 -15 22 -41 68 -58 102 -17 35
-52 88 -77 118 -25 31 -45 59 -45 63 0 4 -26 34 -57 67 -30 33 -62 70 -70 83
-9 12 -21 22 -29 22 -7 0 -23 14 -36 30 -12 17 -27 30 -32 30 -6 0 -23 13 -38
29 -15 15 -43 36 -62 45 -19 9 -38 21 -41 26 -3 6 -32 22 -63 37 -31 16 -63
34 -70 40 -7 7 -20 13 -28 13 -9 0 -24 4 -34 10 -21 11 -18 26 26 131 20 47
24 74 24 162 0 60 -4 109 -10 112 -5 3 -10 15 -10 26 0 11 -11 37 -25 57 -21
30 -25 49 -25 104 0 37 -4 69 -9 72 -5 3 -12 21 -15 40 -4 18 -15 41 -26 51
-11 10 -20 28 -20 39 0 12 -20 43 -45 71 -25 27 -45 57 -45 65 0 41 -113 121
-169 119 -14 0 -48 -8 -76 -17z m134 -69 c45 -19 72 -59 76 -111 2 -20 8 -66
14 -102 10 -69 5 -140 -11 -140 -5 0 -8 -6 -5 -12 2 -7 -2 -28 -9 -47 -8 -18
-14 -48 -14 -65 0 -17 -7 -44 -15 -60 -8 -15 -15 -38 -15 -50 -1 -11 -14 -43
-30 -71 -17 -27 -39 -69 -49 -91 -11 -23 -25 -45 -31 -49 -6 -4 -21 -28 -32
-54 -10 -25 -28 -55 -38 -66 -10 -11 -26 -36 -36 -55 -11 -19 -31 -51 -46 -71
-16 -20 -28 -41 -28 -46 0 -17 -47 -43 -77 -43 -29 0 -83 38 -83 59 0 7 8 24
18 39 85 124 102 151 102 160 0 6 10 23 23 39 13 15 38 62 56 103 19 41 48
102 66 135 17 33 37 80 44 105 7 25 19 59 26 75 22 51 34 95 29 108 -2 7 2 31
9 52 19 56 13 66 -33 59 -47 -8 -80 20 -87 75 -7 52 17 94 69 120 52 25 57 26
107 4z m-1419 -235 c14 -11 24 -22 23 -24 -2 -2 -3 -10 -3 -16 0 -9 4 -8 10 2
8 12 10 12 10 -5 0 -11 3 -31 6 -45 4 -20 3 -22 -5 -10 -9 13 -11 13 -11 -2 0
-13 -8 -18 -29 -18 -40 0 -74 -42 -61 -75 19 -50 52 -108 94 -163 23 -31 53
-74 65 -94 12 -21 29 -38 37 -38 8 0 36 -20 62 -45 26 -25 51 -45 57 -45 6 0
26 -13 45 -28 50 -41 128 -86 183 -107 26 -10 47 -21 47 -25 0 -4 37 -22 83
-40 45 -17 89 -37 97 -44 18 -15 74 -38 155 -64 101 -33 157 -54 220 -83 33
-16 74 -31 90 -35 17 -4 45 -18 62 -32 l33 -24 -29 -27 c-36 -32 -95 -126
-105 -166 -4 -16 -13 -36 -19 -44 -11 -13 -24 -45 -53 -131 -9 -25 -18 -52
-22 -60 -3 -8 -6 -24 -7 -35 -1 -31 -17 -145 -20 -145 -1 0 -21 6 -43 14 -41
15 -86 43 -130 80 -12 11 -31 21 -43 23 -19 3 -78 39 -90 56 -10 14 -163 87
-183 87 -10 0 -31 11 -48 25 -16 13 -46 29 -66 34 -20 6 -61 22 -90 36 -28 14
-54 25 -58 25 -3 0 -24 13 -47 29 -23 16 -45 28 -49 27 -4 0 -14 8 -22 20 -8
11 -34 29 -58 39 -24 11 -47 26 -52 35 -15 25 -90 90 -103 90 -9 0 -13 17 -13
51 0 48 1 50 23 43 12 -4 32 -16 43 -28 48 -46 82 -75 139 -117 33 -25 72 -56
87 -70 33 -31 169 -112 224 -134 21 -9 48 -21 59 -27 108 -62 140 -78 152 -74
35 14 -10 66 -69 81 -15 4 -34 15 -43 26 -10 10 -34 24 -54 30 -20 7 -47 21
-61 31 -14 11 -38 26 -55 34 -78 38 -146 88 -216 161 -36 37 -81 82 -100 98
-19 17 -43 42 -54 56 -11 14 -39 50 -63 78 -23 29 -40 57 -36 62 3 5 -2 19
-10 31 -19 27 -21 48 -3 48 6 -1 52 -39 102 -85 49 -47 92 -85 95 -85 3 0 14
-13 23 -30 10 -16 25 -30 33 -30 8 0 14 -4 14 -9 0 -9 79 -65 92 -66 4 0 14
-9 22 -21 8 -11 34 -33 58 -50 24 -16 65 -46 91 -66 27 -21 54 -38 60 -38 11
0 128 -66 179 -101 15 -11 39 -20 53 -21 15 -2 31 -8 37 -15 6 -7 19 -13 30
-13 30 0 18 32 -15 41 -15 4 -43 21 -62 37 -18 17 -44 33 -56 37 -12 4 -50 29
-83 55 -34 26 -71 50 -82 54 -12 4 -34 18 -48 31 -14 13 -26 22 -26 19 0 -9
-55 30 -115 81 -33 28 -80 66 -105 85 -62 47 -229 219 -247 255 -9 17 -19 32
-23 35 -13 9 -88 174 -95 208 -8 38 -1 41 17 8 38 -70 333 -365 392 -391 25
-11 70 -44 119 -88 18 -15 51 -37 75 -48 23 -12 42 -25 42 -31 0 -11 201 -108
225 -108 8 0 15 4 15 9 0 12 -54 51 -70 51 -6 0 -23 9 -37 20 -14 11 -32 20
-39 20 -8 0 -14 4 -14 9 0 5 -11 12 -25 15 -13 3 -29 15 -35 26 -6 11 -15 18
-21 15 -5 -4 -9 -2 -9 4 0 5 -10 13 -22 17 -12 3 -30 16 -40 28 -9 11 -17 18
-18 15 0 -8 -85 70 -227 209 -53 50 -99 92 -104 92 -5 0 -14 11 -19 25 -5 14
-27 37 -49 52 -22 16 -45 39 -51 53 -5 14 -18 39 -28 55 -31 52 -47 118 -47
192 1 68 3 75 33 106 27 28 38 33 65 29 17 -3 43 -14 57 -24z m1605 -37 c3 -5
10 -45 16 -89 9 -65 8 -88 -5 -131 -9 -31 -11 -51 -5 -51 6 0 7 -5 3 -12 -4
-7 -11 -30 -15 -53 -6 -36 -36 -115 -75 -202 -8 -17 -14 -38 -14 -46 0 -19
-39 -88 -58 -102 -7 -6 -14 -17 -16 -25 -7 -37 -40 -102 -60 -118 -12 -9 -24
-21 -25 -27 -2 -5 -14 -22 -26 -37 -31 -36 -92 -42 -117 -11 -19 23 -23 43 -9
43 5 0 16 15 25 34 8 18 22 39 31 46 8 7 15 18 15 25 0 6 9 20 19 29 11 10 23
31 26 46 3 16 13 34 21 41 8 7 36 54 62 106 26 51 54 108 64 126 9 18 22 50
28 72 7 22 18 54 25 70 6 17 18 57 24 90 7 33 17 70 22 82 5 13 6 30 3 38 -4
8 -1 15 5 15 6 0 11 11 11 25 0 25 14 34 25 16z m97 -338 c3 -31 1 -71 -3 -88
-53 -197 -45 -175 -95 -283 -19 -40 -32 -78 -29 -83 4 -5 2 -9 -2 -9 -5 0 -17
-15 -28 -32 -26 -44 -98 -139 -122 -161 -16 -14 -26 -16 -47 -7 -15 5 -29 16
-32 23 -5 13 31 72 89 149 15 19 27 39 27 45 0 5 18 35 40 66 22 30 40 60 40
65 0 6 7 25 16 44 38 77 44 90 44 107 0 10 3 21 7 25 12 12 43 100 43 123 0
34 18 73 34 73 9 0 15 -17 18 -57z m-328 -736 c17 -13 46 -29 64 -36 17 -8 32
-17 32 -22 0 -4 32 -38 70 -75 39 -37 70 -73 70 -79 0 -12 -79 -85 -91 -85 -4
0 -12 14 -18 31 -12 36 -37 58 -64 59 -29 0 -75 -28 -83 -52 -9 -31 27 -59 66
-52 26 6 29 3 35 -27 5 -32 -1 -66 -39 -201 -11 -40 -14 -77 -9 -119 l6 -62
-34 6 c-79 11 -155 32 -162 44 -4 7 -14 13 -22 13 -14 0 -21 20 -24 70 -1 14
-3 38 -4 54 -3 41 18 44 32 5 17 -48 40 -69 76 -69 24 0 37 7 51 28 46 67 52
132 15 151 -30 17 -52 -15 -42 -61 6 -27 5 -40 -4 -48 -25 -21 -43 0 -50 60
-5 47 -3 67 14 105 11 25 23 63 27 83 3 20 15 51 25 68 11 17 19 37 19 43 0
14 40 73 58 84 6 4 12 14 12 22 0 26 -20 26 -51 1 -17 -14 -34 -26 -39 -26
-15 0 -100 -137 -100 -162 0 -26 -25 -84 -40 -93 -5 -3 -11 -18 -15 -34 -3
-16 -13 -35 -21 -42 -10 -8 -14 -31 -13 -73 1 -60 -4 -113 -12 -121 -3 -2 -19
5 -37 16 -28 18 -30 22 -17 36 18 17 19 25 4 40 -8 8 -6 19 5 41 9 17 18 50
21 73 3 23 9 47 13 53 3 6 7 16 7 21 1 6 13 36 28 68 15 32 27 62 27 68 0 13
98 141 121 157 11 7 19 19 19 26 0 14 20 36 34 36 5 0 23 -10 40 -23z m720
-236 c3 -5 27 -12 53 -16 42 -6 45 -9 30 -20 -9 -7 -17 -17 -17 -23 0 -6 -13
-18 -28 -26 -16 -8 -34 -22 -41 -30 -8 -9 -32 -21 -55 -27 -22 -6 -48 -17 -56
-24 -20 -17 -65 -28 -122 -29 -36 -1 -52 4 -72 23 -14 14 -26 30 -26 36 0 25
101 99 153 111 135 32 174 38 181 25z m-434 -39 c0 -10 -22 -42 -50 -71 -27
-29 -50 -61 -50 -70 0 -15 -34 -61 -44 -61 -3 0 -4 21 -3 46 0 44 4 50 66 110
36 35 69 64 73 64 5 0 8 -8 8 -18z m641 -64 c18 -23 39 -59 46 -81 8 -22 23
-53 34 -68 10 -15 19 -33 19 -41 0 -8 9 -24 21 -37 14 -14 19 -31 16 -47 -2
-13 0 -24 4 -24 5 0 9 -7 9 -16 0 -8 -4 -13 -9 -9 -13 7 -1 -68 12 -76 5 -4 6
-16 3 -27 -4 -11 -3 -23 2 -26 11 -6 15 -88 7 -126 -5 -24 -9 -25 -83 -25 -54
0 -86 5 -108 17 -32 18 -93 36 -151 45 -45 7 -159 -14 -212 -39 -76 -36 -87
-123 -19 -147 36 -13 33 -30 -9 -51 -44 -22 -147 -111 -169 -145 -65 -106 -71
-145 -22 -145 17 0 19 -4 13 -22 -4 -13 -8 -36 -9 -53 -1 -26 3 -30 26 -33 23
-3 32 4 57 45 17 26 31 53 31 58 0 20 138 150 163 154 22 3 76 31 104 55 17
14 46 29 64 33 19 3 40 13 48 20 8 9 24 12 42 8 15 -4 37 -1 48 4 11 6 38 12
60 14 22 1 43 6 47 10 4 4 16 7 27 7 11 0 28 7 38 16 16 14 18 14 27 -3 5 -10
10 -69 10 -131 2 -95 5 -118 21 -138 13 -17 19 -42 20 -92 1 -66 37 -198 61
-227 5 -7 16 -28 23 -48 17 -49 142 -177 173 -177 25 0 31 14 36 80 3 30 11
40 53 68 41 27 56 32 85 27 73 -13 118 -72 121 -160 2 -41 -4 -58 -29 -96 -43
-63 -47 -65 -131 -78 -41 -7 -78 -14 -82 -17 -5 -3 -9 0 -9 5 0 6 -9 11 -20
11 -25 0 -89 40 -137 85 -21 19 -45 37 -55 40 -9 4 -26 21 -38 40 -11 18 -38
49 -60 68 -35 33 -120 177 -120 206 0 6 -9 37 -20 68 -11 32 -20 72 -20 91 0
43 -20 121 -32 128 -21 13 -28 -24 -22 -109 3 -49 9 -100 13 -115 4 -15 8 -63
10 -107 3 -97 17 -163 38 -188 9 -9 18 -34 20 -54 2 -20 14 -57 27 -82 13 -25
36 -71 50 -101 42 -86 82 -160 95 -173 6 -6 11 -21 11 -34 0 -28 151 -176 208
-204 21 -11 48 -28 60 -39 26 -25 61 -26 64 -2 1 9 2 24 4 32 1 8 2 23 3 32 1
10 19 27 42 38 36 19 43 20 57 6 10 -8 29 -18 45 -21 26 -7 55 -41 43 -52 -3
-3 2 -12 10 -21 15 -15 15 -51 1 -107 -3 -11 -6 -28 -6 -37 -1 -22 -38 -61
-51 -53 -5 3 -23 -1 -39 -10 -22 -11 -60 -15 -135 -15 -92 0 -112 3 -158 25
-84 41 -111 56 -137 79 -13 11 -20 14 -16 6 5 -8 -11 3 -36 25 -24 22 -50 51
-57 65 -7 14 -20 33 -29 42 -40 44 -172 287 -177 326 -6 49 -17 86 -36 122
-10 20 -22 58 -25 85 -4 28 -10 55 -13 60 -4 6 -10 44 -14 85 -18 173 -24 210
-36 222 -17 17 -20 9 -21 -57 -1 -156 12 -266 47 -375 6 -19 16 -55 22 -80 7
-25 18 -58 25 -75 7 -16 16 -43 19 -60 36 -196 53 -254 112 -367 8 -14 14 -32
14 -40 0 -7 9 -30 20 -50 10 -20 22 -59 26 -88 5 -39 16 -62 45 -98 22 -26 39
-54 39 -64 0 -17 57 -91 120 -155 42 -43 76 -44 85 -3 5 21 20 40 46 57 36 24
42 25 65 12 29 -15 54 -57 61 -103 3 -17 7 -33 9 -35 9 -9 -61 -83 -95 -100
-54 -28 -171 -20 -221 14 -20 14 -42 25 -50 25 -29 0 -138 115 -208 220 -66
99 -82 127 -82 146 0 8 -16 47 -35 87 -19 39 -35 78 -35 85 0 13 -4 23 -36 82
-16 30 -42 158 -75 363 -10 67 -15 77 -35 77 -16 0 -20 -75 -4 -85 6 -3 10
-36 10 -73 0 -46 5 -75 16 -90 11 -16 14 -34 9 -58 -4 -24 -1 -43 8 -57 8 -12
18 -38 21 -57 4 -19 14 -48 21 -65 7 -16 19 -52 25 -80 18 -82 33 -125 42
-125 4 0 22 -29 38 -64 34 -71 33 -106 -3 -131 -37 -26 -83 -19 -126 20 -21
19 -42 35 -45 35 -4 0 -19 -14 -33 -31 -24 -28 -30 -31 -70 -25 -23 3 -58 12
-78 20 -35 15 -35 15 -34 78 1 56 6 70 39 118 21 30 42 71 48 90 6 19 18 55
27 79 9 24 19 96 24 160 6 97 4 129 -11 195 -20 88 -78 207 -114 235 -13 11
-24 21 -24 24 0 2 -22 26 -49 53 -76 76 -151 144 -151 137 0 -4 -9 3 -20 15
-12 12 -28 22 -37 22 -26 0 -103 43 -103 57 0 8 16 35 35 60 19 25 35 52 35
59 0 7 6 25 14 41 56 110 80 206 79 316 -1 67 -7 98 -22 131 -12 23 -21 48
-21 54 0 41 -149 242 -180 242 -6 0 -30 20 -53 45 -24 25 -48 45 -53 45 -5 0
-22 7 -39 16 -18 9 -44 14 -65 11 -19 -3 -44 -1 -55 3 -11 5 -16 9 -11 9 5 1
3 8 -4 16 -16 19 -70 19 -96 0 -28 -21 -41 -19 -84 16 -34 28 -38 34 -28 53
18 35 50 66 69 66 17 0 86 -41 99 -58 9 -12 60 -32 82 -32 11 0 35 -9 52 -19
17 -11 42 -22 56 -24 14 -2 38 -9 53 -15 43 -18 136 -14 192 7 103 39 130 54
176 100 91 90 87 88 102 53 13 -32 86 -92 111 -92 7 0 30 -7 50 -15 20 -9 68
-18 107 -20 63 -4 76 -2 128 25 55 27 59 31 64 72 7 50 -2 63 -37 54 -17 -4
-28 -15 -32 -34 -3 -15 -7 -33 -10 -40 -6 -22 -57 -34 -119 -29 -61 5 -92 17
-180 67 -53 31 -51 35 20 43 71 8 169 34 173 46 2 6 14 11 27 11 39 0 110 47
164 110 52 60 57 80 20 80 -18 0 -26 20 -13 33 11 10 31 -4 65 -45z m-1831
-18 c47 -23 106 -55 131 -71 26 -17 57 -32 69 -34 12 -2 33 -16 46 -30 12 -14
28 -25 35 -25 10 0 63 -21 99 -39 8 -5 16 -19 18 -33 3 -22 -24 -56 -136 -170
-64 -65 -146 -128 -166 -128 -33 0 -57 -10 -50 -21 3 -5 -1 -9 -8 -9 -7 0 -29
-9 -49 -19 -31 -17 -51 -19 -145 -15 -155 6 -221 12 -241 23 -10 5 -26 12 -36
15 -10 3 -25 20 -35 38 -9 17 -27 41 -39 53 -13 12 -23 32 -23 44 0 12 -5 41
-11 64 -9 37 -7 47 15 90 15 26 26 54 26 62 0 21 46 0 88 -39 46 -44 131 -161
155 -215 44 -101 106 -150 92 -73 -10 55 -138 248 -183 276 -8 4 -22 18 -32
30 -11 11 -30 34 -44 50 -36 43 -22 51 34 20 26 -14 53 -23 59 -20 21 13 11
41 -24 69 l-34 27 21 25 c12 14 27 25 33 25 6 0 47 18 90 40 99 49 127 48 245
-10z m1236 -66 c5 -44 3 -52 -20 -73 -26 -25 -34 -55 -17 -65 12 -8 -57 -84
-93 -103 -15 -8 -25 -10 -22 -4 4 6 0 11 -8 11 -21 0 -21 53 -1 109 27 79 127
203 146 184 5 -5 12 -32 15 -59z m474 44 c0 -21 -32 -48 -57 -48 -24 0 -24 0
-6 24 23 31 63 47 63 24z m-2550 -85 c8 -7 -51 -53 -89 -70 -19 -8 -62 -21
-95 -28 -34 -8 -71 -17 -83 -21 -15 -4 -23 -2 -23 5 0 7 4 10 9 7 5 -3 21 13
37 35 41 59 103 87 179 81 33 -3 62 -7 65 -9z m2417 -10 c-8 -8 -38 -18 -68
-23 -30 -5 -74 -13 -97 -19 -51 -13 -112 -5 -112 15 0 8 8 14 18 15 38 1 169
18 207 27 51 11 72 5 52 -15z m-2187 -24 c30 -18 57 -34 59 -36 2 -1 -7 -22
-19 -48 -14 -30 -24 -72 -27 -126 -5 -70 -3 -84 14 -107 11 -15 30 -46 41 -68
21 -42 42 -64 64 -68 7 -2 34 -12 60 -24 26 -11 89 -28 140 -38 78 -14 104
-15 167 -5 41 6 88 18 104 26 48 24 66 20 65 -15 -1 -16 -4 -30 -8 -30 -3 0
-12 -22 -20 -50 -7 -27 -17 -47 -22 -44 -4 3 -8 2 -9 -3 -5 -52 -29 -135 -49
-173 -6 -11 -27 -20 -55 -24 -25 -4 -45 -11 -45 -15 0 -4 -20 -9 -45 -9 -25
-1 -45 2 -45 8 0 9 -47 -7 -60 -20 -3 -3 -16 -6 -30 -7 -39 -4 -100 -25 -100
-35 0 -5 -13 -14 -29 -19 -28 -10 -90 -75 -126 -134 -10 -16 -27 -39 -36 -50
-34 -38 -55 -158 -63 -350 -7 -167 -22 -309 -37 -337 -16 -29 -30 -237 -17
-254 4 -6 -1 -20 -12 -32 -22 -24 -26 -42 -8 -42 6 0 4 -6 -5 -13 -14 -10 -18
-30 -19 -107 -1 -52 -5 -99 -8 -105 -8 -12 -18 -63 -25 -126 -2 -24 -16 -79
-30 -122 -14 -43 -27 -95 -28 -115 -2 -21 -9 -46 -14 -57 -6 -11 -14 -40 -18
-64 -4 -24 -14 -60 -22 -80 -9 -20 -17 -49 -18 -66 -2 -16 -3 -35 -4 -41 -1
-7 -10 -14 -22 -17 -16 -4 -19 -10 -14 -28 5 -14 3 -19 -3 -15 -6 4 -16 -3
-22 -14 -6 -11 -7 -20 -3 -20 4 0 -15 -16 -42 -35 -28 -19 -56 -39 -63 -46
-22 -19 -123 -28 -166 -15 -22 6 -58 30 -83 55 -41 41 -44 47 -39 85 3 23 5
49 5 58 1 10 17 36 37 58 32 35 42 40 79 40 48 0 72 -20 77 -65 3 -26 7 -30
32 -30 23 0 31 6 36 25 4 14 21 55 39 91 17 36 31 78 31 93 0 15 11 60 24 99
26 82 45 178 42 222 -1 17 1 35 4 40 4 6 12 51 19 100 7 50 18 117 26 150 37
165 40 440 5 440 -16 0 -28 -59 -29 -153 -1 -29 -5 -51 -10 -48 -5 3 -10 -22
-13 -57 -2 -38 -12 -79 -26 -105 -12 -23 -22 -55 -23 -70 0 -26 -17 -77 -18
-57 -1 15 -41 -63 -41 -80 0 -9 -5 -21 -10 -28 -21 -24 -80 -130 -80 -143 0
-7 -27 -26 -60 -43 -53 -27 -67 -30 -126 -26 -87 5 -127 31 -158 102 -26 59
19 152 81 168 35 8 76 -22 70 -52 -6 -32 18 -41 43 -18 12 11 20 31 20 50 0
18 6 38 14 44 17 14 51 107 67 181 6 30 22 67 34 82 12 15 26 48 30 75 4 26
12 57 18 68 16 27 37 85 43 115 7 37 26 94 34 105 4 6 16 60 25 120 10 61 21
115 25 120 17 23 30 128 31 265 1 184 3 172 -23 168 -22 -3 -23 -8 -25 -98 -3
-123 -30 -336 -48 -375 -43 -95 -55 -125 -55 -139 0 -8 -11 -28 -25 -44 -14
-17 -25 -37 -25 -45 0 -8 -25 -34 -55 -57 -30 -23 -55 -47 -55 -52 0 -5 -27
-22 -60 -37 -33 -16 -57 -30 -55 -33 5 -4 -41 -4 -106 0 -38 3 -109 74 -109
109 0 16 -7 39 -17 52 -15 22 -15 25 -1 35 9 6 24 29 34 51 19 40 19 40 83 43
77 4 116 -16 107 -53 -7 -26 21 -49 46 -40 17 7 68 108 68 135 0 10 4 22 10
25 34 21 53 233 37 440 -2 39 -8 156 -11 260 -6 170 -5 202 15 308 16 88 18
121 10 131 -8 10 -8 16 4 26 8 7 15 25 15 41 0 24 4 29 23 29 20 0 24 -5 25
-30 1 -31 25 -57 95 -104 40 -27 40 -38 1 -47 -18 -3 -45 -15 -60 -25 -16 -10
-38 -24 -49 -30 -24 -13 -34 -58 -23 -101 7 -26 18 -37 54 -53 56 -26 75 -23
93 14 11 24 11 32 0 53 -11 21 -19 24 -46 20 -29 -5 -31 -4 -24 16 10 25 21
32 86 46 39 9 60 8 95 -3 40 -12 146 -76 160 -95 16 -23 145 -111 159 -109 34
7 22 37 -31 76 -29 22 -71 56 -93 75 l-40 36 30 28 c17 15 44 33 60 38 16 6
36 22 44 37 13 23 13 30 2 52 -16 29 -71 51 -107 42 -29 -8 -33 -49 -8 -77 9
-10 13 -23 9 -28 -15 -25 -134 -3 -173 32 -9 8 -28 18 -42 22 -14 4 -36 15
-50 25 -14 10 -40 21 -58 25 -30 6 -61 40 -48 53 4 3 41 6 84 7 56 1 90 7 124
23 26 12 58 22 72 22 47 0 130 51 199 123 37 39 66 75 64 81 -2 6 -16 12 -30
14 -21 3 -31 -3 -44 -25 -15 -26 -135 -122 -165 -132 -7 -2 -18 -10 -23 -18
-8 -10 -49 -16 -153 -20 l-142 -6 0 30 c0 35 18 42 134 49 45 3 80 11 101 24
18 11 40 20 49 20 17 0 84 49 129 94 24 24 35 28 65 23 20 -2 62 -20 92 -38z
m1023 -279 c29 -23 38 -55 41 -140 1 -33 5 -62 9 -67 14 -13 27 20 27 68 0 63
17 107 48 123 23 12 30 11 58 -7 26 -18 33 -29 38 -72 12 -97 23 -144 36 -160
13 -16 15 -16 21 2 14 33 10 123 -6 147 -14 21 -13 24 4 40 50 45 108 -23 117
-136 6 -82 12 -100 32 -96 12 2 19 17 22 51 3 26 11 52 16 57 17 17 77 -31
105 -85 14 -28 36 -67 48 -88 11 -21 21 -44 21 -53 0 -8 6 -25 13 -37 25 -41
5 -237 -28 -277 -7 -8 -13 -30 -13 -49 -1 -22 -13 -52 -36 -86 -20 -28 -36
-57 -36 -63 0 -25 -133 -152 -185 -178 -30 -14 -56 -24 -58 -22 -2 1 -11 -2
-19 -9 -13 -12 -36 -15 -181 -28 -71 -6 -149 10 -173 36 -9 10 -26 19 -36 19
-23 0 -141 116 -164 162 -9 18 -32 54 -50 79 -47 64 -68 159 -60 271 7 102 20
136 55 144 14 3 43 12 64 20 44 16 104 17 167 3 66 -16 112 -16 118 -1 2 7 -2
12 -9 11 -8 -1 -41 11 -74 26 -73 35 -158 36 -220 5 -22 -11 -45 -20 -52 -20
-15 0 -17 23 -3 48 5 9 25 51 45 92 39 83 117 196 134 194 6 -1 17 -2 24 -2 7
-1 14 -18 15 -39 3 -44 46 -123 67 -123 15 0 30 35 20 50 -3 5 -12 10 -19 10
-15 0 -39 119 -30 147 7 17 43 52 55 53 4 0 18 -9 32 -20z m1234 -164 c3 -3
21 -6 39 -6 18 0 36 -5 40 -11 8 -13 -13 -29 -41 -29 -11 0 -43 -11 -71 -24
-88 -41 -106 -41 -133 -5 -30 41 -20 58 40 74 45 12 114 13 126 1z m361 -77
c3 -30 -15 -39 -80 -39 -21 0 -38 -4 -38 -8 0 -4 -8 -8 -17 -9 -33 -3 -209
-52 -256 -71 -16 -7 -33 -12 -39 -12 -33 0 -177 -86 -239 -142 -16 -16 -34
-28 -39 -28 -10 0 -3 27 12 47 6 7 6 18 2 24 -4 7 -3 9 3 6 6 -4 16 0 23 8 7
8 17 15 22 15 5 0 35 20 67 45 31 25 62 45 68 45 9 0 24 11 71 50 7 6 16 9 21
6 4 -3 23 3 43 13 53 29 165 61 213 61 24 0 46 4 50 9 3 5 29 9 58 8 48 -2 52
-4 55 -28z m-1952 -701 c16 -17 23 -28 15 -23 -7 4 36 -42 95 -103 60 -60 128
-119 151 -131 79 -39 94 -81 74 -203 -9 -54 0 -60 36 -26 16 15 23 33 23 60 0
22 4 37 8 34 5 -3 6 14 2 38 l-7 44 36 6 c20 3 60 6 89 6 33 0 66 7 89 20 21
11 47 20 59 20 11 0 46 18 76 39 68 47 103 56 142 36 15 -8 35 -15 44 -15 39
0 233 -137 279 -197 15 -21 37 -55 47 -75 11 -21 23 -38 27 -38 4 0 13 -17 19
-37 6 -21 18 -51 25 -68 11 -26 27 -142 27 -200 0 -22 -28 -144 -43 -190 -41
-117 -54 -144 -95 -185 -24 -25 -44 -50 -44 -56 0 -5 -20 -32 -45 -61 -25 -28
-45 -56 -45 -61 0 -5 -9 -21 -21 -36 -11 -14 -15 -26 -9 -26 6 0 -5 -13 -23
-30 -19 -16 -41 -30 -49 -30 -8 0 -46 -27 -84 -60 -38 -33 -74 -60 -81 -60 -7
0 -16 -6 -20 -13 -10 -17 -70 -47 -93 -47 -10 0 -28 -9 -42 -19 -15 -12 -33
-18 -46 -14 -15 4 -29 -4 -50 -26 -19 -21 -34 -30 -45 -25 -9 3 -38 -6 -64
-20 -43 -22 -165 -56 -203 -56 -32 0 -330 -264 -330 -293 0 -5 -16 -33 -36
-62 -25 -38 -36 -66 -37 -97 l-2 -43 53 -3 c28 -2 53 -6 53 -10 5 -26 2 -52
-10 -89 -19 -57 -57 -77 -138 -71 -72 5 -115 33 -118 78 -2 16 -10 36 -19 45
-17 18 -21 31 -8 37 6 3 39 96 57 166 4 12 17 34 29 50 13 15 31 43 40 64 10
20 41 62 69 95 29 32 64 74 78 93 45 61 138 147 192 179 29 17 88 60 132 96
82 67 144 105 168 105 25 0 70 41 58 53 -7 7 -16 5 -29 -6 -10 -9 -33 -17 -51
-17 -35 0 -91 -25 -91 -40 0 -5 -12 -13 -27 -16 -34 -9 -103 -51 -103 -63 0
-4 -19 -21 -42 -37 -24 -16 -45 -32 -48 -35 -3 -3 -19 -14 -37 -24 -18 -10
-30 -22 -27 -26 2 -4 -11 -16 -29 -28 -18 -11 -42 -33 -54 -49 -24 -32 -63
-49 -63 -27 0 8 13 34 30 58 34 50 207 250 224 257 12 5 105 66 172 111 22 15
65 39 95 54 122 58 189 95 189 105 0 14 -41 12 -70 -5 -14 -8 -36 -14 -50 -15
-46 0 -275 -124 -323 -175 -18 -18 -42 -38 -54 -44 -12 -6 -48 -44 -80 -84
-32 -39 -81 -95 -111 -124 -31 -31 -55 -64 -58 -82 -4 -17 -13 -31 -20 -31
-18 0 -18 -2 11 56 14 27 25 55 25 62 0 33 165 267 209 298 10 7 23 26 30 41
11 28 95 93 119 93 6 0 12 4 12 9 0 17 117 95 185 123 82 34 105 52 87 70 -9
9 -21 8 -54 -2 -24 -8 -48 -17 -54 -22 -6 -4 -19 -9 -30 -11 -62 -11 -181 -96
-299 -215 -100 -102 -137 -147 -159 -194 -10 -20 -24 -42 -32 -49 -8 -6 -14
-17 -14 -24 0 -7 -10 -24 -21 -39 -12 -15 -25 -42 -30 -59 -58 -225 -66 -263
-58 -279 10 -19 12 -69 3 -92 -3 -9 -17 -16 -29 -16 -22 0 -24 4 -27 78 -7
166 24 321 93 469 55 118 73 152 101 190 15 21 37 57 47 80 24 51 213 245 262
267 19 9 59 34 89 56 30 22 63 40 73 40 10 0 27 5 37 10 26 14 62 -4 85 -43
19 -32 227 -238 249 -246 6 -2 49 -36 96 -75 47 -40 96 -79 110 -89 14 -9 36
-26 50 -37 30 -24 60 -18 60 11 0 12 -33 44 -94 89 -52 39 -98 75 -101 80 -4
6 -30 25 -58 43 -51 33 -302 275 -323 313 -13 22 -53 31 -64 15 -3 -6 -33 -20
-65 -32 -32 -11 -78 -34 -101 -50 -23 -16 -48 -29 -54 -29 -6 0 -32 -20 -58
-44 -26 -24 -51 -44 -57 -44 -5 1 -15 -9 -21 -21 -16 -31 -163 -181 -178 -181
-15 0 -62 51 -58 63 1 5 -2 6 -7 3 -5 -4 -13 -1 -18 7 -4 7 -24 23 -43 35 -19
12 -32 22 -27 22 4 0 -6 19 -23 42 -16 22 -30 49 -30 59 0 18 -15 42 -77 127
-18 24 -37 60 -44 80 -6 20 -22 63 -35 95 -23 53 -24 67 -19 183 5 134 10 148
73 238 66 95 134 151 247 206 70 34 96 43 141 49 5 0 23 -13 40 -31z m-629
-583 c11 -8 24 -30 27 -50 4 -19 10 -35 14 -35 8 0 11 -20 15 -90 l2 -45 -63
2 c-35 1 -70 7 -78 14 -22 18 -18 124 7 176 22 46 41 53 76 28z m1823 -1036
c72 -73 113 -123 121 -147 7 -21 20 -47 30 -60 10 -13 16 -29 13 -35 -2 -7 5
-22 16 -34 11 -12 20 -36 20 -52 0 -16 4 -32 9 -35 8 -6 14 -31 27 -118 4 -21
10 -35 15 -32 11 6 11 1 3 -20 -5 -14 -10 -13 -30 6 -13 13 -24 28 -24 35 0
16 -36 80 -64 115 -11 14 -32 45 -46 69 -25 42 -174 199 -262 276 -27 23 -48
48 -48 57 0 17 78 86 97 86 8 0 63 -50 123 -111z m-238 -72 c62 -37 278 -249
278 -273 0 -8 14 -30 32 -47 49 -49 109 -163 122 -230 4 -20 11 -37 16 -37 5
0 9 -8 8 -17 0 -10 7 -38 14 -63 15 -46 11 -107 -7 -103 -5 1 -14 19 -21 40
-20 65 -64 151 -105 205 -21 29 -39 60 -39 70 0 10 -4 18 -10 18 -5 0 -16 12
-24 28 -8 15 -30 43 -50 62 -20 19 -36 39 -36 44 0 8 -17 28 -76 89 -44 46
-159 138 -202 163 -47 26 -51 48 -15 68 40 22 54 20 115 -17z m-142 -106 c24
-17 48 -31 54 -31 14 0 64 -42 160 -137 91 -88 161 -173 183 -221 9 -20 26
-48 38 -62 26 -29 95 -179 95 -206 0 -11 7 -28 15 -38 20 -27 19 -78 -2 -107
-10 -13 -23 -33 -29 -44 -6 -11 -33 -33 -60 -48 -46 -28 -49 -28 -80 -13 -33
15 -54 59 -54 114 l0 23 28 -21 c15 -11 45 -21 67 -23 37 -2 40 0 43 26 5 41
-25 120 -63 169 -21 25 -35 54 -35 71 0 19 -7 30 -22 36 -26 10 -60 46 -106
113 -31 45 -241 257 -307 310 -16 13 -52 37 -78 52 -27 15 -46 33 -44 39 2 7
25 19 52 28 57 20 84 14 145 -30z m-95 -1094 c60 -39 86 -88 87 -164 1 -51 -2
-57 -40 -94 -29 -27 -50 -39 -71 -39 -16 0 -42 -5 -58 -12 -15 -6 -49 -10 -75
-9 -41 2 -49 -1 -64 -24 -17 -26 -17 -29 -1 -54 49 -78 51 -87 37 -148 -24
-103 -45 -141 -87 -159 -21 -9 -56 -17 -78 -19 -22 -1 -47 -5 -55 -8 -20 -8
-132 97 -153 143 -34 76 -12 206 45 267 l22 24 -28 27 -27 27 -24 -27 c-13
-16 -27 -28 -31 -28 -5 0 -25 -12 -45 -26 -30 -21 -41 -24 -58 -15 -11 6 -28
11 -38 11 -11 0 -36 18 -57 41 -35 36 -39 45 -38 92 1 80 12 134 32 152 17 15
24 15 96 0 90 -19 373 -22 418 -5 14 5 56 14 93 20 68 11 123 33 123 50 0 18
25 10 75 -23z"/>
<path d="M3947 4415 c-4 -8 8 -32 27 -54 61 -73 71 -131 23 -131 -35 0 -47
-17 -35 -52 18 -50 81 -57 118 -13 16 19 21 72 9 96 -4 9 -10 28 -13 43 -3 14
-21 45 -40 68 -20 23 -36 45 -36 50 0 14 -48 9 -53 -7z"/>
<path d="M4206 3911 c-4 -7 -5 -15 -2 -18 9 -9 19 4 14 18 -4 11 -6 11 -12 0z"/>
<path d="M2380 5489 c0 -6 20 -36 43 -67 24 -31 42 -62 40 -68 -3 -10 48 -97
68 -114 3 -3 11 -19 18 -37 18 -43 35 -57 49 -40 9 10 3 26 -23 68 -19 30 -44
73 -55 96 -11 23 -24 43 -29 45 -4 2 -21 27 -38 57 -27 49 -73 87 -73 60z"/>
<path d="M2500 4920 c-19 -5 -69 -12 -110 -16 -49 -4 -83 -13 -99 -25 -13 -11
-31 -19 -40 -19 -9 0 -25 -7 -35 -15 -11 -8 -29 -15 -41 -15 -22 0 -132 -78
-147 -104 -13 -23 -1 -36 31 -36 18 0 42 13 71 40 23 22 51 42 61 45 11 4 19
10 19 15 0 28 153 58 320 64 57 2 110 17 110 31 0 3 -9 14 -20 25 -21 21 -59
24 -120 10z"/>
<path d="M1615 4804 c-135 -22 -157 -28 -169 -47 -8 -14 -8 -20 4 -27 17 -11
137 -1 165 13 17 9 129 10 305 4 40 -2 45 0 42 18 -2 11 -6 22 -8 24 -5 5
-211 30 -239 29 -11 0 -56 -7 -100 -14z"/>
<path d="M1630 4700 c-8 -5 -40 -12 -70 -16 -107 -13 -159 -48 -110 -74 16 -9
28 -7 52 4 17 9 46 16 65 16 19 0 66 5 105 11 81 13 195 0 289 -32 56 -19 89
-17 89 5 0 17 -21 36 -41 36 -10 0 -30 6 -46 14 -15 8 -51 19 -80 26 -68 15
-234 22 -253 10z"/>
<path d="M3405 4905 c-53 -19 -96 -46 -90 -55 9 -15 85 -12 91 4 7 19 112 20
157 1 20 -8 48 -15 62 -15 35 0 32 29 -5 41 -16 6 -30 14 -30 18 0 5 -32 9
-72 10 -39 1 -74 3 -77 5 -3 1 -19 -3 -36 -9z"/>
<path d="M3368 4779 c-24 -9 -78 -77 -78 -98 0 -13 75 -46 125 -55 22 -5 67
-8 100 -7 57 1 61 3 105 46 l45 46 -25 20 c-14 10 -34 26 -45 34 -11 9 -41 15
-75 15 -30 0 -71 2 -90 5 -19 2 -47 0 -62 -6z m207 -65 c15 -15 15 -18 0 -34
-20 -22 -54 -29 -83 -19 -22 8 -21 28 1 57 13 17 63 15 82 -4z"/>
<path d="M2939 4775 c-3 -3 -37 -16 -75 -29 -80 -28 -93 -54 -34 -69 19 -5 38
-14 42 -20 4 -7 24 -12 45 -13 21 0 54 -8 72 -17 42 -21 73 -21 111 -2 35 18
35 21 15 62 -16 31 -45 62 -45 47 0 -4 -6 -1 -12 8 -7 9 -29 18 -48 20 -19 3
-42 8 -51 12 -8 4 -17 4 -20 1z m121 -69 c32 -35 21 -58 -27 -54 -31 2 -39 7
-41 26 -8 55 28 70 68 28z"/>
<path d="M3270 4470 c-9 -16 -21 -20 -69 -20 -40 0 -63 5 -71 15 -7 8 -17 15
-22 15 -18 0 -20 -31 -3 -50 28 -31 139 -28 179 3 20 16 27 29 23 40 -9 23
-24 21 -37 -3z"/>
<path d="M3174 4270 c-87 -15 -117 -34 -72 -45 24 -6 96 -7 208 -3 62 3 65 4
65 28 0 23 -4 25 -57 30 -31 3 -96 -2 -144 -10z"/>
<path d="M2508 4185 c-68 -45 -149 -179 -149 -249 -1 -80 8 -141 23 -176 9
-19 19 -51 22 -70 4 -19 17 -45 30 -58 14 -12 36 -45 49 -72 26 -52 46 -71
138 -133 65 -43 82 -46 97 -13 13 30 10 33 -77 75 -78 38 -107 63 -122 108 -6
19 -13 32 -16 29 -9 -9 -53 64 -53 89 0 13 -4 26 -9 29 -11 7 -22 75 -23 135
0 51 19 118 42 146 9 11 26 36 38 56 21 35 57 59 89 59 37 0 82 -41 101 -93
36 -97 36 -119 1 -153 l-31 -29 -22 28 c-12 15 -27 27 -34 27 -34 0 10 -89 55
-109 23 -10 30 -9 52 7 15 11 26 29 26 43 0 13 6 34 13 46 16 29 16 110 0 115
-8 3 -12 18 -10 39 4 45 -42 101 -105 129 -58 25 -79 25 -125 -5z"/>
<path d="M3646 4111 c-5 -8 -1 -45 7 -59 3 -4 -5 -27 -17 -52 l-22 -45 -52 2
c-49 2 -52 1 -52 -22 0 -33 44 -65 90 -65 42 0 63 18 63 55 0 13 6 30 13 36
16 13 19 65 4 74 -5 3 -10 24 -10 46 0 36 -12 51 -24 30z"/>
<path d="M3793 3894 c-7 -18 11 -39 26 -30 17 11 13 46 -4 46 -9 0 -18 -7 -22
-16z"/>
<path d="M3807 3783 c-13 -12 -7 -40 13 -58 11 -10 20 -27 20 -37 0 -27 26
-74 45 -82 54 -20 120 10 109 51 -8 29 -30 36 -64 18 -25 -13 -30 -13 -53 5
-14 11 -28 35 -31 54 -7 35 -28 61 -39 49z"/>
<path d="M3235 3660 c-5 -15 9 -38 54 -93 71 -86 351 -356 389 -376 15 -8 40
-25 56 -38 40 -33 70 -27 74 15 3 28 0 32 -21 32 -13 0 -45 14 -70 31 -57 37
-424 402 -432 430 -8 25 -42 25 -50 -1z"/>
<path d="M3458 3649 c-44 -26 -3 -59 73 -59 75 0 210 -111 194 -160 -5 -15
-12 -19 -23 -14 -10 3 -27 9 -39 11 -48 11 -42 -67 7 -92 42 -21 56 -19 89 16
35 36 36 81 3 145 -22 43 -84 104 -106 104 -7 0 -21 9 -30 19 -10 11 -38 22
-64 26 -26 3 -56 8 -67 11 -11 2 -28 -1 -37 -7z"/>
<path d="M3383 1370 c-25 -10 -66 -86 -58 -110 7 -22 57 -50 89 -50 16 0 38
11 53 26 22 22 25 32 20 67 -9 63 -49 89 -104 67z"/>
<path d="M2800 1350 c-8 -5 -26 -10 -39 -10 -32 0 -50 -27 -51 -76 0 -28 7
-47 21 -63 19 -20 28 -22 68 -16 56 8 57 10 65 60 5 29 1 50 -11 74 -20 39
-31 45 -53 31z"/>
<path d="M3060 988 c-29 -30 -49 -78 -42 -97 9 -26 34 -51 44 -44 6 3 13 1 17
-5 4 -7 20 -5 47 7 42 19 64 56 64 106 0 29 -16 41 -66 50 -36 5 -45 3 -64
-17z"/>
</g>
</svg>
