<?xml version="1.0" standalone="no"?>
<!DOCTYPE svg PUBLIC "-//W3C//DTD SVG 20010904//EN"
 "http://www.w3.org/TR/2001/REC-SVG-20010904/DTD/svg10.dtd">
<svg version="1.0" xmlns="http://www.w3.org/2000/svg"
 width="1488.000000pt" height="1543.000000pt" viewBox="0 0 1488.000000 1543.000000"
 preserveAspectRatio="xMidYMid meet">
<metadata>
Created by potrace 1.13, written by Peter Selinger 2001-2015
</metadata>
<g transform="translate(0.000000,1543.000000) scale(0.100000,-0.100000)"
fill="#000000" stroke="none">
<path d="M7692 14863 c-7 -3 -21 -22 -32 -43 -11 -22 -36 -52 -55 -67 l-35
-28 0 -90 c0 -71 -4 -97 -19 -121 -11 -19 -20 -54 -22 -85 -1 -30 -5 -58 -8
-64 -3 -5 -6 -34 -6 -63 -1 -39 -6 -56 -21 -67 -10 -8 -13 -15 -7 -15 9 0 10
-7 3 -24 -5 -13 -6 -26 -4 -29 3 -3 1 -14 -5 -24 -5 -11 -12 -48 -16 -83 -3
-35 -9 -68 -13 -74 -9 -16 -23 -108 -29 -200 -3 -52 -11 -88 -24 -110 -10 -17
-19 -44 -19 -59 0 -15 -16 -76 -37 -135 -43 -126 -52 -179 -63 -367 -4 -77
-13 -167 -20 -200 -6 -33 -15 -109 -20 -170 -5 -60 -14 -139 -20 -175 -22
-133 -31 -219 -39 -375 -5 -88 -14 -182 -20 -210 -19 -83 -32 -192 -40 -340
-4 -77 -13 -151 -19 -165 -6 -14 -25 -113 -42 -220 -17 -107 -38 -217 -46
-245 -7 -27 -28 -133 -44 -235 -17 -102 -33 -198 -36 -214 l-6 -29 -65 6 c-57
4 -69 9 -89 33 -12 16 -30 54 -40 84 -9 30 -28 65 -41 77 -12 13 -23 28 -23
32 0 20 -70 109 -198 250 -18 20 -42 55 -52 79 -10 23 -26 45 -35 48 -9 4 -32
37 -51 75 -29 60 -41 72 -84 94 -36 18 -55 36 -70 65 -15 29 -34 47 -70 65
-30 15 -56 37 -65 55 -8 16 -28 36 -44 44 -16 9 -40 30 -55 48 -14 18 -35 42
-45 53 -10 11 -26 32 -36 48 -9 15 -24 27 -31 27 -8 0 -14 7 -14 15 0 9 -11
27 -24 40 -14 14 -29 31 -33 39 -4 8 -39 49 -78 91 -78 86 -117 144 -110 162
2 7 -5 17 -15 23 -11 6 -26 23 -34 38 -8 15 -36 50 -62 77 -50 54 -114 147
-114 166 0 6 -11 33 -25 61 -14 27 -25 56 -25 64 0 8 -4 14 -10 14 -5 0 -10 9
-10 20 0 11 -4 20 -9 20 -14 0 -62 76 -102 162 -21 45 -44 89 -51 98 -7 9 -33
55 -58 103 -25 48 -49 87 -53 87 -17 0 -96 88 -103 114 -3 14 -10 26 -15 26
-16 0 -49 63 -49 93 0 19 -13 40 -43 70 -24 23 -51 56 -62 72 -10 17 -24 34
-32 38 -16 10 -63 100 -63 122 0 8 -18 26 -40 40 -22 14 -40 30 -40 35 0 5
-17 18 -38 29 -21 11 -62 42 -92 70 -30 28 -63 54 -73 57 -11 3 -38 24 -61 46
-22 22 -66 57 -97 78 l-57 38 -26 -25 c-31 -29 -33 -49 -5 -58 11 -4 28 -19
37 -34 17 -26 31 -43 103 -119 20 -22 40 -50 44 -63 4 -13 13 -31 20 -39 6 -8
18 -31 25 -50 8 -19 25 -46 37 -60 13 -14 26 -33 29 -42 3 -10 10 -18 15 -18
5 0 9 -7 9 -15 0 -9 11 -32 24 -53 13 -21 27 -53 30 -72 11 -54 24 -85 83
-210 73 -152 113 -256 113 -295 0 -8 9 -34 20 -58 10 -23 28 -66 40 -95 28
-73 89 -185 106 -195 8 -4 14 -13 14 -18 0 -6 13 -36 29 -68 25 -51 38 -95 57
-186 2 -11 13 -38 24 -60 11 -21 20 -45 20 -51 0 -7 7 -14 15 -18 8 -3 15 -12
15 -21 0 -8 3 -15 8 -15 13 0 42 -61 42 -89 0 -14 6 -35 14 -46 7 -11 21 -51
31 -90 9 -38 30 -97 46 -131 16 -33 29 -67 29 -75 0 -8 5 -20 11 -26 16 -16
57 -116 81 -198 11 -38 26 -77 34 -86 8 -8 14 -19 14 -23 0 -4 14 -38 30 -76
17 -38 30 -81 30 -96 0 -30 14 -79 37 -134 27 -62 34 -90 47 -190 1 -8 7 -26
13 -40 6 -14 19 -45 29 -70 10 -25 21 -47 25 -50 6 -5 42 -70 44 -80 1 -3 8
-30 17 -60 9 -30 18 -76 22 -103 7 -55 35 -143 65 -204 12 -23 21 -47 21 -53
0 -5 5 -9 12 -7 6 1 15 -17 20 -40 5 -24 14 -43 20 -43 7 0 8 -25 4 -72 -3
-40 -6 -76 -6 -80 0 -5 -7 -8 -16 -8 -9 0 -12 -5 -8 -12 5 -7 3 -8 -7 -3 -26
16 -93 70 -121 98 -15 15 -31 27 -35 27 -4 0 -24 14 -43 31 -19 18 -69 55
-110 85 -94 66 -140 108 -140 128 0 11 -9 16 -29 16 -19 0 -51 17 -97 52 -38
29 -73 59 -77 65 -4 7 -13 13 -19 13 -5 0 -31 17 -57 38 -65 54 -97 72 -124
72 -12 0 -27 4 -33 9 -5 5 -33 16 -61 26 -29 9 -53 21 -53 26 0 5 -4 9 -9 9
-5 0 -41 18 -80 40 -39 22 -78 40 -87 40 -9 0 -28 6 -42 14 -15 8 -66 29 -114
47 -73 26 -192 91 -233 126 -5 5 -32 19 -60 32 -27 12 -74 33 -103 47 -29 13
-61 24 -71 24 -10 0 -29 8 -42 18 -22 17 -81 47 -139 71 -14 6 -43 22 -65 36
-54 34 -117 65 -134 65 -20 0 -178 80 -192 96 -6 8 -18 14 -25 14 -8 0 -14 4
-14 8 0 5 -17 17 -38 26 -20 9 -59 30 -87 46 -27 16 -60 35 -72 41 -13 7 -23
16 -23 20 0 4 -52 32 -115 63 -63 31 -115 60 -115 64 0 5 -53 39 -118 76 -72
40 -138 86 -168 116 -27 27 -52 50 -56 50 -6 0 -72 58 -151 133 -16 15 -32 27
-36 27 -12 0 -58 53 -72 85 -18 39 -74 59 -119 44 -26 -9 -29 -15 -24 -37 11
-45 77 -162 111 -195 18 -18 38 -44 44 -59 6 -15 17 -29 24 -32 8 -3 23 -23
35 -45 11 -22 29 -45 41 -52 11 -6 30 -31 41 -56 24 -55 71 -100 153 -150 33
-20 75 -49 93 -65 18 -15 49 -37 70 -47 20 -11 55 -36 77 -55 22 -20 58 -52
80 -71 22 -20 51 -46 65 -58 14 -13 48 -41 75 -63 28 -21 62 -51 77 -65 14
-15 29 -25 32 -21 3 3 6 -1 6 -9 0 -22 67 -99 224 -259 78 -80 150 -162 159
-182 10 -21 22 -38 27 -38 6 0 10 -8 10 -18 0 -10 39 -60 88 -111 105 -113
146 -159 160 -186 14 -27 97 -120 147 -165 21 -19 78 -75 125 -124 47 -50 105
-110 130 -136 73 -75 124 -136 145 -176 20 -37 58 -79 126 -139 19 -16 45 -43
58 -60 12 -16 25 -29 27 -28 2 2 18 -13 36 -33 18 -20 44 -47 58 -60 33 -30
169 -124 180 -124 5 0 13 -6 17 -13 4 -7 23 -19 41 -26 17 -8 32 -18 32 -24 0
-6 3 -7 7 -4 3 4 12 -2 20 -13 8 -11 20 -20 26 -20 13 0 37 -45 37 -68 0 -7 5
-10 12 -6 7 4 8 3 4 -5 -4 -6 -12 -9 -17 -6 -5 4 -9 -2 -9 -12 0 -14 -2 -15
-9 -4 -7 11 -9 11 -13 0 -8 -24 -430 -13 -570 14 -62 13 -217 14 -283 3 -62
-11 -214 -7 -330 8 -66 8 -136 14 -155 12 -153 -17 -262 -17 -375 0 -66 9
-167 18 -225 19 -58 2 -116 5 -130 8 -14 3 -52 10 -85 16 -33 7 -71 16 -85 22
-14 6 -42 13 -63 16 -21 2 -50 8 -63 14 -14 5 -57 9 -95 9 -65 0 -219 19 -312
39 -47 10 -177 22 -282 25 -82 3 -229 23 -265 35 -23 9 -70 17 -146 26 -17 1
-48 8 -70 14 -21 6 -59 11 -84 11 -25 1 -74 8 -110 16 -36 9 -87 19 -114 23
-29 5 -104 36 -183 77 -128 65 -137 71 -184 136 l-51 68 -36 -20 c-20 -11 -48
-29 -61 -40 l-24 -21 24 -52 c29 -63 90 -127 146 -156 23 -11 47 -30 53 -41 6
-11 28 -29 48 -39 21 -11 51 -33 68 -49 39 -40 105 -75 189 -103 39 -13 75
-31 82 -40 7 -9 27 -22 45 -30 18 -7 48 -24 67 -36 19 -13 42 -23 51 -23 26 0
136 -37 163 -55 26 -17 106 -41 177 -55 50 -9 103 -27 200 -69 87 -37 126 -51
178 -62 59 -12 132 -37 159 -55 12 -8 27 -14 33 -14 6 0 32 -9 58 -21 26 -12
56 -25 67 -30 11 -4 67 -29 125 -54 58 -26 141 -60 185 -77 44 -17 86 -35 93
-41 23 -18 184 -97 197 -97 7 0 15 -4 17 -9 3 -9 149 -81 165 -81 6 0 53 -13
104 -29 108 -33 185 -53 214 -56 11 -1 30 -5 42 -9 36 -12 64 -17 159 -31 49
-8 122 -23 162 -34 40 -11 72 -17 72 -14 0 3 6 1 13 -4 33 -27 342 -113 402
-113 17 0 41 -7 53 -16 12 -8 31 -13 41 -9 11 3 28 2 38 -3 37 -19 89 -34 127
-37 48 -4 54 -11 58 -63 2 -23 8 -42 13 -42 16 -1 -58 -59 -75 -60 -8 0 -51
-18 -95 -40 -44 -22 -87 -40 -97 -40 -9 0 -20 -4 -23 -10 -3 -5 -15 -10 -26
-10 -10 0 -27 -4 -37 -9 -9 -5 -57 -28 -107 -52 -49 -24 -110 -57 -135 -74
-43 -29 -109 -55 -175 -70 -56 -12 -245 -103 -282 -135 -7 -6 -13 -8 -13 -4 0
8 -92 -45 -105 -60 -5 -7 -39 -28 -75 -47 -36 -20 -97 -54 -137 -77 -40 -23
-77 -42 -83 -42 -5 0 -10 -4 -10 -10 0 -5 -5 -10 -11 -10 -6 0 -43 -16 -82
-35 -39 -19 -76 -35 -83 -35 -22 0 -174 -69 -207 -94 -59 -44 -278 -136 -337
-142 -8 -1 -69 -20 -135 -43 -66 -22 -126 -41 -133 -41 -7 0 -50 -17 -95 -39
-45 -21 -134 -51 -197 -66 -114 -27 -147 -33 -290 -55 -41 -6 -98 -16 -126
-22 -33 -7 -57 -7 -68 -1 -16 9 -54 6 -161 -12 -22 -4 -44 -10 -50 -13 -14 -9
-274 -26 -332 -22 -10 1 -38 -1 -62 -4 -24 -3 -72 1 -105 9 -34 7 -101 19
-149 26 -98 14 -117 7 -122 -46 -7 -56 11 -80 78 -103 92 -32 306 -66 348 -55
10 3 37 -4 60 -16 37 -20 57 -22 202 -22 259 -1 515 14 567 33 32 11 91 18
200 21 132 3 162 7 204 26 52 23 220 53 396 71 58 6 204 26 325 46 121 19 249
34 285 34 44 0 83 7 120 22 32 12 73 20 99 19 25 -1 85 6 135 15 116 20 167
23 461 29 132 2 265 8 295 12 77 12 231 9 320 -5 56 -9 99 -10 169 -2 51 6 97
12 100 15 11 6 89 15 164 19 49 2 67 -1 67 -10 0 -7 -4 -16 -10 -19 -5 -3 -10
-17 -10 -30 0 -25 -52 -100 -105 -152 -18 -17 -36 -39 -39 -50 -3 -10 -17 -31
-32 -48 -58 -69 -134 -151 -209 -229 -92 -95 -123 -137 -185 -254 -12 -24 -33
-50 -46 -59 -13 -8 -24 -19 -24 -24 0 -4 -39 -48 -87 -97 -49 -49 -99 -106
-113 -126 -38 -55 -187 -209 -251 -258 -66 -51 -139 -116 -139 -124 0 -8 -197
-200 -265 -259 -33 -27 -76 -67 -97 -88 -20 -20 -49 -42 -63 -47 -15 -6 -24
-14 -20 -19 3 -6 -3 -14 -12 -20 -10 -6 -14 -11 -10 -11 21 -1 -153 -174 -228
-227 -33 -24 -82 -63 -110 -89 -27 -25 -60 -50 -72 -55 -13 -5 -23 -17 -23
-28 0 -11 -6 -24 -14 -28 -8 -4 -24 -25 -36 -45 -12 -21 -27 -38 -34 -38 -7 0
-71 -56 -142 -126 -71 -69 -146 -134 -166 -144 -20 -11 -41 -26 -45 -33 -4 -8
-18 -19 -31 -26 -12 -7 -34 -30 -47 -52 -28 -43 -151 -169 -167 -169 -15 0
-117 -110 -157 -170 -20 -30 -39 -57 -42 -60 -3 -3 -14 -19 -24 -37 -15 -26
-17 -39 -9 -70 14 -59 35 -54 117 31 47 48 92 84 126 100 29 13 68 39 85 58
48 49 101 85 191 129 98 48 161 87 199 122 35 33 137 90 191 107 21 7 60 24
86 36 26 13 51 24 55 24 22 0 124 56 124 67 0 7 24 24 53 38 28 13 59 29 67
34 8 6 45 25 83 42 37 18 67 36 67 41 0 4 9 8 20 8 11 0 25 9 32 20 7 11 20
20 29 20 9 0 27 8 40 18 13 10 42 24 64 30 22 7 72 29 111 50 63 33 211 106
344 171 25 12 59 31 75 42 60 41 186 119 191 119 18 0 179 86 224 120 30 23
64 46 75 51 11 5 34 18 51 28 17 10 51 29 75 42 60 33 169 110 169 121 0 4 15
15 33 22 86 38 125 59 164 89 115 89 153 117 161 117 5 0 26 15 48 34 21 18
55 41 74 51 19 10 45 26 58 36 13 10 29 16 37 13 12 -5 39 28 40 49 0 4 12 15
26 25 14 9 32 23 40 30 35 30 155 112 165 112 6 0 17 7 24 15 21 26 33 17 26
-20 -6 -29 -4 -34 9 -29 15 6 15 3 0 -32 -9 -22 -19 -45 -22 -51 -3 -7 -10
-10 -15 -7 -6 4 -5 -3 1 -15 9 -16 8 -27 -4 -50 -8 -17 -15 -39 -15 -49 0 -11
-9 -39 -19 -63 -11 -24 -21 -60 -24 -80 -2 -19 -9 -44 -14 -55 -5 -10 -8 -30
-7 -44 2 -14 -1 -34 -6 -45 -4 -11 -18 -68 -31 -127 -12 -60 -26 -108 -30
-108 -4 0 -8 -8 -8 -17 0 -31 -9 -70 -19 -90 -6 -11 -13 -30 -15 -44 -4 -24
-29 -89 -47 -121 -5 -9 -7 -25 -5 -37 3 -18 -5 -44 -45 -146 -7 -16 -13 -48
-15 -70 -2 -22 -12 -68 -24 -102 -11 -34 -23 -78 -27 -97 -3 -20 -12 -40 -20
-47 -8 -6 -14 -22 -14 -36 0 -13 -7 -40 -15 -60 -8 -19 -15 -50 -15 -67 0 -18
-4 -36 -9 -42 -5 -5 -12 -29 -15 -54 -8 -62 -15 -100 -26 -135 -5 -16 -14 -54
-20 -83 -5 -30 -23 -81 -39 -115 -25 -55 -52 -151 -54 -199 -1 -10 -5 -18 -9
-18 -4 0 -8 -8 -8 -19 0 -10 -16 -65 -35 -123 -19 -58 -36 -130 -39 -161 -6
-74 -38 -171 -86 -267 -10 -19 -37 -91 -61 -160 -23 -69 -49 -131 -56 -139
-36 -35 -108 -156 -105 -173 1 -5 -2 -8 -6 -8 -8 0 -36 -51 -32 -59 1 -2 -2
-7 -7 -10 -4 -3 -20 -28 -34 -56 -65 -127 -85 -161 -96 -168 -6 -4 -14 -21
-18 -37 -4 -17 -10 -30 -15 -30 -4 0 -13 -12 -19 -27 -6 -16 -22 -47 -36 -70
-13 -24 -22 -43 -19 -43 2 0 -7 -20 -22 -45 -23 -40 -26 -53 -20 -98 9 -65 19
-77 67 -77 33 0 41 4 55 33 9 17 31 48 49 67 104 112 125 136 125 141 0 4 34
32 76 63 50 38 87 76 111 114 20 31 54 77 77 101 23 24 48 51 56 60 20 21 75
110 112 180 16 30 40 65 53 77 14 13 25 27 25 33 0 5 6 16 13 23 7 7 26 33 41
58 29 48 66 102 91 135 9 11 20 38 26 60 6 22 28 58 49 80 21 22 58 80 84 128
51 99 116 196 131 197 24 2 137 163 189 268 50 103 77 140 167 231 14 14 42
51 62 82 20 31 46 64 57 74 11 10 20 24 20 31 0 7 3 14 8 16 12 5 82 105 82
117 0 6 22 42 50 81 27 39 50 74 50 79 0 5 3 11 8 13 4 2 20 23 36 46 17 24
49 57 73 73 32 22 47 42 60 79 10 28 21 50 25 50 5 0 8 15 8 34 0 39 22 97 44
116 9 7 16 18 16 24 0 6 10 22 21 36 64 79 149 230 149 265 0 7 7 18 15 25 8
7 15 18 15 26 0 7 6 19 14 26 7 8 21 29 31 47 9 18 38 56 65 83 43 44 50 48
68 37 12 -7 17 -19 14 -31 -2 -10 0 -18 4 -18 12 0 14 -54 3 -61 -5 -3 -2 -20
8 -39 9 -19 18 -55 21 -82 2 -26 8 -48 11 -48 4 0 7 -9 7 -19 0 -11 -4 -17 -8
-15 -12 8 -10 -10 3 -23 6 -6 13 -55 15 -110 4 -117 12 -181 24 -188 10 -6 23
-79 22 -123 -1 -25 2 -33 12 -29 10 4 16 -11 21 -56 10 -75 9 -70 17 -83 4 -6
12 -33 18 -60 7 -27 14 -58 17 -69 2 -11 4 -37 3 -57 0 -21 3 -38 8 -38 9 0
16 -27 28 -105 2 -16 9 -56 15 -87 6 -31 9 -68 5 -82 -3 -14 0 -40 8 -58 15
-35 72 -219 86 -278 15 -63 27 -154 29 -215 1 -33 9 -87 17 -120 23 -89 54
-297 59 -404 3 -51 8 -97 11 -102 3 -6 -2 -21 -11 -35 -14 -22 -15 -27 -2 -37
22 -18 45 -134 62 -307 8 -85 21 -188 28 -227 9 -44 10 -73 4 -73 -5 0 -6 -10
-2 -22 7 -24 8 -203 2 -276 -2 -23 0 -42 5 -42 5 0 5 -8 -1 -17 -12 -24 -13
-49 -12 -240 l1 -162 37 -10 c40 -11 88 4 115 37 17 20 38 89 38 124 0 13 5
29 10 34 6 6 12 32 14 60 2 27 13 85 25 129 12 44 25 91 27 105 3 13 9 29 13
35 5 5 11 26 13 45 18 127 41 257 49 271 7 15 17 96 24 219 2 25 10 93 19 152
9 58 15 123 15 145 0 21 2 88 5 148 3 61 8 205 10 320 2 116 8 222 14 236 6
14 9 76 6 145 -2 65 -3 128 -4 139 0 21 2 50 17 193 6 52 5 86 -1 92 -7 7 -6
10 1 10 6 0 11 10 11 23 0 36 12 169 19 207 3 19 7 85 8 147 1 68 6 117 13
126 7 8 16 54 22 103 14 132 27 212 37 226 4 7 8 27 9 43 1 40 36 129 60 156
10 12 18 23 16 25 -5 7 10 78 18 89 4 6 13 37 20 70 7 33 18 85 26 115 8 30
14 73 14 97 0 23 5 45 10 48 8 5 7 11 -1 21 -7 9 -8 14 -1 14 5 0 8 10 4 22
-3 14 -2 19 6 14 7 -4 12 -2 12 5 0 7 16 -4 35 -24 19 -20 35 -47 35 -58 0
-15 5 -19 15 -15 10 3 17 -3 21 -19 3 -14 10 -25 14 -25 5 0 13 -15 20 -34 6
-18 19 -41 30 -51 11 -10 22 -32 26 -49 7 -42 25 -63 54 -68 15 -2 31 -15 40
-32 8 -16 23 -39 33 -50 9 -12 23 -28 30 -37 39 -49 123 -144 129 -147 5 -2 8
-14 8 -27 0 -15 15 -39 37 -60 21 -20 49 -56 63 -81 29 -52 138 -212 160 -236
8 -9 28 -43 44 -75 15 -32 32 -65 37 -73 5 -8 13 -24 18 -35 5 -12 16 -26 24
-33 8 -7 28 -39 43 -70 16 -31 41 -73 56 -93 15 -20 28 -42 28 -48 0 -6 4 -11
8 -11 5 0 18 -17 30 -37 11 -21 37 -62 56 -92 19 -30 33 -58 30 -62 -3 -5 4
-14 16 -21 11 -7 20 -19 20 -26 0 -7 7 -15 15 -18 9 -4 31 -30 50 -59 19 -29
46 -64 60 -80 22 -23 94 -127 130 -187 6 -9 45 -65 88 -124 45 -64 75 -114 72
-124 -3 -9 4 -19 17 -25 12 -6 25 -17 29 -25 3 -8 13 -28 20 -45 15 -33 108
-187 118 -195 3 -3 13 -18 21 -35 7 -16 24 -43 36 -60 23 -33 79 -155 89 -197
4 -15 16 -30 26 -33 10 -4 19 -11 19 -16 0 -5 11 -27 25 -48 14 -21 35 -78 46
-127 12 -49 25 -98 30 -109 4 -11 11 -40 14 -65 4 -24 11 -52 16 -62 5 -10 8
-18 6 -18 -2 0 2 -35 10 -77 8 -43 19 -116 24 -163 12 -95 31 -144 64 -166 28
-18 46 -11 74 27 25 33 30 51 37 124 2 28 7 61 10 75 3 14 10 81 14 150 8 127
6 146 -36 345 -8 39 -14 94 -14 124 0 55 -7 83 -43 179 -10 28 -17 61 -14 71
3 11 -1 22 -7 24 -7 3 -19 31 -26 63 -17 72 -14 63 -29 99 -7 17 -17 70 -21
118 -5 49 -13 94 -18 100 -8 11 -29 78 -37 116 -2 9 -15 61 -30 116 -15 55
-28 117 -29 137 0 20 -7 43 -13 49 -7 7 -13 21 -13 30 0 10 -4 20 -9 23 -5 4
-12 25 -16 49 -4 23 -12 48 -17 54 -6 7 -8 22 -5 33 3 10 0 24 -7 29 -6 5 -13
22 -14 36 -1 15 -11 39 -22 55 -11 15 -20 34 -20 42 0 15 -22 77 -32 94 -4 6
-8 28 -9 50 -1 21 -5 44 -9 49 -3 6 -12 30 -19 55 -7 25 -17 53 -22 62 -5 10
-9 25 -9 33 0 8 -5 15 -11 15 -5 0 -8 4 -5 9 3 5 -3 29 -14 52 -11 24 -20 54
-20 66 0 12 -13 56 -30 98 -16 41 -29 79 -28 83 1 4 -6 24 -15 46 -9 21 -17
49 -17 62 0 12 -5 26 -11 29 -6 4 -8 13 -5 20 3 8 0 15 -6 17 -6 2 -19 53 -28
113 -10 61 -26 128 -36 150 -10 22 -17 45 -16 52 2 6 -2 14 -8 18 -5 3 -10 13
-10 21 0 12 -19 60 -52 130 -5 11 -11 31 -13 45 -2 13 -8 39 -13 57 -6 17 -9
32 -6 32 2 0 -3 14 -12 31 -9 18 -17 48 -18 68 -1 20 -10 51 -19 68 -10 18
-18 36 -18 40 -3 19 -19 52 -29 58 -5 3 -8 11 -5 16 4 5 -3 22 -14 38 -11 15
-18 30 -16 33 8 8 -25 141 -38 157 -21 24 -28 61 -12 61 8 0 17 -4 20 -10 3
-5 16 -10 28 -10 12 0 31 -7 41 -15 11 -8 30 -15 42 -15 28 0 74 -20 74 -32 0
-5 8 -8 18 -6 9 2 25 -4 36 -14 10 -9 31 -20 47 -23 15 -3 30 -12 32 -19 3 -7
27 -21 54 -31 26 -10 55 -23 63 -30 14 -11 144 -55 165 -55 6 0 21 -9 35 -20
14 -11 37 -20 52 -20 15 0 30 -4 33 -10 3 -5 14 -10 23 -10 9 0 28 -9 42 -20
14 -11 31 -20 38 -20 13 0 175 -73 202 -91 8 -5 23 -12 33 -15 9 -4 17 -10 17
-14 0 -4 30 -23 68 -41 37 -19 90 -49 119 -66 29 -18 57 -33 64 -33 27 0 239
-121 247 -142 2 -4 7 -8 12 -8 4 0 43 -24 86 -53 44 -29 106 -67 139 -84 160
-83 287 -157 305 -178 7 -8 19 -15 26 -15 8 0 14 -3 14 -8 0 -4 23 -25 51 -47
28 -22 72 -61 98 -86 26 -25 72 -59 102 -75 30 -16 56 -31 59 -34 9 -9 89 -60
95 -60 3 0 16 -9 28 -20 12 -12 34 -27 50 -35 31 -16 151 -111 206 -165 20
-19 52 -42 71 -51 19 -9 50 -31 67 -47 18 -17 41 -37 51 -44 27 -19 90 -105
106 -143 8 -18 24 -45 37 -59 13 -15 24 -33 24 -39 0 -26 57 -125 78 -135 65
-31 98 -21 115 35 12 40 7 76 -21 148 -8 22 -18 49 -23 60 -4 11 -6 28 -5 38
1 9 -3 17 -8 17 -6 0 -25 30 -43 67 -24 52 -54 90 -125 161 -51 51 -93 97 -93
103 0 5 -4 9 -10 9 -5 0 -10 6 -10 14 0 8 -22 44 -50 80 -27 36 -50 68 -50 72
0 4 -16 26 -35 50 -19 23 -35 45 -35 48 0 19 -156 146 -180 146 -6 0 -10 5
-10 10 0 6 -5 10 -11 10 -6 0 -23 12 -38 28 -15 15 -50 48 -79 75 -29 26 -52
52 -52 57 0 6 -6 10 -13 10 -7 0 -21 16 -30 35 -15 31 -38 51 -165 143 -13 9
-33 33 -45 52 -11 19 -24 37 -27 40 -4 3 -35 47 -71 99 -35 52 -72 99 -81 105
-19 12 -24 36 -8 36 6 0 10 4 10 9 0 5 -14 8 -32 7 -25 -1 -33 4 -36 19 -5 24
-118 135 -138 135 -8 0 -14 3 -14 8 0 4 -27 36 -60 71 -33 35 -60 70 -60 77 0
7 -9 18 -20 24 -11 6 -20 17 -20 25 0 8 -7 15 -15 15 -8 0 -15 5 -15 11 0 12
-153 165 -206 206 -16 13 -35 23 -41 23 -7 0 -13 4 -13 10 0 14 -236 250 -250
250 -6 0 -9 4 -5 9 3 5 -4 16 -15 24 -11 8 -38 31 -60 51 -21 20 -43 36 -48
36 -5 0 -20 13 -33 28 -13 16 -36 37 -51 46 -15 10 -37 32 -47 50 -11 18 -36
38 -55 46 -20 7 -38 22 -42 32 -6 21 -91 108 -105 108 -5 0 -26 16 -46 35 -20
19 -41 35 -45 35 -4 0 -33 32 -64 71 -72 88 -68 101 32 111 164 17 261 19 324
8 36 -7 90 -16 120 -20 30 -4 82 -13 115 -18 60 -11 182 -24 220 -24 60 1 489
0 540 0 33 -1 100 1 148 3 49 3 91 1 93 -3 3 -5 17 -5 32 -1 15 3 33 6 42 5
27 -3 264 -2 335 2 39 2 108 -2 155 -9 49 -7 132 -10 195 -7 168 7 172 7 290
-6 61 -6 200 -14 310 -17 110 -3 218 -10 240 -14 22 -5 73 -16 113 -25 40 -9
85 -16 100 -16 15 0 65 -21 112 -46 47 -25 123 -59 170 -74 214 -72 265 -97
321 -153 l28 -28 21 33 c48 78 4 162 -110 213 -25 11 -47 22 -50 26 -3 3 -48
27 -100 53 -97 47 -182 97 -204 119 -25 25 -158 82 -221 96 -69 14 -234 68
-259 85 -31 20 -109 36 -222 45 -56 5 -110 13 -120 19 -11 5 -39 13 -64 17
-25 4 -63 13 -85 20 -22 7 -60 18 -85 25 -25 7 -60 19 -79 27 -31 14 -66 23
-266 69 -107 24 -206 55 -240 75 -16 10 -64 24 -105 32 -123 24 -300 75 -328
94 -15 9 -52 26 -82 36 -30 10 -104 42 -165 71 -60 30 -141 66 -180 81 -38 15
-77 31 -85 36 -8 5 -22 12 -30 15 -8 3 -37 16 -65 29 -60 27 -87 38 -100 40
-24 3 -72 18 -100 30 -16 7 -48 17 -70 21 -22 4 -65 18 -95 31 -30 14 -73 33
-95 43 -22 10 -48 20 -58 24 -9 3 -49 26 -87 51 -39 25 -96 55 -127 67 -53 20
-83 39 -83 51 0 18 187 100 268 117 42 9 169 68 262 122 88 52 138 76 170 83
30 7 163 71 195 95 6 4 44 17 85 30 41 12 98 33 125 45 28 13 70 29 95 35 61
16 151 60 157 77 3 7 15 13 27 13 11 0 32 9 46 20 14 11 33 20 42 20 9 0 19 4
23 9 3 5 31 15 62 21 31 7 64 16 72 20 9 4 62 27 119 50 56 23 102 46 102 50
0 5 14 12 32 15 17 4 65 23 105 41 40 19 84 34 97 34 14 0 27 4 30 8 2 4 18 9
35 10 17 1 61 14 98 28 38 14 110 36 161 49 52 14 100 29 108 36 8 6 44 18 81
26 139 28 159 34 200 51 24 9 43 20 43 25 0 4 8 7 18 7 10 0 27 6 38 14 19 14
63 29 209 72 65 19 182 71 191 85 3 5 14 9 24 9 10 0 20 3 22 8 6 13 88 53 97
48 8 -6 48 8 118 40 17 8 36 14 41 14 6 0 19 11 30 25 11 14 23 25 27 25 4 0
20 11 37 25 16 14 41 25 55 25 14 0 46 12 70 28 45 27 173 148 173 163 0 4 23
34 50 65 28 31 50 60 50 64 0 11 -48 30 -76 30 -13 0 -45 -11 -72 -24 -26 -13
-64 -31 -84 -40 -20 -9 -40 -21 -43 -26 -3 -6 -12 -10 -20 -10 -7 0 -43 -14
-79 -30 -127 -59 -303 -109 -421 -120 -106 -10 -183 -28 -235 -56 -14 -7 -47
-18 -75 -24 -63 -13 -63 -13 -108 -33 -37 -16 -70 -24 -137 -32 -19 -2 -37 -5
-40 -6 -3 -1 -30 -2 -60 -3 -57 -1 -311 -57 -367 -82 -18 -7 -38 -11 -45 -9
-7 3 -36 1 -63 -5 -28 -6 -66 -12 -85 -14 -19 -2 -46 -8 -60 -13 -14 -6 -56
-13 -95 -17 -38 -3 -83 -8 -100 -11 -50 -7 -316 -25 -440 -30 -38 -1 -70 -3
-70 -4 0 -15 -384 -22 -403 -8 -10 8 -15 5 -19 -11 -6 -25 25 -22 -318 -24
-99 -1 -232 0 -295 1 -63 1 -122 0 -130 -2 -8 -2 -26 -7 -40 -10 -53 -14 -99
-14 -104 -1 -3 8 1 14 9 14 8 0 12 6 9 14 -3 8 12 30 35 51 22 21 50 56 61 78
12 22 36 59 55 81 18 23 45 66 61 96 25 49 60 106 74 120 3 3 25 31 49 63 24
31 47 57 52 57 5 0 12 14 17 32 4 18 15 32 25 34 27 4 45 22 58 58 6 18 21 37
31 42 19 9 32 30 73 119 11 22 29 54 42 72 13 17 23 35 23 40 0 4 29 40 65 78
35 39 65 75 65 82 0 6 4 13 8 15 19 8 162 188 188 237 16 30 61 88 99 130 39
42 93 105 120 141 28 36 54 68 59 71 8 6 28 37 71 109 17 28 164 202 199 235
6 6 40 42 76 80 36 39 77 77 91 85 48 27 229 194 272 252 28 36 128 118 145
118 5 0 18 10 29 23 43 47 85 75 189 128 85 43 111 61 125 88 10 19 33 40 51
48 18 8 41 19 50 24 10 5 24 9 32 9 8 0 17 7 20 16 3 8 14 14 23 12 10 -1 39
6 65 17 43 18 47 23 56 70 10 46 9 51 -11 67 -26 20 -57 15 -109 -18 -21 -13
-47 -24 -58 -24 -12 0 -35 -7 -53 -16 -31 -17 -82 -31 -205 -59 -85 -19 -178
-52 -228 -81 -22 -13 -50 -24 -62 -24 -11 0 -47 -16 -79 -35 -32 -19 -68 -35
-81 -35 -23 0 -101 -51 -115 -76 -4 -8 -22 -21 -40 -30 -18 -9 -48 -33 -67
-53 -61 -62 -150 -141 -160 -141 -13 0 -170 -121 -170 -132 0 -4 -5 -8 -11 -8
-13 0 -56 -34 -110 -85 -21 -19 -39 -35 -42 -35 -3 0 -19 -12 -35 -27 -62 -58
-87 -79 -95 -84 -5 -2 -27 -22 -50 -44 -40 -38 -136 -108 -178 -130 -10 -5
-19 -14 -19 -20 0 -11 -59 -53 -100 -71 -14 -6 -41 -26 -60 -45 -19 -19 -54
-43 -77 -54 -24 -11 -43 -23 -43 -27 0 -9 -106 -88 -118 -88 -5 0 -29 -20 -53
-44 -23 -25 -46 -43 -50 -40 -4 2 -29 -16 -55 -41 -26 -25 -59 -53 -73 -61
-103 -58 -242 -153 -311 -211 -20 -18 -42 -33 -49 -33 -6 0 -28 -16 -50 -35
-21 -19 -44 -35 -50 -35 -6 0 -11 -6 -11 -13 0 -19 -102 -81 -116 -69 -4 4 -4
1 0 -6 5 -8 -3 -16 -21 -24 -15 -6 -31 -11 -35 -10 -4 1 -15 -9 -25 -21 -18
-23 -84 -73 -93 -71 -13 3 -30 -9 -30 -22 0 -17 -37 -37 -53 -28 -6 4 -9 3 -4
-1 10 -11 -81 -55 -99 -48 -8 3 -24 -1 -37 -9 -14 -10 -31 -12 -49 -7 -16 4
-28 4 -28 1 0 -4 -4 0 -10 8 -9 15 16 70 34 70 5 0 7 3 3 6 -3 4 5 26 18 51
26 46 34 118 13 125 -9 3 -7 21 5 69 33 122 46 184 47 219 0 19 7 46 15 60 8
14 14 40 15 58 0 17 13 71 30 118 16 47 32 109 36 137 5 45 34 162 51 207 3 8
7 20 8 25 2 6 12 46 24 89 12 44 21 90 21 102 0 13 5 35 12 51 6 15 11 31 10
34 -4 21 -1 132 4 172 3 27 24 93 45 148 35 89 101 363 100 413 0 11 11 44 24
73 14 29 25 56 25 59 0 4 12 25 28 48 37 56 82 158 89 204 3 20 9 42 14 47 4
6 10 22 12 35 2 14 6 32 9 40 3 8 11 41 18 73 6 31 16 57 21 57 5 0 9 7 9 15
0 8 4 23 9 33 21 38 71 153 71 162 0 6 5 10 10 10 6 0 10 7 10 15 0 8 9 19 19
25 13 6 17 17 14 30 -3 10 4 50 15 87 11 37 20 91 21 120 1 29 14 92 30 140
16 48 37 115 46 148 10 33 23 74 31 90 7 17 15 42 18 55 2 14 12 49 21 78 15
51 19 133 12 237 -4 42 -8 51 -29 59 -14 5 -41 6 -61 2 -43 -8 -80 -62 -122
-176 -14 -41 -32 -88 -38 -105 -7 -16 -12 -32 -12 -35 -3 -20 -18 -50 -26 -50
-5 0 -9 -8 -9 -19 0 -10 -9 -30 -20 -44 -11 -14 -20 -35 -20 -46 0 -12 -5 -21
-11 -21 -5 0 -8 -3 -5 -8 7 -11 -31 -88 -41 -82 -4 3 -9 -10 -11 -27 -2 -18
-7 -33 -13 -33 -5 0 -9 -9 -9 -20 0 -11 -4 -20 -9 -20 -5 0 -8 -8 -7 -17 3
-21 -22 -73 -35 -73 -6 0 -8 -4 -5 -8 3 -5 -9 -26 -27 -47 -18 -22 -25 -36
-17 -31 8 4 4 -2 -9 -13 -13 -12 -21 -21 -17 -21 5 0 -33 -62 -53 -86 -6 -7
-8 -14 -5 -17 3 -2 -6 -25 -19 -51 -13 -25 -26 -44 -29 -41 -3 3 -10 -14 -16
-38 -6 -24 -20 -52 -31 -61 -11 -10 -18 -23 -15 -27 3 -5 1 -9 -5 -9 -8 0 -43
-61 -105 -187 -6 -13 -14 -23 -18 -23 -5 0 -8 -9 -8 -19 0 -11 -11 -32 -23
-48 -13 -15 -36 -49 -51 -75 -16 -27 -32 -48 -37 -48 -5 0 -9 -5 -9 -11 0 -9
-56 -96 -71 -109 -3 -3 -20 -32 -38 -65 -29 -52 -51 -82 -116 -157 -8 -10 -15
-20 -15 -24 0 -3 -13 -19 -30 -37 -16 -18 -30 -36 -30 -40 0 -5 -16 -28 -35
-51 -19 -24 -35 -47 -35 -52 0 -5 -11 -21 -25 -36 -14 -15 -25 -30 -25 -33 0
-3 -16 -21 -35 -39 -19 -19 -35 -39 -35 -45 0 -7 -7 -14 -15 -17 -8 -4 -15
-11 -15 -18 0 -6 -9 -17 -20 -24 -11 -7 -20 -17 -20 -23 0 -6 -31 -43 -70 -82
-38 -39 -70 -76 -70 -83 0 -7 -13 -26 -29 -43 -32 -34 -71 -96 -71 -113 0 -6
-18 -37 -40 -70 -22 -33 -40 -64 -40 -70 0 -10 -16 -31 -42 -56 -10 -9 -18
-22 -18 -29 0 -7 -4 -13 -10 -13 -5 0 -10 -7 -10 -16 0 -8 -4 -13 -9 -9 -5 3
-12 -3 -15 -12 -3 -10 -16 -29 -28 -43 -49 -53 -88 -109 -88 -123 0 -9 -4 -19
-10 -22 -5 -3 -16 -20 -25 -38 -16 -34 -95 -128 -95 -113 0 5 -6 3 -14 -4 -12
-9 -17 -4 -26 32 -22 80 -41 173 -46 219 -2 26 -11 62 -19 81 -8 20 -12 38 -9
41 7 7 -29 115 -56 168 -13 25 -20 58 -20 97 0 33 -6 82 -14 108 -8 27 -21 74
-30 106 -9 31 -16 69 -15 85 0 15 -4 57 -10 93 -5 36 -12 88 -15 115 -3 28
-18 80 -34 115 -30 67 -54 153 -57 205 -1 17 -14 86 -28 155 -30 146 -50 288
-46 321 2 13 0 29 -4 35 -4 7 -11 67 -17 135 -6 68 -15 138 -20 154 -10 36
-22 107 -25 155 -20 316 -24 1072 -6 1094 6 8 8 16 3 18 -6 1 -12 37 -15 78
-3 41 -9 89 -12 105 -4 17 0 62 7 100 8 46 12 129 10 238 l-3 167 -27 -1 c-15
0 -33 -3 -40 -6z m203 -5360 c98 -4 159 -10 177 -19 15 -8 46 -14 70 -14 61 0
105 -14 168 -55 30 -19 62 -35 72 -35 10 0 45 -13 78 -30 33 -16 66 -30 73
-30 8 0 22 -9 31 -19 10 -11 29 -24 44 -29 123 -45 147 -58 188 -100 24 -25
44 -49 44 -53 0 -5 27 -36 61 -71 33 -35 63 -75 66 -90 3 -16 12 -28 19 -28 8
0 24 -17 37 -38 14 -20 53 -64 89 -97 35 -33 71 -76 78 -95 7 -19 26 -62 42
-96 16 -33 26 -68 23 -76 -4 -9 4 -21 19 -32 15 -9 26 -25 26 -36 0 -10 6 -25
13 -32 15 -15 50 -140 67 -243 6 -38 16 -87 21 -108 10 -40 4 -77 -15 -89 -8
-6 -7 -11 3 -17 11 -7 12 -20 2 -72 -34 -196 -51 -309 -51 -339 0 -19 -7 -48
-16 -65 -9 -16 -18 -48 -20 -70 -7 -56 -42 -160 -63 -187 -10 -13 -24 -40 -32
-60 -7 -21 -17 -38 -21 -38 -4 0 -8 -6 -8 -14 0 -8 -18 -38 -40 -67 -22 -30
-40 -57 -40 -61 0 -4 -33 -42 -72 -84 -40 -42 -72 -80 -71 -84 2 -5 -28 -35
-65 -67 -37 -32 -99 -91 -139 -130 -39 -40 -76 -73 -81 -73 -5 0 -12 -13 -15
-30 -4 -16 -11 -30 -17 -30 -6 0 -40 -22 -76 -50 -36 -27 -70 -50 -75 -50 -6
0 -26 -12 -45 -26 -19 -15 -37 -24 -40 -21 -3 2 -17 -6 -31 -19 -14 -13 -28
-23 -32 -22 -3 0 -9 -1 -13 -2 -5 -1 -11 -3 -15 -4 -5 -1 -28 -11 -53 -23 -52
-25 -128 -51 -150 -50 -8 0 -39 -3 -67 -7 -38 -6 -53 -5 -53 4 0 6 -8 9 -17 6
-18 -6 -176 -15 -310 -19 -40 -1 -73 -6 -73 -10 0 -5 -6 -7 -12 -4 -7 2 -24 0
-37 -5 -14 -5 -32 -6 -40 -2 -9 3 -38 8 -65 10 -27 2 -54 11 -60 19 -20 26
-88 75 -97 69 -5 -2 -21 1 -36 9 -15 8 -50 17 -78 20 -27 3 -72 15 -98 26 -27
12 -59 21 -71 21 -26 0 -137 57 -149 77 -10 16 -163 133 -175 133 -13 0 -91
78 -84 85 3 3 0 5 -6 5 -35 0 -198 171 -234 245 -35 73 -65 115 -123 176 -25
26 -45 54 -45 64 0 9 -21 44 -46 77 -49 65 -78 131 -70 161 2 10 -2 37 -10 59
-8 22 -14 64 -14 92 0 28 -7 87 -15 131 -16 80 -13 162 7 215 19 50 55 238 52
271 -2 19 -4 41 -5 49 -4 50 45 179 87 228 17 21 29 42 27 49 -5 13 33 75 64
108 11 12 24 33 29 48 16 46 231 277 259 277 6 0 22 12 36 26 22 24 117 100
202 162 18 13 44 34 58 46 14 13 52 33 85 45 32 12 85 38 117 57 32 19 61 34
65 34 8 0 143 69 157 80 23 18 105 60 118 60 15 0 103 32 153 56 34 17 158 34
189 27 11 -3 88 -7 170 -10z"/>
<path d="M7564 9121 c-17 -10 -36 -34 -43 -52 -7 -19 -23 -61 -36 -94 -13 -33
-27 -76 -31 -95 -8 -43 -55 -143 -89 -189 -14 -19 -25 -44 -25 -57 0 -14 -10
-30 -25 -40 -22 -15 -34 -15 -108 -4 -45 7 -109 22 -142 33 -124 41 -343 59
-395 32 -35 -18 -69 -82 -70 -131 0 -28 45 -114 68 -128 6 -3 13 -25 17 -49 8
-50 44 -157 58 -174 5 -7 7 -13 3 -13 -3 0 3 -17 13 -37 56 -114 55 -108 10
-190 -90 -160 -112 -194 -131 -204 -11 -6 -53 -42 -91 -80 -39 -38 -74 -69
-79 -69 -15 0 -48 -64 -48 -93 0 -61 54 -117 113 -117 14 0 44 -7 67 -15 23
-8 62 -15 86 -15 23 0 45 -4 48 -8 5 -8 31 -10 254 -19 l112 -4 0 -27 c0 -15
5 -144 11 -287 12 -273 18 -303 62 -327 33 -18 119 -27 142 -15 37 19 97 71
124 106 14 20 60 67 101 105 41 37 105 97 141 133 l66 64 50 -40 c56 -44 66
-49 233 -133 63 -32 122 -58 131 -58 9 0 47 -20 85 -45 40 -27 80 -45 97 -45
40 0 84 26 102 60 19 36 19 64 0 115 -8 22 -14 59 -15 83 0 24 -5 53 -12 65
-7 12 -16 47 -20 77 -10 73 -23 142 -42 215 -21 82 -21 85 17 85 32 0 135 34
193 62 16 8 65 21 109 28 91 14 116 25 164 75 19 19 43 37 52 40 9 3 29 24 44
47 23 34 26 49 22 86 -6 54 -34 94 -73 105 -53 16 -153 71 -188 105 -19 18
-82 55 -140 83 l-105 51 26 52 c14 28 36 64 49 79 13 16 27 41 30 55 4 15 23
59 44 97 20 39 40 90 44 115 4 27 23 73 46 110 43 70 49 104 25 150 -26 51
-84 71 -149 51 -91 -28 -169 -44 -236 -48 -90 -5 -146 -23 -190 -63 -19 -17
-39 -30 -46 -30 -7 0 -14 -5 -16 -12 -4 -12 -40 41 -69 102 -9 19 -34 53 -55
75 -22 23 -46 55 -53 73 -8 18 -27 42 -42 53 -16 11 -29 27 -29 35 0 90 -176
160 -266 105z"/>
<path d="M8865 13349 c-77 -11 -155 -37 -191 -61 -33 -23 -44 -59 -44 -144 0
-19 -4 -34 -9 -34 -13 0 9 -92 30 -121 28 -40 88 -60 157 -53 69 7 107 31 181
114 60 67 81 102 81 134 0 30 -66 125 -94 136 -13 5 -26 16 -29 24 -7 17 -7
17 -82 5z"/>
<path d="M6210 13253 c-8 -3 -17 -9 -20 -12 -3 -4 -28 -23 -56 -44 -84 -61
-110 -122 -89 -214 14 -60 79 -144 106 -137 9 3 20 -5 27 -20 29 -64 131 -70
248 -15 65 30 81 51 89 120 3 19 8 48 11 64 11 46 6 92 -12 127 -21 42 -79 97
-121 114 -34 15 -158 26 -183 17z"/>
<path d="M10919 12249 c-23 -11 -46 -19 -53 -19 -18 0 -127 -57 -150 -79 -39
-37 -49 -53 -57 -97 -10 -55 -4 -71 35 -91 17 -8 50 -35 72 -58 l42 -43 67 14
c37 8 72 17 79 21 14 9 21 11 81 22 27 5 51 14 53 20 2 7 14 16 27 21 25 10
42 69 36 125 -4 38 -38 115 -51 115 -6 0 -10 7 -10 15 0 8 -13 21 -29 29 -45
24 -96 25 -142 5z"/>
<path d="M3905 12084 c-22 -7 -54 -13 -71 -13 -33 -1 -106 -44 -140 -82 -43
-49 -55 -121 -29 -182 24 -57 106 -107 175 -107 14 0 45 -14 68 -31 56 -41 99
-47 143 -20 19 11 44 21 57 21 17 0 26 10 38 41 11 26 30 49 55 65 41 26 50
54 26 83 -8 9 -20 39 -27 66 -14 51 -63 108 -105 121 -11 4 -27 12 -35 19 -27
22 -111 32 -155 19z"/>
<path d="M12355 10387 c-17 -7 -44 -22 -60 -35 -15 -12 -38 -25 -50 -28 -12
-3 -29 -20 -38 -37 -41 -84 -48 -100 -54 -142 -8 -63 12 -92 73 -101 58 -8
141 -38 164 -59 28 -25 103 -19 169 15 l59 29 12 66 c7 36 9 84 6 108 -3 23
-2 56 3 74 8 28 6 34 -14 47 -13 9 -26 24 -30 35 -4 13 -19 21 -48 26 -82 12
-162 13 -192 2z"/>
<path d="M2645 10259 c-22 -5 -66 -9 -97 -10 -32 -2 -58 -6 -58 -11 0 -4 -9
-8 -20 -8 -24 0 -70 -20 -70 -31 0 -4 -8 -10 -18 -13 -14 -5 -56 -97 -57 -126
0 -3 -4 -11 -9 -18 -4 -7 -8 -44 -9 -83 0 -38 -4 -72 -9 -75 -4 -3 -4 -13 1
-22 5 -9 15 -32 21 -49 19 -52 101 -68 175 -34 22 10 64 24 93 31 29 6 58 17
65 24 7 6 26 18 42 26 41 21 64 74 70 161 3 40 8 81 10 90 6 19 -59 145 -78
151 -7 3 -30 1 -52 -3z"/>
<path d="M12947 8092 c-26 -10 -77 -67 -83 -92 0 -3 -10 -27 -22 -53 -52 -116
0 -275 95 -290 37 -6 59 1 210 75 47 23 120 91 133 125 12 29 4 96 -16 135
-37 74 -61 96 -118 108 -65 13 -155 10 -199 -8z"/>
<path d="M1915 7746 c-102 -39 -109 -43 -155 -90 -71 -72 -78 -83 -85 -118
-10 -53 23 -115 96 -182 35 -32 79 -65 96 -74 31 -15 35 -14 74 7 31 18 51 22
80 18 30 -4 39 -2 39 9 0 8 8 17 18 20 9 4 41 17 70 31 49 23 52 27 52 61 0
20 8 51 18 67 17 28 18 32 3 65 -9 20 -44 63 -78 97 -35 34 -63 66 -63 71 0
11 -72 43 -93 41 -6 -1 -39 -11 -72 -23z"/>
<path d="M12630 5623 c-30 -14 -77 -37 -105 -51 -83 -41 -120 -98 -112 -170 9
-80 69 -132 155 -134 26 -1 63 6 80 15 20 10 45 14 66 10 94 -15 149 48 149
170 1 62 -2 70 -29 97 -16 16 -38 39 -49 50 -43 47 -81 50 -155 13z"/>
<path d="M2595 5373 c-106 -13 -125 -22 -183 -83 -110 -114 -127 -146 -116
-213 9 -55 27 -86 86 -149 95 -101 200 -105 332 -14 44 30 59 48 80 97 14 33
26 69 26 80 0 10 5 38 11 62 10 36 9 48 -4 77 -25 51 -97 124 -136 138 -34 12
-40 12 -96 5z"/>
<path d="M11092 3609 c-92 -12 -122 -46 -122 -140 0 -29 -4 -49 -11 -49 -8 0
-8 -4 -2 -12 5 -7 7 -24 3 -38 -10 -41 9 -102 43 -138 26 -27 37 -31 60 -26
15 3 50 0 77 -7 60 -15 121 1 145 38 9 12 21 23 27 23 36 0 84 35 104 76 11
24 17 45 13 46 -4 2 -10 26 -13 53 -7 56 -24 114 -38 132 -6 7 -5 14 2 18 6 4
9 12 7 18 -4 12 -211 17 -295 6z"/>
<path d="M4225 3395 c-79 -19 -172 -80 -212 -141 -31 -46 -34 -58 -32 -113 2
-54 6 -66 37 -101 50 -59 88 -72 222 -75 177 -4 221 15 235 105 4 24 14 50 22
55 21 15 21 120 1 166 -9 21 -34 48 -60 66 -70 47 -130 58 -213 38z"/>
<path d="M8940 2535 c-25 -13 -52 -24 -60 -25 -32 0 -157 -69 -183 -99 -47
-56 -30 -139 44 -221 17 -19 41 -46 53 -60 26 -31 108 -80 134 -80 33 0 91 29
106 53 86 137 147 314 122 352 -15 23 -47 40 -89 50 -16 3 -40 17 -53 30 -14
14 -26 25 -27 25 -1 -1 -22 -12 -47 -25z"/>
<path d="M6365 2491 c-47 -22 -179 -145 -193 -181 -5 -14 -6 -46 -3 -71 4 -26
6 -53 4 -60 -1 -8 -5 -26 -9 -41 -5 -20 -1 -29 16 -38 12 -6 31 -32 42 -57
l20 -46 82 8 c44 5 99 9 121 9 22 1 56 11 75 24 19 12 42 22 50 22 28 1 105
84 94 101 -3 5 -12 47 -20 95 -16 94 -38 136 -102 197 -38 35 -86 58 -122 56
-8 0 -33 -8 -55 -18z"/>
</g>
</svg>
