<?xml version="1.0" standalone="no"?>
<!DOCTYPE svg PUBLIC "-//W3C//DTD SVG 20010904//EN"
 "http://www.w3.org/TR/2001/REC-SVG-20010904/DTD/svg10.dtd">
<svg version="1.0" xmlns="http://www.w3.org/2000/svg"
 width="2344.000000pt" height="1343.000000pt" viewBox="0 0 2344.000000 1343.000000"
 preserveAspectRatio="xMidYMid meet">
<metadata>
Created by potrace 1.13, written by Peter Selinger 2001-2015
</metadata>
<g transform="translate(0.000000,1343.000000) scale(0.100000,-0.100000)"
fill="#000000" stroke="none">
<path d="M11469 12620 c-19 -10 -42 -26 -50 -36 -19 -23 -18 -154 2 -269 13
-70 14 -109 7 -175 -10 -92 -11 -337 -1 -353 3 -5 1 -12 -6 -16 -6 -4 -12 -31
-14 -61 -7 -93 -7 -93 -106 -84 -47 4 -106 7 -131 6 -25 -1 -99 6 -165 15 -66
9 -131 17 -145 18 -14 1 -37 7 -52 15 -34 16 -89 2 -130 -34 -25 -22 -26 -27
-16 -60 6 -20 19 -44 28 -54 28 -30 40 -143 26 -241 -5 -31 -3 -47 6 -53 10
-6 10 -8 1 -8 -9 0 -13 -16 -13 -44 0 -25 -4 -56 -10 -70 -10 -28 -12 -52 -10
-165 1 -70 3 -76 34 -107 36 -36 94 -53 131 -36 17 8 28 7 44 -5 16 -11 34
-13 64 -9 23 4 54 8 69 10 15 1 33 7 40 13 22 18 49 22 184 27 155 6 160 3
161 -88 0 -36 5 -61 13 -66 8 -5 8 -9 2 -11 -7 -3 -13 -72 -17 -179 -4 -96 -9
-177 -11 -179 -2 -2 0 -9 5 -15 8 -10 16 -77 11 -101 -1 -5 -3 -34 -3 -64 -2
-50 -4 -56 -35 -73 -19 -10 -50 -18 -70 -18 -82 1 -430 -10 -472 -15 -25 -2
-90 -4 -145 -4 -55 0 -109 0 -120 0 -11 -1 -81 -3 -155 -5 -74 -3 -164 -9
-200 -15 -36 -6 -153 -13 -260 -15 -107 -3 -205 -7 -218 -10 -13 -3 -47 -1
-75 5 -34 6 -104 5 -210 -2 -117 -8 -178 -9 -230 0 -40 6 -128 12 -197 13
-140 3 -152 -1 -197 -67 -22 -33 -24 -44 -18 -89 12 -87 14 -196 4 -196 -5 0
-9 -7 -9 -15 0 -8 -8 -15 -17 -16 -14 0 -13 -3 5 -11 26 -13 28 -23 7 -32 -16
-6 -21 -46 -7 -46 10 0 8 -139 -3 -208 -3 -23 -12 -63 -20 -90 -20 -64 -19
-99 5 -132 20 -28 72 -52 107 -50 10 1 48 2 85 3 43 2 73 8 85 18 39 34 218
73 383 84 58 4 110 11 115 15 6 5 20 9 30 8 36 -2 149 13 164 22 9 4 43 11 76
15 33 4 67 11 76 16 9 4 45 11 80 15 35 3 93 12 128 20 36 7 68 11 72 8 4 -2
10 0 14 6 3 5 16 10 28 10 12 0 69 7 127 15 58 8 137 19 175 24 69 9 297 20
525 26 63 2 159 4 213 6 149 4 141 23 138 -313 -1 -150 -2 -307 -2 -348 1
-133 0 -284 -2 -338 -1 -28 1 -52 4 -52 3 0 5 -82 6 -182 0 -229 9 -481 18
-530 6 -27 4 -38 -4 -38 -12 0 -10 -55 4 -145 16 -98 23 -293 13 -317 -5 -9
-4 -19 1 -22 5 -3 8 -20 7 -37 -1 -16 1 -32 5 -35 5 -2 8 -40 7 -84 0 -43 3
-83 6 -88 3 -6 2 -38 -2 -71 -5 -34 -5 -64 -1 -67 5 -3 8 -42 7 -87 0 -45 0
-129 0 -187 0 -58 1 -159 1 -225 1 -66 -5 -196 -12 -290 -14 -176 -16 -500 -4
-570 4 -22 7 -53 7 -70 3 -186 3 -249 2 -365 -1 -161 -8 -240 -24 -275 -12
-27 -55 -45 -67 -28 -3 6 -17 13 -31 17 -28 8 -72 28 -80 36 -17 18 -142 60
-178 60 -12 0 -41 17 -65 38 -46 42 -99 67 -122 59 -8 -4 -17 -2 -20 3 -8 13
-72 13 -80 0 -3 -5 -15 -10 -25 -10 -10 0 -21 -3 -24 -8 -12 -20 -16 -99 -7
-145 19 -94 22 -121 26 -226 2 -57 0 -112 -5 -121 -5 -9 -12 -52 -16 -96 -5
-54 -13 -88 -27 -108 -12 -17 -16 -31 -10 -35 5 -3 13 -19 17 -34 10 -41 63
-87 103 -89 18 -1 45 -2 61 -3 15 -1 59 -16 97 -33 39 -17 84 -34 100 -38 17
-4 41 -12 55 -19 14 -7 55 -25 93 -40 37 -15 67 -31 67 -36 0 -5 11 -9 24 -9
14 0 36 -10 50 -22 23 -20 26 -31 26 -93 1 -192 -4 -276 -21 -359 -11 -55 -15
-93 -9 -96 5 -3 9 -33 9 -66 -1 -32 2 -113 6 -179 7 -113 7 -154 4 -365 -1
-47 0 -175 1 -285 2 -232 -7 -440 -20 -465 -5 -10 -13 -49 -16 -86 -4 -38 -10
-76 -14 -84 -10 -18 -29 -117 -36 -180 -17 -164 -24 -213 -42 -275 -14 -47
-18 -75 -11 -86 5 -10 9 -28 9 -40 0 -29 39 -87 64 -95 11 -4 42 -6 69 -5 27
0 61 -5 75 -13 40 -20 93 -28 108 -16 9 8 22 7 47 -4 19 -8 71 -22 114 -31 43
-9 89 -20 103 -25 14 -4 45 -14 70 -21 25 -7 68 -23 95 -36 28 -13 58 -23 69
-23 10 0 36 -16 57 -35 22 -19 47 -35 58 -35 10 0 31 -10 46 -22 18 -14 47
-23 80 -26 50 -4 53 -3 82 33 34 41 34 54 -4 119 -12 23 -23 48 -23 57 0 9 -6
22 -14 28 -8 6 -15 41 -19 85 -3 40 -10 82 -15 92 -19 38 -31 91 -37 166 -3
43 -10 90 -16 105 -6 16 -13 118 -16 228 -5 255 -12 867 -11 920 2 42 0 490
-2 610 0 39 1 79 4 90 2 11 5 46 5 78 1 49 4 57 20 57 11 0 23 -4 26 -10 3 -5
36 -24 73 -42 37 -17 78 -45 92 -61 23 -28 129 -87 155 -87 6 0 20 -9 32 -19
11 -10 34 -26 51 -35 18 -9 39 -28 48 -42 22 -33 96 -75 136 -78 22 -2 41 6
62 25 27 24 30 33 27 71 -14 194 1 506 30 591 15 44 17 62 9 67 -7 4 -11 11
-11 16 1 19 -39 52 -70 59 -18 4 -48 16 -66 26 -19 11 -46 19 -61 19 -15 0
-48 11 -72 24 -97 53 -126 66 -151 66 -15 0 -37 8 -50 18 -30 23 -93 56 -139
73 -19 7 -53 25 -76 40 l-41 28 4 73 c3 40 8 77 13 83 8 11 -1 103 -14 123 -4
7 -4 46 -1 87 6 57 11 75 22 75 13 0 13 3 3 15 -9 11 -10 33 -5 78 13 104 13
289 0 352 -12 56 -12 72 0 135 6 29 17 110 17 125 1 13 -12 182 -16 215 -1 14
3 66 9 115 7 50 10 94 7 99 -3 6 -6 153 -7 328 -1 176 -6 323 -11 328 -5 5 -7
49 -4 97 3 48 2 107 -2 129 -4 23 -5 68 -3 100 6 96 15 187 22 224 9 45 4 113
-9 121 -10 6 -13 121 -9 319 1 63 0 206 -4 317 -5 170 -4 206 9 225 12 19 14
73 12 346 -2 178 1 344 6 370 7 39 21 529 17 612 -1 27 -1 28 7 111 l6 57 81
13 c45 7 85 12 88 11 4 0 59 3 123 8 92 8 123 7 144 -3 20 -10 74 -13 207 -11
99 2 200 5 225 8 74 8 359 8 372 0 7 -5 100 -9 208 -10 107 0 218 -4 245 -7
28 -3 94 -8 148 -12 54 -3 107 -10 117 -15 10 -6 32 -10 48 -10 16 0 58 -11
93 -24 35 -13 89 -26 119 -29 30 -3 75 -13 100 -22 58 -21 173 -13 210 15 24
18 25 23 28 151 2 73 7 140 12 149 5 10 6 30 1 46 -13 45 -6 132 18 219 32
118 32 172 -3 218 -31 41 -109 90 -146 93 -14 2 -65 7 -115 12 -105 10 -1165
10 -1181 0 -11 -7 -384 -19 -551 -18 -45 1 -90 -3 -100 -8 -27 -15 -144 -24
-268 -22 -249 4 -276 9 -267 55 2 14 0 51 -6 83 -7 31 -12 100 -12 152 -1 52
-6 151 -12 220 -7 81 -8 150 -2 195 l9 69 35 3 c54 3 319 8 375 6 28 -1 73 -2
100 -1 53 0 132 -13 154 -26 13 -8 49 31 43 48 -2 5 3 33 9 62 9 41 9 60 1 79
-7 14 -15 77 -18 139 -6 96 -4 116 10 138 13 20 18 59 23 165 7 155 -2 190
-56 217 -37 19 -127 31 -143 19 -7 -5 -35 -11 -63 -12 -27 -1 -81 -7 -119 -12
-57 -8 -72 -7 -86 6 -21 19 -57 19 -67 0 -6 -9 -33 -17 -78 -21 -58 -5 -73 -4
-84 10 -7 9 -10 16 -5 16 5 0 9 19 9 43 0 23 4 105 8 182 4 77 10 199 12 270
3 72 10 156 16 188 10 60 1 135 -21 178 -18 33 -67 51 -122 45 -28 -4 -59 -11
-70 -17 -11 -6 -68 -11 -126 -11 -80 1 -113 -3 -131 -15 -19 -12 -44 -14 -125
-10 -112 6 -116 7 -166 29 -61 26 -83 28 -121 8z"/>
<path d="M1465 5501 c-59 -5 -87 -15 -175 -60 -154 -80 -164 -86 -175 -107 -5
-11 -23 -41 -38 -68 -27 -44 -29 -57 -30 -154 -2 -126 12 -187 57 -237 34 -39
115 -75 184 -82 38 -5 51 0 96 31 33 23 64 36 84 36 35 0 95 50 127 107 18 31
18 32 -11 90 -15 32 -41 73 -56 91 -15 18 -28 38 -28 45 0 14 81 57 106 57 9
0 29 14 45 31 l30 32 109 -2 c108 -2 168 -14 213 -46 12 -8 27 -15 34 -15 14
0 125 -49 195 -86 55 -29 153 -64 180 -64 24 0 78 -40 78 -57 0 -7 -10 -30
-23 -51 -13 -20 -29 -56 -37 -80 -12 -38 -11 -49 4 -98 15 -47 21 -56 46 -61
16 -3 32 -4 36 -3 4 1 11 -4 16 -12 7 -10 10 -10 19 5 5 9 17 17 24 17 8 0 15
5 15 10 0 6 11 10 25 10 14 0 38 12 55 28 26 23 31 36 34 87 2 33 5 62 5 64 2
7 240 -27 266 -39 35 -16 162 -40 212 -40 26 -1 80 -12 118 -26 60 -22 172
-54 239 -69 11 -3 47 -13 80 -24 56 -18 113 -33 126 -33 3 0 11 -5 19 -11 17
-15 126 -13 172 2 19 6 65 15 103 20 37 6 91 21 120 35 54 27 138 56 160 56 7
0 40 13 72 30 77 38 94 71 94 178 0 49 -6 87 -15 106 -8 15 -15 33 -15 40 -1
16 -40 60 -70 79 -30 18 -88 23 -149 13 -24 -5 -58 -9 -75 -11 -70 -6 -134
-24 -191 -54 -33 -17 -66 -31 -73 -31 -13 0 -71 -38 -85 -55 -15 -19 2 -79 30
-104 15 -14 31 -25 34 -24 4 1 5 -6 2 -17 -3 -11 -9 -18 -13 -15 -4 3 -10 -2
-14 -10 -3 -8 -15 -15 -26 -15 -11 0 -20 -4 -20 -9 0 -10 -71 -3 -80 8 -3 3
-33 7 -68 9 -35 2 -74 7 -88 12 -13 5 -54 14 -91 20 -37 6 -71 14 -77 18 -6 3
-15 7 -21 7 -28 2 -91 19 -101 26 -5 5 -39 9 -75 10 -73 2 -157 19 -267 55
-41 13 -83 24 -93 24 -11 0 -19 5 -19 10 0 6 5 10 10 10 6 0 10 8 10 18 0 23
33 54 86 82 47 24 56 46 47 123 -7 59 -38 87 -95 87 -30 0 -45 -7 -68 -30 -16
-16 -33 -30 -38 -30 -4 0 -15 -12 -24 -27 -9 -16 -26 -39 -37 -52 -11 -13 -18
-29 -14 -35 3 -6 3 -8 -2 -4 -4 4 -20 -6 -35 -22 -31 -34 -54 -37 -96 -15 -16
8 -41 15 -56 15 -15 0 -37 4 -50 9 -13 5 -45 15 -71 22 -27 7 -64 22 -82 35
-18 12 -44 25 -56 29 -45 12 -189 79 -189 87 0 4 -7 8 -15 8 -8 0 -15 4 -15
10 0 22 -109 37 -333 44 -65 2 -121 7 -124 10 -4 3 -16 5 -27 4 -12 -1 -52 -4
-91 -7z"/>
<path d="M8045 5341 c-24 -10 -86 -78 -135 -149 -24 -35 -43 -52 -63 -56 -29
-6 -74 1 -92 14 -18 13 -103 30 -151 30 -89 0 -182 20 -395 84 -47 14 -100 26
-117 26 -18 0 -32 5 -32 10 0 13 -37 13 -45 1 -6 -11 -102 -6 -193 10 -35 6
-84 8 -110 4 -26 -4 -67 -6 -92 -6 -92 2 -132 0 -156 -9 -14 -6 -37 -10 -50
-10 -29 0 -125 -45 -151 -71 -88 -87 -113 -119 -113 -149 0 -17 -5 -41 -11
-52 -13 -25 4 -143 28 -191 17 -34 117 -133 153 -152 14 -7 50 -20 80 -28 65
-16 99 -8 155 38 20 17 51 42 69 57 18 15 38 45 46 67 12 36 11 46 -8 97 -12
30 -22 65 -22 76 0 11 -16 34 -35 51 -58 51 -49 63 51 70 116 7 405 -1 479
-14 33 -6 97 -19 143 -30 122 -30 165 -36 297 -43 84 -5 105 -12 105 -37 0
-17 -19 -39 -74 -86 -45 -38 -69 -89 -63 -134 8 -58 40 -89 93 -89 35 0 46 5
63 28 12 15 25 32 31 39 5 7 10 19 10 28 0 25 39 67 119 128 63 49 114 56 201
28 57 -19 139 -42 202 -59 20 -5 87 -10 150 -11 120 -2 192 -15 220 -38 9 -8
22 -12 29 -7 7 4 10 3 6 -3 -4 -6 20 -10 59 -11 36 -1 95 -9 132 -17 65 -13
141 -26 172 -27 8 0 62 6 120 13 58 7 123 12 145 11 44 -2 165 24 205 43 14 7
40 15 58 18 35 7 146 99 169 140 25 46 16 100 -29 167 -24 35 -51 76 -61 92
-13 19 -27 28 -46 28 -15 0 -31 4 -36 9 -20 20 -140 23 -184 5 -22 -9 -41 -20
-41 -25 0 -12 -55 -39 -80 -39 -11 0 -20 -7 -20 -15 0 -8 -9 -29 -20 -47 -25
-41 -25 -60 0 -128 12 -34 16 -58 10 -64 -24 -24 -273 -36 -326 -16 -14 6 -54
11 -88 11 -33 1 -65 4 -71 9 -5 4 -28 13 -50 20 -22 7 -45 17 -51 21 -6 5 -75
13 -154 19 -221 15 -374 52 -352 87 4 5 16 15 28 21 11 6 32 35 47 66 26 54
27 56 10 90 -26 55 -106 82 -168 57z"/>
<path d="M19305 4717 c-26 -26 -40 -33 -62 -30 -18 3 -50 -5 -83 -21 -57 -26
-189 -46 -302 -45 -49 0 -60 -4 -82 -28 -26 -27 -26 -30 -26 -181 0 -90 4
-162 11 -173 6 -11 23 -64 39 -117 31 -105 35 -152 45 -542 3 -118 8 -231 10
-250 3 -19 7 -78 9 -130 3 -52 9 -138 15 -190 11 -102 13 -341 4 -560 -2 -74
-4 -216 -3 -315 1 -99 -3 -209 -9 -245 -12 -77 -21 -172 -25 -255 -2 -33 -9
-93 -16 -133 -6 -40 -10 -78 -7 -85 7 -20 -11 -130 -37 -218 -31 -106 -35
-116 -63 -159 -17 -23 -23 -45 -21 -69 5 -56 73 -87 238 -107 25 -3 54 -9 65
-14 11 -5 41 -18 67 -29 26 -12 58 -21 72 -21 14 0 28 -5 31 -10 3 -6 14 -10
24 -10 10 0 30 -9 44 -20 56 -44 126 -38 150 12 15 33 13 88 -4 88 -5 0 -9 6
-9 13 0 7 -14 20 -31 28 l-30 14 -6 110 c-3 61 -7 153 -9 205 -13 357 -19 421
-45 455 -13 18 -19 86 -25 265 -3 96 -11 202 -19 235 -8 33 -15 78 -15 100 -1
74 9 340 15 375 6 37 14 252 15 386 l0 81 52 5 c28 3 56 12 62 20 18 23 115
58 162 58 51 0 87 -12 116 -40 12 -11 26 -20 31 -20 11 0 65 -23 142 -61 34
-16 66 -29 72 -29 13 0 45 -74 48 -114 2 -16 7 -31 12 -35 18 -13 63 -91 63
-110 0 -11 7 -26 15 -35 17 -17 21 -101 5 -111 -6 -4 -8 -11 -5 -16 9 -13 15
-44 26 -139 5 -47 14 -102 20 -123 9 -36 6 -83 -17 -222 -2 -16 -7 -68 -10
-115 -2 -47 -10 -110 -17 -140 -10 -45 -12 -153 -8 -325 2 -70 -20 -296 -32
-330 -16 -44 -23 -72 -33 -131 -3 -21 -8 -46 -9 -54 -2 -8 -4 -28 -4 -43 -1
-19 -14 -40 -40 -65 -46 -44 -56 -75 -42 -128 12 -46 53 -69 104 -61 83 15
104 21 127 37 72 49 245 77 280 45 16 -14 22 -14 59 1 50 20 156 14 194 -11
22 -14 25 -14 42 5 14 15 30 19 74 19 59 -1 164 19 245 46 47 16 48 16 99 -11
45 -23 66 -28 156 -31 126 -4 141 4 141 77 0 56 -9 65 -75 78 -70 15 -137 31
-155 39 -8 3 -19 5 -23 4 -4 0 -20 10 -34 24 l-27 24 24 26 c13 14 30 25 37
25 7 0 18 11 23 24 5 13 25 36 44 51 20 15 36 33 36 41 0 7 14 21 32 30 18 9
41 27 51 41 10 13 35 32 55 43 21 10 51 32 67 48 17 16 66 46 110 67 43 20 99
52 123 71 25 19 56 34 69 34 13 0 31 9 40 20 10 11 23 20 30 20 7 0 40 19 72
43 85 60 91 64 144 91 l48 24 14 -22 c21 -31 33 -105 24 -146 -4 -19 -7 -107
-7 -195 1 -142 -2 -166 -21 -213 -11 -29 -21 -73 -21 -98 0 -32 -7 -56 -25
-82 -14 -20 -25 -46 -25 -58 0 -32 63 -84 103 -85 18 0 147 -1 287 -2 241 -2
257 -3 295 -24 22 -12 51 -24 65 -26 14 -2 32 -6 39 -8 36 -10 38 144 3 159
-9 4 -36 20 -58 35 -46 31 -69 75 -79 152 -4 27 -14 63 -23 80 -9 16 -15 34
-14 38 1 4 -2 17 -8 27 -6 11 -12 39 -14 62 -5 56 -25 131 -38 139 -12 8 -36
101 -48 189 -5 36 -13 92 -18 125 -4 33 -13 70 -20 82 -15 27 -16 70 -1 78 7
5 6 11 -4 18 -20 18 -37 83 -41 157 -1 36 -5 71 -9 77 -4 6 -9 28 -12 49 -3
22 -9 75 -15 118 -5 44 -14 84 -20 90 -5 5 -10 23 -10 38 0 16 -7 45 -15 65
-8 19 -15 46 -15 59 0 13 -11 47 -24 76 -25 55 -31 87 -46 273 -5 61 -17 155
-25 210 -8 55 -20 149 -25 208 -5 60 -13 113 -16 119 -14 22 -32 108 -24 113
5 3 -1 22 -12 42 -13 22 -24 63 -29 107 -4 39 -12 89 -17 111 -6 22 -13 69
-17 105 -3 36 -15 126 -25 200 -11 75 -19 186 -19 250 1 106 -1 116 -21 132
-34 28 -67 32 -112 14 -34 -13 -48 -14 -79 -4 -31 9 -46 8 -82 -6 -23 -9 -50
-16 -59 -16 -9 0 -37 -9 -63 -20 -38 -16 -50 -28 -67 -67 -11 -25 -20 -58 -20
-72 0 -14 -6 -35 -14 -46 -7 -11 -14 -49 -15 -85 -3 -61 -25 -162 -50 -226 -6
-16 -15 -51 -19 -79 -18 -105 -19 -109 -59 -196 -12 -25 -21 -59 -21 -75 0
-17 -6 -53 -14 -80 -7 -27 -19 -78 -25 -114 -7 -36 -17 -83 -23 -105 -6 -22
-12 -44 -14 -50 -19 -93 -58 -244 -65 -257 -5 -10 -9 -30 -9 -45 0 -14 -5 -40
-10 -57 -51 -158 -63 -200 -69 -261 -5 -39 -18 -89 -30 -112 -12 -24 -20 -46
-19 -50 0 -5 -4 -21 -10 -36 -7 -16 -12 -43 -12 -60 0 -43 -26 -152 -49 -207
-11 -25 -22 -67 -27 -95 -4 -27 -24 -90 -45 -138 -22 -48 -39 -97 -39 -107 0
-11 -15 -66 -34 -122 -19 -57 -37 -119 -41 -138 -4 -19 -11 -40 -16 -46 -5 -6
-11 -46 -15 -90 -5 -78 -35 -196 -55 -220 -6 -7 -14 -48 -19 -91 -11 -105 -40
-183 -77 -205 -37 -23 -60 -23 -75 2 -7 11 -19 20 -26 20 -25 0 -121 75 -133
104 -7 16 -23 39 -36 52 -27 27 -59 96 -69 150 -4 21 -17 63 -30 94 -22 54
-22 63 -13 188 5 72 15 148 23 169 7 21 19 58 27 83 7 25 21 54 30 65 36 41
100 183 114 253 4 18 13 38 20 46 7 7 28 44 45 82 l31 69 -6 155 c-11 277 -20
338 -64 439 -42 98 -85 156 -136 183 -18 9 -40 28 -49 42 -9 15 -25 26 -35 26
-10 0 -26 9 -36 20 -33 36 -78 57 -160 75 -99 21 -129 27 -133 26 -1 -1 -15 5
-32 14 -16 8 -40 15 -55 15 -14 0 -25 3 -25 7 0 15 25 73 31 73 4 0 42 34 84
75 42 41 80 75 85 75 6 0 10 6 10 13 0 7 9 18 20 25 11 7 20 18 20 25 0 7 16
28 36 47 20 18 47 51 60 72 14 22 31 41 39 45 8 3 15 12 15 20 0 7 11 25 24
38 14 14 33 39 43 57 10 18 24 39 31 46 7 8 31 41 54 74 22 33 49 63 59 65 11
3 19 11 19 19 0 7 11 16 24 20 13 3 52 41 90 90 37 47 78 91 90 99 13 9 29 34
36 58 7 23 23 62 36 87 60 113 3 200 -110 166 -26 -8 -62 -25 -79 -39 -49 -37
-92 -45 -216 -40 -143 6 -173 0 -216 -43 -47 -46 -47 -84 0 -143 52 -65 58
-147 15 -196 -10 -11 -30 -45 -45 -75 -15 -30 -31 -62 -36 -70 -4 -8 -16 -30
-25 -48 -10 -19 -55 -72 -101 -118 -45 -47 -83 -90 -83 -97 0 -7 -16 -30 -35
-52 -19 -22 -35 -46 -35 -52 0 -7 -4 -13 -9 -13 -13 0 -61 -45 -61 -57 0 -5
-18 -22 -40 -39 -22 -16 -40 -32 -40 -36 0 -5 -6 -8 -13 -8 -7 0 -45 -36 -85
-80 -60 -64 -81 -81 -110 -85 -21 -3 -57 -11 -81 -16 -53 -12 -63 -3 -56 56 2
22 9 92 15 155 6 63 15 122 20 131 5 9 10 49 11 89 3 83 15 165 29 195 6 11 8
33 6 49 -2 16 5 51 14 76 10 26 21 69 25 96 4 27 11 57 17 67 5 10 11 39 13
65 3 26 16 85 30 131 14 47 25 102 25 123 0 88 -100 120 -165 55z m2424 -971
c6 -25 11 -69 12 -98 0 -54 20 -137 58 -243 11 -33 28 -87 37 -120 9 -33 23
-80 31 -105 18 -52 33 -120 38 -170 3 -19 9 -54 15 -78 6 -24 8 -47 6 -51 -3
-4 6 -70 19 -147 14 -76 25 -158 25 -182 0 -27 8 -56 23 -80 19 -29 24 -53 26
-107 1 -38 9 -113 18 -166 18 -107 14 -139 -19 -155 -13 -6 -36 -18 -53 -27
-16 -8 -47 -24 -68 -34 -21 -10 -52 -31 -69 -46 -16 -15 -43 -31 -59 -34 -18
-3 -29 -12 -29 -22 0 -16 -71 -81 -89 -81 -5 0 -16 -6 -23 -12 -7 -7 -35 -24
-60 -38 -26 -13 -50 -30 -52 -36 -3 -7 -19 -15 -36 -19 -17 -4 -34 -13 -37
-21 -3 -8 -10 -14 -15 -14 -5 0 -51 -25 -101 -55 -50 -30 -95 -55 -100 -55 -6
0 -18 -6 -26 -14 -22 -18 -61 -30 -61 -17 0 5 10 12 23 14 13 3 7 5 -16 6 -21
0 -36 -3 -32 -8 9 -16 -17 -61 -37 -61 -38 0 -15 177 35 259 15 24 17 36 9 39
-13 4 -17 58 -4 66 4 2 9 37 10 77 1 40 8 82 15 93 8 12 22 57 31 101 9 44 21
94 27 111 5 17 9 39 9 50 0 11 6 28 14 39 7 11 19 45 26 75 8 30 17 59 22 65
4 5 8 18 8 28 0 10 6 31 14 45 21 38 58 171 51 182 -3 5 0 12 6 15 5 4 8 13 5
21 -10 26 14 117 43 163 18 29 31 66 36 101 7 61 23 110 36 110 5 0 6 7 3 15
-4 8 -2 15 3 15 16 0 32 45 49 141 11 61 23 97 36 109 11 10 18 24 17 31 -2
15 4 47 23 114 7 22 12 42 13 45 5 24 29 87 36 95 5 5 9 17 9 27 0 24 40 99
50 93 4 -2 13 -25 19 -49z"/>
<path d="M17178 4619 c-11 -10 -28 -21 -37 -24 -9 -3 -33 -25 -54 -49 -31 -38
-44 -46 -84 -52 -27 -4 -50 -10 -53 -13 -8 -10 -100 -51 -114 -51 -7 0 -26
-11 -42 -25 -19 -16 -41 -25 -64 -25 -45 0 -142 -58 -134 -80 3 -8 12 -35 19
-60 7 -25 18 -58 23 -75 28 -78 44 -144 53 -224 5 -47 12 -93 15 -101 3 -8 10
-64 15 -125 5 -60 13 -148 18 -195 7 -61 6 -169 -4 -380 -8 -162 -15 -346 -15
-408 0 -62 -4 -120 -9 -130 -11 -20 -62 -577 -61 -667 0 -68 -20 -171 -43
-228 -9 -20 -19 -56 -22 -80 -21 -161 -24 -175 -40 -215 -20 -46 -45 -155 -45
-192 0 -16 -11 -54 -25 -84 -14 -30 -25 -59 -25 -65 0 -21 24 -61 36 -61 7 0
14 -5 16 -11 2 -5 30 -22 63 -35 50 -22 78 -26 172 -28 110 -2 116 -3 205 -47
10 -5 38 -9 64 -9 28 0 57 -7 72 -18 34 -23 84 -39 146 -48 l49 -7 -6 52 c-5
38 -15 62 -40 94 -76 92 -130 208 -106 223 5 3 3 17 -5 32 -7 15 -16 63 -20
108 -13 150 -29 246 -46 269 -15 21 -20 101 -20 366 -1 292 9 556 25 689 3 19
10 82 16 140 6 58 13 114 14 125 2 11 8 63 15 115 6 52 15 118 20 145 5 28 16
91 24 140 19 105 33 227 40 340 3 44 11 107 17 140 6 33 12 76 14 95 1 19 8
64 14 100 7 36 14 76 16 90 2 14 6 41 9 60 6 33 17 183 18 240 0 13 6 33 13
43 7 11 11 26 8 33 -3 8 2 26 12 40 46 71 -64 187 -127 133z"/>
<path d="M15702 4553 c-23 -15 -42 -33 -42 -39 0 -7 -12 -15 -27 -19 -16 -3
-36 -13 -45 -22 -12 -11 -26 -13 -50 -7 -61 14 -83 12 -120 -12 -31 -20 -50
-24 -101 -23 -80 2 -99 -4 -114 -38 -18 -39 -16 -65 12 -148 13 -41 22 -81 19
-90 -4 -8 -2 -21 3 -28 15 -18 36 -104 29 -116 -4 -5 -2 -12 4 -16 5 -3 10
-16 10 -28 0 -12 9 -37 20 -55 11 -19 20 -50 20 -75 0 -23 5 -62 11 -87 13
-56 20 -492 8 -580 -7 -59 -17 -216 -25 -380 -1 -36 -5 -78 -8 -95 -3 -16 -8
-55 -11 -85 -3 -30 -7 -77 -10 -105 -3 -27 -5 -90 -6 -140 -1 -49 -6 -101 -12
-115 -5 -14 -11 -45 -12 -70 -10 -143 -18 -219 -24 -250 -4 -19 -7 -47 -7 -62
1 -16 -2 -28 -6 -28 -4 0 -8 -10 -8 -22 0 -13 -9 -36 -20 -53 -11 -16 -20 -24
-20 -17 0 7 -4 11 -9 8 -12 -8 -111 13 -111 24 0 8 -39 23 -55 20 -5 -1 -14 5
-20 12 -5 7 -36 21 -67 31 -32 10 -64 24 -72 32 -8 8 -19 15 -24 15 -6 0 -12
5 -14 11 -3 10 -44 20 -88 21 -8 0 -24 8 -35 17 -20 16 -41 28 -80 48 -44 22
-92 47 -123 64 -18 11 -39 19 -46 19 -7 0 -24 8 -37 19 -13 10 -65 29 -114 41
-50 13 -92 24 -94 26 -2 2 -5 34 -7 71 -1 38 -3 68 -4 68 -2 0 -7 30 -16 100
-7 62 -7 91 0 160 3 22 5 119 5 215 0 96 0 186 0 200 0 14 5 39 12 55 6 17 13
41 15 55 2 14 10 66 18 115 9 50 18 140 21 200 6 123 11 177 26 250 5 28 12
64 15 80 3 17 9 35 14 40 4 6 11 42 14 82 4 40 20 125 37 190 17 65 36 143 43
173 14 61 27 90 51 110 21 18 55 97 55 130 0 15 -7 33 -15 40 -8 7 -15 18 -15
25 0 7 -13 18 -29 25 -40 16 -85 0 -131 -45 -19 -19 -38 -35 -42 -35 -4 0 -8
-6 -8 -14 0 -13 -27 -31 -42 -28 -5 1 -8 -3 -8 -9 0 -5 -4 -8 -9 -4 -6 3 -25
-7 -43 -23 -18 -16 -41 -31 -50 -35 -10 -4 -18 -12 -18 -19 0 -17 -36 -39 -53
-32 -7 2 -30 -7 -51 -21 -21 -14 -40 -24 -43 -22 -2 3 -15 -5 -28 -17 -13 -11
-38 -32 -55 -45 l-33 -25 8 -70 c8 -85 12 -111 15 -111 1 0 3 -20 5 -45 2 -43
14 -209 19 -277 1 -18 -2 -33 -7 -33 -4 0 -5 -5 -1 -12 4 -6 8 -68 9 -137 2
-117 7 -183 21 -271 19 -118 19 -105 10 -220 -4 -47 -9 -141 -12 -210 -8 -217
-9 -231 -24 -241 -13 -7 -13 -9 1 -9 19 0 28 -60 23 -150 -1 -30 -5 -104 -9
-165 -3 -60 -10 -123 -15 -139 -6 -16 -10 -55 -10 -86 0 -32 -6 -95 -14 -141
-8 -46 -20 -127 -26 -179 -22 -185 -29 -222 -46 -241 -10 -11 -12 -19 -6 -19
14 0 16 -66 3 -74 -5 -3 -12 -23 -16 -43 -4 -21 -11 -43 -15 -48 -5 -6 -12
-38 -15 -71 -7 -56 -5 -63 16 -83 34 -32 94 -61 126 -61 72 -1 199 -76 223
-132 7 -15 23 -34 36 -43 28 -18 106 -23 112 -7 2 7 10 12 17 12 28 0 33 67
10 142 -14 49 -19 177 -20 573 l0 200 27 -3 c15 -2 44 -21 66 -43 22 -21 48
-39 58 -39 11 0 28 -7 38 -15 11 -8 28 -15 39 -15 18 0 66 -29 95 -57 6 -6 21
-14 31 -18 10 -3 21 -15 24 -27 4 -14 11 -19 22 -15 33 13 168 -12 209 -39 22
-15 62 -33 90 -40 27 -7 54 -20 58 -29 5 -8 18 -15 29 -15 11 0 38 -12 62 -27
23 -15 45 -26 50 -25 4 1 7 -3 7 -8 0 -6 11 -16 25 -22 22 -10 23 -12 8 -23
-12 -9 -14 -21 -9 -48 4 -21 2 -38 -4 -42 -6 -3 -10 -38 -9 -78 0 -40 0 -85 0
-101 -3 -76 52 -123 134 -112 132 17 345 -16 345 -52 0 -11 66 -42 87 -42 9 0
31 5 50 12 25 9 34 19 39 44 3 18 1 41 -5 52 -6 12 -11 36 -11 54 0 18 -7 42
-15 52 -8 11 -15 32 -15 47 0 15 -4 30 -9 33 -9 6 -20 48 -42 151 -7 33 -18
72 -26 87 -7 15 -15 40 -16 55 -2 15 -6 35 -10 43 -26 62 -33 120 -41 330 -3
52 -7 131 -11 175 -9 100 -9 138 0 245 3 47 6 121 5 164 -1 53 3 82 11 87 9 5
10 12 3 21 -6 7 -9 38 -8 68 4 92 12 188 17 197 2 4 7 42 11 83 4 41 11 111
17 155 7 48 8 110 3 155 -5 41 -7 82 -7 90 1 8 7 49 12 90 6 41 13 92 15 112
3 21 11 51 19 67 11 21 13 47 7 102 -6 70 1 125 30 244 5 22 12 67 14 100 3
33 8 71 10 85 13 60 16 77 20 110 3 19 10 51 16 70 7 19 18 66 25 103 8 38 24
84 35 102 14 22 17 36 10 40 -8 5 -8 11 1 21 9 11 7 20 -7 41 -39 61 -86 69
-152 26z"/>
<path d="M9087 4351 c-29 -26 -57 -50 -64 -52 -7 -2 -45 -40 -85 -84 -40 -45
-121 -125 -180 -179 -87 -79 -113 -109 -135 -157 -15 -32 -31 -59 -35 -59 -4
0 -8 -6 -8 -14 0 -8 -10 -23 -22 -33 -36 -28 -102 -113 -133 -168 -15 -27 -38
-64 -51 -82 -13 -17 -24 -35 -24 -39 0 -4 -11 -21 -24 -38 -13 -17 -26 -41
-30 -52 -3 -12 -15 -29 -26 -39 -11 -10 -20 -24 -20 -30 0 -7 -16 -36 -36 -65
-44 -64 -140 -254 -144 -285 0 -5 -20 -52 -44 -105 -6 -13 -35 -60 -64 -103
-29 -44 -57 -98 -63 -121 -17 -62 -23 -156 -10 -169 6 -6 11 -21 11 -33 0 -13
5 -26 10 -29 6 -3 10 -18 10 -33 0 -14 50 -126 110 -247 61 -122 110 -226 110
-232 0 -6 7 -14 16 -17 9 -4 14 -9 11 -13 -10 -9 147 -273 162 -273 4 0 15
-16 25 -35 11 -19 23 -35 27 -35 8 0 27 -38 61 -120 8 -19 40 -61 71 -92 31
-32 59 -68 63 -80 29 -93 239 -314 349 -368 16 -8 64 -34 105 -57 94 -54 133
-56 218 -12 41 22 64 41 72 60 24 56 106 149 167 189 34 22 65 40 68 40 4 0
12 6 20 13 7 6 25 21 40 32 30 21 75 86 75 108 0 7 14 39 32 72 17 33 38 74
46 90 9 17 18 32 21 35 17 14 81 144 81 163 0 8 9 22 20 32 11 10 20 26 20 36
0 10 8 23 19 28 10 6 22 22 25 36 3 13 20 32 36 40 16 8 34 23 39 34 6 10 24
33 40 50 53 57 32 136 -49 188 -19 12 -50 34 -69 48 -19 14 -47 25 -64 25 -16
0 -40 9 -54 20 -23 18 -41 20 -157 20 -131 0 -131 0 -168 -30 -44 -37 -55 -75
-34 -125 19 -45 22 -288 5 -332 -24 -59 -28 -69 -45 -123 -27 -81 -107 -183
-150 -192 -23 -4 -47 -51 -49 -98 -2 -27 -10 -40 -36 -58 -19 -13 -41 -32 -49
-43 -16 -20 -17 -19 -53 18 -47 49 -136 169 -148 200 -5 13 -20 48 -33 76 -12
29 -29 70 -36 92 -20 60 -69 150 -143 259 -37 54 -70 109 -73 122 -3 13 -9 24
-13 24 -5 0 -13 19 -20 43 -36 125 -46 154 -64 179 -10 16 -16 32 -12 37 3 5
1 12 -4 15 -16 10 -63 165 -56 184 8 21 24 103 31 156 3 22 8 44 11 50 4 5 14
50 24 100 10 50 27 129 38 176 11 47 21 109 21 138 0 41 8 68 36 120 20 37 44
76 55 88 13 14 21 45 28 110 8 77 16 104 54 180 25 49 53 109 62 134 41 108
96 196 172 278 24 26 60 68 80 95 21 26 42 47 49 47 6 0 19 -11 28 -25 9 -14
25 -25 36 -25 37 0 87 -60 114 -139 14 -41 26 -82 26 -91 0 -10 14 -61 30
-115 17 -54 30 -115 30 -136 0 -21 4 -40 9 -44 6 -3 8 -15 5 -28 -13 -63 -16
-145 -5 -165 13 -25 71 -52 111 -52 28 0 75 43 104 96 23 42 63 77 133 114 73
38 133 89 133 112 0 9 5 20 10 23 6 3 10 26 10 51 0 48 -34 114 -70 136 -11 7
-20 20 -20 28 0 24 -36 76 -84 123 -24 23 -51 56 -60 74 -15 30 -72 75 -136
108 -16 8 -40 26 -54 40 -13 13 -36 27 -50 31 -16 4 -36 24 -55 54 -26 42 -35
49 -73 55 -49 8 -88 29 -88 48 0 16 -52 47 -80 47 -12 0 -44 -22 -73 -49z"/>
<path d="M3480 4336 c-19 -8 -51 -20 -70 -28 -19 -7 -46 -21 -60 -30 -13 -10
-34 -18 -46 -18 -12 0 -27 -7 -34 -15 -7 -8 -19 -15 -26 -15 -8 0 -14 -4 -14
-10 0 -5 -6 -10 -13 -10 -14 0 -142 -124 -160 -156 -7 -12 -20 -36 -30 -53
-10 -18 -26 -41 -35 -51 -29 -32 -42 -49 -42 -55 0 -4 -6 -13 -14 -21 -8 -7
-23 -24 -33 -37 -10 -12 -37 -37 -60 -55 -23 -18 -45 -43 -49 -55 -4 -12 -17
-35 -30 -52 -12 -16 -24 -44 -26 -61 -4 -33 -88 -166 -129 -200 -29 -26 -69
-98 -73 -134 -6 -54 -37 -170 -46 -170 -4 0 -10 -12 -13 -27 -3 -16 -17 -41
-31 -57 -14 -16 -37 -67 -52 -115 -14 -47 -38 -109 -52 -137 -25 -51 -25 -53
-12 -145 7 -51 21 -123 31 -160 10 -37 21 -86 24 -108 6 -52 51 -152 77 -171
3 -3 11 -30 16 -60 6 -30 16 -68 23 -85 7 -16 13 -37 14 -45 3 -26 16 -74 27
-100 7 -14 12 -27 13 -30 6 -20 20 -46 26 -50 13 -9 69 -118 69 -134 0 -9 6
-19 14 -22 8 -3 12 -12 9 -20 -3 -8 0 -14 6 -14 6 0 11 -6 11 -13 0 -8 6 -27
14 -43 60 -127 80 -164 86 -164 5 0 31 -31 60 -70 28 -38 67 -79 86 -90 19
-12 34 -25 34 -29 0 -4 9 -16 19 -28 10 -11 27 -35 36 -54 10 -19 36 -51 59
-72 52 -48 151 -117 167 -117 7 0 22 -8 33 -19 21 -18 81 -37 141 -46 17 -2
46 -6 65 -10 25 -4 46 0 75 14 21 12 35 21 30 22 -19 2 60 20 84 20 14 -1 34
5 46 13 26 17 70 89 81 130 3 15 39 60 79 100 80 80 89 94 99 149 6 30 11 37
29 37 24 0 77 52 77 76 0 8 4 14 10 14 5 0 24 28 42 61 57 107 61 114 73 124
28 24 115 191 115 221 0 9 6 28 14 42 7 15 28 59 46 97 18 39 39 78 48 88 22
25 20 102 -5 135 -24 33 -55 48 -108 55 -46 7 -75 16 -75 26 0 14 -58 40 -86
39 -16 0 -65 2 -110 7 -66 6 -86 5 -112 -9 -59 -31 -68 -70 -63 -291 1 -41 -5
-84 -13 -105 -25 -60 -56 -168 -56 -194 0 -13 -6 -31 -14 -38 -16 -17 -49 -78
-41 -78 3 0 -10 -15 -29 -34 -19 -18 -38 -45 -42 -60 -3 -14 -10 -26 -14 -26
-4 0 -20 -28 -35 -63 -15 -34 -41 -79 -57 -99 -18 -24 -25 -39 -17 -43 7 -5 4
-13 -9 -26 -11 -10 -23 -27 -27 -38 -3 -11 -19 -26 -35 -33 -17 -7 -30 -19
-30 -25 0 -25 -38 -13 -63 20 -14 17 -40 49 -56 71 -17 21 -31 43 -31 49 0 6
-6 18 -13 26 -13 15 -67 169 -67 190 0 5 -17 47 -38 93 -37 78 -55 129 -57
154 0 6 -5 22 -11 35 -64 139 -101 237 -111 294 -3 17 -15 57 -28 90 -13 33
-29 92 -35 130 -6 39 -18 83 -27 98 -8 16 -16 52 -18 80 -1 29 -7 63 -12 77
-12 30 -2 126 21 201 44 145 51 164 56 169 13 12 40 73 40 91 0 39 124 340
186 452 8 15 23 55 33 90 22 76 63 166 76 167 6 0 57 75 115 165 97 152 120
182 120 155 0 -5 11 -10 24 -10 23 0 42 -21 74 -80 20 -38 115 -160 124 -160
4 0 8 -7 8 -15 0 -8 8 -24 17 -35 9 -10 19 -32 21 -47 2 -15 7 -32 13 -37 5
-6 9 -19 9 -31 0 -12 5 -26 10 -31 6 -6 13 -21 15 -34 2 -13 10 -27 17 -31 7
-4 14 -37 16 -73 4 -60 7 -69 39 -96 24 -21 44 -30 69 -30 43 0 98 25 122 54
9 12 31 27 47 34 17 7 57 37 89 68 33 30 64 58 70 62 19 12 66 116 66 144 0
29 -53 98 -75 98 -28 0 -94 82 -114 141 -10 30 -20 40 -62 58 -31 13 -53 28
-56 41 -6 21 -175 140 -200 140 -8 0 -22 9 -31 19 -21 24 -126 81 -150 81 -9
0 -35 7 -57 14 -66 23 -126 27 -165 12z"/>
<path d="M1727 4285 c-15 -8 -47 -30 -69 -50 -23 -19 -52 -35 -65 -35 -12 0
-48 -11 -79 -25 -31 -14 -66 -25 -78 -25 -11 0 -32 -9 -46 -20 -20 -16 -41
-20 -112 -20 -103 0 -130 -10 -152 -56 -21 -46 -20 -66 6 -117 32 -62 67 -279
59 -362 -4 -37 -4 -68 0 -70 16 -10 21 -166 18 -535 -3 -324 -3 -569 1 -780 1
-65 -28 -318 -39 -345 -8 -16 -17 -39 -22 -50 -47 -105 -77 -210 -95 -335 -6
-46 23 -95 62 -103 17 -3 37 -19 48 -36 22 -33 74 -61 111 -61 37 0 77 -26
148 -96 36 -35 77 -89 77 -101 0 -4 23 -40 50 -78 28 -39 54 -80 59 -91 18
-42 81 -92 123 -99 34 -6 44 -4 64 16 39 40 31 140 -16 209 -28 41 -88 172
-98 215 -6 22 -13 74 -17 115 -4 41 -13 102 -22 135 -25 100 -63 279 -61 290
1 5 -2 25 -6 43 -9 37 -14 77 -21 177 -3 39 -11 126 -19 195 -11 105 -11 147
1 260 7 74 11 164 8 200 -8 86 -10 344 -3 356 3 5 9 45 12 89 4 44 14 116 21
160 15 84 27 205 26 265 -1 34 9 80 62 276 21 79 31 100 81 160 45 55 58 79
68 127 10 47 18 61 39 73 44 22 53 81 20 122 -15 17 -30 22 -68 22 -26 0 -61
-7 -76 -15z"/>
<path d="M6445 4255 c-16 -13 -42 -24 -56 -25 -14 0 -42 -11 -61 -23 -19 -13
-47 -27 -61 -31 -15 -3 -35 -14 -45 -24 -34 -34 -78 -46 -125 -34 -71 18 -135
24 -142 12 -3 -5 -15 -10 -27 -10 -11 0 -36 -16 -55 -35 -29 -29 -34 -40 -28
-63 8 -35 29 -57 66 -72 16 -7 27 -15 25 -18 -13 -13 130 -172 155 -172 16 0
149 -113 149 -127 0 -3 11 -21 25 -39 14 -18 25 -36 25 -40 0 -4 17 -26 38
-49 20 -24 57 -70 82 -104 25 -34 51 -68 58 -75 6 -8 12 -21 12 -29 0 -12 49
-90 82 -132 50 -63 88 -116 88 -125 0 -5 4 -10 9 -10 5 0 14 -15 22 -32 7 -18
16 -35 19 -38 24 -20 49 -76 59 -135 14 -79 4 -118 -44 -172 -85 -95 -135
-157 -135 -168 0 -8 -12 -26 -27 -42 -16 -15 -39 -50 -51 -78 -45 -96 -57
-116 -88 -148 -17 -18 -46 -57 -64 -87 -18 -30 -41 -64 -50 -75 -23 -28 -90
-141 -90 -152 0 -4 -11 -17 -25 -27 -14 -10 -25 -25 -25 -32 0 -8 -8 -22 -18
-32 -25 -25 -82 -111 -82 -123 0 -19 -93 -132 -182 -223 -48 -50 -88 -93 -88
-96 0 -4 -11 -12 -25 -18 -14 -6 -25 -16 -25 -22 0 -12 -21 -55 -62 -131 -21
-39 -53 -81 -95 -125 -7 -7 -13 -17 -13 -23 0 -6 -4 -11 -8 -11 -4 0 -22 -24
-39 -52 -68 -113 -35 -190 89 -207 71 -9 110 2 169 49 33 26 66 42 101 49 220
43 197 40 225 23 33 -20 78 -18 109 7 61 48 148 270 113 291 -10 7 -10 14 -1
35 7 14 12 50 12 80 0 35 5 59 16 69 8 9 13 16 9 16 -3 0 1 10 8 23 8 12 19
42 26 67 7 25 17 53 22 62 5 10 9 24 9 31 0 7 9 23 20 34 10 12 22 34 26 49 4
15 17 42 29 60 12 18 28 61 35 96 13 68 34 116 59 135 9 7 12 13 8 13 -5 0 1
12 12 26 12 15 21 30 21 34 0 5 18 46 40 93 22 46 40 91 40 99 0 9 7 21 15 28
8 7 15 19 15 27 0 19 88 151 109 163 9 5 21 6 27 2 13 -10 51 -98 65 -152 6
-25 14 -52 17 -60 3 -8 7 -37 9 -65 3 -27 9 -57 13 -66 5 -8 14 -65 20 -125 7
-60 19 -121 26 -136 8 -15 14 -31 14 -35 -1 -5 2 -30 6 -58 4 -27 8 -57 9 -65
0 -8 4 -32 9 -53 5 -25 4 -42 -3 -51 -9 -10 -8 -15 3 -19 9 -4 12 -14 9 -26
-3 -12 -1 -21 5 -21 16 0 42 -77 44 -128 0 -26 9 -84 19 -130 11 -45 19 -104
19 -130 0 -60 42 -117 98 -131 65 -17 187 -44 200 -44 6 0 12 -4 12 -9 0 -4
31 -8 68 -8 62 0 78 -5 164 -48 67 -33 113 -65 153 -105 51 -50 62 -57 97 -57
32 0 46 6 69 31 16 17 29 40 29 52 0 23 -38 107 -49 107 -4 0 -7 18 -8 40 -3
56 -23 93 -58 105 -17 5 -32 12 -35 15 -3 3 -22 14 -42 24 -29 14 -41 30 -54
65 -24 67 -72 165 -92 187 -9 11 -23 31 -31 46 -8 15 -21 36 -30 46 -33 38
-111 188 -111 215 0 10 -7 31 -15 47 -9 17 -13 30 -11 30 11 0 -59 149 -95
204 -21 32 -49 88 -61 125 -12 36 -28 73 -35 82 -7 8 -13 27 -13 42 0 14 -4
28 -9 31 -4 3 -14 27 -21 53 -8 25 -29 72 -47 102 -19 31 -36 67 -39 81 -9 41
-37 114 -51 135 -7 11 -13 29 -14 40 0 11 -9 34 -19 50 -10 17 -29 50 -41 73
-24 49 -27 42 45 167 19 33 51 92 72 130 20 39 48 87 61 107 12 21 23 41 23
45 0 9 71 73 81 73 5 0 9 4 9 10 0 5 15 31 33 57 41 61 56 84 64 103 3 8 24
34 45 57 21 24 38 49 38 56 0 8 29 45 65 83 36 38 65 74 65 81 0 7 14 28 30
46 17 19 30 39 30 43 1 5 23 36 50 69 28 33 66 81 86 108 20 26 40 47 45 47
32 0 -15 103 -64 142 -24 19 -87 23 -133 9 -16 -5 -50 -12 -77 -15 -26 -3 -51
-7 -55 -10 -5 -3 -20 1 -33 8 -43 22 -88 27 -117 12 -34 -18 -78 -64 -69 -73
4 -3 3 -11 -2 -17 -5 -6 -19 -58 -30 -115 -12 -58 -25 -109 -28 -114 -3 -6
-10 -40 -14 -76 -12 -108 -30 -166 -69 -233 -5 -10 -15 -26 -20 -35 -38 -67
-100 -199 -100 -214 0 -11 -4 -19 -10 -19 -5 0 -10 -4 -10 -10 0 -5 -18 -33
-40 -62 -22 -29 -42 -65 -45 -80 -4 -14 -16 -33 -28 -41 -22 -14 -23 -12 -56
57 -19 39 -38 79 -42 88 -5 10 -9 24 -9 32 0 8 -9 36 -20 62 -11 26 -22 59
-24 73 -1 14 -5 33 -8 41 -3 8 -13 42 -23 75 -9 33 -23 74 -30 90 -18 43 -48
158 -70 272 -8 40 -28 99 -44 131 -17 33 -33 81 -36 108 -3 27 -13 59 -23 72
-9 14 -25 36 -34 50 -33 49 -67 55 -113 17z"/>
<path d="M5190 2897 c-25 -7 -61 -23 -80 -37 -33 -23 -121 -110 -113 -110 3 0
-6 -14 -18 -32 -19 -26 -23 -44 -22 -99 1 -72 14 -103 67 -153 28 -27 33 -28
130 -28 95 0 156 12 156 29 0 13 55 73 67 73 15 0 63 57 87 101 l19 36 -35 74
c-19 41 -38 82 -41 92 -8 22 -79 54 -132 61 -22 2 -60 -1 -85 -7z"/>
<path d="M17949 2823 c-40 -6 -148 -109 -175 -166 -37 -82 -22 -160 46 -227
21 -21 31 -24 70 -20 25 3 55 2 68 -2 33 -11 110 10 123 34 16 29 42 58 54 58
17 1 61 43 84 83 l23 38 -41 84 c-35 71 -48 88 -81 105 -38 19 -100 24 -171
13z"/>
<path d="M23391 634 c0 -11 3 -14 6 -6 3 7 2 16 -1 19 -3 4 -6 -2 -5 -13z"/>
</g>
</svg>
