<?xml version="1.0" standalone="no"?>
<!DOCTYPE svg PUBLIC "-//W3C//DTD SVG 20010904//EN"
 "http://www.w3.org/TR/2001/REC-SVG-20010904/DTD/svg10.dtd">
<svg version="1.0" xmlns="http://www.w3.org/2000/svg"
 width="792.000000pt" height="1304.000000pt" viewBox="0 0 792.000000 1304.000000"
 preserveAspectRatio="xMidYMid meet">
<metadata>
Created by potrace 1.13, written by Peter Selinger 2001-2015
</metadata>
<g transform="translate(0.000000,1304.000000) scale(0.100000,-0.100000)"
fill="#000000" stroke="none">
<path d="M3629 12510 c-19 -10 -42 -26 -50 -36 -19 -23 -18 -154 2 -269 13
-70 14 -109 7 -175 -10 -92 -11 -337 -1 -353 3 -5 1 -12 -6 -16 -6 -4 -12 -31
-14 -61 -7 -93 -7 -93 -106 -84 -47 4 -106 7 -131 6 -25 -1 -99 6 -165 15 -66
9 -131 17 -145 18 -14 1 -37 7 -52 15 -34 16 -89 2 -130 -34 -25 -22 -26 -27
-16 -60 6 -20 19 -44 28 -54 28 -30 40 -143 26 -241 -5 -31 -3 -47 6 -53 10
-6 10 -8 1 -8 -9 0 -13 -16 -13 -44 0 -25 -4 -56 -10 -70 -10 -28 -12 -52 -10
-165 1 -70 3 -76 34 -107 36 -36 94 -53 131 -36 17 8 28 7 44 -5 16 -11 34
-13 64 -9 23 4 54 8 69 10 15 1 33 7 40 13 22 18 49 22 184 27 155 6 160 3
161 -88 0 -36 5 -61 13 -66 8 -5 8 -9 2 -11 -7 -3 -13 -72 -17 -179 -4 -96 -9
-177 -11 -179 -2 -2 0 -9 5 -15 8 -10 16 -77 11 -101 -1 -5 -3 -34 -3 -64 -2
-50 -4 -56 -35 -73 -19 -10 -50 -18 -70 -18 -82 1 -430 -10 -472 -15 -25 -2
-90 -4 -145 -4 -55 0 -109 0 -120 0 -11 -1 -81 -3 -155 -5 -74 -3 -164 -9
-200 -15 -36 -6 -153 -13 -260 -15 -107 -3 -205 -7 -218 -10 -13 -3 -47 -1
-75 5 -34 6 -104 5 -210 -2 -117 -8 -178 -9 -230 0 -40 6 -128 12 -197 13
-140 3 -152 -1 -197 -67 -22 -33 -24 -44 -18 -89 12 -87 14 -196 4 -196 -5 0
-9 -7 -9 -15 0 -8 -8 -15 -17 -16 -14 0 -13 -3 5 -11 26 -13 28 -23 7 -32 -16
-6 -21 -46 -7 -46 10 0 8 -139 -3 -208 -3 -23 -12 -63 -20 -90 -20 -64 -19
-99 5 -132 20 -28 72 -52 107 -50 10 1 48 2 85 3 43 2 73 8 85 18 39 34 218
73 383 84 58 4 110 11 115 15 6 5 20 9 30 8 36 -2 149 13 164 22 9 4 43 11 76
15 33 4 67 11 76 16 9 4 45 11 80 15 35 3 93 12 128 20 36 7 68 11 72 8 4 -2
10 0 14 6 3 5 16 10 28 10 12 0 69 7 127 15 58 8 137 19 175 24 69 9 297 20
525 26 63 2 159 4 213 6 149 4 141 23 138 -313 -1 -150 -2 -307 -2 -348 1
-133 0 -284 -2 -338 -1 -28 1 -52 4 -52 3 0 5 -82 6 -182 0 -229 9 -481 18
-530 6 -27 4 -38 -4 -38 -12 0 -10 -55 4 -145 16 -98 23 -293 13 -317 -5 -9
-4 -19 1 -22 5 -3 8 -20 7 -37 -1 -16 1 -32 5 -35 5 -2 8 -40 7 -84 0 -43 3
-83 6 -88 3 -6 2 -38 -2 -71 -5 -34 -5 -64 -1 -67 5 -3 8 -42 7 -87 0 -45 0
-129 0 -187 0 -58 1 -159 1 -225 1 -66 -5 -196 -12 -290 -14 -176 -16 -500 -4
-570 4 -22 7 -53 7 -70 3 -186 3 -249 2 -365 -1 -161 -8 -240 -24 -275 -12
-27 -55 -45 -67 -28 -3 6 -17 13 -31 17 -28 8 -72 28 -80 36 -17 18 -142 60
-178 60 -12 0 -41 17 -65 38 -46 42 -99 67 -122 59 -8 -4 -17 -2 -20 3 -8 13
-72 13 -80 0 -3 -5 -15 -10 -25 -10 -10 0 -21 -3 -24 -8 -12 -20 -16 -99 -7
-145 19 -94 22 -121 26 -226 2 -57 0 -112 -5 -121 -5 -9 -12 -52 -16 -96 -5
-54 -13 -88 -27 -108 -12 -17 -16 -31 -10 -35 5 -3 13 -19 17 -34 10 -41 63
-87 103 -89 18 -1 45 -2 61 -3 15 -1 59 -16 97 -33 39 -17 84 -34 100 -38 17
-4 41 -12 55 -19 14 -7 55 -25 93 -40 37 -15 67 -31 67 -36 0 -5 11 -9 24 -9
14 0 36 -10 50 -22 23 -20 26 -31 26 -93 1 -192 -4 -276 -21 -359 -11 -55 -15
-93 -9 -96 5 -3 9 -33 9 -66 -1 -32 2 -113 6 -179 7 -113 7 -154 4 -365 -1
-47 0 -175 1 -285 2 -232 -7 -440 -20 -465 -5 -10 -13 -49 -16 -86 -4 -38 -10
-76 -14 -84 -10 -18 -29 -117 -36 -180 -17 -164 -24 -213 -42 -275 -14 -47
-18 -75 -11 -86 5 -10 9 -28 9 -40 0 -29 39 -87 64 -95 11 -4 42 -6 69 -5 27
0 61 -5 75 -13 40 -20 93 -28 108 -16 9 8 22 7 47 -4 19 -8 71 -22 114 -31 43
-9 89 -20 103 -25 14 -4 45 -14 70 -21 25 -7 68 -23 95 -36 28 -13 58 -23 69
-23 10 0 36 -16 57 -35 22 -19 47 -35 58 -35 10 0 31 -10 46 -22 18 -14 47
-23 80 -26 50 -4 53 -3 82 33 34 41 34 54 -4 119 -12 23 -23 48 -23 57 0 9 -6
22 -14 28 -8 6 -15 41 -19 85 -3 40 -10 82 -15 92 -19 38 -31 91 -37 166 -3
43 -10 90 -16 105 -6 16 -13 118 -16 228 -5 255 -12 867 -11 920 2 42 0 490
-2 610 0 39 1 79 4 90 2 11 5 46 5 78 1 49 4 57 20 57 11 0 23 -4 26 -10 3 -5
36 -24 73 -42 37 -17 78 -45 92 -61 23 -28 129 -87 155 -87 6 0 20 -9 32 -19
11 -10 34 -26 51 -35 18 -9 39 -28 48 -42 22 -33 96 -75 136 -78 22 -2 41 6
62 25 27 24 30 33 27 71 -14 194 1 506 30 591 15 44 17 62 9 67 -7 4 -11 11
-11 16 1 19 -39 52 -70 59 -18 4 -48 16 -66 26 -19 11 -46 19 -61 19 -15 0
-48 11 -72 24 -97 53 -126 66 -151 66 -15 0 -37 8 -50 18 -30 23 -93 56 -139
73 -19 7 -53 25 -76 40 l-41 28 4 73 c3 40 8 77 13 83 8 11 -1 103 -14 123 -4
7 -4 46 -1 87 6 57 11 75 22 75 13 0 13 3 3 15 -9 11 -10 33 -5 78 13 104 13
289 0 352 -12 56 -12 72 0 135 6 29 17 110 17 125 1 13 -12 182 -16 215 -1 14
3 66 9 115 7 50 10 94 7 99 -3 6 -6 153 -7 328 -1 176 -6 323 -11 328 -5 5 -7
49 -4 97 3 48 2 107 -2 129 -4 23 -5 68 -3 100 6 96 15 187 22 224 9 45 4 113
-9 121 -10 6 -13 121 -9 319 1 63 0 206 -4 317 -5 170 -4 206 9 225 12 19 14
73 12 346 -2 178 1 344 6 370 7 39 21 529 17 612 -1 27 -1 28 7 111 l6 57 81
13 c45 7 85 12 88 11 4 0 59 3 123 8 92 8 123 7 144 -3 20 -10 74 -13 207 -11
99 2 200 5 225 8 74 8 359 8 372 0 7 -5 100 -9 208 -10 107 0 218 -4 245 -7
28 -3 94 -8 148 -12 54 -3 107 -10 117 -15 10 -6 32 -10 48 -10 16 0 58 -11
93 -24 35 -13 89 -26 119 -29 30 -3 75 -13 100 -22 58 -21 173 -13 210 15 24
18 25 23 28 151 2 73 7 140 12 149 5 10 6 30 1 46 -13 45 -6 132 18 219 32
118 32 172 -3 218 -31 41 -109 90 -146 93 -14 2 -65 7 -115 12 -105 10 -1165
10 -1181 0 -11 -7 -384 -19 -551 -18 -45 1 -90 -3 -100 -8 -27 -15 -144 -24
-268 -22 -249 4 -276 9 -267 55 2 14 0 51 -6 83 -7 31 -12 100 -12 152 -1 52
-6 151 -12 220 -7 81 -8 150 -2 195 l9 69 35 3 c54 3 319 8 375 6 28 -1 73 -2
100 -1 53 0 132 -13 154 -26 13 -8 49 31 43 48 -2 5 3 33 9 62 9 41 9 60 1 79
-7 14 -15 77 -18 139 -6 96 -4 116 10 138 13 20 18 59 23 165 7 155 -2 190
-56 217 -37 19 -127 31 -143 19 -7 -5 -35 -11 -63 -12 -27 -1 -81 -7 -119 -12
-57 -8 -72 -7 -86 6 -21 19 -57 19 -67 0 -6 -9 -33 -17 -78 -21 -58 -5 -73 -4
-84 10 -7 9 -10 16 -5 16 5 0 9 19 9 43 0 23 4 105 8 182 4 77 10 199 12 270
3 72 10 156 16 188 10 60 1 135 -21 178 -18 33 -67 51 -122 45 -28 -4 -59 -11
-70 -17 -11 -6 -68 -11 -126 -11 -80 1 -113 -3 -131 -15 -19 -12 -44 -14 -125
-10 -112 6 -116 7 -166 29 -61 26 -83 28 -121 8z"/>
</g>
</svg>
