<?xml version="1.0" standalone="no"?>
<!DOCTYPE svg PUBLIC "-//W3C//DTD SVG 20010904//EN"
 "http://www.w3.org/TR/2001/REC-SVG-20010904/DTD/svg10.dtd">
<svg version="1.0" xmlns="http://www.w3.org/2000/svg"
 width="1072.000000pt" height="1703.000000pt" viewBox="0 0 1072.000000 1703.000000"
 preserveAspectRatio="xMidYMid meet">
<metadata>
Created by potrace 1.13, written by Peter Selinger 2001-2015
</metadata>
<g transform="translate(0.000000,1703.000000) scale(0.100000,-0.100000)"
fill="#000000" stroke="none">
<path d="M6455 16602 c-11 -2 -24 -7 -30 -11 -5 -4 -37 -18 -70 -31 -33 -13
-71 -32 -84 -42 -13 -10 -35 -18 -50 -18 -35 0 -53 -13 -45 -33 3 -9 2 -17 -4
-17 -5 0 -26 -12 -48 -26 -52 -35 -165 -94 -181 -94 -8 0 -40 -11 -73 -25 -50
-21 -72 -24 -147 -22 -69 1 -96 -2 -123 -16 -37 -19 -211 -31 -440 -30 -106 1
-300 29 -375 55 -22 8 -80 15 -130 17 -49 1 -97 7 -106 12 -66 35 -192 71
-266 76 -81 5 -83 4 -110 -24 -16 -17 -36 -40 -45 -53 -28 -38 -21 -143 11
-170 37 -31 60 -96 64 -180 1 -29 8 -50 20 -58 10 -8 17 -26 17 -48 0 -19 7
-45 15 -57 8 -13 16 -32 18 -42 1 -11 5 -24 8 -30 10 -16 22 -69 20 -82 -1 -7
3 -13 9 -13 6 0 10 -8 9 -17 -4 -28 11 -113 20 -113 5 0 9 -11 9 -23 0 -13 7
-39 16 -58 9 -19 18 -63 21 -99 8 -107 17 -170 24 -170 4 0 7 -13 7 -30 0 -16
8 -44 17 -62 24 -51 29 -69 32 -118 1 -25 3 -47 4 -50 4 -9 11 -94 11 -129 0
-19 5 -40 10 -46 5 -6 12 -33 16 -60 3 -28 9 -52 13 -55 3 -3 7 -32 9 -65 1
-33 7 -80 12 -105 5 -25 8 -70 6 -100 -2 -30 -4 -67 -5 -81 -1 -19 -9 -30 -28
-37 -34 -14 -252 -23 -273 -12 -9 5 -45 11 -80 14 -36 3 -90 9 -122 12 -31 4
-103 7 -160 9 -56 1 -146 11 -198 22 -52 12 -147 24 -210 27 -141 9 -266 24
-302 38 -15 5 -54 10 -88 10 -39 0 -83 9 -128 25 -37 14 -87 31 -112 38 -76
22 -164 57 -181 71 -9 8 -18 11 -22 8 -3 -3 -16 1 -29 10 -48 34 -105 13 -136
-52 -31 -63 -13 -298 34 -443 8 -25 16 -69 19 -98 3 -29 9 -69 14 -89 11 -40
18 -242 9 -258 -3 -5 -4 -34 -3 -64 1 -35 -3 -61 -12 -71 -10 -12 -11 -22 -2
-49 9 -25 9 -44 1 -79 -7 -25 -14 -62 -17 -81 -4 -19 -13 -48 -21 -64 -7 -16
-14 -35 -14 -42 0 -7 -13 -41 -30 -77 -16 -35 -32 -82 -36 -105 -4 -23 -10
-42 -15 -42 -5 0 -9 -6 -9 -14 0 -7 -11 -25 -25 -40 -14 -15 -23 -31 -20 -36
3 -5 -5 -16 -19 -25 -13 -9 -29 -29 -36 -45 -7 -17 -17 -30 -22 -30 -5 0 -7
-4 -4 -9 3 -5 -1 -14 -9 -21 -8 -7 -15 -18 -15 -24 -1 -6 -9 -28 -19 -49 -18
-39 -19 -48 -6 -109 6 -30 3 -42 -14 -64 -31 -39 -29 -123 3 -161 20 -24 32
-28 79 -31 50 -3 65 2 139 41 137 73 227 127 256 154 7 7 34 19 60 27 26 8 73
26 105 40 32 14 64 26 73 26 8 0 33 9 54 20 22 11 40 17 40 13 0 -4 5 -2 12 5
7 7 21 12 32 12 11 0 27 6 35 14 9 8 57 24 106 36 50 12 112 28 139 36 26 8
55 14 63 14 8 0 33 11 57 24 23 13 51 28 62 34 10 6 53 16 94 22 41 7 89 18
105 25 17 7 41 16 55 18 14 3 54 13 90 22 36 8 76 17 89 19 24 5 64 19 117 42
18 8 51 16 75 19 79 10 209 38 209 45 0 4 21 6 48 4 26 -2 79 3 117 11 87 18
151 16 154 -5 1 -8 1 -92 1 -187 0 -98 5 -184 11 -200 6 -15 12 -97 14 -181 3
-84 8 -158 12 -165 10 -16 10 -37 1 -64 -4 -12 -4 -24 0 -27 8 -4 7 -53 -3
-156 -12 -124 -4 -241 19 -308 7 -20 11 -53 8 -72 -7 -44 -4 -279 3 -342 l6
-47 -188 1 c-103 1 -251 -2 -328 -7 -184 -11 -225 -10 -570 14 -60 4 -114 4
-120 0 -34 -23 -265 -26 -375 -5 -14 3 -45 8 -70 11 -25 4 -49 10 -55 14 -38
31 -252 62 -330 49 -58 -10 -296 -12 -340 -3 -16 3 -56 8 -89 10 -32 3 -82 11
-110 19 -105 30 -188 38 -431 41 -137 2 -263 6 -280 9 -16 3 -50 7 -75 10 -70
6 -156 34 -262 83 l-97 45 -36 -22 c-47 -29 -75 -75 -75 -121 0 -42 25 -109
41 -109 18 0 70 -63 91 -112 11 -27 24 -48 29 -48 5 0 9 -9 9 -21 0 -11 12
-55 27 -97 14 -42 26 -90 24 -106 -1 -15 3 -34 8 -40 13 -15 26 -290 15 -308
-5 -7 -9 -24 -10 -38 -1 -44 -15 -109 -29 -142 -7 -18 -16 -49 -19 -68 -5 -34
-19 -101 -30 -149 -3 -13 -13 -29 -22 -36 -11 -8 -13 -14 -6 -19 6 -4 7 -16 2
-34 -5 -15 -23 -71 -39 -124 -17 -54 -35 -105 -40 -115 -6 -10 -20 -40 -31
-68 -39 -92 -65 -137 -88 -153 -13 -8 -30 -29 -39 -45 -13 -26 -65 -98 -104
-145 -18 -22 -5 -149 18 -180 24 -33 117 -80 157 -81 41 -1 632 293 652 324
10 16 29 26 57 30 23 3 56 10 72 15 17 5 41 12 55 14 60 12 114 27 131 37 11
5 43 12 72 15 107 10 227 36 392 85 22 6 49 13 60 14 45 7 202 44 230 53 17 6
46 13 65 16 96 16 178 33 203 44 32 13 55 19 112 27 22 3 47 7 55 10 8 2 38 7
65 10 28 4 66 9 85 11 19 3 67 6 105 8 127 6 199 18 245 38 79 36 142 48 280
54 74 3 139 10 145 15 5 5 39 9 76 9 37 0 70 4 73 9 3 5 50 9 103 10 54 1 116
7 138 12 22 6 49 10 60 10 11 -1 64 -2 117 -2 l97 -1 5 -36 c4 -20 8 -106 11
-190 2 -101 8 -158 16 -168 7 -8 13 -34 15 -57 2 -23 5 -52 8 -64 7 -31 9
-243 2 -271 -3 -12 1 -28 8 -35 9 -8 11 -19 5 -34 -10 -27 -14 -217 -5 -232 4
-6 4 -11 -1 -11 -10 0 -11 -35 -11 -210 1 -74 0 -148 0 -165 -4 -75 -11 -137
-16 -151 -3 -9 -3 -21 1 -26 6 -11 5 -106 -3 -183 -2 -22 -6 -74 -9 -115 -3
-41 -7 -87 -10 -102 -3 -17 -1 -28 6 -28 7 0 8 -7 3 -17 -6 -15 -10 -101 -13
-305 -1 -20 -8 -43 -16 -52 -19 -19 -19 -25 1 -48 22 -23 22 -112 1 -248 -14
-85 -15 -133 -8 -255 9 -161 8 -264 -3 -360 -9 -74 -25 -231 -30 -305 -3 -30
0 -70 5 -87 7 -22 7 -56 0 -105 -9 -65 -16 -299 -10 -338 3 -21 -11 -232 -16
-241 -3 -3 -5 -55 -6 -115 -1 -98 -10 -182 -26 -224 -3 -8 -4 -69 -3 -135 5
-259 5 -317 -1 -321 -4 -2 -6 -40 -4 -84 1 -45 -2 -83 -6 -86 -5 -3 -6 -18 -3
-34 4 -16 0 -68 -7 -117 -8 -48 -13 -95 -12 -103 2 -8 -2 -27 -8 -42 -14 -35
-17 -63 -24 -238 -3 -80 -10 -159 -16 -176 -5 -17 -9 -44 -9 -60 0 -37 -7 -93
-16 -121 -3 -13 -2 -23 4 -23 10 0 8 -126 -5 -288 -3 -46 -1 -78 5 -84 7 -7 8
-17 2 -29 -6 -10 -7 -20 -2 -23 19 -11 -2 -215 -29 -285 -12 -28 -19 -165 -23
-406 -2 -99 -8 -200 -14 -225 -24 -104 -35 -188 -38 -288 -3 -113 -11 -169
-38 -267 -9 -32 -16 -75 -16 -95 -1 -19 -7 -53 -15 -75 -8 -21 -12 -41 -10
-43 2 -2 -3 -22 -11 -44 -19 -55 -18 -81 6 -111 12 -15 27 -48 35 -75 18 -58
60 -101 108 -109 28 -4 51 2 101 26 103 50 179 57 299 31 22 -5 70 -4 114 2
55 7 91 7 127 -1 28 -6 110 -13 182 -16 105 -4 134 -2 144 10 9 11 21 10 78
-11 37 -13 79 -24 94 -24 55 0 218 -39 218 -52 0 -5 6 -8 13 -5 6 2 23 -1 37
-8 94 -47 181 -85 193 -85 31 0 227 -79 227 -92 0 -3 9 -4 19 -1 17 4 50 -13
98 -52 7 -5 27 -21 44 -35 18 -14 48 -40 68 -58 20 -19 57 -45 83 -58 30 -15
54 -37 65 -58 10 -18 41 -52 68 -75 28 -23 60 -52 73 -63 38 -35 111 -69 165
-78 62 -9 93 3 131 53 36 47 35 103 -3 176 -16 31 -53 106 -82 166 -29 61 -60
121 -69 135 -9 14 -23 45 -30 70 -8 25 -18 48 -23 51 -4 3 -14 41 -22 85 -26
148 -77 321 -98 335 -6 4 -7 14 -4 22 3 9 0 18 -7 20 -17 7 -44 146 -62 324
-4 34 -11 60 -15 57 -5 -3 -9 4 -9 16 0 11 -12 44 -26 73 -46 90 -84 190 -95
252 -6 33 -15 69 -19 80 -5 11 -8 48 -9 83 0 34 -4 95 -10 135 -5 39 -13 101
-17 137 -3 36 -10 70 -14 75 -5 6 -11 52 -14 102 -2 51 -7 96 -10 101 -2 4 -5
51 -5 104 0 52 -5 108 -11 122 -13 36 -13 79 1 93 8 8 7 17 -2 34 -7 15 -13
68 -14 134 -2 61 -7 148 -14 195 -6 47 -13 102 -16 124 -2 21 -9 43 -14 50 -5
6 -11 40 -13 76 -3 36 -11 90 -20 120 -15 57 -16 92 -4 148 5 20 4 38 -3 46
-6 7 -13 53 -17 102 -3 49 -9 101 -14 116 -6 19 -5 30 6 39 13 10 13 14 0 28
-9 10 -17 47 -20 96 -8 108 -23 270 -26 270 -1 0 -3 43 -5 95 -2 52 -6 151 -9
220 -3 69 -8 212 -10 318 -3 107 -10 217 -16 245 -6 29 -15 129 -18 222 -7
161 -7 247 -4 495 1 58 -1 126 -4 153 -5 41 -3 50 17 67 l24 19 -22 1 c-15 0
-24 8 -28 22 -14 63 -20 462 -11 693 9 223 6 376 -6 398 -8 14 -13 85 -15 209
-2 102 -6 195 -10 206 -8 22 -2 150 15 322 6 58 9 139 6 180 -3 41 -7 104 -9
140 -2 36 -9 112 -15 170 -7 58 -13 187 -13 287 -1 106 -6 186 -12 192 -9 9
-3 386 7 396 2 2 204 5 448 6 l445 1 439 -76 c241 -42 446 -80 455 -85 9 -5
36 -11 60 -15 24 -4 49 -10 55 -14 18 -11 80 -32 97 -32 9 0 45 -9 80 -21 74
-24 163 -48 199 -54 56 -9 118 -25 170 -45 30 -11 62 -20 72 -20 20 0 105 -26
130 -40 10 -6 26 -10 37 -10 19 0 98 -23 262 -76 42 -13 84 -24 92 -24 9 0 21
-9 27 -20 14 -26 62 -50 101 -50 42 0 184 -86 228 -139 19 -23 40 -41 46 -41
18 0 95 -75 95 -93 0 -19 11 -22 26 -7 6 6 23 6 48 -1 21 -6 40 -8 43 -6 2 3
21 -6 40 -19 44 -30 71 -30 118 -3 38 23 65 64 65 99 0 27 -41 149 -74 219
-15 33 -23 64 -20 80 6 31 -89 613 -113 691 -14 46 -16 98 -15 325 3 469 12
565 67 675 7 14 18 43 25 65 7 22 17 51 23 65 5 14 11 40 13 58 2 18 12 44 23
58 44 55 34 141 -21 176 -26 17 -114 48 -120 43 -2 -2 -51 -11 -108 -19 -58
-9 -118 -22 -135 -30 -16 -8 -57 -27 -90 -42 -33 -15 -62 -31 -65 -34 -12 -17
-71 -38 -150 -55 -47 -9 -130 -35 -184 -58 l-100 -40 -188 -1 c-115 -1 -192
-6 -196 -12 -8 -12 -101 -34 -142 -34 -16 0 -30 -4 -32 -9 -1 -6 -54 -11 -115
-13 -62 -2 -113 -6 -113 -10 0 -5 -24 -8 -54 -8 -29 0 -82 -9 -117 -21 -60
-19 -291 -45 -308 -35 -10 6 -197 7 -276 1 -33 -3 -61 -9 -63 -15 -2 -5 -14
-10 -27 -10 -13 0 -35 -4 -48 -9 -13 -5 -84 -10 -158 -11 -74 -1 -168 -6 -209
-12 -59 -7 -89 -6 -140 5 -46 11 -69 12 -78 5 -35 -30 -286 -41 -412 -19 -137
24 -136 24 -150 92 -10 46 -11 85 -3 157 5 54 6 135 3 182 -9 105 -3 333 10
414 8 51 23 248 21 281 -4 92 -6 716 -2 722 34 46 142 42 247 -9 12 -5 68 -11
125 -13 169 -5 314 -20 334 -36 6 -4 40 -10 75 -13 93 -9 140 -15 180 -25 19
-5 64 -10 99 -11 36 0 68 -3 72 -6 4 -2 22 -6 39 -8 18 -2 35 -8 39 -14 3 -5
40 -15 81 -22 44 -7 102 -25 140 -44 36 -18 83 -37 105 -44 135 -38 161 -47
173 -59 7 -7 21 -13 31 -13 10 0 21 -3 24 -7 12 -11 140 -52 165 -53 12 0 22
-4 22 -8 0 -10 120 -52 148 -52 73 0 126 96 90 163 -6 12 -12 52 -13 89 -1 58
-4 70 -28 94 -24 24 -33 57 -28 102 1 6 -5 12 -13 12 -21 0 -31 22 -56 125
-12 50 -33 115 -47 145 -22 47 -26 68 -26 150 1 84 12 225 26 315 2 17 8 57
11 90 11 98 27 148 61 190 18 22 37 50 43 62 7 12 18 27 25 35 7 7 18 32 25
55 7 24 21 51 31 60 11 10 24 37 30 60 6 23 16 45 21 48 6 3 10 14 10 24 0 23
47 74 60 66 6 -4 10 11 10 38 0 31 8 56 26 82 23 34 27 68 7 64 -20 -5 -124
46 -157 75 -33 30 -31 29 -109 26 -38 -1 -73 -10 -101 -25 -24 -13 -46 -22
-48 -19 -7 6 -161 -75 -186 -99 -12 -11 -36 -22 -53 -23 -60 -4 -104 -16 -166
-45 -34 -16 -70 -29 -80 -29 -10 0 -51 -16 -90 -36 -48 -24 -90 -37 -124 -39
-28 -2 -67 -10 -88 -18 -119 -48 -149 -56 -226 -57 -102 -1 -141 -4 -185 -13
-19 -3 -60 -9 -90 -12 -30 -3 -73 -10 -95 -16 -22 -6 -71 -13 -108 -14 -38 -2
-84 -6 -103 -10 -19 -3 -96 -8 -171 -10 -164 -6 -178 0 -169 75 3 25 8 85 12
135 3 49 10 98 16 109 6 10 10 50 9 89 0 38 4 87 9 108 24 94 29 114 30 121 1
4 9 36 17 70 9 35 17 80 18 100 3 34 26 115 86 303 11 34 22 97 25 140 6 102
8 118 15 130 4 6 17 44 29 85 12 41 32 95 45 120 13 25 23 64 24 88 0 23 10
69 21 102 11 33 20 66 20 74 0 27 62 140 97 177 18 19 37 49 41 65 11 49 8
120 -7 148 -25 45 -102 80 -156 68z"/>
</g>
</svg>
