<?xml version="1.0" standalone="no"?>
<!DOCTYPE svg PUBLIC "-//W3C//DTD SVG 20010904//EN"
 "http://www.w3.org/TR/2001/REC-SVG-20010904/DTD/svg10.dtd">
<svg version="1.0" xmlns="http://www.w3.org/2000/svg"
 width="1336.000000pt" height="1553.000000pt" viewBox="0 0 1336.000000 1553.000000"
 preserveAspectRatio="xMidYMid meet">
<metadata>
Created by potrace 1.13, written by Peter Selinger 2001-2015
</metadata>
<g transform="translate(0.000000,1553.000000) scale(0.100000,-0.100000)"
fill="#000000" stroke="none">
<path d="M875 14854 c-9 -9 -14 -22 -12 -28 2 -6 12 -49 22 -96 9 -47 32 -141
51 -210 49 -179 71 -291 79 -400 4 -52 7 -102 7 -110 -1 -20 14 -143 38 -305
43 -287 65 -1099 41 -1480 -6 -104 -13 -352 -15 -550 -2 -198 -10 -488 -18
-645 -9 -172 -11 -333 -7 -405 4 -66 3 -149 -1 -185 -11 -78 -20 -805 -25
-1815 -2 -456 -7 -763 -13 -800 -6 -33 -13 -179 -17 -325 -11 -494 -12 -514
-41 -822 -8 -93 -13 -176 -10 -186 4 -11 1 -72 -5 -138 -11 -124 -14 -172 -24
-419 -3 -82 -10 -213 -15 -290 -15 -204 -41 -688 -41 -775 -1 -41 -7 -124 -15
-184 -8 -61 -14 -148 -14 -194 0 -46 -6 -110 -14 -141 -7 -31 -19 -114 -26
-186 -7 -71 -22 -161 -32 -200 -11 -38 -26 -108 -33 -154 -8 -47 -19 -98 -25
-115 -6 -17 -17 -69 -25 -116 -8 -47 -21 -123 -30 -170 -9 -47 -23 -135 -30
-197 -8 -62 -18 -129 -24 -150 -5 -21 -17 -74 -26 -118 -9 -44 -23 -100 -30
-125 -8 -25 -17 -69 -20 -98 -3 -30 -10 -65 -16 -78 -5 -14 -9 -39 -9 -56 0
-46 -40 -160 -63 -181 -16 -14 -18 -22 -10 -40 7 -15 6 -40 -4 -82 -8 -33 -20
-96 -28 -141 -7 -45 -20 -95 -29 -112 -9 -17 -16 -42 -16 -55 0 -13 -9 -51
-21 -85 -12 -35 -19 -73 -15 -85 7 -30 67 -61 104 -54 48 10 228 -43 365 -107
51 -24 112 -52 137 -62 25 -10 87 -47 139 -82 51 -35 134 -87 185 -116 81 -47
165 -103 461 -304 133 -91 190 -140 302 -261 116 -125 177 -181 198 -181 23 0
28 20 11 45 -10 15 -16 46 -16 78 0 29 -13 100 -29 158 -16 57 -39 142 -51
189 -43 170 -155 432 -234 544 -67 95 -66 90 -10 82 150 -21 320 -55 459 -91
72 -18 150 -37 175 -40 114 -19 458 -149 678 -257 57 -28 86 -38 93 -31 7 7
10 92 9 233 -1 201 -3 228 -23 289 -18 53 -27 67 -44 69 -27 4 -25 29 -23
-257 l2 -224 -26 7 c-14 3 -76 30 -138 60 -62 29 -149 65 -193 80 -44 14 -118
39 -165 56 -130 47 -411 116 -655 162 -288 54 -326 58 -775 83 -238 13 -552 6
-699 -15 -82 -12 -148 -17 -153 -12 -9 9 22 135 49 199 8 20 23 76 34 124 16
77 61 199 72 199 2 0 52 10 113 21 60 12 134 25 164 29 30 4 84 15 120 23 128
30 290 40 458 29 86 -6 195 -12 242 -12 47 0 110 -5 140 -10 30 -6 102 -14
160 -19 125 -10 271 -36 320 -56 55 -23 229 -72 300 -85 36 -6 79 -16 95 -22
17 -5 46 -13 65 -18 19 -4 53 -14 75 -23 22 -8 61 -18 87 -22 53 -7 65 -17 45
-37 -31 -32 -108 -139 -117 -163 -5 -14 -10 -50 -10 -79 0 -41 6 -62 29 -97
51 -78 86 -113 105 -106 24 10 15 58 -21 109 -23 35 -25 44 -19 100 7 74 23
98 155 228 53 52 106 107 117 121 38 47 148 49 319 8 86 -21 220 -78 273 -117
114 -83 292 -312 333 -427 22 -64 25 -155 5 -193 -8 -15 -33 -44 -56 -64 -77
-70 -28 -105 59 -43 39 28 54 47 70 89 25 67 25 147 0 233 -10 38 -19 73 -19
79 0 7 29 14 69 17 39 3 78 10 89 16 10 5 49 14 88 20 38 6 112 18 164 26 52
8 115 19 140 25 25 6 59 9 77 5 20 -3 81 7 170 29 270 67 296 70 503 73 183 3
258 -3 405 -29 110 -19 193 -48 252 -88 70 -46 156 -142 183 -202 48 -110 103
-359 83 -379 -15 -15 -119 30 -184 79 -114 84 -175 101 -396 109 -164 6 -289
-5 -408 -37 -80 -21 -221 -46 -345 -61 -47 -5 -116 -18 -155 -28 -275 -72
-563 -110 -836 -111 -108 0 -276 23 -294 41 -5 5 -10 42 -12 82 -4 124 -24
279 -38 307 -16 30 -37 42 -60 34 -12 -5 -14 -37 -9 -217 7 -287 14 -305 118
-312 23 -2 75 -9 116 -16 93 -14 118 -15 355 -1 230 13 460 44 529 70 28 11
78 25 111 32 33 6 87 18 120 25 33 8 85 17 115 20 68 7 209 31 315 52 125 25
200 34 328 40 139 6 155 3 200 -37 31 -27 35 -35 40 -106 7 -75 8 -78 92 -203
111 -166 164 -202 356 -242 102 -21 135 -24 309 -21 107 2 215 8 239 13 25 5
82 12 127 14 87 4 111 12 200 72 49 32 97 90 231 282 l43 61 95 0 c53 0 158
-7 233 -15 121 -14 164 -24 287 -66 17 -6 64 -19 105 -30 41 -11 98 -28 125
-38 51 -20 93 -30 221 -52 55 -9 106 -9 215 -1 179 14 222 22 282 54 55 30
197 160 197 181 0 8 9 35 20 59 11 25 26 76 34 114 8 38 20 83 26 99 7 17 16
59 20 95 5 36 12 83 15 106 6 34 4 42 -10 48 -26 10 -51 -18 -75 -81 -16 -42
-110 -383 -110 -398 0 -8 -142 -115 -175 -133 -138 -69 -475 -64 -656 12 -47
19 -106 38 -130 42 -24 4 -66 17 -94 30 -96 44 -233 70 -460 85 -183 12 -194
12 -275 0 -130 -18 -271 -33 -276 -29 -9 10 -22 323 -13 345 35 92 154 124
466 124 224 -1 419 -17 543 -46 58 -13 139 -31 180 -39 41 -8 111 -24 155 -36
68 -19 108 -23 266 -24 l186 -1 11 -115 c13 -128 35 -219 59 -237 20 -16 38
-3 48 34 3 15 15 38 26 51 27 35 24 72 -17 197 l-35 109 21 101 c32 148 73
227 177 344 126 142 170 169 313 193 148 25 236 21 313 -14 45 -21 57 -32 57
-50 0 -45 21 -97 63 -160 70 -103 94 -150 111 -215 20 -77 20 -136 0 -174 -18
-36 -13 -59 14 -59 20 0 52 31 71 67 17 33 13 111 -9 198 -24 95 -24 94 80
125 223 65 240 68 460 80 392 22 824 28 930 13 52 -8 136 -18 185 -23 101 -11
170 -28 580 -145 50 -15 106 -29 125 -33 24 -5 39 -16 47 -33 37 -78 121 -450
101 -449 -2 0 -43 14 -92 30 -49 17 -98 30 -109 30 -11 0 -60 11 -111 25 -50
13 -146 31 -214 40 -68 8 -162 21 -210 30 -160 27 -346 44 -477 43 -71 0 -158
5 -192 12 -46 9 -135 11 -330 6 -148 -3 -286 -7 -308 -9 -22 -2 -83 -7 -135
-11 -52 -4 -160 -20 -240 -36 -80 -16 -165 -32 -190 -36 -25 -3 -83 -20 -129
-36 -59 -21 -87 -26 -94 -19 -6 6 -10 35 -10 63 1 47 -7 112 -23 186 -5 26
-35 29 -55 5 -19 -22 -21 -177 -3 -222 8 -18 14 -49 14 -68 0 -35 15 -72 34
-85 21 -14 58 -8 173 28 64 20 141 40 172 45 31 4 110 20 176 34 121 27 374
52 603 61 108 4 123 2 129 -12 4 -10 -14 -56 -45 -118 -96 -189 -184 -514
-211 -781 -8 -75 -7 -105 2 -124 15 -32 43 -39 52 -12 3 10 66 78 140 149
l134 131 230 115 c206 104 250 122 443 181 117 36 238 74 268 85 30 11 125 35
210 55 85 19 206 48 268 65 69 18 123 27 142 24 25 -5 31 -3 39 18 5 13 20 32
34 41 14 9 28 26 32 37 8 25 -12 151 -32 201 -8 20 -25 85 -38 145 -20 93 -58
209 -166 510 -25 71 -78 264 -96 349 -7 39 -23 108 -34 155 -12 54 -19 121
-19 183 0 57 -8 136 -19 190 -42 205 -52 294 -49 417 2 105 -3 184 -22 335
-18 151 -27 238 -51 500 -10 103 -15 217 -24 495 -2 63 -7 180 -12 260 -10
168 -9 596 1 785 5 79 3 165 -3 220 -6 50 -15 198 -21 330 -5 132 -15 348 -21
480 -17 339 -13 1096 6 1178 10 45 16 167 20 452 3 215 9 469 13 565 4 96 3
222 -1 280 -12 140 -2 463 16 575 9 50 20 236 27 420 6 182 16 350 22 375 5
25 12 230 14 455 4 474 18 800 39 935 8 52 20 127 25 165 6 39 15 99 20 135 5
36 10 94 10 130 0 82 24 280 50 413 11 56 25 161 30 232 12 156 14 171 45 305
13 58 30 141 39 185 8 44 25 114 39 155 14 41 38 116 53 165 14 50 41 122 59
160 18 39 51 108 73 155 21 47 42 97 46 112 4 17 18 34 36 43 34 17 40 54 14
76 -12 10 -22 10 -46 1 -23 -9 -48 -9 -97 0 -62 10 -73 9 -196 -24 -71 -20
-157 -41 -190 -48 -33 -6 -78 -16 -100 -21 -53 -11 -320 -46 -415 -54 -41 -3
-127 -12 -190 -20 -178 -21 -354 -35 -600 -45 -304 -12 -3004 -19 -3680 -9
-107 2 -402 -1 -655 -5 -396 -8 -477 -7 -585 7 -94 12 -258 17 -655 21 -1106
12 -1928 33 -2100 55 -38 5 -142 15 -230 21 -88 6 -223 18 -300 26 -77 8 -232
21 -345 29 -113 8 -227 19 -255 24 -27 6 -100 15 -162 20 -61 6 -160 21 -220
35 -68 15 -158 27 -243 31 -228 10 -401 25 -495 41 -181 31 -205 37 -237 60
-38 28 -33 28 -53 8z m265 -119 c68 -20 349 -54 615 -74 72 -6 177 -19 234
-30 56 -11 130 -23 164 -26 34 -4 94 -13 132 -21 39 -8 167 -21 285 -29 118
-8 240 -19 270 -24 31 -5 114 -12 185 -16 72 -4 218 -15 325 -26 366 -36 466
-39 1420 -49 919 -10 1131 -16 1380 -42 99 -10 110 -13 80 -20 -19 -5 -57 -16
-85 -24 -179 -54 -227 -67 -285 -79 -109 -21 -176 -42 -258 -79 -42 -19 -106
-40 -142 -46 -63 -11 -159 -37 -323 -86 -99 -30 -408 -144 -512 -189 -44 -19
-116 -46 -160 -61 -87 -28 -218 -93 -365 -180 -52 -31 -104 -60 -115 -64 -11
-5 -56 -32 -100 -62 -44 -30 -122 -82 -173 -116 -150 -101 -418 -306 -524
-400 -32 -29 -63 -50 -68 -47 -17 11 -11 46 46 270 31 121 60 240 65 265 24
136 51 260 64 299 8 25 15 61 15 80 1 20 7 54 15 76 19 53 19 110 -1 130 -25
24 -44 1 -44 -52 0 -25 -8 -75 -19 -111 -10 -37 -28 -110 -40 -162 -72 -317
-97 -419 -141 -575 -34 -124 -43 -202 -29 -245 l12 -32 -134 -135 c-74 -75
-144 -147 -157 -161 -13 -13 -25 -22 -28 -20 -11 12 62 268 87 303 46 65 167
472 188 633 6 42 18 131 27 197 19 138 20 230 4 330 -14 92 -19 105 -35 105
-20 0 -24 -23 -24 -155 0 -66 -7 -163 -16 -215 -8 -52 -22 -142 -30 -200 -8
-58 -20 -132 -25 -165 -21 -116 -123 -431 -177 -550 -48 -105 -163 -430 -163
-461 0 -10 -59 -85 -230 -292 -146 -176 -196 -256 -328 -517 -12 -22 -34 -69
-51 -105 -16 -36 -49 -94 -72 -130 -58 -89 -107 -211 -225 -560 -37 -107 -89
-258 -116 -335 -58 -165 -74 -234 -87 -375 -6 -58 -18 -161 -26 -230 -9 -69
-20 -217 -25 -330 -5 -113 -13 -221 -19 -240 -16 -50 -16 -129 -2 -249 8 -70
10 -157 5 -262 -8 -182 2 -303 46 -559 6 -30 15 -93 20 -140 6 -47 19 -119 29
-160 11 -41 22 -98 25 -126 4 -28 20 -91 36 -139 17 -49 30 -97 30 -107 0 -10
7 -29 15 -41 8 -12 32 -75 55 -140 40 -118 110 -294 148 -377 12 -25 38 -88
58 -140 20 -52 67 -151 103 -220 37 -69 90 -170 116 -224 27 -55 65 -120 85
-145 20 -25 53 -77 74 -116 22 -38 69 -114 105 -168 36 -54 77 -115 91 -136
56 -87 112 -160 174 -231 36 -41 87 -100 113 -131 26 -31 60 -64 75 -73 27
-17 184 -170 293 -288 65 -69 194 -170 240 -188 55 -21 182 -112 200 -143 10
-18 44 -66 75 -107 31 -41 82 -113 113 -160 32 -48 94 -122 144 -170 108 -105
177 -195 242 -320 75 -145 97 -241 72 -324 -5 -17 -17 -57 -26 -89 l-17 -59
-61 5 c-353 27 -506 55 -667 122 -47 19 -91 35 -97 35 -17 0 -39 46 -53 106
-11 48 -32 117 -65 219 -9 28 -32 104 -51 170 -19 66 -43 147 -53 180 -11 33
-25 89 -31 125 -12 68 -62 225 -86 273 -8 15 -28 67 -44 115 -28 83 -56 161
-122 337 -17 44 -35 93 -41 108 -16 44 -35 59 -58 47 -10 -6 -19 -21 -19 -33
0 -21 126 -402 220 -667 48 -135 74 -225 100 -335 10 -44 34 -131 53 -193 19
-62 30 -115 25 -118 -5 -3 -44 11 -86 31 -94 45 -212 85 -252 85 -36 0 -56 27
-69 96 -5 27 -26 90 -46 139 -20 50 -47 124 -60 165 -12 41 -55 180 -94 308
-39 129 -71 250 -71 270 0 20 -14 84 -30 142 -17 58 -30 117 -30 132 0 14 -23
93 -50 175 -28 81 -62 190 -75 240 -23 86 -42 142 -82 233 -8 19 -33 89 -55
155 -55 168 -97 265 -114 265 -23 0 -16 -42 30 -187 25 -76 52 -167 61 -203 9
-36 28 -96 42 -135 26 -73 39 -112 75 -230 12 -38 43 -125 70 -192 26 -66 48
-137 48 -157 0 -19 7 -56 16 -82 9 -26 26 -99 39 -163 38 -185 69 -308 149
-576 91 -302 151 -533 143 -542 -8 -7 -69 30 -164 99 -80 57 -103 71 -319 182
-66 35 -147 79 -180 99 -32 20 -84 45 -114 56 l-55 19 -12 119 c-6 65 -30 208
-53 318 -63 312 -142 846 -180 1220 -12 110 -27 255 -35 322 -24 207 -35 456
-33 753 3 362 -15 531 -53 493 -11 -11 -24 -437 -24 -773 0 -166 18 -470 36
-610 5 -41 14 -120 19 -175 5 -55 18 -172 29 -260 11 -88 27 -221 36 -295 30
-252 65 -494 95 -645 60 -307 71 -390 66 -482 -2 -48 -5 -89 -5 -90 -1 -1 -20
6 -43 17 -134 58 -513 50 -717 -15 l-23 -8 6 89 c4 49 13 157 21 239 8 83 19
285 25 450 6 165 15 343 20 395 5 52 14 199 20 325 6 127 15 298 20 380 5 83
14 245 20 360 6 116 17 300 25 410 8 110 17 288 20 395 3 107 12 285 21 395
19 259 27 1466 22 3261 0 124 3 167 15 190 17 33 33 255 29 394 -4 164 -5 539
-1 950 5 507 -11 935 -41 1105 -28 156 -50 352 -50 440 0 39 -5 99 -10 135 -9
52 -85 379 -106 453 -11 37 64 43 166 12z m11670 -121 c0 -9 -38 -92 -85 -185
-49 -99 -97 -210 -115 -271 -17 -57 -44 -143 -60 -193 -16 -49 -30 -101 -33
-115 -2 -14 -23 -117 -45 -230 -22 -113 -43 -245 -47 -295 -3 -49 -12 -126
-20 -170 -27 -148 -45 -291 -60 -481 -8 -104 -21 -234 -30 -289 -46 -316 -56
-492 -60 -1055 -2 -307 -7 -446 -19 -535 -32 -244 -41 -375 -42 -595 0 -124
-6 -292 -13 -375 -7 -92 -10 -190 -5 -255 10 -143 7 -360 -7 -505 -7 -66 -12
-273 -13 -460 -1 -187 -8 -416 -15 -510 -16 -201 -16 -890 -1 -1165 6 -102 13
-266 15 -365 3 -99 10 -218 16 -265 7 -56 8 -208 4 -445 -4 -209 -2 -467 4
-615 6 -140 15 -370 21 -510 6 -140 15 -289 21 -330 5 -41 14 -138 19 -215 5
-77 12 -157 15 -179 l6 -38 -30 25 c-31 26 -102 45 -251 67 -205 31 -365 21
-519 -30 -49 -17 -95 -30 -101 -30 -10 0 -11 23 -7 98 30 473 32 493 57 577
10 33 23 116 29 185 24 245 44 382 81 550 11 47 29 159 40 250 11 91 25 192
30 226 6 33 10 83 10 110 0 27 7 87 16 134 16 86 26 528 14 581 -6 23 -6 23
-14 4 -12 -31 -37 -194 -62 -410 -8 -71 -19 -164 -24 -205 -6 -41 -14 -115
-20 -165 -5 -49 -14 -121 -19 -160 -6 -38 -15 -113 -22 -165 -6 -52 -25 -153
-41 -225 -33 -142 -62 -341 -79 -535 -5 -69 -19 -161 -29 -205 -10 -44 -24
-145 -30 -225 -16 -207 -18 -215 -55 -213 -152 7 -308 2 -375 -12 -41 -10 -94
-21 -117 -26 -23 -4 -59 -15 -80 -24 -78 -34 -197 -75 -215 -75 -10 0 -18 6
-18 14 0 18 36 192 50 236 5 19 10 55 10 80 0 25 7 70 16 100 9 30 24 84 33
120 10 36 23 75 29 86 6 12 18 53 26 93 8 39 31 110 51 159 41 98 81 202 131
341 19 52 43 108 54 125 10 17 28 64 39 105 11 41 28 82 36 92 23 24 45 103
45 158 0 40 6 54 41 96 23 28 72 91 110 140 37 50 101 133 141 185 41 52 98
140 128 194 29 55 72 127 95 161 24 34 46 73 50 86 14 43 62 133 94 173 17 21
31 46 31 55 0 10 4 21 9 27 20 20 111 195 153 294 77 178 115 281 143 385 15
55 31 107 36 116 21 40 48 225 53 359 3 80 10 186 16 235 41 359 74 901 65
1095 -7 165 -80 542 -121 630 -14 30 -34 79 -44 110 -10 30 -32 93 -49 140
-28 76 -58 167 -178 535 -19 61 -46 130 -58 155 -12 25 -28 63 -35 84 -7 22
-21 53 -31 70 -10 17 -27 56 -39 86 -11 30 -30 73 -40 95 -11 22 -46 101 -79
175 -32 74 -91 187 -130 250 -40 63 -84 139 -98 170 -15 30 -57 91 -94 135
-217 257 -219 261 -249 413 -29 146 -41 179 -129 342 -45 83 -81 156 -81 164
0 7 -14 39 -31 71 -17 31 -48 105 -69 164 -21 58 -50 135 -65 171 -46 114 -91
350 -108 565 -1 23 -7 30 -22 30 -19 0 -20 -6 -17 -120 2 -66 12 -169 23 -230
11 -60 24 -132 29 -160 4 -27 20 -81 35 -120 15 -38 48 -138 75 -220 45 -141
71 -210 91 -245 20 -34 39 -84 39 -100 0 -9 11 -23 24 -30 29 -15 59 -81 57
-125 0 -16 4 -42 10 -57 6 -15 8 -35 5 -44 -6 -15 -12 -12 -42 17 -46 44 -173
209 -198 257 -11 20 -27 43 -37 49 -9 7 -20 25 -23 40 -10 39 -41 101 -76 148
-35 48 -108 187 -144 273 -26 61 -35 90 -82 267 -14 50 -38 135 -55 190 -17
54 -33 124 -36 155 -7 87 -11 100 -33 100 -60 0 -45 -110 77 -555 19 -71 55
-180 79 -241 50 -127 61 -169 45 -178 -6 -4 -66 46 -139 117 -70 68 -147 137
-172 154 -25 17 -54 41 -66 54 -20 23 -101 86 -204 161 -46 34 -129 86 -272
173 -45 28 -116 72 -158 99 -96 63 -406 218 -580 289 -147 61 -241 92 -395
130 -169 41 -196 47 -325 67 -129 19 -162 25 -365 67 -66 13 -176 30 -244 38
-68 8 -126 16 -129 19 -15 16 24 19 196 17 589 -10 3990 13 4092 27 47 6 184
23 305 37 437 51 729 99 856 141 56 18 124 31 167 33 23 1 32 -3 32 -15z
m-5888 -353 c246 -16 536 -48 590 -65 26 -8 82 -20 125 -26 43 -6 116 -19 163
-30 136 -30 242 -51 285 -55 22 -2 60 -8 85 -12 43 -8 45 -10 48 -44 3 -33 -3
-41 -77 -110 -62 -59 -82 -85 -92 -120 -12 -39 -14 -332 -6 -694 5 -207 -4
-585 -14 -585 -7 0 -50 22 -98 49 -47 27 -139 72 -203 100 -64 27 -134 59
-155 70 -123 67 -420 163 -568 185 -169 25 -402 39 -525 31 -63 -4 -160 -8
-215 -9 -164 -3 -461 -50 -613 -96 -72 -22 -135 -40 -140 -40 -4 0 -7 98 -7
217 -1 120 -3 337 -7 483 -3 170 -2 279 5 303 10 38 10 39 -46 95 -31 32 -57
63 -57 70 0 13 25 26 125 63 33 12 88 35 121 51 35 16 121 41 200 58 77 15
180 40 229 55 58 17 143 32 240 41 83 7 173 18 200 23 57 10 169 8 407 -8z
m1473 -250 c75 -19 189 -61 231 -86 24 -14 49 -25 57 -25 7 0 57 -22 109 -49
53 -26 131 -63 174 -81 44 -18 97 -45 119 -60 22 -15 78 -49 125 -75 47 -27
99 -59 116 -72 17 -13 34 -23 38 -23 4 0 30 -16 59 -35 28 -19 57 -35 64 -35
7 0 39 -24 71 -53 31 -29 78 -67 103 -84 25 -17 52 -39 59 -48 15 -19 134
-108 185 -139 17 -10 75 -64 130 -120 55 -55 116 -114 136 -131 19 -16 82 -74
140 -128 57 -54 117 -110 132 -124 31 -28 91 -103 141 -178 19 -27 51 -66 72
-86 192 -180 441 -473 503 -592 24 -45 49 -89 57 -97 7 -9 23 -38 35 -65 12
-28 30 -60 40 -73 10 -13 32 -60 50 -105 17 -45 60 -139 95 -209 35 -70 80
-178 100 -240 20 -62 48 -138 61 -168 14 -30 38 -92 54 -137 l30 -81 -51 -99
c-53 -100 -88 -155 -103 -161 -4 -2 -20 -14 -35 -27 -22 -18 -48 -24 -137 -33
-212 -22 -380 -42 -430 -51 -27 -5 -113 -17 -190 -25 -77 -9 -174 -21 -215
-27 -41 -6 -113 -13 -160 -15 -266 -14 -410 -23 -447 -29 -71 -12 -89 -2 -112
61 -12 30 -28 92 -36 137 -7 45 -31 129 -51 187 -45 126 -196 427 -228 455
-12 11 -33 38 -46 60 -13 22 -57 92 -98 155 -41 63 -95 148 -120 188 -42 64
-83 121 -237 328 -188 251 -282 355 -401 439 -38 27 -88 64 -112 82 -24 18
-73 49 -110 69 -77 43 -196 119 -216 140 -19 19 -25 78 -31 309 -3 140 0 220
9 266 9 50 10 100 3 205 -12 173 -13 360 -2 484 7 89 10 98 43 140 84 104 158
179 172 175 8 -2 33 -9 55 -14z m-3046 -115 l73 -73 5 -319 c8 -440 8 -423 1
-579 -4 -77 -7 -141 -7 -143 -2 -7 -74 -33 -78 -28 -6 6 -12 291 -14 714 -2
343 7 303 -96 414 -29 31 -53 61 -53 67 0 8 18 13 80 19 9 1 48 -31 89 -72z
m-179 -53 l74 -88 -3 -480 c-2 -264 -6 -498 -10 -520 -7 -42 -17 -50 -101 -79
-99 -34 -305 -172 -445 -297 -33 -30 -81 -69 -105 -88 -25 -19 -103 -91 -175
-161 -71 -69 -164 -154 -205 -189 -97 -82 -344 -335 -421 -430 -74 -91 -127
-173 -145 -223 -7 -22 -46 -74 -85 -118 -91 -100 -97 -109 -173 -260 -61 -120
-190 -490 -230 -655 -7 -33 -21 -91 -30 -130 -17 -74 -29 -89 -86 -106 -58
-17 -885 -24 -1005 -9 -211 27 -178 10 -282 143 -93 118 -93 119 -93 175 0 37
9 78 25 117 14 33 25 76 25 95 0 19 9 53 20 75 33 69 89 217 105 282 8 34 26
83 39 110 12 26 40 87 62 136 21 48 57 111 78 140 22 28 45 72 53 96 7 25 19
52 27 60 8 9 25 39 39 66 136 270 211 381 411 610 44 49 87 99 95 109 9 10 36
42 61 71 25 28 59 71 75 95 17 24 46 60 65 79 19 20 58 65 86 101 62 78 149
162 191 183 17 9 53 42 79 73 27 31 96 95 154 142 58 47 128 107 155 132 28
25 68 57 90 70 22 13 57 39 78 57 20 18 41 33 47 33 13 0 106 57 155 95 22 18
73 49 113 69 41 21 94 53 120 72 25 20 71 48 101 63 272 136 340 169 369 174
41 8 137 45 267 103 114 51 223 92 246 93 8 1 49 -38 89 -86z m1615 -999 c116
-14 224 -28 240 -33 59 -17 211 -64 290 -89 44 -13 139 -51 210 -84 72 -33
165 -76 209 -95 117 -54 345 -172 391 -203 22 -15 82 -51 134 -80 116 -64 311
-211 406 -305 38 -39 112 -124 163 -190 51 -66 123 -158 160 -205 63 -80 300
-432 387 -575 22 -36 53 -85 69 -107 79 -114 186 -382 225 -565 10 -48 30
-126 44 -173 41 -140 108 -486 118 -615 11 -129 13 -610 3 -685 -3 -25 -21
-115 -40 -200 -34 -146 -35 -156 -20 -187 9 -18 20 -33 26 -33 19 0 54 -84
128 -315 71 -219 85 -308 84 -535 0 -219 -14 -317 -73 -493 -22 -67 -51 -169
-64 -227 -23 -105 -71 -238 -105 -295 -10 -16 -37 -67 -61 -113 -27 -52 -79
-126 -142 -200 -162 -190 -166 -197 -188 -359 -10 -76 -25 -210 -33 -298 -24
-258 -52 -417 -87 -499 -17 -39 -39 -91 -49 -116 -29 -76 -48 -118 -153 -330
-132 -269 -257 -492 -372 -665 -97 -146 -228 -396 -275 -525 -16 -41 -32 -74
-36 -72 -27 8 -61 270 -66 492 -1 91 24 346 40 395 6 17 18 66 28 110 10 44
30 105 44 135 15 30 35 80 45 110 10 30 28 77 40 105 42 94 65 207 65 317 0
87 -6 123 -35 230 -19 70 -39 168 -46 220 -6 51 -14 116 -17 143 -10 72 2 321
22 455 20 134 69 308 131 465 24 61 56 149 70 195 15 47 29 91 31 99 3 11 13
6 37 -16 40 -38 77 -56 147 -72 51 -11 59 -11 119 13 36 14 66 26 68 26 23 0
-41 -169 -121 -320 -157 -299 -200 -406 -248 -620 -27 -121 -41 -335 -29 -424
15 -102 52 -210 74 -214 21 -4 23 39 6 168 -14 113 5 404 33 509 11 42 28 108
38 146 9 39 33 102 54 142 20 39 36 77 36 85 0 7 10 29 22 48 32 53 150 288
175 351 12 29 34 83 48 119 28 68 41 155 51 330 9 163 5 228 -23 320 -14 47
-38 137 -54 201 -15 64 -34 132 -42 150 -8 19 -20 52 -27 74 -32 106 -91 240
-148 338 -36 61 -50 77 -68 77 -34 0 -31 -21 15 -110 46 -87 172 -462 191
-565 7 -38 18 -86 25 -105 7 -19 23 -80 35 -135 18 -84 21 -117 15 -205 -11
-171 -30 -236 -81 -275 -76 -58 -118 -63 -196 -24 -37 19 -122 113 -133 149
-4 12 7 49 28 97 81 181 107 383 76 590 -6 40 -8 81 -5 91 7 21 -68 132 -89
132 -27 0 -33 -31 -18 -84 18 -63 31 -432 16 -447 -7 -7 -13 9 -17 48 -9 75
-26 202 -32 231 -5 25 -35 30 -53 9 -7 -10 -10 -103 -9 -308 2 -277 1 -298
-20 -369 -12 -41 -22 -85 -22 -97 0 -12 -20 -81 -45 -154 -25 -73 -45 -140
-45 -149 0 -10 -8 -28 -18 -40 -19 -23 -19 -22 -25 101 -11 203 -17 249 -36
249 -36 0 -41 -20 -35 -134 3 -61 1 -158 -5 -216 -28 -267 -30 -277 -92 -432
-33 -82 -59 -157 -57 -166 2 -10 13 -18 25 -20 25 -4 33 8 80 121 30 75 52
112 59 104 2 -2 -3 -44 -12 -93 -8 -49 -19 -165 -23 -259 -10 -206 9 -366 67
-570 35 -122 37 -138 36 -260 -1 -144 -9 -178 -84 -365 -72 -178 -107 -290
-136 -425 -26 -120 -28 -147 -28 -345 1 -416 62 -631 231 -809 58 -61 59 -61
115 -61 46 0 62 5 88 26 38 33 60 74 60 114 0 42 -27 39 -45 -4 -18 -42 -50
-66 -87 -66 -36 0 -83 62 -97 131 -25 117 -5 257 41 292 35 26 225 35 348 17
161 -24 196 -25 345 -8 214 23 316 48 427 103 51 26 107 58 125 71 17 13 34
24 37 24 15 0 3 -68 -29 -174 -19 -63 -44 -155 -55 -204 -11 -50 -31 -121 -45
-158 -15 -38 -36 -103 -47 -144 -12 -41 -29 -86 -40 -99 -10 -13 -18 -35 -18
-50 -1 -44 -23 -81 -65 -106 -157 -94 -268 -131 -441 -146 -168 -15 -245 -8
-504 41 -187 36 -267 42 -525 35 -137 -3 -275 -10 -305 -15 -159 -27 -288 -54
-310 -66 -14 -7 -42 -15 -63 -19 -34 -7 -37 -5 -37 15 0 70 106 435 174 600
13 30 34 81 47 113 16 40 32 62 49 70 14 6 35 19 46 29 13 11 62 27 119 39 54
11 114 27 134 35 48 20 159 45 213 47 31 1 43 6 43 17 0 12 -16 15 -90 13 -74
-1 -109 -7 -196 -37 -59 -20 -122 -36 -140 -36 -19 0 -49 -4 -67 -9 -21 -7
-32 -6 -32 1 0 6 25 57 55 114 30 57 55 110 55 118 0 19 -25 27 -43 13 -21
-17 -95 -147 -118 -207 -30 -79 -100 -201 -118 -207 -9 -3 -74 -34 -146 -68
-115 -56 -318 -125 -330 -113 -7 6 40 122 66 167 27 45 48 114 90 296 24 105
17 279 -13 343 -27 55 -71 22 -85 -64 -5 -29 -2 -38 17 -51 21 -15 22 -20 15
-97 -12 -144 -64 -335 -119 -437 -20 -36 -47 -97 -62 -135 -14 -38 -30 -73
-35 -78 -14 -15 -10 -193 5 -256 22 -91 42 -130 67 -130 21 0 21 2 13 68 -12
88 -8 271 6 287 6 7 23 15 38 18 129 22 333 101 392 151 28 24 50 27 50 8 0
-10 -25 -90 -56 -178 -30 -87 -73 -229 -95 -314 -22 -85 -49 -167 -60 -182
-12 -17 -19 -44 -19 -71 0 -80 -13 -100 -93 -140 -97 -49 -278 -108 -353 -114
-90 -8 -238 13 -337 47 -105 36 -307 126 -325 144 -8 8 -28 42 -46 77 -84 168
-215 376 -339 540 -59 78 -71 106 -39 94 56 -22 132 -33 219 -34 55 0 117 -6
142 -14 38 -12 46 -19 61 -58 29 -76 132 -211 203 -267 23 -18 21 -45 -9 -141
-23 -73 -30 -85 -65 -107 -57 -35 -48 -74 17 -74 24 0 40 9 63 35 71 81 97
204 85 400 -5 77 -9 203 -9 280 0 132 2 145 33 235 18 52 37 103 43 112 14 26
11 68 -5 74 -29 11 -52 -16 -88 -108 -65 -161 -71 -206 -64 -431 5 -156 4
-198 -6 -195 -21 7 -128 214 -128 249 0 10 -5 30 -11 46 -5 15 -11 102 -13
193 -2 164 -3 165 -39 258 -21 51 -43 128 -50 170 -14 78 -25 93 -57 72 -11
-7 -15 -28 -15 -82 0 -61 6 -88 38 -164 l37 -92 0 -166 c0 -198 7 -188 -136
-180 -181 9 -340 66 -450 159 -104 88 -148 64 -54 -30 89 -90 184 -208 263
-327 42 -65 77 -122 77 -128 0 -13 -14 -13 -101 4 -97 19 -435 28 -574 16 -99
-8 -346 -48 -435 -69 -19 -5 -75 -21 -125 -36 -49 -15 -112 -29 -140 -31 -27
-2 -66 -8 -85 -13 -117 -31 -169 -42 -295 -66 -172 -33 -289 -43 -309 -25 -9
6 -38 71 -66 143 -28 73 -73 179 -100 237 -50 110 -73 175 -114 325 -14 50
-38 140 -55 200 -31 111 -37 155 -23 155 4 0 71 -22 149 -50 161 -56 257 -74
493 -91 91 -6 170 -16 176 -20 8 -6 8 -26 1 -65 -6 -39 -6 -68 2 -94 15 -52
67 -120 91 -120 24 0 25 8 4 90 -17 65 -14 157 5 189 7 11 68 16 298 22 216 6
317 13 403 28 63 12 132 21 153 21 44 0 50 21 12 46 -28 18 -33 18 -330 -10
-154 -15 -481 -27 -490 -18 -7 8 14 41 63 98 26 30 61 71 78 92 30 35 97 168
131 257 52 139 74 341 54 503 -12 97 -66 291 -106 377 -48 106 -65 192 -65
332 0 140 8 179 61 308 16 39 40 106 54 149 36 111 37 112 62 63 52 -103 74
-166 84 -237 28 -210 73 -373 128 -469 15 -25 33 -58 41 -72 8 -15 39 -62 68
-105 62 -90 125 -232 148 -331 55 -234 111 -349 233 -475 64 -67 94 -82 104
-54 8 20 -38 102 -87 157 -82 91 -137 221 -161 379 -13 81 -63 207 -125 317
-34 59 -71 117 -81 128 -25 28 -108 208 -125 272 -28 109 -44 202 -55 313 -13
145 -13 479 0 546 5 28 11 55 12 60 4 24 -3 34 -26 34 -41 0 -60 -65 -81 -272
-3 -32 -9 -58 -14 -58 -5 0 -14 19 -21 43 -6 23 -19 67 -30 97 -10 30 -25 100
-34 155 -9 55 -22 123 -30 150 -79 273 -87 323 -86 583 1 181 -1 214 -14 218
-25 10 -45 -15 -62 -79 l-17 -59 -22 49 c-11 27 -27 67 -33 89 -7 21 -16 48
-21 59 -11 28 -27 132 -40 260 -9 88 -8 141 5 264 8 84 20 171 27 193 10 33 9
41 -5 56 -21 20 -45 9 -64 -29 -13 -27 -44 -151 -62 -245 -26 -141 3 -410 64
-594 16 -48 16 -54 1 -95 -25 -63 -79 -127 -120 -142 -43 -15 -135 -2 -175 23
-14 10 -49 41 -76 70 -28 29 -61 54 -75 56 -32 4 -38 28 -39 167 -1 110 19
218 49 273 6 10 10 33 10 52 0 57 30 131 81 197 26 35 48 68 49 73 0 5 12 25
28 45 15 19 34 45 42 57 60 89 131 183 154 204 15 14 35 41 44 60 9 19 38 69
63 110 71 114 92 153 174 315 42 83 80 157 84 165 5 8 30 62 56 120 26 58 53
116 60 130 7 14 22 54 34 89 12 36 35 90 52 120 16 31 29 59 29 64 0 15 167
345 197 388 17 24 40 63 51 87 43 90 284 355 382 420 63 42 234 127 401 200
62 27 159 71 214 97 55 26 124 58 154 71 107 48 360 216 426 283 21 23 43 41
47 41 11 0 10 -38 -2 -82 -13 -47 -134 -228 -192 -288 -63 -65 -251 -187 -317
-207 -65 -18 -81 -29 -81 -54 0 -24 36 -42 69 -35 14 3 60 12 102 20 69 13 84
21 175 89 136 102 193 161 249 258 75 131 105 200 105 246 0 48 8 75 21 67 18
-11 10 -184 -12 -264 -20 -71 -30 -88 -110 -184 -48 -58 -91 -115 -94 -127 -7
-20 9 -49 28 -49 21 0 162 138 198 193 62 96 83 176 88 340 1 20 6 37 11 37 6
0 34 -15 63 -33 134 -86 307 -161 472 -204 11 -3 62 -25 113 -49 51 -24 97
-44 102 -44 24 0 321 -146 397 -196 48 -31 111 -72 139 -90 51 -33 180 -162
292 -292 100 -117 183 -247 219 -346 19 -51 53 -179 49 -183 -2 -2 -16 27 -31
64 -60 143 -170 348 -201 374 -21 17 -64 3 -64 -22 0 -11 7 -22 16 -26 16 -6
144 -254 144 -279 0 -8 24 -76 53 -151 30 -76 61 -167 70 -203 25 -104 75
-319 92 -402 13 -58 26 -89 56 -130 246 -330 396 -603 430 -781 8 -46 14 -57
27 -55 15 3 17 17 14 103 -3 88 -8 111 -42 198 -35 89 -198 378 -221 392 -5 3
-27 37 -49 74 -21 38 -57 91 -79 118 -35 45 -40 58 -51 144 -7 51 -17 105 -22
119 -6 14 -14 42 -18 63 l-8 39 32 -38 c42 -51 70 -87 143 -186 110 -148 123
-166 144 -220 11 -29 42 -89 69 -133 63 -106 88 -156 120 -240 26 -71 53 -94
64 -57 16 50 -61 274 -119 342 -7 8 -25 46 -40 84 -35 90 -121 227 -191 305
-64 71 -139 193 -153 247 -59 239 -201 585 -293 718 -90 129 -331 384 -420
446 -192 133 -317 204 -441 250 -29 11 -76 35 -106 54 -59 38 -123 63 -276
106 -108 30 -294 107 -390 161 -92 51 -137 86 -175 137 -20 26 -43 48 -51 50
-9 2 -48 -23 -87 -55 -325 -267 -488 -372 -772 -498 -565 -253 -725 -344 -791
-453 -20 -32 -66 -91 -155 -201 -56 -68 -203 -350 -352 -676 -33 -71 -69 -150
-80 -175 -12 -25 -37 -81 -56 -125 -117 -274 -142 -323 -258 -511 -37 -62 -68
-115 -68 -118 0 -8 -58 -84 -126 -166 -25 -30 -53 -71 -64 -90 -10 -19 -30
-46 -44 -59 -14 -14 -26 -29 -26 -35 0 -6 -12 -29 -27 -51 -74 -108 -101 -178
-123 -310 -12 -71 -24 -133 -27 -138 -3 -5 -9 -72 -13 -150 -6 -113 -5 -147 7
-175 8 -19 12 -44 9 -56 -3 -12 -1 -59 3 -106 7 -76 15 -100 69 -213 34 -71
73 -142 87 -159 67 -79 132 -256 145 -393 12 -117 7 -171 -25 -280 -27 -91
-46 -245 -39 -302 23 -166 97 -395 129 -401 21 -5 18 21 -15 138 -35 124 -43
225 -30 367 8 88 18 144 34 184 48 116 41 366 -13 514 -16 44 -32 89 -37 100
-4 11 -40 75 -80 141 -40 67 -89 157 -109 200 -35 78 -56 165 -39 163 5 0 29
-28 54 -62 63 -85 99 -102 215 -102 124 0 172 22 216 100 35 62 52 66 57 14 2
-19 20 -99 41 -179 21 -80 48 -196 60 -257 11 -62 33 -150 49 -195 27 -80 28
-88 21 -218 -11 -217 -32 -324 -114 -560 l-47 -135 5 -145 c5 -151 17 -215 63
-324 44 -106 105 -328 113 -412 17 -174 -5 -362 -55 -484 -37 -89 -207 -331
-222 -315 -3 2 2 15 11 28 71 108 17 312 -142 536 -40 55 -79 105 -89 110 -29
16 -150 143 -191 201 -133 188 -253 375 -280 440 -18 41 -39 90 -47 109 -43
96 -55 263 -29 406 13 73 26 111 72 215 14 29 14 43 4 92 -6 31 -9 67 -6 80 9
37 -31 173 -84 285 -48 100 -79 153 -168 290 -41 62 -123 209 -213 378 -69
131 -120 293 -140 447 -23 178 -13 684 15 788 9 30 20 91 25 135 5 44 16 102
24 130 8 27 22 86 32 130 9 44 29 109 44 145 15 36 31 76 35 90 14 48 78 204
96 234 10 17 19 37 19 45 0 8 8 33 19 55 10 23 32 75 50 116 18 41 35 80 39
87 22 36 94 142 115 168 13 17 32 45 41 63 9 18 42 71 72 118 31 46 66 110 79
142 13 31 44 99 69 151 46 95 55 134 35 147 -6 3 -17 0 -25 -7 -21 -22 -110
-173 -180 -304 -35 -66 -81 -145 -103 -175 -121 -170 -175 -258 -258 -420
l-58 -115 -3 135 c-2 74 2 171 9 215 7 44 13 98 14 120 12 277 29 428 61 555
18 74 39 155 45 180 6 25 17 65 26 90 8 25 21 72 29 104 8 32 30 104 48 160
18 56 39 124 45 151 13 53 100 233 147 305 16 23 36 53 44 65 9 13 53 63 99
112 85 91 125 151 115 176 -5 15 59 101 125 167 20 20 106 107 191 195 85 88
178 177 205 199 28 22 108 96 179 164 71 68 140 131 155 140 14 9 64 52 111
96 46 43 98 85 115 92 16 7 61 35 99 63 62 45 110 72 191 107 17 7 51 22 77
33 26 12 53 21 60 21 16 0 135 43 174 63 16 8 67 24 114 36 47 12 123 35 170
51 52 17 130 33 200 40 105 11 249 36 258 45 11 10 375 -10 557 -31z m4964
-2436 c59 -133 142 -387 208 -633 21 -78 28 -145 24 -220 -1 -11 3 -72 9 -135
11 -112 22 -394 20 -515 -1 -81 -28 -316 -46 -390 -8 -33 -19 -130 -24 -215
-14 -213 -27 -349 -40 -401 -11 -48 -60 -293 -60 -302 0 -8 -141 65 -200 103
-25 16 -69 43 -99 61 l-55 33 -410 -3 c-226 -1 -472 -3 -546 -4 -74 -1 -199 0
-276 2 l-141 4 -12 71 c-19 112 -70 274 -112 358 -21 43 -39 83 -39 90 0 6
-18 50 -41 96 -38 79 -40 89 -34 141 4 31 13 68 21 83 8 15 14 39 14 53 0 15
5 36 11 48 32 59 48 696 21 817 -6 25 -13 77 -17 115 -6 66 -12 92 -49 225 -8
30 -18 80 -21 111 -6 47 -4 57 10 63 9 3 21 4 26 0 5 -3 71 0 146 6 76 6 204
13 284 14 80 2 154 8 165 13 10 6 73 13 139 16 66 4 136 11 155 17 19 6 53 11
75 11 22 0 69 6 105 14 36 8 106 19 155 25 50 7 113 16 140 22 28 5 100 14
160 18 61 4 128 15 151 24 36 15 46 26 79 94 39 79 62 112 77 112 4 0 17 -19
27 -42z m-10101 -255 c11 -10 61 -64 111 -120 l91 -101 72 0 c214 1 1096 -25
1116 -33 l23 -9 -6 -157 c-4 -87 -14 -205 -22 -263 -13 -79 -17 -185 -17 -430
l-1 -325 -28 -64 c-53 -120 -77 -210 -129 -471 -11 -58 -24 -127 -30 -155 -5
-27 -13 -120 -16 -205 -7 -148 -8 -155 -27 -152 -45 8 -674 22 -857 20 -189
-3 -197 -4 -221 -26 -28 -27 -35 -21 -61 48 -23 63 -76 336 -76 391 0 25 -7
90 -16 145 -37 234 -38 248 -46 864 -5 387 22 735 68 865 8 23 14 72 14 111 0
39 3 74 7 77 11 12 30 8 51 -10z m9682 -2438 l165 0 60 -39 c33 -22 72 -47 87
-58 15 -10 32 -18 39 -18 6 0 33 -11 61 -25 27 -14 61 -25 74 -25 28 0 32 -25
9 -56 -8 -10 -15 -32 -15 -47 0 -40 -21 -42 -75 -8 -26 16 -95 51 -153 76 -58
26 -118 55 -132 64 -53 38 -97 44 -255 38 -82 -4 -186 -11 -230 -16 -305 -37
-793 -36 -831 2 -4 3 -9 26 -11 49 -8 70 -8 69 250 59 124 -6 240 -8 259 -5
81 13 323 22 423 16 61 -4 184 -7 275 -7z m-8815 -100 c244 -7 295 -17 295
-58 -1 -30 -18 -40 -56 -32 -22 4 -158 9 -304 10 -146 2 -342 6 -436 10 l-172
6 -42 -50 c-24 -28 -49 -51 -55 -51 -7 0 -18 21 -24 47 -12 46 -12 46 25 84
20 21 49 40 63 42 26 5 403 0 706 -8z m8913 -94 c32 -16 76 -34 99 -40 22 -6
71 -34 109 -61 38 -28 74 -50 81 -50 17 0 16 -14 -6 -96 -36 -129 -95 -258
-175 -384 -63 -98 -74 -119 -112 -200 -44 -96 -61 -127 -95 -170 -15 -19 -42
-62 -60 -95 -49 -90 -78 -135 -89 -135 -10 0 -30 -28 -198 -270 -23 -34 -61
-76 -163 -184 -47 -50 -116 -125 -154 -166 -37 -41 -76 -80 -87 -86 -18 -9
-43 -39 -125 -144 -32 -41 -136 -137 -235 -218 -38 -30 -68 -58 -68 -62 0 -4
-19 -20 -42 -36 -24 -16 -72 -55 -106 -87 -35 -32 -88 -74 -117 -94 -30 -19
-61 -46 -69 -58 -8 -12 -37 -33 -63 -46 -49 -23 -122 -69 -158 -101 -11 -9
-52 -33 -90 -53 -39 -20 -84 -48 -102 -61 -17 -13 -36 -24 -41 -24 -5 0 -27
-12 -48 -28 -55 -38 -110 -62 -144 -62 -16 0 -42 -11 -60 -26 -17 -15 -33 -24
-36 -21 -3 3 42 101 100 219 57 117 108 227 112 243 4 17 20 57 37 90 47 94
77 194 83 275 3 41 14 136 25 211 10 75 26 205 34 290 8 85 19 170 24 191 9
39 78 140 151 222 86 97 152 195 223 331 46 87 72 162 104 290 13 55 40 145
58 200 49 146 85 295 94 394 4 49 11 93 15 100 10 15 58 14 131 -3 93 -22 596
-7 780 23 28 5 112 9 188 10 133 1 139 0 195 -28z m-8928 -46 c183 -1 232 -4
262 -17 42 -19 41 -17 63 -168 20 -133 54 -271 87 -350 58 -137 208 -413 295
-543 98 -145 202 -342 227 -432 34 -119 30 -167 -35 -385 -50 -172 -51 -371
-1 -512 9 -26 13 -50 10 -54 -15 -15 -182 109 -271 201 -17 17 -62 63 -101
103 -39 40 -92 89 -118 108 -26 19 -79 72 -119 117 -39 45 -94 108 -122 141
-29 32 -58 69 -67 81 -21 32 -108 148 -152 202 -20 25 -64 100 -98 167 -34 67
-71 131 -82 142 -31 35 -109 175 -124 225 -8 26 -21 52 -29 59 -8 7 -15 16
-15 20 0 5 -23 47 -50 95 -28 48 -53 99 -56 113 -9 37 -48 134 -89 217 -84
175 -147 346 -129 352 6 2 46 29 90 61 l79 57 105 6 c58 3 130 4 160 1 30 -3
156 -6 280 -7z m8337 -1843 c-14 -37 -31 -84 -37 -106 -13 -40 -77 -181 -174
-377 -57 -116 -103 -239 -137 -364 -52 -190 -88 -346 -93 -405 -6 -58 -34
-204 -57 -301 l-9 -36 -102 -12 c-57 -7 -131 -19 -166 -28 -35 -8 -66 -13 -69
-10 -3 4 1 32 10 64 8 32 29 114 46 183 52 203 46 183 136 425 30 79 81 292
72 301 -14 14 -36 -19 -57 -84 -12 -37 -40 -105 -62 -152 -22 -47 -48 -107
-58 -135 -10 -27 -32 -87 -49 -133 -16 -46 -37 -113 -46 -150 -115 -494 -107
-472 -202 -565 -135 -134 -300 -196 -579 -218 -121 -10 -162 -10 -210 0 -32 8
-146 16 -251 18 -106 3 -193 7 -193 9 0 19 189 371 215 400 20 21 70 100 112
174 121 214 111 200 146 200 18 0 59 14 92 31 33 16 91 41 128 54 37 13 88 38
113 55 25 16 48 30 52 30 3 0 51 30 107 67 55 36 120 80 145 96 118 79 284
196 367 261 131 101 430 373 505 458 108 123 323 339 326 328 2 -5 -8 -40 -21
-78z m-8887 -1276 c8 -7 33 -22 55 -33 22 -11 81 -41 130 -67 50 -27 124 -66
165 -87 41 -21 111 -66 155 -99 44 -34 112 -79 151 -101 l71 -39 30 -98 c17
-53 40 -135 52 -182 12 -47 33 -121 46 -165 20 -66 45 -173 45 -190 0 -15 -31
1 -103 51 -135 95 -301 160 -496 195 -62 11 -124 25 -138 30 -47 18 -264 22
-323 6 -30 -8 -58 -13 -62 -10 -15 9 -7 62 33 218 40 153 42 169 49 370 4 116
8 211 9 212 20 29 32 32 73 17 23 -8 49 -20 58 -28z m-396 -15 c57 -6 73 -12
92 -34 13 -15 28 -27 33 -27 23 0 31 -46 31 -177 0 -141 -13 -219 -69 -413
-11 -36 -22 -81 -26 -100 -16 -84 -12 -83 -123 -36 -79 34 -161 55 -217 55
-16 0 -95 1 -175 1 -113 1 -162 -3 -222 -18 -43 -10 -80 -17 -83 -14 -9 10 -5
73 10 135 22 93 73 374 80 442 3 32 8 68 11 80 7 27 67 64 123 76 150 32 393
46 535 30z m9702 -341 c1 -216 31 -365 151 -751 20 -64 34 -123 31 -131 -5
-11 -31 -15 -124 -16 -110 -2 -328 -29 -549 -68 -49 -9 -143 -34 -209 -55 -65
-22 -123 -39 -130 -39 -6 0 -50 -16 -96 -36 -136 -57 -141 -59 -151 -43 -5 8
-6 21 -4 30 18 55 65 301 84 429 18 129 78 404 116 535 13 44 26 92 29 107 5
22 15 30 49 39 73 19 210 65 262 88 28 12 102 35 165 51 102 26 129 29 245 27
l130 -2 1 -165z m-8291 39 c52 -20 95 -46 122 -72 37 -36 46 -54 78 -156 34
-111 41 -136 80 -281 10 -36 31 -101 46 -146 41 -115 39 -123 -29 -81 -55 35
-146 65 -241 82 -47 8 -89 19 -93 23 -5 5 -19 46 -32 93 -13 46 -43 149 -66
229 -63 218 -84 319 -68 337 18 23 107 10 203 -28z m8921 -24 c54 -9 135 -20
179 -26 90 -11 160 -41 188 -80 20 -28 24 -66 47 -419 5 -80 20 -217 34 -305
14 -88 25 -175 26 -192 0 -31 -2 -33 -32 -33 -38 1 -130 20 -238 50 -99 27
-247 42 -370 36 -117 -5 -108 -12 -166 125 -44 105 -58 146 -79 234 -9 39 -25
93 -35 120 -18 48 -58 204 -79 310 -9 45 -7 52 11 72 42 45 163 86 318 108 47
7 88 13 91 14 3 0 50 -6 105 -14z m-1582 -33 c3 -5 -10 -78 -30 -163 -19 -85
-43 -194 -55 -244 -11 -49 -24 -103 -29 -120 -5 -16 -21 -84 -35 -149 -14 -66
-28 -123 -32 -126 -5 -4 -42 -4 -83 0 -41 4 -110 2 -152 -4 -92 -12 -103 -6
-88 44 6 19 20 78 31 130 10 52 27 117 35 144 9 27 34 123 55 213 20 91 45
173 54 183 32 35 140 81 211 89 98 12 112 12 118 3z m-9063 -433 c97 -9 179
-29 204 -48 5 -5 27 -11 48 -15 75 -14 90 -106 25 -146 -28 -17 -43 -18 -122
-12 -233 18 -429 1 -551 -48 -92 -37 -115 -38 -115 -7 0 51 31 191 45 207 25
28 193 66 346 79 9 0 63 -4 120 -10z m974 -60 c83 -16 193 -43 245 -59 100
-31 246 -108 319 -169 24 -20 59 -47 78 -61 25 -19 40 -41 54 -84 11 -32 18
-61 15 -64 -3 -3 -32 11 -63 30 -79 48 -159 88 -178 88 -9 0 -66 20 -128 44
-62 24 -132 47 -157 51 -25 4 -78 21 -119 37 -40 16 -106 33 -145 38 -94 12
-175 28 -189 37 -7 4 -71 8 -144 8 -72 0 -135 3 -139 7 -4 5 -2 26 5 48 14 48
24 53 146 70 50 6 97 13 105 14 39 6 159 -8 295 -35z m844 -179 c134 -28 231
-78 276 -142 33 -45 65 -115 65 -139 0 -19 -29 -7 -135 57 -147 89 -152 91
-213 99 -52 7 -54 9 -73 52 -16 38 -26 93 -16 93 2 0 45 -9 96 -20z m-1079
-25 c30 -7 100 -25 155 -39 55 -15 137 -31 181 -37 82 -9 362 -93 439 -131 22
-11 78 -45 124 -76 76 -51 86 -62 111 -117 15 -33 35 -66 44 -74 10 -8 31 -42
47 -75 16 -34 40 -75 52 -93 34 -45 44 -168 19 -237 -17 -50 -80 -129 -132
-166 l-27 -20 -84 30 c-46 16 -111 40 -144 53 -34 14 -92 28 -135 31 -44 4
-132 25 -215 51 -196 61 -334 93 -445 100 -52 4 -124 13 -160 20 -143 31 -708
38 -831 12 -41 -9 -137 -28 -214 -42 -77 -14 -153 -28 -169 -31 -27 -7 -28 -5
-23 22 9 52 57 287 77 379 10 50 28 140 40 200 12 66 26 114 35 121 23 17 232
73 325 86 151 22 440 11 440 -17 0 -16 -68 -186 -81 -201 -5 -6 -20 -44 -34
-84 -14 -40 -44 -105 -68 -144 -54 -88 -81 -151 -73 -165 12 -18 44 -12 61 12
93 129 163 256 218 397 61 156 92 224 109 237 27 23 255 22 358 -2z m1179
-200 c36 -25 69 -45 74 -45 15 0 177 -111 177 -121 0 -5 16 -19 35 -30 19 -12
35 -25 35 -30 0 -15 76 -192 143 -334 37 -78 74 -142 94 -161 33 -32 53 -71
53 -105 0 -19 -1 -19 -37 -3 -169 74 -243 96 -388 115 l-100 12 -1 111 c0 103
-3 118 -37 210 -21 54 -69 162 -107 239 -67 134 -78 166 -63 180 17 18 64 3
122 -38z m6916 36 c25 -5 30 -11 30 -36 l0 -30 -95 -6 c-64 -4 -121 -14 -174
-32 -43 -15 -83 -27 -88 -27 -14 0 1 62 20 82 35 36 225 67 307 49z m1390 -81
c43 -16 24 -34 -46 -43 -61 -8 -98 -16 -409 -86 -196 -44 -283 -61 -316 -60
-31 0 -93 -12 -209 -42 -152 -39 -219 -61 -276 -89 -70 -36 -69 -36 -69 -10 0
31 41 67 91 80 24 7 73 25 109 40 36 16 81 31 100 34 19 3 69 17 110 31 41 14
89 30 105 35 17 4 57 18 90 30 56 20 154 39 305 60 36 5 79 13 95 18 40 14
287 15 320 2z m-1410 -64 c20 -14 18 -33 -16 -216 -26 -141 -39 -229 -39 -272
0 -26 -4 -58 -10 -72 l-9 -25 -58 21 c-73 26 -243 35 -337 19 -38 -7 -71 -10
-73 -7 -3 3 9 27 26 54 17 27 31 52 31 55 0 3 13 27 29 52 16 26 34 70 41 98
6 29 23 89 37 135 28 93 34 98 143 127 173 47 207 51 235 31z m1950 -7 c61
-10 130 -26 155 -35 25 -8 76 -19 114 -23 72 -8 96 -24 96 -64 0 -22 -20 -19
-135 18 -128 41 -299 56 -462 41 l-82 -8 -18 37 c-15 31 -15 37 -3 45 25 16
218 9 335 -11z m-485 -29 c11 -6 37 -45 58 -88 22 -42 63 -113 91 -157 28 -44
64 -107 81 -140 28 -57 88 -145 133 -192 28 -31 67 -31 67 0 0 13 -4 27 -9 33
-5 5 -19 40 -30 78 -12 38 -35 91 -51 118 -17 27 -30 51 -30 54 0 4 -22 43
-50 89 -27 46 -50 87 -50 93 0 13 29 20 120 27 95 8 246 -8 375 -40 88 -22
104 -29 136 -63 28 -30 40 -53 49 -98 17 -87 74 -281 126 -428 25 -71 43 -136
42 -145 -5 -23 -113 -15 -155 10 -18 11 -37 18 -42 15 -16 -10 -128 16 -281
65 -52 16 -146 36 -210 44 -63 8 -142 20 -175 27 -85 18 -573 15 -866 -6 -402
-29 -424 -31 -561 -75 -71 -22 -134 -38 -140 -35 -7 3 -33 37 -57 75 -51 83
-55 116 -27 256 18 93 19 93 68 130 28 21 68 49 90 62 43 25 264 91 368 109
36 7 117 21 180 32 63 12 138 25 165 30 52 9 235 55 362 90 40 11 87 20 105
21 18 0 42 4 53 9 27 12 43 12 65 0z m-6045 -176 c108 -3 169 -10 217 -24 36
-11 77 -20 91 -20 21 0 35 -14 71 -68 25 -37 46 -73 46 -79 0 -7 -20 -3 -52
10 -51 21 -68 21 -463 21 -399 0 -414 -1 -560 -27 -146 -26 -178 -33 -355 -76
-155 -38 -234 -52 -346 -61 -62 -5 -124 -14 -138 -20 -15 -5 -63 -10 -107 -10
-79 0 -79 0 -99 33 -34 54 -27 60 100 78 63 9 138 22 165 28 28 6 75 15 105
20 30 5 84 17 120 26 36 9 103 23 150 30 47 7 112 22 145 33 88 29 166 48 290
71 211 39 314 51 405 44 36 -2 133 -6 215 -9z m4043 -136 c-12 -34 -47 -96
-81 -143 -12 -17 -79 -84 -149 -150 -150 -142 -220 -227 -247 -299 -26 -69
-51 -193 -51 -251 0 -44 -1 -45 -22 -33 -15 7 -58 11 -120 9 -119 -3 -278 14
-378 39 -41 11 -111 26 -155 35 -44 8 -118 24 -165 35 -156 36 -565 48 -700
20 -47 -10 -108 -21 -136 -25 -28 -3 -64 -13 -79 -21 -52 -27 -54 -13 -29 206
18 166 41 267 65 291 42 42 186 76 354 84 50 3 121 10 159 16 71 12 88 13 415
23 106 4 196 7 200 8 10 3 102 -11 171 -27 263 -58 457 -81 581 -71 92 8 129
19 129 41 0 18 -2 18 -106 3 -97 -14 -293 2 -410 33 -39 11 -100 24 -135 28
-35 5 -100 15 -144 21 -55 8 -147 10 -295 5 -118 -4 -246 -7 -283 -6 -37 1
-91 -3 -120 -8 -29 -6 -122 -15 -207 -20 -106 -7 -176 -16 -220 -30 -72 -23
-87 -17 -73 25 8 23 18 30 64 41 30 7 83 22 119 33 169 50 340 69 660 70 167
0 262 -4 330 -15 52 -8 131 -20 175 -25 44 -6 105 -15 135 -22 80 -17 331 -18
415 -1 89 17 193 53 270 91 33 17 63 28 67 26 4 -3 2 -18 -4 -36z m-3664 -109
c81 -24 117 -56 153 -139 14 -30 33 -64 43 -75 31 -36 138 -255 154 -318 8
-35 -5 -35 -64 -1 -53 31 -131 60 -180 67 -19 3 -85 15 -146 27 -74 13 -170
22 -285 25 -247 7 -289 5 -320 -10 -15 -8 -65 -19 -111 -24 -45 -6 -112 -20
-148 -32 -72 -23 -113 -32 -245 -53 -49 -8 -160 -26 -247 -40 -86 -14 -196
-28 -246 -32 l-89 -7 -57 87 c-31 48 -81 111 -111 141 -54 52 -122 175 -109
196 3 5 19 9 35 9 17 0 91 9 166 21 74 11 141 18 148 15 16 -6 231 31 255 44
9 5 57 18 106 29 49 11 128 30 177 41 202 47 375 58 792 53 226 -3 269 -7 329
-24z m406 -259 c50 -22 98 -40 106 -40 8 0 29 -8 47 -17 33 -17 69 -26 177
-44 140 -24 263 -5 444 67 61 24 111 44 113 44 2 0 3 -15 3 -33 0 -35 -23 -77
-43 -77 -7 0 -41 -14 -77 -31 -36 -17 -87 -35 -115 -40 -62 -13 -207 -12 -266
1 -48 10 -191 58 -251 84 -21 9 -61 21 -90 27 -29 6 -60 17 -68 24 -8 7 -26
16 -40 20 -27 8 -40 22 -40 43 0 16 -3 17 100 -28z m145 -148 c168 -64 244
-82 345 -82 124 1 244 28 310 70 34 22 55 29 61 23 6 -6 5 -46 -5 -114 -8 -57
-17 -177 -19 -265 -3 -89 -10 -171 -16 -182 -16 -31 -90 -50 -261 -67 l-155
-16 -105 26 c-58 15 -110 31 -117 37 -7 5 -17 33 -23 63 -10 50 -35 123 -79
230 -31 79 -111 299 -111 309 0 16 95 -1 175 -32z m-5175 -322 c433 -26 474
-30 500 -49 32 -23 127 -145 148 -191 9 -19 24 -46 33 -60 15 -23 51 -101 112
-245 25 -58 115 -385 125 -453 4 -31 3 -33 -15 -24 -11 6 -61 58 -112 116
-113 128 -168 176 -344 297 -196 137 -310 210 -416 269 -64 36 -158 96 -209
134 -51 37 -121 78 -155 91 -114 43 -233 103 -217 109 42 16 336 19 550 6z
m10174 -181 c92 -6 181 -9 199 -6 41 7 257 -11 362 -29 44 -8 159 -25 255 -38
203 -28 235 -34 273 -48 15 -6 52 -13 83 -17 30 -3 54 -10 53 -16 -2 -9 -225
-65 -403 -100 -43 -9 -101 -25 -130 -37 -50 -19 -134 -47 -380 -123 -163 -50
-261 -94 -466 -209 -120 -67 -193 -116 -233 -153 -39 -37 -62 -52 -68 -46 -14
14 5 208 30 298 66 246 163 506 199 533 9 7 26 11 38 8 11 -3 96 -11 188 -17z
m-4298 -214 c12 -61 25 -144 29 -185 4 -46 17 -97 32 -133 17 -38 23 -61 16
-68 -5 -5 -68 -19 -139 -30 -180 -28 -553 -32 -633 -7 -93 31 -98 43 -50 146
17 37 33 79 36 95 4 17 16 33 34 43 l29 15 -6 99 c-8 116 -18 110 115 79 81
-18 101 -20 178 -10 175 22 219 30 263 50 25 11 52 19 60 18 10 -2 21 -35 36
-112z m-973 15 c26 -12 50 -28 55 -37 5 -8 40 -32 78 -52 81 -42 87 -57 50
-128 -25 -48 -70 -103 -85 -103 -30 0 -145 182 -162 256 -12 52 -8 84 9 84 5
0 30 -9 55 -20z m1297 -131 c0 -16 -103 -170 -130 -194 -22 -19 -22 -19 -41 5
-18 24 -25 100 -10 125 3 5 5 19 6 30 0 17 11 22 65 31 87 16 110 16 110 3z"/>
<path d="M1419 14193 c-15 -40 -3 -122 36 -238 55 -168 83 -275 101 -390 9
-60 28 -153 41 -205 14 -52 29 -111 33 -130 10 -40 47 -406 60 -590 5 -69 14
-168 19 -220 6 -52 11 -135 11 -185 0 -89 -22 -349 -40 -475 -15 -105 -13
-303 4 -326 14 -18 16 -18 32 -2 14 14 19 45 25 165 4 81 17 209 29 283 25
157 41 437 29 509 -4 27 -10 110 -14 183 -3 73 -13 183 -20 243 -8 61 -21 178
-30 260 -9 83 -27 193 -42 245 -34 127 -52 211 -63 293 -5 37 -41 162 -79 278
-59 178 -69 218 -64 255 6 48 -7 74 -38 74 -12 0 -24 -11 -30 -27z"/>
<path d="M1924 13730 c-33 -13 -54 -50 -54 -94 0 -34 7 -46 45 -83 42 -40 49
-43 101 -43 44 0 68 7 114 32 57 32 59 32 79 14 11 -10 27 -16 36 -13 17 7 20
42 5 52 -5 3 -10 11 -10 16 0 6 4 8 10 4 5 -3 40 10 77 28 67 34 68 34 97 16
62 -38 97 -109 60 -123 -40 -15 -79 3 -55 27 15 15 14 57 -2 57 -22 0 -78 -31
-84 -46 -10 -26 17 -70 53 -87 54 -26 88 -22 129 17 30 29 35 39 29 63 -20 85
-105 173 -168 173 -43 0 -94 -18 -132 -47 -38 -28 -55 -29 -79 -3 -12 13 -29
20 -44 18 -24 -3 -26 -7 -24 -43 3 -38 0 -41 -40 -61 -43 -21 -44 -21 -81 -2
-45 23 -56 46 -31 64 14 11 21 10 41 -3 51 -33 76 18 28 56 -28 22 -64 26
-100 11z"/>
<path d="M1862 13418 c3 -7 18 -15 33 -18 49 -8 58 -58 59 -325 1 -266 -7
-314 -55 -332 -16 -6 -29 -16 -29 -22 0 -15 31 -14 73 4 44 18 82 19 142 3 54
-15 68 -5 33 25 -51 43 -63 109 -62 332 1 229 12 301 50 315 46 18 28 32 -28
24 -67 -10 -100 -11 -166 -1 -42 6 -53 5 -50 -5z"/>
<path d="M2335 13408 c-99 -34 -175 -190 -175 -355 1 -176 56 -283 163 -319
73 -24 140 -7 201 50 25 23 46 50 46 59 0 25 -15 21 -48 -12 -31 -32 -101 -56
-136 -47 -12 3 -35 20 -53 38 -28 30 -32 43 -47 148 -15 103 -15 124 -2 198
14 77 35 122 69 150 40 34 180 20 192 -18 8 -25 35 -26 35 -2 0 19 -71 92
-107 111 -27 14 -98 13 -138 -1z"/>
<path d="M12203 14052 c-7 -4 -28 -46 -48 -92 -20 -47 -45 -99 -56 -117 -32
-51 -66 -147 -105 -288 -38 -137 -69 -238 -84 -265 -5 -9 -40 -198 -78 -421
-64 -380 -68 -410 -61 -499 4 -52 8 -176 8 -276 1 -99 5 -216 11 -260 5 -43
14 -197 19 -341 10 -265 17 -307 49 -301 14 3 18 20 23 93 6 96 2 591 -7 840
-11 309 0 560 30 725 20 104 36 215 36 248 1 15 10 52 21 82 22 61 45 141 78
270 65 253 96 345 165 487 34 70 40 97 24 111 -8 6 -19 8 -25 4z"/>
<path d="M11407 13695 c-21 -8 -51 -23 -66 -35 -37 -25 -57 -25 -71 1 -17 31
-65 23 -64 -11 0 -14 4 -35 8 -47 13 -40 -67 -91 -145 -92 -42 -1 -58 14 -66
62 -7 46 22 77 73 77 28 0 35 3 32 18 -2 13 -15 18 -51 20 -43 3 -51 0 -82
-31 -62 -62 -45 -166 33 -203 45 -21 121 -12 178 21 43 25 64 20 64 -16 0 -30
11 -49 29 -49 27 0 44 41 43 101 -2 53 0 59 31 81 51 39 72 48 135 54 52 6 62
4 81 -15 13 -13 21 -34 21 -57 0 -31 -4 -37 -35 -50 -44 -18 -76 -18 -101 1
-10 8 -29 15 -42 15 -20 0 -23 -4 -20 -27 4 -36 38 -53 106 -53 62 0 128 29
144 65 16 36 1 128 -25 153 -30 27 -156 37 -210 17z"/>
<path d="M11320 13373 c-51 -11 -72 -12 -98 -3 -38 13 -57 4 -29 -14 52 -32
53 -33 36 -53 -9 -10 -33 -53 -53 -95 -20 -43 -43 -78 -50 -78 -7 0 -26 37
-44 83 -46 121 -46 124 -22 132 11 3 20 12 20 19 0 9 -32 12 -120 12 -116 0
-150 -8 -91 -21 40 -9 60 -35 121 -155 29 -58 61 -120 72 -138 l20 -33 -48
-80 c-70 -114 -130 -187 -169 -206 -36 -17 -52 -52 -17 -38 50 22 104 28 136
17 40 -15 66 -15 66 -2 0 6 -9 10 -20 10 -10 0 -24 9 -30 21 -10 17 -5 33 25
92 52 105 65 127 74 127 10 0 90 -173 98 -211 4 -21 1 -28 -16 -34 -12 -3 -21
-10 -21 -15 0 -18 19 -19 56 -4 38 16 119 15 172 -1 37 -12 26 13 -16 34 -40
20 -62 50 -157 220 l-59 104 38 71 c77 143 114 193 162 215 24 12 44 26 44 31
0 6 -3 9 -7 9 -5 -1 -37 -8 -73 -16z"/>
<path d="M11490 13318 c-23 -24 -55 -72 -73 -108 -30 -61 -32 -71 -32 -175 l0
-110 42 -71 c43 -72 104 -137 142 -149 30 -9 123 20 148 47 27 30 43 62 43 87
0 30 -11 26 -43 -14 -15 -19 -41 -42 -58 -50 -28 -15 -33 -15 -67 2 -72 35
-107 148 -101 329 4 87 7 105 29 137 26 39 63 57 113 57 22 0 40 -11 68 -40
43 -45 49 -48 49 -22 0 61 -85 122 -169 122 -46 0 -54 -4 -91 -42z"/>
<path d="M7065 12468 c-16 -6 -42 -19 -57 -30 -15 -10 -44 -26 -64 -34 -106
-45 -225 -143 -250 -209 -18 -49 -13 -65 21 -65 16 0 30 11 45 35 27 44 113
121 164 147 23 12 60 35 83 52 23 17 60 44 83 60 63 46 49 70 -25 44z"/>
<path d="M6091 12376 c-32 -34 -19 -48 35 -40 32 5 50 2 62 -8 43 -37 237
-128 272 -128 27 0 44 34 30 61 -12 21 -141 89 -170 89 -8 0 -33 11 -55 25
-57 35 -142 35 -174 1z"/>
<path d="M7390 12300 c-25 -5 -72 -14 -105 -20 -33 -6 -98 -15 -145 -21 -47
-5 -94 -14 -104 -20 -11 -6 -43 -20 -73 -30 -74 -25 -115 -56 -111 -83 4 -31
35 -31 110 4 37 16 100 35 140 41 40 6 120 19 178 29 156 29 171 30 355 39 96
5 181 13 193 20 28 15 28 38 0 44 -40 8 -391 6 -438 -3z"/>
<path d="M5835 12220 c-123 -19 -180 -33 -222 -55 -15 -8 -35 -15 -44 -15 -34
0 -166 -52 -199 -79 -47 -37 -74 -51 -101 -51 -29 0 -127 -50 -134 -69 -10
-26 11 -35 57 -22 24 7 57 15 73 17 62 10 73 14 109 43 51 41 124 67 336 122
42 11 142 24 305 40 89 9 143 9 212 0 135 -16 145 -15 141 12 -2 17 -15 26
-55 39 -124 41 -288 48 -478 18z"/>
<path d="M7225 12063 c-135 -11 -347 -66 -387 -101 -22 -19 -23 -51 -3 -59 9
-3 44 2 78 12 82 23 314 54 402 55 108 0 189 -16 320 -61 66 -22 150 -49 186
-59 36 -11 99 -32 140 -48 41 -16 94 -37 119 -46 25 -9 80 -47 125 -87 114
-100 143 -122 155 -114 17 10 -6 42 -107 152 -65 70 -109 109 -141 123 -26 12
-74 35 -107 51 -33 16 -101 39 -151 53 -50 13 -99 28 -110 34 -80 45 -177 74
-294 87 -122 14 -143 15 -225 8z"/>
<path d="M6070 12019 c-47 -4 -110 -12 -140 -18 -30 -6 -109 -17 -174 -26
-187 -25 -420 -108 -523 -186 -28 -21 -82 -55 -120 -76 -37 -20 -101 -60 -142
-87 -40 -28 -89 -61 -108 -74 -80 -54 -155 -123 -230 -212 -44 -52 -99 -112
-122 -132 -45 -40 -52 -58 -21 -58 33 0 68 26 180 135 58 56 143 128 190 161
166 116 209 145 247 162 21 9 49 24 63 33 206 131 254 155 370 186 95 25 269
54 445 73 50 6 124 17 166 25 54 10 87 11 110 5 54 -16 87 -12 94 9 20 63
-103 97 -285 80z"/>
<path d="M6890 11461 c0 -24 69 -85 130 -115 25 -13 77 -41 115 -63 39 -23
124 -57 190 -78 213 -66 405 -136 535 -195 36 -16 115 -50 175 -76 211 -89
260 -111 335 -149 94 -47 99 -52 276 -237 252 -263 304 -329 379 -473 70 -135
104 -189 112 -182 7 8 -44 132 -99 238 -41 82 -169 258 -213 294 -7 5 -50 53
-96 105 -221 250 -247 271 -480 385 -63 30 -122 60 -132 66 -103 57 -492 222
-602 255 -78 24 -303 100 -377 127 -68 26 -143 65 -187 99 -32 24 -61 23 -61
-1z"/>
<path d="M6594 11278 c-17 -13 -87 -77 -157 -142 -87 -83 -156 -137 -224 -178
-54 -33 -118 -76 -143 -97 -25 -20 -115 -74 -200 -120 -85 -46 -168 -93 -185
-106 -52 -38 -155 -91 -293 -149 -345 -146 -471 -229 -706 -462 -150 -149
-216 -227 -203 -240 6 -7 67 36 67 47 0 4 37 35 83 69 45 35 120 100 167 145
47 46 121 106 165 135 123 81 338 193 481 251 148 59 232 100 289 139 22 15
76 46 120 70 159 83 232 126 285 166 30 22 70 49 88 58 78 41 204 141 302 243
112 115 139 155 119 179 -15 19 -20 18 -55 -8z"/>
<path d="M3868 9303 c-8 -10 -28 -42 -44 -72 -19 -35 -82 -109 -179 -207 -272
-277 -465 -499 -499 -575 -9 -19 -27 -79 -42 -134 -14 -55 -37 -121 -50 -147
-26 -51 -61 -201 -75 -318 -21 -185 -30 -308 -24 -350 18 -132 60 -258 80
-238 3 2 0 69 -6 149 -12 161 -7 329 12 404 7 28 23 90 35 139 13 49 32 98 42
110 11 12 27 53 37 93 9 40 25 79 36 89 10 9 19 21 19 27 0 19 36 84 84 155
28 40 55 81 61 90 5 9 20 31 32 49 13 17 23 37 23 44 0 6 15 28 33 48 17 21
55 66 82 101 45 58 112 133 188 210 88 91 156 186 181 253 14 40 26 78 26 85
0 18 -35 15 -52 -5z"/>
<path d="M7145 9238 c-3 -7 -37 -110 -76 -228 -46 -139 -94 -262 -137 -350
l-67 -135 -3 -151 c-2 -86 1 -175 8 -205 31 -149 65 -677 61 -949 -2 -176 -31
-272 -85 -286 -29 -7 -91 21 -160 72 -47 35 -53 36 -153 42 -100 5 -104 6
-129 35 -18 22 -24 38 -20 56 3 14 11 63 18 109 11 73 10 84 -4 98 -42 42
-108 -73 -111 -192 -2 -55 1 -66 29 -100 43 -54 76 -68 179 -74 86 -5 94 -8
181 -58 78 -45 99 -53 147 -54 64 -2 81 9 144 95 l36 49 61 -5 c34 -3 76 -8
94 -12 20 -5 38 -3 47 5 45 37 65 242 31 318 -17 36 -23 43 -45 40 -29 -3 -31
-21 -12 -93 10 -38 8 -57 -15 -184 -4 -18 -9 -22 -27 -17 -12 3 -48 6 -80 6
l-57 0 2 148 c3 204 -17 581 -47 912 -8 91 -12 184 -9 207 4 23 1 65 -6 92
-14 58 -7 81 79 264 28 59 56 125 62 147 11 37 13 38 68 45 31 4 99 18 151 32
112 30 152 37 326 57 72 8 168 22 214 32 132 26 215 17 323 -37 51 -24 98 -56
110 -72 63 -82 85 -102 104 -91 13 8 19 26 21 62 3 43 -1 55 -26 84 -16 18
-36 47 -45 64 -32 63 -190 161 -312 194 -73 21 -94 22 -270 16 -116 -4 -239
-15 -317 -28 -100 -16 -141 -19 -190 -12 -59 8 -63 11 -66 37 -3 28 -19 37
-27 15z m824 -109 c36 -6 71 -16 76 -21 6 -6 -4 -7 -30 -2 -68 13 -168 9 -205
-8 -43 -20 -132 -34 -265 -44 -125 -8 -299 -46 -407 -89 -24 -9 -23 11 1 95
12 43 23 64 32 63 8 -1 48 -10 89 -19 63 -14 86 -15 144 -5 59 10 173 21 366
34 99 7 136 7 199 -4z"/>
<path d="M6339 9224 c-12 -15 -31 -16 -179 -8 -91 5 -248 8 -350 8 l-185 -1
-118 -46 c-116 -46 -163 -76 -252 -160 -22 -21 -76 -63 -120 -92 -44 -29 -90
-63 -102 -74 -25 -24 -39 -64 -28 -82 15 -23 86 -2 157 47 38 26 97 60 131 77
92 44 308 92 442 99 97 5 326 -16 465 -43 30 -6 89 -14 130 -17 l75 -7 21 -65
c28 -86 58 -143 110 -211 l44 -55 1 -270 c0 -148 4 -390 8 -539 6 -219 5 -276
-6 -303 -18 -43 -14 -107 7 -107 8 0 22 15 31 32 9 18 26 41 38 50 22 18 22
19 10 211 -6 106 -9 198 -6 205 2 7 1 39 -4 72 -7 50 -12 418 -7 535 3 90 -12
135 -100 300 -28 53 -48 109 -66 190 -25 115 -54 209 -75 249 -14 25 -53 28
-72 5z m40 -144 c6 -22 9 -45 5 -51 -8 -14 -53 -7 -149 21 -95 27 -299 43
-475 38 -121 -4 -158 -10 -225 -31 -43 -14 -81 -24 -84 -22 -2 3 5 8 15 11 10
4 48 20 83 35 91 41 196 51 451 44 118 -3 244 -2 280 3 36 4 70 5 76 0 6 -4
16 -26 23 -48z"/>
<path d="M6537 9113 c-16 -15 -5 -72 22 -114 32 -51 93 -86 173 -98 82 -13
182 14 176 47 -2 13 -14 15 -60 13 -67 -3 -157 21 -199 52 -16 11 -38 40 -50
64 -19 40 -44 54 -62 36z"/>
<path d="M5797 8760 c-50 -9 -292 -98 -407 -150 -36 -16 -84 -34 -108 -40 -42
-11 -82 -40 -82 -60 0 -22 36 -28 90 -14 30 8 63 14 74 14 11 0 72 22 135 49
161 69 299 121 346 131 56 13 212 12 258 -1 21 -6 56 -26 77 -45 34 -31 47
-36 109 -41 58 -5 71 -3 71 9 0 9 -22 21 -57 32 -32 10 -67 26 -78 36 -48 43
-135 72 -238 81 -118 9 -126 9 -190 -1z"/>
<path d="M7593 8701 c-31 -5 -90 -29 -147 -60 -52 -28 -103 -51 -113 -51 -18
-1 -63 -60 -63 -84 0 -8 7 -19 16 -27 12 -10 19 -10 32 -1 10 7 37 22 62 33
25 11 77 35 115 54 39 18 88 38 110 44 92 25 221 4 342 -56 76 -37 117 -39
130 -6 7 18 4 20 -87 79 -91 59 -275 94 -397 75z"/>
<path d="M5817 8630 c-97 -17 -253 -79 -372 -149 -55 -33 -79 -41 -118 -41
-62 0 -69 -17 -25 -69 27 -33 39 -41 68 -41 43 0 147 -48 203 -94 59 -48 117
-75 229 -106 77 -23 109 -27 160 -23 35 3 69 10 76 16 21 17 -7 37 -52 37 -23
0 -73 9 -111 20 -39 12 -92 27 -118 35 -49 14 -133 61 -177 101 -14 12 -40 29
-58 38 -18 10 -32 23 -29 29 7 23 84 64 197 105 135 49 165 56 186 48 14 -5
13 -10 -5 -40 -62 -99 20 -172 130 -116 53 28 65 55 45 105 -9 21 -14 40 -12
43 10 10 76 -10 137 -40 44 -22 86 -55 133 -105 38 -40 73 -73 78 -73 14 0 41
67 35 84 -4 9 -16 16 -28 16 -14 0 -43 23 -82 65 -59 65 -100 92 -181 122
-118 42 -199 51 -309 33z"/>
<path d="M7569 8541 c-90 -29 -239 -145 -239 -186 0 -23 29 -30 54 -14 11 7
64 37 116 66 76 42 104 53 141 53 55 0 63 -6 44 -34 -21 -29 -18 -69 7 -101
20 -26 25 -27 76 -22 71 7 106 39 104 91 -1 25 3 36 13 36 21 0 84 -39 134
-82 54 -47 81 -55 129 -36 29 11 37 19 37 38 0 22 -6 26 -41 30 -27 4 -55 18
-81 40 -23 19 -76 55 -119 80 l-79 45 -135 2 c-74 1 -147 -2 -161 -6z"/>
<path d="M4048 8463 c-7 -47 -106 -235 -162 -308 -243 -315 -328 -440 -406
-595 -48 -96 -65 -156 -86 -305 -15 -105 -16 -136 -5 -250 7 -71 19 -161 26
-200 7 -38 16 -92 20 -120 8 -68 29 -133 78 -240 71 -159 199 -364 236 -380
40 -16 29 22 -52 187 -145 291 -167 358 -197 583 -35 268 -34 335 6 535 24
117 96 277 158 351 14 16 28 39 31 51 4 13 33 57 64 98 32 41 70 96 87 123 16
26 48 74 71 106 65 92 177 335 171 374 -2 12 -10 23 -19 25 -12 2 -18 -7 -21
-35z"/>
<path d="M5736 8439 c-27 -32 -34 -76 -16 -109 6 -11 30 -32 53 -49 38 -26 55
-30 142 -36 l100 -7 49 33 c84 58 92 103 10 59 -77 -42 -234 -28 -285 26 l-24
25 23 39 c27 48 27 50 -2 50 -15 0 -34 -12 -50 -31z"/>
<path d="M7525 8374 c-34 -37 -31 -67 10 -113 40 -44 114 -79 184 -88 86 -10
231 56 231 105 0 21 -4 24 -27 19 -16 -2 -59 -16 -98 -31 -83 -31 -109 -32
-167 -7 -60 26 -78 49 -75 96 3 50 -22 58 -58 19z"/>
<path d="M7345 8270 c-11 -17 13 -37 51 -44 25 -5 42 -18 62 -45 29 -41 85
-81 167 -119 44 -20 59 -22 125 -17 82 8 145 30 174 64 35 39 6 46 -65 15 -55
-23 -73 -26 -127 -20 -80 7 -160 46 -222 107 -25 26 -56 51 -68 58 -26 14 -89
14 -97 1z"/>
<path d="M7250 6606 c0 -16 29 -57 86 -122 94 -108 119 -129 214 -181 36 -20
86 -57 111 -84 58 -59 94 -83 114 -75 28 10 16 42 -45 118 -62 78 -126 126
-250 188 -76 38 -152 100 -181 147 -24 39 -49 44 -49 9z"/>
<path d="M6720 6591 c0 -5 -13 -22 -30 -38 -16 -15 -30 -37 -30 -48 0 -33 -79
-102 -149 -130 -202 -82 -409 -241 -468 -358 -39 -77 -53 -142 -53 -252 0 -66
4 -88 18 -106 25 -30 52 -20 52 20 0 61 39 229 68 293 26 57 40 73 113 130
122 94 171 119 262 135 l79 13 55 -36 c40 -26 71 -38 121 -45 79 -12 117 -6
184 26 45 22 54 23 106 13 31 -6 100 -13 153 -17 105 -7 95 -2 232 -112 74
-59 142 -148 165 -212 25 -74 64 -149 84 -161 13 -8 22 -6 35 6 16 17 16 22
-1 90 -10 40 -23 87 -29 103 -10 29 -65 125 -77 135 -3 3 -16 22 -30 43 -25
37 -147 145 -217 191 -21 14 -69 37 -108 51 -125 47 -165 78 -257 198 -56 73
-87 93 -103 67 -3 -5 17 -55 45 -110 55 -106 104 -159 183 -199 l42 -22 -60 7
c-46 4 -66 11 -83 30 -29 31 -34 30 -75 -6 -19 -16 -46 -34 -61 -40 -36 -13
-152 -13 -179 1 -27 14 -77 60 -77 71 0 4 27 35 61 69 33 33 67 76 75 95 17
41 18 86 2 102 -14 14 -48 16 -48 3z"/>
<path d="M6230 6555 c-13 -16 -140 -113 -200 -153 -58 -40 -111 -95 -131 -137
-24 -51 -26 -140 -3 -149 23 -9 54 12 54 36 0 59 75 156 186 241 75 57 146
135 142 156 -4 22 -32 25 -48 6z"/>
<path d="M6433 6491 c-36 -39 -88 -83 -120 -101 -118 -66 -281 -182 -312 -221
-48 -59 -89 -155 -100 -232 -11 -80 -7 -97 23 -97 17 0 27 13 46 57 53 123
119 238 148 258 16 11 64 47 106 80 43 33 107 76 144 96 96 51 192 178 162
214 -7 8 -18 15 -24 15 -6 -1 -39 -32 -73 -69z"/>
<path d="M7113 6533 c-7 -2 -13 -17 -13 -33 0 -35 42 -79 102 -108 24 -11 52
-29 62 -41 11 -12 23 -21 27 -21 5 0 32 -14 61 -32 173 -105 334 -281 355
-389 6 -33 13 -44 27 -44 51 0 43 90 -18 219 -44 93 -132 179 -246 240 -19 10
-55 33 -79 50 -77 55 -126 87 -147 95 -11 5 -33 20 -50 34 -32 27 -62 38 -81
30z"/>
<path d="M6856 6413 c-3 -4 -34 -10 -67 -14 -34 -4 -66 -12 -72 -18 -17 -17 4
-44 43 -54 48 -12 94 -1 130 33 27 25 30 33 20 45 -13 16 -42 20 -54 8z"/>
<path d="M7095 6091 c-37 -23 -296 -81 -363 -81 -42 0 -58 6 -95 34 -24 19
-54 39 -65 45 -30 16 -72 14 -79 -5 -8 -21 97 -118 156 -144 48 -22 141 -26
213 -11 24 6 68 15 98 22 129 27 234 103 199 145 -15 18 -28 18 -64 -5z"/>
<path d="M8157 6003 c-12 -11 -8 -53 15 -136 48 -181 19 -534 -68 -817 -43
-143 -58 -240 -41 -264 30 -41 55 2 91 165 8 35 30 127 50 204 77 309 84 510
24 750 -11 44 -24 86 -30 93 -11 13 -31 16 -41 5z"/>
<path d="M6685 5716 c-88 -29 -139 -58 -197 -113 -64 -61 -100 -121 -119 -198
-10 -39 -9 -49 3 -62 14 -13 18 -11 41 19 13 18 38 60 55 93 38 77 123 157
208 197 63 29 70 31 154 25 103 -8 147 -25 262 -101 45 -31 91 -56 100 -56 80
0 -132 148 -274 191 -72 22 -174 24 -233 5z"/>
<path d="M3759 5443 c-21 -65 -16 -235 10 -343 37 -147 96 -273 170 -360 72
-84 136 -171 156 -210 36 -70 107 -161 124 -158 30 6 23 41 -30 147 -58 116
-104 187 -157 241 -53 55 -88 110 -131 209 -51 117 -80 246 -89 391 -6 95 -10
115 -24 118 -11 2 -20 -8 -29 -35z"/>
<path d="M8992 5338 c-18 -18 -15 -48 13 -122 18 -49 25 -87 26 -148 2 -145
-9 -170 -216 -483 -200 -303 -220 -335 -274 -450 -53 -110 -60 -147 -41 -217
10 -36 41 -65 59 -54 5 3 9 41 9 83 0 70 4 87 42 168 22 50 48 101 56 115 8
14 27 47 42 73 15 27 68 111 117 187 162 250 187 292 224 369 35 73 36 80 36
186 -1 83 -6 131 -24 195 -29 107 -42 125 -69 98z"/>
<path d="M7921 5023 c-5 -21 -17 -103 -26 -183 -26 -232 -71 -476 -110 -600
-45 -143 -55 -210 -31 -210 9 0 21 10 26 23 100 243 137 361 160 512 5 39 14
93 20 120 13 68 24 316 16 348 -10 42 -43 36 -55 -10z"/>
<path d="M7701 4666 c-6 -7 -15 -45 -20 -84 -5 -39 -12 -75 -15 -80 -3 -5 -13
-53 -21 -106 -9 -53 -27 -127 -41 -164 -14 -37 -42 -122 -63 -188 -21 -67 -64
-178 -95 -247 -31 -69 -56 -132 -56 -141 0 -26 28 -18 44 12 8 15 39 64 69
109 39 60 64 112 87 185 17 57 54 168 81 248 27 80 53 175 58 210 6 36 16 98
22 138 9 54 9 80 1 98 -13 27 -34 31 -51 10z"/>
<path d="M5402 4587 c-19 -23 -32 -106 -26 -165 10 -83 36 -147 135 -332 69
-130 94 -186 114 -265 25 -98 48 -144 74 -153 17 -6 8 120 -16 218 -17 73 -79
211 -122 273 -41 61 -96 175 -109 227 -6 25 -9 82 -7 128 5 75 3 82 -14 82
-10 0 -23 -6 -29 -13z"/>
<path d="M5703 4344 c-8 -23 4 -167 22 -248 8 -38 34 -112 57 -165 l42 -96 1
-165 c1 -183 5 -202 46 -276 36 -64 55 -82 71 -66 9 9 6 27 -10 74 -34 101
-42 169 -35 316 l6 137 -45 105 c-52 120 -72 180 -88 265 -20 106 -30 135 -46
135 -8 0 -17 -7 -21 -16z"/>
<path d="M7453 4298 c-6 -7 -22 -70 -37 -140 -22 -108 -81 -316 -166 -586 -11
-34 -40 -104 -64 -155 -52 -110 -72 -164 -63 -173 11 -11 34 14 85 94 95 148
122 213 191 452 71 249 101 388 105 490 1 28 -33 40 -51 18z"/>
<path d="M6642 3533 c-6 -10 -13 -40 -17 -68 -4 -27 -26 -104 -49 -170 l-41
-120 0 -185 c0 -147 4 -198 18 -250 21 -76 73 -196 98 -225 39 -47 99 -160
104 -199 9 -54 18 -69 41 -64 17 3 19 13 19 95 0 87 -1 93 -31 130 -122 152
-149 243 -149 498 0 99 5 202 12 230 6 28 20 86 31 130 11 44 22 109 24 145 3
64 3 65 -24 68 -18 2 -30 -3 -36 -15z"/>
<path d="M3124 2105 c-51 -22 -95 -78 -109 -139 -7 -31 -9 -56 -4 -56 5 0 9
-6 9 -13 0 -7 9 -32 21 -56 25 -53 46 -51 76 9 27 53 27 57 8 94 -16 31 -12
60 13 89 18 20 74 22 192 7 62 -8 84 -16 130 -48 30 -21 84 -55 120 -75 67
-37 131 -97 194 -180 35 -48 36 -50 30 -116 -5 -55 -4 -70 10 -84 28 -28 65
-21 102 19 46 48 47 95 1 150 -18 21 -45 56 -60 76 -61 83 -142 160 -205 195
-36 20 -87 51 -114 69 -26 18 -71 39 -100 47 -73 21 -277 28 -314 12z"/>
<path d="M9557 2040 c-27 -5 -89 -28 -139 -52 -74 -35 -101 -54 -149 -107 -51
-57 -59 -71 -65 -118 -9 -72 -3 -83 44 -83 54 0 72 23 72 91 0 50 3 58 38 90
67 64 186 119 255 119 21 0 80 -12 130 -26 76 -22 99 -33 135 -68 24 -22 53
-58 63 -79 18 -34 24 -38 52 -35 25 2 33 8 35 27 2 13 -1 28 -7 34 -6 6 -11
19 -11 29 0 13 -31 91 -47 117 -3 5 -333 71 -347 70 -6 -1 -33 -5 -59 -9z"/>
</g>
</svg>
