<?xml version="1.0" standalone="no"?>
<!DOCTYPE svg PUBLIC "-//W3C//DTD SVG 20010904//EN"
 "http://www.w3.org/TR/2001/REC-SVG-20010904/DTD/svg10.dtd">
<svg version="1.0" xmlns="http://www.w3.org/2000/svg"
 width="2688.000000pt" height="527.000000pt" viewBox="0 0 2688.000000 527.000000"
 preserveAspectRatio="xMidYMid meet">
<metadata>
Created by potrace 1.13, written by Peter Selinger 2001-2015
</metadata>
<g transform="translate(0.000000,527.000000) scale(0.100000,-0.100000)"
fill="#000000" stroke="none">
<path d="M26665 5165 c-5 -2 -22 -6 -37 -9 -15 -3 -29 -15 -33 -25 -3 -11 -19
-22 -34 -26 -16 -3 -38 -15 -49 -25 -12 -11 -24 -20 -27 -20 -18 0 -85 -37
-85 -47 0 -6 -13 -14 -30 -18 -16 -4 -30 -12 -30 -18 0 -7 -17 -23 -38 -37
-20 -14 -39 -27 -42 -30 -3 -3 -26 -15 -52 -27 -27 -13 -48 -29 -48 -37 0 -8
-7 -17 -16 -20 -35 -13 -61 -5 -90 29 -19 24 -37 35 -55 35 -15 0 -38 9 -52
20 -21 17 -40 20 -121 20 -84 0 -97 -2 -106 -19 -5 -11 -19 -23 -30 -26 -11
-3 -20 -11 -20 -17 0 -5 -10 -23 -21 -40 -13 -18 -21 -44 -21 -68 1 -49 20
-120 32 -120 6 0 10 -7 10 -16 0 -9 8 -22 17 -29 15 -11 15 -17 5 -39 -6 -14
-20 -26 -30 -26 -10 0 -23 -5 -29 -11 -7 -7 -36 -9 -79 -5 -56 4 -1307 10
-1324 6 -3 -1 -32 -1 -65 -1 -151 2 -641 0 -1065 -4 -256 -3 -503 -4 -550 -3
-47 1 -155 1 -240 -1 -155 -2 -496 -1 -708 2 -63 1 -116 -1 -118 -4 -2 -4 -66
-5 -141 -3 -223 5 -701 3 -1388 -7 -44 -1 -186 -1 -315 0 -129 1 -248 1 -265
0 -16 0 -172 0 -345 1 -173 1 -623 -1 -1000 -5 -377 -4 -732 -7 -790 -6 -227
2 -286 0 -306 -10 -15 -8 -30 -7 -56 4 -27 11 -60 13 -149 8 -103 -5 -326 -6
-664 -2 -66 1 -138 1 -160 0 -22 -1 -170 -1 -330 0 -159 1 -294 1 -300 1 -5
-1 -122 -1 -260 0 -377 2 -630 1 -945 -5 -317 -6 -329 -6 -590 -5 -179 1 -864
2 -945 1 -725 -7 -1095 -5 -1095 4 0 7 -164 9 -552 7 -304 -2 -600 -4 -658 -3
-228 2 -286 0 -306 -10 -15 -8 -30 -7 -56 4 -27 11 -60 13 -149 8 -103 -5
-326 -6 -664 -2 -66 1 -138 1 -160 0 -22 -1 -170 -1 -330 0 -159 1 -294 1
-300 1 -5 -1 -122 -1 -260 0 -377 2 -630 1 -945 -5 -317 -6 -329 -6 -590 -5
-229 2 -891 2 -945 1 -22 -1 -508 -3 -1080 -6 -572 -3 -1049 -6 -1060 -6 -113
-5 -2125 7 -2125 13 0 10 41 48 52 48 4 0 8 7 8 16 0 8 6 22 14 30 14 13 33
113 27 144 -6 35 -47 110 -64 116 -9 3 -22 14 -27 25 -16 28 -169 28 -223 -1
-20 -11 -46 -20 -57 -20 -23 0 -51 -24 -69 -57 -18 -36 -91 -29 -91 8 0 13
-15 26 -47 42 -27 12 -50 24 -53 27 -3 3 -22 16 -42 30 -21 14 -38 31 -38 38
0 6 -7 12 -15 12 -8 0 -15 5 -15 10 0 6 -7 10 -15 10 -8 0 -15 6 -15 13 0 10
-67 47 -85 47 -3 0 -15 9 -26 19 -12 11 -33 22 -47 26 -15 4 -40 17 -57 29
-41 30 -88 48 -117 44 -19 -2 -24 -10 -26 -42 -3 -39 26 -156 39 -156 3 0 9
-18 13 -39 3 -22 9 -41 13 -43 9 -4 60 -106 98 -198 38 -93 49 -117 85 -193
29 -61 31 -71 20 -93 -7 -13 -17 -24 -22 -24 -4 0 -8 -7 -8 -15 0 -8 -6 -15
-14 -15 -31 0 -61 -249 -33 -276 4 -4 7 -13 7 -21 0 -7 10 -24 21 -37 12 -14
27 -35 33 -48 14 -27 65 -54 121 -63 30 -5 60 0 115 19 87 30 120 61 120 112
0 33 1 34 38 34 31 0 41 -6 60 -33 28 -41 28 -86 1 -121 -19 -25 -20 -37 -18
-189 3 -194 -8 -643 -16 -657 -3 -5 -2 -27 4 -47 5 -21 7 -78 5 -128 -9 -180
-11 -550 -2 -561 4 -6 4 -67 -1 -135 -5 -68 -8 -166 -7 -216 0 -51 -1 -93 -5
-93 -7 0 -2 -180 5 -187 3 -4 1 -12 -5 -19 -8 -10 -7 -21 4 -43 8 -17 11 -31
6 -33 -5 -2 -11 -109 -13 -241 -2 -131 -7 -241 -10 -245 -4 -3 -15 -1 -24 6
-9 7 -29 17 -44 23 -15 6 -30 19 -33 28 -10 32 -79 78 -137 91 -81 18 -153 -5
-206 -69 -21 -25 -44 -56 -50 -68 -16 -29 -26 -161 -14 -176 5 -7 15 -33 22
-59 8 -33 16 -45 26 -41 8 3 14 0 14 -6 0 -7 9 -21 20 -33 26 -28 25 -41 -5
-86 -14 -20 -25 -41 -25 -45 0 -5 -23 -56 -50 -114 -28 -58 -50 -108 -50 -113
0 -4 -7 -14 -17 -21 -13 -11 -52 -83 -58 -109 -1 -3 -5 -13 -9 -22 -4 -9 -5
-22 -1 -28 3 -5 2 -10 -3 -10 -15 0 -44 -102 -40 -141 3 -34 3 -34 57 -37 70
-4 98 3 106 27 3 10 16 22 28 25 12 3 34 17 49 31 15 14 30 25 32 25 19 0 86
37 86 47 0 6 13 14 30 18 16 4 30 12 30 18 0 7 17 23 38 37 20 14 39 27 42 30
3 4 20 12 39 20 19 8 47 26 63 42 33 32 75 37 85 11 10 -26 43 -50 76 -57 16
-3 40 -15 54 -26 24 -19 35 -20 117 -14 78 6 94 10 113 31 12 12 27 23 33 23
5 0 10 5 10 11 0 6 10 24 21 41 16 22 21 43 20 81 -1 65 -10 107 -22 107 -5 0
-9 8 -9 18 0 9 -16 27 -35 40 -19 12 -35 26 -35 30 0 4 57 8 128 8 207 0 423
7 428 15 6 10 508 -1 515 -12 3 -6 24 -5 53 3 40 11 48 10 56 -2 8 -12 15 -12
52 -1 67 20 105 24 112 12 9 -14 53 -14 61 -1 8 12 85 13 85 1 0 -14 122 -24
130 -11 5 7 40 11 96 11 124 -1 912 6 1122 10 94 2 172 2 172 -1 0 -4 297 -8
765 -10 120 -1 233 5 241 13 12 12 36 8 56 -10 16 -14 23 -15 38 -5 25 15 55
15 81 0 17 -10 23 -10 26 0 6 15 119 17 129 1 5 -8 8 -8 14 0 9 16 119 19 128
4 5 -8 20 -9 52 -2 25 4 70 6 101 3 35 -4 59 -2 63 4 9 15 277 6 287 -9 4 -7
19 -9 40 -5 64 14 264 24 274 15 11 -11 79 -12 89 -1 6 6 409 8 2296 12 502 1
2616 -10 2800 -14 371 -9 522 -7 536 6 12 13 36 9 56 -9 16 -14 23 -15 38 -5
25 15 55 15 81 0 17 -10 23 -10 26 0 6 15 119 17 129 1 5 -8 8 -8 14 0 9 16
119 19 128 4 5 -8 20 -9 52 -2 25 4 70 6 101 3 35 -4 59 -2 63 4 9 15 277 6
287 -9 4 -7 19 -9 40 -5 64 14 264 24 274 15 11 -11 79 -12 89 -2 4 5 499 9
1099 10 1318 3 1045 3 2557 3 1269 0 1783 3 1943 12 48 3 90 1 93 -3 7 -13
224 -11 224 1 0 13 47 13 55 0 8 -13 62 -13 70 0 8 13 55 13 55 0 0 -16 83
-12 108 6 15 10 22 11 22 3 0 -8 14 -9 48 -4 67 11 242 13 242 3 0 -4 32 -5
70 -2 50 5 70 4 70 -5 0 -13 32 -15 46 -2 10 10 244 21 244 11 0 -3 98 -6 218
-7 119 0 289 -1 376 -1 88 -1 168 4 178 9 10 5 24 6 31 2 6 -4 73 -8 147 -9
74 0 181 -4 238 -9 83 -6 121 -5 197 10 78 14 98 15 110 5 18 -15 207 -20 310
-9 33 3 62 3 65 0 3 -4 46 -6 95 -4 96 4 318 3 585 -1 93 -2 170 1 177 6 8 6
53 5 122 -2 144 -15 354 -17 624 -6 176 7 220 7 227 -4 6 -10 20 -10 71 0 50
9 80 9 134 0 87 -14 390 -13 428 2 19 8 31 8 35 1 11 -16 390 -26 460 -13 52
11 63 10 86 -5 19 -13 25 -23 19 -34 -10 -22 -5 -135 7 -139 6 -2 10 -8 10
-14 0 -23 95 -98 125 -98 8 0 14 -6 12 -12 -1 -8 12 -14 36 -16 20 -2 37 -7
37 -13 0 -5 14 -9 30 -9 17 0 30 5 30 10 0 6 10 10 23 10 29 1 117 31 142 50
11 8 26 27 34 43 11 20 22 27 45 28 54 2 70 -2 93 -27 12 -13 33 -24 48 -24
16 0 25 -6 25 -15 0 -8 6 -15 13 -15 29 0 87 -22 82 -31 -4 -5 3 -9 14 -9 12
0 21 -6 21 -14 0 -9 18 -16 50 -20 28 -4 50 -11 50 -15 0 -5 11 -12 25 -15 14
-4 25 -11 25 -16 0 -6 27 -10 60 -10 l60 0 0 40 c0 37 -8 61 -50 155 -10 22
-24 55 -30 73 -7 17 -16 32 -21 32 -5 0 -9 7 -9 15 0 8 -9 32 -20 52 -11 21
-20 44 -20 51 0 8 -9 26 -19 40 -10 15 -20 32 -21 37 -2 6 -7 20 -13 32 -8 19
-6 27 16 47 25 24 26 25 22 142 -6 152 -9 174 -34 215 -12 19 -21 44 -21 56 0
14 -11 29 -27 40 -16 9 -37 24 -48 34 -21 18 -86 28 -188 29 l-59 0 7 31 c5
23 3 34 -10 43 -15 11 -17 36 -19 207 -1 107 1 199 5 204 3 6 3 39 -1 75 -4
36 -4 101 -1 145 3 44 3 103 -2 130 -4 28 -6 88 -5 135 2 47 1 184 -1 305 -5
282 -6 319 -3 380 1 28 1 113 0 190 -1 77 -1 158 0 180 1 22 -1 105 -4 185 -5
174 -6 387 0 415 3 11 5 51 5 89 1 66 2 68 19 53 10 -10 26 -17 34 -17 9 0 21
-7 28 -15 7 -8 19 -15 26 -15 7 0 19 -11 26 -24 20 -36 68 -72 121 -90 60 -20
72 -20 136 1 38 12 60 27 84 57 17 23 35 43 39 44 5 2 8 12 8 21 0 10 3 21 7
25 28 28 -2 256 -33 256 -8 0 -14 5 -14 10 0 6 -9 20 -20 32 -26 28 -25 41 5
86 14 20 25 40 25 45 0 4 16 43 36 85 20 42 43 95 52 117 9 22 26 55 39 74 13
19 23 40 23 47 0 8 4 14 10 14 5 0 13 18 16 40 4 22 10 40 14 40 14 0 42 104
38 141 -3 32 -5 34 -43 36 -22 1 -44 0 -50 -2z m-1215 -705 c0 -5 20 -10 45
-10 26 0 45 -5 45 -11 0 -13 28 -9 124 17 53 15 70 16 73 7 3 -7 16 -13 29
-13 14 0 22 4 19 10 -9 14 122 12 165 -3 40 -14 39 -11 25 -211 -6 -74 -5
-100 5 -106 10 -6 10 -15 0 -44 -6 -19 -9 -39 -6 -44 2 -4 6 -81 8 -170 l3
-162 -72 -69 c-54 -52 -74 -79 -79 -105 -3 -20 -10 -39 -15 -42 -5 -3 -9 -15
-9 -26 0 -12 -6 -29 -13 -37 -8 -9 -19 -42 -26 -74 -13 -57 -14 -60 -82 -103
-37 -24 -72 -51 -76 -58 -4 -7 -24 -21 -43 -31 -53 -27 -110 -76 -110 -94 1
-20 24 -51 39 -51 6 0 11 -4 11 -10 0 -5 9 -10 20 -10 11 0 20 -7 20 -15 0
-12 8 -14 40 -9 27 4 40 3 40 -5 0 -6 7 -11 15 -11 8 0 15 -4 15 -10 0 -5 8
-10 18 -10 27 0 41 -14 48 -45 4 -25 -2 -38 -38 -78 -23 -27 -56 -56 -73 -64
-16 -9 -48 -30 -70 -48 -22 -18 -48 -35 -58 -38 -9 -4 -20 -14 -24 -23 -9 -23
24 -121 46 -136 10 -7 21 -23 25 -34 4 -12 20 -32 36 -44 17 -13 30 -27 30
-32 0 -5 11 -19 25 -32 14 -13 25 -31 25 -40 0 -24 18 -57 45 -81 12 -11 25
-32 29 -47 3 -16 13 -28 20 -28 8 0 17 -14 21 -30 4 -17 12 -30 18 -30 12 0
57 -87 57 -108 0 -6 6 -15 13 -19 13 -8 40 -73 51 -124 3 -14 17 -38 31 -53
14 -15 25 -33 25 -41 0 -8 3 -16 8 -18 4 -3 7 -118 7 -256 0 -191 -3 -254 -13
-259 -20 -13 -44 -122 -37 -170 7 -46 -13 -92 -39 -92 -25 0 -240 206 -390
373 -38 42 -75 77 -81 77 -22 0 -116 109 -141 163 -13 30 -27 76 -30 103 -4
27 -10 54 -14 59 -4 6 -6 74 -5 152 l3 141 -41 10 c-23 6 -94 9 -157 6 -100
-4 -119 -2 -150 15 -19 11 -54 29 -77 41 -23 12 -42 25 -41 28 1 4 -4 21 -11
37 -13 30 -8 195 6 218 3 5 5 27 5 49 -1 21 3 38 8 38 6 0 10 5 10 10 0 11 60
147 80 182 14 25 12 84 -2 96 -28 22 -134 33 -223 22 -47 -6 -96 -15 -108 -19
-21 -8 -207 -6 -267 3 -25 4 -76 21 -176 58 -28 10 -72 36 -98 58 -26 21 -57
42 -69 46 -23 7 -129 92 -136 109 -2 6 -21 26 -41 45 -97 92 -170 209 -186
295 -11 60 -17 83 -31 114 -25 55 -14 185 20 238 15 24 27 54 27 68 0 14 5 25
10 25 6 0 10 4 10 10 0 5 14 24 31 41 17 17 35 45 41 60 5 16 16 29 23 29 7 0
15 9 18 20 4 15 14 20 36 20 17 0 31 5 31 10 0 6 7 10 15 10 8 0 15 6 15 14 0
8 12 21 28 29 40 21 75 41 92 52 24 15 83 35 108 35 12 0 22 5 22 11 0 7 29
10 83 9 45 -1 109 1 142 4 33 2 64 1 71 -5 6 -5 39 -12 73 -15 33 -4 61 -11
61 -15 0 -5 9 -9 20 -9 11 0 20 -7 20 -15 0 -8 9 -15 20 -15 11 0 20 -7 20
-15 0 -8 5 -15 11 -15 6 0 27 -13 46 -30 18 -16 39 -30 46 -30 7 0 18 -12 24
-27 6 -16 18 -39 26 -53 34 -58 41 -84 41 -158 0 -67 -3 -83 -28 -124 -15 -26
-44 -64 -63 -83 -39 -39 -64 -43 -126 -21 -33 11 -36 14 -22 26 8 7 15 21 15
32 0 11 5 28 11 40 30 57 -36 112 -148 123 -79 8 -112 -5 -138 -55 -28 -54
-14 -176 26 -218 10 -12 19 -26 19 -32 0 -5 18 -18 40 -27 22 -10 40 -21 40
-25 0 -5 15 -8 33 -8 17 0 48 -5 67 -10 45 -13 187 -1 205 17 7 7 18 13 24 13
6 0 11 5 11 11 0 5 15 16 33 24 38 16 69 47 66 67 -3 26 1 37 24 60 34 34 47
60 37 78 -12 23 0 110 16 110 7 0 28 -10 47 -23 19 -13 59 -29 91 -37 31 -7
56 -17 56 -22 0 -4 7 -8 15 -8 8 0 15 -4 15 -10 0 -5 14 -10 30 -10 17 0 30
-5 30 -11 0 -8 17 -10 50 -7 28 3 50 1 50 -3 0 -11 51 -11 68 -1 21 14 26 75
8 110 -9 18 -20 32 -25 32 -4 0 -50 41 -101 92 l-94 92 24 15 c13 9 34 26 47
39 12 12 28 22 36 22 21 0 128 121 134 153 3 15 9 27 13 27 10 0 -1 63 -13 79
-14 16 -86 9 -102 -11 -13 -16 -59 -44 -105 -64 -19 -8 -62 -28 -94 -44 -32
-17 -71 -30 -85 -30 -14 0 -39 -7 -55 -15 -37 -20 -196 -20 -268 -1 -29 8 -86
30 -126 50 -40 20 -76 36 -81 36 -4 0 -37 9 -74 21 -52 16 -83 19 -144 16
-169 -11 -312 -41 -359 -74 -16 -11 -42 -23 -57 -27 -26 -6 -59 -25 -127 -73
-13 -10 -38 -33 -55 -52 -16 -19 -53 -58 -81 -85 -63 -64 -114 -134 -114 -158
0 -35 -29 -31 -82 11 -28 23 -58 52 -66 64 -28 42 -76 87 -92 87 -25 0 -58
-44 -61 -82 -2 -18 -6 -37 -10 -43 -4 -5 -3 -46 1 -90 5 -44 5 -84 0 -89 -20
-21 -84 21 -184 119 -28 27 -65 61 -81 75 -17 14 -84 84 -150 155 -66 72 -128
137 -138 145 -72 57 -193 197 -202 233 -7 26 -6 27 38 27 25 0 47 -4 49 -9 2
-5 32 -12 68 -15 36 -3 81 -10 100 -16 19 -5 47 -10 62 -10 18 0 28 -5 28 -15
0 -8 7 -15 15 -15 9 0 29 -13 45 -30 16 -16 38 -30 49 -30 10 0 21 -7 25 -15
3 -8 17 -20 31 -25 14 -5 25 -14 25 -20 0 -7 15 -10 38 -8 30 2 36 7 34 22 -4
24 36 66 64 66 12 0 24 5 26 11 3 8 39 12 104 13 55 1 105 6 112 10 18 11 106
-12 128 -33 35 -32 85 -51 105 -40 10 5 19 14 19 19 0 6 7 10 15 10 8 0 15 4
15 9 0 5 21 12 46 16 26 4 54 10 63 15 9 4 45 13 81 19 36 6 108 25 160 42
108 35 206 48 403 54 94 3 137 1 137 -7 0 -6 10 -8 28 -3 40 10 642 14 642 4
0 -13 68 -11 76 2 4 7 27 9 69 4 50 -5 66 -3 76 9 15 17 89 22 89 6z m-6107
-19 c26 -4 50 -4 53 0 5 9 158 2 184 -8 8 -4 20 -5 25 -3 21 5 326 14 450 13
81 -1 131 -6 133 -12 2 -6 26 -11 53 -11 27 0 49 -4 49 -10 0 -5 9 -10 20 -10
11 0 20 -4 20 -10 0 -5 9 -10 20 -10 11 0 20 -4 20 -10 0 -5 14 -10 30 -10 17
0 30 -4 30 -10 0 -12 37 -50 48 -50 5 0 14 -11 21 -23 7 -13 28 -30 47 -37 19
-8 34 -17 34 -22 0 -19 58 -5 90 22 19 17 40 30 47 30 7 0 13 6 13 14 0 8 14
20 30 28 18 8 30 20 30 32 0 16 2 16 16 5 10 -8 18 -9 22 -2 16 24 432 37 455
14 6 -6 21 -11 34 -11 13 0 23 -4 23 -10 0 -5 8 -10 17 -10 10 0 28 -12 40
-27 23 -26 24 -26 81 -14 110 24 147 34 156 42 6 5 20 9 33 9 13 0 23 4 23 9
0 4 19 11 43 14 120 18 206 40 234 60 8 5 50 6 100 2 71 -6 90 -11 104 -28 12
-15 14 -27 8 -39 -5 -9 -9 -25 -9 -34 0 -20 -38 -64 -55 -64 -6 0 -21 -12 -34
-26 -12 -14 -37 -32 -56 -40 -19 -7 -42 -27 -52 -44 -9 -17 -42 -48 -73 -70
-30 -21 -71 -57 -90 -80 -19 -22 -64 -68 -99 -103 -35 -34 -72 -71 -82 -82
-10 -11 -42 -47 -72 -80 -30 -33 -62 -76 -72 -94 -20 -39 -86 -105 -127 -127
-16 -8 -28 -18 -28 -23 0 -18 -287 -301 -305 -301 -38 0 -73 58 -45 75 5 3 7
19 3 35 -3 17 1 47 11 71 10 24 16 56 15 73 -2 17 1 38 6 46 5 8 8 57 6 110
-3 103 -21 161 -64 204 -21 21 -31 24 -68 19 -24 -3 -49 -10 -56 -15 -22 -17
-77 -235 -68 -271 3 -12 0 -31 -8 -41 -13 -18 -17 -17 -66 32 -28 28 -51 55
-51 60 0 6 -31 47 -68 92 -75 90 -198 194 -249 211 -18 6 -33 14 -33 19 0 16
-69 49 -117 56 -26 3 -64 13 -83 21 -35 14 -165 33 -255 38 -131 6 -277 17
-339 26 -38 5 -78 7 -88 3 -10 -3 -24 -1 -31 5 -16 12 -137 46 -241 67 -69 13
-81 14 -94 1 -20 -21 -7 -57 22 -57 13 0 35 -9 49 -20 15 -12 49 -24 77 -27
27 -3 50 -10 50 -14 0 -5 9 -9 20 -9 11 0 23 -7 26 -15 4 -8 10 -15 16 -15 5
0 25 -12 44 -26 67 -52 38 -89 -104 -133 -105 -33 -116 -41 -127 -81 -10 -41
25 -70 85 -70 28 0 50 -4 50 -10 0 -5 15 -10 33 -10 74 0 86 -16 118 -155 7
-27 16 -54 20 -60 5 -5 9 -27 9 -49 0 -43 28 -116 45 -116 5 0 18 -21 27 -48
11 -31 27 -53 46 -64 17 -10 44 -34 61 -53 17 -19 35 -35 41 -35 5 0 10 -4 10
-10 0 -5 11 -10 24 -10 14 0 28 -4 31 -10 3 -5 19 -10 36 -10 16 0 29 -4 29
-10 0 -5 10 -10 23 -10 34 0 117 32 117 46 0 6 12 15 28 19 37 9 62 34 62 61
0 13 4 25 9 28 5 4 12 28 16 54 10 72 -15 111 -80 128 -70 18 -105 17 -142 -6
-31 -19 -37 -32 -45 -110 -4 -35 -46 -48 -96 -31 -41 15 -82 48 -82 67 0 7 -6
19 -12 26 -7 8 -17 21 -23 30 -5 8 -18 27 -28 40 -10 14 -20 50 -24 79 -3 30
-10 59 -15 66 -10 12 -1 101 12 118 4 6 11 25 15 44 8 40 51 91 75 91 10 0 23
7 30 15 25 30 132 95 168 101 20 4 54 14 74 24 28 13 53 16 107 12 39 -2 71
-8 71 -13 0 -4 26 -11 57 -15 32 -4 63 -13 71 -20 7 -8 22 -14 32 -14 10 0 22
-4 25 -10 3 -5 13 -10 22 -10 8 0 24 -11 34 -24 10 -13 30 -27 44 -30 14 -4
25 -11 25 -16 0 -6 9 -10 20 -10 11 0 20 -5 20 -11 0 -11 24 -39 34 -39 3 0
19 -13 34 -30 16 -16 37 -30 47 -30 9 0 19 -9 22 -20 3 -11 12 -20 19 -20 8 0
14 -7 14 -15 0 -8 3 -15 8 -15 7 0 32 -48 32 -63 0 -4 12 -25 28 -44 27 -36
27 -38 27 -192 0 -110 -4 -163 -13 -181 -62 -117 -96 -167 -154 -229 -38 -39
-72 -71 -76 -71 -5 0 -28 -14 -51 -30 -30 -22 -68 -36 -134 -50 -51 -11 -107
-26 -124 -35 -45 -22 -215 -23 -265 -1 -42 18 -88 21 -88 6 0 -5 8 -18 18 -28
38 -38 62 -101 62 -163 0 -38 6 -69 16 -84 13 -20 14 -31 6 -53 -17 -44 -42
-138 -42 -159 0 -34 -72 -118 -124 -144 -45 -22 -60 -24 -198 -24 -137 0 -151
-2 -164 -19 -8 -11 -14 -33 -14 -48 0 -36 -28 -156 -42 -183 -6 -10 -13 -35
-15 -55 -2 -19 -20 -58 -39 -86 -66 -98 -253 -304 -275 -304 -6 0 -89 -79 -89
-86 0 -6 -79 -77 -135 -121 -27 -22 -71 -61 -97 -86 -26 -26 -58 -49 -72 -53
l-24 -6 -6 264 c-7 295 -8 322 -3 463 4 142 6 155 18 155 15 0 39 -26 39 -42
0 -15 50 -62 75 -72 9 -3 14 -10 11 -15 -11 -17 58 -20 71 -4 14 19 -1 50 -55
113 -43 51 -37 78 23 104 43 20 50 28 77 94 7 17 17 32 22 32 4 0 6 9 3 20 -3
10 0 21 5 22 16 6 9 181 -8 231 -14 39 -56 86 -78 87 -5 0 -32 15 -60 33 -27
17 -59 37 -71 42 -40 21 -99 175 -66 175 6 0 11 7 11 15 0 9 9 15 23 15 13 0
32 7 43 15 25 19 64 19 64 0 0 -8 5 -15 10 -15 6 0 10 -7 10 -15 0 -8 5 -15
11 -15 6 0 17 -7 25 -15 19 -19 44 -19 68 -2 17 13 16 16 -23 58 -22 24 -45
57 -50 72 -9 24 -7 29 12 36 28 11 37 22 72 85 22 39 26 56 21 90 -3 22 -6 74
-5 114 0 44 -4 72 -10 72 -6 0 -24 26 -40 58 -28 56 -93 132 -111 132 -6 0
-10 9 -10 20 0 13 7 20 20 20 15 0 20 7 20 25 0 14 5 25 11 25 5 0 8 4 5 9 -3
4 3 16 14 26 23 21 27 55 6 55 -8 0 -18 -4 -21 -10 -8 -13 -110 -80 -122 -80
-6 0 -19 12 -28 27 -20 31 -23 59 -30 338 -2 105 -8 222 -13 260 -10 72 -8
242 3 307 l7 37 109 -6 c74 -4 127 -2 164 7 42 10 58 10 69 1 10 -9 30 -9 82
-1 37 6 80 8 95 5 36 -8 89 -7 169 4 86 11 87 11 143 2z m-8230 -19 c239 0
259 -2 272 -19 16 -20 17 -33 20 -358 1 -126 7 -264 13 -305 6 -41 12 -116 12
-166 0 -109 -13 -124 -65 -74 -17 16 -36 30 -41 30 -6 0 -23 14 -40 31 -28 30
-82 64 -90 57 -6 -7 19 -78 28 -78 4 0 8 -7 8 -15 0 -8 9 -15 20 -15 11 0 20
-3 20 -7 0 -5 11 -21 25 -37 14 -16 25 -33 25 -39 0 -5 -24 -31 -54 -59 -74
-67 -96 -128 -95 -266 0 -57 4 -102 10 -102 5 0 9 -12 9 -28 0 -28 21 -67 49
-90 11 -9 15 -30 16 -72 0 -55 -2 -61 -36 -92 -59 -54 -61 -108 -4 -108 23 0
115 81 115 101 0 15 77 10 94 -6 11 -11 16 -12 19 -2 2 6 3 -1 1 -17 -2 -16
-4 -48 -4 -72 0 -36 -3 -44 -19 -44 -10 0 -24 7 -31 15 -7 8 -21 15 -31 15
-11 0 -19 5 -19 10 0 22 -31 21 -55 -1 -32 -31 -31 -44 5 -86 30 -34 37 -53
23 -67 -4 -4 -8 -17 -8 -29 0 -15 -7 -23 -22 -25 -13 -2 -23 -10 -23 -18 0 -8
-8 -22 -17 -32 -10 -10 -24 -28 -30 -40 -15 -26 -18 -204 -3 -230 5 -9 19 -38
30 -65 16 -37 29 -51 60 -65 22 -9 40 -20 40 -25 0 -22 -31 -77 -43 -77 -17 0
-27 -21 -27 -54 0 -12 -5 -27 -11 -33 -7 -7 -9 -19 -6 -27 9 -24 97 -22 123 3
20 18 20 18 32 -33 24 -108 38 -829 16 -847 -18 -15 -53 -2 -87 32 -16 16 -32
29 -37 29 -5 0 -12 10 -16 23 -4 12 -28 46 -54 74 -27 29 -54 66 -62 83 -7 16
-19 30 -25 30 -7 0 -13 7 -13 15 0 8 -4 23 -9 33 -20 37 -42 111 -41 138 0 74
9 202 15 235 5 24 3 38 -7 46 -18 15 -140 33 -288 43 -127 8 -252 39 -309 77
-40 26 -71 64 -71 87 0 12 -5 27 -11 33 -15 15 -17 172 -2 181 6 4 12 21 14
37 2 17 10 38 18 48 8 9 10 17 5 17 -5 0 -4 4 1 8 14 10 35 49 35 66 0 7 9 16
20 19 12 3 20 14 20 25 0 12 5 24 11 28 15 9 3 62 -18 86 -13 15 -32 18 -108
18 -65 0 -97 4 -111 15 -11 8 -42 15 -74 15 -32 0 -84 10 -125 25 -38 13 -80
25 -91 25 -12 0 -27 7 -34 15 -7 8 -37 22 -67 32 -37 12 -65 29 -88 55 -19 20
-47 43 -62 51 -15 8 -57 44 -93 79 -140 137 -163 167 -221 288 -30 64 -31 68
-27 190 2 94 7 132 19 150 9 14 19 45 23 69 3 24 13 56 21 72 8 15 15 38 15
51 0 13 9 34 20 48 11 14 20 28 20 33 0 9 22 33 99 109 96 96 98 97 141 110
22 7 40 16 40 20 0 5 15 8 33 8 19 0 42 8 53 19 27 25 79 41 139 42 120 2 210
-2 219 -11 6 -6 29 -10 53 -10 24 0 43 -4 43 -8 0 -11 61 -32 93 -32 14 0 29
-4 32 -10 3 -5 15 -10 26 -10 10 0 19 -4 19 -10 0 -5 7 -10 16 -10 8 0 13 -4
9 -9 -7 -12 32 -34 45 -26 6 3 10 1 10 -4 0 -6 9 -11 20 -11 11 0 20 -7 20
-15 0 -8 5 -15 10 -15 6 0 10 -7 10 -15 0 -8 7 -15 15 -15 8 0 15 -9 15 -20 0
-13 7 -20 19 -20 13 0 21 -9 26 -30 4 -16 10 -30 15 -30 33 0 47 -219 18 -280
-23 -48 -52 -94 -60 -98 -5 -2 -8 -9 -8 -16 0 -29 -39 -46 -140 -61 -58 -8
-111 -17 -118 -20 -12 -4 -147 25 -187 41 -32 13 -75 56 -75 75 0 20 3 21 113
44 88 19 92 24 107 125 9 63 2 80 -63 144 l-38 38 -77 -7 c-88 -8 -112 -23
-156 -93 -26 -41 -30 -61 -38 -156 -9 -118 1 -166 42 -211 10 -11 18 -24 18
-30 0 -5 8 -15 19 -20 26 -13 53 -41 53 -54 0 -6 9 -11 20 -11 11 0 20 -6 20
-14 0 -9 25 -20 73 -31 39 -9 82 -21 94 -27 26 -13 200 7 248 27 17 8 43 17
58 21 27 6 97 68 97 86 0 4 7 8 15 8 8 0 15 3 15 8 0 4 14 22 30 40 17 18 30
39 30 45 0 7 7 25 15 41 19 37 35 134 35 220 0 61 -5 78 -41 150 -23 44 -48
90 -55 101 -24 34 -18 55 16 55 17 0 30 5 30 10 0 6 32 10 75 10 59 0 77 3 82
15 9 25 -37 137 -73 177 -22 25 -31 43 -27 57 3 12 9 21 14 21 5 0 9 7 9 15 0
8 5 15 10 15 6 0 10 7 10 15 0 16 8 27 43 67 10 11 16 22 13 25 -3 4 -2 11 4
18 10 12 -4 80 -20 90 -5 3 -29 6 -54 7 -35 2 -51 -3 -69 -20 -13 -12 -26 -22
-30 -22 -4 0 -30 -15 -59 -33 -86 -55 -180 -95 -235 -101 -29 -3 -61 -10 -71
-15 -10 -5 -47 -13 -82 -17 -36 -3 -70 -10 -76 -15 -16 -13 -120 -37 -192 -44
-34 -4 -65 -11 -68 -16 -3 -5 -27 -9 -54 -9 -27 0 -61 -5 -77 -11 -15 -6 -44
-12 -64 -14 -35 -3 -110 -42 -124 -65 -3 -5 -14 -10 -24 -10 -10 0 -42 -18
-72 -39 -56 -40 -164 -175 -206 -258 -12 -23 -27 -50 -32 -60 -23 -40 -50
-110 -56 -146 -4 -20 -11 -40 -16 -43 -5 -3 -9 -15 -9 -27 0 -12 -7 -30 -14
-40 -13 -17 -14 -17 -33 0 -21 19 -103 155 -103 170 0 5 -6 15 -12 22 -7 6
-13 15 -13 19 -3 38 -143 202 -173 202 -39 0 -64 -93 -67 -250 -3 -141 -1
-130 -24 -130 -11 0 -28 14 -39 33 -12 17 -39 46 -61 62 -22 17 -41 33 -41 38
0 4 -6 7 -13 7 -14 0 -175 161 -201 202 -10 15 -26 30 -37 33 -10 4 -19 11
-19 16 0 6 -37 46 -82 89 -156 149 -190 185 -206 217 -8 18 -23 35 -33 38 -9
3 -28 20 -42 38 -14 18 -36 43 -48 57 -13 13 -24 27 -25 30 0 3 -4 13 -9 24
-12 28 7 70 33 74 15 2 22 9 18 17 -4 10 9 12 57 8 34 -3 64 -10 65 -14 2 -5
17 -9 32 -9 16 0 32 -4 35 -10 3 -5 17 -10 31 -10 13 0 24 -4 24 -10 0 -5 7
-10 15 -10 8 0 15 -4 15 -10 0 -5 15 -10 33 -10 23 0 38 -7 51 -25 12 -17 29
-25 48 -25 16 0 31 -6 34 -15 4 -8 12 -15 20 -15 8 0 14 -4 14 -10 0 -5 11
-10 25 -10 14 0 25 -4 25 -10 0 -5 8 -10 18 -10 10 0 22 -4 28 -10 11 -11 54
-2 54 11 0 5 7 9 15 9 8 0 15 7 15 15 0 8 5 15 10 15 6 0 10 7 10 15 0 8 5 15
10 15 19 0 37 24 33 41 -3 11 6 23 26 35 17 10 31 22 31 26 0 4 7 8 15 8 8 0
15 6 15 14 0 11 10 14 39 10 22 -2 42 0 46 6 8 13 135 13 135 0 0 -5 9 -10 19
-10 11 0 23 -4 26 -10 3 -5 15 -10 26 -10 10 0 19 -6 19 -14 0 -9 16 -17 41
-21 23 -4 45 -15 52 -26 6 -10 19 -19 29 -19 9 0 20 -4 23 -10 8 -13 21 -13
37 3 19 18 116 64 166 78 24 7 42 18 42 26 0 10 6 12 20 8 14 -5 20 -2 20 9 0
12 10 16 39 16 22 0 41 3 43 8 5 11 111 42 146 42 17 0 33 4 36 9 3 5 20 11
38 14 78 14 98 20 112 36 14 15 45 17 331 14 174 -1 324 -4 333 -7 9 -3 42 0
72 8 30 7 60 9 65 5 6 -3 126 -7 268 -7z m7010 0 c239 0 259 -2 272 -19 16
-20 17 -33 20 -358 1 -126 7 -264 13 -305 6 -41 12 -116 12 -166 0 -109 -13
-124 -65 -74 -17 16 -36 30 -41 30 -6 0 -23 14 -40 31 -28 30 -82 64 -90 57
-6 -7 19 -78 28 -78 4 0 8 -7 8 -15 0 -8 9 -15 20 -15 11 0 20 -3 20 -7 0 -5
11 -21 25 -37 14 -16 25 -33 25 -39 0 -5 -24 -31 -54 -59 -74 -67 -96 -128
-95 -266 0 -57 4 -102 10 -102 5 0 9 -12 9 -28 0 -28 21 -67 49 -90 11 -9 15
-30 16 -72 0 -55 -2 -61 -36 -92 -59 -54 -61 -108 -4 -108 23 0 115 81 115
101 0 15 77 10 94 -7 10 -10 16 -33 16 -63 0 -113 -26 -144 -120 -142 -53 0
-61 -2 -100 -37 -23 -20 -42 -44 -44 -52 -1 -8 -7 -25 -14 -37 -19 -35 -15
-205 5 -253 10 -22 23 -40 29 -40 6 0 19 -29 28 -64 19 -68 28 -76 89 -76 15
0 27 -5 27 -10 0 -25 -30 -80 -43 -80 -17 0 -27 -21 -27 -54 0 -12 -5 -27 -11
-33 -7 -7 -9 -19 -6 -27 9 -24 97 -22 123 3 20 18 21 18 32 -38 14 -69 22
-222 24 -441 0 -91 5 -173 10 -183 5 -10 5 -17 0 -17 -13 0 -14 -103 -2 -136
8 -21 7 -32 -6 -51 -20 -31 -54 -25 -96 18 -16 16 -33 29 -38 29 -5 0 -12 10
-16 23 -4 12 -28 46 -54 74 -27 29 -54 66 -62 83 -7 16 -19 30 -25 30 -7 0
-13 7 -13 15 0 8 -4 23 -9 33 -20 37 -42 111 -41 138 0 74 9 202 15 235 5 24
3 38 -7 46 -18 15 -140 33 -288 43 -127 8 -252 39 -309 77 -40 26 -71 64 -71
87 0 12 -5 27 -11 33 -15 15 -17 172 -2 181 6 4 12 21 14 37 2 17 10 38 18 48
8 9 10 17 5 17 -5 0 -4 4 1 8 14 10 35 49 35 66 0 7 9 16 20 19 12 3 20 14 20
25 0 12 5 24 11 28 15 9 3 62 -18 86 -13 15 -32 18 -108 18 -65 0 -97 4 -111
15 -11 8 -42 15 -74 15 -32 0 -84 10 -125 25 -38 13 -80 25 -91 25 -12 0 -27
7 -34 15 -7 8 -37 22 -67 32 -37 12 -65 29 -88 55 -19 20 -47 43 -62 51 -15 8
-57 44 -93 79 -140 137 -163 167 -221 288 -30 64 -31 68 -27 190 2 94 7 132
19 150 9 14 19 45 23 69 3 24 13 56 21 72 8 15 15 38 15 51 0 13 9 34 20 48
11 14 20 28 20 33 0 9 22 33 99 109 96 96 98 97 141 110 22 7 40 16 40 20 0 5
15 8 33 8 19 0 42 8 53 19 27 25 79 41 139 42 120 2 210 -2 219 -11 6 -6 29
-10 53 -10 24 0 43 -4 43 -8 0 -11 61 -32 93 -32 14 0 29 -4 32 -10 3 -5 15
-10 26 -10 10 0 19 -4 19 -10 0 -5 7 -10 16 -10 8 0 13 -4 9 -9 -7 -12 32 -34
45 -26 6 3 10 1 10 -4 0 -6 9 -11 20 -11 11 0 20 -7 20 -15 0 -8 5 -15 10 -15
6 0 10 -7 10 -15 0 -8 7 -15 15 -15 8 0 15 -9 15 -20 0 -13 7 -20 19 -20 13 0
21 -9 26 -30 4 -16 10 -30 15 -30 33 0 47 -219 18 -280 -23 -48 -52 -94 -60
-98 -5 -2 -8 -9 -8 -16 0 -29 -39 -46 -140 -61 -58 -8 -111 -17 -118 -20 -12
-4 -147 25 -187 41 -32 13 -75 56 -75 75 0 20 3 21 113 44 88 19 92 24 107
125 9 63 2 80 -63 144 l-38 38 -77 -7 c-88 -8 -112 -23 -156 -93 -26 -41 -30
-61 -38 -156 -9 -118 1 -166 42 -211 10 -11 18 -24 18 -30 0 -5 8 -15 19 -20
26 -13 53 -41 53 -54 0 -6 9 -11 20 -11 11 0 20 -6 20 -14 0 -9 25 -20 73 -31
39 -9 82 -21 94 -27 26 -13 200 7 248 27 17 8 43 17 58 21 27 6 97 68 97 86 0
4 7 8 15 8 8 0 15 3 15 8 0 4 14 22 30 40 17 18 30 39 30 45 0 7 7 25 15 41
19 37 35 134 35 220 0 61 -5 78 -41 150 -23 44 -48 90 -55 101 -24 34 -18 55
16 55 17 0 30 5 30 10 0 6 32 10 75 10 59 0 77 3 82 15 9 25 -37 137 -73 177
-22 25 -31 43 -27 57 3 12 9 21 14 21 5 0 9 7 9 15 0 8 5 15 10 15 6 0 10 7
10 15 0 16 8 27 43 67 10 11 16 22 13 25 -3 4 -2 11 4 18 10 12 -4 80 -20 90
-5 3 -29 6 -54 7 -35 2 -51 -3 -69 -20 -13 -12 -26 -22 -30 -22 -4 0 -30 -15
-59 -33 -86 -55 -180 -95 -235 -101 -29 -3 -61 -10 -71 -15 -10 -5 -47 -13
-82 -17 -36 -3 -70 -10 -76 -15 -16 -13 -120 -37 -192 -44 -34 -4 -65 -11 -68
-16 -3 -5 -27 -9 -54 -9 -27 0 -61 -5 -77 -11 -15 -6 -44 -12 -64 -14 -35 -3
-110 -42 -124 -65 -3 -5 -14 -10 -24 -10 -10 0 -42 -18 -72 -39 -56 -40 -164
-175 -206 -258 -12 -23 -27 -50 -32 -60 -23 -40 -50 -110 -56 -146 -4 -20 -11
-40 -16 -43 -5 -3 -9 -15 -9 -27 0 -12 -7 -30 -14 -40 -13 -17 -14 -17 -33 0
-21 19 -103 155 -103 170 0 5 -6 15 -12 22 -7 6 -13 15 -13 19 -3 38 -143 202
-173 202 -39 0 -64 -93 -67 -250 -3 -141 -1 -130 -24 -130 -11 0 -28 14 -39
33 -12 17 -39 46 -61 62 -22 17 -41 33 -41 38 0 4 -6 7 -13 7 -14 0 -175 161
-201 202 -10 15 -26 30 -37 33 -10 4 -19 11 -19 16 0 6 -37 46 -82 89 -156
149 -190 185 -206 217 -8 18 -23 35 -33 38 -9 3 -28 20 -42 38 -14 18 -36 43
-48 57 -13 13 -24 27 -25 30 0 3 -4 13 -9 24 -12 28 7 70 33 74 15 2 22 9 18
17 -4 10 9 12 57 8 34 -3 64 -10 65 -14 2 -5 17 -9 32 -9 16 0 32 -4 35 -10 3
-5 17 -10 31 -10 13 0 24 -4 24 -10 0 -5 7 -10 15 -10 8 0 15 -4 15 -10 0 -5
15 -10 33 -10 23 0 38 -7 51 -25 12 -17 29 -25 48 -25 16 0 31 -6 34 -15 4 -8
12 -15 20 -15 8 0 14 -4 14 -10 0 -5 11 -10 25 -10 14 0 25 -4 25 -10 0 -5 8
-10 18 -10 10 0 22 -4 28 -10 11 -11 54 -2 54 11 0 5 7 9 15 9 8 0 15 7 15 15
0 8 5 15 10 15 6 0 10 7 10 15 0 8 5 15 10 15 19 0 37 24 33 41 -3 11 6 23 26
35 17 10 31 22 31 26 0 4 7 8 15 8 8 0 15 6 15 14 0 11 10 14 39 10 22 -2 42
0 46 6 8 13 135 13 135 0 0 -5 9 -10 19 -10 11 0 23 -4 26 -10 3 -5 15 -10 26
-10 10 0 19 -6 19 -14 0 -9 16 -17 41 -21 23 -4 45 -15 52 -26 6 -10 19 -19
29 -19 9 0 20 -4 23 -10 8 -13 21 -13 37 3 19 18 116 64 166 78 24 7 42 18 42
26 0 10 6 12 20 8 14 -5 20 -2 20 9 0 12 10 16 39 16 22 0 41 3 43 8 5 11 111
42 146 42 17 0 33 4 36 9 3 5 20 11 38 14 78 14 98 20 112 36 14 15 45 17 331
14 174 -1 324 -4 333 -7 9 -3 42 0 72 8 30 7 60 9 65 5 6 -3 126 -7 268 -7z
m-14258 -13 c5 -6 27 -8 62 -3 38 4 57 3 62 -5 6 -9 15 -9 35 -1 35 13 76 13
76 0 0 -14 56 -13 96 2 27 9 38 9 58 -2 15 -7 39 -10 60 -7 20 3 36 2 36 -4 0
-5 18 -9 40 -9 31 0 40 -4 41 -17 3 -97 -4 -229 -13 -234 -7 -4 -9 -27 -5 -60
3 -30 1 -84 -5 -121 -6 -37 -7 -75 -3 -85 4 -10 7 -33 6 -51 -2 -18 3 -39 9
-47 6 -8 8 -20 4 -27 -13 -20 -15 -76 -4 -83 12 -7 14 -55 2 -55 -4 0 -8 -27
-7 -59 0 -94 -18 -97 -111 -21 -17 14 -45 36 -62 49 -17 14 -33 33 -35 43 -7
25 -53 24 -67 -2 -9 -16 -6 -26 17 -55 15 -19 33 -35 38 -35 6 0 16 -12 22
-27 7 -16 24 -40 38 -55 14 -16 22 -28 18 -28 -5 0 -13 -12 -20 -27 -54 -130
-66 -167 -74 -228 -5 -38 -6 -77 -2 -85 3 -8 7 -17 8 -20 0 -3 9 -19 18 -37 9
-18 17 -39 17 -47 0 -8 8 -21 18 -28 9 -7 23 -25 31 -40 8 -16 20 -28 28 -28
21 0 15 -20 -20 -64 -44 -55 -59 -88 -55 -117 4 -28 32 -37 55 -17 9 7 34 21
57 30 22 9 40 22 38 28 -1 7 9 10 30 8 l32 -3 1 -123 c2 -129 -1 -135 -46
-147 -21 -5 -33 1 -65 32 -57 57 -105 84 -127 72 -26 -15 -21 -52 13 -79 16
-14 29 -29 30 -33 0 -5 9 -16 20 -25 29 -24 27 -58 -6 -127 -26 -55 -29 -68
-27 -156 2 -100 21 -175 54 -218 17 -22 18 -26 4 -41 -8 -9 -15 -20 -15 -24 0
-4 -16 -31 -35 -60 -39 -59 -42 -71 -19 -80 39 -15 114 12 114 41 0 20 49 28
66 11 17 -17 35 -74 26 -83 -4 -4 -8 -84 -9 -178 -2 -95 -5 -234 -8 -310 -4
-94 -3 -143 5 -152 8 -10 8 -15 0 -20 -6 -4 -11 -19 -10 -33 1 -15 1 -31 0
-37 -1 -5 -1 -29 0 -53 2 -42 1 -43 -27 -36 -40 10 -61 22 -118 66 -27 22 -64
46 -82 53 -32 14 -145 142 -174 199 -9 17 -21 54 -27 81 -6 28 -16 77 -23 110
-7 33 -14 94 -15 136 -1 42 -4 88 -7 102 -8 29 -45 46 -107 48 -51 2 -270 55
-285 70 -5 5 -15 9 -23 9 -54 0 -165 88 -202 160 -11 22 -25 40 -31 40 -6 0
-7 5 -3 12 4 7 7 27 6 45 -2 23 2 33 12 33 16 0 126 104 126 120 0 5 5 10 10
10 6 0 10 11 10 24 0 14 5 28 10 31 6 3 10 19 10 35 0 16 5 41 12 55 10 22 9
29 -10 48 -18 18 -39 23 -105 28 -122 10 -301 51 -336 77 -17 12 -35 22 -40
22 -28 0 -110 36 -141 61 -19 16 -44 29 -55 29 -11 0 -45 24 -75 53 -102 100
-190 195 -190 207 0 6 -8 30 -18 53 -55 127 -72 183 -72 243 0 27 -4 65 -10
83 -8 28 -6 38 6 53 9 9 14 24 11 31 -6 15 36 112 53 122 6 4 8 10 5 15 -3 4
2 13 10 20 8 7 15 21 15 31 0 11 5 19 10 19 6 0 10 9 10 20 0 11 5 20 11 20
15 0 79 65 79 79 0 6 11 13 25 17 14 3 25 11 25 16 0 15 27 38 44 38 9 0 16 5
16 10 0 6 7 10 15 10 8 0 15 4 15 8 0 11 45 32 68 32 9 0 32 12 49 27 44 36
153 64 219 56 33 -3 54 -1 58 6 8 12 56 15 56 3 0 -4 30 -13 68 -20 37 -7 69
-17 70 -22 2 -6 12 -10 23 -10 10 0 19 -4 19 -10 0 -5 9 -10 20 -10 11 0 20
-4 20 -10 0 -5 12 -10 26 -10 14 0 22 -4 19 -10 -3 -5 7 -16 22 -22 36 -17 49
-29 58 -58 4 -13 18 -32 31 -42 31 -25 52 -70 60 -129 4 -27 10 -49 13 -49 13
0 -5 -99 -20 -117 -8 -10 -24 -35 -34 -57 -11 -21 -27 -41 -35 -43 -9 -2 -22
-18 -29 -34 -33 -75 -106 -119 -197 -119 -49 0 -163 64 -164 91 0 4 33 6 73 5
84 -1 137 18 137 49 0 11 7 40 16 64 30 87 1 145 -103 206 -84 50 -206 18
-263 -69 -8 -13 -24 -35 -34 -51 -24 -33 -36 -189 -17 -208 6 -6 11 -21 11
-34 0 -13 7 -26 15 -29 8 -3 17 -14 20 -24 8 -25 67 -59 118 -66 23 -4 47 -10
52 -14 16 -12 192 -23 199 -12 3 5 28 12 55 16 27 4 61 12 75 19 32 17 116
106 116 124 0 7 5 13 10 13 6 0 10 6 10 13 0 7 12 26 28 42 25 27 27 37 29
117 1 48 4 91 6 95 3 5 -1 40 -8 78 -12 73 -31 118 -71 171 -13 17 -24 35 -24
41 0 5 -9 18 -20 28 -23 21 -23 54 0 65 73 34 90 45 90 55 0 6 12 18 26 25 31
17 46 43 38 64 -9 23 -193 132 -215 128 -10 -2 -5 32 5 40 5 3 11 13 12 22 1
8 16 32 32 53 19 24 32 55 36 85 7 44 5 48 -21 65 -15 10 -31 22 -35 28 -4 6
-18 0 -35 -16 -39 -35 -100 -79 -110 -79 -5 0 -17 -13 -26 -30 -10 -16 -27
-30 -37 -30 -30 0 -302 -136 -385 -193 -22 -15 -46 -27 -55 -27 -17 0 -91 -43
-136 -78 -132 -103 -159 -122 -169 -122 -7 0 -26 -16 -42 -35 -17 -19 -35 -35
-40 -35 -14 0 -78 -66 -126 -128 -22 -29 -48 -57 -57 -62 -10 -5 -21 -26 -25
-46 -8 -43 -25 -74 -42 -74 -16 0 -63 58 -63 79 0 31 -83 151 -156 227 -74 76
-99 88 -128 58 -17 -16 -22 -74 -7 -74 9 0 17 -52 27 -161 3 -39 11 -68 20
-75 25 -20 15 -94 -13 -94 -8 0 -57 44 -108 98 -52 53 -107 108 -121 122 -15
14 -40 39 -55 55 -16 17 -52 55 -81 85 -49 52 -87 95 -144 165 -13 17 -45 55
-72 86 -26 31 -67 80 -92 110 -25 29 -57 65 -72 79 -26 24 -27 28 -15 60 19
55 87 105 87 65 0 -8 9 -15 20 -15 11 0 20 -7 20 -15 0 -8 9 -15 20 -15 11 0
20 -4 20 -10 0 -5 8 -10 18 -10 9 0 29 -11 44 -25 15 -14 31 -25 36 -25 8 0
39 -33 107 -112 8 -10 15 -22 15 -28 0 -5 7 -10 15 -10 8 0 15 -5 15 -11 0 -6
7 -17 15 -25 17 -18 114 -9 121 11 3 7 18 15 35 19 16 3 29 12 29 20 0 8 14
17 31 21 18 4 46 21 63 39 28 29 35 31 94 30 120 -3 203 -42 215 -103 3 -16
14 -31 24 -35 10 -3 32 -14 48 -25 46 -30 88 -26 123 9 17 17 35 30 41 30 6 0
11 11 11 25 0 14 5 25 10 25 6 0 10 7 10 15 0 8 7 15 15 15 8 0 15 5 15 12 0
18 42 58 61 58 10 0 20 9 24 20 4 12 22 24 46 31 21 7 39 18 39 26 0 7 7 13
16 13 17 0 44 23 44 39 0 13 37 24 51 15 6 -3 14 -2 18 3 12 18 136 56 198 61
35 2 63 8 63 12 0 11 72 21 84 11 18 -13 167 -16 376 -7 58 3 142 6 187 8 45
2 85 7 89 11 10 10 22 9 29 -4z m1748 3 c128 -2 147 -4 147 -18 0 -13 7 -15
37 -9 21 4 41 11 44 17 3 5 39 10 80 10 55 0 76 -4 85 -16 6 -9 16 -16 23 -16
6 0 11 -4 11 -10 0 -5 18 -10 40 -10 22 0 40 -4 40 -10 0 -5 6 -10 13 -10 6 0
22 -15 34 -34 12 -19 36 -40 52 -47 17 -8 31 -17 31 -21 0 -5 6 -8 13 -8 6 0
21 -14 32 -30 11 -16 26 -30 33 -30 6 0 12 -4 12 -10 0 -5 8 -10 18 -10 9 0
22 -8 29 -18 6 -11 28 -27 49 -37 32 -15 39 -16 48 -3 6 8 24 23 39 33 15 10
26 20 23 22 -5 5 31 43 42 43 12 1 62 48 62 60 0 5 9 10 20 10 11 0 20 4 20 9
0 5 60 8 133 6 133 -2 187 -14 187 -42 0 -7 5 -13 12 -13 7 0 23 -12 35 -26
21 -25 27 -26 75 -21 28 4 56 11 62 17 5 5 21 10 34 10 14 0 36 14 55 34 25
26 43 35 84 41 29 4 56 11 59 17 4 6 24 7 48 4 23 -4 73 -1 111 5 127 20 145
22 145 10 0 -6 6 -11 14 -11 7 0 19 -7 26 -15 7 -8 21 -15 31 -15 12 0 21 -10
25 -25 4 -16 13 -25 25 -25 12 0 19 -7 19 -20 0 -11 -6 -20 -14 -20 -16 0 -76
-56 -76 -70 0 -5 -8 -11 -19 -15 -10 -3 -32 -25 -47 -48 -16 -23 -94 -108
-174 -188 -80 -80 -158 -163 -175 -184 -36 -47 -310 -321 -342 -342 -13 -9
-23 -20 -23 -25 0 -11 -171 -178 -182 -178 -4 0 -8 -4 -8 -8 0 -14 -94 -112
-108 -112 -14 0 -16 46 -2 55 6 3 10 17 10 31 0 13 4 24 9 24 5 0 11 8 15 18
6 18 27 53 37 62 18 16 39 58 39 77 0 13 4 23 8 23 11 0 56 109 49 117 -4 3 4
14 16 23 12 10 23 30 25 44 1 15 6 35 11 44 5 10 10 62 10 117 0 91 -2 101
-27 137 -17 23 -43 44 -68 54 -39 15 -43 14 -97 -10 -52 -23 -100 -56 -81 -56
4 0 -4 -12 -18 -27 -14 -16 -40 -54 -59 -85 -18 -32 -37 -58 -41 -58 -5 0 -8
-7 -8 -15 0 -35 -37 -12 -79 50 -57 83 -157 170 -246 215 -38 19 -84 45 -102
58 -47 35 -189 70 -312 78 -104 6 -263 -7 -299 -25 -31 -16 -113 -31 -125 -24
-7 4 -37 11 -67 15 -107 15 -294 63 -341 89 -95 50 -90 49 -115 33 -24 -16
-44 -62 -44 -101 0 -26 14 -54 48 -91 12 -14 22 -29 22 -33 0 -5 9 -9 20 -9
11 0 20 -7 20 -15 0 -8 7 -15 15 -15 20 0 58 -21 68 -38 6 -10 20 -11 48 -7
21 4 52 4 68 0 l29 -6 -57 -52 c-93 -84 -104 -110 -74 -178 18 -42 51 -59 112
-59 36 1 71 19 71 37 0 17 50 23 51 7 1 -8 3 -29 5 -46 4 -31 9 -94 12 -145 1
-13 9 -23 17 -23 8 0 15 -6 15 -13 0 -18 56 -77 73 -77 8 0 22 -11 31 -25 9
-14 23 -25 31 -25 8 0 15 -4 15 -10 0 -5 7 -10 15 -10 8 0 15 -4 15 -10 0 -5
16 -10 35 -10 24 0 35 -5 35 -15 0 -8 8 -15 18 -15 10 0 35 -9 55 -19 31 -16
51 -18 113 -14 40 3 74 9 74 14 0 4 14 10 30 14 17 4 48 22 68 41 20 19 43 34
50 34 6 0 12 9 12 20 0 12 14 48 31 81 29 56 31 66 26 127 -5 50 -12 71 -27
84 -11 9 -20 26 -20 37 0 12 -6 21 -13 21 -7 0 -18 5 -25 12 -7 7 -40 13 -75
14 -60 2 -63 0 -99 -38 -48 -49 -49 -79 -6 -156 36 -65 67 -102 86 -102 6 0
12 -9 12 -20 0 -11 -3 -20 -8 -20 -4 0 -12 -10 -17 -22 -20 -45 -124 -52 -255
-17 -42 12 -146 75 -180 109 -49 50 -100 151 -102 200 -1 41 23 135 37 142 8
5 15 14 15 21 0 7 9 18 20 25 11 7 20 19 20 27 0 23 30 65 46 65 8 0 14 5 14
11 0 16 26 39 44 39 9 0 16 6 16 13 0 10 16 14 53 14 61 1 117 11 135 26 27
22 282 9 282 -14 0 -5 16 -9 35 -9 19 0 35 -4 35 -10 0 -5 14 -10 30 -10 20 0
30 -5 30 -15 0 -9 12 -18 30 -22 17 -3 33 -10 36 -14 3 -5 13 -9 23 -9 20 0
71 -43 71 -60 0 -5 7 -10 15 -10 8 0 15 -7 15 -15 0 -8 7 -15 15 -15 8 0 15
-7 15 -15 0 -8 5 -15 11 -15 15 0 33 -20 52 -62 10 -21 22 -38 27 -38 28 0 67
-283 42 -313 -6 -7 -13 -54 -16 -105 -4 -77 -9 -98 -31 -129 -14 -21 -25 -44
-25 -53 0 -8 -16 -37 -35 -64 -19 -27 -35 -58 -35 -68 0 -10 -4 -18 -9 -18 -8
0 -94 -114 -117 -155 -26 -47 -190 -141 -284 -163 -25 -6 -95 -13 -157 -17
-112 -5 -127 -3 -284 36 -95 24 -111 24 -139 1 -27 -22 -21 -53 15 -72 14 -7
25 -18 25 -23 0 -17 32 -47 49 -47 19 0 51 -68 51 -109 0 -16 7 -42 15 -57 12
-23 14 -47 9 -114 -4 -47 -10 -94 -14 -106 -13 -33 -84 -124 -97 -124 -7 0
-13 -4 -13 -10 0 -5 -15 -10 -33 -10 -18 0 -60 -7 -92 -16 -35 -9 -78 -13
-102 -10 -32 4 -47 1 -66 -14 -26 -20 -47 -68 -46 -105 0 -49 -31 -159 -56
-196 -14 -23 -29 -57 -32 -77 -3 -21 -14 -48 -25 -61 -10 -13 -18 -31 -19 -40
0 -24 -65 -139 -105 -190 -12 -14 -28 -40 -37 -56 -8 -17 -24 -39 -36 -49 -12
-11 -21 -25 -21 -32 0 -7 -27 -34 -60 -60 -33 -26 -60 -51 -60 -55 0 -5 -15
-9 -33 -9 -50 0 -55 29 -47 266 4 109 4 201 1 204 -4 3 -5 16 -3 30 2 14 5 45
6 70 5 96 17 246 22 273 3 15 11 27 19 27 14 0 71 -69 58 -71 -12 -2 49 -16
75 -18 17 -1 22 4 22 25 0 27 -29 84 -42 84 -4 0 -8 16 -8 36 0 27 7 41 30 61
17 13 30 33 30 44 0 10 4 19 9 19 5 0 12 13 16 30 4 16 11 30 16 30 5 0 9 11
9 24 0 14 5 28 10 31 13 8 13 58 -1 72 -6 6 -12 46 -14 89 -2 44 -8 80 -14 82
-6 2 -11 10 -11 17 0 8 -6 20 -13 27 -7 7 -24 51 -37 97 l-24 84 27 21 c15 12
27 27 27 34 0 24 -28 23 -89 -2 -34 -14 -69 -22 -77 -19 -19 7 -27 43 -16 74
6 13 8 40 6 59 -11 82 -10 99 3 104 7 3 12 11 11 18 -2 6 5 13 14 15 20 5 88
-37 88 -54 0 -7 3 -13 8 -13 4 0 22 -14 41 -30 32 -28 81 -41 81 -21 0 21 -22
65 -45 93 -25 29 -34 78 -15 78 6 0 10 10 10 23 0 13 12 34 26 48 22 20 25 30
20 62 -4 21 -2 57 5 79 7 29 7 44 0 51 -6 6 -11 30 -11 53 0 24 -7 51 -18 65
-10 13 -27 41 -37 63 -11 21 -28 41 -37 44 -29 7 -24 84 7 118 14 15 25 33 25
40 0 8 4 14 8 14 14 0 52 40 52 54 0 24 -30 27 -99 10 -49 -12 -72 -24 -89
-45 -14 -18 -33 -29 -48 -29 l-24 0 -1 128 c-1 70 -2 269 -1 442 l0 315 59 17
c71 20 115 22 131 6 10 -10 14 -10 20 -1 10 15 223 14 234 -1 4 -6 34 -5 77 3
39 6 81 9 94 6 12 -3 42 -2 67 3 43 8 110 8 433 4z m7010 0 c128 -2 147 -4
147 -18 0 -13 7 -15 37 -9 21 4 41 11 44 17 3 5 39 10 80 10 55 0 76 -4 85
-16 6 -9 16 -16 23 -16 6 0 11 -4 11 -10 0 -5 18 -10 40 -10 22 0 40 -4 40
-10 0 -5 6 -10 13 -10 6 0 22 -15 34 -34 12 -19 36 -40 52 -47 17 -8 31 -17
31 -21 0 -5 6 -8 13 -8 6 0 21 -14 32 -30 11 -16 26 -30 33 -30 6 0 12 -4 12
-10 0 -5 8 -10 18 -10 9 0 22 -8 29 -18 6 -11 28 -27 49 -37 32 -15 39 -16 48
-3 6 8 24 23 39 33 15 10 26 20 23 22 -5 5 31 43 42 43 12 1 62 48 62 60 0 5
9 10 20 10 11 0 20 4 20 9 0 5 60 8 133 6 133 -2 187 -14 187 -42 0 -7 5 -13
12 -13 7 0 23 -12 35 -26 21 -25 27 -26 75 -21 28 4 56 11 62 17 5 5 21 10 34
10 14 0 36 14 55 34 25 26 43 35 84 41 29 4 56 11 59 17 4 6 24 7 48 4 23 -4
73 -1 111 5 127 20 145 22 145 10 0 -6 6 -11 14 -11 7 0 19 -7 26 -15 7 -8 21
-15 31 -15 12 0 21 -10 25 -25 4 -16 13 -25 25 -25 12 0 19 -7 19 -20 0 -11
-6 -20 -14 -20 -16 0 -76 -56 -76 -70 0 -5 -8 -11 -19 -15 -10 -3 -32 -25 -47
-48 -16 -23 -94 -108 -174 -188 -80 -80 -158 -163 -175 -184 -36 -47 -310
-321 -342 -342 -13 -9 -23 -20 -23 -25 0 -11 -171 -178 -182 -178 -4 0 -8 -4
-8 -8 0 -14 -94 -112 -108 -112 -14 0 -16 46 -2 55 6 3 10 17 10 31 0 13 4 24
9 24 5 0 11 8 15 18 6 18 27 53 37 62 18 16 39 58 39 77 0 13 4 23 8 23 11 0
56 109 49 117 -4 3 4 14 16 23 12 10 23 30 25 44 1 15 6 35 11 44 5 10 10 62
10 117 0 91 -2 101 -27 137 -17 23 -43 44 -68 54 -39 15 -43 14 -97 -10 -52
-23 -100 -56 -81 -56 4 0 -4 -12 -18 -27 -14 -16 -40 -54 -59 -85 -18 -32 -37
-58 -41 -58 -5 0 -8 -7 -8 -15 0 -35 -37 -12 -79 50 -57 83 -157 170 -246 215
-38 19 -84 45 -102 58 -47 35 -189 70 -312 78 -104 6 -263 -7 -299 -25 -31
-16 -113 -31 -125 -24 -7 4 -37 11 -67 15 -107 15 -294 63 -341 89 -95 50 -90
49 -115 33 -24 -16 -44 -62 -44 -101 0 -26 14 -54 48 -91 12 -14 22 -29 22
-33 0 -5 9 -9 20 -9 11 0 20 -7 20 -15 0 -8 7 -15 15 -15 20 0 58 -21 68 -38
6 -10 20 -11 48 -7 21 4 52 4 68 0 l29 -6 -57 -52 c-93 -84 -104 -110 -74
-178 18 -42 51 -59 112 -59 36 1 71 19 71 37 0 17 50 23 51 7 1 -8 3 -29 5
-46 4 -31 9 -94 12 -145 1 -13 9 -23 17 -23 8 0 15 -6 15 -13 0 -18 56 -77 73
-77 8 0 22 -11 31 -25 9 -14 23 -25 31 -25 8 0 15 -4 15 -10 0 -5 7 -10 15
-10 8 0 15 -4 15 -10 0 -5 16 -10 35 -10 24 0 35 -5 35 -15 0 -8 8 -15 18 -15
10 0 35 -9 55 -19 31 -16 51 -18 113 -14 40 3 74 9 74 14 0 4 14 10 30 14 17
4 48 22 68 41 20 19 43 34 50 34 6 0 12 9 12 20 0 12 14 48 31 81 29 56 31 66
26 127 -5 50 -12 71 -27 84 -11 9 -20 26 -20 37 0 12 -6 21 -13 21 -7 0 -18 5
-25 12 -7 7 -40 13 -75 14 -60 2 -63 0 -99 -38 -48 -49 -49 -79 -6 -156 36
-65 67 -102 86 -102 6 0 12 -9 12 -20 0 -11 -3 -20 -8 -20 -4 0 -12 -10 -17
-22 -20 -45 -124 -52 -255 -17 -42 12 -146 75 -180 109 -49 50 -100 151 -102
200 -1 41 23 135 37 142 8 5 15 14 15 21 0 7 9 18 20 25 11 7 20 19 20 27 0
23 30 65 46 65 8 0 14 5 14 11 0 16 26 39 44 39 9 0 16 6 16 13 0 10 16 14 53
14 61 1 117 11 135 26 27 22 282 9 282 -14 0 -5 16 -9 35 -9 19 0 35 -4 35
-10 0 -5 14 -10 30 -10 20 0 30 -5 30 -15 0 -9 12 -18 30 -22 17 -3 33 -10 36
-14 3 -5 13 -9 23 -9 20 0 71 -43 71 -60 0 -5 7 -10 15 -10 8 0 15 -7 15 -15
0 -8 7 -15 15 -15 8 0 15 -7 15 -15 0 -8 5 -15 11 -15 15 0 33 -20 52 -62 10
-21 22 -38 27 -38 28 0 67 -283 42 -313 -6 -7 -13 -54 -16 -105 -4 -77 -9 -98
-31 -129 -14 -21 -25 -44 -25 -53 0 -8 -16 -37 -35 -64 -19 -27 -35 -58 -35
-68 0 -10 -4 -18 -9 -18 -8 0 -94 -114 -117 -155 -26 -47 -190 -141 -284 -163
-25 -6 -95 -13 -157 -17 -112 -5 -127 -3 -284 36 -95 24 -111 24 -139 1 -27
-22 -21 -53 15 -72 14 -7 25 -18 25 -23 0 -17 32 -47 49 -47 19 0 51 -68 51
-109 0 -16 7 -42 15 -57 12 -23 14 -47 9 -114 -4 -47 -10 -94 -14 -106 -13
-33 -84 -124 -97 -124 -7 0 -13 -4 -13 -10 0 -5 -15 -10 -33 -10 -18 0 -60 -7
-92 -16 -35 -9 -78 -13 -102 -10 -32 4 -47 1 -66 -14 -26 -20 -47 -68 -46
-105 0 -49 -31 -159 -56 -196 -14 -23 -29 -57 -32 -77 -3 -21 -14 -48 -25 -61
-10 -13 -18 -31 -19 -40 0 -24 -65 -139 -105 -190 -12 -14 -28 -40 -37 -56 -8
-17 -24 -39 -36 -49 -12 -11 -21 -25 -21 -32 0 -7 -27 -34 -60 -60 -33 -26
-60 -51 -60 -55 0 -5 -15 -9 -33 -9 -50 0 -55 29 -47 266 4 109 4 201 1 204
-4 3 -5 16 -3 30 2 14 5 45 6 70 5 96 17 246 22 273 3 15 11 27 19 27 14 0 71
-69 58 -71 -12 -2 49 -16 75 -18 17 -1 22 4 22 25 0 27 -29 84 -42 84 -4 0 -8
6 -8 14 0 7 -10 24 -23 37 -59 62 -75 131 -31 137 22 3 54 49 54 77 0 9 9 19
19 22 10 3 21 17 24 31 35 168 35 174 8 201 -14 14 -21 34 -21 61 0 32 -5 43
-30 62 -35 25 -39 48 -10 55 13 3 20 14 20 29 0 14 10 30 25 40 27 18 33 42
11 50 -7 3 -41 -6 -75 -20 -34 -14 -69 -22 -77 -19 -19 7 -27 43 -16 74 9 23
8 79 -3 107 -2 7 3 16 13 19 9 4 31 17 47 29 25 19 33 20 48 10 9 -7 17 -18
17 -25 0 -6 3 -11 8 -11 4 0 22 -14 41 -30 32 -28 81 -41 81 -21 0 21 -22 65
-45 93 -25 29 -34 78 -15 78 6 0 10 10 10 23 0 13 12 34 26 48 22 20 25 30 20
62 -4 21 -2 57 5 79 7 29 7 44 0 51 -6 6 -11 30 -11 53 0 24 -7 51 -18 65 -10
13 -27 41 -37 63 -11 21 -28 41 -37 44 -29 7 -24 84 7 118 14 15 25 33 25 40
0 8 4 14 8 14 14 0 52 40 52 54 0 24 -30 27 -99 10 -49 -12 -72 -24 -89 -45
-14 -18 -33 -29 -48 -29 l-24 0 -1 128 c-1 70 -2 269 -1 442 l0 315 59 17 c71
20 115 22 131 6 10 -10 14 -10 20 -1 10 15 223 14 234 -1 4 -6 34 -5 77 3 39
6 81 9 94 6 12 -3 42 -2 67 3 43 8 110 8 433 4z m9707 -142 c0 -5 9 -10 20
-10 13 0 22 -9 26 -25 3 -14 12 -25 19 -25 7 0 18 -14 24 -31 6 -18 27 -47 46
-66 19 -19 35 -40 35 -48 0 -8 6 -15 13 -15 18 0 67 -59 67 -81 0 -10 5 -19
10 -19 6 0 10 -6 10 -14 0 -8 9 -18 20 -21 11 -3 20 -10 20 -14 0 -7 11 -22
50 -68 5 -7 10 -17 10 -23 0 -6 7 -13 15 -16 8 -4 15 -12 15 -20 0 -8 9 -19
20 -26 11 -7 20 -21 20 -30 0 -10 4 -18 9 -18 5 0 13 -15 16 -32 4 -18 16 -58
25 -89 12 -36 18 -86 18 -143 -1 -93 5 -106 50 -106 12 0 22 4 22 9 0 5 21 12
48 16 26 4 53 12 60 17 9 8 24 7 51 -2 22 -7 51 -10 65 -6 15 4 26 2 26 -4 0
-6 34 -10 85 -10 69 0 85 -3 85 -15 0 -8 3 -15 8 -15 4 0 16 -20 27 -45 11
-25 23 -45 26 -45 4 0 10 -15 14 -32 4 -18 16 -48 26 -66 33 -57 18 -243 -23
-284 -10 -10 -18 -24 -18 -32 0 -8 -4 -16 -9 -18 -5 -1 -24 -32 -44 -68 -29
-54 -33 -69 -24 -89 10 -21 15 -22 60 -17 29 4 54 3 61 -3 7 -6 70 -14 141
-19 82 -6 130 -13 133 -20 2 -7 17 -12 33 -12 16 0 29 -4 29 -10 0 -5 11 -10
25 -10 13 0 40 -9 60 -20 20 -11 42 -20 50 -20 9 0 23 -4 33 -9 9 -6 34 -13
55 -16 21 -3 37 -12 37 -19 0 -18 43 -46 70 -46 11 0 20 -7 20 -15 0 -9 16
-31 35 -51 23 -23 37 -48 41 -74 4 -22 10 -40 15 -40 5 0 9 -7 9 -15 0 -8 4
-15 9 -15 34 0 41 -409 7 -443 -7 -7 -11 -18 -8 -25 2 -7 -2 -21 -10 -30 -8
-9 -20 -28 -26 -42 -7 -14 -35 -41 -63 -60 -27 -19 -68 -48 -91 -65 -23 -16
-63 -36 -88 -44 -64 -19 -178 -24 -241 -11 -30 7 -73 14 -96 17 -23 3 -47 11
-54 19 -6 8 -17 14 -24 14 -12 0 -69 58 -93 96 -32 50 -54 139 -45 186 3 18
16 47 29 65 13 17 24 36 24 42 0 6 6 11 14 11 7 0 27 7 42 15 16 8 44 15 62
15 18 0 54 5 80 12 35 9 47 9 50 0 2 -7 10 -12 18 -12 8 0 14 -4 14 -10 0 -11
42 -13 78 -4 19 6 22 13 22 58 -1 41 -6 57 -28 83 -15 17 -40 37 -55 42 -56
22 -226 8 -302 -24 -16 -6 -45 -18 -63 -25 -43 -17 -107 -98 -133 -171 -12
-33 -26 -62 -30 -65 -5 -2 -62 -7 -128 -9 -126 -4 -164 -16 -176 -56 -7 -20
15 -129 26 -129 11 0 49 -37 49 -49 0 -6 7 -11 15 -11 8 0 15 -4 15 -10 0 -5
9 -10 20 -10 12 0 20 -7 20 -17 0 -19 -25 -45 -80 -83 -19 -14 -53 -43 -75
-65 -22 -23 -56 -54 -76 -71 -41 -35 -126 -153 -141 -196 -6 -15 -7 -40 -4
-53 6 -23 11 -25 71 -25 37 0 65 4 65 10 0 6 7 10 15 10 8 0 15 5 15 10 0 6
11 10 26 10 28 0 109 34 119 50 3 5 17 10 31 10 13 0 24 3 24 8 0 10 65 29
130 38 30 4 65 14 78 22 15 10 45 14 87 13 36 -1 75 4 87 10 14 7 79 12 175
12 116 1 154 4 157 14 4 10 19 12 59 7 36 -4 57 -3 61 5 4 6 21 11 37 11 31 0
131 38 137 52 2 4 19 8 38 8 19 0 34 5 34 10 0 6 9 10 20 10 11 0 20 5 20 10
0 6 7 10 15 10 8 0 15 6 15 13 0 6 14 21 30 32 16 11 30 24 30 28 0 5 14 22
30 39 17 16 30 36 30 44 0 8 5 14 11 14 13 0 39 62 39 95 0 14 11 52 25 85 14
33 25 71 25 86 0 27 18 29 31 3 13 -24 22 -54 20 -63 -1 -5 7 -18 17 -30 11
-11 23 -31 26 -42 4 -12 17 -33 30 -47 14 -15 27 -40 31 -57 4 -16 13 -30 21
-30 7 0 16 -11 20 -25 3 -14 12 -25 20 -25 8 0 14 -4 14 -10 0 -5 8 -18 19
-29 10 -10 20 -24 23 -31 5 -17 103 -26 113 -11 6 10 -9 66 -36 139 -5 13 -9
30 -9 39 0 17 -43 134 -60 165 -5 9 -12 36 -16 60 -7 49 -25 98 -36 98 -5 0
-8 6 -8 13 0 6 -14 27 -31 45 -16 17 -27 37 -24 42 3 6 1 10 -4 10 -6 0 -11 5
-11 11 0 7 -15 26 -32 43 -18 17 -40 40 -48 50 -14 18 -13 18 10 11 14 -4 34
-18 45 -31 11 -13 26 -24 33 -24 7 0 12 -7 12 -15 0 -8 7 -15 16 -15 9 0 30
-16 47 -35 17 -19 37 -35 44 -35 7 0 13 -7 13 -15 0 -8 4 -15 9 -15 5 0 11 -9
14 -21 3 -11 19 -25 36 -32 17 -6 31 -17 31 -24 0 -7 5 -13 10 -13 6 0 10 -7
10 -15 0 -8 7 -15 15 -15 9 0 18 -12 22 -30 3 -16 12 -30 20 -30 7 0 16 -7 19
-15 4 -8 18 -15 32 -15 14 0 22 -3 19 -7 -9 -9 23 -43 40 -43 7 0 16 -7 19
-15 4 -8 12 -15 19 -15 7 0 19 -13 27 -30 7 -16 18 -30 24 -30 6 0 24 -16 40
-35 16 -19 33 -35 38 -35 13 0 46 -41 46 -57 0 -7 6 -13 13 -13 8 0 20 -11 27
-25 7 -14 22 -25 32 -25 10 0 18 -6 18 -13 0 -7 15 -20 33 -28 21 -9 39 -28
52 -56 11 -24 26 -43 33 -43 6 0 12 -4 12 -10 0 -5 7 -10 15 -10 8 0 15 -7 15
-15 0 -8 5 -15 10 -15 6 0 10 -4 10 -10 0 -15 33 -50 47 -50 7 0 13 -7 13 -15
0 -8 7 -15 15 -15 8 0 15 -4 15 -10 0 -5 7 -10 15 -10 8 0 15 -7 15 -15 0 -8
5 -15 10 -15 6 0 10 -7 10 -15 0 -8 6 -15 13 -15 18 0 57 -34 57 -49 0 -6 6
-11 13 -11 8 0 20 -11 27 -25 7 -14 19 -25 25 -25 16 0 56 -40 50 -50 -6 -10
-78 -4 -103 8 -9 5 -34 12 -55 15 -45 7 -162 53 -197 77 -14 9 -38 20 -55 24
-16 4 -46 10 -65 15 -19 4 -49 15 -67 24 -53 28 -79 22 -113 -25 -16 -22 -30
-49 -30 -59 0 -18 -49 -82 -121 -156 -45 -46 -63 -51 -188 -52 -69 -1 -79 1
-125 32 -28 18 -59 36 -68 40 -9 3 -26 23 -37 44 -11 21 -41 58 -66 83 -26 25
-62 77 -82 115 -40 79 -46 85 -90 85 -25 0 -43 -11 -83 -49 -28 -27 -68 -57
-88 -67 -20 -9 -58 -32 -84 -50 -25 -18 -70 -40 -100 -49 -29 -9 -75 -25 -103
-37 -106 -43 -211 -78 -238 -78 -16 0 -40 -8 -53 -19 -13 -10 -50 -22 -86 -26
-35 -4 -76 -10 -93 -13 -16 -3 -138 -6 -270 -8 -132 -1 -244 -3 -250 -4 -5 -1
-125 -2 -265 -1 -274 0 -357 10 -344 40 4 9 9 106 11 216 1 110 7 238 12 285
5 47 9 114 10 149 0 64 9 81 41 80 17 0 80 -82 80 -104 0 -8 5 -15 11 -15 15
0 37 -25 49 -54 10 -28 29 -32 62 -15 18 10 20 17 14 72 -4 34 -15 90 -24 124
-13 53 -14 66 -3 90 8 15 18 38 24 50 14 32 14 191 -1 241 -7 24 -22 52 -33
63 -10 10 -19 24 -19 29 0 6 -9 20 -19 32 -17 17 -18 24 -7 42 7 11 12 41 12
66 -1 40 -4 45 -25 48 -27 4 -111 -71 -111 -99 0 -24 -34 -33 -59 -17 -18 11
-21 23 -21 78 1 36 6 99 11 140 6 41 11 117 10 168 l0 92 34 0 c24 0 35 -5 35
-15 0 -8 5 -15 10 -15 6 0 10 -7 10 -15 0 -8 5 -15 10 -15 6 0 30 -20 54 -45
75 -77 101 -50 46 48 -43 77 -40 104 17 147 25 19 50 42 54 50 64 124 55 200
-39 348 -18 29 -40 56 -48 59 -19 7 -18 22 8 109 20 72 20 75 3 94 -10 11 -26
20 -36 20 -27 0 -79 -49 -79 -74 0 -12 -14 -35 -30 -51 -29 -27 -31 -28 -44
-10 -17 23 -28 391 -21 703 2 119 0 223 -5 237 -5 14 -5 27 -1 30 5 3 7 13 4
24 -2 10 3 25 12 35 18 18 35 21 35 6z m-21335 -143 c-5 -20 -5 -20 8 -5 9 11
18 14 28 7 8 -5 24 -9 37 -9 21 0 82 -49 82 -65 0 -3 16 -23 35 -43 25 -26 35
-46 35 -69 0 -19 10 -43 25 -61 14 -17 25 -37 25 -46 0 -9 5 -16 10 -16 6 0
10 -15 10 -33 0 -18 9 -49 20 -70 11 -20 20 -51 20 -68 0 -17 7 -57 15 -88 8
-31 13 -65 11 -76 -2 -11 -7 -55 -11 -98 -5 -52 -14 -86 -26 -101 -11 -13 -19
-33 -19 -44 0 -25 60 -34 144 -21 42 7 62 7 64 0 2 -6 23 -11 46 -11 42 0 89
-25 109 -57 4 -7 14 -13 21 -13 8 0 16 -7 20 -15 3 -8 12 -15 21 -15 8 0 15
-9 15 -19 0 -11 5 -23 10 -26 6 -3 10 -16 10 -29 0 -12 5 -27 11 -33 40 -40
64 -207 34 -237 -8 -8 -15 -32 -15 -54 0 -27 -9 -51 -30 -80 -20 -28 -30 -54
-30 -77 0 -38 22 -57 43 -36 6 6 20 11 32 11 12 0 25 4 30 9 14 12 141 48 197
56 27 3 49 2 52 -4 4 -6 27 -8 56 -4 34 4 50 2 50 -6 0 -6 11 -11 25 -11 14 0
25 -4 25 -10 0 -5 16 -10 35 -10 19 0 35 -4 35 -9 0 -4 20 -14 45 -21 25 -7
48 -17 51 -21 3 -5 18 -9 35 -9 16 0 29 -4 29 -10 0 -5 11 -12 25 -16 14 -3
25 -10 25 -14 0 -4 16 -11 35 -14 22 -4 35 -13 35 -22 0 -20 54 -74 74 -74 9
0 16 -7 16 -15 0 -8 7 -15 15 -15 8 0 15 -7 15 -15 0 -8 5 -15 10 -15 6 0 10
-7 10 -15 0 -8 4 -15 9 -15 5 0 12 -12 16 -27 3 -15 16 -36 28 -48 12 -11 28
-32 36 -48 8 -15 20 -27 28 -27 8 0 13 -12 13 -32 0 -18 9 -46 20 -63 11 -16
20 -36 20 -43 0 -7 7 -20 15 -28 10 -10 15 -35 15 -70 0 -30 5 -54 10 -54 6 0
8 -10 5 -23 -3 -12 -2 -48 3 -80 5 -31 6 -59 3 -63 -3 -3 -6 -9 -6 -12 -1 -4
-8 -20 -17 -37 -8 -16 -29 -64 -46 -105 -36 -90 -86 -178 -115 -203 -49 -41
-157 -105 -227 -135 -105 -44 -198 -51 -305 -22 -44 12 -91 25 -105 29 -45 11
-164 107 -193 154 -10 16 -25 37 -34 45 -8 8 -27 34 -41 56 -26 40 -27 45 -24
170 2 84 8 141 17 164 8 19 15 43 15 53 0 11 5 19 10 19 6 0 10 11 10 25 0 14
5 25 10 25 6 0 10 7 10 15 0 9 7 18 15 21 8 4 15 12 15 18 0 15 90 45 160 53
34 4 50 2 50 -6 0 -6 7 -11 15 -11 30 0 48 -71 22 -87 -22 -13 -44 -83 -51
-158 -7 -78 1 -97 47 -109 15 -3 27 -11 27 -16 0 -6 6 -10 14 -10 7 0 19 -7
26 -15 20 -24 96 -30 126 -10 52 34 72 58 79 93 4 20 14 50 22 66 21 40 13
129 -16 189 -25 51 -77 106 -133 138 -112 65 -176 78 -303 60 -70 -10 -88 -17
-155 -63 -100 -69 -158 -136 -211 -243 -13 -28 -27 -51 -31 -53 -5 -2 -8 -10
-8 -18 0 -15 -20 -25 -86 -43 -59 -16 -94 -46 -94 -81 0 -16 5 -32 10 -35 6
-3 10 -17 10 -31 0 -14 11 -37 25 -52 14 -15 30 -41 36 -59 5 -17 16 -34 24
-37 8 -3 15 -15 15 -26 0 -11 5 -20 10 -20 22 0 8 -28 -36 -70 -55 -53 -74
-93 -74 -155 0 -38 3 -45 19 -45 11 0 36 -9 56 -21 41 -25 105 -20 105 8 0 12
8 14 43 9 30 -5 55 -2 82 10 33 13 50 14 112 5 41 -6 98 -11 128 -11 30 0 55
-5 55 -10 0 -6 19 -9 43 -8 23 1 115 -2 204 -6 l163 -9 26 27 c15 14 36 26 48
26 11 0 34 7 50 15 16 8 52 22 80 30 35 11 67 31 104 65 30 28 58 50 63 50 5
0 9 9 9 20 0 11 6 20 13 20 11 0 34 42 42 78 2 7 10 24 19 37 9 13 16 30 16
36 0 7 6 17 14 23 8 6 26 50 41 98 32 106 75 165 75 104 0 -14 5 -28 10 -31 6
-3 10 -21 10 -40 0 -18 3 -35 8 -37 4 -1 20 -22 36 -45 16 -24 32 -40 37 -37
5 3 9 -1 9 -9 0 -8 20 -36 45 -63 25 -26 45 -50 45 -54 0 -8 60 -20 104 -20
19 0 27 4 23 13 -3 7 4 19 15 26 16 10 19 22 18 69 -1 51 4 92 16 130 5 16 44
-2 44 -21 0 -7 10 -17 23 -22 12 -6 23 -20 25 -32 2 -13 9 -23 17 -23 7 0 16
-12 20 -27 7 -28 36 -59 64 -68 10 -3 28 -23 40 -45 12 -22 26 -40 30 -40 11
0 59 -48 96 -96 17 -21 45 -54 63 -72 17 -19 32 -36 32 -39 0 -7 64 -63 72
-63 5 0 8 -7 8 -15 0 -8 4 -15 10 -15 15 0 50 -33 50 -47 0 -7 7 -13 15 -13
19 0 19 -14 0 -30 -25 -21 -71 -14 -133 21 -31 17 -66 36 -78 42 -11 6 -31 26
-45 45 -51 70 -111 137 -129 144 -35 13 -52 -1 -49 -41 2 -24 -5 -49 -22 -76
-14 -22 -31 -56 -39 -75 -16 -42 -42 -79 -53 -80 -5 0 -24 -7 -43 -16 -26 -12
-51 -15 -101 -10 -131 11 -168 17 -190 31 -20 13 -21 20 -16 89 6 82 -10 126
-46 126 -24 0 -81 -43 -158 -118 -34 -33 -70 -63 -81 -66 -11 -4 -27 -17 -36
-31 -8 -13 -29 -26 -45 -30 -16 -3 -35 -13 -42 -21 -6 -8 -17 -14 -23 -14 -6
0 -24 -15 -41 -34 l-30 -35 -230 -1 c-126 -1 -255 -1 -285 0 -30 1 -109 -2
-175 -6 -66 -4 -138 -6 -160 -4 -70 5 -426 5 -535 0 -122 -5 -269 22 -309 56
-2 2 -6 69 -8 148 l-4 145 25 22 c43 37 74 91 96 164 12 39 34 86 49 105 26
32 28 42 29 130 0 52 -4 110 -10 128 -8 29 -7 38 15 70 18 28 27 61 36 134 6
53 11 101 11 107 0 6 6 11 14 11 7 0 21 24 31 58 24 76 48 132 57 132 5 0 8 9
8 20 0 11 5 20 10 20 12 0 13 87 1 94 -20 12 -153 10 -161 -3 -4 -7 -28 -16
-54 -18 -25 -3 -46 -10 -46 -14 0 -5 -18 -9 -40 -9 -23 0 -40 5 -40 11 0 20
23 93 34 109 24 33 36 61 36 82 0 14 11 31 30 43 16 11 32 32 36 47 3 16 12
28 20 28 8 0 14 5 14 10 0 6 6 10 14 10 8 0 21 8 28 18 7 10 27 27 43 38 17
10 34 24 38 31 11 17 73 43 103 43 12 0 26 6 31 13 8 13 5 47 -7 62 -4 6 -10
23 -14 38 -4 15 -11 25 -17 21 -5 -3 -15 8 -22 25 -6 17 -17 31 -24 31 -7 0
-15 11 -19 24 -3 13 -15 26 -26 29 -11 3 -22 15 -25 26 -3 12 -10 21 -16 21
-5 0 -23 14 -39 30 -15 17 -33 30 -38 30 -6 0 -10 4 -10 8 0 4 -20 14 -45 21
-25 7 -45 19 -45 26 0 7 -17 15 -39 19 l-39 6 -5 72 c-4 40 -4 165 -2 278 2
113 5 315 5 450 1 172 4 240 11 227 6 -9 7 -27 4 -40z m21180 -14 c-13 -133
-12 -284 4 -292 10 -6 12 -18 7 -42 -16 -81 -26 -253 -16 -263 13 -13 13 -183
0 -191 -5 -3 -10 -26 -10 -51 0 -32 -4 -44 -15 -44 -8 0 -15 7 -15 15 0 8 -4
15 -10 15 -5 0 -7 6 -4 14 9 22 -53 66 -93 66 l-36 0 6 -57 c3 -32 11 -59 17
-61 5 -2 10 -17 10 -33 0 -17 6 -32 15 -35 8 -4 15 -15 15 -26 0 -11 8 -22 20
-25 23 -6 27 -50 9 -85 -6 -11 -11 -67 -11 -126 1 -100 0 -106 -23 -124 -14
-11 -25 -23 -25 -28 0 -5 -14 -30 -31 -55 -20 -29 -29 -53 -26 -67 3 -11 2
-30 -3 -42 -4 -13 -4 -29 1 -37 7 -12 14 -11 45 6 21 11 39 28 42 38 2 9 15
20 28 23 13 3 24 12 24 20 0 8 6 14 14 14 8 0 17 11 20 25 11 43 36 31 37 -17
1 -102 9 -278 14 -335 5 -58 4 -62 -17 -65 -14 -2 -35 7 -56 24 -56 47 -86 33
-49 -23 28 -43 50 -106 42 -119 -4 -6 -23 -19 -44 -29 -37 -19 -100 -81 -119
-118 -18 -33 -25 -157 -11 -202 12 -42 91 -131 116 -131 9 0 13 -15 13 -45 0
-25 -4 -45 -8 -45 -13 0 -50 -55 -58 -85 -6 -25 -5 -26 27 -21 19 3 55 8 80
11 l46 6 7 -78 c9 -107 10 -400 1 -500 -6 -67 -11 -84 -26 -88 -10 -3 -235 -6
-501 -7 l-483 -1 -77 31 c-42 18 -83 32 -92 32 -8 0 -17 4 -20 9 -3 5 -21 12
-40 15 -19 4 -45 15 -59 26 -14 11 -34 20 -44 20 -10 0 -40 18 -67 40 -26 22
-52 40 -56 40 -5 0 -39 30 -77 66 -37 36 -80 73 -96 82 -15 9 -30 24 -33 34
-10 33 -45 20 -93 -34 -89 -101 -170 -168 -221 -183 -14 -4 -31 -12 -38 -17
-41 -34 -270 -44 -360 -16 -17 5 -65 41 -104 79 -40 38 -76 69 -80 69 -4 0 -8
19 -8 43 0 23 -3 52 -6 64 -14 50 -88 29 -144 -42 -22 -28 -58 -56 -97 -76
-35 -18 -63 -36 -63 -41 0 -4 -9 -8 -21 -8 -11 0 -33 -8 -47 -19 -48 -33 -119
-61 -237 -91 -117 -30 -185 -38 -185 -21 0 13 29 41 41 41 13 0 59 46 59 59 0
6 11 18 25 27 14 9 25 21 25 26 0 9 25 38 33 38 2 0 49 43 103 95 54 52 102
95 106 95 4 0 8 4 8 10 0 5 14 22 30 37 62 58 84 82 99 111 6 12 18 22 26 22
19 0 61 40 69 68 4 12 15 22 25 22 23 0 121 79 121 97 0 7 7 13 15 13 8 0 15
4 15 9 0 12 120 131 131 131 5 0 9 5 9 11 0 6 17 27 39 47 21 20 51 58 66 84
15 27 32 48 38 48 7 0 23 14 36 30 38 48 69 32 40 -21 -5 -11 -11 -38 -12 -59
-1 -22 -4 -40 -8 -40 -11 0 -41 -110 -36 -130 3 -11 2 -20 -2 -20 -14 0 -11
-105 5 -170 13 -54 23 -73 59 -107 32 -32 52 -43 75 -43 16 0 30 -5 30 -11 0
-8 11 -9 31 -5 41 8 96 66 109 115 11 40 2 189 -20 346 -9 64 -9 221 0 245 2
3 2 9 1 14 -1 5 5 39 13 75 9 36 18 78 21 94 4 18 12 27 25 27 11 0 20 -7 20
-15 0 -8 5 -15 11 -15 6 0 7 -8 3 -22 -5 -13 -7 -101 -5 -197 3 -158 9 -200
31 -221 3 -3 12 -24 20 -48 7 -23 19 -47 26 -53 7 -6 10 -17 7 -24 -3 -9 5
-19 21 -26 26 -12 29 -18 41 -77 4 -17 11 -32 16 -32 12 0 49 -37 49 -50 0 -5
7 -10 15 -10 8 0 15 -4 15 -10 0 -5 5 -10 11 -10 14 0 39 -25 39 -39 0 -6 10
-11 23 -11 13 0 36 -14 52 -30 16 -16 35 -30 42 -30 7 0 13 -4 13 -10 0 -5 7
-10 15 -10 8 0 15 -4 15 -10 0 -5 9 -10 20 -10 11 0 23 -7 26 -15 4 -8 14 -15
24 -15 10 0 20 -7 24 -15 3 -8 13 -15 22 -15 18 0 169 -47 196 -61 10 -5 32
-9 50 -9 18 0 44 -9 58 -20 14 -11 37 -20 51 -20 14 0 29 -3 33 -7 4 -4 23 -6
42 -4 19 1 34 -2 34 -8 0 -6 18 -11 40 -11 22 0 40 -4 40 -10 0 -5 16 -10 35
-10 19 0 35 -4 35 -10 0 -5 7 -10 15 -10 8 0 15 -4 15 -10 0 -5 14 -10 30 -10
17 0 30 -4 30 -10 0 -5 9 -10 20 -10 11 0 20 -4 20 -10 0 -5 16 -10 35 -10 19
0 35 -4 35 -10 0 -5 16 -10 36 -10 l37 0 -7 47 c-6 48 -45 103 -73 103 -7 0
-31 18 -53 40 -44 44 -55 90 -21 90 10 0 24 7 31 15 7 8 18 15 24 15 14 0 40
56 32 69 -4 5 -2 12 3 15 13 9 -6 94 -30 133 -28 46 -86 72 -143 66 -24 -3
-46 -1 -49 4 -3 5 -11 56 -17 113 -6 58 -16 109 -21 114 -5 6 -9 22 -9 36 0
56 -151 160 -232 160 -92 0 -198 -56 -198 -105 0 -24 31 -65 49 -65 7 0 31 -9
54 -19 35 -16 119 -34 162 -36 13 0 45 -97 37 -110 -4 -5 -8 -21 -10 -35 -2
-14 -10 -29 -18 -33 -8 -4 -23 -25 -33 -45 -10 -20 -28 -45 -38 -54 -33 -30
-153 -68 -213 -68 -58 0 -176 24 -194 40 -6 4 -38 18 -71 31 -58 22 -149 86
-193 137 -57 66 -94 174 -108 312 -4 31 -13 60 -21 67 -8 6 -12 16 -9 22 4 5
8 53 10 107 2 77 6 98 20 106 9 5 16 15 16 21 0 7 14 21 30 30 17 10 30 25 30
33 0 8 5 14 11 14 7 0 21 10 33 22 30 33 66 54 104 62 17 4 32 14 32 22 0 7
12 16 28 19 15 4 35 10 44 16 10 5 28 9 41 9 13 0 29 6 36 13 15 15 194 14
199 -2 2 -6 22 -11 44 -11 31 0 41 4 45 20 3 11 9 20 14 20 13 0 11 75 -3 105
-6 14 -14 25 -18 25 -6 0 -32 45 -34 60 -1 3 -5 11 -10 19 -11 18 -9 107 4
131 5 10 10 29 10 42 0 27 21 78 33 78 4 0 7 11 7 25 0 16 6 25 15 25 8 0 15
7 15 15 0 8 12 18 27 21 44 11 75 31 87 56 8 16 22 24 46 26 19 2 39 8 45 13
13 13 45 11 45 -2 0 -8 18 -10 59 -5 42 5 60 3 63 -5 3 -8 16 -10 40 -5 50 9
63 43 48 125 -8 45 -8 66 1 82 6 12 9 37 7 55 -2 19 0 34 4 34 4 0 8 9 8 20 0
11 5 20 10 20 6 0 10 9 10 20 0 11 4 20 9 20 5 0 13 12 19 28 5 15 24 42 41
59 17 18 31 39 31 46 0 14 35 47 50 47 6 0 10 6 10 14 0 17 87 109 118 125 12
6 22 17 22 23 0 13 67 78 81 78 5 0 9 6 9 13 0 7 14 21 30 30 17 10 30 25 30
32 0 8 11 17 25 21 14 3 25 12 25 18 0 21 23 36 53 36 l29 0 -7 -67z m-14148
-56 c12 -13 29 -40 39 -60 10 -20 24 -37 31 -37 7 0 13 -4 13 -10 0 -5 5 -10
11 -10 6 0 20 -11 31 -25 11 -14 26 -25 34 -25 8 0 14 -7 14 -15 0 -8 6 -15
14 -15 7 0 16 -13 20 -30 4 -23 11 -30 28 -30 24 0 88 -56 88 -78 0 -18 60
-92 76 -92 7 0 15 -13 19 -30 4 -16 10 -30 14 -30 19 0 35 -103 34 -218 -1
-95 2 -126 14 -137 21 -22 62 -18 82 7 15 17 31 22 89 25 45 2 72 0 72 -7 0
-5 16 -10 35 -10 19 0 35 -4 35 -9 0 -5 17 -15 38 -22 36 -11 72 -40 72 -56 0
-5 9 -14 20 -21 12 -7 17 -18 14 -27 -4 -9 0 -23 8 -33 28 -32 40 -126 32
-245 -3 -62 -11 -123 -17 -137 -12 -30 -9 -72 7 -83 6 -4 34 -5 61 -1 60 7
255 -12 269 -26 6 -6 23 -10 38 -10 15 0 28 -4 28 -10 0 -5 9 -10 19 -10 11 0
21 -4 23 -8 3 -6 48 -30 146 -75 12 -6 22 -16 22 -24 0 -7 7 -13 16 -13 8 0
13 -4 9 -9 -3 -5 5 -13 17 -17 13 -4 25 -10 28 -15 8 -12 63 -79 88 -107 12
-14 22 -31 22 -38 0 -8 8 -14 19 -14 15 0 20 -10 25 -52 4 -29 13 -59 19 -67
8 -9 12 -57 12 -141 -1 -103 -4 -132 -18 -153 -9 -15 -17 -33 -17 -41 0 -37
-101 -166 -130 -166 -5 0 -28 -18 -51 -40 -23 -22 -47 -40 -53 -40 -6 0 -27
-11 -47 -24 -50 -34 -137 -50 -259 -48 -119 2 -175 12 -275 50 -76 29 -97 49
-133 126 -41 88 -45 129 -25 246 9 58 23 109 30 113 7 4 13 15 13 22 0 8 4 15
9 15 5 0 22 13 38 30 15 16 34 30 40 30 7 0 13 5 13 10 0 6 33 10 79 10 l78 0
6 -106 c3 -59 9 -109 15 -113 5 -3 13 -21 17 -39 4 -18 14 -36 23 -39 10 -4
30 -15 45 -26 55 -38 125 13 127 93 0 29 -31 173 -40 180 -3 3 -15 19 -26 37
-51 83 -212 151 -296 125 -18 -6 -53 -16 -78 -22 -36 -9 -59 -26 -113 -82 -37
-39 -70 -83 -74 -97 -3 -14 -9 -30 -13 -36 -24 -33 -15 -257 11 -290 4 -6 15
-32 24 -59 21 -62 17 -65 -97 -65 -60 0 -96 -5 -117 -16 -34 -17 -40 -44 -16
-69 8 -8 15 -18 15 -21 0 -11 44 -44 58 -45 6 0 12 -5 12 -10 0 -10 44 -33 65
-34 10 -1 35 -41 35 -56 0 -4 -16 -31 -34 -59 -31 -45 -66 -146 -66 -187 0 -8
7 -25 15 -38 15 -23 17 -23 62 -10 73 22 123 47 123 61 0 7 10 13 23 13 22 0
242 52 287 69 14 5 50 14 80 21 30 7 62 17 70 21 8 4 43 13 78 20 34 6 62 16
62 20 0 5 13 9 29 9 16 0 48 7 71 15 23 8 55 15 71 15 16 0 29 5 29 10 0 6 7
10 15 10 8 0 15 7 15 15 0 8 17 19 39 26 22 6 52 24 68 38 16 14 49 35 73 46
45 20 69 36 99 67 9 9 29 22 45 27 15 6 30 20 33 31 3 11 11 20 18 20 7 0 25
19 41 43 16 23 35 46 41 50 7 4 13 17 13 27 0 11 3 20 8 20 4 0 17 3 28 6 27
7 37 -24 18 -51 -23 -32 -18 -119 9 -152 13 -15 33 -44 45 -63 39 -65 57 -80
96 -80 20 0 49 6 64 14 23 12 28 22 31 58 1 25 8 46 17 51 8 5 14 23 14 42 0
19 2 35 5 35 11 0 95 -88 95 -99 0 -6 5 -11 11 -11 7 0 36 -25 64 -55 29 -30
59 -55 66 -55 8 0 22 -14 32 -31 9 -17 26 -33 37 -36 11 -3 20 -12 20 -21 0
-18 29 -41 53 -42 9 0 17 -5 17 -10 0 -6 14 -24 30 -42 17 -17 41 -44 53 -60
12 -15 30 -28 40 -28 9 0 17 -4 17 -10 0 -12 85 -92 111 -104 10 -5 19 -13 19
-18 0 -13 32 -44 53 -51 18 -7 24 -27 7 -27 -5 0 -10 -7 -10 -15 0 -16 -39
-21 -55 -7 -6 5 -52 19 -103 32 -108 26 -168 62 -254 151 -31 32 -63 59 -71
59 -19 0 -81 -42 -80 -55 5 -49 -92 -92 -222 -99 -97 -6 -166 36 -235 142 -50
77 -143 109 -185 62 -10 -11 -26 -22 -36 -25 -11 -4 -19 -14 -19 -23 0 -15
-137 -116 -182 -134 -9 -4 -48 -28 -85 -53 -37 -25 -74 -45 -81 -45 -18 0
-184 -51 -197 -60 -18 -13 -153 -32 -183 -25 -35 7 -127 8 -701 1 -282 -3
-462 -1 -473 5 -37 20 -52 69 -52 171 0 60 5 106 13 121 10 18 10 33 2 62 -6
23 -7 43 -1 49 19 24 17 166 -3 166 -13 0 -16 44 -4 56 3 3 3 12 0 20 -8 21
26 54 54 54 29 0 110 -78 119 -115 7 -28 64 -61 89 -51 34 13 17 69 -68 218
-28 49 -34 78 -17 78 6 0 10 11 10 24 0 14 5 28 10 31 6 3 10 25 10 49 0 23 5
47 10 52 7 7 7 33 -1 80 -6 38 -12 86 -13 106 -1 20 -11 50 -22 65 -26 35 -22
93 7 100 11 3 19 11 19 19 0 7 11 16 25 20 28 7 35 43 12 63 -18 14 -90 -12
-132 -48 -64 -56 -116 -69 -130 -33 -8 21 -7 366 1 387 8 19 54 16 54 -4 0
-33 25 -81 42 -81 10 0 18 -4 18 -10 0 -5 16 -17 36 -26 33 -16 37 -16 52 -1
14 14 14 20 2 44 -8 15 -29 46 -47 67 -18 22 -33 45 -33 52 0 7 -5 14 -11 16
-8 3 -10 16 -5 41 6 30 11 37 30 37 103 0 116 31 95 228 -9 81 -13 95 -50 179
-30 68 -23 127 17 137 13 4 24 13 24 22 0 8 11 30 25 48 32 41 32 60 0 74 -34
15 -66 2 -131 -54 -54 -46 -85 -54 -110 -30 -16 16 -19 52 -5 60 13 8 24 135
14 149 -5 7 -7 70 -3 142 3 72 6 202 5 290 0 180 6 200 52 152z m7010 0 c12
-13 29 -40 39 -60 10 -20 24 -37 31 -37 7 0 13 -4 13 -10 0 -5 5 -10 11 -10 6
0 20 -11 31 -25 11 -14 26 -25 34 -25 8 0 14 -7 14 -15 0 -8 6 -15 14 -15 7 0
16 -13 20 -30 4 -23 11 -30 28 -30 24 0 88 -56 88 -78 0 -18 60 -92 76 -92 7
0 15 -13 19 -30 4 -16 10 -30 14 -30 19 0 35 -103 34 -218 -1 -95 2 -126 14
-137 21 -22 62 -18 82 7 15 17 31 22 89 25 45 2 72 0 72 -7 0 -5 16 -10 35
-10 19 0 35 -4 35 -9 0 -5 17 -15 38 -22 36 -11 72 -40 72 -56 0 -5 9 -14 20
-21 12 -7 17 -18 14 -27 -4 -9 0 -23 8 -33 28 -32 40 -126 32 -245 -3 -62 -11
-123 -17 -137 -12 -30 -9 -72 7 -83 6 -4 34 -5 61 -1 60 7 255 -12 269 -26 6
-6 23 -10 38 -10 15 0 28 -4 28 -10 0 -5 9 -10 19 -10 11 0 21 -4 23 -8 3 -6
48 -30 146 -75 12 -6 22 -16 22 -24 0 -7 7 -13 16 -13 8 0 13 -4 9 -9 -3 -5 5
-13 17 -17 13 -4 25 -10 28 -15 8 -12 63 -79 88 -107 12 -14 22 -31 22 -38 0
-8 8 -14 19 -14 15 0 20 -10 25 -52 4 -29 13 -59 19 -67 8 -9 12 -57 12 -141
-1 -103 -4 -132 -18 -153 -9 -15 -17 -33 -17 -41 0 -37 -101 -166 -130 -166
-5 0 -28 -18 -51 -40 -23 -22 -47 -40 -53 -40 -6 0 -27 -11 -47 -24 -50 -34
-137 -50 -259 -48 -119 2 -175 12 -275 50 -76 29 -97 49 -133 126 -41 88 -45
129 -25 246 9 58 23 109 30 113 7 4 13 15 13 22 0 8 4 15 9 15 5 0 22 13 38
30 15 16 34 30 40 30 7 0 13 5 13 10 0 6 33 10 79 10 l78 0 6 -106 c3 -59 9
-109 15 -113 5 -3 13 -21 17 -39 4 -18 14 -36 23 -39 10 -4 30 -15 45 -26 55
-38 125 13 127 93 0 29 -31 173 -40 180 -3 3 -15 19 -26 37 -51 83 -212 151
-296 125 -18 -6 -53 -16 -78 -22 -36 -9 -59 -26 -113 -82 -37 -39 -70 -83 -74
-97 -3 -14 -9 -30 -13 -36 -24 -33 -15 -257 11 -290 4 -6 15 -32 24 -59 21
-62 17 -65 -97 -65 -60 0 -96 -5 -117 -16 -34 -17 -40 -44 -16 -69 8 -8 15
-18 15 -21 0 -11 44 -44 58 -45 6 0 12 -5 12 -10 0 -10 44 -33 65 -34 10 -1
35 -41 35 -56 0 -4 -16 -31 -34 -59 -31 -45 -66 -146 -66 -187 0 -8 7 -25 15
-38 15 -23 17 -23 62 -10 73 22 123 47 123 61 0 7 10 13 23 13 22 0 242 52
287 69 14 5 50 14 80 21 30 7 62 17 70 21 8 4 43 13 78 20 34 6 62 16 62 20 0
5 13 9 29 9 16 0 48 7 71 15 23 8 55 15 71 15 16 0 29 5 29 10 0 6 7 10 15 10
8 0 15 7 15 15 0 8 17 19 39 26 22 6 52 24 68 38 16 14 49 35 73 46 45 20 69
36 99 67 9 9 29 22 45 27 15 6 30 20 33 31 3 11 11 20 18 20 7 0 25 19 41 43
16 23 35 46 41 50 7 4 13 17 13 27 0 11 3 20 8 20 4 0 17 3 28 6 27 7 37 -24
18 -51 -23 -32 -18 -119 9 -152 13 -15 33 -44 45 -63 39 -65 57 -80 96 -80 20
0 49 6 64 14 23 12 28 22 31 58 1 25 8 46 17 51 8 5 14 23 14 42 0 19 2 35 5
35 11 0 95 -88 95 -99 0 -6 5 -11 11 -11 7 0 36 -25 64 -55 29 -30 59 -55 66
-55 8 0 22 -14 32 -31 9 -17 26 -33 37 -36 11 -3 20 -12 20 -21 0 -18 29 -41
53 -42 9 0 17 -5 17 -10 0 -6 14 -24 30 -42 17 -17 41 -44 53 -60 12 -15 30
-28 40 -28 9 0 17 -4 17 -10 0 -12 85 -92 111 -104 10 -5 19 -13 19 -18 0 -13
32 -44 53 -51 18 -7 24 -27 7 -27 -5 0 -10 -7 -10 -15 0 -16 -39 -21 -55 -7
-6 5 -52 19 -103 32 -108 26 -168 62 -254 151 -31 32 -63 59 -71 59 -19 0 -81
-42 -80 -55 5 -49 -92 -92 -222 -99 -97 -6 -166 36 -235 142 -50 77 -143 109
-185 62 -10 -11 -26 -22 -36 -25 -11 -4 -19 -14 -19 -23 0 -15 -137 -116 -182
-134 -9 -4 -48 -28 -85 -53 -37 -25 -74 -45 -81 -45 -18 0 -184 -51 -197 -60
-18 -13 -153 -32 -183 -25 -35 7 -127 8 -701 1 -282 -3 -462 -1 -473 5 -37 20
-52 69 -52 171 0 60 5 106 13 121 10 18 10 33 2 62 -6 23 -7 43 -1 49 19 24
17 166 -3 166 -13 0 -16 44 -4 56 3 3 3 12 0 20 -8 21 26 54 54 54 29 0 110
-78 119 -115 7 -28 64 -61 89 -51 34 13 17 69 -68 218 -28 49 -34 78 -17 78 6
0 10 11 10 24 0 14 5 28 10 31 6 3 10 25 10 49 0 23 5 47 10 52 7 7 7 33 -1
80 -6 38 -12 86 -13 106 -1 20 -11 50 -22 65 -26 35 -22 93 7 100 11 3 19 11
19 19 0 7 11 16 25 20 28 7 35 43 12 63 -18 14 -90 -12 -132 -48 -64 -56 -116
-69 -130 -33 -8 21 -7 366 1 387 8 19 54 16 54 -4 0 -33 25 -81 42 -81 10 0
18 -4 18 -10 0 -5 16 -17 36 -26 33 -16 37 -16 52 -1 14 14 14 20 2 44 -8 15
-29 46 -47 67 -18 22 -33 45 -33 52 0 7 -5 14 -11 16 -8 3 -10 16 -5 41 6 30
11 37 30 37 103 0 116 31 95 228 -9 81 -13 95 -50 179 -30 68 -23 127 17 137
13 4 24 13 24 22 0 8 11 30 25 48 32 41 32 60 0 74 -34 15 -66 2 -131 -54 -54
-46 -85 -54 -110 -30 -16 16 -19 52 -5 60 13 8 24 135 14 149 -5 7 -7 70 -3
142 3 72 6 202 5 290 0 180 6 200 52 152z m-7162 -325 c-1 -407 -2 -438 -21
-456 -8 -9 -25 -16 -36 -16 -32 0 -76 37 -83 71 -4 17 -14 33 -22 36 -8 3 -19
16 -24 30 -5 13 -16 26 -24 29 -23 9 -57 -25 -49 -50 9 -33 38 -86 46 -86 5 0
8 -27 8 -61 0 -50 -4 -66 -24 -90 -23 -27 -24 -36 -25 -172 -1 -118 1 -147 14
-157 8 -7 15 -23 15 -36 0 -14 6 -24 15 -24 20 0 40 -76 27 -104 -22 -50 -42
-124 -42 -158 0 -59 28 -50 114 37 112 113 111 114 110 -120 -2 -210 -8 -245
-50 -264 -40 -18 -48 -14 -113 54 -61 65 -96 81 -108 49 -8 -22 17 -64 38 -64
10 0 23 -13 31 -30 7 -16 18 -30 25 -30 25 0 26 -53 5 -140 -24 -95 -29 -213
-10 -257 6 -15 12 -32 12 -36 1 -4 6 -11 13 -15 6 -4 15 -20 18 -35 4 -15 13
-27 20 -27 22 0 26 -43 6 -65 -10 -11 -22 -30 -25 -42 -4 -12 -31 -49 -61 -83
-30 -33 -55 -67 -55 -75 0 -21 29 -45 55 -45 13 0 30 -3 39 -6 10 -4 16 -1 16
7 0 21 110 129 131 129 22 0 21 3 17 -220 -1 -80 -1 -179 0 -220 2 -41 0 -98
-3 -125 -6 -47 -8 -52 -46 -68 -22 -9 -83 -22 -137 -29 -95 -11 -149 -12 -322
-3 -125 7 -133 7 -160 5 -33 -3 -134 11 -140 19 -6 7 -134 33 -165 33 -43 0
-220 63 -267 94 -28 19 -55 34 -60 34 -6 0 -23 11 -40 25 -16 14 -38 25 -49
25 -10 0 -26 12 -35 26 -10 14 -34 34 -54 44 -21 11 -40 26 -43 35 -9 21 -70
20 -89 -2 -9 -10 -23 -34 -31 -53 -8 -19 -31 -51 -52 -70 -20 -19 -45 -43 -54
-53 -9 -10 -34 -27 -56 -36 -120 -54 -167 -60 -246 -35 -37 12 -59 25 -59 34
0 14 -22 36 -120 127 -19 17 -53 50 -75 73 -36 37 -44 41 -77 37 -40 -5 -96
-41 -205 -130 -23 -19 -84 -55 -135 -79 -116 -56 -149 -68 -295 -104 -63 -15
-77 -16 -112 -4 -61 20 -56 45 29 131 39 38 70 74 70 80 0 5 4 9 9 9 14 0 81
65 81 79 0 6 5 11 10 11 6 0 10 7 10 15 0 8 6 15 13 15 6 1 24 19 39 40 15 22
35 40 43 40 8 0 15 6 15 13 0 8 14 27 31 43 57 53 89 88 84 92 -7 8 23 32 39
32 9 0 16 8 16 20 0 10 9 24 20 30 11 6 20 17 20 26 0 8 7 17 15 20 8 4 15 12
15 19 0 7 7 15 15 19 8 3 15 12 15 21 0 8 7 15 15 15 8 0 15 5 15 10 0 6 7 10
15 10 8 0 15 9 15 20 0 13 7 20 20 20 11 0 20 4 20 9 0 16 74 83 102 93 16 6
28 16 28 24 0 8 11 20 25 26 14 6 25 17 25 24 0 7 16 18 35 24 19 6 35 18 35
26 0 8 4 14 9 14 6 0 16 12 23 28 9 18 22 28 40 30 l27 3 -2 -109 -2 -110 41
-39 c64 -61 73 -66 114 -70 32 -3 42 0 47 14 4 10 13 24 19 31 7 7 16 40 20
73 4 37 12 63 20 66 8 3 14 16 14 29 0 13 4 24 8 24 5 0 19 24 33 53 13 28 32
58 41 65 11 8 18 26 18 48 0 24 5 34 15 34 8 0 15 -9 15 -20 0 -11 5 -20 10
-20 6 0 10 -6 10 -13 0 -18 24 -67 33 -67 4 0 7 -13 7 -29 0 -16 6 -36 13 -43
7 -7 19 -29 27 -48 8 -19 38 -58 66 -87 28 -29 50 -54 48 -56 -3 -2 11 -15 30
-28 20 -13 41 -34 47 -46 7 -13 18 -23 26 -23 7 0 13 -7 13 -15 0 -8 7 -15 15
-15 8 0 15 -7 15 -15 0 -8 7 -15 15 -15 8 0 15 -7 15 -15 0 -8 14 -17 36 -21
19 -4 38 -13 41 -20 3 -8 19 -14 35 -14 20 0 37 -8 50 -25 11 -14 26 -25 34
-25 8 0 14 -4 14 -10 0 -5 7 -10 15 -10 15 0 25 -6 60 -38 7 -6 18 -12 24 -12
6 0 11 -6 11 -14 0 -8 15 -17 35 -20 20 -4 41 -16 48 -26 6 -11 19 -20 28 -20
9 0 22 -13 29 -30 7 -16 19 -30 26 -30 8 0 14 -7 14 -15 0 -8 7 -15 16 -15 8
0 37 -22 64 -50 34 -35 57 -50 75 -50 83 0 87 72 10 163 -45 53 -46 76 -2 79
17 1 39 2 48 3 8 0 26 11 39 23 13 12 27 22 32 22 17 0 7 52 -17 88 -20 31
-36 41 -75 52 -52 14 -96 49 -72 57 6 3 12 11 12 18 0 7 9 15 20 18 11 3 24
17 30 31 5 14 14 26 20 26 5 0 10 5 10 11 0 7 16 43 36 81 31 61 35 80 36 147
1 103 -8 140 -38 151 -13 5 -24 17 -24 27 0 25 -74 100 -123 125 -60 30 -185
42 -248 24 -72 -22 -107 -46 -134 -93 -25 -42 -34 -103 -15 -103 5 0 9 -8 8
-17 -5 -59 22 -77 97 -68 l53 7 7 49 c5 39 3 58 -12 89 -11 22 -17 44 -12 51
4 8 35 15 73 17 51 3 69 1 81 -12 9 -9 23 -16 30 -16 17 0 65 -43 65 -59 0 -6
7 -11 15 -11 22 0 28 -42 22 -138 -10 -151 -44 -214 -152 -282 -43 -27 -88
-50 -98 -50 -10 0 -35 -7 -54 -17 -29 -13 -41 -14 -67 -5 -18 7 -40 12 -49 12
-43 0 -218 102 -242 140 -4 6 -24 24 -45 39 -45 33 -105 104 -121 144 -6 15
-15 27 -20 27 -5 0 -9 8 -9 19 0 10 -7 35 -15 54 -8 20 -15 49 -15 65 0 16 -6
35 -14 41 -8 6 -17 36 -21 66 -7 61 22 190 54 235 10 14 21 35 25 47 4 12 15
25 25 28 18 6 41 45 41 70 0 8 5 15 11 15 16 0 35 22 46 55 8 26 18 32 73 46
35 9 70 24 79 35 24 30 69 51 146 67 39 9 94 21 123 27 33 8 57 9 65 3 6 -6
48 -9 92 -9 74 1 80 2 77 21 -6 30 -22 45 -47 45 -14 0 -25 7 -27 18 -10 35
-117 84 -210 97 -28 4 -48 11 -48 19 0 6 18 31 40 55 22 23 40 46 40 51 0 5 9
12 21 15 11 4 24 18 29 31 5 13 16 24 25 24 8 0 15 7 15 15 0 8 11 17 25 21
14 3 25 10 25 15 0 12 37 49 49 49 5 0 13 10 17 22 15 47 61 74 167 97 48 10
87 14 87 9 0 -4 14 -8 30 -8 29 0 30 1 31 53 1 28 1 58 0 65 -2 15 30 72 41
72 4 0 8 9 8 20 0 11 5 20 10 20 6 0 10 9 10 19 0 11 5 23 10 26 6 3 10 15 10
26 0 10 5 19 10 19 6 0 10 7 10 15 0 9 11 20 24 25 15 5 27 20 30 37 4 18 17
33 35 41 15 7 34 23 41 37 7 14 20 27 29 30 9 3 25 17 36 32 11 14 26 31 33
37 8 6 28 25 45 43 19 19 43 32 57 33 l25 0 0 -278z m7010 0 c-1 -407 -2 -438
-21 -456 -8 -9 -25 -16 -36 -16 -32 0 -76 37 -83 71 -4 17 -14 33 -22 36 -8 3
-19 16 -24 30 -5 13 -16 26 -24 29 -23 9 -57 -25 -49 -50 9 -33 38 -86 46 -86
5 0 8 -27 8 -61 0 -50 -4 -66 -24 -90 -23 -27 -24 -36 -25 -172 -1 -118 1
-147 14 -157 8 -7 15 -23 15 -36 0 -14 6 -24 15 -24 20 0 40 -76 27 -104 -22
-50 -42 -124 -42 -158 0 -59 28 -50 114 37 112 113 111 114 110 -120 -2 -210
-8 -245 -50 -264 -40 -18 -48 -14 -113 54 -61 65 -96 81 -108 49 -8 -22 17
-64 38 -64 10 0 23 -13 31 -30 7 -16 18 -30 25 -30 25 0 26 -53 5 -140 -24
-95 -29 -213 -10 -257 6 -15 12 -32 12 -36 1 -4 6 -11 13 -15 6 -4 15 -20 18
-35 4 -15 13 -27 20 -27 22 0 26 -43 6 -65 -10 -11 -22 -30 -25 -42 -4 -12
-31 -49 -61 -83 -30 -33 -55 -67 -55 -75 0 -21 29 -45 55 -45 13 0 30 -3 39
-6 10 -4 16 -1 16 7 0 21 110 129 131 129 22 0 21 3 17 -220 -1 -80 -1 -179 0
-220 2 -41 0 -98 -3 -125 -6 -47 -8 -52 -46 -68 -22 -9 -83 -22 -137 -29 -95
-11 -149 -12 -322 -3 -125 7 -133 7 -160 5 -33 -3 -134 11 -140 19 -6 7 -134
33 -165 33 -43 0 -220 63 -267 94 -28 19 -55 34 -60 34 -6 0 -23 11 -40 25
-16 14 -38 25 -49 25 -10 0 -26 12 -35 26 -10 14 -34 34 -54 44 -21 11 -40 26
-43 35 -9 21 -70 20 -89 -2 -9 -10 -23 -34 -31 -53 -8 -19 -31 -51 -52 -70
-20 -19 -45 -43 -54 -53 -9 -10 -34 -27 -56 -36 -120 -54 -167 -60 -246 -35
-37 12 -59 25 -59 34 0 14 -22 36 -120 127 -19 17 -53 50 -75 73 -36 37 -44
41 -77 37 -40 -5 -96 -41 -205 -130 -23 -19 -84 -55 -135 -79 -116 -56 -149
-68 -295 -104 -63 -15 -77 -16 -112 -4 -61 20 -56 45 29 131 39 38 70 74 70
80 0 5 4 9 9 9 14 0 81 65 81 79 0 6 5 11 10 11 6 0 10 7 10 15 0 8 6 15 13
15 6 1 24 19 39 40 15 22 35 40 43 40 8 0 15 6 15 13 0 8 14 27 31 43 57 53
89 88 84 92 -7 8 23 32 39 32 9 0 16 8 16 20 0 10 9 24 20 30 11 6 20 17 20
26 0 8 7 17 15 20 8 4 15 12 15 19 0 7 7 15 15 19 8 3 15 12 15 21 0 8 7 15
15 15 8 0 15 5 15 10 0 6 7 10 15 10 8 0 15 9 15 20 0 13 7 20 20 20 11 0 20
4 20 9 0 16 74 83 102 93 16 6 28 16 28 24 0 8 11 20 25 26 14 6 25 17 25 24
0 7 16 18 35 24 19 6 35 18 35 26 0 8 4 14 9 14 6 0 16 12 23 28 9 18 22 28
40 30 l27 3 -2 -109 -2 -110 41 -39 c64 -61 73 -66 114 -70 32 -3 42 0 47 14
4 10 13 24 19 31 7 7 16 40 20 73 4 37 12 63 20 66 8 3 14 16 14 29 0 13 4 24
8 24 5 0 19 24 33 53 13 28 32 58 41 65 11 8 18 26 18 48 0 24 5 34 15 34 8 0
15 -9 15 -20 0 -11 5 -20 10 -20 6 0 10 -6 10 -13 0 -18 24 -67 33 -67 4 0 7
-13 7 -29 0 -16 6 -36 13 -43 7 -7 19 -29 27 -48 8 -19 38 -58 66 -87 28 -29
50 -54 48 -56 -3 -2 11 -15 30 -28 20 -13 41 -34 47 -46 7 -13 18 -23 26 -23
7 0 13 -7 13 -15 0 -8 7 -15 15 -15 8 0 15 -7 15 -15 0 -8 7 -15 15 -15 8 0
15 -7 15 -15 0 -8 14 -17 36 -21 19 -4 38 -13 41 -20 3 -8 19 -14 35 -14 20 0
37 -8 50 -25 11 -14 26 -25 34 -25 8 0 14 -4 14 -10 0 -5 7 -10 15 -10 15 0
25 -6 60 -38 7 -6 18 -12 24 -12 6 0 11 -6 11 -14 0 -8 15 -17 35 -20 20 -4
41 -16 48 -26 6 -11 19 -20 28 -20 9 0 22 -13 29 -30 7 -16 19 -30 26 -30 8 0
14 -7 14 -15 0 -8 7 -15 16 -15 8 0 37 -22 64 -50 34 -35 57 -50 75 -50 83 0
87 72 10 163 -45 53 -46 76 -2 79 17 1 39 2 48 3 8 0 26 11 39 23 13 12 27 22
32 22 17 0 7 52 -17 88 -20 31 -36 41 -75 52 -52 14 -96 49 -72 57 6 3 12 11
12 18 0 7 9 15 20 18 11 3 24 17 30 31 5 14 14 26 20 26 5 0 10 5 10 11 0 7
16 43 36 81 31 61 35 80 36 147 1 103 -8 140 -38 151 -13 5 -24 17 -24 27 0
25 -74 100 -123 125 -60 30 -185 42 -248 24 -72 -22 -107 -46 -134 -93 -25
-42 -34 -103 -15 -103 5 0 9 -8 8 -17 -5 -59 22 -77 97 -68 l53 7 7 49 c5 39
3 58 -12 89 -11 22 -17 44 -12 51 4 8 35 15 73 17 51 3 69 1 81 -12 9 -9 23
-16 30 -16 17 0 65 -43 65 -59 0 -6 7 -11 15 -11 22 0 28 -42 22 -138 -10
-151 -44 -214 -152 -282 -43 -27 -88 -50 -98 -50 -10 0 -35 -7 -54 -17 -29
-13 -41 -14 -67 -5 -18 7 -40 12 -49 12 -43 0 -218 102 -242 140 -4 6 -24 24
-45 39 -45 33 -105 104 -121 144 -6 15 -15 27 -20 27 -5 0 -9 8 -9 19 0 10 -7
35 -15 54 -8 20 -15 49 -15 65 0 16 -6 35 -14 41 -8 6 -17 36 -21 66 -7 61 22
190 54 235 10 14 21 35 25 47 4 12 15 25 25 28 18 6 41 45 41 70 0 8 5 15 11
15 16 0 35 22 46 55 8 26 18 32 73 46 35 9 70 24 79 35 24 30 69 51 146 67 39
9 94 21 123 27 33 8 57 9 65 3 6 -6 48 -9 92 -9 74 1 80 2 77 21 -6 30 -22 45
-47 45 -14 0 -25 7 -27 18 -10 35 -117 84 -210 97 -28 4 -48 11 -48 19 0 6 18
31 40 55 22 23 40 46 40 51 0 5 9 12 21 15 11 4 24 18 29 31 5 13 16 24 25 24
8 0 15 7 15 15 0 8 11 17 25 21 14 3 25 10 25 15 0 12 37 49 49 49 5 0 13 10
17 22 15 47 61 74 167 97 48 10 87 14 87 9 0 -4 14 -8 30 -8 29 0 30 1 31 53
1 28 1 58 0 65 -2 15 30 72 41 72 4 0 8 9 8 20 0 11 5 20 10 20 6 0 10 9 10
19 0 11 5 23 10 26 6 3 10 15 10 26 0 10 5 19 10 19 6 0 10 7 10 15 0 9 11 20
24 25 15 5 27 20 30 37 4 18 17 33 35 41 15 7 34 23 41 37 7 14 20 27 29 30 9
3 25 17 36 32 11 14 26 31 33 37 8 6 28 25 45 43 19 19 43 32 57 33 l25 0 0
-278z m-13875 -687 c0 -8 -2 -15 -4 -15 -2 0 -6 7 -10 15 -3 8 -1 15 4 15 6 0
10 -7 10 -15z"/>
</g>
</svg>
