<?xml version="1.0" standalone="no"?>
<!DOCTYPE svg PUBLIC "-//W3C//DTD SVG 20010904//EN"
 "http://www.w3.org/TR/2001/REC-SVG-20010904/DTD/svg10.dtd">
<svg version="1.0" xmlns="http://www.w3.org/2000/svg"
 width="2645.000000pt" height="500.000000pt" viewBox="0 0 2645.000000 500.000000"
 preserveAspectRatio="xMidYMid meet">
<metadata>
Created by potrace 1.13, written by Peter Selinger 2001-2015
</metadata>
<g transform="translate(0.000000,500.000000) scale(0.100000,-0.100000)"
fill="#000000" stroke="none">
<path d="M223 4895 c-18 -18 -33 -42 -33 -53 0 -11 18 -58 40 -103 34 -71 40
-92 40 -149 0 -43 5 -73 15 -87 15 -21 14 -23 -14 -37 -42 -22 -66 -58 -93
-134 -19 -58 -22 -86 -22 -212 1 -208 15 -236 151 -302 78 -38 86 -40 143 -33
l60 7 0 -34 c0 -19 5 -39 11 -45 8 -8 8 -21 -1 -48 -9 -27 -10 -132 -5 -423 9
-463 9 -704 1 -792 -3 -35 -1 -82 5 -103 6 -21 12 -177 14 -345 2 -169 5 -316
6 -327 0 -11 -1 -120 -3 -241 -5 -259 -4 -256 -89 -247 -38 4 -66 0 -93 -11
-21 -9 -56 -16 -77 -16 -33 0 -46 -8 -105 -64 l-67 -64 7 -56 c4 -31 12 -58
17 -61 5 -4 9 -17 9 -30 0 -13 16 -54 36 -91 27 -51 34 -75 30 -98 -12 -73
-19 -96 -26 -96 -4 0 -10 -27 -14 -60 -4 -33 -11 -62 -16 -65 -6 -4 -10 -21
-10 -38 0 -18 -7 -45 -15 -61 -9 -18 -15 -56 -15 -104 l0 -75 57 7 c32 4 60
10 63 15 3 5 19 11 35 14 54 10 105 32 105 44 0 8 14 13 35 13 19 0 35 4 35 9
0 5 23 14 51 21 42 10 52 10 62 -2 19 -24 86 -58 112 -58 13 0 26 -4 29 -9 3
-4 32 -11 64 -15 43 -5 66 -3 88 9 16 8 35 15 42 15 6 0 12 4 12 9 0 5 14 12
30 16 17 4 30 13 30 21 0 8 9 23 20 34 11 11 20 31 20 45 0 14 4 25 10 25 5 0
13 18 16 40 4 22 10 40 15 40 5 0 9 26 9 58 0 53 -3 60 -40 100 -22 23 -40 46
-40 50 0 14 145 29 245 25 55 -3 120 0 145 6 24 5 47 6 50 2 4 -7 600 -18 705
-13 17 0 622 3 1346 6 723 2 1341 7 1373 11 42 6 60 4 66 -5 6 -9 16 -9 48 1
22 6 49 8 59 4 14 -6 1044 -16 1536 -15 56 0 347 2 647 3 300 1 613 1 695 0
237 -2 1338 5 1465 10 63 2 120 0 125 -3 6 -4 41 -3 78 3 56 9 70 8 77 -3 7
-12 18 -12 57 -3 27 6 104 10 178 8 72 -2 360 -3 640 -3 640 1 835 -1 955 -7
139 -7 108 -7 1005 1 753 7 1647 9 2075 4 91 -1 528 1 973 5 444 3 812 3 818
0 7 -5 6 -11 -2 -21 -10 -12 2 -14 74 -14 66 0 86 3 91 15 7 20 74 19 100 0
15 -12 54 -15 171 -15 136 0 154 2 169 19 27 30 184 54 210 32 18 -15 8080
-15 8176 0 45 7 66 7 68 0 2 -6 31 -11 65 -11 l61 0 -47 -48 c-26 -26 -47 -51
-47 -55 0 -4 -18 -26 -40 -49 -37 -40 -40 -47 -40 -100 0 -32 4 -58 9 -58 5 0
11 -18 15 -40 3 -22 11 -40 16 -40 6 0 10 -11 10 -25 0 -14 9 -34 20 -45 11
-11 20 -26 20 -34 0 -8 14 -17 30 -21 17 -4 30 -11 30 -16 0 -5 6 -9 13 -9 6
0 25 -7 41 -15 22 -12 45 -14 88 -9 32 4 61 11 64 15 3 5 16 9 29 9 26 0 93
34 112 58 10 12 20 12 62 2 28 -7 51 -16 51 -21 0 -5 16 -9 35 -9 21 0 35 -5
35 -13 0 -12 51 -34 105 -44 17 -3 32 -9 35 -14 3 -5 31 -11 63 -15 l57 -7 0
75 c0 48 -6 86 -15 104 -8 16 -15 43 -15 61 0 17 -4 34 -10 38 -5 3 -12 32
-16 65 -4 33 -10 60 -14 60 -7 0 -14 23 -26 96 -4 23 3 47 30 98 20 37 36 78
36 91 0 13 4 26 9 30 5 3 13 30 17 61 l7 56 -67 64 c-59 56 -72 64 -105 64
-21 0 -55 7 -76 16 -45 19 -162 14 -176 -7 -10 -16 -13 306 -13 1714 l-1 1009
61 -7 c106 -11 181 37 206 131 9 32 19 46 40 55 43 18 75 63 98 138 25 86 25
107 -2 161 -23 43 -75 89 -150 130 -41 22 -45 32 -23 70 11 19 14 65 15 184
l0 159 -36 33 c-63 60 -121 54 -156 -15 -26 -51 -58 -80 -102 -92 -45 -12
-133 -54 -156 -74 -12 -11 -24 -10 -67 5 -63 22 -183 24 -231 4 -18 -7 -57
-34 -87 -59 -59 -50 -88 -107 -84 -164 1 -20 1 -53 0 -74 l-1 -38 -512 6
c-1142 12 -1831 15 -1842 7 -6 -4 -173 -5 -371 -1 -198 4 -884 10 -1525 13
-641 3 -1204 8 -1251 12 -58 3 -89 2 -94 -5 -3 -6 -11 -9 -16 -5 -8 5 -1437 7
-3864 5 -445 -1 -889 2 -985 5 -96 3 -211 5 -255 5 -511 -4 -876 -3 -1505 3
-1073 10 -1197 11 -1375 8 -88 -1 -568 0 -1067 2 -767 3 -908 2 -908 -10 0
-11 -168 -13 -1077 -13 -593 0 -1442 0 -1888 0 -445 -1 -889 2 -985 5 -96 3
-211 5 -255 5 -511 -4 -876 -3 -1505 3 -949 9 -972 9 -2253 11 l-357 0 0 35
c-1 57 -34 115 -110 189 -55 53 -88 76 -145 100 -41 17 -85 31 -98 31 -33 0
-217 -66 -248 -89 l-27 -20 -81 83 c-44 46 -81 89 -81 95 0 6 -19 24 -41 41
-38 27 -48 30 -117 29 -72 -1 -78 -3 -109 -34z m3888 -558 c4 -5 12 -6 19 -2
7 4 62 7 122 7 142 -2 141 -2 137 -130 -2 -53 0 -103 4 -109 5 -7 28 -13 53
-13 24 0 44 -4 44 -8 0 -5 14 -7 30 -4 27 4 30 8 30 38 0 19 5 34 10 34 6 0
10 9 10 19 0 11 9 23 20 26 11 3 20 14 20 24 0 14 13 21 57 30 31 6 74 11 95
11 21 0 38 4 38 9 0 9 109 3 120 -6 2 -2 7 -33 11 -69 8 -75 20 -92 73 -101
32 -5 38 -3 43 15 3 12 14 24 24 27 10 4 19 15 19 26 0 10 5 19 10 19 6 0 10
15 10 33 0 30 4 34 48 51 28 10 87 20 147 23 107 6 318 -12 323 -28 2 -5 24
-9 48 -9 24 0 44 -4 44 -10 0 -5 15 -10 33 -10 17 -1 50 -7 72 -15 22 -8 50
-15 63 -15 12 0 22 -4 22 -9 0 -10 74 -51 93 -51 7 0 19 -9 27 -20 8 -11 22
-20 32 -20 10 0 18 -4 18 -10 0 -5 12 -10 26 -10 16 0 45 -16 74 -40 26 -22
57 -40 69 -40 12 0 21 -6 21 -15 0 -18 24 -31 78 -40 30 -5 42 -3 42 5 0 19
32 83 57 113 13 16 23 37 23 48 0 10 5 19 10 19 6 0 10 7 10 16 0 8 13 29 30
47 16 18 30 38 30 45 0 14 34 29 104 44 40 8 50 8 57 -4 4 -8 27 -21 50 -28
24 -8 54 -25 67 -37 14 -13 29 -23 33 -23 5 0 9 -7 9 -15 0 -8 6 -15 14 -15 8
0 17 -11 20 -24 3 -14 15 -28 26 -31 11 -3 20 -14 20 -24 0 -10 9 -26 20 -36
13 -12 20 -31 20 -57 0 -21 3 -38 8 -38 4 0 12 -10 17 -22 9 -21 16 -23 70
-20 33 2 64 7 70 12 5 4 32 11 58 14 27 4 73 14 103 22 114 29 577 50 593 26
3 -5 41 -13 84 -17 42 -3 77 -10 77 -15 0 -5 25 -14 55 -21 30 -7 60 -18 66
-26 6 -7 21 -13 32 -13 11 0 30 -11 43 -26 24 -25 32 -64 14 -64 -16 0 -70
-52 -70 -67 0 -10 -18 -13 -70 -13 -57 0 -74 4 -90 20 -12 12 -33 20 -55 20
-19 0 -35 5 -35 10 0 6 -17 10 -38 10 -21 0 -43 5 -49 11 -13 13 -311 -3 -321
-18 -4 -5 -43 -13 -87 -17 -44 -4 -81 -11 -83 -17 -2 -5 -14 -9 -26 -9 -45 0
-180 -41 -201 -60 -12 -11 -31 -20 -42 -20 -12 0 -35 -11 -51 -25 -17 -14 -39
-25 -50 -25 -10 0 -31 -9 -45 -20 -14 -11 -32 -20 -41 -20 -9 0 -16 -6 -16
-14 0 -8 -13 -17 -29 -21 -15 -3 -38 -17 -50 -30 -11 -14 -28 -25 -36 -25 -17
0 -24 -5 -93 -66 -26 -23 -59 -44 -74 -48 -16 -3 -28 -11 -28 -16 0 -6 -7 -10
-16 -10 -9 0 -32 -16 -51 -35 -19 -19 -41 -35 -49 -35 -8 0 -14 -4 -14 -9 0
-5 -10 -13 -22 -17 -22 -6 -38 -19 -95 -71 -13 -13 -27 -23 -30 -23 -3 0 -19
-13 -35 -30 -15 -16 -35 -30 -43 -30 -8 0 -15 -3 -15 -8 0 -4 -12 -13 -27 -20
-16 -6 -46 -29 -68 -49 -22 -21 -60 -49 -85 -62 -25 -13 -57 -34 -72 -47 -15
-12 -41 -25 -56 -29 -16 -3 -39 -15 -50 -25 -12 -11 -31 -20 -42 -20 -12 0
-36 -11 -54 -25 -18 -14 -40 -25 -49 -25 -10 0 -17 -4 -17 -10 0 -5 -9 -10
-19 -10 -11 0 -22 -4 -25 -9 -4 -5 -29 -12 -56 -16 -27 -4 -52 -11 -56 -16 -7
-12 -306 -12 -336 0 -13 5 -49 15 -80 22 -32 7 -58 16 -58 20 0 5 -20 14 -45
20 -25 6 -45 15 -45 20 0 5 -5 9 -10 9 -6 0 -36 16 -66 35 -85 55 -118 47
-126 -29 -5 -41 -12 -54 -48 -87 -24 -22 -53 -39 -65 -39 -13 0 -25 -5 -27
-12 -3 -9 -29 -7 -104 6 -54 10 -108 22 -119 27 -11 4 -36 10 -55 11 -25 2
-38 9 -45 26 -5 12 -13 22 -17 22 -5 0 -8 7 -8 15 0 8 -7 15 -15 15 -8 0 -15
4 -15 10 0 5 -11 17 -25 26 -29 19 -75 12 -75 -11 0 -8 -7 -15 -15 -15 -8 0
-24 -9 -35 -20 -11 -11 -23 -20 -26 -20 -3 0 -12 -7 -20 -15 -9 -8 -24 -15
-34 -15 -10 0 -25 -11 -33 -24 -19 -29 -87 -46 -180 -46 -34 0 -78 -5 -97 -11
-24 -8 -249 -13 -710 -15 -371 -2 -691 -3 -710 -3 -19 1 -290 0 -602 -1 -499
-2 -569 0 -583 13 -14 14 -13 18 9 41 16 18 34 26 58 26 35 0 59 18 71 53 4 9
13 17 22 17 8 0 15 7 15 15 0 8 7 15 15 15 8 0 15 5 15 10 0 6 14 10 30 10 23
0 30 4 30 20 0 13 7 20 20 20 11 0 20 5 20 10 0 6 7 10 15 10 9 0 18 6 21 14
3 8 20 18 37 22 18 3 37 10 42 13 6 4 36 14 68 21 31 7 57 17 57 22 0 4 9 8
20 8 11 0 20 4 20 8 0 11 113 9 121 -2 4 -5 32 -5 64 -1 45 5 58 11 64 28 5
12 5 24 1 27 -5 3 -11 17 -15 33 -5 20 -3 28 9 33 9 3 16 17 16 32 0 17 13 38
40 63 22 21 40 42 40 48 0 6 8 11 19 11 10 0 24 7 31 15 7 8 19 15 26 15 8 0
14 3 14 8 0 17 58 32 122 32 59 0 68 -2 68 -18 0 -22 50 -72 72 -72 9 0 20 -4
23 -10 3 -5 19 -10 34 -10 15 0 32 -5 38 -11 14 -14 31 -4 44 24 14 35 32 60
57 82 12 11 22 25 22 30 0 6 9 16 20 23 11 7 20 19 20 27 0 8 6 15 13 15 6 0
25 14 41 30 16 17 35 30 41 30 7 0 19 8 29 18 9 11 35 25 59 32 23 7 51 16 62
21 11 4 39 13 63 19 23 6 42 15 42 19 0 14 191 26 199 13 3 -6 39 -14 79 -17
39 -4 72 -12 72 -16 0 -5 16 -9 35 -9 19 0 35 -3 35 -7 0 -9 49 -33 67 -33 7
0 13 -6 13 -14 0 -8 10 -23 23 -33 12 -11 32 -38 45 -60 26 -50 30 -145 7
-189 -8 -16 -15 -37 -15 -48 0 -31 -38 -56 -87 -56 -32 0 -45 5 -50 17 -4 9
-1 19 5 21 7 2 12 10 12 17 0 7 6 15 14 18 19 7 49 69 37 76 -5 3 -12 24 -16
46 -14 76 -25 85 -113 85 -77 0 -122 -16 -122 -42 0 -6 -12 -21 -26 -33 -23
-20 -26 -30 -31 -116 -5 -94 -5 -94 26 -129 17 -19 31 -38 31 -42 0 -13 83
-46 132 -53 76 -10 162 4 191 31 15 13 29 24 31 24 11 0 69 66 77 88 5 13 9
41 9 62 0 42 34 90 64 90 9 0 16 6 16 14 0 8 16 20 35 26 19 6 35 17 35 25 0
7 9 15 20 18 11 3 20 12 20 20 0 9 13 18 32 22 32 7 58 26 58 42 0 4 14 14 30
21 17 8 30 20 30 28 0 8 7 14 15 14 23 0 65 22 65 34 0 6 12 17 28 23 15 7 47
31 72 54 43 40 46 41 96 34 32 -4 55 -12 58 -21 3 -8 12 -14 21 -14 8 0 15 -4
15 -8 0 -4 20 -16 45 -26 25 -11 45 -23 45 -28 0 -4 4 -8 9 -8 6 0 22 -11 37
-25 15 -14 38 -25 50 -25 13 0 24 -4 24 -10 0 -5 6 -10 14 -10 7 0 19 -7 26
-15 7 -8 21 -15 31 -15 11 0 19 -4 19 -10 0 -5 13 -10 29 -10 20 0 30 -6 34
-20 4 -15 14 -20 40 -20 22 0 37 -6 41 -15 3 -8 13 -15 23 -15 10 0 30 -11 45
-25 15 -14 34 -25 43 -25 24 0 95 -24 95 -32 0 -5 15 -8 33 -8 18 0 37 -4 43
-10 5 -5 32 -13 59 -16 28 -4 52 -11 55 -15 3 -5 43 -11 88 -15 45 -4 82 -11
82 -17 0 -6 18 -7 46 -3 26 3 52 2 58 -3 12 -9 142 13 161 28 5 5 28 12 50 16
22 4 42 10 45 14 6 9 97 51 110 51 5 0 10 6 10 13 0 12 44 37 64 37 14 0 56
50 56 66 0 8 11 16 24 20 34 8 68 83 76 168 4 39 3 81 -2 94 -4 13 -8 39 -8
59 0 27 -9 44 -42 79 -26 27 -51 44 -65 44 -13 0 -23 5 -23 10 0 6 -9 10 -20
10 -11 0 -23 7 -26 15 -8 21 -70 38 -121 32 -50 -5 -133 -46 -133 -64 0 -7 -3
-13 -7 -13 -15 0 -33 -54 -33 -96 0 -56 15 -94 37 -94 20 1 63 33 63 48 0 5 7
13 16 16 24 9 54 7 54 -4 0 -5 17 -10 38 -10 32 0 41 -5 50 -25 6 -14 17 -25
23 -25 15 0 6 -89 -13 -122 -17 -30 -66 -76 -89 -83 -10 -3 -20 -14 -24 -24
-8 -25 -91 -44 -162 -36 -68 8 -184 61 -191 87 -2 10 -8 18 -13 18 -5 0 -9 7
-9 15 0 8 -4 15 -9 15 -9 0 -18 23 -30 69 -9 38 -32 46 -85 31 -25 -7 -46 -18
-46 -24 0 -7 -14 -23 -30 -36 -17 -14 -37 -31 -45 -37 -7 -7 -18 -13 -24 -13
-6 0 -11 -4 -11 -10 0 -6 -30 -10 -70 -10 -40 0 -70 4 -70 10 0 6 -9 10 -20
10 -11 0 -30 11 -42 25 -12 14 -27 25 -33 25 -6 0 -19 20 -30 45 -11 25 -25
45 -32 45 -6 0 -14 13 -18 29 -3 16 -21 43 -40 60 -28 25 -44 31 -97 35 -118
9 -181 24 -283 67 -11 4 -39 14 -63 20 -23 7 -47 18 -53 26 -6 7 -17 13 -23
13 -24 0 -65 25 -70 42 -2 11 -14 18 -30 18 -16 0 -26 6 -26 15 0 8 -7 15 -15
15 -8 0 -15 4 -15 9 0 10 -10 14 -62 25 -16 4 -28 13 -28 21 0 8 -6 15 -12 15
-7 0 -39 25 -72 55 -32 30 -67 55 -76 55 -10 0 -32 13 -49 29 -17 16 -45 32
-61 36 -17 4 -30 11 -30 16 0 5 -7 9 -15 9 -8 0 -15 2 -15 4 0 2 -2 11 -6 19
-6 18 98 42 148 34 18 -3 56 -2 83 2 62 9 198 1 206 -12z m9060 0 c4 -5 12 -6
19 -2 7 4 62 7 122 7 142 -2 141 -2 137 -130 -2 -53 0 -103 4 -109 5 -7 28
-13 53 -13 24 0 44 -4 44 -8 0 -5 14 -7 30 -4 27 4 30 8 30 38 0 19 5 34 10
34 6 0 10 9 10 19 0 11 9 23 20 26 11 3 20 14 20 24 0 14 13 21 57 30 31 6 74
11 95 11 21 0 38 4 38 9 0 9 109 3 120 -6 2 -2 7 -33 11 -69 8 -75 20 -92 73
-101 32 -5 38 -3 43 15 3 12 14 24 24 27 10 4 19 15 19 26 0 10 5 19 10 19 6
0 10 15 10 33 0 30 4 34 48 51 28 10 87 20 147 23 107 6 318 -12 323 -28 2 -5
24 -9 48 -9 24 0 44 -4 44 -10 0 -5 15 -10 33 -10 17 -1 50 -7 72 -15 22 -8
50 -15 63 -15 12 0 22 -4 22 -9 0 -10 74 -51 93 -51 7 0 19 -9 27 -20 8 -11
22 -20 32 -20 10 0 18 -4 18 -10 0 -5 12 -10 26 -10 16 0 45 -16 74 -40 26
-22 57 -40 69 -40 12 0 21 -6 21 -15 0 -18 24 -31 78 -40 30 -5 42 -3 42 5 0
19 32 83 57 113 13 16 23 37 23 48 0 10 5 19 10 19 6 0 10 7 10 16 0 8 13 29
30 47 16 18 30 38 30 45 0 14 34 29 104 44 40 8 50 8 57 -4 4 -8 27 -21 50
-28 24 -8 54 -25 67 -37 14 -13 29 -23 33 -23 5 0 9 -7 9 -15 0 -8 6 -15 14
-15 8 0 17 -11 20 -24 3 -14 15 -28 26 -31 11 -3 20 -14 20 -24 0 -10 9 -26
20 -36 13 -12 20 -31 20 -57 0 -21 3 -38 8 -38 4 0 12 -10 17 -22 9 -21 16
-23 70 -20 33 2 64 7 70 12 5 4 32 11 58 14 27 4 73 14 103 22 114 29 577 50
593 26 3 -5 41 -13 84 -17 42 -3 77 -10 77 -15 0 -5 25 -14 55 -21 30 -7 60
-18 66 -26 6 -7 21 -13 32 -13 11 0 30 -11 43 -26 24 -25 32 -64 14 -64 -16 0
-70 -52 -70 -67 0 -10 -18 -13 -70 -13 -57 0 -74 4 -90 20 -12 12 -33 20 -55
20 -19 0 -35 5 -35 10 0 6 -17 10 -38 10 -21 0 -43 5 -49 11 -13 13 -311 -3
-321 -18 -4 -5 -43 -13 -87 -17 -44 -4 -81 -11 -83 -17 -2 -5 -14 -9 -26 -9
-45 0 -180 -41 -201 -60 -12 -11 -31 -20 -42 -20 -12 0 -35 -11 -51 -25 -17
-14 -39 -25 -50 -25 -10 0 -31 -9 -45 -20 -14 -11 -32 -20 -41 -20 -9 0 -16
-6 -16 -14 0 -8 -13 -17 -29 -21 -15 -3 -38 -17 -50 -30 -11 -14 -28 -25 -36
-25 -17 0 -24 -5 -93 -66 -26 -23 -59 -44 -74 -48 -16 -3 -28 -11 -28 -16 0
-6 -7 -10 -16 -10 -9 0 -32 -16 -51 -35 -19 -19 -41 -35 -49 -35 -8 0 -14 -4
-14 -9 0 -5 -10 -13 -22 -17 -22 -6 -38 -19 -95 -71 -13 -13 -27 -23 -30 -23
-3 0 -19 -13 -35 -30 -15 -16 -35 -30 -43 -30 -8 0 -15 -3 -15 -8 0 -4 -12
-13 -27 -20 -16 -6 -46 -29 -68 -49 -22 -21 -60 -49 -85 -62 -25 -13 -57 -34
-72 -47 -15 -12 -41 -25 -56 -29 -16 -3 -39 -15 -50 -25 -12 -11 -31 -20 -42
-20 -12 0 -36 -11 -54 -25 -18 -14 -40 -25 -49 -25 -10 0 -17 -4 -17 -10 0 -5
-9 -10 -19 -10 -11 0 -22 -4 -25 -9 -4 -5 -29 -12 -56 -16 -27 -4 -52 -11 -56
-16 -7 -12 -306 -12 -336 0 -13 5 -49 15 -80 22 -32 7 -58 16 -58 20 0 5 -20
14 -45 20 -25 6 -45 15 -45 20 0 5 -5 9 -10 9 -6 0 -36 16 -66 35 -85 55 -118
47 -126 -29 -5 -41 -12 -54 -48 -87 -24 -22 -53 -39 -65 -39 -13 0 -25 -5 -27
-12 -3 -9 -29 -7 -104 6 -54 10 -108 22 -119 27 -11 4 -36 10 -55 11 -25 2
-38 9 -45 26 -5 12 -13 22 -17 22 -5 0 -8 7 -8 15 0 8 -7 15 -15 15 -8 0 -15
4 -15 10 0 5 -11 17 -25 26 -29 19 -75 12 -75 -11 0 -8 -7 -15 -15 -15 -8 0
-24 -9 -35 -20 -11 -11 -23 -20 -26 -20 -3 0 -12 -7 -20 -15 -9 -8 -24 -15
-34 -15 -10 0 -25 -11 -33 -24 -19 -29 -87 -46 -180 -46 -34 0 -78 -5 -97 -11
-24 -8 -249 -13 -710 -15 -371 -2 -691 -3 -710 -3 -19 1 -290 0 -602 -1 -499
-2 -569 0 -583 13 -14 14 -13 18 9 41 16 18 34 26 58 26 35 0 59 18 71 53 4 9
13 17 22 17 8 0 15 7 15 15 0 8 7 15 15 15 8 0 15 5 15 10 0 6 14 10 30 10 23
0 30 4 30 20 0 13 7 20 20 20 11 0 20 5 20 10 0 6 7 10 15 10 9 0 18 6 21 14
3 8 20 18 37 22 18 3 37 10 42 13 6 4 36 14 68 21 31 7 57 17 57 22 0 4 9 8
20 8 11 0 20 4 20 8 0 11 113 9 121 -2 4 -5 32 -5 64 -1 45 5 58 11 64 28 5
12 5 24 1 27 -5 3 -11 17 -15 33 -5 20 -3 28 9 33 9 3 16 17 16 32 0 17 13 38
40 63 22 21 40 42 40 48 0 6 8 11 19 11 10 0 24 7 31 15 7 8 19 15 26 15 8 0
14 3 14 8 0 17 58 32 122 32 59 0 68 -2 68 -18 0 -22 50 -72 72 -72 9 0 20 -4
23 -10 3 -5 19 -10 34 -10 15 0 32 -5 38 -11 14 -14 31 -4 44 24 14 35 32 60
57 82 12 11 22 25 22 30 0 6 9 16 20 23 11 7 20 19 20 27 0 8 6 15 13 15 6 0
25 14 41 30 16 17 35 30 41 30 7 0 19 8 29 18 9 11 35 25 59 32 23 7 51 16 62
21 11 4 39 13 63 19 23 6 42 15 42 19 0 14 191 26 199 13 3 -6 39 -14 79 -17
39 -4 72 -12 72 -16 0 -5 16 -9 35 -9 19 0 35 -3 35 -7 0 -9 49 -33 67 -33 7
0 13 -6 13 -14 0 -8 10 -23 23 -33 12 -11 32 -38 45 -60 26 -50 30 -145 7
-189 -8 -16 -15 -37 -15 -48 0 -31 -38 -56 -87 -56 -32 0 -45 5 -50 17 -4 9
-1 19 5 21 7 2 12 10 12 17 0 7 6 15 14 18 19 7 49 69 37 76 -5 3 -12 24 -16
46 -14 76 -25 85 -113 85 -77 0 -122 -16 -122 -42 0 -6 -12 -21 -26 -33 -23
-20 -26 -30 -31 -116 -5 -94 -5 -94 26 -129 17 -19 31 -38 31 -42 0 -13 83
-46 132 -53 76 -10 162 4 191 31 15 13 29 24 31 24 11 0 69 66 77 88 5 13 9
41 9 62 0 42 34 90 64 90 9 0 16 6 16 14 0 8 16 20 35 26 19 6 35 17 35 25 0
7 9 15 20 18 11 3 20 12 20 20 0 9 13 18 32 22 32 7 58 26 58 42 0 4 14 14 30
21 17 8 30 20 30 28 0 8 7 14 15 14 23 0 65 22 65 34 0 6 12 17 28 23 15 7 47
31 72 54 43 40 46 41 96 34 32 -4 55 -12 58 -21 3 -8 12 -14 21 -14 8 0 15 -4
15 -8 0 -4 20 -16 45 -26 25 -11 45 -23 45 -28 0 -4 4 -8 9 -8 6 0 22 -11 37
-25 15 -14 38 -25 50 -25 13 0 24 -4 24 -10 0 -5 6 -10 14 -10 7 0 19 -7 26
-15 7 -8 21 -15 31 -15 11 0 19 -4 19 -10 0 -5 13 -10 29 -10 20 0 30 -6 34
-20 4 -15 14 -20 40 -20 22 0 37 -6 41 -15 3 -8 13 -15 23 -15 10 0 30 -11 45
-25 15 -14 34 -25 43 -25 24 0 95 -24 95 -32 0 -5 15 -8 33 -8 18 0 37 -4 43
-10 5 -5 32 -13 59 -16 28 -4 52 -11 55 -15 3 -5 43 -11 88 -15 45 -4 82 -11
82 -17 0 -6 18 -7 46 -3 26 3 52 2 58 -3 12 -9 142 13 161 28 5 5 28 12 50 16
22 4 42 10 45 14 6 9 97 51 110 51 5 0 10 6 10 13 0 12 44 37 64 37 14 0 56
50 56 66 0 8 11 16 24 20 34 8 68 83 76 168 4 39 3 81 -2 94 -4 13 -8 39 -8
59 0 27 -9 44 -42 79 -26 27 -51 44 -65 44 -13 0 -23 5 -23 10 0 6 -9 10 -20
10 -11 0 -23 7 -26 15 -8 21 -70 38 -121 32 -50 -5 -133 -46 -133 -64 0 -7 -3
-13 -7 -13 -15 0 -33 -54 -33 -96 0 -56 15 -94 37 -94 20 1 63 33 63 48 0 5 7
13 16 16 24 9 54 7 54 -4 0 -5 17 -10 38 -10 32 0 41 -5 50 -25 6 -14 17 -25
23 -25 15 0 6 -89 -13 -122 -17 -30 -66 -76 -89 -83 -10 -3 -20 -14 -24 -24
-8 -25 -91 -44 -162 -36 -68 8 -184 61 -191 87 -2 10 -8 18 -13 18 -5 0 -9 7
-9 15 0 8 -4 15 -9 15 -9 0 -18 23 -30 69 -9 38 -32 46 -85 31 -25 -7 -46 -18
-46 -24 0 -7 -14 -23 -30 -36 -17 -14 -37 -31 -45 -37 -7 -7 -18 -13 -24 -13
-6 0 -11 -4 -11 -10 0 -6 -30 -10 -70 -10 -40 0 -70 4 -70 10 0 6 -9 10 -20
10 -11 0 -30 11 -42 25 -12 14 -27 25 -33 25 -6 0 -19 20 -30 45 -11 25 -25
45 -32 45 -6 0 -14 13 -18 29 -3 16 -21 43 -40 60 -28 25 -44 31 -97 35 -118
9 -181 24 -283 67 -11 4 -39 14 -63 20 -23 7 -47 18 -53 26 -6 7 -17 13 -23
13 -24 0 -65 25 -70 42 -2 11 -14 18 -30 18 -16 0 -26 6 -26 15 0 8 -7 15 -15
15 -8 0 -15 4 -15 9 0 10 -10 14 -62 25 -16 4 -28 13 -28 21 0 8 -6 15 -12 15
-7 0 -39 25 -72 55 -32 30 -67 55 -76 55 -10 0 -32 13 -49 29 -17 16 -45 32
-61 36 -17 4 -30 11 -30 16 0 5 -7 9 -15 9 -8 0 -15 2 -15 4 0 2 -2 11 -6 19
-6 18 98 42 148 34 18 -3 56 -2 83 2 62 9 198 1 206 -12z m-4511 3 c0 -5 15
-10 34 -10 19 0 38 5 41 10 3 6 19 10 36 10 16 0 29 -4 29 -10 0 -5 25 -10 56
-10 89 0 122 -31 69 -66 -14 -9 -25 -25 -25 -36 0 -11 -16 -38 -35 -61 -36
-42 -47 -87 -20 -87 8 0 24 -5 35 -12 16 -10 23 -8 44 15 15 16 26 33 26 38 0
6 6 16 13 24 6 7 20 21 29 31 39 44 88 74 119 74 23 0 23 -4 5 -33 -8 -12 -16
-51 -18 -87 -2 -52 0 -65 13 -68 11 -2 22 12 35 44 10 25 27 50 36 55 10 5 18
14 18 19 0 12 70 80 82 80 4 0 8 6 8 13 0 21 67 45 141 53 58 5 69 4 85 -14
15 -15 38 -21 104 -26 47 -3 110 -13 140 -21 35 -10 100 -15 188 -15 123 0
134 -2 139 -19 6 -25 56 -31 250 -31 133 0 154 -2 160 -16 4 -10 -1 -22 -10
-29 -10 -7 -17 -17 -17 -24 0 -6 -11 -11 -24 -11 -14 0 -28 -4 -31 -10 -3 -5
-14 -10 -25 -10 -16 0 -30 -18 -30 -40 0 -5 10 -10 22 -12 26 -4 46 -61 28
-83 -8 -9 -5 -14 11 -18 16 -4 20 -11 16 -26 -6 -23 3 -27 19 -11 12 12 194 2
194 -10 0 -4 18 -10 41 -14 23 -4 61 -18 85 -31 25 -14 51 -25 58 -25 8 0 16
-7 20 -15 3 -8 12 -15 20 -15 8 0 16 -6 19 -12 3 -10 7 -10 20 1 11 9 17 29
17 57 0 24 5 44 10 44 6 0 10 9 10 20 0 11 5 20 10 20 6 0 10 9 10 20 0 11 7
20 15 20 8 0 15 9 15 19 0 11 9 23 20 26 11 3 20 15 20 26 0 10 7 19 15 19 8
0 19 9 25 20 6 11 19 20 30 20 10 0 22 5 26 11 8 14 138 4 157 -11 7 -5 28
-23 48 -40 20 -16 44 -30 53 -30 9 0 16 -7 16 -15 0 -8 6 -15 14 -15 8 0 16
-6 18 -12 8 -23 168 25 168 49 0 7 4 13 10 13 22 0 90 36 90 47 0 20 60 16 79
-5 9 -11 40 -25 69 -31 28 -7 52 -17 52 -22 0 -5 6 -9 14 -9 8 0 16 -7 20 -15
3 -8 15 -15 26 -15 11 0 20 -7 20 -15 0 -8 9 -15 19 -15 11 0 26 -7 35 -15 17
-17 46 -20 46 -5 0 6 7 10 15 10 8 0 15 6 15 13 0 17 55 67 74 67 8 0 16 5 18
11 5 15 88 25 88 10 0 -6 16 -11 35 -11 19 0 35 -4 35 -10 0 -5 8 -10 18 -10
10 0 37 -9 60 -20 22 -11 50 -20 61 -20 10 0 21 -5 23 -12 2 -6 30 -13 61 -16
48 -4 57 -2 57 12 0 9 5 16 10 16 6 0 10 11 10 25 0 37 29 65 67 65 22 0 33
-5 33 -14 0 -8 9 -18 20 -21 11 -3 20 -10 20 -15 0 -13 46 -60 59 -60 6 0 11
-4 11 -10 0 -5 9 -10 20 -10 11 0 20 -7 20 -15 0 -8 9 -15 20 -15 52 0 23 -80
-46 -129 -24 -18 -44 -39 -44 -47 0 -8 -6 -14 -14 -14 -14 0 -66 -44 -66 -56
0 -11 -42 -44 -55 -44 -7 0 -16 -11 -19 -25 -5 -21 -12 -25 -46 -25 -22 0 -40
5 -40 10 0 6 -11 10 -25 10 -14 0 -25 5 -25 10 0 6 -20 10 -45 10 -25 0 -45 5
-45 10 0 6 -11 10 -25 10 -14 0 -25 4 -25 9 0 4 -28 12 -62 16 -35 4 -99 11
-143 17 -142 17 -291 20 -402 7 -59 -6 -156 -14 -215 -16 -60 -3 -108 -8 -108
-13 0 -4 -30 -10 -66 -14 -63 -6 -93 -17 -122 -43 -7 -7 -22 -13 -32 -13 -10
0 -21 -4 -24 -9 -3 -4 -19 -11 -36 -15 -17 -3 -38 -13 -46 -21 -9 -8 -29 -15
-45 -15 -16 0 -29 -3 -29 -7 0 -9 -48 -33 -64 -33 -5 0 -24 -11 -42 -25 -18
-14 -39 -25 -47 -25 -8 0 -33 -13 -55 -30 -23 -16 -50 -30 -60 -30 -10 0 -35
-16 -56 -35 -22 -19 -49 -35 -62 -35 -13 0 -41 -16 -63 -35 -21 -19 -45 -35
-54 -35 -9 0 -19 -9 -22 -20 -3 -11 -15 -20 -26 -20 -10 0 -19 -4 -19 -10 0
-5 -6 -10 -14 -10 -7 0 -19 -7 -26 -15 -7 -8 -19 -15 -28 -15 -8 0 -29 -14
-46 -30 -51 -49 -110 -100 -119 -100 -13 0 -77 -63 -77 -76 0 -13 -22 -24 -49
-24 -10 0 -30 -11 -45 -25 -15 -14 -29 -25 -31 -25 -3 0 -34 -20 -71 -45 -36
-25 -71 -45 -78 -45 -7 0 -21 -7 -32 -15 -10 -8 -36 -15 -56 -15 -23 0 -40 -6
-46 -15 -12 -22 -81 -32 -93 -14 -6 10 -9 10 -9 2 0 -18 -39 -16 -75 3 -16 8
-48 16 -69 17 -34 2 -40 -1 -46 -22 -4 -19 -16 -27 -58 -37 -29 -8 -62 -18
-72 -24 -10 -5 -70 -10 -133 -10 -90 0 -117 3 -127 15 -7 8 -27 15 -46 15 -22
0 -36 6 -42 18 -13 25 -31 109 -36 167 -3 45 -6 50 -30 53 -14 2 -26 -1 -26
-7 0 -6 -6 -11 -14 -11 -9 0 -16 -12 -18 -32 -2 -25 -10 -36 -33 -47 -16 -8
-36 -22 -43 -32 -7 -10 -19 -25 -27 -33 -8 -8 -15 -18 -15 -23 0 -4 -25 -21
-55 -38 l-55 -29 -376 2 c-207 1 -406 7 -443 13 -82 13 -148 51 -177 104 -6
11 -20 20 -30 20 -26 0 -30 -41 -10 -107 8 -28 13 -55 10 -60 -6 -9 -244 -11
-268 -2 -9 3 -16 12 -16 20 0 8 -9 14 -20 14 -23 0 -80 53 -80 75 0 8 -4 15
-8 15 -4 0 -12 15 -17 33 -8 25 -16 33 -37 35 -26 3 -28 1 -28 -30 0 -18 7
-42 15 -52 8 -11 15 -30 15 -42 0 -13 5 -26 10 -29 6 -3 10 -14 10 -25 0 -16
-12 -19 -102 -24 -57 -3 -404 -5 -771 -3 -649 2 -668 3 -665 21 2 10 12 24 22
30 11 6 28 19 38 29 10 9 27 17 37 17 11 0 23 5 26 10 3 6 15 10 26 10 10 0
19 7 19 15 0 8 12 18 28 21 15 4 48 22 74 39 25 18 65 35 87 39 25 4 46 14 53
26 7 11 17 20 23 20 5 0 23 11 39 25 16 13 45 28 65 31 20 4 38 10 41 13 7 9
106 38 170 50 109 21 130 21 202 6 92 -19 88 -19 88 10 0 14 5 25 10 25 6 0
10 7 10 15 0 8 5 15 10 15 6 0 10 8 10 18 0 9 13 23 30 30 17 8 30 20 30 27 0
7 9 15 20 18 11 3 20 12 20 19 0 15 40 38 65 38 8 0 15 8 15 18 0 15 13 22 58
31 31 7 65 17 74 22 22 11 75 12 82 0 3 -4 37 -11 76 -15 38 -4 72 -11 75 -17
4 -5 24 -9 45 -9 31 0 40 4 46 23 4 12 15 29 25 38 10 8 21 28 25 43 4 16 15
31 25 33 10 3 25 16 34 29 8 13 22 24 30 24 8 0 15 5 15 11 0 16 31 38 52 39
9 0 29 11 44 25 15 14 32 25 39 25 7 0 35 6 61 14 159 46 173 49 241 42 66 -7
123 -24 123 -37 0 -4 16 -10 35 -13 19 -4 39 -15 44 -24 5 -10 27 -27 48 -38
47 -24 63 -38 63 -57 0 -26 12 -47 26 -47 8 0 14 -9 14 -19 0 -11 10 -27 21
-35 20 -13 21 -22 17 -100 -4 -72 -8 -90 -26 -106 -12 -11 -24 -20 -28 -20 -4
0 -12 -7 -18 -15 -6 -8 -32 -18 -57 -21 -41 -6 -47 -4 -52 15 -3 12 -13 21
-24 21 -12 0 -30 16 -44 37 -36 54 -51 60 -93 38 -43 -23 -46 -48 -13 -98 21
-33 41 -48 80 -63 9 -3 17 -10 17 -15 0 -5 14 -9 30 -9 17 0 30 -4 30 -9 0 -5
30 -11 67 -13 63 -4 69 -3 95 24 15 15 32 28 38 28 5 0 10 7 10 15 0 9 11 20
24 25 27 10 30 18 47 114 16 97 6 197 -26 244 -34 50 -32 87 5 122 17 15 30
33 30 39 0 6 11 17 25 23 14 6 25 15 25 19 0 4 11 10 25 13 19 5 32 0 50 -16
45 -42 54 -48 80 -48 15 0 25 -6 25 -14 0 -8 9 -17 20 -21 11 -3 33 -19 49
-36 16 -16 39 -29 50 -29 12 0 21 -4 21 -10 0 -5 9 -10 20 -10 11 0 20 -7 20
-15 0 -8 7 -15 15 -15 8 0 15 -7 15 -15 0 -10 10 -15 30 -15 17 0 30 -4 30
-10 0 -5 7 -10 15 -10 8 0 15 -4 15 -10 0 -5 9 -10 20 -10 11 0 20 -7 20 -15
0 -8 9 -15 20 -15 10 0 23 -6 27 -12 12 -18 49 -38 73 -38 11 0 20 -4 20 -10
0 -5 13 -10 29 -10 16 0 31 -6 35 -15 3 -8 12 -15 21 -15 8 0 15 -4 15 -10 0
-5 6 -10 14 -10 7 0 19 -7 26 -15 7 -8 30 -18 52 -22 22 -3 42 -12 45 -19 3
-8 18 -14 34 -14 16 0 29 -4 29 -10 0 -5 13 -10 29 -10 16 0 31 -6 34 -12 3
-10 11 -10 38 1 19 7 66 19 106 25 45 7 77 17 85 28 13 17 71 54 100 64 9 3
29 24 44 46 16 22 36 43 45 47 22 8 99 99 99 117 0 8 11 19 25 24 24 9 25 14
25 85 0 78 -4 89 -70 205 -11 19 -20 43 -20 54 0 28 -39 86 -59 86 -9 0 -22
-5 -28 -11 -8 -8 -17 -4 -35 17 -48 58 -68 74 -92 74 -15 0 -30 8 -36 20 -13
25 -87 29 -96 5 -4 -8 -17 -15 -30 -15 -14 0 -27 -7 -31 -17 -4 -9 -14 -24
-24 -34 -15 -15 -18 -36 -17 -131 0 -123 7 -148 42 -148 13 0 29 -7 36 -15 7
-9 29 -15 52 -15 37 0 40 2 59 48 46 108 48 109 82 55 18 -28 26 -60 31 -121
l7 -83 -41 -45 c-22 -24 -45 -54 -51 -67 -5 -12 -16 -33 -24 -47 -14 -24 -15
-24 -15 -3 0 15 -11 27 -35 39 -20 9 -59 42 -88 74 -62 68 -67 68 -147 -14
-30 -31 -64 -56 -75 -57 -11 0 -36 -6 -55 -13 -29 -11 -42 -10 -80 2 -25 8
-48 21 -52 27 -4 7 -19 16 -32 19 -39 10 -64 56 -76 137 -7 41 -20 90 -30 109
-9 20 -20 49 -24 66 -8 35 -48 54 -114 54 -23 0 -42 4 -42 9 0 5 -24 11 -54
13 -30 2 -61 11 -69 20 -9 9 -31 18 -49 22 -18 3 -48 18 -65 34 -18 15 -61 36
-95 46 -35 11 -72 28 -82 38 -11 10 -30 18 -42 18 -12 0 -24 6 -27 14 -3 8
-20 17 -38 21 -32 7 -42 13 -80 48 -10 9 -26 17 -35 17 -23 0 -55 20 -49 31 4
5 0 9 -7 9 -7 0 -28 14 -47 30 -18 17 -42 30 -53 30 -10 0 -32 14 -48 30 -16
17 -36 30 -43 30 -16 0 -29 34 -20 56 6 15 63 20 63 5 0 -10 202 -6 253 5 16
3 34 0 43 -7 12 -10 28 -10 80 0 35 7 79 10 98 7 18 -4 44 -2 57 3 32 13 59
13 59 1z m9060 0 c0 -5 15 -10 34 -10 19 0 38 5 41 10 3 6 19 10 36 10 16 0
29 -4 29 -10 0 -5 25 -10 56 -10 89 0 122 -31 69 -66 -14 -9 -25 -25 -25 -36
0 -11 -16 -38 -35 -61 -36 -42 -47 -87 -20 -87 8 0 24 -5 35 -12 16 -10 23 -8
44 15 15 16 26 33 26 38 0 6 6 16 13 24 6 7 20 21 29 31 39 44 88 74 119 74
23 0 23 -4 5 -33 -8 -12 -16 -51 -18 -87 -2 -52 0 -65 13 -68 11 -2 22 12 35
44 10 25 27 50 36 55 10 5 18 14 18 19 0 12 70 80 82 80 4 0 8 6 8 13 0 31 74
49 204 51 77 2 127 -1 129 -7 2 -7 19 -6 49 1 26 7 56 12 68 12 23 0 23 4 5
-155 -4 -30 0 -46 16 -65 14 -17 22 -21 26 -12 2 6 13 12 23 12 10 0 20 9 23
20 3 11 12 20 20 20 9 0 18 8 21 18 6 19 58 42 94 42 11 0 23 4 26 9 3 4 29
11 57 14 29 4 55 10 58 15 21 30 444 50 461 22 5 -8 17 -10 35 -6 30 8 125
-12 125 -26 0 -4 11 -8 24 -8 13 0 26 -7 30 -15 3 -8 12 -15 20 -15 8 0 27
-13 43 -30 15 -16 32 -30 38 -30 14 0 75 -64 75 -79 0 -6 11 -11 25 -11 14 0
25 6 25 13 0 8 13 27 30 43 16 16 30 34 30 39 1 33 212 82 300 70 28 -4 50
-11 50 -16 0 -5 16 -9 35 -9 19 0 35 -3 35 -7 0 -5 14 -17 30 -28 16 -11 30
-25 30 -32 0 -6 16 -28 35 -49 19 -20 35 -41 35 -45 0 -5 8 -13 19 -18 14 -8
24 -5 45 12 14 12 47 29 73 36 27 7 75 22 108 33 33 11 84 23 113 25 28 3 52
9 52 14 0 5 14 9 30 9 17 0 30 4 30 9 0 9 36 15 158 27 34 4 62 11 62 17 0 14
470 4 479 -11 4 -6 38 -14 76 -18 39 -4 75 -10 80 -15 6 -4 41 -11 78 -15 37
-4 67 -11 67 -15 0 -5 14 -9 30 -9 17 0 30 -5 30 -10 0 -6 -22 -33 -50 -62
-27 -28 -53 -61 -56 -72 -3 -12 -25 -39 -48 -61 -22 -22 -48 -51 -58 -65 -13
-20 -19 -23 -29 -12 -7 6 -21 12 -31 12 -10 0 -18 5 -18 10 0 6 -5 10 -11 10
-6 0 -33 11 -61 25 -27 14 -60 25 -72 25 -13 0 -38 8 -57 18 -29 15 -61 17
-228 15 -123 -1 -197 -5 -204 -12 -6 -6 -35 -11 -65 -11 -48 0 -74 -8 -132
-41 -8 -5 -26 -14 -40 -19 -44 -18 -75 -35 -88 -47 -7 -7 -22 -13 -32 -13 -11
0 -38 -18 -62 -40 -24 -22 -54 -43 -67 -47 -21 -5 -79 -43 -128 -83 -7 -6 -18
-10 -25 -10 -8 0 -28 -13 -46 -30 -18 -16 -35 -30 -38 -30 -2 0 -17 -13 -34
-28 -16 -16 -46 -37 -67 -48 -21 -10 -54 -35 -74 -54 -91 -88 -150 -140 -159
-140 -16 0 -110 -53 -110 -62 0 -4 -9 -8 -20 -8 -13 0 -24 -10 -30 -25 -6 -16
-17 -25 -31 -25 -11 0 -34 -13 -51 -30 -16 -16 -36 -30 -44 -30 -8 0 -14 -4
-14 -10 0 -5 -9 -10 -19 -10 -11 0 -33 -11 -49 -25 -17 -14 -35 -25 -41 -25
-6 0 -11 -4 -11 -9 0 -5 -10 -11 -22 -13 -13 -2 -27 -13 -33 -25 -5 -13 -15
-23 -22 -23 -7 0 -16 -6 -20 -13 -4 -6 -21 -19 -38 -27 -16 -8 -34 -21 -38
-27 -4 -7 -20 -13 -35 -13 -32 0 -46 -9 -55 -32 -3 -10 -13 -18 -22 -18 -8 0
-15 -4 -15 -10 0 -5 -7 -10 -15 -10 -9 0 -18 -7 -21 -15 -4 -8 -15 -15 -25
-15 -10 0 -19 -4 -19 -8 0 -5 -19 -16 -42 -26 -24 -11 -72 -33 -108 -50 -64
-30 -69 -31 -235 -34 -162 -4 -214 2 -315 30 -19 6 -40 16 -46 24 -6 8 -33 15
-59 16 -44 3 -49 1 -55 -21 -4 -19 -16 -27 -58 -37 -29 -8 -62 -18 -72 -24
-10 -5 -70 -10 -133 -10 -90 0 -117 3 -127 15 -7 8 -27 15 -46 15 -22 0 -36 6
-42 18 -13 25 -31 109 -36 167 -3 45 -6 50 -30 53 -14 2 -26 -1 -26 -7 0 -6
-6 -11 -14 -11 -9 0 -16 -12 -18 -32 -2 -25 -10 -36 -33 -47 -16 -8 -36 -22
-43 -32 -7 -10 -19 -25 -27 -33 -8 -8 -15 -18 -15 -23 0 -4 -25 -21 -55 -38
l-55 -29 -376 2 c-207 1 -406 7 -443 13 -82 13 -148 51 -177 104 -6 11 -20 20
-30 20 -26 0 -30 -41 -10 -107 8 -28 13 -55 10 -60 -6 -9 -244 -11 -268 -2 -9
3 -16 12 -16 20 0 8 -9 14 -20 14 -23 0 -80 53 -80 75 0 8 -4 15 -8 15 -4 0
-12 15 -17 33 -8 25 -16 33 -37 35 -26 3 -28 1 -28 -30 0 -18 7 -42 15 -52 8
-11 15 -30 15 -42 0 -13 5 -26 10 -29 6 -3 10 -14 10 -25 0 -16 -12 -19 -102
-24 -57 -3 -404 -5 -771 -3 -649 2 -668 3 -665 21 2 10 12 24 22 30 11 6 28
19 38 29 10 9 27 17 37 17 11 0 23 5 26 10 3 6 15 10 26 10 10 0 19 7 19 15 0
8 12 18 28 21 15 4 48 22 74 39 25 18 65 35 87 39 25 4 46 14 53 26 7 11 17
20 23 20 5 0 23 11 39 25 16 13 45 28 65 31 20 4 38 10 41 13 7 9 106 38 170
50 109 21 130 21 202 6 92 -19 88 -19 88 10 0 14 5 25 10 25 6 0 10 7 10 15 0
8 5 15 10 15 6 0 10 8 10 18 0 9 13 23 30 30 17 8 30 20 30 27 0 7 9 15 20 18
11 3 20 12 20 19 0 15 40 38 65 38 8 0 15 8 15 18 0 15 13 22 58 31 31 7 65
17 74 22 22 11 75 12 82 0 3 -4 37 -11 76 -15 38 -4 72 -11 75 -17 4 -5 24 -9
45 -9 31 0 40 4 46 23 4 12 15 29 25 38 10 8 21 28 25 43 4 16 15 31 25 33 10
3 25 16 34 29 8 13 22 24 30 24 8 0 15 5 15 11 0 16 31 38 52 39 9 0 29 11 44
25 15 14 32 25 39 25 7 0 35 6 61 14 159 46 173 49 241 42 66 -7 123 -24 123
-37 0 -4 16 -10 35 -13 19 -4 39 -15 44 -24 5 -10 27 -27 48 -38 47 -24 63
-38 63 -57 0 -26 12 -47 26 -47 8 0 14 -9 14 -19 0 -11 10 -27 21 -35 20 -13
21 -22 17 -100 -4 -72 -8 -90 -26 -106 -12 -11 -24 -20 -28 -20 -4 0 -12 -7
-18 -15 -6 -8 -32 -18 -57 -21 -41 -6 -47 -4 -52 15 -3 12 -13 21 -24 21 -12
0 -30 16 -44 37 -36 54 -51 60 -93 38 -25 -13 -36 -27 -36 -42 0 -26 39 -89
60 -98 34 -14 60 -30 60 -37 0 -5 14 -8 30 -8 17 0 30 -4 30 -9 0 -5 30 -11
67 -13 63 -4 69 -3 95 24 15 15 32 28 38 28 5 0 10 7 10 15 0 9 11 20 24 25
27 10 30 18 47 114 16 97 6 197 -26 244 -34 50 -32 87 5 122 17 15 30 33 30
39 0 6 11 17 25 23 14 6 25 15 25 19 0 4 11 10 25 13 19 5 32 0 50 -16 45 -42
54 -48 80 -48 15 0 25 -6 25 -14 0 -8 9 -17 20 -21 11 -3 33 -19 49 -36 16
-16 39 -29 50 -29 12 0 21 -4 21 -10 0 -5 9 -10 20 -10 11 0 20 -7 20 -15 0
-8 7 -15 15 -15 8 0 15 -7 15 -15 0 -10 10 -15 30 -15 17 0 30 -4 30 -10 0 -5
7 -10 15 -10 8 0 15 -4 15 -10 0 -5 9 -10 20 -10 11 0 20 -7 20 -15 0 -8 9
-15 20 -15 10 0 23 -6 27 -12 12 -18 49 -38 73 -38 11 0 20 -4 20 -10 0 -5 13
-10 29 -10 16 0 31 -6 35 -15 3 -8 12 -15 21 -15 8 0 15 -4 15 -10 0 -5 6 -10
14 -10 7 0 19 -7 26 -15 7 -8 30 -18 52 -22 22 -3 42 -12 45 -19 3 -8 18 -14
34 -14 16 0 29 -4 29 -10 0 -5 14 -10 30 -10 17 0 30 -4 30 -10 0 -5 14 -10
30 -10 17 0 30 -4 30 -10 0 -5 9 -10 21 -10 22 0 48 -21 64 -54 9 -16 19 -20
45 -18 84 8 206 8 215 2 14 -11 231 -4 290 9 65 15 158 52 168 68 4 7 21 13
37 13 21 0 36 9 56 35 14 19 32 35 39 35 8 0 16 14 20 31 4 17 13 33 21 36 14
5 44 62 59 112 4 13 4 72 0 132 -5 83 -11 109 -21 109 -8 0 -14 5 -14 11 0 16
-59 70 -100 93 -24 13 -61 20 -120 23 -80 4 -87 3 -114 -21 -16 -14 -33 -26
-37 -26 -10 0 -59 -45 -59 -54 0 -3 -9 -15 -20 -26 -15 -15 -20 -33 -20 -72 0
-49 17 -85 66 -135 21 -22 94 -11 94 13 0 8 5 14 11 14 8 0 10 23 7 75 l-5 75
29 0 c15 0 28 -4 28 -10 0 -5 9 -10 20 -10 11 0 20 -4 20 -10 0 -5 7 -10 15
-10 9 0 19 -8 22 -17 4 -10 15 -25 25 -34 20 -18 26 -113 8 -124 -5 -3 -10
-16 -10 -28 0 -12 -18 -41 -40 -63 -35 -36 -48 -43 -98 -49 -31 -4 -63 -12
-70 -17 -16 -14 -169 -5 -184 10 -7 7 -20 12 -30 12 -10 0 -18 5 -18 10 0 6
-16 10 -36 10 -28 0 -44 8 -70 34 -19 19 -44 38 -54 41 -11 4 -20 12 -20 20 0
8 -9 17 -20 20 -11 3 -20 13 -20 21 0 8 -7 14 -15 14 -8 0 -15 5 -15 10 0 6
-7 10 -15 10 -8 0 -15 7 -15 15 0 29 -81 103 -120 110 -50 9 -77 -4 -140 -69
-30 -31 -64 -56 -75 -57 -11 0 -36 -6 -55 -13 -29 -11 -42 -10 -80 2 -25 8
-48 21 -52 27 -4 7 -19 16 -32 19 -39 10 -64 56 -76 137 -7 41 -20 90 -30 109
-9 20 -20 49 -24 66 -8 35 -48 54 -114 54 -23 0 -42 4 -42 9 0 5 -24 11 -54
13 -30 2 -61 11 -69 20 -9 9 -31 18 -49 22 -18 3 -48 18 -65 34 -18 15 -61 36
-95 46 -35 11 -72 28 -82 38 -11 10 -30 18 -42 18 -12 0 -24 6 -27 14 -3 8
-20 17 -38 21 -32 7 -42 13 -80 48 -10 9 -26 17 -35 17 -23 0 -55 20 -49 31 4
5 0 9 -7 9 -7 0 -28 14 -47 30 -18 17 -42 30 -53 30 -10 0 -32 14 -48 30 -16
17 -36 30 -43 30 -16 0 -29 34 -20 56 6 15 63 20 63 5 0 -10 202 -6 253 5 16
3 34 0 43 -7 12 -10 28 -10 80 0 35 7 79 10 98 7 18 -4 44 -2 57 3 32 13 59
13 59 1z m6050 -48 c0 -7 14 -18 30 -23 17 -6 30 -16 30 -23 0 -7 16 -18 35
-26 19 -7 36 -19 39 -27 3 -7 12 -13 21 -13 8 0 15 -7 15 -15 0 -8 7 -15 15
-15 8 0 15 -7 15 -16 0 -8 7 -22 15 -30 8 -8 19 -32 25 -53 6 -22 17 -41 24
-44 18 -7 66 14 66 30 0 6 14 17 30 25 17 7 30 19 30 25 0 7 7 13 15 13 8 0
23 8 33 18 54 51 127 73 265 79 65 3 117 10 117 15 0 6 43 7 113 4 61 -4 136
-6 165 -6 29 0 52 -4 52 -10 0 -5 20 -10 45 -10 25 0 45 -4 45 -10 0 -5 13
-10 29 -10 18 0 41 -10 57 -25 15 -14 36 -25 47 -25 20 0 98 -47 105 -62 2 -5
12 -8 23 -8 10 0 19 -4 19 -10 0 -5 9 -10 20 -10 11 0 20 -7 20 -15 0 -8 7
-15 15 -15 8 0 15 -5 15 -11 0 -14 25 -39 39 -39 6 0 11 -7 11 -16 0 -9 11
-25 25 -36 14 -11 25 -24 25 -31 0 -15 40 -96 51 -103 5 -3 9 -14 9 -25 0 -10
4 -27 9 -37 31 -56 41 -91 41 -137 0 -28 5 -56 11 -62 6 -6 11 -63 12 -140 2
-108 -1 -132 -14 -146 -9 -9 -19 -42 -23 -74 -10 -88 -27 -153 -39 -154 -7 0
-30 -21 -52 -46 l-39 -45 37 -34 c20 -19 46 -34 57 -34 11 0 25 -9 32 -20 7
-11 19 -20 26 -20 7 0 15 -7 18 -15 4 -8 17 -15 30 -15 15 0 24 -6 24 -15 0
-8 5 -15 10 -15 6 0 10 -6 10 -13 0 -7 14 -21 30 -30 17 -10 30 -25 30 -33 0
-12 -30 -14 -178 -14 -129 0 -181 -3 -190 -12 -10 -10 -81 -14 -266 -16 -228
-3 -254 -2 -260 13 -3 9 -9 77 -12 150 l-6 134 42 7 c23 4 44 13 47 20 3 8 11
14 19 14 8 0 14 4 14 9 0 5 13 11 28 14 15 3 39 16 52 30 14 13 40 29 58 36
17 8 32 19 32 25 0 6 14 22 30 36 17 14 30 33 30 42 0 10 6 18 13 18 6 0 20
26 30 58 28 87 19 300 -16 385 -7 15 -15 27 -19 27 -5 0 -8 9 -8 20 0 10 -10
25 -22 31 -13 7 -25 15 -28 18 -12 14 -91 51 -109 51 -12 0 -21 5 -21 10 0 6
-17 10 -38 10 -21 0 -64 7 -95 15 -77 20 -137 20 -137 0 0 -9 -17 -23 -37 -33
-21 -9 -44 -23 -51 -29 -7 -7 -18 -13 -23 -13 -5 0 -15 -12 -22 -27 -6 -15
-22 -38 -34 -52 -13 -13 -23 -32 -23 -42 0 -9 -6 -19 -12 -21 -9 -3 -14 -35
-16 -100 -3 -76 -1 -98 12 -111 9 -8 16 -22 16 -31 0 -21 64 -71 109 -85 57
-17 86 -14 118 13 37 31 64 126 45 157 -7 10 -12 30 -12 44 0 14 -4 25 -10 25
-5 0 -10 5 -10 12 0 21 -32 48 -57 48 -48 0 -70 52 -35 82 37 32 222 45 257
17 6 -4 32 -13 58 -19 28 -7 47 -18 47 -26 0 -8 5 -14 11 -14 14 0 39 -26 39
-41 0 -6 11 -22 25 -35 25 -23 26 -26 19 -114 -4 -50 -11 -93 -15 -96 -4 -2
-11 -24 -15 -49 -3 -24 -15 -54 -25 -66 -10 -12 -21 -29 -24 -38 -3 -9 -22
-25 -42 -35 -21 -10 -46 -22 -55 -27 -10 -5 -25 -9 -33 -9 -8 0 -15 -4 -15
-10 0 -5 -18 -10 -40 -10 -22 0 -48 -4 -58 -10 -25 -14 -202 -39 -208 -29 -2
4 -26 5 -53 2 -31 -3 -51 -1 -55 6 -4 6 -19 11 -34 11 -15 0 -39 11 -54 25
-15 14 -35 25 -45 25 -10 0 -35 16 -57 35 -21 19 -47 35 -57 35 -10 0 -19 7
-19 15 0 8 -4 15 -10 15 -5 0 -10 5 -10 10 0 17 -47 60 -65 60 -8 0 -15 5 -15
10 0 6 -8 18 -17 28 -28 29 -43 60 -43 87 0 14 -4 25 -10 25 -6 0 -10 34 -10
83 0 69 -3 87 -19 101 -39 36 -110 -28 -131 -120 -7 -32 -18 -64 -23 -71 -5
-7 -11 -39 -14 -73 -7 -74 -15 -75 -99 -17 -117 82 -142 102 -165 137 -13 19
-33 44 -45 56 -12 11 -24 37 -28 56 -4 20 -11 38 -16 40 -13 4 -40 128 -47
208 -8 105 -38 148 -73 105 -7 -8 -20 -15 -29 -15 -17 0 -81 -63 -81 -80 0 -6
-7 -10 -15 -10 -8 0 -15 -5 -15 -11 0 -5 -15 -23 -32 -40 -38 -34 -77 -38 -85
-10 -3 11 -18 25 -34 31 -16 7 -29 16 -29 21 0 5 -9 9 -20 9 -11 0 -20 4 -20
9 0 5 -16 15 -35 22 -19 7 -35 18 -35 25 0 16 -44 44 -70 44 -11 0 -20 3 -20
8 0 4 -23 18 -50 31 -28 14 -50 28 -50 32 0 4 -13 10 -30 14 -16 4 -30 11 -30
16 0 5 -6 9 -14 9 -18 0 -96 51 -96 62 0 4 -9 8 -20 8 -11 0 -34 14 -52 30
-17 17 -36 30 -42 30 -7 0 -29 9 -51 20 -22 11 -45 20 -51 20 -7 0 -26 11 -42
25 -17 14 -34 25 -40 25 -10 0 -22 23 -22 41 0 13 58 11 62 -3 3 -7 38 -13 96
-16 51 -2 92 -8 92 -12 0 -4 23 -10 50 -14 31 -4 53 -13 57 -21 3 -9 19 -15
39 -15 19 0 34 -4 34 -10 0 -5 10 -10 23 -10 12 0 39 -9 60 -19 20 -10 48 -22
62 -25 14 -4 25 -11 25 -16 0 -6 7 -10 15 -10 8 0 15 -5 15 -11 0 -6 14 -9 33
-7 22 2 35 10 42 26 5 12 15 22 22 22 7 0 13 5 13 10 0 6 7 10 15 10 8 0 15 7
15 15 0 8 5 15 10 15 11 0 102 41 110 49 14 16 52 30 96 36 27 4 54 12 60 16
22 17 129 27 287 26 123 -1 157 -5 157 -15z m-22467 -107 c68 -7 107 -26 107
-52 0 -7 -11 -13 -24 -13 -14 0 -28 -4 -31 -10 -3 -5 -15 -10 -26 -10 -10 0
-19 -4 -19 -10 0 -5 -7 -10 -15 -10 -9 0 -25 -8 -36 -19 -11 -10 -33 -21 -49
-24 -17 -4 -31 -15 -35 -27 -3 -11 -15 -20 -25 -20 -23 0 -140 -111 -140 -133
0 -21 -21 -67 -31 -67 -4 0 -12 -23 -19 -50 -7 -28 -16 -53 -21 -56 -11 -7
-12 -171 -1 -178 4 -3 14 -28 22 -55 7 -28 17 -51 22 -51 4 0 8 -6 8 -13 0
-23 80 -97 105 -97 9 0 18 -7 21 -15 4 -8 18 -15 34 -15 16 0 30 -4 32 -9 2
-4 31 -11 64 -13 62 -6 62 -6 68 23 6 31 -1 59 -15 59 -5 0 -9 7 -9 15 0 8
-12 17 -27 21 -65 14 -93 29 -93 50 0 3 -9 15 -20 24 -17 15 -22 34 -27 119
-4 69 -3 101 5 101 6 0 13 13 17 30 4 16 22 45 41 64 19 19 34 39 34 45 0 6 7
11 15 11 8 0 15 7 15 15 0 9 13 24 30 33 16 9 30 22 30 29 0 7 17 15 38 19 20
4 42 11 49 16 13 10 193 -1 193 -12 0 -4 18 -10 41 -14 23 -4 61 -18 85 -31
25 -14 51 -25 58 -25 8 0 16 -7 20 -15 3 -8 12 -15 20 -15 8 0 16 -6 19 -12 3
-10 7 -10 20 1 11 9 17 29 17 57 0 24 5 44 10 44 6 0 10 9 10 20 0 11 5 20 10
20 6 0 10 9 10 20 0 11 7 20 15 20 8 0 15 9 15 19 0 11 9 23 20 26 11 3 20 15
20 26 0 10 7 19 15 19 8 0 19 9 25 20 6 11 19 20 30 20 10 0 22 5 26 11 8 14
138 4 157 -11 7 -5 28 -23 48 -40 20 -16 44 -30 53 -30 9 0 16 -7 16 -15 0 -8
6 -15 14 -15 8 0 16 -6 18 -12 8 -23 168 25 168 49 0 7 4 13 10 13 22 0 90 36
90 47 0 20 60 16 79 -5 9 -11 40 -25 69 -31 28 -7 52 -17 52 -22 0 -5 6 -9 14
-9 8 0 16 -7 20 -15 3 -8 15 -15 26 -15 11 0 20 -7 20 -15 0 -8 9 -15 19 -15
11 0 26 -7 35 -15 17 -17 46 -20 46 -5 0 6 7 10 15 10 8 0 15 6 15 13 0 17 55
67 74 67 8 0 16 5 18 11 5 15 88 25 88 10 0 -6 16 -11 35 -11 19 0 35 -4 35
-10 0 -5 8 -10 18 -10 10 0 37 -9 60 -20 22 -11 50 -20 61 -20 10 0 21 -5 23
-12 2 -6 30 -13 61 -16 48 -4 57 -2 57 12 0 9 5 16 10 16 6 0 10 11 10 25 0
37 29 65 67 65 22 0 33 -5 33 -14 0 -8 9 -18 20 -21 11 -3 20 -10 20 -15 0
-13 46 -60 59 -60 6 0 11 -4 11 -10 0 -5 9 -10 20 -10 11 0 20 -7 20 -15 0 -8
9 -15 20 -15 52 0 23 -80 -46 -129 -24 -18 -44 -39 -44 -47 0 -8 -6 -14 -14
-14 -14 0 -66 -44 -66 -56 0 -11 -42 -44 -55 -44 -7 0 -16 -11 -19 -25 -5 -21
-12 -25 -46 -25 -22 0 -40 5 -40 10 0 6 -11 10 -25 10 -14 0 -25 5 -25 10 0 6
-20 10 -45 10 -25 0 -45 5 -45 10 0 6 -11 10 -25 10 -14 0 -25 4 -25 9 0 4
-28 12 -62 16 -35 4 -99 11 -143 17 -142 17 -291 20 -402 7 -59 -6 -156 -14
-215 -16 -60 -3 -108 -8 -108 -13 0 -4 -30 -10 -66 -14 -63 -6 -93 -17 -122
-43 -7 -7 -22 -13 -32 -13 -10 0 -21 -4 -24 -9 -3 -4 -19 -11 -36 -15 -17 -3
-38 -13 -46 -21 -9 -8 -29 -15 -45 -15 -16 0 -29 -3 -29 -7 0 -9 -48 -33 -64
-33 -5 0 -24 -11 -42 -25 -18 -14 -39 -25 -47 -25 -8 0 -33 -13 -55 -30 -23
-16 -50 -30 -60 -30 -10 0 -35 -16 -56 -35 -22 -19 -49 -35 -62 -35 -13 0 -41
-16 -63 -35 -21 -19 -45 -35 -54 -35 -9 0 -19 -9 -22 -20 -3 -11 -15 -20 -26
-20 -10 0 -19 -4 -19 -10 0 -5 -6 -10 -14 -10 -7 0 -19 -7 -26 -15 -7 -8 -19
-15 -28 -15 -8 0 -29 -14 -46 -30 -51 -49 -110 -100 -119 -100 -14 0 -77 -63
-77 -76 0 -7 -8 -15 -17 -18 -10 -3 -34 -22 -53 -42 -86 -87 -136 -134 -142
-134 -5 0 -8 -5 -8 -11 0 -6 -16 -26 -36 -45 -33 -30 -43 -34 -88 -33 -56 1
-188 15 -168 17 6 1 12 13 12 26 0 14 4 28 10 31 6 3 10 19 10 35 0 20 6 31
20 35 12 4 22 19 26 40 3 19 12 39 20 46 8 6 14 15 14 20 0 5 9 18 20 29 21
21 28 84 10 95 -5 3 -10 24 -10 46 0 21 -4 39 -10 39 -5 0 -10 13 -10 29 0 16
-5 31 -11 33 -6 2 -13 32 -16 66 -3 34 -10 62 -14 62 -5 0 -9 68 -9 150 0 83
4 150 8 150 5 0 16 50 27 110 10 61 21 110 25 110 4 0 11 15 16 33 5 18 19 36
32 42 12 5 22 17 22 26 0 10 11 20 25 23 14 4 25 13 25 21 0 8 7 15 15 15 8 0
15 4 15 8 0 12 111 124 138 140 12 6 30 12 41 12 22 0 81 31 81 43 0 4 15 6
33 3 17 -3 63 -8 100 -11z m21067 -155 c0 -5 7 -10 15 -10 8 0 15 -7 15 -15 0
-8 9 -15 19 -15 11 0 21 -5 23 -10 2 -6 21 -17 43 -24 31 -11 41 -20 43 -40 2
-18 -1 -26 -12 -26 -9 0 -16 -4 -16 -10 0 -5 -6 -10 -13 -10 -8 0 -25 -9 -38
-21 -13 -11 -37 -30 -53 -42 -15 -12 -36 -30 -44 -39 -9 -10 -22 -18 -29 -18
-7 0 -13 -4 -13 -9 0 -5 -13 -14 -29 -19 -26 -9 -80 -53 -141 -114 -35 -36
-47 -35 -55 2 -4 17 -10 30 -15 30 -4 0 -11 21 -15 46 -6 41 -4 49 19 73 13
14 28 39 32 55 4 19 17 32 35 40 16 6 29 17 29 26 0 15 12 29 78 89 17 17 32
34 32 39 0 4 5 13 12 20 14 14 78 16 78 2z m-12720 -130 c0 -5 -5 -10 -11 -10
-5 0 -7 5 -4 10 3 6 8 10 11 10 2 0 4 -4 4 -10z m12997 -72 c21 -12 49 -27 63
-34 14 -7 34 -21 45 -31 11 -10 38 -27 60 -38 22 -11 53 -30 68 -42 16 -13 37
-23 48 -23 10 0 19 -4 19 -10 0 -5 9 -10 20 -10 11 0 20 -7 20 -15 0 -8 9 -15
20 -15 11 0 20 -4 20 -10 0 -5 9 -10 20 -10 10 0 30 -11 42 -23 13 -13 36 -27
51 -31 15 -3 36 -15 47 -26 11 -11 28 -20 38 -20 9 0 26 -11 36 -25 10 -14 27
-25 37 -25 11 0 19 -4 19 -10 0 -5 5 -10 11 -10 6 0 26 -16 45 -35 21 -22 43
-35 59 -35 14 0 28 -7 31 -15 4 -8 10 -15 16 -15 5 0 16 -7 24 -15 9 -8 24
-15 35 -15 10 0 19 -7 19 -15 0 -8 7 -15 15 -15 8 0 15 -4 15 -10 0 -5 7 -10
15 -10 8 0 15 -7 15 -15 0 -8 7 -15 14 -15 8 0 27 -11 42 -25 15 -14 35 -25
45 -25 11 0 19 -4 19 -10 0 -5 14 -10 30 -10 17 0 30 -5 30 -12 0 -15 45 -38
72 -38 10 0 18 -4 18 -10 0 -5 11 -10 25 -10 14 0 25 -3 25 -7 0 -11 58 -43
76 -43 8 0 14 -4 14 -10 0 -5 11 -10 25 -10 14 0 25 -4 25 -10 0 -5 16 -10 35
-10 19 0 35 -4 35 -10 0 -5 14 -10 31 -10 44 0 59 -20 60 -82 0 -29 4 -75 9
-103 25 -146 25 -135 -1 -135 -13 0 -37 7 -53 15 -15 8 -44 15 -62 15 -19 0
-34 5 -34 10 0 6 -28 10 -63 10 -35 0 -67 4 -72 9 -6 5 -39 12 -75 14 -89 7
-200 29 -200 39 0 4 -8 8 -17 8 -10 0 -27 7 -37 15 -11 8 -34 15 -52 15 -19 0
-34 6 -38 15 -3 8 -17 15 -31 15 -14 0 -25 5 -25 10 0 6 -13 10 -30 10 -16 0
-30 5 -30 10 0 6 -8 10 -19 10 -10 0 -24 7 -31 15 -7 8 -24 15 -37 15 -14 0
-36 9 -50 20 -14 11 -35 20 -47 20 -11 0 -30 7 -40 15 -11 8 -25 15 -32 15 -7
0 -28 14 -46 30 -18 17 -40 30 -50 30 -9 0 -20 5 -23 10 -3 6 -15 10 -26 10
-10 0 -19 4 -19 9 0 5 -12 14 -27 20 -16 7 -40 19 -56 27 -15 8 -32 12 -37 9
-25 -15 -2 -100 49 -180 11 -16 20 -40 20 -52 1 -13 6 -23 11 -23 6 0 10 -11
10 -25 0 -42 -36 -30 -102 35 -34 33 -68 60 -75 60 -7 0 -13 7 -13 15 0 8 -4
15 -8 15 -5 0 -15 11 -22 25 -8 14 -25 28 -39 32 -14 3 -33 14 -42 25 -9 10
-24 18 -33 18 -9 0 -16 5 -16 11 0 16 -27 39 -46 39 -25 0 -54 -30 -54 -55 0
-37 -148 -175 -187 -175 -10 0 -32 -14 -50 -30 -18 -17 -36 -30 -42 -30 -5 0
-11 -3 -13 -7 -1 -5 -32 -21 -68 -37 -36 -16 -73 -32 -82 -37 -10 -5 -29 -9
-43 -9 -14 0 -44 -9 -66 -19 -21 -11 -58 -22 -82 -26 -23 -3 -51 -10 -62 -15
-41 -18 -104 -23 -240 -22 -85 1 -141 6 -143 12 -2 5 -19 10 -38 10 -19 0 -34
5 -34 10 0 6 -7 10 -15 10 -8 0 -15 5 -15 10 0 6 -6 10 -13 10 -8 0 -24 11
-37 25 -28 30 -46 32 -60 5 -6 -11 -18 -20 -28 -20 -25 0 -154 30 -174 41 -10
5 -27 9 -38 9 -11 0 -28 9 -37 20 -10 11 -28 20 -40 20 -13 0 -23 6 -23 14 0
23 -36 60 -52 54 -12 -5 -13 -18 -7 -66 7 -61 10 -65 77 -123 7 -6 12 -21 10
-32 l-3 -22 -745 3 c-409 2 -746 5 -748 7 -2 2 -1 12 2 23 5 13 31 28 81 47
44 16 75 33 75 41 0 8 16 16 41 20 22 4 46 13 54 20 7 8 22 14 33 14 11 0 22
6 25 14 3 7 28 19 56 26 29 7 57 21 65 32 9 12 41 26 87 38 41 10 119 30 174
44 86 23 112 25 186 20 102 -8 97 -14 109 126 5 52 13 96 19 98 6 2 11 8 11
14 0 19 50 78 66 78 7 0 14 6 14 13 0 8 11 20 25 27 14 7 25 19 25 27 0 7 7
13 15 13 8 0 15 5 15 10 0 6 7 10 15 10 8 0 22 9 32 19 26 27 138 45 240 38
78 -6 83 -5 83 13 0 11 5 20 10 20 6 0 10 7 10 15 0 8 9 19 20 25 11 6 20 17
20 25 0 8 5 15 10 15 6 0 10 9 10 19 0 10 7 21 15 25 8 3 15 12 15 21 0 8 5
15 10 15 6 0 10 7 10 15 0 9 11 20 25 25 14 5 25 17 25 25 0 9 15 22 33 30 17
7 39 23 47 34 8 12 22 21 31 21 10 0 24 6 31 14 8 7 48 16 93 20 44 3 97 9
118 12 22 4 49 2 60 -4 12 -6 40 -13 63 -16 36 -5 77 -20 126 -47 10 -5 25 -9
33 -9 8 0 15 -4 15 -10 0 -5 7 -10 15 -10 8 0 15 -4 15 -10 0 -5 7 -10 15 -10
8 0 15 -7 15 -15 0 -8 4 -15 9 -15 5 0 16 -16 25 -35 9 -19 21 -35 26 -35 6 0
10 -10 10 -22 0 -13 6 -35 14 -49 7 -14 16 -60 20 -102 6 -65 4 -82 -11 -107
-9 -17 -21 -30 -25 -30 -5 0 -16 -15 -25 -34 -15 -32 -20 -35 -72 -40 -63 -7
-101 1 -149 29 -44 27 -40 57 8 66 54 9 110 36 110 53 0 9 5 16 10 16 6 0 10
13 10 29 0 16 4 41 10 55 13 34 2 111 -19 134 -37 40 -76 52 -141 45 -72 -7
-110 -34 -110 -77 0 -15 -7 -29 -15 -32 -8 -4 -15 -12 -15 -20 0 -8 -5 -14
-11 -14 -13 0 -39 -62 -39 -97 0 -15 -7 -37 -15 -47 -16 -22 -20 -91 -6 -100
5 -3 14 -26 20 -51 7 -28 17 -45 26 -45 8 0 15 -7 15 -15 0 -8 5 -15 10 -15 6
0 10 -5 10 -11 0 -16 26 -39 45 -39 9 0 26 -11 39 -25 22 -23 30 -25 115 -25
50 0 91 4 91 9 0 5 16 12 35 15 19 4 35 11 35 17 0 5 12 15 28 22 15 6 35 22
45 34 10 13 25 23 33 23 8 0 14 7 14 15 0 8 5 15 10 15 6 0 10 9 10 19 0 11 4
22 8 25 5 3 15 31 22 63 7 32 17 62 22 68 4 5 8 19 8 31 0 14 8 25 20 29 11 3
20 11 20 17 0 14 65 78 80 78 5 0 10 5 10 11 0 13 25 39 39 39 5 0 16 8 23 19
7 10 22 21 33 25 28 9 85 63 85 80 0 8 12 17 28 21 15 3 39 20 54 36 15 16 32
29 37 29 6 0 11 7 11 15 0 8 5 15 10 15 6 0 10 7 10 15 0 21 33 19 77 -7z
m-18617 2 c0 -5 5 -10 10 -10 6 0 21 -11 34 -25 15 -16 34 -25 55 -25 25 0 31
-4 31 -22 0 -21 -55 -88 -72 -88 -10 0 -24 -11 -69 -52 -16 -16 -34 -28 -39
-28 -6 0 -10 -4 -10 -10 0 -5 -7 -10 -15 -10 -8 0 -15 -4 -15 -10 0 -5 -5 -10
-10 -10 -6 0 -26 -15 -45 -32 -18 -18 -51 -42 -72 -53 -21 -11 -47 -28 -57
-37 -21 -20 -61 -24 -71 -8 -3 5 -8 31 -12 57 -5 45 -3 50 21 62 14 8 26 19
26 25 0 6 16 25 36 41 20 17 46 40 58 53 13 12 29 22 35 22 6 0 16 11 21 25 5
14 16 25 25 25 8 0 15 7 15 15 0 8 9 20 20 27 11 7 20 18 20 24 0 7 7 14 15
18 8 3 15 12 15 21 0 9 9 15 25 15 14 0 25 -4 25 -10z m9060 0 c0 -5 5 -10 10
-10 6 0 21 -11 34 -25 15 -16 34 -25 55 -25 25 0 31 -4 31 -22 0 -21 -55 -88
-72 -88 -10 0 -24 -11 -69 -52 -16 -16 -34 -28 -39 -28 -6 0 -10 -4 -10 -10 0
-5 -7 -10 -15 -10 -8 0 -15 -4 -15 -10 0 -5 -5 -10 -10 -10 -6 0 -26 -15 -45
-32 -18 -18 -51 -42 -72 -53 -21 -11 -47 -28 -57 -37 -21 -20 -61 -24 -71 -8
-3 5 -8 31 -12 57 -5 45 -3 50 21 62 14 8 26 19 26 25 0 6 16 25 36 41 20 17
46 40 58 53 13 12 29 22 35 22 6 0 16 11 21 25 5 14 16 25 25 25 8 0 15 7 15
15 0 8 9 20 20 27 11 7 20 18 20 24 0 7 7 14 15 18 8 3 15 12 15 21 0 9 9 15
25 15 14 0 25 -4 25 -10z m-4660 -80 c0 -5 7 -10 15 -10 17 0 20 -23 5 -50
-11 -21 -104 -70 -133 -70 -10 0 -25 7 -34 16 -14 13 -14 19 -2 41 8 14 24 30
36 36 13 6 23 16 23 23 0 14 20 21 63 23 15 0 27 -3 27 -9z m9060 0 c0 -5 7
-10 15 -10 17 0 20 -23 5 -50 -11 -21 -104 -70 -133 -70 -10 0 -25 7 -34 16
-14 13 -14 19 -2 41 8 14 24 30 36 36 13 6 23 16 23 23 0 14 20 21 63 23 15 0
27 -3 27 -9z m6980 -840 c0 -13 30 -13 85 2 36 10 50 10 65 0 11 -7 33 -12 49
-12 29 0 30 -1 37 -67 9 -77 10 -201 1 -209 -11 -12 -315 -4 -342 8 -25 11
-26 14 -20 69 4 37 3 59 -4 63 -6 4 -11 37 -11 76 l0 69 38 4 c74 8 102 7 102
-3z m-14643 -246 c-3 -3 -12 -4 -19 -1 -8 3 -5 6 6 6 11 1 17 -2 13 -5z
m-8033 -106 c3 -14 0 -27 -7 -33 -7 -5 -30 -36 -51 -68 -34 -50 -37 -60 -25
-73 13 -12 19 -11 47 9 17 12 32 28 32 35 0 14 14 33 43 60 9 9 17 22 17 29 0
7 5 13 10 13 6 0 10 7 10 15 0 11 11 15 38 15 20 0 64 4 96 10 32 5 64 6 70 2
6 -4 131 -6 279 -4 266 4 267 3 267 -18 0 -11 -7 -23 -15 -26 -8 -3 -20 -25
-27 -48 -7 -22 -20 -48 -30 -57 -10 -9 -18 -24 -18 -33 0 -9 -9 -34 -20 -56
-11 -22 -20 -49 -20 -60 0 -19 5 -21 46 -18 49 3 52 6 78 68 7 19 20 50 27 68
8 17 17 32 21 32 5 0 8 7 8 15 0 8 7 15 15 15 9 0 15 9 15 24 0 13 7 26 15 30
8 3 15 12 15 20 0 31 151 58 218 40 19 -6 22 -11 17 -33 -4 -14 -15 -35 -26
-46 -10 -12 -22 -36 -25 -54 -4 -18 -17 -44 -29 -57 -33 -35 -38 -83 -12 -111
11 -13 26 -23 33 -23 13 0 44 42 44 60 0 6 7 18 15 26 8 9 15 26 15 40 0 14 7
27 15 30 8 4 15 15 15 25 0 10 5 19 10 19 6 0 10 9 10 20 0 11 5 20 10 20 6 0
10 9 10 20 0 11 4 20 9 20 4 0 21 12 36 26 24 22 35 25 70 20 24 -3 45 -3 48
0 9 9 137 12 143 3 3 -5 20 -9 38 -9 17 0 36 -4 42 -9 5 -5 65 -15 134 -21 69
-6 127 -15 130 -19 3 -4 26 -14 53 -22 26 -7 47 -17 47 -21 0 -4 11 -8 25 -8
14 0 25 -4 25 -10 0 -5 9 -10 20 -10 11 0 20 -7 20 -15 0 -8 6 -15 14 -15 7 0
22 -11 32 -25 10 -14 24 -25 31 -25 6 0 14 -8 17 -18 4 -11 19 -25 34 -33 15
-8 34 -22 43 -31 10 -11 31 -18 55 -18 33 0 41 5 51 27 7 15 13 40 13 55 0 15
5 28 10 28 6 0 18 18 27 40 10 22 21 40 25 40 5 0 8 6 8 13 0 22 55 46 126 56
72 11 181 4 190 -10 3 -5 13 -9 22 -9 10 0 22 -8 29 -19 6 -10 24 -21 40 -24
17 -3 35 -16 43 -31 7 -14 17 -26 22 -26 4 0 8 -27 8 -60 l0 -60 35 0 c24 0
35 5 35 15 0 9 9 15 21 15 26 0 123 32 127 43 2 4 17 7 33 7 16 0 29 5 29 10
0 6 11 10 25 10 14 0 25 5 25 10 0 6 21 10 48 10 26 0 80 7 121 15 52 11 77
13 86 5 8 -6 34 -8 69 -4 49 6 56 5 56 -11 0 -13 5 -16 23 -10 32 10 227 13
227 3 0 -4 9 -8 20 -8 11 0 20 -4 20 -10 0 -5 15 -10 34 -10 19 0 38 -4 41
-10 3 -5 19 -10 35 -10 16 0 32 -4 35 -10 3 -6 21 -10 39 -10 18 0 44 -8 57
-18 13 -10 41 -26 61 -35 20 -10 39 -21 42 -26 3 -4 26 -14 51 -21 25 -7 45
-16 45 -20 0 -4 18 -15 40 -26 22 -10 40 -22 40 -26 0 -5 14 -8 30 -8 21 0 30
-5 30 -16 0 -9 14 -21 30 -27 17 -6 30 -18 30 -25 0 -8 14 -19 30 -25 17 -6
30 -16 30 -22 0 -5 14 -16 30 -23 17 -8 30 -20 30 -27 0 -18 58 -75 75 -75 15
0 105 -87 105 -101 0 -5 12 -9 26 -9 26 0 54 -20 54 -39 0 -6 7 -11 15 -11 8
0 17 -11 21 -25 4 -16 16 -28 32 -32 38 -9 112 -75 112 -100 0 -7 7 -13 16
-13 9 0 31 -15 49 -34 18 -19 42 -37 54 -41 11 -3 21 -11 21 -16 0 -5 9 -9 20
-9 11 0 20 -3 20 -7 0 -8 48 -33 62 -33 8 0 17 -7 51 -36 7 -5 20 -13 30 -17
9 -3 17 -11 17 -17 0 -5 7 -10 15 -10 9 0 18 -7 21 -15 4 -8 15 -15 25 -15 10
0 19 -4 19 -10 0 -5 14 -10 30 -10 17 0 39 -9 50 -20 11 -11 34 -23 50 -27 17
-3 30 -9 30 -14 0 -5 9 -9 20 -9 11 0 20 -4 20 -10 0 -5 6 -10 13 -10 18 0 67
-24 67 -32 0 -5 7 -8 16 -8 17 0 85 -29 94 -40 10 -13 229 -30 380 -30 101 1
174 6 210 15 109 28 149 41 156 48 4 4 20 7 35 7 17 0 34 8 42 21 9 11 34 25
58 30 24 6 52 21 64 34 11 14 26 25 33 25 7 0 12 5 12 11 0 5 13 24 30 42 16
18 30 38 30 45 0 8 9 27 21 43 19 27 20 39 16 162 -3 72 -8 148 -12 167 -8 37
-66 100 -92 100 -8 0 -27 8 -41 19 -80 56 -282 45 -313 -17 -8 -15 -24 -37
-36 -50 -45 -48 -86 -252 -50 -252 12 0 37 -44 37 -67 0 -7 6 -13 14 -13 8 0
16 -7 20 -15 4 -10 20 -15 51 -15 56 0 95 33 115 98 7 23 17 42 22 42 13 0 9
46 -4 57 -7 6 -25 13 -41 17 -44 10 -67 40 -67 88 0 62 28 88 97 88 37 0 55
-4 59 -14 3 -8 27 -17 56 -21 47 -7 88 -32 88 -55 0 -5 4 -10 8 -10 26 0 46
-200 22 -215 -5 -3 -10 -14 -10 -24 0 -10 -9 -26 -20 -36 -11 -10 -20 -26 -20
-36 0 -30 -11 -49 -30 -49 -10 0 -20 -4 -22 -8 -5 -14 -78 -52 -98 -52 -11 0
-31 -10 -46 -22 -27 -25 -71 -33 -254 -46 -93 -6 -107 -5 -124 10 -11 10 -34
21 -52 24 -18 3 -38 12 -45 20 -6 8 -16 14 -21 14 -17 0 -64 54 -71 83 -4 15
-14 27 -22 27 -9 0 -15 10 -15 25 0 16 -6 25 -15 25 -8 0 -15 9 -15 19 0 11
-6 26 -13 33 -8 7 -17 27 -21 43 -4 16 -12 32 -17 36 -5 3 -12 50 -16 105 -3
54 -9 101 -12 104 -3 3 -11 14 -17 25 -22 41 -58 31 -122 -34 -36 -36 -63 -73
-67 -91 -4 -16 -15 -36 -24 -42 -10 -7 -21 -28 -25 -45 -3 -18 -9 -46 -12 -63
-4 -16 -10 -30 -15 -30 -5 0 -22 -14 -37 -30 -24 -25 -37 -30 -74 -30 -49 0
-98 19 -98 38 0 7 -13 12 -30 12 -16 0 -30 5 -30 11 0 7 -10 20 -22 31 -21 18
-23 29 -23 115 0 68 4 98 13 100 7 3 12 24 12 58 0 48 2 53 25 59 28 7 51 46
42 70 -8 20 -65 21 -91 1 -11 -8 -29 -15 -39 -15 -11 0 -35 -11 -53 -25 -18
-14 -37 -25 -42 -25 -18 0 -122 -103 -122 -121 0 -10 -9 -23 -19 -29 -25 -13
-71 -13 -71 0 0 6 -5 10 -10 10 -14 0 -60 46 -60 60 0 5 -6 10 -14 10 -8 0
-17 11 -20 25 -4 14 -13 25 -21 25 -8 0 -15 5 -15 10 0 6 -6 10 -12 10 -18 1
-48 28 -83 75 -52 70 -116 125 -145 125 -11 0 -20 4 -20 9 0 5 -11 12 -25 15
-14 4 -25 13 -25 21 0 7 -10 17 -22 20 -42 13 -97 40 -98 48 0 12 -43 46 -58
47 -14 0 -16 1 -74 50 -21 17 -53 36 -73 41 -19 6 -35 14 -35 19 0 6 -11 10
-25 10 -14 0 -30 9 -37 20 -7 11 -18 20 -25 20 -7 0 -13 5 -13 10 0 6 -18 10
-39 10 -24 0 -41 5 -44 14 -3 7 -28 16 -56 20 -52 7 -120 53 -108 73 4 6 92 9
214 8 115 -2 232 2 261 8 35 7 56 7 63 0 6 -6 31 -7 62 -3 41 6 331 6 395 1
10 -1 12 -13 8 -43 -3 -24 -8 -80 -11 -125 -6 -80 -6 -83 15 -83 32 0 70 47
70 86 0 19 4 34 9 34 5 0 11 25 13 55 3 30 8 58 11 62 13 12 103 21 170 16
l67 -6 0 -49 c0 -31 -6 -55 -15 -64 -18 -19 -22 -209 -4 -219 18 -12 99 16
100 34 1 9 2 73 3 143 1 157 -2 153 145 160 144 7 488 4 496 -4 10 -9 8 -38
-6 -145 -13 -107 -3 -153 35 -153 44 0 51 14 52 108 1 83 18 152 36 152 5 0 8
7 8 15 0 8 8 18 18 23 19 11 257 11 267 0 12 -11 -5 -47 -25 -53 -11 -4 -23
-18 -27 -33 -3 -15 -9 -29 -12 -32 -14 -12 -43 -108 -42 -139 2 -42 16 -61 47
-61 25 0 44 26 44 59 0 12 5 21 10 21 6 0 10 15 10 34 0 19 5 38 10 41 6 3 10
19 10 36 0 16 5 29 10 29 6 0 10 6 10 14 0 8 7 16 15 20 8 3 15 16 15 29 0 21
6 25 46 31 112 15 364 -9 364 -35 0 -5 7 -9 15 -9 17 0 52 -18 73 -38 7 -6 19
-12 26 -12 18 0 66 -24 66 -32 0 -5 6 -8 14 -8 8 0 16 -7 20 -15 3 -8 12 -15
19 -15 8 0 33 -18 57 -40 24 -22 49 -40 55 -40 6 0 18 -12 26 -27 8 -16 20
-34 27 -41 6 -7 12 -19 12 -25 0 -14 35 -47 49 -47 10 0 21 -35 21 -67 0 -13
5 -23 10 -23 6 0 10 -6 10 -14 0 -8 7 -16 15 -20 8 -3 15 -14 15 -25 0 -11 7
-32 15 -48 8 -15 17 -40 20 -55 6 -29 38 -53 57 -42 8 5 9 66 5 215 -3 123 -2
211 4 214 5 4 9 16 9 29 0 34 81 113 125 122 55 10 136 -4 156 -27 15 -17 20
-18 38 -7 15 9 21 23 21 50 0 36 2 38 33 38 17 -1 50 -7 72 -15 22 -8 55 -15
73 -15 21 0 50 -12 77 -30 24 -16 55 -30 70 -30 14 0 39 -7 55 -15 35 -18 94
-75 104 -100 5 -13 15 -16 41 -13 28 3 43 -3 76 -29 23 -18 47 -33 54 -33 6 0
18 -11 25 -25 7 -14 18 -25 23 -25 6 0 25 -11 43 -25 18 -14 37 -25 41 -25 5
0 22 -14 39 -31 16 -17 47 -40 69 -51 43 -23 105 -79 105 -97 0 -6 7 -11 15
-11 8 0 15 -4 15 -10 0 -5 6 -10 13 -10 21 0 77 -30 77 -41 0 -5 7 -9 15 -9 8
0 15 -4 15 -10 0 -5 9 -10 20 -10 11 0 20 -7 20 -15 0 -9 9 -15 25 -15 14 0
25 -4 25 -10 0 -5 7 -10 15 -10 8 0 15 -4 15 -10 0 -5 7 -10 15 -10 8 0 15 -7
15 -15 0 -10 10 -15 28 -15 20 0 33 -7 42 -25 10 -19 21 -25 47 -25 23 0 33
-5 33 -15 0 -8 5 -15 10 -15 6 0 19 -9 30 -20 11 -11 34 -23 50 -27 17 -3 30
-9 30 -14 0 -5 7 -9 15 -9 8 0 15 -4 15 -10 0 -5 14 -10 30 -10 17 0 30 -4 30
-10 0 -5 16 -10 35 -10 19 0 35 -4 35 -10 0 -5 19 -10 43 -10 24 0 48 -5 54
-11 5 -5 36 -13 67 -16 31 -3 56 -9 56 -13 0 -4 34 -11 75 -15 41 -4 75 -11
75 -17 0 -7 60 -9 188 -5 161 5 200 9 282 32 52 14 102 32 110 39 8 8 33 20
55 27 22 7 44 17 49 21 6 4 18 8 28 8 11 0 37 18 59 40 22 22 45 40 50 40 19
0 87 72 94 98 4 15 11 30 17 33 14 9 15 146 0 161 -7 7 -12 21 -12 33 0 40
-35 118 -57 128 -13 6 -23 14 -23 19 0 4 -11 8 -24 8 -13 0 -26 5 -28 10 -2 6
-35 13 -73 16 -76 7 -65 12 -159 -72 -37 -33 -39 -39 -49 -118 -9 -79 -9 -84
12 -105 18 -18 33 -21 96 -21 68 0 78 3 119 33 25 17 45 38 45 45 1 6 6 12 11
12 6 0 10 9 10 20 0 15 7 20 25 20 20 0 25 -6 32 -37 4 -21 8 -64 8 -95 -1
-55 -3 -60 -45 -99 -25 -23 -58 -48 -75 -55 -16 -7 -38 -21 -47 -31 -29 -32
-47 -43 -67 -43 -11 0 -37 -10 -58 -21 -33 -19 -53 -21 -157 -20 -66 1 -122 5
-125 9 -11 14 -78 32 -119 32 -23 0 -42 5 -42 10 0 6 -7 10 -15 10 -21 0 -135
119 -135 142 0 13 -7 18 -29 18 -31 0 -61 -22 -61 -45 0 -7 -13 -16 -30 -20
-16 -4 -34 -14 -39 -23 -8 -15 -31 -17 -172 -17 -121 0 -163 3 -166 13 -3 6
-13 12 -24 12 -10 0 -19 7 -19 15 0 8 -5 15 -10 15 -16 0 -60 47 -60 63 0 7
-7 22 -15 33 -8 10 -15 25 -15 32 0 33 -33 47 -129 54 -116 8 -202 27 -228 51
-11 9 -25 17 -31 17 -7 0 -12 6 -12 13 0 7 -13 28 -30 47 -16 19 -29 41 -30
48 0 7 -13 25 -28 41 -15 17 -34 42 -42 58 -18 34 -55 73 -70 73 -6 0 -18 7
-26 15 -9 8 -25 15 -37 15 -12 0 -34 11 -48 24 -14 13 -40 27 -57 31 -18 3
-32 11 -32 16 0 5 -7 9 -15 9 -8 0 -15 7 -15 15 0 8 -11 17 -25 21 -14 3 -25
12 -25 19 0 7 -16 26 -35 42 -19 17 -35 35 -35 42 0 13 -1 13 358 13 156 0
285 4 288 9 3 5 18 9 33 9 21 0 30 -6 35 -22 3 -14 0 -27 -7 -33 -7 -5 -30
-36 -51 -68 -34 -50 -37 -60 -25 -73 13 -12 19 -11 47 9 17 12 32 28 32 35 0
14 14 33 43 60 9 9 17 22 17 29 0 7 5 13 10 13 6 0 10 7 10 15 0 11 11 15 38
15 20 0 64 4 96 10 32 5 64 6 70 2 6 -4 131 -6 279 -4 266 4 267 3 267 -18 0
-11 -7 -23 -15 -26 -8 -3 -20 -25 -27 -48 -7 -22 -20 -48 -30 -57 -10 -9 -18
-24 -18 -33 0 -9 -9 -34 -20 -56 -11 -22 -20 -49 -20 -60 0 -19 5 -21 46 -18
49 3 52 6 78 68 7 19 20 50 27 67 8 18 17 33 21 33 5 0 8 7 8 15 0 8 7 15 15
15 9 0 15 9 15 24 0 13 7 26 15 30 8 3 15 12 15 20 0 31 151 58 218 40 19 -6
22 -11 17 -33 -4 -14 -15 -35 -26 -46 -10 -12 -22 -36 -25 -54 -4 -18 -17 -44
-29 -57 -33 -35 -38 -83 -12 -111 11 -13 26 -23 33 -23 13 0 44 42 44 60 0 6
7 18 15 26 8 9 15 26 15 40 0 14 7 27 15 30 8 4 15 15 15 25 0 10 5 19 10 19
6 0 10 9 10 20 0 11 5 20 10 20 6 0 10 9 10 20 0 11 4 20 9 20 4 0 21 12 36
26 24 22 35 25 70 20 24 -3 45 -3 48 0 9 9 137 12 143 3 3 -5 20 -9 38 -9 17
0 36 -4 42 -9 5 -5 65 -15 134 -21 69 -6 127 -15 130 -19 3 -4 26 -14 53 -22
26 -7 47 -17 47 -21 0 -4 11 -8 25 -8 14 0 25 -4 25 -10 0 -5 9 -10 20 -10 11
0 20 -7 20 -15 0 -8 6 -15 14 -15 7 0 22 -11 32 -25 10 -14 24 -25 31 -25 6 0
14 -8 17 -18 4 -11 19 -25 34 -33 15 -8 34 -22 43 -31 10 -11 31 -18 55 -18
33 0 41 5 52 27 6 15 12 40 12 55 0 15 5 28 10 28 6 0 18 18 27 40 10 22 21
40 25 40 5 0 8 6 8 13 0 22 55 46 126 56 72 11 181 4 190 -10 3 -5 13 -9 22
-9 10 0 22 -8 29 -19 6 -10 24 -21 40 -24 17 -3 35 -16 43 -31 7 -14 17 -26
22 -26 4 0 8 -27 8 -60 l0 -60 35 0 c24 0 35 5 35 15 0 9 9 15 21 15 26 0 123
32 127 43 2 4 17 7 33 7 16 0 29 5 29 10 0 6 11 10 25 10 14 0 25 5 25 10 0 6
21 10 48 10 26 0 80 7 121 15 52 11 77 13 86 5 8 -6 34 -8 69 -4 49 6 56 5 56
-11 0 -13 5 -16 23 -10 32 10 227 13 227 3 0 -4 9 -8 20 -8 11 0 20 -4 20 -10
0 -5 15 -10 34 -10 19 0 38 -5 41 -10 3 -6 19 -10 35 -10 16 0 32 -5 35 -10 3
-6 21 -10 39 -10 18 0 44 -8 57 -18 13 -10 41 -26 61 -35 20 -10 39 -21 42
-26 3 -4 26 -14 51 -21 25 -7 45 -16 45 -20 0 -4 18 -15 40 -26 22 -10 40 -22
40 -26 0 -5 14 -8 30 -8 21 0 30 -5 30 -16 0 -9 14 -21 30 -27 16 -6 30 -18
30 -25 0 -8 14 -19 30 -25 16 -6 30 -16 30 -22 0 -5 14 -16 30 -23 17 -8 30
-20 30 -27 0 -18 58 -75 75 -75 15 0 105 -87 105 -101 0 -5 12 -9 26 -9 26 0
54 -20 54 -39 0 -6 7 -11 15 -11 8 0 17 -11 21 -25 4 -16 16 -28 32 -32 38 -9
112 -75 112 -100 0 -7 7 -13 16 -13 9 0 31 -15 49 -34 18 -19 42 -37 54 -41
11 -3 21 -11 21 -16 0 -5 9 -9 20 -9 11 0 20 -3 20 -7 0 -8 48 -33 62 -33 8 0
17 -7 51 -36 7 -5 20 -13 30 -17 9 -3 17 -11 17 -17 0 -5 7 -10 15 -10 9 0 18
-7 21 -15 4 -8 15 -15 25 -15 10 0 19 -4 19 -10 0 -5 14 -10 30 -10 17 0 39
-9 50 -20 11 -11 34 -23 50 -27 17 -3 30 -9 30 -14 0 -5 9 -9 20 -9 11 0 20
-4 20 -10 0 -5 6 -10 13 -10 18 0 67 -24 67 -32 0 -5 7 -8 16 -8 17 0 85 -29
94 -40 10 -13 229 -30 380 -30 101 1 174 6 210 15 109 28 149 41 156 48 4 4
20 7 35 7 17 0 34 8 42 21 9 11 34 25 58 30 24 6 52 21 64 34 11 14 26 25 33
25 7 0 12 5 12 11 0 5 13 24 30 42 16 18 30 38 30 45 0 8 9 27 21 43 19 27 20
39 16 162 -3 72 -8 148 -12 167 -8 37 -66 100 -92 100 -8 0 -27 8 -41 19 -80
56 -282 45 -313 -17 -8 -15 -24 -37 -36 -50 -45 -48 -86 -252 -50 -252 12 0
37 -44 37 -67 0 -7 6 -13 14 -13 8 0 16 -7 20 -15 4 -10 20 -15 51 -15 56 0
95 33 115 98 7 23 17 42 22 42 13 0 9 46 -5 57 -6 6 -24 13 -40 17 -44 10 -67
40 -67 88 0 62 28 88 97 88 37 0 55 -4 59 -14 3 -8 27 -17 56 -21 47 -7 88
-32 88 -55 0 -6 4 -10 8 -10 26 0 46 -200 22 -215 -6 -3 -10 -14 -10 -24 0
-10 -9 -26 -20 -36 -11 -10 -20 -26 -20 -36 0 -30 -11 -49 -30 -49 -10 0 -20
-4 -22 -8 -5 -14 -78 -52 -98 -52 -11 0 -31 -10 -46 -22 -27 -25 -71 -33 -254
-46 -93 -6 -107 -5 -124 10 -11 10 -34 21 -52 24 -18 3 -38 12 -45 20 -6 8
-16 14 -21 14 -17 0 -64 54 -71 83 -4 15 -14 27 -22 27 -9 0 -15 10 -15 25 0
16 -6 25 -15 25 -8 0 -15 9 -15 19 0 11 -6 26 -13 33 -8 7 -17 27 -21 43 -4
16 -12 32 -17 36 -5 3 -12 50 -16 105 -3 54 -9 101 -12 104 -3 3 -11 14 -17
25 -22 41 -58 31 -122 -34 -36 -36 -63 -73 -67 -91 -4 -16 -15 -36 -24 -42
-10 -7 -21 -26 -24 -43 -4 -16 -9 -45 -13 -62 -3 -18 -10 -33 -15 -33 -5 0
-22 -14 -37 -30 -24 -25 -37 -30 -74 -30 -49 0 -98 19 -98 38 0 7 -13 12 -30
12 -16 0 -30 5 -30 11 0 7 -10 20 -22 31 -21 18 -23 29 -23 115 0 68 4 98 13
100 7 3 12 24 12 58 0 48 2 53 25 59 28 7 51 46 42 70 -8 20 -65 21 -91 1 -11
-8 -29 -15 -39 -15 -11 0 -35 -11 -53 -25 -18 -14 -37 -25 -42 -25 -18 0 -122
-103 -122 -121 0 -10 -9 -23 -19 -29 -25 -13 -71 -13 -71 0 0 6 -5 10 -10 10
-14 0 -60 46 -60 60 0 5 -6 10 -14 10 -8 0 -17 11 -20 25 -4 14 -13 25 -21 25
-8 0 -15 5 -15 10 0 6 -6 10 -12 10 -18 1 -48 28 -83 75 -52 70 -116 125 -145
125 -11 0 -20 4 -20 9 0 5 -11 12 -25 15 -14 4 -25 13 -25 21 0 7 -10 17 -22
20 -42 13 -97 40 -98 48 0 12 -43 46 -58 47 -14 0 -16 1 -74 50 -21 17 -53 36
-73 41 -19 6 -35 14 -35 19 0 6 -11 10 -25 10 -14 0 -30 9 -37 20 -7 11 -18
20 -25 20 -7 0 -13 5 -13 10 0 6 -18 10 -39 10 -24 0 -41 5 -44 14 -3 7 -28
16 -56 20 -52 7 -120 53 -108 73 4 6 92 9 214 8 115 -2 232 2 261 8 35 7 56 7
63 0 6 -6 31 -7 62 -3 41 6 331 6 395 1 10 -1 12 -13 8 -43 -3 -24 -8 -80 -11
-125 -6 -80 -6 -83 15 -83 32 0 70 47 70 86 0 19 4 34 9 34 5 0 11 25 13 55 3
30 8 58 11 62 13 12 103 21 170 16 l67 -6 0 -49 c0 -31 -6 -55 -15 -64 -18
-19 -22 -209 -4 -219 18 -12 99 16 100 34 1 9 2 73 3 143 1 157 -2 153 145
160 144 7 488 4 496 -4 10 -9 8 -38 -6 -145 -13 -107 -3 -153 35 -153 44 0 51
14 52 108 1 83 18 152 36 152 5 0 8 7 8 15 0 8 8 18 18 23 19 11 257 11 267 0
12 -11 -5 -47 -25 -53 -11 -4 -23 -18 -27 -33 -3 -15 -9 -29 -12 -32 -14 -12
-43 -108 -42 -139 2 -42 16 -61 47 -61 25 0 44 26 44 59 0 12 5 21 10 21 6 0
10 15 10 34 0 19 5 38 10 41 6 3 10 19 10 36 0 16 5 29 10 29 6 0 10 6 10 14
0 8 7 16 15 20 8 3 15 16 15 29 0 21 6 25 46 31 112 15 364 -9 364 -35 0 -5 7
-9 15 -9 17 0 52 -18 73 -38 7 -6 19 -12 26 -12 18 0 66 -24 66 -32 0 -5 6 -8
14 -8 8 0 16 -7 20 -15 3 -8 12 -15 19 -15 8 0 33 -18 57 -40 24 -22 49 -40
55 -40 6 0 18 -12 26 -27 8 -16 20 -34 27 -41 6 -7 12 -19 12 -25 0 -14 35
-47 49 -47 10 0 21 -35 21 -67 0 -13 5 -23 10 -23 6 0 10 -6 10 -14 0 -8 7
-16 15 -20 8 -3 15 -14 15 -25 0 -11 7 -32 15 -48 8 -15 17 -40 20 -55 6 -29
38 -53 57 -42 8 5 9 66 5 215 -3 123 -2 211 4 214 5 4 9 16 9 29 0 34 81 113
124 122 40 7 146 -3 146 -15 0 -8 70 -41 87 -41 17 0 63 -52 63 -71 0 -11 4
-19 8 -19 5 0 15 -11 22 -25 17 -32 44 -32 76 0 14 14 30 25 36 25 14 0 101
41 108 51 3 4 29 14 59 23 30 9 63 25 73 36 10 11 30 20 43 20 13 0 27 5 30
10 8 13 195 13 195 0 0 -5 14 -10 30 -10 17 0 30 -4 30 -10 0 -5 14 -10 31
-10 18 0 39 -8 48 -18 9 -10 37 -26 63 -36 25 -9 52 -24 58 -32 7 -7 18 -14
24 -14 7 0 31 -9 54 -20 22 -11 46 -20 52 -20 5 0 10 -4 10 -10 0 -5 6 -10 14
-10 7 0 24 -8 37 -19 13 -10 38 -21 55 -25 18 -4 37 -17 44 -31 7 -14 22 -25
32 -25 10 0 21 -7 24 -15 4 -8 15 -15 25 -15 10 0 19 -4 19 -10 0 -5 6 -10 14
-10 8 0 16 -7 20 -15 3 -8 14 -15 24 -15 10 0 25 -11 32 -25 7 -14 20 -25 27
-25 21 0 83 -50 83 -66 0 -8 9 -14 20 -14 11 0 20 -4 20 -10 0 -5 6 -10 14
-10 8 0 16 -7 20 -15 3 -8 11 -15 19 -15 7 0 24 -11 37 -25 13 -14 29 -25 37
-25 7 0 13 -7 13 -15 0 -8 6 -15 14 -15 7 0 22 -11 32 -25 10 -14 26 -25 35
-25 9 0 24 -11 33 -25 9 -14 26 -25 38 -25 11 0 30 -10 42 -23 12 -13 29 -26
39 -30 9 -3 17 -11 17 -17 0 -5 7 -10 15 -10 8 0 15 -4 15 -10 0 -5 11 -12 25
-16 14 -3 34 -17 44 -30 10 -13 24 -24 30 -24 7 0 24 -11 39 -25 15 -14 53
-35 85 -48 32 -12 68 -32 82 -45 13 -12 35 -22 49 -22 14 0 33 -10 44 -25 11
-14 29 -25 40 -25 12 0 24 -4 27 -10 3 -5 19 -10 36 -10 16 0 29 -4 29 -10 0
-5 7 -10 15 -10 9 0 18 -7 21 -15 4 -8 15 -15 27 -15 21 0 128 -35 161 -52 10
-5 43 -12 72 -15 30 -3 54 -9 54 -13 0 -27 329 -37 338 -11 2 6 21 14 42 17
25 4 45 15 54 29 9 14 30 25 52 30 21 4 45 15 54 24 8 10 26 22 40 26 33 10
60 34 60 54 0 9 9 23 20 31 11 8 20 20 20 26 0 6 7 17 15 24 8 7 15 23 15 36
0 12 7 29 15 38 8 8 15 19 15 24 0 6 6 12 13 14 9 4 12 45 12 163 0 118 -3
159 -12 162 -7 3 -13 11 -13 19 0 8 -4 14 -10 14 -5 0 -10 6 -10 14 0 14 -97
86 -115 86 -6 0 -16 9 -23 20 -11 18 -23 20 -138 20 l-125 0 -30 -32 c-16 -18
-29 -36 -29 -40 0 -5 -6 -8 -13 -8 -14 0 -57 -52 -57 -69 0 -6 -10 -29 -22
-52 -22 -44 -35 -131 -24 -171 7 -28 77 -108 94 -108 7 0 12 -4 12 -9 0 -29
178 -41 188 -13 2 7 9 12 15 12 30 0 49 109 27 151 -18 32 -68 52 -119 46 -63
-6 -71 -1 -71 43 0 66 11 97 39 111 14 8 32 22 39 31 15 20 96 26 107 8 3 -6
15 -10 26 -10 10 0 19 -5 19 -11 0 -7 11 -9 31 -5 27 5 32 2 44 -27 8 -19 21
-39 29 -47 9 -7 16 -18 16 -25 0 -8 5 -15 12 -17 14 -5 23 -163 14 -242 -6
-41 -12 -55 -26 -59 -11 -3 -23 -21 -31 -45 -8 -29 -18 -42 -35 -46 -13 -4
-24 -13 -24 -21 0 -8 -3 -15 -7 -15 -5 0 -32 -18 -61 -40 -49 -38 -57 -40
-120 -40 -41 0 -73 -5 -81 -12 -11 -10 -14 -10 -18 0 -3 6 -20 12 -38 12 -19
0 -37 4 -40 10 -3 5 -18 10 -33 10 -16 0 -34 8 -42 20 -8 11 -18 20 -22 20 -4
0 -27 20 -50 45 -23 25 -50 45 -60 45 -11 0 -18 7 -18 19 0 11 -3 21 -7 23
-16 7 -53 68 -53 88 0 11 -4 20 -10 20 -5 0 -10 10 -10 21 0 12 -9 40 -19 63
-11 23 -22 53 -26 69 -3 18 -12 27 -24 27 -42 0 -51 -11 -51 -61 0 -27 4 -49
9 -49 4 0 11 -23 14 -50 6 -49 53 -172 69 -178 4 -2 8 -14 8 -27 0 -13 4 -25
9 -27 5 -1 11 -12 13 -23 2 -15 -3 -21 -21 -23 -13 -2 -28 1 -34 7 -6 6 -19
11 -29 11 -10 0 -18 4 -18 8 0 5 -25 14 -55 21 -33 8 -55 18 -55 26 0 7 -21
19 -50 26 -28 7 -50 19 -50 26 0 7 -9 13 -20 13 -22 0 -53 26 -63 53 -3 9 -16
17 -27 17 -11 0 -20 5 -20 10 0 6 -6 10 -13 10 -16 0 -77 111 -77 140 0 11 -4
20 -10 20 -5 0 -10 15 -10 34 0 33 -20 53 -41 40 -15 -9 -10 -78 7 -102 18
-27 15 -76 -6 -80 -8 -1 -35 16 -59 38 -24 22 -52 40 -61 40 -26 0 -50 11 -50
22 0 12 -26 38 -38 38 -5 0 -17 11 -27 24 -10 14 -34 27 -52 31 -19 3 -33 12
-33 20 0 8 -7 15 -15 15 -8 0 -15 4 -15 8 0 20 -174 182 -195 182 -7 0 -15 6
-18 14 -3 7 -17 16 -31 20 -27 7 -76 50 -76 67 0 5 -13 12 -29 15 -17 4 -32
12 -35 20 -3 8 -12 14 -20 14 -9 0 -23 11 -32 25 -11 17 -25 25 -45 25 -15 0
-32 6 -36 13 -12 20 -99 77 -118 77 -9 0 -28 11 -43 25 -15 14 -39 25 -54 25
-16 0 -28 5 -28 10 0 6 -9 10 -20 10 -11 0 -29 9 -40 20 -11 11 -38 23 -60 26
-22 4 -40 10 -40 15 0 5 -14 9 -31 9 -26 0 -30 3 -27 23 l3 22 490 0 490 0 3
-28 c2 -16 -2 -35 -9 -43 -7 -9 -15 -53 -17 -100 l-5 -84 27 0 c59 0 66 12 66
115 0 108 14 135 71 135 16 0 62 5 101 12 54 9 75 9 89 0 10 -7 33 -12 51 -12
18 0 40 -5 48 -10 12 -8 10 -13 -12 -37 -14 -15 -29 -39 -33 -53 -4 -14 -12
-28 -17 -31 -5 -3 -10 -41 -11 -83 -2 -88 5 -98 68 -94 l40 3 6 75 c9 96 18
130 35 130 8 0 14 10 14 25 0 16 6 25 15 25 8 0 15 6 15 14 0 7 6 19 14 25 19
16 666 24 666 8 0 -18 -52 -67 -72 -67 -10 0 -18 -4 -18 -10 0 -5 -12 -22 -27
-38 -57 -60 -70 -112 -32 -132 16 -9 25 -8 40 6 10 9 19 24 19 33 0 9 28 41
62 71 34 30 70 63 80 73 10 9 23 17 28 17 6 0 10 4 10 9 0 18 90 21 220 6 74
-8 138 -15 143 -15 4 0 7 -7 7 -15 0 -10 11 -15 35 -15 19 0 35 -4 35 -10 0
-5 9 -10 20 -10 11 0 20 -4 20 -10 0 -5 10 -10 21 -10 12 0 32 -11 45 -25 13
-14 28 -25 33 -25 13 0 57 -44 71 -70 6 -11 17 -20 24 -20 8 0 17 -12 21 -27
7 -28 51 -73 71 -73 15 0 24 23 24 60 0 16 7 35 15 44 8 8 15 26 15 41 0 14 7
28 15 31 8 3 17 21 21 40 5 25 13 36 30 40 15 4 24 13 24 25 0 11 7 19 18 19
9 0 30 7 46 15 40 21 88 19 142 -6 35 -17 50 -32 70 -70 13 -27 24 -59 24 -73
0 -14 5 -28 10 -31 6 -4 10 -31 9 -62 -2 -37 2 -57 11 -63 18 -11 50 6 50 25
0 8 6 15 13 15 7 0 27 13 45 29 17 16 41 32 52 36 11 3 20 13 20 20 0 8 18 19
42 26 23 6 48 19 56 30 7 10 28 21 47 25 19 3 35 10 35 15 0 5 7 9 15 9 8 0
15 4 15 9 0 4 19 11 41 14 23 3 45 10 48 15 8 12 86 36 221 66 122 28 170 32
170 16 0 -6 31 -10 72 -10 65 0 106 -8 163 -31 11 -4 53 -11 93 -14 39 -4 75
-11 78 -16 3 -5 18 -9 35 -9 16 0 29 -4 29 -10 0 -5 9 -10 20 -10 12 0 25 -10
32 -25 7 -16 19 -25 33 -25 12 0 34 -11 49 -25 15 -14 31 -25 37 -25 5 0 9 -7
9 -15 0 -10 10 -15 30 -15 19 0 30 -5 30 -14 0 -8 14 -20 30 -28 17 -7 30 -20
30 -28 0 -8 16 -26 35 -39 19 -13 35 -27 35 -32 0 -4 6 -14 13 -21 7 -7 28
-35 47 -63 18 -27 38 -53 43 -56 5 -3 11 -25 14 -48 4 -25 11 -41 19 -41 8 0
14 -9 14 -19 0 -11 5 -23 10 -26 6 -3 10 -28 10 -56 0 -27 5 -49 10 -49 6 0
10 -47 10 -120 0 -66 -4 -120 -8 -120 -5 0 -14 -19 -21 -43 -7 -23 -17 -49
-22 -57 -20 -33 -45 -96 -53 -131 -3 -15 -22 -43 -41 -62 -19 -19 -35 -40 -35
-46 0 -17 -23 -61 -32 -61 -9 0 -54 -44 -60 -59 -2 -4 -43 -38 -93 -76 -49
-38 -94 -74 -100 -80 -5 -6 -35 -19 -65 -30 -30 -10 -63 -27 -72 -38 -10 -11
-39 -24 -65 -30 -66 -15 -246 -14 -251 1 -2 7 -17 12 -33 12 -16 0 -29 4 -29
9 0 5 -10 11 -23 15 -28 7 -67 39 -67 55 0 6 -6 11 -13 11 -7 0 -17 15 -22 33
-8 25 -16 33 -37 35 -26 3 -28 1 -28 -32 0 -25 9 -44 30 -68 17 -18 30 -36 30
-39 0 -4 16 -17 35 -29 19 -12 35 -29 35 -37 0 -24 -174 -13 -221 13 -19 10
-35 22 -37 27 -2 4 -10 7 -18 7 -8 0 -14 5 -14 10 0 6 -6 10 -13 10 -7 0 -19
9 -27 20 -8 11 -18 20 -23 20 -13 0 -31 21 -44 53 -7 15 -19 27 -27 27 -7 0
-16 9 -19 21 -4 13 -12 20 -24 17 -20 -4 -31 -51 -32 -132 -1 -40 -6 -54 -28
-75 -27 -25 -32 -26 -168 -28 -293 -5 -1009 -3 -1047 3 -29 5 -38 11 -34 21 4
8 6 20 6 28 0 7 9 15 21 18 11 3 23 15 26 26 3 13 14 21 27 21 24 1 56 22 56
39 0 6 6 11 13 11 18 0 67 24 67 33 0 4 7 7 15 7 8 0 15 4 15 9 0 5 23 14 50
21 28 7 50 16 50 21 0 5 7 9 15 9 8 0 15 4 15 9 0 9 74 38 120 47 14 3 34 9
45 14 38 15 102 30 132 30 24 0 31 6 41 35 15 40 1 109 -23 119 -17 6 -22 116
-5 116 6 0 10 7 10 15 0 26 30 75 45 75 8 0 15 6 15 14 0 20 38 30 55 16 11
-9 23 -9 46 -1 48 17 227 14 245 -3 7 -8 32 -17 54 -21 22 -4 40 -11 40 -16 0
-6 23 -9 53 -7 43 2 54 7 62 26 5 12 18 25 27 28 10 3 18 12 18 20 0 8 5 14
10 14 6 0 10 8 10 18 0 10 9 24 20 32 11 8 20 20 20 27 0 7 5 13 10 13 6 0 10
11 10 25 0 14 6 25 13 25 8 0 22 16 33 35 10 19 22 35 26 35 3 0 30 23 58 50
29 28 65 54 81 57 19 3 29 12 29 23 0 13 11 19 40 24 22 3 40 10 40 15 0 5 19
11 43 14 23 3 60 10 82 16 100 26 157 34 163 24 4 -6 46 -14 95 -18 48 -4 87
-11 87 -16 0 -5 7 -9 15 -9 8 0 15 -4 15 -8 0 -5 18 -17 40 -28 22 -10 40 -25
40 -31 0 -7 4 -13 9 -13 14 0 24 -121 17 -183 -6 -43 -14 -61 -46 -95 -26 -28
-49 -42 -65 -42 -14 0 -25 5 -25 10 0 6 -8 10 -19 10 -15 0 -19 10 -23 52 -3
29 -11 54 -17 56 -6 2 -11 9 -11 16 0 22 -62 66 -92 66 -15 0 -28 5 -28 10 0
6 -22 10 -48 10 -56 0 -87 -25 -109 -88 -15 -44 -17 -102 -3 -102 6 0 10 -7
10 -15 0 -8 5 -15 10 -15 6 0 10 -11 10 -24 0 -29 64 -96 91 -96 10 0 19 -4
19 -10 0 -5 16 -10 35 -10 19 0 35 -4 35 -10 0 -5 25 -10 55 -10 30 0 55 5 55
10 0 6 17 10 37 10 38 0 83 31 83 57 0 7 7 13 15 13 8 0 15 7 15 15 0 8 11 17
25 21 14 3 25 13 25 21 0 8 11 24 25 35 14 11 25 30 25 43 0 13 4 26 9 29 11
7 7 183 -5 211 -4 11 -13 25 -20 30 -6 6 -17 27 -24 47 -6 21 -17 38 -23 38
-7 0 -18 9 -25 20 -7 11 -17 20 -23 20 -13 0 -39 25 -39 38 0 5 -13 12 -30 16
-17 3 -30 11 -30 18 0 15 -54 48 -78 48 -9 0 -35 7 -58 15 -100 35 -395 25
-490 -15 -25 -11 -54 -20 -64 -20 -10 0 -25 -6 -33 -14 -8 -8 -31 -18 -51 -21
-20 -4 -36 -11 -36 -16 0 -5 -9 -9 -20 -9 -24 0 -70 -21 -70 -32 0 -4 -13 -8
-29 -8 -17 0 -33 -4 -36 -10 -3 -5 -17 -10 -29 -10 -13 0 -35 -9 -49 -20 -14
-11 -33 -20 -42 -20 -9 0 -30 -9 -46 -20 -15 -12 -43 -26 -61 -32 -18 -6 -46
-22 -61 -35 -16 -12 -35 -23 -43 -23 -8 0 -14 -7 -14 -15 0 -8 -9 -15 -20 -15
-11 0 -20 -4 -20 -10 0 -5 -6 -10 -13 -10 -13 0 -35 -18 -151 -126 -32 -30
-64 -54 -72 -54 -8 0 -14 -4 -14 -10 0 -5 -6 -10 -13 -10 -7 0 -18 -9 -25 -20
-7 -11 -19 -20 -26 -20 -23 0 -236 -206 -236 -227 0 -7 -7 -13 -15 -13 -8 0
-19 -9 -25 -20 -6 -11 -15 -20 -21 -20 -10 0 -60 -46 -206 -187 -41 -40 -77
-73 -80 -73 -2 0 -10 -6 -18 -12 -25 -24 -50 -43 -76 -57 -15 -7 -44 -28 -65
-47 -54 -47 -165 -81 -284 -87 -90 -5 -220 9 -236 26 -4 4 -31 7 -61 7 -29 0
-53 5 -53 10 0 6 -10 10 -23 10 -13 0 -38 11 -57 25 -19 14 -41 25 -50 25 -8
0 -23 9 -33 20 -9 11 -31 23 -47 27 -17 3 -30 12 -30 19 0 8 -3 14 -7 14 -5 0
-21 12 -38 26 -94 80 -114 100 -115 112 0 19 -32 50 -55 54 -17 2 -21 -3 -23
-34 -2 -21 -7 -38 -11 -38 -4 0 -11 -36 -14 -80 -5 -61 -11 -85 -27 -102 -11
-12 -20 -32 -20 -44 0 -44 -24 -54 -128 -54 -113 0 -225 15 -230 30 -2 5 -8
10 -13 10 -12 0 -75 64 -82 85 -9 22 -54 19 -62 -4 -3 -10 -13 -22 -23 -25
-41 -15 -75 -40 -79 -57 -4 -13 -14 -19 -32 -19 -15 0 -31 -4 -36 -9 -6 -4
-31 -14 -58 -21 -26 -7 -50 -17 -53 -21 -3 -5 -16 -9 -29 -9 -13 0 -30 -9 -38
-21 -15 -20 -23 -21 -267 -20 -240 0 -254 1 -275 21 -12 11 -31 20 -43 20 -12
0 -35 13 -52 30 -20 20 -41 30 -60 30 -29 0 -30 -1 -30 -50 l0 -50 -44 0 c-26
0 -48 6 -56 15 -7 8 -20 15 -29 15 -39 1 -97 29 -109 54 -10 19 -20 26 -35 24
-18 -2 -23 -12 -28 -45 -3 -24 -8 -45 -11 -49 -13 -13 -158 -25 -177 -14 -25
13 -81 13 -81 0 0 -12 -996 -7 -1008 4 -8 9 68 76 85 76 7 0 13 7 13 15 0 8 5
15 10 15 13 0 80 66 80 79 0 5 11 12 24 15 14 3 28 15 31 26 3 11 11 20 17 20
6 0 24 13 39 29 28 30 59 40 192 62 39 6 78 5 115 -2 32 -5 86 -16 122 -22 36
-7 71 -16 78 -20 21 -14 32 3 32 49 0 38 -6 51 -37 85 -64 69 -71 102 -48 229
4 24 16 42 34 54 15 11 32 28 37 40 9 21 13 22 145 42 22 4 39 1 43 -5 4 -6
17 -11 28 -11 42 0 138 -32 138 -46 0 -8 5 -14 10 -14 6 0 21 -9 33 -21 40
-38 55 -41 77 -19 13 13 20 33 20 60 0 22 4 40 9 40 4 0 11 21 14 47 3 26 12
52 21 58 9 7 16 24 16 39 0 18 13 39 40 65 22 21 40 42 40 47 0 11 73 44 96
44 19 0 53 18 73 38 13 13 48 14 224 9 132 -3 213 -9 220 -16 6 -6 23 -11 37
-11 14 0 32 -9 40 -20 8 -12 26 -20 42 -20 18 0 28 -5 28 -15 0 -8 7 -15 15
-15 8 0 15 -4 15 -10 0 -5 5 -10 10 -10 19 0 76 -53 118 -109 21 -28 23 -38
18 -109 -7 -112 -17 -172 -27 -172 -5 0 -9 -10 -9 -23 0 -15 -9 -28 -22 -34
-42 -19 -94 -33 -123 -33 -41 0 -115 30 -115 46 0 8 -4 14 -10 14 -5 0 -10 5
-10 10 0 6 18 10 40 10 29 0 40 4 40 15 0 8 7 15 15 15 8 0 15 9 15 20 0 11 4
20 9 20 5 0 12 25 16 55 7 63 -3 80 -57 96 -42 12 -148 12 -148 0 0 -5 -13
-12 -30 -16 -16 -4 -30 -13 -30 -20 0 -7 -12 -37 -26 -65 -24 -48 -26 -61 -22
-146 4 -98 20 -134 60 -134 10 0 18 -4 18 -10 0 -5 6 -10 14 -10 8 0 16 -5 18
-11 5 -14 243 -16 260 -2 7 6 26 13 41 17 32 8 87 53 87 73 0 7 5 13 10 13 6
0 10 9 10 19 0 11 5 23 10 26 6 3 10 22 10 41 0 19 5 34 10 34 23 0 7 251 -17
269 -8 6 -31 46 -70 118 -9 18 -21 33 -25 33 -5 0 -19 10 -32 23 -13 12 -33
29 -46 37 -12 8 -31 23 -42 32 -12 10 -28 18 -38 18 -9 0 -21 5 -27 11 -14 14
-67 26 -195 44 -95 13 -122 13 -230 -1 -196 -24 -208 -26 -208 -34 0 -4 -15
-10 -32 -13 -117 -19 -207 -52 -208 -74 0 -7 -12 -13 -27 -13 -16 0 -39 -9
-53 -20 -14 -11 -30 -20 -37 -20 -19 0 -83 -33 -83 -42 0 -4 -11 -8 -25 -8
-14 0 -25 -4 -25 -8 0 -5 -20 -19 -45 -32 -24 -12 -52 -30 -62 -39 -10 -10
-33 -24 -50 -31 -18 -8 -33 -21 -33 -28 0 -8 -13 -19 -30 -25 -16 -6 -30 -17
-30 -24 0 -7 -9 -13 -20 -13 -11 0 -20 -4 -20 -10 0 -5 -6 -10 -13 -10 -7 0
-22 -8 -33 -18 -10 -10 -27 -23 -36 -28 -21 -12 -268 -244 -318 -298 -19 -22
-48 -51 -64 -65 -16 -14 -42 -38 -58 -53 -16 -16 -31 -28 -34 -28 -2 0 -20
-18 -40 -40 -19 -21 -44 -42 -54 -45 -11 -3 -22 -15 -25 -25 -3 -10 -18 -24
-34 -31 -15 -7 -37 -27 -49 -44 -23 -37 -37 -40 -187 -51 -55 -3 -105 -10
-111 -15 -7 -5 -161 -7 -360 -5 -289 4 -354 7 -379 20 -16 9 -56 18 -87 22
-32 4 -58 11 -58 15 0 5 -16 9 -35 9 -19 0 -35 4 -35 10 0 5 -16 12 -35 16
-19 3 -39 12 -46 20 -6 8 -20 14 -30 14 -11 0 -19 7 -19 15 0 8 -12 18 -27 21
-16 4 -35 12 -43 19 -8 7 -32 16 -53 19 -21 4 -43 16 -50 26 -6 11 -17 20 -24
20 -7 0 -13 4 -13 9 0 5 -9 13 -21 16 -12 4 -29 14 -38 23 -29 28 -75 62 -83
62 -18 0 -19 -32 -4 -79 9 -29 16 -83 16 -130 0 -77 -1 -81 -34 -115 -52 -56
-158 -85 -186 -51 -7 8 -21 15 -31 15 -11 0 -19 5 -19 10 0 6 -6 10 -12 10
-15 1 -68 45 -68 57 0 4 -16 21 -35 36 -39 31 -55 30 -99 -8 -16 -14 -37 -25
-47 -25 -21 0 -89 -38 -89 -50 0 -5 -10 -12 -22 -15 -13 -4 -32 -16 -43 -26
-22 -20 -38 -21 -308 -20 -130 0 -158 3 -163 16 -4 9 -26 17 -56 21 -29 4 -59
15 -69 25 -11 11 -28 19 -39 19 -38 0 -74 28 -135 105 -21 28 -44 53 -50 57
-18 13 -47 9 -61 -10 -16 -20 -18 -62 -4 -62 5 0 12 -23 16 -50 4 -28 11 -53
15 -56 5 -3 9 -16 9 -30 0 -28 16 -26 -225 -29 -163 -2 -235 6 -235 26 0 5 -7
9 -15 9 -8 0 -15 5 -15 10 0 6 -8 10 -17 10 -21 0 -83 61 -83 81 0 19 -55 79
-72 79 -25 -1 -48 -27 -48 -55 0 -40 21 -105 34 -105 11 0 40 -39 34 -45 -7
-7 -638 -9 -644 -2 -4 4 -16 7 -26 7 -14 0 -18 8 -18 39 0 30 -6 44 -22 55
-25 18 -84 21 -93 6 -3 -5 -15 -10 -26 -10 -10 0 -19 -4 -19 -10 0 -5 -11 -10
-24 -10 -14 0 -28 -4 -31 -10 -3 -5 -23 -14 -45 -20 -21 -6 -45 -16 -52 -23
-33 -32 -106 -37 -481 -36 -204 1 -464 5 -577 8 l-205 6 36 22 c21 14 53 23
75 23 22 0 57 5 79 11 22 6 83 16 136 22 79 10 102 17 132 40 25 19 37 36 37
53 0 20 5 24 32 24 17 0 39 7 49 16 10 9 39 19 65 22 33 3 48 10 51 22 3 12
23 22 65 30 33 7 75 23 94 36 24 17 42 21 67 17 26 -4 40 1 65 22 34 29 127
65 167 65 14 0 25 3 25 8 0 16 59 32 159 42 134 13 401 13 401 0 0 -5 9 -10
20 -10 12 0 33 -11 48 -25 17 -16 39 -25 58 -25 29 0 32 3 37 38 2 20 -2 52
-10 72 -18 43 -43 189 -43 252 0 36 4 48 18 52 34 10 285 -2 292 -15 5 -8 22
-9 54 -5 38 6 56 2 106 -21 33 -15 60 -31 60 -35 0 -4 13 -8 28 -8 16 0 37 -9
47 -20 12 -13 29 -20 44 -18 25 3 25 5 27 85 l1 82 45 44 c25 24 49 54 53 66
3 12 15 21 26 21 10 0 19 4 19 9 0 5 14 12 30 16 17 4 30 11 30 16 0 5 16 9
35 9 23 0 35 5 35 14 0 32 214 56 243 27 6 -6 24 -11 39 -11 15 0 28 -4 28
-10 0 -5 14 -10 30 -10 17 0 30 -5 30 -12 0 -16 46 -38 76 -38 22 0 126 -64
132 -81 2 -5 10 -9 18 -9 8 0 14 -3 14 -7 1 -5 25 -24 54 -43 49 -31 55 -38
61 -80 22 -142 -24 -251 -125 -292 -56 -24 -105 -30 -134 -17 -30 14 -40 38
-37 94 2 58 -16 93 -60 116 -73 37 -131 17 -166 -58 -20 -44 -20 -47 -4 -93 9
-26 28 -63 43 -81 25 -34 97 -79 124 -79 8 0 22 -4 32 -9 56 -28 91 -32 147
-15 48 13 68 27 127 87 64 66 118 154 118 194 0 7 7 16 15 19 8 4 15 17 15 30
0 13 5 35 12 49 17 38 -8 130 -48 175 -17 19 -33 44 -35 55 -3 12 -26 32 -59
50 -31 17 -76 44 -101 62 -68 47 -172 92 -255 109 -110 23 -324 11 -429 -24
-16 -6 -82 -13 -145 -16 -161 -7 -341 -59 -457 -133 -29 -18 -76 -40 -105 -48
-29 -9 -70 -25 -90 -35 -20 -11 -42 -20 -48 -20 -7 0 -24 -8 -38 -19 -15 -10
-44 -24 -64 -30 -21 -7 -70 -34 -110 -60 -70 -45 -335 -191 -348 -191 -14 0
-206 -103 -226 -121 -11 -10 -24 -19 -30 -19 -5 0 -29 -14 -54 -30 -38 -25
-127 -58 -295 -109 -16 -5 -62 -12 -102 -16 -42 -4 -77 -13 -84 -21 -6 -8 -29
-14 -52 -14 -26 0 -48 -7 -61 -19 -19 -17 -87 -39 -186 -61 -19 -4 -60 -21
-90 -37 -30 -17 -71 -33 -90 -37 -94 -18 -137 -31 -162 -48 -14 -10 -37 -18
-50 -18 -12 0 -50 -18 -83 -41 l-60 -41 -205 0 c-113 0 -322 0 -465 0 -143 0
-406 3 -584 7 -250 5 -326 4 -331 -6 -4 -6 -21 -12 -36 -12 -355 2 -927 12
-932 17 -8 9 68 76 85 76 7 0 13 7 13 15 0 8 5 15 10 15 13 0 80 66 80 79 0 5
11 12 24 15 14 3 28 15 31 26 3 11 11 20 17 20 6 0 24 13 39 29 28 30 59 40
192 62 39 6 78 5 115 -2 32 -5 86 -16 122 -22 36 -7 71 -16 78 -20 21 -14 32
3 32 49 0 38 -6 51 -37 85 -64 69 -71 102 -48 229 4 24 16 42 34 54 15 11 32
28 37 40 6 13 20 22 40 24 19 2 48 19 80 47 27 25 55 45 63 45 34 0 112 45
117 67 11 43 49 51 253 53 121 0 192 -3 196 -10 3 -5 14 -10 24 -10 18 0 142
-106 139 -118 -2 -4 25 -34 60 -66 34 -32 62 -64 62 -70 0 -13 54 -72 72 -78
10 -4 14 -41 16 -142 4 -149 2 -156 -52 -181 -17 -8 -47 -24 -66 -35 -36 -20
-140 -29 -140 -11 0 5 20 14 44 20 56 14 72 39 81 128 6 65 5 76 -15 108 -40
64 -111 70 -181 14 -22 -18 -43 -27 -53 -23 -11 4 -16 1 -16 -10 0 -9 -7 -19
-15 -22 -12 -5 -15 -25 -15 -89 l0 -83 60 -61 c87 -88 99 -92 211 -81 147 14
158 18 210 83 37 47 47 68 53 110 9 80 7 342 -3 352 -5 6 -11 23 -13 40 -2 21
-13 36 -35 50 -18 11 -32 24 -33 29 0 4 -11 20 -25 35 -216 227 -259 261 -332
261 -21 0 -51 7 -67 15 -40 21 -135 20 -143 -1 -5 -15 -7 -15 -15 0 -11 20
-93 22 -105 2 -13 -22 -49 -36 -92 -36 -36 0 -44 -4 -63 -35 -20 -30 -28 -35
-63 -35 -34 0 -48 -8 -91 -49 -29 -27 -55 -57 -58 -68 -3 -11 -22 -26 -41 -33
-19 -8 -35 -20 -35 -28 0 -7 -13 -19 -30 -25 -16 -6 -30 -17 -30 -24 0 -7 -9
-13 -20 -13 -11 0 -20 -4 -20 -10 0 -5 -6 -10 -13 -10 -7 0 -22 -8 -33 -18
-10 -10 -27 -23 -36 -28 -21 -12 -268 -244 -318 -298 -19 -22 -48 -51 -64 -65
-16 -14 -42 -38 -58 -53 -16 -16 -31 -28 -34 -28 -2 0 -20 -18 -40 -40 -19
-21 -44 -42 -54 -45 -11 -3 -22 -15 -25 -25 -3 -10 -18 -24 -34 -31 -15 -7
-37 -27 -49 -44 -23 -37 -37 -40 -187 -51 -55 -3 -105 -10 -111 -15 -7 -5
-161 -7 -360 -5 -289 4 -354 7 -379 20 -16 9 -56 18 -87 22 -32 4 -58 11 -58
15 0 5 -16 9 -35 9 -19 0 -35 4 -35 10 0 5 -16 12 -35 16 -19 3 -39 12 -46 20
-6 8 -20 14 -30 14 -11 0 -19 7 -19 15 0 8 -12 18 -27 21 -16 4 -35 12 -43 19
-8 7 -32 16 -53 19 -21 4 -43 16 -50 26 -6 11 -17 20 -24 20 -7 0 -13 4 -13 9
0 5 -9 13 -21 16 -12 4 -29 14 -38 23 -29 28 -75 62 -83 62 -18 0 -19 -32 -4
-79 9 -29 16 -83 16 -130 0 -77 -1 -81 -34 -115 -52 -56 -158 -85 -186 -51 -7
8 -21 15 -31 15 -11 0 -19 5 -19 10 0 6 -6 10 -12 10 -15 1 -68 45 -68 57 0 4
-16 21 -35 36 -39 31 -55 30 -99 -8 -16 -14 -37 -25 -47 -25 -21 0 -89 -38
-89 -50 0 -5 -10 -12 -22 -15 -13 -4 -32 -16 -43 -26 -22 -20 -38 -21 -308
-20 -130 0 -158 3 -163 16 -4 9 -26 17 -56 21 -29 4 -59 15 -69 25 -11 11 -28
19 -39 19 -38 0 -74 28 -135 105 -21 28 -44 53 -50 57 -18 13 -47 9 -61 -9
-16 -21 -18 -63 -4 -63 5 0 12 -23 16 -50 4 -28 11 -53 15 -56 5 -3 9 -16 9
-30 0 -28 16 -26 -225 -29 -163 -2 -235 6 -235 26 0 5 -7 9 -15 9 -8 0 -15 5
-15 10 0 6 -7 10 -16 10 -21 0 -84 60 -84 80 0 20 -55 80 -72 80 -25 -1 -48
-27 -48 -55 0 -40 21 -105 34 -105 11 0 40 -39 34 -45 -7 -7 -638 -9 -644 -2
-4 4 -16 7 -26 7 -14 0 -18 8 -18 39 0 30 -6 44 -22 55 -25 18 -84 21 -93 6
-3 -6 -15 -10 -26 -10 -10 0 -19 -4 -19 -10 0 -5 -11 -10 -24 -10 -14 0 -28
-4 -31 -10 -3 -5 -23 -14 -45 -20 -21 -6 -45 -16 -52 -23 -7 -7 -35 -18 -63
-25 -48 -11 -170 -12 -2250 -13 -165 0 -422 3 -572 6 l-271 7 -6 67 c-18 200
-18 260 -2 276 9 9 16 23 16 31 0 8 5 14 10 14 6 0 10 11 10 24 0 14 5 28 10
31 6 3 10 22 10 41 0 19 5 34 10 34 6 0 10 8 10 18 0 20 23 89 33 98 4 4 7 22
7 41 0 23 5 33 15 33 8 0 15 6 15 14 0 7 7 19 15 26 8 7 15 21 15 31 0 11 4
19 9 19 5 0 12 11 15 25 4 14 13 25 21 25 10 0 15 10 15 28 0 21 7 32 25 40
14 6 25 17 25 23 0 7 16 27 35 45 18 19 38 40 42 48 4 7 22 17 38 23 24 8 31
16 33 41 2 19 -1 32 -8 32 -6 0 -21 9 -33 20 -57 52 -117 110 -117 115 0 8
-32 45 -97 111 -44 44 -63 71 -63 89 0 14 -4 25 -10 25 -5 0 -10 5 -10 11 0 6
-7 17 -15 25 -8 9 -15 24 -15 34 0 10 -7 20 -15 24 -11 4 -15 22 -15 76 0 40
4 70 10 70 6 0 10 7 10 15 0 13 23 15 150 15 126 0 150 -2 150 -15 0 -8 9 -20
20 -27 11 -7 20 -18 20 -25 0 -7 9 -13 19 -13 11 0 21 -9 25 -23 7 -31 59 -87
79 -87 10 0 17 -4 17 -10 0 -12 32 -50 42 -50 4 0 24 -16 45 -35 21 -20 48
-38 59 -41 12 -3 27 -16 34 -30 8 -13 18 -24 23 -24 6 0 25 -11 43 -25 18 -14
37 -25 41 -25 5 0 22 -14 39 -31 16 -17 47 -40 69 -51 43 -23 105 -79 105 -97
0 -6 7 -11 15 -11 8 0 15 -4 15 -10 0 -5 6 -10 13 -10 21 0 77 -30 77 -41 0
-5 7 -9 15 -9 8 0 15 -4 15 -10 0 -5 9 -10 20 -10 11 0 20 -7 20 -15 0 -9 9
-15 25 -15 14 0 25 -4 25 -10 0 -5 7 -10 15 -10 8 0 15 -4 15 -10 0 -5 7 -10
15 -10 8 0 15 -7 15 -15 0 -10 10 -15 28 -15 20 0 33 -7 42 -25 10 -19 21 -25
47 -25 23 0 33 -5 33 -15 0 -8 5 -15 10 -15 6 0 19 -9 30 -20 11 -11 34 -23
50 -27 17 -3 30 -9 30 -14 0 -5 7 -9 15 -9 8 0 15 -4 15 -10 0 -5 14 -10 30
-10 17 0 30 -4 30 -10 0 -5 16 -10 35 -10 19 0 35 -4 35 -10 0 -5 19 -10 43
-10 24 0 48 -5 54 -11 5 -5 36 -13 67 -16 31 -3 56 -9 56 -13 0 -4 34 -11 75
-15 41 -4 75 -11 75 -17 0 -7 60 -9 188 -5 161 5 200 9 282 32 52 14 102 32
110 39 8 8 33 20 55 27 22 7 44 17 49 21 6 4 18 8 28 8 11 0 37 18 59 40 22
22 45 40 50 40 19 0 87 72 94 98 4 15 11 30 17 33 14 9 15 146 0 161 -7 7 -12
21 -12 33 0 40 -35 118 -57 128 -13 6 -23 14 -23 19 0 4 -11 8 -24 8 -13 0
-26 5 -28 10 -2 6 -35 13 -73 16 -76 7 -65 12 -159 -72 -37 -33 -39 -39 -49
-118 -9 -79 -9 -84 12 -105 18 -18 33 -21 96 -21 68 0 78 3 119 33 25 17 45
38 45 45 1 6 6 12 11 12 6 0 10 9 10 20 0 15 7 20 25 20 20 0 25 -6 32 -37 4
-21 8 -64 8 -95 -1 -55 -3 -60 -45 -99 -25 -23 -58 -48 -75 -55 -16 -7 -38
-21 -47 -31 -29 -32 -47 -43 -67 -43 -11 0 -37 -10 -58 -21 -33 -19 -53 -21
-157 -20 -66 1 -122 5 -125 9 -11 14 -78 32 -119 32 -23 0 -42 5 -42 10 0 6
-7 10 -15 10 -21 0 -135 119 -135 142 0 13 -7 18 -29 18 -31 0 -61 -22 -61
-45 0 -7 -13 -16 -30 -20 -16 -4 -34 -14 -39 -23 -8 -15 -31 -17 -172 -17
-121 0 -163 3 -166 13 -3 6 -13 12 -24 12 -10 0 -19 7 -19 15 0 8 -5 15 -10
15 -16 0 -60 47 -60 63 0 7 -7 22 -15 33 -8 10 -15 25 -15 32 0 33 -33 47
-129 54 -116 8 -202 27 -228 51 -11 9 -25 17 -31 17 -7 0 -12 6 -12 13 0 7
-13 28 -30 47 -16 19 -29 41 -30 48 0 7 -13 25 -28 41 -15 17 -34 42 -42 58
-18 34 -55 73 -70 73 -6 0 -18 7 -26 15 -9 8 -25 15 -37 15 -12 0 -34 11 -48
24 -14 13 -40 27 -57 31 -18 3 -32 11 -32 16 0 5 -7 9 -15 9 -8 0 -15 7 -15
15 0 8 -11 17 -25 21 -14 3 -25 12 -25 19 0 7 -16 26 -35 42 -19 17 -35 35
-35 42 0 13 -1 13 358 13 156 0 285 4 288 9 3 5 18 9 33 9 21 0 30 -6 35 -22z
m23626 -21 c47 -13 117 -37 128 -44 5 -2 -39 -64 -54 -78 -30 -27 -44 -200
-20 -250 14 -29 23 -35 61 -40 24 -4 46 -13 49 -21 6 -16 52 -19 61 -4 10 17
72 12 79 -6 10 -27 7 -44 -14 -66 -11 -12 -20 -31 -20 -43 0 -12 -11 -32 -25
-45 -14 -13 -25 -28 -25 -32 0 -5 -7 -16 -15 -24 -8 -9 -15 -23 -15 -33 0 -9
-9 -27 -20 -39 -15 -16 -20 -35 -20 -77 0 -30 5 -55 10 -55 6 0 10 -11 10 -25
0 -14 4 -33 9 -43 52 -95 68 -162 40 -162 -5 0 -9 -4 -9 -9 0 -5 -12 -23 -27
-39 -56 -60 -76 -103 -54 -116 6 -4 11 -18 11 -32 0 -13 4 -24 10 -24 5 0 16
-16 25 -35 10 -19 25 -37 36 -40 14 -5 19 -16 19 -45 0 -21 4 -40 9 -42 5 -1
11 -14 13 -28 3 -23 0 -25 -36 -22 -21 2 -45 10 -53 18 -8 8 -23 14 -34 14
-10 0 -19 5 -19 10 0 6 -6 10 -14 10 -8 0 -16 4 -18 9 -1 4 -25 12 -52 15
l-49 8 6 -67 c4 -37 11 -72 16 -79 5 -6 12 -39 16 -72 6 -54 4 -62 -12 -70
-10 -5 -199 -10 -420 -12 -396 -3 -403 -3 -403 17 0 30 11 51 26 51 7 0 53 38
101 85 48 47 94 85 103 85 20 1 50 24 50 39 0 6 5 11 10 11 6 0 10 7 10 15 0
8 7 15 15 15 8 0 15 9 15 21 0 11 14 33 31 48 32 30 59 74 59 97 0 8 4 14 10
14 5 0 13 18 16 40 4 24 12 40 20 40 8 0 14 7 14 15 0 8 4 15 9 15 4 0 11 22
14 50 3 27 13 65 22 84 13 27 15 55 12 128 -5 101 -26 219 -40 229 -5 3 -11
26 -14 50 -3 24 -16 58 -29 76 -13 17 -24 36 -24 40 0 15 -25 63 -32 63 -5 0
-8 5 -8 10 0 13 -187 200 -199 200 -5 0 -12 9 -16 19 -3 11 -22 25 -43 32 -20
7 -44 20 -53 31 -9 10 -19 18 -23 18 -3 0 -15 9 -26 20 -11 11 -27 20 -35 20
-8 0 -26 12 -41 27 -51 51 -36 52 410 48 320 -3 412 -6 456 -18z"/>
<path d="M5290 2010 c-8 -5 -29 -10 -46 -10 -17 0 -50 -6 -75 -14 -24 -8 -96
-17 -159 -20 -161 -7 -341 -59 -457 -133 -29 -18 -76 -40 -105 -48 -29 -9 -70
-25 -90 -35 -20 -11 -42 -20 -48 -20 -7 0 -24 -8 -38 -19 -15 -10 -44 -24 -64
-30 -21 -7 -70 -34 -110 -60 -70 -45 -335 -191 -348 -191 -14 0 -206 -103
-226 -121 -11 -10 -24 -19 -30 -19 -5 0 -29 -14 -54 -30 -62 -42 -264 -106
-405 -130 -142 -24 -203 -30 -331 -30 -115 -1 -145 3 -249 30 -108 28 -191 57
-237 81 -10 5 -27 9 -39 9 -12 0 -36 11 -53 23 -17 13 -68 38 -113 55 -69 26
-100 46 -194 126 -118 101 -234 183 -278 196 -14 4 -49 17 -76 28 -58 23 -123
17 -222 -20 -93 -34 -193 -136 -193 -195 0 -12 -4 -24 -9 -27 -15 -10 -21 -98
-10 -140 12 -47 58 -145 76 -163 6 -7 23 -13 37 -13 14 0 28 -4 31 -10 17 -27
164 7 188 43 8 12 18 55 22 94 6 65 5 76 -15 108 -40 65 -111 70 -183 13 -32
-25 -41 -28 -48 -17 -24 37 3 159 40 183 7 4 21 16 31 26 33 33 112 52 190 44
38 -3 70 -11 70 -15 0 -5 9 -9 19 -9 11 0 23 -4 26 -10 3 -5 14 -10 23 -10 18
0 112 -85 112 -101 0 -5 8 -9 18 -9 10 0 25 -12 33 -27 8 -16 17 -30 20 -33 3
-3 16 -31 28 -63 13 -31 27 -60 32 -63 5 -3 9 -41 9 -85 0 -76 1 -80 26 -91
41 -19 54 8 54 114 0 87 0 88 25 88 14 0 25 -3 25 -7 0 -12 51 -33 77 -33 13
0 23 -4 23 -10 0 -5 7 -10 15 -10 8 0 15 -4 15 -10 0 -5 14 -10 30 -10 17 0
30 -4 30 -10 0 -5 7 -10 15 -10 8 0 15 -3 15 -8 0 -4 27 -16 61 -26 33 -11 62
-23 65 -28 3 -4 18 -8 34 -8 16 0 31 -4 35 -9 3 -6 37 -13 75 -17 39 -4 73
-11 76 -15 3 -5 16 -9 29 -9 13 0 25 -5 27 -11 2 -6 45 -11 105 -13 55 -2 105
-6 111 -10 6 -3 22 -2 37 4 14 5 40 10 56 10 17 0 40 5 52 12 12 6 54 11 94
11 54 -1 73 2 77 13 3 8 12 14 21 14 8 0 23 4 33 9 9 5 46 15 80 22 35 7 79
22 98 35 24 17 42 21 67 17 26 -4 40 1 65 22 34 29 127 65 167 65 14 0 25 3
25 8 0 16 59 32 159 42 134 13 401 13 401 0 0 -5 9 -10 20 -10 12 0 33 -11 48
-25 17 -16 39 -25 58 -25 29 0 32 3 37 38 2 20 -2 52 -10 72 -18 43 -43 189
-43 252 0 36 4 48 18 52 34 10 285 -2 292 -15 5 -8 22 -9 54 -5 38 6 56 2 106
-21 33 -15 60 -31 60 -35 0 -4 13 -8 28 -8 16 0 37 -9 47 -20 12 -13 29 -20
44 -18 25 3 25 5 27 85 l1 82 45 44 c25 24 49 54 53 66 3 12 15 21 26 21 10 0
19 4 19 9 0 5 14 12 30 16 17 4 30 11 30 16 0 5 16 9 35 9 23 0 35 5 35 14 0
32 214 56 243 27 6 -6 24 -11 39 -11 15 0 28 -4 28 -10 0 -5 14 -10 30 -10 17
0 30 -5 30 -12 0 -16 46 -38 76 -38 22 0 126 -64 132 -81 2 -5 10 -9 18 -9 8
0 14 -3 14 -7 1 -5 25 -24 54 -43 49 -31 55 -38 61 -80 22 -142 -24 -251 -125
-292 -56 -24 -105 -30 -134 -17 -30 14 -40 38 -37 94 2 58 -16 93 -60 116 -73
37 -131 17 -166 -58 -20 -44 -20 -47 -4 -93 9 -26 28 -63 43 -81 25 -34 97
-79 124 -79 8 0 22 -4 32 -9 56 -28 91 -32 147 -15 48 13 68 27 127 87 64 66
118 154 118 194 0 7 7 16 15 19 8 4 15 17 15 30 0 13 5 35 12 49 17 38 -8 130
-48 175 -17 19 -33 44 -35 55 -3 12 -26 32 -59 50 -31 17 -76 44 -101 62 -67
46 -171 92 -251 108 -78 17 -275 20 -298 5z"/>
</g>
</svg>
