<?xml version="1.0" standalone="no"?>
<!DOCTYPE svg PUBLIC "-//W3C//DTD SVG 20010904//EN"
 "http://www.w3.org/TR/2001/REC-SVG-20010904/DTD/svg10.dtd">
<svg version="1.0" xmlns="http://www.w3.org/2000/svg"
 width="2071.000000pt" height="468.000000pt" viewBox="0 0 2071.000000 468.000000"
 preserveAspectRatio="xMidYMid meet">
<metadata>
Created by potrace 1.13, written by Peter Selinger 2001-2015
</metadata>
<g transform="translate(0.000000,468.000000) scale(0.100000,-0.100000)"
fill="#000000" stroke="none">
<path d="M2113 4413 c-7 -2 -13 -21 -13 -42 0 -36 -21 -78 -46 -94 -7 -4 -11
-14 -7 -23 3 -9 -3 -21 -16 -30 -11 -8 -21 -20 -21 -25 0 -5 -11 -20 -25 -33
-14 -13 -25 -28 -25 -35 0 -6 -4 -11 -9 -11 -5 0 -12 -11 -15 -25 -14 -54
-192 -205 -243 -205 -12 0 -53 -32 -86 -67 -11 -13 -29 -23 -39 -23 -10 0 -18
-4 -18 -9 0 -5 -22 -18 -50 -30 -27 -12 -50 -25 -50 -29 0 -5 -32 -42 -71 -83
-39 -41 -79 -92 -89 -114 -10 -22 -29 -56 -42 -75 -13 -19 -32 -53 -41 -75
-34 -78 -43 -90 -63 -87 -10 1 -40 5 -66 8 -27 4 -48 11 -48 15 0 5 -34 9 -75
9 -58 0 -77 -4 -81 -15 -4 -8 -10 -12 -15 -10 -5 3 -19 -6 -31 -21 -13 -15
-28 -32 -33 -38 -38 -41 -55 -76 -49 -104 4 -17 1 -32 -5 -36 -14 -9 -15 -113
-1 -121 6 -3 10 -14 10 -23 0 -9 7 -30 15 -46 22 -42 19 -67 -14 -107 -29 -35
-44 -109 -27 -137 4 -6 10 -34 13 -61 5 -43 2 -54 -26 -94 -17 -25 -31 -49
-31 -52 0 -4 -8 -19 -18 -33 -23 -35 -42 -92 -47 -143 -3 -23 -16 -61 -30 -85
-14 -23 -25 -49 -25 -57 0 -8 -8 -32 -17 -53 -10 -22 -18 -50 -19 -64 -1 -14
-7 -69 -13 -123 -7 -65 -8 -112 -1 -140 5 -23 10 -69 10 -103 0 -56 14 -122
29 -134 8 -7 31 -95 31 -120 0 -11 9 -34 20 -52 11 -18 20 -41 20 -50 0 -10 4
-18 9 -18 5 0 11 -8 14 -18 4 -9 18 -37 32 -62 14 -25 25 -55 25 -67 0 -13 4
-23 9 -23 5 0 11 -28 14 -63 10 -105 24 -211 32 -229 4 -10 2 -40 -5 -67 -11
-46 -22 -64 -80 -128 -31 -34 -37 -79 -14 -104 18 -20 26 -21 119 -15 102 7
167 27 194 59 7 10 20 17 27 17 38 0 164 227 164 295 0 24 6 48 14 54 14 12
76 4 76 -10 0 -5 18 -9 40 -9 22 0 40 -4 40 -8 0 -13 119 -2 173 15 26 8 47
18 47 22 0 4 8 16 19 27 10 11 23 30 30 42 15 28 7 129 -13 167 -9 17 -16 38
-16 48 0 24 -29 67 -46 67 -19 0 -18 46 2 54 9 3 28 6 44 6 15 0 30 6 33 13 3
8 26 20 51 27 26 7 46 19 46 26 0 8 4 14 9 14 5 0 28 18 50 40 22 22 46 40 54
40 8 0 36 17 63 38 l49 37 94 -2 c51 -1 98 -6 104 -12 6 -6 23 -11 38 -11 21
0 30 8 44 37 33 70 12 183 -35 183 -5 0 -18 20 -29 45 -11 25 -26 45 -33 46
-34 2 -53 9 -64 24 -7 9 -29 19 -50 22 -22 3 -44 10 -51 15 -8 6 -37 3 -82 -7
-77 -19 -101 -16 -101 14 0 24 -100 131 -123 131 -9 0 -17 7 -17 15 0 8 -15
17 -37 21 -21 4 -40 10 -43 14 -3 4 -34 10 -70 13 -61 5 -66 4 -84 -20 -16
-22 -17 -28 -5 -37 8 -6 26 -37 41 -68 21 -44 28 -77 33 -155 7 -110 -2 -139
-49 -162 -36 -17 -174 -22 -200 -7 -29 16 -65 59 -66 76 0 9 -9 22 -20 30 -11
8 -20 24 -20 35 0 12 -4 25 -8 31 -5 5 -17 44 -28 87 -17 75 -18 80 -1 109 9
16 17 37 17 46 0 9 9 28 20 42 11 14 20 31 20 39 0 34 94 111 137 111 7 0 13
6 13 14 0 27 271 32 320 6 10 -6 29 -10 42 -10 13 0 33 -7 44 -15 10 -8 28
-15 39 -15 11 0 28 -9 38 -20 9 -11 26 -20 37 -20 11 0 20 -7 20 -15 0 -8 6
-15 13 -15 6 0 27 -14 45 -30 19 -16 47 -35 63 -42 16 -7 29 -18 29 -24 0 -5
9 -20 20 -32 11 -12 20 -26 20 -32 0 -6 7 -13 16 -17 21 -8 74 -59 74 -72 0
-5 13 -20 29 -33 16 -14 32 -34 35 -45 4 -12 22 -31 41 -44 19 -13 38 -33 41
-44 4 -10 18 -32 33 -47 39 -41 51 -56 51 -65 0 -5 14 -23 30 -41 17 -18 30
-37 30 -42 0 -5 9 -14 20 -20 11 -6 20 -17 20 -25 0 -8 16 -27 35 -42 19 -15
35 -33 35 -40 0 -6 9 -14 20 -18 11 -3 29 -23 41 -44 16 -29 31 -42 61 -50 22
-7 53 -27 70 -46 16 -19 39 -37 51 -41 11 -4 27 -13 34 -20 8 -7 29 -16 48
-20 20 -3 35 -12 35 -20 0 -8 8 -14 17 -14 9 0 25 -8 35 -17 10 -9 32 -16 48
-16 18 0 30 -6 30 -14 0 -7 11 -13 25 -13 14 0 25 -4 25 -9 0 -6 21 -13 48
-16 26 -4 52 -14 59 -22 6 -8 29 -17 51 -20 l41 -5 6 -74 c6 -57 13 -81 34
-109 14 -19 34 -34 44 -35 9 0 17 -4 17 -10 0 -5 6 -10 13 -10 6 0 26 -8 42
-17 30 -16 134 -20 198 -7 25 5 27 3 27 -25 0 -16 5 -33 10 -36 6 -3 10 -28
10 -55 0 -30 6 -54 15 -64 8 -8 15 -26 15 -39 0 -30 55 -87 85 -87 12 0 30 7
41 15 10 8 31 15 47 15 16 0 27 5 27 14 0 7 8 16 18 20 40 13 104 72 128 117
13 25 17 27 34 17 11 -7 20 -19 20 -26 0 -15 8 -25 66 -89 40 -44 43 -45 103
-46 34 0 72 5 86 11 14 7 37 18 53 24 25 12 69 49 127 105 28 28 45 29 73 3
12 -11 30 -20 41 -20 11 0 25 -9 31 -20 8 -14 21 -20 46 -20 20 0 37 -6 40
-14 3 -8 25 -19 49 -26 24 -7 46 -18 49 -26 3 -7 22 -16 43 -20 21 -4 43 -10
49 -15 5 -4 77 -11 160 -14 122 -5 157 -4 193 9 24 9 57 16 73 16 16 0 53 11
81 24 42 19 163 56 183 56 2 0 4 6 4 14 0 8 13 17 30 21 16 4 32 11 35 16 4 5
15 9 26 9 10 0 19 5 19 10 0 6 9 10 20 10 11 0 20 7 20 15 0 8 8 15 18 15 21
1 52 23 52 39 0 6 8 11 18 11 19 0 72 45 72 60 0 6 8 10 18 10 21 1 52 23 52
39 0 6 5 11 11 11 5 0 8 4 4 9 -3 5 6 19 21 30 14 11 23 25 19 31 -3 5 3 10
14 10 11 0 26 10 32 22 11 20 72 83 115 118 10 8 32 20 49 25 16 6 30 15 30
20 1 24 71 83 108 89 26 5 37 12 37 24 0 10 14 23 33 31 17 7 45 20 61 27 16
8 40 14 53 14 12 0 23 5 23 10 0 6 15 10 33 10 18 0 38 5 44 11 8 8 50 9 156
1 139 -10 146 -11 174 -39 17 -15 60 -54 97 -86 38 -34 66 -67 66 -78 0 -11
11 -37 25 -59 14 -22 25 -42 25 -46 0 -3 6 -12 13 -19 20 -19 7 -165 -14 -165
-5 0 -9 -7 -9 -15 0 -9 -16 -31 -35 -49 -36 -35 -46 -66 -21 -66 8 0 16 -5 18
-10 2 -6 59 -13 130 -16 170 -8 230 10 313 94 12 12 30 22 39 22 9 0 16 7 16
15 0 8 4 15 10 15 5 0 12 11 16 24 6 25 69 52 80 35 3 -5 21 -9 40 -9 20 0 37
-6 40 -14 3 -8 26 -17 52 -21 26 -4 53 -12 61 -18 21 -18 192 -12 229 7 17 9
47 16 66 16 25 0 38 6 46 20 6 11 17 20 25 20 16 0 85 39 85 48 0 8 72 37 115
47 17 4 38 14 48 22 16 16 16 17 -4 36 -16 15 -44 21 -135 28 -62 5 -125 14
-140 19 -14 6 -36 10 -49 10 -13 0 -30 6 -37 13 -21 20 -81 53 -111 61 -15 3
-27 12 -27 20 0 7 -12 19 -27 26 -33 17 -112 69 -131 88 -7 6 -16 12 -20 12
-11 0 -82 66 -82 76 0 5 -21 27 -47 49 -26 22 -67 59 -92 82 -24 24 -48 43
-53 43 -5 0 -14 14 -20 30 -6 18 -23 37 -42 47 -17 9 -33 19 -36 22 -11 13
-70 51 -80 51 -5 0 -10 5 -10 10 0 6 -11 10 -25 10 -13 0 -28 6 -32 14 -10 16
-57 40 -98 50 -16 4 -49 16 -73 27 -24 11 -65 22 -92 24 -27 1 -53 6 -58 9 -5
3 -68 8 -141 11 -72 2 -140 9 -150 14 -13 8 -22 5 -35 -11 -15 -17 -25 -19
-57 -14 -50 8 -170 -4 -163 -15 3 -5 -2 -9 -11 -9 -45 0 -162 -36 -185 -57
-14 -13 -34 -26 -45 -29 -11 -4 -33 -17 -48 -30 -16 -13 -41 -24 -57 -24 -27
0 -29 3 -40 71 -7 42 -22 86 -36 107 -13 19 -24 38 -24 43 0 4 -10 11 -22 15
-13 4 -28 14 -34 22 -6 8 -21 16 -35 17 -13 2 -48 8 -78 14 -29 6 -71 11 -92
11 -37 0 -139 -43 -139 -59 0 -5 -18 -30 -39 -57 -32 -38 -39 -53 -34 -76 l6
-28 -70 0 c-42 0 -74 5 -82 13 -29 29 -254 -2 -312 -43 -15 -11 -31 -20 -36
-20 -19 -1 -81 -69 -100 -110 -3 -8 -15 -26 -25 -39 -10 -13 -18 -36 -18 -50
0 -15 -4 -31 -9 -36 -5 -6 -11 -40 -15 -76 -6 -66 -6 -66 32 -108 37 -40 66
-50 106 -35 36 14 -12 103 -56 104 -22 0 -22 8 -2 71 9 27 22 49 30 49 8 0 14
4 14 9 0 4 33 11 72 14 54 5 80 2 102 -8 16 -8 40 -15 53 -15 12 0 23 -4 23
-9 0 -5 8 -11 18 -15 25 -8 56 -29 65 -44 5 -7 12 -10 18 -7 5 4 9 0 9 -8 0
-8 14 -28 30 -45 17 -18 30 -35 30 -39 0 -5 9 -19 20 -33 11 -14 20 -34 20
-45 1 -11 7 -37 14 -58 12 -34 12 -42 -6 -78 -22 -47 -91 -119 -114 -119 -8 0
-12 -5 -9 -10 3 -6 -1 -10 -9 -10 -9 0 -16 -4 -16 -9 0 -13 -17 -17 -125 -36
-77 -13 -102 -13 -179 -1 -59 9 -91 18 -97 29 -5 8 -25 21 -43 27 -19 6 -54
29 -78 51 -24 21 -49 39 -55 39 -7 0 -13 9 -13 19 0 22 -31 81 -43 81 -13 0
-28 52 -32 107 -1 28 -12 72 -25 97 -21 44 -35 150 -22 171 4 6 7 22 8 37 3
56 15 118 25 123 5 4 9 21 9 40 0 20 6 35 15 39 8 3 15 14 15 24 0 10 11 25
25 32 14 8 24 19 21 25 -2 6 5 17 15 23 10 7 19 19 19 27 0 8 7 15 15 15 8 0
15 9 15 20 0 11 4 20 9 20 5 0 16 6 23 13 7 7 34 23 61 37 26 14 47 28 47 32
0 5 6 8 13 8 7 0 24 11 39 25 15 14 32 25 38 25 6 0 18 7 26 15 9 8 24 15 34
15 10 0 20 7 24 15 3 8 12 12 20 9 8 -3 26 2 40 11 14 9 30 14 35 11 5 -4 13
0 18 8 6 11 42 18 131 25 68 6 128 9 133 5 5 -3 24 -1 42 5 34 11 226 35 267
33 14 -1 106 -3 205 -6 186 -5 324 -19 362 -38 12 -6 37 -8 57 -4 19 4 43 3
53 -2 10 -5 39 -19 64 -32 25 -13 55 -21 65 -18 11 3 25 -1 32 -9 7 -7 32 -13
55 -13 52 0 148 -25 157 -41 4 -6 24 -11 44 -11 20 0 39 -5 44 -11 12 -20 50
-37 82 -37 16 0 30 -4 30 -10 0 -5 12 -10 28 -10 16 0 32 -8 39 -20 7 -10 31
-24 52 -30 22 -6 47 -17 55 -25 8 -8 24 -15 35 -15 11 0 23 -5 26 -10 3 -6 15
-10 26 -10 10 0 19 -4 19 -10 0 -5 11 -10 24 -10 13 0 26 -7 30 -15 3 -8 12
-15 21 -15 8 0 15 -4 15 -10 0 -5 9 -10 19 -10 11 0 23 -4 26 -10 3 -5 23 -17
43 -27 20 -9 39 -19 42 -22 10 -12 50 -31 64 -31 8 0 16 -7 20 -15 3 -8 14
-15 25 -15 11 0 22 -4 25 -9 3 -4 26 -14 51 -21 25 -7 45 -19 45 -26 0 -7 16
-16 35 -20 19 -3 39 -12 46 -20 6 -8 20 -14 30 -14 11 0 19 -4 19 -10 0 -5 16
-12 35 -16 20 -3 41 -15 49 -25 7 -10 28 -22 47 -26 19 -3 40 -14 47 -24 6
-10 26 -20 42 -24 17 -4 30 -10 30 -14 0 -4 27 -20 60 -36 33 -17 60 -33 60
-37 0 -5 13 -8 29 -8 17 0 33 -4 36 -10 3 -5 17 -10 31 -10 13 0 24 -4 24 -9
0 -14 58 -40 102 -47 21 -4 38 -10 38 -15 0 -5 15 -9 33 -9 17 0 47 -9 65 -20
18 -11 41 -20 52 -20 11 0 20 -4 20 -10 0 -5 14 -10 31 -10 29 0 30 -1 23 -32
-12 -50 -5 -142 16 -224 23 -90 51 -120 118 -130 26 -3 53 -11 60 -17 7 -5 52
-10 100 -11 76 0 93 3 136 27 59 33 102 35 111 7 3 -11 12 -20 19 -20 7 0 36
-22 65 -50 34 -33 61 -50 77 -50 14 0 35 -11 49 -26 21 -22 32 -26 95 -27 58
-2 73 1 81 15 5 9 15 23 22 30 21 21 51 91 52 120 1 51 18 52 80 3 32 -25 67
-45 77 -45 10 0 18 -7 18 -15 0 -8 6 -15 13 -15 8 0 24 -11 37 -26 18 -18 31
-23 47 -19 13 3 23 1 23 -4 0 -5 13 -12 29 -16 22 -5 35 -1 50 14 12 12 28 21
36 21 9 0 12 6 8 16 -3 10 1 17 13 20 11 3 27 23 36 45 14 33 21 39 47 39 17
0 31 -4 31 -8 0 -4 15 -16 33 -27 39 -23 52 -34 79 -62 12 -13 30 -23 40 -23
10 0 18 -4 18 -10 0 -5 7 -10 15 -10 17 0 97 -38 105 -50 3 -4 28 -10 55 -13
28 -4 88 -12 135 -19 141 -20 387 -6 406 23 3 5 16 9 29 9 13 0 26 4 30 9 3 6
26 13 50 17 25 3 45 10 45 15 0 5 6 9 14 9 8 0 16 5 18 10 2 6 23 17 47 26 24
8 57 28 73 44 16 17 37 30 46 30 9 0 31 14 49 30 18 17 35 30 38 30 4 0 20 13
35 30 15 16 26 30 24 30 -3 0 7 11 21 25 14 14 25 30 25 36 0 5 11 15 25 21
14 6 25 16 25 23 0 6 11 21 25 33 14 12 25 26 25 32 0 5 7 10 15 10 8 0 29 14
47 30 17 17 35 30 41 30 6 0 24 10 41 23 45 33 105 67 120 67 7 0 28 7 46 16
25 13 45 15 89 9 31 -4 76 -8 101 -9 43 -2 90 -22 90 -38 0 -5 11 -8 24 -8 23
0 76 -49 76 -71 0 -5 7 -9 15 -9 8 0 15 -4 15 -8 0 -5 9 -19 19 -31 10 -12 22
-41 25 -65 4 -24 13 -52 21 -62 8 -11 10 -25 5 -34 -4 -8 -10 -30 -13 -48 -3
-19 -14 -43 -24 -54 -10 -12 -30 -35 -45 -52 -16 -17 -28 -37 -28 -45 0 -18
62 -100 76 -101 5 0 20 -9 31 -20 34 -31 104 -44 171 -32 31 6 73 10 92 9 28
-2 37 3 45 21 9 21 34 35 65 36 8 1 19 17 24 36 6 19 18 42 28 52 10 10 18 23
18 29 0 11 6 11 293 -7 78 -5 107 -4 107 4 0 7 9 12 19 12 11 0 22 4 25 9 3 4
32 11 65 15 60 7 79 18 171 97 14 12 39 28 57 35 38 17 47 28 39 57 -7 28 -48
45 -108 46 -27 0 -56 4 -65 9 -10 5 -46 12 -81 15 -34 3 -68 9 -75 15 -7 5
-27 12 -46 16 -31 6 -90 32 -175 78 -17 9 -39 17 -49 18 -10 0 -20 7 -23 15
-4 8 -11 15 -18 15 -6 0 -33 20 -59 45 -27 24 -61 52 -78 62 -16 10 -29 23
-29 29 0 7 -21 30 -47 51 -27 21 -54 46 -61 56 -7 9 -20 17 -28 17 -8 0 -14 7
-14 15 0 9 -8 19 -17 22 -9 4 -25 15 -35 25 -10 10 -25 18 -33 18 -8 0 -15 5
-15 10 0 6 -7 10 -16 10 -14 0 -70 33 -84 50 -9 11 -78 40 -94 40 -9 0 -16 4
-16 9 0 5 -19 12 -42 15 -257 39 -362 46 -513 34 -204 -15 -189 -16 -195 12
-14 67 -116 200 -154 200 -8 0 -18 5 -22 11 -5 8 -31 10 -79 6 -64 -5 -76 -9
-104 -36 -17 -17 -35 -31 -40 -31 -14 0 -61 -52 -77 -87 -14 -29 -21 -33 -53
-33 -24 0 -49 9 -71 25 -19 14 -42 25 -52 25 -10 0 -26 4 -36 9 -54 29 -101
44 -137 45 -51 0 -117 -13 -111 -23 3 -4 -15 -13 -40 -20 -24 -7 -44 -16 -44
-20 0 -4 -11 -14 -25 -21 -14 -7 -25 -19 -25 -27 0 -7 -5 -13 -11 -13 -7 0 -9
-15 -6 -39 2 -22 0 -44 -5 -49 -4 -4 -9 -40 -11 -78 l-2 -69 30 2 c114 8 165
-3 165 -34 0 -7 6 -13 14 -13 16 0 38 -43 61 -124 27 -95 26 -107 -17 -148
-21 -21 -45 -38 -53 -38 -8 0 -15 -4 -15 -10 0 -18 -78 -30 -176 -25 -124 5
-168 16 -201 49 -14 14 -32 26 -39 26 -8 0 -14 6 -14 13 0 8 -7 28 -16 46 -17
35 -39 225 -27 244 4 7 9 21 10 31 2 11 8 25 13 31 5 7 7 15 3 18 -3 4 4 15
15 26 12 10 22 23 22 28 0 22 26 63 41 63 8 0 34 20 57 45 23 25 46 45 51 45
5 0 11 7 15 15 3 8 10 15 16 15 12 0 50 37 50 49 0 5 13 14 30 19 16 6 41 22
55 36 14 15 31 26 37 26 5 0 8 6 5 14 -4 11 6 16 41 21 40 5 50 11 61 35 9 21
22 31 46 36 19 3 39 12 46 20 6 8 19 14 29 14 10 0 20 7 24 15 3 8 15 15 26
15 11 0 20 4 20 10 0 5 23 9 51 8 29 0 54 4 58 11 10 15 142 49 224 57 37 4
67 11 67 17 0 5 11 7 25 5 23 -5 137 20 161 35 5 3 45 1 88 -5 52 -7 90 -7
117 0 21 5 41 6 44 2 3 -4 32 -11 65 -15 41 -5 60 -11 60 -21 0 -8 9 -14 19
-14 11 0 23 -4 26 -10 3 -5 19 -10 34 -10 16 0 42 -7 57 -15 16 -8 39 -15 50
-15 12 0 24 -7 28 -15 3 -8 16 -15 29 -15 13 0 27 -4 33 -10 5 -5 28 -12 52
-14 45 -6 82 -23 95 -43 4 -7 17 -13 27 -13 11 0 20 -4 20 -10 0 -5 11 -10 24
-10 13 0 26 -6 29 -14 3 -7 22 -16 41 -20 22 -4 36 -13 36 -21 0 -10 10 -15
30 -15 17 0 30 -4 30 -10 0 -5 8 -10 18 -10 9 0 29 -11 44 -25 15 -14 32 -25
38 -25 6 0 28 -11 48 -25 20 -14 40 -25 44 -25 4 0 18 -9 30 -21 28 -25 131
-103 138 -105 33 -6 63 -19 73 -33 18 -24 74 -61 92 -61 9 0 18 -7 21 -15 4
-8 12 -15 20 -15 8 0 14 -4 14 -10 0 -5 6 -10 13 -10 7 0 26 -13 42 -30 16
-16 35 -30 42 -30 7 0 22 -8 32 -18 10 -9 30 -27 43 -39 13 -12 41 -24 61 -28
20 -4 37 -11 37 -16 0 -5 11 -9 24 -9 14 0 28 -5 31 -10 3 -5 14 -10 25 -10
10 0 20 -6 23 -14 4 -9 26 -17 54 -21 26 -3 56 -10 65 -16 10 -5 25 -9 33 -9
8 0 15 -5 15 -10 0 -6 23 -10 53 -9 28 0 86 -4 127 -10 41 -6 103 -11 138 -11
62 0 74 -7 48 -30 -15 -12 -16 -59 -1 -135 9 -49 62 -145 79 -145 7 0 23 -11
35 -24 19 -20 33 -25 75 -25 28 0 75 -5 105 -11 76 -14 138 -13 148 4 4 8 19
16 32 18 19 2 28 -6 49 -47 29 -56 98 -135 118 -135 7 0 17 -7 21 -14 5 -10
32 -17 73 -22 57 -5 72 -3 123 19 31 14 57 32 57 39 0 7 9 19 20 26 12 7 18
17 15 21 -2 5 1 11 9 14 8 3 16 16 18 29 3 25 45 38 58 18 8 -14 92 -15 170
-3 48 7 58 13 85 50 36 51 65 62 99 36 14 -10 26 -22 26 -28 0 -14 62 -55 83
-55 8 0 19 -4 22 -10 3 -5 13 -10 21 -10 8 0 27 -11 42 -25 16 -15 44 -27 72
-31 25 -4 50 -11 57 -16 6 -5 22 -6 35 -3 14 4 62 1 106 -5 69 -9 87 -9 114 4
18 9 58 20 88 26 30 6 73 20 95 31 22 12 61 32 88 45 26 13 47 28 47 33 0 5
20 18 45 30 24 11 54 34 66 51 13 16 29 30 36 30 7 0 13 6 13 13 0 13 56 67
70 67 4 0 11 11 14 25 9 34 36 65 58 65 11 0 18 7 18 19 0 10 7 24 15 31 8 7
15 18 15 24 0 6 9 17 20 24 11 7 20 18 20 25 0 6 14 20 31 29 21 12 29 23 25
35 -4 14 7 24 45 42 31 16 48 30 45 38 -3 8 5 15 19 19 14 3 25 10 25 15 0 4
17 11 38 15 20 3 48 13 60 21 18 11 39 13 82 8 38 -4 60 -3 64 4 16 26 89 0
106 -37 5 -13 15 -20 20 -17 6 3 10 0 10 -9 0 -8 4 -16 10 -18 5 -1 12 -34 15
-73 4 -38 7 -72 7 -75 1 -5 -12 -39 -34 -91 -13 -29 -109 -99 -138 -99 -16 0
-18 -5 -13 -37 9 -68 44 -127 82 -139 19 -6 40 -18 46 -28 7 -9 26 -16 43 -16
17 0 32 -5 34 -10 6 -18 159 -14 193 4 17 9 35 16 41 16 22 0 102 86 115 123
7 21 20 44 29 51 17 15 90 29 90 17 0 -17 107 -19 187 -2 45 9 85 20 89 24 4
4 15 7 25 7 10 0 21 9 24 20 3 11 12 20 19 20 6 0 33 20 59 45 43 40 48 49 45
83 -3 35 -5 37 -38 39 -19 1 -68 -1 -107 -6 -40 -4 -73 -4 -73 1 0 4 -18 8
-40 8 -22 0 -40 5 -40 10 0 6 -7 10 -16 10 -33 0 -117 72 -129 110 -3 11 -11
20 -16 20 -5 0 -9 7 -9 16 0 9 -14 36 -30 61 -17 24 -30 50 -30 58 0 8 -5 27
-11 42 -33 82 -54 113 -78 113 -7 0 -28 15 -45 33 -72 74 -158 130 -218 141
-21 4 -38 11 -38 15 0 11 -60 32 -71 25 -5 -2 -21 2 -36 9 -57 30 -452 52
-461 26 -7 -17 -33 -9 -65 21 -18 16 -37 30 -43 30 -6 0 -17 7 -24 15 -9 11
-32 14 -98 11 -98 -3 -165 -25 -156 -50 4 -11 0 -16 -13 -16 -25 0 -49 -27
-59 -63 -6 -28 -9 -29 -53 -23 -98 12 -211 6 -247 -15 -19 -10 -44 -19 -55
-19 -12 0 -24 -10 -30 -28 -18 -44 -42 -86 -53 -94 -6 -4 -11 -33 -11 -65 1
-50 5 -62 28 -85 33 -33 45 -34 94 -8 30 15 49 18 91 13 45 -5 57 -11 81 -42
18 -23 31 -54 35 -86 4 -27 9 -57 12 -66 3 -9 -1 -23 -9 -31 -7 -7 -12 -18
-10 -25 2 -6 -1 -14 -6 -18 -6 -3 -11 -19 -11 -36 0 -19 -5 -29 -15 -29 -17 0
-55 -35 -55 -50 0 -6 -13 -13 -29 -16 -16 -4 -38 -14 -49 -25 -24 -21 -126
-29 -144 -11 -7 7 -24 12 -39 12 -15 0 -31 5 -34 10 -3 6 -13 10 -21 10 -8 0
-27 13 -43 29 -15 15 -32 30 -38 32 -6 2 -29 25 -50 52 -34 40 -41 59 -52 125
-20 125 -20 144 -3 170 12 19 13 28 4 43 -16 25 -15 43 5 87 9 20 15 40 14 45
0 4 9 11 21 16 25 10 73 69 64 78 -9 10 25 43 44 43 10 0 23 7 30 15 7 8 23
15 36 15 22 0 51 34 46 52 -4 14 46 9 51 -4 6 -20 55 10 59 36 3 22 27 29 128
42 25 3 54 9 65 14 19 8 62 22 145 48 19 7 58 11 85 10 28 -1 111 4 185 11 88
7 146 8 167 2 20 -6 57 -6 93 -1 64 9 127 4 147 -13 7 -5 24 -6 38 -3 14 4 25
3 25 -2 0 -5 29 -15 65 -22 36 -7 65 -18 65 -23 0 -6 3 -7 6 -4 4 3 16 0 28
-8 11 -8 31 -15 43 -15 13 0 23 -5 23 -11 0 -5 5 -7 10 -4 6 3 10 0 10 -8 0
-9 20 -18 55 -26 30 -7 55 -16 55 -21 0 -4 20 -20 45 -34 25 -15 45 -31 45
-36 0 -6 11 -10 24 -10 13 0 26 -7 30 -15 3 -8 12 -15 21 -15 8 0 15 -6 15
-13 0 -7 16 -19 35 -27 19 -8 35 -17 35 -22 0 -4 8 -8 18 -8 9 0 35 -16 57
-35 22 -19 43 -35 47 -35 12 0 48 -39 48 -51 0 -6 6 -9 14 -6 8 3 20 -1 26 -9
7 -8 19 -14 26 -14 8 0 14 -7 14 -15 0 -8 5 -15 10 -15 6 0 10 -7 10 -15 0 -8
7 -15 15 -15 8 0 15 -4 15 -9 0 -5 13 -14 30 -21 16 -7 61 -42 99 -79 38 -36
79 -73 90 -81 12 -8 21 -20 21 -27 0 -7 5 -13 10 -13 15 0 63 -51 80 -84 8
-17 25 -41 38 -54 12 -14 22 -31 22 -38 0 -23 -38 -54 -65 -54 -15 0 -31 -9
-41 -25 -9 -14 -22 -25 -28 -25 -16 0 -116 -93 -116 -108 0 -7 -8 -12 -19 -12
-21 0 -76 -74 -66 -89 3 -6 0 -11 -8 -11 -8 0 -25 -21 -38 -46 -13 -26 -29
-49 -36 -51 -7 -3 -13 -13 -13 -22 0 -10 -7 -26 -15 -37 -8 -10 -15 -26 -15
-35 0 -9 -18 -41 -40 -73 -22 -31 -40 -62 -40 -67 0 -18 -72 -129 -83 -129 -6
0 -8 -3 -5 -6 4 -3 -2 -14 -13 -25 -10 -10 -19 -26 -19 -34 0 -8 -5 -15 -10
-15 -6 0 -20 -8 -31 -19 -21 -20 -68 -31 -134 -31 -22 0 -47 -5 -55 -10 -24
-15 25 -60 67 -60 18 0 33 -5 33 -10 0 -40 262 -42 367 -3 50 19 117 71 139
109 16 27 54 31 61 5 3 -12 19 -25 39 -31 19 -7 34 -18 34 -26 0 -8 10 -14 23
-14 13 0 28 -5 35 -12 14 -14 80 -38 107 -38 12 0 26 -5 33 -12 8 -8 38 -11
81 -10 38 2 72 -2 75 -7 9 -15 104 18 134 46 34 33 -16 123 -69 123 -16 0 -29
4 -29 10 0 5 -11 12 -25 16 -14 4 -23 9 -20 12 8 8 -26 42 -41 42 -8 0 -16 11
-20 24 -3 14 -12 27 -20 30 -12 5 -15 26 -13 103 2 83 6 107 30 158 15 33 40
69 55 80 16 11 36 28 46 37 10 10 27 18 37 18 17 0 18 -4 9 -34 -19 -61 1 -95
121 -211 40 -39 51 -44 109 -50 39 -4 67 -3 71 3 3 5 23 17 44 25 20 9 37 23
37 31 0 8 13 20 30 28 16 7 30 20 30 30 0 9 4 18 10 20 5 1 11 17 12 33 2 42
15 56 41 45 50 -19 66 -22 147 -26 58 -2 88 -8 95 -17 8 -12 31 -13 125 -6
147 10 220 19 243 31 26 13 141 12 145 -2 2 -6 17 -8 38 -4 20 4 34 2 34 -4 0
-5 27 -9 63 -8 63 2 127 -11 127 -26 0 -4 7 -8 15 -8 8 0 15 -7 15 -15 0 -8 9
-15 20 -15 12 0 32 -12 45 -26 13 -14 28 -23 34 -20 11 7 51 -40 51 -59 0 -24
25 -36 45 -21 16 12 19 27 18 117 -1 66 -5 105 -12 107 -6 2 -11 13 -11 25 0
23 -39 110 -52 115 -5 2 -8 8 -8 14 0 12 -26 38 -38 38 -5 0 -15 17 -21 38
-12 34 -11 43 5 73 24 45 26 205 3 223 -9 6 -24 24 -35 41 -31 49 -47 65 -66
65 -10 0 -18 4 -18 9 0 5 -22 11 -49 15 -59 8 -66 24 -44 94 22 67 10 197 -18
212 -12 7 -19 21 -19 40 0 16 -4 32 -10 35 -5 3 -14 23 -20 44 -6 23 -21 46
-36 56 -14 9 -34 25 -45 36 -10 10 -24 19 -31 19 -6 0 -27 12 -46 26 -28 22
-39 25 -61 18 -20 -8 -25 -15 -22 -34 8 -56 9 -275 1 -285 -5 -6 -14 -32 -20
-58 -7 -26 -16 -47 -20 -47 -4 0 -11 -11 -14 -25 -19 -74 -206 -285 -254 -285
-12 0 -25 -7 -28 -15 -4 -9 -26 -17 -55 -21 -34 -5 -49 -11 -49 -22 0 -12 -9
-14 -42 -9 -24 2 -70 1 -103 -3 -46 -6 -63 -4 -71 6 -6 8 -27 14 -47 14 -40 0
-87 18 -87 33 0 5 -9 7 -19 4 -12 -3 -22 1 -25 9 -3 8 -17 19 -31 24 -14 5
-25 14 -25 19 0 5 -13 14 -30 21 -17 7 -30 20 -30 30 0 19 -30 50 -48 50 -7 0
-12 5 -12 11 0 14 -25 39 -39 39 -6 0 -11 4 -11 10 0 5 -13 25 -30 43 -16 19
-30 39 -30 45 0 5 -7 12 -15 16 -8 3 -15 10 -15 16 0 6 -7 18 -15 26 -20 21
-19 34 3 34 10 0 28 10 39 23 12 12 35 35 52 51 17 16 31 33 31 38 0 4 7 8 15
8 8 0 15 7 15 16 0 9 10 37 22 61 22 44 22 45 6 156 -10 67 -22 115 -31 122
-7 5 -17 22 -20 36 -4 14 -22 41 -42 60 -19 19 -35 42 -35 52 0 10 -8 17 -19
17 -11 0 -26 6 -33 14 -18 17 -40 24 -108 31 -30 4 -58 9 -62 11 -14 9 -9 22
12 27 11 3 20 13 20 24 0 10 10 23 22 28 12 6 26 19 32 30 16 28 33 45 45 45
6 0 11 6 11 14 0 8 12 24 26 35 14 11 23 24 20 30 -3 5 1 11 9 15 8 3 15 17
15 31 0 15 6 25 15 25 16 0 31 43 20 59 -3 6 -2 11 3 11 4 0 16 24 25 54 16
50 20 54 54 59 26 5 42 2 53 -8 9 -8 31 -15 48 -15 18 0 32 -5 32 -11 0 -7 11
-9 33 -4 17 3 71 11 118 17 78 10 88 14 103 39 9 15 16 34 16 43 0 9 4 16 8
16 5 0 15 18 22 40 11 32 11 50 0 100 -7 33 -17 63 -21 66 -5 3 -9 16 -9 29 0
12 -7 25 -15 29 -8 3 -15 12 -15 20 0 7 -20 23 -45 35 -25 12 -45 25 -45 30 0
5 -21 14 -46 20 -46 12 -46 12 -41 48 7 38 32 73 53 73 7 0 16 9 19 21 10 30
46 70 73 80 12 5 22 15 22 23 0 7 11 17 25 20 15 4 27 16 31 31 3 14 12 25 20
25 8 0 14 9 14 20 0 14 7 20 23 20 23 0 87 66 87 89 0 5 6 14 13 18 17 10 41
55 61 113 17 47 21 80 18 143 -2 38 -3 38 -34 32 -18 -4 -42 -17 -53 -31 -12
-13 -28 -24 -38 -24 -9 0 -17 -6 -17 -13 0 -35 -99 -107 -168 -122 -18 -4 -36
-13 -39 -21 -3 -8 -14 -14 -24 -14 -11 0 -38 -8 -62 -19 -23 -10 -62 -26 -87
-36 -25 -9 -57 -23 -72 -31 -14 -8 -33 -14 -42 -14 -9 0 -38 -13 -64 -30 -27
-16 -53 -30 -57 -30 -4 0 -30 -23 -58 -51 -47 -48 -53 -51 -90 -46 -22 3 -44
11 -48 19 -5 7 -9 9 -9 5 0 -4 -15 3 -33 17 -29 22 -44 26 -104 26 -51 0 -74
-4 -83 -15 -7 -8 -23 -15 -37 -15 -26 0 -58 -27 -93 -80 -13 -19 -34 -45 -46
-58 -13 -13 -24 -36 -26 -50 -2 -22 -7 -26 -28 -24 -14 2 -33 12 -42 23 -10
10 -35 21 -55 25 -21 4 -43 11 -49 15 -6 5 -19 7 -28 3 -9 -3 -22 -2 -29 4
-13 10 -174 0 -276 -18 -30 -6 -71 -10 -91 -10 -20 0 -45 -7 -56 -15 -10 -8
-31 -15 -46 -15 -14 0 -28 -5 -30 -10 -2 -6 -35 -15 -73 -21 -38 -5 -85 -14
-105 -19 -19 -5 -84 -14 -145 -20 -101 -9 -112 -9 -135 8 -14 11 -35 22 -48
26 -34 11 -108 108 -121 160 -9 36 -17 47 -36 52 -33 8 -53 -9 -61 -52 -3 -19
-10 -37 -15 -40 -12 -7 -11 -108 2 -163 5 -24 19 -56 30 -70 47 -60 174 -181
191 -181 10 0 18 -4 18 -9 0 -5 3 -16 6 -24 3 -8 -1 -21 -9 -29 -19 -18 -22
-56 -13 -133 7 -59 9 -61 64 -100 l57 -41 85 7 c47 4 100 8 118 8 22 1 41 10
56 26 31 33 61 32 80 -2 8 -16 15 -25 16 -21 0 10 60 -52 60 -63 0 -5 7 -9 15
-9 8 0 15 -4 15 -10 0 -5 6 -10 14 -10 8 0 22 -7 31 -16 9 -9 25 -14 35 -11
11 3 23 1 26 -4 3 -5 18 -9 35 -9 16 0 29 -4 29 -10 0 -5 13 -10 29 -10 17 0
32 -4 35 -9 6 -9 143 10 164 22 6 5 12 14 12 22 0 7 10 17 22 21 28 9 48 28
48 48 0 8 5 18 11 22 14 8 2 56 -18 71 -18 14 -57 8 -88 -13 -25 -18 -56 -18
-81 1 -10 8 -33 15 -50 15 -43 0 -80 43 -87 101 -6 41 -3 52 23 88 17 23 41
43 57 47 16 4 37 13 48 20 11 8 32 14 47 14 15 0 30 5 34 11 4 7 21 9 45 5 21
-3 59 -1 84 6 38 10 48 10 54 -1 6 -9 19 -12 37 -8 34 6 104 -20 104 -39 0 -8
9 -14 19 -14 12 0 21 -9 25 -25 4 -14 10 -25 14 -25 5 0 19 -23 33 -52 17 -37
21 -52 11 -56 -6 -2 -12 -12 -12 -23 0 -10 -4 -19 -9 -19 -5 0 -18 -19 -30
-42 -11 -24 -30 -49 -41 -56 -11 -7 -20 -19 -20 -27 0 -9 -9 -15 -22 -15 -12
0 -35 -16 -55 -40 -22 -25 -43 -40 -58 -40 -12 0 -28 -6 -34 -14 -7 -9 -42
-17 -87 -21 -41 -4 -77 -11 -80 -16 -8 -13 -84 -11 -84 2 0 7 -16 8 -45 3 -30
-4 -50 -2 -60 6 -9 8 -29 10 -50 7 -19 -3 -37 -1 -41 4 -3 5 -20 9 -37 9 -43
0 -110 11 -122 20 -5 4 -39 9 -75 10 -106 4 -114 5 -126 13 -7 4 -31 6 -54 5
-23 -1 -45 4 -49 10 -4 6 -32 13 -63 16 -31 3 -67 10 -79 17 -16 8 -61 10
-151 7 -71 -3 -128 -2 -128 3 0 5 -68 7 -152 5 -121 -3 -176 -10 -260 -30 -59
-14 -130 -26 -157 -26 -29 0 -53 -6 -60 -14 -6 -7 -33 -16 -60 -19 -27 -3 -71
-17 -99 -30 -28 -14 -67 -28 -88 -31 -37 -7 -73 -27 -106 -56 -29 -26 -98 -60
-123 -60 -16 0 -25 -7 -29 -25 -5 -19 -13 -25 -33 -25 -31 0 -103 -46 -103
-66 0 -8 -8 -14 -18 -14 -9 0 -36 -17 -59 -38 -22 -21 -60 -51 -82 -66 -23
-16 -41 -33 -41 -37 0 -5 -16 -15 -35 -23 -19 -8 -35 -22 -35 -30 0 -11 -10
-16 -32 -16 -17 0 -28 -3 -25 -7 8 -8 -48 -43 -68 -43 -8 0 -15 -4 -15 -10 0
-14 -38 -50 -52 -50 -16 0 -122 -53 -126 -62 -2 -5 -12 -8 -23 -8 -10 0 -19
-4 -19 -9 0 -6 -27 -18 -60 -27 -33 -9 -65 -23 -71 -30 -6 -8 -22 -14 -34 -14
-12 0 -28 -7 -35 -15 -7 -8 -23 -15 -36 -15 -13 0 -24 -4 -24 -9 0 -5 -19 -11
-42 -14 -24 -3 -74 -12 -113 -21 -85 -19 -266 -32 -291 -21 -11 4 -48 9 -84
11 -96 5 -122 11 -152 39 -15 14 -34 25 -42 25 -8 0 -18 4 -21 10 -3 5 -16 10
-29 10 -12 0 -26 4 -32 8 -5 5 -29 15 -54 22 -25 8 -56 22 -69 32 -13 10 -30
18 -37 18 -8 0 -14 6 -14 14 0 8 -13 17 -29 21 -28 6 -81 49 -81 66 0 4 -14
16 -30 26 -17 9 -30 23 -30 30 0 7 -5 13 -11 13 -21 0 -169 167 -169 191 0 7
-6 20 -13 28 -31 37 -49 107 -51 204 -1 53 1 97 4 97 11 0 31 70 26 88 -5 14
7 28 51 58 32 21 60 42 61 47 2 4 15 7 28 7 13 0 24 4 24 10 0 12 190 6 199
-7 3 -4 20 -15 36 -23 17 -8 37 -30 45 -47 10 -22 22 -33 37 -33 16 0 25 -8
29 -27 4 -15 20 -48 36 -72 15 -25 28 -52 28 -61 0 -9 8 -32 17 -51 38 -74 12
-199 -46 -220 -14 -6 -28 -13 -31 -17 -13 -18 -104 -31 -175 -25 -73 6 -75 5
-75 -17 0 -25 79 -128 113 -147 12 -7 30 -12 40 -13 9 0 17 -4 17 -10 0 -5 13
-10 29 -10 16 0 31 -5 33 -12 7 -19 140 -15 169 6 46 32 67 22 97 -44 15 -32
33 -59 40 -60 6 0 12 -6 12 -14 0 -8 14 -23 30 -33 17 -9 30 -21 30 -25 0 -4
7 -8 15 -8 7 0 18 -6 22 -14 10 -17 47 -36 70 -36 10 0 31 7 47 15 15 8 35 15
42 15 8 0 19 11 24 25 5 13 19 34 30 45 19 19 21 31 18 88 l-3 67 50 -2 c28
-1 86 -7 130 -12 164 -21 315 -19 315 3 0 8 14 16 33 19 75 13 97 20 97 28 0
5 13 9 29 9 16 0 34 7 41 15 7 8 19 15 27 15 8 0 27 6 41 14 15 8 42 20 60 27
21 7 31 17 28 25 -3 9 2 14 15 14 11 0 22 7 25 15 4 8 12 15 19 15 7 0 18 7
25 15 7 8 21 15 31 15 11 0 19 6 19 14 0 7 10 16 21 19 14 4 20 11 16 20 -4
10 4 17 24 21 17 3 29 12 29 21 0 8 6 15 13 15 6 0 34 21 60 45 26 25 54 45
62 45 8 0 20 10 26 23 7 12 22 30 33 40 12 10 22 23 22 28 1 5 2 14 3 19 0 6
12 10 26 10 16 0 25 6 25 15 0 9 9 25 20 37 11 12 20 28 20 35 0 7 5 13 11 13
6 0 9 6 6 14 -6 14 22 46 39 46 5 0 30 22 54 50 25 27 49 50 53 50 5 0 20 9
34 20 32 25 91 27 100 3 4 -9 -1 -29 -10 -45 -14 -24 -14 -33 -3 -65 17 -51
53 -56 89 -14 22 27 25 38 22 98 -4 94 -3 93 -18 93 -8 0 -24 12 -38 26 -22
23 -30 25 -82 22 -32 -3 -62 -10 -66 -17 -4 -6 -21 -13 -37 -14 -23 -2 -30 2
-32 20 -5 32 -96 120 -140 134 -20 6 -51 17 -68 24 -22 9 -50 11 -100 5 -87
-10 -109 -19 -163 -69 -29 -27 -53 -41 -71 -41 -42 0 -204 -30 -210 -39 -3 -4
-18 -14 -34 -22 -52 -25 -69 -58 -61 -123 5 -38 12 -56 21 -56 8 0 14 -3 14
-7 1 -5 9 -19 20 -31 18 -21 25 -23 70 -17 l50 7 0 44 c0 24 -4 44 -10 44 -5
0 -10 6 -10 13 0 7 -16 19 -35 27 -36 14 -50 50 -20 50 9 0 27 7 40 16 42 27
165 -8 165 -47 0 -11 5 -19 11 -19 16 0 48 -81 50 -130 2 -42 -16 -90 -33 -90
-5 0 -8 -9 -8 -20 0 -20 -64 -90 -116 -126 -22 -15 -59 -25 -128 -33 -54 -6
-101 -9 -105 -6 -5 2 -43 5 -85 7 -42 1 -79 5 -82 10 -3 4 -18 8 -34 8 -16 0
-41 7 -57 15 -15 8 -45 17 -65 20 -21 3 -38 10 -38 15 0 6 -9 10 -20 10 -12 0
-50 16 -86 35 -35 19 -71 35 -78 35 -8 0 -28 11 -44 25 -17 14 -36 25 -43 25
-14 1 -69 44 -69 55 0 9 -64 64 -76 65 -6 0 -24 15 -40 33 -40 45 -90 81 -103
73 -6 -4 -25 7 -42 24 -18 16 -37 30 -44 30 -6 0 -20 8 -31 18 -11 10 -32 22
-47 26 -15 3 -27 11 -27 16 0 6 -9 10 -20 10 -10 0 -35 13 -53 30 -19 16 -40
30 -46 30 -6 0 -19 4 -29 9 -9 5 -44 17 -77 26 -33 9 -71 21 -85 25 -82 29
-214 38 -385 26 -96 -6 -127 -12 -155 -30 -41 -25 -70 -41 -125 -70 -21 -12
-48 -30 -60 -41 -35 -35 -84 -103 -78 -109 4 -3 -1 -6 -10 -6 -10 0 -17 -4
-17 -10 0 -5 -14 -2 -32 8 -21 12 -35 29 -41 52 -5 19 -16 40 -25 46 -10 7
-35 37 -57 68 -22 31 -44 56 -50 56 -5 0 -21 16 -35 34 -25 34 -71 66 -95 66
-7 0 -15 6 -18 14 -5 12 -28 20 -92 34 -11 2 -65 6 -120 9 -111 5 -165 -7
-203 -44 -13 -13 -30 -23 -38 -23 -42 0 -114 -87 -114 -138 0 -8 -7 -23 -16
-33 -8 -9 -17 -23 -18 -31 -2 -7 -6 -21 -11 -31 -4 -9 -5 -31 -3 -47 4 -24 1
-30 -13 -30 -10 0 -21 5 -24 10 -4 6 -11 8 -16 5 -5 -4 -26 3 -47 14 -20 11
-48 22 -62 24 -28 6 -86 25 -112 38 -41 21 -157 -2 -195 -37 -14 -13 -30 -24
-35 -24 -5 0 -8 -5 -6 -12 2 -6 -5 -21 -15 -31 -17 -17 -19 -29 -13 -94 3 -41
11 -83 17 -94 15 -29 6 -45 -38 -64 -101 -44 -223 -107 -223 -115 0 -5 -16
-12 -35 -16 -19 -3 -35 -10 -35 -15 0 -4 -18 -13 -41 -19 -22 -6 -49 -20 -60
-31 -10 -10 -21 -19 -23 -19 -3 0 -17 -11 -32 -25 -15 -14 -37 -25 -50 -25
-12 0 -29 -7 -38 -15 -8 -8 -18 -15 -23 -15 -4 0 -24 -20 -43 -44 -19 -25 -48
-51 -65 -58 -16 -7 -42 -27 -58 -45 -16 -18 -37 -33 -48 -33 -10 0 -25 -12
-33 -27 -23 -44 -55 -73 -80 -73 -17 0 -27 -9 -36 -31 -7 -16 -29 -42 -49 -57
-20 -15 -37 -30 -39 -34 -2 -5 -10 -8 -18 -8 -8 0 -17 -7 -20 -15 -4 -8 -15
-15 -25 -15 -10 0 -19 -4 -19 -8 0 -12 -56 -42 -79 -42 -12 0 -21 -4 -21 -10
0 -5 -9 -10 -19 -10 -11 0 -22 -4 -26 -9 -3 -5 -34 -19 -70 -31 -38 -13 -70
-30 -75 -41 -6 -10 -17 -19 -24 -19 -7 0 -25 -9 -39 -20 -14 -11 -39 -20 -57
-20 -18 0 -29 -4 -25 -10 3 -6 -3 -10 -14 -10 -12 0 -21 -4 -21 -10 0 -5 -13
-10 -30 -10 -16 0 -30 -4 -30 -10 0 -5 -13 -10 -29 -10 -17 0 -32 -4 -35 -9
-3 -5 -20 -11 -38 -14 -18 -4 -67 -13 -108 -22 -41 -9 -109 -20 -150 -25 -107
-12 -338 -12 -345 0 -3 6 -30 10 -58 11 -29 0 -74 5 -102 10 -27 6 -63 12 -78
13 -16 2 -37 10 -48 19 -11 10 -28 17 -39 17 -11 0 -49 16 -84 35 -36 19 -70
35 -77 35 -6 0 -28 14 -49 30 -21 17 -45 30 -54 30 -9 0 -45 24 -80 53 -35 28
-88 69 -117 90 -30 20 -79 64 -109 98 -30 33 -72 78 -92 99 -21 22 -38 48 -38
58 0 11 -6 25 -14 31 -44 37 -47 280 -4 365 13 25 27 46 32 46 5 0 19 11 32
25 13 14 35 30 49 35 29 11 150 13 207 4 84 -14 178 -144 178 -245 0 -45 -2
-48 -37 -62 -21 -9 -51 -32 -66 -51 -27 -35 -30 -36 -94 -36 l-65 0 7 -37 c6
-35 16 -51 53 -91 6 -7 12 -17 12 -22 0 -5 13 -23 30 -40 16 -16 34 -39 40
-50 6 -11 18 -20 28 -20 9 0 31 -12 47 -27 16 -16 41 -34 55 -41 34 -18 235
-29 244 -13 4 6 16 11 27 11 10 0 19 4 19 8 0 14 36 52 48 52 7 0 19 -12 29
-27 24 -40 86 -98 150 -140 30 -20 57 -42 60 -49 2 -7 18 -18 34 -24 16 -7 29
-16 29 -21 0 -5 9 -9 20 -9 11 0 20 -4 20 -10 0 -5 18 -10 40 -10 37 0 41 2
61 48 13 26 22 57 21 69 -1 12 4 26 12 30 8 4 15 17 18 28 3 19 12 20 186 21
185 2 214 5 267 29 17 8 65 26 108 41 42 14 77 31 77 35 0 5 14 9 30 9 20 0
30 5 30 15 0 9 12 18 30 22 17 3 33 10 36 14 3 5 14 9 25 9 10 0 19 4 19 8 0
5 19 16 43 26 23 10 54 32 69 47 15 16 34 29 42 29 9 0 16 4 16 10 0 5 14 23
30 40 17 17 30 34 30 39 0 4 16 16 35 27 19 10 34 23 32 29 -2 9 30 48 96 117
15 16 27 31 27 34 0 11 27 32 46 36 13 2 18 10 16 26 -2 12 2 22 8 22 6 0 15
11 20 25 5 14 14 25 20 25 15 0 50 33 50 47 0 7 5 13 11 13 13 0 39 25 39 38
0 5 18 17 39 25 21 9 49 30 61 47 12 16 30 30 40 30 31 0 100 41 100 59 0 31
-16 41 -95 57 -132 27 -213 33 -366 24 -156 -8 -224 -27 -251 -69 -7 -12 -17
-21 -23 -21 -5 0 -19 -14 -30 -30 -21 -32 -65 -42 -65 -15 0 8 -4 15 -9 15 -5
0 -12 11 -15 25 -4 14 -11 25 -17 25 -5 0 -21 12 -34 28 -15 17 -35 28 -54 29
-17 1 -37 3 -43 3 -7 1 -53 -2 -103 -6 -72 -6 -93 -11 -106 -27 -22 -28 -11
-81 19 -85 12 -2 22 -7 22 -12 0 -5 13 -29 30 -53 24 -36 30 -57 34 -115 4
-69 3 -72 -20 -78 -13 -3 -24 -11 -24 -18 0 -14 -55 -46 -79 -46 -10 0 -26 -9
-36 -20 -10 -11 -22 -17 -27 -14 -5 3 -20 -1 -33 -10 -13 -9 -39 -16 -58 -16
-18 0 -38 -5 -44 -11 -15 -15 -199 -24 -226 -11 -12 6 -43 13 -69 16 -30 3
-56 14 -74 31 -15 14 -35 25 -45 25 -45 0 -186 105 -306 228 -46 47 -83 88
-83 91 1 11 -154 151 -167 151 -6 0 -18 8 -25 18 -22 30 -92 82 -109 82 -9 0
-19 7 -23 15 -3 8 -12 15 -19 15 -8 0 -20 7 -27 15 -7 8 -21 15 -32 15 -11 0
-32 9 -47 19 -28 20 -77 27 -260 37 -117 6 -178 -4 -202 -33 -6 -7 -24 -13
-39 -13 -15 0 -38 -8 -51 -18 -13 -10 -32 -21 -41 -25 -10 -3 -18 -10 -18 -15
0 -13 -76 -92 -88 -92 -7 0 -12 -5 -12 -11 0 -17 -23 -35 -64 -50 -35 -13 -41
-12 -79 10 -35 20 -54 24 -131 24 -98 -1 -176 -16 -176 -36 0 -7 -13 -21 -30
-32 -16 -11 -31 -28 -32 -39 -2 -10 -11 -24 -20 -30 -25 -15 -117 17 -151 54
-16 16 -35 30 -43 30 -8 0 -14 5 -14 10 0 6 -8 10 -18 10 -11 0 -27 9 -37 20
-11 12 -31 20 -51 20 -18 0 -36 5 -39 10 -4 6 -67 10 -155 10 -142 0 -150 -1
-164 -22 -18 -25 -20 -65 -7 -100 4 -13 11 -44 15 -71 9 -59 -12 -74 -49 -34
-15 15 -40 28 -65 32 -23 4 -44 13 -47 21 -8 21 -216 20 -237 -1 -8 -8 -22
-15 -30 -15 -9 0 -35 -27 -59 -59 -48 -68 -49 -68 -185 -49 -63 8 -86 8 -94 0
-7 -7 -23 -12 -37 -12 -13 0 -38 -4 -55 -10 -17 -5 -59 -15 -93 -22 -35 -7
-63 -15 -63 -19 0 -3 -25 -14 -55 -24 -31 -9 -62 -23 -70 -31 -7 -8 -21 -14
-29 -14 -9 0 -24 -8 -34 -17 -10 -10 -35 -26 -57 -36 -21 -10 -62 -34 -91 -53
-28 -19 -57 -34 -63 -34 -15 0 -77 -61 -73 -72 1 -4 -5 -8 -13 -8 -8 0 -15 -4
-15 -10 0 -5 -9 -10 -21 -10 -24 0 -89 -47 -89 -65 0 -14 -31 -25 -73 -25 -30
0 -47 28 -47 80 0 16 -4 32 -10 35 -5 3 -10 17 -10 30 0 13 -6 28 -13 32 -6 4
-19 21 -27 37 -18 34 -141 166 -156 166 -5 0 -23 13 -40 28 -32 29 -105 62
-138 62 -10 0 -30 7 -46 16 -22 14 -42 15 -104 9 -52 -4 -79 -11 -83 -21 -3
-8 -13 -14 -23 -14 -10 0 -41 -27 -70 -59 -57 -67 -66 -100 -64 -227 2 -70 31
-154 54 -154 6 0 10 -6 10 -12 0 -17 122 -134 148 -142 37 -12 13 -33 -45 -40
-31 -4 -61 -10 -67 -15 -6 -5 -32 -10 -58 -12 l-48 -4 0 47 c0 27 -4 48 -9 48
-6 0 -13 20 -17 45 -4 29 -13 49 -25 56 -12 6 -19 21 -19 39 0 21 -8 34 -27
47 -16 9 -38 25 -50 36 -20 18 -28 18 -110 7 -114 -15 -120 -17 -126 -40 -3
-11 -12 -20 -21 -20 -9 0 -16 -5 -16 -11 0 -16 -36 -59 -44 -52 -3 3 -6 21 -6
39 0 18 -4 35 -9 38 -4 3 -11 28 -15 55 -4 30 -18 65 -37 92 -31 44 -97 108
-112 109 -4 0 -26 8 -50 19 -112 49 -110 49 -206 25 -73 -18 -106 -33 -136
-61 -11 -11 -37 -30 -57 -44 -21 -14 -35 -29 -31 -32 8 -8 -17 -59 -34 -70 -7
-4 -13 -23 -13 -42 0 -19 -4 -37 -10 -40 -5 -3 -10 -22 -10 -41 0 -20 -5 -45
-11 -56 -8 -14 -8 -23 0 -31 6 -6 11 -31 11 -55 0 -35 -3 -43 -16 -40 -9 2
-20 10 -24 18 -4 8 -15 29 -24 45 -10 17 -20 38 -23 48 -3 9 -9 17 -14 17 -5
0 -9 6 -9 14 0 8 -22 32 -49 53 -27 21 -55 47 -62 59 -24 36 -163 152 -239
199 -8 6 -41 27 -72 48 -31 20 -64 37 -72 37 -9 0 -16 5 -16 11 0 5 -5 7 -10
4 -5 -3 -10 -1 -10 5 0 6 -4 9 -9 5 -6 -3 -13 1 -18 8 -8 14 -68 47 -85 47 -5
0 -18 9 -30 20 -12 11 -30 20 -41 20 -10 0 -35 12 -55 28 -36 26 -44 33 -95
80 -45 40 -69 99 -61 146 12 62 27 100 44 111 19 12 149 8 164 -5 8 -6 20 -10
28 -8 15 3 88 -39 88 -52 0 -4 11 -11 25 -14 16 -4 25 -13 25 -26 0 -10 6 -23
13 -27 22 -13 87 -156 87 -191 0 -30 2 -32 35 -32 25 0 44 8 65 29 17 15 30
32 30 36 0 5 7 17 16 27 13 14 17 40 18 125 0 60 -3 127 -8 149 -8 38 -7 42
16 47 41 11 86 67 89 112 2 50 -10 115 -22 115 -6 0 -18 19 -28 43 -10 24 -33
55 -50 69 -17 15 -31 29 -31 32 0 9 39 46 48 46 13 0 49 75 57 118 4 23 10 42
13 42 4 0 5 21 3 46 -2 32 1 49 10 55 16 10 15 117 -1 133 -5 5 -10 21 -10 36
0 14 -7 38 -15 54 -8 15 -15 37 -15 47 0 11 -7 19 -15 19 -10 0 -15 10 -15 28
0 18 -12 43 -31 65 -30 35 -48 42 -76 30z m27 -222 c0 -11 4 -21 10 -23 5 -1
13 -32 16 -68 4 -36 13 -74 19 -85 10 -16 10 -38 1 -107 -10 -72 -17 -92 -39
-114 -15 -15 -27 -31 -27 -35 0 -5 -5 -9 -11 -9 -6 0 -24 -9 -40 -20 l-28 -21
18 -32 c10 -18 27 -37 39 -43 61 -30 122 -118 122 -174 0 -34 -4 -41 -32 -54
-18 -8 -53 -16 -77 -18 -68 -5 -73 -23 -28 -110 42 -81 64 -169 53 -212 -5
-22 -11 -27 -33 -24 -23 2 -29 10 -35 43 -5 22 -17 47 -28 57 -11 9 -20 20
-20 25 0 12 -49 63 -60 63 -6 0 -10 5 -10 11 0 7 -10 21 -22 31 -94 82 -286
103 -361 39 -18 -15 -44 -32 -58 -38 -23 -10 -26 -18 -26 -55 0 -24 6 -77 14
-118 13 -68 21 -85 61 -128 6 -7 12 -20 12 -28 0 -8 7 -14 15 -14 8 0 15 -7
15 -15 0 -8 5 -15 10 -15 6 0 16 -5 23 -10 51 -43 65 -52 89 -57 15 -3 29 -11
32 -19 3 -8 19 -14 36 -14 16 0 30 -4 30 -9 0 -4 20 -14 45 -21 25 -7 51 -21
58 -30 7 -10 27 -21 44 -24 18 -4 35 -12 39 -17 3 -5 23 -21 44 -34 21 -13 50
-35 65 -49 15 -14 34 -26 41 -26 8 0 14 -4 14 -10 0 -5 7 -10 15 -10 8 0 15
-6 15 -13 0 -8 9 -22 19 -31 22 -20 34 -66 17 -66 -10 0 -46 -66 -46 -84 0 -4
-13 -18 -29 -32 -16 -13 -32 -37 -36 -53 -3 -16 -17 -37 -31 -47 -13 -10 -24
-25 -24 -32 0 -7 -12 -17 -26 -22 -22 -9 -30 -6 -52 15 -13 14 -33 25 -43 25
-10 0 -43 22 -75 50 -31 27 -77 57 -103 66 -25 10 -55 23 -66 30 -47 28 -402
41 -427 16 -7 -7 -26 -12 -44 -12 -17 0 -37 -7 -44 -15 -7 -8 -19 -15 -27 -15
-7 0 -16 -7 -19 -15 -4 -8 -16 -15 -28 -15 -26 0 -35 -7 -64 -44 -13 -17 -22
-43 -22 -63 0 -21 -6 -36 -15 -39 -9 -4 -15 -19 -15 -39 0 -19 -5 -37 -11 -40
-16 -10 -1 -297 16 -311 8 -5 17 -23 21 -39 10 -39 43 -95 57 -95 5 0 22 -13
36 -29 22 -24 36 -30 71 -31 108 -4 250 22 250 45 0 7 7 18 14 25 8 6 24 30
35 53 26 55 37 216 16 244 -18 23 -21 93 -3 75 7 -7 26 -12 44 -12 19 0 34 -6
38 -15 3 -8 13 -15 21 -15 9 0 23 -6 30 -12 8 -7 28 -24 45 -38 31 -25 40 -66
19 -87 -16 -16 -4 -43 18 -43 10 0 28 11 41 25 39 40 166 38 198 -4 6 -8 16
-11 22 -7 6 3 15 -2 21 -12 5 -9 25 -24 44 -31 20 -8 41 -25 48 -38 7 -12 16
-23 21 -23 4 0 8 -7 8 -15 0 -12 -17 -15 -94 -15 l-95 0 -28 -40 c-21 -29 -35
-40 -55 -40 -15 0 -33 -7 -42 -15 -8 -8 -21 -15 -30 -15 -8 0 -31 -16 -50 -36
-72 -74 -148 -98 -317 -97 -113 0 -127 -2 -138 -19 -9 -15 -8 -22 9 -40 11
-12 23 -19 26 -15 3 3 21 -3 40 -14 19 -10 41 -19 49 -19 8 0 15 -5 15 -10 0
-6 8 -13 17 -17 31 -11 53 -35 53 -60 0 -16 6 -23 20 -23 15 0 20 -7 20 -27 0
-16 9 -41 20 -58 25 -38 25 -69 0 -110 -17 -27 -29 -34 -77 -44 -81 -16 -91
-15 -166 24 -38 19 -75 35 -84 35 -8 0 -31 18 -50 40 -23 26 -44 40 -59 40
-29 0 -28 3 -5 -86 30 -110 17 -183 -47 -284 -55 -84 -105 -126 -178 -146 -35
-9 -65 -23 -68 -30 -3 -8 -19 -14 -36 -14 -40 0 -40 28 1 75 31 35 46 76 56
148 3 20 9 37 14 37 23 0 -12 230 -40 264 -6 7 -13 32 -16 56 -6 42 -26 103
-46 142 -5 10 -9 31 -9 48 0 17 -9 40 -20 52 -11 12 -20 31 -20 43 0 12 -9 30
-20 40 -11 10 -20 31 -20 48 0 16 -6 43 -14 60 -41 97 -59 275 -38 392 6 33
13 78 17 100 3 22 10 51 15 65 5 14 11 42 15 63 3 21 14 43 25 50 11 6 20 21
20 32 0 12 7 30 15 41 8 10 15 26 15 35 0 10 16 30 36 45 96 77 104 86 104
117 0 16 -11 44 -24 61 -32 42 -65 148 -48 154 6 2 12 11 12 20 0 23 28 39 84
47 54 8 60 15 51 55 -5 21 -14 30 -36 35 -16 4 -29 13 -29 21 0 8 -4 14 -8 14
-15 0 -45 75 -43 107 1 17 -3 42 -9 54 -10 18 -9 24 4 31 9 5 19 27 22 48 5
27 12 40 23 40 9 0 25 7 35 15 38 29 195 16 203 -17 3 -10 13 -18 23 -18 11 0
24 -13 32 -30 22 -50 68 -33 68 25 0 36 26 120 47 150 7 11 13 27 13 37 0 10
5 18 10 18 6 0 10 7 10 17 0 9 11 31 25 49 14 18 25 37 25 43 0 6 38 49 84 96
61 61 91 85 109 85 14 0 28 7 31 16 3 8 10 13 15 10 5 -3 16 5 25 18 8 14 25
28 37 31 12 4 33 20 47 36 13 16 29 29 35 29 7 0 23 14 37 30 14 17 30 30 36
30 6 0 21 12 35 26 13 15 41 37 62 50 20 14 51 43 67 67 31 43 85 110 108 133
6 7 12 16 12 20 0 8 32 33 43 34 4 0 7 -9 7 -19z m17360 -237 c0 -24 -19 -54
-35 -54 -8 0 -15 -6 -15 -13 0 -8 -11 -20 -25 -27 -14 -7 -25 -17 -25 -22 0
-4 -6 -8 -13 -8 -17 0 -87 -62 -87 -77 0 -7 -6 -13 -13 -13 -7 0 -26 -16 -41
-35 -16 -19 -35 -35 -44 -35 -20 0 -52 -29 -52 -47 0 -7 -4 -13 -10 -13 -5 0
-10 -5 -10 -12 0 -6 -12 -27 -26 -46 -19 -24 -27 -48 -29 -85 -2 -28 -8 -53
-14 -55 -6 -2 -11 -13 -11 -24 0 -20 4 -21 74 -15 56 5 81 3 103 -8 15 -8 34
-15 40 -15 7 0 24 -18 37 -39 14 -21 29 -41 34 -42 5 -2 11 -25 14 -51 5 -45
3 -50 -36 -92 -35 -37 -51 -45 -92 -51 -27 -4 -54 -14 -60 -21 -9 -11 -18 -12
-39 -4 -16 6 -34 9 -42 6 -7 -3 -13 -2 -13 2 0 12 -78 44 -90 37 -5 -3 -10 0
-10 7 0 19 -50 58 -74 58 -36 0 -48 -16 -51 -66 -4 -59 -34 -174 -47 -174 -11
0 -32 -50 -29 -68 1 -8 -8 -24 -21 -36 -13 -13 -34 -38 -48 -57 -14 -18 -35
-42 -47 -53 -13 -11 -23 -27 -23 -36 0 -16 -33 -50 -49 -50 -5 0 -30 -22 -57
-50 -27 -27 -53 -50 -59 -50 -5 0 -29 -17 -53 -38 -38 -33 -43 -41 -36 -66 7
-27 8 -28 53 -21 111 16 161 20 161 13 0 -5 24 -8 53 -7 56 2 123 -15 145 -38
7 -7 20 -13 28 -13 8 0 14 -6 14 -14 0 -7 9 -16 20 -19 11 -3 29 -21 41 -41
11 -20 24 -36 29 -36 4 0 10 -15 13 -32 3 -18 8 -40 12 -49 3 -9 -1 -23 -9
-32 -9 -9 -16 -24 -16 -34 0 -11 -7 -28 -15 -39 -8 -10 -15 -26 -15 -36 0 -9
-14 -22 -30 -30 -17 -7 -32 -20 -35 -28 -3 -8 -24 -25 -48 -38 -35 -19 -62
-23 -150 -26 -117 -4 -140 -13 -135 -55 3 -24 11 -28 83 -46 44 -11 85 -23 90
-26 6 -3 23 -9 39 -13 15 -4 42 -22 60 -40 17 -18 41 -36 53 -40 12 -4 25 -16
28 -27 4 -10 10 -19 14 -19 3 0 15 -14 24 -30 10 -17 24 -30 32 -30 7 0 16 -9
20 -20 3 -11 19 -27 36 -37 16 -9 29 -22 29 -28 1 -5 18 -23 40 -40 21 -16 44
-40 50 -52 7 -12 23 -24 36 -27 13 -4 24 -11 24 -16 0 -6 6 -10 13 -10 7 0 19
-9 27 -20 8 -11 23 -20 33 -20 9 0 20 -6 23 -14 5 -13 41 -27 79 -32 6 0 17
-4 25 -7 18 -8 217 -1 275 9 22 3 44 13 48 20 4 8 19 14 32 14 27 0 44 12 111
79 25 25 54 49 66 55 12 6 26 20 32 31 6 11 17 24 24 28 6 4 12 17 12 27 0 11
3 20 8 20 4 0 12 10 17 23 6 12 25 28 43 36 23 11 32 21 32 38 0 13 5 23 11
23 7 0 9 12 7 30 -3 17 -1 33 4 36 4 3 8 15 8 28 0 12 5 27 10 32 7 7 7 54 1
140 -5 71 -6 133 -1 137 11 12 68 -46 76 -78 4 -15 13 -29 20 -32 8 -3 14 -14
14 -24 0 -10 9 -36 21 -59 18 -33 20 -52 16 -117 -3 -43 -6 -79 -7 -80 -2 -2
-3 -6 -5 -10 -1 -5 -4 -15 -7 -23 -31 -88 -39 -124 -34 -145 7 -29 18 -30 74
-11 58 21 155 15 182 -9 20 -18 22 -28 18 -96 -3 -84 -22 -119 -63 -119 -26 0
-78 -48 -70 -64 3 -6 8 -19 11 -28 4 -10 14 -18 23 -18 22 0 71 -23 71 -32 0
-5 9 -8 20 -8 11 0 20 -5 20 -10 0 -6 17 -27 38 -48 39 -39 62 -75 62 -98 0
-8 -6 -14 -12 -14 -18 1 -50 26 -46 37 2 4 -13 9 -32 11 -19 2 -48 14 -65 26
-23 17 -39 22 -67 18 -23 -2 -38 0 -38 6 0 6 -15 11 -32 11 -63 0 -146 9 -157
15 -6 4 -35 1 -64 -8 -28 -8 -85 -19 -126 -25 -41 -5 -77 -14 -80 -19 -9 -13
-70 -20 -74 -8 -2 6 -37 6 -103 -2 -122 -15 -191 -13 -205 5 -6 7 -20 13 -30
13 -9 0 -25 7 -34 16 -12 13 -29 15 -72 12 -63 -6 -80 -20 -90 -80 -3 -21 -9
-38 -14 -38 -5 0 -9 -6 -9 -14 0 -26 -68 -81 -108 -86 -61 -9 -99 5 -117 44
-9 19 -25 42 -36 52 -24 22 -24 59 0 107 16 31 18 48 11 101 -10 80 -14 88
-48 80 -75 -16 -100 -30 -149 -82 -29 -31 -53 -59 -53 -63 0 -4 -9 -10 -19
-14 -18 -5 -31 -29 -36 -65 -1 -9 -8 -26 -14 -39 -36 -66 -44 -294 -13 -360 9
-20 27 -40 40 -46 12 -5 22 -15 22 -22 0 -6 9 -15 20 -18 11 -3 20 -13 20 -21
0 -11 -15 -14 -63 -14 -35 0 -66 3 -70 6 -3 3 -25 7 -49 8 -36 2 -51 10 -93
49 -27 26 -53 47 -57 47 -5 0 -8 11 -8 24 0 44 -56 66 -75 30 -41 -82 -126
-154 -179 -154 -14 0 -26 -4 -28 -9 -1 -5 -21 -11 -42 -13 -42 -3 -56 10 -34
33 14 15 43 72 52 102 4 11 15 21 26 24 13 3 20 14 20 28 0 12 7 28 15 35 8 7
15 21 15 31 0 11 4 19 10 19 5 0 12 11 16 24 3 14 12 27 20 30 8 3 14 12 14
21 0 28 39 85 58 85 6 0 21 21 34 47 14 27 35 52 47 58 11 5 24 19 27 30 7 25
66 81 94 90 11 3 20 11 20 16 0 5 11 9 25 9 14 0 25 4 25 9 0 19 46 58 81 70
34 11 89 76 89 104 0 7 -21 34 -45 61 -25 27 -45 58 -45 68 0 10 -11 29 -25
42 -14 13 -25 28 -25 34 0 6 -21 31 -46 54 -26 24 -66 62 -90 85 -23 24 -45
43 -48 43 -3 0 -23 17 -45 38 -75 71 -100 92 -109 92 -5 0 -17 11 -26 25 -10
14 -28 31 -42 37 -13 6 -24 18 -24 27 0 15 -40 59 -48 53 -1 -1 -13 8 -25 21
-12 13 -46 35 -74 48 -29 13 -53 30 -53 36 0 7 -9 13 -19 13 -11 0 -23 9 -26
20 -4 14 -15 20 -36 20 -16 0 -29 3 -29 8 0 8 -48 32 -66 32 -7 0 -25 11 -40
25 -15 14 -35 25 -44 25 -25 0 -129 50 -163 79 -9 7 -21 10 -27 6 -5 -3 -10
-1 -10 4 0 6 -9 11 -20 11 -16 0 -20 7 -22 33 0 17 0 39 1 47 4 35 2 120 -5
188 l-6 72 50 0 c28 0 54 -5 58 -11 4 -7 22 -9 45 -6 24 3 39 1 42 -7 5 -16
395 -12 465 5 28 7 52 16 52 19 0 4 29 19 65 35 45 20 65 35 65 47 0 10 7 18
15 18 8 0 15 5 15 10 0 6 5 10 10 10 15 0 88 78 95 101 4 11 11 19 16 19 5 0
9 8 9 18 1 9 9 35 20 57 11 22 19 55 20 73 0 32 -26 93 -42 100 -5 2 -8 9 -8
16 0 15 -64 86 -78 86 -5 0 -21 10 -36 21 -46 37 -142 60 -250 62 -72 1 -100
-1 -103 -10 -3 -8 -24 -13 -56 -13 -64 0 -156 -32 -179 -62 -9 -13 -26 -35
-38 -50 -11 -14 -20 -33 -20 -41 0 -9 -5 -19 -10 -22 -15 -9 -2 -87 22 -142
11 -24 23 -41 28 -38 4 3 14 -8 22 -25 7 -17 21 -30 30 -30 19 0 22 -8 10 -27
-10 -16 -71 1 -124 34 -21 13 -42 23 -47 23 -5 0 -11 8 -15 18 -7 20 -25 49
-48 76 -10 11 -20 28 -24 38 -8 26 -62 15 -87 -18 -11 -14 -29 -24 -43 -24
-13 0 -32 -8 -43 -19 -13 -13 -41 -20 -95 -26 -93 -8 -136 5 -136 41 0 13 5
24 10 24 6 0 10 12 10 26 0 30 18 51 54 60 22 5 26 12 26 44 0 38 -21 67 -40
55 -12 -7 -70 10 -119 35 -56 29 -150 129 -157 167 -3 18 -10 36 -15 39 -15 9
-11 94 4 94 7 0 37 -29 67 -65 45 -53 59 -64 78 -60 12 3 32 -1 45 -9 30 -19
200 -41 292 -37 89 3 160 12 163 21 2 5 17 10 32 10 16 0 32 5 35 10 3 6 34
10 69 10 34 0 66 3 69 7 4 4 38 14 75 23 74 19 335 22 362 5 8 -6 18 -10 22
-10 3 0 19 -11 35 -25 15 -14 33 -25 38 -26 23 -2 45 -17 45 -30 0 -16 37 -19
59 -5 11 7 12 13 3 23 -16 20 -28 148 -13 148 6 0 11 11 11 24 0 18 18 40 67
80 64 53 71 56 118 55 54 -2 125 -33 125 -54 0 -7 4 -15 10 -17 5 -1 14 -34
19 -73 6 -38 15 -71 21 -73 5 -2 10 -12 10 -23 0 -49 66 1 76 58 4 23 18 48
35 64 16 14 29 29 29 32 0 4 18 25 40 47 22 22 40 44 40 50 0 5 17 17 38 27
20 9 46 26 57 36 29 28 95 57 132 57 17 0 35 5 38 10 3 6 15 10 25 10 11 0 36
7 57 16 55 24 75 32 99 39 11 3 31 17 44 30 27 29 40 32 40 9z m-7113 -657 c6
-4 18 -5 26 -1 8 3 17 -2 20 -10 4 -9 16 -16 27 -16 11 0 20 -4 20 -10 0 -5 5
-10 10 -10 11 0 60 -45 60 -55 0 -3 17 -23 38 -44 68 -70 110 -136 117 -185 7
-46 26 -76 48 -76 6 0 20 -9 32 -20 23 -22 55 -18 55 6 0 8 4 14 9 14 5 0 9 6
8 13 -2 59 5 88 28 111 14 14 25 32 25 41 0 8 6 15 13 15 7 0 17 10 22 23 6
12 20 26 33 32 12 5 22 13 22 17 0 5 9 8 20 8 11 0 20 4 20 10 0 5 12 13 28
16 15 4 35 14 45 23 10 8 49 19 85 24 37 4 87 10 112 13 26 3 82 -2 130 -12
47 -9 99 -18 115 -20 66 -9 101 -17 120 -30 11 -8 36 -14 57 -14 21 0 38 -4
38 -10 0 -5 9 -10 19 -10 10 0 22 -7 25 -16 3 -9 12 -14 20 -11 9 3 16 -3 19
-15 4 -14 11 -19 21 -15 9 4 16 3 16 -2 0 -10 45 -31 66 -31 8 0 30 -11 48
-25 18 -14 40 -25 49 -25 10 0 17 -6 17 -14 0 -8 14 -20 30 -28 17 -7 30 -19
30 -25 0 -7 4 -13 9 -13 5 0 26 -16 47 -35 20 -19 44 -35 53 -35 9 0 24 -13
35 -28 15 -23 63 -55 86 -57 16 -2 60 -39 60 -51 0 -9 11 -14 30 -14 16 0 33
-6 37 -12 10 -17 49 -38 68 -38 8 0 15 -4 15 -10 0 -5 9 -10 19 -10 10 0 21
-7 25 -15 3 -8 17 -15 31 -15 14 0 25 -4 25 -9 0 -5 29 -13 65 -16 36 -4 65
-10 65 -14 0 -11 130 -32 235 -38 76 -4 112 -2 150 10 115 36 182 64 203 85
13 13 34 22 53 22 28 0 30 -2 18 -17 -21 -27 -53 -52 -65 -53 -6 0 -24 -11
-40 -25 -16 -14 -39 -28 -51 -31 -13 -4 -23 -11 -23 -16 0 -14 -40 -48 -55
-48 -7 0 -24 -11 -39 -25 -15 -14 -32 -25 -39 -25 -7 -1 -28 -14 -47 -30 -19
-17 -42 -30 -52 -30 -10 0 -18 -4 -18 -10 0 -5 -13 -10 -29 -10 -16 0 -34 -7
-41 -15 -7 -8 -22 -15 -34 -15 -12 0 -29 -9 -39 -20 -13 -16 -30 -20 -84 -21
-181 -3 -244 0 -278 17 -20 9 -55 17 -78 18 -25 0 -50 8 -61 18 -28 25 -83 24
-91 -2 -3 -11 -3 -25 1 -32 4 -7 8 -21 9 -32 1 -12 8 -49 15 -84 12 -57 11
-64 -5 -82 -14 -15 -31 -20 -71 -20 -29 0 -56 5 -59 11 -4 6 -13 8 -21 5 -9
-3 -18 2 -21 12 -4 9 -23 33 -44 52 -37 35 -59 92 -41 104 6 3 9 14 7 24 -14
67 -16 72 -36 72 -25 0 -71 -29 -63 -41 3 -5 -6 -9 -19 -9 -14 0 -27 -6 -30
-13 -3 -9 -32 -16 -86 -20 -91 -7 -107 -4 -114 24 -4 16 0 19 33 19 22 0 42 5
45 10 3 6 17 10 31 10 14 0 24 6 24 14 0 7 9 16 20 19 12 3 20 14 20 25 0 11
7 33 15 48 8 16 15 37 15 46 0 9 4 19 8 22 12 7 6 159 -7 184 -6 11 -11 29
-11 40 0 11 -7 22 -15 26 -8 3 -15 16 -15 29 0 29 -21 73 -54 111 -14 16 -28
37 -31 47 -4 11 -13 19 -21 19 -8 0 -14 5 -14 10 0 6 -10 15 -22 20 -13 6 -36
19 -53 29 -16 11 -39 20 -50 20 -12 1 -25 5 -31 11 -21 21 -123 23 -192 5 -91
-25 -155 -53 -147 -65 3 -5 -3 -10 -14 -10 -12 0 -21 -7 -21 -15 0 -8 -6 -15
-13 -15 -11 0 -47 -67 -47 -89 0 -4 -9 -16 -20 -26 -18 -16 -19 -28 -16 -115
2 -77 8 -106 26 -141 12 -24 26 -52 31 -61 5 -10 9 -27 9 -37 0 -11 5 -23 10
-26 6 -3 10 -15 10 -26 0 -10 5 -19 10 -19 6 0 10 -7 10 -15 0 -8 4 -15 9 -15
5 0 17 -17 26 -37 10 -21 24 -42 31 -46 8 -4 14 -15 14 -22 0 -8 6 -15 14 -15
7 0 21 -12 31 -27 15 -24 113 -123 121 -123 2 0 15 -11 30 -25 15 -14 33 -24
39 -21 7 2 19 -3 28 -12 49 -51 81 -74 120 -88 9 -3 17 -10 17 -15 0 -5 13 -9
29 -9 17 0 33 -5 36 -10 3 -6 16 -10 28 -10 12 0 27 -8 34 -19 12 -19 107 -56
122 -47 10 7 61 -16 61 -26 0 -5 15 -8 33 -8 18 0 38 -5 44 -11 27 -27 447 -5
468 24 6 8 37 16 72 19 35 4 82 16 106 27 24 12 49 21 55 21 7 0 12 4 12 9 0
5 19 12 42 16 23 4 49 11 58 16 39 21 105 49 117 49 7 0 13 5 13 10 0 6 12 10
26 10 17 0 28 6 31 20 3 11 10 20 17 20 6 0 22 14 36 31 39 47 74 62 115 49
19 -6 43 -23 54 -36 24 -31 87 -74 106 -74 8 0 15 -4 15 -10 0 -5 9 -10 19
-10 11 0 23 -4 26 -10 3 -5 12 -10 20 -10 8 0 26 -11 41 -25 15 -14 38 -25 50
-25 13 0 24 -4 24 -10 0 -5 14 -10 30 -10 17 0 30 -4 30 -10 0 -5 7 -10 15
-10 8 0 15 -4 15 -10 0 -5 11 -12 24 -16 29 -7 52 -46 41 -71 -5 -10 -9 -20
-9 -23 -1 -3 -4 -10 -8 -16 -12 -18 31 -205 62 -269 16 -35 43 -72 64 -88 20
-15 36 -34 36 -42 0 -8 6 -15 13 -15 6 0 22 -11 35 -25 13 -13 27 -24 30 -24
27 4 52 -3 52 -14 0 -8 23 -19 53 -26 28 -8 57 -17 62 -22 14 -11 162 9 196
26 15 8 33 15 39 15 6 0 23 12 39 27 16 16 38 35 49 44 14 10 23 31 27 58 9
76 16 105 25 111 5 3 8 37 6 75 -2 67 -17 115 -35 115 -5 0 -12 17 -16 38 -7
41 -23 65 -36 57 -4 -3 -16 6 -25 20 -9 14 -25 25 -35 25 -11 0 -19 5 -19 11
0 7 -23 10 -65 7 -47 -2 -66 1 -70 10 -9 23 -6 30 15 37 11 3 20 15 20 25 0
10 8 21 18 25 32 13 197 32 203 24 3 -5 34 -10 70 -11 57 -3 64 -1 62 16 -2
27 30 79 58 93 61 30 101 44 141 49 37 4 47 2 74 -23 18 -15 39 -42 47 -59 16
-31 17 -31 68 -23 55 9 120 27 131 38 11 10 223 -8 226 -19 2 -6 17 -10 32
-10 53 0 135 -22 151 -41 9 -11 24 -19 33 -19 23 0 76 -28 76 -40 0 -6 6 -10
14 -10 8 0 23 -11 34 -25 11 -14 27 -25 35 -25 9 0 24 -13 34 -30 9 -16 23
-30 30 -30 7 0 13 -8 13 -18 0 -10 14 -31 30 -47 17 -16 30 -36 30 -45 0 -9
10 -22 23 -29 12 -7 40 -40 62 -73 22 -34 64 -82 95 -107 30 -26 70 -61 88
-79 18 -17 39 -32 47 -32 8 0 15 -4 15 -10 0 -5 7 -7 15 -4 8 4 15 1 15 -5 0
-6 10 -11 23 -11 16 0 23 -6 23 -20 0 -11 -7 -20 -16 -20 -8 0 -27 -7 -43 -15
-28 -15 -76 -17 -214 -10 -74 4 -83 2 -88 -15 -4 -11 -10 -20 -15 -20 -4 0
-11 -12 -14 -26 -8 -31 -19 -42 -66 -68 -19 -10 -39 -24 -45 -31 -5 -6 -40
-14 -78 -17 -92 -8 -210 27 -215 64 -2 19 5 27 38 42 23 10 44 25 47 35 3 9
13 24 21 34 20 23 23 300 4 319 -7 7 -12 20 -12 31 0 20 -67 87 -87 87 -7 0
-13 4 -13 10 0 28 -159 56 -175 30 -3 -5 -20 -10 -36 -10 -16 0 -32 -6 -35
-14 -3 -8 -25 -17 -49 -21 -28 -4 -51 -14 -62 -28 -19 -23 -99 -67 -120 -67
-7 0 -13 -4 -13 -10 0 -5 -7 -10 -15 -10 -9 0 -18 -7 -22 -16 -3 -10 -18 -29
-33 -43 -32 -30 -100 -118 -100 -129 0 -4 -12 -18 -25 -31 -14 -13 -25 -27
-25 -32 0 -11 -37 -49 -48 -49 -4 0 -13 -9 -20 -20 -7 -11 -16 -20 -21 -20 -5
0 -29 -20 -53 -45 -24 -24 -48 -45 -55 -45 -6 0 -23 -13 -36 -30 -14 -16 -31
-30 -38 -30 -6 0 -22 -10 -35 -22 -48 -47 -65 -58 -84 -58 -19 0 -58 -17 -70
-30 -14 -16 -96 -30 -168 -30 -88 0 -231 17 -247 29 -5 5 -22 11 -37 15 -16 3
-28 12 -28 19 0 7 -20 21 -44 31 -25 10 -47 25 -50 32 -3 8 -12 14 -21 14 -8
0 -15 5 -15 10 0 6 -8 14 -17 17 -26 10 -53 41 -53 61 0 24 -32 62 -52 62 -13
0 -43 -45 -41 -60 17 -98 18 -94 -27 -118 -38 -20 -51 -21 -128 -15 -63 4 -90
11 -104 25 -10 10 -25 18 -33 18 -8 0 -15 5 -15 10 0 22 -38 52 -62 48 -25 -3
-27 -20 -15 -122 5 -43 3 -54 -21 -87 -34 -47 -81 -62 -163 -53 -43 5 -64 12
-72 25 -7 11 -17 19 -23 19 -7 0 -17 12 -23 28 -7 15 -21 44 -31 64 -13 24
-20 59 -21 102 -2 89 -18 102 -66 53 -19 -21 -42 -37 -49 -37 -8 0 -14 -4 -14
-8 0 -9 -139 -32 -197 -32 -49 0 -93 17 -93 36 0 7 -8 18 -19 23 -17 10 -36
61 -22 61 3 0 14 23 24 50 10 28 22 50 27 50 6 0 10 9 10 20 0 11 3 20 8 20 9
0 32 49 32 68 0 8 -12 25 -27 38 -23 20 -40 24 -93 25 -36 1 -69 0 -75 -2 -5
-2 -26 -2 -45 -2 -19 1 -83 2 -143 2 -59 1 -115 5 -125 10 -9 5 -57 15 -107
22 -49 7 -97 18 -106 26 -8 7 -19 13 -23 13 -4 0 -14 7 -22 15 -9 8 -28 15
-43 15 -15 0 -36 9 -46 20 -10 11 -22 20 -28 20 -5 0 -25 14 -44 30 -18 17
-44 30 -57 30 -13 0 -35 9 -49 20 -14 11 -30 20 -36 20 -6 0 -11 4 -11 8 0 5
-16 16 -35 25 -19 9 -35 21 -35 27 0 5 -7 10 -15 10 -8 0 -23 9 -32 20 -10 11
-23 20 -29 20 -7 0 -21 10 -31 23 -10 13 -33 30 -50 38 -18 7 -33 17 -33 21 0
5 -7 8 -16 8 -8 0 -46 25 -83 55 -38 30 -73 55 -78 55 -6 0 -16 7 -23 15 -7 8
-25 15 -41 15 -16 0 -29 5 -29 11 0 17 -27 39 -47 39 -20 0 -103 56 -103 69 0
11 -67 41 -90 41 -11 0 -20 5 -20 10 0 6 -6 10 -14 10 -7 0 -19 7 -26 15 -7 8
-21 15 -31 15 -11 0 -19 5 -19 10 0 6 -8 10 -17 10 -10 0 -27 7 -37 15 -11 8
-31 15 -44 15 -14 0 -48 13 -76 29 -56 31 -100 46 -130 42 -10 -2 -22 2 -26 9
-7 11 -83 31 -200 51 -63 11 -109 9 -235 -11 -33 -5 -121 -16 -195 -24 -74 -8
-136 -20 -138 -25 -2 -6 -18 -11 -35 -11 -35 0 -174 -43 -222 -68 -16 -8 -34
-21 -38 -29 -4 -7 -21 -13 -37 -13 -20 0 -30 -5 -30 -15 0 -9 -9 -15 -25 -15
-16 0 -42 -15 -66 -37 -23 -21 -57 -53 -76 -70 -19 -18 -43 -33 -54 -33 -10 0
-23 -9 -29 -20 -15 -29 -64 -26 -98 5 -15 14 -34 25 -42 25 -25 0 -64 22 -82
45 -23 30 -13 72 19 80 28 7 46 22 55 46 3 9 22 24 42 33 20 9 34 21 31 27 -4
5 5 13 19 19 14 5 26 14 26 20 0 5 14 10 30 10 23 0 30 4 30 20 0 13 7 20 20
20 10 0 27 9 37 19 10 11 30 22 45 26 15 4 39 18 53 31 14 13 44 27 65 30 22
4 45 13 51 20 6 8 19 14 29 14 20 0 77 27 85 41 4 5 19 9 36 9 16 0 29 5 29
10 0 6 9 10 20 10 11 0 20 7 20 15 0 10 10 15 30 15 17 0 30 4 30 9 0 5 9 11
20 14 36 9 26 58 -19 99 -37 33 -39 37 -31 72 4 20 20 47 34 59 14 13 26 31
26 41 0 11 3 16 7 13 3 -4 15 0 25 9 22 21 201 33 212 15 4 -6 20 -11 36 -11
16 0 32 -4 35 -10 3 -5 19 -10 35 -10 22 0 41 -12 75 -46 37 -39 47 -45 60
-34 9 7 15 29 15 54 0 48 6 105 13 126 3 8 8 28 12 45 3 16 15 35 26 43 10 7
26 26 34 43 11 20 23 29 40 29 13 0 28 6 32 13 4 7 28 19 53 26 25 7 56 17 70
21 32 9 181 7 197 -3z m-4277 -58 c0 -4 25 -10 55 -14 35 -4 55 -11 55 -19 0
-8 18 -16 42 -20 25 -4 50 -17 64 -31 13 -14 32 -25 44 -25 11 0 23 -7 26 -15
4 -8 12 -15 20 -15 8 0 14 -4 14 -8 0 -4 19 -22 43 -40 77 -58 147 -124 147
-138 0 -8 5 -14 10 -14 11 0 70 -56 70 -67 0 -9 173 -178 180 -176 3 1 23 -14
45 -33 22 -19 44 -34 48 -34 5 0 22 -11 39 -25 16 -14 38 -25 49 -25 19 0 26
-2 87 -33 19 -9 46 -17 61 -17 15 0 32 -5 38 -11 7 -7 67 -11 165 -11 161 -1
164 0 273 53 22 10 48 19 58 19 22 0 72 48 81 78 4 12 11 22 16 22 15 0 40 56
41 92 3 48 -28 202 -40 206 -16 5 -13 42 4 42 8 0 48 -5 89 -11 l74 -11 12
-44 c11 -39 16 -44 41 -44 32 0 79 19 79 32 0 4 16 8 35 8 28 0 35 4 35 20 0
11 6 20 14 20 7 0 19 7 26 15 36 43 256 65 355 34 l49 -15 -24 -17 c-14 -9
-28 -17 -33 -17 -23 0 -147 -129 -147 -152 0 -10 -7 -18 -15 -18 -8 0 -15 -4
-15 -10 0 -5 -6 -10 -14 -10 -7 0 -42 -35 -77 -77 -71 -87 -183 -203 -197
-203 -5 0 -17 -16 -28 -35 -10 -19 -24 -35 -32 -35 -7 0 -15 -6 -18 -14 -3 -8
-12 -12 -20 -9 -8 3 -17 -3 -21 -13 -9 -25 -28 -44 -45 -44 -7 0 -22 -7 -32
-15 -11 -8 -28 -15 -38 -15 -10 0 -18 -4 -18 -9 0 -6 -20 -13 -45 -17 -25 -3
-45 -10 -45 -15 0 -5 -17 -9 -38 -9 -21 0 -42 -4 -48 -10 -5 -5 -54 -14 -109
-20 -55 -6 -113 -16 -130 -21 -16 -5 -83 -13 -148 -16 l-117 -6 -35 -48 c-19
-27 -36 -63 -38 -81 -6 -55 -23 -78 -61 -78 -49 0 -99 24 -137 67 -19 21 -61
65 -95 98 -36 36 -71 83 -87 118 -36 74 -53 74 -122 0 l-53 -57 -105 -4 -105
-4 -41 38 c-23 20 -41 43 -41 51 0 7 -5 22 -11 32 -15 23 -4 71 16 71 26 0
132 79 139 103 3 12 6 53 6 90 0 62 -4 77 -47 159 -27 53 -54 93 -65 96 -10 2
-18 10 -18 17 0 7 -11 20 -25 29 -14 9 -25 14 -25 11 0 -3 -15 2 -32 11 -56
29 -228 56 -228 36 0 -4 -17 -14 -37 -21 -37 -13 -93 -62 -93 -82 0 -5 -7 -9
-15 -9 -8 0 -17 -14 -21 -35 -3 -19 -10 -35 -15 -35 -5 0 -9 -18 -9 -39 0 -22
-5 -43 -11 -47 -7 -4 -9 -44 -5 -123 7 -136 14 -180 32 -202 8 -8 22 -40 32
-71 l18 -55 -33 -39 c-18 -21 -33 -44 -33 -50 0 -6 -11 -24 -25 -40 -14 -16
-25 -32 -25 -36 0 -5 -8 -8 -17 -8 -10 -1 -31 -19 -48 -40 -38 -50 -56 -55
-97 -30 -18 11 -43 20 -55 20 -13 0 -32 9 -44 21 -11 11 -50 34 -87 51 -36 17
-72 37 -80 44 -7 8 -24 14 -37 14 -13 0 -27 5 -30 10 -3 6 -21 10 -38 10 -18
0 -45 9 -62 20 -16 11 -40 20 -52 20 -13 0 -23 4 -23 9 0 4 -27 11 -60 15 -33
4 -77 15 -97 25 -60 29 -148 54 -238 68 -73 11 -95 16 -95 24 0 5 -15 9 -34 9
-19 0 -38 5 -41 10 -3 6 -24 10 -46 10 -22 0 -50 5 -62 12 -12 6 -44 12 -72
14 -27 1 -79 7 -115 14 -36 6 -121 13 -190 14 -69 2 -150 8 -180 15 -72 15
-339 -4 -355 -25 -6 -9 -46 -17 -110 -23 -105 -9 -219 -43 -249 -73 -10 -10
-24 -18 -32 -18 -8 0 -14 -4 -14 -10 0 -5 -17 -10 -39 -10 -27 0 -54 -10 -95
-37 -31 -21 -56 -43 -56 -49 0 -6 -29 -31 -65 -54 -47 -30 -68 -51 -77 -76
-10 -29 -17 -34 -44 -34 -17 0 -37 7 -44 15 -7 8 -29 19 -49 25 -38 10 -91 50
-91 68 0 27 26 63 61 87 22 14 39 29 39 35 0 19 56 69 98 86 23 11 42 24 42
31 0 6 9 14 20 18 10 3 35 22 54 41 18 18 41 34 50 34 9 0 16 8 16 20 0 13 7
20 19 20 10 0 21 7 25 15 3 8 14 15 24 15 11 0 25 7 32 15 7 8 18 15 25 15 7
0 15 7 19 15 3 8 12 15 19 15 8 0 22 9 32 20 10 11 20 18 23 15 3 -2 21 4 41
14 20 11 63 27 96 37 33 10 62 20 65 24 7 7 86 30 130 37 19 3 38 10 41 15 10
15 216 23 232 10 7 -6 27 -12 43 -12 16 0 50 -2 76 -6 l48 -6 -5 56 c-3 32 -1
56 5 56 5 0 7 6 4 14 -3 9 3 17 18 21 13 4 26 12 29 17 12 18 88 22 107 5 9
-8 40 -23 68 -32 28 -9 62 -27 77 -41 14 -13 35 -24 47 -24 11 0 23 -7 26 -15
4 -8 13 -15 20 -15 8 0 19 -11 24 -24 5 -13 22 -28 39 -34 17 -6 34 -18 37
-27 8 -20 80 -21 87 -1 9 22 -16 132 -34 153 -9 10 -22 39 -29 66 -7 26 -17
50 -21 53 -5 3 -9 27 -9 55 l0 49 83 0 c50 0 88 -5 95 -12 6 -6 37 -15 69 -19
32 -4 59 -13 61 -18 2 -6 10 -11 18 -11 8 0 14 -3 14 -8 0 -4 20 -16 44 -27
26 -11 52 -33 62 -50 10 -16 33 -44 51 -63 18 -18 33 -36 33 -41 0 -4 11 -20
25 -35 18 -20 34 -26 65 -26 44 0 44 0 31 68 -11 58 6 115 47 152 18 16 32 34
32 39 0 6 14 11 30 11 17 0 39 6 50 12 16 10 24 10 40 0 11 -6 26 -12 34 -12
8 0 17 -7 20 -16 4 -9 13 -14 21 -10 8 3 15 1 15 -4 0 -6 14 -24 30 -42 17
-17 30 -37 30 -44 0 -8 7 -14 15 -14 8 0 15 -7 15 -15 0 -10 10 -15 34 -15 32
0 34 2 40 45 4 25 10 45 14 45 4 0 18 18 32 40 13 22 28 40 32 40 4 0 8 4 8 9
0 15 53 71 67 71 7 0 13 5 13 10 0 6 6 10 13 10 7 0 23 11 35 25 12 14 30 25
39 25 10 0 27 7 37 15 13 10 43 15 87 15 56 0 67 3 71 18 5 16 16 19 87 18 44
-1 81 -4 81 -7z m7560 -39 c0 -5 7 -10 15 -10 20 0 85 -32 85 -42 0 -4 5 -8
11 -8 6 0 19 -10 30 -22 23 -29 26 -98 4 -98 -8 0 -15 -7 -15 -15 0 -8 -3 -15
-7 -15 -5 0 -16 -20 -26 -45 -12 -28 -25 -45 -35 -45 -22 0 -78 -53 -98 -93
-22 -43 -30 -47 -96 -47 -63 0 -69 9 -49 62 11 28 -6 147 -24 168 -6 8 -17 34
-23 58 -8 34 -7 42 4 42 8 0 14 7 14 15 0 8 5 15 10 15 6 0 10 5 10 10 0 17
39 50 60 50 11 0 20 4 20 9 0 9 17 12 93 19 9 1 17 -2 17 -8z m-11520 -409 c0
-5 17 -11 38 -15 22 -4 49 -18 66 -36 16 -17 40 -30 53 -30 13 0 23 -6 23 -14
0 -7 10 -24 23 -38 75 -84 97 -113 97 -125 0 -7 5 -22 10 -33 6 -11 15 -29 20
-40 6 -11 10 -29 10 -39 0 -11 7 -24 16 -29 17 -10 17 -15 -4 -124 -8 -42 -14
-55 -47 -95 -17 -21 -29 -37 -59 -78 -37 -51 -98 -115 -110 -115 -5 0 -31 -23
-57 -52 -26 -28 -53 -53 -61 -54 -26 -4 -88 -34 -88 -42 0 -5 -48 -14 -107
-20 -91 -10 -114 -10 -148 2 -55 20 -113 20 -133 -1 -21 -21 -20 -91 2 -154 8
-24 22 -63 30 -86 19 -52 12 -73 -24 -73 -16 0 -30 -5 -32 -10 -2 -6 -41 -11
-89 -12 -70 -2 -89 1 -103 15 -10 9 -27 17 -39 17 -28 0 -66 26 -104 70 -22
26 -32 49 -36 89 -7 61 -20 81 -53 81 -13 0 -24 5 -24 10 0 6 -18 10 -40 10
-41 0 -46 1 -117 38 -23 12 -49 22 -58 22 -43 0 -112 32 -129 61 -9 16 -21 29
-27 29 -5 0 -9 7 -9 15 0 8 -9 15 -20 15 -13 0 -20 7 -20 20 0 11 -7 23 -15
26 -9 4 -15 19 -15 40 0 19 -4 34 -9 34 -6 0 -13 21 -16 48 -4 26 -15 65 -24
87 -10 22 -21 61 -24 88 -4 26 -14 61 -23 78 -13 26 -14 38 -3 80 7 27 17 49
22 49 4 0 6 8 2 19 -3 10 1 24 10 31 8 7 15 19 15 26 0 8 9 19 20 26 11 7 20
18 20 25 0 6 19 21 43 32 34 17 62 21 133 21 57 0 94 -4 102 -12 7 -7 12 -8
12 -4 0 5 7 3 15 -4 8 -7 22 -10 30 -6 9 3 15 0 15 -10 0 -8 8 -18 17 -21 21
-8 53 -40 53 -53 0 -5 5 -10 10 -10 6 0 10 -7 10 -16 0 -9 8 -31 19 -48 23
-39 36 -121 21 -131 -6 -4 -10 -17 -10 -28 3 -40 -11 -65 -48 -83 -21 -11 -40
-23 -43 -28 -16 -21 -77 6 -126 54 -52 51 -81 61 -103 35 -18 -22 14 -123 51
-157 16 -15 29 -31 29 -37 0 -5 10 -13 23 -17 12 -4 28 -15 35 -25 7 -11 19
-19 25 -19 7 0 28 -13 47 -30 29 -25 100 -50 141 -50 14 0 41 29 74 80 26 40
29 55 32 135 3 107 4 115 15 115 4 0 8 11 8 25 0 14 9 30 20 37 11 7 20 17 20
21 0 5 7 15 15 24 13 12 29 14 86 8 73 -7 99 -22 99 -57 0 -11 7 -26 16 -32
22 -17 26 -190 5 -229 -14 -25 -14 -29 4 -47 19 -18 23 -18 60 -5 22 8 68 14
101 15 42 0 66 5 74 15 7 8 27 15 45 15 20 0 35 6 39 15 3 9 18 15 40 15 28 0
40 7 58 30 12 17 28 30 35 30 19 0 73 60 73 80 0 9 4 20 9 26 5 5 5 19 0 32
-10 26 -35 28 -94 7 -54 -20 -97 -19 -121 3 -10 10 -27 21 -36 25 -34 12 -88
155 -88 230 1 57 57 157 90 157 5 0 10 7 10 15 0 11 13 15 53 16 28 0 61 4 72
9 27 11 75 12 75 1z m12776 -53 c5 -4 36 -8 68 -9 31 -1 59 -6 62 -11 3 -4 18
-8 33 -8 26 0 28 -4 39 -60 6 -33 8 -72 4 -87 -4 -16 -7 -46 -7 -68 0 -63 -13
-70 -139 -73 -74 -3 -113 -8 -118 -16 -5 -8 -44 -13 -129 -13 -71 -1 -126 -6
-132 -12 -6 -6 -29 -11 -52 -11 -23 0 -50 -7 -61 -15 -10 -8 -36 -15 -56 -15
-20 0 -40 -4 -43 -10 -3 -5 -26 -10 -51 -10 -24 0 -44 -4 -44 -10 0 -5 -8 -10
-18 -10 -11 0 -29 -9 -42 -20 -13 -12 -37 -20 -57 -20 -20 0 -46 -9 -60 -20
-14 -11 -32 -20 -39 -20 -8 0 -24 -10 -36 -22 -17 -17 -37 -23 -84 -26 -54 -4
-69 0 -116 24 -29 16 -54 32 -56 37 -2 4 -12 7 -23 7 -10 0 -19 4 -19 9 0 5
-17 16 -37 25 -75 32 -102 57 -103 94 0 13 6 22 15 22 8 0 12 6 10 13 -3 7 11
21 32 32 20 11 47 30 59 43 13 12 32 22 42 22 10 0 27 9 37 20 10 11 28 20 41
20 13 0 26 5 29 10 3 6 15 10 26 10 10 0 19 7 19 15 0 9 9 15 24 15 13 0 36
10 51 22 18 14 47 23 81 26 43 4 54 8 54 22 0 14 12 18 58 23 32 2 67 9 78 15
22 12 175 29 289 31 44 2 95 5 113 9 43 9 244 9 258 0z m426 -54 c5 -3 8 -14
8 -24 0 -10 4 -20 9 -22 16 -5 16 -214 1 -223 -5 -3 -7 -12 -4 -19 4 -9 -6
-16 -30 -20 -42 -8 -83 1 -90 20 -3 7 -12 11 -20 8 -11 -4 -17 6 -24 38 -5 25
-5 48 0 55 5 6 8 22 7 35 -1 12 -1 53 -1 90 l2 67 33 4 c33 4 96 -1 109 -9z
m-15002 -274 c0 -5 7 -10 15 -10 8 0 15 -6 15 -13 0 -7 11 -20 24 -30 13 -10
27 -30 31 -45 3 -15 18 -40 33 -55 25 -26 26 -29 9 -38 -10 -6 -22 -20 -28
-32 -5 -12 -13 -29 -18 -37 -23 -37 -51 -102 -51 -118 0 -28 -72 -162 -87
-162 -39 0 -153 107 -153 143 0 8 -9 17 -20 20 -14 3 -20 14 -20 31 0 28 40
99 74 131 12 11 28 36 35 55 21 55 45 100 53 100 5 0 8 5 8 10 0 24 34 60 56
60 13 0 24 -4 24 -10z m13212 -112 c11 -7 37 -28 57 -45 20 -18 49 -38 66 -45
16 -6 32 -15 35 -18 14 -16 70 -50 84 -50 9 0 16 -4 16 -10 0 -5 5 -10 12 -10
13 0 68 -59 68 -72 0 -5 -5 -8 -11 -8 -5 0 -19 -19 -30 -42 -34 -75 -42 -82
-84 -68 -20 7 -39 10 -42 7 -3 -3 -28 10 -55 29 -28 19 -58 34 -69 34 -10 0
-21 5 -24 10 -3 6 -16 10 -27 10 -12 0 -28 7 -37 15 -35 33 -79 65 -90 65 -6
0 -16 9 -23 20 -7 11 -18 20 -25 20 -7 0 -13 5 -13 10 0 6 -6 10 -14 10 -8 0
-16 7 -20 15 -3 8 -1 15 5 15 11 0 72 41 77 53 2 4 10 7 17 7 7 0 15 6 18 13
5 13 62 46 80 47 4 0 17 -6 29 -12z m-13026 -136 c6 -4 14 -17 18 -29 4 -13
13 -23 21 -23 15 0 45 -42 45 -63 0 -8 9 -22 21 -33 11 -10 29 -37 40 -61 10
-23 28 -48 38 -55 11 -8 23 -26 26 -41 4 -15 11 -27 16 -27 5 0 9 -6 9 -14 0
-7 9 -16 20 -19 11 -3 23 -13 27 -24 3 -10 20 -30 37 -46 84 -75 96 -92 90
-127 -4 -17 -11 -33 -15 -36 -5 -3 -6 -16 -3 -29 3 -13 0 -33 -6 -45 -7 -12
-12 -37 -12 -55 0 -34 -54 -105 -81 -105 -8 0 -52 33 -98 73 -46 40 -102 86
-124 102 -21 16 -78 68 -126 115 -96 94 -141 168 -119 195 7 9 10 18 7 22 -3
3 0 18 9 34 8 16 12 29 9 29 -3 0 6 12 20 27 14 15 25 38 25 51 0 13 9 40 19
60 35 68 44 92 38 99 -9 8 12 33 27 33 6 0 16 -4 22 -8z m711 -29 c-2 -21 -10
-31 -32 -39 -39 -14 -51 -9 -64 26 -9 27 -8 29 17 33 72 11 81 9 79 -20z
m4740 -28 c28 -25 56 -45 61 -45 5 0 12 -11 14 -25 4 -19 1 -25 -13 -25 -12 0
-19 -7 -19 -20 0 -11 -4 -20 -10 -20 -5 0 -10 -6 -10 -13 0 -8 -9 -24 -20 -37
-11 -13 -20 -30 -20 -39 0 -9 -11 -23 -23 -32 -27 -20 -97 -34 -97 -20 0 6
-16 13 -35 17 -19 3 -39 12 -46 20 -6 8 -20 14 -30 14 -14 0 -19 7 -19 25 0
14 5 25 10 25 6 0 10 5 10 10 0 6 27 38 60 71 33 34 57 66 54 70 -3 5 2 9 10
9 9 0 16 8 16 18 0 22 19 42 40 42 8 0 38 -20 67 -45z m2508 -15 c10 -11 24
-20 32 -20 17 0 43 -24 43 -39 0 -6 13 -11 30 -11 63 0 109 -48 55 -58 -23 -5
-55 -31 -55 -45 0 -16 -33 -36 -62 -37 -40 0 -70 14 -120 57 -25 21 -55 46
-67 55 -29 24 -27 30 21 53 22 11 43 27 46 37 4 15 19 24 48 27 6 0 19 -8 29
-19z m-5978 -101 c9 -22 17 -30 28 -25 9 3 18 0 21 -9 3 -8 21 -19 40 -25 37
-12 43 -32 20 -65 -7 -11 -16 -37 -20 -57 -4 -21 -11 -38 -16 -38 -6 0 -10 -9
-10 -20 0 -16 -7 -20 -30 -20 -17 0 -40 9 -52 20 -12 11 -28 20 -35 20 -7 0
-27 14 -45 30 -17 17 -36 30 -41 30 -18 0 -57 43 -57 63 0 26 54 78 109 104
63 29 75 28 88 -8z m1355 -16 c21 -9 38 -20 38 -23 0 -3 16 -12 35 -20 19 -8
35 -20 35 -27 0 -8 9 -23 20 -35 11 -12 20 -36 21 -52 0 -17 10 -69 22 -116
22 -84 23 -85 52 -83 16 1 31 7 33 13 2 5 10 10 17 10 8 0 22 13 31 30 10 17
30 32 45 35 15 4 38 16 51 29 13 12 43 28 68 35 25 7 54 17 65 21 78 29 116
34 335 39 129 4 238 3 241 -2 3 -4 52 -9 110 -10 93 -2 110 -5 163 -32 35 -18
75 -49 99 -77 22 -26 49 -50 61 -54 28 -9 109 -78 221 -187 49 -49 110 -102
135 -119 25 -17 73 -55 107 -85 33 -29 68 -53 77 -53 9 0 20 -8 23 -17 11 -28
30 -43 53 -43 11 0 32 -7 45 -16 13 -8 39 -18 57 -21 18 -3 35 -9 36 -14 2 -5
10 -9 18 -9 8 0 22 -4 32 -9 9 -5 53 -14 97 -21 44 -7 82 -14 84 -16 8 -8 -45
-43 -66 -44 -13 0 -23 -4 -23 -8 0 -16 -60 -42 -98 -42 -23 0 -44 -4 -47 -10
-8 -13 -191 -13 -217 1 -11 6 -32 13 -46 15 -15 3 -40 12 -56 20 -16 8 -41 14
-56 14 -17 0 -34 9 -46 25 -10 14 -23 25 -28 25 -5 0 -14 8 -21 17 -11 15 -17
15 -39 5 -28 -12 -34 -41 -17 -85 7 -18 5 -26 -10 -35 -10 -7 -19 -18 -19 -26
0 -19 -57 -66 -80 -66 -10 0 -22 -4 -25 -10 -3 -5 -17 -10 -30 -10 -13 0 -25
-5 -27 -12 -3 -7 -38 -13 -91 -16 -99 -4 -107 3 -61 58 24 28 27 39 27 108 -1
99 -2 112 -14 112 -5 0 -9 9 -9 19 0 11 -4 23 -10 26 -5 3 -10 17 -10 29 0 13
-11 31 -26 42 -14 10 -35 41 -46 67 -11 26 -29 52 -38 57 -19 10 -53 38 -103
83 -17 15 -42 30 -56 33 -14 3 -40 12 -58 21 -25 12 -59 15 -176 12 -85 -3
-150 -9 -158 -15 -8 -6 -39 -17 -69 -24 -30 -7 -59 -14 -65 -17 -29 -12 -58
-33 -71 -52 -8 -11 -22 -21 -30 -21 -8 0 -14 -4 -14 -10 0 -5 -6 -10 -14 -10
-7 0 -42 -27 -76 -60 -34 -33 -65 -60 -68 -60 -2 0 -18 -13 -34 -30 -15 -17
-34 -30 -42 -30 -17 0 -56 -38 -151 -145 -103 -116 -122 -135 -139 -135 -9 0
-16 -7 -16 -15 0 -8 -7 -15 -15 -15 -8 0 -31 -18 -51 -40 -23 -25 -45 -40 -60
-40 -13 0 -27 -6 -31 -13 -4 -7 -35 -25 -68 -41 -144 -69 -178 -80 -265 -91
-30 -4 -72 -14 -94 -21 -60 -21 -192 -28 -261 -14 -52 11 -171 65 -199 91 -6
5 -21 9 -34 9 -33 0 -112 56 -112 79 0 6 -4 11 -9 11 -4 0 -6 11 -3 25 3 19
-1 27 -21 34 -14 5 -32 19 -40 31 -21 31 -48 19 -70 -30 -9 -22 -17 -45 -17
-50 0 -6 -4 -10 -10 -10 -5 0 -10 -7 -10 -15 0 -8 -7 -15 -15 -15 -8 0 -15 -6
-15 -13 0 -14 -45 -56 -81 -75 -35 -18 -125 -22 -146 -6 -10 7 -26 14 -35 14
-13 0 -18 8 -18 28 0 16 -8 32 -19 39 -13 8 -17 19 -14 37 3 15 1 26 -6 26 -6
0 -11 9 -11 20 0 45 -71 29 -97 -22 -30 -57 -104 -139 -140 -154 -17 -8 -34
-18 -38 -24 -3 -5 -22 -10 -41 -10 -33 0 -34 1 -34 41 0 23 -10 62 -24 88 -25
51 -28 139 -6 166 7 8 9 15 4 15 -5 1 3 8 19 16 18 9 27 23 27 38 0 39 -56 50
-78 16 -7 -11 -17 -20 -23 -20 -7 0 -22 -11 -35 -25 -29 -32 -103 -60 -118
-45 -5 5 -19 10 -31 10 -12 0 -30 7 -41 15 -10 8 -27 15 -36 15 -10 0 -32 19
-48 42 -28 38 -30 46 -24 98 8 72 -13 102 -72 104 l-39 1 -7 74 c-6 53 -4 77
4 82 6 4 13 31 15 60 1 29 9 56 15 61 17 10 58 10 58 0 0 -12 58 -31 80 -25
11 3 20 1 20 -4 0 -5 20 -15 44 -22 35 -10 57 -10 96 -2 28 6 66 11 85 11 37
0 114 22 155 44 14 8 41 17 60 21 42 8 120 42 120 53 0 4 16 18 35 31 19 13
37 31 40 40 3 10 22 25 42 35 42 20 93 66 93 83 0 7 6 16 13 20 8 4 22 20 31
35 25 39 62 45 91 13 13 -14 26 -25 29 -25 3 0 25 -19 49 -42 24 -24 57 -50
73 -58 62 -32 89 -75 99 -158 4 -34 11 -65 16 -68 5 -3 9 -19 9 -35 0 -35 84
-216 112 -240 10 -9 18 -21 18 -28 0 -6 5 -11 10 -11 6 0 10 -5 10 -11 0 -14
106 -119 120 -119 6 0 10 -7 10 -15 0 -9 9 -15 21 -15 11 0 33 -8 47 -18 94
-64 410 -51 462 19 3 4 19 9 35 11 17 1 30 8 30 13 1 10 30 47 71 89 52 54 64
82 64 151 0 43 -6 78 -16 98 -32 61 -34 67 -34 94 0 22 -13 38 -56 73 -31 25
-62 51 -69 58 -8 6 -18 12 -23 12 -5 0 -15 6 -21 14 -41 49 -191 82 -262 57
-27 -9 -36 -9 -48 4 -14 14 -13 18 11 40 15 14 30 25 33 25 4 0 13 7 21 15 9
8 24 15 34 15 10 0 39 9 65 20 50 22 179 28 190 10 3 -5 14 -10 25 -10 10 0
35 -9 57 -19 21 -11 52 -25 70 -32 17 -8 34 -21 36 -31 6 -20 46 -25 64 -7 15
15 5 71 -14 82 -22 14 -16 90 13 149 37 74 52 88 91 88 18 0 33 5 33 10 0 15
28 12 72 -7z m2343 -58 c26 -25 59 -48 72 -51 12 -4 23 -12 23 -20 0 -8 7 -14
15 -14 9 0 18 -7 21 -15 4 -8 15 -15 25 -15 10 0 19 -3 19 -7 0 -9 49 -33 67
-33 7 0 13 -4 13 -8 0 -8 69 -42 85 -42 4 0 26 -8 49 -19 47 -22 106 -38 191
-53 33 -6 62 -14 65 -18 10 -15 108 -22 285 -21 231 2 309 7 313 20 2 6 28 11
57 11 31 0 59 6 67 13 7 7 42 19 77 26 35 7 71 16 80 21 9 4 27 12 41 17 14 6
36 15 50 21 14 6 35 13 46 17 12 3 24 14 26 23 3 11 24 23 57 32 29 8 54 18
57 22 3 4 14 8 25 8 10 0 19 7 19 15 0 10 10 15 30 15 17 0 30 5 30 10 0 6 7
10 15 10 8 0 15 4 15 10 0 5 16 17 35 26 19 9 32 20 29 25 -13 22 25 6 60 -26
22 -19 46 -35 53 -35 7 0 13 -4 13 -10 0 -5 9 -10 20 -10 11 0 20 -4 20 -9 0
-12 57 -41 79 -41 9 0 22 -9 29 -21 11 -18 9 -24 -18 -56 -17 -19 -29 -41 -26
-48 3 -8 0 -15 -6 -17 -16 -6 -20 -32 -21 -118 0 -143 20 -227 68 -274 18 -17
40 -45 50 -63 10 -17 29 -37 42 -44 13 -7 23 -16 23 -21 0 -4 8 -8 18 -8 10 0
22 -3 26 -7 15 -16 85 -33 136 -34 30 -1 61 -6 67 -11 15 -12 83 -2 83 12 0 5
21 12 48 16 55 8 82 20 82 37 0 7 14 17 32 22 25 8 34 18 41 44 4 18 15 44 24
57 19 29 14 84 -17 174 -17 52 -33 76 -76 118 -53 50 -119 92 -146 92 -18 0
-41 56 -34 84 3 12 17 28 31 36 14 7 24 18 22 24 -2 6 21 19 52 29 72 24 143
17 224 -25 10 -5 22 -6 27 -3 5 3 11 1 14 -4 4 -5 24 -12 47 -16 22 -4 43 -13
45 -20 3 -7 16 -16 30 -19 13 -4 24 -11 24 -16 0 -17 67 -12 74 6 3 9 4 19 1
24 -3 4 2 11 11 14 9 4 14 9 11 12 -3 3 8 19 24 35 16 15 29 33 29 39 0 6 16
20 35 31 19 12 35 27 35 35 0 10 12 14 38 14 54 0 112 -18 112 -36 0 -8 6 -17
14 -20 8 -3 17 -21 20 -40 4 -19 11 -34 16 -34 5 0 11 -15 14 -32 18 -117 13
-108 56 -108 30 0 42 5 51 21 9 18 17 21 56 16 28 -3 55 1 74 10 38 19 99 20
239 4 63 -7 141 -10 173 -6 37 4 57 2 57 -5 0 -5 11 -10 24 -10 13 0 26 -7 30
-15 3 -8 16 -15 29 -15 46 0 87 -13 87 -26 0 -8 7 -14 15 -14 8 0 15 -4 15
-10 0 -5 6 -10 14 -10 7 0 19 -7 26 -15 7 -8 23 -15 36 -15 20 0 83 -47 118
-88 34 -41 76 -82 85 -82 5 0 11 -9 14 -20 3 -11 12 -20 21 -20 9 0 39 -23 67
-50 28 -28 57 -50 64 -50 7 0 18 -7 25 -15 7 -8 20 -15 29 -15 9 0 23 -9 31
-20 8 -11 19 -20 26 -20 6 0 21 -9 34 -20 13 -11 36 -20 51 -20 16 0 40 -10
55 -22 22 -20 48 -29 119 -42 11 -2 39 -4 61 -5 36 -1 42 -4 46 -26 3 -14 1
-25 -5 -25 -5 0 -17 -8 -26 -18 -15 -17 -62 -35 -121 -46 -14 -2 -45 -10 -70
-16 -25 -6 -74 -16 -110 -21 -36 -4 -82 -11 -102 -15 -23 -4 -38 -2 -38 4 0
10 -79 34 -91 26 -4 -2 -10 -17 -14 -32 -7 -30 -116 -122 -146 -122 -10 0 -20
-4 -23 -9 -8 -13 -151 -13 -196 0 -44 13 -50 23 -22 38 22 12 44 78 48 144 1
27 5 65 9 84 5 29 0 48 -25 98 -29 58 -137 182 -171 198 -8 4 -21 11 -29 16
-15 10 -50 24 -62 25 -3 1 -10 4 -14 9 -4 4 -33 7 -65 7 -32 0 -60 4 -63 9 -8
12 -230 3 -234 -10 -2 -5 -12 -9 -22 -9 -10 0 -22 -4 -25 -10 -3 -5 -14 -10
-24 -10 -10 0 -34 -15 -53 -33 -63 -57 -116 -97 -132 -97 -10 0 -13 -6 -10
-15 4 -8 1 -15 -4 -15 -6 0 -14 -10 -18 -22 -7 -23 -28 -48 -39 -48 -13 0
-100 -95 -97 -107 1 -6 -7 -14 -18 -18 -11 -3 -20 -13 -20 -21 0 -8 -7 -14
-16 -14 -8 0 -29 -14 -46 -30 -16 -17 -39 -33 -52 -36 -12 -3 -26 -15 -31 -27
-7 -15 -23 -24 -52 -30 -27 -5 -47 -16 -57 -32 -13 -20 -25 -25 -61 -25 -25 0
-45 -4 -45 -8 0 -4 -37 -13 -81 -20 -45 -6 -87 -16 -94 -22 -26 -21 -367 -11
-381 11 -3 5 -15 9 -27 9 -12 0 -32 6 -43 13 -12 6 -41 23 -65 36 -24 13 -49
32 -56 41 -7 10 -26 23 -42 30 -17 7 -47 28 -67 46 -19 19 -39 34 -43 34 -4 0
-16 16 -27 35 -14 26 -27 37 -51 41 -39 7 -56 -4 -74 -49 -7 -18 -25 -44 -41
-58 -15 -14 -28 -31 -28 -37 0 -7 -7 -12 -15 -12 -8 0 -14 -6 -13 -12 5 -22
-57 -21 -96 2 -20 12 -36 26 -36 30 0 4 -11 11 -25 14 -31 8 -85 54 -85 73 0
7 -7 13 -15 13 -8 0 -22 12 -32 28 -22 35 -43 52 -65 52 -22 0 -24 -43 -3 -80
19 -33 19 -55 0 -74 -9 -8 -15 -17 -14 -18 1 -2 -6 -20 -15 -42 -9 -21 -16
-42 -16 -46 0 -9 -50 -20 -88 -20 -25 0 -114 39 -120 53 -2 4 -12 7 -22 7 -10
0 -20 7 -24 15 -3 8 -14 15 -23 15 -20 0 -66 47 -89 92 -17 33 -25 34 -61 11
-38 -25 -92 -43 -130 -43 -17 0 -35 -5 -38 -11 -9 -14 -102 -2 -132 17 -13 8
-29 27 -36 42 -24 46 -52 248 -37 257 5 3 1 23 -7 45 -13 32 -21 40 -42 40
-14 0 -41 9 -59 20 -18 11 -38 18 -43 14 -5 -3 -21 1 -34 10 -13 9 -31 13 -39
10 -9 -3 -16 -2 -16 4 0 5 -12 13 -27 17 -15 3 -46 15 -70 26 -23 10 -50 19
-60 19 -10 0 -43 16 -73 35 -30 20 -71 40 -90 45 -19 6 -44 17 -54 25 -11 8
-31 15 -45 15 -15 0 -37 12 -51 27 -14 14 -40 32 -58 40 -18 7 -35 20 -38 27
-3 8 -22 16 -44 20 -21 3 -40 13 -44 21 -3 8 -12 15 -20 15 -29 0 -27 21 7 63
19 23 38 52 42 65 3 12 11 20 16 17 5 -4 13 5 18 19 10 26 36 45 62 46 8 0 37
-20 64 -45z m-5197 -149 c15 -8 43 -17 63 -21 20 -3 44 -14 54 -25 10 -11 27
-20 37 -20 42 0 58 -19 58 -66 0 -54 -20 -67 -54 -35 -12 11 -33 21 -46 21
-12 0 -41 15 -64 34 -23 18 -55 40 -72 49 -39 20 -58 43 -50 62 7 19 40 19 74
1z m939 -51 c57 -1 105 -4 109 -7 3 -4 -13 -20 -37 -37 -23 -17 -49 -40 -56
-51 -8 -11 -22 -20 -32 -20 -11 0 -21 -7 -25 -15 -3 -8 -17 -15 -31 -15 -14 0
-25 -4 -25 -10 0 -18 -29 -11 -50 12 -11 12 -20 30 -20 40 0 10 -4 18 -9 18
-5 0 -12 15 -16 33 -4 17 -9 41 -12 51 -5 18 -2 18 48 10 30 -4 100 -9 156 -9z
m-867 -172 c30 -20 58 -41 61 -46 13 -19 19 -89 9 -101 -5 -7 -15 -48 -21 -92
-6 -43 -13 -83 -16 -87 -3 -5 -26 -7 -51 -4 -36 4 -52 12 -74 38 -24 30 -27
43 -28 100 0 36 4 79 10 95 5 16 11 43 13 59 4 33 23 75 35 75 4 0 32 -16 62
-37z"/>
<path d="M18093 2301 c-43 -11 -76 -34 -107 -74 -34 -45 -28 -97 15 -116 16
-7 29 -18 29 -23 0 -18 61 -67 76 -61 8 3 14 -1 14 -11 0 -11 9 -16 30 -16 17
0 39 -6 51 -12 17 -11 22 -10 33 5 7 9 20 17 29 17 30 0 87 33 87 51 0 9 7 22
14 29 8 6 25 32 37 57 28 57 19 87 -36 125 -35 24 -51 28 -140 32 -55 2 -115
1 -132 -3z m220 -83 c9 -5 17 -16 17 -25 0 -23 -42 -83 -57 -83 -7 0 -13 -4
-13 -10 0 -12 -62 -13 -114 0 -38 8 -78 40 -88 70 -6 17 26 49 56 55 61 13
167 10 199 -7z"/>
<path d="M12437 2833 c-18 -3 -35 -16 -47 -36 -10 -18 -23 -37 -28 -42 -10
-12 -3 -83 9 -91 5 -3 9 -16 9 -28 0 -13 7 -29 15 -36 8 -7 15 -18 15 -25 0
-16 156 -175 172 -175 6 0 23 -15 39 -32 15 -18 32 -33 36 -34 24 -2 82 -40
87 -57 3 -13 10 -18 20 -14 8 3 18 2 21 -3 4 -6 14 -10 24 -10 10 0 24 -7 31
-15 7 -8 23 -15 36 -15 13 0 29 -9 36 -20 7 -11 20 -20 28 -20 26 0 70 -24 70
-37 0 -7 6 -13 14 -13 8 0 21 -3 30 -6 9 -4 18 0 22 9 6 15 0 26 -38 68 -10
10 -18 25 -19 32 0 6 -22 53 -49 102 -27 50 -57 105 -66 123 -10 17 -24 32
-31 32 -7 0 -13 11 -13 24 0 14 -8 31 -17 38 -20 15 -38 41 -53 77 -17 40
-171 180 -210 191 -46 14 -108 19 -143 13z m127 -73 c14 -5 26 -17 26 -26 0
-9 9 -18 20 -21 10 -3 22 -14 25 -24 4 -10 14 -19 24 -19 17 0 61 -42 61 -59
0 -5 14 -23 30 -39 17 -17 30 -37 30 -44 0 -8 8 -23 18 -34 9 -10 26 -36 37
-58 11 -21 26 -40 33 -43 6 -3 12 -11 12 -19 0 -7 9 -28 20 -46 24 -39 25 -58
5 -58 -8 0 -15 3 -15 8 0 4 -17 16 -37 27 -21 11 -42 25 -48 31 -5 7 -23 15
-38 18 -24 6 -57 29 -103 74 -7 6 -17 12 -21 12 -5 0 -25 14 -43 30 -18 17
-37 30 -41 30 -4 0 -11 9 -14 20 -4 11 -25 41 -48 66 -49 54 -55 67 -56 116
-1 59 6 68 54 68 24 0 55 -4 69 -10z"/>
<path d="M15209 1827 c-9 -7 -19 -21 -23 -32 -3 -11 -24 -29 -46 -39 -22 -11
-40 -25 -40 -33 0 -7 -4 -13 -9 -13 -5 0 -22 -26 -38 -58 -27 -56 -28 -59 -15
-118 10 -47 24 -74 62 -121 l49 -61 63 -4 c61 -4 64 -3 95 29 18 18 33 41 33
51 0 9 7 30 15 46 20 39 19 60 -11 194 -16 72 -34 127 -47 144 -24 29 -61 36
-88 15z m41 -103 c0 -9 10 -29 21 -46 19 -26 21 -37 14 -86 -4 -32 -9 -72 -10
-90 -3 -50 -67 -94 -100 -70 -63 48 -60 43 -59 115 0 58 4 74 30 110 16 24 39
46 51 49 12 3 24 12 27 20 7 19 26 18 26 -2z"/>
<path d="M7180 2515 c-7 -8 -18 -15 -26 -15 -34 0 -57 -85 -35 -128 6 -9 12
-29 16 -44 3 -16 12 -28 20 -28 8 0 15 -6 15 -14 0 -8 9 -18 20 -21 11 -3 25
-15 30 -26 6 -10 17 -19 25 -19 8 0 15 -4 15 -10 0 -5 12 -10 28 -10 15 0 38
-9 52 -20 14 -11 36 -20 51 -20 14 0 29 -4 35 -9 5 -5 38 -13 73 -17 l64 -7
-7 54 c-4 30 -14 58 -22 62 -8 4 -14 19 -14 32 0 13 -6 30 -12 37 -7 7 -20 26
-28 41 -13 27 -98 101 -176 153 -40 28 -105 32 -124 9z m139 -77 c24 -10 45
-27 48 -37 3 -10 16 -24 29 -31 13 -8 24 -21 24 -31 0 -9 6 -19 14 -22 19 -8
29 -56 15 -73 -8 -10 -22 -12 -48 -8 -37 7 -91 33 -91 45 0 4 -11 10 -25 13
-14 4 -25 11 -25 16 0 6 -7 10 -15 10 -8 0 -15 6 -15 14 0 7 -9 16 -20 19 -19
5 -26 31 -21 82 3 39 47 40 130 3z"/>
<path d="M4340 1463 c-8 -3 -41 -32 -73 -64 -31 -33 -80 -73 -107 -90 -28 -17
-50 -35 -50 -41 0 -5 -12 -25 -26 -44 -15 -19 -24 -37 -21 -41 4 -3 -3 -19
-15 -35 -16 -24 -18 -34 -10 -51 6 -12 13 -32 17 -44 18 -63 144 -77 175 -18
7 14 20 25 27 25 21 0 51 32 68 73 8 20 13 37 11 37 -3 0 1 12 9 26 7 15 11
41 8 65 -3 21 -1 39 4 39 5 0 7 15 5 33 -2 22 2 38 12 46 36 30 9 97 -34 84z
m-46 -184 c-4 -13 -7 -34 -5 -45 1 -13 -12 -36 -33 -58 -19 -20 -37 -43 -39
-50 -7 -18 -108 -26 -114 -9 -7 17 35 83 53 83 8 0 14 9 14 19 0 11 9 23 20
26 11 3 20 11 20 16 0 5 5 9 11 9 7 0 23 12 36 26 28 31 50 21 37 -17z"/>
<path d="M10072 1763 c-13 -3 -26 -11 -28 -18 -6 -14 -84 -54 -142 -73 -18 -6
-39 -17 -46 -24 -7 -7 -23 -20 -35 -28 -11 -8 -21 -20 -21 -26 0 -7 -4 -14 -8
-16 -12 -4 -62 -96 -62 -113 0 -7 -4 -15 -10 -17 -10 -3 33 -163 51 -184 6 -8
17 -14 23 -14 6 0 19 -9 29 -20 9 -11 24 -20 32 -20 8 0 15 -4 15 -10 0 -6 29
-10 66 -10 69 0 134 26 134 55 0 7 12 26 28 43 19 20 27 39 26 61 -1 17 3 31
8 31 6 0 8 43 5 117 -5 89 -2 131 10 174 15 53 14 57 -3 77 -18 22 -27 23 -72
15z m-15 -129 c3 -8 0 -34 -8 -57 -7 -23 -14 -49 -15 -57 0 -8 -2 -19 -3 -25
-2 -5 -2 -34 -1 -62 1 -29 -3 -53 -8 -53 -5 0 -13 -12 -17 -27 -3 -15 -12 -31
-18 -35 -20 -13 -107 -9 -136 6 -42 22 -50 37 -56 103 -5 56 -4 62 15 68 11 4
18 11 15 16 -4 5 -1 9 4 9 6 0 11 7 11 15 0 8 5 15 10 15 6 0 10 6 10 13 0 15
81 57 109 57 10 0 21 7 25 15 7 20 55 19 63 -1z"/>
</g>
</svg>
