<?xml version="1.0" standalone="no"?>
<!DOCTYPE svg PUBLIC "-//W3C//DTD SVG 20010904//EN"
 "http://www.w3.org/TR/2001/REC-SVG-20010904/DTD/svg10.dtd">
<svg version="1.0" xmlns="http://www.w3.org/2000/svg"
 width="2243.000000pt" height="479.000000pt" viewBox="0 0 2243.000000 479.000000"
 preserveAspectRatio="xMidYMid meet">
<metadata>
Created by potrace 1.13, written by Peter Selinger 2001-2015
</metadata>
<g transform="translate(0.000000,479.000000) scale(0.100000,-0.100000)"
fill="#000000" stroke="none">
<path d="M11620 4700 c-5 -10 -10 -37 -10 -60 0 -22 -10 -74 -22 -115 -25 -85
-70 -147 -155 -214 -29 -22 -71 -68 -94 -102 -36 -54 -43 -73 -54 -153 -7 -50
-16 -99 -20 -108 -4 -9 -28 -24 -53 -33 -58 -19 -98 -55 -143 -126 -18 -30
-58 -77 -87 -104 l-52 -48 -58 14 c-73 18 -205 18 -258 0 -49 -16 -64 -42 -64
-108 0 -39 5 -50 36 -79 29 -28 43 -34 78 -34 95 0 87 84 -9 92 -35 3 -40 6
-40 28 0 18 10 30 40 48 55 32 120 25 186 -20 41 -28 49 -40 59 -81 5 -26 10
-60 10 -75 0 -37 55 -122 106 -166 50 -43 112 -66 179 -66 73 0 93 -8 99 -39
9 -40 -10 -182 -26 -193 -7 -5 -165 -7 -368 -5 -820 9 -3119 17 -6164 22
-1788 3 -3265 8 -3282 11 -18 3 -50 20 -70 38 -34 29 -36 35 -30 69 10 55 51
80 124 75 55 -3 57 -2 60 24 5 41 -24 86 -76 119 -41 26 -55 29 -125 29 -49 0
-98 -6 -127 -17 -45 -16 -49 -16 -85 1 -55 26 -235 35 -254 12 -21 -25 -11
-158 14 -186 17 -19 20 -35 18 -97 -3 -84 13 -127 65 -176 24 -23 41 -29 100
-34 62 -5 72 -4 78 12 4 10 0 30 -10 46 -21 36 -14 62 24 89 55 39 170 16 192
-39 7 -18 8 -374 3 -1111 -8 -1256 -1 -1172 -95 -1204 -51 -17 -60 -18 -100
-5 -72 23 -95 72 -76 161 10 47 -8 58 -63 38 -79 -29 -141 -121 -141 -211 0
-40 7 -65 30 -106 34 -59 37 -85 14 -104 -32 -26 -44 -67 -44 -147 0 -52 4
-83 13 -90 27 -22 105 -42 170 -42 69 0 110 17 174 73 18 16 29 18 65 12 90
-17 180 -11 232 15 62 31 87 64 93 124 4 36 2 51 -12 66 -23 25 -42 25 -57 0
-24 -39 -130 -17 -163 33 -10 16 -15 40 -13 64 5 59 31 67 223 71 429 7 1255
1 1328 -9 60 -9 92 -9 140 1 46 9 258 12 812 11 413 -1 815 -2 895 -3 175 -4
-112 -4 3420 7 1592 6 2936 9 2985 8 50 -1 124 -3 165 -5 41 -1 836 2 1765 7
930 4 1718 8 1753 7 34 -1 96 -1 137 -1 41 0 171 0 288 0 852 0 3030 0 3622 0
396 1 749 0 785 -1 36 -1 503 1 1039 3 535 3 983 2 995 -3 12 -4 30 -26 40
-48 24 -53 15 -99 -27 -140 -29 -28 -38 -31 -107 -34 l-75 -3 -9 -37 c-19 -75
42 -180 123 -214 45 -20 146 -14 218 12 52 18 52 18 98 -4 34 -16 64 -22 117
-22 52 0 83 -6 115 -21 66 -32 84 -24 98 41 6 30 16 65 23 77 22 39 14 115
-18 186 -16 37 -30 72 -30 79 0 7 11 34 25 60 21 39 25 61 25 130 0 83 0 83
-42 135 -24 28 -65 68 -91 89 -44 34 -54 38 -126 42 -77 4 -121 -6 -121 -29 0
-6 15 -25 34 -42 65 -63 57 -165 -19 -217 -24 -16 -55 -30 -70 -30 -27 0 -101
43 -107 63 -3 7 -1 77 3 157 4 80 3 244 -1 365 -5 121 -7 297 -4 390 6 222 6
330 -1 875 l-6 455 43 58 c41 56 87 87 150 102 22 6 33 1 59 -25 30 -29 31
-34 26 -86 -6 -60 5 -74 61 -74 24 0 37 12 85 77 54 72 57 80 57 135 0 67 -20
114 -72 170 -33 34 -35 41 -41 126 -5 64 -14 104 -32 143 -14 30 -25 62 -25
71 0 9 -7 24 -16 32 -13 14 -19 14 -42 2 -33 -17 -134 -46 -158 -46 -10 0 -38
-17 -63 -38 -36 -30 -65 -43 -136 -60 -102 -26 -142 -52 -192 -126 -39 -57
-42 -95 -10 -151 27 -48 64 -64 110 -47 71 25 123 9 152 -48 29 -57 10 -113
-52 -152 l-38 -23 -1730 -4 c-2466 -5 -7315 -7 -7738 -3 -419 5 -377 -12 -367
149 7 138 6 137 163 143 153 6 197 24 255 101 55 75 62 92 73 167 12 82 24
101 84 131 38 19 57 22 97 18 127 -15 191 -125 104 -178 -43 -26 -78 -24 -106
6 -18 19 -33 25 -55 23 -43 -4 -46 -39 -6 -78 26 -27 36 -30 88 -29 114 1 193
58 193 138 -1 57 -47 122 -104 146 -52 22 -180 19 -252 -5 -32 -11 -65 -20
-73 -20 -7 0 -36 20 -65 44 -69 61 -74 66 -99 106 -21 33 -86 83 -156 122 -29
16 -31 21 -31 75 0 32 -5 75 -10 95 -11 39 -101 177 -175 268 -76 93 -88 123
-93 232 -3 70 -8 98 -18 102 -8 3 -18 -3 -24 -14z m44 -339 c9 -16 33 -44 55
-62 21 -19 65 -72 97 -118 53 -77 58 -90 58 -137 0 -62 -13 -81 -63 -90 -20
-4 -52 -15 -71 -25 -103 -54 -142 -59 -210 -28 -24 11 -64 23 -87 26 -63 9
-75 22 -81 87 -7 83 15 131 96 209 37 35 86 87 110 116 50 58 75 64 96 22z
m290 -491 c30 -12 60 -28 67 -36 20 -24 -14 -44 -76 -44 -102 0 -260 -70 -316
-141 -17 -21 -38 -39 -48 -39 -9 0 -37 21 -61 46 -25 25 -72 60 -105 77 -51
27 -74 33 -152 37 -50 3 -94 8 -97 11 -15 15 11 41 68 69 78 37 97 38 242 5
11 -2 38 -19 60 -36 33 -26 45 -30 77 -26 22 3 49 14 60 25 33 29 62 42 130
57 84 18 88 18 151 -5z m152 -158 c49 -25 110 -91 131 -140 36 -86 -53 -228
-170 -271 -56 -20 -62 -21 -129 -7 -39 8 -75 19 -80 24 -5 5 -8 25 -6 43 l3
34 81 -3 c78 -4 82 -3 103 23 13 18 21 42 21 67 0 127 -193 115 -268 -17 -14
-25 -18 -68 -22 -257 -3 -149 -9 -231 -16 -238 -18 -18 -90 -24 -123 -11 -27
12 -29 16 -34 84 -5 77 8 347 19 394 4 15 23 58 42 96 41 80 109 143 197 181
76 32 186 32 251 -2z m-715 -31 c124 -47 146 -107 155 -426 9 -281 4 -295
-108 -295 -73 0 -89 22 -83 108 11 164 14 302 5 367 -8 64 -12 73 -49 107 -37
35 -45 38 -98 38 -48 0 -61 -4 -85 -27 -35 -33 -36 -70 -4 -122 24 -37 27 -39
90 -43 36 -2 68 -7 72 -11 14 -14 5 -71 -15 -90 -30 -31 -106 -34 -169 -7 -40
17 -59 34 -89 77 -35 52 -38 60 -37 124 2 87 33 144 101 187 68 42 68 42 168
38 60 -2 109 -11 146 -25z m10666 -146 c28 -20 46 -77 38 -117 -4 -17 -24 -46
-44 -64 -43 -41 -37 -61 26 -79 89 -27 136 -90 119 -160 -10 -39 -31 -40 -83
-6 -42 28 -53 31 -129 31 -46 0 -94 4 -107 9 -13 5 -40 32 -61 60 -56 78 -85
93 -181 89 -80 -3 -80 -3 -83 23 -6 51 89 129 157 129 17 0 46 -7 65 -17 41
-19 61 -9 71 36 7 32 40 67 70 74 45 11 121 6 142 -8z m-10813 -20 c13 -10 17
-21 12 -40 -6 -23 -11 -26 -44 -23 -43 4 -54 28 -26 59 20 22 32 23 58 4z
m726 -30 c0 -8 -9 -15 -20 -15 -20 0 -26 11 -13 23 12 13 33 7 33 -8z m-10863
-212 c17 -8 34 -21 37 -29 7 -18 60 -18 76 0 27 34 177 40 187 9 3 -7 -14 -21
-36 -33 -47 -23 -66 -50 -75 -103 -8 -45 -31 -57 -111 -57 -49 0 -57 -3 -90
-37 -21 -22 -40 -54 -47 -80 -13 -53 -32 -54 -65 -4 -32 48 -30 91 7 126 39
37 38 53 -5 71 -39 16 -65 58 -65 103 0 34 9 42 60 52 42 8 83 2 127 -18z
m2388 -347 c3634 -9 7726 -23 8025 -28 19 0 406 2 860 5 1070 7 1160 8 5584 2
2067 -2 3761 -7 3765 -10 11 -12 19 -469 24 -1338 l4 -859 -26 -10 c-18 -8
-518 -12 -1641 -15 -888 -2 -1626 -2 -1640 -1 -14 1 -90 2 -170 2 -148 0 -249
0 -1370 -5 -1521 -6 -2455 -8 -2580 -6 -74 1 -166 2 -205 1 -38 0 -603 -1
-1255 -3 -937 -1 -1201 1 -1260 11 -51 9 -113 11 -194 7 -132 -8 -2324 -20
-2956 -17 -223 1 -450 1 -505 1 -85 -1 -318 -1 -460 0 -393 1 -3981 -14 -4585
-20 -454 -4 -843 -7 -865 -6 -42 3 -221 4 -290 3 -88 -2 -285 10 -309 20 -15
5 -31 22 -37 36 -6 17 -8 124 -5 293 8 382 16 1107 17 1526 1 198 4 370 7 383
6 32 34 41 112 36 36 -2 916 -6 1955 -8z m18691 -2108 c93 -81 94 -83 94 -135
-1 -32 -10 -67 -28 -103 -23 -47 -33 -57 -69 -68 -40 -13 -59 -34 -47 -53 3
-5 30 -21 59 -36 80 -39 90 -53 88 -129 -2 -108 -35 -133 -154 -119 -70 8
-107 34 -124 86 -7 19 -19 35 -28 37 -10 2 -43 -21 -77 -54 l-60 -57 -56 6
c-60 6 -134 46 -134 72 0 8 12 17 28 21 97 21 128 35 154 70 15 20 32 60 38
92 18 92 22 98 96 122 38 13 82 36 102 55 34 31 35 35 39 116 3 46 6 90 8 97
7 21 33 13 71 -20z m-21155 -156 c38 -58 93 -82 192 -82 36 0 68 -4 72 -10 3
-5 7 -33 8 -62 6 -100 51 -155 146 -177 58 -13 69 -25 47 -50 -44 -48 -110
-47 -192 1 -42 25 -59 19 -131 -42 -119 -102 -233 -84 -233 37 0 39 4 46 65
100 62 55 82 93 50 93 -22 0 -86 61 -101 97 -19 43 -18 88 2 118 24 36 39 31
75 -23z"/>
<path d="M21615 2849 c-36 -12 -1591 -27 -1684 -17 -36 4 -234 3 -440 -1 -413
-10 -3645 -13 -5286 -5 -1220 6 -4056 7 -4560 1 -192 -2 -438 1 -545 5 -107 5
-211 8 -230 7 -19 -1 -44 -1 -55 -1 -176 9 -303 8 -324 -1 -17 -7 -108 -12
-251 -12 -3099 -6 -4868 0 -4898 19 -6 3 -23 1 -39 -5 -35 -14 -1332 -13
-1378 1 -18 5 -113 6 -230 2 l-200 -7 -7 -70 c-9 -100 -6 -2005 4 -2011 14 -9
3767 -23 4498 -17 229 2 2090 -6 2200 -9 25 -1 263 -1 530 0 267 0 967 -1
1555 -4 1446 -7 1931 -7 2870 -3 440 3 1021 5 1290 5 270 0 573 2 675 4 204 4
1325 6 1515 3 66 -1 179 -1 250 1 72 1 225 2 340 2 909 -4 4440 10 4453 18 10
6 14 1897 4 2015 -4 47 -11 85 -17 87 -5 1 -23 -2 -40 -7z m-12825 -104 c36
-12 79 -28 97 -36 29 -12 34 -11 72 15 30 21 59 30 113 37 109 12 208 10 253
-6 22 -8 73 -15 113 -15 39 0 72 -4 72 -8 0 -26 -44 -45 -132 -55 l-93 -12 -3
-35 c-6 -79 -38 -109 -97 -94 -22 5 -25 11 -25 53 0 26 -5 52 -12 59 -7 7 -37
12 -67 12 -67 0 -91 -18 -91 -70 0 -45 23 -71 92 -106 48 -24 58 -26 167 -22
134 5 155 13 249 107 111 111 265 157 367 111 55 -24 95 -57 95 -76 0 -19 50
-74 67 -74 8 0 37 16 64 36 29 21 67 39 96 44 26 5 66 14 88 21 43 13 115 5
115 -11 0 -5 -15 -16 -32 -24 -60 -26 -128 -82 -289 -241 -88 -86 -181 -174
-207 -195 -26 -20 -67 -56 -92 -79 -83 -78 -158 -108 -375 -153 -85 -17 -252
10 -342 57 -18 9 -45 17 -60 18 -24 2 -28 -2 -33 -32 -8 -52 -31 -61 -85 -31
-52 28 -56 36 -64 110 -7 65 -26 75 -70 38 -76 -65 -143 -58 -149 15 -2 20 6
63 19 96 32 88 26 95 -70 87 -88 -8 -126 3 -173 48 -32 31 -28 62 6 51 11 -4
40 -10 62 -12 36 -4 46 0 78 27 32 29 36 37 36 81 0 63 -20 110 -55 133 -23
15 -41 17 -94 13 -64 -5 -67 -7 -108 -53 l-43 -48 0 -87 c0 -73 4 -95 25 -137
14 -28 25 -56 25 -64 0 -7 18 -38 40 -68 22 -30 47 -65 56 -78 9 -13 35 -37
59 -55 23 -18 76 -57 116 -88 127 -96 330 -144 599 -142 223 3 439 58 585 149
28 17 84 50 125 74 184 107 230 137 305 203 80 69 96 81 210 156 33 22 79 54
103 71 83 61 268 126 434 154 87 15 106 15 180 2 95 -16 249 -79 292 -120 20
-18 39 -26 55 -24 24 3 26 6 24 51 -3 54 27 126 71 166 l26 24 26 -24 c44 -40
74 -112 71 -166 -2 -45 0 -48 24 -51 16 -2 35 6 55 24 43 41 197 104 292 120
74 13 93 13 180 -2 166 -28 351 -93 434 -154 24 -17 70 -49 103 -71 114 -75
130 -87 210 -156 75 -66 121 -96 305 -203 41 -24 97 -57 125 -74 87 -55 241
-109 369 -132 153 -26 426 -19 556 14 139 36 188 57 259 111 40 31 93 70 116
88 24 18 50 42 59 55 9 13 34 48 56 78 22 30 40 61 40 68 0 8 11 36 25 64 21
42 25 64 25 137 l0 87 -42 48 c-42 46 -45 48 -109 53 -53 4 -71 2 -94 -13 -35
-23 -55 -70 -55 -133 0 -44 4 -52 36 -81 32 -27 42 -31 78 -27 22 2 51 8 62
12 34 11 38 -20 6 -51 -47 -45 -85 -56 -173 -48 -96 8 -102 1 -70 -87 29 -77
25 -128 -10 -148 -22 -12 -31 -13 -59 -1 -18 7 -45 24 -61 38 -44 37 -63 27
-70 -38 -8 -74 -12 -82 -64 -110 -54 -30 -77 -21 -85 31 -5 30 -9 34 -33 32
-15 -1 -42 -9 -60 -18 -90 -47 -257 -74 -342 -57 -217 45 -292 75 -375 153
-25 23 -66 59 -92 79 -26 21 -119 109 -207 195 -161 159 -229 215 -288 241
-18 8 -33 19 -33 24 0 16 72 24 115 11 22 -7 62 -16 88 -21 29 -5 67 -23 96
-44 27 -20 56 -36 64 -36 17 0 67 55 67 74 0 19 40 52 95 76 102 46 256 0 367
-111 94 -94 115 -102 249 -107 109 -4 119 -2 167 22 68 35 92 62 92 105 0 53
-23 71 -90 71 -31 0 -61 -5 -68 -12 -7 -7 -12 -33 -12 -59 0 -42 -3 -48 -25
-53 -59 -15 -91 15 -97 94 l-3 35 -93 12 c-88 10 -132 29 -132 55 0 4 33 8 73
8 39 0 90 7 112 15 45 16 144 18 253 6 54 -7 83 -16 113 -37 38 -26 43 -27 72
-15 132 56 226 76 253 56 17 -12 15 -15 -17 -44 -18 -18 -76 -52 -127 -77 -71
-35 -96 -53 -109 -78 -38 -74 -81 -112 -151 -136 -112 -37 -173 -49 -254 -50
-74 0 -77 -1 -98 -30 -27 -37 -69 -60 -111 -60 -26 0 -41 10 -75 47 -40 43
-45 46 -67 34 -20 -11 -35 -9 -95 9 -44 12 -72 26 -72 34 0 8 20 26 45 40 50
29 65 51 65 92 0 44 -26 64 -81 64 -42 0 -53 -5 -90 -40 l-42 -40 6 -85 c5
-73 11 -94 42 -149 20 -36 54 -79 75 -98 22 -18 57 -48 79 -65 64 -55 245
-123 326 -123 51 0 188 24 242 43 23 8 66 30 95 49 29 19 68 43 86 54 39 22
97 111 168 254 55 113 144 222 199 246 17 7 67 18 112 25 120 18 212 -5 312
-79 24 -17 61 -37 81 -42 20 -5 45 -19 55 -30 63 -70 325 2 325 89 0 34 -25
59 -67 67 -26 5 -35 1 -54 -20 -24 -28 -74 -42 -109 -31 -12 4 -28 22 -36 40
-13 32 -16 33 -86 39 -88 8 -188 28 -188 37 0 23 500 22 599 -1 24 -6 55 -20
69 -30 31 -25 61 -25 110 0 50 26 195 37 275 21 31 -7 57 -16 57 -20 0 -5 -17
-13 -37 -19 -21 -6 -65 -18 -97 -27 -33 -9 -89 -32 -126 -50 -37 -18 -92 -40
-124 -49 -32 -8 -65 -21 -74 -30 -19 -16 -110 -50 -245 -91 -81 -24 -95 -26
-164 -17 -44 6 -82 17 -93 27 -36 32 -50 13 -50 -67 0 -63 -5 -84 -35 -146
-19 -39 -52 -98 -74 -130 -41 -61 -225 -242 -245 -242 -6 0 -27 -13 -46 -29
-35 -29 -129 -75 -226 -112 -94 -36 -255 -55 -389 -48 -187 11 -272 24 -373
58 -52 17 -99 31 -105 31 -27 0 -147 65 -214 116 -100 75 -147 70 -108 -12 19
-40 16 -102 -12 -209 -16 -65 -29 -92 -83 -174 -58 -88 -60 -93 -60 -176 0
-114 35 -167 137 -205 53 -20 66 -21 151 -12 98 10 127 23 165 74 18 24 18 27
2 59 -10 19 -24 42 -33 52 -23 25 -67 21 -95 -9 -30 -32 -67 -26 -67 11 0 32
85 113 128 121 31 6 34 9 29 38 -7 47 21 116 51 127 59 23 146 -38 192 -134
34 -70 64 -75 117 -19 87 90 194 138 326 145 96 5 98 5 82 -13 -9 -10 -49 -35
-88 -55 -40 -21 -91 -56 -114 -79 -105 -105 -154 -128 -256 -124 l-71 3 -18
-40 c-34 -76 -44 -90 -68 -102 -14 -6 -38 -26 -55 -43 -66 -69 -286 -97 -416
-52 -85 29 -128 74 -200 207 -16 29 -18 30 -97 31 -44 1 -101 7 -126 14 -57
16 -71 10 -80 -32 -3 -18 -22 -57 -42 -86 -29 -44 -38 -51 -50 -42 -8 7 -14
17 -14 22 0 6 -12 37 -26 69 l-27 59 -111 0 c-76 -1 -128 4 -165 15 -130 40
-260 179 -310 333 -12 35 -12 49 -2 78 10 27 10 41 0 69 -10 28 -10 42 -1 68
20 57 17 67 -26 67 -21 0 -43 5 -50 12 -23 23 -13 67 22 105 29 32 42 38 87
43 64 6 79 30 28 45 -18 6 -41 22 -53 37 -19 27 -19 29 -3 63 23 49 55 62 115
46 26 -7 58 -13 72 -14 26 -2 26 -2 13 66 -12 60 43 77 76 22 28 -47 57 -59
125 -51 53 7 57 10 83 53 34 59 25 102 -31 147 l-38 31 -123 -1 c-146 -1 -147
-1 -308 -105 -50 -32 -105 -113 -156 -231 -51 -118 -66 -223 -58 -403 5 -108
9 -128 40 -201 53 -124 83 -177 115 -209 16 -17 37 -46 46 -65 16 -36 57 -80
131 -142 78 -65 140 -113 160 -124 11 -6 47 -25 80 -43 129 -69 169 -80 335
-92 174 -13 552 -5 615 12 22 6 87 19 145 28 58 9 114 22 125 28 11 6 64 25
117 43 54 18 102 38 109 46 6 8 17 14 23 14 7 0 34 14 62 31 45 29 90 55 276
159 37 21 102 69 146 106 121 105 183 156 224 187 35 25 128 106 325 283 39
35 93 80 120 101 45 34 77 63 163 143 20 19 59 50 86 68 27 18 90 61 140 97
101 71 334 195 366 195 12 0 36 11 53 24 18 14 45 28 61 31 16 4 58 15 94 25
248 71 378 101 490 111 216 21 378 23 464 4 178 -37 222 -48 249 -62 16 -8 62
-25 103 -39 41 -13 92 -33 112 -43 20 -10 55 -24 77 -31 22 -7 63 -28 92 -46
28 -19 56 -34 61 -34 12 0 124 -91 204 -166 63 -59 138 -157 174 -225 8 -16
23 -29 33 -29 18 0 71 52 71 68 0 4 23 25 52 47 28 22 81 67 118 100 82 75
228 181 300 219 67 35 303 119 414 147 125 31 272 42 476 36 133 -4 197 -10
225 -21 50 -19 179 -54 269 -72 38 -8 117 -35 175 -60 58 -25 137 -59 174 -75
68 -29 103 -54 274 -197 127 -106 469 -460 514 -531 20 -32 42 -62 49 -66 6
-4 20 -21 31 -39 19 -32 140 -166 216 -240 23 -23 49 -57 57 -76 13 -32 66
-87 238 -248 92 -86 101 -162 20 -162 -32 0 -46 8 -87 48 -131 125 -326 335
-344 371 -11 21 -24 41 -29 43 -13 4 -152 168 -152 178 0 4 -18 31 -40 59 -22
28 -40 55 -40 61 0 6 -27 39 -59 73 -33 34 -73 81 -90 104 -62 85 -355 375
-426 421 -124 80 -144 92 -152 92 -5 0 -25 12 -46 26 -34 22 -81 42 -277 110
-25 9 -50 20 -55 25 -24 18 -176 59 -265 71 -140 18 -520 15 -590 -5 -30 -9
-89 -21 -130 -26 -57 -8 -101 -24 -186 -66 -61 -30 -118 -55 -126 -55 -8 0
-30 -12 -49 -26 -19 -14 -68 -47 -109 -74 -100 -66 -211 -178 -255 -257 -19
-35 -35 -70 -35 -78 0 -9 -15 -54 -34 -103 -43 -110 -57 -266 -31 -329 19 -44
13 -78 -15 -93 -29 -15 -25 -39 9 -51 21 -8 33 -22 47 -57 22 -60 98 -148 148
-174 101 -52 209 -24 254 65 26 50 25 76 -7 117 -19 24 -20 24 -78 11 -88 -21
-110 -18 -149 20 -49 47 -47 84 7 132 55 49 51 76 -13 92 -54 14 -92 36 -113
69 -12 19 -14 32 -6 66 12 56 28 70 87 78 42 7 48 11 45 27 -10 50 -3 123 15
155 50 92 133 154 228 171 72 12 228 -1 268 -22 37 -20 266 -32 358 -18 76 11
89 16 122 47 64 61 95 152 68 203 -26 47 -133 66 -179 30 -21 -16 -23 -24 -19
-81 4 -57 3 -63 -18 -72 -32 -15 -95 18 -114 59 l-15 33 -92 0 c-135 0 -185
24 -100 49 23 7 62 22 85 33 82 36 297 78 407 78 64 0 93 -10 161 -55 57 -38
77 -64 92 -118 10 -36 9 -37 -15 -37 -18 0 -42 -18 -88 -68 -44 -47 -79 -75
-116 -91 -30 -13 -79 -34 -109 -48 -91 -42 -227 -56 -361 -39 -57 7 -67 6 -72
-8 -4 -10 1 -23 13 -33 11 -10 27 -39 36 -65 15 -46 15 -50 -6 -93 -40 -82
-114 -117 -168 -79 -17 12 -22 24 -20 47 3 29 8 33 50 44 64 15 68 19 68 61
-1 47 -15 73 -64 111 -34 28 -46 31 -104 31 -66 0 -66 0 -113 -49 -58 -61 -73
-107 -67 -216 4 -76 7 -85 60 -175 31 -52 75 -118 98 -147 28 -35 46 -70 55
-109 7 -30 18 -61 24 -67 15 -15 84 36 195 147 100 101 182 176 236 216 20 15
62 52 95 82 87 80 152 122 306 200 104 52 156 73 212 82 41 7 79 16 85 20 6 3
59 11 119 17 89 8 115 7 148 -5 22 -8 74 -24 115 -36 41 -12 89 -30 105 -40
17 -10 44 -21 61 -24 18 -4 40 -16 49 -26 10 -11 34 -25 54 -31 69 -23 293
-203 353 -284 16 -22 74 -86 129 -143 54 -56 99 -109 99 -117 0 -8 24 -43 53
-77 29 -35 67 -83 84 -108 37 -54 115 -129 201 -195 34 -26 62 -52 62 -56 0
-24 -119 10 -180 52 -14 9 -47 28 -75 42 -55 28 -85 57 -106 102 -21 44 -42
38 -52 -13 -8 -39 -13 -46 -54 -64 -59 -26 -142 -20 -216 15 -29 14 -69 30
-89 36 -20 7 -42 19 -49 27 -7 9 -34 26 -60 40 -49 24 -110 76 -259 219 -142
137 -223 178 -400 207 -131 21 -195 21 -285 -2 -106 -25 -133 -39 -192 -93
-65 -60 -97 -128 -89 -190 9 -79 26 -97 93 -97 69 0 116 26 143 81 24 47 25
90 3 136 -16 34 -16 36 3 50 38 29 119 0 137 -50 3 -9 8 -9 23 1 42 27 73 34
154 35 143 0 263 -46 362 -141 32 -31 72 -78 88 -106 45 -79 127 -150 214
-187 42 -18 76 -35 76 -40 0 -13 -87 -22 -154 -16 -40 3 -76 14 -106 31 -63
36 -82 34 -125 -18 -26 -32 -51 -50 -95 -66 -65 -24 -62 -24 -315 -14 -118 4
-191 2 -242 -6 -40 -7 -76 -10 -79 -7 -17 17 189 87 256 87 52 0 49 26 -9 81
-28 28 -51 58 -51 69 0 33 38 37 147 14 31 -6 34 -4 52 39 20 47 54 68 74 48
8 -8 8 -23 -1 -56 -31 -116 -4 -165 91 -165 53 0 105 25 132 63 44 63 -8 204
-93 252 -141 80 -342 44 -483 -85 -130 -120 -253 -141 -354 -60 -49 39 -84 38
-154 -4 -31 -19 -69 -38 -86 -42 -16 -4 -40 -13 -51 -21 -49 -31 -124 -37
-124 -9 0 11 119 96 134 96 3 0 27 15 53 34 47 33 123 117 192 211 113 153
326 255 530 255 116 0 287 -33 356 -68 68 -34 228 -146 247 -173 20 -26 58
-40 58 -21 0 4 -14 50 -31 102 -27 81 -30 99 -20 124 10 25 15 28 44 23 98
-16 150 -73 145 -159 -3 -48 -11 -45 93 -32 41 6 47 4 63 -20 24 -38 12 -63
-42 -89 -40 -19 -47 -27 -50 -54 -8 -77 101 -172 196 -173 36 0 92 61 92 99 0
82 -152 286 -345 462 -41 37 -165 120 -265 176 -30 17 -88 39 -128 48 -141 34
-441 7 -551 -49 -14 -8 -44 -19 -66 -25 -96 -26 -253 -151 -530 -424 -122
-120 -232 -225 -246 -234 -13 -9 -40 -31 -59 -48 -35 -33 -163 -105 -185 -105
-7 0 -46 -11 -87 -25 -71 -24 -77 -24 -118 -10 -23 8 -51 15 -62 15 -27 0
-147 57 -190 92 -20 16 -46 44 -58 63 -29 46 -60 46 -95 1 -30 -40 -153 -105
-212 -113 -104 -14 -314 61 -411 145 -30 26 -80 65 -111 87 -32 22 -101 81
-153 130 -52 50 -121 108 -153 130 -32 22 -77 59 -101 83 -24 23 -50 42 -59
42 -9 0 -37 11 -63 24 -78 39 -372 154 -457 178 -73 21 -99 23 -300 22 -180 0
-241 -4 -337 -22 -143 -26 -240 -57 -276 -87 -15 -12 -49 -32 -76 -43 -44 -20
-75 -43 -146 -106 -14 -12 -42 -34 -62 -49 -38 -28 -82 -87 -120 -160 -31 -59
-37 -207 -11 -257 32 -62 122 -86 215 -58 30 9 43 19 54 46 20 49 18 60 -20
98 -28 28 -42 34 -75 34 -37 0 -41 2 -41 25 0 14 4 25 9 25 4 0 21 12 36 26
26 24 27 29 21 84 -8 70 3 98 63 156 66 65 142 104 262 135 61 16 136 32 166
36 49 5 55 4 52 -11 -5 -22 -101 -65 -145 -66 -17 0 -37 -7 -44 -15 -10 -12
-7 -20 14 -46 30 -35 33 -65 10 -97 -22 -31 -49 -28 -64 8 -31 75 -113 101
-184 59 -44 -26 -49 -44 -45 -153 3 -69 8 -89 25 -108 34 -36 55 -86 57 -131
1 -28 7 -43 17 -45 31 -5 141 74 251 181 118 113 298 246 373 273 22 8 64 21
91 29 28 7 64 19 80 25 64 26 173 50 226 50 31 0 85 -9 119 -20 34 -11 68 -20
74 -20 18 0 247 -117 270 -138 12 -11 35 -27 53 -36 17 -8 40 -26 50 -39 10
-12 61 -61 113 -107 52 -46 131 -118 175 -160 44 -42 95 -85 113 -95 50 -30
38 -55 -26 -55 -35 0 -205 35 -223 45 -8 5 -38 24 -67 43 -59 38 -82 37 -82
-6 0 -16 -10 -44 -22 -62 -56 -82 -126 -99 -258 -62 -78 21 -93 29 -106 54 -8
16 -25 39 -37 51 -12 12 -35 40 -52 63 -41 56 -130 131 -174 145 -20 6 -43 17
-51 24 -8 8 -53 21 -100 29 -106 20 -182 8 -208 -33 -9 -14 -31 -43 -49 -64
-28 -31 -33 -45 -33 -87 0 -60 14 -70 95 -70 89 0 138 35 165 118 17 53 47 67
81 36 36 -33 20 -93 -32 -119 -49 -26 -34 -46 48 -66 84 -21 139 -47 172 -83
19 -20 22 -29 13 -38 -9 -9 -27 -8 -80 6 -39 11 -127 21 -212 26 -113 5 -158
12 -205 30 -98 36 -137 37 -213 1 -120 -55 -261 -80 -197 -35 57 40 143 113
170 143 62 71 191 194 226 217 20 12 48 34 63 47 57 53 208 72 291 37 26 -11
63 -23 83 -26 32 -5 41 -2 65 25 16 19 38 32 55 33 78 4 105 -12 119 -70 l9
-37 54 3 c87 4 93 -7 33 -70 -57 -61 -68 -85 -59 -133 10 -54 40 -82 100 -96
50 -11 55 -10 98 15 55 32 78 83 78 174 0 50 -6 76 -32 129 -36 73 -81 115
-197 182 -58 34 -77 40 -161 47 -147 14 -237 9 -304 -15 -33 -11 -73 -21 -91
-21 -17 0 -56 -13 -86 -29 -30 -16 -74 -39 -99 -52 -25 -12 -70 -45 -100 -73
-31 -28 -67 -61 -80 -72 -30 -26 -134 -140 -189 -208 -58 -71 -137 -132 -200
-154 -131 -46 -181 -49 -292 -17 -101 29 -164 85 -184 161 -7 27 -17 50 -23
52 -5 1 -25 -10 -44 -26 -37 -32 -131 -86 -168 -97 -14 -4 -40 -19 -58 -32
-51 -38 -222 -79 -222 -53 0 5 10 15 23 21 85 44 292 185 371 253 83 71 127
120 259 290 16 20 45 47 66 60 20 13 59 46 86 73 28 28 72 65 98 82 63 42 197
105 267 125 30 8 96 27 145 41 50 14 137 29 195 35 129 12 358 12 425 -1 28
-5 75 -13 105 -18 30 -5 73 -17 95 -27 22 -9 83 -32 135 -51 52 -18 106 -41
120 -51 43 -31 48 -33 64 -16 13 12 15 29 10 84 -6 57 -3 75 15 112 11 24 34
54 50 66 41 30 71 102 71 168 0 49 -3 56 -48 101 -61 63 -105 83 -181 83 -98
0 -128 -23 -138 -109 -7 -64 10 -81 84 -81 39 0 66 6 89 21 61 37 74 -5 23
-76 -18 -25 -45 -49 -62 -55 -53 -18 -132 -23 -156 -10 -30 16 -50 65 -44 110
3 21 1 40 -5 44 -12 7 -92 -39 -92 -53 0 -5 -15 -14 -32 -22 -18 -7 -46 -21
-62 -32 -25 -18 -113 -48 -226 -77 -19 -5 -108 -10 -197 -10 -161 0 -225 -8
-316 -37 -36 -11 -51 -13 -60 -4 -15 15 15 45 102 105 73 51 147 76 225 76 47
0 51 2 107 63 52 58 65 66 131 85 104 31 219 26 226 -10 2 -13 -13 -16 -95
-20 -54 -3 -109 -11 -123 -18 -48 -24 -70 -52 -70 -87 0 -46 30 -73 81 -73 53
0 130 19 151 38 10 8 44 25 75 38 36 14 68 36 83 55 73 95 132 147 188 168 58
22 144 29 201 16 36 -8 133 -64 169 -97 42 -40 65 -96 58 -144 -7 -58 6 -67
81 -57 l58 8 7 54 c11 75 27 102 73 128 22 12 43 23 47 23 16 0 82 -67 94 -96
10 -23 10 -41 2 -72 -17 -67 -13 -69 109 -74 105 -3 110 -4 173 -42 85 -51
115 -79 152 -144 42 -74 49 -161 19 -221 -30 -58 -22 -75 30 -67 102 16 159
-36 104 -94 -29 -30 -60 -43 -127 -55 -21 -3 -40 -10 -43 -16 -4 -5 3 -30 15
-54 19 -39 20 -48 8 -72 -20 -43 -54 -42 -94 1 -27 30 -40 36 -73 36 -52 0
-111 -52 -111 -97 0 -38 48 -105 100 -139 36 -24 47 -26 105 -22 53 5 75 12
120 42 58 39 117 109 155 185 16 32 24 74 31 150 4 58 11 122 13 141 20 142
-118 426 -258 529 -30 22 -57 45 -61 51 -3 6 -25 20 -48 31 -23 12 -65 39 -93
60 -28 22 -54 39 -57 39 -4 0 -32 17 -63 38 -78 51 -71 47 -149 81 -38 17
-132 47 -207 66 -125 31 -153 35 -330 41 -106 3 -205 10 -220 16 -22 8 -33 7
-53 -6 -14 -10 -61 -23 -103 -31 -167 -29 -457 -120 -528 -165 -23 -14 -80
-39 -126 -54 -46 -15 -113 -44 -150 -64 -88 -49 -250 -167 -351 -256 -44 -39
-113 -93 -153 -121 -67 -47 -186 -155 -480 -439 -67 -65 -140 -129 -162 -141
-21 -12 -63 -41 -92 -64 -29 -23 -69 -49 -89 -57 -20 -8 -49 -28 -66 -43 -36
-35 -125 -85 -197 -112 -71 -27 -200 -69 -212 -69 -5 0 -30 -13 -55 -29 -63
-40 -142 -65 -323 -102 -215 -44 -294 -52 -331 -32 -22 11 -42 13 -71 8 -63
-12 -111 -10 -246 8 -164 22 -357 80 -437 130 -21 13 -59 36 -85 51 -75 42
-245 211 -278 276 -16 31 -35 62 -44 69 -20 17 -66 95 -91 155 -36 88 -74 88
-110 0 -25 -60 -71 -138 -91 -155 -9 -7 -28 -38 -44 -69 -33 -65 -203 -234
-278 -276 -26 -15 -64 -38 -85 -51 -80 -50 -273 -108 -437 -130 -135 -18 -183
-20 -246 -8 -29 5 -49 3 -71 -8 -37 -20 -116 -12 -331 32 -181 37 -260 62
-323 102 -25 16 -50 29 -55 29 -12 0 -141 42 -212 69 -72 27 -161 77 -197 112
-16 15 -46 35 -66 43 -20 8 -60 34 -89 57 -29 23 -71 52 -92 64 -22 12 -95 76
-162 141 -294 284 -413 392 -480 439 -40 28 -109 82 -153 121 -101 89 -263
207 -351 256 -37 20 -104 49 -150 64 -46 15 -103 40 -126 54 -71 45 -361 136
-528 165 -42 8 -89 21 -103 31 -20 13 -31 14 -53 6 -15 -6 -114 -13 -220 -16
-177 -6 -205 -10 -330 -41 -75 -19 -168 -49 -207 -66 -78 -34 -71 -30 -149
-81 -31 -21 -59 -38 -63 -38 -3 0 -29 -17 -57 -39 -28 -21 -70 -48 -93 -60
-23 -11 -45 -25 -48 -31 -4 -6 -31 -29 -61 -51 -67 -49 -125 -126 -189 -250
-51 -98 -79 -212 -69 -279 2 -19 9 -83 13 -141 7 -76 15 -118 31 -150 38 -76
97 -146 155 -185 45 -30 67 -37 120 -42 58 -4 69 -2 105 22 52 34 100 101 100
139 0 45 -59 97 -111 97 -33 0 -46 -6 -73 -36 -40 -43 -74 -44 -94 -1 -12 24
-11 33 8 72 12 24 19 49 15 54 -3 6 -22 13 -43 16 -67 12 -98 25 -127 55 -55
58 2 110 104 94 52 -8 60 9 30 67 -30 60 -23 147 19 221 37 65 67 93 152 144
63 38 68 39 173 42 122 5 126 7 109 74 -8 31 -8 49 2 72 12 29 78 96 94 96 4
0 25 -11 47 -23 46 -26 62 -53 73 -128 l7 -54 58 -8 c75 -10 88 -1 81 57 -7
48 16 104 58 144 36 33 133 89 169 97 57 13 143 6 201 -16 56 -21 115 -73 188
-168 15 -19 47 -41 83 -55 31 -13 65 -30 75 -38 21 -19 98 -38 151 -38 51 0
81 27 81 73 0 35 -22 63 -70 87 -14 7 -69 15 -123 18 -82 4 -97 7 -95 20 7 36
122 41 226 10 66 -19 79 -27 131 -85 56 -61 60 -63 107 -63 78 0 152 -25 225
-76 87 -60 117 -90 102 -105 -9 -9 -24 -7 -60 4 -91 29 -155 37 -316 37 -89 0
-178 5 -197 10 -113 29 -201 59 -226 77 -16 11 -44 25 -61 32 -18 8 -33 17
-33 22 0 14 -80 60 -92 53 -6 -4 -8 -23 -5 -44 6 -45 -14 -94 -44 -110 -24
-13 -103 -8 -156 10 -17 6 -44 30 -62 55 -51 71 -38 113 23 76 23 -15 50 -21
89 -21 74 0 91 17 84 81 -10 86 -40 109 -138 109 -76 0 -120 -20 -181 -83 -45
-45 -48 -52 -48 -101 0 -66 30 -138 71 -168 16 -12 39 -42 50 -66 18 -37 21
-55 15 -112 -5 -55 -3 -72 10 -84 16 -17 21 -15 64 16 14 10 68 33 120 51 52
19 113 42 135 51 22 10 65 22 95 27 30 5 78 13 105 18 67 13 296 13 425 1 58
-6 146 -21 195 -35 50 -14 115 -33 145 -41 70 -20 204 -83 267 -125 26 -17 70
-54 98 -82 27 -27 66 -60 86 -73 21 -13 50 -40 66 -60 132 -170 176 -219 259
-290 79 -68 286 -209 372 -253 12 -6 22 -16 22 -21 0 -26 -171 15 -222 53 -18
13 -44 28 -58 32 -37 11 -131 65 -168 97 -19 16 -39 27 -44 26 -6 -2 -16 -25
-23 -52 -20 -76 -83 -132 -184 -161 -111 -32 -161 -29 -292 17 -63 22 -142 83
-200 154 -55 68 -159 182 -189 208 -13 11 -49 44 -80 72 -30 28 -75 61 -100
73 -25 13 -69 36 -99 52 -30 16 -69 29 -86 29 -18 0 -58 10 -91 21 -67 24
-157 29 -304 15 -84 -7 -103 -13 -161 -47 -116 -67 -161 -109 -197 -182 -26
-53 -32 -79 -32 -129 0 -91 23 -142 78 -174 43 -25 48 -26 98 -15 60 14 90 42
100 96 9 48 -2 72 -59 133 -60 63 -54 74 33 70 l54 -3 9 37 c14 58 41 74 119
70 17 -1 39 -14 55 -33 24 -27 33 -30 65 -25 20 3 57 15 83 26 83 35 234 16
291 -37 15 -13 43 -35 63 -47 35 -23 164 -146 226 -217 27 -30 113 -103 170
-143 64 -45 -77 -20 -197 35 -76 36 -115 35 -213 -1 -47 -18 -92 -25 -205 -30
-85 -5 -173 -15 -212 -26 -53 -14 -71 -15 -80 -6 -9 9 -6 18 13 38 33 36 88
62 172 83 82 20 97 40 48 66 -52 26 -68 86 -32 119 34 31 64 17 81 -36 27 -83
76 -118 165 -118 81 0 95 10 95 70 0 42 -5 56 -33 87 -18 21 -40 50 -49 64
-26 41 -102 53 -208 33 -47 -8 -92 -21 -100 -29 -8 -7 -31 -18 -51 -24 -44
-14 -133 -89 -174 -145 -16 -23 -40 -51 -52 -63 -12 -12 -29 -35 -37 -51 -13
-25 -28 -33 -106 -54 -132 -37 -202 -20 -257 62 -13 18 -23 46 -23 62 0 43
-23 44 -82 6 -29 -19 -59 -38 -67 -43 -18 -10 -188 -45 -223 -45 -64 0 -76 25
-25 55 17 10 68 53 112 95 44 42 123 114 175 160 52 46 103 95 113 107 10 13
33 31 50 39 18 9 41 25 53 36 23 21 252 138 270 138 6 0 40 9 74 20 34 11 88
20 119 20 53 0 162 -24 226 -50 17 -6 53 -18 80 -25 28 -8 69 -21 91 -29 75
-27 255 -160 373 -273 110 -107 220 -186 251 -181 10 2 16 17 17 45 2 45 23
95 57 131 17 19 22 39 25 108 4 109 -1 127 -45 153 -71 42 -153 16 -184 -59
-15 -36 -42 -39 -64 -8 -23 32 -20 62 10 97 21 26 24 34 14 46 -7 8 -27 15
-44 15 -44 1 -140 44 -145 66 -3 15 3 16 52 11 30 -4 105 -20 166 -36 120 -31
196 -70 262 -135 60 -58 71 -86 63 -156 -6 -55 -5 -60 21 -84 15 -14 32 -26
36 -26 5 0 9 -11 9 -25 0 -23 -4 -25 -41 -25 -33 0 -47 -6 -75 -34 -38 -38
-40 -49 -20 -98 11 -27 24 -37 54 -46 93 -28 183 -4 215 58 26 50 20 198 -11
257 -38 73 -82 132 -120 160 -20 15 -48 37 -62 49 -71 63 -102 86 -146 106
-27 11 -61 31 -76 43 -36 30 -133 61 -276 87 -96 18 -157 22 -337 22 -201 1
-227 -1 -300 -22 -85 -24 -379 -139 -457 -178 -26 -13 -54 -24 -63 -24 -9 0
-35 -19 -59 -42 -24 -24 -69 -61 -101 -83 -32 -22 -101 -80 -153 -130 -52 -49
-121 -108 -153 -130 -31 -22 -81 -61 -111 -87 -97 -84 -307 -159 -411 -145
-59 8 -182 73 -212 113 -35 45 -66 45 -95 -1 -12 -19 -38 -47 -58 -63 -43 -35
-163 -92 -190 -92 -11 0 -39 -7 -62 -15 -41 -14 -47 -14 -118 10 -41 14 -80
25 -87 25 -22 0 -150 72 -185 105 -19 17 -46 39 -59 48 -14 9 -124 114 -246
234 -277 273 -434 398 -530 424 -22 6 -52 17 -66 25 -110 56 -410 83 -551 49
-40 -9 -98 -31 -128 -48 -100 -56 -224 -139 -265 -176 -193 -176 -345 -380
-345 -462 0 -38 56 -99 91 -99 96 1 205 96 197 173 -3 27 -10 35 -50 54 -54
26 -66 51 -42 89 16 24 22 26 63 20 104 -13 96 -16 93 32 -5 86 47 143 145
159 29 5 34 2 44 -23 10 -25 7 -43 -20 -124 -17 -52 -31 -98 -31 -102 0 -19
38 -5 58 21 19 27 179 139 247 173 69 35 240 68 356 68 204 0 417 -102 530
-255 69 -94 145 -178 192 -211 26 -19 50 -34 53 -34 15 0 134 -85 134 -96 0
-28 -75 -22 -124 9 -11 8 -34 17 -51 21 -16 4 -55 23 -86 42 -70 42 -105 43
-154 4 -41 -33 -91 -50 -146 -50 -49 0 -143 49 -208 110 -141 129 -342 165
-483 85 -85 -48 -137 -189 -93 -252 27 -38 79 -63 132 -63 95 0 122 49 91 165
-9 33 -9 48 -1 56 20 20 54 -1 74 -48 18 -43 21 -45 52 -39 109 23 147 19 147
-14 0 -11 -23 -41 -51 -69 -58 -55 -61 -81 -9 -81 67 0 273 -70 256 -87 -3 -3
-39 0 -79 7 -51 8 -124 10 -242 6 -253 -10 -250 -10 -315 14 -44 16 -69 34
-95 66 -43 52 -62 54 -125 18 -30 -17 -66 -28 -106 -31 -67 -6 -154 3 -154 16
0 5 34 22 76 40 87 37 169 108 214 187 37 64 132 154 196 187 142 71 321 82
408 25 15 -10 20 -10 23 -1 18 50 99 79 137 50 19 -14 19 -16 3 -50 -22 -46
-21 -89 3 -136 27 -55 74 -81 143 -81 67 0 84 18 93 97 8 62 -24 130 -89 190
-59 54 -86 68 -192 93 -90 23 -154 23 -285 2 -177 -29 -258 -70 -400 -207
-149 -143 -210 -195 -259 -219 -26 -14 -53 -31 -60 -40 -7 -8 -29 -20 -49 -27
-20 -6 -60 -22 -89 -36 -74 -35 -157 -41 -216 -15 -41 18 -46 25 -54 64 -10
51 -31 57 -52 13 -21 -45 -51 -74 -106 -102 -27 -14 -61 -33 -75 -42 -61 -42
-180 -76 -180 -52 0 4 28 30 63 56 85 66 163 141 200 195 17 25 55 73 84 108
29 34 53 69 53 77 0 8 45 61 99 117 55 57 113 121 129 143 60 81 284 261 353
284 20 6 44 20 54 31 9 10 31 22 49 26 17 3 45 14 61 24 17 10 64 28 105 40
41 12 93 28 115 36 33 12 59 13 148 5 60 -6 113 -14 119 -17 6 -4 44 -13 85
-20 56 -9 108 -30 212 -82 154 -78 219 -120 306 -200 33 -30 75 -67 95 -82 54
-40 136 -115 236 -216 111 -111 180 -162 195 -147 6 6 17 37 24 67 9 39 27 74
55 109 23 29 67 95 98 147 53 90 56 99 60 175 6 109 -9 155 -67 216 -47 49
-47 49 -113 49 -58 0 -70 -3 -104 -31 -49 -38 -63 -64 -64 -111 0 -42 4 -46
68 -61 42 -11 47 -15 50 -44 2 -23 -3 -35 -20 -47 -54 -38 -128 -3 -168 79
-21 43 -21 47 -6 93 9 26 25 55 36 65 12 10 17 23 13 33 -5 14 -15 15 -72 8
-134 -17 -270 -3 -361 39 -30 14 -79 35 -109 48 -37 16 -72 44 -116 91 -46 50
-70 68 -88 68 -24 0 -25 1 -15 37 15 54 35 80 92 118 68 45 97 55 161 55 110
0 325 -42 407 -78 23 -11 62 -26 86 -33 84 -25 34 -49 -101 -49 l-92 0 -15
-33 c-19 -41 -82 -74 -114 -59 -21 9 -22 15 -18 72 4 57 2 65 -19 81 -46 36
-153 17 -179 -30 -27 -51 4 -142 68 -203 33 -31 46 -36 122 -47 92 -14 321 -2
358 18 40 21 196 34 268 22 95 -17 178 -79 228 -171 18 -32 25 -105 15 -155
-3 -16 3 -20 45 -27 59 -8 75 -22 87 -78 8 -34 6 -47 -6 -66 -21 -33 -59 -55
-113 -69 -64 -16 -68 -43 -13 -92 54 -48 56 -85 7 -132 -39 -38 -61 -41 -149
-20 -58 13 -59 13 -78 -11 -32 -41 -33 -67 -7 -117 45 -89 153 -117 254 -65
50 26 126 114 148 174 14 35 26 49 47 57 34 12 38 36 9 51 -28 15 -34 49 -15
93 26 63 12 219 -31 329 -19 49 -34 94 -34 103 0 8 -16 43 -35 78 -44 79 -155
191 -255 257 -41 27 -90 60 -109 74 -19 14 -41 26 -49 26 -8 0 -65 25 -126 55
-85 42 -129 58 -186 66 -41 5 -100 17 -130 26 -70 20 -450 23 -590 5 -89 -12
-241 -53 -265 -71 -5 -5 -30 -16 -55 -25 -196 -68 -243 -88 -277 -110 -21 -14
-41 -26 -46 -26 -8 0 -28 -12 -152 -92 -71 -46 -364 -336 -426 -421 -17 -23
-57 -70 -90 -104 -32 -34 -59 -67 -59 -73 0 -6 -18 -33 -40 -61 -22 -28 -40
-55 -40 -59 0 -10 -139 -174 -152 -178 -5 -2 -18 -22 -29 -43 -18 -36 -213
-246 -344 -371 -41 -40 -55 -48 -87 -48 -81 0 -72 76 20 162 172 161 225 216
238 248 8 19 34 53 57 76 76 74 197 208 216 240 11 18 25 35 31 39 7 4 29 34
49 66 45 71 387 425 514 531 171 143 206 168 274 197 37 16 116 50 174 75 58
25 137 52 175 60 90 18 219 53 269 72 28 11 92 17 225 21 204 6 351 -5 476
-36 111 -28 347 -112 414 -147 72 -38 218 -144 300 -219 37 -33 90 -78 118
-100 29 -22 52 -43 52 -47 0 -16 53 -68 71 -68 10 0 25 13 33 29 36 68 111
166 174 225 80 75 192 166 204 166 5 0 33 15 61 34 29 18 70 39 92 46 22 7 57
21 77 31 20 10 71 30 112 43 41 14 87 31 103 39 27 14 71 25 249 62 86 19 248
17 464 -4 112 -10 242 -40 490 -111 36 -10 78 -21 94 -25 16 -3 43 -17 61 -31
17 -13 41 -24 53 -24 32 0 265 -124 366 -195 50 -36 113 -79 140 -97 27 -18
66 -49 86 -68 86 -80 118 -109 163 -143 27 -21 81 -66 120 -101 197 -177 290
-258 325 -283 41 -31 103 -82 224 -187 44 -37 109 -85 146 -106 186 -104 231
-130 276 -159 28 -17 55 -31 62 -31 6 0 17 -6 23 -14 7 -8 55 -28 109 -46 53
-18 106 -37 117 -43 11 -6 67 -19 125 -28 58 -9 123 -22 145 -28 63 -17 441
-25 615 -12 166 12 206 23 335 92 33 18 69 37 80 43 20 11 82 59 160 124 74
62 115 106 131 142 9 19 30 48 46 65 32 32 62 85 115 209 31 73 35 93 40 201
8 180 -7 285 -58 403 -51 118 -106 199 -156 231 -161 104 -162 104 -308 105
l-123 1 -38 -31 c-56 -45 -65 -88 -31 -147 26 -43 30 -46 83 -53 68 -8 97 4
125 51 33 55 88 38 76 -22 -13 -68 -13 -68 13 -66 14 1 46 7 72 14 60 16 92 3
115 -46 16 -34 16 -36 -3 -63 -12 -15 -35 -31 -53 -37 -51 -15 -36 -39 28 -45
45 -5 58 -11 87 -43 35 -38 45 -82 22 -105 -7 -7 -29 -12 -50 -12 -43 0 -46
-10 -26 -67 9 -26 9 -40 -1 -68 -10 -28 -10 -42 0 -69 10 -29 10 -43 -2 -78
-50 -154 -180 -293 -310 -333 -37 -11 -89 -16 -165 -15 l-111 0 -27 -59 c-14
-32 -26 -63 -26 -69 0 -5 -6 -15 -14 -22 -12 -9 -21 -2 -50 42 -20 29 -39 68
-42 86 -9 42 -23 48 -80 32 -25 -7 -82 -13 -126 -14 -79 -1 -81 -2 -97 -31
-72 -133 -115 -178 -200 -207 -130 -45 -350 -17 -416 52 -17 17 -41 37 -55 43
-24 12 -34 26 -68 102 l-18 40 -71 -3 c-102 -4 -151 19 -256 124 -23 23 -74
58 -114 79 -39 20 -79 45 -88 55 -16 18 -14 18 82 13 132 -7 239 -55 326 -145
53 -56 83 -51 117 19 46 96 133 157 192 134 30 -11 58 -80 51 -127 -5 -29 -2
-32 29 -38 43 -8 128 -89 128 -121 0 -37 -37 -43 -67 -11 -28 30 -72 34 -95 9
-9 -10 -23 -33 -33 -52 -16 -32 -16 -35 2 -59 38 -51 67 -64 165 -74 85 -9 98
-8 151 12 102 38 137 91 137 205 0 83 -2 88 -60 176 -54 82 -67 109 -83 174
-28 107 -31 169 -12 209 39 82 -8 87 -108 12 -67 -51 -187 -116 -214 -116 -6
0 -53 -14 -105 -31 -101 -34 -186 -47 -373 -58 -134 -7 -295 12 -389 48 -97
37 -191 83 -226 112 -19 16 -40 29 -46 29 -20 0 -204 181 -245 242 -22 32 -55
91 -74 130 -30 62 -35 83 -35 146 0 80 -14 99 -50 67 -11 -10 -49 -21 -93 -27
-69 -9 -83 -7 -164 17 -135 41 -226 75 -245 91 -9 9 -42 22 -74 30 -32 9 -87
31 -124 49 -37 18 -93 41 -126 50 -32 9 -76 21 -96 27 -21 6 -38 14 -38 19 0
4 26 13 58 20 79 16 224 5 274 -21 49 -25 79 -25 110 0 14 10 45 24 69 30 99
23 599 24 599 1 0 -9 -100 -29 -188 -37 -70 -6 -73 -7 -86 -39 -8 -18 -24 -36
-36 -40 -35 -11 -85 3 -109 31 -19 21 -28 25 -54 20 -42 -8 -67 -33 -67 -67 0
-87 262 -159 325 -89 10 11 35 25 55 30 20 5 57 25 81 42 100 74 192 97 312
79 45 -7 95 -18 112 -25 55 -24 144 -133 199 -246 71 -143 129 -232 168 -254
18 -11 57 -35 86 -54 29 -19 72 -41 95 -49 54 -19 191 -43 242 -43 81 0 262
68 326 123 22 17 57 47 79 65 21 19 55 62 75 98 31 55 37 76 42 149 l6 85 -42
40 c-36 35 -48 40 -88 40 -55 0 -83 -21 -83 -62 0 -43 15 -64 65 -94 25 -14
45 -32 45 -40 0 -8 -28 -22 -72 -34 -60 -18 -75 -20 -95 -9 -22 12 -27 9 -67
-34 -34 -37 -49 -47 -75 -47 -42 0 -84 23 -111 60 -21 29 -24 30 -98 30 -81 1
-142 13 -254 50 -70 24 -113 62 -151 136 -13 25 -38 43 -109 78 -51 25 -109
59 -127 77 -32 29 -34 32 -17 44 22 16 69 10 156 -20z m-5860 -12 c34 -28 40
-29 87 -1 33 20 53 23 148 24 111 1 161 -7 150 -26 -3 -5 -27 -10 -52 -10 -30
0 -53 -7 -70 -20 -14 -11 -31 -20 -38 -20 -29 0 -119 -56 -154 -96 -20 -23
-53 -52 -74 -64 -42 -25 -200 -60 -273 -60 -28 0 -53 -3 -57 -6 -3 -3 3 -20
14 -37 29 -48 24 -94 -16 -163 -84 -141 -205 -196 -475 -213 -80 -5 -123 -12
-140 -24 -14 -9 -55 -25 -91 -37 -72 -22 -142 -75 -180 -136 -18 -29 -21 -45
-16 -90 3 -29 16 -72 28 -94 21 -38 25 -40 69 -40 56 0 70 12 70 61 0 42 -11
54 -62 63 -20 4 -38 13 -41 20 -8 19 41 96 67 105 25 10 122 -3 141 -19 18
-15 31 -6 50 31 11 20 37 40 88 64 86 41 153 53 181 32 19 -14 19 -15 -7 -47
-15 -17 -27 -36 -27 -42 0 -5 -32 -43 -72 -84 -51 -53 -80 -75 -104 -80 -40
-7 -50 -18 -90 -98 -27 -53 -37 -63 -75 -78 -54 -21 -148 -23 -192 -4 -39 16
-92 67 -114 109 -14 27 -14 42 -4 109 17 113 52 182 107 214 45 27 71 73 44
82 -44 15 -130 125 -130 167 0 22 11 19 88 -25 38 -22 75 -40 83 -40 8 0 39
-9 69 -21 101 -38 114 -40 230 -33 211 12 299 37 380 110 66 60 83 96 78 166
-6 75 -35 108 -98 108 -91 0 -133 -94 -70 -155 56 -53 28 -78 -71 -62 l-59 10
-45 -42 c-56 -51 -94 -55 -124 -12 -12 16 -21 42 -21 59 0 40 -14 48 -95 56
-109 10 -256 96 -270 158 -10 43 44 147 97 191 48 40 58 42 158 31 46 -4 83
-1 126 10 67 17 194 22 194 7 0 -5 -12 -19 -26 -30 -26 -20 -55 -30 -139 -48
-38 -8 -40 -10 -45 -53 -10 -79 -27 -86 -56 -23 -22 45 -67 73 -121 73 -79 0
-113 -32 -113 -106 0 -42 18 -80 57 -116 39 -37 73 -48 153 -48 55 0 82 6 137
31 37 17 75 37 83 44 22 20 249 95 288 95 19 0 66 -10 105 -22 64 -19 79 -20
137 -10 56 9 70 16 103 51 48 51 50 90 7 133 -36 35 -71 33 -107 -7 -27 -31
-31 -31 -84 0 -76 42 -48 54 130 52 114 0 125 -2 151 -24z m2440 17 c10 -5 20
-21 24 -34 3 -14 28 -47 54 -74 41 -42 56 -51 98 -56 97 -14 98 -43 3 -84
l-60 -26 6 -37 c9 -49 -15 -64 -90 -54 -31 3 -56 2 -59 -3 -3 -6 1 -27 10 -48
15 -37 15 -40 -7 -81 -19 -35 -29 -43 -51 -43 -31 0 -57 31 -67 82 -6 27 -12
32 -55 43 -26 7 -52 19 -57 26 -15 24 -10 54 11 67 29 18 18 29 -35 37 -38 5
-50 13 -70 43 -32 49 -41 94 -22 110 12 10 22 6 57 -23 34 -28 50 -35 86 -35
66 0 100 22 129 84 14 29 25 58 25 64 0 12 35 52 46 52 3 0 14 -4 24 -10z
m12513 -7 c4 -2 7 -18 7 -35 0 -23 10 -41 40 -70 35 -32 48 -38 84 -38 28 0
52 7 69 20 77 61 114 -18 52 -112 -20 -30 -32 -38 -70 -43 -53 -8 -64 -19 -35
-37 21 -13 26 -43 11 -67 -5 -7 -31 -19 -57 -26 -43 -11 -49 -16 -55 -43 -18
-89 -78 -110 -116 -42 -13 21 -23 52 -23 69 0 51 -9 61 -52 61 -63 0 -81 14
-73 59 l6 37 -60 26 c-95 41 -94 70 2 83 41 6 58 15 94 52 24 24 51 59 58 78
8 18 20 35 27 38 13 5 76 -2 91 -10z m2260 -11 c48 -28 53 -28 88 2 28 24 34
25 169 23 164 -2 185 -11 114 -51 -57 -32 -60 -32 -87 -1 -36 40 -71 42 -107
7 -43 -43 -41 -82 8 -133 32 -35 46 -42 102 -51 58 -10 73 -9 137 10 39 12 86
22 105 22 39 0 266 -75 288 -95 8 -7 46 -27 83 -44 55 -25 82 -31 137 -31 80
0 114 11 153 48 39 36 57 74 57 116 0 74 -34 106 -113 106 -54 0 -99 -28 -121
-73 -29 -63 -46 -56 -56 23 -5 43 -7 45 -45 53 -84 18 -113 28 -139 48 -14 11
-26 25 -26 30 0 15 127 10 194 -7 43 -11 80 -14 126 -10 100 11 110 9 158 -31
53 -44 107 -148 97 -191 -14 -62 -161 -148 -270 -158 -81 -8 -95 -16 -95 -56
0 -17 -9 -43 -21 -59 -30 -43 -68 -39 -124 12 l-45 42 -59 -10 c-99 -16 -127
9 -71 62 63 61 21 155 -70 155 -63 0 -92 -33 -98 -108 -5 -70 12 -106 78 -166
81 -73 169 -98 380 -110 116 -7 129 -5 230 33 30 12 61 21 69 21 8 0 45 18 83
40 77 44 88 47 88 25 0 -42 -86 -152 -130 -167 -27 -9 -1 -55 44 -82 55 -32
90 -101 107 -214 10 -67 10 -82 -4 -109 -22 -42 -75 -93 -114 -109 -44 -19
-138 -17 -192 4 -38 15 -48 25 -75 78 -40 80 -50 91 -90 98 -24 5 -53 27 -104
80 -40 41 -72 79 -72 84 0 6 -12 25 -27 42 -26 32 -26 33 -7 47 28 21 95 9
181 -32 51 -24 77 -44 88 -64 19 -37 32 -46 50 -31 19 16 116 29 141 19 26 -9
75 -86 67 -105 -3 -7 -21 -16 -41 -20 -51 -9 -62 -21 -62 -63 0 -49 14 -61 70
-61 44 0 48 2 69 40 12 22 25 65 28 94 5 45 2 61 -16 90 -38 61 -108 114 -180
136 -36 12 -77 28 -91 37 -17 12 -60 19 -140 24 -270 17 -391 72 -475 213 -40
69 -45 115 -16 163 11 17 17 34 14 37 -4 3 -29 6 -57 6 -73 0 -231 35 -273 60
-21 12 -54 41 -74 64 -35 40 -125 96 -154 96 -7 0 -24 9 -38 20 -17 13 -40 20
-70 20 -25 0 -49 5 -52 10 -12 19 39 28 150 26 95 -1 116 -4 148 -24z m-16463
-323 c0 -6 -10 -24 -22 -39 -13 -15 -31 -42 -40 -59 -20 -36 -56 -42 -76 -11
-16 27 -57 25 -107 -3 -35 -20 -40 -27 -40 -57 0 -32 5 -38 58 -69 101 -60 24
-77 -101 -22 -82 36 -133 39 -239 14 -40 -9 -75 -14 -79 -11 -10 11 16 47 44
62 56 28 127 37 173 20 58 -20 69 -14 69 41 l0 46 56 26 c35 16 82 27 123 31
42 3 75 11 91 23 27 20 90 26 90 8z m15888 -8 c17 -11 52 -20 93 -23 41 -4 89
-15 123 -31 l56 -26 0 -46 c0 -55 11 -61 69 -41 46 17 117 8 173 -20 28 -15
54 -51 44 -62 -4 -3 -39 2 -79 11 -106 25 -157 22 -239 -14 -125 -55 -202 -38
-101 22 53 31 58 37 58 69 0 30 -5 37 -40 57 -50 28 -91 30 -107 3 -20 -31
-56 -25 -76 11 -9 17 -27 44 -39 59 -13 15 -23 33 -23 39 0 18 60 13 88 -8z
m-15858 -180 c0 -17 -66 -61 -90 -61 -29 0 -19 12 37 46 43 25 53 28 53 15z
m15794 -17 c54 -30 65 -44 35 -44 -23 0 -89 45 -89 61 0 13 2 12 54 -17z
m-7880 -951 c14 -16 52 -57 85 -93 34 -35 61 -72 61 -82 0 -10 23 -32 53 -52
78 -52 130 -103 124 -120 -7 -18 -67 -31 -108 -22 -16 3 -46 17 -67 31 -20 14
-40 25 -45 25 -4 0 -16 -19 -26 -42 -25 -58 -52 -79 -105 -85 -56 -7 -112 24
-132 74 -17 39 -22 40 -71 13 -59 -31 -183 -25 -183 9 0 9 30 41 67 71 36 30
73 63 82 74 71 82 90 105 116 133 17 17 43 45 58 62 35 38 58 39 91 4z"/>
<path d="M10605 2410 c-4 -6 -27 -21 -53 -34 -99 -50 -258 -163 -325 -231 -73
-74 -157 -183 -177 -230 -25 -59 -28 -228 -5 -259 8 -11 21 -42 30 -70 35
-119 137 -200 269 -213 l63 -6 42 42 c57 57 53 108 -10 130 -40 14 -106 14
-114 1 -3 -5 -17 -10 -31 -10 -19 0 -26 6 -30 30 -4 17 -20 40 -40 55 -39 30
-42 43 -14 78 25 32 25 53 -1 97 -39 63 -22 140 43 195 44 37 129 76 181 82
49 6 67 25 67 69 0 26 8 39 33 58 19 15 40 26 48 26 19 0 72 -55 92 -94 12
-26 25 -32 92 -48 121 -28 195 -97 195 -180 0 -39 33 -78 66 -78 42 0 64 -12
64 -34 0 -43 -68 -86 -136 -86 -49 0 -56 -26 -16 -59 18 -14 32 -31 32 -37 0
-15 -33 -24 -86 -24 -53 0 -110 -48 -119 -101 -6 -31 -3 -39 20 -58 22 -17 41
-21 95 -21 88 0 177 43 221 107 75 109 109 262 74 329 -8 16 -15 40 -15 53 0
49 -152 232 -213 256 -23 9 -49 23 -58 31 -9 8 -48 30 -85 48 -89 43 -154 110
-154 161 0 28 -4 35 -19 35 -11 0 -23 -5 -26 -10z"/>
<path d="M12510 2385 c0 -51 -65 -118 -154 -161 -37 -18 -76 -40 -85 -48 -9
-8 -35 -22 -58 -31 -61 -24 -213 -207 -213 -256 0 -13 -7 -37 -15 -53 -35 -67
-1 -220 74 -329 44 -64 133 -107 221 -107 54 0 73 4 95 21 23 19 26 27 20 58
-9 53 -66 101 -119 101 -53 0 -86 9 -86 24 0 6 14 23 32 37 40 33 33 59 -16
59 -68 0 -136 43 -136 86 0 22 22 34 66 34 31 0 64 41 64 79 0 82 75 151 195
179 67 16 80 22 92 48 20 39 73 94 92 94 8 0 29 -11 48 -26 25 -19 33 -32 33
-58 0 -44 18 -63 67 -69 52 -6 137 -45 181 -82 65 -55 82 -132 43 -195 -26
-44 -26 -65 -1 -97 28 -35 25 -48 -14 -78 -20 -15 -36 -38 -40 -55 -4 -24 -11
-30 -30 -30 -14 0 -28 5 -31 10 -8 13 -74 13 -114 -1 -63 -22 -67 -73 -10
-130 l42 -42 63 6 c132 13 234 94 269 213 9 28 22 59 30 70 23 31 20 200 -5
259 -20 47 -104 156 -177 230 -67 68 -226 181 -325 231 -26 13 -49 28 -53 34
-3 5 -15 10 -26 10 -15 0 -19 -7 -19 -35z"/>
<path d="M5759 2018 c-35 -22 -68 -48 -74 -57 -27 -43 -45 -111 -45 -168 0
-50 6 -74 34 -127 18 -36 53 -85 77 -109 24 -24 82 -89 128 -145 46 -56 87
-102 91 -102 4 0 32 22 61 49 30 28 71 60 93 73 21 13 55 37 75 54 38 33 129
101 230 173 34 24 67 53 73 64 7 13 9 55 5 115 -5 87 -8 96 -34 122 -43 42
-66 50 -140 50 -62 0 -72 -3 -101 -29 -27 -25 -32 -37 -32 -75 0 -34 6 -50 22
-66 27 -25 89 -27 129 -3 22 13 34 15 47 7 39 -25 19 -90 -38 -119 -22 -11
-44 -13 -85 -9 -69 8 -85 -3 -85 -61 0 -37 -5 -48 -36 -75 -46 -40 -77 -52
-107 -41 -26 10 -86 75 -88 94 0 7 -2 25 -2 41 -2 26 -7 30 -51 41 -62 16
-107 60 -109 106 -2 29 2 35 21 37 13 2 32 -4 42 -13 10 -9 43 -19 74 -22 50
-5 60 -3 81 17 34 32 32 75 -6 133 -46 70 -73 87 -133 87 -44 0 -62 -6 -117
-42z"/>
<path d="M17207 2040 c-40 -32 -87 -110 -87 -145 0 -21 9 -40 25 -55 21 -20
31 -22 81 -17 31 3 64 13 74 22 10 9 29 15 42 13 19 -2 23 -8 21 -37 -2 -46
-47 -90 -109 -106 -44 -11 -49 -15 -51 -41 0 -16 -2 -34 -2 -41 -2 -19 -62
-84 -88 -94 -30 -11 -61 1 -107 41 -31 27 -36 38 -36 75 0 58 -16 69 -85 61
-41 -4 -63 -2 -85 9 -57 29 -77 94 -38 119 13 8 25 6 47 -7 40 -24 102 -22
129 3 16 16 22 32 22 66 0 38 -5 50 -32 75 -29 26 -39 29 -101 29 -74 0 -97
-8 -140 -50 -26 -26 -29 -35 -34 -122 -4 -60 -2 -102 5 -115 6 -11 39 -40 73
-64 101 -72 192 -140 230 -173 20 -17 54 -41 75 -54 22 -13 63 -45 93 -73 29
-27 57 -49 61 -49 4 0 45 46 91 102 46 56 104 121 128 145 24 24 59 73 77 109
28 53 34 77 34 127 0 57 -18 125 -45 168 -6 9 -39 35 -74 57 -55 36 -73 42
-117 42 -36 0 -59 -6 -77 -20z"/>
<path d="M10658 1980 c-76 -63 -56 -110 49 -110 53 0 63 -3 63 -17 0 -28 -12
-39 -52 -52 -36 -12 -38 -15 -38 -56 0 -40 -39 -130 -64 -147 -31 -21 -73 47
-85 137 l-6 50 -49 -3 c-61 -4 -96 4 -96 22 0 15 30 26 72 26 53 0 92 97 53
130 -23 19 -108 25 -138 9 -42 -23 -87 -87 -87 -126 0 -34 72 -163 91 -163 17
0 162 -159 179 -197 35 -80 62 -78 105 6 13 25 62 85 108 133 46 48 92 103
101 122 22 46 22 166 -1 209 -24 47 -42 56 -108 57 -53 0 -65 -4 -97 -30z"/>
<path d="M12329 1997 c-32 -25 -49 -74 -49 -147 0 -94 14 -122 117 -228 46
-48 95 -108 108 -133 43 -84 70 -86 105 -6 17 38 162 197 179 197 19 0 91 129
91 163 0 39 -45 103 -87 126 -30 16 -115 10 -138 -9 -39 -33 0 -130 53 -130
42 0 72 -11 72 -26 0 -18 -35 -26 -96 -22 l-49 3 -6 -50 c-12 -90 -54 -158
-85 -137 -25 17 -64 107 -64 147 0 41 -2 44 -37 56 -41 13 -53 24 -53 52 0 14
10 17 63 17 105 0 125 47 49 110 -32 26 -44 30 -97 30 -33 0 -67 -6 -76 -13z"/>
</g>
</svg>
