<?xml version="1.0" standalone="no"?>
<!DOCTYPE svg PUBLIC "-//W3C//DTD SVG 20010904//EN"
 "http://www.w3.org/TR/2001/REC-SVG-20010904/DTD/svg10.dtd">
<svg version="1.0" xmlns="http://www.w3.org/2000/svg"
 width="1532.000000pt" height="448.000000pt" viewBox="0 0 1532.000000 448.000000"
 preserveAspectRatio="xMidYMid meet">
<metadata>
Created by potrace 1.13, written by Peter Selinger 2001-2015
</metadata>
<g transform="translate(0.000000,448.000000) scale(0.100000,-0.100000)"
fill="#000000" stroke="none">
<path d="M152 4438 c-16 -16 -15 -39 4 -66 18 -26 59 -29 73 -4 6 9 11 13 11
7 0 -11 20 15 20 28 0 4 -6 7 -13 7 -7 0 -18 9 -25 20 -14 22 -51 27 -70 8z"/>
<path d="M15186 4326 c3 -8 -3 -16 -15 -19 -36 -9 -36 -36 0 -73 41 -43 72
-44 89 -5 12 31 6 71 -12 71 -5 0 -8 6 -5 14 6 15 -12 26 -44 26 -11 0 -16 -5
-13 -14z"/>
<path d="M314 4235 c-29 -29 -32 -86 -9 -142 8 -19 15 -46 15 -59 0 -13 9 -31
19 -41 10 -10 29 -39 41 -65 13 -28 35 -56 54 -67 17 -11 42 -34 55 -51 27
-37 166 -128 233 -154 25 -9 51 -23 57 -30 11 -13 26 -216 26 -347 0 -59 -4
-81 -18 -96 -21 -24 -22 -66 -2 -97 14 -21 16 -76 13 -412 -1 -214 -2 -443 -2
-509 1 -66 1 -149 1 -185 0 -36 1 -202 2 -370 3 -790 2 -844 -16 -857 -9 -7
-31 -13 -47 -13 -17 0 -78 -21 -136 -47 -85 -38 -123 -62 -198 -127 -75 -66
-98 -93 -123 -145 -26 -53 -30 -72 -26 -114 4 -43 10 -56 45 -89 36 -33 47
-38 90 -38 106 0 224 97 346 283 42 64 76 122 76 128 0 7 5 27 12 46 19 52 49
57 318 53 129 -1 258 -3 285 -2 28 0 109 0 180 0 72 0 144 1 160 2 36 3 71 3
105 1 14 -1 1253 0 2755 2 2051 3 2737 7 2758 15 21 9 39 9 72 1 24 -6 66 -8
92 -5 53 7 57 7 158 1 139 -9 820 -12 1025 -4 98 3 152 3 270 0 66 -1 270 3
400 8 8 1 71 -2 140 -6 141 -7 114 -6 475 -5 149 1 315 0 370 -1 201 -4 3931
14 3971 19 43 6 65 -9 71 -48 2 -11 9 -32 17 -47 7 -14 33 -66 56 -115 23 -49
57 -109 77 -133 47 -57 156 -134 207 -145 23 -5 59 -13 81 -18 22 -4 50 -11
61 -15 18 -6 26 1 48 40 30 54 33 90 11 143 -58 137 -184 274 -285 306 -30 10
-66 24 -80 32 -30 16 -78 39 -102 47 -15 5 -18 19 -18 79 0 40 7 649 15 1353
8 704 15 1311 15 1348 l0 68 34 -6 c74 -14 233 60 256 120 5 14 26 31 52 43
41 18 108 82 108 102 0 6 14 29 30 52 25 33 30 51 30 95 0 81 -41 143 -96 143
-29 0 -154 -40 -184 -59 -14 -8 -62 -46 -106 -83 -77 -63 -124 -127 -124 -169
0 -8 -9 -25 -20 -39 -11 -14 -20 -36 -20 -50 0 -38 -15 -53 -52 -56 -121 -10
-3218 -23 -3243 -14 -5 2 -27 1 -47 -3 -22 -5 -46 -4 -57 3 -13 7 -22 7 -26 0
-10 -16 -799 -13 -843 3 -28 10 -36 10 -39 0 -6 -16 -45 -17 -60 -2 -9 9 -20
9 -43 -1 -22 -9 -54 -10 -113 -5 -76 7 -920 7 -1697 1 -222 -2 -329 0 -339 8
-19 15 -228 18 -561 9 -157 -5 -310 -6 -340 -3 -30 4 -86 4 -125 1 -38 -3
-106 -3 -150 0 -58 5 -83 3 -90 -6 -7 -9 -52 -11 -175 -8 -295 7 -328 7 -890
5 -506 -2 -995 1 -2237 13 -282 3 -444 1 -448 -5 -9 -14 -108 -13 -122 1 -7 7
-19 8 -30 4 -25 -10 -105 -6 -121 7 -8 7 -25 7 -55 -1 -27 -8 -93 -10 -192 -7
-347 12 -1057 17 -1280 8 -132 -5 -245 -7 -252 -5 -6 3 -16 19 -23 36 -6 18
-18 44 -26 60 -9 15 -12 32 -8 38 8 14 -16 90 -27 83 -5 -3 -9 5 -9 18 0 13
-15 56 -34 95 -25 52 -46 79 -78 102 -76 56 -118 81 -135 81 -9 0 -24 7 -34
16 -12 10 -41 17 -85 19 -59 3 -69 1 -90 -20z m2426 -589 c129 0 370 1 535 2
165 2 516 0 780 -4 511 -7 1170 -10 1840 -8 226 1 460 1 520 1 61 0 335 0 610
1 275 0 667 -1 870 -2 515 -4 764 -5 805 -4 19 1 78 1 130 -1 52 -1 325 -1
605 0 281 0 796 1 1145 1 1253 -1 3499 7 3698 12 l203 6 -6 -458 c-2 -251 -7
-680 -10 -952 -10 -923 -17 -1455 -21 -1462 -3 -4 -28 -9 -57 -12 -28 -3 -862
-8 -1852 -12 -2084 -7 -2571 -11 -2585 -19 -6 -3 -10 -1 -10 6 0 8 -15 9 -52
5 -29 -4 -127 -6 -218 -6 -196 1 -1118 0 -1140 -1 -8 0 -161 2 -340 6 -394 7
-327 7 -560 1 -107 -3 -206 -6 -220 -5 -288 4 -643 2 -647 -4 -2 -4 -9 -7 -14
-7 -6 0 -8 4 -5 9 7 10 -22 24 -34 16 -17 -10 -128 -16 -133 -7 -4 4 -38 5
-79 0 -40 -5 -107 -6 -148 -3 -85 7 -952 8 -2637 3 -640 -2 -1163 1 -1163 5 0
5 -21 6 -47 2 -27 -3 -407 -7 -846 -7 -628 -2 -800 1 -806 10 -4 7 -6 151 -3
320 2 169 5 422 7 562 1 140 3 257 4 260 10 16 7 113 -4 155 -9 32 -12 81 -10
135 7 144 8 326 1 533 -4 129 -2 196 4 192 10 -6 14 37 5 47 -3 3 -8 63 -11
134 -3 91 -1 135 7 151 9 17 10 35 2 71 -7 28 -8 69 -3 102 5 30 6 87 3 125
-4 56 -2 73 10 83 28 23 206 28 932 23 391 -3 816 -5 945 -5z"/>
<path d="M4220 3600 c-12 -7 -12 -16 -4 -49 14 -51 3 -71 -40 -71 -43 0 -59
19 -54 67 3 33 0 38 -18 41 -19 3 -23 -3 -29 -47 -4 -28 -11 -53 -15 -56 -5
-3 -346 -6 -759 -6 -554 0 -755 3 -772 11 -18 10 -21 18 -16 51 6 48 -17 75
-39 44 -8 -10 -14 -33 -14 -50 0 -38 -16 -55 -52 -55 -31 0 -48 28 -48 76 0
28 -28 44 -41 23 -5 -8 -6 -28 -3 -45 12 -66 39 -63 -629 -63 -682 0 -626 8
-627 -85 -1 -28 -2 -100 -3 -161 0 -60 0 -195 2 -300 2 -104 3 -258 2 -340 -1
-83 1 -163 4 -177 8 -33 -15 -48 -74 -48 -56 0 -91 -15 -91 -40 0 -22 18 -26
96 -21 49 3 67 -14 62 -61 l-3 -33 -70 -5 c-55 -4 -71 -9 -73 -22 -4 -21 29
-32 73 -24 23 5 39 1 54 -11 l22 -18 3 -515 c1 -367 5 -521 13 -536 7 -11 10
-30 7 -41 -3 -10 1 -24 8 -30 15 -13 399 -24 899 -27 366 -1 365 -1 371 -58 3
-31 31 -59 45 -45 4 4 10 29 13 55 4 39 9 48 27 50 31 5 63 -31 63 -72 0 -37
21 -62 45 -52 13 4 14 16 9 55 -5 43 -4 50 14 60 13 7 133 11 344 12 177 0
337 1 353 2 17 0 59 -1 95 -2 36 -2 211 -2 388 -2 344 2 352 1 352 -46 0 -35
18 -63 40 -63 16 0 20 7 20 38 0 81 79 94 81 14 1 -20 2 -41 4 -47 1 -5 3 -16
3 -23 1 -8 12 -12 30 -10 26 3 27 4 24 60 -4 69 -1 70 136 69 54 0 387 -2 742
-5 355 -3 702 -1 773 4 70 5 134 7 142 4 8 -4 18 -18 21 -33 10 -46 23 -71 38
-71 19 0 36 31 36 64 0 15 8 30 20 36 30 16 58 -4 81 -57 23 -54 43 -52 47 5
3 36 7 43 30 49 14 3 373 3 797 -1 653 -7 877 -7 1300 -2 28 0 87 -1 132 -2
98 -2 113 -13 113 -78 0 -48 18 -66 45 -44 12 10 14 24 9 61 -6 46 -5 49 21
61 24 11 29 10 46 -11 12 -15 16 -31 13 -51 -5 -21 -1 -31 13 -38 30 -17 47 0
39 41 -12 64 -32 62 566 61 391 -1 542 -4 551 -13 14 -14 64 -14 73 0 4 8 164
9 548 5 585 -6 569 -5 559 -59 -2 -12 3 -31 11 -42 22 -30 50 -9 57 44 6 47
19 64 45 59 12 -2 22 -18 29 -48 7 -28 17 -45 25 -45 13 0 41 42 53 79 5 15
940 21 966 6 16 -8 32 -7 69 6 48 17 126 20 250 8 62 -6 62 -6 62 -38 0 -18 6
-41 14 -51 21 -29 44 -12 51 38 7 42 9 45 41 49 30 3 34 1 39 -24 4 -15 11
-30 16 -33 5 -4 9 -17 9 -31 0 -27 25 -43 42 -26 6 6 11 35 12 65 l0 55 66 6
c36 4 89 9 118 12 40 5 58 2 70 -9 14 -12 38 -15 117 -12 55 2 226 6 380 9
326 7 498 15 511 24 37 27 37 30 41 550 2 279 5 512 8 519 2 6 24 15 48 18 55
9 70 18 65 41 -2 15 -14 20 -53 22 -53 4 -65 13 -65 52 0 38 18 50 71 50 50 0
63 8 53 34 -4 12 -20 16 -55 16 -58 0 -64 8 -63 85 0 28 3 275 6 550 3 275 3
518 -1 540 -6 35 -10 40 -31 36 -30 -4 -107 -5 -782 -16 l-518 -7 0 30 c0 21
-8 35 -26 47 -38 25 -54 13 -54 -40 l0 -45 -44 0 c-49 0 -56 8 -56 71 0 27 -5
42 -16 46 -23 9 -34 -8 -40 -63 l-6 -49 -691 -2 c-492 -2 -694 1 -704 8 -7 6
-13 28 -13 49 0 25 -5 40 -16 44 -25 10 -34 -2 -34 -44 0 -29 -5 -42 -19 -50
-47 -25 -99 -1 -86 38 7 24 -19 54 -40 46 -9 -4 -15 -19 -15 -35 0 -47 -31
-60 -146 -58 -54 0 -216 -1 -359 -3 -143 -1 -339 -3 -435 -2 -96 0 -424 2
-729 3 -304 1 -560 5 -568 8 -10 4 -13 15 -9 42 8 45 -4 64 -35 59 -22 -3 -24
-8 -24 -53 l0 -50 -40 0 -40 0 -3 48 c-3 43 -5 48 -25 45 -17 -2 -23 -11 -25
-38 -2 -19 -8 -39 -13 -45 -7 -7 -411 -10 -1170 -11 l-1160 -2 -11 22 c-6 11
-11 36 -9 54 1 26 -2 32 -19 32 -17 0 -20 -6 -20 -40 0 -31 -5 -43 -25 -56
-45 -29 -80 5 -72 71 4 37 -27 22 -36 -18 -17 -70 25 -66 -772 -67 -396 0
-804 0 -906 0 -210 -1 -217 1 -205 66 5 22 3 41 -5 50 -13 16 -19 17 -39 4z
m10000 -205 c13 -16 14 -92 8 -789 -3 -314 0 -298 -61 -311 -41 -8 -31 -36 18
-49 32 -9 41 -17 43 -38 4 -32 -28 -68 -59 -68 -28 0 -21 -31 9 -46 13 -6 28
-16 33 -21 7 -7 14 -484 9 -623 -1 -14 -1 -38 0 -55 5 -96 -11 -319 -22 -327
-7 -4 -143 -8 -303 -9 -501 -2 -727 -6 -817 -14 l-87 -8 -3 34 c-3 32 -6 34
-38 34 -32 0 -35 -3 -38 -32 -3 -27 -8 -33 -26 -33 -16 0 -24 8 -31 33 -9 29
-14 32 -50 32 -38 0 -40 -1 -39 -30 l1 -31 -141 -1 c-798 -8 -1208 -7 -1217 4
-6 6 -9 30 -7 53 2 47 -14 65 -45 48 -16 -8 -18 -17 -14 -48 4 -30 1 -43 -15
-56 -28 -26 -51 -8 -63 49 -19 89 -62 92 -67 5 l-3 -53 -42 -7 c-23 -4 -210
-5 -415 -2 -205 2 -696 5 -1091 7 -706 2 -719 2 -733 22 -8 11 -13 27 -11 36
6 24 -8 43 -26 36 -9 -3 -17 -21 -19 -43 -4 -46 -26 -63 -62 -46 -22 10 -26
18 -26 56 0 49 -9 61 -40 51 -14 -5 -20 -17 -22 -53 l-3 -47 -70 -7 c-38 -4
-263 -6 -500 -3 -236 2 -596 4 -800 4 -203 0 -379 0 -390 0 -11 0 -149 0 -307
0 -311 0 -304 -1 -299 57 1 18 -3 35 -9 39 -17 11 -40 -15 -35 -39 8 -34 -8
-48 -51 -44 -36 3 -39 6 -44 38 -4 27 -10 35 -25 35 -15 0 -21 -8 -23 -32 -2
-20 -11 -37 -23 -44 -21 -11 -506 -13 -1358 -5 -484 4 -463 1 -459 63 1 18 -1
36 -5 40 -12 11 -42 -11 -45 -33 -9 -60 -12 -65 -40 -62 -25 3 -42 25 -56 70
-7 25 -35 11 -42 -21 -3 -14 -7 -32 -10 -38 -3 -10 -106 -13 -471 -14 -257 0
-605 -1 -773 -2 l-305 -1 -11 34 c-21 65 -63 64 -64 -1 0 -52 -66 -43 -84 12
-15 45 -39 45 -46 -1 -4 -31 -9 -35 -40 -40 -64 -10 -1035 3 -1117 15 -23 3
-46 11 -51 18 -6 7 -10 210 -10 520 -1 490 0 509 19 528 10 10 32 19 48 19 34
0 48 25 22 39 -10 6 -28 7 -39 4 -30 -7 -52 13 -52 48 0 32 15 43 72 53 29 5
38 12 38 26 0 20 -16 27 -75 32 l-30 3 -2 140 c-4 393 -3 726 2 736 4 5 1 32
-6 60 -23 87 -61 81 574 82 422 1 559 -2 570 -11 8 -7 17 -25 20 -41 3 -16 14
-31 23 -35 26 -10 44 12 37 45 -5 25 -2 30 23 39 38 15 51 7 70 -40 20 -49 47
-51 52 -5 2 17 8 35 14 42 8 10 181 12 762 10 817 -2 786 0 786 -57 0 -37 24
-57 46 -40 11 10 14 23 9 52 -8 47 5 54 60 35 34 -12 40 -18 37 -39 -2 -14 5
-31 17 -42 19 -17 21 -17 27 -2 3 9 4 26 0 39 -12 48 -26 47 600 54 324 3 605
6 624 5 19 0 164 -3 323 -6 158 -3 292 -8 297 -11 6 -3 10 -22 10 -41 0 -31 3
-35 23 -32 15 2 25 13 32 36 6 21 17 35 31 38 41 10 59 0 68 -39 13 -49 38
-46 47 6 3 20 9 40 12 43 3 4 131 5 284 4 153 -2 400 -3 548 -2 716 3 1449 0
1487 -7 3 0 15 -17 27 -36 25 -44 37 -44 55 -1 8 18 19 37 25 40 20 13 47 -4
62 -37 17 -38 48 -43 65 -9 6 13 17 29 23 35 14 14 1108 19 1117 5 7 -11 92
-10 99 2 8 14 48 13 63 -2 9 -9 39 -9 124 0 62 6 145 11 183 11 39 -1 189 -1
334 0 235 2 265 0 282 -15 11 -9 19 -28 19 -41 0 -14 6 -23 15 -23 9 0 15 9
15 24 0 28 33 56 67 56 30 0 63 -34 63 -65 0 -37 28 -31 45 10 8 19 24 39 36
45 30 17 1026 17 1042 1 16 -16 54 -14 104 5 39 15 44 15 67 0 28 -18 72 -21
81 -6 3 6 22 10 41 10 34 0 34 -1 34 -44 0 -47 19 -72 46 -62 11 4 15 14 11
31 -2 14 0 28 4 31 5 3 9 14 9 25 0 16 7 19 39 19 l40 0 3 -47 c2 -40 6 -48
22 -48 15 0 23 13 35 52 l15 52 56 3 c30 2 310 4 621 6 498 2 568 0 579 -13z"/>
<path d="M1915 3213 c-38 -2 -64 -7 -57 -12 7 -4 -102 -7 -242 -7 -181 1 -258
-2 -267 -11 -8 -8 -11 -170 -11 -625 0 -337 0 -624 0 -638 0 -14 0 -171 0
-349 0 -264 2 -326 14 -337 8 -8 45 -21 83 -28 57 -12 152 -13 510 -9 480 7
548 7 615 3 25 -1 351 -2 725 -1 374 1 849 1 1055 1 206 0 481 1 610 2 129 1
303 2 385 1 83 -1 384 -1 670 0 286 1 579 1 650 0 72 -2 450 0 840 3 391 3
728 5 750 4 22 0 879 -2 1905 -5 1026 -3 1883 -5 1905 -5 22 0 357 2 745 5
388 3 723 6 745 5 22 0 135 -1 250 -3 116 -1 217 -1 227 1 19 4 30 49 14 55
-20 8 -7 1513 13 1600 7 27 6 41 -4 51 -10 10 -11 41 -5 142 4 71 6 131 4 133
-5 6 -416 1 -426 -5 -16 -10 -317 -4 -342 7 -18 8 -29 9 -38 1 -16 -13 -218
-14 -218 -1 0 5 -18 9 -41 9 -25 0 -38 -4 -34 -10 5 -8 -26 -9 -97 -4 -56 3
-119 6 -138 5 -135 -3 -979 1 -993 5 -10 3 -50 -2 -88 -11 -49 -12 -86 -15
-122 -10 -29 3 -63 7 -77 7 -45 1 -1123 -3 -1190 -5 -36 0 -83 0 -105 1 -22 1
-346 3 -720 5 -374 2 -694 7 -711 11 -20 5 -34 4 -38 -2 -4 -7 -43 -9 -114 -5
-151 9 -983 9 -1067 0 -50 -5 -66 -4 -55 4 11 7 1 8 -35 3 -27 -4 -257 -7
-510 -5 -415 2 -966 3 -1150 2 -64 -1 -1062 9 -1145 11 -19 0 -188 -2 -375 -6
-239 -4 -348 -3 -367 5 -15 6 -36 8 -45 4 -31 -12 -163 -15 -742 -15 -490 -1
-566 1 -586 14 -24 16 -55 12 -55 -5 0 -5 -56 -9 -125 -9 -77 0 -125 4 -125
10 0 6 -7 10 -15 10 -8 0 -15 -4 -15 -10 0 -6 -29 -10 -67 -10 -41 0 -63 4
-55 9 11 7 10 10 -3 15 -9 3 -20 5 -23 4 -4 -1 -38 -4 -77 -5z m280 -80 c243
-5 154 -5 808 -1 496 3 549 2 557 -12 8 -15 10 -39 11 -115 1 -18 -13 -1100
-14 -1165 0 -14 0 -63 0 -110 1 -235 -3 -449 -9 -456 -11 -10 -1764 -19 -2005
-9 -124 5 -133 11 -133 85 0 32 -4 70 -10 85 -6 16 -10 228 -10 548 -1 287 -1
551 -2 587 0 64 0 122 4 373 1 70 5 127 9 127 4 0 9 9 12 20 3 11 14 20 24 20
10 0 24 5 30 11 7 7 89 13 225 16 117 3 215 7 218 10 3 3 23 2 45 -2 22 -4
130 -9 240 -12z m1640 3 c19 -13 20 -24 17 -292 -2 -154 -3 -290 -4 -304 0
-14 0 -207 0 -430 1 -223 1 -414 0 -425 0 -11 2 -98 5 -193 3 -96 3 -180 0
-188 -10 -27 -60 -44 -130 -44 -75 0 -87 5 -97 37 -9 27 -19 278 -14 348 3 53
3 596 -1 825 -5 295 4 625 17 647 13 23 36 28 137 31 30 1 59 -4 70 -12z m321
-18 c20 -18 51 -48 69 -67 19 -19 46 -42 61 -52 14 -9 63 -52 108 -96 44 -43
103 -97 130 -118 27 -22 72 -64 100 -93 28 -30 65 -61 82 -70 17 -10 69 -52
115 -96 46 -43 95 -85 109 -94 24 -15 44 -33 151 -134 25 -24 80 -72 122 -108
42 -35 77 -68 77 -71 0 -4 24 -24 53 -45 28 -21 87 -71 129 -111 42 -40 81
-73 86 -73 4 0 37 -28 73 -63 35 -35 121 -109 191 -164 69 -55 142 -119 163
-141 35 -39 36 -44 41 -130 6 -113 -5 -127 -94 -120 -53 4 -64 9 -132 63 -41
33 -95 81 -120 106 -25 26 -58 53 -75 62 -32 16 -84 67 -69 67 5 0 -1 6 -13
13 -51 29 -160 121 -276 232 -68 66 -144 136 -168 155 -24 19 -68 58 -99 86
-30 28 -80 73 -110 100 -30 27 -87 79 -126 116 -40 38 -79 68 -87 68 -28 0
-87 42 -93 66 -3 13 -13 29 -21 36 -8 7 -19 23 -24 36 -7 17 -15 23 -28 19
-22 -5 -81 27 -81 43 0 6 5 8 10 5 6 -3 10 -1 10 4 0 6 -20 20 -45 32 -25 12
-54 32 -64 45 -10 13 -40 41 -67 62 -27 22 -84 74 -126 116 -43 42 -81 76 -85
76 -5 0 -36 26 -69 58 -51 48 -62 64 -68 100 -5 35 -2 49 14 72 20 28 25 29
108 33 48 1 91 4 95 5 4 1 24 -13 43 -30z m519 17 c121 -4 283 -6 360 -5 164
2 578 2 618 1 42 -1 44 -26 5 -58 -18 -15 -71 -63 -118 -107 -157 -146 -217
-201 -300 -271 -45 -38 -103 -91 -129 -116 -53 -54 -109 -89 -140 -89 -23 0
-115 67 -192 140 -26 25 -79 70 -118 100 -122 95 -143 113 -152 137 -5 13 -15
23 -23 23 -7 0 -16 7 -20 15 -3 8 -11 15 -18 15 -7 0 -32 17 -54 38 -51 45
-100 86 -137 113 -18 14 -27 29 -25 43 3 18 12 22 58 27 30 3 80 4 110 3 30
-2 154 -6 275 -9z m1684 -14 c10 -17 12 -148 11 -738 0 -201 -4 -313 -10 -313
-14 0 -12 -97 4 -200 7 -47 11 -88 9 -92 -4 -7 -11 -209 -14 -381 -2 -99 -13
-121 -66 -132 -33 -7 -33 -6 -33 34 0 33 -5 44 -26 58 -19 12 -30 14 -43 6
-22 -14 -27 -74 -7 -89 14 -10 11 -12 -18 -17 -19 -3 -47 -2 -63 2 l-28 7 0
140 c0 76 1 184 3 239 2 55 3 111 3 125 0 14 1 319 2 678 3 602 4 653 20 669
33 33 239 36 256 4z m2971 -20 c19 -20 52 -47 73 -60 20 -12 37 -26 37 -31 0
-5 8 -11 18 -14 9 -4 35 -23 57 -44 49 -45 260 -212 308 -243 19 -13 39 -35
45 -51 5 -15 18 -28 27 -28 9 0 45 -25 80 -55 34 -30 66 -55 70 -55 5 0 23
-17 41 -39 19 -21 51 -48 73 -58 48 -24 98 -63 160 -124 25 -25 73 -64 106
-86 33 -22 81 -60 106 -84 26 -24 68 -60 95 -79 27 -19 58 -42 69 -52 11 -9
56 -45 100 -80 44 -35 102 -84 128 -111 26 -26 82 -70 122 -97 41 -28 85 -64
97 -80 12 -17 30 -30 40 -30 10 0 18 -4 18 -10 0 -5 24 -25 54 -44 67 -43 81
-66 67 -108 -6 -17 -8 -35 -4 -41 4 -6 8 -41 9 -78 l3 -67 -31 -6 c-17 -3 -64
-6 -106 -6 -62 0 -78 4 -96 21 -37 36 -153 129 -161 129 -4 0 -29 18 -54 41
-60 53 -69 59 -78 59 -5 0 -29 21 -53 46 -25 25 -96 84 -158 131 -62 47 -142
112 -177 144 -35 32 -74 63 -87 70 -30 16 -96 68 -122 96 -19 20 -182 156
-351 293 -38 30 -75 63 -84 73 -8 9 -19 17 -23 17 -4 0 -20 12 -35 26 -42 39
-214 178 -248 200 -16 10 -72 56 -125 102 -52 46 -109 90 -127 98 -18 9 -35
24 -38 34 -3 10 -23 25 -44 33 l-38 16 -6 71 c-8 91 1 170 22 193 13 16 26 18
101 12 82 -6 86 -8 120 -44z m1223 37 c311 2 422 0 433 -9 16 -13 19 -29 4
-29 -5 0 -35 -24 -66 -52 -30 -29 -63 -57 -72 -62 -9 -5 -42 -34 -72 -65 -31
-31 -76 -69 -100 -86 -25 -16 -72 -53 -105 -81 -33 -28 -70 -57 -82 -65 -39
-27 -185 -153 -228 -198 -41 -42 -44 -44 -73 -32 -16 7 -42 26 -58 42 -15 16
-33 29 -38 29 -6 0 -26 15 -43 33 -18 18 -55 46 -82 62 -28 17 -55 40 -60 53
-6 12 -15 22 -21 22 -5 0 -10 6 -10 14 0 8 -20 24 -45 36 -25 12 -45 26 -45
31 0 5 -4 9 -10 9 -5 0 -34 23 -64 51 -30 27 -85 72 -123 98 -38 26 -79 57
-90 68 -11 11 -46 39 -77 62 -31 23 -54 46 -51 52 4 5 84 10 183 10 97 1 240
5 317 9 77 4 167 4 200 1 33 -3 248 -5 478 -3z m755 -93 c2 -64 -1 -95 -8 -95
-6 0 -44 -34 -84 -75 -40 -41 -76 -75 -81 -75 -4 0 -41 -31 -81 -70 -40 -38
-91 -81 -114 -96 -22 -15 -40 -30 -40 -35 0 -4 -10 -11 -22 -15 -12 -4 -45
-30 -73 -58 -29 -28 -78 -72 -111 -98 -32 -26 -96 -77 -142 -113 -76 -60 -115
-78 -124 -56 -4 11 -106 94 -135 110 -38 20 -27 46 48 113 39 34 99 88 133
119 33 31 69 60 78 65 9 5 50 39 90 76 40 36 88 78 106 93 17 15 32 33 32 41
0 8 21 24 46 36 32 15 49 30 56 50 7 20 19 31 39 35 16 3 44 21 63 39 19 19
39 34 44 34 5 0 15 11 22 24 23 43 65 56 165 51 l90 -4 3 -96z m327 83 c11 -2
23 -8 27 -13 13 -21 12 -1045 -2 -1045 -14 0 -12 -97 4 -200 7 -47 11 -88 9
-92 -2 -5 -7 -92 -10 -195 -3 -104 -6 -206 -7 -228 -2 -22 -3 -56 -4 -75 l-2
-35 -88 2 c-48 1 -96 3 -107 4 -11 1 -35 -2 -53 -6 l-32 -8 2 949 3 949 45 5
c39 4 152 -2 215 -12z m-5624 2 c36 -20 15 -108 -35 -147 -14 -11 -41 -40 -61
-63 -20 -23 -52 -55 -73 -70 -20 -15 -55 -45 -78 -66 -22 -22 -79 -73 -125
-114 -46 -41 -135 -124 -196 -185 -154 -150 -185 -174 -245 -189 -22 -5 -37 3
-87 46 -34 28 -61 55 -61 59 0 5 17 23 37 41 20 18 68 63 106 101 39 37 74 67
78 67 4 0 16 15 26 33 11 18 40 43 65 56 28 16 55 40 71 67 22 37 177 174 197
174 4 0 16 13 27 29 10 16 53 61 97 100 l78 71 80 0 c43 0 88 -5 99 -10z
m2670 -12 c7 -13 11 -86 8 -148 -1 -14 -1 -133 -1 -265 1 -683 -12 -1407 -25
-1429 -3 -5 -27 -6 -54 -3 -30 4 -51 2 -55 -5 -5 -7 -58 -8 -168 -4 -266 11
-479 11 -483 1 -2 -6 -265 -9 -731 -8 -400 0 -732 1 -738 2 -6 1 -11 21 -11
49 1 66 -14 183 -25 205 -7 14 -5 25 9 40 18 20 19 31 11 142 -11 145 -11 130
1 184 5 26 5 69 1 103 -5 32 -5 109 -1 171 4 62 7 171 6 242 -1 72 1 137 6
146 5 9 4 64 -1 123 -8 92 -7 110 8 135 13 24 15 36 6 63 -11 31 -10 218 1
246 3 8 21 13 47 12 144 -1 1594 12 1597 16 2 2 134 2 294 0 241 -2 291 -5
298 -18z m347 6 c20 -14 22 -23 23 -127 0 -62 0 -134 1 -162 1 -71 -12 -176
-24 -203 -9 -16 -8 -40 4 -94 14 -65 14 -74 0 -84 -11 -8 -13 -19 -7 -45 7
-28 18 -359 15 -459 0 -14 -2 -172 -3 -352 -2 -180 -5 -330 -8 -332 -2 -2 -59
-10 -127 -16 -149 -14 -178 -5 -176 50 2 36 5 480 4 625 0 219 10 875 14 913
3 23 1 54 -4 67 -7 17 -6 60 1 125 l12 99 96 4 c53 1 110 4 126 5 17 1 41 -5
53 -14z m4953 -5 c7 -14 11 -86 8 -149 -1 -14 -1 -133 -1 -265 1 -683 -12
-1407 -25 -1429 -3 -5 -27 -6 -54 -3 -30 4 -51 2 -55 -5 -5 -7 -58 -8 -168 -4
-266 11 -479 11 -483 1 -2 -6 -265 -9 -731 -8 -400 0 -732 1 -738 2 -6 1 -11
21 -11 49 1 66 -14 183 -25 205 -7 14 -5 25 9 40 18 20 19 31 11 142 -11 145
-11 130 1 184 5 26 5 69 1 103 -5 32 -5 109 -1 171 4 62 7 171 6 242 -1 72 1
137 6 146 5 9 4 64 -1 123 -8 92 -7 110 8 135 13 24 15 36 6 63 -11 31 -10
218 1 246 3 8 22 13 47 13 24 0 449 1 945 2 496 1 904 4 907 7 2 3 77 5 166 4
132 0 164 -3 171 -15z m-10017 -248 c17 -15 85 -79 151 -140 66 -61 151 -142
189 -179 38 -37 95 -87 127 -112 32 -25 67 -57 79 -73 12 -15 35 -34 50 -42
16 -8 40 -25 53 -38 14 -12 36 -30 51 -40 14 -10 26 -26 26 -35 0 -18 -68 -89
-190 -200 -131 -119 -249 -229 -407 -380 -64 -61 -160 -128 -170 -118 -3 3 -8
30 -10 59 -3 42 -13 628 -13 690 1 9 1 32 1 50 2 60 3 401 3 495 -1 105 7 113
60 63z m7350 -163 c4 -95 7 -357 8 -583 2 -568 2 -536 -13 -546 -8 -4 -16 -4
-20 2 -3 6 -9 10 -13 10 -3 -1 -10 -1 -16 -1 -5 0 -46 32 -91 70 -45 39 -101
82 -125 96 -24 14 -44 29 -44 33 0 13 -280 240 -370 300 -126 85 -137 108 -69
157 23 16 83 70 133 119 50 50 111 104 136 121 25 16 51 42 58 57 9 18 21 27
37 27 28 0 80 43 193 156 45 46 86 84 90 84 5 0 23 16 42 35 19 19 39 35 45
35 8 0 14 -53 19 -172z m-5304 147 c16 -19 8 -515 -9 -560 -9 -24 -9 -40 2
-70 18 -51 14 -600 -4 -621 -24 -29 -45 -15 -189 120 -19 19 -64 55 -100 82
-36 26 -109 88 -162 136 -54 48 -105 88 -113 88 -9 0 -19 9 -23 19 -4 11 -26
34 -48 53 -23 18 -56 50 -73 70 l-32 37 37 33 c59 52 74 67 74 76 0 4 13 16
29 26 16 11 36 32 45 48 9 15 45 49 79 75 34 26 91 76 127 112 36 36 111 107
167 156 166 146 169 148 193 120z m3188 -108 c32 -23 75 -60 96 -80 20 -21 55
-49 77 -62 21 -14 39 -29 39 -34 0 -9 87 -76 128 -98 13 -7 53 -39 91 -73 37
-33 73 -60 79 -60 7 0 12 -5 12 -10 0 -6 7 -13 16 -17 9 -3 26 -15 39 -27 13
-12 44 -37 69 -56 60 -46 64 -58 24 -89 -18 -14 -54 -44 -79 -66 -25 -22 -82
-69 -125 -105 -43 -36 -113 -95 -154 -132 -156 -141 -188 -167 -277 -236 -50
-39 -103 -74 -117 -78 -32 -8 -36 9 -37 131 -1 27 -5 58 -11 68 -6 13 -3 43
11 102 16 62 20 103 16 152 -5 64 -17 454 -14 481 2 23 2 97 1 122 -5 75 4
179 17 193 20 25 35 21 99 -26z m-4357 -658 c39 -35 59 -60 59 -74 0 -15 -22
-41 -67 -81 -38 -32 -102 -90 -143 -130 -41 -40 -109 -101 -150 -136 -41 -34
-90 -79 -110 -98 -19 -19 -62 -57 -95 -84 -33 -28 -100 -90 -149 -138 l-89
-88 -88 0 -88 0 -10 35 c-15 57 4 110 57 153 25 20 55 46 66 58 12 12 48 43
81 69 33 27 76 64 95 84 49 50 237 224 280 258 19 16 51 43 70 61 109 99 187
162 203 162 10 0 45 -23 78 -51z m5131 38 c7 -7 36 -29 64 -48 28 -19 63 -48
77 -65 24 -28 25 -32 11 -60 -8 -16 -36 -42 -62 -59 -43 -27 -261 -213 -322
-276 -14 -14 -43 -37 -65 -51 -22 -14 -54 -38 -72 -54 -18 -16 -57 -49 -88
-74 -31 -25 -92 -75 -135 -112 l-78 -68 -102 -11 c-68 -7 -105 -8 -112 -1 -5
5 -13 39 -17 73 -7 59 -6 67 17 97 14 18 42 42 62 52 21 11 62 41 91 68 30 26
101 88 159 137 58 48 111 96 118 106 7 11 18 19 23 19 18 0 199 153 293 247
91 92 113 104 138 80z m-4834 -299 c71 -62 176 -151 233 -198 56 -47 117 -99
135 -117 18 -18 54 -51 81 -74 125 -109 166 -150 155 -161 -8 -8 -19 -8 -38 1
-20 9 -30 9 -40 0 -9 -8 -33 -10 -67 -6 -28 4 -46 3 -39 -2 21 -13 -134 -21
-213 -11 -91 11 -400 14 -540 5 -117 -7 -200 -8 -411 -7 -103 1 -134 5 -143
16 -11 13 -8 20 16 41 60 53 69 62 94 91 40 45 247 232 314 283 31 23 185 162
242 219 56 54 73 48 221 -80z m5100 76 c17 -7 32 -17 32 -23 0 -8 194 -167
289 -237 76 -55 120 -92 161 -133 25 -25 59 -54 75 -64 49 -28 98 -64 135 -99
19 -18 46 -40 59 -49 17 -10 22 -21 18 -32 -5 -14 -21 -17 -86 -17 -44 0 -83
5 -86 10 -8 13 -52 13 -60 0 -7 -11 -150 -9 -161 3 -14 14 -84 8 -90 -8 -9
-22 -60 -19 -84 5 -24 24 -43 25 -63 5 -18 -18 -99 -24 -105 -7 -5 15 -59 16
-64 1 -5 -14 -523 -22 -683 -11 -128 9 -134 22 -41 88 35 26 93 73 128 106 35
33 86 77 113 98 28 21 81 68 119 104 38 36 73 66 77 66 9 0 182 151 219 191
26 29 35 29 98 3z"/>
<path d="M2396 3058 c-7 -18 -18 -46 -23 -63 -12 -37 -45 -44 -91 -19 -25 13
-38 15 -50 7 -25 -15 -26 -40 -3 -48 30 -9 108 -101 122 -143 26 -81 83 -153
108 -138 5 3 11 18 14 34 3 16 16 34 30 41 15 8 32 32 43 60 10 26 41 71 72
103 54 57 61 81 27 94 -8 3 -40 -8 -71 -26 -31 -17 -65 -30 -77 -28 -22 3 -25
12 -52 136 -8 32 -34 27 -49 -10z"/>
<path d="M3454 3081 c-17 -4 -36 -11 -42 -15 -10 -6 -177 -25 -360 -41 -23 -2
-47 -7 -54 -11 -6 -4 -25 -9 -41 -10 -17 -2 -38 -10 -46 -18 -9 -7 -37 -23
-63 -34 -25 -11 -66 -38 -90 -59 -24 -22 -57 -49 -75 -61 -37 -26 -54 -69 -54
-143 0 -78 13 -110 72 -181 67 -80 106 -107 179 -120 101 -19 155 -1 237 80
87 86 123 133 159 207 16 33 48 84 71 113 24 30 43 58 43 64 0 14 68 107 102
140 29 28 36 66 16 86 -7 7 -14 12 -17 11 -4 -1 -20 -4 -37 -8z m-84 -116 c0
-22 -28 -75 -55 -105 -12 -14 -26 -42 -29 -62 -4 -21 -15 -43 -25 -50 -10 -7
-26 -29 -36 -48 -43 -84 -168 -197 -241 -218 -66 -19 -95 -15 -153 24 -71 48
-105 120 -95 202 5 45 14 63 52 106 81 91 172 138 252 129 25 -3 72 1 105 7
50 11 125 21 208 28 9 1 17 -5 17 -13z"/>
<path d="M3125 2889 c-92 -16 -160 -32 -180 -42 -11 -6 -50 -39 -87 -75 -53
-51 -68 -72 -68 -94 0 -36 34 -103 55 -112 61 -23 174 14 230 76 56 61 105
126 105 141 0 8 9 25 19 38 10 14 21 36 22 49 5 29 -16 34 -96 19z"/>
<path d="M1468 3053 c-25 -27 -25 -30 -13 -72 8 -24 22 -53 33 -65 11 -11 25
-37 31 -57 7 -21 29 -61 49 -90 21 -30 49 -75 64 -100 42 -72 156 -173 225
-199 116 -44 225 -36 314 24 48 31 64 56 95 139 l17 48 -26 27 c-15 16 -27 37
-27 48 -2 48 -69 123 -135 148 -16 6 -17 9 -5 16 8 6 11 10 5 11 -5 1 -14 3
-20 4 -5 1 -40 16 -76 33 -140 65 -319 112 -435 112 -64 0 -73 -2 -96 -27z
m217 -32 c89 -15 191 -48 275 -90 69 -34 81 -46 146 -132 68 -89 71 -97 71
-148 0 -49 -2 -55 -29 -70 -17 -9 -49 -28 -71 -43 -62 -39 -155 -39 -232 0
-50 25 -116 84 -143 127 -13 22 -41 63 -62 90 -20 28 -43 66 -50 85 -8 19 -22
46 -32 59 -10 13 -18 32 -18 43 0 10 -7 30 -16 43 -14 21 -14 28 -3 41 14 17
42 16 164 -5z"/>
<path d="M1597 2973 c-16 -16 -3 -47 57 -129 74 -104 95 -127 156 -175 66 -53
82 -59 149 -59 60 0 61 1 87 40 33 50 28 72 -30 136 -60 67 -170 131 -257 149
-38 8 -83 22 -99 30 -31 16 -53 19 -63 8z"/>
<path d="M2371 2549 c-13 -14 -26 -19 -40 -14 -31 9 -57 -10 -101 -76 -49 -70
-56 -103 -41 -184 8 -45 22 -73 54 -114 57 -73 93 -91 198 -94 75 -2 88 1 120
22 19 14 45 38 57 55 12 17 29 41 38 53 24 33 35 92 28 152 -6 46 -14 63 -58
114 -70 82 -90 94 -168 101 -60 6 -69 4 -87 -15z m126 -65 c74 -22 89 -39 103
-122 14 -84 1 -125 -51 -164 -53 -40 -75 -48 -128 -49 -43 -1 -55 3 -93 34
-51 42 -74 102 -63 168 11 66 96 140 168 148 5 1 34 -6 64 -15z"/>
<path d="M2414 2433 c-42 -8 -85 -55 -91 -100 -5 -40 -3 -46 36 -84 38 -38 44
-41 78 -34 74 13 97 66 68 151 -25 74 -32 79 -91 67z"/>
<path d="M1556 2514 c-4 -9 0 -27 9 -40 26 -39 18 -57 -36 -87 -28 -16 -53
-36 -56 -44 -9 -24 10 -47 47 -54 51 -11 65 -30 49 -72 -6 -19 -9 -42 -6 -50
8 -22 56 -33 76 -19 9 7 34 21 56 33 22 12 49 29 60 39 20 18 63 36 156 66 76
23 92 64 25 64 -18 0 -58 14 -89 30 -31 17 -61 30 -66 30 -18 0 -98 42 -151
80 -62 45 -65 46 -74 24z"/>
<path d="M3270 2492 c0 -19 -71 -98 -102 -114 -98 -51 -148 -67 -179 -58 -35
10 -49 6 -49 -15 0 -15 54 -45 81 -45 43 0 185 -87 243 -150 21 -22 36 -30 55
-28 36 4 38 37 5 87 -33 50 -27 71 20 69 41 -1 89 26 84 50 -2 9 -22 23 -45
32 -63 23 -91 45 -75 61 24 26 7 119 -23 119 -8 0 -15 -4 -15 -8z"/>
<path d="M2814 2162 c-47 -26 -151 -112 -169 -138 -18 -28 -21 -145 -4 -195 7
-19 22 -45 34 -59 12 -14 33 -44 45 -67 16 -30 34 -46 56 -53 18 -6 59 -28 91
-48 32 -21 81 -46 108 -56 28 -10 73 -28 100 -41 88 -42 172 -75 187 -75 8 0
49 -18 91 -40 41 -22 80 -40 86 -40 13 0 15 76 2 84 -9 6 -81 223 -81 244 0 5
-15 35 -32 65 -18 31 -55 95 -82 143 -51 89 -65 106 -178 212 -62 57 -88 76
-74 53 3 -5 -11 -3 -32 4 -69 24 -115 26 -148 7z m198 -92 c53 -23 108 -80
163 -168 22 -35 52 -79 68 -99 16 -21 27 -48 27 -67 0 -34 27 -113 47 -137 7
-8 13 -23 13 -33 0 -9 7 -30 15 -47 29 -54 1 -63 -79 -25 -28 13 -89 36 -136
51 -83 27 -185 77 -285 141 -52 33 -128 116 -132 144 -1 8 -7 34 -14 57 -15
55 -4 83 61 151 l50 52 79 0 c57 0 91 -6 123 -20z"/>
<path d="M2870 2030 c-8 -5 -25 -10 -36 -10 -39 0 -71 -35 -78 -87 l-6 -47 86
-87 c64 -64 102 -93 147 -114 147 -65 183 -85 206 -109 26 -27 61 -35 61 -13
-1 25 -70 183 -91 207 -12 13 -29 36 -37 50 -9 14 -29 40 -44 58 -15 18 -28
39 -28 46 0 19 -75 85 -116 102 -39 16 -44 17 -64 4z"/>
<path d="M1955 2160 c-16 -4 -50 -8 -74 -9 -42 -1 -50 -6 -126 -83 -60 -61
-87 -96 -101 -133 -10 -27 -30 -70 -45 -95 -15 -25 -30 -60 -34 -79 -15 -71
-76 -237 -101 -272 -30 -44 -47 -149 -23 -149 35 1 131 29 148 44 9 9 55 27
102 42 104 31 276 100 309 124 14 10 41 24 60 32 19 9 60 40 91 69 46 45 60
67 79 124 23 70 27 112 17 215 -4 43 -11 59 -31 75 -14 11 -26 24 -26 28 0 13
-41 48 -50 42 -5 -3 -11 3 -14 12 -5 15 -18 18 -78 19 -40 0 -86 -3 -103 -6z
m134 -91 c25 -12 53 -25 61 -29 20 -9 42 -75 41 -123 0 -97 -62 -189 -194
-285 -57 -42 -255 -122 -354 -142 -23 -5 -51 -15 -62 -22 -31 -19 -36 -2 -13
46 12 24 22 61 22 82 0 25 9 52 24 74 12 19 28 51 35 70 14 43 114 216 144
248 30 32 124 84 167 93 60 12 81 10 129 -12z"/>
<path d="M1952 2004 c-79 -33 -188 -163 -251 -300 -17 -37 -43 -73 -65 -90
-72 -58 -29 -104 45 -48 19 14 77 47 129 73 156 77 184 98 251 188 51 69 61
95 48 132 -16 45 -100 70 -157 45z"/>
<path d="M2435 1928 c-2 -7 -6 -30 -10 -51 -16 -95 -45 -145 -132 -227 -69
-64 -83 -83 -78 -99 8 -27 46 -36 86 -22 18 6 44 11 59 11 23 0 30 -7 44 -45
10 -24 14 -49 11 -55 -4 -6 -1 -25 5 -41 9 -22 19 -29 34 -27 20 3 26 17 44
107 10 48 32 59 76 38 55 -26 116 -6 122 39 1 8 -12 21 -29 28 -44 19 -96 76
-99 108 -1 15 -9 29 -19 31 -20 5 -79 125 -79 160 0 47 -24 78 -35 45z"/>
<path d="M3690 3110 c-33 -33 -6 -80 46 -80 33 0 34 2 34 38 0 61 -40 82 -80
42z"/>
<path d="M3701 2904 c-36 -46 -25 -76 32 -86 36 -7 57 14 57 57 0 57 -54 74
-89 29z"/>
<path d="M3702 2698 c-7 -7 -12 -31 -12 -55 0 -32 5 -45 20 -53 52 -28 107 62
64 104 -18 19 -55 21 -72 4z"/>
<path d="M3674 2455 c-21 -32 -7 -69 31 -87 62 -28 103 42 52 90 -31 29 -63
28 -83 -3z"/>
<path d="M3688 2224 c-11 -22 -10 -28 7 -40 30 -22 64 -17 75 11 14 38 3 55
-36 55 -27 0 -37 -5 -46 -26z"/>
<path d="M3701 2036 c-7 -8 -11 -30 -9 -48 3 -29 7 -33 34 -36 57 -6 86 51 42
82 -28 20 -52 20 -67 2z"/>
<path d="M3695 1850 c-16 -18 -17 -23 -4 -46 18 -35 53 -51 74 -34 23 19 18
56 -11 79 -33 26 -36 26 -59 1z"/>
<path d="M3697 1633 c-14 -13 -7 -50 13 -68 36 -33 83 13 54 53 -14 21 -53 30
-67 15z"/>
<path d="M3702 1444 c-30 -20 -29 -59 2 -79 48 -32 86 20 56 76 -13 23 -28 24
-58 3z"/>
<path d="M4002 3088 c-18 -18 -14 -34 14 -52 51 -34 97 2 58 45 -19 21 -54 25
-72 7z"/>
<path d="M4164 2962 c-21 -13 -25 -49 -9 -66 18 -17 65 -22 65 -7 0 5 3 16 6
24 3 9 -4 25 -15 36 -23 23 -30 25 -47 13z"/>
<path d="M4306 2824 c-24 -23 -19 -51 10 -71 48 -31 86 25 45 66 -25 25 -35
26 -55 5z"/>
<path d="M4445 2696 c-24 -18 -15 -57 17 -76 25 -13 29 -13 44 2 36 36 -20
104 -61 74z"/>
<path d="M4602 2548 c-7 -7 -12 -20 -12 -30 0 -22 42 -50 63 -42 24 9 29 34
12 60 -17 26 -44 31 -63 12z"/>
<path d="M4767 2413 c-14 -13 -6 -53 12 -63 51 -27 86 1 57 45 -16 24 -54 34
-69 18z"/>
<path d="M4932 2264 c-12 -8 -22 -21 -22 -29 0 -17 38 -45 62 -45 10 0 24 11
30 25 9 21 8 28 -7 45 -22 24 -34 25 -63 4z"/>
<path d="M5071 2136 c-33 -39 25 -116 67 -90 28 18 27 59 -4 83 -31 25 -47 26
-63 7z"/>
<path d="M5221 1996 c-18 -22 -10 -48 21 -66 30 -16 60 -7 66 21 7 38 -63 74
-87 45z"/>
<path d="M5390 1870 c-18 -4 -25 -13 -25 -30 0 -21 7 -27 38 -34 44 -11 63 1
52 33 -8 27 -34 39 -65 31z"/>
<path d="M5514 1746 c-24 -18 -10 -46 29 -60 29 -11 57 5 57 33 0 39 -49 54
-86 27z"/>
<path d="M5657 1623 c-26 -25 26 -90 62 -78 25 8 43 36 33 52 -14 22 -81 41
-95 26z"/>
<path d="M5816 1471 c-20 -22 -13 -44 18 -61 48 -25 88 27 50 64 -21 21 -47
20 -68 -3z"/>
<path d="M4896 3055 c-25 -63 -46 -75 -120 -68 -56 5 -63 3 -84 -20 -31 -33
-25 -58 17 -79 18 -9 43 -26 55 -37 12 -11 40 -27 61 -34 51 -17 85 -66 85
-119 0 -49 32 -98 64 -98 26 0 56 28 56 53 0 9 4 18 9 21 5 3 12 21 15 40 8
42 56 83 139 120 68 30 74 53 27 105 -33 35 -45 36 -161 16 -33 -6 -37 -4 -43
18 -3 14 -3 39 0 55 8 40 -23 72 -70 72 -30 0 -35 -4 -50 -45z"/>
<path d="M6202 3098 c-7 -7 -12 -27 -12 -45 0 -30 3 -33 28 -33 28 0 62 26 62
48 0 32 -54 54 -78 30z"/>
<path d="M6200 2900 c-37 -37 -17 -90 34 -90 41 0 61 64 28 93 -24 22 -38 21
-62 -3z"/>
<path d="M6211 2701 c-36 -51 -25 -91 25 -91 30 0 34 4 43 38 14 48 14 48 -5
66 -23 23 -40 20 -63 -13z"/>
<path d="M6192 2498 c-31 -31 5 -92 48 -81 26 7 52 50 45 73 -5 15 -15 20 -44
20 -20 0 -42 -5 -49 -12z"/>
<path d="M6195 2270 c-21 -40 -19 -55 8 -67 47 -22 93 29 67 76 -17 32 -56 27
-75 -9z"/>
<path d="M6206 2089 c-41 -32 -33 -67 20 -83 46 -14 73 54 36 87 -23 21 -24
21 -56 -4z"/>
<path d="M6202 1904 c-39 -27 -27 -94 19 -94 49 0 76 61 41 93 -23 21 -32 21
-60 1z"/>
<path d="M6180 1711 c-26 -50 37 -104 72 -61 24 29 23 46 -4 64 -30 21 -55 20
-68 -3z"/>
<path d="M6185 1526 c-18 -27 -13 -46 15 -64 45 -28 91 37 50 70 -30 24 -46
23 -65 -6z"/>
<path d="M9163 3058 c-31 -41 -16 -72 34 -66 25 3 28 7 28 38 0 30 -4 35 -26
38 -14 2 -30 -3 -36 -10z"/>
<path d="M9318 2929 c-22 -13 -23 -55 -2 -63 35 -14 64 -6 76 20 11 22 10 28
-7 40 -22 16 -43 17 -67 3z"/>
<path d="M9480 2796 c-31 -38 9 -89 54 -68 32 14 34 45 4 66 -28 20 -42 20
-58 2z"/>
<path d="M9640 2641 c-5 -11 -10 -26 -10 -34 0 -18 54 -42 75 -33 21 8 20 72
-1 80 -29 11 -53 6 -64 -13z"/>
<path d="M9810 2516 c-21 -26 -8 -61 23 -64 30 -4 67 21 67 44 0 30 -68 45
-90 20z"/>
<path d="M9982 2384 c-12 -8 -22 -26 -22 -39 0 -20 7 -26 41 -35 63 -17 89 17
53 68 -18 26 -41 28 -72 6z"/>
<path d="M10162 2228 c-7 -7 -12 -21 -12 -32 0 -22 47 -76 65 -76 19 0 55 45
55 68 0 40 -78 70 -108 40z"/>
<path d="M10348 2099 c-47 -27 3 -103 63 -97 28 2 35 8 37 28 5 44 -63 91
-100 69z"/>
<path d="M10507 1943 c-25 -24 21 -83 65 -83 30 0 42 23 28 50 -17 32 -74 52
-93 33z"/>
<path d="M10673 1804 c-16 -43 56 -94 92 -64 22 18 18 34 -15 58 -34 26 -68
28 -77 6z"/>
<path d="M10846 1674 c-21 -20 -20 -37 2 -57 22 -20 43 -22 60 -5 17 17 15 42
-6 61 -23 21 -36 21 -56 1z"/>
<path d="M11012 1548 c-29 -29 -2 -72 40 -66 29 4 35 34 12 59 -20 22 -35 24
-52 7z"/>
<path d="M11162 1424 c-29 -20 -28 -52 2 -66 45 -20 74 8 62 57 -7 29 -31 32
-64 9z"/>
<path d="M10157 3052 c-20 -21 -27 -38 -27 -69 0 -32 -5 -46 -22 -57 -20 -14
-25 -14 -56 6 -30 19 -38 19 -75 8 -48 -14 -67 -27 -67 -46 0 -21 30 -44 57
-44 42 0 118 -72 153 -146 18 -38 36 -64 46 -64 16 0 50 36 88 93 12 18 34 34
51 39 158 38 175 49 162 100 -10 37 -52 51 -130 43 -76 -8 -75 -9 -110 94 -12
36 -27 66 -33 68 -5 2 -22 -9 -37 -25z"/>
<path d="M11205 3106 c-24 -36 -13 -58 26 -54 39 4 59 30 43 56 -18 27 -51 27
-69 -2z"/>
<path d="M11100 3010 c-42 -42 -11 -97 40 -70 29 16 29 90 0 90 -11 0 -29 -9
-40 -20z"/>
<path d="M10960 2890 c-11 -11 -20 -24 -20 -29 0 -17 29 -32 57 -29 23 2 29 9
31 32 6 46 -33 61 -68 26z"/>
<path d="M10832 2778 c-31 -31 2 -73 46 -57 37 14 23 69 -18 69 -9 0 -21 -5
-28 -12z"/>
<path d="M10681 2661 c-62 -58 -12 -98 51 -42 27 25 31 33 22 48 -17 28 -38
26 -73 -6z"/>
<path d="M10514 2535 c-24 -24 -25 -28 -11 -48 18 -28 63 -34 88 -11 25 23 24
49 -3 68 -31 22 -45 20 -74 -9z"/>
<path d="M10386 2404 c-15 -21 -16 -30 -7 -50 14 -31 32 -30 71 2 43 36 38 68
-10 72 -28 2 -39 -3 -54 -24z"/>
<path d="M11522 3084 c-31 -21 -29 -61 3 -76 58 -26 104 40 53 76 -12 9 -25
16 -28 16 -3 0 -16 -7 -28 -16z"/>
<path d="M11512 2898 c-28 -28 -7 -78 34 -78 29 0 46 23 42 57 -2 23 -8 29
-33 31 -17 2 -36 -3 -43 -10z"/>
<path d="M11526 2704 c-19 -18 -20 -38 -6 -65 20 -36 70 -17 70 27 0 22 -24
54 -40 54 -5 0 -16 -7 -24 -16z"/>
<path d="M11506 2504 c-11 -29 -6 -43 19 -60 30 -20 55 -5 55 32 0 37 -61 61
-74 28z"/>
<path d="M11503 2328 c-29 -38 -12 -97 24 -84 8 3 21 6 28 6 21 0 26 29 10 61
-16 30 -45 38 -62 17z"/>
<path d="M11511 2126 c-7 -8 -11 -27 -9 -43 2 -22 8 -28 27 -28 36 0 48 27 28
59 -20 30 -30 32 -46 12z"/>
<path d="M11497 1913 c-12 -12 -7 -51 8 -67 32 -32 93 25 65 59 -13 15 -61 20
-73 8z"/>
<path d="M11503 1732 c-12 -8 -16 -24 -14 -59 1 -17 7 -23 24 -23 45 0 62 43
29 73 -21 19 -23 20 -39 9z"/>
<path d="M11496 1544 c-32 -32 -6 -88 38 -82 27 4 33 41 12 74 -19 28 -29 30
-50 8z"/>
<path d="M11486 1354 c-21 -20 -20 -26 5 -58 24 -31 45 -33 54 -6 15 47 -29
94 -59 64z"/>
<path d="M5905 3088 c-25 -29 -26 -33 -10 -44 12 -9 25 -10 45 -2 46 15 55 33
31 57 -28 28 -34 27 -66 -11z"/>
<path d="M5779 2999 c-26 -26 -22 -63 8 -67 28 -4 73 25 73 47 0 42 -47 54
-81 20z"/>
<path d="M5692 2908 c-26 -13 -40 -54 -23 -71 7 -7 19 -8 38 -1 23 8 28 15 28
43 0 38 -9 45 -43 29z"/>
<path d="M5550 2790 c-40 -40 -15 -77 38 -55 48 21 42 75 -9 75 -5 0 -18 -9
-29 -20z"/>
<path d="M5426 2667 c-51 -41 -14 -71 62 -51 12 4 22 14 22 24 0 54 -36 65
-84 27z"/>
<path d="M5293 2558 c-28 -13 -36 -34 -23 -59 14 -25 58 -24 88 0 27 23 28 39
5 57 -21 16 -40 16 -70 2z"/>
<path d="M5156 2435 c-9 -9 -16 -27 -16 -41 0 -19 5 -24 24 -24 13 0 34 9 47
19 20 16 22 23 13 38 -15 24 -48 28 -68 8z"/>
<path d="M8465 3070 c-49 -21 -86 -30 -125 -30 -75 0 -267 -62 -332 -106 -39
-28 -116 -113 -162 -182 -26 -38 -30 -53 -32 -124 -3 -92 9 -127 54 -155 15
-9 39 -27 54 -39 14 -12 56 -29 93 -39 64 -18 69 -18 114 -1 25 10 67 24 93
32 33 10 53 24 67 47 12 17 35 46 52 62 17 17 42 54 55 83 13 29 37 69 54 90
16 20 30 42 30 48 0 7 18 36 40 65 22 30 40 57 40 61 0 5 11 26 25 48 14 22
25 52 25 68 0 15 7 37 15 49 13 19 13 23 -1 37 -24 24 -81 19 -159 -14z m75
-38 c0 -15 -52 -136 -69 -162 -9 -14 -41 -74 -71 -133 -30 -60 -64 -114 -75
-119 -11 -6 -41 -30 -67 -54 -26 -24 -54 -44 -62 -44 -8 0 -27 -11 -42 -25
-22 -21 -37 -25 -86 -25 -75 0 -108 17 -147 77 -44 66 -46 81 -16 145 34 74
172 207 243 233 26 10 61 26 78 36 19 12 50 19 80 19 46 0 156 29 192 50 21
12 42 13 42 2z"/>
<path d="M8355 2931 c-22 -9 -64 -28 -92 -43 -29 -16 -63 -28 -75 -28 -23 0
-76 -31 -150 -87 -40 -30 -60 -78 -62 -148 -1 -38 2 -41 46 -65 l47 -25 28 23
c15 12 46 31 68 41 63 29 195 183 195 227 0 12 14 36 30 52 30 31 41 73 18 71
-7 -1 -31 -8 -53 -18z"/>
<path d="M6551 3082 c-11 -8 -9 -17 8 -53 11 -24 25 -51 30 -59 13 -23 48
-102 56 -130 11 -36 64 -131 91 -163 13 -16 24 -33 24 -40 0 -6 35 -45 78 -87
104 -103 190 -150 288 -157 62 -5 76 -3 101 14 15 11 47 30 70 42 50 25 73 63
74 123 0 24 4 52 8 63 11 27 -4 75 -44 144 -34 58 -89 102 -218 175 -72 41
-202 86 -246 86 -20 0 -41 4 -46 9 -23 23 -248 49 -274 33z m393 -108 c125
-40 178 -65 224 -105 18 -16 37 -29 41 -29 5 0 32 -35 61 -77 50 -75 52 -80
48 -135 -3 -40 -11 -65 -25 -80 -11 -13 -28 -37 -36 -53 -11 -23 -26 -33 -61
-43 -60 -16 -71 -15 -137 4 -40 12 -65 28 -98 63 -85 91 -159 187 -191 251
-18 36 -46 81 -61 100 -16 19 -29 45 -29 58 0 13 -7 36 -15 51 -8 16 -11 32
-7 36 16 17 179 -6 286 -41z"/>
<path d="M6767 2928 c-3 -7 12 -31 33 -53 21 -22 55 -74 76 -115 93 -183 299
-293 354 -190 18 34 -51 180 -112 235 -64 57 -153 100 -248 120 -91 18 -97 18
-103 3z"/>
<path d="M7560 3030 c-12 -17 -21 -43 -20 -58 1 -15 2 -33 1 -39 -1 -15 -47
-17 -56 -3 -9 15 -45 12 -51 -5 -7 -17 7 -32 58 -63 20 -13 40 -33 43 -45 4
-12 20 -51 38 -85 28 -57 32 -62 43 -45 77 115 86 126 148 182 28 24 34 56 14
64 -7 2 -30 -4 -50 -14 -21 -11 -46 -19 -56 -19 -25 0 -45 48 -36 84 7 29 -17
76 -41 76 -7 0 -23 -14 -35 -30z"/>
<path d="M7513 2516 c-58 -19 -96 -48 -131 -103 -72 -115 -54 -227 53 -321 77
-68 175 -81 270 -36 30 15 55 29 55 33 0 3 14 21 30 40 34 39 49 83 51 161 2
49 -2 61 -38 115 -47 69 -95 104 -156 116 -57 11 -85 10 -134 -5z m150 -70
c38 -16 94 -76 103 -112 17 -67 -22 -154 -90 -201 -58 -40 -92 -42 -161 -9
-77 35 -105 75 -105 145 0 136 132 228 253 177z"/>
<path d="M7523 2370 c-55 -24 -74 -55 -66 -103 3 -20 9 -37 13 -37 4 0 27 -16
51 -34 40 -32 48 -34 82 -27 44 11 73 43 82 91 8 49 -7 83 -48 109 -41 25 -59
25 -114 1z"/>
<path d="M8420 2478 c-44 -72 -123 -143 -197 -178 -34 -17 -67 -30 -72 -30
-15 0 -61 -22 -61 -29 0 -14 65 -41 98 -41 82 0 192 -77 222 -154 10 -27 38
-35 45 -13 2 6 6 33 10 60 5 39 3 47 -9 47 -9 0 -16 8 -16 18 0 14 22 30 76
56 48 24 79 46 86 62 14 31 11 33 -51 41 -31 3 -51 11 -51 19 0 9 -6 10 -30 1
-42 -16 -47 -4 -18 50 26 51 33 133 12 140 -7 2 -26 -20 -44 -49z"/>
<path d="M6690 2465 c-9 -11 -11 -36 -7 -86 7 -82 -5 -102 -69 -114 -22 -4
-45 -11 -51 -17 -39 -32 17 -88 86 -88 51 0 60 -17 39 -75 -13 -35 -14 -46 -2
-73 18 -43 44 -41 77 6 15 20 61 71 102 113 75 76 75 76 151 90 53 9 78 19 85
31 14 26 -24 38 -129 43 -77 4 -87 7 -116 34 -80 76 -92 89 -108 119 -19 35
-38 41 -58 17z"/>
<path d="M7130 2150 c-8 -5 -27 -10 -42 -10 -78 0 -246 -130 -288 -223 -11
-23 -38 -70 -59 -105 -22 -34 -52 -91 -68 -125 -15 -34 -37 -78 -50 -97 -13
-19 -23 -39 -23 -45 0 -6 -22 -37 -48 -68 -27 -32 -55 -69 -63 -83 -12 -23
-11 -27 6 -41 11 -8 31 -12 45 -9 61 12 121 32 195 66 55 26 121 45 212 63 87
17 143 33 163 47 16 11 51 27 78 35 107 32 247 189 255 285 3 48 -13 142 -33
179 -10 21 -31 46 -47 56 -15 10 -33 25 -38 33 -10 13 -133 52 -165 52 -8 0
-22 -5 -30 -10z m123 -80 c30 -11 63 -30 75 -43 26 -27 61 -104 62 -133 0 -45
-48 -131 -95 -170 -26 -22 -68 -58 -94 -80 -55 -49 -195 -99 -306 -110 -39 -3
-88 -14 -110 -24 -22 -10 -57 -23 -78 -29 -54 -14 -57 4 -15 92 19 40 41 90
48 112 7 22 33 63 57 92 24 28 48 67 54 85 10 39 57 90 114 126 22 13 49 33
61 43 22 21 115 56 151 58 12 0 46 -8 76 -19z"/>
<path d="M7091 1989 c-60 -36 -131 -101 -182 -166 -27 -34 -49 -67 -49 -72 0
-5 -10 -22 -23 -38 -35 -43 -68 -103 -62 -114 10 -15 42 -10 107 16 34 14 69
25 77 25 9 0 51 15 93 33 57 24 94 49 149 101 70 66 73 71 77 122 4 43 0 58
-18 83 -20 28 -26 31 -78 31 -40 0 -67 -6 -91 -21z"/>
<path d="M8085 2131 c-3 -6 -27 -7 -54 -4 -62 7 -148 -20 -179 -56 -30 -35
-92 -163 -99 -204 -13 -85 60 -196 176 -267 38 -22 77 -50 86 -60 10 -11 27
-20 38 -20 11 0 28 -6 36 -14 19 -17 75 -38 191 -73 77 -23 112 -35 220 -73
63 -22 84 -23 103 -2 17 18 16 21 -3 63 -11 24 -20 53 -20 64 0 39 -64 222
-86 246 -7 8 -19 31 -25 50 -16 46 -55 95 -163 202 -53 52 -106 94 -126 102
-19 6 -35 18 -35 25 0 7 -9 16 -20 21 -27 11 -33 10 -40 0z m28 -73 c32 -12
76 -37 95 -55 20 -19 42 -38 50 -42 8 -4 42 -41 77 -81 47 -54 75 -100 112
-184 64 -142 76 -174 77 -211 l1 -30 -58 3 c-36 2 -71 11 -93 24 -19 11 -51
24 -72 30 -76 19 -99 27 -197 68 -55 22 -103 47 -107 53 -4 7 -8 8 -8 2 0 -18
-132 120 -147 153 -19 45 -9 105 27 167 24 40 41 55 102 86 40 21 75 38 77 38
2 1 31 -9 64 -21z"/>
<path d="M7984 1976 c-32 -14 -74 -60 -74 -81 0 -27 41 -102 72 -132 45 -42
107 -83 128 -83 20 0 246 -113 270 -135 9 -8 24 -15 33 -15 29 0 20 45 -18 92
-19 24 -43 59 -54 79 -11 19 -27 41 -35 48 -9 8 -16 20 -16 27 0 19 -136 161
-182 190 -42 27 -78 30 -124 10z"/>
<path d="M7596 1852 c-3 -5 -10 -38 -16 -75 -6 -37 -15 -79 -21 -94 -14 -37
-66 -91 -104 -108 -66 -28 -92 -76 -60 -109 11 -11 23 -13 43 -6 15 5 51 11
79 15 51 5 53 5 58 -22 4 -15 10 -38 15 -50 20 -48 89 -9 76 43 -8 29 15 64
42 64 13 0 70 -35 82 -51 12 -16 53 -30 70 -24 20 6 27 39 12 61 -4 7 -29 24
-57 38 -60 32 -81 51 -110 97 -35 55 -75 161 -72 194 1 20 -3 30 -15 33 -9 2
-19 -1 -22 -6z"/>
<path d="M8842 3097 c-23 -25 -21 -58 6 -89 21 -25 34 -23 70 15 50 52 39 97
-23 97 -20 0 -39 -8 -53 -23z"/>
<path d="M8862 2900 c-28 -27 -28 -51 1 -78 28 -27 39 -27 60 -4 21 23 22 51
1 80 -19 27 -34 28 -62 2z"/>
<path d="M8858 2699 c-27 -15 -24 -83 4 -103 30 -21 55 -20 68 3 16 31 12 56
-15 85 -27 29 -32 30 -57 15z"/>
<path d="M8845 2446 c-19 -28 -7 -69 25 -86 44 -24 96 42 70 89 -16 31 -74 29
-95 -3z"/>
<path d="M8850 2251 c-18 -34 -12 -68 16 -90 15 -12 30 -21 33 -21 16 0 40 27
46 52 13 53 -70 104 -95 59z"/>
<path d="M8856 2018 c-33 -47 -11 -88 48 -88 28 0 46 25 46 64 0 46 -67 63
-94 24z"/>
<path d="M8841 1806 c-21 -25 -9 -69 22 -84 36 -17 65 -7 73 25 12 47 -66 95
-95 59z"/>
<path d="M8846 1578 c-20 -28 -20 -43 0 -62 20 -21 70 -21 78 0 10 25 7 59 -6
72 -19 19 -55 14 -72 -10z"/>
<path d="M8832 1398 c-20 -20 -13 -55 14 -77 33 -26 46 -26 67 -3 26 29 22 71
-9 82 -34 13 -57 13 -72 -2z"/>
<path d="M13765 3070 c-49 -21 -86 -30 -125 -30 -75 0 -267 -62 -332 -106 -39
-28 -116 -113 -162 -182 -26 -38 -30 -53 -32 -124 -3 -92 9 -127 54 -155 15
-9 39 -27 54 -39 14 -12 56 -29 93 -39 64 -18 69 -18 114 -1 25 10 67 24 93
32 33 10 53 24 67 47 12 17 35 46 52 62 17 17 42 54 55 83 13 29 37 69 54 90
16 20 30 42 30 48 0 7 18 36 40 65 22 30 40 57 40 61 0 5 11 26 25 48 14 22
25 52 25 68 0 15 7 37 15 49 13 19 13 23 -1 37 -24 24 -81 19 -159 -14z m75
-38 c0 -15 -52 -136 -69 -162 -9 -14 -41 -74 -71 -133 -30 -60 -64 -114 -75
-119 -11 -6 -41 -30 -67 -54 -26 -24 -54 -44 -62 -44 -8 0 -27 -11 -42 -25
-22 -21 -37 -25 -86 -25 -75 0 -108 17 -147 77 -44 66 -46 81 -16 145 34 74
172 207 243 233 26 10 61 26 78 36 19 12 50 19 80 19 46 0 156 29 192 50 21
12 42 13 42 2z"/>
<path d="M13655 2931 c-22 -9 -64 -28 -92 -43 -29 -16 -63 -28 -75 -28 -23 0
-76 -31 -150 -87 -40 -30 -60 -78 -62 -148 -1 -38 2 -41 46 -65 l47 -25 28 23
c15 12 46 31 68 41 63 29 195 183 195 227 0 12 14 36 30 52 30 31 41 73 18 71
-7 -1 -31 -8 -53 -18z"/>
<path d="M11851 3082 c-11 -8 -9 -17 8 -53 11 -24 25 -51 30 -59 13 -23 48
-102 56 -130 11 -36 64 -131 91 -163 13 -16 24 -33 24 -40 0 -6 35 -45 78 -87
104 -103 190 -150 288 -157 62 -5 76 -3 101 14 15 11 47 30 70 42 50 25 73 63
74 123 0 24 4 52 8 63 11 27 -4 75 -44 144 -34 58 -89 102 -218 175 -72 41
-202 86 -246 86 -20 0 -41 4 -46 9 -23 23 -248 49 -274 33z m393 -108 c125
-40 178 -65 224 -105 18 -16 37 -29 41 -29 5 0 32 -35 61 -77 50 -75 52 -80
48 -135 -3 -40 -11 -65 -25 -80 -11 -13 -28 -37 -36 -53 -11 -23 -26 -33 -61
-43 -60 -16 -71 -15 -137 4 -40 12 -65 28 -98 63 -85 91 -159 187 -191 251
-18 36 -46 81 -61 100 -16 19 -29 45 -29 58 0 13 -7 36 -15 51 -8 16 -11 32
-7 36 16 17 179 -6 286 -41z"/>
<path d="M12067 2928 c-3 -7 12 -31 33 -53 21 -22 55 -74 76 -115 93 -183 299
-293 354 -190 18 34 -51 180 -112 235 -64 57 -153 100 -248 120 -91 18 -97 18
-103 3z"/>
<path d="M12860 3030 c-12 -17 -21 -43 -20 -58 1 -15 2 -33 1 -39 -1 -15 -47
-17 -56 -3 -9 15 -45 12 -51 -5 -7 -17 7 -32 58 -63 20 -13 40 -33 43 -45 4
-12 20 -51 38 -85 28 -57 32 -62 43 -45 77 115 86 126 148 182 28 24 34 56 14
64 -7 2 -30 -4 -50 -14 -21 -11 -46 -19 -56 -19 -25 0 -45 48 -36 84 7 29 -17
76 -41 76 -7 0 -23 -14 -35 -30z"/>
<path d="M12813 2516 c-58 -19 -96 -48 -131 -103 -72 -115 -54 -227 53 -321
77 -68 175 -81 270 -36 30 15 55 29 55 33 0 3 14 21 30 40 34 39 49 83 51 161
2 49 -2 61 -38 115 -47 69 -95 104 -156 116 -57 11 -85 10 -134 -5z m150 -70
c38 -16 94 -76 103 -112 17 -67 -22 -154 -90 -201 -58 -40 -92 -42 -161 -9
-77 35 -105 75 -105 145 0 136 132 228 253 177z"/>
<path d="M12823 2370 c-55 -24 -74 -55 -66 -103 3 -20 9 -37 13 -37 4 0 27
-16 51 -34 40 -32 48 -34 82 -27 44 11 73 43 82 91 8 49 -7 83 -48 109 -41 25
-59 25 -114 1z"/>
<path d="M13720 2478 c-44 -72 -123 -143 -197 -178 -34 -17 -67 -30 -72 -30
-15 0 -61 -22 -61 -29 0 -14 65 -41 98 -41 82 0 192 -77 222 -154 10 -27 38
-35 45 -13 2 6 6 33 10 60 5 39 3 47 -9 47 -9 0 -16 8 -16 18 0 14 22 30 76
56 48 24 79 46 86 62 14 31 11 33 -51 41 -31 3 -51 11 -51 19 0 9 -6 10 -30 1
-42 -16 -47 -4 -18 50 26 51 33 133 12 140 -7 2 -26 -20 -44 -49z"/>
<path d="M11990 2465 c-9 -11 -11 -36 -7 -86 7 -82 -5 -102 -69 -114 -22 -4
-45 -11 -51 -17 -39 -32 17 -88 86 -88 51 0 60 -17 39 -75 -13 -35 -14 -46 -2
-73 18 -43 44 -41 77 6 15 20 61 71 102 113 75 76 75 76 151 90 53 9 78 19 85
31 14 26 -24 38 -129 43 -77 4 -87 7 -116 34 -80 76 -92 89 -108 119 -19 35
-38 41 -58 17z"/>
<path d="M12430 2150 c-8 -5 -27 -10 -42 -10 -78 0 -246 -130 -288 -223 -11
-23 -38 -70 -59 -105 -22 -34 -52 -91 -68 -125 -15 -34 -37 -78 -50 -97 -13
-19 -23 -39 -23 -45 0 -6 -22 -37 -48 -68 -27 -32 -55 -69 -63 -83 -12 -23
-11 -27 6 -41 11 -8 31 -12 45 -9 61 12 121 32 195 66 55 26 121 45 212 63 87
17 143 33 163 47 16 11 51 27 78 35 107 32 247 189 255 285 3 48 -13 142 -33
179 -10 21 -31 46 -47 56 -15 10 -33 25 -38 33 -10 13 -133 52 -165 52 -8 0
-22 -5 -30 -10z m123 -80 c30 -11 63 -30 75 -43 26 -27 61 -104 62 -133 0 -45
-48 -131 -95 -170 -26 -22 -68 -58 -94 -80 -55 -49 -195 -99 -306 -110 -39 -3
-88 -14 -110 -24 -22 -10 -57 -23 -78 -29 -54 -14 -57 4 -15 92 19 40 41 90
48 112 7 22 33 63 57 92 24 28 48 67 54 85 10 39 57 90 114 126 22 13 49 33
61 43 22 21 115 56 151 58 12 0 46 -8 76 -19z"/>
<path d="M12391 1989 c-60 -36 -131 -101 -182 -166 -27 -34 -49 -67 -49 -72 0
-5 -10 -22 -23 -38 -35 -43 -68 -103 -62 -114 10 -15 42 -10 107 16 34 14 69
25 77 25 9 0 51 15 93 33 57 24 94 49 149 101 70 66 73 71 77 122 4 43 0 58
-18 83 -20 28 -26 31 -78 31 -40 0 -67 -6 -91 -21z"/>
<path d="M13385 2131 c-3 -6 -27 -7 -54 -4 -62 7 -148 -20 -179 -56 -30 -35
-92 -163 -99 -204 -13 -85 60 -196 176 -267 38 -22 77 -50 86 -60 10 -11 27
-20 38 -20 11 0 28 -6 36 -14 19 -17 75 -38 191 -73 77 -23 112 -35 220 -73
63 -22 84 -23 103 -2 17 18 16 21 -3 63 -11 24 -20 53 -20 64 0 39 -64 222
-86 246 -7 8 -19 31 -25 50 -16 46 -55 95 -163 202 -53 52 -106 94 -126 102
-19 6 -35 18 -35 25 0 7 -9 16 -20 21 -27 11 -33 10 -40 0z m28 -73 c32 -12
76 -37 95 -55 20 -19 42 -38 50 -42 8 -4 42 -41 77 -81 47 -54 75 -100 112
-184 64 -142 76 -174 77 -211 l1 -30 -58 3 c-36 2 -71 11 -93 24 -19 11 -51
24 -72 30 -76 19 -99 27 -197 68 -55 22 -103 47 -107 53 -4 7 -8 8 -8 2 0 -18
-132 120 -147 153 -19 45 -9 105 27 167 24 40 41 55 102 86 40 21 75 38 77 38
2 1 31 -9 64 -21z"/>
<path d="M13284 1976 c-32 -14 -74 -60 -74 -81 0 -27 41 -102 72 -132 45 -42
107 -83 128 -83 20 0 246 -113 270 -135 9 -8 24 -15 33 -15 29 0 20 45 -18 92
-19 24 -43 59 -54 79 -11 19 -27 41 -35 48 -9 8 -16 20 -16 27 0 19 -136 161
-182 190 -42 27 -78 30 -124 10z"/>
<path d="M12896 1852 c-3 -5 -10 -38 -16 -75 -6 -37 -15 -79 -21 -94 -14 -37
-66 -91 -104 -108 -66 -28 -92 -76 -60 -109 11 -11 23 -13 43 -6 15 5 51 11
79 15 51 5 53 5 58 -22 4 -15 10 -38 15 -50 20 -48 89 -9 76 43 -8 29 15 64
42 64 13 0 70 -35 82 -51 12 -16 53 -30 70 -24 20 6 27 39 12 61 -4 7 -29 24
-57 38 -60 32 -81 51 -110 97 -35 55 -75 161 -72 194 1 20 -3 30 -15 33 -9 2
-19 -1 -22 -6z"/>
<path d="M4118 2468 c-8 -24 10 -89 31 -112 39 -42 21 -69 -62 -96 -21 -6 -45
-23 -54 -37 -16 -25 -16 -26 6 -44 14 -11 39 -19 62 -19 50 0 58 -18 30 -63
-38 -63 -22 -147 29 -147 27 0 78 47 117 107 22 35 40 53 53 53 11 0 28 9 38
21 25 30 78 49 138 49 45 0 54 3 54 18 0 17 -77 60 -140 78 -14 4 -39 17 -55
30 -17 12 -42 27 -57 33 -15 6 -39 28 -52 50 -14 22 -45 51 -69 65 -49 29 -63
32 -69 14z"/>
<path d="M10962 2468 c-7 -7 -12 -25 -12 -41 0 -16 -7 -35 -15 -43 -8 -9 -15
-24 -15 -35 0 -11 -7 -22 -15 -25 -8 -4 -15 -12 -15 -19 0 -25 -57 -73 -99
-85 -23 -6 -51 -20 -62 -31 -20 -20 -20 -21 -2 -34 10 -8 26 -15 36 -15 20 0
184 -83 204 -103 7 -7 19 -30 26 -52 16 -47 42 -55 82 -29 24 16 26 23 22 57
-3 21 -14 49 -25 60 -27 30 -44 66 -37 77 3 5 22 12 43 16 20 3 48 14 62 24
14 9 35 20 47 24 31 10 36 34 10 50 -12 8 -50 18 -83 22 l-62 6 -4 80 c-3 65
-7 82 -23 94 -23 17 -47 18 -63 2z"/>
<path d="M5683 2416 c-84 -86 -149 -134 -199 -147 -27 -8 -34 -15 -34 -35 0
-31 30 -44 104 -41 56 2 56 2 103 -52 27 -30 53 -68 59 -85 14 -40 57 -66 81
-50 22 14 22 64 2 112 -19 44 -7 60 74 100 55 28 67 38 67 58 0 18 -5 24 -21
24 -28 0 -100 21 -117 33 -10 8 -9 15 3 34 10 15 15 41 13 71 -3 44 -5 47 -32
50 -24 3 -40 -8 -103 -72z"/>
<path d="M9320 2428 c-26 -43 -25 -63 5 -122 29 -56 24 -68 -33 -87 -54 -17
-82 -37 -82 -59 0 -19 18 -27 108 -45 43 -9 46 -47 10 -116 -33 -63 -8 -92 56
-65 27 11 36 21 36 39 0 33 46 73 158 138 53 30 97 62 97 69 0 7 -18 19 -40
27 -22 7 -51 18 -65 25 -40 19 -140 120 -140 142 0 28 -48 86 -71 86 -11 0
-28 -14 -39 -32z"/>
<path d="M4716 2049 c-29 -23 -34 -56 -11 -65 26 -10 64 5 82 32 16 25 16 27
-2 40 -25 19 -38 18 -69 -7z"/>
<path d="M4615 1942 c-24 -17 -65 -74 -59 -83 3 -5 18 -9 34 -9 34 0 73 43 68
74 -3 22 -26 31 -43 18z"/>
<path d="M4445 1786 c-14 -14 -25 -34 -25 -46 0 -16 6 -20 33 -20 18 0 38 5
45 12 19 19 14 56 -8 68 -17 9 -25 6 -45 -14z"/>
<path d="M4291 1646 c-48 -51 1 -88 59 -44 40 29 38 62 -5 66 -22 2 -37 -4
-54 -22z"/>
<path d="M4145 1505 c-29 -28 -31 -38 -11 -54 36 -30 106 28 76 64 -18 21 -37
19 -65 -10z"/>
<path d="M4008 1395 c-9 -21 -9 -29 4 -41 32 -32 87 17 58 51 -19 23 -49 18
-62 -10z"/>
<path d="M9952 2028 c-22 -28 -18 -52 12 -62 24 -9 31 -7 47 13 14 17 16 27 9
42 -12 21 -52 25 -68 7z"/>
<path d="M9826 1924 c-24 -23 -20 -53 9 -66 30 -13 55 3 55 36 0 42 -36 59
-64 30z"/>
<path d="M9713 1830 c-30 -12 -56 -63 -40 -79 29 -29 90 12 85 58 -3 28 -14
33 -45 21z"/>
<path d="M9540 1690 c-28 -28 -26 -58 5 -66 45 -11 84 43 53 74 -17 17 -35 15
-58 -8z"/>
<path d="M9400 1568 c-38 -41 -19 -77 35 -64 29 7 44 49 25 71 -17 21 -36 19
-60 -7z"/>
<path d="M9260 1435 c-17 -18 -21 -28 -13 -36 22 -22 99 16 90 45 -7 22 -52
18 -77 -9z"/>
<path d="M9122 1339 c-18 -7 -22 -14 -16 -31 15 -50 39 -61 67 -30 22 25 21
49 -2 62 -23 12 -19 12 -49 -1z"/>
<path d="M4951 1842 c-6 -11 -15 -41 -21 -67 -10 -44 -49 -113 -85 -149 -12
-11 -28 -14 -65 -9 -46 5 -50 4 -61 -20 -10 -22 -8 -30 10 -55 23 -34 79 -57
111 -47 38 12 57 -4 85 -73 34 -80 42 -92 65 -92 23 0 39 21 72 94 28 64 41
71 93 53 24 -8 105 45 105 68 0 22 -31 47 -53 41 -12 -3 -27 4 -43 21 -17 18
-31 24 -48 21 -18 -4 -30 2 -44 22 -28 37 -55 118 -56 165 -1 36 -4 40 -28 43
-18 2 -30 -3 -37 -16z"/>
<path d="M10135 1754 c-23 -80 -93 -150 -165 -166 -17 -3 -50 -36 -50 -49 0
-27 137 -46 167 -24 10 8 20 14 23 15 3 0 5 -29 6 -64 1 -80 21 -116 64 -116
20 0 35 9 49 28 12 15 25 32 31 39 15 18 13 46 -2 37 -7 -4 -3 4 9 16 18 19
34 24 85 26 78 3 136 13 144 25 3 5 2 18 -1 29 -5 16 -15 20 -46 20 -69 0
-101 22 -190 128 -46 55 -89 103 -96 106 -8 3 -18 -15 -28 -50z"/>
<path d="M15073 143 c-35 -14 19 -103 62 -103 43 0 62 48 34 84 -20 25 -62 33
-96 19z"/>
<path d="M121 114 c-26 -33 -26 -39 0 -65 13 -13 30 -19 47 -17 22 2 28 9 30
35 7 69 -39 96 -77 47z"/>
</g>
</svg>
