<?xml version="1.0" standalone="no"?>
<!DOCTYPE svg PUBLIC "-//W3C//DTD SVG 20010904//EN"
 "http://www.w3.org/TR/2001/REC-SVG-20010904/DTD/svg10.dtd">
<svg version="1.0" xmlns="http://www.w3.org/2000/svg"
 width="1827.000000pt" height="481.000000pt" viewBox="0 0 1827.000000 481.000000"
 preserveAspectRatio="xMidYMid meet">
<metadata>
Created by potrace 1.13, written by Peter Selinger 2001-2015
</metadata>
<g transform="translate(0.000000,481.000000) scale(0.100000,-0.100000)"
fill="#000000" stroke="none">
<path d="M206 4686 c-9 -77 -7 -144 4 -151 6 -3 10 -22 10 -41 0 -19 5 -34 10
-34 6 0 10 -8 10 -17 0 -22 18 -78 41 -129 11 -23 19 -49 19 -58 0 -9 4 -16 8
-16 15 0 82 -70 82 -85 0 -8 7 -15 14 -15 8 0 27 -11 42 -25 15 -14 33 -25 40
-25 7 0 14 -5 16 -10 2 -6 19 -11 38 -13 51 -3 64 -20 54 -65 -11 -44 -12
-315 -2 -355 4 -15 3 -40 -2 -55 -6 -15 -12 -330 -15 -702 -2 -371 -7 -805
-10 -965 -3 -217 -13 -880 -16 -1105 0 -8 3 -38 7 -67 6 -47 4 -54 -19 -77
-22 -22 -35 -26 -85 -26 -67 0 -120 -15 -143 -41 -8 -10 -27 -21 -42 -24 -15
-4 -27 -12 -27 -19 0 -6 -13 -19 -28 -30 -16 -10 -34 -32 -42 -49 -7 -16 -21
-32 -31 -34 -11 -3 -19 -13 -19 -22 0 -9 -9 -34 -20 -56 -11 -22 -20 -52 -20
-67 0 -15 -4 -28 -10 -28 -6 0 -10 -45 -10 -115 l0 -115 38 0 c66 0 217 31
225 46 4 8 19 14 32 14 15 0 25 6 25 14 0 8 13 26 30 39 17 14 30 29 30 34 0
4 13 14 30 21 16 8 30 20 30 28 0 7 11 16 24 20 17 4 27 15 31 35 4 16 13 29
21 29 9 0 14 10 14 28 0 16 7 37 15 48 8 10 15 40 15 65 0 53 8 59 76 59 25 0
44 5 44 11 0 8 485 9 1728 4 950 -4 1766 -7 1815 -6 48 1 93 -1 100 -6 15 -9
115 -5 182 8 34 6 71 6 115 -2 75 -12 161 -12 174 1 9 9 136 2 148 -9 4 -3 67
-4 140 -1 73 3 136 1 139 -4 4 -5 21 -4 40 1 19 6 102 8 184 6 231 -5 264 -5
358 0 58 4 87 2 87 -5 0 -8 27 -8 88 -3 48 5 103 8 122 7 128 -6 194 -4 198 6
5 15 49 16 54 1 5 -16 812 -23 838 -7 15 10 27 10 53 0 43 -16 214 -16 219 -1
3 9 24 9 83 1 118 -15 535 -17 535 -1 0 9 14 10 53 4 68 -10 1786 -10 1855 0
38 6 52 5 52 -4 0 -16 417 -14 535 1 59 8 80 8 83 -1 5 -15 176 -15 219 1 26
10 38 10 53 0 26 -16 833 -9 838 7 5 15 49 14 54 -1 4 -10 70 -12 198 -6 19 1
74 -2 123 -7 60 -5 87 -5 87 3 0 7 29 9 88 5 93 -5 126 -5 357 0 83 2 165 0
184 -6 19 -5 36 -6 40 -1 3 5 66 7 139 4 73 -3 136 -2 140 1 12 11 139 18 148
9 13 -13 99 -13 174 -1 44 8 81 8 115 2 67 -13 167 -17 182 -8 7 5 52 7 100 6
49 -1 865 2 1816 6 1242 5 1727 4 1727 -4 0 -6 19 -11 44 -11 68 0 76 -6 76
-59 0 -25 7 -55 15 -65 8 -11 15 -32 15 -48 0 -18 5 -28 14 -28 8 0 17 -13 21
-29 4 -20 14 -31 31 -35 13 -4 24 -13 24 -20 0 -8 13 -20 30 -28 17 -7 30 -17
30 -21 0 -5 14 -20 30 -34 17 -13 30 -31 30 -39 0 -8 10 -14 25 -14 13 0 28
-6 32 -14 8 -15 159 -46 226 -46 l37 0 0 115 c0 70 -4 115 -10 115 -5 0 -10
13 -10 28 0 15 -9 45 -20 67 -11 22 -20 47 -20 56 0 9 -8 19 -19 22 -10 2 -24
18 -31 34 -8 17 -26 39 -42 49 -15 11 -28 24 -28 30 0 7 -12 15 -27 19 -15 3
-34 14 -42 24 -23 26 -76 41 -143 41 -50 0 -63 4 -85 26 -23 23 -25 30 -19 77
4 29 7 59 7 67 -3 225 -13 888 -16 1105 -3 160 -8 594 -10 965 -3 372 -9 687
-15 702 -5 15 -6 40 -2 55 10 40 9 311 -2 355 -10 45 3 62 54 65 19 2 36 7 38
13 2 5 9 10 16 10 7 0 25 11 40 25 15 14 34 25 42 25 7 0 14 7 14 15 0 15 67
85 82 85 4 0 8 7 8 16 0 9 8 35 19 58 23 51 41 107 41 129 0 9 5 17 10 17 6 0
10 15 10 34 0 19 5 38 10 41 11 7 13 74 4 151 -6 48 -8 52 -33 50 -14 0 -35
-9 -45 -18 -11 -10 -34 -18 -51 -18 -17 0 -41 -9 -53 -20 -12 -11 -30 -20 -42
-20 -11 0 -20 -4 -20 -9 0 -6 -13 -18 -30 -28 -16 -9 -30 -23 -30 -29 0 -6
-14 -14 -30 -18 -17 -3 -30 -10 -30 -16 0 -12 -10 -25 -62 -82 -22 -23 -38
-51 -38 -64 0 -13 -9 -33 -20 -44 -11 -11 -20 -31 -20 -44 0 -13 -7 -29 -15
-36 -19 -16 -19 -86 0 -124 8 -15 15 -35 15 -42 0 -15 14 -15 -665 -14 -496 2
-14994 2 -15490 0 -679 -1 -665 -1 -665 14 0 7 7 27 15 42 19 38 19 108 0 124
-8 7 -15 23 -15 36 0 13 -9 33 -20 44 -11 11 -20 31 -20 44 0 13 -16 41 -37
64 -53 57 -63 70 -63 82 0 6 -13 13 -30 17 -16 3 -30 11 -30 17 0 6 -13 20
-30 29 -16 10 -30 22 -30 28 0 5 -9 9 -20 9 -12 0 -30 9 -42 20 -12 11 -36 20
-53 20 -17 0 -40 8 -51 18 -10 9 -31 18 -45 18 -25 2 -27 -2 -33 -50z m128
-35 c3 -5 17 -12 31 -15 14 -4 34 -14 45 -24 11 -9 29 -25 40 -34 11 -10 23
-18 28 -18 4 0 15 -9 25 -20 9 -11 23 -20 31 -20 8 0 20 -16 26 -36 7 -19 18
-38 26 -41 8 -3 14 -11 14 -19 0 -8 5 -14 10 -14 6 0 10 -10 10 -23 0 -13 4
-27 9 -32 6 -6 13 -41 17 -78 7 -71 -6 -117 -33 -117 -7 0 -13 -4 -13 -10 0
-15 -54 -12 -76 5 -10 8 -34 15 -51 15 -20 0 -33 5 -33 13 0 7 -9 19 -20 27
-11 8 -20 22 -20 31 0 9 -7 19 -15 23 -8 3 -15 12 -15 21 0 8 -7 15 -15 15
-11 0 -15 11 -15 40 0 26 -5 40 -13 40 -25 0 -65 199 -51 255 4 18 13 25 29
25 13 0 26 -4 29 -9z m17630 -16 c14 -56 -26 -255 -51 -255 -8 0 -13 -14 -13
-40 0 -29 -4 -40 -15 -40 -8 0 -15 -7 -15 -15 0 -9 -7 -18 -15 -21 -8 -4 -15
-14 -15 -23 0 -9 -9 -23 -20 -31 -11 -8 -20 -20 -20 -27 0 -8 -13 -13 -32 -13
-18 0 -42 -7 -52 -15 -22 -17 -76 -20 -76 -5 0 6 -6 10 -13 10 -27 0 -40 46
-33 117 4 37 11 72 17 78 5 5 9 19 9 32 0 13 5 23 10 23 6 0 10 6 10 14 0 8 6
16 14 19 8 3 19 22 26 41 6 20 18 36 26 36 8 0 22 9 31 20 10 11 21 20 25 20
5 0 17 8 28 18 11 9 29 25 40 34 11 10 31 20 45 24 14 3 28 10 31 15 3 5 16 9
29 9 16 0 25 -7 29 -25z m-15511 -602 c31 -4 51 -2 56 5 5 8 27 8 81 0 53 -8
91 -8 130 -1 30 6 89 9 130 7 124 -6 451 -5 462 2 6 4 13 2 17 -4 7 -12 250
-22 257 -10 7 11 381 10 388 -1 3 -4 25 -6 48 -4 24 3 115 6 204 7 88 2 166 6
173 10 7 5 21 0 32 -10 17 -15 24 -16 39 -6 25 15 208 16 247 1 19 -7 29 -7
31 0 5 15 79 14 84 -1 3 -7 9 -8 18 -3 16 10 253 14 755 15 659 0 870 1 1142
3 150 1 273 -1 273 -5 0 -5 7 -8 15 -8 8 0 15 3 15 8 0 4 932 7 2070 7 1139 0
2070 -3 2070 -7 0 -5 7 -8 15 -8 8 0 15 3 15 8 0 4 123 6 273 5 272 -2 483 -3
1142 -3 502 -1 739 -5 755 -15 9 -5 15 -4 18 3 5 15 79 16 84 1 2 -7 12 -7 31
0 39 15 222 14 247 -1 15 -10 22 -9 39 6 11 10 25 15 32 10 7 -4 85 -8 173
-10 89 -1 180 -4 204 -7 23 -2 45 0 48 4 7 11 381 12 388 1 7 -12 250 -2 257
10 4 6 11 8 17 4 11 -7 338 -8 462 -2 41 2 100 -1 130 -7 39 -7 77 -7 130 1
54 8 76 8 81 0 5 -7 25 -9 61 -4 75 10 302 7 306 -5 5 -13 40 -11 44 2 2 7 24
8 70 2 38 -6 100 -6 145 -1 43 5 157 6 253 3 96 -4 207 -5 245 -4 39 2 86 3
105 2 344 -8 540 -9 540 -2 0 5 9 9 20 9 11 0 20 -6 20 -14 0 -8 4 -16 9 -18
5 -1 11 -225 14 -497 4 -340 10 -496 17 -501 8 -5 9 -65 4 -202 -5 -145 -3
-201 6 -218 7 -13 8 -25 3 -29 -5 -3 -8 -92 -6 -206 2 -110 3 -209 3 -220 0
-258 2 -401 5 -405 2 -4 0 -49 -6 -100 -7 -73 -6 -95 3 -102 10 -6 10 -10 -1
-17 -7 -5 -11 -13 -7 -19 5 -9 12 -706 7 -822 -1 -28 -6 -37 -28 -47 -21 -8
-426 -11 -1558 -12 -984 -1 -1543 -5 -1565 -11 -23 -7 -36 -7 -38 0 -5 15
-639 14 -644 -2 -3 -8 -24 -8 -84 1 -57 8 -250 10 -704 7 -344 -3 -654 -4
-690 -4 -36 1 -76 1 -90 1 -32 -1 -462 -2 -515 -1 -22 0 -124 -3 -227 -7 -139
-6 -188 -5 -188 4 0 6 -17 11 -40 11 -22 0 -40 -5 -40 -11 0 -6 -11 -8 -28 -5
-52 12 -522 15 -522 4 0 -6 -12 -8 -32 -3 -58 12 -372 16 -378 4 -5 -7 -55 -7
-161 0 -99 7 -157 7 -163 1 -15 -15 -593 -13 -598 2 -3 9 -19 9 -70 0 -36 -7
-85 -12 -108 -12 -23 0 -72 5 -108 12 -51 9 -67 9 -70 0 -5 -15 -583 -17 -598
-2 -6 6 -64 6 -163 -1 -106 -7 -156 -7 -161 0 -6 12 -320 8 -377 -4 -21 -5
-33 -3 -33 3 0 11 -470 8 -522 -4 -17 -3 -28 -1 -28 5 0 6 -18 11 -40 11 -23
0 -40 -5 -40 -11 0 -9 -49 -10 -187 -4 -104 4 -206 7 -228 7 -53 -1 -483 0
-515 1 -14 0 -54 0 -90 -1 -36 0 -346 1 -690 4 -454 3 -647 1 -704 -7 -60 -9
-81 -9 -84 -1 -5 16 -639 17 -644 2 -2 -7 -15 -7 -38 0 -22 6 -581 10 -1565
11 -1132 1 -1537 4 -1557 12 -23 10 -28 19 -29 47 -5 116 2 813 7 822 4 6 0
14 -7 19 -11 7 -11 11 -1 17 9 7 10 29 3 102 -6 51 -8 96 -6 100 3 4 5 147 5
405 0 11 1 110 3 220 2 114 -1 203 -6 206 -5 4 -4 16 3 29 9 17 11 73 6 218
-5 137 -4 197 4 202 7 5 13 161 17 501 3 272 9 496 14 497 5 2 9 10 9 18 0 8
9 14 20 14 11 0 20 -4 20 -9 0 -7 196 -6 540 2 19 1 67 0 105 -2 39 -1 149 0
245 4 96 3 210 2 253 -3 45 -5 107 -5 145 1 46 6 68 5 70 -2 5 -14 42 -15 42
-1 0 9 217 20 250 12 8 -2 37 -6 63 -9z m-2013 -3482 c3 -5 22 -11 43 -15 l37
-7 0 -59 c0 -33 -4 -60 -9 -60 -5 0 -12 -13 -16 -28 -6 -29 -45 -81 -97 -129
-7 -7 -26 -26 -43 -43 -16 -16 -35 -30 -40 -30 -6 0 -27 -11 -47 -25 -20 -14
-48 -25 -60 -25 -13 0 -29 -5 -35 -11 -7 -7 -18 -9 -26 -6 -11 4 -13 24 -9 94
2 48 8 90 13 91 5 2 9 19 9 38 0 25 9 43 35 70 19 19 35 42 35 50 0 8 7 14 15
14 8 0 20 9 27 20 7 11 18 20 25 20 7 0 13 7 13 15 0 10 11 15 35 15 25 0 35
4 35 16 0 13 6 15 27 9 15 -3 30 -10 33 -14z m17420 4 c0 -10 11 -15 35 -15
24 0 35 -5 35 -15 0 -8 6 -15 13 -15 7 0 18 -9 25 -20 7 -11 19 -20 27 -20 8
0 15 -6 15 -14 0 -8 16 -31 35 -50 26 -27 35 -45 35 -70 0 -19 4 -36 9 -38 5
-1 11 -43 13 -91 4 -70 2 -90 -9 -94 -8 -3 -19 -1 -26 6 -6 6 -22 11 -35 11
-12 0 -40 11 -60 25 -20 14 -41 25 -47 25 -5 0 -23 14 -40 30 -16 17 -36 36
-43 43 -52 48 -91 100 -97 129 -4 15 -11 28 -16 28 -5 0 -9 27 -9 60 l0 60 40
6 c22 4 40 10 40 15 0 7 21 15 48 18 6 0 12 -6 12 -14z"/>
<path d="M980 3798 c0 -5 -7 -8 -15 -8 -8 0 -17 -11 -21 -25 -3 -14 -10 -25
-15 -25 -5 0 -9 -38 -9 -85 0 -50 4 -85 10 -85 6 0 10 -13 10 -30 0 -16 -4
-30 -10 -30 -16 0 -13 -217 3 -223 9 -4 9 -7 -1 -15 -11 -7 -13 -207 -14
-1107 0 -742 4 -1100 11 -1104 7 -5 6 -29 -2 -75 -9 -55 -9 -70 1 -74 6 -2 12
-10 12 -18 0 -18 51 -19 68 -2 16 16 1200 23 1265 8 23 -5 45 -7 49 -4 14 9
268 12 268 3 0 -5 7 -9 15 -9 8 0 15 3 15 8 0 4 119 9 265 10 237 3 269 2 292
-13 19 -13 36 -15 67 -10 22 4 65 9 95 11 29 1 59 5 65 7 7 3 41 -2 76 -10 48
-11 74 -12 105 -4 64 16 125 22 125 12 0 -5 23 -11 50 -13 29 -2 50 1 50 7 0
6 27 12 60 13 38 2 60 -1 60 -7 0 -13 86 -15 94 -2 8 12 90 10 98 -2 5 -8 29
-8 85 0 46 7 82 8 89 2 20 -16 954 -14 965 3 3 5 18 4 35 -4 22 -9 352 -13
1459 -16 787 -2 1583 -6 1770 -8 430 -5 760 -5 1190 0 187 2 984 6 1770 8
1107 3 1437 7 1459 16 17 8 32 9 35 4 11 -17 945 -19 965 -3 7 6 43 5 89 -2
56 -8 80 -8 85 0 8 12 90 14 98 2 8 -13 94 -11 94 2 0 6 22 9 60 7 33 -1 60
-7 60 -13 0 -6 21 -9 50 -7 27 2 50 8 50 13 0 10 61 4 125 -12 31 -8 57 -7
105 4 35 8 69 13 76 10 6 -2 36 -6 65 -7 30 -2 73 -7 95 -11 31 -5 48 -3 67
10 23 15 55 16 292 13 146 -1 265 -6 265 -10 0 -5 7 -8 15 -8 8 0 15 4 15 9 0
9 254 6 268 -3 4 -3 26 -1 49 4 65 15 1249 8 1265 -7 17 -18 68 -17 68 1 0 8
6 16 12 18 10 4 10 19 1 74 -8 46 -9 70 -2 75 7 4 11 362 11 1104 -1 900 -3
1100 -14 1107 -10 8 -10 11 -1 15 16 6 19 223 3 223 -5 0 -10 14 -10 30 0 17
5 30 10 30 6 0 10 35 10 85 0 47 -4 85 -9 85 -5 0 -12 11 -15 25 -4 14 -13 25
-21 25 -8 0 -15 3 -15 8 0 8 -489 6 -498 -2 -8 -9 -72 -7 -72 2 0 4 -176 7
-390 7 -215 0 -390 -3 -390 -7 0 -5 -16 -8 -36 -8 -24 0 -33 4 -28 11 5 9 -1
10 -22 4 -61 -15 -139 -22 -151 -13 -14 11 -775 20 -783 9 -3 -4 -17 -11 -32
-15 -21 -5 -28 -3 -28 8 0 11 -18 13 -88 12 -48 0 -89 -4 -92 -8 -6 -8 -200
-16 -200 -8 0 3 -20 4 -46 2 -25 -2 -66 1 -91 7 -35 9 -48 9 -53 1 -9 -14
-150 -16 -159 -3 -9 13 -113 15 -121 3 -6 -10 -39 -11 -352 -11 -65 0 -98 4
-98 11 0 14 -132 6 -174 -9 -16 -7 -34 -7 -44 -2 -29 14 -81 21 -87 11 -7 -12
-155 -14 -155 -2 0 10 -174 11 -180 1 -3 -5 -138 -9 -300 -9 -162 1 -316 0
-342 0 -33 -1 -48 3 -48 12 0 10 -2 10 -8 0 -5 -8 -30 -12 -68 -12 -32 1 -75
1 -94 1 -62 1 -924 2 -950 1 -379 -5 -1201 -4 -1206 1 -10 9 -74 9 -74 0 0 -5
-306 -8 -680 -8 -374 0 -680 3 -680 8 0 9 -64 9 -74 0 -5 -5 -827 -6 -1206 -1
-26 1 -888 0 -950 -1 -19 0 -62 0 -94 -1 -38 0 -63 4 -68 12 -6 10 -8 10 -8 0
0 -9 -15 -13 -47 -12 -27 0 -181 1 -343 0 -162 0 -297 4 -300 9 -6 10 -180 9
-180 -1 0 -12 -148 -10 -155 2 -6 10 -58 3 -87 -11 -10 -5 -28 -5 -44 2 -42
15 -174 23 -174 9 0 -7 -33 -11 -97 -11 -314 0 -347 1 -353 11 -8 12 -112 10
-121 -3 -9 -13 -150 -11 -159 3 -5 8 -18 8 -53 -1 -25 -6 -66 -9 -91 -7 -26 2
-46 1 -46 -2 0 -8 -194 0 -200 8 -3 4 -44 8 -92 8 -70 1 -88 -1 -88 -12 0 -11
-7 -13 -27 -8 -16 4 -30 11 -33 15 -8 11 -769 2 -783 -9 -12 -9 -90 -2 -151
13 -21 6 -27 5 -22 -4 5 -7 -4 -11 -28 -11 -20 0 -36 3 -36 8 0 4 -175 7 -390
7 -214 0 -390 -3 -390 -7 0 -9 -64 -11 -72 -2 -9 8 -498 10 -498 2z m1090 -70
c80 -1 276 0 435 1 160 0 319 -3 355 -8 36 -4 79 -7 95 -5 165 18 169 18 162
0 -4 -10 -7 -21 -7 -26 0 -5 -19 -11 -42 -15 -24 -4 -46 -12 -50 -18 -4 -6
-23 -11 -42 -11 -20 0 -36 -4 -36 -8 0 -4 -7 -8 -15 -8 -8 0 -15 -4 -15 -9 0
-5 -24 -11 -53 -13 -33 -3 -65 -13 -84 -26 -16 -11 -50 -26 -76 -33 -25 -6
-52 -17 -58 -25 -6 -8 -20 -14 -31 -14 -11 0 -27 -4 -37 -9 -10 -6 -71 -11
-137 -13 -111 -2 -122 -1 -143 19 -13 12 -37 25 -52 28 -16 4 -29 11 -29 16 0
5 -7 9 -15 9 -8 0 -15 6 -15 13 -1 20 -37 57 -55 57 -15 0 -17 -6 -12 -36 7
-45 -21 -164 -39 -164 -8 0 -16 -11 -20 -24 -3 -13 -16 -28 -30 -35 -13 -6
-24 -15 -24 -21 0 -21 -32 -43 -61 -43 -16 0 -29 -5 -29 -11 0 -6 -14 -12 -30
-13 -17 -1 -30 2 -30 7 0 6 5 10 10 10 6 0 10 33 10 80 0 44 -4 80 -9 80 -5 0
-12 11 -15 25 -4 14 -12 25 -20 25 -8 0 -13 12 -13 32 0 18 -5 34 -11 36 -7 2
-12 10 -12 18 0 8 -4 14 -10 14 -5 0 -10 7 -10 15 0 8 -7 15 -15 15 -8 0 -15
5 -15 10 0 6 -5 10 -11 10 -18 0 -46 33 -31 38 6 2 12 10 12 17 0 11 11 13 48
9 26 -3 58 -1 72 5 14 5 41 8 60 5 19 -3 100 -5 180 -6z m13886 3 c209 0 395
0 414 -1 139 -3 160 -5 160 -16 0 -7 6 -14 12 -16 15 -5 -13 -38 -31 -38 -6 0
-11 -4 -11 -10 0 -5 -7 -10 -15 -10 -8 0 -15 -7 -15 -15 0 -8 -4 -15 -10 -15
-5 0 -10 -6 -10 -14 0 -8 -5 -16 -12 -18 -6 -2 -11 -18 -11 -36 0 -20 -5 -32
-13 -32 -8 0 -16 -11 -20 -25 -3 -14 -10 -25 -15 -25 -5 0 -9 -36 -9 -80 0
-47 4 -80 10 -80 6 0 10 -4 10 -10 0 -5 -13 -8 -30 -7 -16 1 -30 7 -30 13 0 6
-13 11 -29 11 -29 0 -61 22 -61 43 0 6 -11 15 -24 21 -14 7 -27 22 -30 35 -4
13 -12 24 -20 24 -18 0 -46 119 -39 164 5 30 3 36 -12 36 -18 0 -54 -37 -55
-57 0 -7 -7 -13 -15 -13 -8 0 -15 -4 -15 -9 0 -5 -13 -12 -29 -16 -15 -3 -39
-16 -52 -28 -21 -20 -32 -21 -143 -19 -66 2 -127 7 -137 13 -10 5 -26 9 -37 9
-11 0 -25 6 -31 14 -6 8 -33 19 -58 25 -26 7 -60 22 -76 33 -19 13 -51 23 -84
26 -29 2 -53 8 -53 13 0 5 -7 9 -15 9 -8 0 -15 4 -15 8 0 4 -16 8 -36 8 -19 0
-38 5 -42 11 -4 6 -26 14 -49 18 -24 4 -43 10 -43 15 0 5 -3 16 -7 26 -7 18 1
18 159 0 14 -1 77 3 140 10 62 6 123 10 134 8 12 -2 192 -3 400 -3z m-12216
-31 c0 -6 47 -10 120 -10 73 0 120 -4 120 -10 0 -6 29 -10 66 -10 76 0 194
-19 194 -32 0 -4 23 -8 50 -8 28 0 50 -4 50 -8 0 -4 35 -14 78 -21 42 -7 85
-17 94 -22 10 -5 29 -9 43 -9 14 0 25 -4 25 -8 0 -10 56 -28 113 -37 23 -4 37
-11 37 -20 0 -8 7 -15 15 -15 8 0 15 -4 15 -9 0 -5 9 -7 20 -4 10 3 26 -2 35
-11 9 -9 25 -16 36 -16 10 0 19 -4 19 -10 0 -5 5 -10 11 -10 6 0 17 -7 25 -15
9 -8 27 -18 42 -21 46 -11 101 -38 102 -51 0 -7 8 -13 19 -13 10 0 30 -9 44
-20 14 -11 32 -20 41 -20 14 0 37 -15 71 -47 8 -7 16 -13 20 -13 10 0 35 -27
35 -38 0 -6 14 -13 31 -17 17 -4 43 -18 57 -31 85 -75 108 -94 120 -94 6 0 12
-6 12 -12 0 -16 52 -78 65 -78 12 0 55 -41 55 -53 0 -5 11 -18 25 -29 14 -11
25 -26 25 -34 0 -8 7 -14 15 -14 9 0 18 -7 21 -15 4 -8 12 -15 19 -15 7 0 16
-13 20 -30 4 -16 11 -30 17 -30 15 0 38 -27 38 -44 0 -9 4 -16 9 -16 5 0 12
-8 15 -18 3 -10 24 -37 45 -60 22 -23 45 -55 53 -72 7 -16 19 -30 25 -30 7 0
13 -9 13 -20 0 -11 4 -20 8 -20 9 0 52 -80 52 -97 0 -5 8 -18 18 -29 25 -29
49 -75 57 -111 3 -18 11 -33 16 -33 5 0 9 -7 9 -15 0 -8 9 -24 20 -35 11 -11
20 -33 20 -50 0 -16 4 -30 10 -30 5 0 7 -7 4 -15 -4 -8 -2 -15 4 -15 6 0 13
-23 17 -50 4 -28 12 -53 18 -58 27 -17 48 -72 41 -107 -4 -23 -2 -35 5 -35 6
0 11 -9 11 -20 0 -11 4 -20 8 -20 14 0 82 -308 82 -370 0 -25 5 -74 11 -110
13 -82 21 -258 14 -288 -5 -21 -10 -23 -73 -20 -54 2 -67 6 -70 21 -2 10 3 17
13 17 15 0 16 11 9 103 -3 56 -11 104 -15 105 -5 2 -9 35 -9 72 0 38 -4 72
-10 75 -5 3 -10 31 -10 61 0 36 -5 61 -15 70 -8 9 -15 26 -15 39 0 13 -4 27
-10 30 -5 3 -10 24 -10 45 0 52 -36 198 -53 219 -15 16 -24 52 -34 129 -3 23
-9 42 -14 42 -5 0 -9 7 -9 15 0 8 -4 15 -9 15 -5 0 -14 20 -20 45 -6 25 -15
45 -20 45 -4 0 -14 19 -22 43 -7 23 -26 52 -40 64 -15 13 -31 41 -37 66 -8 29
-20 48 -36 56 -15 9 -27 26 -31 47 -3 19 -10 34 -15 34 -6 0 -10 9 -10 19 0
10 -7 22 -16 25 -10 4 -13 13 -9 26 4 11 2 20 -4 20 -6 0 -11 4 -11 9 0 6 -20
30 -45 55 -25 26 -45 51 -45 56 0 6 -7 10 -15 10 -8 0 -15 6 -15 13 0 7 -9 18
-20 25 -11 7 -20 19 -20 27 0 8 -4 15 -10 15 -5 0 -10 6 -10 14 0 8 -10 18
-22 22 -26 8 -48 28 -48 43 0 6 -7 11 -15 11 -8 0 -15 7 -15 15 0 8 -5 15 -11
15 -11 0 -39 25 -39 35 0 10 -28 35 -39 35 -12 0 -61 44 -61 56 -1 13 -77 64
-95 64 -8 0 -15 9 -15 20 0 11 -8 24 -17 27 -10 4 -24 13 -31 20 -7 7 -19 13
-27 13 -7 0 -15 7 -19 15 -3 8 -11 15 -18 15 -8 0 -20 9 -28 20 -8 11 -26 20
-40 20 -15 0 -40 14 -61 34 -19 18 -49 37 -67 41 -18 3 -32 11 -32 16 0 5 -7
9 -15 9 -8 0 -15 4 -15 9 0 5 -20 14 -45 20 -25 6 -45 15 -45 20 0 5 -16 12
-35 15 -21 4 -35 13 -35 21 0 8 -12 17 -27 21 -16 3 -38 10 -51 15 -13 5 -33
9 -46 9 -13 0 -29 7 -36 15 -7 8 -19 15 -26 15 -8 0 -14 5 -14 11 0 8 -15 10
-43 7 -28 -3 -47 -1 -55 8 -7 8 -24 14 -37 14 -14 0 -25 4 -25 8 0 5 -43 15
-95 22 -52 7 -95 16 -95 20 0 3 -30 7 -66 8 -37 2 -76 8 -87 14 -16 8 -22 8
-25 -1 -5 -14 -32 -15 -32 0 0 6 -19 9 -47 8 -27 -2 -63 1 -80 5 -18 4 -33 4
-33 -1 0 -5 -83 -8 -185 -6 -161 3 -188 1 -202 -13 -9 -9 -26 -14 -40 -11 -12
2 -23 0 -23 -4 0 -5 -20 -6 -45 -2 -35 4 -50 2 -65 -12 -11 -10 -26 -15 -33
-12 -8 3 -23 0 -33 -8 -11 -7 -43 -16 -72 -19 -28 -3 -74 -9 -102 -12 -27 -3
-50 -10 -50 -15 0 -5 -16 -9 -35 -9 -22 0 -35 -5 -35 -13 0 -15 -56 -38 -76
-30 -8 3 -14 0 -14 -6 0 -6 -9 -11 -20 -11 -11 0 -20 -4 -20 -10 0 -5 -6 -10
-14 -10 -8 0 -18 -9 -21 -20 -3 -11 -12 -20 -19 -20 -7 0 -27 -7 -44 -16 -18
-8 -36 -13 -41 -10 -5 4 -16 -3 -24 -14 -7 -11 -28 -23 -46 -26 -18 -4 -47
-22 -65 -40 -18 -19 -43 -34 -55 -34 -22 0 -51 -21 -51 -37 0 -4 -18 -17 -40
-27 -22 -11 -40 -23 -40 -28 0 -4 -7 -8 -16 -8 -18 0 -44 -23 -44 -40 0 -6 -4
-8 -10 -5 -6 3 -10 -3 -10 -14 0 -14 -6 -21 -20 -21 -11 0 -23 -7 -26 -15 -4
-8 -10 -15 -16 -15 -10 0 -68 -51 -171 -152 -38 -38 -72 -68 -76 -68 -4 0 -14
-13 -23 -28 -9 -15 -37 -49 -62 -75 -25 -26 -46 -49 -46 -52 0 -4 -13 -20 -30
-38 -16 -18 -30 -40 -30 -49 0 -9 -9 -20 -20 -23 -11 -3 -20 -11 -20 -16 0 -9
-8 -21 -37 -54 -7 -7 -13 -22 -13 -32 0 -10 -14 -34 -30 -53 -17 -19 -33 -46
-37 -60 -3 -14 -14 -37 -24 -52 -11 -14 -19 -36 -19 -47 0 -12 -4 -21 -10 -21
-5 0 -12 -16 -16 -35 -3 -19 -10 -35 -15 -35 -5 0 -9 -7 -9 -15 0 -8 -4 -15
-9 -15 -5 0 -15 -22 -22 -50 -7 -27 -16 -50 -20 -50 -3 0 -12 -27 -19 -60 -7
-33 -17 -60 -21 -60 -5 0 -9 -15 -9 -34 0 -19 -7 -41 -15 -50 -8 -8 -15 -25
-15 -38 0 -13 -4 -28 -9 -33 -4 -6 -16 -62 -25 -125 -10 -63 -22 -125 -28
-136 -5 -12 -14 -68 -18 -125 -9 -114 -29 -292 -34 -296 -1 -2 -30 -6 -64 -9
l-62 -7 0 107 c0 71 4 106 11 106 6 0 9 6 6 13 -3 7 1 38 9 67 8 30 14 83 14
117 0 35 4 63 9 63 4 0 11 36 14 80 3 45 11 87 17 95 7 8 14 38 16 66 2 28 8
57 13 63 5 6 12 37 16 69 4 31 11 57 15 57 10 0 40 91 40 120 0 19 5 28 36 63
6 7 14 29 18 49 3 20 13 39 21 42 8 3 15 12 15 21 0 8 4 15 8 15 5 0 14 24 21
53 6 29 19 60 29 69 29 28 37 42 50 86 7 24 20 46 28 49 8 3 14 11 14 17 0 7
9 22 20 33 10 12 22 33 26 47 3 14 26 43 50 65 24 21 44 44 44 50 0 6 5 11 10
11 6 0 10 9 10 20 0 11 4 20 10 20 5 0 12 11 16 25 3 14 12 25 19 25 7 0 32
27 56 60 24 33 49 60 55 60 5 0 20 14 32 30 13 17 29 30 36 30 8 0 16 9 19 21
3 11 15 23 26 26 12 3 21 8 21 12 0 11 75 91 86 91 5 0 17 9 27 20 9 11 24 20
32 20 8 0 15 5 15 10 0 6 7 10 14 10 8 0 34 20 57 45 27 28 57 49 81 55 23 7
55 28 82 55 25 26 57 48 75 51 17 4 36 13 42 20 6 8 22 14 35 14 13 0 34 11
48 25 14 14 29 25 33 25 14 0 118 45 121 53 2 4 12 7 22 7 10 0 22 5 25 10 3
6 15 10 26 10 10 0 19 5 19 10 0 6 15 10 33 10 21 0 41 8 51 19 12 13 38 22
71 26 32 4 56 13 59 21 3 9 20 14 45 14 22 0 43 5 46 10 3 6 19 10 36 10 16 0
29 4 29 8 0 5 24 10 53 11 28 1 54 6 55 11 2 6 39 10 83 10 46 0 79 4 79 10 0
6 38 10 93 11 50 0 101 4 112 9 28 12 105 12 105 0z m10968 -6 c56 -3 102 -10
102 -15 0 -5 36 -9 79 -9 44 0 81 -4 83 -10 2 -5 27 -10 56 -11 28 -1 52 -6
52 -11 0 -4 13 -8 29 -8 17 0 33 -4 36 -10 3 -5 24 -10 46 -10 25 0 42 -5 45
-14 3 -8 27 -17 59 -21 33 -4 59 -13 71 -26 10 -11 30 -19 51 -19 18 0 33 -4
33 -10 0 -5 9 -10 19 -10 11 0 23 -4 26 -10 3 -5 15 -10 25 -10 10 0 20 -3 22
-7 3 -8 107 -53 121 -53 4 0 19 -11 33 -25 14 -14 35 -25 48 -25 13 0 29 -6
35 -14 6 -7 25 -16 42 -20 18 -3 50 -25 75 -51 27 -27 59 -48 82 -55 24 -6 54
-27 81 -55 23 -25 49 -45 57 -45 7 0 14 -4 14 -10 0 -5 7 -10 15 -10 8 0 23
-9 32 -20 10 -11 22 -20 27 -20 11 0 86 -80 86 -91 0 -4 9 -9 21 -12 11 -3 23
-15 26 -26 3 -12 11 -21 19 -21 7 0 23 -13 36 -30 12 -16 27 -30 32 -30 6 0
31 -27 55 -60 24 -33 49 -60 56 -60 7 0 16 -11 19 -25 4 -14 11 -25 16 -25 6
0 10 -9 10 -20 0 -11 5 -20 10 -20 6 0 10 -5 10 -11 0 -6 20 -29 44 -50 24
-22 47 -51 50 -65 4 -14 16 -35 26 -47 11 -11 20 -26 20 -33 0 -6 6 -14 14
-17 8 -3 21 -25 28 -49 13 -44 21 -58 50 -86 10 -9 23 -40 29 -69 7 -29 16
-53 21 -53 4 0 8 -7 8 -15 0 -9 7 -18 15 -21 8 -3 17 -22 21 -42 7 -34 12 -43
42 -77 6 -7 12 -23 12 -35 0 -29 30 -120 40 -120 4 0 11 -26 15 -57 4 -32 11
-63 16 -69 5 -6 11 -35 13 -63 2 -28 9 -58 16 -66 6 -8 14 -50 17 -95 3 -44
10 -80 14 -80 5 0 9 -28 9 -63 0 -34 6 -87 14 -117 8 -29 12 -60 9 -67 -3 -7
0 -13 6 -13 7 0 11 -35 11 -106 l0 -107 -62 7 c-34 3 -63 7 -64 9 -5 4 -25
182 -34 296 -4 57 -13 113 -18 125 -6 11 -18 73 -28 136 -9 63 -21 119 -25
125 -5 5 -9 20 -9 33 0 13 -7 30 -15 38 -8 9 -15 31 -15 50 0 19 -4 34 -9 34
-4 0 -14 27 -21 60 -7 33 -16 60 -19 60 -4 0 -13 23 -20 50 -7 28 -17 50 -22
50 -5 0 -9 7 -9 15 0 8 -4 15 -9 15 -5 0 -12 16 -15 35 -4 19 -11 35 -16 35
-6 0 -10 9 -10 21 0 11 -8 33 -19 47 -10 15 -21 38 -24 52 -4 14 -20 41 -37
60 -16 19 -30 43 -30 53 0 10 -6 25 -12 32 -30 33 -38 45 -38 54 0 5 -9 13
-20 16 -11 3 -20 14 -20 23 0 9 -14 31 -30 49 -17 18 -30 34 -30 38 0 3 -21
26 -46 52 -25 26 -53 60 -62 75 -9 15 -19 28 -23 28 -4 0 -38 30 -76 68 -103
101 -161 152 -171 152 -6 0 -12 7 -16 15 -3 8 -15 15 -26 15 -14 0 -20 7 -20
21 0 11 -4 17 -10 14 -5 -3 -10 -1 -10 5 0 17 -26 40 -44 40 -9 0 -16 4 -16 8
0 5 -18 17 -40 28 -22 10 -40 23 -40 27 0 16 -29 37 -51 37 -12 0 -37 15 -55
34 -18 18 -47 36 -65 40 -18 3 -39 15 -46 26 -8 11 -19 18 -24 14 -5 -3 -23 2
-41 10 -17 9 -37 16 -44 16 -7 0 -16 9 -19 20 -3 11 -13 20 -21 20 -8 0 -14 5
-14 10 0 6 -9 10 -20 10 -11 0 -20 5 -20 11 0 6 -6 9 -14 6 -20 -8 -76 15 -76
30 0 8 -13 13 -35 13 -19 0 -35 4 -35 9 0 5 -24 12 -52 15 -29 4 -75 9 -103
12 -27 4 -58 12 -69 19 -10 8 -25 11 -33 8 -7 -3 -22 2 -33 12 -15 14 -30 16
-65 12 -25 -4 -45 -3 -45 2 0 4 -11 6 -23 4 -14 -3 -31 2 -40 11 -14 14 -41
16 -202 13 -102 -2 -185 1 -185 6 0 5 -15 5 -32 1 -18 -4 -54 -7 -80 -5 -29 1
-48 -2 -48 -8 0 -15 -27 -14 -32 0 -3 9 -9 9 -25 1 -11 -6 -50 -12 -87 -14
-36 -1 -66 -5 -66 -8 0 -4 -43 -13 -95 -20 -52 -7 -95 -17 -95 -22 0 -4 -11
-8 -25 -8 -13 0 -30 -6 -37 -14 -8 -9 -27 -11 -55 -8 -28 3 -43 1 -43 -7 0 -6
-6 -11 -14 -11 -7 0 -19 -7 -26 -15 -7 -8 -23 -15 -36 -15 -13 0 -33 -4 -46
-9 -13 -5 -35 -12 -50 -15 -16 -4 -28 -13 -28 -21 0 -8 -14 -17 -35 -21 -19
-3 -35 -10 -35 -15 0 -5 -20 -14 -45 -20 -25 -6 -45 -15 -45 -20 0 -5 -7 -9
-15 -9 -8 0 -15 -4 -15 -9 0 -5 -14 -13 -32 -16 -18 -4 -48 -23 -67 -41 -21
-20 -46 -34 -61 -34 -14 0 -32 -9 -40 -20 -8 -11 -20 -20 -28 -20 -7 0 -15 -7
-18 -15 -4 -8 -12 -15 -19 -15 -8 0 -20 -6 -27 -13 -7 -7 -21 -16 -30 -20 -10
-3 -18 -16 -18 -27 0 -11 -7 -20 -15 -20 -18 0 -94 -51 -95 -64 0 -12 -49 -56
-61 -56 -11 0 -39 -25 -39 -35 0 -10 -28 -35 -39 -35 -6 0 -11 -7 -11 -15 0
-8 -7 -15 -15 -15 -8 0 -15 -5 -15 -11 0 -15 -22 -35 -48 -43 -12 -4 -22 -14
-22 -22 0 -8 -4 -14 -10 -14 -5 0 -10 -7 -10 -15 0 -8 -9 -20 -20 -27 -11 -7
-20 -18 -20 -25 0 -7 -7 -13 -15 -13 -8 0 -15 -4 -15 -10 0 -5 -20 -30 -45
-56 -25 -25 -45 -49 -45 -55 0 -5 -5 -9 -11 -9 -6 0 -8 -9 -4 -20 4 -13 1 -22
-9 -26 -9 -3 -16 -15 -16 -25 0 -10 -4 -19 -10 -19 -5 0 -12 -15 -15 -34 -4
-21 -16 -38 -31 -47 -16 -8 -28 -27 -36 -56 -6 -25 -22 -53 -37 -66 -14 -12
-33 -41 -40 -64 -8 -24 -18 -43 -22 -43 -5 0 -14 -20 -20 -45 -6 -25 -15 -45
-20 -45 -5 0 -9 -7 -9 -15 0 -8 -4 -15 -9 -15 -5 0 -11 -19 -14 -42 -10 -77
-19 -113 -34 -129 -17 -21 -53 -167 -53 -219 0 -21 -4 -42 -10 -45 -5 -3 -10
-17 -10 -30 0 -13 -7 -30 -15 -39 -10 -9 -15 -34 -15 -70 0 -30 -4 -58 -10
-61 -5 -3 -10 -37 -10 -75 0 -37 -4 -70 -9 -72 -4 -1 -12 -49 -15 -105 -7 -92
-6 -103 9 -103 10 0 15 -7 13 -17 -3 -15 -16 -19 -70 -21 -63 -3 -68 -1 -73
20 -7 30 1 206 14 288 6 36 11 85 11 110 0 41 7 79 57 298 9 39 20 72 25 72 4
0 8 9 8 20 0 11 5 20 11 20 7 0 9 12 5 35 -7 35 14 90 41 107 6 5 14 30 18 58
4 27 11 50 17 50 6 0 8 7 4 15 -3 8 -1 15 4 15 6 0 10 14 10 30 0 17 9 39 20
50 11 11 20 27 20 35 0 8 4 15 9 15 5 0 13 15 16 33 8 36 32 82 58 111 9 11
17 24 17 29 0 17 43 97 52 97 4 0 8 9 8 20 0 11 6 20 13 20 6 0 18 14 25 30 8
17 31 49 53 72 21 23 42 50 45 60 3 10 10 18 15 18 5 0 9 7 9 16 0 17 23 44
38 44 6 0 13 14 17 30 4 17 13 30 20 30 7 0 15 7 19 15 3 8 12 15 21 15 8 0
15 6 15 14 0 8 11 23 25 34 14 11 25 23 25 28 0 12 42 54 54 54 14 0 66 61 66
78 0 6 6 12 13 12 11 0 34 19 119 94 14 13 40 27 57 31 17 4 31 11 31 17 0 11
25 38 35 38 4 0 12 6 20 13 34 32 57 47 71 47 9 0 27 9 41 20 14 11 34 20 44
20 11 0 19 6 19 13 1 13 56 40 102 51 15 3 33 13 42 21 8 8 19 15 25 15 6 0
11 5 11 10 0 6 9 10 19 10 11 0 27 7 36 16 9 9 25 14 35 11 11 -3 20 -1 20 4
0 5 7 9 15 9 8 0 15 7 15 15 0 9 14 16 38 20 56 9 112 27 112 37 0 4 11 8 25
8 14 0 33 4 43 9 9 5 52 15 95 22 42 7 77 17 77 21 0 4 23 8 50 8 28 0 50 4
50 8 0 13 118 32 194 32 37 0 66 4 66 10 0 6 47 10 120 10 80 0 120 4 120 11
0 7 17 9 53 5 28 -4 98 -9 155 -12z m-9592 -99 c16 -8 41 -15 56 -15 53 0 141
-43 190 -93 57 -58 85 -60 103 -9 6 19 20 39 30 45 11 6 25 17 31 26 19 25
294 55 294 32 0 -6 7 -11 15 -11 8 0 15 -4 15 -10 0 -5 15 -10 34 -10 25 0 40
-7 54 -25 11 -14 24 -25 29 -25 6 0 16 -19 24 -42 7 -24 21 -49 31 -56 12 -9
18 -26 18 -53 l0 -39 46 0 c37 0 50 5 66 25 17 22 27 25 87 25 86 0 131 -9
131 -26 0 -7 14 -19 30 -28 17 -8 28 -10 25 -5 -4 5 -2 9 4 9 5 0 13 -9 16
-20 3 -11 11 -20 16 -20 5 0 9 -7 9 -16 0 -8 4 -13 8 -10 5 3 10 -14 10 -38 2
-49 -8 -56 -85 -56 -24 0 -43 -4 -43 -10 0 -5 -9 -10 -20 -10 -13 0 -24 -10
-30 -26 -6 -14 -37 -51 -69 -82 -52 -51 -60 -64 -74 -122 -22 -90 -31 -160
-21 -160 5 0 10 -55 12 -122 2 -67 6 -125 10 -128 4 -3 8 -18 9 -35 1 -17 12
-38 24 -47 15 -13 20 -25 15 -42 -3 -14 -2 -28 4 -31 5 -3 10 -15 10 -25 0
-24 41 -89 58 -90 14 0 16 -10 13 -62 -2 -29 1 -38 13 -38 9 0 16 -7 16 -15 0
-8 4 -15 8 -15 4 0 9 -15 10 -32 2 -18 7 -34 12 -36 6 -2 10 -10 10 -18 0 -8
5 -14 10 -14 6 0 10 -13 10 -30 0 -17 9 -39 20 -50 11 -11 20 -33 20 -50 0
-16 7 -55 15 -86 8 -31 12 -67 9 -79 -4 -15 0 -24 10 -28 12 -5 16 -20 16 -57
0 -50 1 -51 27 -48 27 3 28 5 48 125 11 67 26 128 33 135 6 6 12 33 12 59 0
26 4 51 10 54 5 3 14 24 20 45 6 24 17 40 25 40 10 0 15 11 15 35 0 23 5 35
13 35 9 0 18 25 27 70 9 45 18 70 27 70 7 0 13 8 13 18 0 10 6 26 14 37 7 11
17 35 21 53 3 17 11 32 16 32 5 0 9 7 9 15 0 8 4 15 9 15 5 0 13 10 17 23 4
12 20 41 37 64 27 38 30 52 37 155 5 62 11 121 15 131 4 9 2 24 -4 31 -9 11
-9 15 1 19 10 4 10 7 1 14 -7 5 -11 23 -9 41 7 54 -14 235 -30 260 -8 12 -13
26 -10 30 2 4 -11 18 -29 31 -19 13 -37 32 -40 42 -9 28 4 59 25 59 10 0 22 9
25 20 5 15 15 20 41 20 22 0 37 6 40 15 4 8 15 15 26 15 11 0 29 5 40 11 17 9
23 8 30 -5 5 -9 22 -16 38 -16 16 0 32 -4 35 -10 12 -19 41 -10 74 25 18 19
39 35 47 35 8 0 14 5 14 10 0 6 7 10 15 10 8 0 15 5 15 10 0 6 7 10 15 10 8 0
15 5 15 10 0 6 38 10 93 10 83 0 96 -3 131 -26 23 -16 46 -24 59 -21 49 12
108 38 126 56 12 12 41 22 75 26 31 4 56 12 56 17 0 7 19 8 53 4 28 -3 103
-10 165 -15 74 -5 118 -13 127 -22 19 -19 8 -59 -16 -59 -10 0 -21 -4 -24 -10
-3 -5 -17 -10 -31 -10 -14 0 -36 -11 -50 -25 -14 -14 -36 -25 -49 -25 -13 0
-25 -3 -27 -8 -7 -15 -85 -71 -109 -77 -14 -3 -39 -19 -56 -35 l-31 -30 -89
22 c-48 11 -99 26 -112 32 -19 8 -25 8 -28 -1 -3 -8 -24 -13 -59 -13 -33 0
-54 -4 -54 -11 0 -7 -10 -9 -25 -5 -14 4 -25 2 -25 -4 0 -5 -19 -15 -42 -21
-50 -13 -111 -79 -134 -144 -17 -49 -21 -192 -5 -208 17 -17 14 -132 -4 -147
-8 -7 -15 -19 -15 -26 0 -8 -7 -14 -16 -14 -8 0 -22 -17 -31 -37 -8 -21 -21
-45 -29 -53 -58 -65 -84 -100 -84 -114 0 -9 -4 -16 -8 -16 -4 0 -13 -12 -19
-27 -15 -37 -46 -87 -55 -91 -5 -2 -8 -9 -8 -17 0 -7 -7 -18 -15 -25 -8 -7
-15 -21 -15 -31 0 -11 -4 -19 -9 -19 -5 0 -12 -16 -15 -35 -4 -19 -11 -35 -16
-35 -6 0 -10 -6 -10 -13 0 -7 -9 -29 -20 -50 -11 -20 -20 -44 -20 -52 0 -8 -4
-15 -9 -15 -5 0 -12 -19 -16 -42 -4 -24 -13 -50 -20 -58 -16 -18 -45 -97 -45
-122 0 -10 -8 -26 -17 -36 -11 -10 -19 -36 -21 -62 -1 -25 -12 -82 -23 -128
-12 -45 -19 -96 -17 -114 3 -20 0 -38 -8 -46 -14 -14 -15 -34 -18 -279 0 -68
-5 -123 -10 -123 -5 0 -6 -16 -3 -35 3 -20 1 -37 -5 -41 -10 -7 -169 -6 -176
0 -1 2 -6 43 -9 91 -5 70 -4 87 7 80 10 -6 11 1 7 31 -3 22 -11 110 -18 197
-7 86 -16 157 -21 157 -4 0 -8 20 -8 44 0 25 -4 48 -10 51 -5 3 -10 19 -10 36
0 16 -4 29 -10 29 -5 0 -10 17 -10 39 0 21 -6 44 -14 50 -7 6 -16 28 -19 49
-11 65 -36 145 -52 162 -8 9 -15 24 -15 33 0 9 -4 17 -9 17 -5 0 -9 6 -8 13 1
43 -5 67 -17 67 -14 0 -26 29 -26 63 0 10 -13 37 -28 60 -15 23 -36 59 -47 80
-11 20 -22 37 -26 37 -4 0 -9 14 -13 31 -3 18 -14 39 -24 48 -9 9 -24 30 -32
46 -8 17 -23 36 -32 43 -10 7 -18 20 -18 27 0 14 -14 33 -71 97 -15 17 -33 42
-40 56 -8 15 -20 33 -27 40 -28 30 -35 54 -18 64 9 5 16 22 16 38 0 17 9 39
20 50 12 12 20 33 20 54 0 19 5 38 10 41 6 3 10 28 10 55 0 60 -32 126 -72
149 -15 9 -28 21 -28 27 0 7 -16 19 -34 28 -27 13 -58 16 -136 13 -56 -2 -105
-7 -108 -13 -39 -54 -182 -58 -182 -4 0 6 -14 13 -30 17 -17 3 -39 18 -51 34
-11 16 -26 29 -34 29 -17 0 -51 19 -104 58 -24 17 -50 32 -58 32 -7 0 -13 5
-13 10 0 6 -5 10 -11 10 -17 0 -102 41 -123 59 -10 9 -34 21 -55 26 -26 8 -37
17 -39 33 -4 28 19 52 52 52 14 0 26 5 26 10 0 17 183 12 216 -5z m8224 5 c0
-5 12 -10 26 -10 33 0 56 -24 52 -52 -2 -16 -13 -25 -39 -33 -21 -5 -45 -17
-55 -26 -21 -18 -106 -59 -123 -59 -6 0 -11 -4 -11 -10 0 -5 -6 -10 -13 -10
-8 0 -34 -15 -58 -32 -53 -39 -87 -58 -104 -58 -8 0 -23 -13 -34 -29 -12 -16
-34 -31 -51 -34 -16 -4 -30 -11 -30 -17 0 -54 -143 -50 -182 4 -3 6 -52 11
-108 13 -78 3 -109 0 -136 -13 -18 -9 -34 -21 -34 -28 0 -6 -13 -18 -28 -27
-40 -23 -72 -89 -72 -149 0 -27 5 -52 10 -55 6 -3 10 -22 10 -41 0 -21 8 -42
20 -54 11 -11 20 -33 20 -50 0 -16 7 -33 16 -38 17 -10 10 -34 -18 -64 -7 -7
-19 -25 -27 -40 -7 -14 -25 -39 -40 -56 -57 -64 -71 -83 -71 -97 0 -7 -8 -20
-17 -27 -10 -7 -25 -26 -33 -43 -8 -16 -23 -37 -32 -46 -10 -9 -21 -30 -24
-48 -4 -17 -9 -31 -13 -31 -4 0 -15 -17 -26 -37 -11 -21 -32 -57 -47 -80 -15
-23 -28 -50 -28 -60 0 -34 -12 -63 -26 -63 -12 0 -18 -24 -17 -67 1 -7 -3 -13
-8 -13 -5 0 -9 -8 -9 -17 0 -9 -7 -24 -15 -33 -16 -17 -41 -97 -52 -162 -3
-21 -12 -43 -19 -49 -8 -6 -14 -29 -14 -50 0 -22 -4 -39 -10 -39 -5 0 -10 -13
-10 -29 0 -17 -4 -33 -10 -36 -5 -3 -10 -26 -10 -51 0 -24 -4 -44 -8 -44 -5 0
-14 -71 -21 -157 -7 -87 -15 -175 -18 -197 -4 -30 -3 -37 7 -31 11 7 12 -10 7
-80 -3 -48 -8 -89 -9 -91 -7 -6 -166 -7 -176 0 -6 4 -8 21 -5 41 3 19 2 35 -3
35 -5 0 -10 55 -10 123 -3 245 -4 265 -18 279 -8 8 -11 26 -8 46 2 18 -5 69
-17 114 -11 46 -22 103 -23 128 -2 26 -10 52 -20 62 -10 10 -18 26 -18 36 0
25 -29 104 -45 122 -7 8 -16 34 -20 58 -4 23 -11 42 -16 42 -5 0 -9 7 -9 15 0
8 -9 32 -20 52 -11 21 -20 43 -20 50 0 7 -4 13 -10 13 -5 0 -12 16 -16 35 -3
19 -10 35 -15 35 -5 0 -9 8 -9 19 0 10 -7 24 -15 31 -8 7 -15 18 -15 25 0 8
-3 15 -7 17 -10 4 -41 54 -56 91 -6 15 -15 27 -19 27 -4 0 -8 7 -8 16 0 14
-26 49 -84 114 -8 8 -21 32 -29 53 -9 20 -23 37 -31 37 -9 0 -16 6 -16 14 0 7
-7 19 -15 26 -18 15 -21 130 -4 147 16 16 12 159 -5 208 -23 65 -84 131 -133
144 -24 6 -43 16 -43 21 0 6 -11 8 -25 4 -15 -4 -25 -2 -25 5 0 7 -21 11 -54
11 -35 0 -56 5 -59 13 -3 9 -9 9 -28 1 -13 -6 -64 -21 -112 -32 l-89 -22 -31
30 c-17 16 -42 32 -56 35 -24 6 -102 62 -109 77 -2 5 -14 8 -27 8 -13 0 -35
11 -49 25 -14 14 -36 25 -50 25 -14 0 -28 5 -31 10 -3 6 -14 10 -24 10 -24 0
-35 40 -16 59 9 9 53 17 127 22 62 5 137 12 166 15 33 4 52 3 52 -4 0 -5 25
-13 56 -17 34 -4 63 -14 75 -26 18 -18 77 -44 126 -56 13 -3 36 5 59 21 35 23
48 26 131 26 55 0 93 -4 93 -10 0 -5 7 -10 15 -10 8 0 15 -4 15 -10 0 -5 7
-10 15 -10 8 0 15 -4 15 -10 0 -5 6 -10 14 -10 8 0 29 -16 47 -35 33 -35 62
-44 74 -25 3 6 19 10 35 10 16 0 33 7 38 16 7 13 13 14 30 5 11 -6 29 -11 40
-11 11 0 22 -7 26 -15 3 -9 18 -15 40 -15 26 0 36 -5 41 -20 3 -11 15 -20 25
-20 21 0 34 -31 25 -59 -3 -10 -21 -29 -40 -42 -18 -13 -31 -27 -29 -31 3 -4
-2 -18 -10 -30 -16 -25 -37 -206 -30 -260 2 -18 -2 -36 -9 -41 -9 -7 -9 -10 1
-14 10 -4 10 -8 1 -19 -6 -7 -8 -22 -4 -31 4 -10 10 -69 15 -131 7 -103 10
-117 37 -155 17 -23 33 -52 37 -64 4 -13 12 -23 17 -23 5 0 9 -7 9 -15 0 -8 4
-15 9 -15 5 0 13 -15 16 -32 4 -18 14 -42 21 -53 8 -11 14 -27 14 -37 0 -10 6
-18 13 -18 9 0 18 -25 27 -70 9 -45 18 -70 27 -70 8 0 13 -12 13 -35 0 -24 5
-35 15 -35 8 0 19 -16 25 -40 6 -21 15 -42 20 -45 6 -3 10 -28 10 -54 0 -26 6
-53 13 -59 6 -7 21 -68 32 -135 20 -120 21 -122 48 -125 26 -3 27 -2 27 48 0
37 4 52 16 57 10 4 14 13 10 28 -3 12 1 48 9 79 8 31 15 70 15 86 0 17 9 39
20 50 11 11 20 33 20 50 0 17 5 30 10 30 6 0 10 6 10 14 0 8 4 16 10 18 5 2
10 18 12 36 1 17 6 32 10 32 4 0 8 7 8 15 0 8 7 15 16 15 12 0 15 9 13 38 -3
52 -1 62 14 62 16 1 57 66 57 90 0 10 5 22 10 25 6 3 7 17 4 31 -5 17 0 29 15
42 12 9 23 30 24 47 1 17 5 32 9 35 4 3 8 61 10 128 2 67 7 122 12 122 10 0 1
70 -21 160 -14 58 -22 71 -74 122 -32 31 -63 68 -69 82 -6 16 -17 26 -30 26
-11 0 -20 5 -20 10 0 6 -19 10 -42 10 -78 0 -88 7 -86 56 0 24 5 41 10 38 4
-3 8 2 8 10 0 9 4 16 9 16 5 0 13 9 16 20 3 11 11 20 16 20 6 0 8 -4 4 -9 -3
-5 8 -3 25 5 16 9 30 21 30 28 0 17 45 26 131 26 60 0 70 -3 87 -25 16 -20 29
-25 66 -25 l46 0 0 39 c0 27 6 44 18 53 10 7 24 32 31 56 8 23 18 42 24 42 5
0 18 11 29 25 14 18 29 25 54 25 19 0 34 5 34 10 0 6 7 10 15 10 8 0 15 5 15
11 0 23 275 -7 294 -32 6 -9 20 -20 31 -26 10 -6 24 -26 30 -45 18 -51 46 -49
103 9 49 50 137 93 190 93 15 0 38 7 52 14 30 17 220 22 220 6z m-4016 -46
c38 -18 66 -18 66 1 0 9 9 15 25 15 14 0 25 -4 25 -9 0 -5 19 -11 43 -14 84
-10 278 -54 289 -65 7 -7 21 -12 32 -12 21 0 80 -17 108 -31 10 -5 28 -9 40
-9 13 0 35 -11 50 -25 15 -14 32 -25 39 -25 17 0 73 -33 87 -52 7 -10 21 -18
30 -18 32 0 92 -26 122 -53 16 -15 37 -27 46 -27 19 0 74 -31 74 -41 0 -4 16
-13 35 -19 20 -7 43 -23 52 -36 8 -13 21 -24 28 -24 8 0 27 -13 43 -30 17 -16
36 -30 43 -30 17 0 59 -52 59 -72 0 -13 8 -18 25 -18 14 0 28 -7 31 -15 4 -8
15 -15 25 -15 10 0 19 -5 19 -11 0 -6 32 -42 70 -78 39 -37 70 -70 70 -74 0
-4 14 -21 30 -37 17 -16 30 -39 30 -51 0 -15 5 -19 15 -15 8 3 15 1 15 -4 0
-6 6 -10 13 -10 7 0 20 -16 27 -36 8 -20 23 -42 33 -49 10 -7 20 -20 21 -30 1
-9 13 -26 27 -38 28 -25 59 -71 59 -87 0 -6 6 -17 13 -25 34 -36 47 -57 57
-94 6 -22 17 -44 24 -48 7 -4 19 -25 25 -45 7 -21 18 -41 25 -45 7 -5 16 -19
19 -33 8 -37 31 -94 41 -101 5 -4 5 -12 2 -18 -4 -6 -2 -11 3 -11 6 0 11 -13
11 -29 0 -16 7 -34 15 -41 9 -7 13 -21 10 -31 -4 -11 -2 -19 2 -19 8 0 33 -72
49 -145 4 -16 10 -32 13 -35 3 -3 11 -20 18 -37 9 -26 9 -33 -1 -33 -18 0 -8
-112 10 -123 10 -6 14 -30 14 -82 0 -43 4 -75 10 -75 6 0 10 -71 10 -194 0
-205 -1 -210 -47 -201 -10 2 -31 7 -46 10 l-29 6 7 62 c11 98 6 244 -10 340
-8 48 -15 107 -15 132 0 25 -4 45 -8 45 -10 0 -32 81 -32 115 0 14 -4 25 -10
25 -5 0 -12 27 -16 60 -4 41 -11 60 -20 60 -9 0 -14 11 -14 30 0 17 -4 30 -10
30 -5 0 -10 15 -10 34 0 19 -4 38 -10 41 -5 3 -10 15 -10 26 0 10 -4 19 -10
19 -5 0 -10 9 -10 19 0 11 -4 23 -10 26 -5 3 -10 17 -10 31 0 14 -4 22 -10 19
-5 -3 -10 0 -10 7 -1 7 -9 31 -20 53 -11 22 -19 44 -20 48 0 4 -9 17 -20 29
-11 12 -22 36 -26 53 -3 18 -19 47 -35 64 -16 18 -32 44 -35 58 -4 14 -20 38
-35 53 -16 15 -29 32 -29 38 0 6 -9 16 -19 22 -11 5 -21 20 -23 32 -2 13 -13
27 -25 33 -12 5 -25 22 -28 37 -4 16 -11 28 -17 28 -11 0 -38 25 -38 35 0 10
-28 35 -39 35 -6 0 -11 7 -11 15 0 9 -13 24 -30 33 -16 9 -30 20 -30 23 0 13
-55 69 -67 69 -7 0 -13 9 -13 19 0 13 -9 21 -29 26 -16 3 -40 15 -53 26 -13
12 -36 30 -52 42 -16 12 -40 32 -53 45 -13 12 -30 22 -38 22 -8 0 -15 6 -15
13 0 6 -18 21 -40 31 -22 11 -40 23 -40 27 0 4 -26 20 -57 35 -32 16 -64 34
-71 41 -7 7 -18 13 -24 13 -6 0 -26 11 -44 25 -18 14 -42 25 -53 25 -12 0 -21
5 -21 10 0 6 -7 10 -15 10 -8 0 -15 5 -15 10 0 6 -15 10 -33 10 -19 0 -42 8
-55 20 -14 13 -35 20 -62 20 -22 0 -40 5 -40 10 0 6 -16 10 -36 10 -29 0 -35
3 -30 16 4 12 1 14 -14 9 -12 -4 -39 2 -66 15 -32 16 -56 21 -80 17 -19 -3
-34 -2 -34 2 0 5 -31 12 -70 15 -38 4 -72 11 -75 17 -4 5 -51 9 -105 9 -55 0
-102 4 -105 10 -3 6 -46 10 -95 10 -49 0 -92 -4 -95 -10 -3 -6 -50 -10 -105
-10 -54 0 -101 -4 -105 -9 -3 -6 -37 -13 -75 -17 -39 -3 -70 -10 -70 -15 0 -4
-15 -5 -34 -2 -24 4 -48 -1 -80 -17 -27 -13 -54 -19 -66 -15 -15 5 -18 3 -14
-9 5 -13 -1 -16 -30 -16 -20 0 -36 -4 -36 -10 0 -5 -18 -10 -40 -10 -27 0 -48
-7 -62 -20 -13 -12 -36 -20 -55 -20 -18 0 -33 -4 -33 -10 0 -5 -7 -10 -15 -10
-8 0 -15 -4 -15 -10 0 -5 -9 -10 -21 -10 -11 0 -35 -11 -53 -25 -18 -14 -38
-25 -44 -25 -6 0 -17 -6 -24 -13 -7 -7 -39 -25 -70 -41 -32 -15 -58 -31 -58
-35 0 -4 -18 -16 -40 -27 -22 -10 -40 -25 -40 -31 0 -7 -7 -13 -15 -13 -8 0
-25 -10 -38 -22 -13 -13 -37 -33 -53 -45 -16 -12 -39 -30 -52 -42 -13 -11 -37
-23 -53 -26 -20 -5 -29 -13 -29 -26 0 -10 -6 -19 -13 -19 -12 0 -67 -56 -67
-69 0 -3 -14 -14 -30 -23 -17 -9 -30 -24 -30 -33 0 -8 -5 -15 -11 -15 -11 0
-39 -25 -39 -35 0 -10 -27 -35 -38 -35 -6 0 -13 -12 -17 -28 -3 -15 -16 -32
-28 -37 -12 -6 -23 -20 -25 -33 -2 -12 -12 -27 -23 -32 -10 -6 -19 -16 -19
-22 0 -6 -13 -23 -29 -38 -15 -15 -31 -39 -35 -53 -3 -14 -19 -40 -35 -58 -16
-17 -32 -46 -35 -64 -4 -17 -15 -41 -26 -53 -11 -12 -20 -25 -20 -29 -1 -4 -9
-26 -20 -48 -11 -22 -19 -46 -20 -53 0 -7 -4 -10 -10 -7 -6 3 -10 -5 -10 -19
0 -14 -4 -28 -10 -31 -5 -3 -10 -15 -10 -26 0 -10 -4 -19 -10 -19 -5 0 -10 -9
-10 -19 0 -11 -4 -23 -10 -26 -5 -3 -10 -22 -10 -41 0 -19 -4 -34 -10 -34 -5
0 -10 -13 -10 -30 0 -19 -5 -30 -14 -30 -9 0 -16 -19 -20 -60 -4 -33 -11 -60
-16 -60 -6 0 -10 -11 -10 -25 0 -34 -22 -115 -32 -115 -4 0 -8 -20 -8 -45 0
-25 -7 -84 -15 -132 -16 -96 -21 -242 -10 -340 l7 -62 -29 -6 c-99 -21 -93
-35 -93 191 0 123 4 194 10 194 6 0 10 32 10 75 0 52 4 76 14 82 18 11 28 123
10 123 -10 0 -10 7 -1 33 7 17 15 34 18 37 3 3 9 19 13 35 16 73 41 145 49
145 4 0 6 8 2 19 -3 10 1 24 10 31 8 7 15 25 15 41 0 16 5 29 11 29 5 0 7 5 3
11 -3 6 -3 14 2 18 10 7 33 64 41 101 3 14 12 28 19 33 7 4 18 24 25 45 6 20
18 41 25 45 7 4 18 26 24 49 7 22 17 47 23 53 29 30 47 56 47 65 0 16 32 62
59 87 14 12 26 29 27 38 1 10 11 23 21 30 10 7 25 29 33 49 7 20 20 36 27 36
7 0 13 4 13 10 0 5 7 7 15 4 10 -4 15 0 15 15 0 12 14 35 30 51 17 16 30 33
30 37 0 4 32 37 70 74 39 36 70 72 70 78 0 6 9 11 19 11 10 0 21 7 25 15 3 8
17 15 31 15 17 0 25 5 25 18 0 20 42 72 59 72 7 0 26 14 43 30 16 17 35 30 43
30 7 0 20 11 28 24 9 13 32 29 52 36 19 6 35 15 35 19 0 10 55 41 74 41 9 0
30 12 46 27 30 27 90 53 122 53 9 0 23 8 30 18 14 19 70 52 87 52 7 0 24 11
39 25 15 14 37 25 50 25 12 0 30 4 40 9 28 14 87 31 108 31 11 0 25 5 32 12
11 11 205 55 290 65 23 3 42 9 42 14 0 5 11 9 25 9 16 0 25 -6 25 -15 0 -18
41 -20 58 -3 27 27 363 28 416 2z m-5744 -84 c0 -11 -4 -20 -10 -20 -5 0 -10
-11 -10 -25 0 -14 -7 -28 -15 -31 -8 -4 -15 -12 -15 -20 0 -8 -7 -14 -16 -14
-10 0 -14 -6 -10 -15 3 -8 0 -15 -7 -15 -14 0 -77 -66 -77 -80 0 -6 -4 -10
-10 -10 -5 0 -10 -7 -10 -15 0 -8 -7 -15 -15 -15 -8 0 -15 -4 -15 -10 0 -5 -7
-10 -15 -10 -8 0 -15 -7 -15 -15 0 -8 -4 -15 -10 -15 -5 0 -17 -16 -26 -35 -9
-19 -23 -35 -30 -35 -8 0 -14 -7 -14 -15 0 -8 -4 -15 -10 -15 -5 0 -10 -5 -10
-11 0 -12 -25 -39 -37 -39 -4 -1 -19 -14 -33 -30 -13 -17 -30 -30 -37 -30 -7
0 -13 -7 -13 -15 0 -8 -4 -15 -10 -15 -5 0 -10 -5 -10 -11 0 -10 -24 -39 -33
-39 -10 0 -77 -69 -77 -79 0 -6 -9 -11 -19 -11 -12 0 -21 -9 -25 -25 -4 -16
-13 -25 -26 -25 -11 0 -20 -5 -20 -11 0 -7 -11 -22 -25 -35 -14 -13 -25 -27
-25 -32 0 -5 -16 -24 -35 -43 -19 -19 -35 -38 -35 -43 0 -5 -9 -16 -19 -25
-10 -9 -21 -28 -23 -41 -2 -17 -10 -26 -25 -28 -17 -2 -23 -10 -23 -27 0 -13
-4 -27 -10 -30 -5 -3 -10 -15 -10 -26 0 -10 -4 -19 -10 -19 -5 0 -10 -7 -10
-15 0 -8 -4 -15 -10 -15 -5 0 -10 -18 -10 -39 0 -23 -5 -41 -14 -44 -7 -3 -16
-28 -19 -57 -4 -29 -12 -58 -18 -66 -7 -9 -9 -31 -6 -58 4 -24 3 -46 0 -50
-10 -9 -3 -110 8 -116 5 -4 12 -28 16 -56 3 -27 15 -64 25 -82 10 -18 18 -38
18 -44 0 -17 50 -116 66 -129 8 -6 14 -18 14 -25 0 -8 5 -14 10 -14 6 0 10 -8
10 -19 0 -13 9 -20 30 -24 21 -5 30 -12 30 -26 0 -11 9 -23 20 -26 12 -4 39
-24 62 -46 23 -21 46 -39 52 -39 7 0 18 -9 26 -20 10 -14 26 -20 52 -20 21 0
38 -4 38 -9 0 -5 18 -11 40 -15 22 -3 40 -11 40 -16 0 -6 51 -10 130 -10 72 0
130 4 130 9 0 5 23 12 51 16 52 7 89 29 89 52 0 7 6 13 13 13 19 0 87 60 87
76 0 8 6 14 13 14 15 0 37 41 37 69 0 11 7 21 15 25 16 6 22 76 6 76 -5 0 -11
24 -13 54 -3 32 -11 61 -21 71 -9 9 -17 23 -17 31 0 8 -4 14 -10 14 -5 0 -10
6 -10 13 0 8 -11 20 -25 27 -14 7 -25 20 -25 28 0 13 -16 14 -101 8 l-102 -7
-43 -45 c-24 -25 -44 -51 -44 -60 0 -8 -7 -17 -16 -21 -11 -4 -14 -16 -12 -42
l3 -36 -75 1 c-44 1 -76 6 -78 13 -2 6 -9 11 -16 11 -7 0 -19 11 -26 25 -7 14
-17 25 -21 25 -8 0 -21 61 -24 115 -1 22 -5 48 -10 58 -4 10 -3 17 4 17 6 0
11 13 11 28 0 16 9 37 20 47 11 10 20 26 20 37 0 10 7 18 15 18 8 0 17 11 21
25 5 21 12 25 40 25 19 0 34 5 34 11 0 9 26 10 90 6 74 -5 90 -3 90 9 0 8 -4
14 -10 14 -5 0 -10 16 -10 35 0 26 -4 35 -16 35 -14 0 -16 9 -12 52 3 29 11
54 17 56 6 2 11 26 11 55 0 66 17 128 40 144 10 7 20 27 24 45 3 18 19 46 36
61 16 16 30 36 30 45 0 20 42 72 59 72 6 0 11 6 11 14 0 8 7 16 15 20 8 3 15
12 15 21 0 8 7 15 15 15 8 0 15 4 15 10 0 11 32 52 65 82 11 11 29 28 40 38
12 11 26 20 33 20 7 0 12 8 12 18 0 9 14 28 30 42 17 14 30 35 30 47 0 14 7
23 21 25 24 3 35 18 44 61 7 36 24 35 32 -3 3 -16 9 -30 14 -30 5 0 9 -13 9
-30 0 -23 4 -30 20 -30 14 0 20 -7 20 -24 0 -13 16 -40 35 -62 19 -21 35 -44
35 -51 0 -7 5 -13 10 -13 6 0 10 -7 10 -15 0 -8 7 -15 16 -15 10 0 14 -5 10
-15 -3 -10 1 -18 12 -22 18 -7 42 -28 42 -37 0 -15 82 -86 100 -86 15 0 20 -7
20 -24 0 -14 11 -33 25 -44 14 -11 25 -25 25 -31 0 -6 4 -11 9 -11 5 0 12 -12
15 -27 10 -41 48 -113 56 -108 11 7 24 -198 14 -226 -4 -13 -7 -32 -5 -41 1
-10 -9 -29 -23 -43 -14 -14 -26 -34 -26 -45 0 -26 29 -53 52 -47 20 6 78 -39
78 -59 0 -7 3 -14 8 -16 4 -1 17 -22 30 -45 27 -51 31 -177 8 -221 -8 -15 -17
-35 -20 -46 -5 -13 -12 -17 -29 -12 -12 3 -32 6 -44 6 -15 0 -23 7 -25 23 -2
12 -13 26 -25 32 -13 5 -23 18 -23 28 0 16 -10 23 -65 43 -11 4 -51 9 -89 11
-75 5 -112 -7 -121 -38 -3 -10 -15 -21 -26 -24 -10 -4 -19 -12 -19 -20 0 -7
-6 -15 -13 -18 -9 -3 -16 -30 -20 -76 -8 -97 0 -140 29 -153 13 -6 24 -20 24
-30 0 -10 7 -21 15 -24 8 -4 15 -10 15 -15 0 -25 81 -74 140 -85 19 -4 40 -10
45 -14 35 -25 269 -13 291 16 6 8 15 14 19 14 4 0 14 8 21 18 7 9 36 22 65 27
44 9 54 14 59 35 4 16 14 26 29 28 13 2 26 12 28 23 3 10 12 19 20 19 21 0 60
42 67 73 4 15 15 36 26 47 11 11 20 33 20 50 0 17 5 30 10 30 6 0 10 7 10 15
0 8 7 15 16 15 14 0 15 23 13 195 -3 151 -6 195 -16 195 -9 0 -13 18 -13 60 0
44 -4 60 -14 60 -9 0 -15 20 -19 67 -8 82 -37 203 -48 203 -5 0 -9 6 -9 13 0
7 -9 19 -20 27 -14 10 -20 26 -20 52 0 21 -4 38 -10 38 -5 0 -10 12 -10 26 0
17 -6 28 -20 31 -16 4 -20 14 -20 44 0 22 -4 39 -10 39 -5 0 -12 11 -16 25 -3
14 -11 25 -16 25 -17 0 -38 28 -38 50 0 11 -7 23 -15 26 -8 4 -15 15 -15 25 0
10 -4 19 -9 19 -5 0 -12 12 -15 26 -8 29 -29 54 -45 54 -6 0 -11 6 -11 13 0 7
-9 19 -20 27 -11 8 -20 18 -20 23 0 4 -18 26 -40 48 -22 22 -40 45 -40 50 0 5
-7 9 -15 9 -8 0 -15 7 -15 15 0 8 -7 15 -15 15 -8 0 -15 7 -15 15 0 8 -4 15
-9 15 -5 0 -12 12 -15 26 -9 35 -28 53 -65 60 -17 4 -31 10 -31 15 0 5 -7 9
-15 9 -8 0 -15 6 -15 14 0 8 -7 16 -15 20 -29 11 -15 26 24 26 27 0 41 -5 45
-16 5 -13 15 -15 46 -11 22 3 40 1 40 -4 0 -5 7 -9 15 -9 8 0 15 -4 15 -10 0
-5 16 -10 35 -10 19 0 35 -4 35 -10 0 -5 7 -10 15 -10 8 0 15 -6 15 -13 0 -7
19 -19 42 -27 32 -11 45 -22 53 -45 5 -16 22 -42 38 -57 15 -15 27 -31 25 -35
-2 -4 12 -15 30 -23 25 -12 35 -25 44 -57 7 -24 18 -43 25 -43 7 0 13 -4 13
-10 0 -5 7 -10 16 -10 8 0 12 -5 8 -11 -7 -12 26 -89 39 -89 4 0 7 -5 7 -12 0
-6 11 -26 25 -44 14 -18 25 -40 25 -48 0 -9 5 -16 10 -16 6 0 10 -6 10 -14 0
-8 11 -23 25 -34 15 -12 25 -30 25 -46 0 -14 4 -26 9 -26 5 0 12 -13 16 -30 4
-16 10 -30 15 -30 4 0 11 -22 15 -50 6 -40 11 -50 26 -50 16 0 19 -7 19 -50 0
-34 5 -52 16 -58 10 -6 16 -25 17 -63 2 -43 7 -59 26 -77 20 -18 25 -35 28
-85 4 -63 20 -135 35 -152 12 -14 10 -63 -4 -67 -8 -3 -6 -24 6 -76 10 -39 17
-93 15 -119 -3 -58 11 -173 21 -173 4 0 15 -28 25 -62 10 -36 28 -72 41 -85
13 -12 24 -27 24 -33 0 -5 7 -10 15 -10 8 0 15 -4 15 -10 0 -5 20 -15 45 -21
25 -6 45 -15 45 -19 0 -13 57 -19 93 -9 19 5 43 20 53 34 10 14 24 25 30 25 6
0 17 20 23 45 6 25 16 45 21 45 6 0 10 34 10 81 0 86 -10 109 -49 109 -25 0
-71 20 -71 32 0 4 -6 8 -14 8 -25 0 -29 58 -20 349 10 319 10 370 3 489 l-6
82 26 0 c26 0 91 -56 91 -77 0 -6 9 -13 20 -16 12 -3 20 -14 20 -25 0 -12 9
-23 19 -27 11 -3 22 -19 26 -35 3 -16 17 -35 30 -44 12 -8 30 -35 38 -59 8
-25 33 -64 55 -88 22 -23 43 -56 46 -73 3 -18 15 -38 26 -46 10 -7 25 -35 31
-62 7 -26 16 -48 21 -48 4 0 8 -9 8 -20 0 -11 4 -20 9 -20 5 0 12 -13 16 -30
4 -17 10 -30 14 -30 5 0 14 -21 20 -47 7 -27 19 -61 26 -78 8 -16 17 -48 20
-70 4 -22 13 -54 20 -70 8 -17 19 -61 25 -98 6 -38 14 -76 19 -85 25 -49 60
-302 61 -439 0 -96 -1 -103 -20 -103 -11 0 -20 5 -20 11 0 18 -73 80 -102 86
-15 3 -28 9 -28 14 0 5 -6 9 -14 9 -8 0 -17 8 -20 18 -4 10 -20 28 -36 40 -29
22 -30 26 -30 98 0 66 -3 78 -22 95 -31 25 -35 24 -41 -11 -4 -18 -13 -30 -22
-30 -9 0 -19 -8 -22 -17 -10 -27 -58 -68 -100 -88 -21 -9 -44 -25 -51 -33 -10
-14 -30 -16 -110 -14 -115 4 -226 19 -230 33 -5 13 -52 12 -52 -2 0 -18 -51
-79 -67 -79 -7 0 -16 -7 -19 -15 -4 -8 -18 -15 -34 -15 -16 0 -30 -5 -32 -12
-5 -14 -121 -12 -126 3 -2 5 -16 9 -32 9 -20 0 -43 14 -81 50 -58 55 -71 59
-91 32 -7 -11 -29 -24 -49 -31 -20 -6 -45 -21 -54 -31 -10 -11 -25 -20 -33
-20 -16 0 -72 -16 -107 -31 -11 -5 -74 -10 -140 -11 -90 -2 -128 1 -152 12
-18 8 -33 18 -33 21 0 4 -20 7 -45 7 -40 1 -51 6 -84 42 -22 24 -46 40 -60 40
-12 0 -32 11 -45 25 -13 14 -27 25 -32 25 -12 0 -54 66 -54 85 0 10 -10 15
-30 15 -26 0 -31 -5 -40 -40 -6 -21 -17 -43 -24 -47 -7 -4 -21 -20 -31 -35
-11 -18 -26 -28 -42 -28 -13 0 -35 -11 -49 -25 -14 -14 -36 -25 -49 -25 -15 0
-25 -6 -25 -15 0 -9 -14 -16 -37 -20 -21 -3 -58 -11 -83 -17 -63 -15 -260 -22
-260 -9 0 7 -26 11 -64 11 -36 0 -68 5 -71 10 -3 6 -26 10 -51 10 -29 0 -44 4
-44 13 0 7 -29 21 -64 32 -45 14 -68 26 -75 41 -5 13 -23 25 -40 29 -29 6 -91
57 -91 74 0 8 -44 31 -60 31 -5 0 -17 -15 -26 -33 -21 -41 -64 -82 -93 -90
-16 -4 -30 1 -47 18 -13 13 -33 26 -44 30 -11 3 -20 10 -20 15 0 5 -11 20 -24
34 -24 26 -79 36 -91 17 -3 -6 -26 -13 -50 -17 -25 -3 -45 -10 -45 -15 0 -5
-9 -9 -19 -9 -11 0 -26 -7 -35 -15 -11 -12 -41 -15 -136 -15 -138 0 -206 13
-215 41 -5 13 -16 19 -38 19 -18 0 -43 9 -57 20 -34 27 -70 26 -70 -1 0 -11
-4 -17 -10 -14 -5 3 -10 -3 -10 -14 0 -12 -4 -21 -9 -21 -5 0 -12 -15 -15 -33
-4 -22 -25 -51 -68 -91 -54 -52 -67 -60 -110 -64 -26 -2 -48 -8 -48 -13 0 -13
-35 -11 -65 3 l-26 12 5 115 c6 150 27 302 43 319 7 7 13 29 13 47 0 19 5 37
10 40 6 3 10 21 10 38 0 59 12 107 26 107 10 0 14 14 14 50 0 28 4 50 8 50 5
0 9 17 10 38 1 28 9 43 32 62 20 17 30 34 30 53 0 15 5 27 10 27 6 0 10 8 10
18 0 39 21 91 40 97 11 4 20 15 20 26 0 10 5 19 10 19 6 0 10 7 10 16 0 8 7
22 15 30 8 9 15 26 15 38 0 13 7 29 15 36 8 7 15 19 15 26 0 8 7 14 15 14 8 0
15 7 15 15 0 8 4 15 9 15 5 0 12 14 16 31 4 16 19 43 33 58 32 34 52 66 52 84
0 17 33 57 47 57 5 0 15 11 21 25 6 14 16 25 22 25 5 0 10 4 10 9 0 13 119
131 133 131 6 0 26 17 44 37 26 29 36 34 46 24 9 -9 8 -18 -6 -42 -9 -17 -17
-50 -17 -74 0 -26 -6 -47 -15 -55 -19 -16 -19 -25 3 -46 14 -15 17 -39 19
-153 2 -151 8 -229 17 -238 10 -10 7 -141 -4 -148 -5 -3 -10 -15 -10 -26 0
-10 -9 -36 -20 -56 -11 -21 -20 -45 -20 -54 0 -8 -11 -22 -25 -29 -14 -7 -25
-18 -25 -24 0 -6 -14 -20 -30 -31 -16 -11 -30 -23 -30 -26 0 -3 -11 -18 -24
-34 -13 -15 -27 -41 -30 -57 -3 -16 -13 -36 -21 -44 -19 -19 -19 -73 0 -98 8
-11 15 -34 15 -51 0 -22 6 -33 23 -40 12 -6 23 -20 25 -32 2 -13 10 -23 18
-23 8 0 14 -9 14 -20 0 -11 7 -20 15 -20 8 0 15 -5 15 -11 0 -6 8 -8 18 -6 9
3 38 8 64 12 34 4 58 16 88 42 95 84 122 115 127 150 3 19 12 37 19 40 8 3 14
18 14 33 0 16 4 31 9 34 4 3 10 68 14 145 3 91 10 150 20 172 8 19 18 57 21
84 4 28 11 52 16 53 6 2 10 17 10 33 0 19 5 29 15 29 11 0 15 11 15 35 0 24 8
45 25 62 13 15 27 41 31 58 3 16 12 37 19 45 7 8 26 40 43 72 16 31 36 64 43
73 42 51 67 74 72 68 4 -3 7 4 7 17 0 14 9 33 20 45 10 11 45 48 76 83 31 34
63 62 69 62 7 0 15 11 19 24 3 13 21 34 41 47 19 13 35 28 35 32 0 5 27 35 60
68 33 32 60 63 60 68 0 5 9 13 20 16 12 4 23 18 26 34 4 18 16 31 37 41 34 14
96 77 97 98 0 6 7 12 15 12 9 0 15 10 15 26 0 17 13 38 39 62 21 20 42 47 45
60 6 18 15 22 47 22 21 0 39 5 39 10 0 6 27 10 60 10 53 0 60 -2 60 -20z
m11200 10 c0 -5 18 -10 39 -10 32 0 41 -4 47 -22 3 -13 24 -40 45 -60 26 -24
39 -45 39 -62 0 -16 6 -26 15 -26 8 0 15 -6 15 -12 1 -21 63 -84 97 -98 21
-10 33 -23 37 -41 3 -16 14 -30 26 -34 11 -3 20 -11 20 -16 0 -5 27 -36 60
-68 33 -33 60 -63 60 -68 0 -4 16 -19 35 -32 20 -13 38 -34 41 -47 4 -13 12
-24 19 -24 6 0 38 -28 69 -62 31 -35 66 -72 76 -83 11 -12 20 -31 20 -45 0
-13 3 -20 7 -17 5 6 30 -17 72 -68 7 -9 27 -42 43 -73 17 -32 36 -64 43 -72 7
-8 16 -29 19 -45 4 -17 18 -43 31 -58 17 -17 25 -38 25 -62 0 -24 4 -35 15
-35 10 0 15 -10 15 -29 0 -16 4 -31 10 -33 5 -1 12 -25 16 -53 3 -27 13 -65
21 -84 10 -22 17 -81 20 -172 4 -77 10 -142 14 -145 5 -3 9 -18 9 -34 0 -15 6
-30 14 -33 7 -3 16 -21 19 -40 5 -35 32 -66 127 -150 30 -26 54 -38 88 -42 26
-4 55 -9 65 -12 9 -2 17 0 17 6 0 6 7 11 15 11 8 0 15 9 15 20 0 11 6 20 14
20 8 0 16 10 18 23 2 12 13 26 26 32 16 7 22 18 22 40 0 17 7 40 15 51 19 25
19 79 0 98 -8 8 -18 28 -21 44 -3 16 -17 42 -30 57 -13 16 -24 31 -24 34 0 3
-14 15 -30 26 -16 11 -30 25 -30 31 0 6 -11 17 -25 24 -14 7 -25 21 -25 29 0
9 -9 33 -20 54 -11 20 -20 46 -20 56 0 11 -4 23 -10 26 -11 7 -14 138 -4 148
9 9 15 87 17 238 2 114 5 138 20 153 21 21 21 30 2 46 -9 8 -15 29 -15 55 0
24 -8 57 -17 74 -14 24 -15 33 -6 42 10 10 20 5 46 -24 18 -20 38 -37 44 -37
14 0 133 -118 133 -131 0 -5 5 -9 10 -9 6 0 16 -11 22 -25 6 -14 16 -25 21
-25 14 0 47 -40 47 -57 0 -18 20 -50 52 -84 14 -15 29 -42 33 -58 4 -17 11
-31 16 -31 5 0 9 -7 9 -15 0 -8 7 -15 15 -15 8 0 15 -6 15 -14 0 -7 7 -19 15
-26 8 -7 15 -23 15 -36 0 -12 7 -29 15 -38 8 -8 15 -22 15 -30 0 -9 5 -16 10
-16 6 0 10 -9 10 -19 0 -11 9 -22 20 -26 19 -6 40 -58 40 -97 0 -10 5 -18 10
-18 6 0 10 -12 10 -27 0 -19 10 -36 30 -53 23 -19 31 -34 32 -62 1 -21 5 -38
10 -38 4 0 8 -22 8 -50 0 -36 4 -50 14 -50 14 0 26 -48 26 -107 0 -17 5 -35
10 -38 6 -3 10 -21 10 -40 0 -18 6 -40 13 -47 16 -17 37 -169 43 -319 l5 -115
-26 -12 c-30 -14 -65 -16 -65 -3 0 5 -22 11 -48 13 -43 4 -56 12 -110 64 -43
40 -64 69 -68 91 -3 18 -10 33 -15 33 -5 0 -9 9 -9 21 0 11 -4 17 -10 14 -5
-3 -10 3 -10 14 0 27 -36 28 -70 1 -14 -11 -39 -20 -57 -20 -22 0 -33 -6 -38
-19 -9 -28 -77 -41 -215 -41 -95 0 -125 3 -136 15 -9 8 -24 15 -35 15 -10 0
-19 4 -19 9 0 5 -20 12 -45 15 -24 4 -47 11 -50 17 -12 19 -67 9 -91 -17 -13
-14 -24 -29 -24 -34 0 -5 -9 -12 -20 -15 -11 -4 -31 -17 -44 -30 -17 -17 -31
-22 -47 -18 -29 8 -72 49 -93 90 -9 18 -21 33 -26 33 -16 0 -60 -23 -60 -31 0
-17 -62 -68 -91 -74 -17 -4 -35 -16 -40 -29 -7 -15 -30 -27 -75 -41 -35 -11
-64 -25 -64 -32 0 -9 -15 -13 -44 -13 -25 0 -48 -5 -51 -10 -3 -6 -35 -10 -71
-10 -38 0 -64 -4 -64 -11 0 -13 -197 -6 -260 9 -25 6 -62 14 -82 17 -24 4 -38
11 -38 20 0 9 -10 15 -25 15 -13 0 -35 11 -49 25 -14 14 -36 25 -49 25 -16 0
-31 10 -42 28 -10 15 -24 31 -31 35 -7 4 -18 26 -24 47 -9 35 -14 40 -40 40
-20 0 -30 -5 -30 -15 0 -19 -42 -85 -54 -85 -5 0 -19 -11 -32 -25 -13 -14 -33
-25 -45 -25 -14 0 -38 -16 -60 -40 -33 -36 -44 -41 -84 -42 -25 0 -45 -3 -45
-7 0 -3 -15 -13 -32 -21 -25 -11 -63 -14 -153 -12 -66 1 -129 6 -140 11 -35
15 -91 31 -107 31 -8 0 -23 9 -33 20 -9 10 -34 25 -54 31 -20 7 -42 20 -49 31
-20 27 -33 23 -91 -32 -38 -36 -61 -50 -81 -50 -16 0 -30 -4 -32 -9 -5 -15
-121 -17 -126 -3 -2 7 -16 12 -32 12 -16 0 -30 7 -34 15 -3 8 -12 15 -19 15
-16 0 -67 61 -67 79 0 14 -47 15 -52 2 -4 -14 -115 -29 -230 -33 -80 -2 -100
0 -110 14 -7 8 -30 24 -51 33 -42 20 -90 61 -100 88 -3 9 -13 17 -22 17 -9 0
-18 12 -21 30 -7 35 -11 36 -41 11 -20 -17 -23 -29 -23 -95 0 -72 -1 -76 -30
-98 -16 -12 -32 -30 -36 -40 -3 -10 -12 -18 -20 -18 -8 0 -14 -4 -14 -9 0 -5
-13 -11 -28 -14 -29 -6 -102 -68 -102 -86 0 -6 -9 -11 -20 -11 -19 0 -20 7
-20 103 1 137 36 390 61 439 5 9 13 47 19 85 6 37 17 81 25 98 7 16 16 48 20
70 3 22 12 54 20 70 7 17 19 51 26 78 6 26 15 47 20 47 4 0 10 13 14 30 4 17
11 30 16 30 5 0 9 9 9 20 0 11 4 20 8 20 5 0 14 22 21 48 6 27 21 55 31 62 11
8 23 28 26 46 3 17 24 50 46 73 22 24 47 63 55 88 8 24 26 51 38 59 13 9 27
28 30 44 4 16 15 32 26 35 10 4 19 15 19 27 0 11 8 22 20 25 11 3 20 10 20 16
0 21 65 77 91 77 l26 0 -6 -82 c-7 -119 -7 -170 3 -489 9 -291 5 -349 -20
-349 -8 0 -14 -4 -14 -8 0 -12 -46 -32 -71 -32 -39 0 -49 -23 -49 -109 0 -47
4 -81 10 -81 5 0 15 -20 21 -45 6 -25 17 -45 23 -45 6 0 20 -11 30 -25 10 -14
34 -29 53 -34 36 -10 93 -4 93 9 0 4 20 13 45 19 25 6 45 16 45 21 0 6 7 10
15 10 8 0 15 5 15 10 0 6 11 21 24 33 13 13 31 49 41 85 10 34 21 62 25 62 10
0 24 115 21 173 -2 26 5 80 15 119 12 52 14 73 6 76 -14 4 -16 53 -4 68 15 16
31 88 35 151 3 50 8 67 28 85 19 18 24 34 26 77 1 38 7 57 17 63 11 6 16 24
16 58 0 43 3 50 19 50 15 0 20 10 26 50 4 28 11 50 15 50 5 0 11 14 15 30 4
17 11 30 16 30 5 0 9 12 9 26 0 16 10 34 25 46 14 11 25 26 25 34 0 8 5 14 10
14 6 0 10 7 10 16 0 8 11 30 25 48 14 18 25 38 25 44 0 7 3 12 8 12 12 0 45
77 38 89 -4 6 0 11 8 11 9 0 16 5 16 10 0 6 6 10 13 10 7 0 18 19 25 43 9 32
19 45 44 57 18 8 32 19 30 23 -2 4 10 20 25 35 16 15 33 41 38 57 8 23 21 34
53 45 23 8 42 20 42 27 0 7 7 13 15 13 8 0 15 5 15 10 0 6 16 10 35 10 19 0
35 5 35 10 0 6 7 10 15 10 8 0 15 4 15 9 0 5 18 7 40 4 31 -4 41 -2 46 11 4
11 18 16 45 16 39 0 53 -15 24 -26 -8 -4 -15 -12 -15 -20 0 -8 -7 -14 -15 -14
-8 0 -15 -4 -15 -9 0 -5 -14 -11 -31 -15 -37 -7 -56 -25 -65 -60 -3 -14 -10
-26 -15 -26 -5 0 -9 -7 -9 -15 0 -8 -7 -15 -15 -15 -8 0 -15 -7 -15 -15 0 -8
-7 -15 -15 -15 -8 0 -15 -4 -15 -9 0 -5 -18 -28 -40 -50 -22 -22 -40 -44 -40
-48 0 -5 -9 -15 -20 -23 -11 -8 -20 -20 -20 -27 0 -7 -5 -13 -11 -13 -16 0
-37 -25 -45 -54 -3 -14 -10 -26 -15 -26 -5 0 -9 -9 -9 -19 0 -10 -7 -21 -15
-25 -8 -3 -15 -15 -15 -26 0 -22 -21 -50 -38 -50 -5 0 -13 -11 -16 -25 -4 -14
-11 -25 -16 -25 -6 0 -10 -17 -10 -39 0 -30 -4 -40 -20 -44 -14 -3 -20 -14
-20 -31 0 -14 -4 -26 -10 -26 -5 0 -10 -17 -10 -38 0 -26 -6 -42 -20 -52 -11
-8 -20 -20 -20 -27 0 -7 -4 -13 -9 -13 -11 0 -40 -121 -48 -203 -4 -47 -10
-67 -19 -67 -10 0 -14 -16 -14 -60 0 -42 -4 -60 -13 -60 -10 0 -13 -44 -16
-195 -2 -172 -1 -195 13 -195 9 0 16 -7 16 -15 0 -8 5 -15 10 -15 6 0 10 -13
10 -30 0 -17 9 -39 20 -50 11 -11 22 -32 26 -47 7 -31 46 -73 67 -73 8 0 17
-9 20 -19 2 -11 15 -21 28 -23 15 -2 25 -12 29 -28 5 -21 15 -26 59 -35 29 -5
58 -18 65 -27 7 -10 17 -18 21 -18 4 0 13 -6 19 -14 22 -29 256 -41 291 -16 6
4 26 10 45 14 59 11 140 60 140 85 0 5 7 11 15 15 8 3 15 14 15 24 0 10 11 24
24 30 29 13 37 56 29 153 -4 46 -11 73 -20 76 -7 3 -13 11 -13 18 0 8 -9 16
-19 20 -11 3 -23 14 -26 24 -9 31 -46 43 -121 38 -38 -2 -78 -7 -89 -11 -55
-20 -65 -27 -65 -43 0 -10 -10 -23 -22 -28 -13 -6 -24 -20 -26 -32 -2 -16 -10
-23 -25 -23 -12 0 -32 -3 -44 -6 -17 -5 -24 -1 -29 12 -3 11 -12 31 -20 46
-23 44 -19 170 9 221 12 23 25 44 30 45 4 2 7 9 7 16 0 20 58 65 78 59 23 -6
52 21 52 47 0 11 -12 31 -26 45 -14 14 -24 33 -23 43 2 9 -1 28 -5 41 -10 28
3 233 14 226 8 -5 46 67 56 108 3 15 10 27 15 27 5 0 9 5 9 11 0 6 11 20 25
31 14 11 25 30 25 44 0 17 5 24 20 24 18 0 100 71 100 86 0 9 24 30 42 37 11
4 15 12 12 22 -4 10 0 15 10 15 9 0 16 7 16 15 0 8 5 15 10 15 6 0 10 6 10 13
0 7 16 30 35 51 19 22 35 49 35 62 0 17 6 24 20 24 16 0 20 7 20 30 0 17 4 30
9 30 5 0 11 14 15 30 7 38 24 39 31 3 9 -43 20 -58 44 -61 14 -2 21 -11 21
-25 0 -12 13 -33 30 -47 17 -14 30 -33 30 -42 0 -10 5 -18 12 -18 7 0 21 -9
33 -20 11 -10 29 -27 40 -38 33 -30 65 -71 65 -82 0 -6 7 -10 15 -10 8 0 15
-7 15 -15 0 -9 7 -18 15 -21 8 -4 15 -12 15 -20 0 -8 5 -14 11 -14 17 0 59
-52 59 -72 0 -9 14 -29 30 -45 17 -15 33 -43 36 -61 4 -18 14 -38 24 -45 23
-16 40 -78 40 -144 0 -29 5 -53 11 -55 6 -2 14 -27 17 -56 4 -43 2 -52 -12
-52 -12 0 -16 -9 -16 -35 0 -19 -4 -35 -10 -35 -5 0 -10 -6 -10 -14 0 -12 16
-14 90 -9 64 4 90 3 90 -6 0 -6 15 -11 34 -11 28 0 35 -4 40 -25 4 -14 13 -25
21 -25 8 0 15 -8 15 -18 0 -11 9 -27 20 -37 11 -10 20 -31 20 -47 0 -15 5 -28
11 -28 7 0 8 -7 4 -17 -5 -10 -9 -36 -10 -58 -3 -54 -16 -115 -24 -115 -4 0
-14 -11 -21 -25 -7 -14 -19 -25 -26 -25 -7 0 -14 -5 -16 -11 -2 -7 -34 -12
-78 -13 l-75 -1 3 36 c2 26 -1 38 -12 42 -9 4 -16 13 -16 21 0 9 -20 35 -44
60 l-43 45 -102 7 c-85 6 -101 5 -101 -8 0 -8 -11 -21 -25 -28 -14 -7 -25 -19
-25 -27 0 -7 -4 -13 -10 -13 -5 0 -10 -6 -10 -14 0 -8 -8 -22 -17 -31 -10 -10
-18 -39 -21 -71 -2 -30 -8 -54 -13 -54 -16 0 -10 -70 6 -76 8 -4 15 -14 15
-25 0 -28 22 -69 37 -69 7 0 13 -6 13 -14 0 -16 68 -76 87 -76 7 0 13 -6 13
-13 0 -23 37 -45 89 -52 28 -4 51 -11 51 -16 0 -5 59 -9 130 -9 79 0 130 4
130 10 0 5 18 13 40 16 22 4 40 10 40 15 0 5 17 9 38 9 26 0 42 6 52 20 8 11
19 20 26 20 6 0 29 18 52 39 23 22 50 42 62 46 11 3 20 15 20 26 0 14 9 21 30
26 21 4 30 11 30 24 0 11 5 19 10 19 6 0 10 6 10 14 0 7 6 19 14 25 16 13 66
112 66 129 0 6 8 26 18 44 10 18 22 55 25 82 4 28 11 52 16 56 11 6 18 107 8
116 -3 4 -4 26 0 50 3 27 1 49 -6 58 -6 8 -14 37 -18 66 -3 29 -12 54 -19 57
-9 3 -14 21 -14 44 0 21 -4 39 -10 39 -5 0 -10 7 -10 15 0 8 -4 15 -10 15 -5
0 -10 9 -10 19 0 11 -4 23 -10 26 -5 3 -10 17 -10 30 0 17 -6 25 -22 27 -16 2
-24 11 -26 28 -2 13 -13 32 -23 41 -10 9 -19 20 -19 25 0 5 -16 24 -35 43 -19
19 -35 38 -35 43 0 5 -11 19 -25 32 -14 13 -25 28 -25 35 0 6 -9 11 -20 11
-13 0 -22 9 -26 25 -4 16 -13 25 -25 25 -10 0 -19 5 -19 11 0 10 -67 79 -77
79 -9 0 -33 29 -33 39 0 6 -4 11 -10 11 -5 0 -10 7 -10 15 0 8 -6 15 -13 15
-7 0 -24 13 -37 30 -14 16 -29 29 -33 30 -12 0 -37 27 -37 39 0 6 -4 11 -10
11 -5 0 -10 7 -10 15 0 8 -6 15 -14 15 -7 0 -21 16 -30 35 -9 19 -21 35 -26
35 -6 0 -10 7 -10 15 0 8 -7 15 -15 15 -8 0 -15 5 -15 10 0 6 -7 10 -15 10 -8
0 -15 7 -15 15 0 8 -4 15 -10 15 -5 0 -10 4 -10 10 0 14 -63 80 -77 80 -7 0
-10 7 -7 15 4 9 0 15 -10 15 -9 0 -16 6 -16 14 0 8 -7 16 -15 20 -8 3 -15 17
-15 31 0 14 -4 25 -10 25 -5 0 -10 9 -10 20 0 18 7 20 60 20 33 0 60 -4 60
-10z m-13730 -31 c0 -13 59 -67 82 -75 10 -3 21 -16 24 -29 4 -18 15 -26 41
-31 19 -4 37 -13 40 -20 3 -8 13 -14 23 -14 11 0 22 -4 25 -10 3 -5 13 -10 21
-10 17 0 64 -44 64 -60 0 -5 4 -10 8 -10 9 0 32 -59 32 -82 0 -9 5 -18 11 -20
14 -5 -7 -108 -22 -108 -5 0 -9 -7 -9 -16 0 -27 -51 -84 -75 -84 -13 0 -25 -4
-27 -10 -5 -17 -75 9 -96 35 -12 15 -30 25 -46 25 -21 0 -26 -5 -26 -25 0 -14
3 -25 8 -25 17 0 50 -107 51 -170 1 -24 3 -52 6 -61 3 -9 -1 -24 -10 -32 -8
-9 -15 -27 -15 -40 0 -14 -6 -27 -14 -30 -7 -3 -16 -21 -20 -39 -3 -19 -15
-40 -26 -48 -11 -8 -20 -20 -20 -27 0 -7 -4 -13 -10 -13 -5 0 -10 -6 -10 -13
0 -7 -9 -18 -20 -25 -11 -7 -20 -19 -20 -27 0 -8 -7 -15 -17 -15 -15 0 -15 39
-9 508 4 298 11 508 17 510 5 2 9 26 9 53 0 37 4 49 15 49 8 0 15 -5 15 -11z
m16170 -38 c0 -27 4 -51 9 -53 6 -2 13 -212 17 -510 6 -469 6 -508 -9 -508
-10 0 -17 7 -17 15 0 8 -9 20 -20 27 -11 7 -20 18 -20 25 0 7 -4 13 -10 13 -5
0 -10 6 -10 13 0 7 -9 19 -20 27 -11 8 -23 29 -26 48 -4 18 -13 36 -20 39 -8
3 -14 16 -14 30 0 13 -7 31 -15 40 -9 8 -13 23 -10 32 3 9 5 37 6 61 1 63 34
170 51 170 5 0 8 11 8 25 0 20 -5 25 -26 25 -16 0 -34 -10 -46 -25 -21 -26
-91 -52 -96 -35 -2 6 -14 10 -27 10 -24 0 -75 57 -75 84 0 9 -4 16 -9 16 -15
0 -36 103 -22 108 6 2 11 11 11 20 0 23 23 82 32 82 4 0 8 5 8 10 0 16 47 60
64 60 8 0 18 5 21 10 3 6 14 10 25 10 10 0 20 6 23 14 3 7 21 16 40 20 26 5
37 13 41 31 3 13 14 26 24 29 23 8 82 62 82 75 0 6 7 11 15 11 11 0 15 -12 15
-49z m-8076 -197 c3 -9 6 -22 6 -30 0 -8 11 -26 25 -40 14 -14 25 -31 25 -39
0 -8 5 -15 10 -15 6 0 10 -6 10 -14 0 -8 10 -16 23 -18 12 -2 26 -13 32 -25 5
-13 13 -23 17 -23 5 0 8 -16 8 -35 0 -24 5 -35 15 -35 8 0 15 -4 15 -10 0 -5
16 -20 35 -32 19 -13 35 -27 35 -33 1 -5 18 -23 39 -40 38 -30 53 -55 66 -110
4 -16 11 -32 16 -36 27 -17 57 -310 33 -328 -5 -3 -10 -19 -11 -36 -1 -16 -6
-31 -12 -33 -6 -2 -11 -17 -11 -33 0 -25 4 -29 29 -29 17 0 33 5 36 10 9 14
77 12 98 -4 9 -7 17 -21 17 -30 0 -10 8 -16 25 -16 14 0 25 -4 25 -10 0 -5 6
-10 13 -10 7 0 21 -12 32 -27 11 -14 26 -32 33 -39 6 -7 12 -24 12 -39 0 -14
10 -36 23 -48 19 -19 22 -30 19 -74 -2 -29 -8 -53 -13 -53 -5 0 -9 -13 -9 -30
0 -16 -4 -30 -10 -30 -5 0 -10 -9 -10 -20 0 -11 -4 -20 -10 -20 -5 0 -10 -5
-10 -11 0 -6 -9 -24 -21 -40 -27 -38 -55 -38 -64 1 -4 16 -10 30 -15 30 -4 0
-13 12 -19 28 -24 65 -40 72 -150 72 -61 0 -101 -4 -101 -10 0 -5 -7 -10 -15
-10 -8 0 -15 -4 -15 -10 0 -5 -7 -10 -15 -10 -8 0 -15 -7 -15 -15 0 -8 -4 -15
-8 -15 -16 0 -52 -37 -52 -53 0 -8 -4 -17 -10 -19 -5 -2 -13 -58 -16 -124 -6
-104 -5 -125 10 -145 9 -13 16 -31 16 -41 0 -10 4 -18 9 -18 5 0 12 -12 15
-26 7 -26 28 -54 42 -54 4 0 20 -13 36 -30 15 -16 35 -30 43 -30 8 0 15 -4 15
-10 0 -5 13 -10 29 -10 17 0 32 -4 35 -9 8 -12 119 -26 176 -22 25 2 49 10 56
19 8 11 20 13 42 9 18 -4 32 -3 32 1 0 4 18 16 40 26 22 11 40 23 40 28 0 4 9
8 19 8 30 0 51 11 51 26 0 7 12 19 28 26 15 7 31 23 37 35 5 12 22 28 37 34
16 6 28 17 28 24 0 7 6 18 14 24 8 7 18 26 21 42 4 16 14 35 24 41 9 7 25 40
34 73 10 33 24 74 32 90 7 17 16 55 19 84 4 30 10 57 14 60 10 7 10 -1 16 271
4 130 2 244 -4 270 -5 25 -16 75 -25 112 -8 37 -15 81 -15 98 0 16 -4 30 -10
30 -5 0 -10 15 -10 33 0 17 -7 41 -15 51 -8 11 -15 30 -15 42 0 12 -7 27 -15
34 -8 7 -17 27 -21 46 -3 19 -10 34 -15 34 -5 0 -9 15 -9 34 0 19 -4 37 -9 41
-5 3 -12 18 -16 34 -3 16 -13 35 -21 42 -8 6 -14 23 -14 36 0 14 -10 33 -22
43 -18 14 -20 21 -11 31 9 9 19 8 46 -5 19 -9 42 -16 51 -16 9 0 16 -7 16 -15
0 -8 8 -15 18 -15 25 0 112 -85 112 -110 0 -11 5 -20 10 -20 6 0 10 -16 10
-35 0 -19 5 -35 10 -35 6 0 10 -9 10 -20 0 -11 7 -23 15 -26 11 -5 15 -21 15
-59 0 -30 5 -57 10 -60 6 -3 10 -17 10 -30 0 -13 5 -27 10 -30 6 -3 10 -29 10
-56 0 -39 5 -56 25 -77 21 -22 25 -37 25 -87 0 -33 5 -98 10 -145 24 -195 27
-225 21 -230 -13 -11 -31 -103 -31 -160 0 -33 -4 -60 -10 -60 -16 0 -13 -259
3 -290 7 -14 19 -58 27 -97 10 -57 17 -73 30 -73 10 0 33 -18 53 -40 19 -22
42 -40 51 -40 8 0 32 -10 53 -21 34 -19 48 -21 133 -16 96 6 150 22 150 45 0
6 9 12 19 12 12 0 26 15 40 44 11 25 28 49 37 54 13 7 17 25 17 78 1 74 -4 85
-73 153 l-34 34 -86 -6 c-107 -8 -125 2 -134 70 -17 128 -17 141 -1 156 8 9
15 26 15 40 0 13 11 36 25 51 14 15 25 38 25 52 0 25 20 54 37 54 5 0 15 22
22 49 7 28 17 51 21 53 5 2 12 51 16 111 4 59 10 107 15 107 12 0 47 -54 55
-86 4 -16 15 -36 26 -45 10 -9 18 -20 18 -25 0 -5 9 -17 20 -27 11 -9 20 -26
20 -37 0 -11 4 -20 10 -20 5 0 12 -11 16 -24 3 -14 12 -27 20 -30 8 -3 14 -16
14 -30 0 -14 5 -28 10 -31 6 -3 10 -14 10 -25 0 -10 6 -20 14 -23 7 -3 16 -22
20 -41 4 -20 11 -36 15 -36 5 0 12 -15 15 -34 4 -19 12 -36 18 -38 6 -2 13
-28 16 -58 3 -36 11 -61 23 -71 11 -9 19 -30 19 -48 0 -17 5 -31 10 -31 6 0
10 -10 9 -22 -5 -55 2 -98 14 -98 19 0 41 -212 42 -405 0 -147 -1 -160 -18
-163 -31 -6 -61 6 -92 38 -16 17 -38 38 -47 48 -10 9 -18 27 -18 39 0 20 -5
23 -35 23 -21 0 -38 -6 -41 -14 -3 -8 -19 -20 -35 -26 -16 -7 -29 -17 -29 -22
0 -18 -29 -38 -54 -38 -14 0 -26 -4 -26 -9 0 -8 -11 -11 -100 -26 -19 -3 -60
-11 -91 -16 -46 -9 -76 -8 -155 6 -55 10 -108 24 -119 31 -11 8 -27 14 -37 14
-10 0 -18 6 -18 13 -1 13 -66 47 -91 47 -16 0 -73 57 -82 83 -4 11 -17 17 -37
17 -24 0 -45 -13 -91 -57 -34 -32 -71 -68 -84 -80 -13 -13 -29 -23 -35 -23 -5
0 -10 -6 -10 -14 0 -9 -18 -15 -52 -19 -29 -4 -54 -11 -56 -17 -2 -5 -19 -17
-37 -26 -62 -29 -474 -8 -510 27 -5 5 -17 9 -27 9 -9 0 -33 9 -53 20 -20 11
-42 20 -50 20 -8 0 -15 6 -15 14 0 7 -8 17 -17 20 -42 16 -60 31 -74 60 l-14
31 -3 -29 c-4 -29 -36 -65 -59 -66 -7 0 -13 -7 -13 -15 0 -8 -7 -15 -15 -15
-8 0 -30 -9 -50 -20 -20 -11 -44 -20 -53 -20 -10 0 -22 -4 -27 -9 -21 -20
-129 -34 -299 -38 -148 -4 -184 -2 -211 11 -18 9 -35 21 -37 26 -2 6 -27 13
-56 17 -34 4 -52 10 -52 19 0 8 -5 14 -10 14 -6 0 -22 10 -35 22 -13 13 -50
49 -84 80 -46 45 -67 58 -91 58 -20 0 -33 -6 -37 -17 -9 -26 -66 -83 -82 -83
-25 0 -90 -34 -91 -47 0 -7 -8 -13 -18 -13 -10 0 -26 -6 -37 -14 -11 -7 -64
-21 -119 -31 -79 -14 -109 -15 -155 -6 -31 5 -72 13 -91 16 -89 15 -100 18
-100 26 0 5 -12 9 -26 9 -25 0 -54 20 -54 38 0 5 -13 15 -29 22 -16 6 -32 18
-35 26 -3 8 -20 14 -41 14 -30 0 -35 -3 -35 -23 0 -12 -8 -30 -17 -39 -10 -10
-31 -31 -48 -48 -31 -32 -61 -44 -92 -38 -17 3 -18 16 -18 163 1 193 23 405
42 405 12 0 19 43 14 98 -1 12 3 22 9 22 5 0 10 14 10 31 0 18 8 39 19 48 12
10 20 35 23 71 3 30 10 56 16 58 6 2 14 19 18 38 3 19 10 34 15 34 4 0 11 16
15 36 4 19 13 38 20 41 8 3 14 13 14 23 0 11 5 22 10 25 6 3 10 17 10 31 0 14
6 27 14 30 8 3 17 16 20 30 4 13 11 24 16 24 6 0 10 9 10 20 0 11 9 28 20 37
11 10 20 22 20 27 0 5 8 16 18 25 11 9 22 29 26 45 8 32 43 86 55 86 5 0 11
-48 15 -107 4 -60 11 -109 16 -111 4 -2 14 -25 21 -53 7 -27 17 -49 22 -49 17
0 37 -29 37 -54 0 -14 11 -37 25 -52 14 -15 25 -38 25 -51 0 -14 7 -31 15 -40
16 -15 16 -28 -1 -156 -9 -68 -27 -78 -134 -70 l-86 6 -34 -34 c-69 -68 -74
-79 -73 -153 0 -53 4 -71 17 -78 9 -5 26 -29 37 -54 14 -29 28 -44 40 -44 10
0 19 -6 19 -12 0 -23 54 -39 150 -45 85 -5 99 -3 133 16 21 11 45 21 53 21 9
0 32 18 51 40 20 22 43 40 53 40 13 0 20 16 30 73 8 39 20 83 27 97 16 31 19
290 3 290 -6 0 -10 27 -10 60 0 57 -18 149 -31 160 -6 5 -3 35 21 230 5 47 10
112 10 145 0 50 4 65 25 87 20 21 25 38 25 77 0 27 5 53 10 56 6 3 10 17 10
30 0 13 5 27 10 30 6 3 10 30 10 60 0 38 4 54 15 59 8 3 15 15 15 26 0 11 5
20 10 20 6 0 10 16 10 35 0 19 5 35 10 35 6 0 10 9 10 20 0 25 87 110 112 110
10 0 18 7 18 15 0 8 7 15 16 15 9 0 32 7 51 16 27 13 37 14 46 5 9 -10 7 -17
-10 -31 -13 -10 -23 -29 -23 -43 0 -13 -6 -30 -14 -36 -8 -7 -18 -26 -21 -42
-4 -16 -11 -31 -16 -34 -5 -4 -9 -22 -9 -41 0 -19 -4 -34 -9 -34 -5 0 -12 -15
-15 -34 -4 -19 -13 -39 -21 -46 -8 -7 -15 -22 -15 -34 0 -12 -7 -31 -15 -42
-8 -10 -15 -34 -15 -51 0 -18 -4 -33 -10 -33 -5 0 -10 -14 -10 -30 0 -17 -7
-61 -15 -98 -9 -37 -20 -87 -25 -112 -6 -26 -8 -140 -4 -270 6 -272 6 -264 16
-271 4 -3 10 -30 14 -60 3 -29 12 -67 19 -84 8 -16 22 -57 32 -90 9 -33 25
-66 34 -73 10 -6 20 -25 24 -41 3 -16 13 -35 21 -42 8 -6 14 -17 14 -24 0 -7
12 -18 28 -24 15 -6 32 -22 37 -34 6 -12 22 -28 38 -35 15 -7 27 -19 27 -26 0
-15 21 -26 51 -26 10 0 19 -4 19 -8 0 -5 18 -17 40 -28 22 -10 40 -22 40 -26
0 -4 14 -5 32 -1 22 4 34 2 42 -9 7 -9 31 -17 56 -19 57 -4 168 10 176 22 3 5
18 9 35 9 16 0 29 5 29 10 0 6 7 10 15 10 8 0 28 14 43 30 16 17 32 30 36 30
14 0 35 28 42 54 3 14 10 26 15 26 5 0 9 8 9 18 0 10 7 28 16 41 15 20 16 41
10 145 -3 66 -11 123 -16 124 -6 2 -10 11 -10 19 0 16 -36 53 -52 53 -4 0 -8
7 -8 15 0 8 -7 15 -15 15 -8 0 -15 5 -15 10 0 6 -7 10 -15 10 -8 0 -15 5 -15
10 0 6 -40 10 -101 10 -110 0 -126 -7 -150 -72 -6 -16 -15 -28 -19 -28 -5 0
-11 -14 -15 -30 -9 -39 -37 -39 -64 -1 -12 16 -21 34 -21 40 0 6 -4 11 -10 11
-5 0 -10 9 -10 20 0 11 -4 20 -10 20 -5 0 -10 14 -10 30 0 17 -4 30 -9 30 -5
0 -11 24 -13 53 -3 44 0 55 19 74 13 12 23 34 23 48 0 15 6 32 13 39 6 7 21
25 32 39 11 15 25 27 32 27 7 0 13 5 13 10 0 6 11 10 25 10 17 0 25 6 25 16 0
9 8 23 18 30 20 16 88 18 97 4 3 -5 19 -10 36 -10 25 0 29 4 29 29 0 16 -5 31
-11 33 -6 2 -11 17 -12 33 -1 17 -6 33 -11 36 -24 18 6 311 33 328 5 4 12 20
16 36 13 55 28 80 66 110 21 17 38 35 39 40 0 6 16 20 35 33 19 12 35 27 35
32 0 6 7 10 15 10 10 0 15 11 15 35 0 19 3 35 8 35 4 0 12 10 17 23 6 12 20
23 33 25 12 2 22 10 22 18 0 8 5 14 10 14 6 0 10 7 10 15 0 8 11 25 25 39 14
14 25 32 25 40 0 27 12 46 30 46 10 0 21 -7 24 -16z"/>
</g>
</svg>
