<?xml version="1.0" standalone="no"?>
<!DOCTYPE svg PUBLIC "-//W3C//DTD SVG 20010904//EN"
 "http://www.w3.org/TR/2001/REC-SVG-20010904/DTD/svg10.dtd">
<svg version="1.0" xmlns="http://www.w3.org/2000/svg"
 width="1689.000000pt" height="399.000000pt" viewBox="0 0 1689.000000 399.000000"
 preserveAspectRatio="xMidYMid meet">
<metadata>
Created by potrace 1.13, written by Peter Selinger 2001-2015
</metadata>
<g transform="translate(0.000000,399.000000) scale(0.100000,-0.100000)"
fill="#000000" stroke="none">
<path d="M185 3961 c-30 -6 -30 -7 -33 -76 -1 -39 -7 -79 -12 -90 -12 -23 21
-167 39 -173 6 -2 11 -10 11 -18 0 -8 4 -14 10 -14 5 0 9 -8 8 -17 -2 -34 2
-53 13 -53 5 0 40 -32 76 -70 49 -52 71 -69 84 -65 12 4 29 -3 46 -19 18 -17
43 -27 79 -32 51 -6 53 -7 69 -50 13 -36 14 -48 5 -59 -8 -10 -10 -29 -7 -52
5 -27 2 -42 -10 -56 -15 -16 -15 -19 -3 -28 13 -8 13 -10 0 -19 -10 -6 -11
-13 -5 -17 6 -5 12 -53 14 -108 1 -55 5 -103 7 -107 3 -4 4 -353 3 -775 -1
-423 -2 -788 -2 -813 0 -25 3 -77 7 -116 6 -61 4 -74 -10 -89 -15 -15 -16 -20
-4 -39 10 -16 13 -65 12 -196 -1 -96 -1 -178 -2 -182 0 -3 -37 -8 -82 -11 -80
-3 -199 -32 -206 -49 -2 -4 -8 -8 -13 -8 -10 0 -39 -22 -76 -57 -13 -13 -32
-27 -43 -33 -11 -6 -20 -15 -20 -20 0 -5 -20 -28 -44 -50 -33 -30 -45 -50 -50
-80 -4 -24 -12 -40 -20 -40 -9 0 -13 -19 -14 -69 -1 -62 1 -71 22 -84 12 -9
59 -19 104 -22 70 -7 92 -4 154 16 40 12 75 25 78 28 3 4 22 17 43 31 20 14
40 33 43 43 3 9 12 17 21 17 20 0 61 45 80 90 8 19 23 43 33 52 10 9 21 33 24
54 8 38 26 64 45 64 6 0 11 5 11 11 0 8 15 10 48 5 27 -3 51 -4 54 -1 3 3 133
7 289 9 156 3 484 7 729 11 336 5 464 3 523 -6 56 -9 80 -10 85 -2 9 14 3042
15 3042 0 0 -5 7 -6 18 -1 24 11 2072 12 2072 1 0 -5 8 -6 18 -2 25 11 345 15
358 4 6 -5 240 -7 555 -3 299 3 567 4 594 2 56 -2 115 -3 220 -1 39 1 158 1
265 0 107 0 227 2 267 5 39 3 75 2 80 -2 4 -5 138 -10 296 -11 242 -2 290 0
298 12 8 12 11 12 19 -2 8 -13 50 -15 357 -13 191 2 403 5 470 8 68 3 125 1
128 -3 2 -5 908 -7 2012 -5 1105 2 2075 4 2157 4 82 1 169 -2 193 -6 26 -4 48
-2 56 5 9 7 69 8 193 3 l179 -7 3 -75 c2 -41 7 -79 12 -84 6 -6 10 -19 10 -31
0 -11 9 -27 20 -35 11 -8 20 -19 20 -25 1 -14 64 -80 84 -88 9 -4 16 -11 16
-17 0 -5 5 -10 12 -10 15 0 101 -41 109 -52 3 -5 30 -12 59 -17 30 -5 56 -14
58 -20 2 -7 29 -11 68 -11 61 0 64 1 70 27 5 17 3 28 -4 31 -15 5 -15 30 0 87
11 40 10 49 -10 90 -12 25 -22 54 -22 64 0 10 -12 29 -28 42 -15 13 -34 36
-41 51 -8 16 -20 28 -28 28 -7 0 -13 7 -13 15 0 8 -5 15 -11 15 -7 0 -22 11
-35 25 -13 14 -32 25 -43 25 -11 0 -22 9 -26 19 -7 22 -46 33 -123 35 -37 1
-54 5 -57 16 -2 8 -2 166 1 350 3 184 5 383 4 443 -1 72 2 107 9 107 7 0 10
21 9 60 -2 33 -6 60 -10 60 -13 0 -9 68 5 73 9 4 9 7 -1 15 -10 7 -12 42 -9
153 3 79 8 163 12 187 5 28 3 42 -4 42 -14 0 -14 85 0 112 9 16 8 23 -2 29
-12 7 -12 11 -1 17 15 10 12 101 -5 142 -20 47 -24 70 -15 70 16 0 21 39 10
71 -7 20 -6 54 2 112 17 109 21 529 6 540 -8 5 -7 9 2 15 7 5 10 15 7 23 -8
23 10 42 34 34 11 -3 21 -11 21 -16 0 -15 67 -10 80 6 7 8 23 15 35 15 14 0
43 19 71 46 34 32 58 47 77 47 21 0 27 5 27 22 0 12 14 36 30 53 17 18 30 39
30 47 0 8 6 15 13 15 20 0 69 106 73 161 2 20 8 48 13 62 19 48 -10 87 -53 71
-9 -3 -16 -2 -16 3 0 6 -37 10 -85 11 -65 0 -85 -3 -85 -14 0 -7 -17 -18 -37
-24 -21 -5 -55 -26 -75 -45 -20 -19 -39 -35 -42 -35 -10 0 -46 -39 -46 -50 0
-6 -6 -10 -12 -10 -7 0 -18 -10 -24 -23 -26 -52 -69 -132 -74 -137 -3 -3 -6
-21 -7 -40 -5 -79 2 -75 -135 -73 -85 2 -124 -1 -129 -9 -6 -9 -14 -9 -34 0
-32 15 -119 16 -159 1 -23 -8 -59 -7 -141 4 -79 10 -112 11 -117 3 -10 -16
-298 -21 -298 -6 0 12 -43 10 -118 -6 -21 -4 -43 -2 -57 6 -19 10 -30 10 -53
1 -34 -14 -213 -11 -224 4 -4 6 -23 5 -53 -3 -55 -15 -115 -16 -115 -2 0 15
-438 12 -443 -3 -2 -8 -19 -7 -59 2 -52 13 -125 11 -235 -5 -29 -4 -43 -2 -43
5 0 14 -47 15 -55 1 -8 -13 -85 -13 -85 0 0 11 -200 7 -287 -5 -35 -5 -53 -4
-53 3 0 9 -223 10 -350 2 -8 -1 -44 2 -80 5 -42 4 -72 2 -87 -6 -16 -9 -29 -9
-46 -2 -15 7 -699 11 -2132 13 -1161 2 -2135 3 -2165 3 -30 0 -107 0 -170 -1
-63 -1 -250 -1 -415 0 -165 2 -374 1 -465 0 -91 -2 -460 -1 -820 3 -360 3
-1139 6 -1730 7 -784 0 -1077 4 -1082 12 -6 8 -10 8 -15 0 -9 -14 -2533 -17
-2533 -3 0 4 -51 5 -112 2 -62 -3 -211 -6 -330 -6 l-218 -2 0 22 c0 12 5 25
11 29 6 3 9 19 5 35 -3 15 -1 31 4 34 26 16 -1 119 -36 138 -8 4 -14 19 -14
33 0 24 -7 37 -43 73 -10 10 -15 25 -11 34 4 11 1 17 -9 17 -8 0 -17 9 -20 20
-3 12 -14 20 -26 20 -12 0 -21 5 -21 10 0 6 -7 10 -15 10 -8 0 -15 7 -15 15 0
8 -7 15 -15 15 -8 0 -23 9 -32 20 -11 12 -30 20 -50 20 -17 0 -39 7 -48 16
-12 12 -27 15 -56 11 -21 -3 -39 -1 -39 4 0 10 -10 10 -55 0z m75 -51 c0 -5
16 -10 35 -10 19 0 35 -4 35 -10 0 -5 6 -10 13 -10 7 0 22 -8 33 -19 11 -10
31 -22 45 -26 13 -4 38 -23 56 -41 17 -19 36 -34 42 -34 6 0 11 -6 11 -13 0
-7 9 -19 20 -27 11 -8 23 -29 26 -47 4 -19 12 -33 20 -33 11 0 14 -18 14 -74
0 -62 -3 -77 -19 -88 -10 -7 -21 -23 -25 -35 -4 -13 -14 -23 -22 -23 -8 0 -14
-4 -14 -10 0 -19 -75 -11 -98 10 -12 11 -34 20 -49 20 -22 0 -34 9 -53 40 -14
22 -27 40 -30 40 -4 0 -12 16 -20 35 -8 19 -17 35 -22 35 -4 0 -8 6 -8 14 0 8
-9 21 -20 29 -10 7 -19 22 -19 33 0 10 -5 50 -13 88 -9 52 -10 70 -1 73 7 3 9
17 6 39 -5 30 -3 34 16 34 11 0 21 5 21 10 0 6 5 10 10 10 6 0 10 -4 10 -10z
m16470 -150 c0 -5 18 -10 40 -10 l40 0 0 -45 c0 -25 -4 -45 -10 -45 -5 0 -10
-7 -10 -15 0 -8 -4 -15 -10 -15 -5 0 -10 -16 -10 -35 0 -24 -5 -35 -15 -35 -8
0 -15 -6 -15 -13 0 -15 -47 -67 -60 -67 -6 0 -10 -5 -10 -12 0 -19 -79 -88
-101 -88 -10 0 -19 -6 -19 -14 0 -19 -63 -29 -120 -18 -42 7 -45 10 -52 47 -6
26 -5 41 2 43 5 2 10 10 10 18 0 33 52 126 95 171 25 27 45 51 45 56 0 4 9 7
20 7 11 0 20 5 20 10 0 6 9 10 19 10 11 0 26 7 35 15 8 8 26 15 41 15 14 0 28
7 31 15 7 17 34 21 34 5z m-15290 -463 c41 -2 80 -1 85 2 6 3 127 4 270 1 143
-3 350 -2 459 2 110 4 205 4 210 0 6 -3 148 -5 316 -3 340 5 336 5 545 3 83
-1 193 -2 245 -2 52 1 205 0 339 0 134 0 252 2 262 5 11 4 19 3 19 -2 0 -4
942 -7 2093 -7 1415 1 2131 -2 2211 -9 92 -9 121 -8 124 1 4 14 72 16 72 2 0
-5 18 -10 40 -10 23 0 40 5 40 11 0 8 16 9 53 4 85 -12 257 -15 257 -5 0 6 29
10 65 10 38 0 65 -4 65 -10 0 -13 252 -12 261 1 3 5 21 4 39 -1 45 -13 140
-13 140 0 0 6 7 10 15 10 8 0 15 -4 15 -9 0 -12 527 -13 569 -1 23 6 37 6 41
0 4 -7 373 -10 1076 -10 588 0 1892 0 2897 1 1447 0 1835 -3 1863 -13 25 -9
40 -9 52 -2 9 6 34 9 54 6 l38 -4 0 -409 c0 -266 3 -409 10 -409 6 0 10 -9 10
-20 0 -11 -4 -20 -10 -20 -6 0 -10 -67 -10 -180 0 -113 4 -180 10 -180 13 0
13 -107 0 -112 -8 -2 -11 -161 -10 -497 0 -456 -12 -805 -29 -824 -4 -4 -394
-9 -867 -12 -472 -2 -904 -6 -959 -8 -55 -2 -105 -1 -110 4 -6 4 -29 4 -50 -1
-26 -6 -63 -5 -104 2 -39 6 -103 8 -165 3 -112 -8 -128 -8 -301 -2 -66 3 -307
1 -535 -3 -228 -4 -420 -4 -425 1 -6 4 -94 5 -195 2 -102 -4 -736 -6 -1410 -4
-782 1 -1257 -2 -1315 -8 -51 -6 -91 -7 -95 -2 -3 5 -584 12 -1320 15 -723 3
-1580 8 -1904 11 -469 5 -591 4 -597 -6 -6 -11 -22 -11 -81 -1 -74 13 -802 15
-3743 11 -1326 -2 -1366 -1 -1384 10 -10 6 -14 43 -16 147 -9 506 -19 854 -26
854 -4 0 -5 48 -2 108 12 213 14 1272 3 1272 -14 0 -13 47 1 56 9 5 10 40 5
120 l-6 113 42 3 c55 4 660 0 758 -5z m-907 -2774 c5 -3 6 -12 2 -21 -3 -8 -2
-18 3 -21 5 -3 12 -18 16 -33 5 -21 0 -33 -19 -52 -14 -14 -25 -30 -25 -36 0
-5 -6 -10 -13 -10 -7 0 -19 -16 -27 -35 -14 -35 -47 -65 -72 -65 -7 0 -31 -16
-53 -35 -22 -19 -50 -35 -62 -35 -13 0 -23 -4 -23 -9 0 -5 -29 -12 -64 -16
-72 -8 -136 9 -136 35 0 61 49 145 127 222 80 79 102 95 129 102 16 4 45 11
64 16 33 8 136 4 153 -7z m15920 -4 c20 -5 37 -14 37 -19 0 -6 9 -10 20 -10
11 0 20 -4 20 -10 0 -5 9 -10 20 -10 11 0 42 -22 69 -50 27 -27 54 -50 60 -50
6 0 11 -15 11 -34 0 -19 7 -39 16 -47 27 -22 35 -59 28 -122 l-7 -59 -56 6
c-31 4 -57 11 -59 16 -2 6 -17 10 -33 10 -16 0 -29 3 -29 8 0 4 -20 16 -45 27
-25 11 -45 25 -45 32 0 7 -11 15 -25 19 -14 3 -25 12 -25 20 0 8 -4 14 -10 14
-5 0 -10 7 -10 15 0 8 -4 15 -8 15 -5 0 -17 17 -27 38 -10 20 -24 49 -32 64
-19 37 -16 85 6 107 33 33 62 38 124 20z"/>
<path d="M970 3102 c-30 -9 -60 -20 -66 -24 -15 -10 -10 -1031 6 -1036 17 -6
12 -62 -6 -62 -14 0 -16 -8 -10 -47 16 -115 19 -183 7 -183 -7 0 -11 -23 -11
-65 0 -36 4 -65 9 -65 6 0 10 -68 10 -166 0 -102 4 -171 10 -178 8 -10 7 -25
-4 -56 -17 -49 -20 -90 -5 -90 6 0 10 -55 10 -145 l0 -146 88 3 c48 1 872 1
1832 0 960 0 2080 -1 2490 -2 484 0 746 -4 748 -10 5 -13 49 -13 57 0 9 15
221 13 245 -2 16 -10 24 -10 40 0 24 15 230 17 230 2 0 -5 20 -10 45 -10 26 0
45 5 45 11 0 7 13 9 38 5 89 -16 122 -18 122 -7 0 15 172 15 187 0 7 -7 35 -9
79 -5 76 7 70 7 416 1 164 -4 248 -2 248 5 0 5 9 10 20 10 11 0 20 -5 20 -10
0 -7 1236 -11 3863 -11 2124 0 3900 0 3947 0 110 1 287 11 323 17 l27 6 0 109
c0 66 4 109 10 109 12 0 14 117 2 124 -5 3 -7 63 -6 133 6 406 17 1202 17
1223 -1 14 -3 81 -6 150 -2 69 -1 127 4 130 5 3 4 32 -1 63 -5 32 -6 80 -3
107 4 33 2 55 -7 64 -10 13 -92 15 -590 15 -345 0 -580 -3 -582 -9 -2 -5 -19
-6 -42 0 -22 5 -658 9 -1440 10 -2030 1 -3204 7 -3263 15 -35 5 -53 4 -53 -3
0 -7 -167 -9 -527 -6 -291 2 -1009 6 -1598 9 -588 3 -1081 6 -1095 6 -14 0
-150 -1 -303 -3 -152 -2 -277 -1 -277 2 0 8 -663 10 -2675 11 -1480 1 -1595 1
-1595 11 0 4 -61 8 -135 8 -83 0 -135 -4 -135 -10 0 -5 -18 -10 -39 -10 -22 0
-43 5 -46 10 -4 6 -57 10 -126 10 -73 0 -119 -4 -119 -10 0 -6 -33 -10 -80
-10 -47 0 -80 4 -80 10 0 17 -208 11 -270 -8z m2291 -104 c11 -15 19 -39 19
-68 1 -47 20 -80 53 -93 11 -4 21 -16 24 -26 2 -10 16 -24 29 -31 13 -8 24
-19 24 -27 0 -8 13 -13 35 -13 19 0 35 -4 35 -10 0 -5 7 -10 15 -10 8 0 15 -7
15 -15 0 -8 4 -15 8 -15 5 0 12 -72 15 -160 6 -143 5 -162 -10 -180 -23 -27
-45 -25 -73 5 -13 14 -28 25 -33 25 -5 0 -17 9 -26 19 -9 10 -28 21 -41 23
-19 2 -25 9 -24 28 1 13 -5 31 -13 39 -9 8 -12 22 -8 35 4 12 9 32 12 46 3 14
12 30 20 37 8 6 13 23 11 40 -2 23 -9 29 -32 31 -22 3 -35 -4 -57 -27 -15 -17
-33 -31 -38 -31 -6 0 -11 -4 -11 -10 0 -25 -175 -3 -193 24 -11 16 3 118 18
136 8 8 18 27 24 43 6 15 18 27 26 27 12 0 15 8 13 33 -4 42 -33 47 -70 12
-24 -22 -36 -25 -103 -25 -43 0 -75 4 -75 10 0 6 -8 10 -18 10 -9 0 -23 9 -30
20 -7 11 -21 20 -32 20 -12 0 -20 7 -20 16 0 9 -12 27 -26 39 -15 13 -23 28
-20 34 5 8 89 11 272 11 263 0 266 0 285 -22z m448 -150 c1 -103 5 -174 11
-176 13 -5 13 -62 0 -62 -5 0 -10 -20 -10 -45 0 -25 5 -45 10 -45 6 0 10 -103
10 -289 0 -245 -2 -290 -15 -294 -11 -5 -13 -20 -8 -74 3 -37 10 -69 15 -71
12 -5 10 -512 -2 -512 -5 0 -10 -20 -10 -45 0 -25 5 -45 10 -45 6 0 10 -40 10
-100 0 -60 -4 -100 -10 -100 -5 0 -10 -13 -10 -29 0 -56 -7 -61 -76 -61 l-64
0 0 35 c0 19 5 35 11 35 7 0 10 34 10 98 0 53 3 157 7 231 4 74 5 159 2 190
-5 41 -3 59 7 66 10 8 12 39 9 140 -2 72 -5 130 -6 130 -1 0 -3 97 -5 215 -1
118 -6 382 -10 587 -4 204 -4 376 -1 382 4 6 31 11 61 11 l53 0 1 -172z m821
156 c0 -18 -17 -37 -42 -47 -10 -3 -18 -16 -18 -28 0 -12 -13 -35 -30 -51 -16
-15 -30 -33 -30 -38 0 -6 -7 -10 -15 -10 -9 0 -18 -7 -21 -15 -7 -17 -84 -22
-84 -5 0 6 -18 10 -40 10 -33 0 -40 -3 -40 -20 0 -11 5 -20 10 -20 6 0 10 -6
10 -14 0 -8 14 -17 30 -21 29 -6 35 -17 31 -56 -1 -9 5 -22 14 -29 20 -17 19
-61 -2 -104 -18 -35 -18 -36 -85 -36 -39 0 -68 4 -68 10 0 6 -10 10 -23 10
-16 0 -35 16 -61 50 -51 67 -66 65 -66 -5 0 -30 -4 -55 -10 -55 -5 0 -10 -6
-10 -13 0 -8 -11 -20 -25 -27 -18 -9 -25 -22 -25 -42 0 -21 -5 -28 -20 -28
-11 0 -20 -7 -20 -15 0 -8 -4 -15 -10 -15 -5 0 -10 -7 -10 -15 0 -8 -4 -15
-10 -15 -5 0 -10 -5 -10 -11 0 -14 -25 -39 -39 -39 -13 0 -14 63 -4 278 l6
152 27 0 c49 0 90 12 90 26 0 8 7 14 15 14 8 0 15 5 15 10 0 6 9 10 21 10 12
0 23 8 26 20 3 11 13 20 22 20 16 0 65 95 67 131 3 47 14 49 230 49 179 0 204
-2 204 -16z m1742 2 c12 -17 9 -33 -9 -51 -14 -14 -14 -18 -2 -27 11 -7 11
-11 2 -15 -15 -6 -18 -83 -3 -83 9 0 14 -180 11 -390 0 -25 0 -80 0 -122 0
-49 -3 -78 -10 -78 -6 0 -11 -13 -11 -30 0 -16 4 -30 9 -30 9 0 18 -461 12
-617 -1 -40 2 -73 7 -73 9 0 8 -72 -4 -179 -5 -39 -2 -56 7 -62 12 -8 12 -10
0 -18 -10 -6 -11 -17 -6 -37 4 -16 9 -89 10 -161 l3 -133 -89 0 -89 0 -2 78
c-1 42 -1 106 1 141 2 39 -1 66 -8 71 -14 8 -27 110 -15 110 5 0 9 42 10 92 0
51 3 154 7 228 3 74 7 403 8 730 1 521 3 600 17 633 l16 37 61 -2 c33 -1 63
-7 67 -12z m6504 -6 c50 0 84 -28 84 -70 0 -18 10 -39 25 -54 14 -14 25 -28
25 -31 0 -10 28 -35 39 -35 5 0 13 -9 16 -20 3 -11 15 -20 26 -20 10 0 19 -7
19 -15 0 -18 31 -35 63 -35 14 0 27 -6 30 -14 3 -8 6 -104 6 -215 l1 -201 -30
0 c-16 0 -30 4 -30 9 0 5 -16 12 -36 15 -26 5 -41 16 -56 42 -11 19 -24 34
-28 34 -4 0 -8 10 -9 23 -1 12 -4 52 -7 90 -4 45 -2 67 5 67 12 0 14 32 5 68
-8 30 -60 31 -69 2 -3 -11 -11 -20 -17 -20 -5 0 -23 -9 -38 -20 -25 -18 -38
-19 -102 -13 -40 3 -79 12 -86 20 -17 17 -6 168 14 188 8 7 14 18 14 24 0 6 5
11 10 11 6 0 10 8 10 19 0 19 -40 37 -50 22 -16 -26 -160 -17 -160 10 0 5 -7
9 -15 9 -8 0 -15 7 -15 15 0 8 -4 15 -9 15 -5 0 -11 9 -14 20 -3 11 -12 20
-21 20 -9 0 -16 8 -16 20 0 19 8 20 168 23 92 1 176 2 187 0 11 -1 38 -3 61
-3z m-4552 -6 c10 -4 16 -18 16 -35 0 -16 4 -29 10 -29 5 0 12 -11 16 -24 3
-13 16 -29 30 -36 13 -8 24 -17 24 -22 0 -4 4 -8 10 -8 15 0 50 -33 50 -47 0
-7 20 -18 45 -24 25 -6 45 -15 45 -20 0 -5 5 -9 11 -9 36 0 66 -108 50 -185
-6 -34 -6 -52 1 -56 7 -4 8 -24 4 -53 -6 -36 -11 -46 -27 -46 -10 0 -19 5 -19
10 0 6 -11 16 -25 22 -14 6 -25 17 -25 25 0 7 -4 13 -10 13 -5 0 -10 6 -10 14
0 8 -5 16 -11 18 -14 5 -31 92 -18 96 16 6 11 62 -6 62 -8 0 -15 -4 -15 -10 0
-5 -13 -10 -30 -10 -16 0 -30 -4 -30 -10 0 -5 -16 -10 -35 -10 -19 0 -35 4
-35 9 0 4 -23 9 -51 10 -28 0 -54 3 -59 6 -5 3 -7 33 -4 66 4 57 19 89 42 89
16 0 22 41 9 61 -14 23 -44 24 -71 4 -11 -8 -34 -15 -51 -15 -34 0 -85 20 -85
34 0 4 -11 21 -25 38 -14 16 -25 40 -25 54 l0 24 144 0 c79 0 151 -3 160 -6z
m520 -156 c-2 -90 -9 -187 -15 -216 -9 -40 -10 -55 -1 -64 15 -15 16 -68 2
-68 -13 0 -14 -467 -1 -472 16 -5 17 -323 1 -333 -14 -9 -13 -68 2 -83 7 -7
12 -44 12 -97 0 -53 -5 -90 -12 -97 -16 -16 -15 -63 2 -113 14 -43 11 -195 -5
-195 -4 0 -5 -47 -2 -105 l6 -105 -56 0 c-54 0 -56 1 -64 33 -10 42 -11 847 0
847 5 0 6 9 2 20 -3 10 -7 188 -7 395 -1 206 -5 375 -9 375 -5 0 -9 53 -9 118
-1 64 -1 133 -1 152 -1 19 2 65 6 103 l8 67 72 0 72 0 -3 -162z m806 152 c0
-11 -40 -50 -52 -50 -4 0 -8 -4 -8 -10 0 -5 -14 -23 -31 -41 -38 -38 -92 -48
-137 -25 -17 9 -40 16 -52 16 -11 0 -20 5 -20 10 0 18 -19 10 -25 -11 -5 -14
0 -28 14 -43 12 -12 21 -32 21 -43 0 -12 5 -23 11 -25 6 -2 10 -35 11 -76 0
-62 -3 -76 -20 -93 -37 -34 -180 -20 -209 20 -19 27 -63 28 -63 2 0 -11 -5
-21 -11 -23 -6 -2 -14 -28 -17 -58 -4 -49 -10 -60 -49 -97 -49 -47 -93 -58
-93 -23 0 11 -4 20 -10 20 -13 0 -13 97 0 105 12 7 8 67 -5 78 -6 6 -6 10 3
14 7 2 12 22 12 44 0 21 5 39 11 39 6 0 17 7 25 15 9 8 25 15 37 15 13 0 31 6
42 14 11 7 32 16 46 19 41 10 129 99 141 144 20 73 18 73 235 73 117 0 193 -4
193 -10z m1334 -6 c4 -9 1 -23 -5 -30 -9 -11 -7 -18 10 -33 24 -21 28 -87 10
-156 -21 -79 -23 -105 -5 -105 14 0 16 -17 16 -129 0 -97 -3 -131 -14 -140
-15 -13 -14 -117 4 -306 6 -70 6 -103 -2 -112 -14 -17 -17 -230 -4 -261 7 -16
6 -26 0 -30 -7 -5 -10 -83 -10 -220 1 -116 -2 -212 -6 -212 -5 0 -8 -25 -8
-55 0 -30 4 -55 9 -55 14 0 7 -216 -8 -234 -19 -23 -107 -22 -120 2 -5 9 -7
55 -4 102 2 50 -1 103 -8 128 -8 30 -9 46 -2 50 13 8 26 292 29 627 1 132 6
285 10 340 9 115 9 173 3 415 -2 96 0 232 5 303 l8 127 43 0 c30 0 45 -5 49
-16z m2466 -29 c9 -31 11 -75 6 -138 -10 -143 -12 -217 -3 -217 4 0 7 -15 7
-34 0 -19 6 -37 13 -39 9 -4 9 -8 -2 -15 -10 -7 -14 -53 -18 -193 -7 -318 -3
-717 8 -893 10 -155 7 -511 -5 -523 -2 -3 -31 -7 -63 -9 -46 -4 -62 -1 -78 13
-20 17 -20 31 -21 423 -1 223 -2 545 -1 715 0 393 -1 503 -7 753 l-4 202 78 0
77 0 13 -45z m749 36 c9 -6 9 -19 -1 -56 -18 -68 -81 -128 -151 -144 -35 -8
-53 -8 -55 -1 -2 5 -17 10 -33 10 -19 0 -29 5 -29 15 0 24 -37 18 -44 -7 -10
-39 -7 -68 9 -74 8 -4 15 -12 15 -20 0 -8 4 -14 10 -14 5 0 12 -16 16 -35 3
-19 10 -35 14 -35 16 0 17 -94 2 -112 -29 -34 -192 -17 -192 20 0 6 -4 12 -10
12 -5 0 -10 5 -10 11 0 13 -25 39 -39 39 -21 0 -26 -28 -27 -152 l-1 -127 -32
-26 c-17 -15 -31 -33 -31 -41 0 -8 -6 -14 -14 -14 -7 0 -19 -7 -26 -15 -7 -8
-18 -15 -26 -15 -19 0 -15 471 4 478 6 2 12 11 12 19 0 9 6 13 15 9 8 -3 15
-1 15 4 0 6 6 10 13 10 16 1 110 87 129 120 9 14 21 47 27 75 7 27 17 55 22
61 11 13 397 17 418 5z m-7259 -21 c0 -6 43 -10 110 -10 68 0 110 -4 110 -10
0 -6 11 -16 25 -22 14 -6 25 -17 25 -24 0 -6 17 -26 37 -44 25 -22 38 -44 42
-69 5 -27 11 -36 26 -36 17 0 21 9 25 55 4 47 8 55 26 58 12 2 30 12 40 23 9
10 23 19 31 19 7 0 13 5 13 10 0 6 8 10 18 10 10 0 28 7 41 16 18 13 25 14 31
4 4 -7 28 -15 54 -17 31 -4 54 -13 69 -29 12 -13 30 -24 39 -24 24 0 48 -11
48 -21 0 -5 -7 -9 -15 -9 -9 0 -18 -7 -21 -15 -4 -8 -15 -15 -25 -15 -10 0
-19 -4 -19 -10 0 -5 -8 -10 -18 -10 -26 0 -62 -29 -62 -50 0 -10 -4 -20 -9
-22 -13 -4 -31 -272 -20 -276 5 -2 9 -15 9 -28 0 -13 6 -24 13 -24 6 0 13 -12
14 -26 0 -15 5 -29 11 -33 5 -3 13 -21 17 -39 5 -23 14 -34 31 -38 13 -3 24
-12 24 -20 0 -8 5 -14 10 -14 6 0 10 -5 10 -11 0 -16 48 -59 66 -59 9 0 22 -7
30 -15 8 -8 31 -17 52 -21 20 -4 45 -16 55 -27 18 -22 24 -21 170 9 16 4 35
17 44 30 8 13 22 24 29 24 8 0 14 7 14 15 0 9 6 18 14 21 8 3 17 17 20 30 10
40 38 25 58 -31 10 -28 18 -60 18 -72 0 -12 7 -28 15 -37 8 -8 15 -31 15 -50
0 -25 -4 -36 -15 -36 -10 0 -15 -10 -15 -29 0 -34 -12 -45 -67 -62 -38 -11
-43 -16 -43 -41 0 -23 4 -28 25 -28 32 0 155 -123 155 -155 0 -12 4 -25 9 -30
10 -13 35 -92 52 -168 9 -43 10 -64 2 -76 -6 -10 -14 -43 -18 -74 -5 -42 -12
-58 -26 -62 -20 -7 -56 9 -79 34 -46 51 -100 121 -100 130 0 6 -7 11 -15 11
-8 0 -15 6 -15 13 0 7 -9 19 -20 27 -11 8 -20 20 -20 27 0 7 -4 13 -10 13 -5
0 -10 5 -10 11 0 6 -42 52 -93 102 -50 51 -108 112 -127 136 -19 25 -43 52
-52 60 -10 9 -18 21 -18 27 0 7 -11 15 -25 18 -16 4 -25 13 -25 26 0 13 -7 20
-19 20 -12 0 -23 11 -30 30 -5 17 -17 30 -26 30 -9 0 -21 13 -26 30 -6 17 -15
30 -20 30 -5 0 -9 5 -9 10 0 11 -32 44 -82 83 -15 12 -28 27 -28 33 0 6 -20
28 -45 50 -24 21 -45 44 -45 49 0 12 -36 45 -49 45 -6 0 -15 16 -22 35 -8 21
-20 35 -30 35 -9 0 -19 9 -22 21 -3 11 -15 23 -26 26 -12 3 -21 11 -21 18 0 8
-22 37 -50 65 -27 28 -50 56 -50 61 0 5 -9 9 -20 9 -15 0 -20 7 -20 25 0 16
-6 25 -15 25 -8 0 -15 7 -15 15 0 8 -4 15 -10 15 -5 0 -10 7 -10 15 0 8 -5 15
-10 15 -13 0 -80 68 -80 81 0 5 -4 9 -8 9 -17 0 -92 82 -98 106 -3 13 -10 24
-15 24 -5 0 -9 9 -9 19 0 21 38 35 64 25 9 -3 16 -1 16 5 0 6 5 11 10 11 6 0
10 -4 10 -10z m-5390 -20 c0 -5 23 -10 50 -10 28 0 50 5 50 10 0 6 50 10 130
10 108 0 130 -2 130 -15 0 -8 12 -18 27 -21 30 -8 53 -26 53 -43 0 -6 3 -11 8
-11 8 0 42 -74 42 -93 0 -20 30 -57 46 -57 16 0 53 38 54 54 0 5 24 32 52 59
l53 50 105 -6 c97 -6 106 -8 123 -32 10 -14 27 -25 38 -25 10 0 19 -3 19 -6 0
-4 -29 -35 -63 -69 -61 -60 -64 -66 -75 -132 -15 -88 -5 -200 20 -232 10 -13
18 -30 18 -37 0 -13 6 -21 58 -82 37 -43 38 -46 46 -75 4 -18 13 -27 26 -27
11 0 20 -7 20 -15 0 -8 4 -15 9 -15 5 0 12 -11 15 -25 5 -21 12 -25 41 -25 19
0 35 -4 35 -10 0 -13 55 -42 110 -57 77 -21 290 -13 290 11 0 13 55 36 84 36
33 0 50 -30 54 -97 3 -40 0 -69 -7 -76 -6 -6 -11 -21 -11 -34 0 -28 -63 -93
-90 -93 -11 0 -20 -4 -20 -10 0 -5 -7 -10 -15 -10 -8 0 -15 -9 -15 -20 0 -15
7 -20 25 -20 14 0 25 -4 25 -8 0 -5 12 -15 28 -23 15 -8 34 -22 43 -31 9 -10
22 -18 28 -18 21 0 41 -27 41 -54 0 -16 6 -26 15 -26 8 0 17 -11 21 -25 3 -14
10 -25 15 -25 5 0 9 -24 9 -54 0 -30 5 -58 10 -61 6 -3 10 -37 10 -76 0 -39 4
-69 10 -69 6 0 10 -16 10 -35 0 -24 -5 -35 -15 -35 -8 0 -15 7 -15 15 0 8 -6
15 -13 15 -17 0 -197 179 -197 195 0 6 -12 18 -28 27 -15 9 -64 53 -109 97
-45 45 -86 81 -92 81 -6 0 -11 4 -11 10 0 13 -72 79 -87 80 -6 0 -14 13 -18
30 -4 17 -11 30 -16 30 -10 0 -59 45 -59 55 0 11 -66 65 -87 71 -13 3 -23 12
-23 20 0 8 -5 14 -11 14 -16 0 -39 26 -39 45 0 9 -13 21 -30 26 -18 7 -30 18
-30 29 0 13 -11 20 -40 25 -22 4 -40 11 -40 16 0 13 -53 79 -62 79 -12 0 -48
38 -48 50 0 6 -4 10 -8 10 -4 0 -30 20 -57 45 -28 25 -53 45 -56 45 -11 0 -69
57 -69 67 0 5 -11 16 -25 23 -14 7 -25 19 -25 27 0 7 -7 13 -15 13 -8 0 -15 5
-15 10 0 6 -9 10 -20 10 -15 0 -22 9 -26 30 -4 19 -13 30 -23 30 -15 0 -51 32
-51 46 0 11 -29 34 -44 34 -9 0 -16 7 -16 15 0 8 -6 15 -14 15 -8 0 -23 11
-34 25 -11 14 -24 25 -30 25 -5 0 -12 14 -15 30 -4 18 -13 30 -22 30 -8 0 -15
5 -15 10 0 6 -6 10 -13 10 -7 0 -19 9 -27 20 -8 11 -22 20 -32 20 -10 0 -18 5
-18 11 0 11 -68 79 -80 79 -4 0 -13 11 -20 25 -7 14 -18 25 -23 25 -11 0 -47
39 -47 52 0 4 25 8 55 8 30 0 55 -4 55 -10z m5109 -37 c16 -16 39 -35 50 -43
12 -8 21 -20 21 -27 0 -7 5 -13 10 -13 6 0 10 -6 10 -14 0 -8 9 -18 20 -21 11
-4 28 -17 36 -31 9 -13 20 -24 25 -24 13 0 64 -52 72 -73 4 -9 15 -21 24 -24
22 -9 52 -43 53 -60 0 -7 7 -13 15 -13 8 0 15 -5 15 -11 0 -6 7 -17 15 -25 8
-9 15 -24 15 -35 0 -12 9 -21 25 -25 14 -3 25 -10 25 -16 0 -10 7 -19 71 -88
26 -28 52 -50 58 -50 6 0 11 -4 11 -10 0 -11 36 -50 46 -50 10 0 74 -72 74
-84 0 -6 9 -17 20 -24 11 -7 20 -19 20 -27 0 -8 11 -17 24 -21 16 -4 27 -17
35 -43 6 -22 21 -43 36 -51 14 -7 25 -17 25 -21 0 -11 60 -69 71 -69 5 0 9 -5
9 -12 0 -13 68 -78 81 -78 5 0 9 -4 9 -10 0 -5 7 -18 15 -27 9 -10 34 -39 57
-66 23 -26 47 -47 54 -47 7 0 16 -9 19 -20 3 -11 13 -20 21 -20 8 0 14 -6 14
-14 0 -7 11 -22 25 -32 14 -10 25 -24 25 -31 0 -7 7 -13 15 -13 8 0 15 -7 15
-15 0 -8 7 -15 15 -15 9 0 15 -9 15 -25 0 -14 6 -25 13 -25 7 0 21 -16 31 -35
11 -21 27 -35 38 -35 10 0 18 -7 18 -16 0 -9 9 -18 20 -21 11 -3 20 -9 20 -14
0 -10 27 -44 53 -68 9 -8 17 -21 17 -28 0 -7 5 -13 10 -13 6 0 13 -7 16 -15 8
-19 73 -85 85 -85 13 0 31 -40 25 -57 -5 -13 -20 -14 -89 -8 -45 4 -86 11 -92
16 -5 5 -31 9 -57 9 -26 0 -48 5 -48 10 0 6 -9 10 -19 10 -11 0 -23 4 -26 10
-3 6 -15 10 -26 10 -10 0 -19 7 -19 15 0 8 -6 15 -13 15 -18 0 -77 112 -77
146 0 15 -5 44 -12 65 -9 30 -16 39 -33 39 -13 0 -25 -8 -29 -17 -6 -19 -27
-55 -37 -63 -3 -3 -9 -18 -13 -33 -5 -22 -11 -27 -25 -22 -11 3 -26 -1 -34
-10 -12 -12 -40 -15 -121 -15 -100 0 -106 1 -106 20 0 11 9 28 20 37 11 10 20
28 20 40 0 14 6 23 15 23 12 0 15 13 15 55 0 30 5 55 10 55 12 0 14 167 1 174
-5 3 -12 26 -15 51 -4 25 -11 45 -15 45 -9 0 -27 52 -36 101 -5 24 -15 41 -31
49 -13 8 -24 19 -24 27 0 7 -5 13 -11 13 -7 0 -22 11 -35 25 -13 14 -28 25
-34 25 -6 0 -21 11 -33 24 -12 13 -37 27 -54 30 -18 4 -33 11 -33 16 0 10 -31
16 -117 25 -53 6 -64 4 -81 -13 -10 -10 -32 -22 -48 -26 -16 -4 -46 -20 -66
-37 -20 -16 -44 -29 -52 -29 -9 0 -16 -8 -16 -18 0 -42 -72 -52 -85 -11 -4 10
-11 19 -16 19 -5 0 -9 16 -9 36 0 19 -5 67 -11 107 -8 52 -8 72 0 75 6 2 11
21 11 43 0 21 5 39 10 39 6 0 10 9 10 19 0 25 50 61 83 61 24 0 37 16 37 46 0
18 -58 54 -87 54 -13 0 -23 5 -23 10 0 6 -5 10 -10 10 -23 0 -70 61 -70 91 0
21 -6 32 -18 36 -26 6 -39 32 -57 108 -12 53 -13 80 -5 130 17 107 28 116 79
68z m3911 4 c0 -6 -22 -32 -50 -56 -36 -32 -50 -51 -50 -71 0 -19 -15 -41 -55
-78 -30 -29 -55 -57 -55 -62 0 -6 -7 -10 -15 -10 -8 0 -15 -4 -15 -8 0 -4 -45
-54 -100 -110 -55 -56 -100 -107 -100 -112 0 -6 -5 -10 -12 -10 -20 0 -48 -32
-48 -57 0 -14 -6 -23 -15 -23 -8 0 -17 -11 -21 -25 -3 -14 -10 -25 -15 -25 -9
0 -59 -48 -59 -56 0 -10 -28 -34 -39 -34 -6 0 -11 -6 -11 -14 0 -7 -15 -25
-33 -39 -18 -14 -49 -46 -68 -71 -19 -25 -38 -46 -42 -46 -9 0 -37 -25 -37
-33 0 -2 -29 -34 -65 -72 -36 -37 -65 -74 -65 -81 0 -8 -9 -14 -20 -14 -13 0
-22 -9 -26 -25 -3 -14 -10 -25 -15 -25 -5 0 -9 -6 -9 -13 0 -7 -13 -18 -29
-24 -20 -7 -36 -25 -50 -57 -12 -25 -28 -46 -36 -46 -8 0 -15 -7 -15 -15 0 -8
-7 -15 -15 -15 -8 0 -15 -4 -15 -9 0 -5 -25 -36 -55 -67 -30 -32 -55 -62 -55
-66 0 -4 -4 -8 -9 -8 -11 0 -111 -99 -111 -111 0 -5 -4 -9 -10 -9 -5 0 -10 -6
-10 -14 0 -13 -37 -33 -45 -24 -9 9 -25 140 -25 210 0 52 -4 78 -12 81 -10 4
-10 8 1 15 7 5 11 15 7 20 -4 6 1 43 10 81 13 58 19 71 35 71 10 0 19 5 19 10
0 6 7 10 15 10 8 0 15 5 15 10 0 6 16 10 35 10 19 0 35 2 35 4 0 2 3 11 6 19
3 9 -14 34 -45 66 -49 50 -50 53 -57 126 -4 49 -3 75 3 75 6 0 16 21 22 46 10
38 15 45 33 42 14 -2 24 -13 29 -32 12 -43 38 -61 94 -64 28 -2 52 -7 53 -13
5 -12 119 -12 124 1 2 5 26 11 53 12 46 3 55 8 110 60 33 32 65 62 70 68 6 6
21 23 35 38 19 20 30 50 43 114 25 125 23 173 -8 204 -14 14 -25 31 -25 39 0
16 -57 75 -72 75 -16 0 -40 29 -33 41 4 6 16 9 26 6 10 -3 21 -2 24 3 2 4 31
10 64 14 70 8 171 -16 171 -40 0 -8 5 -14 10 -14 6 0 10 -9 10 -20 0 -11 5
-20 10 -20 6 0 10 -6 10 -13 0 -19 20 -36 36 -30 9 3 14 22 14 54 0 44 3 49
25 55 14 3 25 10 25 15 0 5 6 9 13 9 8 0 20 11 27 25 19 36 69 71 118 85 23 6
42 15 42 20 0 6 15 10 34 10 19 0 36 5 38 10 2 6 29 14 61 17 31 3 57 10 57
14 0 5 25 9 55 9 37 0 55 -4 55 -13z m-4700 -12 c0 -14 -31 -46 -192 -201 -29
-28 -65 -54 -80 -57 -15 -4 -29 -15 -32 -25 -3 -10 -19 -23 -36 -29 -20 -8
-30 -18 -30 -32 0 -12 -6 -21 -15 -21 -8 0 -15 -4 -15 -10 0 -5 -6 -10 -14
-10 -8 0 -18 -9 -21 -20 -3 -11 -12 -20 -18 -20 -7 0 -28 -18 -47 -40 -19 -22
-41 -40 -47 -40 -7 0 -13 -5 -13 -10 0 -6 -8 -14 -17 -17 -23 -9 -43 -29 -43
-42 0 -6 -7 -11 -15 -11 -8 0 -15 -4 -15 -10 0 -5 -7 -10 -15 -10 -8 0 -15 -6
-15 -14 0 -8 -9 -18 -20 -21 -11 -3 -20 -11 -20 -16 0 -5 -7 -9 -15 -9 -8 0
-15 -7 -15 -15 0 -8 -6 -15 -13 -15 -7 0 -44 -29 -81 -65 -41 -39 -76 -65 -89
-65 -15 0 -26 -10 -35 -28 -6 -16 -21 -38 -32 -50 -11 -12 -20 -26 -20 -32 0
-5 -6 -10 -13 -10 -7 0 -18 -9 -25 -20 -7 -11 -19 -20 -27 -20 -8 0 -15 -4
-15 -10 0 -5 -7 -10 -16 -10 -8 0 -42 -27 -74 -60 -32 -33 -63 -60 -67 -60
-11 0 -43 -37 -43 -49 0 -5 -14 -14 -30 -20 -17 -5 -33 -17 -36 -26 -3 -8 -15
-15 -25 -15 -10 0 -19 -5 -19 -11 0 -11 -25 -39 -35 -39 -9 0 -28 -17 -124
-112 -49 -49 -94 -88 -100 -88 -6 0 -11 -4 -11 -10 0 -5 -9 -10 -20 -10 -13 0
-20 -7 -20 -20 0 -12 -7 -20 -17 -20 -10 0 -34 -14 -53 -30 -65 -56 -86 -32
-54 60 15 43 14 155 -2 215 -3 14 4 30 20 48 14 16 26 39 26 52 0 13 15 38 36
59 43 43 65 56 93 56 12 0 21 5 21 10 0 6 16 10 36 10 34 0 36 1 29 27 -6 26
-30 52 -50 53 -38 2 -93 98 -82 141 3 11 1 33 -4 49 -18 51 17 140 54 140 9 0
18 13 22 30 4 17 10 30 13 30 4 0 17 3 30 6 21 6 22 4 22 -59 0 -48 4 -66 15
-71 8 -3 15 -17 15 -31 0 -18 5 -25 19 -25 11 0 21 -5 23 -12 6 -18 210 -30
223 -13 6 7 36 18 68 25 31 7 57 17 57 22 0 4 9 8 20 8 11 0 20 5 20 10 0 6 9
10 20 10 13 0 20 7 20 20 0 13 9 22 25 26 14 3 25 10 25 15 0 5 7 9 15 9 9 0
18 13 22 31 3 17 12 33 19 36 8 3 14 18 14 34 0 18 5 29 14 29 8 0 20 16 26
36 7 19 17 37 24 40 7 3 11 35 10 97 0 92 -15 137 -51 160 -7 4 -15 24 -19 44
-9 49 1 55 143 79 52 10 133 -25 133 -55 0 -6 4 -11 9 -11 5 0 15 -23 22 -50
9 -36 17 -49 27 -45 7 3 17 5 21 5 5 0 16 20 27 45 10 25 24 45 31 45 8 0 18
10 24 23 12 26 52 47 91 47 16 0 28 6 28 13 1 23 68 47 135 47 35 0 66 3 68 8
3 4 48 8 101 9 79 2 96 0 96 -12z m5755 -45 c10 -11 24 -20 32 -20 7 0 13 -7
13 -15 0 -8 10 -17 23 -20 25 -7 47 -61 47 -120 0 -26 4 -35 17 -35 21 0 53
29 53 48 0 23 69 82 96 82 13 0 24 5 24 10 0 16 106 12 167 -6 43 -13 53 -19
48 -32 -4 -10 -9 -30 -12 -47 -4 -16 -14 -37 -23 -45 -33 -31 -47 -158 -19
-176 5 -3 9 -29 9 -57 0 -90 12 -157 26 -157 8 0 14 -5 14 -11 0 -6 7 -17 15
-25 8 -9 15 -26 15 -39 0 -15 17 -41 45 -69 25 -26 45 -53 45 -61 0 -9 10 -15
26 -15 17 0 28 -6 31 -20 3 -11 11 -20 18 -20 7 0 18 -7 25 -15 7 -8 23 -15
36 -15 13 0 24 -4 24 -9 0 -19 116 -45 195 -44 120 2 200 46 212 118 5 31 9
35 34 35 19 0 29 -5 29 -15 0 -8 5 -15 10 -15 6 0 10 -5 10 -11 0 -7 9 -19 19
-28 21 -18 25 -38 23 -116 -2 -38 -8 -56 -26 -75 -52 -55 -64 -60 -131 -60
-62 0 -65 -1 -65 -24 0 -19 7 -26 30 -31 23 -5 30 -12 30 -30 0 -24 17 -35 56
-35 13 0 24 -4 24 -10 0 -5 9 -10 20 -10 11 0 20 -4 20 -8 0 -5 11 -15 25 -22
14 -7 25 -21 25 -30 0 -9 11 -30 25 -46 14 -16 25 -35 25 -41 0 -7 5 -13 10
-13 6 0 10 -20 10 -44 0 -25 5 -48 11 -52 11 -6 5 -127 -8 -160 -6 -16 -43
-19 -43 -4 0 6 -4 10 -9 10 -4 0 -40 31 -79 69 -38 38 -78 72 -89 75 -10 3
-24 19 -30 35 -6 16 -23 37 -39 47 -32 21 -88 76 -119 117 -11 15 -24 27 -30
27 -5 0 -30 23 -54 50 -25 28 -51 50 -58 50 -7 0 -13 4 -13 8 0 11 -35 52 -44
52 -11 0 -36 27 -36 39 0 6 -6 11 -13 11 -8 0 -20 11 -27 25 -7 14 -19 25 -26
25 -6 0 -14 7 -18 15 -3 8 -15 15 -26 15 -11 0 -20 7 -20 15 0 8 -5 15 -11 15
-17 0 -35 23 -43 53 -3 15 -12 27 -19 27 -7 0 -19 9 -27 20 -8 11 -20 20 -28
20 -18 0 -62 46 -62 65 0 8 -9 15 -20 15 -11 0 -20 7 -20 15 0 8 -7 15 -15 15
-8 0 -15 4 -15 10 0 16 -43 60 -59 61 -9 0 -43 31 -76 69 -33 37 -72 73 -87
80 -16 7 -28 16 -28 21 0 8 -258 269 -266 269 -2 0 -30 27 -62 60 -33 33 -67
60 -76 60 -9 0 -19 7 -22 15 -4 8 -15 15 -25 15 -16 0 -17 3 -7 25 12 26 32
33 43 15 3 -5 19 -10 36 -10 16 0 29 5 29 10 0 6 15 10 33 10 17 0 61 9 97 19
82 24 74 24 95 1z m-10255 -4 c0 -8 7 -16 15 -20 8 -3 15 -12 15 -21 0 -8 5
-15 10 -15 6 0 10 -7 10 -16 0 -21 22 -42 53 -49 15 -4 28 -16 31 -31 4 -14
14 -24 25 -24 16 0 49 -22 76 -50 32 -34 109 -109 139 -135 19 -16 35 -35 35
-40 1 -6 16 -17 34 -24 17 -8 39 -23 48 -33 9 -10 21 -18 26 -18 6 0 13 -12
16 -28 4 -18 19 -36 46 -52 22 -14 41 -28 41 -32 0 -5 7 -8 15 -8 8 0 15 -4
15 -10 0 -5 5 -10 11 -10 14 0 39 -25 39 -39 0 -6 5 -11 11 -11 14 0 63 -50
72 -72 3 -10 13 -18 22 -18 8 0 15 -4 15 -10 0 -5 7 -10 15 -10 8 0 15 -6 15
-14 0 -8 9 -18 20 -21 11 -3 20 -13 20 -21 0 -8 7 -14 15 -14 8 0 15 -7 15
-15 0 -8 5 -15 10 -15 6 0 10 -7 10 -15 0 -8 7 -15 15 -15 8 0 25 -11 39 -25
14 -14 30 -25 36 -25 5 0 10 -6 10 -13 0 -8 11 -19 24 -27 14 -7 27 -23 30
-36 5 -20 13 -24 41 -24 24 0 35 -5 35 -15 0 -8 5 -15 10 -15 6 0 10 -7 10
-15 0 -8 5 -15 10 -15 6 0 10 -6 10 -14 0 -8 10 -16 23 -18 13 -2 28 -15 37
-35 8 -18 21 -33 28 -33 6 0 12 -7 12 -15 0 -9 9 -15 25 -15 17 0 25 -5 25
-18 0 -9 13 -23 30 -30 17 -8 30 -18 30 -23 0 -15 131 -139 147 -139 7 0 13
-5 13 -11 0 -12 73 -89 84 -89 8 0 56 -47 56 -54 0 -16 50 -60 83 -73 20 -8
37 -22 37 -30 0 -19 25 -43 44 -43 9 0 16 -4 16 -9 0 -5 9 -11 20 -14 11 -3
20 -12 20 -21 0 -13 -11 -16 -55 -16 -30 0 -55 5 -55 10 0 13 -107 13 -112 0
-4 -12 -196 -23 -255 -14 -33 5 -43 11 -43 25 0 12 -7 19 -20 19 -11 0 -20 5
-20 10 0 6 -8 10 -18 10 -10 0 -28 13 -40 30 -19 25 -21 35 -13 71 9 41 -1 69
-26 69 -10 0 -43 -57 -43 -75 0 -8 -15 -24 -32 -36 -18 -13 -35 -26 -38 -29
-3 -3 -25 -12 -50 -19 -25 -7 -47 -17 -50 -21 -3 -4 -33 -10 -67 -13 -50 -5
-63 -4 -63 7 0 8 -16 16 -38 19 -34 6 -55 21 -76 55 -8 14 18 41 66 70 18 10
28 25 28 39 0 13 5 23 10 23 6 0 10 11 10 25 0 13 10 33 21 44 21 19 21 23 11
140 -6 66 -16 129 -22 140 -5 11 -10 33 -10 50 0 21 -7 35 -24 47 -14 8 -28
29 -31 45 -4 16 -11 29 -16 29 -5 0 -9 5 -9 10 0 14 -165 180 -179 180 -6 0
-11 5 -11 10 0 6 -7 10 -15 10 -8 0 -15 5 -15 10 0 6 -6 10 -12 10 -7 0 -24 9
-38 20 -14 11 -37 20 -52 20 -14 0 -28 5 -30 12 -6 17 -200 17 -206 0 -2 -6
-19 -12 -37 -12 -19 0 -37 -4 -40 -10 -3 -5 -14 -10 -24 -10 -21 0 -61 -32
-61 -49 0 -6 -13 -11 -30 -11 -20 0 -30 5 -30 15 0 9 -7 18 -15 21 -11 5 -15
23 -15 78 1 97 13 143 49 180 17 18 31 42 31 55 0 28 -24 53 -44 45 -18 -7
-115 87 -139 136 -9 18 -17 52 -17 76 0 23 -4 54 -10 68 -9 26 2 130 20 174
11 25 60 32 60 8z m4705 -30 c7 -44 -6 -86 -25 -86 -6 0 -10 -13 -10 -29 0
-17 -5 -33 -11 -37 -7 -4 -9 -24 -6 -55 4 -29 2 -49 -3 -49 -6 0 -10 -14 -10
-31 0 -30 -19 -59 -39 -59 -6 0 -11 -4 -11 -10 0 -5 -22 -10 -49 -10 -32 0
-55 -6 -66 -16 -14 -15 -13 -18 12 -40 15 -13 34 -24 42 -24 22 0 9 -210 -13
-222 -9 -5 -16 -14 -16 -21 -1 -15 -68 -67 -87 -67 -7 0 -19 11 -25 25 -9 19
-19 25 -44 25 -18 0 -36 5 -39 10 -3 6 -37 10 -76 10 -39 0 -69 -4 -69 -10 0
-5 -11 -10 -25 -10 -14 0 -34 -8 -45 -17 -11 -10 -33 -18 -50 -19 -16 -1 -36
-9 -45 -18 -9 -9 -25 -16 -36 -16 -10 0 -19 -7 -19 -15 0 -8 -7 -15 -16 -15
-9 0 -29 -13 -44 -28 -15 -16 -34 -32 -44 -35 -9 -4 -16 -13 -16 -22 0 -8 -7
-15 -15 -15 -8 0 -15 -7 -15 -15 0 -8 -4 -15 -9 -15 -5 0 -13 -14 -16 -31 -4
-18 -19 -45 -34 -61 -32 -36 -41 -83 -48 -248 -5 -138 8 -226 39 -248 10 -7
18 -26 18 -41 0 -29 -15 -41 -51 -41 -10 0 -19 -4 -19 -10 0 -6 -35 -10 -85
-10 -50 0 -85 4 -85 10 0 6 -10 10 -22 10 -25 0 -58 27 -58 47 0 7 -6 13 -13
13 -8 0 -19 24 -28 63 -12 51 -18 63 -37 65 -16 3 -22 -2 -22 -15 0 -10 -9
-25 -20 -33 -13 -9 -20 -26 -20 -47 0 -26 -4 -33 -20 -33 -11 0 -20 -4 -20
-10 0 -5 -7 -10 -15 -10 -8 0 -15 -4 -15 -10 0 -5 -7 -10 -15 -10 -8 0 -15 -4
-15 -10 0 -5 -8 -10 -18 -10 -11 0 -33 -7 -50 -16 -22 -10 -69 -16 -160 -18
-118 -3 -130 -2 -141 15 -10 17 -3 28 63 94 41 41 79 75 84 75 6 0 12 7 16 15
3 8 12 15 21 15 8 0 15 7 15 16 0 9 14 21 30 27 17 6 30 17 30 24 0 7 7 13 15
13 8 0 15 9 15 20 0 13 7 20 18 20 10 0 25 11 32 24 7 14 22 26 34 28 12 2 25
13 31 26 5 12 15 22 22 22 6 0 38 26 70 58 33 31 80 76 106 98 26 23 47 47 47
53 0 6 7 11 15 11 9 0 27 11 41 25 14 14 34 25 44 25 11 0 20 5 20 10 0 14
162 175 184 183 10 4 20 16 23 27 3 11 15 22 26 26 25 8 47 28 47 43 0 6 7 11
16 11 29 0 133 91 134 118 0 6 7 12 15 12 8 0 39 25 70 55 31 30 64 55 72 55
8 0 17 9 20 21 3 11 24 29 49 41 24 11 44 25 44 30 0 10 25 38 34 38 7 0 40
26 73 59 14 13 39 27 57 30 24 5 32 12 34 34 2 15 8 27 13 27 5 0 9 6 9 14 0
8 15 17 35 20 25 5 39 15 47 32 6 13 16 24 23 24 6 0 26 16 45 35 19 19 37 35
41 35 4 0 11 -20 14 -44z m9286 -59 c3 -4 18 -3 33 3 36 13 96 13 96 -1 0 -11
71 -8 138 6 28 6 32 5 32 -14 0 -11 -4 -21 -9 -21 -4 0 -32 -22 -62 -50 -31
-29 -63 -50 -76 -50 -22 0 -63 -35 -63 -53 0 -14 -27 -37 -44 -37 -9 0 -16 -7
-16 -15 0 -8 -6 -15 -14 -15 -8 0 -16 -7 -20 -15 -3 -8 -10 -15 -16 -15 -15 0
-40 -25 -40 -39 0 -6 -5 -11 -11 -11 -7 0 -19 -8 -28 -18 -9 -11 -28 -22 -42
-25 -14 -4 -31 -18 -39 -32 -7 -14 -17 -25 -22 -25 -8 0 -49 -33 -90 -72 -10
-10 -22 -18 -28 -18 -5 0 -10 -4 -10 -10 0 -5 -21 -24 -47 -41 -27 -18 -50
-35 -53 -38 -3 -3 -17 -12 -32 -20 -16 -8 -28 -20 -28 -26 0 -7 -16 -20 -35
-31 -19 -10 -35 -24 -35 -30 0 -7 -13 -15 -30 -19 -16 -4 -30 -13 -30 -21 0
-8 -6 -14 -12 -14 -17 -1 -58 -35 -58 -49 0 -6 -4 -11 -10 -11 -5 0 -10 -7
-10 -15 0 -8 -7 -15 -15 -15 -9 0 -36 -20 -61 -45 -24 -25 -51 -45 -59 -45 -7
0 -17 -9 -20 -20 -3 -11 -15 -20 -26 -20 -10 0 -19 -4 -19 -9 0 -5 -9 -13 -20
-16 -11 -3 -20 -13 -20 -21 0 -8 -9 -14 -20 -14 -11 0 -20 -7 -20 -15 0 -8 -4
-15 -9 -15 -4 0 -36 -27 -70 -60 -34 -33 -68 -60 -75 -60 -15 0 -76 -64 -76
-80 0 -5 -9 -10 -20 -10 -12 0 -34 -14 -50 -30 -16 -17 -33 -30 -37 -30 -4 0
-17 -14 -28 -30 -11 -16 -25 -30 -31 -30 -7 0 -14 -7 -18 -15 -3 -8 -12 -15
-20 -15 -8 0 -18 -9 -21 -20 -3 -11 -13 -20 -21 -20 -8 0 -14 -4 -14 -8 0 -4
-16 -14 -34 -20 -19 -7 -38 -21 -41 -32 -3 -10 -15 -22 -26 -25 -10 -4 -24
-15 -29 -26 -6 -10 -17 -19 -25 -19 -26 0 -25 272 1 301 8 8 14 21 14 27 0 7
7 12 15 12 8 0 15 4 15 9 0 4 15 25 34 45 27 28 42 36 70 36 20 0 36 4 36 9 0
5 14 11 30 15 23 4 30 11 30 29 0 20 -9 25 -70 41 -38 10 -70 22 -70 27 0 5
-5 9 -11 9 -17 0 -35 23 -48 63 -14 40 -1 165 18 176 5 3 12 23 16 43 5 24 14
39 26 43 29 9 59 -4 59 -26 0 -10 4 -19 9 -19 5 0 25 -16 44 -35 22 -22 45
-35 61 -35 14 0 37 -12 51 -26 l26 -26 128 10 c124 10 171 23 171 49 0 6 14
20 30 30 17 9 30 21 30 25 0 4 7 8 15 8 8 0 15 3 15 8 0 11 57 72 67 72 12 0
73 75 73 89 0 6 5 11 10 11 6 0 10 18 10 40 0 22 4 40 8 40 28 0 50 286 24
312 -7 7 -12 29 -12 49 0 39 14 49 73 49 15 0 27 5 27 10 0 15 27 12 44 -5 8
-8 24 -15 36 -15 11 0 39 -18 60 -39 32 -31 40 -47 40 -75 0 -31 3 -36 23 -36
25 0 38 24 57 108 7 28 16 52 22 52 12 0 38 26 38 37 0 5 26 17 58 27 31 10
68 24 82 32 26 14 141 15 151 1z m-4699 -27 c7 -11 18 -20 25 -20 10 0 13 -23
13 -85 0 -47 -4 -85 -9 -85 -5 0 -12 -14 -16 -31 -4 -19 -32 -55 -71 -95 -66
-66 -78 -92 -45 -101 10 -2 24 -16 30 -29 6 -13 17 -24 25 -24 17 0 24 -26 20
-76 -14 -193 -15 -194 -40 -194 -13 0 -24 4 -24 9 0 5 -10 13 -22 17 -12 3
-30 16 -39 28 -16 19 -27 21 -131 21 -99 0 -118 -3 -151 -22 -21 -13 -45 -23
-53 -23 -8 0 -14 -7 -14 -15 0 -8 -8 -15 -17 -15 -10 0 -36 -16 -58 -35 -70
-61 -87 -75 -93 -75 -14 0 -42 -35 -42 -52 0 -10 -9 -26 -20 -35 -15 -13 -20
-30 -20 -69 0 -38 -4 -53 -16 -58 -13 -5 -15 -16 -11 -54 16 -139 23 -162 55
-195 39 -40 40 -60 7 -89 -14 -12 -25 -27 -25 -35 0 -7 -11 -15 -25 -19 -14
-3 -25 -10 -25 -15 0 -5 -41 -9 -90 -9 -93 0 -143 13 -169 43 -22 27 -48 21
-54 -13 -4 -16 -4 -37 -1 -45 4 -8 1 -15 -5 -15 -6 0 -11 -16 -11 -35 0 -19
-4 -35 -9 -35 -5 0 -12 -14 -16 -30 -5 -21 -13 -30 -26 -30 -10 0 -19 -4 -19
-9 0 -5 -9 -13 -20 -16 -11 -3 -20 -12 -20 -19 0 -11 -94 -46 -124 -46 -8 0
-27 -7 -42 -15 -36 -19 -214 -22 -214 -3 0 23 34 88 46 88 7 0 15 9 19 19 3
11 15 23 26 26 10 4 19 12 19 18 0 7 36 46 80 86 44 41 80 80 80 86 0 5 10 15
23 20 12 6 23 20 25 33 2 12 10 22 18 22 8 0 14 6 14 14 0 7 11 22 25 32 14
10 25 24 25 31 0 7 5 13 10 13 6 0 10 7 10 15 0 8 6 15 13 15 8 0 20 11 27 25
7 14 19 25 27 25 7 0 18 11 23 24 5 13 18 27 29 31 12 3 21 13 21 21 0 8 5 14
10 14 6 0 10 7 10 15 0 8 7 15 15 15 8 0 15 4 15 9 0 5 34 43 75 85 41 42 75
82 75 89 0 7 9 19 20 27 11 8 20 20 20 27 0 7 7 13 15 13 9 0 23 16 32 35 9
19 20 35 24 35 11 0 69 60 69 71 0 5 4 9 9 9 12 0 71 59 71 70 0 5 11 17 25
28 14 11 25 25 25 31 0 6 7 11 15 11 8 0 15 6 15 13 0 7 9 18 20 25 11 7 20
18 20 25 0 8 11 20 25 27 14 7 25 17 25 22 0 4 6 8 13 8 6 0 28 22 47 50 19
27 38 49 43 50 4 0 7 9 7 19 0 11 9 21 23 25 33 8 75 48 82 79 4 15 11 27 15
27 5 0 11 9 15 19 3 11 19 24 35 30 17 5 30 16 30 23 0 16 47 68 60 68 6 0 10
7 10 15 0 22 28 18 42 -5z m569 -44 c11 -14 28 -28 39 -31 10 -3 21 -14 24
-23 3 -10 19 -23 36 -29 16 -6 30 -18 30 -27 0 -9 7 -16 15 -16 8 0 15 -6 15
-13 0 -8 12 -20 27 -28 33 -17 93 -74 93 -89 0 -5 5 -10 10 -10 6 0 10 -6 10
-14 0 -8 9 -17 19 -21 11 -3 23 -15 26 -26 4 -10 12 -19 18 -19 16 -1 57 -35
57 -48 0 -5 9 -12 21 -15 11 -3 23 -15 26 -26 3 -12 11 -21 19 -21 7 0 21 -11
30 -25 9 -14 22 -25 28 -25 7 0 41 -31 76 -70 35 -38 72 -72 81 -75 10 -4 21
-15 24 -25 3 -10 15 -22 26 -25 10 -4 19 -13 19 -22 0 -8 9 -17 20 -20 11 -3
20 -12 20 -19 0 -8 6 -14 13 -14 7 0 21 -12 32 -27 11 -15 35 -40 53 -57 19
-17 44 -41 57 -53 13 -13 27 -23 30 -23 8 0 35 -27 35 -34 0 -4 20 -26 45 -50
25 -25 45 -50 45 -55 0 -6 5 -11 10 -11 13 0 60 -46 60 -58 0 -5 19 -14 41
-21 31 -9 44 -20 52 -42 6 -16 17 -29 25 -29 18 0 39 -22 44 -46 2 -10 16 -25
31 -32 16 -8 49 -34 75 -58 25 -24 52 -44 59 -44 7 0 13 -5 13 -12 0 -6 25
-35 55 -63 30 -29 55 -57 55 -63 0 -6 6 -12 13 -15 8 -3 4 -11 -12 -26 -20
-18 -36 -21 -108 -21 -49 0 -83 4 -83 10 0 6 -11 10 -23 10 -13 0 -27 3 -31 7
-4 4 -30 14 -59 23 -39 12 -53 21 -55 37 -2 15 -13 23 -39 28 -55 10 -100 35
-115 64 -7 14 -15 28 -18 31 -3 3 -12 24 -19 47 -21 64 -81 67 -81 3 0 -28
-32 -63 -84 -90 -43 -22 -187 -21 -209 2 -19 18 -23 48 -7 48 6 0 10 9 10 20
0 11 5 20 11 20 14 0 39 26 39 40 0 6 11 23 25 38 19 20 25 38 25 72 0 63 -19
174 -31 178 -5 2 -9 10 -9 18 0 8 -4 14 -9 14 -5 0 -12 14 -16 30 -5 21 -13
30 -26 30 -12 0 -21 9 -25 27 -9 36 -56 83 -83 83 -11 0 -21 5 -21 11 0 26
-102 99 -139 99 -17 0 -31 5 -31 10 0 6 -15 10 -34 10 -19 0 -36 4 -38 8 -6
17 -77 21 -92 6 -8 -8 -22 -14 -30 -14 -9 0 -16 -4 -16 -9 0 -5 -18 -11 -40
-15 -45 -7 -79 -38 -87 -78 -4 -21 -11 -28 -29 -28 -17 0 -24 6 -24 19 0 11
-4 23 -10 26 -5 3 -10 22 -10 41 0 19 -4 34 -10 34 -5 0 -10 13 -10 29 0 17 5
33 10 36 6 3 10 19 10 35 0 16 5 32 10 35 6 3 10 13 10 21 0 21 22 42 54 50
14 3 26 10 26 15 0 5 16 9 35 9 28 0 36 4 41 24 7 28 -25 66 -55 66 -11 0 -28
11 -39 25 -11 14 -29 25 -41 25 -12 0 -21 6 -21 15 0 8 -4 15 -10 15 -5 0 -15
20 -21 45 -6 25 -15 48 -20 51 -5 3 -9 18 -9 35 0 16 -4 29 -10 29 -6 0 -10
35 -10 85 0 91 8 103 41 61z m4599 -16 c0 -16 -4 -30 -10 -30 -6 0 -10 -40
-10 -100 0 -78 -4 -107 -17 -128 -10 -15 -20 -29 -24 -32 -4 -3 -10 -19 -13
-37 -6 -25 -14 -33 -37 -38 -16 -4 -29 -13 -29 -21 0 -11 -16 -14 -65 -14
l-65 0 0 -30 c0 -20 5 -30 15 -30 8 0 15 -4 15 -10 0 -5 11 -12 25 -16 14 -3
25 -12 25 -20 0 -8 5 -14 10 -14 6 0 10 -6 10 -14 0 -7 9 -20 20 -27 17 -12
21 -29 27 -105 5 -84 4 -93 -16 -113 -11 -11 -21 -30 -21 -41 0 -11 -5 -20
-11 -20 -14 0 -39 -25 -39 -39 0 -15 -39 -14 -53 2 -7 6 -18 24 -26 40 -8 15
-20 27 -28 27 -7 0 -13 4 -13 10 0 14 -90 51 -142 57 -60 7 -199 -13 -260 -38
-26 -10 -58 -19 -72 -19 -17 0 -26 -6 -26 -15 0 -9 -10 -20 -23 -26 -12 -6
-32 -23 -42 -40 -11 -16 -23 -29 -27 -29 -5 0 -8 -9 -8 -19 0 -11 -6 -26 -14
-34 -8 -7 -17 -44 -21 -80 -4 -37 -11 -70 -16 -73 -12 -7 -12 -111 0 -119 6
-3 13 -37 17 -75 4 -42 11 -70 18 -70 6 0 20 -11 30 -25 10 -14 29 -25 42 -25
30 0 54 -10 54 -22 0 -13 -26 -38 -39 -38 -6 0 -11 -4 -11 -10 0 -5 -11 -10
-24 -10 -14 0 -28 -4 -31 -10 -3 -5 -21 -10 -40 -10 -18 0 -35 -5 -37 -12 -6
-16 -84 8 -112 34 -11 10 -28 20 -38 24 -27 8 -68 86 -75 143 -6 56 -22 76
-51 67 -19 -6 -32 -43 -32 -91 0 -13 -16 -39 -35 -59 -19 -20 -35 -40 -35 -45
0 -5 -9 -11 -21 -14 -11 -3 -23 -15 -26 -26 -3 -12 -11 -21 -19 -21 -7 0 -23
-11 -36 -24 -24 -25 -48 -32 -137 -45 -30 -4 -57 -13 -59 -19 -5 -15 -322 -17
-322 -2 0 6 5 10 10 10 6 0 10 7 10 15 0 8 5 15 11 15 5 0 22 11 37 25 78 74
130 117 155 131 15 8 27 19 27 24 0 6 7 10 15 10 8 0 15 5 15 11 0 14 25 39
39 39 6 0 11 5 11 10 0 6 7 10 15 10 8 0 15 9 15 20 0 13 7 20 20 20 11 0 20
4 20 8 0 5 12 15 27 23 32 17 123 104 123 119 0 5 9 10 20 10 11 0 20 7 20 15
0 9 9 15 21 15 12 0 48 27 87 65 36 36 69 65 74 65 4 0 8 7 8 15 0 8 7 15 15
15 8 0 15 5 15 10 0 6 6 10 13 10 8 0 22 9 32 20 10 11 22 20 27 20 4 0 25 16
45 35 20 19 43 35 50 35 7 0 13 7 13 15 0 8 7 15 16 15 8 0 13 4 10 8 -7 11
30 42 50 42 8 0 32 15 52 34 35 32 52 47 100 87 11 10 34 20 51 24 17 4 31 13
31 21 0 8 6 14 14 14 7 0 19 14 26 30 7 17 19 30 27 30 8 0 29 15 46 33 18 18
49 44 69 57 21 14 38 28 38 33 0 4 7 7 15 7 8 0 15 7 15 15 0 8 9 15 20 15 13
0 28 13 40 33 11 19 31 40 45 47 14 7 25 17 25 22 0 4 4 8 10 8 5 0 38 27 72
60 102 97 112 106 141 120 15 7 27 17 27 22 0 17 25 37 48 38 18 0 22 -5 22
-30z m-14681 -864 c71 -60 120 -120 132 -161 12 -44 6 -118 -10 -123 -6 -2
-11 -19 -11 -38 0 -50 28 -45 89 16 48 48 52 50 106 50 30 0 55 -4 55 -10 0
-5 9 -10 20 -10 11 0 20 -4 20 -10 0 -5 15 -10 34 -10 l33 0 8 -67 c4 -38 8
-82 8 -99 1 -30 -21 -64 -41 -64 -22 0 -82 -70 -82 -95 l0 -26 70 7 c49 5 70
3 70 -5 0 -6 11 -11 23 -11 13 0 32 -9 42 -20 10 -11 31 -20 47 -20 24 0 28
-4 28 -30 0 -16 5 -30 10 -30 6 0 10 -6 10 -14 0 -8 7 -16 15 -20 8 -3 15 -12
15 -21 0 -8 7 -15 15 -15 8 0 15 -7 15 -15 0 -8 5 -15 11 -15 14 0 43 -29 36
-37 -6 -6 -489 -5 -495 2 -2 2 -6 25 -8 52 -4 57 -24 123 -36 123 -4 0 -8 9
-8 20 0 11 -4 20 -8 20 -5 0 -14 11 -20 24 -6 13 -20 27 -31 31 -12 3 -21 11
-21 16 0 22 -48 56 -95 68 -28 7 -66 17 -85 22 l-35 11 2 246 c2 312 1 292 17
292 8 0 33 -15 55 -34z m14920 -350 l-1 -264 -56 -4 c-31 -3 -58 -10 -60 -16
-2 -7 -15 -12 -28 -12 -38 0 -114 -53 -114 -80 0 -5 -4 -10 -8 -10 -10 0 -28
-50 -42 -122 l-11 -58 -310 0 -309 0 0 23 c0 13 9 33 20 45 11 12 20 26 20 32
0 5 9 10 20 10 11 0 20 4 20 9 0 15 68 22 188 21 l112 -1 0 29 c0 26 -38 82
-55 82 -3 0 -12 5 -19 12 -14 13 -10 116 5 133 5 5 9 21 9 37 0 18 8 33 23 42
40 26 247 14 247 -14 0 -6 7 -10 15 -10 8 0 15 -4 15 -10 0 -5 18 -10 40 -10
l40 0 0 95 c0 52 4 95 9 95 5 0 12 12 15 28 8 36 101 132 129 132 7 0 24 11
37 24 48 47 49 44 49 -238z m-4941 208 c12 -4 22 -13 22 -20 0 -8 6 -14 14
-14 8 0 17 -11 20 -25 4 -14 11 -25 16 -25 6 0 10 -7 10 -15 0 -8 5 -15 10
-15 6 0 10 -9 10 -20 0 -11 5 -20 10 -20 6 0 10 -22 10 -50 0 -27 -4 -50 -10
-50 -5 0 -10 -14 -10 -31 0 -27 3 -30 23 -26 64 16 131 19 170 7 23 -7 57 -17
75 -22 26 -8 32 -15 32 -36 0 -47 -17 -89 -49 -123 -17 -17 -31 -38 -31 -44 0
-18 25 -26 59 -19 40 8 132 -23 138 -47 3 -11 9 -19 14 -19 5 0 9 -9 9 -20 0
-11 4 -20 10 -20 5 0 15 -20 21 -45 6 -25 15 -45 20 -45 5 0 9 -9 9 -20 0 -20
-5 -20 -172 -18 l-173 3 -3 25 c-2 14 -7 34 -11 45 -5 11 -14 39 -21 63 -7 23
-19 42 -27 42 -7 0 -13 7 -13 15 0 8 -4 15 -10 15 -5 0 -10 5 -10 11 0 16 -21
34 -63 54 -20 9 -37 21 -37 26 0 5 -12 9 -26 9 -14 0 -31 6 -38 13 -8 6 -23
18 -34 26 -19 14 -21 25 -21 218 -1 113 1 209 4 214 7 10 21 11 53 3z m-4587
-63 c32 -32 59 -63 59 -70 0 -6 7 -11 15 -11 10 0 15 -10 15 -30 0 -16 5 -30
10 -30 6 0 10 -18 10 -40 0 -22 -4 -40 -10 -40 -5 0 -10 -18 -10 -40 0 -34 3
-40 21 -40 29 0 59 18 59 35 0 12 18 15 90 15 53 0 90 -4 90 -10 0 -5 8 -10
19 -10 20 0 31 -34 31 -101 0 -28 -4 -39 -15 -39 -8 0 -15 -6 -15 -14 0 -8 -9
-18 -20 -21 -23 -7 -28 -63 -8 -83 15 -15 48 -16 48 -2 0 14 48 12 57 -2 9
-15 41 -36 66 -44 9 -4 17 -12 17 -18 0 -7 11 -19 25 -26 14 -7 25 -22 25 -32
0 -10 7 -21 15 -24 8 -4 15 -14 15 -24 0 -15 -8 -17 -62 -14 -35 1 -118 3
-184 3 l-122 1 -7 28 c-8 31 -56 112 -67 112 -5 0 -8 7 -8 14 0 18 -43 66 -59
66 -6 0 -11 4 -11 9 0 5 -8 11 -17 15 -20 6 -55 28 -63 38 -3 3 -22 9 -42 13
-26 5 -38 13 -42 29 -3 13 -8 111 -12 220 -5 149 -3 200 6 211 7 8 15 15 17
15 3 0 31 -26 64 -59z m-399 -86 c-3 -133 -17 -309 -26 -324 -4 -6 -16 -11
-27 -11 -10 0 -19 -4 -19 -10 0 -5 -17 -10 -37 -10 -28 0 -47 -8 -72 -30 -21
-18 -45 -30 -62 -30 -19 0 -29 -5 -29 -14 0 -8 -9 -18 -20 -21 -11 -3 -20 -13
-20 -21 0 -8 -4 -14 -10 -14 -5 0 -10 -11 -10 -25 0 -14 -7 -28 -15 -31 -8 -4
-15 -18 -15 -33 0 -14 -4 -31 -8 -37 -11 -16 -402 -13 -402 4 0 6 5 12 10 12
6 0 10 7 10 15 0 8 5 15 10 15 6 0 10 9 10 20 0 11 4 20 9 20 5 0 12 8 15 18
14 37 31 62 42 62 6 0 21 9 34 20 17 15 37 20 82 20 32 0 58 -4 58 -10 0 -5
14 -10 30 -10 37 0 37 10 5 58 -14 20 -25 49 -25 64 0 15 -4 30 -10 33 -5 3
-10 28 -10 56 l0 49 38 2 c63 3 126 -2 147 -13 11 -5 26 -23 34 -40 7 -16 19
-29 26 -29 7 0 15 -7 19 -15 3 -8 12 -15 21 -15 11 0 15 11 15 45 0 33 -4 45
-15 45 -11 0 -15 11 -15 40 0 22 4 40 9 40 5 0 11 13 14 29 3 16 22 45 42 66
19 21 35 41 35 46 0 4 9 10 20 14 11 3 33 20 50 36 16 17 38 29 47 27 16 -3
18 -15 15 -113z m4650 63 c3 -24 0 -55 -5 -70 -7 -24 -7 -58 4 -158 1 -8 0
-40 -2 -70 -5 -69 -25 -89 -89 -90 -34 0 -49 -5 -60 -20 -8 -11 -29 -23 -47
-26 -19 -4 -38 -15 -44 -25 -5 -11 -14 -19 -20 -19 -17 0 -39 -27 -39 -49 0
-11 -4 -23 -10 -26 -5 -3 -10 -15 -10 -26 0 -10 -4 -19 -9 -19 -6 0 -11 -21
-13 -47 l-3 -48 -180 -5 c-99 -3 -188 -3 -197 -1 -27 5 -22 38 6 45 19 5 26
15 31 45 6 36 33 81 49 81 3 0 15 9 26 20 22 22 53 25 118 10 34 -8 46 -7 58
4 20 20 17 56 -6 86 -11 14 -20 33 -20 42 0 9 -4 20 -10 23 -17 11 -12 113 7
135 38 44 233 11 233 -39 0 -6 5 -11 10 -11 6 0 10 -7 10 -16 0 -9 6 -14 13
-12 8 3 13 31 15 81 2 42 7 77 12 77 5 0 10 7 12 16 4 20 128 151 144 153 7 0
14 -18 16 -41z"/>
</g>
</svg>
