<?xml version="1.0" standalone="no"?>
<!DOCTYPE svg PUBLIC "-//W3C//DTD SVG 20010904//EN"
 "http://www.w3.org/TR/2001/REC-SVG-20010904/DTD/svg10.dtd">
<svg version="1.0" xmlns="http://www.w3.org/2000/svg"
 width="2164.000000pt" height="399.000000pt" viewBox="0 0 2164.000000 399.000000"
 preserveAspectRatio="xMidYMid meet">
<metadata>
Created by potrace 1.13, written by Peter Selinger 2001-2015
</metadata>
<g transform="translate(0.000000,399.000000) scale(0.100000,-0.100000)"
fill="#000000" stroke="none">
<path d="M185 3961 c-30 -6 -30 -7 -33 -76 -1 -39 -7 -79 -12 -90 -12 -23 21
-167 39 -173 6 -2 11 -10 11 -18 0 -8 4 -14 10 -14 5 0 9 -8 8 -17 -2 -34 2
-53 13 -53 5 0 40 -32 76 -70 49 -52 71 -69 84 -65 12 4 29 -3 46 -19 18 -17
43 -27 79 -32 51 -6 53 -7 69 -50 13 -36 14 -48 5 -59 -8 -10 -10 -29 -7 -52
5 -27 2 -42 -10 -56 -15 -16 -15 -19 -3 -28 13 -8 13 -10 0 -19 -10 -6 -11
-13 -5 -17 6 -5 12 -53 14 -108 1 -55 5 -103 7 -107 3 -4 4 -353 3 -775 -1
-423 -2 -788 -2 -813 0 -25 3 -77 7 -116 6 -61 4 -74 -10 -89 -15 -15 -16 -20
-4 -39 10 -16 13 -65 12 -196 -1 -96 -1 -178 -2 -182 0 -3 -37 -8 -82 -11 -80
-3 -199 -32 -206 -49 -2 -4 -8 -8 -13 -8 -10 0 -39 -22 -76 -57 -13 -13 -32
-27 -43 -33 -11 -6 -20 -15 -20 -20 0 -5 -20 -28 -44 -50 -33 -30 -45 -50 -50
-80 -4 -24 -12 -40 -20 -40 -9 0 -13 -19 -14 -69 -1 -62 1 -71 22 -84 12 -9
59 -19 104 -22 70 -7 92 -4 154 16 40 12 75 25 78 28 3 4 22 17 43 31 20 14
40 33 43 43 3 9 12 17 21 17 20 0 61 45 80 90 8 19 23 43 33 52 10 9 21 33 24
54 8 38 26 64 45 64 6 0 11 5 11 11 0 8 15 10 48 5 27 -3 51 -4 54 -1 3 3 133
7 289 9 156 3 484 7 729 11 336 5 464 3 523 -6 56 -9 80 -10 85 -2 9 14 3042
15 3042 0 0 -5 7 -6 18 -1 24 11 2072 12 2072 1 0 -5 8 -6 18 -2 25 11 345 15
358 4 6 -5 240 -7 555 -3 299 3 567 4 594 2 56 -2 115 -3 220 -1 39 1 158 1
265 0 107 0 227 2 267 5 39 3 75 2 80 -2 4 -5 138 -10 296 -11 242 -2 290 0
298 12 8 12 11 12 18 -1 14 -22 637 -22 651 0 9 13 11 13 19 1 8 -12 56 -14
298 -12 158 1 292 6 296 11 5 4 41 5 80 2 40 -3 160 -5 267 -5 107 1 227 1
265 0 105 -2 164 -1 220 1 28 2 295 1 594 -2 315 -4 549 -2 555 3 13 11 333 7
359 -4 9 -4 17 -3 17 2 0 11 2048 10 2073 -1 10 -5 17 -4 17 1 0 15 3033 14
3042 0 5 -8 29 -7 85 2 59 9 187 11 523 6 245 -4 573 -8 729 -11 156 -2 286
-6 289 -9 3 -3 27 -2 54 1 33 5 48 3 48 -5 0 -6 5 -11 11 -11 19 0 37 -26 45
-64 3 -21 14 -45 24 -54 10 -9 25 -33 33 -52 19 -45 60 -90 80 -90 9 0 18 -8
21 -17 3 -10 23 -29 43 -43 21 -14 40 -27 43 -31 3 -3 38 -16 78 -28 62 -20
84 -23 154 -16 45 3 92 13 104 22 21 13 23 22 22 84 -1 50 -5 69 -14 69 -8 0
-16 16 -20 40 -5 30 -17 50 -50 80 -24 22 -44 45 -44 50 0 5 -9 14 -20 20 -11
6 -30 20 -43 33 -37 35 -66 57 -76 57 -5 0 -11 4 -13 8 -7 17 -126 46 -205 49
-46 3 -83 8 -83 11 -1 4 -1 86 -2 182 -1 131 2 180 12 196 12 19 11 24 -4 39
-14 15 -16 28 -10 89 4 39 7 91 7 116 0 25 -1 390 -2 813 -1 422 0 771 3 775
2 4 6 52 7 107 2 55 8 103 14 108 6 4 5 11 -5 17 -13 9 -13 11 0 19 12 9 12
12 -3 28 -12 14 -15 29 -10 56 3 23 1 42 -7 52 -9 11 -8 23 5 59 16 43 18 44
69 50 36 5 61 15 79 32 17 16 34 23 46 19 13 -4 35 13 84 65 36 38 71 70 76
70 11 0 15 19 13 53 -1 9 3 17 8 17 6 0 10 6 10 14 0 8 5 16 11 18 18 6 51
150 39 173 -5 11 -11 51 -12 90 l-3 69 -40 8 c-24 5 -41 5 -43 -1 -2 -5 -21
-7 -42 -4 -28 4 -44 1 -55 -11 -9 -9 -31 -16 -48 -16 -20 0 -39 -8 -50 -20 -9
-11 -24 -20 -32 -20 -8 0 -15 -7 -15 -15 0 -8 -7 -15 -15 -15 -8 0 -15 -4 -15
-10 0 -5 -9 -10 -21 -10 -12 0 -23 -8 -26 -20 -3 -11 -12 -20 -20 -20 -10 0
-13 -6 -9 -17 4 -9 -1 -24 -11 -34 -36 -36 -43 -49 -43 -73 0 -14 -6 -29 -14
-33 -35 -19 -62 -122 -36 -138 5 -3 7 -19 4 -34 -4 -16 -1 -32 5 -35 6 -4 11
-17 11 -29 l0 -22 -218 2 c-119 0 -268 3 -329 6 -62 3 -113 2 -113 -2 0 -14
-2524 -11 -2532 3 -6 8 -10 8 -15 0 -6 -8 -299 -12 -1083 -12 -591 -1 -1370
-4 -1730 -7 -360 -4 -729 -5 -820 -3 -91 1 -300 2 -465 0 -165 -1 -352 -1
-415 0 -63 1 -140 1 -170 1 -72 0 -4447 0 -4525 0 -33 0 -112 0 -175 -1 -63
-1 -250 -1 -415 0 -165 2 -374 1 -465 0 -91 -2 -460 -1 -820 3 -360 3 -1139 6
-1730 7 -784 0 -1077 4 -1082 12 -6 8 -10 8 -15 0 -9 -14 -2533 -17 -2533 -3
0 4 -51 5 -112 2 -62 -3 -211 -6 -330 -6 l-218 -2 0 22 c0 12 5 25 11 29 6 3
9 19 5 35 -3 15 -1 31 4 34 26 16 -1 119 -36 138 -8 4 -14 19 -14 33 0 24 -7
37 -43 73 -10 10 -15 25 -11 34 4 11 1 17 -9 17 -8 0 -17 9 -20 20 -3 12 -14
20 -26 20 -12 0 -21 5 -21 10 0 6 -7 10 -15 10 -8 0 -15 7 -15 15 0 8 -7 15
-15 15 -8 0 -23 9 -32 20 -11 12 -30 20 -50 20 -17 0 -39 7 -48 16 -12 12 -27
15 -56 11 -21 -3 -39 -1 -39 4 0 10 -10 10 -55 0z m75 -51 c0 -5 16 -10 35
-10 19 0 35 -4 35 -10 0 -5 6 -10 13 -10 7 0 22 -8 33 -19 11 -10 31 -22 45
-26 13 -4 38 -23 56 -41 17 -19 36 -34 42 -34 6 0 11 -6 11 -13 0 -7 9 -19 20
-27 11 -8 23 -29 26 -47 4 -19 12 -33 20 -33 11 0 14 -18 14 -74 0 -62 -3 -77
-19 -88 -10 -7 -21 -23 -25 -35 -4 -13 -14 -23 -22 -23 -8 0 -14 -4 -14 -10 0
-19 -75 -11 -98 10 -12 11 -34 20 -49 20 -22 0 -34 9 -53 40 -14 22 -27 40
-30 40 -4 0 -12 16 -20 35 -8 19 -17 35 -22 35 -4 0 -8 6 -8 14 0 8 -9 21 -20
29 -10 7 -19 22 -19 33 0 10 -5 50 -13 88 -9 52 -10 70 -1 73 7 3 9 17 6 39
-5 30 -3 34 16 34 11 0 21 5 21 10 0 6 5 10 10 10 6 0 10 -4 10 -10z m21150 0
c0 -5 10 -10 21 -10 19 0 21 -4 16 -34 -3 -22 -1 -36 6 -39 9 -3 8 -21 -1 -73
-8 -38 -13 -78 -13 -88 0 -11 -9 -26 -19 -33 -11 -8 -20 -21 -20 -29 0 -8 -4
-14 -8 -14 -5 0 -14 -16 -22 -35 -8 -19 -16 -35 -20 -35 -3 0 -16 -18 -30 -40
-19 -31 -31 -40 -53 -40 -15 0 -37 -9 -49 -20 -23 -21 -98 -29 -98 -10 0 6 -6
10 -14 10 -8 0 -18 10 -22 23 -4 12 -15 28 -25 35 -16 11 -19 26 -19 88 0 56
3 74 14 74 8 0 16 14 20 33 3 18 15 39 26 47 11 8 20 20 20 27 0 7 5 13 11 13
6 0 25 15 42 34 18 18 43 37 56 41 14 4 34 16 45 26 11 11 26 19 33 19 7 0 13
5 13 10 0 6 16 10 35 10 19 0 35 5 35 10 0 6 5 10 10 10 6 0 10 -4 10 -10z
m-19970 -613 c41 -2 80 -1 85 2 6 3 127 4 270 1 143 -3 350 -2 459 2 110 4
205 4 210 0 6 -3 148 -5 316 -3 340 5 336 5 545 3 83 -1 193 -2 245 -2 52 1
205 0 339 0 134 0 252 2 262 5 11 4 19 3 19 -2 0 -4 942 -7 2093 -7 1415 1
2131 -2 2211 -9 92 -9 121 -8 124 1 4 14 72 16 72 2 0 -5 18 -10 40 -10 23 0
40 5 40 11 0 8 16 9 53 4 85 -12 257 -15 257 -5 0 6 29 10 65 10 38 0 65 -4
65 -10 0 -13 252 -12 261 1 3 5 21 4 39 -1 45 -13 140 -13 140 0 0 6 7 10 15
10 8 0 15 -4 15 -9 0 -12 527 -13 570 -1 23 7 36 7 38 0 5 -14 1069 -14 1074
0 2 7 15 7 38 0 43 -12 570 -11 570 1 0 5 7 9 15 9 8 0 15 -4 15 -10 0 -13 95
-13 140 0 18 5 36 6 39 1 9 -13 261 -14 261 -1 0 6 27 10 65 10 36 0 65 -4 65
-10 0 -10 172 -7 258 5 36 5 52 4 52 -4 0 -6 17 -11 40 -11 22 0 40 5 40 10 0
14 68 12 72 -2 3 -9 32 -10 124 -1 80 7 796 10 2211 9 1151 0 2093 3 2093 7 0
5 8 6 19 2 10 -3 128 -5 262 -5 134 0 287 1 339 0 52 0 163 1 245 2 209 2 205
2 545 -3 168 -2 310 0 316 3 5 4 100 4 210 0 109 -4 316 -5 459 -2 143 3 265
2 270 -1 6 -3 37 -4 70 -3 55 3 672 7 773 5 l42 -1 -6 -114 c-5 -80 -4 -115 5
-120 14 -9 15 -56 1 -56 -11 0 -9 -1059 3 -1272 3 -60 2 -108 -2 -108 -7 0
-17 -348 -26 -854 -2 -104 -6 -141 -16 -147 -18 -11 -58 -12 -1384 -10 -2941
4 -3669 2 -3743 -11 -59 -10 -75 -10 -81 1 -6 10 -128 11 -597 6 -324 -3
-1181 -8 -1904 -11 -737 -3 -1317 -10 -1320 -15 -4 -5 -40 -5 -86 0 -103 12
-1955 12 -2058 0 -46 -5 -82 -5 -86 0 -3 5 -583 12 -1320 15 -723 3 -1580 8
-1904 11 -469 5 -591 4 -597 -6 -6 -11 -22 -11 -81 -1 -74 13 -802 15 -3743
11 -1326 -2 -1366 -1 -1384 10 -10 6 -14 43 -16 147 -9 506 -19 854 -26 854
-4 0 -5 48 -2 108 12 213 14 1272 3 1272 -14 0 -13 47 1 56 9 5 10 40 5 120
l-6 113 42 3 c55 4 660 0 758 -5z m-907 -2774 c5 -3 6 -12 2 -21 -3 -8 -2 -18
3 -21 5 -3 12 -18 16 -33 5 -21 0 -33 -19 -52 -14 -14 -25 -30 -25 -36 0 -5
-6 -10 -13 -10 -7 0 -19 -16 -27 -35 -14 -35 -47 -65 -72 -65 -7 0 -31 -16
-53 -35 -22 -19 -50 -35 -62 -35 -13 0 -23 -4 -23 -9 0 -5 -29 -12 -64 -16
-72 -8 -136 9 -136 35 0 61 49 145 127 222 80 79 102 95 129 102 16 4 45 11
64 16 33 8 136 4 153 -7z m20779 -4 c9 -5 24 -9 32 -9 23 0 136 -107 190 -180
31 -42 56 -104 56 -140 0 -26 -64 -43 -136 -35 -35 4 -64 11 -64 16 0 5 -10 9
-22 9 -13 0 -41 16 -63 35 -22 19 -46 35 -53 35 -25 0 -58 30 -72 65 -8 19
-20 35 -27 35 -7 0 -13 5 -13 10 0 6 -11 22 -25 36 -19 19 -24 31 -19 52 4 15
11 29 15 32 4 3 7 14 6 25 -2 15 6 21 33 27 41 7 138 0 162 -13z"/>
<path d="M970 3102 c-30 -9 -60 -20 -66 -24 -15 -10 -10 -1031 6 -1036 17 -6
12 -62 -6 -62 -14 0 -16 -8 -10 -47 16 -115 19 -183 7 -183 -7 0 -11 -23 -11
-65 0 -36 4 -65 9 -65 6 0 10 -68 10 -166 0 -102 4 -171 10 -178 8 -10 7 -25
-4 -56 -17 -49 -20 -90 -5 -90 6 0 10 -55 10 -145 l0 -146 88 3 c48 1 872 1
1832 0 960 0 2080 -1 2490 -2 484 0 746 -4 748 -10 5 -13 49 -13 57 0 9 15
221 13 245 -2 16 -10 24 -10 40 0 24 15 230 17 230 2 0 -5 20 -10 45 -10 26 0
45 5 45 11 0 7 13 9 38 5 89 -16 122 -18 122 -7 0 15 172 15 187 0 7 -7 35 -9
79 -5 76 7 70 7 416 1 164 -4 248 -2 248 5 0 5 9 10 20 10 11 0 20 -4 20 -10
0 -7 992 -10 2955 -10 1963 0 2955 3 2955 10 0 6 9 10 20 10 11 0 20 -5 20
-10 0 -7 84 -9 248 -5 346 6 340 6 416 -1 44 -4 72 -2 79 5 15 15 187 15 187
0 0 -11 33 -9 123 7 24 4 37 2 37 -5 0 -6 19 -11 45 -11 25 0 45 5 45 10 0 15
206 13 230 -2 16 -10 24 -10 40 0 24 15 236 17 245 2 8 -13 52 -13 57 0 2 6
264 10 748 10 410 1 1530 2 2490 2 960 1 1784 1 1833 0 l87 -3 0 146 c0 90 4
145 10 145 15 0 12 41 -5 90 -11 31 -12 46 -4 56 6 7 10 76 10 178 0 98 4 166
10 166 5 0 9 29 9 65 0 42 -4 65 -11 65 -12 0 -9 68 7 183 6 39 4 47 -10 47
-18 0 -23 56 -6 62 16 5 21 1025 6 1036 -6 5 -38 16 -72 25 -68 19 -264 24
-264 7 0 -6 -33 -10 -80 -10 -47 0 -80 4 -80 10 0 6 -46 10 -119 10 -69 0
-122 -4 -126 -10 -8 -13 -85 -13 -85 0 0 6 -52 10 -135 10 -74 0 -135 -4 -135
-8 0 -10 -115 -10 -1595 -11 -2012 -1 -2675 -3 -2675 -11 0 -3 -125 -4 -277
-2 -153 2 -289 3 -303 3 -14 0 -506 -3 -1095 -6 -588 -3 -1307 -7 -1597 -9
-360 -3 -528 -1 -528 6 0 7 -19 8 -57 3 -96 -14 -1276 -15 -1367 -2 -58 8 -81
8 -83 0 -3 -8 -151 -10 -531 -7 -290 2 -1008 6 -1597 9 -588 3 -1081 6 -1095
6 -14 0 -150 -1 -303 -3 -152 -2 -277 -1 -277 2 0 8 -663 10 -2675 11 -1480 1
-1595 1 -1595 11 0 4 -61 8 -135 8 -83 0 -135 -4 -135 -10 0 -5 -18 -10 -39
-10 -22 0 -43 5 -46 10 -4 6 -57 10 -126 10 -73 0 -119 -4 -119 -10 0 -6 -33
-10 -80 -10 -47 0 -80 4 -80 10 0 17 -208 11 -270 -8z m2291 -104 c11 -15 19
-39 19 -68 1 -47 20 -80 53 -93 11 -4 21 -16 24 -26 2 -10 16 -24 29 -31 13
-8 24 -19 24 -27 0 -8 13 -13 35 -13 19 0 35 -4 35 -10 0 -5 7 -10 15 -10 8 0
15 -7 15 -15 0 -8 4 -15 8 -15 5 0 12 -72 15 -160 6 -143 5 -162 -10 -180 -23
-27 -45 -25 -73 5 -13 14 -28 25 -33 25 -5 0 -17 9 -26 19 -9 10 -28 21 -41
23 -19 2 -25 9 -24 28 1 13 -5 31 -13 39 -9 8 -12 22 -8 35 4 12 9 32 12 46 3
14 12 30 20 37 8 6 13 23 11 40 -2 23 -9 29 -32 31 -22 3 -35 -4 -57 -27 -15
-17 -33 -31 -38 -31 -6 0 -11 -4 -11 -10 0 -25 -175 -3 -193 24 -11 16 3 118
18 136 8 8 18 27 24 43 6 15 18 27 26 27 12 0 15 8 13 33 -4 42 -33 47 -70 12
-24 -22 -36 -25 -103 -25 -43 0 -75 4 -75 10 0 6 -8 10 -18 10 -9 0 -23 9 -30
20 -7 11 -21 20 -32 20 -12 0 -20 7 -20 16 0 9 -12 27 -26 39 -15 13 -23 28
-20 34 5 8 89 11 272 11 263 0 266 0 285 -22z m448 -150 c1 -103 5 -174 11
-176 13 -5 13 -62 0 -62 -5 0 -10 -20 -10 -45 0 -25 5 -45 10 -45 6 0 10 -103
10 -289 0 -245 -2 -290 -15 -294 -11 -5 -13 -20 -8 -74 3 -37 10 -69 15 -71
12 -5 10 -512 -2 -512 -5 0 -10 -20 -10 -45 0 -25 5 -45 10 -45 6 0 10 -40 10
-100 0 -60 -4 -100 -10 -100 -5 0 -10 -13 -10 -29 0 -56 -7 -61 -76 -61 l-64
0 0 35 c0 19 5 35 11 35 7 0 10 34 10 98 0 53 3 157 7 231 4 74 5 159 2 190
-5 41 -3 59 7 66 10 8 12 39 9 140 -2 72 -5 130 -6 130 -1 0 -3 97 -5 215 -1
118 -6 382 -10 587 -4 204 -4 376 -1 382 4 6 31 11 61 11 l53 0 1 -172z m821
156 c0 -18 -17 -37 -42 -47 -10 -3 -18 -16 -18 -28 0 -12 -13 -35 -30 -51 -16
-15 -30 -33 -30 -38 0 -6 -7 -10 -15 -10 -9 0 -18 -7 -21 -15 -7 -17 -84 -22
-84 -5 0 6 -18 10 -40 10 -33 0 -40 -3 -40 -20 0 -11 5 -20 10 -20 6 0 10 -6
10 -14 0 -8 14 -17 30 -21 29 -6 35 -17 31 -56 -1 -9 5 -22 14 -29 20 -17 19
-61 -2 -104 -18 -35 -18 -36 -85 -36 -39 0 -68 4 -68 10 0 6 -10 10 -23 10
-16 0 -35 16 -61 50 -51 67 -66 65 -66 -5 0 -30 -4 -55 -10 -55 -5 0 -10 -6
-10 -13 0 -8 -11 -20 -25 -27 -18 -9 -25 -22 -25 -42 0 -21 -5 -28 -20 -28
-11 0 -20 -7 -20 -15 0 -8 -4 -15 -10 -15 -5 0 -10 -7 -10 -15 0 -8 -4 -15
-10 -15 -5 0 -10 -5 -10 -11 0 -14 -25 -39 -39 -39 -13 0 -14 63 -4 278 l6
152 27 0 c49 0 90 12 90 26 0 8 7 14 15 14 8 0 15 5 15 10 0 6 9 10 21 10 12
0 23 8 26 20 3 11 13 20 22 20 16 0 65 95 67 131 3 47 14 49 230 49 179 0 204
-2 204 -16z m1742 2 c12 -17 9 -33 -9 -51 -14 -14 -14 -18 -2 -27 11 -7 11
-11 2 -15 -15 -6 -18 -83 -3 -83 9 0 14 -180 11 -390 0 -25 0 -80 0 -122 0
-49 -3 -78 -10 -78 -6 0 -11 -13 -11 -30 0 -16 4 -30 9 -30 9 0 18 -461 12
-617 -1 -40 2 -73 7 -73 9 0 8 -72 -4 -179 -5 -39 -2 -56 7 -62 12 -8 12 -10
0 -18 -10 -6 -11 -17 -6 -37 4 -16 9 -89 10 -161 l3 -133 -89 0 -89 0 -2 78
c-1 42 -1 106 1 141 2 39 -1 66 -8 71 -14 8 -27 110 -15 110 5 0 9 42 10 92 0
51 3 154 7 228 3 74 7 403 8 730 1 521 3 600 17 633 l16 37 61 -2 c33 -1 63
-7 67 -12z m9250 -24 c14 -32 16 -113 17 -632 1 -327 5 -656 8 -730 4 -74 7
-177 7 -228 1 -50 5 -92 10 -92 12 0 -1 -102 -15 -110 -7 -5 -10 -32 -8 -71 2
-35 2 -99 1 -141 l-2 -78 -89 0 -89 0 3 133 c1 72 6 145 10 161 5 20 4 31 -6
37 -12 8 -12 10 0 18 9 6 12 23 7 62 -12 107 -13 179 -4 179 5 0 8 33 7 73 -6
156 3 617 12 617 5 0 9 14 9 30 0 17 -5 30 -11 30 -7 0 -10 29 -10 78 0 42 0
97 0 122 -3 210 2 390 11 390 15 0 12 77 -2 83 -10 4 -10 8 1 15 12 9 12 13
-2 27 -18 18 -20 25 -12 47 4 10 25 15 68 16 l63 2 16 -38z m2018 23 c7 -9 13
-24 14 -34 2 -36 51 -131 67 -131 9 0 19 -9 22 -20 3 -12 14 -20 26 -20 12 0
21 -4 21 -10 0 -5 7 -10 15 -10 8 0 15 -6 15 -14 0 -14 41 -26 90 -26 l27 0 6
-152 c10 -215 9 -278 -4 -278 -14 0 -39 25 -39 39 0 6 -4 11 -10 11 -5 0 -10
7 -10 15 0 8 -4 15 -10 15 -5 0 -10 7 -10 15 0 8 -9 15 -20 15 -15 0 -20 7
-20 28 0 20 -7 33 -25 42 -14 7 -25 19 -25 27 0 7 -4 13 -10 13 -5 0 -10 25
-10 55 0 70 -15 72 -66 5 -26 -34 -45 -50 -61 -50 -13 0 -23 -4 -23 -10 0 -6
-29 -10 -67 -10 -68 0 -68 1 -85 36 -22 43 -23 87 -3 104 9 7 15 20 14 29 -4
39 2 50 31 56 17 4 30 13 30 21 0 8 5 14 10 14 6 0 10 9 10 20 0 17 -7 20 -40
20 -22 0 -40 -4 -40 -10 0 -17 -77 -12 -84 5 -3 8 -12 15 -21 15 -8 0 -15 4
-15 10 0 5 -13 23 -30 38 -16 16 -30 39 -30 51 0 12 -8 25 -17 28 -26 10 -43
29 -43 47 0 14 25 16 204 16 170 0 206 -3 216 -15z m515 -185 c0 -212 -12
-995 -15 -995 -1 0 -4 -58 -6 -130 -3 -101 -1 -132 9 -140 10 -7 12 -25 7 -66
-3 -31 -2 -116 2 -190 4 -74 7 -178 7 -231 0 -64 3 -98 10 -98 6 0 11 -16 11
-35 l0 -35 -64 0 c-69 0 -76 5 -76 61 0 16 -4 29 -10 29 -6 0 -10 40 -10 100
0 60 4 100 10 100 6 0 10 20 10 45 0 25 -4 45 -10 45 -12 0 -14 507 -2 512 5
2 12 34 15 71 5 54 3 69 -8 74 -13 4 -15 49 -15 294 0 186 4 289 10 289 6 0
10 20 10 45 0 25 -4 45 -10 45 -13 0 -13 57 0 62 6 2 10 73 11 176 l1 173 56
-3 57 -3 0 -195z m891 189 c3 -6 -5 -21 -20 -34 -14 -12 -26 -30 -26 -39 0 -9
-8 -16 -20 -16 -11 0 -25 -9 -32 -20 -7 -11 -21 -20 -30 -20 -10 0 -18 -4 -18
-10 0 -6 -32 -10 -75 -10 -67 0 -79 3 -103 25 -37 35 -66 30 -70 -12 -2 -25 1
-33 13 -33 8 0 20 -12 26 -27 6 -16 16 -35 24 -43 15 -18 29 -120 18 -136 -18
-27 -193 -49 -193 -24 0 6 -5 10 -11 10 -5 0 -23 14 -38 31 -22 23 -35 30 -57
27 -23 -2 -30 -8 -32 -31 -2 -17 3 -34 11 -40 8 -7 17 -23 20 -37 3 -14 8 -34
12 -46 4 -13 1 -27 -8 -35 -8 -8 -14 -26 -13 -39 1 -19 -5 -26 -24 -28 -13 -2
-32 -13 -41 -23 -9 -10 -21 -19 -26 -19 -5 0 -20 -11 -33 -25 -28 -30 -50 -32
-73 -5 -15 18 -16 37 -10 180 3 88 10 160 15 160 4 0 8 7 8 15 0 8 7 15 15 15
8 0 15 5 15 10 0 6 16 10 35 10 22 0 35 5 35 13 0 8 11 19 24 27 13 7 27 21
29 31 3 10 13 22 24 26 33 13 52 46 53 91 0 25 7 53 18 67 l17 24 267 1 c185
0 269 -3 274 -11z m-10722 -15 c10 -4 16 -18 16 -35 0 -16 4 -29 10 -29 5 0
12 -11 16 -24 3 -13 16 -29 30 -36 13 -8 24 -17 24 -22 0 -4 4 -8 10 -8 15 0
50 -33 50 -47 0 -7 20 -18 45 -24 25 -6 45 -15 45 -20 0 -5 5 -9 11 -9 36 0
66 -108 50 -185 -6 -34 -6 -52 1 -56 7 -4 8 -24 4 -53 -6 -36 -11 -46 -27 -46
-10 0 -19 5 -19 10 0 6 -11 16 -25 22 -14 6 -25 17 -25 25 0 7 -4 13 -10 13
-5 0 -10 6 -10 14 0 8 -5 16 -11 18 -14 5 -31 92 -18 96 16 6 11 62 -6 62 -8
0 -15 -4 -15 -10 0 -5 -13 -10 -30 -10 -16 0 -30 -4 -30 -10 0 -5 -16 -10 -35
-10 -19 0 -35 4 -35 9 0 4 -23 9 -51 10 -28 0 -54 3 -59 6 -5 3 -7 33 -4 66 4
57 19 89 42 89 16 0 22 41 9 61 -14 23 -44 24 -71 4 -11 -8 -34 -15 -51 -15
-34 0 -85 20 -85 34 0 4 -11 21 -25 38 -14 16 -25 40 -25 54 l0 24 144 0 c79
0 151 -3 160 -6z m520 -156 c-2 -90 -9 -187 -15 -216 -9 -40 -10 -55 -1 -64
15 -15 16 -68 2 -68 -13 0 -14 -467 -1 -472 16 -5 17 -323 1 -333 -14 -9 -13
-68 2 -83 7 -7 12 -44 12 -97 0 -53 -5 -90 -12 -97 -16 -16 -15 -63 2 -113 14
-43 11 -195 -5 -195 -4 0 -5 -47 -2 -105 l6 -105 -56 0 c-54 0 -56 1 -64 33
-10 42 -11 847 0 847 5 0 6 9 2 20 -3 10 -7 188 -7 395 -1 206 -5 375 -9 375
-5 0 -9 53 -9 118 -1 64 -1 133 -1 152 -1 19 2 65 6 103 l8 67 72 0 72 0 -3
-162z m806 152 c0 -11 -40 -50 -52 -50 -4 0 -8 -4 -8 -10 0 -5 -14 -23 -31
-41 -38 -38 -92 -48 -137 -25 -17 9 -40 16 -52 16 -11 0 -20 5 -20 10 0 18
-19 10 -25 -11 -5 -14 0 -28 14 -43 12 -12 21 -32 21 -43 0 -12 5 -23 11 -25
6 -2 10 -35 11 -76 0 -62 -3 -76 -20 -93 -37 -34 -180 -20 -209 20 -19 27 -63
28 -63 2 0 -11 -5 -21 -11 -23 -6 -2 -14 -28 -17 -58 -4 -49 -10 -60 -49 -97
-49 -47 -93 -58 -93 -23 0 11 -4 20 -10 20 -13 0 -13 97 0 105 12 7 8 67 -5
78 -6 6 -6 10 3 14 7 2 12 22 12 44 0 21 5 39 11 39 6 0 17 7 25 15 9 8 25 15
37 15 13 0 31 6 42 14 11 7 32 16 46 19 41 10 129 99 141 144 20 73 18 73 235
73 117 0 193 -4 193 -10z m1315 -97 c4 -60 10 -265 12 -458 8 -753 10 -876 18
-1055 4 -107 12 -188 18 -192 7 -4 6 -20 -2 -50 -7 -25 -10 -78 -8 -128 6
-114 2 -120 -78 -120 -80 0 -84 6 -78 120 2 50 -1 103 -8 128 -8 30 -9 46 -2
50 13 9 25 293 28 637 1 143 3 265 5 270 3 6 -1 19 -7 30 -14 25 -12 294 2
315 6 8 10 87 11 175 0 88 4 211 8 273 l9 112 32 0 32 0 8 -107z m1637 90 c9
-10 21 -35 26 -56 12 -45 100 -134 141 -144 14 -3 35 -12 46 -19 11 -8 29 -14
42 -14 12 0 28 -7 37 -15 8 -8 19 -15 25 -15 6 0 11 -18 11 -39 0 -22 5 -42
13 -44 8 -4 8 -8 2 -14 -13 -11 -17 -71 -5 -78 13 -8 13 -105 0 -105 -5 0 -10
-9 -10 -20 0 -35 -44 -24 -93 23 -39 37 -45 48 -49 97 -3 30 -11 56 -17 58 -6
2 -11 12 -11 23 0 26 -44 25 -63 -2 -29 -40 -172 -54 -209 -20 -17 17 -20 31
-20 93 1 41 5 74 11 76 6 2 11 13 11 25 0 11 9 31 21 43 14 15 19 29 14 43 -6
21 -25 29 -25 11 0 -5 -9 -10 -20 -10 -12 0 -35 -7 -52 -16 -45 -23 -99 -13
-137 25 -17 18 -31 36 -31 41 0 6 -4 10 -8 10 -12 0 -52 39 -52 50 0 6 76 10
193 10 172 0 196 -2 209 -17z m553 -50 c4 -38 7 -84 6 -103 0 -19 0 -88 -1
-152 0 -65 -4 -118 -9 -118 -4 0 -8 -169 -9 -375 0 -207 -4 -385 -7 -395 -4
-11 -3 -20 2 -20 11 0 10 -805 0 -847 -8 -32 -10 -33 -64 -33 l-56 0 6 105 c3
58 2 105 -2 105 -16 0 -19 152 -5 195 17 50 18 97 2 113 -7 7 -12 44 -12 97 0
53 5 90 12 97 15 15 16 74 2 83 -16 10 -15 328 1 333 13 5 12 472 -1 472 -14
0 -13 53 2 68 9 9 8 24 -1 64 -6 29 -13 126 -15 216 l-3 162 72 0 72 0 8 -67z
m675 43 c0 -14 -11 -38 -25 -54 -14 -17 -25 -34 -25 -38 0 -14 -51 -34 -85
-34 -17 0 -40 7 -51 15 -27 20 -57 19 -71 -4 -13 -20 -7 -61 9 -61 23 0 38
-32 42 -89 3 -33 1 -63 -4 -66 -5 -3 -31 -6 -59 -6 -28 -1 -51 -6 -51 -10 0
-5 -16 -9 -35 -9 -19 0 -35 5 -35 10 0 6 -13 10 -30 10 -16 0 -30 5 -30 10 0
6 -7 10 -15 10 -17 0 -22 -56 -6 -62 13 -4 -4 -91 -18 -96 -6 -2 -11 -10 -11
-18 0 -8 -4 -14 -10 -14 -5 0 -10 -6 -10 -13 0 -8 -11 -19 -25 -25 -14 -6 -25
-16 -25 -22 0 -5 -9 -10 -19 -10 -16 0 -21 10 -27 46 -4 29 -3 49 4 53 7 4 7
22 1 56 -16 77 14 185 50 185 6 0 11 4 11 9 0 5 20 14 45 20 25 6 45 17 45 24
0 14 35 47 50 47 6 0 10 4 10 8 0 5 11 14 24 22 14 7 27 23 30 36 4 13 11 24
16 24 6 0 10 13 10 29 0 16 6 32 13 34 6 3 78 6 160 6 l147 1 0 -24z m-6890
-6 c0 -6 43 -10 110 -10 68 0 110 -4 110 -10 0 -6 11 -16 25 -22 14 -6 25 -17
25 -24 0 -6 17 -26 37 -44 25 -22 38 -44 42 -69 5 -27 11 -36 26 -36 17 0 21
9 25 55 4 47 8 55 26 58 12 2 30 12 40 23 9 10 23 19 31 19 7 0 13 5 13 10 0
6 8 10 18 10 10 0 28 7 41 16 18 13 25 14 31 4 4 -7 28 -15 54 -17 31 -4 54
-13 69 -29 12 -13 30 -24 39 -24 24 0 48 -11 48 -21 0 -5 -7 -9 -15 -9 -9 0
-18 -7 -21 -15 -4 -8 -15 -15 -25 -15 -10 0 -19 -4 -19 -10 0 -5 -8 -10 -18
-10 -26 0 -62 -29 -62 -50 0 -10 -4 -20 -9 -22 -13 -4 -31 -272 -20 -276 5 -2
9 -15 9 -28 0 -13 6 -24 13 -24 6 0 13 -12 14 -26 0 -15 5 -29 11 -33 5 -3 13
-21 17 -39 5 -23 14 -34 31 -38 13 -3 24 -12 24 -20 0 -8 5 -14 10 -14 6 0 10
-5 10 -11 0 -16 48 -59 66 -59 9 0 22 -7 30 -15 8 -8 31 -17 52 -21 20 -4 45
-16 55 -27 18 -22 24 -21 170 9 16 4 35 17 44 30 8 13 22 24 29 24 8 0 14 7
14 15 0 9 6 18 14 21 8 3 17 17 20 30 10 40 38 25 58 -31 10 -28 18 -60 18
-72 0 -12 7 -28 15 -37 8 -8 15 -31 15 -50 0 -25 -4 -36 -15 -36 -10 0 -15
-10 -15 -29 0 -34 -12 -45 -67 -62 -38 -11 -43 -16 -43 -41 0 -23 4 -28 25
-28 32 0 155 -123 155 -155 0 -12 4 -25 9 -30 10 -13 35 -92 52 -168 9 -43 10
-64 2 -76 -6 -10 -14 -43 -18 -74 -5 -42 -12 -58 -26 -62 -20 -7 -56 9 -79 34
-46 51 -100 121 -100 130 0 6 -7 11 -15 11 -8 0 -15 6 -15 13 0 7 -9 19 -20
27 -11 8 -20 20 -20 27 0 7 -4 13 -10 13 -5 0 -10 5 -10 11 0 6 -42 52 -93
102 -50 51 -108 112 -127 136 -19 25 -43 52 -52 60 -10 9 -18 21 -18 27 0 7
-11 15 -25 18 -16 4 -25 13 -25 26 0 13 -7 20 -19 20 -12 0 -23 11 -30 30 -5
17 -17 30 -26 30 -9 0 -21 13 -26 30 -6 17 -15 30 -20 30 -5 0 -9 5 -9 10 0
11 -32 44 -82 83 -15 12 -28 27 -28 33 0 6 -20 28 -45 50 -24 21 -45 44 -45
49 0 12 -36 45 -49 45 -6 0 -15 16 -22 35 -8 21 -20 35 -30 35 -9 0 -19 9 -22
21 -3 11 -15 23 -26 26 -12 3 -21 11 -21 18 0 8 -22 37 -50 65 -27 28 -50 56
-50 61 0 5 -9 9 -20 9 -15 0 -20 7 -20 25 0 16 -6 25 -15 25 -8 0 -15 7 -15
15 0 8 -4 15 -10 15 -5 0 -10 7 -10 15 0 8 -5 15 -10 15 -13 0 -80 68 -80 81
0 5 -4 9 -8 9 -17 0 -92 82 -98 106 -3 13 -10 24 -15 24 -5 0 -9 9 -9 19 0 21
38 35 64 25 9 -3 16 -1 16 5 0 6 5 11 10 11 6 0 10 -4 10 -10z m7990 -1 c0 -6
7 -8 16 -5 26 10 64 -4 64 -25 0 -10 -4 -19 -9 -19 -5 0 -12 -11 -15 -24 -6
-24 -81 -106 -98 -106 -4 0 -8 -4 -8 -9 0 -13 -67 -81 -80 -81 -5 0 -10 -7
-10 -15 0 -8 -4 -15 -10 -15 -5 0 -10 -7 -10 -15 0 -8 -7 -15 -15 -15 -9 0
-15 -9 -15 -25 0 -18 -5 -25 -20 -25 -11 0 -20 -4 -20 -9 0 -5 -22 -33 -50
-61 -27 -28 -50 -57 -50 -65 0 -7 -9 -15 -21 -18 -11 -3 -23 -15 -26 -26 -3
-12 -13 -21 -22 -21 -10 0 -22 -14 -30 -35 -7 -19 -16 -35 -22 -35 -13 0 -49
-33 -49 -45 0 -5 -21 -28 -45 -49 -25 -22 -45 -44 -45 -50 0 -6 -13 -21 -28
-33 -50 -39 -82 -72 -82 -83 0 -5 -4 -10 -9 -10 -5 0 -14 -13 -20 -30 -5 -17
-17 -30 -26 -30 -9 0 -21 -13 -26 -30 -7 -19 -18 -30 -30 -30 -12 0 -19 -7
-19 -20 0 -13 -9 -22 -25 -26 -14 -3 -25 -11 -25 -18 0 -6 -8 -18 -17 -27 -10
-8 -34 -35 -53 -60 -19 -24 -77 -85 -127 -136 -51 -50 -93 -96 -93 -102 0 -6
-4 -11 -10 -11 -5 0 -10 -6 -10 -13 0 -7 -9 -19 -20 -27 -11 -8 -20 -20 -20
-27 0 -7 -7 -13 -15 -13 -8 0 -15 -5 -15 -11 0 -9 -54 -79 -100 -130 -23 -25
-59 -41 -79 -34 -14 4 -21 20 -26 62 -4 31 -12 64 -18 74 -8 12 -7 33 2 76 17
76 42 155 52 168 5 5 9 18 9 30 0 32 123 155 155 155 21 0 25 5 25 28 0 25 -5
30 -42 41 -56 17 -68 28 -68 62 0 19 -5 29 -15 29 -11 0 -15 11 -15 36 0 19 7
42 15 50 8 9 15 25 15 37 0 12 8 44 18 72 20 56 48 71 58 31 3 -13 12 -27 20
-30 8 -3 14 -12 14 -21 0 -8 6 -15 14 -15 7 0 21 -11 29 -24 9 -13 28 -26 44
-30 146 -30 152 -31 170 -9 10 11 35 23 55 27 21 4 44 13 52 21 8 8 21 15 30
15 18 0 66 43 66 59 0 6 5 11 10 11 6 0 10 6 10 14 0 8 11 17 24 20 17 4 26
15 31 38 4 18 12 36 17 39 6 4 11 18 11 33 1 14 8 26 15 26 6 0 12 11 12 24 0
13 4 26 9 28 11 4 -7 272 -20 276 -5 2 -9 12 -9 22 0 21 -36 50 -62 50 -10 0
-18 5 -18 10 0 6 -9 10 -19 10 -10 0 -21 7 -25 15 -3 8 -12 15 -21 15 -8 0
-15 4 -15 9 0 10 24 21 48 21 9 0 27 11 39 24 15 16 38 25 69 29 26 2 50 10
54 17 6 10 13 9 31 -4 13 -9 31 -16 41 -16 10 0 18 -4 18 -10 0 -5 6 -10 13
-10 8 0 22 -9 31 -19 10 -11 28 -21 40 -23 18 -3 22 -11 26 -58 4 -46 8 -55
25 -55 15 0 21 9 26 36 4 25 17 47 42 69 20 18 37 38 37 44 0 7 11 18 25 24
14 6 25 16 25 22 0 6 42 10 110 10 67 0 110 4 110 10 0 6 5 10 10 10 6 0 10
-5 10 -11z m-13380 -19 c0 -5 23 -10 50 -10 28 0 50 5 50 10 0 6 50 10 130 10
108 0 130 -2 130 -15 0 -8 12 -18 27 -21 30 -8 53 -26 53 -43 0 -6 3 -11 8
-11 8 0 42 -74 42 -93 0 -20 30 -57 46 -57 16 0 53 38 54 54 0 5 24 32 52 59
l53 50 105 -6 c97 -6 106 -8 123 -32 10 -14 27 -25 38 -25 10 0 19 -3 19 -6 0
-4 -29 -35 -63 -69 -61 -60 -64 -66 -75 -132 -15 -88 -5 -200 20 -232 10 -13
18 -30 18 -37 0 -13 6 -21 58 -82 37 -43 38 -46 46 -75 4 -18 13 -27 26 -27
11 0 20 -7 20 -15 0 -8 4 -15 9 -15 5 0 12 -11 15 -25 5 -21 12 -25 41 -25 19
0 35 -4 35 -10 0 -13 55 -42 110 -57 77 -21 290 -13 290 11 0 13 55 36 84 36
33 0 50 -30 54 -97 3 -40 0 -69 -7 -76 -6 -6 -11 -21 -11 -34 0 -28 -63 -93
-90 -93 -11 0 -20 -4 -20 -10 0 -5 -7 -10 -15 -10 -8 0 -15 -9 -15 -20 0 -15
7 -20 25 -20 14 0 25 -4 25 -8 0 -5 12 -15 28 -23 15 -8 34 -22 43 -31 9 -10
22 -18 28 -18 21 0 41 -27 41 -54 0 -16 6 -26 15 -26 8 0 17 -11 21 -25 3 -14
10 -25 15 -25 5 0 9 -24 9 -54 0 -30 5 -58 10 -61 6 -3 10 -37 10 -76 0 -39 4
-69 10 -69 6 0 10 -16 10 -35 0 -24 -5 -35 -15 -35 -8 0 -15 7 -15 15 0 8 -6
15 -13 15 -17 0 -197 179 -197 195 0 6 -12 18 -28 27 -15 9 -64 53 -109 97
-45 45 -86 81 -92 81 -6 0 -11 4 -11 10 0 13 -72 79 -87 80 -6 0 -14 13 -18
30 -4 17 -11 30 -16 30 -10 0 -59 45 -59 55 0 11 -66 65 -87 71 -13 3 -23 12
-23 20 0 8 -5 14 -11 14 -16 0 -39 26 -39 45 0 9 -13 21 -30 26 -18 7 -30 18
-30 29 0 13 -11 20 -40 25 -22 4 -40 11 -40 16 0 13 -53 79 -62 79 -12 0 -48
38 -48 50 0 6 -4 10 -8 10 -4 0 -30 20 -57 45 -28 25 -53 45 -56 45 -11 0 -69
57 -69 67 0 5 -11 16 -25 23 -14 7 -25 19 -25 27 0 7 -7 13 -15 13 -8 0 -15 5
-15 10 0 6 -9 10 -20 10 -15 0 -22 9 -26 30 -4 19 -13 30 -23 30 -15 0 -51 32
-51 46 0 11 -29 34 -44 34 -9 0 -16 7 -16 15 0 8 -6 15 -14 15 -8 0 -23 11
-34 25 -11 14 -24 25 -30 25 -5 0 -12 14 -15 30 -4 18 -13 30 -22 30 -8 0 -15
5 -15 10 0 6 -6 10 -13 10 -7 0 -19 9 -27 20 -8 11 -22 20 -32 20 -10 0 -18 5
-18 11 0 11 -68 79 -80 79 -4 0 -13 11 -20 25 -7 14 -18 25 -23 25 -11 0 -47
39 -47 52 0 4 25 8 55 8 30 0 55 -4 55 -10z m18650 0 c0 -5 23 -10 50 -10 28
0 50 5 50 10 0 6 25 10 55 10 30 0 55 -4 55 -8 0 -13 -36 -52 -47 -52 -5 0
-16 -11 -23 -25 -7 -14 -16 -25 -20 -25 -12 0 -80 -68 -80 -79 0 -6 -8 -11
-18 -11 -10 0 -24 -9 -32 -20 -8 -11 -20 -20 -27 -20 -7 0 -13 -4 -13 -10 0
-5 -7 -10 -15 -10 -9 0 -18 -12 -21 -30 -4 -16 -11 -30 -16 -30 -6 0 -19 -11
-30 -25 -11 -14 -26 -25 -34 -25 -8 0 -14 -7 -14 -15 0 -8 -7 -15 -16 -15 -15
0 -44 -23 -44 -34 0 -14 -36 -46 -51 -46 -10 0 -19 -11 -22 -30 -5 -21 -12
-30 -27 -30 -11 0 -20 -4 -20 -10 0 -5 -7 -10 -15 -10 -8 0 -15 -6 -15 -13 0
-8 -11 -20 -25 -27 -14 -7 -25 -18 -25 -23 0 -10 -58 -67 -69 -67 -3 0 -28
-20 -56 -45 -27 -25 -53 -45 -57 -45 -4 0 -8 -4 -8 -10 0 -12 -36 -50 -47 -50
-10 0 -63 -66 -63 -79 0 -5 -18 -12 -40 -16 -29 -5 -40 -12 -40 -25 0 -11 -12
-22 -30 -29 -17 -5 -30 -17 -30 -26 0 -19 -23 -45 -39 -45 -6 0 -11 -6 -11
-14 0 -8 -10 -17 -22 -20 -22 -6 -88 -60 -88 -71 0 -10 -49 -55 -59 -55 -5 0
-12 -13 -16 -30 -4 -16 -12 -30 -18 -30 -15 -1 -87 -67 -87 -80 0 -6 -5 -10
-11 -10 -6 0 -47 -36 -92 -81 -45 -44 -94 -88 -109 -97 -16 -9 -28 -21 -28
-27 0 -16 -180 -195 -197 -195 -7 0 -13 -7 -13 -15 0 -8 -7 -15 -15 -15 -10 0
-15 11 -15 35 0 19 5 35 10 35 6 0 10 30 10 69 0 39 5 73 10 76 6 3 10 31 10
61 0 30 4 54 9 54 5 0 12 11 15 25 4 14 13 25 21 25 9 0 15 10 15 26 0 27 20
54 41 54 6 0 19 8 28 18 9 9 28 23 44 31 15 8 27 18 27 23 0 4 11 8 25 8 18 0
25 5 25 20 0 11 -7 20 -15 20 -8 0 -15 5 -15 10 0 6 -9 10 -20 10 -27 0 -90
65 -90 93 0 13 -5 28 -11 34 -7 7 -10 36 -7 76 4 67 21 97 54 97 29 0 84 -23
84 -36 0 -24 213 -32 290 -11 55 15 110 44 110 57 0 6 16 10 35 10 29 0 36 4
41 25 3 14 10 25 15 25 5 0 9 7 9 15 0 8 9 15 20 15 13 0 22 9 26 27 8 29 9
32 46 75 52 61 58 69 58 82 0 7 8 24 18 37 25 32 35 144 20 232 -11 66 -14 72
-75 132 -34 34 -63 65 -63 69 0 3 9 6 19 6 11 0 28 11 38 25 17 24 26 26 123
32 l105 6 53 -50 c28 -27 52 -54 52 -59 1 -16 38 -54 54 -54 16 0 46 37 46 57
0 19 34 93 42 93 5 0 8 5 8 11 0 17 23 35 53 43 15 3 27 13 27 21 0 13 22 15
130 15 80 0 130 -4 130 -10z m-13541 -37 c16 -16 39 -35 50 -43 12 -8 21 -20
21 -27 0 -7 5 -13 10 -13 6 0 10 -6 10 -14 0 -8 9 -18 20 -21 11 -4 28 -17 36
-31 9 -13 20 -24 25 -24 13 0 64 -52 72 -73 4 -9 15 -21 24 -24 22 -9 52 -43
53 -60 0 -7 7 -13 15 -13 8 0 15 -5 15 -11 0 -6 7 -17 15 -25 8 -9 15 -24 15
-35 0 -12 9 -21 25 -25 14 -3 25 -10 25 -16 0 -10 7 -19 71 -88 26 -28 52 -50
58 -50 6 0 11 -4 11 -10 0 -11 36 -50 46 -50 10 0 74 -72 74 -84 0 -6 9 -17
20 -24 11 -7 20 -19 20 -27 0 -8 11 -17 24 -21 16 -4 27 -17 35 -43 6 -22 21
-43 36 -51 14 -7 25 -17 25 -21 0 -11 60 -69 71 -69 5 0 9 -5 9 -12 0 -13 68
-78 81 -78 5 0 9 -4 9 -10 0 -5 7 -18 15 -27 9 -10 34 -39 57 -66 23 -26 47
-47 54 -47 7 0 16 -9 19 -20 3 -11 13 -20 21 -20 8 0 14 -6 14 -14 0 -7 11
-22 25 -32 14 -10 25 -24 25 -31 0 -7 7 -13 15 -13 8 0 15 -7 15 -15 0 -8 7
-15 15 -15 9 0 15 -9 15 -25 0 -14 6 -25 13 -25 7 0 21 -16 31 -35 11 -21 27
-35 38 -35 10 0 18 -7 18 -16 0 -9 9 -18 20 -21 11 -3 20 -9 20 -14 0 -10 27
-44 53 -68 9 -8 17 -21 17 -28 0 -7 5 -13 10 -13 6 0 13 -7 16 -15 8 -19 73
-85 85 -85 13 0 31 -40 25 -57 -5 -13 -20 -14 -89 -8 -45 4 -86 11 -92 16 -5
5 -31 9 -57 9 -26 0 -48 5 -48 10 0 6 -9 10 -19 10 -11 0 -23 4 -26 10 -3 6
-15 10 -26 10 -10 0 -19 7 -19 15 0 8 -6 15 -13 15 -18 0 -77 112 -77 146 0
15 -5 44 -12 65 -9 30 -16 39 -33 39 -13 0 -25 -8 -29 -17 -6 -19 -27 -55 -37
-63 -3 -3 -9 -18 -13 -33 -5 -22 -11 -27 -25 -22 -11 3 -26 -1 -34 -10 -12
-12 -40 -15 -121 -15 -100 0 -106 1 -106 20 0 11 9 28 20 37 11 10 20 28 20
40 0 14 6 23 15 23 12 0 15 13 15 55 0 30 5 55 10 55 12 0 14 167 1 174 -5 3
-12 26 -15 51 -4 25 -11 45 -15 45 -9 0 -27 52 -36 101 -5 24 -15 41 -31 49
-13 8 -24 19 -24 27 0 7 -5 13 -11 13 -7 0 -22 11 -35 25 -13 14 -28 25 -34
25 -6 0 -21 11 -33 24 -12 13 -37 27 -54 30 -18 4 -33 11 -33 16 0 10 -31 16
-117 25 -53 6 -64 4 -81 -13 -10 -10 -32 -22 -48 -26 -16 -4 -46 -20 -66 -37
-20 -16 -44 -29 -52 -29 -9 0 -16 -8 -16 -18 0 -42 -72 -52 -85 -11 -4 10 -11
19 -16 19 -5 0 -9 16 -9 36 0 19 -5 67 -11 107 -8 52 -8 72 0 75 6 2 11 21 11
43 0 21 5 39 10 39 6 0 10 9 10 19 0 25 50 61 83 61 24 0 37 16 37 46 0 18
-58 54 -87 54 -13 0 -23 5 -23 10 0 6 -5 10 -10 10 -23 0 -70 61 -70 91 0 21
-6 32 -18 36 -26 6 -39 32 -57 108 -12 53 -13 80 -5 130 17 107 28 116 79 68z
m8595 11 c21 -54 25 -145 11 -209 -18 -76 -31 -102 -57 -108 -12 -4 -18 -15
-18 -36 0 -30 -47 -91 -70 -91 -5 0 -10 -4 -10 -10 0 -5 -10 -10 -22 -10 -30
0 -88 -36 -88 -54 0 -30 13 -46 37 -46 33 0 83 -36 83 -61 0 -10 5 -19 10 -19
6 0 10 -18 10 -39 0 -22 5 -41 11 -43 8 -3 8 -23 0 -75 -6 -40 -11 -88 -11
-107 0 -20 -4 -36 -9 -36 -5 0 -12 -9 -16 -19 -13 -41 -85 -31 -85 11 0 10 -7
18 -16 18 -8 0 -32 13 -52 29 -20 17 -50 33 -66 37 -16 4 -38 16 -48 26 -17
17 -28 19 -81 13 -86 -9 -117 -15 -117 -25 0 -5 -15 -12 -32 -16 -18 -3 -43
-17 -55 -30 -12 -13 -27 -24 -33 -24 -6 0 -21 -11 -34 -25 -13 -14 -28 -25
-35 -25 -6 0 -11 -6 -11 -13 0 -8 -11 -19 -24 -27 -16 -8 -26 -25 -31 -49 -9
-49 -27 -101 -36 -101 -4 0 -11 -20 -15 -45 -3 -25 -10 -48 -15 -51 -13 -7
-11 -174 1 -174 6 0 10 -25 10 -55 0 -42 3 -55 15 -55 9 0 15 -9 15 -23 0 -12
9 -30 20 -40 11 -9 20 -26 20 -37 0 -19 -6 -20 -106 -20 -81 0 -109 3 -121 15
-8 9 -23 13 -34 10 -14 -5 -20 0 -25 22 -4 15 -10 30 -13 33 -10 8 -31 44 -37
63 -4 9 -16 17 -29 17 -17 0 -24 -9 -33 -39 -7 -21 -12 -50 -12 -65 0 -34 -59
-146 -77 -146 -7 0 -13 -7 -13 -15 0 -8 -9 -15 -19 -15 -11 0 -23 -4 -26 -10
-3 -5 -15 -10 -26 -10 -10 0 -19 -4 -19 -10 0 -5 -22 -10 -48 -10 -26 0 -52
-4 -57 -9 -6 -5 -47 -12 -92 -16 -69 -6 -84 -5 -89 8 -6 17 12 57 25 57 12 0
81 70 81 81 0 5 7 12 15 15 8 4 15 11 15 18 0 6 8 19 18 27 26 25 52 58 52 69
0 6 7 10 16 10 9 0 18 9 21 20 3 11 13 20 23 20 9 0 25 16 36 35 10 19 24 35
31 35 7 0 13 11 13 25 0 16 6 25 15 25 8 0 15 7 15 15 0 8 7 15 15 15 8 0 15
6 15 13 0 7 11 21 25 31 14 10 25 25 25 32 0 8 6 14 14 14 8 0 18 9 21 20 3
11 12 20 19 20 7 0 31 21 54 48 23 26 48 55 57 65 8 9 15 22 15 27 0 6 4 10 9
10 13 0 81 65 81 78 0 7 4 12 9 12 11 0 71 58 71 69 0 4 11 14 25 21 15 8 30
29 36 51 8 26 19 39 35 43 13 4 24 13 24 21 0 8 9 20 20 27 11 7 20 18 20 24
0 12 64 84 74 84 10 0 46 39 46 50 0 6 5 10 11 10 6 0 32 22 58 50 64 69 71
78 71 88 0 6 11 13 25 16 16 4 25 13 25 25 0 11 7 26 15 35 8 8 15 19 15 25 0
6 7 11 15 11 8 0 15 6 15 13 1 17 31 51 53 60 9 3 20 15 24 24 8 21 59 73 72
73 5 0 16 11 25 24 8 14 25 27 36 31 11 3 20 13 20 21 0 8 5 14 10 14 6 0 10
6 10 13 0 7 9 19 21 27 11 8 34 27 50 43 32 30 54 34 63 11z m-4684 -7 c0 -6
-22 -32 -50 -56 -36 -32 -50 -51 -50 -71 0 -19 -15 -41 -55 -78 -30 -29 -55
-57 -55 -62 0 -6 -7 -10 -15 -10 -8 0 -15 -4 -15 -8 0 -4 -45 -54 -100 -110
-55 -56 -100 -107 -100 -112 0 -6 -5 -10 -12 -10 -20 0 -48 -32 -48 -57 0 -14
-6 -23 -15 -23 -8 0 -17 -11 -21 -25 -3 -14 -10 -25 -15 -25 -9 0 -59 -48 -59
-56 0 -10 -28 -34 -39 -34 -6 0 -11 -6 -11 -14 0 -7 -15 -25 -33 -39 -18 -14
-49 -46 -68 -71 -19 -25 -38 -46 -42 -46 -9 0 -37 -25 -37 -33 0 -2 -29 -34
-65 -72 -36 -37 -65 -74 -65 -81 0 -8 -9 -14 -20 -14 -13 0 -22 -9 -26 -25 -3
-14 -10 -25 -15 -25 -5 0 -9 -6 -9 -13 0 -7 -13 -18 -29 -24 -20 -7 -36 -25
-50 -57 -12 -25 -28 -46 -36 -46 -8 0 -15 -7 -15 -15 0 -8 -7 -15 -15 -15 -8
0 -15 -4 -15 -9 0 -5 -25 -36 -55 -67 -30 -32 -55 -62 -55 -66 0 -4 -4 -8 -9
-8 -11 0 -111 -99 -111 -111 0 -5 -4 -9 -10 -9 -5 0 -10 -6 -10 -14 0 -13 -37
-33 -45 -24 -9 9 -25 140 -25 210 0 52 -4 78 -12 81 -10 4 -10 8 1 15 7 5 11
15 7 20 -4 6 1 43 10 81 13 58 19 71 35 71 10 0 19 5 19 10 0 6 7 10 15 10 8
0 15 5 15 10 0 6 16 10 35 10 19 0 35 2 35 4 0 2 3 11 6 19 3 9 -14 34 -45 66
-49 50 -50 53 -57 126 -4 49 -3 75 3 75 6 0 16 21 22 46 10 38 15 45 33 42 14
-2 24 -13 29 -32 12 -43 38 -61 94 -64 28 -2 52 -7 53 -13 5 -12 119 -12 124
1 2 5 26 11 53 12 46 3 55 8 110 60 33 32 65 62 70 68 6 6 21 23 35 38 19 20
30 50 43 114 25 125 23 173 -8 204 -14 14 -25 31 -25 39 0 16 -57 75 -72 75
-16 0 -40 29 -33 41 4 6 16 9 26 6 10 -3 21 -2 24 3 2 4 31 10 64 14 70 8 171
-16 171 -40 0 -8 5 -14 10 -14 6 0 10 -9 10 -20 0 -11 5 -20 10 -20 6 0 10 -6
10 -13 0 -19 20 -36 36 -30 9 3 14 22 14 54 0 44 3 49 25 55 14 3 25 10 25 15
0 5 6 9 13 9 8 0 20 11 27 25 19 36 69 71 118 85 23 6 42 15 42 20 0 6 15 10
34 10 19 0 36 5 38 10 2 6 29 14 61 17 31 3 57 10 57 14 0 5 25 9 55 9 37 0
55 -4 55 -13z m820 4 c0 -4 26 -11 57 -14 32 -3 59 -11 61 -17 2 -5 19 -10 38
-10 19 0 34 -4 34 -10 0 -5 19 -14 42 -20 49 -14 99 -49 118 -85 7 -14 19 -25
27 -25 7 0 13 -4 13 -9 0 -5 11 -12 25 -15 22 -6 25 -11 25 -55 0 -32 5 -51
14 -54 16 -6 36 11 36 30 0 7 5 13 10 13 6 0 10 9 10 20 0 11 5 20 10 20 6 0
10 6 10 14 0 24 101 48 171 40 33 -4 62 -10 64 -14 3 -5 14 -6 24 -3 10 3 22
0 26 -6 7 -12 -17 -41 -33 -41 -15 0 -72 -59 -72 -75 0 -8 -11 -25 -25 -39
-31 -31 -33 -79 -8 -204 13 -64 24 -94 43 -114 14 -15 30 -32 35 -38 6 -6 37
-36 70 -68 55 -52 64 -57 110 -60 28 -1 52 -7 53 -12 5 -13 119 -13 124 -1 2
6 26 11 53 13 56 3 82 21 94 64 5 19 15 30 29 32 18 3 23 -4 33 -42 6 -25 16
-46 22 -46 6 0 7 -26 3 -75 -7 -73 -8 -76 -56 -125 -28 -28 -50 -52 -50 -55 0
-22 17 -35 46 -35 19 0 34 -4 34 -10 0 -5 7 -10 15 -10 8 0 15 -4 15 -10 0 -5
9 -10 19 -10 16 0 22 -13 35 -71 9 -38 14 -75 10 -81 -4 -5 0 -15 7 -20 11 -7
11 -11 2 -15 -9 -3 -13 -29 -13 -81 0 -70 -16 -201 -25 -210 -8 -9 -45 11 -45
24 0 8 -4 14 -10 14 -5 0 -10 4 -10 9 0 12 -100 111 -111 111 -5 0 -9 4 -9 8
0 4 -25 34 -55 66 -30 31 -55 62 -55 67 0 5 -7 9 -15 9 -8 0 -15 7 -15 15 0 8
-7 15 -15 15 -8 0 -24 21 -36 46 -14 32 -30 50 -50 57 -16 6 -29 17 -29 24 0
7 -4 13 -9 13 -5 0 -12 11 -15 25 -4 16 -13 25 -26 25 -11 0 -20 6 -20 14 0 7
-29 44 -65 81 -36 38 -65 70 -65 72 0 8 -28 33 -37 33 -4 0 -23 21 -42 46 -19
25 -50 57 -68 71 -18 14 -33 32 -33 39 0 8 -5 14 -11 14 -11 0 -39 24 -39 34
0 8 -50 56 -59 56 -5 0 -12 11 -15 25 -4 14 -13 25 -21 25 -9 0 -15 9 -15 22
0 25 -27 58 -47 58 -7 0 -13 4 -13 10 0 5 -45 56 -100 112 -55 56 -100 106
-100 110 0 4 -7 8 -15 8 -8 0 -15 4 -15 10 0 5 -25 33 -55 62 -40 37 -55 59
-55 78 0 20 -14 39 -50 71 -65 57 -64 69 5 69 30 0 55 -4 55 -9z m-5520 -16
c0 -14 -31 -46 -192 -201 -29 -28 -65 -54 -80 -57 -15 -4 -29 -15 -32 -25 -3
-10 -19 -23 -36 -29 -20 -8 -30 -18 -30 -32 0 -12 -6 -21 -15 -21 -8 0 -15 -4
-15 -10 0 -5 -6 -10 -14 -10 -8 0 -18 -9 -21 -20 -3 -11 -12 -20 -18 -20 -7 0
-28 -18 -47 -40 -19 -22 -41 -40 -47 -40 -7 0 -13 -5 -13 -10 0 -6 -8 -14 -17
-17 -23 -9 -43 -29 -43 -42 0 -6 -7 -11 -15 -11 -8 0 -15 -4 -15 -10 0 -5 -7
-10 -15 -10 -8 0 -15 -6 -15 -14 0 -8 -9 -18 -20 -21 -11 -3 -20 -11 -20 -16
0 -5 -7 -9 -15 -9 -8 0 -15 -7 -15 -15 0 -8 -6 -15 -13 -15 -7 0 -44 -29 -81
-65 -41 -39 -76 -65 -89 -65 -15 0 -26 -10 -35 -28 -6 -16 -21 -38 -32 -50
-11 -12 -20 -26 -20 -32 0 -5 -6 -10 -13 -10 -7 0 -18 -9 -25 -20 -7 -11 -19
-20 -27 -20 -8 0 -15 -4 -15 -10 0 -5 -7 -10 -16 -10 -8 0 -42 -27 -74 -60
-32 -33 -63 -60 -67 -60 -11 0 -43 -37 -43 -49 0 -5 -14 -14 -30 -20 -17 -5
-33 -17 -36 -26 -3 -8 -15 -15 -25 -15 -10 0 -19 -5 -19 -11 0 -11 -25 -39
-35 -39 -9 0 -28 -17 -124 -112 -49 -49 -94 -88 -100 -88 -6 0 -11 -4 -11 -10
0 -5 -9 -10 -20 -10 -13 0 -20 -7 -20 -20 0 -12 -7 -20 -17 -20 -10 0 -34 -14
-53 -30 -65 -56 -86 -32 -54 60 15 43 14 155 -2 215 -3 14 4 30 20 48 14 16
26 39 26 52 0 13 15 38 36 59 43 43 65 56 93 56 12 0 21 5 21 10 0 6 16 10 36
10 34 0 36 1 29 27 -6 26 -30 52 -50 53 -38 2 -93 98 -82 141 3 11 1 33 -4 49
-18 51 17 140 54 140 9 0 18 13 22 30 4 17 10 30 13 30 4 0 17 3 30 6 21 6 22
4 22 -59 0 -48 4 -66 15 -71 8 -3 15 -17 15 -31 0 -18 5 -25 19 -25 11 0 21
-5 23 -12 6 -18 210 -30 223 -13 6 7 36 18 68 25 31 7 57 17 57 22 0 4 9 8 20
8 11 0 20 5 20 10 0 6 9 10 20 10 13 0 20 7 20 20 0 13 9 22 25 26 14 3 25 10
25 15 0 5 7 9 15 9 9 0 18 13 22 31 3 17 12 33 19 36 8 3 14 18 14 34 0 18 5
29 14 29 8 0 20 16 26 36 7 19 17 37 24 40 7 3 11 35 10 97 0 92 -15 137 -51
160 -7 4 -15 24 -19 44 -9 49 1 55 143 79 52 10 133 -25 133 -55 0 -6 4 -11 9
-11 5 0 15 -23 22 -50 9 -36 17 -49 27 -45 7 3 17 5 21 5 5 0 16 20 27 45 10
25 24 45 31 45 8 0 18 10 24 23 12 26 52 47 91 47 16 0 28 6 28 13 1 23 68 47
135 47 35 0 66 3 68 8 3 4 48 8 101 9 79 2 96 0 96 -12z m10307 1 c3 -3 35 -6
69 -6 66 0 133 -24 134 -47 0 -7 12 -13 28 -13 39 0 79 -21 91 -47 6 -13 16
-23 24 -23 7 0 21 -20 31 -45 11 -25 22 -45 27 -45 4 0 14 -2 21 -5 10 -4 18
9 27 45 7 27 17 50 22 50 5 0 9 5 9 11 0 30 81 65 133 55 142 -24 152 -30 143
-79 -4 -20 -12 -40 -19 -44 -36 -23 -51 -68 -51 -160 -1 -62 3 -94 10 -97 7
-3 17 -21 24 -40 6 -20 18 -36 26 -36 9 0 14 -11 14 -29 0 -16 6 -31 14 -34 7
-3 16 -19 19 -36 4 -18 13 -31 22 -31 8 0 15 -4 15 -9 0 -5 11 -12 25 -15 16
-4 25 -13 25 -26 0 -13 7 -20 20 -20 11 0 20 -4 20 -10 0 -5 9 -10 20 -10 11
0 20 -4 20 -8 0 -5 26 -15 57 -22 32 -7 62 -18 68 -25 13 -17 217 -5 223 13 2
7 12 12 23 12 14 0 19 7 19 25 0 14 7 28 15 31 11 5 15 22 15 70 0 35 3 64 8
64 31 -1 52 -15 57 -41 4 -16 13 -29 22 -29 37 0 72 -89 54 -140 -5 -16 -7
-38 -4 -49 11 -43 -44 -139 -82 -141 -20 -1 -44 -27 -50 -53 -7 -26 -5 -27 29
-27 20 0 36 -4 36 -10 0 -5 9 -10 21 -10 28 0 50 -13 93 -56 21 -21 36 -46 36
-59 0 -13 12 -36 26 -52 16 -18 23 -34 20 -48 -16 -60 -17 -172 -2 -215 32
-92 11 -116 -54 -60 -19 16 -43 30 -52 30 -11 0 -18 8 -18 20 0 13 -7 20 -20
20 -11 0 -20 5 -20 10 0 6 -5 10 -11 10 -6 0 -51 39 -100 88 -96 95 -115 112
-124 112 -10 0 -35 28 -35 39 0 6 -9 11 -19 11 -10 0 -22 7 -25 15 -3 9 -19
21 -36 26 -16 6 -30 15 -30 20 0 12 -32 49 -43 49 -4 0 -35 27 -67 60 -32 33
-66 60 -74 60 -9 0 -16 5 -16 10 0 6 -7 10 -15 10 -8 0 -20 9 -27 20 -7 11
-18 20 -25 20 -7 0 -13 5 -13 10 0 6 -9 20 -20 32 -11 12 -26 34 -32 50 -9 18
-20 28 -35 28 -13 0 -48 26 -89 65 -37 36 -74 65 -81 65 -7 0 -13 7 -13 15 0
8 -7 15 -15 15 -8 0 -15 4 -15 9 0 5 -9 13 -20 16 -11 3 -20 13 -20 21 0 8 -7
14 -15 14 -8 0 -15 5 -15 10 0 6 -7 10 -15 10 -8 0 -15 5 -15 11 0 14 -25 39
-40 39 -6 0 -13 7 -16 15 -4 8 -11 15 -18 15 -6 0 -27 18 -46 40 -19 22 -40
40 -47 40 -6 0 -15 9 -18 20 -3 11 -13 20 -21 20 -8 0 -14 5 -14 10 0 6 -7 10
-15 10 -9 0 -15 9 -15 21 0 14 -10 24 -30 32 -17 6 -33 19 -36 29 -3 10 -17
21 -32 25 -15 3 -51 29 -80 57 -161 155 -192 187 -192 201 0 12 16 14 95 11
53 -2 98 -6 102 -10z m-14807 -50 c0 -8 7 -16 15 -20 8 -3 15 -12 15 -21 0 -8
5 -15 10 -15 6 0 10 -7 10 -16 0 -21 22 -42 53 -49 15 -4 28 -16 31 -31 4 -14
14 -24 25 -24 16 0 49 -22 76 -50 32 -34 109 -109 139 -135 19 -16 35 -35 35
-40 1 -6 16 -17 34 -24 17 -8 39 -23 48 -33 9 -10 21 -18 26 -18 6 0 13 -12
16 -28 4 -18 19 -36 46 -52 22 -14 41 -28 41 -32 0 -5 7 -8 15 -8 8 0 15 -4
15 -10 0 -5 5 -10 11 -10 14 0 39 -25 39 -39 0 -6 5 -11 11 -11 14 0 63 -50
72 -72 3 -10 13 -18 22 -18 8 0 15 -4 15 -10 0 -5 7 -10 15 -10 8 0 15 -6 15
-14 0 -8 9 -18 20 -21 11 -3 20 -13 20 -21 0 -8 7 -14 15 -14 8 0 15 -7 15
-15 0 -8 5 -15 10 -15 6 0 10 -7 10 -15 0 -8 7 -15 15 -15 8 0 25 -11 39 -25
14 -14 30 -25 36 -25 5 0 10 -6 10 -13 0 -8 11 -19 24 -27 14 -7 27 -23 30
-36 5 -20 13 -24 41 -24 24 0 35 -5 35 -15 0 -8 5 -15 10 -15 6 0 10 -7 10
-15 0 -8 5 -15 10 -15 6 0 10 -6 10 -14 0 -8 10 -16 23 -18 13 -2 28 -15 37
-35 8 -18 21 -33 28 -33 6 0 12 -7 12 -15 0 -9 9 -15 25 -15 17 0 25 -5 25
-18 0 -9 13 -23 30 -30 17 -8 30 -18 30 -23 0 -15 131 -139 147 -139 7 0 13
-5 13 -11 0 -12 73 -89 84 -89 8 0 56 -47 56 -54 0 -16 50 -60 83 -73 20 -8
37 -22 37 -30 0 -19 25 -43 44 -43 9 0 16 -4 16 -9 0 -5 9 -11 20 -14 11 -3
20 -12 20 -21 0 -13 -11 -16 -55 -16 -30 0 -55 5 -55 10 0 13 -107 13 -112 0
-4 -12 -196 -23 -255 -14 -33 5 -43 11 -43 25 0 12 -7 19 -20 19 -11 0 -20 5
-20 10 0 6 -8 10 -18 10 -10 0 -28 13 -40 30 -19 25 -21 35 -13 71 9 41 -1 69
-26 69 -10 0 -43 -57 -43 -75 0 -8 -15 -24 -32 -36 -18 -13 -35 -26 -38 -29
-3 -3 -25 -12 -50 -19 -25 -7 -47 -17 -50 -21 -3 -4 -33 -10 -67 -13 -50 -5
-63 -4 -63 7 0 8 -16 16 -38 19 -34 6 -55 21 -76 55 -8 14 18 41 66 70 18 10
28 25 28 39 0 13 5 23 10 23 6 0 10 11 10 25 0 13 10 33 21 44 21 19 21 23 11
140 -6 66 -16 129 -22 140 -5 11 -10 33 -10 50 0 21 -7 35 -24 47 -14 8 -28
29 -31 45 -4 16 -11 29 -16 29 -5 0 -9 5 -9 10 0 14 -165 180 -179 180 -6 0
-11 5 -11 10 0 6 -7 10 -15 10 -8 0 -15 5 -15 10 0 6 -6 10 -12 10 -7 0 -24 9
-38 20 -14 11 -37 20 -52 20 -14 0 -28 5 -30 12 -6 17 -200 17 -206 0 -2 -6
-19 -12 -37 -12 -19 0 -37 -4 -40 -10 -3 -5 -14 -10 -24 -10 -21 0 -61 -32
-61 -49 0 -6 -13 -11 -30 -11 -20 0 -30 5 -30 15 0 9 -7 18 -15 21 -11 5 -15
23 -15 78 1 97 13 143 49 180 17 18 31 42 31 55 0 28 -24 53 -44 45 -18 -7
-115 87 -139 136 -9 18 -17 52 -17 76 0 23 -4 54 -10 68 -9 26 2 130 20 174
11 25 60 32 60 8z m4705 -30 c7 -44 -6 -86 -25 -86 -6 0 -10 -13 -10 -29 0
-17 -5 -33 -11 -37 -7 -4 -9 -24 -6 -55 4 -29 2 -49 -3 -49 -6 0 -10 -14 -10
-31 0 -30 -19 -59 -39 -59 -6 0 -11 -4 -11 -10 0 -5 -22 -10 -49 -10 -32 0
-55 -6 -66 -16 -14 -15 -13 -18 12 -40 15 -13 34 -24 42 -24 22 0 9 -210 -13
-222 -9 -5 -16 -14 -16 -21 -1 -15 -68 -67 -87 -67 -7 0 -19 11 -25 25 -9 19
-19 25 -44 25 -18 0 -36 5 -39 10 -3 6 -37 10 -76 10 -39 0 -69 -4 -69 -10 0
-5 -11 -10 -25 -10 -14 0 -34 -8 -45 -17 -11 -10 -33 -18 -50 -19 -16 -1 -36
-9 -45 -18 -9 -9 -25 -16 -36 -16 -10 0 -19 -7 -19 -15 0 -8 -7 -15 -16 -15
-9 0 -29 -13 -44 -28 -15 -16 -34 -32 -44 -35 -9 -4 -16 -13 -16 -22 0 -8 -7
-15 -15 -15 -8 0 -15 -7 -15 -15 0 -8 -4 -15 -9 -15 -5 0 -13 -14 -16 -31 -4
-18 -19 -45 -34 -61 -32 -36 -41 -83 -48 -248 -5 -138 8 -226 39 -248 10 -7
18 -26 18 -41 0 -29 -15 -41 -51 -41 -10 0 -19 -4 -19 -10 0 -6 -35 -10 -85
-10 -50 0 -85 4 -85 10 0 6 -10 10 -22 10 -25 0 -58 27 -58 47 0 7 -6 13 -13
13 -8 0 -19 24 -28 63 -12 51 -18 63 -37 65 -16 3 -22 -2 -22 -15 0 -10 -9
-25 -20 -33 -13 -9 -20 -26 -20 -47 0 -26 -4 -33 -20 -33 -11 0 -20 -4 -20
-10 0 -5 -7 -10 -15 -10 -8 0 -15 -4 -15 -10 0 -5 -7 -10 -15 -10 -8 0 -15 -4
-15 -10 0 -5 -8 -10 -18 -10 -11 0 -33 -7 -50 -16 -22 -10 -69 -16 -160 -18
-118 -3 -130 -2 -141 15 -10 17 -3 28 63 94 41 41 79 75 84 75 6 0 12 7 16 15
3 8 12 15 21 15 8 0 15 7 15 16 0 9 14 21 30 27 17 6 30 17 30 24 0 7 7 13 15
13 8 0 15 9 15 20 0 13 7 20 18 20 10 0 25 11 32 24 7 14 22 26 34 28 12 2 25
13 31 26 5 12 15 22 22 22 6 0 38 26 70 58 33 31 80 76 106 98 26 23 47 47 47
53 0 6 7 11 15 11 9 0 27 11 41 25 14 14 34 25 44 25 11 0 20 5 20 10 0 14
162 175 184 183 10 4 20 16 23 27 3 11 15 22 26 26 25 8 47 28 47 43 0 6 7 11
16 11 29 0 133 91 134 118 0 6 7 12 15 12 8 0 39 25 70 55 31 30 64 55 72 55
8 0 17 9 20 21 3 11 24 29 49 41 24 11 44 25 44 30 0 10 25 38 34 38 7 0 40
26 73 59 14 13 39 27 57 30 24 5 32 12 34 34 2 15 8 27 13 27 5 0 9 6 9 14 0
8 15 17 35 20 25 5 39 15 47 32 6 13 16 24 23 24 6 0 26 16 45 35 19 19 37 35
41 35 4 0 11 -20 14 -44z m9755 9 c19 -19 39 -35 45 -35 7 0 17 -11 23 -24 8
-17 22 -27 47 -32 20 -3 35 -12 35 -20 0 -8 4 -14 9 -14 5 0 11 -12 13 -27 2
-22 10 -29 34 -34 18 -3 43 -17 57 -30 33 -33 66 -59 73 -59 9 0 34 -28 34
-38 0 -5 20 -19 44 -30 25 -12 46 -30 49 -41 3 -12 12 -21 20 -21 8 0 41 -25
72 -55 31 -30 62 -55 70 -55 8 0 15 -6 15 -12 1 -27 105 -118 134 -118 9 0 16
-5 16 -11 0 -15 22 -35 47 -43 11 -4 23 -15 26 -26 3 -11 13 -23 23 -27 22 -8
184 -169 184 -183 0 -5 9 -10 20 -10 10 0 30 -11 44 -25 14 -14 32 -25 41 -25
8 0 15 -5 15 -11 0 -6 21 -30 47 -53 26 -22 73 -67 106 -98 32 -32 64 -58 70
-58 7 0 17 -10 22 -22 6 -13 19 -24 31 -26 12 -2 27 -14 34 -28 7 -13 22 -24
32 -24 11 0 18 -7 18 -20 0 -11 7 -20 15 -20 8 0 15 -6 15 -13 0 -7 14 -18 30
-24 17 -6 30 -18 30 -27 0 -9 7 -16 15 -16 9 0 18 -7 21 -15 4 -8 10 -15 16
-15 5 0 43 -34 84 -75 66 -66 73 -77 63 -94 -11 -17 -23 -18 -141 -15 -91 2
-138 8 -160 18 -17 9 -39 16 -50 16 -10 0 -18 5 -18 10 0 6 -7 10 -15 10 -8 0
-15 5 -15 10 0 6 -7 10 -15 10 -8 0 -15 5 -15 10 0 6 -9 10 -20 10 -16 0 -20
7 -20 33 0 21 -7 38 -20 47 -11 8 -20 23 -20 33 0 13 -6 18 -22 15 -19 -2 -25
-14 -37 -65 -9 -39 -20 -63 -28 -63 -7 0 -13 -5 -13 -12 0 -20 -32 -48 -57
-48 -12 0 -23 -4 -23 -10 0 -6 -35 -10 -85 -10 -50 0 -85 4 -85 10 0 6 -9 10
-19 10 -36 0 -51 12 -51 41 0 15 8 34 18 41 31 22 44 110 39 248 -7 165 -16
212 -48 248 -15 16 -30 43 -34 61 -3 17 -11 31 -16 31 -5 0 -9 7 -9 15 0 8 -7
15 -15 15 -8 0 -15 7 -15 15 0 9 -7 18 -16 22 -10 3 -29 19 -44 35 -15 15 -35
28 -44 28 -9 0 -16 7 -16 15 0 8 -9 15 -19 15 -11 0 -27 7 -36 16 -9 9 -29 17
-45 18 -17 1 -39 9 -50 19 -11 9 -31 17 -45 17 -14 0 -25 5 -25 10 0 6 -30 10
-69 10 -39 0 -73 -4 -76 -10 -3 -5 -21 -10 -39 -10 -25 0 -35 -6 -44 -25 -6
-14 -18 -25 -25 -25 -19 0 -86 52 -87 67 0 7 -7 16 -16 21 -22 12 -35 222 -13
222 8 0 27 11 42 24 25 22 26 25 12 40 -11 10 -34 16 -66 16 -27 0 -49 5 -49
10 0 6 -5 10 -11 10 -20 0 -39 29 -39 59 0 17 -4 31 -10 31 -5 0 -7 20 -3 49
3 31 1 51 -6 55 -6 4 -11 20 -11 37 0 16 -4 29 -10 29 -19 0 -32 42 -25 86 3
24 10 44 14 44 4 0 22 -16 41 -35z m4710 13 c18 -44 29 -148 20 -174 -6 -14
-10 -45 -10 -68 0 -24 -8 -58 -17 -76 -24 -49 -121 -143 -139 -136 -20 8 -44
-17 -44 -45 0 -13 14 -37 31 -55 36 -37 48 -83 49 -180 0 -55 -4 -73 -15 -78
-8 -3 -15 -12 -15 -21 0 -10 -10 -15 -30 -15 -16 0 -30 5 -30 11 0 17 -40 49
-61 49 -10 0 -21 5 -24 10 -3 6 -21 10 -40 10 -18 0 -35 6 -37 12 -6 17 -200
17 -206 0 -2 -7 -16 -12 -30 -12 -15 0 -38 -9 -52 -20 -14 -11 -31 -20 -37
-20 -7 0 -13 -4 -13 -10 0 -5 -7 -10 -15 -10 -8 0 -15 -4 -15 -10 0 -5 -5 -10
-11 -10 -14 0 -179 -166 -179 -180 0 -5 -4 -10 -9 -10 -5 0 -12 -13 -16 -29
-3 -16 -17 -37 -31 -45 -17 -12 -24 -26 -24 -47 0 -17 -5 -39 -10 -50 -6 -11
-16 -74 -22 -140 -10 -117 -10 -121 11 -140 11 -11 21 -31 21 -44 0 -14 5 -25
10 -25 6 0 10 -10 10 -23 0 -14 10 -29 28 -39 48 -29 74 -56 66 -70 -21 -34
-42 -49 -76 -55 -22 -3 -38 -11 -38 -19 0 -11 -13 -12 -62 -7 -35 3 -65 9 -68
13 -3 4 -25 14 -50 21 -25 7 -47 16 -50 19 -3 3 -20 16 -37 29 -18 12 -33 28
-33 36 0 18 -33 75 -43 75 -25 0 -35 -28 -26 -69 8 -36 6 -46 -13 -71 -12 -17
-30 -30 -40 -30 -10 0 -18 -4 -18 -10 0 -5 -9 -10 -20 -10 -13 0 -20 -7 -20
-19 0 -14 -10 -20 -42 -25 -60 -9 -252 2 -256 14 -5 13 -112 13 -112 0 0 -5
-25 -10 -55 -10 -44 0 -55 3 -55 16 0 9 9 18 20 21 11 3 20 9 20 14 0 5 7 9
16 9 19 0 44 24 44 43 0 8 17 22 38 30 32 13 82 57 82 73 0 7 48 54 56 54 11
0 84 77 84 89 0 6 6 11 13 11 16 0 147 124 147 139 0 5 14 15 30 23 17 7 30
21 30 30 0 13 8 18 25 18 16 0 25 6 25 15 0 8 6 15 13 15 6 0 19 15 27 33 9
20 24 33 38 35 12 2 22 10 22 18 0 8 5 14 10 14 6 0 10 7 10 15 0 8 5 15 10
15 6 0 10 7 10 15 0 10 11 15 35 15 28 0 36 4 41 24 3 13 16 29 30 36 13 8 24
19 24 27 0 7 5 13 10 13 6 0 22 11 36 25 14 14 31 25 39 25 8 0 15 7 15 15 0
8 5 15 10 15 6 0 10 7 10 15 0 8 7 15 15 15 8 0 15 6 15 14 0 8 9 18 20 21 11
3 20 13 20 21 0 8 7 14 15 14 8 0 15 5 15 10 0 6 7 10 15 10 9 0 19 8 22 18 9
22 58 72 72 72 6 0 11 5 11 11 0 14 25 39 39 39 6 0 11 5 11 10 0 6 7 10 15
10 8 0 15 3 15 8 0 4 19 18 41 32 27 16 42 34 46 52 3 16 10 28 16 28 5 0 17
8 26 18 9 10 31 25 49 33 17 7 32 18 33 24 0 5 16 24 35 40 30 26 107 101 139
135 27 28 60 50 76 50 11 0 21 10 25 24 3 15 16 27 31 31 31 7 53 28 53 49 0
9 5 16 10 16 6 0 10 7 10 15 0 9 7 18 15 21 8 4 15 12 15 20 0 24 49 17 60 -8z
m-9878 -108 c7 -11 18 -20 25 -20 10 0 13 -23 13 -85 0 -47 -4 -85 -9 -85 -5
0 -12 -14 -16 -31 -4 -19 -32 -55 -71 -95 -66 -66 -78 -92 -45 -101 10 -2 24
-16 30 -29 6 -13 17 -24 25 -24 17 0 24 -26 20 -76 -14 -193 -15 -194 -40
-194 -13 0 -24 4 -24 9 0 5 -10 13 -22 17 -12 3 -30 16 -39 28 -16 19 -27 21
-131 21 -99 0 -118 -3 -151 -22 -21 -13 -45 -23 -53 -23 -8 0 -14 -7 -14 -15
0 -8 -8 -15 -17 -15 -10 0 -36 -16 -58 -35 -70 -61 -87 -75 -93 -75 -14 0 -42
-35 -42 -52 0 -10 -9 -26 -20 -35 -15 -13 -20 -30 -20 -69 0 -38 -4 -53 -16
-58 -13 -5 -15 -16 -11 -54 16 -139 23 -162 55 -195 39 -40 40 -60 7 -89 -14
-12 -25 -27 -25 -35 0 -7 -11 -15 -25 -19 -14 -3 -25 -10 -25 -15 0 -5 -41 -9
-90 -9 -93 0 -143 13 -169 43 -22 27 -48 21 -54 -13 -4 -16 -4 -37 -1 -45 4
-8 1 -15 -5 -15 -6 0 -11 -16 -11 -35 0 -19 -4 -35 -9 -35 -5 0 -12 -14 -16
-30 -5 -21 -13 -30 -26 -30 -10 0 -19 -4 -19 -9 0 -5 -9 -13 -20 -16 -11 -3
-20 -12 -20 -19 0 -11 -94 -46 -124 -46 -8 0 -27 -7 -42 -15 -36 -19 -214 -22
-214 -3 0 23 34 88 46 88 7 0 15 9 19 19 3 11 15 23 26 26 10 4 19 12 19 18 0
7 36 46 80 86 44 41 80 80 80 86 0 5 10 15 23 20 12 6 23 20 25 33 2 12 10 22
18 22 8 0 14 6 14 14 0 7 11 22 25 32 14 10 25 24 25 31 0 7 5 13 10 13 6 0
10 7 10 15 0 8 6 15 13 15 8 0 20 11 27 25 7 14 19 25 27 25 7 0 18 11 23 24
5 13 18 27 29 31 12 3 21 13 21 21 0 8 5 14 10 14 6 0 10 7 10 15 0 8 7 15 15
15 8 0 15 4 15 9 0 5 34 43 75 85 41 42 75 82 75 89 0 7 9 19 20 27 11 8 20
20 20 27 0 7 7 13 15 13 9 0 23 16 32 35 9 19 20 35 24 35 11 0 69 60 69 71 0
5 4 9 9 9 12 0 71 59 71 70 0 5 11 17 25 28 14 11 25 25 25 31 0 6 7 11 15 11
8 0 15 6 15 13 0 7 9 18 20 25 11 7 20 18 20 25 0 8 11 20 25 27 14 7 25 17
25 22 0 4 6 8 13 8 6 0 28 22 47 50 19 27 38 49 43 50 4 0 7 9 7 19 0 11 9 21
23 25 33 8 75 48 82 79 4 15 11 27 15 27 5 0 11 9 15 19 3 11 19 24 35 30 17
5 30 16 30 23 0 16 47 68 60 68 6 0 10 7 10 15 0 22 28 18 42 -5z m568 5 c0
-8 4 -15 10 -15 13 0 60 -52 60 -68 0 -7 13 -18 30 -23 16 -6 32 -19 35 -30 4
-10 10 -19 15 -19 4 0 11 -12 15 -27 7 -31 49 -71 83 -79 13 -4 22 -14 22 -25
0 -10 3 -19 8 -19 4 -1 23 -23 42 -50 19 -28 41 -50 48 -50 6 0 12 -4 12 -8 0
-5 11 -15 25 -22 14 -7 25 -19 25 -27 0 -7 9 -18 20 -25 11 -7 20 -18 20 -25
0 -7 7 -13 15 -13 8 0 15 -5 15 -11 0 -6 11 -20 25 -31 14 -11 25 -23 25 -28
0 -11 59 -70 71 -70 5 0 9 -4 9 -9 0 -11 58 -71 69 -71 4 0 15 -16 24 -35 9
-19 23 -35 32 -35 8 0 15 -6 15 -13 0 -7 9 -19 20 -27 11 -8 20 -20 20 -27 0
-7 34 -47 75 -89 41 -42 75 -80 75 -85 0 -5 7 -9 15 -9 8 0 15 -7 15 -15 0 -8
5 -15 10 -15 6 0 10 -6 10 -14 0 -8 9 -18 21 -21 11 -4 24 -18 29 -31 5 -13
16 -24 23 -24 8 0 20 -11 27 -25 7 -14 19 -25 27 -25 7 0 13 -7 13 -15 0 -8 5
-15 10 -15 6 0 10 -6 10 -13 0 -7 11 -21 25 -31 14 -10 25 -25 25 -32 0 -8 6
-14 14 -14 8 0 16 -10 18 -22 2 -13 13 -27 26 -33 12 -5 22 -15 22 -20 0 -6
36 -45 80 -86 44 -40 80 -79 80 -86 0 -6 9 -14 19 -18 11 -3 23 -15 26 -26 4
-10 12 -19 19 -19 12 0 46 -65 46 -88 0 -19 -178 -16 -214 3 -15 8 -34 15 -42
15 -30 0 -124 35 -124 46 0 7 -9 16 -20 19 -11 3 -20 11 -20 16 0 5 -9 9 -19
9 -13 0 -21 9 -26 30 -4 17 -11 30 -16 30 -5 0 -9 16 -9 35 0 19 -5 35 -11 35
-6 0 -9 7 -5 15 3 8 3 29 -1 45 -6 34 -32 40 -54 13 -26 -30 -76 -43 -169 -43
-49 0 -90 4 -90 9 0 5 -11 12 -25 15 -14 4 -25 12 -25 19 0 8 -11 23 -25 35
-33 29 -32 49 7 89 32 33 39 56 55 195 4 38 2 49 -11 54 -12 5 -16 20 -16 58
0 39 -5 56 -20 69 -11 9 -20 24 -20 34 0 17 -27 53 -41 53 -7 0 -22 11 -94 75
-22 19 -48 35 -57 35 -10 0 -18 7 -18 15 0 8 -6 15 -14 15 -8 0 -32 10 -53 23
-33 19 -52 22 -151 22 -104 0 -115 -2 -131 -21 -9 -12 -27 -25 -39 -28 -12 -4
-22 -12 -22 -17 0 -5 -11 -9 -24 -9 -25 0 -26 1 -40 194 -4 50 3 76 20 76 8 0
19 11 25 24 6 13 20 27 30 29 33 9 21 35 -45 101 -39 40 -67 76 -71 95 -4 17
-11 31 -16 31 -5 0 -9 38 -9 85 0 62 3 85 13 85 7 0 18 9 25 20 14 23 42 27
42 5z m-10081 -929 c71 -60 120 -120 132 -161 12 -44 6 -118 -10 -123 -6 -2
-11 -19 -11 -38 0 -50 28 -45 89 16 48 48 52 50 106 50 30 0 55 -4 55 -10 0
-5 9 -10 20 -10 11 0 20 -4 20 -10 0 -5 15 -10 34 -10 l33 0 8 -67 c4 -38 8
-82 8 -99 1 -30 -21 -64 -41 -64 -22 0 -82 -70 -82 -95 l0 -26 70 7 c49 5 70
3 70 -5 0 -6 11 -11 23 -11 13 0 32 -9 42 -20 10 -11 31 -20 47 -20 24 0 28
-4 28 -30 0 -16 5 -30 10 -30 6 0 10 -6 10 -14 0 -8 7 -16 15 -20 8 -3 15 -12
15 -21 0 -8 7 -15 15 -15 8 0 15 -7 15 -15 0 -8 5 -15 11 -15 14 0 43 -29 36
-37 -6 -6 -489 -5 -495 2 -2 2 -6 25 -8 52 -4 57 -24 123 -36 123 -4 0 -8 9
-8 20 0 11 -4 20 -8 20 -5 0 -14 11 -20 24 -6 13 -20 27 -31 31 -12 3 -21 11
-21 16 0 22 -48 56 -95 68 -28 7 -66 17 -85 22 l-35 11 2 246 c2 312 1 292 17
292 8 0 33 -15 55 -34z m19622 12 c0 -13 1 -134 2 -270 l2 -246 -35 -11 c-19
-5 -57 -15 -85 -22 -47 -12 -95 -46 -95 -68 0 -5 -9 -13 -21 -16 -11 -4 -25
-18 -31 -31 -6 -13 -15 -24 -20 -24 -4 0 -8 -9 -8 -20 0 -11 -4 -20 -8 -20
-12 0 -32 -66 -36 -123 -2 -27 -6 -50 -8 -52 -6 -7 -489 -8 -495 -2 -7 8 22
37 36 37 6 0 11 7 11 15 0 8 7 15 15 15 8 0 15 7 15 15 0 9 7 18 15 21 8 4 15
12 15 20 0 8 5 14 10 14 6 0 10 14 10 30 0 26 4 30 28 30 16 0 37 9 47 20 10
11 29 20 42 20 12 0 23 5 23 11 0 8 21 10 70 5 l70 -7 0 26 c0 25 -60 95 -82
95 -20 0 -42 34 -41 64 0 17 4 61 8 99 l8 67 33 0 c19 0 34 5 34 10 0 6 9 10
20 10 11 0 20 5 20 10 0 6 25 10 55 10 54 0 58 -2 106 -50 61 -61 89 -66 89
-16 0 19 -5 36 -11 38 -16 5 -22 79 -10 123 12 41 61 101 132 161 48 40 69 43
70 12z m-14230 -217 c32 -32 59 -63 59 -70 0 -6 7 -11 15 -11 10 0 15 -10 15
-30 0 -16 5 -30 10 -30 6 0 10 -18 10 -40 0 -22 -4 -40 -10 -40 -5 0 -10 -18
-10 -40 0 -34 3 -40 21 -40 29 0 59 18 59 35 0 12 18 15 90 15 53 0 90 -4 90
-10 0 -5 8 -10 19 -10 20 0 31 -34 31 -101 0 -28 -4 -39 -15 -39 -8 0 -15 -6
-15 -14 0 -8 -9 -18 -20 -21 -23 -7 -28 -63 -8 -83 15 -15 48 -16 48 -2 0 14
48 12 57 -2 9 -15 41 -36 66 -44 9 -4 17 -12 17 -18 0 -7 11 -19 25 -26 14 -7
25 -22 25 -32 0 -10 7 -21 15 -24 8 -4 15 -14 15 -24 0 -15 -8 -17 -62 -14
-35 1 -118 3 -184 3 l-122 1 -7 28 c-8 31 -56 112 -67 112 -5 0 -8 7 -8 14 0
18 -43 66 -59 66 -6 0 -11 4 -11 9 0 5 -8 11 -17 15 -20 6 -55 28 -63 38 -3 3
-22 9 -42 13 -26 5 -38 13 -42 29 -3 13 -8 111 -12 220 -5 149 -3 200 6 211 7
8 15 15 17 15 3 0 31 -26 64 -59z m8849 44 c9 -11 11 -62 6 -211 -4 -109 -9
-207 -12 -220 -4 -16 -16 -24 -42 -29 -20 -4 -39 -10 -42 -13 -8 -10 -43 -32
-62 -38 -10 -4 -18 -10 -18 -15 0 -5 -5 -9 -11 -9 -16 0 -59 -48 -59 -66 0 -7
-3 -14 -7 -14 -12 0 -60 -81 -68 -112 l-7 -28 -122 -1 c-66 0 -149 -2 -183 -3
-55 -3 -63 -1 -63 14 0 10 7 20 15 24 8 3 15 14 15 24 0 10 11 25 25 32 14 7
25 19 25 26 0 6 8 14 18 18 24 8 56 29 65 44 9 14 57 16 57 2 0 -14 33 -13 48
2 20 20 15 76 -8 83 -11 3 -20 13 -20 21 0 8 -7 14 -15 14 -11 0 -15 11 -15
39 0 67 11 101 31 101 11 0 19 5 19 10 0 6 37 10 90 10 72 0 90 -3 90 -15 0
-17 30 -35 59 -35 18 0 21 6 21 40 0 22 -4 40 -10 40 -5 0 -10 18 -10 40 0 22
5 40 10 40 6 0 10 14 10 30 0 20 5 30 15 30 8 0 15 5 15 11 0 12 110 128 121
129 4 0 12 -7 19 -15z m-9248 -130 c-3 -133 -17 -309 -26 -324 -4 -6 -16 -11
-27 -11 -10 0 -19 -4 -19 -10 0 -5 -17 -10 -37 -10 -28 0 -47 -8 -72 -30 -21
-18 -45 -30 -62 -30 -19 0 -29 -5 -29 -14 0 -8 -9 -18 -20 -21 -11 -3 -20 -13
-20 -21 0 -8 -4 -14 -10 -14 -5 0 -10 -11 -10 -25 0 -14 -7 -28 -15 -31 -8 -4
-15 -18 -15 -33 0 -14 -4 -31 -8 -37 -11 -16 -402 -13 -402 4 0 6 5 12 10 12
6 0 10 7 10 15 0 8 5 15 10 15 6 0 10 9 10 20 0 11 4 20 9 20 5 0 12 8 15 18
14 37 31 62 42 62 6 0 21 9 34 20 17 15 37 20 82 20 32 0 58 -4 58 -10 0 -5
14 -10 30 -10 37 0 37 10 5 58 -14 20 -25 49 -25 64 0 15 -4 30 -10 33 -5 3
-10 28 -10 56 l0 49 38 2 c63 3 126 -2 147 -13 11 -5 26 -23 34 -40 7 -16 19
-29 26 -29 7 0 15 -7 19 -15 3 -8 12 -15 21 -15 11 0 15 11 15 45 0 33 -4 45
-15 45 -11 0 -15 11 -15 40 0 22 4 40 9 40 5 0 11 13 14 29 3 16 22 45 42 66
19 21 35 41 35 46 0 4 9 10 20 14 11 3 33 20 50 36 16 17 38 29 47 27 16 -3
18 -15 15 -113z m9629 86 c16 -17 38 -33 49 -36 11 -4 20 -10 20 -14 0 -5 16
-25 35 -46 20 -21 39 -50 42 -66 3 -16 9 -29 14 -29 5 0 9 -18 9 -40 0 -29 -4
-40 -15 -40 -11 0 -15 -12 -15 -45 0 -34 4 -45 15 -45 9 0 18 7 21 15 4 8 12
15 19 15 7 0 19 13 26 29 8 17 23 35 34 40 21 11 84 16 148 13 l37 -2 0 -49
c0 -28 -4 -53 -10 -56 -5 -3 -10 -18 -10 -33 0 -15 -11 -44 -25 -64 -32 -48
-32 -58 5 -58 17 0 30 5 30 10 0 6 26 10 58 10 45 0 65 -5 82 -20 13 -11 28
-20 34 -20 11 0 28 -25 42 -62 3 -10 10 -18 15 -18 5 0 9 -9 9 -20 0 -11 5
-20 10 -20 6 0 10 -7 10 -15 0 -8 5 -15 10 -15 6 0 10 -6 10 -12 0 -17 -391
-20 -402 -4 -4 6 -8 23 -8 37 0 15 -7 29 -15 33 -8 3 -15 17 -15 31 0 14 -4
25 -10 25 -5 0 -10 6 -10 14 0 8 -9 18 -20 21 -11 3 -20 13 -20 21 0 9 -10 14
-29 14 -17 0 -41 12 -62 30 -25 22 -44 30 -71 30 -21 0 -38 5 -38 10 0 6 -9
10 -19 10 -11 0 -23 5 -27 11 -14 23 -37 422 -25 434 11 12 35 3 62 -24z
m-4979 -23 c3 -24 0 -55 -5 -70 -7 -24 -7 -58 4 -158 1 -8 0 -40 -2 -70 -5
-69 -25 -89 -89 -90 -34 0 -49 -5 -60 -20 -8 -11 -29 -23 -47 -26 -19 -4 -38
-15 -44 -25 -5 -11 -14 -19 -20 -19 -17 0 -39 -27 -39 -49 0 -11 -4 -23 -10
-26 -5 -3 -10 -15 -10 -26 0 -10 -4 -19 -9 -19 -6 0 -11 -21 -13 -47 l-3 -48
-180 -5 c-99 -3 -188 -3 -197 -1 -27 5 -22 38 6 45 19 5 26 15 31 45 6 36 33
81 49 81 3 0 15 9 26 20 22 22 53 25 118 10 34 -8 46 -7 58 4 20 20 17 56 -6
86 -11 14 -20 33 -20 42 0 9 -4 20 -10 23 -17 11 -12 113 7 135 38 44 233 11
233 -39 0 -6 5 -11 10 -11 6 0 10 -7 10 -16 0 -9 6 -14 13 -12 8 3 13 31 15
81 2 42 7 77 12 77 5 0 10 7 12 16 4 20 128 151 144 153 7 0 14 -18 16 -41z
m357 -29 c39 -39 71 -78 71 -85 0 -8 4 -14 10 -14 5 0 10 -35 12 -77 2 -50 7
-78 16 -81 6 -2 12 3 12 12 0 9 5 16 10 16 6 0 10 5 10 11 0 32 73 58 165 59
67 0 85 -20 85 -95 0 -29 -4 -57 -10 -60 -5 -3 -10 -14 -10 -23 0 -9 -9 -28
-20 -42 -23 -30 -26 -66 -6 -86 12 -11 24 -12 58 -4 65 15 96 12 118 -10 11
-11 23 -20 26 -20 16 0 43 -45 49 -81 5 -30 12 -40 31 -45 28 -7 33 -40 7 -45
-10 -2 -99 -2 -198 1 l-180 5 -3 48 c-2 26 -7 47 -13 47 -5 0 -9 9 -9 19 0 11
-4 23 -10 26 -5 3 -10 15 -10 26 0 22 -22 49 -39 49 -6 0 -15 8 -20 19 -6 10
-25 21 -44 25 -18 3 -39 15 -47 26 -11 15 -26 20 -60 20 -50 1 -85 23 -87 55
-3 88 -2 128 3 178 3 31 2 70 -3 85 -11 30 -5 112 7 112 5 0 40 -32 79 -71z"/>
</g>
</svg>
