<?xml version="1.0" standalone="no"?>
<!DOCTYPE svg PUBLIC "-//W3C//DTD SVG 20010904//EN"
 "http://www.w3.org/TR/2001/REC-SVG-20010904/DTD/svg10.dtd">
<svg version="1.0" xmlns="http://www.w3.org/2000/svg"
 width="2295.000000pt" height="480.000000pt" viewBox="0 0 2295.000000 480.000000"
 preserveAspectRatio="xMidYMid meet">
<metadata>
Created by potrace 1.13, written by Peter Selinger 2001-2015
</metadata>
<g transform="translate(0.000000,480.000000) scale(0.100000,-0.100000)"
fill="#000000" stroke="none">
<path d="M107 4553 c-4 -54 -12 -100 -18 -104 -17 -10 -17 -289 -1 -361 7 -32
19 -58 26 -58 6 0 19 -13 29 -29 11 -18 29 -32 48 -36 17 -4 33 -13 36 -21 11
-29 180 -6 239 32 13 9 32 13 43 9 16 -5 18 -12 14 -48 -4 -23 -10 -43 -14
-45 -14 -6 -10 -39 6 -56 14 -13 14 -19 3 -38 -10 -18 -12 -111 -11 -423 1
-220 4 -879 7 -1465 2 -586 4 -1076 4 -1090 1 -111 -2 -130 -20 -136 -11 -3
-29 1 -42 10 -59 38 -228 61 -239 32 -3 -8 -19 -17 -36 -21 -19 -4 -37 -18
-48 -36 -10 -16 -23 -29 -29 -29 -7 0 -19 -26 -26 -57 -16 -73 -16 -352 1
-362 6 -4 14 -50 18 -104 l6 -96 31 6 c17 3 40 10 50 16 10 5 72 9 137 8 66 0
121 4 124 9 3 6 33 10 66 10 33 0 59 4 59 10 0 6 14 10 30 10 19 0 30 5 30 14
0 8 13 17 30 21 16 4 33 12 37 18 5 7 17 17 28 23 11 6 27 33 35 60 8 27 19
54 23 61 10 15 -2 113 -14 113 -5 0 -9 13 -9 28 0 16 -9 38 -21 51 -35 38 -18
55 49 47 31 -3 91 -2 132 3 44 6 77 6 80 1 6 -9 184 -5 252 6 20 3 62 0 93 -6
43 -9 73 -9 122 0 37 6 69 7 72 3 7 -11 239 -16 255 -6 18 11 190 13 196 2 4
-6 18 -5 38 2 20 7 64 9 115 5 45 -3 89 -6 97 -6 8 0 134 3 279 6 158 3 266 2
270 -4 4 -5 36 -6 81 0 41 4 149 8 240 7 91 0 224 -1 295 0 72 0 288 0 480 0
193 -1 370 -1 395 -1 25 0 302 2 615 5 524 4 850 6 1550 7 611 1 981 6 990 11
6 4 60 3 120 -1 61 -4 115 -4 120 1 6 4 139 8 295 8 371 0 6639 0 7010 0 156
0 289 -4 295 -8 5 -5 60 -5 120 -1 61 4 115 5 120 1 9 -5 379 -10 990 -11 700
-1 1026 -3 1550 -7 314 -3 590 -5 615 -5 25 0 203 0 395 1 193 0 409 0 480 0
72 -1 204 0 295 0 91 1 199 -3 240 -7 45 -6 77 -5 81 0 4 6 112 7 270 4 145
-3 271 -6 279 -6 8 0 52 3 97 6 51 4 95 2 115 -5 20 -7 34 -8 38 -2 6 11 178
9 196 -2 16 -10 248 -5 255 6 3 4 35 3 72 -3 49 -9 79 -9 122 0 31 6 73 9 93
6 68 -11 246 -15 252 -6 3 5 36 5 80 -1 41 -5 101 -6 132 -3 67 8 84 -9 49
-47 -12 -13 -21 -35 -21 -51 0 -15 -4 -28 -9 -28 -12 0 -24 -98 -14 -113 4 -7
15 -34 23 -61 8 -27 24 -54 35 -60 11 -6 23 -16 28 -23 4 -6 21 -14 37 -18 17
-4 30 -13 30 -21 0 -9 11 -14 30 -14 17 0 30 -4 30 -10 0 -6 26 -10 59 -10 33
0 63 -4 66 -10 3 -5 58 -9 124 -9 65 1 127 -3 137 -8 10 -6 33 -13 50 -16 l31
-6 6 96 c4 54 12 100 18 104 17 10 17 289 1 362 -7 31 -19 57 -26 57 -6 0 -19
13 -29 29 -11 18 -29 32 -48 36 -17 4 -33 13 -36 21 -11 29 -180 6 -239 -32
-13 -9 -31 -13 -42 -10 -18 6 -21 25 -20 136 0 14 2 504 4 1090 3 586 6 1245
7 1465 1 312 -1 405 -11 423 -11 19 -11 25 3 38 16 17 20 50 6 56 -4 2 -10 22
-14 45 -4 36 -2 43 14 48 11 4 30 0 43 -9 59 -38 228 -61 239 -32 3 8 19 17
36 21 19 4 37 18 48 36 10 16 23 29 29 29 7 0 19 26 26 58 16 72 16 351 -1
361 -6 4 -14 50 -18 104 l-6 96 -31 -6 c-17 -3 -38 -9 -47 -14 -22 -11 -125
-14 -195 -5 -42 6 -64 5 -68 -3 -4 -6 -34 -11 -67 -11 -33 0 -59 -4 -59 -10 0
-5 -13 -10 -30 -10 -19 0 -30 -5 -30 -14 0 -8 -13 -17 -30 -21 -16 -4 -33 -12
-37 -18 -5 -7 -17 -17 -28 -23 -11 -6 -27 -33 -35 -60 -8 -27 -19 -55 -23 -62
-10 -15 2 -122 14 -122 5 0 9 -13 9 -28 0 -16 9 -38 21 -50 31 -34 15 -45 -50
-38 -31 3 -90 2 -131 -3 -44 -6 -77 -6 -80 -1 -6 9 -184 5 -252 -6 -20 -3 -62
0 -93 6 -43 9 -73 9 -122 0 -39 -6 -69 -7 -72 -2 -3 5 -42 9 -86 9 -44 0 -97
3 -118 7 -20 4 -43 4 -50 -1 -18 -11 -190 -14 -197 -2 -4 6 -18 5 -38 -2 -20
-7 -64 -9 -115 -5 -45 3 -89 6 -97 6 -8 0 -135 -3 -282 -6 -191 -4 -268 -2
-268 5 0 7 -10 9 -22 6 -50 -12 -313 -23 -325 -13 -6 5 -95 9 -200 10 -103 0
-348 0 -543 0 -195 0 -375 0 -400 0 -25 0 -85 0 -135 0 -49 0 -459 1 -910 3
-451 1 -946 3 -1100 4 -154 0 -392 0 -530 -1 -137 0 -297 2 -354 5 -57 4 -111
2 -120 -2 -9 -5 -65 -5 -126 -1 -64 4 -115 3 -122 -2 -11 -9 -571 -7 -2403 8
-946 7 -1824 7 -2770 0 -1832 -15 -2392 -17 -2403 -8 -7 5 -58 6 -122 2 -60
-4 -117 -4 -126 1 -9 4 -63 6 -120 2 -57 -3 -216 -5 -354 -5 -137 1 -376 1
-530 1 -154 -1 -649 -3 -1100 -4 -451 -2 -860 -3 -910 -3 -49 0 -110 0 -135 0
-25 0 -205 0 -400 0 -195 0 -440 0 -543 0 -105 -1 -194 -5 -200 -10 -12 -10
-275 1 -324 13 -13 3 -23 1 -23 -6 0 -7 -77 -9 -267 -5 -148 3 -275 6 -283 6
-8 0 -52 -3 -97 -6 -51 -4 -95 -2 -115 5 -20 7 -34 8 -38 2 -7 -12 -179 -9
-197 2 -7 5 -30 5 -50 1 -21 -4 -74 -7 -118 -7 -44 0 -83 -4 -86 -9 -3 -5 -33
-4 -72 2 -49 9 -79 9 -122 0 -31 -6 -73 -9 -93 -6 -68 11 -246 15 -252 6 -3
-5 -36 -5 -80 1 -41 5 -100 6 -131 3 -65 -7 -81 4 -50 38 12 12 21 34 21 50 0
15 4 28 9 28 12 0 24 107 14 122 -4 7 -15 35 -23 62 -8 27 -24 54 -35 60 -11
6 -23 16 -28 23 -4 6 -21 14 -37 18 -17 4 -30 13 -30 21 0 9 -11 14 -30 14
-16 0 -30 5 -30 10 0 6 -26 10 -59 10 -33 0 -63 5 -67 11 -4 8 -26 9 -68 3
-70 -9 -173 -6 -195 5 -9 5 -30 11 -47 14 l-31 6 -6 -96z m343 -3 c0 -5 24
-10 54 -10 30 0 57 -4 61 -9 3 -5 18 -12 34 -16 41 -9 91 -53 91 -81 0 -12 7
-29 15 -38 9 -9 15 -33 15 -63 0 -43 -5 -53 -48 -100 -27 -29 -53 -53 -58 -53
-5 0 -16 -9 -24 -20 -8 -11 -19 -20 -24 -20 -5 0 -21 -13 -35 -28 -14 -15 -38
-33 -53 -40 -16 -6 -28 -16 -28 -22 0 -5 -7 -10 -16 -10 -9 0 -28 -6 -42 -14
-67 -34 -82 -38 -117 -32 -54 10 -83 26 -88 48 -3 11 -14 22 -25 25 -19 5 -27
38 -31 138 -1 11 -4 44 -7 73 -4 31 -2 52 4 52 5 0 9 17 9 38 0 20 3 67 7 103
7 63 9 67 39 77 42 13 267 15 267 2z m22311 -1 c38 -12 38 -12 45 -78 4 -36 7
-83 7 -103 0 -21 4 -38 9 -38 6 0 8 -21 4 -52 -3 -29 -6 -62 -7 -73 -4 -100
-12 -133 -31 -138 -11 -3 -22 -14 -25 -25 -5 -22 -34 -38 -88 -48 -35 -6 -50
-2 -117 32 -14 8 -33 14 -42 14 -9 0 -16 5 -16 10 0 6 -12 16 -27 22 -16 7
-40 25 -54 40 -14 15 -30 28 -35 28 -5 0 -16 9 -24 20 -8 11 -19 20 -24 20 -5
0 -31 24 -58 53 -43 47 -48 57 -48 100 0 30 6 54 15 63 8 9 15 26 15 38 0 28
50 72 91 81 16 4 31 11 34 16 4 5 31 9 61 9 30 0 54 5 54 10 0 14 213 13 261
-1z m-17117 -446 c4 -4 113 -8 243 -8 169 -2 238 -5 241 -14 5 -14 56 -14 102
-1 22 7 219 10 545 9 281 -1 521 -1 535 -1 14 0 30 -3 35 -7 6 -5 42 -5 80 0
39 4 500 11 1025 15 1108 7 1405 7 1478 -2 33 -4 52 -3 52 4 0 7 32 9 93 6 50
-2 136 -6 190 -8 53 -3 111 0 129 5 18 5 36 5 42 0 10 -8 51 -7 226 3 25 1
135 -1 245 -5 128 -4 205 -3 213 4 7 5 28 6 50 2 61 -12 552 -14 600 -1 30 7
48 7 60 0 11 -7 83 -9 217 -4 110 3 220 5 245 4 175 -10 216 -11 226 -3 6 5
24 5 42 0 18 -5 76 -8 129 -5 54 2 140 6 191 8 60 3 92 1 92 -6 0 -7 19 -8 53
-4 72 9 369 9 1477 2 525 -4 987 -11 1025 -15 39 -5 75 -5 80 0 6 4 21 7 35 7
14 0 255 0 535 1 326 1 523 -2 545 -9 46 -13 97 -13 102 1 3 9 72 12 239 13
129 1 240 6 247 10 7 4 21 5 30 1 17 -7 1460 -18 1887 -15 127 1 255 1 285 0
63 -2 272 -2 440 0 63 1 154 -2 202 -6 63 -5 91 -4 102 5 9 8 24 10 38 5 28
-9 228 -8 257 1 13 4 27 1 37 -10 10 -10 23 -13 33 -9 22 9 731 11 731 2 0 -5
7 -8 15 -8 8 0 15 5 15 10 0 14 173 13 187 -1 8 -8 20 -8 40 -2 17 6 66 7 128
2 55 -5 206 -11 335 -14 129 -3 249 -8 266 -11 l32 -4 7 -153 c6 -115 17
-1027 15 -1267 0 -19 -2 -204 -5 -410 -2 -206 -4 -650 -5 -987 l0 -612 -32 -5
c-18 -3 -170 -8 -338 -11 -168 -3 -376 -8 -462 -11 -113 -4 -158 -3 -158 5 0
6 -7 11 -15 11 -8 0 -15 -3 -15 -7 0 -10 -698 -9 -728 1 -14 5 -28 3 -37 -4
-8 -6 -24 -9 -36 -5 -29 9 -228 10 -257 1 -14 -5 -29 -3 -38 5 -10 9 -39 10
-102 5 -48 -4 -136 -6 -197 -6 -427 5 -1150 9 -2063 12 -899 3 -1064 5 -1072
17 -7 12 -20 12 -77 3 -105 -17 -1054 -5 -1112 14 -55 17 -93 18 -110 1 -9 -9
-131 -13 -529 -14 -284 -2 -537 -3 -562 -4 -116 -4 -1361 11 -1407 17 -34 4
-53 3 -53 -4 0 -7 -32 -9 -92 -6 -51 2 -137 6 -191 8 -53 3 -111 0 -129 -5
-17 -5 -36 -5 -42 0 -6 4 -69 7 -141 6 -71 -1 -220 1 -330 5 -126 5 -205 4
-212 -2 -7 -6 -30 -7 -50 -3 -49 8 -587 8 -636 0 -20 -4 -43 -3 -50 3 -7 6
-86 7 -212 2 -110 -4 -258 -6 -330 -5 -71 1 -135 -2 -141 -6 -6 -5 -25 -5 -42
0 -18 5 -76 8 -129 5 -54 -2 -140 -6 -190 -8 -61 -3 -93 -1 -93 6 0 7 -19 8
-52 4 -47 -6 -1292 -21 -1408 -17 -25 1 -278 2 -562 4 -398 1 -520 5 -529 15
-17 16 -55 15 -110 -2 -58 -19 -1007 -31 -1112 -14 -57 9 -70 9 -77 -3 -8 -12
-173 -14 -1072 -17 -913 -3 -1636 -7 -2063 -12 -60 0 -149 2 -197 6 -63 5 -92
4 -102 -5 -9 -8 -24 -10 -38 -5 -29 9 -228 8 -257 -1 -12 -4 -28 -1 -36 5 -9
7 -23 9 -37 4 -30 -10 -728 -11 -728 -1 0 4 -7 7 -15 7 -8 0 -15 -5 -15 -11 0
-8 -45 -9 -157 -5 -87 3 -295 8 -463 11 -168 3 -320 8 -337 11 l-33 5 0 612
c-1 337 -3 781 -5 987 -3 206 -5 391 -5 410 -2 240 9 1152 15 1267 l7 153 32
4 c17 3 137 8 266 11 129 3 280 9 335 14 62 5 111 4 128 -2 20 -6 32 -6 40 2
14 14 187 15 187 1 0 -5 7 -10 15 -10 8 0 15 3 15 8 0 9 709 7 731 -2 10 -4
23 -1 33 9 10 11 24 14 37 10 29 -9 229 -10 257 -1 14 5 29 3 38 -5 11 -9 39
-10 102 -5 48 4 139 7 202 6 168 -2 377 -2 440 0 30 1 159 1 285 0 413 -3
1876 7 1882 14 8 8 28 8 37 -1z m-5316 -3432 c9 -5 37 -15 62 -22 25 -8 53
-22 62 -31 10 -10 24 -18 31 -18 7 0 23 -13 37 -30 14 -16 29 -30 35 -30 6 0
17 -9 25 -20 8 -11 19 -20 24 -20 5 0 31 -24 58 -52 44 -49 48 -57 48 -106 0
-34 -5 -59 -15 -68 -8 -9 -15 -26 -15 -38 0 -28 -50 -72 -91 -81 -16 -4 -31
-11 -34 -16 -4 -5 -31 -9 -61 -9 -30 0 -54 -4 -54 -10 0 -14 -213 -13 -261 1
-38 12 -38 12 -45 78 -4 36 -7 83 -7 104 0 20 -4 37 -9 37 -6 0 -8 21 -4 53 3
28 6 61 7 72 4 100 12 133 31 138 11 3 22 15 25 26 3 12 6 21 7 21 0 0 19 7
41 15 47 17 78 19 103 6z m22415 -12 c14 -6 28 -20 30 -31 3 -11 14 -22 25
-25 19 -5 27 -38 31 -138 1 -11 4 -44 7 -72 4 -32 2 -53 -4 -53 -5 0 -9 -17
-9 -37 0 -21 -3 -68 -7 -104 -7 -66 -7 -66 -45 -78 -48 -14 -261 -15 -261 -1
0 6 -24 10 -54 10 -30 0 -57 4 -61 9 -3 5 -18 12 -34 16 -41 9 -91 53 -91 81
0 12 -7 29 -15 38 -10 9 -15 34 -15 68 0 49 4 57 48 106 27 28 53 52 58 52 5
0 16 9 24 20 8 11 19 20 25 20 6 0 21 14 35 30 14 17 30 30 37 30 7 0 21 8 31
18 9 9 37 23 62 31 25 7 52 17 60 22 18 11 88 4 123 -12z"/>
<path d="M370 4375 c-7 -8 -24 -21 -38 -28 -16 -7 -30 -25 -36 -44 -5 -18 -13
-33 -17 -33 -5 0 -9 -7 -9 -15 0 -8 4 -15 8 -15 5 0 15 -11 22 -25 7 -14 20
-25 27 -25 7 0 16 -7 19 -15 7 -17 79 -21 89 -5 3 5 21 17 40 26 52 24 75 122
38 159 -35 36 -120 48 -143 20z m91 -68 c24 -15 24 -28 -1 -49 -20 -18 -88
-27 -108 -14 -18 11 -14 57 6 72 19 15 72 11 103 -9z"/>
<path d="M22465 4374 c-37 -19 -45 -31 -45 -70 0 -54 19 -91 55 -108 19 -9 37
-21 40 -26 10 -16 82 -12 89 5 3 8 12 15 19 15 7 0 20 11 27 25 7 14 17 25 22
25 4 0 8 7 8 15 0 8 -4 15 -9 15 -4 0 -12 15 -17 32 -5 18 -20 38 -32 44 -12
6 -30 18 -40 27 -23 21 -78 22 -117 1z m128 -58 c19 -15 23 -61 5 -72 -20 -13
-88 -4 -108 14 -26 22 -25 36 3 50 51 25 75 27 100 8z"/>
<path d="M6930 3812 c0 -9 -312 -12 -1162 -12 -4711 1 -4866 0 -4883 -16 -8
-8 -15 -24 -15 -35 0 -10 -7 -19 -15 -19 -12 0 -15 -19 -15 -109 0 -79 4 -111
13 -114 9 -3 9 -13 0 -50 -16 -58 -18 -348 -3 -363 15 -15 17 -167 2 -172 -14
-4 -17 -102 -3 -102 12 0 11 101 14 -967 2 -931 2 -933 22 -933 12 0 38 -9 58
-19 36 -18 58 -19 427 -14 274 4 414 2 471 -6 51 -8 85 -9 92 -3 7 6 254 12
612 16 330 3 645 9 699 12 59 4 97 4 94 -2 -7 -10 2525 -10 2542 1 5 3 20 3
33 -1 28 -9 1479 -5 2682 8 231 2 423 0 426 -4 3 -5 43 -4 88 1 90 10 276 11
2366 11 2090 0 2276 -1 2366 -11 45 -5 85 -6 88 -1 3 4 195 6 426 4 1203 -13
2654 -17 2682 -8 13 4 28 4 33 1 17 -11 2549 -11 2542 -1 -3 6 35 6 94 2 54
-3 369 -9 699 -12 358 -4 605 -10 612 -16 7 -6 41 -5 92 3 57 8 197 10 471 6
369 -5 391 -4 427 14 20 10 46 19 58 19 20 0 20 2 22 933 3 1068 2 967 14 967
14 0 11 98 -3 102 -15 5 -13 157 2 172 15 15 13 305 -2 363 -10 37 -10 47 0
50 8 3 12 35 12 114 0 90 -3 109 -15 109 -8 0 -15 9 -15 19 0 11 -7 27 -15 35
-17 16 -172 17 -4882 16 -851 0 -1163 3 -1163 12 0 8 -15 8 -52 2 -55 -9 -245
-9 -335 0 -29 2 -53 1 -53 -5 0 -10 -589 -9 -595 1 -3 4 -256 8 -565 9 -409 1
-560 -2 -560 -10 0 -8 -4 -8 -13 -1 -20 17 -687 16 -687 0 0 -9 -3 -9 -12 0
-17 17 -785 17 -790 1 -3 -9 -9 -9 -25 -1 -30 17 -1686 17 -1716 0 -16 -8 -22
-8 -25 1 -5 16 -773 16 -790 -1 -9 -9 -12 -9 -12 0 0 16 -667 17 -687 0 -9 -7
-13 -7 -13 1 0 8 -151 11 -560 10 -309 -1 -562 -5 -565 -9 -6 -10 -595 -11
-595 -1 0 6 -24 7 -52 5 -91 -9 -281 -9 -335 0 -38 6 -53 6 -53 -2z m3220 -52
c358 -1 1459 -3 2233 -3 28 -1 394 0 812 1 418 1 1379 0 2135 -3 756 -3 1470
-4 1585 -3 281 3 336 3 430 0 131 -5 872 -6 975 -1 52 2 122 3 155 2 227 -4
567 -3 574 2 5 3 12 1 15 -3 3 -5 636 -10 1428 -11 783 -1 1444 -4 1470 -7 51
-7 82 -32 72 -58 -3 -9 -9 -16 -13 -16 -4 0 -16 -8 -27 -18 -11 -10 -31 -22
-44 -25 -24 -6 -56 -35 -115 -100 -14 -15 -25 -32 -25 -37 0 -4 -3 -10 -7 -12
-15 -6 -42 -66 -49 -106 -4 -23 -10 -42 -15 -42 -5 0 -9 -43 -9 -95 l0 -94
-36 -10 c-19 -5 -42 -7 -50 -4 -8 3 -14 0 -14 -6 0 -6 -16 -11 -36 -11 -28 0
-43 -8 -69 -35 -31 -31 -35 -42 -41 -109 -4 -41 -9 -78 -13 -83 -3 -4 -28 -14
-56 -21 -27 -7 -57 -21 -67 -32 -9 -11 -25 -20 -36 -20 -22 0 -62 -48 -62 -74
0 -9 -4 -16 -10 -16 -5 0 -10 -5 -10 -11 0 -7 -6 -17 -13 -23 -9 -8 -12 -32
-9 -79 3 -61 6 -68 28 -73 13 -3 24 -10 24 -15 0 -5 7 -9 15 -9 8 0 15 -4 15
-10 0 -18 20 -10 48 20 16 17 39 30 51 30 11 0 21 4 21 9 0 18 53 21 131 9 63
-10 87 -18 107 -39 51 -49 82 -89 82 -104 0 -8 3 -15 8 -15 18 0 32 -61 32
-143 0 -80 -2 -89 -20 -94 -11 -3 -20 -11 -20 -17 0 -13 -35 -46 -49 -46 -5 0
-11 -5 -13 -10 -2 -6 -50 -22 -108 -36 -97 -25 -110 -26 -165 -15 -79 17 -125
37 -125 54 0 8 -11 18 -24 21 -14 3 -26 16 -30 31 -4 14 -11 25 -16 25 -6 0
-10 31 -10 70 0 39 3 70 8 70 4 0 12 12 19 26 16 34 1 49 -59 65 -78 20 -98
22 -98 10 0 -6 -14 -11 -30 -11 -17 0 -40 -9 -52 -20 -12 -11 -28 -20 -35 -20
-7 0 -13 -7 -13 -15 0 -8 -4 -15 -10 -15 -5 0 -10 -6 -10 -13 0 -7 -11 -23
-25 -35 -24 -21 -25 -28 -25 -122 0 -60 4 -100 10 -100 13 0 13 -36 0 -61 -6
-10 -20 -19 -31 -19 -22 0 -49 -22 -49 -39 0 -6 -3 -11 -8 -11 -4 0 -14 -15
-22 -32 -15 -35 -15 -140 1 -146 5 -2 9 -12 9 -23 0 -10 5 -19 10 -19 6 0 10
-7 10 -15 0 -8 21 -37 47 -65 46 -50 47 -50 110 -50 35 0 72 6 83 13 29 17 40
-4 40 -80 0 -35 4 -63 8 -63 5 0 15 -12 23 -27 38 -75 81 -122 115 -129 19 -3
39 -15 45 -25 8 -15 21 -19 68 -19 43 0 60 4 65 15 3 8 12 15 21 15 49 0 73
89 36 136 -26 33 -38 127 -20 149 59 69 69 75 125 75 47 0 59 -4 89 -32 19
-17 35 -35 35 -41 0 -5 9 -22 20 -38 17 -23 20 -37 14 -80 -4 -28 -15 -58 -24
-67 -10 -10 -21 -27 -25 -40 -8 -29 -65 -92 -82 -92 -7 0 -18 -9 -25 -20 -7
-11 -19 -20 -27 -20 -8 0 -24 -9 -35 -20 -18 -16 -42 -20 -152 -26 -94 -5
-133 -4 -138 5 -4 6 -22 11 -41 11 -18 0 -35 6 -38 14 -3 7 -24 16 -46 20 -23
3 -41 11 -41 16 0 5 -18 13 -40 16 -26 4 -40 12 -40 21 0 8 -9 17 -20 20 -12
3 -22 17 -26 38 -3 20 -15 37 -30 45 -13 7 -26 21 -29 31 -3 9 -12 20 -20 23
-8 3 -15 12 -15 21 0 8 -7 15 -15 15 -8 0 -15 9 -15 20 0 11 -7 20 -15 20 -8
0 -15 9 -15 19 0 10 -16 35 -35 54 -22 22 -35 45 -35 61 0 14 -4 26 -10 26 -5
0 -10 11 -10 23 0 13 -7 38 -16 55 -8 17 -18 48 -21 69 -3 21 -10 40 -14 43
-29 19 -36 442 -9 476 8 9 13 31 11 50 -1 19 2 34 8 34 6 0 11 7 11 15 0 8 4
15 9 15 5 0 19 34 32 75 12 42 26 78 31 81 4 3 8 16 8 28 0 13 7 29 15 36 8 7
15 22 15 34 0 12 9 32 20 44 11 12 20 33 20 47 0 14 5 25 10 25 6 0 10 11 10
25 0 14 5 25 10 25 6 0 10 5 10 10 0 6 18 28 40 50 22 22 43 52 46 67 4 15 20
41 36 58 16 16 31 41 35 55 7 27 50 70 71 70 6 0 12 6 12 13 0 16 85 107 100
107 6 0 13 7 16 15 4 8 12 15 20 15 8 0 14 4 14 9 0 21 66 71 93 71 15 0 27 5
27 10 0 6 5 10 11 10 14 0 39 25 39 39 0 6 13 11 28 11 16 0 37 7 48 15 10 8
34 15 52 15 22 0 32 5 32 16 0 26 -29 46 -68 46 -20 0 -42 4 -48 9 -16 13
-378 13 -382 0 -2 -6 -21 -11 -43 -11 -21 0 -39 -4 -39 -10 0 -5 -9 -10 -19
-10 -11 0 -21 -4 -23 -10 -1 -5 -20 -12 -41 -14 -45 -6 -57 -13 -57 -32 0 -8
-10 -14 -26 -14 -26 0 -54 -20 -54 -39 0 -6 -7 -11 -15 -11 -8 0 -15 4 -15 8
0 9 -59 32 -84 32 -10 0 -25 7 -34 16 -23 24 -98 12 -126 -21 -12 -14 -26 -25
-31 -25 -6 0 -20 -16 -32 -34 -21 -33 -24 -34 -55 -23 -18 7 -38 17 -44 22
-54 48 -75 65 -84 65 -5 0 -10 5 -10 10 0 6 -9 10 -20 10 -11 0 -20 4 -20 9 0
20 -63 21 -95 1 -18 -11 -44 -20 -59 -20 -14 0 -26 -5 -26 -12 0 -6 -13 -23
-29 -38 -17 -14 -35 -38 -40 -53 -9 -22 -17 -27 -46 -27 -20 0 -43 8 -53 18
-44 40 -64 52 -92 52 -19 0 -30 5 -30 14 0 20 -95 49 -160 49 -62 0 -173 -27
-178 -43 -2 -5 -10 -10 -19 -10 -14 0 -43 -23 -43 -34 0 -10 -34 -46 -43 -46
-17 0 -37 -29 -37 -54 0 -25 1 -26 70 -26 40 0 70 -4 70 -10 0 -5 13 -10 29
-10 15 0 40 -9 54 -20 14 -11 30 -20 36 -20 7 0 14 -7 17 -15 4 -8 14 -15 24
-15 10 0 32 -11 48 -25 17 -14 35 -25 41 -25 6 0 11 -4 11 -10 0 -5 9 -10 20
-10 11 0 20 -4 20 -9 0 -5 9 -12 19 -16 11 -3 23 -14 26 -25 3 -10 17 -21 30
-24 14 -4 25 -11 25 -16 0 -6 5 -10 11 -10 14 0 79 -72 79 -87 0 -7 11 -15 25
-19 14 -3 25 -10 25 -15 0 -5 13 -23 30 -41 16 -17 30 -35 30 -39 0 -5 7 -9
15 -9 10 0 15 -10 15 -31 0 -30 47 -119 63 -119 4 0 7 -5 7 -11 0 -22 43 -99
55 -99 7 0 15 -22 18 -52 4 -28 10 -54 15 -57 16 -11 23 -46 37 -171 8 -69 19
-171 25 -228 13 -112 7 -183 -16 -206 -8 -8 -14 -34 -14 -58 0 -24 -7 -52 -15
-62 -8 -11 -15 -28 -15 -38 0 -10 -4 -18 -10 -18 -5 0 -10 -9 -10 -20 0 -11
-6 -20 -13 -20 -8 0 -20 -18 -27 -40 -7 -22 -17 -40 -22 -40 -4 0 -8 -5 -8
-10 0 -16 -190 -200 -206 -200 -8 0 -14 -3 -14 -8 0 -8 -59 -30 -105 -39 -16
-3 -35 -12 -43 -19 -7 -8 -24 -14 -36 -14 -13 0 -29 -6 -35 -13 -13 -17 -215
-16 -246 1 -11 5 -45 18 -75 26 -31 9 -61 25 -68 36 -7 11 -17 20 -23 20 -20
0 -69 62 -69 86 0 13 -4 24 -10 24 -13 0 -13 75 -1 98 6 9 12 28 15 42 3 14
17 30 33 38 32 14 139 16 148 2 3 -6 15 -10 26 -10 11 0 26 -6 33 -12 7 -7 27
-25 45 -41 41 -36 39 -57 -9 -101 -22 -20 -40 -39 -40 -43 0 -5 13 -17 27 -27
20 -15 44 -20 92 -20 59 -1 69 2 100 29 92 81 98 89 105 137 4 29 3 49 -4 53
-5 3 -10 19 -10 36 0 27 2 29 40 29 45 0 90 18 90 35 0 7 15 16 33 19 67 12
96 76 96 211 1 66 -4 99 -16 123 -10 17 -21 32 -25 32 -5 0 -8 6 -8 14 0 19
-57 76 -76 76 -8 0 -22 6 -30 14 -17 17 -19 63 -3 68 7 2 11 35 11 88 -1 82
-15 140 -34 140 -5 0 -8 19 -7 42 3 35 0 43 -19 51 -12 6 -22 14 -22 18 0 5
-12 22 -27 38 -16 16 -40 43 -55 60 -15 17 -32 31 -38 31 -5 0 -10 6 -10 13 0
15 -51 47 -74 47 -22 0 -20 -22 4 -48 11 -12 20 -26 20 -32 0 -5 6 -10 14 -10
16 0 26 -63 26 -169 0 -89 -7 -121 -26 -121 -9 0 -14 -11 -14 -30 0 -19 -7
-34 -20 -42 -11 -7 -20 -18 -20 -25 0 -7 -7 -13 -15 -13 -9 0 -18 -7 -21 -15
-6 -15 -103 -65 -128 -65 -8 0 -16 -4 -18 -9 -3 -11 -52 -2 -143 25 -60 18
-85 34 -85 53 0 6 -7 11 -15 11 -10 0 -15 10 -15 30 0 17 -4 30 -8 30 -10 0
-42 108 -42 140 1 80 61 190 105 190 8 0 15 5 15 10 0 6 21 10 46 10 27 0 43
4 39 10 -4 6 5 10 19 10 14 0 26 -4 26 -10 0 -5 6 -10 13 -10 7 0 20 -9 30
-20 20 -24 50 -26 68 -3 18 21 19 147 2 164 -7 7 -13 21 -13 31 0 10 -4 18
-10 18 -5 0 -10 16 -10 36 0 28 -3 35 -15 30 -10 -4 -15 1 -15 15 0 23 -76 99
-99 99 -19 0 -96 26 -128 42 -20 10 -23 19 -23 70 0 32 -4 58 -10 58 -5 0 -10
8 -10 18 0 26 -50 78 -84 86 -29 7 -56 28 -56 43 0 25 -114 39 -277 35 -40 -2
-53 -6 -53 -17 0 -8 -9 -15 -20 -15 -11 0 -20 -4 -20 -10 0 -5 -5 -10 -11 -10
-11 0 -82 -53 -118 -88 -7 -7 -18 -30 -23 -50 -5 -20 -15 -59 -22 -87 -12 -45
-16 -50 -40 -48 -14 1 -26 -2 -26 -8 0 -5 -15 -9 -34 -9 -38 0 -65 -10 -111
-40 -16 -11 -38 -23 -47 -26 -10 -4 -18 -14 -18 -23 0 -9 -11 -25 -25 -35 -16
-12 -25 -29 -25 -47 0 -16 -4 -29 -10 -29 -12 0 -13 -52 -2 -65 5 -6 14 -29
22 -52 7 -23 20 -45 28 -48 22 -8 50 4 57 25 7 21 53 40 97 40 64 0 158 -24
164 -42 3 -12 15 -18 35 -18 20 0 29 -5 29 -16 0 -10 6 -14 15 -10 11 4 15 -2
15 -24 0 -17 4 -30 9 -30 16 0 21 -63 12 -142 -8 -69 -12 -80 -42 -108 -43
-40 -62 -47 -156 -59 -71 -9 -78 -8 -91 10 -7 10 -20 19 -28 19 -8 0 -14 5
-14 11 0 6 -9 18 -21 28 -29 23 -38 103 -15 126 23 23 20 52 -6 59 -37 10
-138 7 -138 -4 0 -5 -7 -10 -15 -10 -8 0 -15 -4 -15 -9 0 -6 -16 -7 -35 -4
-28 4 -35 2 -35 -11 0 -9 -7 -16 -15 -16 -8 0 -15 -5 -15 -10 0 -11 -11 -26
-41 -58 -27 -29 -42 -91 -36 -154 l5 -58 -44 -11 c-24 -6 -44 -15 -44 -20 0
-5 -11 -9 -24 -9 -13 0 -35 -9 -49 -20 -14 -11 -30 -20 -36 -20 -14 0 -51 -37
-51 -50 0 -6 -4 -10 -10 -10 -5 0 -10 -7 -10 -15 0 -8 -9 -19 -20 -25 -18 -10
-20 -21 -20 -120 0 -78 4 -111 13 -117 7 -4 21 -26 31 -49 9 -22 39 -64 66
-92 41 -43 55 -52 84 -52 19 0 36 -5 38 -11 2 -6 19 -14 38 -18 28 -6 35 -12
33 -29 -2 -12 1 -22 6 -22 5 0 15 -25 22 -56 7 -31 18 -62 25 -69 7 -7 16 -24
20 -39 3 -14 12 -26 20 -26 8 0 14 -4 14 -9 0 -11 56 -41 77 -41 7 0 13 -6 13
-14 0 -14 14 -19 98 -31 49 -8 132 13 132 32 0 7 9 13 20 13 10 0 24 9 29 19
6 10 25 24 42 30 40 14 37 45 -6 49 -37 5 -46 18 -39 59 4 21 2 33 -5 33 -19
0 -12 45 9 60 11 8 20 20 20 27 0 7 5 13 10 13 6 0 10 7 10 15 0 12 13 15 60
15 33 0 60 -4 60 -10 0 -5 11 -12 24 -16 15 -3 27 -15 30 -30 4 -13 13 -24 21
-24 11 0 15 -12 15 -50 0 -60 -18 -150 -31 -150 -5 0 -9 -7 -9 -15 0 -8 -7
-15 -15 -15 -8 0 -15 -9 -15 -20 0 -13 -7 -20 -20 -20 -11 0 -34 -9 -52 -20
-18 -11 -43 -20 -55 -20 -13 0 -23 -4 -23 -10 0 -5 -6 -10 -14 -10 -8 0 -16
-4 -18 -10 -1 -5 -63 -13 -136 -16 -117 -6 -134 -5 -151 10 -13 12 -33 17 -58
15 -53 -3 -124 11 -130 27 -3 8 -16 14 -30 14 -14 0 -37 6 -51 14 -15 7 -40
20 -57 27 -16 7 -38 20 -47 29 -76 70 -98 93 -98 106 0 8 -7 14 -15 14 -8 0
-15 7 -15 15 0 8 -4 15 -10 15 -5 0 -10 7 -10 15 0 8 -11 17 -25 21 -17 4 -25
13 -25 28 0 25 -8 37 -35 52 -11 6 -22 24 -23 40 -2 15 -12 36 -23 45 -10 9
-19 24 -19 33 0 9 -6 16 -14 16 -8 0 -20 25 -31 62 -9 35 -26 70 -36 79 -19
17 -27 55 -9 44 6 -4 10 15 10 49 0 41 -4 56 -14 56 -8 0 -16 6 -18 13 -10 30
0 387 11 401 11 12 19 72 21 139 0 16 6 27 14 27 15 0 56 105 64 165 2 22 13
47 23 56 11 9 19 23 19 31 0 19 23 68 33 68 4 0 7 11 7 24 0 14 5 28 10 31 6
3 10 17 10 30 0 13 7 30 15 39 8 8 15 21 15 30 0 8 6 21 13 28 19 21 37 56 37
72 0 8 14 27 30 43 17 15 30 35 30 44 0 10 11 20 25 23 17 4 25 13 25 28 0 12
7 28 15 37 8 9 23 26 35 39 11 12 20 29 20 37 0 8 7 15 15 15 8 0 15 4 15 9 0
5 10 11 23 15 13 3 29 17 37 30 7 14 27 30 44 37 17 7 35 19 39 26 4 7 24 13
42 13 25 0 35 5 35 15 0 13 7 15 38 9 20 -4 45 -11 54 -15 32 -17 48 -10 48
19 0 32 -16 52 -41 52 -10 0 -19 5 -21 11 -5 15 -386 18 -396 3 -9 -13 -76
-44 -96 -44 -9 0 -16 -4 -16 -9 0 -5 -13 -12 -30 -16 -16 -4 -30 -10 -30 -14
0 -14 -59 -41 -89 -41 -31 0 -81 37 -81 60 0 5 -7 10 -15 10 -8 0 -15 4 -15 8
0 14 -74 32 -131 32 -59 0 -180 -28 -218 -51 -49 -28 -82 -67 -88 -103 -6 -40
-26 -47 -52 -18 -9 11 -28 22 -43 26 -16 3 -28 13 -28 21 0 8 -11 17 -25 21
-14 3 -25 10 -25 15 0 5 -7 9 -15 9 -8 0 -15 3 -15 8 0 4 -70 9 -155 10 -107
3 -155 0 -155 -7 0 -6 -16 -11 -35 -11 -24 0 -37 -6 -45 -20 -6 -11 -20 -20
-30 -20 -11 0 -20 -4 -20 -9 0 -5 -9 -12 -19 -16 -45 -14 -30 -75 18 -75 12 0
21 -3 21 -7 0 -9 49 -33 67 -33 7 0 13 -4 13 -10 0 -5 7 -10 15 -10 8 0 15 -4
15 -10 0 -5 7 -10 15 -10 8 0 15 -9 15 -20 0 -13 7 -20 20 -20 11 0 20 -4 20
-10 0 -5 7 -10 15 -10 8 0 15 -7 15 -15 0 -8 7 -15 15 -15 8 0 15 -4 15 -9 0
-5 23 -33 50 -61 28 -28 50 -54 50 -56 0 -3 6 -11 13 -18 42 -44 67 -78 67
-91 0 -8 9 -24 20 -35 11 -11 20 -25 20 -31 0 -7 7 -17 16 -24 9 -6 18 -32 21
-58 3 -26 12 -52 19 -58 8 -6 14 -22 14 -35 0 -13 4 -24 9 -24 7 0 22 -67 40
-180 4 -25 11 -51 16 -59 18 -31 -2 -437 -23 -450 -5 -3 -11 -38 -14 -78 -4
-48 -11 -77 -22 -88 -9 -9 -16 -23 -16 -31 0 -8 -5 -14 -11 -14 -7 0 -9 -10
-5 -24 4 -16 0 -30 -9 -40 -8 -8 -15 -21 -15 -28 0 -8 -9 -20 -20 -28 -11 -8
-20 -17 -20 -21 0 -4 -22 -30 -50 -59 -27 -29 -50 -56 -50 -61 0 -5 -4 -9 -9
-9 -5 0 -27 -17 -49 -37 -22 -21 -54 -50 -71 -65 -17 -15 -31 -31 -31 -36 0
-8 -68 -42 -84 -42 -4 0 -22 -10 -39 -23 -35 -25 -92 -47 -123 -47 -11 0 -24
-4 -29 -9 -34 -30 -271 -49 -297 -23 -7 7 -25 12 -40 12 -15 0 -28 4 -28 9 0
5 -12 12 -26 15 -29 8 -54 29 -54 45 0 6 -7 11 -15 11 -8 0 -15 6 -15 14 0 15
-27 29 -41 21 -4 -3 -11 6 -15 20 -4 15 -17 38 -30 52 -28 30 -30 58 -12 183
10 72 16 89 39 110 68 62 70 62 143 56 48 -3 72 -10 78 -21 5 -8 14 -15 19
-15 22 0 39 -30 45 -78 5 -42 3 -53 -15 -71 -12 -12 -32 -21 -46 -21 -20 0
-25 -5 -25 -25 0 -14 5 -25 11 -25 13 0 39 -25 39 -38 0 -6 17 -27 37 -47 42
-42 126 -66 166 -47 12 6 36 13 53 16 32 5 84 45 84 63 0 6 11 8 24 6 21 -4
24 -1 30 46 4 28 11 51 16 51 5 0 10 17 12 37 l3 38 65 8 c116 15 180 38 226
82 44 42 47 53 60 177 5 45 3 61 -10 73 -9 9 -16 29 -16 44 0 19 -9 34 -30 50
-22 16 -29 28 -25 41 4 13 0 20 -15 25 -11 3 -20 13 -20 21 0 8 -4 14 -10 14
-5 0 -10 16 -10 35 0 19 5 35 10 35 6 0 10 28 10 65 0 37 -4 65 -10 65 -5 0
-10 11 -10 25 0 14 -3 25 -8 25 -4 0 -13 15 -21 33 -17 38 -96 117 -118 117
-9 0 -30 9 -48 20 -46 28 -123 33 -157 9 -14 -11 -33 -19 -42 -19 -25 0 -19
-40 11 -67 34 -32 44 -110 19 -147 -9 -14 -16 -32 -16 -41 0 -8 -7 -15 -15
-15 -9 0 -18 -7 -22 -15 -8 -22 -70 -46 -118 -46 -132 -1 -165 2 -179 16 -8 8
-25 15 -37 15 -25 0 -59 26 -59 47 0 7 -7 13 -15 13 -8 0 -15 5 -15 10 0 6 -6
10 -14 10 -7 0 -20 15 -27 33 -17 40 -16 216 1 227 7 4 10 16 8 26 -3 19 52
84 72 84 5 0 10 5 10 11 0 16 27 39 47 39 34 0 63 12 63 26 0 11 16 14 64 14
36 0 68 -4 71 -10 17 -28 75 1 75 37 -2 44 -28 118 -44 121 -10 2 -16 13 -16
31 0 15 -9 36 -20 46 -11 10 -20 24 -20 32 0 7 -5 13 -12 13 -12 0 -31 16 -76
63 -17 17 -37 27 -55 27 -25 0 -28 2 -17 15 10 13 9 15 -11 16 -13 1 -37 4
-54 6 -54 8 -220 3 -223 -7 -2 -6 -10 -10 -17 -10 -12 0 -45 88 -45 118 0 6
-13 23 -30 39 -16 15 -30 34 -30 40 0 7 -8 13 -17 13 -10 0 -31 16 -48 35 -20
24 -38 35 -57 35 -15 0 -30 5 -33 10 -4 6 -60 10 -136 10 -79 0 -129 -4 -129
-10 0 -5 -5 -10 -10 -10 -6 0 -16 -4 -23 -10 -56 -45 -76 -60 -84 -60 -18 0
-69 -171 -59 -197 6 -14 -1 -15 -46 -9 -29 4 -79 11 -111 15 -32 4 -60 4 -62
1 -3 -4 -27 -10 -54 -14 -65 -9 -142 -61 -156 -104 -5 -18 -14 -32 -20 -32
-22 0 -33 -46 -28 -113 3 -37 10 -67 14 -67 5 0 9 -11 9 -24 0 -14 7 -31 15
-40 8 -8 15 -23 15 -33 0 -27 40 -59 86 -68 21 -4 42 -11 45 -17 11 -18 29 2
29 31 0 18 9 35 25 47 14 10 25 24 25 31 0 7 9 13 20 13 11 0 20 5 20 11 0 9
25 10 90 6 99 -7 180 -24 180 -38 0 -5 4 -9 10 -9 19 0 50 -35 50 -57 0 -12 8
-26 17 -32 26 -14 23 -200 -4 -229 -85 -93 -109 -114 -134 -119 -16 -3 -29 -9
-29 -13 0 -20 -181 -32 -188 -12 -2 6 -10 12 -18 12 -8 0 -14 5 -14 10 0 6 -9
10 -19 10 -11 0 -26 7 -35 15 -8 8 -19 15 -25 15 -6 0 -11 9 -11 19 0 11 -7
26 -15 35 -8 8 -15 28 -15 44 0 16 7 35 15 42 8 7 15 24 15 38 0 24 -1 25 -56
19 -31 -3 -62 -11 -67 -16 -6 -6 -21 -11 -34 -11 -15 0 -46 -23 -89 -67 -55
-56 -65 -71 -62 -95 3 -15 0 -29 -6 -31 -7 -2 -10 -37 -9 -95 2 -91 1 -92 -23
-92 -15 0 -24 -6 -24 -15 0 -8 -9 -15 -20 -15 -11 0 -20 -4 -20 -10 0 -5 -5
-10 -11 -10 -16 0 -39 -26 -39 -45 0 -8 -8 -28 -17 -42 -14 -22 -18 -47 -17
-123 1 -90 3 -98 28 -123 14 -14 26 -31 26 -37 0 -13 37 -50 49 -50 6 0 16 -9
23 -19 9 -12 37 -24 76 -32 l62 -13 21 -71 c12 -38 24 -72 28 -75 4 -3 11 -13
14 -23 4 -10 20 -24 36 -30 17 -6 32 -21 35 -33 5 -18 15 -22 73 -27 100 -10
181 -8 188 3 4 6 10 8 15 5 13 -8 50 27 50 47 0 9 5 20 10 23 12 8 13 72 1 79
-12 8 -24 100 -16 125 3 12 13 21 21 21 8 0 14 5 14 10 0 6 9 10 20 10 11 0
20 5 20 11 0 7 13 9 38 5 20 -4 54 -9 75 -12 26 -4 41 -13 47 -28 13 -29 35
-56 48 -56 25 0 46 -160 23 -174 -4 -3 -11 -24 -15 -46 -4 -26 -11 -40 -21
-40 -8 0 -15 -6 -15 -14 0 -8 -10 -16 -22 -18 -14 -2 -24 -12 -28 -28 -4 -16
-16 -28 -36 -35 -17 -6 -37 -15 -45 -20 -16 -12 -47 -27 -96 -45 -56 -21 -445
1 -461 26 -4 6 -18 14 -32 17 -123 28 -146 39 -154 73 -4 13 -16 26 -29 29
-54 16 -87 37 -87 55 0 13 -7 20 -20 20 -11 0 -20 7 -20 15 0 8 -11 17 -25 21
-15 4 -28 16 -31 30 -3 13 -10 24 -16 24 -16 0 -57 47 -63 73 -4 14 -15 34
-26 46 -10 11 -19 33 -19 50 0 16 -3 31 -7 33 -13 5 -43 101 -43 136 0 17 -4
32 -10 32 -5 0 -10 7 -10 15 0 8 -7 15 -15 15 -9 0 -15 9 -16 23 0 22 -8 99
-29 287 -6 57 -16 107 -21 111 -6 3 -4 30 6 70 8 36 15 111 15 172 0 83 4 112
15 123 8 9 15 28 15 44 0 16 5 32 10 35 6 3 10 17 10 31 0 13 5 24 10 24 6 0
10 13 10 29 0 16 7 36 15 44 7 8 17 26 20 39 4 13 17 37 31 53 13 15 24 37 24
48 0 11 23 41 50 68 28 27 50 52 50 56 1 4 21 24 45 43 25 19 45 41 45 47 0 7
5 13 10 13 6 0 10 7 10 15 0 10 11 15 35 15 19 0 35 5 35 10 0 6 11 10 24 10
14 0 28 4 31 10 3 5 24 14 46 20 72 20 61 53 -27 79 -24 7 -44 17 -44 22 0 5
-9 9 -21 9 -11 0 -33 6 -47 14 -55 28 -98 35 -169 29 -40 -3 -73 -10 -73 -14
0 -5 -9 -9 -20 -9 -19 0 -28 -5 -63 -36 -7 -6 -24 -14 -38 -17 -15 -4 -53 -31
-85 -62 -33 -30 -62 -55 -66 -55 -5 0 -8 11 -8 24 0 14 -15 39 -35 60 -19 20
-35 43 -35 51 0 8 -11 17 -25 21 -14 3 -25 12 -25 20 0 9 -11 14 -30 14 -16 0
-30 5 -30 11 0 15 -110 3 -147 -16 -16 -8 -32 -15 -37 -15 -17 0 -46 -33 -46
-52 0 -11 -14 -33 -30 -51 l-31 -32 -24 28 c-13 15 -27 27 -31 27 -4 0 -24 17
-45 39 -21 21 -50 42 -64 45 -14 4 -25 11 -25 16 0 6 -9 10 -19 10 -10 0 -21
7 -25 15 -3 9 -18 15 -36 15 -16 0 -30 5 -30 10 0 6 -11 10 -24 10 -13 0 -26
6 -29 13 -9 27 -317 4 -317 -24 0 -5 -18 -9 -40 -9 -22 0 -40 -4 -40 -10 0 -5
-18 -22 -40 -36 -23 -15 -40 -35 -40 -45 0 -16 8 -19 44 -19 24 0 46 -5 48
-11 2 -6 31 -14 65 -18 34 -4 67 -12 75 -18 7 -5 36 -16 63 -23 28 -8 56 -20
63 -27 7 -7 20 -13 28 -13 8 0 14 -6 14 -14 0 -20 32 -45 37 -28 8 21 31 13
37 -13 4 -14 14 -29 24 -32 25 -10 78 -65 86 -91 4 -12 14 -22 22 -22 8 0 14
-7 14 -15 0 -8 4 -15 8 -15 5 0 17 -15 27 -34 11 -19 29 -40 41 -46 12 -7 32
-34 44 -61 13 -27 27 -49 32 -49 4 0 8 -11 8 -25 0 -14 9 -35 20 -47 11 -12
20 -32 20 -44 0 -13 4 -25 9 -28 4 -3 11 -19 15 -36 3 -17 13 -38 21 -46 8 -9
15 -31 15 -50 0 -19 4 -34 8 -34 7 0 21 -66 43 -208 11 -66 6 -372 -6 -434 -4
-21 -11 -38 -16 -38 -5 0 -9 -22 -9 -50 0 -27 -3 -50 -7 -50 -9 0 -33 -49 -33
-67 0 -7 -6 -13 -14 -13 -7 0 -16 -8 -20 -17 -8 -25 -28 -55 -48 -74 -10 -9
-18 -24 -18 -33 0 -9 -25 -41 -55 -72 -30 -31 -55 -63 -55 -71 0 -19 -25 -43
-43 -43 -9 0 -17 -4 -19 -8 -2 -4 -24 -23 -50 -42 -27 -18 -48 -37 -48 -42 0
-4 -7 -8 -15 -8 -8 0 -15 -4 -15 -10 0 -5 -13 -10 -29 -10 -17 0 -33 -4 -36
-10 -9 -15 -109 -60 -133 -60 -12 0 -22 -4 -22 -9 0 -14 -67 -23 -165 -24 -95
0 -155 9 -155 24 0 5 -16 9 -36 9 -27 0 -37 5 -41 20 -3 11 -9 20 -14 20 -17
0 -58 54 -64 87 -3 18 -10 33 -15 33 -6 0 -10 11 -10 24 0 14 -4 28 -10 31
-16 10 -12 121 5 135 8 7 15 21 15 31 0 10 10 21 22 25 12 3 32 17 45 30 19
19 35 24 73 24 27 0 52 -4 55 -10 3 -5 15 -10 26 -10 11 0 31 -11 44 -25 50
-49 21 -165 -42 -165 -13 0 -23 -5 -23 -12 0 -23 34 -88 47 -88 7 0 13 -7 13
-15 0 -18 30 -20 31 -2 0 10 2 10 6 0 5 -15 158 -19 167 -4 3 4 24 11 46 15
22 3 40 11 40 16 0 14 51 70 64 70 11 0 46 49 79 110 11 19 23 39 28 45 5 5 9
19 9 32 0 13 5 23 10 23 6 0 10 6 10 13 0 10 13 13 50 9 32 -3 50 0 50 7 0 6
7 11 15 11 8 0 15 4 15 8 0 5 22 14 49 22 33 9 53 21 62 37 7 12 20 23 30 23
13 0 20 11 25 38 4 20 11 40 17 43 5 4 10 19 11 35 1 16 7 39 14 51 14 26 16
103 2 103 -5 0 -10 7 -10 16 0 9 -9 27 -20 41 -11 14 -20 35 -20 47 0 20 -45
64 -97 97 -13 8 -23 17 -23 21 0 16 -47 56 -75 63 -16 4 -64 10 -106 12 l-77
4 -7 54 c-3 30 -12 56 -20 58 -7 3 -16 20 -20 38 -7 32 -45 79 -65 79 -5 0
-10 4 -10 9 0 5 -20 14 -45 20 -25 6 -45 16 -45 21 0 6 -13 10 -29 10 -17 0
-33 5 -36 10 -8 13 -96 13 -129 0 -14 -5 -26 -16 -26 -25 0 -8 -4 -15 -10 -15
-5 0 -10 -13 -10 -30 0 -27 3 -30 30 -30 20 0 30 -5 30 -15 0 -8 5 -15 10 -15
6 0 10 -17 10 -38 0 -26 -6 -42 -20 -52 -11 -8 -20 -18 -20 -23 0 -16 -29 -37
-61 -44 -18 -3 -45 -12 -59 -20 -35 -18 -57 -16 -82 7 -11 10 -34 22 -49 25
-20 5 -29 13 -29 26 0 12 -7 19 -20 19 -13 0 -20 7 -20 19 0 10 -7 21 -15 25
-20 7 -22 177 -2 198 6 7 19 27 27 43 18 35 35 55 48 55 6 0 13 7 16 16 6 15
23 16 142 12 l136 -6 -7 61 c-3 33 -13 70 -21 81 -8 11 -14 28 -14 37 0 9 -7
22 -15 29 -8 7 -15 19 -15 27 0 9 -17 32 -38 52 -21 20 -41 44 -45 54 -4 10
-17 17 -32 17 -14 0 -25 4 -25 9 0 6 -21 13 -47 17 -27 3 -55 13 -65 21 -12
11 -28 13 -62 8 -25 -4 -46 -10 -46 -14 0 -3 -16 -7 -36 -9 -41 -2 -62 14 -70
56 -3 16 -27 52 -53 80 -63 71 -89 71 -152 0 -26 -28 -50 -64 -53 -80 -8 -42
-29 -58 -70 -56 -20 2 -36 6 -36 9 0 4 -21 10 -46 14 -34 5 -50 3 -62 -8 -10
-8 -38 -18 -64 -21 -27 -4 -48 -11 -48 -17 0 -5 -11 -9 -25 -9 -15 0 -28 -7
-32 -17 -4 -10 -24 -34 -45 -54 -21 -20 -38 -43 -38 -52 0 -8 -7 -20 -15 -27
-8 -7 -15 -20 -15 -29 0 -9 -6 -26 -14 -37 -8 -11 -18 -48 -21 -81 l-7 -61
136 6 c119 4 136 3 142 -12 3 -9 10 -16 16 -16 13 0 30 -20 48 -55 8 -16 21
-36 28 -43 19 -21 17 -191 -3 -198 -8 -4 -15 -15 -15 -25 0 -12 -7 -19 -20
-19 -13 0 -20 -7 -20 -19 0 -13 -9 -21 -29 -26 -15 -3 -38 -15 -49 -25 -25
-23 -47 -25 -82 -7 -14 8 -41 17 -59 20 -32 7 -61 28 -61 44 0 5 -9 15 -20 23
-14 10 -20 26 -20 52 0 21 5 38 10 38 6 0 10 7 10 15 0 10 10 15 30 15 27 0
30 3 30 30 0 17 -4 30 -10 30 -5 0 -10 7 -10 15 0 9 -12 20 -26 25 -33 13
-121 13 -129 0 -3 -5 -19 -10 -36 -10 -16 0 -29 -4 -29 -10 0 -5 -20 -15 -45
-21 -25 -6 -45 -15 -45 -20 0 -5 -5 -9 -10 -9 -20 0 -58 -47 -65 -79 -4 -18
-13 -35 -20 -38 -8 -2 -17 -28 -20 -58 l-7 -54 -77 -4 c-42 -2 -89 -8 -106
-12 -28 -7 -75 -47 -75 -63 0 -4 -10 -13 -22 -21 -53 -33 -98 -77 -98 -97 0
-12 -9 -33 -20 -47 -11 -14 -20 -32 -20 -41 0 -9 -4 -16 -10 -16 -14 0 -12
-77 2 -103 7 -12 13 -35 14 -51 1 -16 6 -31 11 -35 6 -3 13 -23 17 -43 5 -27
12 -38 25 -38 10 0 23 -11 30 -23 9 -16 29 -28 62 -37 27 -8 49 -17 49 -22 0
-4 7 -8 15 -8 8 0 15 -5 15 -11 0 -7 18 -10 50 -7 37 4 50 1 50 -9 0 -7 5 -13
10 -13 6 0 10 -10 10 -23 0 -13 4 -27 9 -33 5 -5 17 -25 28 -44 33 -61 68
-110 79 -110 13 0 64 -56 64 -70 0 -5 18 -13 40 -16 22 -4 43 -11 46 -15 9
-15 164 -11 165 4 0 9 2 9 6 0 7 -18 33 -16 33 2 0 8 6 15 13 15 13 0 47 65
47 88 0 7 -10 12 -23 12 -63 0 -92 116 -42 165 13 14 33 25 44 25 11 0 23 5
26 10 3 6 28 10 55 10 38 0 54 -5 73 -24 13 -13 33 -27 45 -30 12 -4 22 -15
22 -25 0 -10 7 -24 15 -31 17 -14 21 -125 5 -135 -5 -3 -10 -17 -10 -31 0 -13
-4 -24 -10 -24 -5 0 -12 -15 -15 -33 -6 -33 -47 -87 -64 -87 -5 0 -11 -9 -14
-20 -4 -15 -14 -20 -41 -20 -20 0 -36 -4 -36 -9 0 -15 -60 -24 -155 -24 -98 1
-165 10 -165 24 0 5 -10 9 -22 9 -24 0 -124 45 -133 60 -3 6 -19 10 -36 10
-16 0 -29 5 -29 10 0 6 -7 10 -15 10 -8 0 -15 4 -15 8 0 5 -21 24 -47 42 -27
19 -49 38 -51 42 -2 4 -10 8 -19 8 -18 0 -43 24 -43 43 0 8 -25 40 -55 71 -30
31 -55 63 -55 72 0 9 -8 24 -17 33 -21 19 -41 49 -49 74 -4 9 -13 17 -20 17
-8 0 -14 6 -14 13 0 18 -24 67 -32 67 -5 0 -8 23 -8 50 0 28 -4 50 -9 50 -5 0
-12 17 -16 38 -12 62 -17 368 -6 434 22 142 36 208 43 208 4 0 8 15 8 34 0 19
7 41 15 50 8 8 18 29 21 46 4 17 11 33 15 36 5 3 9 15 9 28 0 12 9 32 20 44
11 12 20 33 20 47 0 14 4 25 8 25 5 0 19 22 32 49 12 27 32 54 44 61 12 6 30
27 41 46 10 19 22 34 27 34 4 0 8 7 8 15 0 8 6 15 14 15 8 0 18 10 22 22 8 26
61 81 86 91 10 3 20 18 24 32 6 26 29 34 37 13 5 -17 37 8 37 28 0 8 6 14 14
14 8 0 21 6 28 13 7 7 36 19 63 27 28 7 56 18 63 23 8 6 41 14 75 18 34 4 63
12 65 18 2 6 24 11 48 11 36 0 44 3 44 19 0 10 -17 30 -40 45 -22 14 -40 31
-40 36 0 6 -18 10 -40 10 -22 0 -40 4 -40 9 0 28 -308 51 -317 24 -3 -7 -16
-13 -29 -13 -13 0 -24 -4 -24 -10 0 -5 -14 -10 -30 -10 -18 0 -33 -6 -36 -15
-4 -8 -15 -15 -25 -15 -10 0 -19 -4 -19 -10 0 -5 -11 -12 -25 -16 -14 -3 -43
-24 -64 -45 -21 -22 -41 -39 -45 -39 -4 0 -18 -12 -31 -27 l-24 -28 -31 32
c-16 18 -30 40 -30 49 0 20 -28 54 -44 54 -6 0 -23 7 -39 15 -37 19 -147 31
-147 16 0 -6 -13 -11 -30 -11 -19 0 -30 -5 -30 -14 0 -8 -11 -17 -25 -20 -14
-4 -25 -13 -25 -21 0 -8 -16 -31 -35 -51 -20 -21 -35 -46 -35 -60 0 -13 -3
-24 -7 -24 -5 0 -34 25 -67 55 -32 31 -70 58 -84 62 -25 6 -35 12 -67 41 -7 6
-23 12 -34 12 -12 0 -21 4 -21 9 0 4 -33 11 -72 14 -72 6 -115 -1 -170 -29
-14 -8 -36 -14 -47 -14 -12 0 -21 -4 -21 -9 0 -5 -20 -15 -44 -22 -88 -26 -99
-59 -27 -79 22 -6 43 -15 46 -20 3 -6 17 -10 31 -10 13 0 24 -4 24 -10 0 -5
16 -10 35 -10 24 0 35 -5 35 -15 0 -8 5 -15 10 -15 6 0 10 -6 10 -13 0 -6 20
-28 45 -47 24 -19 44 -39 45 -43 0 -4 23 -29 50 -56 28 -27 50 -57 50 -68 0
-11 11 -33 24 -48 14 -16 27 -40 31 -53 3 -13 13 -31 20 -39 8 -8 15 -28 15
-44 0 -16 5 -29 10 -29 6 0 10 -11 10 -24 0 -14 5 -28 10 -31 6 -3 10 -19 10
-35 0 -16 7 -35 15 -44 11 -11 15 -40 15 -123 0 -61 7 -136 15 -172 10 -40 12
-67 6 -70 -5 -4 -15 -54 -21 -111 -21 -188 -29 -265 -29 -287 -1 -14 -7 -23
-16 -23 -8 0 -15 -7 -15 -15 0 -8 -4 -15 -10 -15 -5 0 -10 -15 -10 -32 0 -35
-30 -131 -42 -136 -5 -2 -8 -17 -8 -33 0 -17 -9 -39 -19 -50 -11 -12 -22 -32
-26 -46 -6 -26 -47 -73 -63 -73 -6 0 -13 -11 -16 -24 -3 -14 -16 -26 -31 -30
-14 -4 -25 -13 -25 -21 0 -8 -9 -15 -20 -15 -13 0 -20 -7 -20 -20 0 -18 -33
-39 -87 -55 -13 -3 -25 -16 -29 -29 -8 -34 -31 -45 -154 -73 -14 -3 -28 -11
-32 -17 -16 -25 -405 -47 -461 -26 -49 18 -80 33 -96 45 -8 5 -28 14 -45 20
-20 7 -32 19 -36 35 -4 16 -14 26 -28 28 -12 2 -22 10 -22 18 0 8 -7 14 -15
14 -10 0 -17 14 -21 40 -4 22 -11 43 -15 46 -23 14 -2 174 23 174 13 0 35 27
48 56 6 15 21 24 47 28 21 3 55 8 76 12 24 4 37 2 37 -5 0 -6 9 -11 20 -11 11
0 20 -4 20 -10 0 -5 6 -10 14 -10 8 0 18 -9 21 -21 8 -25 -4 -117 -16 -125
-12 -7 -11 -71 1 -79 6 -3 10 -14 10 -23 0 -20 37 -55 50 -47 5 3 11 1 15 -5
7 -11 88 -13 188 -3 58 5 68 9 73 27 3 12 18 27 35 33 16 6 32 20 36 30 3 10
10 20 14 23 4 3 16 37 28 75 l21 71 62 13 c39 8 67 20 76 32 7 10 17 19 23 19
12 0 49 37 49 50 0 6 12 23 26 37 25 25 27 33 28 123 1 76 -3 101 -16 123 -10
14 -18 34 -18 42 0 19 -23 45 -39 45 -6 0 -11 5 -11 10 0 6 -9 10 -20 10 -11
0 -20 7 -20 15 0 9 -9 15 -24 15 -24 0 -25 1 -23 92 1 58 -2 93 -9 95 -6 2 -9
16 -6 31 3 24 -7 39 -62 95 -43 44 -74 67 -89 67 -13 0 -28 5 -34 11 -5 5 -36
13 -67 16 -55 6 -56 5 -56 -19 0 -14 7 -31 15 -38 8 -7 15 -26 15 -42 0 -16
-7 -36 -15 -44 -8 -9 -15 -24 -15 -35 0 -10 -5 -19 -11 -19 -6 0 -17 -7 -25
-15 -9 -8 -24 -15 -35 -15 -10 0 -19 -4 -19 -10 0 -5 -6 -10 -14 -10 -8 0 -16
-6 -18 -12 -7 -20 -188 -8 -188 12 0 4 -13 10 -29 13 -25 5 -49 26 -134 119
-27 29 -30 215 -4 229 9 6 17 20 17 32 0 22 31 57 50 57 6 0 10 4 10 9 0 14
81 31 180 38 65 4 90 3 90 -6 0 -6 9 -11 20 -11 11 0 20 -6 20 -13 0 -7 11
-21 25 -31 16 -12 25 -29 25 -47 0 -29 18 -49 29 -31 3 6 24 13 45 17 46 9 86
41 86 68 0 10 7 25 15 33 8 9 15 26 15 40 0 13 4 24 9 24 4 0 11 30 14 67 5
67 -6 113 -28 113 -6 0 -15 14 -20 32 -14 43 -91 95 -156 104 -27 4 -51 10
-54 14 -2 3 -30 3 -62 -1 -32 -4 -82 -11 -111 -15 -45 -6 -52 -5 -46 9 10 26
-41 197 -59 197 -8 0 -28 15 -84 60 -7 6 -17 10 -23 10 -5 0 -10 5 -10 10 0 6
-50 10 -129 10 -76 0 -132 -4 -136 -10 -3 -5 -18 -10 -33 -10 -19 0 -37 -11
-57 -35 -17 -19 -38 -35 -47 -35 -10 0 -18 -6 -18 -13 0 -6 -13 -25 -30 -40
-16 -16 -30 -33 -30 -39 0 -30 -33 -118 -45 -118 -7 0 -15 4 -17 10 -3 10
-169 15 -223 7 -16 -2 -41 -5 -54 -6 -20 -1 -21 -3 -11 -16 11 -13 8 -15 -17
-15 -18 0 -38 -10 -55 -27 -45 -47 -64 -63 -76 -63 -7 0 -12 -6 -12 -13 0 -8
-9 -22 -20 -32 -11 -10 -20 -31 -20 -46 0 -18 -6 -29 -16 -31 -16 -3 -42 -77
-44 -121 0 -36 58 -65 75 -37 3 6 35 10 71 10 48 0 64 -3 64 -14 0 -14 29 -26
63 -26 20 0 47 -23 47 -39 0 -6 5 -11 10 -11 20 0 75 -65 72 -84 -2 -10 1 -22
8 -26 17 -11 18 -187 1 -227 -7 -18 -20 -33 -27 -33 -8 0 -14 -4 -14 -10 0 -5
-7 -10 -15 -10 -8 0 -15 -5 -15 -12 0 -21 -32 -48 -57 -48 -14 0 -31 -7 -39
-15 -14 -14 -47 -17 -179 -16 -48 0 -110 24 -118 46 -4 8 -13 15 -22 15 -8 0
-15 7 -15 15 0 9 -7 27 -16 41 -25 37 -15 115 19 147 30 27 36 67 11 67 -9 0
-28 8 -42 19 -34 24 -111 19 -157 -9 -18 -11 -39 -20 -48 -20 -22 0 -101 -79
-118 -117 -8 -18 -17 -33 -21 -33 -5 0 -8 -11 -8 -25 0 -14 -4 -25 -10 -25 -6
0 -10 -28 -10 -65 0 -37 4 -65 10 -65 6 0 10 -16 10 -35 0 -19 -4 -35 -10 -35
-5 0 -10 -6 -10 -14 0 -8 -9 -18 -20 -21 -15 -5 -19 -12 -15 -25 4 -13 -3 -25
-25 -41 -21 -16 -30 -31 -30 -50 0 -15 -7 -35 -16 -44 -13 -12 -15 -28 -10
-73 13 -124 16 -135 60 -177 46 -44 110 -67 226 -82 l65 -8 3 -37 c2 -21 7
-38 12 -38 5 0 12 -23 16 -51 6 -47 9 -50 30 -46 13 2 24 0 24 -6 0 -18 52
-58 84 -63 17 -3 41 -10 53 -16 40 -19 124 5 166 47 20 20 37 41 37 47 0 13
26 38 39 38 6 0 11 11 11 25 0 20 -5 25 -25 25 -14 0 -34 9 -46 21 -18 18 -20
29 -15 71 6 48 23 78 45 78 5 0 14 7 19 15 6 11 30 18 78 21 73 6 75 6 143
-56 23 -21 29 -38 39 -110 18 -125 16 -153 -12 -183 -13 -14 -26 -37 -30 -52
-4 -14 -11 -23 -15 -20 -14 8 -41 -6 -41 -21 0 -8 -7 -14 -15 -14 -8 0 -15 -5
-15 -11 0 -16 -25 -37 -54 -45 -14 -3 -26 -10 -26 -15 0 -5 -13 -9 -28 -9 -15
0 -33 -5 -40 -12 -26 -26 -263 -7 -296 23 -6 5 -19 9 -30 9 -31 0 -88 22 -123
47 -17 13 -35 23 -39 23 -16 0 -84 34 -84 42 0 5 -14 21 -31 36 -17 15 -49 44
-71 65 -22 20 -44 37 -49 37 -5 0 -9 4 -9 9 0 5 -22 32 -50 61 -27 29 -50 55
-50 59 0 4 -9 13 -20 21 -11 8 -20 20 -20 28 0 7 -7 20 -15 28 -9 10 -13 24
-9 40 4 14 2 24 -5 24 -6 0 -11 6 -11 14 0 8 -7 22 -16 31 -11 11 -18 40 -22
88 -3 40 -9 75 -14 78 -21 13 -41 419 -23 450 5 8 12 34 16 59 18 113 33 180
40 180 5 0 9 11 9 24 0 13 6 29 14 35 7 6 16 32 19 58 3 26 12 52 21 58 9 7
16 17 16 24 0 6 9 20 20 31 11 11 20 27 20 36 0 8 6 21 13 28 27 28 67 76 67
80 0 3 23 28 50 56 28 28 50 56 50 61 0 5 7 9 15 9 8 0 15 7 15 15 0 8 7 15
15 15 8 0 15 5 15 10 0 6 9 10 20 10 13 0 20 7 20 20 0 11 7 20 15 20 8 0 15
5 15 10 0 6 7 10 15 10 8 0 15 5 15 10 0 6 6 10 13 10 18 0 67 24 67 33 0 4 9
7 21 7 48 0 63 61 18 75 -10 4 -19 11 -19 16 0 5 -9 9 -20 9 -10 0 -24 9 -30
20 -8 14 -21 20 -45 20 -19 0 -35 5 -35 11 0 7 -48 10 -155 7 -85 -1 -155 -6
-155 -10 0 -5 -7 -8 -15 -8 -8 0 -15 -4 -15 -9 0 -5 -11 -12 -25 -15 -14 -4
-25 -13 -25 -21 0 -8 -12 -18 -27 -21 -16 -4 -35 -15 -44 -26 -26 -29 -46 -22
-52 18 -6 36 -39 75 -88 103 -38 23 -159 51 -218 51 -57 0 -131 -18 -131 -32
0 -4 -7 -8 -15 -8 -8 0 -15 -5 -15 -10 0 -23 -50 -60 -81 -60 -30 0 -89 27
-89 41 0 4 -13 10 -30 14 -16 4 -30 11 -30 16 0 5 -7 9 -16 9 -20 0 -87 31
-96 44 -10 15 -391 12 -396 -3 -2 -6 -11 -11 -21 -11 -25 0 -41 -20 -41 -52 0
-29 16 -36 48 -19 9 4 34 11 55 15 30 6 37 4 37 -9 0 -10 10 -15 35 -15 18 0
38 -6 42 -13 4 -7 22 -19 39 -26 17 -7 37 -23 44 -37 8 -13 24 -27 37 -30 13
-4 23 -10 23 -15 0 -5 7 -9 15 -9 8 0 15 -7 15 -15 0 -8 9 -25 20 -38 12 -12
27 -29 35 -38 8 -9 15 -25 15 -37 0 -15 8 -24 25 -28 14 -3 25 -13 25 -23 0
-9 14 -29 30 -44 17 -16 30 -35 30 -43 0 -16 18 -51 38 -72 6 -7 12 -20 12
-28 0 -9 7 -22 15 -30 8 -9 15 -26 15 -39 0 -13 5 -27 10 -30 6 -3 10 -17 10
-31 0 -13 3 -24 8 -24 9 0 32 -49 32 -68 0 -8 8 -22 19 -31 10 -9 21 -34 23
-56 8 -60 49 -165 64 -165 8 0 14 -11 14 -27 2 -67 10 -127 21 -139 11 -14 21
-371 11 -401 -2 -7 -10 -13 -18 -13 -10 0 -14 -15 -14 -56 0 -34 4 -53 10 -49
18 11 10 -27 -9 -44 -10 -9 -27 -44 -36 -79 -11 -37 -23 -62 -31 -62 -8 0 -14
-7 -14 -16 0 -9 -9 -24 -19 -33 -11 -9 -21 -30 -23 -45 -1 -16 -12 -34 -23
-40 -27 -15 -35 -27 -35 -52 0 -15 -8 -24 -25 -28 -14 -4 -25 -13 -25 -21 0
-8 -4 -15 -10 -15 -5 0 -10 -7 -10 -15 0 -8 -7 -15 -15 -15 -8 0 -15 -6 -15
-14 0 -13 -22 -36 -98 -106 -9 -9 -30 -22 -47 -29 -16 -7 -42 -20 -57 -27 -14
-8 -37 -14 -51 -14 -14 0 -27 -6 -30 -14 -6 -16 -77 -30 -130 -27 -25 2 -45
-3 -58 -15 -17 -15 -34 -16 -151 -10 -73 3 -134 11 -136 16 -2 6 -10 10 -18
10 -8 0 -14 5 -14 10 0 6 -10 10 -22 10 -13 0 -38 9 -56 20 -18 11 -41 20 -52
20 -13 0 -20 7 -20 20 0 11 -7 20 -15 20 -8 0 -15 7 -15 15 0 8 -4 15 -9 15
-13 0 -31 90 -31 150 0 38 4 50 15 50 8 0 17 11 21 24 3 15 15 27 30 30 13 4
24 11 24 16 0 6 27 10 60 10 47 0 60 -3 60 -15 0 -8 5 -15 10 -15 6 0 10 -6
10 -13 0 -7 9 -19 20 -27 21 -15 28 -60 9 -60 -7 0 -9 -12 -5 -32 7 -42 -2
-55 -39 -60 -43 -4 -46 -35 -6 -49 17 -6 36 -20 42 -30 5 -10 19 -19 29 -19
11 0 20 -6 20 -13 0 -19 83 -40 132 -32 84 12 98 17 98 31 0 8 6 14 13 14 21
0 77 30 77 41 0 5 6 9 14 9 8 0 17 12 20 26 4 15 13 32 20 39 7 7 18 38 25 69
7 31 17 56 22 56 5 0 8 10 6 22 -2 17 5 23 33 29 19 4 36 12 38 18 2 6 19 11
38 11 29 0 43 9 84 52 27 28 57 70 66 92 10 23 24 45 31 49 9 6 13 39 13 117
0 99 -2 110 -20 120 -11 6 -20 17 -20 25 0 8 -4 15 -10 15 -5 0 -10 5 -10 10
0 13 -37 50 -51 50 -6 0 -22 9 -36 20 -14 11 -36 20 -49 20 -13 0 -24 4 -24 9
0 5 -20 14 -44 20 l-44 11 5 58 c6 63 -9 125 -36 154 -30 32 -41 47 -41 58 0
5 -7 10 -15 10 -8 0 -15 7 -15 16 0 13 -7 15 -35 11 -19 -3 -35 -2 -35 4 0 5
-7 9 -15 9 -8 0 -15 5 -15 10 0 11 -101 14 -137 4 -27 -7 -30 -36 -7 -59 23
-23 14 -103 -15 -126 -12 -10 -21 -22 -21 -28 0 -6 -6 -11 -14 -11 -8 0 -21
-9 -28 -19 -13 -18 -20 -19 -91 -10 -94 12 -113 19 -156 59 -30 28 -34 39 -42
108 -9 79 -4 142 12 142 5 0 9 13 9 30 0 22 4 28 15 24 9 -4 15 0 15 10 0 11
9 16 29 16 20 0 32 6 35 18 6 18 100 42 164 42 44 0 90 -19 97 -40 3 -10 13
-21 22 -24 29 -12 50 4 63 47 8 23 17 46 22 51 11 14 10 66 -2 66 -5 0 -10 13
-10 29 0 18 -9 35 -25 47 -14 10 -25 26 -25 35 0 9 -8 19 -18 23 -9 3 -30 15
-47 26 -46 30 -73 40 -111 40 -19 0 -34 4 -34 9 0 6 -12 9 -26 8 -24 -2 -28 3
-40 48 -36 141 -26 124 -105 188 -25 20 -51 37 -58 37 -6 0 -11 5 -11 10 0 6
-9 10 -20 10 -11 0 -20 7 -20 15 0 11 -13 15 -52 17 -164 4 -278 -10 -278 -35
0 -15 -27 -36 -56 -43 -34 -8 -84 -60 -84 -86 0 -10 -4 -18 -10 -18 -6 0 -10
-26 -10 -58 0 -51 -3 -60 -22 -70 -33 -16 -110 -42 -129 -42 -23 0 -99 -76
-99 -99 0 -14 -5 -19 -15 -15 -12 5 -15 -2 -15 -30 0 -20 -4 -36 -10 -36 -5 0
-10 -8 -10 -18 0 -10 -6 -24 -12 -30 -18 -18 -17 -144 1 -165 18 -23 48 -21
68 3 10 11 23 20 30 20 7 0 13 5 13 10 0 6 12 10 26 10 14 0 23 -4 19 -10 -4
-6 12 -10 39 -10 25 0 46 -4 46 -10 0 -5 7 -10 15 -10 44 0 104 -110 105 -190
0 -32 -32 -140 -42 -140 -4 0 -8 -13 -8 -30 0 -20 -5 -30 -15 -30 -8 0 -15 -5
-15 -11 0 -19 -25 -35 -85 -53 -91 -27 -140 -36 -143 -25 -2 5 -10 9 -18 9
-25 0 -122 50 -128 65 -3 8 -12 15 -21 15 -8 0 -15 6 -15 13 0 7 -9 18 -20 25
-13 8 -20 23 -20 42 0 19 -5 30 -14 30 -19 0 -26 32 -26 121 0 106 10 169 26
169 8 0 14 5 14 10 0 6 9 20 20 32 24 26 26 48 4 48 -23 0 -74 -32 -74 -47 0
-7 -5 -13 -10 -13 -6 0 -23 -14 -38 -31 -15 -17 -39 -44 -55 -60 -15 -16 -27
-33 -27 -38 0 -4 -10 -12 -22 -18 -19 -8 -22 -16 -19 -51 1 -23 -2 -42 -7 -42
-19 0 -33 -58 -34 -140 0 -53 4 -86 11 -88 16 -5 14 -51 -3 -68 -8 -8 -22 -14
-30 -14 -19 0 -76 -57 -76 -76 0 -8 -3 -14 -8 -14 -4 0 -15 -15 -25 -33 -12
-23 -17 -56 -16 -122 0 -135 29 -199 96 -211 18 -3 33 -12 33 -19 0 -17 45
-35 90 -35 38 0 40 -2 40 -29 0 -17 -5 -33 -10 -36 -7 -4 -8 -24 -4 -53 7 -48
13 -56 105 -137 31 -27 41 -30 100 -29 48 0 72 5 92 20 14 10 27 22 27 27 0 4
-18 23 -40 43 -42 38 -50 63 -26 86 47 45 78 68 95 68 11 0 23 4 26 10 9 14
116 12 148 -2 16 -8 30 -24 33 -38 3 -14 9 -33 15 -42 12 -23 12 -98 -1 -98
-5 0 -10 -11 -10 -24 0 -24 -49 -86 -69 -86 -6 0 -16 -9 -23 -20 -7 -11 -37
-27 -68 -36 -30 -8 -64 -21 -75 -26 -31 -17 -233 -18 -246 -1 -6 7 -22 13 -35
13 -12 0 -29 6 -36 14 -8 7 -27 16 -43 19 -46 9 -105 31 -105 39 0 5 -6 8 -14
8 -16 0 -206 184 -206 200 0 5 -4 10 -8 10 -5 0 -15 18 -22 40 -7 22 -19 40
-27 40 -7 0 -13 9 -13 20 0 11 -4 20 -10 20 -5 0 -10 8 -10 18 0 10 -7 27 -15
38 -8 10 -15 38 -15 62 0 24 -6 50 -14 58 -23 23 -29 94 -16 206 6 57 17 159
25 228 14 125 21 160 37 171 5 3 11 29 15 57 3 30 11 52 18 52 12 0 55 77 55
99 0 6 3 11 8 11 15 0 62 89 62 119 0 21 5 31 15 31 8 0 15 4 15 9 0 4 13 22
30 39 16 18 30 36 30 41 0 5 11 12 25 15 14 4 25 12 25 19 0 15 65 87 79 87 6
0 11 4 11 10 0 5 11 12 25 16 13 3 27 14 30 24 3 11 15 22 26 25 10 4 19 11
19 16 0 5 9 9 20 9 11 0 20 5 20 10 0 6 5 10 11 10 6 0 24 11 41 25 16 14 38
25 49 25 10 0 19 5 19 10 0 6 8 14 18 17 9 4 28 15 41 25 13 10 37 18 52 18
16 0 29 5 29 10 0 6 30 10 70 10 69 0 70 1 70 26 0 25 -20 54 -37 54 -9 0 -43
36 -43 46 0 11 -29 34 -43 34 -9 0 -17 5 -19 10 -5 16 -116 43 -178 43 -65 0
-160 -29 -160 -49 0 -9 -11 -14 -30 -14 -28 0 -48 -12 -92 -52 -10 -10 -33
-18 -53 -18 -29 0 -37 5 -46 27 -5 15 -23 39 -40 53 -16 15 -29 32 -29 38 0 7
-12 12 -26 12 -15 0 -41 9 -59 20 -32 20 -95 19 -95 -1 0 -5 -9 -9 -20 -9 -11
0 -20 -4 -20 -10 0 -5 -5 -10 -11 -10 -6 0 -16 -6 -23 -12 -41 -40 -75 -64
-104 -75 -31 -11 -34 -10 -55 23 -12 18 -26 34 -32 34 -5 0 -19 11 -31 25 -28
33 -103 45 -126 21 -9 -9 -24 -16 -34 -16 -25 0 -84 -23 -84 -32 0 -4 -7 -8
-15 -8 -8 0 -15 5 -15 11 0 19 -28 39 -54 39 -16 0 -26 6 -26 14 0 19 -12 26
-57 32 -21 2 -39 9 -41 14 -2 6 -12 10 -23 10 -10 0 -19 5 -19 10 0 6 -18 10
-39 10 -22 0 -41 5 -43 11 -4 13 -366 13 -382 0 -6 -5 -28 -9 -48 -9 -39 0
-68 -20 -68 -46 0 -11 10 -16 33 -16 17 0 41 -7 51 -15 11 -8 32 -15 48 -15
15 0 28 -5 28 -11 0 -14 25 -39 39 -39 6 0 11 -4 11 -10 0 -5 12 -10 28 -10
26 0 92 -50 92 -71 0 -5 6 -9 14 -9 8 0 16 -7 20 -15 3 -8 10 -15 16 -15 15 0
100 -91 100 -107 0 -7 6 -13 13 -13 20 0 63 -43 70 -70 4 -14 19 -39 35 -55
16 -17 32 -43 36 -58 3 -15 24 -45 46 -67 22 -22 40 -44 40 -50 0 -5 5 -10 10
-10 6 0 10 -11 10 -25 0 -14 5 -25 10 -25 6 0 10 -11 10 -25 0 -14 9 -35 20
-47 11 -12 20 -32 20 -44 0 -12 7 -27 15 -34 8 -7 15 -23 15 -36 0 -12 4 -25
8 -28 5 -3 19 -39 31 -81 13 -41 27 -75 32 -75 5 0 9 -7 9 -15 0 -8 5 -15 11
-15 6 0 9 -15 8 -34 -2 -19 3 -41 11 -50 27 -34 20 -457 -9 -476 -4 -3 -11
-22 -14 -43 -3 -21 -13 -52 -21 -69 -9 -17 -16 -42 -16 -55 0 -12 -4 -23 -10
-23 -5 0 -10 -12 -10 -26 0 -16 -13 -39 -35 -61 -19 -19 -35 -44 -35 -54 0
-10 -7 -19 -15 -19 -8 0 -15 -9 -15 -20 0 -11 -7 -20 -15 -20 -8 0 -15 -7 -15
-15 0 -9 -7 -18 -15 -21 -8 -3 -17 -14 -20 -23 -3 -10 -16 -24 -29 -31 -15 -8
-27 -25 -31 -46 -4 -21 -12 -34 -21 -34 -9 0 -18 -8 -21 -19 -3 -13 -17 -21
-44 -25 -21 -3 -39 -11 -39 -16 0 -5 -18 -13 -41 -16 -22 -4 -43 -13 -46 -20
-3 -8 -20 -14 -38 -14 -19 0 -37 -5 -41 -11 -5 -9 -44 -10 -138 -5 -110 6
-134 10 -152 26 -11 11 -27 20 -35 20 -8 0 -20 9 -27 20 -7 11 -18 20 -25 20
-17 0 -74 63 -82 92 -4 13 -15 30 -25 40 -9 9 -20 39 -24 67 -6 43 -3 57 14
80 11 16 20 33 20 38 0 6 16 24 35 41 30 28 42 32 89 32 56 0 66 -6 125 -75
18 -22 6 -116 -20 -149 -37 -47 -13 -136 36 -136 9 0 18 -7 21 -15 5 -11 22
-15 65 -15 47 0 60 4 68 19 6 10 26 22 45 25 34 7 77 54 115 129 8 15 18 27
23 27 4 0 8 28 8 63 0 76 11 97 40 80 11 -7 48 -13 83 -13 63 0 64 0 110 50
26 28 47 57 47 65 0 8 5 15 10 15 6 0 10 9 10 19 0 11 4 21 9 23 16 6 16 111
1 146 -8 17 -18 32 -22 32 -5 0 -8 5 -8 11 0 17 -27 39 -49 39 -11 0 -25 9
-31 19 -13 25 -13 61 0 61 6 0 10 40 10 100 0 94 -1 101 -25 122 -14 12 -25
28 -25 35 0 7 -4 13 -10 13 -5 0 -10 7 -10 15 0 8 -6 15 -13 15 -7 0 -23 9
-35 20 -12 11 -35 20 -52 20 -16 0 -30 5 -30 11 0 12 -20 10 -98 -10 -60 -16
-75 -31 -59 -65 7 -14 15 -26 20 -26 4 0 7 -31 7 -70 0 -39 -4 -70 -10 -70 -5
0 -12 -11 -16 -25 -4 -15 -16 -28 -30 -31 -13 -3 -24 -13 -24 -21 0 -17 -46
-37 -125 -54 -55 -11 -68 -10 -165 15 -58 14 -106 30 -108 36 -2 5 -8 10 -13
10 -14 0 -49 33 -49 46 0 6 -9 14 -20 17 -18 5 -20 14 -20 94 0 82 14 143 33
143 4 0 7 7 7 15 0 15 31 55 82 104 20 21 44 29 107 39 78 12 131 9 131 -9 0
-5 10 -9 21 -9 12 0 35 -14 51 -30 28 -30 48 -38 48 -20 0 6 7 10 15 10 8 0
15 4 15 9 0 5 11 12 24 15 22 5 25 12 28 73 3 47 0 71 -9 79 -7 6 -13 16 -13
23 0 6 -4 11 -10 11 -5 0 -10 7 -10 16 0 26 -40 74 -62 74 -11 0 -27 9 -36 20
-10 11 -39 25 -67 32 -27 7 -53 17 -56 21 -4 5 -9 42 -13 83 -6 67 -10 78 -41
109 -26 27 -41 35 -69 35 -20 0 -36 5 -36 11 0 6 -6 9 -14 6 -8 -3 -31 -1 -50
4 l-36 10 0 94 c0 52 -4 95 -9 95 -5 0 -11 19 -15 42 -7 40 -34 100 -48 106
-5 2 -8 8 -8 12 0 5 -11 22 -25 37 -59 65 -91 94 -115 100 -13 3 -33 15 -44
25 -11 10 -23 18 -27 18 -4 0 -10 7 -13 16 -10 26 21 51 72 58 26 3 687 6
1470 7 792 1 1425 6 1428 11 3 4 10 6 15 3 7 -5 347 -6 574 -2 33 1 103 0 155
-2 103 -5 844 -4 975 1 94 3 148 3 430 0 329 -3 3629 8 3634 13 2 3 7 3 10 1
4 -3 216 -5 471 -6z m-9187 -239 c17 -25 27 -52 27 -75 0 -20 5 -36 10 -36 6
0 10 -35 10 -85 0 -50 -4 -85 -10 -85 -5 0 -10 -15 -10 -34 0 -19 -4 -37 -9
-41 -6 -3 -13 -37 -17 -75 -7 -71 -27 -116 -41 -93 -5 6 -7 118 -6 250 2 318
2 313 11 313 4 0 19 -18 35 -39z m21068 2 c4 -232 2 -517 -4 -526 -14 -23 -34
22 -41 93 -4 38 -11 72 -17 75 -5 4 -9 22 -9 41 0 19 -4 34 -10 34 -6 0 -10
35 -10 85 0 50 4 85 10 85 6 0 10 16 10 36 0 34 44 113 63 114 4 0 7 -17 8
-37z m-16016 -395 c25 -7 45 -18 45 -24 0 -7 6 -14 13 -16 7 -3 12 -24 12 -56
0 -46 -4 -55 -30 -76 -19 -15 -39 -23 -55 -21 -14 3 -46 7 -72 10 -45 6 -48 8
-48 36 0 16 -4 29 -10 29 -5 0 -10 16 -10 35 0 19 5 35 10 35 6 0 10 6 10 13
0 15 48 46 72 47 10 0 38 -5 63 -12z m11026 -5 c16 -10 29 -23 29 -30 0 -7 5
-13 10 -13 6 0 10 -16 10 -35 0 -19 -4 -35 -10 -35 -5 0 -10 -13 -10 -29 0
-28 -3 -30 -47 -36 -27 -3 -59 -7 -73 -10 -16 -2 -36 6 -55 21 -26 21 -30 30
-30 76 0 32 5 53 13 56 6 2 12 9 12 16 0 13 56 32 98 35 13 0 37 -7 53 -16z
m-7241 -13 c0 -5 6 -10 14 -10 15 0 26 -21 26 -51 0 -10 5 -19 10 -19 23 0 8
-49 -25 -78 -29 -27 -42 -32 -85 -32 -50 0 -80 15 -80 39 0 6 -7 11 -15 11 -8
0 -15 7 -15 15 0 9 -7 18 -15 21 -9 4 -15 19 -15 38 0 49 47 76 132 76 39 0
68 -4 68 -10z m3517 -12 c25 -18 33 -30 33 -54 0 -19 -6 -34 -15 -38 -8 -3
-15 -12 -15 -21 0 -8 -7 -15 -15 -15 -8 0 -15 -5 -15 -11 0 -24 -30 -39 -80
-39 -43 0 -56 5 -85 32 -33 29 -48 78 -25 78 6 0 10 9 10 19 0 30 11 51 26 51
8 0 14 5 14 10 0 6 29 10 67 10 53 0 74 -5 100 -22z m-10603 -156 c42 -32 32
-112 -20 -160 -18 -18 -37 -23 -76 -24 -32 -1 -53 3 -56 10 -2 7 -10 12 -17
12 -20 0 -56 86 -49 115 3 14 10 25 15 25 5 0 9 9 9 19 0 15 8 21 33 24 67 8
135 0 161 -21z m17684 20 c25 -2 32 -7 32 -22 0 -11 4 -20 9 -20 5 0 12 -11
15 -25 7 -29 -29 -115 -49 -115 -7 0 -15 -5 -17 -12 -3 -7 -24 -11 -56 -10
-39 1 -58 6 -76 24 -51 48 -61 126 -20 161 25 22 56 25 162 19z m-12608 -728
c62 -22 80 -44 80 -100 0 -41 -5 -51 -45 -92 -44 -44 -47 -45 -78 -34 -19 7
-40 12 -49 12 -9 0 -18 7 -22 15 -3 8 -12 15 -21 15 -23 0 -22 135 2 158 13
14 58 35 83 41 3 0 25 -6 50 -15z m7451 3 c59 -21 69 -37 69 -116 0 -57 -3
-71 -15 -71 -9 0 -18 -7 -21 -15 -4 -8 -13 -15 -22 -15 -9 0 -30 -5 -49 -12
-31 -11 -34 -10 -78 34 -40 41 -45 51 -45 92 0 55 18 79 75 99 52 19 45 19 86
4z m-3691 -26 c0 -5 12 -12 26 -15 43 -11 54 -30 54 -90 0 -43 -4 -56 -17 -60
-10 -3 -27 -19 -38 -36 -19 -29 -22 -30 -100 -30 -78 0 -81 1 -100 30 -11 17
-28 33 -37 36 -14 4 -18 17 -18 60 0 60 11 79 54 90 14 3 26 10 26 15 0 5 34
9 75 9 41 0 75 -4 75 -9z m-10525 -295 c47 -44 48 -45 43 -95 -7 -74 -35 -101
-104 -101 l-52 0 2 105 c4 149 27 168 111 91z m20995 29 c9 -10 14 -54 16
-120 l2 -105 -52 0 c-69 0 -97 27 -104 101 -5 50 -4 51 43 95 51 47 75 54 95
29z m-17896 -11 c9 -3 16 -11 16 -17 0 -6 14 -26 32 -44 25 -26 29 -36 20 -45
-7 -7 -12 -22 -12 -35 0 -13 -6 -23 -14 -23 -8 0 -16 -5 -18 -12 -6 -16 -110
-22 -152 -8 l-36 12 0 70 c0 60 3 72 23 89 22 18 106 26 141 13z m14844 -13
c19 -17 22 -29 22 -89 l0 -70 -36 -12 c-42 -14 -146 -8 -152 8 -2 7 -10 12
-18 12 -8 0 -14 10 -14 23 0 13 -5 28 -12 35 -9 9 -5 19 20 45 18 18 32 38 32
44 0 16 18 21 80 22 40 0 61 -5 78 -18z m-9510 -744 c7 -18 12 -42 12 -52 0
-11 30 -48 66 -82 37 -35 64 -66 60 -70 -6 -6 -506 -13 -506 -6 0 10 37 43 48
43 25 0 82 32 82 46 0 7 18 19 40 25 22 7 40 18 40 26 0 7 6 13 14 13 8 0 21
8 28 18 7 10 21 21 31 25 11 4 21 16 24 27 9 34 47 25 61 -13z m4095 13 c3
-11 13 -23 24 -27 10 -4 24 -15 31 -25 7 -10 20 -18 28 -18 8 0 14 -6 14 -13
0 -8 18 -19 40 -26 22 -6 40 -18 40 -25 0 -14 57 -46 82 -46 11 0 48 -33 48
-43 0 -7 -500 0 -506 6 -4 4 23 35 60 70 36 34 66 71 66 82 0 10 5 34 12 52
14 38 52 47 61 13z m-3609 -41 c15 -16 39 -29 52 -29 12 0 38 -13 56 -30 18
-16 42 -30 54 -30 12 0 35 -6 51 -14 15 -8 43 -20 61 -27 49 -18 41 -39 -15
-40 -152 -4 -354 -5 -395 -1 -43 4 -48 7 -48 29 0 16 7 27 20 30 11 3 20 9 20
13 0 5 7 16 16 25 9 9 19 37 22 63 3 26 9 50 15 54 16 10 59 -10 91 -43z
m3168 -9 c3 -26 12 -56 21 -65 10 -9 17 -20 17 -25 0 -4 9 -10 20 -13 13 -3
20 -14 20 -30 0 -22 -5 -25 -47 -29 -42 -4 -244 -3 -395 1 -57 1 -65 22 -15
40 17 7 45 19 60 27 16 8 39 14 51 14 12 0 36 14 54 30 18 17 44 30 56 30 13
0 37 13 52 29 31 32 71 51 90 44 6 -2 14 -26 16 -53z m-10799 2 c4 -23 12 -42
17 -42 5 0 11 -13 15 -30 4 -16 11 -30 17 -30 15 0 48 -40 48 -59 0 -32 -16
-44 -46 -36 -16 5 -95 10 -176 12 -136 4 -177 12 -129 28 11 3 22 12 25 20 3
8 12 15 20 15 8 0 18 9 21 20 4 11 15 20 26 20 11 0 23 8 26 18 9 22 29 42 42
42 6 0 11 7 11 15 0 20 41 56 59 53 9 -2 19 -21 24 -46z m3432 18 c4 -17 15
-36 26 -43 10 -6 19 -17 19 -24 0 -7 4 -13 9 -13 5 0 12 -13 16 -29 3 -16 19
-40 36 -55 16 -14 29 -29 29 -34 0 -8 -478 -7 -487 2 -12 12 21 36 49 36 20 0
37 9 55 30 13 17 28 28 32 26 4 -3 15 4 24 15 9 10 24 19 32 19 8 0 15 7 15
15 0 8 8 15 18 15 22 0 72 40 72 58 0 7 11 12 24 12 19 0 26 -7 31 -30z
m11515 18 c0 -18 50 -58 72 -58 10 0 18 -7 18 -15 0 -8 7 -15 15 -15 8 0 23
-9 32 -19 9 -11 20 -18 24 -15 4 2 19 -9 32 -26 18 -21 35 -30 55 -30 28 0 61
-24 49 -36 -9 -9 -487 -10 -487 -2 0 5 13 20 29 34 17 15 33 39 36 55 4 16 11
29 16 29 5 0 9 6 9 13 0 7 9 18 19 24 11 7 22 26 26 43 5 23 12 30 31 30 13 0
24 -5 24 -12z m3438 -8 c12 -12 22 -27 22 -35 0 -8 5 -15 11 -15 13 0 33 -20
42 -42 3 -10 15 -18 26 -18 11 0 22 -9 26 -20 3 -11 13 -20 21 -20 8 0 17 -7
20 -15 3 -8 14 -17 25 -20 48 -16 7 -24 -128 -28 -82 -2 -161 -7 -177 -12 -30
-8 -46 4 -46 36 0 19 33 59 48 59 6 0 13 14 17 30 4 17 11 30 15 30 5 0 12 17
16 38 4 20 9 40 11 45 8 13 29 7 51 -13z m-14388 -20 c0 -5 9 -10 20 -10 11 0
20 -4 20 -10 0 -5 6 -10 14 -10 8 0 16 -7 20 -15 3 -8 15 -15 26 -15 11 0 20
-4 20 -10 0 -5 11 -10 24 -10 14 0 31 -6 38 -13 7 -7 43 -22 79 -32 66 -19
118 -49 106 -62 -5 -5 -255 -6 -549 -3 -20 0 -3 28 47 81 42 44 55 65 55 88 0
29 2 31 40 31 22 0 40 -4 40 -10z m4934 -3 c7 -7 16 -24 19 -38 4 -14 18 -31
32 -39 30 -16 42 -54 25 -75 -18 -22 -370 -22 -370 0 0 18 31 35 64 35 14 0
28 5 31 10 3 6 17 10 31 10 13 0 24 5 24 11 0 15 26 39 42 39 7 0 19 14 26 30
15 32 52 41 76 17z m538 -17 c7 -16 19 -30 26 -30 16 0 42 -24 42 -39 0 -6 11
-11 24 -11 14 0 28 -4 31 -10 3 -5 17 -10 31 -10 33 0 64 -17 64 -35 0 -22
-352 -22 -370 0 -17 21 -5 59 25 75 14 8 28 25 32 39 9 36 24 50 55 51 20 0
30 -7 40 -30z m4938 -1 c0 -23 13 -44 55 -88 50 -53 67 -81 48 -81 -295 -3
-545 -2 -550 3 -12 13 40 43 106 62 36 10 72 25 79 32 7 7 24 13 38 13 13 0
24 5 24 10 0 6 9 10 20 10 11 0 23 7 26 15 4 8 12 15 20 15 8 0 14 5 14 10 0
6 9 10 20 10 11 0 20 5 20 10 0 6 18 10 40 10 38 0 40 -2 40 -31z m-13930 -9
c11 -11 31 -20 44 -20 19 0 25 -6 28 -27 2 -22 9 -29 31 -31 15 -2 27 -9 27
-17 0 -8 17 -16 43 -20 43 -7 67 -20 67 -36 0 -5 -90 -9 -200 -9 -132 0 -200
4 -200 10 0 12 15 32 43 58 9 9 17 22 17 29 0 7 4 13 10 13 5 0 13 12 16 28
12 46 41 55 74 22z m1124 -6 c9 -35 54 -94 72 -94 8 0 14 -5 14 -11 0 -6 10
-19 23 -30 22 -18 18 -18 -220 -19 -199 0 -243 2 -243 14 0 9 19 15 56 20 33
4 63 14 75 25 12 11 36 22 55 26 19 3 40 15 47 25 6 11 18 20 25 20 7 0 17 11
22 25 14 37 65 36 74 -1z m15196 1 c5 -14 15 -25 22 -25 7 0 19 -9 25 -20 7
-10 28 -22 47 -25 19 -4 43 -15 55 -26 12 -11 42 -21 75 -25 37 -5 56 -11 56
-20 0 -12 -44 -14 -242 -14 -239 1 -243 1 -220 19 12 11 22 24 22 30 0 6 6 11
14 11 18 0 63 59 72 94 9 37 60 38 74 1z m1106 17 c6 -4 14 -19 18 -34 3 -16
11 -28 16 -28 6 0 10 -6 10 -13 0 -7 8 -20 18 -29 27 -26 42 -46 42 -58 0 -6
-68 -10 -200 -10 -110 0 -200 4 -200 9 0 16 24 29 68 36 25 4 42 12 42 20 0 8
12 15 28 17 21 2 28 9 30 31 3 21 9 27 28 27 13 0 32 9 42 19 18 21 40 25 58
13z m-15876 -22 c0 -5 6 -10 14 -10 8 0 28 -13 46 -30 19 -18 56 -36 93 -47
56 -15 107 -46 96 -57 -7 -7 -131 -11 -271 -8 -121 2 -128 3 -128 22 0 13 7
20 19 20 13 0 21 9 26 30 4 17 15 36 26 43 10 6 19 20 19 29 0 13 8 18 30 18
17 0 30 -4 30 -10z m3235 -45 c38 -37 55 -63 55 -80 l0 -25 -185 0 c-158 0
-185 2 -185 15 0 8 7 15 15 15 8 0 15 5 15 10 0 6 7 10 16 10 55 0 152 54 167
93 12 31 46 18 102 -38z m7902 38 c15 -39 112 -93 167 -93 9 0 16 -4 16 -10 0
-5 7 -10 15 -10 8 0 15 -7 15 -15 0 -13 -27 -15 -185 -15 l-185 0 0 25 c0 17
17 43 53 79 54 56 92 70 104 39z m3193 -1 c0 -9 9 -23 19 -29 11 -7 22 -26 26
-43 5 -21 13 -30 26 -30 12 0 19 -7 19 -20 0 -19 -7 -20 -127 -22 -141 -3
-265 1 -272 8 -11 11 40 42 96 57 37 11 74 29 93 47 18 17 38 30 46 30 8 0 14
5 14 10 0 6 14 10 30 10 22 0 30 -5 30 -18z m-17495 -24 c14 -6 25 -17 25 -25
0 -7 7 -13 16 -13 8 0 22 -7 30 -15 9 -8 26 -15 40 -15 13 0 24 -4 24 -10 0
-5 7 -10 15 -10 8 0 15 -8 15 -18 0 -17 -11 -18 -150 -18 -149 1 -150 1 -150
24 0 12 5 22 10 22 6 0 10 6 10 14 0 7 7 19 15 26 8 7 15 21 15 31 0 22 43 26
85 7z m20685 -7 c0 -10 7 -24 15 -31 8 -7 15 -19 15 -26 0 -8 5 -14 10 -14 6
0 10 -10 10 -22 0 -23 -1 -23 -150 -24 -139 0 -150 1 -150 18 0 10 7 18 15 18
8 0 15 5 15 10 0 6 11 10 24 10 14 0 31 7 40 15 8 8 22 15 30 15 9 0 16 6 16
13 0 18 37 35 78 36 25 1 32 -3 32 -18z m-13845 -17 c14 -12 50 -26 80 -33 30
-7 55 -17 55 -22 0 -5 7 -9 16 -9 9 0 14 -6 12 -12 -4 -10 -47 -14 -161 -16
l-157 -3 0 26 c0 14 5 25 10 25 6 0 10 7 10 15 0 51 85 69 135 29z m7036 5
c10 -10 19 -26 19 -34 0 -8 5 -15 10 -15 6 0 10 -11 10 -25 l0 -26 -157 3
c-114 2 -157 6 -161 16 -2 6 3 12 12 12 9 0 16 4 16 9 0 5 25 15 55 22 31 7
67 22 81 34 32 27 89 30 115 4z"/>
<path d="M336 495 c-3 -8 -12 -15 -19 -15 -7 0 -20 -11 -27 -25 -7 -14 -17
-25 -22 -25 -4 0 -8 -7 -8 -15 0 -8 4 -15 9 -15 4 0 12 -15 17 -32 5 -18 20
-38 33 -44 12 -7 28 -17 34 -23 24 -24 117 -10 150 24 36 36 13 125 -38 149
-19 9 -37 21 -40 26 -10 16 -82 12 -89 -5z m114 -72 c11 -10 20 -24 20 -33 0
-33 -84 -60 -119 -38 -23 14 -28 57 -9 76 18 18 85 15 108 -5z"/>
<path d="M22525 500 c-3 -5 -21 -17 -40 -26 -51 -24 -74 -113 -38 -149 33 -34
126 -48 150 -24 6 6 22 16 34 23 13 6 28 26 33 44 5 17 13 32 17 32 5 0 9 7 9
15 0 8 -4 15 -8 15 -5 0 -15 11 -22 25 -7 14 -20 25 -27 25 -7 0 -16 7 -19 15
-7 17 -79 21 -89 5z m83 -72 c19 -19 14 -62 -9 -76 -34 -21 -119 5 -119 37 0
41 97 70 128 39z"/>
</g>
</svg>
