<?xml version="1.0" standalone="no"?>
<!DOCTYPE svg PUBLIC "-//W3C//DTD SVG 20010904//EN"
 "http://www.w3.org/TR/2001/REC-SVG-20010904/DTD/svg10.dtd">
<svg version="1.0" xmlns="http://www.w3.org/2000/svg"
 width="1715.000000pt" height="418.000000pt" viewBox="0 0 1715.000000 418.000000"
 preserveAspectRatio="xMidYMid meet">
<metadata>
Created by potrace 1.13, written by Peter Selinger 2001-2015
</metadata>
<g transform="translate(0.000000,418.000000) scale(0.100000,-0.100000)"
fill="#000000" stroke="none">
<path d="M216 4143 c-45 -7 -103 -68 -112 -116 -12 -68 1 -156 29 -194 5 -7 6
-17 2 -23 -7 -11 21 -66 46 -90 8 -8 18 -23 22 -33 4 -9 15 -20 24 -24 10 -3
39 -27 64 -52 26 -25 60 -56 76 -68 45 -33 132 -63 186 -63 34 0 53 -6 68 -21
20 -20 20 -25 15 -552 -3 -293 -7 -650 -8 -794 -2 -144 -6 -265 -10 -269 -10
-10 -10 -78 -1 -88 16 -15 17 -435 2 -450 -5 -6 -9 -149 -9 -335 0 -180 -4
-332 -9 -340 -7 -11 -22 -12 -91 -2 -52 8 -86 9 -93 3 -7 -5 -30 -13 -52 -16
-30 -5 -56 -21 -99 -62 -32 -29 -65 -54 -72 -54 -8 0 -14 -7 -14 -15 0 -8 -7
-15 -15 -15 -8 0 -15 -7 -15 -15 0 -8 -16 -31 -35 -51 -52 -53 -57 -67 -58
-163 -2 -77 0 -89 21 -111 12 -13 22 -27 22 -31 0 -10 71 -34 91 -31 9 2 22
-4 29 -13 14 -17 80 -21 80 -5 0 6 16 10 35 10 19 0 35 4 35 9 0 5 18 12 39
16 22 4 42 13 45 21 3 8 12 14 21 14 8 0 15 6 15 13 0 8 11 19 25 25 14 7 30
23 36 36 10 22 32 37 70 49 8 3 23 25 31 49 32 88 50 144 60 188 l10 45 291 1
c161 0 306 2 322 3 17 0 372 -1 789 -4 585 -5 761 -3 767 6 4 8 14 9 25 4 11
-5 51 -10 89 -11 91 -4 11049 -4 11140 0 39 1 78 6 89 11 11 5 21 4 25 -4 6
-9 182 -11 767 -6 417 3 773 4 789 4 17 -1 161 -3 322 -3 l291 -1 10 -45 c10
-44 28 -100 60 -188 8 -24 23 -46 31 -49 38 -12 60 -27 70 -49 6 -13 22 -29
36 -36 14 -6 25 -17 25 -25 0 -7 7 -13 15 -13 9 0 18 -6 21 -14 3 -8 23 -17
45 -21 21 -4 39 -11 39 -16 0 -5 16 -9 35 -9 19 0 35 -4 35 -10 0 -16 66 -12
80 5 7 9 20 15 29 13 20 -3 91 21 91 31 0 4 10 18 22 31 21 22 23 34 21 111
-1 96 -6 110 -58 163 -19 20 -35 43 -35 51 0 8 -7 15 -15 15 -8 0 -15 7 -15
15 0 8 -6 15 -14 15 -7 0 -40 25 -72 54 -43 41 -69 57 -99 62 -22 3 -45 11
-52 16 -7 6 -41 5 -93 -3 -69 -10 -84 -9 -91 2 -5 8 -9 160 -9 340 0 186 -4
329 -9 335 -15 15 -14 435 2 450 9 10 9 78 0 88 -5 4 -9 125 -11 269 -1 144
-5 501 -8 794 -5 527 -5 532 15 552 15 15 34 21 69 21 53 0 140 30 185 63 16
12 50 43 76 68 25 25 54 49 64 52 9 4 20 15 24 24 4 10 14 25 22 33 25 24 53
79 46 90 -4 6 -3 16 2 23 14 19 32 79 34 117 5 72 -10 116 -53 156 -40 37 -42
37 -128 38 -70 1 -90 -2 -104 -16 -10 -10 -26 -18 -37 -18 -10 0 -19 -3 -19
-7 0 -5 -14 -16 -30 -25 -17 -9 -30 -24 -30 -33 0 -8 -4 -15 -8 -15 -14 0
-100 -87 -106 -108 -4 -12 -12 -22 -17 -22 -5 0 -9 -10 -9 -22 0 -13 -7 -32
-15 -42 -8 -11 -15 -41 -15 -67 0 -26 -5 -51 -11 -54 -6 -4 -7 -19 -4 -37 4
-16 1 -50 -5 -74 l-13 -44 -101 -1 c-55 0 -166 0 -246 2 -164 3 -213 3 -460
-1 -110 -2 -188 1 -210 8 -38 12 -672 10 -837 -3 -59 -5 -97 -4 -105 2 -11 9
-200 10 -488 4 -19 -1 -278 -1 -575 -1 -297 0 -547 -1 -555 -1 -116 -3 -391
-3 -480 0 -113 4 -231 5 -320 2 -25 -1 -62 -1 -82 -1 -21 1 -398 1 -838 1
-440 0 -817 0 -837 -1 -21 0 -58 0 -83 1 -89 3 -207 2 -320 -2 -91 -3 -391 -3
-482 0 -10 1 -394 1 -853 1 -459 0 -843 0 -852 -1 -92 -3 -392 -3 -483 0 -113
4 -231 5 -320 2 -25 -1 -62 -1 -82 -1 -49 1 -1627 1 -1675 0 -21 0 -58 0 -83
1 -89 3 -207 2 -320 -2 -89 -3 -364 -3 -480 0 -8 0 -258 1 -555 1 -297 0 -556
0 -575 1 -288 6 -477 5 -488 -4 -8 -6 -46 -7 -105 -2 -165 13 -799 15 -837 3
-22 -7 -100 -10 -210 -8 -247 4 -296 4 -460 1 -80 -2 -191 -2 -246 -2 l-101 1
-13 44 c-6 24 -9 58 -5 74 3 18 2 33 -4 37 -6 3 -11 28 -11 54 0 26 -7 56 -15
67 -8 10 -15 29 -15 42 0 12 -4 22 -9 22 -5 0 -13 10 -17 22 -6 21 -92 108
-106 108 -4 0 -8 7 -8 15 0 9 -13 24 -30 33 -16 9 -30 20 -30 25 0 4 -9 7 -19
7 -11 0 -27 8 -37 17 -17 18 -107 26 -168 16z m100 -98 c10 -8 26 -15 34 -15
24 0 134 -104 170 -159 17 -28 37 -72 44 -98 7 -27 19 -58 26 -70 11 -18 11
-26 -4 -58 -18 -37 -18 -37 -67 -31 -55 7 -159 71 -181 110 -7 13 -24 43 -37
67 -13 24 -35 59 -49 77 -30 39 -42 134 -23 171 14 25 57 28 87 6z m16605 -6
c19 -37 7 -132 -23 -171 -14 -18 -36 -53 -49 -77 -13 -24 -30 -54 -37 -67 -22
-39 -126 -103 -181 -110 -49 -6 -49 -6 -67 31 -15 32 -15 40 -4 58 7 12 19 43
26 70 7 26 27 70 44 98 36 55 146 159 170 159 8 0 24 7 34 15 30 22 73 19 87
-6z m-13421 -846 c30 -4 84 -4 118 1 41 6 70 6 80 0 11 -6 151 -9 372 -7 263
2 361 0 378 -9 18 -9 30 -9 56 0 38 14 621 8 640 -6 13 -10 216 -3 216 7 0 9
186 8 195 -1 14 -14 -8 -49 -71 -112 -36 -36 -74 -66 -84 -66 -19 0 -125 59
-151 85 -9 9 -34 15 -60 15 -25 0 -55 7 -68 16 -20 14 -41 16 -135 10 -61 -3
-128 -11 -148 -16 -40 -12 -118 -75 -118 -97 0 -9 -15 -13 -49 -13 -45 0 -50
2 -59 30 -7 20 -19 31 -39 36 -45 10 -94 34 -100 50 -3 8 -18 14 -33 14 -16 0
-31 4 -35 10 -7 11 -325 9 -325 -2 0 -5 -16 -8 -35 -8 -19 0 -35 -4 -35 -10 0
-5 -8 -10 -18 -10 -22 0 -72 -22 -72 -32 0 -5 -9 -8 -20 -8 -11 0 -20 -7 -20
-15 0 -8 -8 -15 -18 -15 -9 0 -29 -11 -44 -25 -35 -32 -75 -33 -87 -1 -5 13
-17 26 -25 29 -9 4 -16 13 -16 22 0 8 -7 15 -15 15 -8 0 -15 4 -15 10 0 5 -16
16 -35 24 -19 8 -35 19 -35 24 0 5 -45 7 -102 4 -113 -5 -144 -19 -204 -89
-34 -40 -61 -41 -100 -5 -11 11 -35 23 -52 27 -18 3 -32 10 -32 14 0 5 -20 11
-43 14 -24 4 -66 14 -93 23 -31 10 -65 14 -94 11 -25 -3 -52 -2 -60 3 -9 6
-17 5 -22 -3 -6 -9 -8 -9 -8 1 0 7 -14 12 -35 12 -19 0 -35 -5 -35 -11 0 -8
-17 -9 -55 -4 -54 6 -125 -9 -125 -27 0 -4 -13 -8 -30 -8 -16 0 -30 -4 -30
-10 0 -5 -9 -10 -20 -10 -24 0 -70 -21 -70 -32 0 -4 -11 -8 -25 -8 -14 0 -25
-4 -25 -10 0 -5 -9 -10 -19 -10 -10 0 -21 -7 -25 -15 -3 -8 -15 -15 -26 -15
-11 0 -20 -4 -20 -8 0 -9 -59 -32 -82 -32 -10 0 -18 13 -22 34 -5 25 -13 36
-30 40 -13 3 -41 21 -62 41 -22 19 -49 35 -60 35 -12 0 -27 7 -34 15 -8 9 -21
13 -32 9 -11 -3 -47 0 -81 6 -57 12 -65 11 -102 -9 -22 -11 -45 -21 -52 -21
-7 0 -13 -4 -13 -9 0 -10 -91 -51 -114 -51 -9 0 -16 4 -16 8 0 5 -25 35 -56
67 -39 40 -53 60 -45 68 11 11 121 13 163 2 15 -4 31 -4 37 -1 11 7 344 8 981
2 297 -2 415 -6 418 -15 5 -14 39 -15 44 0 2 6 55 11 138 13 94 3 135 7 138
16 4 12 10 12 142 -7z m5155 -2 c28 -3 79 -2 113 3 41 6 70 6 80 0 11 -6 151
-9 372 -7 263 2 361 0 378 -9 18 -9 30 -9 56 0 38 14 621 8 640 -6 13 -10 216
-3 216 7 0 9 186 8 195 -1 14 -14 -8 -49 -71 -112 -36 -36 -74 -66 -84 -66
-19 0 -125 59 -151 85 -9 9 -34 15 -60 15 -25 0 -55 7 -68 16 -20 14 -41 16
-135 10 -61 -3 -128 -11 -148 -16 -40 -12 -118 -75 -118 -97 0 -9 -15 -13 -49
-13 -45 0 -50 2 -59 30 -7 20 -19 31 -39 36 -45 10 -94 34 -100 50 -3 8 -18
14 -33 14 -16 0 -31 4 -35 10 -7 11 -325 9 -325 -2 0 -5 -16 -8 -35 -8 -19 0
-35 -4 -35 -10 0 -5 -8 -10 -18 -10 -22 0 -72 -22 -72 -32 0 -5 -9 -8 -20 -8
-11 0 -20 -7 -20 -15 0 -8 -8 -15 -18 -15 -9 0 -29 -11 -44 -25 -35 -32 -75
-33 -87 -1 -5 13 -17 26 -25 29 -9 4 -16 13 -16 22 0 8 -7 15 -15 15 -8 0 -15
4 -15 10 0 5 -16 16 -35 24 -19 8 -35 19 -35 23 0 4 -74 8 -165 8 -91 0 -165
-4 -165 -8 0 -4 -16 -15 -35 -23 -19 -8 -35 -19 -35 -24 0 -6 -7 -10 -15 -10
-8 0 -15 -7 -15 -15 0 -9 -7 -18 -16 -22 -8 -3 -20 -16 -25 -29 -12 -32 -52
-31 -87 1 -15 14 -35 25 -44 25 -10 0 -18 7 -18 15 0 8 -9 15 -20 15 -11 0
-20 3 -20 8 0 10 -50 32 -72 32 -10 0 -18 5 -18 10 0 6 -16 10 -35 10 -19 0
-35 3 -35 8 0 11 -318 13 -325 2 -4 -6 -19 -10 -35 -10 -15 0 -30 -6 -33 -14
-6 -16 -55 -40 -100 -50 -20 -5 -32 -16 -39 -36 -9 -28 -14 -30 -59 -30 -34 0
-49 4 -49 13 0 22 -78 85 -118 97 -20 5 -87 13 -148 16 -94 6 -115 4 -135 -10
-13 -9 -43 -16 -68 -16 -26 0 -51 -6 -60 -15 -26 -26 -132 -85 -151 -85 -10 0
-48 30 -84 66 -63 63 -85 98 -71 112 9 9 195 10 195 1 0 -10 203 -17 216 -7
19 14 602 20 640 6 26 -9 38 -9 56 0 17 9 116 12 381 9 208 -1 361 1 364 6 3
6 34 6 72 2 83 -9 160 -7 180 6 9 5 25 6 36 3 11 -4 43 -9 70 -13z m5137 8 c3
-8 50 -13 138 -15 83 -2 136 -7 138 -13 5 -15 39 -14 44 0 3 9 121 13 418 15
637 6 970 5 981 -2 6 -3 22 -3 37 1 42 11 152 9 163 -2 8 -8 -6 -28 -45 -68
-31 -32 -56 -62 -56 -67 0 -4 -7 -8 -16 -8 -23 0 -114 41 -114 51 0 5 -6 9
-13 9 -7 0 -30 10 -52 21 -37 20 -45 21 -102 9 -34 -6 -70 -9 -81 -6 -11 4
-24 0 -32 -9 -7 -8 -22 -15 -34 -15 -11 0 -38 -16 -60 -35 -21 -20 -49 -38
-62 -41 -17 -4 -25 -15 -30 -40 -4 -21 -12 -34 -22 -34 -23 0 -82 23 -82 32 0
4 -9 8 -20 8 -11 0 -23 7 -26 15 -4 8 -15 15 -25 15 -10 0 -19 5 -19 10 0 6
-11 10 -25 10 -14 0 -25 4 -25 8 0 11 -46 32 -70 32 -11 0 -20 5 -20 10 0 6
-13 10 -30 10 -16 0 -30 4 -30 8 0 18 -71 33 -125 27 -38 -5 -55 -4 -55 4 0 6
-16 11 -35 11 -21 0 -35 -5 -35 -12 0 -10 -2 -10 -8 -1 -5 8 -13 9 -22 3 -8
-5 -35 -6 -60 -3 -29 3 -63 -1 -94 -11 -27 -9 -69 -19 -93 -23 -23 -3 -43 -9
-43 -14 0 -4 -14 -11 -32 -14 -17 -4 -41 -16 -52 -27 -39 -36 -66 -35 -100 5
-60 70 -91 84 -204 89 -57 3 -102 1 -102 -4 0 -5 -16 -16 -35 -24 -19 -8 -35
-19 -35 -24 0 -6 -7 -10 -15 -10 -8 0 -15 -7 -15 -15 0 -9 -7 -18 -16 -22 -8
-3 -20 -16 -25 -29 -12 -32 -52 -31 -87 1 -15 14 -35 25 -44 25 -10 0 -18 7
-18 15 0 8 -9 15 -20 15 -11 0 -20 3 -20 8 0 10 -50 32 -72 32 -10 0 -18 5
-18 10 0 6 -16 10 -35 10 -19 0 -35 3 -35 8 0 11 -318 13 -325 2 -4 -6 -19
-10 -35 -10 -15 0 -30 -6 -33 -14 -6 -16 -55 -40 -100 -50 -20 -5 -32 -16 -39
-36 -9 -28 -14 -30 -59 -30 -34 0 -49 4 -49 13 0 22 -78 85 -118 97 -20 5 -87
13 -148 16 -94 6 -115 4 -135 -10 -13 -9 -43 -16 -68 -16 -26 0 -51 -6 -60
-15 -26 -26 -132 -85 -151 -85 -10 0 -48 30 -84 66 -63 63 -85 98 -71 112 9 9
195 10 195 1 0 -10 203 -17 216 -7 19 14 602 20 640 6 26 -9 38 -9 56 0 17 9
116 12 381 9 208 -1 361 1 364 6 3 6 34 6 72 2 82 -9 160 -7 180 5 23 13 89
12 93 -1z m-7741 -100 c16 -17 29 -32 29 -33 0 -8 161 -166 168 -166 5 0 17
-11 26 -25 9 -14 23 -25 31 -25 8 0 15 -7 15 -16 0 -16 91 -114 107 -114 4 0
17 -11 28 -25 35 -44 121 -135 128 -135 9 0 67 -61 67 -71 0 -5 4 -9 9 -9 5 0
42 -34 82 -75 41 -41 80 -75 87 -75 6 0 12 -5 12 -12 0 -12 120 -128 132 -128
5 0 8 -6 8 -13 0 -15 33 -34 65 -39 11 -2 21 -12 23 -24 2 -12 14 -26 28 -33
13 -6 27 -18 30 -26 4 -8 12 -15 20 -15 8 0 14 -7 14 -15 0 -9 6 -18 13 -21
17 -6 10 -69 -14 -110 -18 -33 -29 -47 -86 -112 -18 -20 -33 -45 -33 -54 0 -9
-9 -20 -20 -23 -11 -3 -20 -11 -20 -16 0 -5 -24 -33 -52 -63 -29 -29 -66 -67
-82 -85 -16 -17 -38 -31 -48 -31 -10 0 -18 -7 -18 -15 0 -8 -7 -15 -15 -15 -8
0 -15 -4 -15 -10 0 -5 -11 -10 -25 -10 -14 0 -25 -4 -25 -10 0 -5 -9 -10 -20
-10 -11 0 -20 -6 -20 -13 0 -7 -21 -19 -47 -26 -27 -8 -54 -19 -61 -24 -19
-15 -205 -14 -210 1 -2 7 -21 15 -42 18 -21 4 -41 12 -44 19 -6 16 -66 46 -77
39 -5 -3 -9 0 -9 5 0 6 -6 11 -14 11 -18 0 -28 88 -12 107 40 50 51 55 99 50
26 -2 50 -7 54 -10 3 -4 5 -31 4 -62 l-1 -55 79 0 c57 0 84 4 95 15 8 8 26 15
40 15 14 0 26 5 26 10 0 6 7 10 15 10 9 0 18 7 21 15 4 8 11 15 18 15 6 0 17
10 25 21 12 20 11 21 -6 15 -14 -5 -14 -3 4 11 12 10 25 30 28 46 4 15 11 27
15 27 5 0 6 18 3 40 -4 26 -2 40 6 40 18 0 14 115 -4 130 -8 7 -15 21 -15 31
0 11 -7 19 -15 19 -8 0 -15 8 -15 18 0 10 -3 22 -6 25 -4 4 -8 58 -9 120 -2
115 -17 177 -42 177 -7 0 -13 7 -13 17 0 19 -57 73 -77 73 -7 0 -13 5 -13 10
0 6 -6 10 -12 10 -7 0 -29 5 -49 10 -36 10 -37 12 -42 68 -13 131 -36 202 -64
202 -7 0 -13 4 -13 10 0 5 -14 24 -30 42 -17 18 -42 45 -55 60 -14 15 -25 36
-25 47 0 12 -7 21 -15 21 -8 0 -15 7 -15 16 0 9 -9 18 -20 21 -11 3 -27 21
-36 39 -9 19 -20 31 -25 28 -5 -3 -17 10 -28 28 -44 73 -67 77 -96 15 -11 -23
-25 -41 -32 -40 -6 1 -18 -13 -27 -32 -10 -19 -24 -35 -32 -35 -9 0 -18 -9
-21 -20 -3 -11 -12 -20 -19 -20 -8 0 -14 -9 -14 -21 0 -11 -11 -32 -25 -47
-13 -15 -38 -42 -55 -60 -16 -18 -30 -37 -30 -42 0 -6 -6 -10 -13 -10 -28 0
-51 -71 -64 -202 -5 -56 -6 -58 -42 -68 -20 -5 -42 -10 -48 -10 -7 0 -13 -4
-13 -10 0 -5 -6 -10 -13 -10 -20 0 -77 -54 -77 -73 0 -10 -6 -17 -13 -17 -25
0 -40 -62 -42 -177 -1 -62 -5 -116 -9 -120 -3 -3 -6 -15 -6 -25 0 -10 -7 -18
-15 -18 -8 0 -15 -8 -15 -19 0 -10 -7 -24 -15 -31 -18 -15 -22 -130 -4 -130 8
0 10 -14 6 -40 -3 -22 -2 -40 3 -40 4 0 11 -12 15 -27 3 -16 16 -36 28 -46 18
-14 18 -16 4 -11 -17 6 -18 5 -6 -15 8 -11 19 -21 25 -21 7 0 14 -7 18 -15 3
-8 12 -15 21 -15 8 0 15 -4 15 -10 0 -5 12 -10 26 -10 14 0 32 -7 40 -15 11
-11 38 -15 95 -15 l79 0 -1 55 c-1 31 1 58 4 62 4 3 28 8 54 10 48 5 59 0 99
-50 16 -19 6 -107 -12 -107 -8 0 -14 -5 -14 -11 0 -5 -4 -8 -9 -5 -11 7 -71
-23 -77 -39 -3 -7 -23 -15 -44 -19 -21 -3 -40 -11 -42 -18 -5 -15 -191 -16
-210 -1 -7 5 -34 16 -60 24 -27 7 -48 19 -48 26 0 7 -9 13 -20 13 -11 0 -20 5
-20 10 0 6 -11 10 -25 10 -14 0 -25 5 -25 10 0 6 -7 10 -15 10 -8 0 -15 7 -15
15 0 8 -8 15 -18 15 -10 0 -32 14 -48 31 -16 18 -53 56 -81 85 -29 30 -53 58
-53 63 0 5 -9 13 -20 16 -11 3 -20 14 -20 23 0 9 -15 34 -33 54 -57 65 -68 79
-86 112 -24 41 -31 104 -14 110 7 3 13 12 13 21 0 8 6 15 14 15 8 0 16 7 20
15 3 8 17 20 30 26 14 7 26 21 28 33 2 12 12 22 23 24 32 5 65 24 65 39 0 7 3
13 8 13 12 0 132 116 132 128 0 7 6 12 13 12 6 0 45 34 86 75 40 41 77 75 82
75 5 0 9 4 9 9 0 10 58 71 67 71 7 0 93 91 128 135 11 14 24 25 28 25 16 0
107 98 107 114 0 9 7 16 15 16 8 0 22 11 31 25 9 14 21 25 26 25 8 0 168 159
168 166 0 10 49 49 58 46 5 -1 13 2 17 7 11 18 26 13 56 -20z m5104 20 c4 -5
12 -8 17 -7 9 3 58 -36 58 -46 0 -7 160 -166 168 -166 5 0 17 -11 26 -25 9
-14 23 -25 31 -25 8 0 15 -7 15 -16 0 -16 91 -114 107 -114 4 0 17 -11 28 -25
35 -44 121 -135 128 -135 9 0 67 -61 67 -71 0 -5 4 -9 9 -9 5 0 42 -34 82 -75
41 -41 80 -75 87 -75 6 0 12 -5 12 -12 0 -12 120 -128 132 -128 5 0 8 -6 8
-13 0 -15 33 -34 65 -39 11 -2 21 -12 23 -24 2 -12 14 -26 28 -33 13 -6 27
-18 30 -26 4 -8 12 -15 20 -15 8 0 14 -7 14 -15 0 -9 6 -18 13 -21 17 -6 10
-69 -14 -110 -18 -33 -29 -47 -86 -112 -18 -20 -33 -45 -33 -54 0 -9 -9 -20
-20 -23 -11 -3 -20 -11 -20 -16 0 -5 -24 -33 -52 -63 -29 -29 -66 -67 -82 -85
-16 -17 -38 -31 -48 -31 -10 0 -18 -7 -18 -15 0 -8 -7 -15 -15 -15 -8 0 -15
-4 -15 -10 0 -5 -11 -10 -25 -10 -14 0 -25 -4 -25 -10 0 -5 -9 -10 -20 -10
-11 0 -20 -6 -20 -13 0 -7 -21 -19 -47 -26 -27 -8 -54 -19 -61 -24 -19 -15
-205 -14 -210 1 -2 7 -21 15 -42 18 -21 4 -41 12 -44 19 -6 16 -66 46 -77 39
-5 -3 -9 0 -9 5 0 6 -6 11 -14 11 -18 0 -28 88 -12 107 40 50 51 55 99 50 26
-2 50 -7 54 -10 3 -4 5 -31 4 -62 l-1 -55 79 0 c57 0 84 4 95 15 8 8 26 15 40
15 14 0 26 5 26 10 0 6 7 10 15 10 9 0 18 7 21 15 4 8 11 15 18 15 6 0 17 10
25 21 12 20 11 21 -6 15 -14 -5 -14 -3 4 11 12 10 25 30 28 46 4 15 11 27 15
27 5 0 6 18 3 40 -4 26 -2 40 6 40 18 0 14 115 -4 130 -8 7 -15 21 -15 31 0
11 -7 19 -15 19 -8 0 -15 8 -15 18 0 10 -3 22 -6 25 -4 4 -8 58 -9 120 -2 115
-17 177 -42 177 -7 0 -13 7 -13 17 0 19 -57 73 -77 73 -7 0 -13 5 -13 10 0 6
-6 10 -12 10 -7 0 -29 5 -49 10 -36 10 -37 12 -42 68 -13 131 -36 202 -64 202
-7 0 -13 4 -13 10 0 5 -14 24 -30 42 -17 18 -42 45 -55 60 -14 15 -25 36 -25
47 0 12 -7 21 -15 21 -8 0 -15 7 -15 16 0 9 -9 18 -20 21 -11 3 -27 20 -36 39
-9 18 -21 32 -27 31 -7 -1 -21 17 -32 40 -29 62 -52 58 -96 -15 -11 -18 -23
-31 -28 -28 -5 3 -16 -10 -25 -29 -9 -19 -24 -35 -32 -35 -9 0 -18 -9 -21 -20
-3 -11 -12 -20 -19 -20 -8 0 -14 -9 -14 -21 0 -11 -11 -32 -25 -47 -13 -15
-38 -42 -55 -60 -16 -18 -30 -37 -30 -42 0 -6 -6 -10 -13 -10 -28 0 -51 -71
-64 -202 -5 -56 -6 -58 -42 -68 -20 -5 -42 -10 -48 -10 -7 0 -13 -4 -13 -10 0
-5 -6 -10 -13 -10 -20 0 -77 -54 -77 -73 0 -10 -6 -17 -13 -17 -25 0 -40 -62
-42 -177 -1 -62 -5 -116 -9 -120 -3 -3 -6 -15 -6 -25 0 -10 -7 -18 -15 -18 -8
0 -15 -8 -15 -19 0 -10 -7 -24 -15 -31 -18 -15 -22 -130 -4 -130 8 0 10 -14 6
-40 -3 -22 -2 -40 3 -40 4 0 11 -12 15 -27 3 -16 16 -36 28 -46 18 -14 18 -16
4 -11 -17 6 -18 5 -6 -15 8 -11 19 -21 25 -21 7 0 14 -7 18 -15 3 -8 12 -15
21 -15 8 0 15 -4 15 -10 0 -5 12 -10 26 -10 14 0 32 -7 40 -15 11 -11 38 -15
95 -15 l79 0 -1 55 c-1 31 1 58 4 62 4 3 28 8 54 10 48 5 59 0 99 -50 16 -19
6 -107 -12 -107 -8 0 -14 -5 -14 -11 0 -5 -4 -8 -9 -5 -11 7 -71 -23 -77 -39
-3 -7 -23 -15 -44 -19 -21 -3 -40 -11 -42 -18 -5 -15 -191 -16 -210 -1 -7 5
-34 16 -60 24 -27 7 -48 19 -48 26 0 7 -9 13 -20 13 -11 0 -20 5 -20 10 0 6
-11 10 -25 10 -14 0 -25 5 -25 10 0 6 -7 10 -15 10 -8 0 -15 7 -15 15 0 8 -8
15 -18 15 -10 0 -32 14 -48 31 -16 18 -53 56 -81 85 -29 30 -53 58 -53 63 0 5
-9 13 -20 16 -11 3 -20 14 -20 23 0 9 -15 34 -33 54 -57 65 -68 79 -86 112
-24 41 -31 104 -14 110 7 3 13 12 13 21 0 8 6 15 14 15 8 0 16 7 20 15 3 8 17
20 30 26 14 7 26 21 28 33 2 12 12 22 23 24 32 5 65 24 65 39 0 7 3 13 8 13
12 0 132 116 132 128 0 7 6 12 13 12 6 0 45 34 86 75 40 41 77 75 82 75 5 0 9
4 9 9 0 10 58 71 67 71 7 0 93 91 128 135 11 14 24 25 28 25 16 0 107 98 107
114 0 9 7 16 15 16 8 0 22 11 31 25 9 14 21 25 26 25 7 0 168 158 168 166 0 1
12 15 28 32 28 33 46 39 57 21z m-10024 -132 c8 -7 18 -20 22 -29 3 -10 18
-20 32 -24 14 -3 25 -12 25 -20 0 -7 34 -48 75 -90 41 -42 75 -80 75 -85 0 -5
7 -9 15 -9 8 0 15 -4 15 -8 0 -4 16 -23 35 -42 19 -19 35 -40 35 -46 0 -6 11
-17 25 -24 13 -7 27 -21 31 -32 3 -10 12 -18 20 -18 8 0 14 -4 14 -10 0 -5 7
-10 15 -10 8 0 15 -7 15 -15 0 -8 5 -15 10 -15 6 0 10 -7 10 -15 0 -8 5 -15
10 -15 6 0 10 -7 10 -16 0 -20 28 -43 53 -44 9 0 17 -5 17 -11 0 -6 6 -17 14
-25 8 -8 19 -14 25 -14 6 0 11 -7 11 -15 0 -8 5 -15 10 -15 6 0 10 -8 10 -17
0 -10 20 -31 45 -48 24 -16 47 -40 50 -52 3 -13 12 -23 20 -23 8 0 15 -5 15
-11 0 -10 40 -50 92 -92 15 -12 28 -28 28 -35 0 -9 7 -11 21 -7 15 5 19 4 15
-4 -4 -6 -2 -11 3 -11 6 0 11 -7 11 -16 0 -17 36 -54 51 -54 5 0 12 -12 15
-26 4 -16 17 -30 35 -36 16 -5 29 -16 29 -23 0 -7 7 -18 15 -25 8 -7 20 -31
27 -54 13 -47 11 -169 -3 -174 -5 -2 -9 -15 -9 -30 0 -31 -21 -92 -32 -92 -4
0 -8 -5 -8 -10 0 -10 -35 -53 -87 -107 -12 -13 -30 -23 -40 -23 -10 0 -31 -12
-48 -26 -29 -25 -33 -26 -150 -22 -147 5 -199 23 -214 77 -15 52 7 97 56 110
65 18 92 14 99 -14 3 -14 12 -25 19 -25 13 0 29 -46 30 -85 0 -17 8 -20 53
-23 31 -2 52 1 52 7 0 6 6 11 13 11 7 0 18 9 25 20 7 11 19 20 27 20 8 0 15 7
15 15 0 8 4 15 9 15 17 0 24 147 11 211 -7 32 -16 59 -20 59 -11 0 -30 72 -36
141 -7 73 -23 119 -41 119 -8 0 -13 12 -13 28 0 16 -8 34 -20 42 -11 8 -20 22
-20 32 0 10 -6 18 -13 18 -7 0 -21 11 -31 25 -10 14 -33 27 -52 31 -19 3 -37
10 -40 15 -3 5 -32 9 -65 9 -33 0 -59 4 -59 10 0 6 -9 19 -20 30 -14 14 -20
33 -20 65 0 25 -4 45 -10 45 -5 0 -10 11 -10 25 0 14 -4 25 -10 25 -5 0 -10 9
-10 19 0 11 -6 26 -14 33 -7 8 -17 28 -20 44 -4 17 -16 36 -26 44 -11 8 -20
19 -20 24 0 5 -11 19 -25 32 -14 13 -25 27 -25 31 0 4 -14 19 -30 32 -17 13
-30 32 -30 42 0 14 -7 19 -25 19 -16 0 -25 6 -25 16 0 18 -23 44 -39 44 -6 0
-11 5 -11 10 0 6 -6 10 -14 10 -8 0 -26 14 -39 30 -14 17 -28 30 -31 30 -10 0
-65 64 -66 76 0 7 -7 14 -15 18 -18 7 -21 66 -2 66 6 0 19 -6 28 -13z m14929
-17 c0 -18 -6 -33 -15 -36 -8 -4 -15 -11 -15 -18 -1 -12 -56 -76 -66 -76 -3 0
-17 -13 -31 -30 -13 -16 -31 -30 -39 -30 -8 0 -14 -4 -14 -10 0 -5 -5 -10 -11
-10 -16 0 -39 -26 -39 -44 0 -10 -9 -16 -25 -16 -18 0 -25 -5 -25 -19 0 -10
-13 -29 -30 -42 -16 -13 -30 -28 -30 -32 0 -4 -11 -18 -25 -31 -14 -13 -25
-27 -25 -32 0 -5 -9 -16 -20 -24 -10 -8 -22 -27 -26 -44 -3 -16 -13 -36 -20
-44 -8 -7 -14 -22 -14 -33 0 -10 -4 -19 -10 -19 -5 0 -10 -11 -10 -25 0 -14
-4 -25 -10 -25 -5 0 -10 -20 -10 -45 0 -32 -6 -51 -20 -65 -11 -11 -20 -24
-20 -30 0 -6 -26 -10 -59 -10 -33 0 -62 -4 -65 -9 -3 -5 -21 -12 -40 -15 -19
-4 -42 -17 -52 -31 -10 -14 -24 -25 -31 -25 -7 0 -13 -8 -13 -18 0 -10 -9 -24
-20 -32 -12 -8 -20 -26 -20 -42 0 -16 -5 -28 -13 -28 -18 0 -34 -46 -41 -119
-6 -69 -25 -141 -36 -141 -4 0 -13 -27 -20 -59 -13 -64 -6 -211 11 -211 5 0 9
-7 9 -15 0 -8 7 -15 15 -15 8 0 20 -9 27 -20 7 -11 18 -20 25 -20 7 0 13 -5
13 -11 0 -6 21 -9 53 -7 44 3 52 6 52 23 1 39 17 85 30 85 7 0 16 11 19 25 7
28 34 32 99 14 49 -13 71 -58 56 -110 -15 -54 -67 -72 -214 -77 -117 -4 -121
-3 -150 22 -16 14 -38 26 -48 26 -10 0 -28 10 -40 23 -52 54 -87 97 -87 107 0
5 -4 10 -8 10 -11 0 -32 61 -32 92 0 15 -4 28 -9 30 -14 5 -16 127 -3 174 7
23 19 47 27 54 8 7 15 19 15 26 0 8 12 17 26 20 16 4 30 17 36 35 5 16 13 29
17 29 15 0 51 38 51 54 0 9 5 16 11 16 5 0 7 5 3 11 -4 8 0 9 15 4 14 -4 21
-2 21 7 0 7 13 23 28 35 52 42 92 82 92 92 0 6 7 11 15 11 8 0 17 10 20 23 3
12 26 36 50 52 25 17 45 38 45 48 0 9 5 17 10 17 6 0 10 7 10 15 0 8 5 15 11
15 14 0 39 25 39 39 0 6 8 11 18 11 24 1 52 24 52 44 0 9 5 16 10 16 6 0 10 7
10 15 0 8 5 15 10 15 6 0 10 7 10 15 0 8 7 15 15 15 8 0 15 5 15 10 0 6 6 10
14 10 8 0 17 8 20 18 4 11 18 25 31 32 14 7 25 18 25 24 0 6 16 27 35 46 19
19 35 38 35 42 0 4 7 8 15 8 8 0 15 4 15 9 0 5 34 43 75 85 41 42 75 83 75 90
0 8 11 17 25 20 14 4 29 14 32 24 18 46 63 55 63 12z m-11815 -151 c5 -5 22
-9 37 -9 15 0 28 -3 28 -8 0 -4 18 -18 40 -32 22 -14 40 -28 40 -32 0 -5 7 -8
15 -8 8 0 15 -4 15 -10 0 -5 9 -10 20 -10 15 0 22 -9 26 -30 4 -16 15 -32 25
-35 11 -4 19 -12 19 -19 0 -8 16 -31 35 -52 19 -21 35 -47 35 -59 0 -25 18
-45 41 -45 11 0 18 -11 22 -32 3 -18 11 -61 17 -94 l13 -62 -51 -51 c-29 -29
-52 -56 -52 -61 0 -6 -5 -10 -11 -10 -13 0 -39 -25 -39 -38 0 -5 -9 -12 -20
-15 -11 -3 -24 -17 -30 -31 -5 -14 -16 -26 -25 -26 -8 0 -15 -7 -15 -15 0 -8
-7 -15 -15 -15 -8 0 -15 -4 -15 -10 0 -5 -5 -10 -12 -10 -16 0 -58 -40 -58
-56 0 -6 -9 -14 -21 -17 -11 -3 -23 -14 -26 -25 -3 -11 -16 -23 -29 -26 -15
-4 -24 -14 -24 -26 0 -13 -9 -22 -25 -26 -14 -3 -25 -13 -25 -21 0 -8 -9 -17
-20 -20 -11 -3 -20 -12 -20 -20 0 -17 -24 -43 -39 -43 -6 0 -11 -7 -11 -15 0
-8 -7 -15 -15 -15 -8 0 -15 -5 -15 -11 0 -14 -112 -124 -134 -132 -9 -4 -16
-16 -16 -27 0 -11 -6 -20 -14 -20 -8 0 -24 -13 -37 -30 -13 -16 -30 -30 -37
-30 -20 0 -122 -109 -122 -130 0 -6 -6 -10 -14 -10 -7 0 -22 -11 -32 -25 -10
-14 -24 -25 -31 -25 -7 0 -13 -9 -13 -20 0 -11 -7 -20 -15 -20 -8 0 -15 -7
-15 -15 0 -8 -6 -15 -13 -15 -14 0 -67 -51 -67 -64 0 -37 -112 -56 -144 -23
-10 9 -23 17 -29 17 -7 0 -20 18 -30 40 -10 22 -25 40 -33 40 -8 0 -14 7 -14
15 0 8 -6 15 -13 15 -7 0 -19 10 -27 22 -8 12 -45 53 -82 91 -38 37 -68 72
-68 77 0 5 -13 23 -30 40 -16 17 -30 33 -30 36 0 3 -52 58 -115 121 -63 64
-115 118 -115 120 0 10 -110 112 -128 117 -11 4 -23 18 -26 31 -4 14 -13 25
-21 25 -8 0 -15 6 -15 13 0 6 -15 23 -33 37 -63 49 -155 153 -170 193 -3 9
-16 17 -27 17 -12 0 -20 7 -20 17 0 9 -23 38 -51 64 -49 46 -51 50 -46 89 3
23 12 49 21 59 9 10 16 25 16 34 0 9 5 17 10 17 6 0 10 7 10 15 0 9 7 18 15
21 8 4 15 10 15 16 0 17 122 128 141 128 11 0 19 5 19 10 0 6 6 10 14 10 8 0
16 3 18 8 8 17 129 103 169 119 49 20 214 22 233 3 5 -5 23 -10 38 -10 19 0
39 -11 58 -30 16 -16 38 -30 48 -30 18 0 42 -37 42 -65 0 -8 4 -15 9 -15 16 0
22 -50 10 -90 -12 -40 -28 -50 -85 -50 -36 0 -84 21 -84 37 0 6 -4 13 -9 15
-5 2 -10 32 -12 68 -4 58 -7 68 -35 92 -43 38 -127 40 -190 3 -55 -33 -104
-99 -104 -142 0 -20 -6 -36 -14 -39 -22 -8 -27 -49 -11 -80 8 -16 15 -39 15
-51 0 -12 5 -25 11 -29 6 -3 17 -22 25 -40 8 -19 19 -34 24 -34 6 0 10 -9 10
-20 0 -11 6 -20 14 -20 12 0 14 -19 9 -110 -4 -72 -2 -110 4 -110 6 0 13 -13
16 -29 3 -15 22 -45 41 -65 20 -20 36 -39 36 -42 0 -10 44 -43 57 -44 17 0 43
-41 43 -68 0 -22 44 -87 83 -123 9 -9 17 -22 17 -28 0 -17 26 -41 44 -41 9 0
16 -4 16 -9 0 -4 21 -14 48 -21 26 -7 51 -17 57 -21 5 -5 28 -9 52 -9 38 0 43
-3 43 -23 0 -26 21 -77 33 -77 4 0 7 -9 7 -20 0 -11 5 -20 10 -20 6 0 10 -9
10 -19 0 -11 9 -23 20 -26 11 -3 20 -12 20 -18 0 -7 9 -19 20 -27 11 -8 20
-21 20 -28 0 -9 7 -12 19 -9 11 2 24 -3 32 -14 7 -11 17 -19 22 -19 22 0 97
42 97 55 0 8 4 15 9 15 5 0 19 11 32 25 13 13 29 25 34 25 6 0 20 13 33 29 13
16 36 44 52 63 16 18 30 43 30 56 0 12 5 22 10 22 6 0 10 7 10 15 0 8 9 19 20
25 13 7 20 21 20 39 0 40 58 91 105 91 24 0 35 5 35 15 0 8 8 15 18 15 18 0
101 58 133 92 9 10 21 18 26 18 8 0 60 96 78 145 4 11 13 49 19 84 10 55 15
66 41 80 41 23 95 73 95 88 0 7 5 13 10 13 6 0 10 7 10 15 0 8 4 15 9 15 4 0
14 20 21 45 13 48 7 179 -9 199 -5 6 -11 28 -15 49 -4 20 -11 37 -15 37 -5 0
-30 20 -57 45 -26 25 -55 45 -66 45 -10 0 -18 5 -18 10 0 6 -15 10 -33 10 -38
0 -47 -13 -68 -93 -18 -72 -52 -102 -121 -110 -46 -4 -58 -3 -58 9 0 8 -7 14
-15 14 -8 0 -17 11 -21 24 -3 14 -12 27 -20 30 -15 6 -15 16 2 129 3 22 11 37
19 37 17 0 65 43 65 59 0 6 10 11 23 11 13 0 27 4 33 9 19 19 198 19 219 0z
m3730 0 c5 -5 19 -9 32 -9 13 0 23 -5 23 -11 0 -16 48 -59 65 -59 8 0 16 -15
19 -37 17 -113 17 -123 2 -129 -8 -3 -17 -16 -20 -30 -4 -13 -13 -24 -21 -24
-8 0 -15 -6 -15 -14 0 -12 -12 -13 -57 -9 -70 8 -104 38 -122 110 -21 80 -30
93 -68 93 -18 0 -33 -4 -33 -10 0 -5 -8 -10 -18 -10 -11 0 -40 -20 -66 -45
-27 -25 -52 -45 -57 -45 -4 0 -11 -17 -15 -37 -4 -21 -10 -43 -15 -49 -16 -20
-22 -151 -9 -199 7 -25 17 -45 21 -45 5 0 9 -7 9 -15 0 -8 5 -15 10 -15 6 0
10 -6 10 -13 0 -15 54 -65 95 -88 26 -14 31 -25 41 -80 6 -35 15 -73 19 -84
18 -49 70 -145 78 -145 5 0 17 -8 26 -18 32 -34 115 -92 133 -92 10 0 18 -7
18 -15 0 -10 11 -15 35 -15 47 0 105 -51 105 -91 0 -18 7 -32 20 -39 11 -6 20
-17 20 -25 0 -8 5 -15 10 -15 6 0 10 -10 10 -22 0 -13 14 -38 30 -56 16 -19
39 -47 52 -63 13 -16 28 -29 33 -29 6 0 21 -12 34 -25 13 -14 27 -25 32 -25 5
0 9 -7 9 -15 0 -8 20 -24 44 -35 50 -22 66 -25 66 -10 0 6 7 10 15 10 8 0 15
-4 15 -10 0 -15 16 -12 66 10 24 11 44 27 44 35 0 8 4 15 9 15 5 0 19 11 32
25 13 13 29 25 34 25 6 0 20 13 33 29 13 16 36 44 52 63 16 18 30 43 30 56 0
12 5 22 10 22 6 0 10 7 10 15 0 8 9 19 20 25 13 7 20 21 20 39 0 40 58 91 105
91 24 0 35 5 35 15 0 8 8 15 18 15 18 0 101 58 133 92 9 10 21 18 26 18 8 0
60 96 78 145 4 11 13 49 19 84 10 55 15 66 41 80 41 23 95 73 95 88 0 7 5 13
10 13 6 0 10 7 10 15 0 8 4 15 9 15 4 0 14 20 21 45 13 48 7 179 -9 199 -5 6
-11 28 -15 49 -4 20 -11 37 -15 37 -5 0 -30 20 -57 45 -26 25 -55 45 -66 45
-10 0 -18 5 -18 10 0 6 -15 10 -33 10 -38 0 -47 -13 -68 -93 -18 -72 -52 -102
-121 -110 -46 -4 -58 -3 -58 9 0 8 -7 14 -15 14 -8 0 -17 11 -21 24 -3 14 -12
27 -20 30 -15 6 -15 16 2 129 3 22 11 37 19 37 17 0 65 43 65 59 0 6 10 11 23
11 13 0 28 5 34 11 6 6 51 11 108 11 57 0 102 -5 108 -11 6 -6 24 -11 39 -11
15 0 28 -3 28 -8 0 -4 18 -18 40 -32 22 -14 40 -28 40 -32 0 -5 7 -8 15 -8 8
0 15 -4 15 -10 0 -5 9 -10 20 -10 15 0 22 -9 26 -30 4 -16 15 -32 25 -35 11
-4 19 -12 19 -19 0 -8 16 -31 35 -52 19 -21 35 -47 35 -59 0 -25 18 -45 41
-45 11 0 18 -11 22 -32 3 -18 11 -61 17 -94 l13 -62 -51 -51 c-29 -29 -52 -56
-52 -61 0 -6 -5 -10 -11 -10 -13 0 -39 -25 -39 -38 0 -5 -9 -12 -20 -15 -11
-3 -24 -17 -30 -31 -5 -14 -16 -26 -25 -26 -8 0 -15 -7 -15 -15 0 -8 -7 -15
-15 -15 -8 0 -15 -4 -15 -10 0 -5 -5 -10 -12 -10 -16 0 -58 -40 -58 -56 0 -6
-9 -14 -21 -17 -11 -3 -23 -14 -26 -25 -3 -11 -16 -23 -29 -26 -15 -4 -24 -14
-24 -26 0 -13 -9 -22 -25 -26 -14 -3 -25 -13 -25 -21 0 -8 -9 -17 -20 -20 -11
-3 -20 -12 -20 -20 0 -17 -24 -43 -39 -43 -6 0 -11 -7 -11 -15 0 -8 -7 -15
-15 -15 -8 0 -15 -5 -15 -11 0 -14 -112 -124 -134 -132 -9 -4 -16 -16 -16 -27
0 -11 -6 -20 -14 -20 -8 0 -24 -13 -37 -30 -13 -16 -30 -30 -37 -30 -20 0
-122 -109 -122 -130 0 -6 -6 -10 -14 -10 -7 0 -22 -11 -32 -25 -10 -14 -24
-25 -31 -25 -7 0 -13 -9 -13 -20 0 -11 -7 -20 -15 -20 -8 0 -15 -7 -15 -15 0
-8 -6 -15 -13 -15 -14 0 -67 -51 -67 -64 0 -21 -34 -38 -75 -38 -41 0 -75 17
-75 38 0 13 -53 64 -67 64 -7 0 -13 7 -13 15 0 8 -7 15 -15 15 -8 0 -15 9 -15
20 0 11 -6 20 -13 20 -7 0 -21 11 -31 25 -10 14 -25 25 -32 25 -8 0 -14 4 -14
10 0 21 -102 130 -122 130 -7 0 -24 14 -37 30 -13 17 -29 30 -37 30 -8 0 -14
9 -14 20 0 11 -7 23 -16 27 -22 8 -134 118 -134 132 0 6 -7 11 -15 11 -8 0
-15 7 -15 15 0 8 -5 15 -11 15 -15 0 -39 26 -39 43 0 8 -9 17 -20 20 -11 3
-20 12 -20 20 0 8 -11 18 -25 21 -16 4 -25 13 -25 26 0 12 -9 22 -24 26 -13 3
-26 15 -29 26 -3 11 -15 22 -26 25 -12 3 -21 10 -21 16 0 16 -41 57 -57 57 -7
0 -13 5 -13 10 0 6 -7 10 -15 10 -8 0 -15 7 -15 15 0 8 -7 15 -15 15 -9 0 -20
12 -25 26 -6 14 -19 28 -30 31 -11 3 -20 10 -20 15 0 13 -26 38 -39 38 -6 0
-11 4 -11 10 0 5 -23 32 -52 61 l-51 51 13 62 c6 33 14 76 17 94 4 21 11 32
22 32 23 0 41 20 41 45 0 12 16 38 35 59 19 21 35 44 35 52 0 7 8 15 19 19 10
3 21 19 25 35 4 21 11 30 26 30 11 0 20 5 20 10 0 6 7 10 15 10 8 0 15 3 15 8
0 4 18 18 40 32 22 14 40 28 40 32 0 5 13 8 28 8 15 0 32 4 38 9 19 19 198 19
219 0z m5150 0 c5 -5 19 -9 32 -9 13 0 23 -5 23 -11 0 -16 48 -59 65 -59 8 0
16 -15 19 -37 17 -113 17 -123 2 -129 -8 -3 -17 -16 -20 -30 -4 -13 -13 -24
-21 -24 -8 0 -15 -6 -15 -14 0 -12 -12 -13 -57 -9 -70 8 -104 38 -122 110 -21
80 -30 93 -68 93 -18 0 -33 -4 -33 -10 0 -5 -8 -10 -18 -10 -11 0 -40 -20 -66
-45 -27 -25 -52 -45 -57 -45 -4 0 -11 -17 -15 -37 -4 -21 -10 -43 -15 -49 -16
-20 -22 -151 -9 -199 7 -25 17 -45 21 -45 5 0 9 -7 9 -15 0 -8 5 -15 10 -15 6
0 10 -6 10 -13 0 -15 54 -65 95 -88 26 -14 31 -25 41 -80 6 -35 15 -73 19 -84
18 -49 70 -145 78 -145 5 0 17 -8 26 -18 32 -34 115 -92 133 -92 10 0 18 -7
18 -15 0 -10 11 -15 35 -15 47 0 105 -51 105 -91 0 -18 7 -32 20 -39 11 -6 20
-17 20 -25 0 -8 5 -15 10 -15 6 0 10 -10 10 -22 0 -13 14 -38 30 -56 16 -19
39 -47 52 -63 13 -16 28 -29 33 -29 6 0 21 -12 34 -25 13 -14 27 -25 32 -25 5
0 9 -7 9 -15 0 -13 75 -55 97 -55 5 0 15 8 22 19 8 11 21 16 32 14 12 -3 19 0
19 9 0 7 9 20 20 28 11 8 20 20 20 27 0 6 9 15 20 18 11 3 20 15 20 26 0 10 5
19 10 19 6 0 10 9 10 20 0 11 3 20 8 20 11 0 32 51 32 77 0 20 5 23 43 23 24
0 47 4 53 9 5 4 30 14 57 21 26 7 47 17 47 21 0 5 7 9 16 9 18 0 44 24 44 41
0 6 8 19 18 28 38 36 82 101 82 123 0 27 26 68 43 68 13 1 57 34 57 44 0 3 16
22 36 42 19 20 38 50 41 65 3 16 10 29 16 29 6 0 8 38 4 110 -5 91 -3 110 9
110 8 0 14 9 14 20 0 11 4 20 10 20 5 0 16 15 24 34 8 18 19 37 25 40 6 4 11
17 11 29 0 12 7 35 15 51 16 31 11 72 -11 80 -8 3 -14 19 -14 39 0 43 -49 109
-104 142 -63 37 -147 35 -190 -3 -28 -24 -31 -34 -35 -92 -2 -36 -7 -66 -12
-68 -5 -2 -9 -9 -9 -15 0 -16 -48 -37 -84 -37 -57 0 -73 10 -85 50 -12 40 -6
90 10 90 5 0 9 7 9 15 0 28 24 65 42 65 10 0 32 14 48 30 19 19 39 30 58 30
15 0 33 5 38 10 19 19 184 17 233 -3 40 -16 161 -102 169 -119 2 -5 10 -8 18
-8 8 0 14 -4 14 -10 0 -5 8 -10 19 -10 19 0 141 -111 141 -128 0 -6 7 -12 15
-16 8 -3 15 -12 15 -21 0 -8 5 -15 10 -15 6 0 10 -8 10 -17 0 -9 7 -24 16 -34
9 -10 18 -36 21 -59 5 -39 3 -43 -46 -89 -28 -26 -51 -55 -51 -64 0 -10 -8
-17 -20 -17 -11 0 -24 -8 -27 -17 -15 -40 -107 -144 -170 -193 -18 -14 -33
-31 -33 -37 0 -7 -7 -13 -15 -13 -8 0 -17 -11 -21 -25 -3 -13 -15 -27 -26 -31
-18 -5 -128 -107 -128 -117 0 -2 -52 -56 -115 -120 -63 -63 -115 -118 -115
-121 0 -3 -13 -19 -30 -36 -16 -17 -30 -35 -30 -40 0 -5 -30 -40 -67 -77 -38
-38 -75 -79 -83 -91 -8 -12 -20 -22 -27 -22 -7 0 -13 -7 -13 -15 0 -8 -6 -15
-14 -15 -8 0 -23 -18 -33 -40 -10 -22 -23 -40 -30 -40 -6 0 -19 -8 -29 -18
-32 -32 -144 -13 -144 24 0 13 -53 64 -67 64 -7 0 -13 7 -13 15 0 8 -7 15 -15
15 -8 0 -15 9 -15 20 0 11 -6 20 -13 20 -7 0 -21 11 -31 25 -10 14 -25 25 -32
25 -8 0 -14 4 -14 10 0 21 -102 130 -122 130 -7 0 -24 14 -37 30 -13 17 -29
30 -37 30 -8 0 -14 9 -14 20 0 11 -7 23 -16 27 -22 8 -134 118 -134 132 0 6
-7 11 -15 11 -8 0 -15 7 -15 15 0 8 -5 15 -11 15 -15 0 -39 26 -39 43 0 8 -9
17 -20 20 -11 3 -20 12 -20 20 0 8 -11 18 -25 21 -16 4 -25 13 -25 26 0 12 -9
22 -24 26 -13 3 -26 15 -29 26 -3 11 -15 22 -26 25 -12 3 -21 10 -21 16 0 16
-41 57 -57 57 -7 0 -13 5 -13 10 0 6 -7 10 -15 10 -8 0 -15 7 -15 15 0 8 -7
15 -15 15 -9 0 -20 12 -25 26 -6 14 -19 28 -30 31 -11 3 -20 10 -20 15 0 13
-26 38 -39 38 -6 0 -11 4 -11 10 0 5 -23 32 -52 61 l-51 51 13 62 c6 33 14 76
17 94 4 21 11 32 22 32 23 0 41 20 41 45 0 12 16 38 35 59 19 21 35 44 35 52
0 7 8 15 19 19 10 3 21 19 25 35 4 21 11 30 26 30 11 0 20 5 20 10 0 6 7 10
15 10 8 0 15 3 15 8 0 4 18 18 40 32 22 14 40 28 40 32 0 5 13 8 28 8 15 0 32
4 38 9 19 19 198 19 219 0z m-8016 -66 c29 -25 18 -56 -25 -73 -19 -8 -34 -20
-34 -27 0 -8 -13 -13 -35 -13 -30 0 -35 3 -35 23 0 36 11 67 24 67 6 0 18 9
26 20 18 25 51 26 79 3z m1861 -3 c8 -11 20 -20 26 -20 13 0 24 -31 24 -67 0
-20 -5 -23 -35 -23 -22 0 -35 5 -35 13 0 7 -15 19 -34 27 -43 17 -54 48 -25
73 28 23 61 22 79 -3z m3289 3 c29 -25 18 -56 -25 -73 -19 -8 -34 -20 -34 -27
0 -8 -13 -13 -35 -13 -30 0 -35 3 -35 23 0 36 11 67 24 67 6 0 18 9 26 20 18
25 51 26 79 3z m1861 -3 c8 -11 20 -20 26 -20 13 0 24 -31 24 -67 0 -20 -5
-23 -35 -23 -22 0 -35 5 -35 13 0 7 -15 19 -34 27 -43 17 -54 48 -25 73 28 23
61 22 79 -3z m-10139 -11 c30 -30 23 -81 -14 -93 -22 -8 -32 -6 -54 10 -39 29
-67 70 -60 88 10 25 101 22 128 -5z m13317 -1 c4 -21 -54 -87 -83 -94 -58 -14
-88 53 -44 97 26 26 122 24 127 -3z m-14143 -191 c8 -32 15 -69 15 -82 0 -13
5 -25 11 -27 6 -2 13 -26 16 -53 3 -28 10 -53 15 -56 5 -3 13 -35 18 -70 4
-35 13 -84 19 -109 34 -141 44 -218 48 -392 3 -123 2 -188 -5 -188 -10 0 -19
-54 -28 -177 -3 -40 -9 -73 -13 -73 -4 0 -14 -19 -20 -42 -7 -24 -17 -47 -21
-53 -4 -5 -13 -29 -19 -52 -7 -24 -16 -43 -21 -43 -6 0 -10 -7 -10 -15 0 -8
-4 -15 -9 -15 -4 0 -12 -19 -17 -43 -7 -32 -14 -43 -30 -45 -17 -2 -22 2 -22
20 2 164 0 669 -2 718 -2 36 -4 133 -3 215 0 83 0 211 0 285 1 360 1 373 15
381 21 13 46 -21 63 -84z m14918 5 c3 -42 4 -99 2 -127 -3 -27 -4 -108 -3
-180 2 -254 2 -431 -2 -495 -2 -49 -4 -554 -2 -718 0 -18 -5 -22 -22 -20 -16
2 -23 13 -30 46 -5 23 -13 42 -17 42 -5 0 -9 7 -9 15 0 8 -4 15 -10 15 -5 0
-14 19 -21 43 -6 23 -15 47 -19 52 -4 6 -14 29 -21 53 -6 23 -16 42 -20 42 -4
0 -10 33 -13 73 -9 123 -18 177 -28 177 -7 0 -8 65 -5 188 4 174 14 251 48
392 6 25 15 74 19 109 5 35 13 67 18 70 5 3 12 28 15 56 3 27 10 51 16 53 6 2
11 14 11 27 0 40 29 137 46 156 28 31 41 13 47 -69z m-12540 -142 c20 0 44
-16 88 -58 54 -53 59 -62 53 -88 -10 -41 -34 -83 -68 -121 -29 -32 -32 -33
-112 -33 -68 0 -91 4 -133 25 -63 32 -81 57 -81 116 0 39 4 49 26 63 14 10 34
38 45 63 l20 46 67 -7 c37 -3 79 -6 95 -6z m10267 -34 c10 -25 30 -52 44 -62
22 -14 26 -24 26 -63 0 -59 -18 -84 -81 -116 -42 -21 -65 -25 -133 -25 -80 0
-83 1 -112 33 -36 39 -60 82 -68 122 -5 27 0 36 50 85 60 58 77 64 212 69 41
1 43 0 62 -43z m-5129 -75 c16 -16 29 -37 29 -46 0 -8 7 -27 16 -40 9 -14 18
-56 21 -103 5 -72 4 -80 -18 -105 -27 -31 -77 -46 -157 -47 -45 0 -57 4 -85
30 -17 16 -44 39 -59 50 -28 21 -48 73 -48 123 0 19 11 38 33 59 17 16 43 41
57 54 28 27 97 52 148 53 25 1 41 -7 63 -28z m-2658 -11 c14 -11 39 -20 57
-20 50 0 87 -44 95 -114 7 -52 5 -60 -20 -97 -16 -22 -46 -53 -69 -69 -36 -27
-48 -30 -114 -30 -61 0 -81 4 -118 26 -56 33 -71 55 -79 120 -8 58 12 109 63
158 49 46 142 60 185 26z m5241 11 c45 -11 90 -51 118 -105 16 -31 19 -50 13
-90 -8 -65 -23 -87 -79 -120 -37 -22 -57 -26 -118 -26 -66 0 -78 3 -114 30
-23 16 -53 47 -69 69 -25 37 -27 45 -20 97 8 70 45 114 95 114 18 0 43 9 57
20 28 22 57 24 117 11z m-6661 -620 c29 -49 15 -114 -27 -125 -40 -11 -76 -7
-76 9 0 8 -4 15 -10 15 -18 0 -11 46 10 65 11 10 20 26 20 36 0 17 16 25 50
28 9 0 23 -12 33 -28z m2875 23 c12 -4 22 -14 22 -24 0 -9 9 -25 20 -35 21
-19 28 -65 10 -65 -5 0 -10 -7 -10 -15 0 -16 -36 -20 -76 -9 -42 11 -56 76
-27 125 18 30 24 33 61 23z m2275 -23 c29 -49 15 -114 -27 -125 -40 -11 -76
-7 -76 9 0 8 -4 15 -10 15 -18 0 -11 46 10 65 11 10 20 26 20 36 0 17 16 25
50 28 9 0 23 -12 33 -28z m2875 23 c12 -4 22 -14 22 -24 0 -9 9 -25 20 -35 21
-19 28 -65 10 -65 -5 0 -10 -7 -10 -15 0 -16 -36 -20 -76 -9 -42 11 -56 76
-27 125 18 30 24 33 61 23z m-10058 -215 c0 -6 18 -31 40 -56 22 -25 40 -51
40 -58 0 -7 -12 -20 -26 -30 -35 -23 -70 -8 -79 34 -4 17 -11 33 -16 36 -15
10 -10 57 9 71 21 16 32 17 32 3z m12063 -3 c18 -14 23 -61 8 -71 -5 -3 -12
-19 -16 -36 -9 -42 -44 -57 -79 -34 -14 10 -26 23 -26 30 0 7 18 33 40 58 22
25 40 50 40 56 0 14 11 13 33 -3z m-10463 -208 c0 -15 60 -68 77 -68 7 0 13
-7 13 -15 0 -8 6 -15 13 -15 7 0 39 -13 70 -30 32 -16 71 -30 88 -30 16 0 29
-4 29 -10 0 -6 52 -10 135 -10 83 0 135 4 135 10 0 6 14 10 30 10 17 0 30 5
30 10 0 6 15 10 33 10 24 0 39 8 62 35 36 41 58 44 87 10 12 -14 32 -25 45
-25 13 0 23 -4 23 -10 0 -5 16 -10 35 -10 19 0 35 -4 35 -10 0 -5 15 -10 34
-10 19 0 36 -5 38 -11 2 -6 28 -14 58 -17 30 -2 57 -8 60 -13 3 -4 43 -11 88
-15 45 -4 82 -11 82 -16 0 -5 33 -8 75 -6 41 2 75 6 75 11 0 4 22 7 48 7 27 0
71 7 98 15 69 21 85 19 127 -16 20 -17 51 -34 67 -39 50 -14 123 3 166 38 43
36 59 38 128 17 27 -8 71 -15 98 -15 26 0 48 -3 48 -7 0 -5 34 -9 75 -11 42
-2 75 1 75 6 0 5 37 12 82 16 45 4 85 11 88 15 3 5 30 11 60 13 30 3 56 11 58
17 2 6 19 11 38 11 19 0 34 5 34 10 0 6 16 10 35 10 19 0 35 5 35 10 0 6 10
10 23 10 13 0 33 11 45 25 29 34 51 31 87 -10 23 -27 38 -35 62 -35 18 0 33
-4 33 -10 0 -5 14 -10 30 -10 17 0 30 -4 30 -10 0 -6 52 -10 135 -10 83 0 135
4 135 10 0 6 13 10 29 10 17 0 56 14 88 30 31 17 63 30 70 30 7 0 13 7 13 15
0 8 6 15 13 15 17 0 77 53 77 68 0 29 34 5 123 -83 52 -52 100 -95 106 -95 6
0 11 -9 11 -19 0 -11 8 -22 18 -25 11 -4 25 -18 32 -31 7 -14 19 -25 26 -25 6
0 14 -9 17 -20 3 -11 12 -20 21 -20 12 0 16 -10 16 -34 l0 -34 -547 -1 c-706
-1 -2620 -1 -3325 0 l-548 1 0 33 c0 24 5 34 20 38 11 3 20 12 20 21 0 9 6 16
13 16 8 0 20 11 27 25 7 13 21 27 32 31 10 3 18 14 18 25 0 10 5 19 11 19 6 0
54 43 106 95 89 88 123 112 123 83z m5150 0 c0 -15 60 -68 77 -68 7 0 13 -7
13 -15 0 -8 6 -15 13 -15 7 0 39 -13 70 -30 32 -16 71 -30 88 -30 16 0 29 -4
29 -10 0 -6 52 -10 135 -10 83 0 135 4 135 10 0 6 14 10 30 10 17 0 30 5 30
10 0 6 15 10 33 10 24 0 39 8 62 35 36 41 58 44 87 10 12 -14 32 -25 45 -25
13 0 23 -4 23 -10 0 -5 16 -10 35 -10 19 0 35 -4 35 -10 0 -5 15 -10 34 -10
19 0 36 -5 38 -11 2 -6 28 -14 58 -17 30 -2 57 -8 60 -13 3 -4 43 -11 88 -15
45 -4 82 -11 82 -16 0 -5 33 -8 75 -6 41 2 75 6 75 11 0 4 22 7 48 7 27 0 71
7 98 15 69 21 85 19 128 -17 43 -35 116 -52 166 -38 16 5 47 22 67 39 42 35
58 37 127 16 27 -8 71 -15 98 -15 26 0 48 -3 48 -7 0 -5 34 -9 75 -11 42 -2
75 1 75 6 0 5 37 12 82 16 45 4 85 11 88 15 3 5 30 11 60 13 30 3 56 11 58 17
2 6 19 11 38 11 19 0 34 5 34 10 0 6 16 10 35 10 19 0 35 5 35 10 0 6 10 10
23 10 13 0 33 11 45 25 29 34 51 31 87 -10 23 -27 38 -35 62 -35 18 0 33 -4
33 -10 0 -5 14 -10 30 -10 17 0 30 -4 30 -10 0 -6 52 -10 135 -10 83 0 135 4
135 10 0 6 13 10 29 10 17 0 56 14 88 30 31 17 63 30 70 30 7 0 13 7 13 15 0
8 6 15 13 15 17 0 77 53 77 68 0 29 34 5 123 -83 52 -52 100 -95 106 -95 6 0
11 -9 11 -19 0 -11 8 -22 18 -25 11 -4 25 -18 32 -31 7 -14 19 -25 26 -25 6 0
14 -9 17 -20 3 -11 12 -20 21 -20 12 0 16 -10 16 -34 l0 -34 -547 -1 c-706 -1
-2620 -1 -3325 0 l-548 1 0 33 c0 24 5 34 20 38 11 3 20 12 20 21 0 9 6 16 13
16 8 0 20 11 27 25 7 13 21 27 32 31 10 3 18 14 18 25 0 10 5 19 11 19 6 0 54
43 106 95 89 88 123 112 123 83z m-6896 -193 c8 -8 22 -15 30 -15 9 0 16 -5
16 -11 0 -19 28 -39 54 -39 14 0 26 -4 26 -10 0 -6 38 -10 94 -10 53 0 98 4
101 10 3 6 22 10 41 10 19 0 34 5 34 10 0 6 9 10 19 10 11 0 23 5 26 10 3 6
28 10 54 10 46 0 49 -2 55 -30 3 -19 12 -30 22 -30 24 0 64 -47 64 -76 0 -23
-3 -25 -42 -23 -24 1 -97 1 -163 1 -66 -1 -131 -1 -145 -1 -1052 0 -1114 1
-1167 14 -38 8 -41 15 -13 35 11 8 20 26 20 40 0 20 7 29 33 38 40 14 94 16
101 3 4 -5 75 -10 158 -10 84 -1 157 -6 162 -11 13 -13 63 -13 70 -1 3 5 39
12 78 16 76 7 128 21 128 36 0 5 15 9 34 9 18 0 39 7 46 15 7 8 21 15 31 15 9
0 24 -7 33 -15z m12386 0 c7 -8 28 -15 46 -15 19 0 34 -4 34 -9 0 -15 52 -29
128 -36 39 -4 75 -11 78 -16 7 -12 57 -12 70 1 5 5 78 10 162 11 83 0 154 5
158 10 7 13 61 11 101 -3 26 -9 33 -18 33 -38 0 -14 9 -32 20 -40 28 -20 25
-27 -12 -35 -54 -13 -116 -14 -1168 -14 -14 0 -79 0 -145 1 -66 0 -139 0 -162
-1 -40 -2 -43 0 -43 23 0 29 40 76 64 76 10 0 19 11 23 30 5 28 8 30 54 30 26
0 51 -4 54 -10 3 -5 15 -10 26 -10 10 0 19 -4 19 -10 0 -5 15 -10 34 -10 19 0
38 -4 41 -10 3 -6 48 -10 101 -10 56 0 94 4 94 10 0 6 12 10 26 10 26 0 54 20
54 39 0 6 7 11 16 11 8 0 22 7 30 15 9 8 24 15 33 15 10 0 24 -7 31 -15z
m-14222 -579 c3 -11 -3 -25 -11 -31 -9 -6 -20 -29 -25 -51 -7 -32 -30 -61
-110 -142 -98 -99 -103 -102 -144 -101 -95 2 -105 13 -93 105 9 76 68 145 173
201 70 37 83 41 142 40 55 -2 65 -5 68 -21z m16197 -17 c92 -46 162 -116 176
-177 12 -51 11 -110 -2 -117 -6 -4 -37 -9 -69 -12 l-59 -6 -104 106 c-87 89
-105 112 -111 145 -3 22 -13 42 -21 46 -15 5 -21 37 -8 49 3 4 31 7 62 7 45 0
71 -8 136 -41z"/>
</g>
</svg>
