<?xml version="1.0" standalone="no"?>
<!DOCTYPE svg PUBLIC "-//W3C//DTD SVG 20010904//EN"
 "http://www.w3.org/TR/2001/REC-SVG-20010904/DTD/svg10.dtd">
<svg version="1.0" xmlns="http://www.w3.org/2000/svg"
 width="2898.000000pt" height="239.000000pt" viewBox="0 0 2898.000000 239.000000"
 preserveAspectRatio="xMidYMid meet">
<metadata>
Created by potrace 1.13, written by Peter Selinger 2001-2015
</metadata>
<g transform="translate(0.000000,239.000000) scale(0.100000,-0.100000)"
fill="#000000" stroke="none">
<path d="M20048 2110 c-9 -10 -14 -21 -11 -24 3 -3 -6 -10 -20 -17 -14 -6 -28
-22 -31 -35 -4 -13 -13 -24 -20 -24 -8 0 -17 -13 -21 -29 -7 -32 -54 -80 -73
-73 -11 3 -42 -20 -42 -33 0 -10 -28 -35 -39 -35 -6 0 -28 -16 -48 -35 -43
-40 -58 -43 -75 -15 -14 22 -38 27 -38 8 0 -10 -2 -10 -8 -1 -9 14 -72 14 -89
0 -9 -6 -13 -6 -13 0 0 13 -78 14 -86 2 -3 -5 -18 -9 -35 -9 -16 0 -29 -3 -29
-7 0 -5 -14 -9 -32 -9 -18 -1 -34 -6 -36 -13 -2 -6 -14 -11 -26 -11 -15 0 -46
-22 -84 -60 -34 -33 -66 -60 -72 -60 -5 0 -10 -4 -10 -10 0 -5 -7 -10 -15 -10
-8 0 -15 -7 -15 -15 0 -8 -3 -15 -8 -15 -4 0 -12 -10 -17 -22 -7 -16 -20 -24
-42 -26 -19 -2 -33 1 -33 7 0 7 -31 11 -82 11 -66 -1 -88 -4 -105 -19 -13 -11
-23 -24 -23 -30 0 -6 -4 -11 -9 -11 -5 0 -16 -28 -23 -62 l-14 -63 -380 -3
c-208 -1 -385 0 -391 3 -9 3 -6 17 12 51 23 43 24 49 10 70 -8 13 -15 30 -15
37 0 21 -88 107 -121 119 -16 5 -29 14 -29 19 0 14 -127 11 -133 -3 -4 -10 -6
-10 -6 0 -1 6 -8 12 -16 12 -14 0 -20 17 -16 48 3 18 -137 152 -159 152 -10 0
-20 6 -22 13 -3 8 -35 13 -99 15 -93 4 -95 3 -124 -25 -70 -68 -82 -88 -80
-129 2 -42 -18 -84 -30 -64 -4 6 -14 10 -23 8 -10 -1 -27 3 -39 10 -27 15
-131 23 -135 11 -2 -5 -20 -11 -41 -12 -30 -3 -46 -12 -77 -47 -22 -24 -40
-50 -40 -56 0 -7 -5 -14 -11 -16 -16 -5 -17 -190 -1 -195 6 -3 12 -13 12 -24
0 -17 -8 -19 -67 -20 -207 -2 -364 -7 -410 -14 -33 -5 -58 -4 -65 3 -10 7
-426 9 -476 1 -4 -1 -22 -1 -41 0 l-34 1 6 45 c5 35 3 47 -8 51 -7 3 -11 12
-8 20 3 9 -1 14 -13 14 -9 0 -15 3 -11 6 9 9 -30 43 -58 50 -14 3 -28 10 -31
15 -3 5 -27 9 -54 9 -40 0 -54 -5 -76 -27 l-26 -26 -33 39 c-26 30 -36 36 -46
27 -9 -9 -18 -5 -39 18 -16 16 -31 29 -34 29 -3 0 -26 22 -52 50 -31 33 -55
50 -71 50 -13 0 -26 7 -29 15 -7 17 -44 21 -44 5 0 -5 -13 -10 -30 -10 -16 0
-30 5 -30 10 0 6 -18 10 -40 10 -22 0 -40 -4 -40 -10 0 -6 -27 -10 -60 -10
-33 0 -60 -4 -60 -10 0 -5 -16 -10 -35 -10 -19 0 -35 -4 -35 -10 0 -5 -7 -10
-15 -10 -8 0 -15 -4 -15 -10 0 -5 -7 -10 -15 -10 -8 0 -23 -8 -33 -18 -30 -30
-51 -33 -72 -12 -11 11 -20 27 -20 35 0 8 -4 15 -10 15 -5 0 -10 7 -10 15 0
16 -8 27 -42 66 -10 10 -18 28 -18 40 0 20 -34 77 -53 90 -5 4 -7 12 -3 18 4
6 -2 21 -13 33 -12 12 -21 30 -21 40 0 11 -7 18 -19 18 -34 0 -51 -12 -51 -35
0 -19 -36 -76 -61 -95 -4 -3 -18 -14 -33 -25 -14 -11 -26 -25 -26 -32 0 -7 -7
-13 -15 -13 -8 0 -15 -7 -15 -15 0 -8 -5 -15 -10 -15 -6 0 -24 -13 -40 -30
-16 -16 -34 -30 -40 -30 -5 0 -10 -5 -10 -10 0 -14 -92 -8 -107 6 -6 6 -30 14
-52 18 -23 3 -41 11 -41 16 0 6 -13 10 -30 10 -16 0 -30 4 -30 9 0 13 -83 11
-91 -1 -4 -5 -31 -11 -60 -13 -76 -4 -182 -29 -187 -43 -2 -7 -10 -12 -18 -12
-8 0 -14 -3 -14 -7 0 -5 -20 -16 -43 -26 -46 -19 -117 -77 -117 -96 0 -6 -4
-11 -10 -11 -5 0 -10 -6 -10 -14 0 -8 -10 -16 -22 -18 -16 -2 -24 -12 -29 -36
-4 -18 -9 -35 -11 -37 -7 -7 -48 7 -43 15 7 12 -27 37 -60 44 -73 16 -195 26
-195 16 0 -4 -17 -12 -37 -17 -42 -10 -63 -40 -66 -98 -5 -68 -16 -72 -178
-70 -180 3 -190 6 -182 48 3 18 11 35 16 39 7 4 7 11 -2 21 -9 11 -9 16 0 19
17 6 -7 85 -39 125 -19 24 -38 35 -65 40 -21 3 -41 12 -44 19 -3 8 -20 14 -38
14 -18 0 -35 6 -38 13 -3 9 -11 8 -33 -4 -56 -30 -74 -9 -74 89 0 28 -4 52
-10 52 -5 0 -10 7 -10 15 0 8 -4 15 -10 15 -5 0 -10 7 -10 15 0 8 -4 15 -10
15 -5 0 -10 5 -10 11 0 18 -24 36 -58 44 -18 3 -39 16 -47 27 -11 16 -28 22
-70 26 -30 2 -55 8 -55 12 0 18 -61 22 -79 6 -10 -9 -27 -16 -39 -16 -21 0
-61 -17 -72 -31 -3 -4 -15 -10 -28 -13 -13 -5 -31 -25 -43 -52 -12 -24 -24
-44 -28 -44 -5 0 -16 -29 -26 -65 -11 -37 -25 -65 -32 -65 -7 0 -13 -4 -13
-10 0 -5 -15 -10 -34 -10 -34 0 -125 -46 -126 -64 0 -5 -10 -17 -22 -28 -19
-16 -23 -29 -22 -76 2 -72 12 -118 30 -133 8 -6 14 -21 14 -33 l0 -22 -272 4
c-150 2 -291 4 -313 5 -22 0 -74 0 -115 -2 -41 -1 -90 -2 -109 -2 l-34 1 6 45
c5 35 3 47 -8 51 -7 3 -11 12 -8 20 3 9 -1 14 -13 14 -9 0 -15 3 -11 6 9 9
-30 43 -58 50 -14 3 -28 10 -31 15 -3 5 -27 9 -54 9 -40 0 -54 -5 -76 -27
l-26 -26 -33 39 c-26 30 -36 36 -46 27 -9 -9 -18 -5 -39 18 -16 16 -31 29 -34
29 -3 0 -26 23 -52 50 -31 33 -55 50 -71 50 -13 0 -26 7 -29 15 -7 17 -44 21
-44 5 0 -5 -13 -10 -30 -10 -16 0 -30 5 -30 10 0 6 -18 10 -40 10 -22 0 -40
-4 -40 -10 0 -6 -27 -10 -60 -10 -33 0 -60 -4 -60 -10 0 -5 -16 -10 -35 -10
-19 0 -35 -4 -35 -10 0 -5 -7 -10 -15 -10 -8 0 -15 -4 -15 -10 0 -5 -7 -10
-15 -10 -8 0 -23 -8 -33 -18 -30 -30 -51 -33 -72 -12 -11 11 -20 27 -20 35 0
8 -4 15 -10 15 -5 0 -10 7 -10 15 0 16 -8 27 -42 66 -10 10 -18 28 -18 40 0
20 -34 77 -53 90 -5 4 -7 12 -3 18 4 6 -2 21 -13 33 -12 12 -21 30 -21 40 0
11 -7 18 -19 18 -34 0 -51 -12 -51 -35 0 -19 -36 -76 -61 -95 -4 -3 -18 -14
-33 -25 -14 -11 -26 -25 -26 -32 0 -7 -7 -13 -15 -13 -8 0 -15 -7 -15 -15 0
-8 -5 -15 -10 -15 -6 0 -24 -13 -40 -30 -16 -16 -34 -30 -40 -30 -5 0 -10 -5
-10 -10 0 -14 -92 -8 -107 6 -6 6 -30 14 -52 18 -23 3 -41 11 -41 16 0 6 -13
10 -30 10 -16 0 -30 4 -30 9 0 13 -83 11 -91 -1 -4 -5 -31 -11 -60 -13 -76 -4
-182 -29 -187 -43 -2 -7 -10 -12 -18 -12 -8 0 -14 -3 -14 -7 0 -5 -20 -16 -43
-26 -46 -19 -117 -77 -117 -96 0 -6 -4 -11 -10 -11 -5 0 -10 -6 -10 -14 0 -8
-10 -16 -22 -18 -16 -2 -24 -12 -29 -36 -4 -18 -9 -35 -11 -37 -7 -7 -48 7
-43 15 7 12 -27 37 -60 44 -73 16 -195 26 -195 16 0 -4 -17 -12 -38 -17 -41
-10 -62 -40 -65 -98 -5 -68 -16 -72 -178 -70 -180 3 -190 6 -182 48 3 18 11
35 16 39 7 4 7 11 -2 21 -9 11 -9 16 0 19 17 6 -7 85 -39 125 -19 24 -38 35
-65 40 -21 3 -41 12 -44 19 -3 8 -20 14 -38 14 -18 0 -35 6 -38 13 -3 9 -11 8
-33 -4 -56 -30 -74 -9 -74 89 0 28 -4 52 -10 52 -5 0 -10 7 -10 15 0 8 -4 15
-10 15 -5 0 -10 7 -10 15 0 8 -4 15 -10 15 -5 0 -10 5 -10 11 0 18 -24 36 -58
44 -18 3 -39 16 -47 27 -11 16 -28 22 -70 26 -30 2 -55 8 -55 12 0 18 -61 22
-79 6 -10 -9 -27 -16 -39 -16 -21 0 -61 -17 -72 -31 -3 -4 -15 -10 -28 -13
-13 -5 -31 -25 -43 -52 -12 -24 -24 -44 -28 -44 -5 0 -16 -29 -26 -65 -11 -37
-25 -65 -32 -65 -7 0 -13 -4 -13 -10 0 -5 -15 -10 -34 -10 -34 0 -125 -46
-126 -64 0 -5 -10 -17 -22 -28 -19 -16 -23 -29 -22 -76 2 -72 12 -118 30 -133
8 -6 14 -21 14 -33 l0 -22 -337 3 c-723 6 -768 7 -779 17 -6 6 -9 18 -6 28 2
10 -7 31 -22 49 -14 17 -24 35 -20 40 3 5 -4 9 -16 9 -12 0 -19 4 -16 9 9 14
-38 19 -94 10 -48 -8 -52 -6 -80 23 -17 17 -30 35 -30 39 0 5 -7 9 -15 9 -8 0
-15 6 -15 13 0 7 -9 19 -20 27 -11 8 -20 22 -20 32 0 10 -7 18 -15 18 -8 0
-22 11 -31 25 -9 14 -22 25 -28 25 -7 0 -23 11 -35 24 -13 13 -38 27 -57 30
-19 4 -34 12 -34 18 0 6 -9 8 -20 5 -10 -3 -21 0 -22 5 -2 6 -18 11 -36 12
-18 0 -32 4 -32 9 0 12 -38 8 -43 -6 -4 -9 -6 -9 -6 1 -1 16 -28 16 -34 -1 -4
-8 -8 -9 -14 -1 -10 14 -83 17 -83 4 0 -6 -15 -10 -33 -10 -21 0 -36 -7 -45
-20 -7 -11 -19 -20 -27 -20 -8 0 -15 -4 -15 -10 0 -5 -9 -10 -20 -10 -11 0
-28 -9 -37 -20 -10 -11 -28 -20 -41 -20 -13 0 -30 -7 -38 -15 -19 -19 -29 -19
-48 0 -8 8 -18 15 -23 15 -4 0 -14 9 -21 20 -7 11 -21 20 -32 20 -11 0 -20 5
-20 10 0 6 -4 10 -10 10 -5 0 -20 10 -32 22 -22 22 -35 42 -66 103 -15 30 -46
65 -57 65 -16 0 -37 -33 -32 -51 4 -13 -1 -24 -14 -32 -10 -6 -19 -17 -19 -23
0 -6 -11 -17 -25 -24 -14 -7 -25 -17 -25 -22 0 -4 -6 -8 -13 -8 -7 0 -19 -9
-27 -20 -8 -11 -22 -20 -30 -20 -9 0 -25 -6 -35 -14 -11 -8 -25 -12 -32 -9 -7
3 -20 0 -29 -7 -11 -10 -55 -13 -159 -11 -93 1 -145 -2 -145 -9 0 -5 -15 -10
-34 -10 -19 0 -38 -5 -41 -10 -3 -6 -19 -10 -36 -10 -16 0 -29 -4 -29 -10 0
-5 -7 -10 -15 -10 -8 0 -15 -4 -15 -9 0 -5 -14 -9 -31 -9 -17 1 -34 -3 -37 -9
-4 -6 -24 -16 -45 -22 -20 -7 -37 -19 -37 -27 0 -8 -5 -14 -11 -14 -6 0 -30
-20 -55 -45 -24 -25 -47 -45 -51 -45 -5 0 -14 9 -21 20 -7 11 -21 20 -31 20
-11 0 -27 7 -36 17 -20 19 -109 30 -119 14 -4 -6 -16 -11 -27 -11 -10 0 -19
-4 -19 -10 0 -5 -7 -10 -15 -10 -8 0 -15 -4 -15 -10 0 -5 -7 -10 -15 -10 -8 0
-15 -4 -15 -10 0 -5 -7 -10 -15 -10 -24 0 -27 -23 -12 -81 l14 -54 -154 -2
c-102 -2 -153 1 -153 8 0 6 -5 7 -12 2 -17 -10 -61 -4 -71 11 -6 8 -10 8 -14
-1 -5 -15 -73 -18 -73 -4 0 5 -16 9 -35 8 -19 -1 -35 -5 -35 -10 0 -4 -57 -6
-127 -4 -199 8 -255 13 -263 27 -5 9 -21 11 -47 8 -25 -4 -42 -1 -51 8 -7 8
-22 14 -32 14 -11 0 -20 5 -20 10 0 6 -7 10 -15 10 -8 0 -15 5 -15 10 0 6 -7
10 -16 10 -8 0 -12 4 -9 10 3 5 0 10 -7 10 -8 0 -14 8 -15 18 -5 43 -16 82
-24 82 -5 0 -9 14 -9 31 0 44 66 111 101 102 13 -3 27 -11 31 -17 10 -14 48
22 48 46 0 12 -11 23 -30 30 -17 5 -35 18 -40 27 -5 11 -33 22 -74 31 -36 7
-67 19 -70 27 -4 9 -27 13 -80 13 -41 0 -78 5 -81 10 -9 14 -72 13 -77 -2 -2
-6 -20 -11 -39 -10 -29 1 -38 -4 -53 -28 -9 -17 -24 -30 -32 -30 -8 0 -14 -4
-14 -10 0 -5 -7 -10 -15 -10 -8 0 -15 -9 -15 -20 0 -11 -4 -20 -10 -20 -5 0
-15 -20 -21 -45 -6 -25 -15 -45 -20 -45 -4 0 -6 -33 -3 -72 2 -40 0 -79 -4
-86 -5 -8 -36 -16 -73 -19 -35 -2 -68 -9 -74 -14 -5 -5 -17 -9 -27 -9 -10 0
-18 -4 -18 -10 0 -5 -6 -10 -12 -10 -21 0 -78 -65 -78 -89 0 -11 -5 -21 -11
-21 -5 0 -7 -4 -4 -10 3 -5 1 -10 -5 -10 -46 0 -56 -112 -16 -171 14 -20 28
-48 32 -63 3 -15 23 -39 43 -54 20 -15 38 -30 39 -35 2 -4 12 -7 23 -7 10 0
19 -4 19 -10 0 -14 74 -12 88 2 10 10 17 10 32 0 11 -6 26 -12 33 -12 9 0 12
-9 9 -30 -3 -20 0 -30 8 -30 9 0 11 -13 7 -50 -5 -43 -3 -52 13 -63 11 -6 20
-16 20 -22 0 -6 9 -17 20 -25 11 -8 20 -20 20 -27 0 -7 6 -13 13 -13 7 0 24
-10 37 -22 12 -12 35 -23 49 -24 127 -15 170 -15 224 -1 33 9 66 13 74 10 8
-3 24 7 40 26 14 17 34 31 43 31 20 0 35 15 44 48 9 28 -11 50 -46 50 -36 -1
-101 69 -93 99 3 12 1 23 -5 25 -6 2 -6 16 1 41 l10 37 134 -5 c91 -4 135 -2
135 5 0 6 40 10 110 10 67 0 110 -4 110 -10 0 -5 7 -10 15 -10 8 0 15 5 15 11
0 9 93 10 358 6 196 -4 358 -6 359 -7 2 0 6 -18 9 -41 4 -22 13 -46 20 -54 8
-7 14 -20 14 -29 0 -20 49 -34 153 -42 74 -5 93 -10 114 -30 14 -13 30 -24 35
-24 4 0 14 -11 20 -25 6 -14 15 -25 21 -25 5 0 22 -13 37 -30 15 -16 37 -30
49 -30 12 0 30 -9 41 -20 11 -11 33 -20 50 -20 17 0 30 -5 30 -11 0 -7 13 -10
34 -7 27 3 36 0 39 -14 3 -11 15 -18 31 -18 14 0 26 -3 26 -8 0 -24 241 -45
255 -22 3 5 19 10 36 10 16 0 29 5 29 10 0 6 18 10 41 10 22 0 38 4 34 9 -3 5
3 12 13 16 21 6 52 -3 52 -15 0 -4 12 -10 28 -13 15 -3 37 -15 49 -26 12 -12
27 -21 33 -21 5 0 10 -4 10 -10 0 -5 7 -10 15 -10 8 0 15 -6 15 -13 0 -7 9
-19 20 -27 11 -8 20 -20 20 -27 0 -7 12 -16 26 -19 16 -4 23 -12 20 -20 -6
-16 57 -84 77 -84 26 0 57 40 57 74 0 21 6 36 15 40 8 3 15 14 15 24 0 22 106
142 125 142 8 0 20 -7 29 -15 8 -8 31 -15 51 -15 20 0 45 -5 55 -10 27 -14
298 -24 324 -12 12 6 47 15 80 21 36 7 65 19 76 31 11 12 24 18 34 14 19 -7
109 78 120 114 6 17 12 21 24 16 37 -16 124 -20 137 -7 8 7 26 13 41 13 32 0
91 37 100 63 3 9 10 17 15 17 5 0 9 26 8 58 -2 100 -1 102 97 102 46 0 84 4
84 9 0 5 36 9 80 8 44 -1 80 -5 80 -9 0 -5 18 -8 40 -8 22 0 40 4 40 9 0 6 46
7 113 4 61 -2 211 -5 332 -6 166 -1 223 -5 234 -15 11 -11 10 -16 -8 -31 -21
-18 -28 -41 -13 -41 4 0 6 -24 4 -52 -4 -64 5 -118 19 -118 6 0 28 -19 50 -42
104 -113 112 -119 172 -117 28 1 56 7 60 13 6 8 10 7 14 -1 2 -7 11 -13 19
-13 9 0 14 -11 14 -35 0 -19 5 -35 10 -35 6 0 10 -7 10 -15 0 -8 4 -15 9 -15
5 0 15 -15 22 -34 8 -22 21 -37 36 -41 13 -3 23 -10 23 -15 0 -6 16 -10 36
-10 20 0 33 -4 29 -9 -3 -6 3 -15 14 -20 27 -15 78 -14 84 1 4 10 6 10 6 1 1
-7 12 -13 26 -13 35 0 125 89 125 124 0 14 3 26 8 26 4 0 13 9 20 21 10 15 10
24 2 34 -8 10 -8 15 0 20 6 4 9 13 6 21 -7 18 41 19 63 1 18 -15 115 -11 105
4 -3 5 6 9 20 9 35 0 56 10 56 26 0 8 5 14 11 14 6 0 32 20 58 45 38 36 47 51
48 80 1 19 -3 38 -8 41 -5 3 -6 11 -2 17 20 31 10 66 -33 113 -25 27 -40 50
-34 54 12 7 301 3 348 -5 26 -5 34 -12 39 -36 3 -16 9 -29 14 -29 5 0 9 -7 9
-15 0 -8 5 -15 10 -15 6 0 10 -6 10 -14 0 -8 4 -16 8 -18 4 -2 18 -18 31 -36
l23 -33 100 2 c112 2 127 -6 147 -76 10 -36 55 -85 79 -85 6 0 12 -4 12 -10 0
-5 9 -10 20 -10 11 0 20 -4 20 -10 0 -5 7 -10 15 -10 8 0 15 -4 15 -10 0 -5
19 -14 42 -21 23 -6 50 -20 59 -30 9 -10 24 -19 32 -19 9 0 42 -11 72 -25 47
-21 74 -25 168 -27 109 -2 183 11 198 35 4 5 24 10 46 11 30 0 45 -6 72 -32
19 -17 40 -32 47 -32 8 0 14 -4 14 -10 0 -5 7 -10 15 -10 8 0 15 -7 15 -15 0
-8 11 -17 24 -21 16 -4 23 -11 19 -20 -3 -8 0 -14 7 -14 6 0 8 -5 5 -10 -3 -6
3 -10 15 -10 12 0 18 -4 15 -10 -3 -5 3 -10 15 -10 12 0 18 -5 15 -10 -3 -6 0
-10 9 -10 8 0 17 -13 21 -29 3 -15 15 -38 25 -49 11 -12 20 -26 20 -32 0 -5 5
-10 11 -10 6 0 8 -7 5 -16 -9 -23 23 -64 50 -64 30 0 33 7 43 87 4 37 13 69
19 71 7 2 12 12 12 22 0 10 46 65 103 122 l102 103 79 0 c53 0 81 4 83 12 3 8
15 10 32 7 15 -3 66 1 113 10 46 9 97 16 112 16 16 0 25 4 21 10 -3 6 3 10 14
10 12 0 21 7 21 15 0 9 6 12 15 9 8 -4 26 1 40 10 13 9 31 13 39 10 15 -6 76
47 76 66 0 14 57 31 82 25 14 -4 36 -18 48 -32 15 -18 28 -23 43 -19 12 3 45
6 73 6 43 0 53 3 57 19 5 22 63 61 90 61 10 0 17 8 17 18 0 11 11 32 24 47 20
23 24 38 22 74 -1 25 -8 47 -14 49 -7 2 -12 15 -12 28 0 24 1 24 90 24 50 0
90 4 90 10 0 17 64 27 155 23 50 -2 182 -5 295 -6 154 -1 208 -5 219 -15 11
-11 10 -16 -8 -31 -21 -18 -28 -41 -13 -41 4 0 6 -24 4 -53 -4 -63 5 -117 19
-117 6 0 28 -19 50 -42 104 -113 112 -119 172 -117 28 1 56 7 60 13 6 8 10 7
14 -1 2 -7 11 -13 19 -13 9 0 14 -11 14 -35 0 -19 5 -35 10 -35 6 0 10 -7 10
-15 0 -8 4 -15 9 -15 5 0 15 -15 22 -34 8 -22 21 -37 36 -41 13 -3 23 -10 23
-15 0 -6 16 -10 36 -10 20 0 33 -4 29 -9 -3 -6 3 -15 14 -20 27 -15 78 -14 84
2 4 10 6 10 6 0 1 -7 12 -13 26 -13 35 0 125 89 125 124 0 14 3 26 8 26 4 0
13 9 20 21 10 15 10 24 2 34 -8 10 -8 15 0 20 6 4 9 13 6 21 -7 18 41 19 63 1
18 -15 115 -11 105 4 -3 5 6 9 20 9 35 0 56 10 56 26 0 8 5 14 11 14 6 0 32
20 58 45 38 36 47 51 48 80 1 19 -3 38 -8 41 -5 3 -6 11 -2 17 20 31 10 66
-33 113 -25 27 -40 50 -34 54 12 7 301 3 348 -5 26 -5 34 -12 39 -36 3 -16 9
-29 14 -29 5 0 9 -7 9 -15 0 -8 5 -15 10 -15 6 0 10 -6 10 -14 0 -8 4 -16 8
-18 4 -2 18 -18 31 -36 l23 -33 100 2 c112 2 127 -6 147 -76 10 -36 55 -85 79
-85 6 0 12 -4 12 -10 0 -5 9 -10 20 -10 11 0 20 -4 20 -10 0 -5 7 -10 15 -10
8 0 15 -4 15 -10 0 -5 19 -14 42 -21 23 -6 50 -20 59 -30 9 -10 24 -19 32 -19
9 0 42 -11 72 -25 47 -21 74 -25 168 -27 109 -2 183 11 198 35 4 5 24 10 46
11 30 0 45 -6 72 -32 19 -17 40 -32 47 -32 8 0 14 -4 14 -10 0 -5 7 -10 15
-10 8 0 15 -7 15 -15 0 -8 11 -17 24 -21 16 -4 23 -11 19 -20 -3 -8 0 -14 7
-14 6 0 8 -5 5 -10 -3 -6 3 -10 15 -10 12 0 18 -5 15 -10 -3 -6 3 -10 15 -10
12 0 18 -4 15 -10 -3 -5 0 -10 9 -10 8 0 17 -13 21 -29 3 -15 15 -38 25 -49
11 -12 20 -26 20 -32 0 -5 5 -10 11 -10 6 0 8 -7 5 -16 -9 -23 23 -64 50 -64
30 0 33 7 43 87 4 37 13 69 19 71 7 2 12 12 12 22 0 10 46 65 103 122 l102
103 79 0 c53 0 81 4 83 12 3 8 15 10 32 7 15 -3 66 1 113 10 46 9 97 16 112
16 16 0 25 4 21 10 -3 5 3 10 14 10 12 0 21 7 21 15 0 9 6 12 15 9 8 -4 26 1
40 10 13 9 31 13 39 10 15 -6 76 47 76 66 0 14 57 31 82 25 14 -4 36 -18 48
-32 15 -18 28 -23 43 -19 12 3 45 6 73 6 43 0 53 3 57 19 5 22 63 61 90 61 10
0 17 8 17 18 0 11 11 32 24 47 20 23 24 38 22 74 -1 25 -8 47 -14 49 -7 2 -12
15 -12 28 0 24 1 24 90 24 50 0 90 4 90 10 0 25 156 33 285 14 69 -10 471 -13
523 -4 23 4 42 4 42 0 0 -12 123 -11 132 3 6 9 8 9 8 0 0 -7 7 -13 15 -13 8 0
15 -7 15 -15 0 -8 -7 -15 -15 -15 -8 0 -17 -12 -21 -27 -3 -16 -10 -38 -15
-51 -12 -31 1 -192 17 -217 8 -11 14 -27 14 -36 0 -10 11 -19 30 -22 17 -4 30
-13 30 -20 0 -8 17 -19 39 -25 47 -15 71 -15 71 -2 0 6 13 10 30 10 24 0 31
-5 36 -27 4 -16 11 -34 17 -41 5 -7 10 -26 9 -41 -1 -28 54 -101 75 -101 5 0
15 -11 21 -24 13 -30 56 -40 145 -34 54 3 67 8 96 36 19 18 38 32 42 32 5 0 9
5 9 11 0 7 8 19 18 28 21 18 39 126 23 135 -5 4 -8 14 -7 24 3 15 14 17 103
13 55 -1 109 1 119 7 10 5 33 14 49 18 22 7 33 18 40 42 5 17 13 32 17 32 4 0
8 6 8 14 0 7 7 19 15 26 17 14 17 118 -1 142 -5 7 -16 27 -23 43 -7 17 -19 43
-27 58 -27 54 -22 57 75 57 74 0 90 -3 95 -17 5 -12 9 -14 18 -5 15 15 168 16
168 2 0 -18 29 -11 50 12 11 12 20 16 20 10 0 -7 7 -12 15 -12 8 0 15 6 15 13
0 9 2 9 8 0 5 -8 61 -10 192 -9 102 1 191 0 198 -2 8 -3 12 -30 12 -91 0 -75
3 -88 20 -101 11 -8 20 -18 20 -23 0 -12 27 -37 39 -37 6 0 11 -4 11 -10 0 -5
5 -10 11 -10 7 0 19 -8 28 -18 35 -41 178 -34 212 9 11 15 22 19 42 14 15 -4
27 -11 27 -16 0 -5 7 -9 15 -9 8 0 15 -4 15 -10 0 -5 5 -10 11 -10 6 0 24 -11
41 -25 16 -14 37 -25 47 -25 9 0 26 -7 38 -15 12 -8 28 -12 36 -9 8 3 18 1 22
-5 3 -6 19 -11 36 -11 16 0 29 -4 29 -10 0 -14 37 -12 43 3 4 9 6 9 6 0 1 -7
8 -13 16 -13 8 0 15 -4 15 -10 0 -14 27 -12 33 3 4 9 6 9 6 0 1 -17 38 -17 44
0 4 9 6 9 6 0 1 -7 7 -13 15 -13 8 0 17 6 20 13 5 9 7 9 12 0 3 -7 12 -13 19
-13 7 0 16 6 18 13 4 9 7 9 14 0 5 -7 26 -11 48 -10 39 2 144 -39 145 -56 0
-18 51 -58 80 -63 16 -4 30 -10 30 -15 0 -5 7 -9 15 -9 10 0 15 -10 15 -30 0
-20 5 -30 15 -30 8 0 15 -5 15 -10 0 -6 11 -23 24 -37 14 -15 23 -30 20 -35
-8 -12 42 -32 61 -24 11 4 15 13 12 26 -3 11 -1 20 5 20 5 0 8 10 7 23 -4 43
14 102 43 140 16 20 27 37 23 37 -4 0 -2 6 4 13 6 8 8 17 4 20 -3 4 3 7 15 7
14 0 22 6 22 16 0 18 62 84 78 84 6 0 12 7 16 15 7 19 21 19 41 -1 9 -9 25
-14 35 -11 23 6 120 -23 120 -35 0 -12 228 -10 235 2 4 6 15 8 24 5 10 -3 24
1 31 10 7 8 21 15 30 15 10 0 20 3 22 8 6 15 67 42 81 36 13 -5 31 6 71 41 19
18 90 35 96 25 15 -24 150 -42 150 -21 0 5 9 7 20 4 11 -3 20 0 20 6 0 6 7 11
15 11 8 0 15 4 15 8 0 5 11 15 25 22 14 7 25 19 25 26 0 6 13 22 30 35 27 22
30 30 30 81 l0 58 46 22 c38 17 52 19 78 11 20 -7 191 -10 469 -9 241 1 457
-1 480 -5 23 -3 36 -7 30 -8 -7 0 -13 -8 -13 -16 0 -8 -6 -15 -14 -15 -15 0
-26 -21 -26 -51 0 -10 -4 -19 -10 -19 -6 0 -10 -32 -10 -75 0 -58 4 -77 15
-81 8 -4 15 -11 15 -16 0 -20 58 -67 95 -77 20 -5 52 -7 71 -4 21 4 39 1 43
-5 9 -15 61 -27 61 -13 0 6 6 11 14 11 8 0 16 4 18 9 2 5 12 11 22 13 15 2 21
-5 29 -32 5 -19 12 -39 17 -45 4 -5 10 -22 14 -38 3 -15 13 -27 21 -27 8 0 15
-7 15 -15 0 -9 12 -18 30 -21 17 -4 30 -10 30 -15 0 -5 7 -9 15 -9 8 0 15 -4
15 -10 0 -14 27 -12 33 3 4 9 6 9 6 0 1 -16 121 -18 121 -3 0 6 7 10 15 10 8
0 15 5 15 10 0 6 12 10 26 10 14 0 23 4 19 10 -3 6 -1 10 5 10 19 0 37 24 45
58 4 21 3 32 -4 32 -6 0 -2 9 9 20 11 11 20 26 20 34 0 12 17 14 104 9 99 -6
104 -5 115 16 7 11 21 21 31 21 11 0 20 5 20 11 0 6 7 18 16 26 9 9 14 26 11
39 -2 13 3 27 15 35 19 14 25 39 8 39 -5 0 -10 18 -10 39 0 22 -5 42 -12 44
-10 4 -10 6 0 6 20 1 14 22 -14 48 -14 13 -23 27 -20 31 4 3 97 7 208 8 110 1
204 6 207 11 8 11 85 12 221 2 70 -5 116 -5 120 1 3 5 18 -1 34 -13 22 -18 28
-31 28 -60 0 -20 4 -37 9 -37 5 0 9 -4 9 -9 0 -21 68 -75 108 -87 49 -15 134
-12 140 5 8 23 60 12 85 -19 14 -17 30 -30 36 -30 6 0 11 -4 11 -9 0 -5 12
-11 28 -14 15 -3 37 -15 49 -26 12 -12 27 -21 33 -21 5 0 10 -4 10 -8 0 -4 28
-7 63 -7 34 1 64 -2 67 -6 12 -17 57 -20 73 -5 17 18 58 21 73 6 6 -6 24 -5
49 1 112 29 148 21 227 -56 31 -30 62 -55 68 -55 5 0 10 -6 10 -14 0 -7 20
-32 45 -55 25 -23 45 -46 45 -51 0 -17 42 -22 58 -7 13 13 13 19 2 31 -10 13
-10 16 4 16 10 0 15 4 12 9 -4 5 0 11 6 14 10 3 10 9 1 25 -11 18 -9 23 16 41
16 12 36 21 45 21 9 0 16 7 16 15 0 17 63 85 79 85 6 0 11 5 11 10 0 6 6 10
14 10 8 0 16 5 18 11 2 6 21 11 43 12 55 1 193 -14 178 -20 -39 -14 2 -21 120
-19 90 1 136 5 145 14 13 11 50 16 98 13 12 -1 28 5 37 13 9 9 27 16 41 16 16
0 26 6 26 15 0 8 5 15 10 15 6 0 20 8 31 19 13 11 28 17 41 13 14 -3 19 -1 14
6 -7 12 10 17 52 13 12 -1 22 3 22 9 0 5 16 10 35 10 19 0 35 5 35 11 0 7 9
20 21 30 12 10 18 23 14 30 -4 6 -1 15 6 20 10 6 13 25 12 64 l-3 56 48 -4
c27 -2 53 -6 58 -9 5 -3 80 -4 167 -3 123 2 161 5 169 16 7 11 11 11 15 2 6
-16 219 -18 228 -3 3 6 11 10 17 10 7 0 6 -6 -2 -15 -11 -13 -8 -15 19 -15 17
0 31 5 31 10 0 21 223 -1 331 -32 40 -11 89 -48 89 -67 0 -6 5 -11 11 -11 14
0 39 -25 39 -39 0 -6 5 -11 10 -11 6 0 10 -9 10 -20 0 -11 5 -20 10 -20 6 0
10 -6 10 -13 0 -7 11 -23 25 -36 25 -21 26 -25 23 -121 -2 -55 -6 -100 -10
-100 -5 0 -8 -7 -8 -15 0 -8 -4 -15 -8 -15 -5 0 -15 -11 -22 -25 -7 -14 -19
-25 -27 -25 -14 0 -18 -37 -5 -57 8 -12 162 -13 162 0 0 4 18 7 41 7 22 0 38
4 34 9 -3 5 4 12 15 16 11 4 18 10 15 14 -2 5 16 26 40 47 24 22 45 45 45 52
0 6 5 12 10 12 6 0 10 7 10 15 0 8 5 15 10 15 6 0 10 6 10 14 0 8 6 21 13 28
8 7 17 30 21 51 4 20 11 37 16 37 15 0 12 27 -2 33 -10 4 -10 6 0 6 6 1 12 10
12 20 0 11 -6 22 -12 24 -10 4 -10 6 0 6 13 1 17 31 3 31 -8 0 4 88 14 98 3 3
18 5 35 4 16 0 30 3 30 8 0 4 11 11 25 14 14 4 25 13 25 21 0 8 5 15 11 15 20
0 39 33 27 48 -8 9 -5 20 14 40 20 21 27 41 30 87 5 54 3 62 -21 85 -14 14
-31 34 -37 45 -16 30 -59 47 -131 53 -60 5 -63 6 -63 31 0 14 7 48 15 75 17
57 20 106 5 106 -5 0 -10 9 -10 20 0 11 -4 20 -10 20 -5 0 -10 11 -10 25 0 25
-14 45 -82 116 -23 25 -46 39 -61 39 -13 0 -34 9 -47 20 -13 11 -29 20 -37 20
-7 0 -13 5 -13 10 0 6 -16 10 -35 10 -19 0 -35 -4 -35 -10 0 -5 -17 -10 -38
-10 -63 0 -72 -18 -72 -147 0 -60 -5 -125 -11 -144 -16 -52 -43 -109 -51 -109
-5 0 -8 -5 -8 -11 0 -13 -25 -39 -38 -39 -6 0 -12 -5 -14 -11 -2 -7 -39 -11
-98 -11 -960 2 -941 2 -957 18 -14 13 -13 17 5 37 19 20 20 27 10 65 -9 35
-16 44 -38 49 -16 3 -30 13 -33 24 -4 16 -15 19 -76 19 -41 0 -71 -4 -71 -10
0 -5 -17 -10 -38 -10 -34 0 -40 4 -55 34 -10 22 -14 47 -10 70 4 24 2 36 -6
36 -6 0 -11 7 -11 15 0 8 -4 15 -10 15 -5 0 -10 7 -10 15 0 10 -10 15 -33 15
-21 0 -38 7 -47 20 -8 11 -20 20 -27 20 -7 0 -13 5 -13 10 0 6 -7 10 -15 10
-8 0 -15 3 -15 8 0 8 -71 32 -95 32 -8 0 -15 5 -15 10 0 15 -68 12 -73 -2 -4
-10 -7 -10 -18 -1 -16 15 -129 18 -129 3 0 -5 -16 -10 -35 -10 -19 0 -35 -4
-35 -10 0 -5 -10 -10 -22 -10 -12 0 -30 -8 -40 -17 -11 -10 -29 -18 -41 -19
-12 -1 -35 -6 -50 -13 -60 -24 -137 -8 -137 28 0 6 -4 11 -10 11 -5 0 -10 6
-10 14 0 8 -13 28 -30 46 -16 18 -30 35 -30 39 0 4 -13 14 -29 24 -32 18 -91
23 -91 7 0 -5 -4 -10 -10 -10 -10 0 -48 -32 -104 -87 -18 -18 -43 -33 -54 -33
-12 0 -27 -9 -34 -20 -7 -11 -18 -20 -24 -20 -6 0 -17 -7 -24 -15 -7 -8 -21
-15 -30 -15 -10 0 -20 -5 -22 -11 -5 -15 -88 -25 -97 -11 -9 15 -171 25 -171
11 0 -6 -6 -9 -13 -6 -15 6 -145 -23 -167 -38 -8 -5 -23 -8 -32 -7 -10 2 -18
-2 -18 -7 0 -6 -6 -11 -14 -11 -8 0 -27 -13 -43 -29 -28 -27 -29 -28 -73 -14
-46 13 -90 10 -90 -7 0 -5 -7 -7 -14 -4 -19 7 -76 -26 -76 -43 0 -7 -7 -13
-15 -13 -8 0 -15 -5 -15 -11 0 -6 -7 -17 -15 -25 -22 -23 -21 -137 2 -160 17
-16 6 -17 -199 -10 -135 5 -218 4 -222 -2 -3 -6 -55 -9 -121 -7 -63 2 -117 -1
-120 -5 -2 -4 -23 -4 -47 0 -23 5 -48 5 -56 2 -10 -3 -13 -1 -8 6 4 7 1 12 -8
12 -11 0 -9 7 9 26 29 32 31 44 8 45 -11 0 -13 3 -5 6 22 9 14 78 -13 109 -14
16 -29 34 -34 39 -56 66 -143 90 -226 62 l-45 -16 0 44 c0 24 -4 47 -10 50 -5
3 -10 17 -10 31 0 13 -4 24 -10 24 -5 0 -10 6 -10 13 0 8 -9 22 -20 32 -11 10
-20 23 -20 29 0 7 -9 18 -20 26 -11 8 -20 25 -20 37 0 18 -6 23 -25 23 -14 0
-25 5 -25 10 0 6 -18 10 -39 10 -22 0 -41 5 -44 13 -4 10 -7 10 -18 0 -7 -7
-30 -13 -51 -13 -21 0 -38 -4 -38 -10 0 -5 -6 -10 -14 -10 -8 0 -18 -9 -21
-20 -3 -11 -13 -20 -21 -20 -8 0 -14 -6 -14 -13 0 -7 -9 -19 -20 -27 -11 -8
-20 -20 -20 -27 0 -7 -3 -13 -8 -13 -10 0 -38 -83 -47 -138 -5 -28 -3 -48 5
-57 7 -8 9 -22 6 -31 -7 -19 -50 -12 -77 12 -18 16 -95 19 -104 4 -3 -5 -19
-10 -36 -10 -16 0 -29 -4 -29 -10 0 -5 -6 -10 -13 -10 -8 0 -20 -11 -27 -25
-7 -13 -21 -27 -31 -30 -22 -7 -39 -77 -21 -83 7 -2 9 -14 6 -28 -3 -13 -2
-24 3 -24 4 0 14 -9 21 -20 10 -17 10 -23 -2 -35 -17 -17 -30 -20 -21 -5 3 6
-3 10 -14 10 -12 0 -21 -4 -21 -8 0 -11 -153 -3 -164 8 -13 13 -76 13 -76 0 0
-5 -20 -10 -45 -10 -25 0 -45 5 -45 10 0 13 -37 13 -42 0 -4 -12 -597 -18
-616 -6 -7 4 -21 5 -31 1 -14 -4 -23 0 -31 15 -8 15 -8 20 1 20 8 0 8 4 -1 15
-9 10 -9 15 -1 15 6 0 11 7 11 15 0 23 -92 105 -117 105 -13 0 -23 5 -23 11 0
11 -15 10 -85 -7 -16 -4 -37 -15 -46 -26 -21 -23 -31 -23 -49 2 -8 11 -21 20
-30 20 -9 0 -22 9 -30 20 -8 11 -18 20 -23 20 -12 0 -37 26 -37 39 0 6 -12 13
-27 16 -16 3 -41 13 -58 22 -26 14 -62 24 -175 50 -14 3 -33 12 -42 21 -10 8
-24 12 -32 9 -8 -3 -22 3 -32 14 -9 10 -30 19 -45 19 -15 0 -30 4 -33 9 -6 10
-124 7 -173 -4 -22 -5 -33 -4 -33 4 0 6 -6 11 -13 11 -7 0 -19 9 -27 20 -8 11
-20 20 -27 20 -7 0 -13 4 -13 9 0 4 -25 33 -55 64 -30 30 -55 59 -55 64 0 5
-9 15 -20 23 -11 8 -20 24 -20 36 0 12 -7 27 -15 34 -8 7 -15 18 -15 25 0 28
-48 32 -72 5z m46 -116 c9 -3 16 -12 16 -19 0 -7 7 -15 15 -19 8 -3 15 -13 15
-23 0 -10 10 -23 23 -28 12 -6 23 -20 25 -32 2 -13 8 -23 13 -23 5 0 9 -5 9
-11 0 -16 23 -35 50 -44 14 -4 28 -12 32 -18 10 -16 -3 -37 -23 -37 -10 0 -28
-9 -39 -20 -11 -11 -24 -20 -29 -20 -5 0 -11 -7 -15 -15 -3 -8 -14 -15 -23
-15 -10 0 -25 -9 -33 -20 -8 -11 -18 -20 -23 -20 -5 0 -22 -13 -39 -30 -30
-31 -48 -38 -48 -20 0 6 -4 10 -10 10 -11 0 -60 48 -60 59 0 5 -19 13 -43 19
-23 6 -52 20 -64 32 -12 11 -30 20 -40 20 -10 0 -24 4 -32 9 -20 13 3 41 34
41 15 0 47 22 86 60 34 33 64 60 65 60 9 0 84 79 84 88 0 6 8 13 18 15 9 3 18
5 19 6 1 0 8 -2 17 -5z m5607 -104 c9 -24 21 -46 28 -48 6 -2 11 -8 11 -14 0
-11 25 -38 36 -38 3 0 15 -9 24 -20 18 -21 16 -60 -2 -60 -13 0 -38 -26 -38
-39 0 -6 -7 -11 -15 -11 -8 0 -15 -4 -15 -10 0 -5 -7 -10 -15 -10 -8 0 -15 -4
-15 -10 0 -5 -7 -10 -15 -10 -8 0 -15 -4 -15 -9 0 -20 -34 -21 -52 -1 -11 12
-33 23 -49 27 -16 3 -29 9 -29 14 0 5 -5 9 -11 9 -7 0 -19 8 -28 19 -9 10 -28
19 -43 19 -27 0 -58 22 -58 40 0 11 78 52 98 52 7 0 12 7 12 15 0 8 6 15 13
15 7 0 23 10 34 23 27 30 61 57 72 57 5 0 11 9 14 21 9 35 40 19 58 -31z
m-19086 19 c5 -5 22 -9 37 -9 15 0 28 -4 28 -10 0 -5 6 -10 13 -10 7 0 19 -9
27 -20 8 -11 20 -20 26 -20 7 0 15 -13 19 -30 4 -16 10 -30 15 -30 4 0 6 -9 3
-20 -3 -11 -1 -20 5 -20 5 0 14 -17 18 -37 11 -49 11 -192 1 -196 -14 -4 -30
-91 -18 -95 6 -2 11 -10 11 -18 0 -26 25 -14 48 22 13 20 21 42 18 50 -3 8 -1
14 4 14 6 0 10 7 10 15 0 8 5 15 11 15 6 0 8 8 4 19 -4 12 3 28 18 45 32 34
114 38 137 6 8 -11 20 -20 28 -20 16 0 42 -24 42 -39 0 -6 3 -11 8 -11 4 0 12
-11 19 -25 6 -14 7 -25 2 -25 -12 0 -11 -28 1 -32 13 -4 -33 -58 -50 -58 -7 0
-10 -7 -6 -15 6 -17 5 -17 -103 -19 -39 0 -75 -6 -82 -13 -15 -15 -3 -63 16
-63 8 0 15 -3 15 -7 0 -5 198 -8 441 -7 371 0 442 3 450 15 7 12 10 12 18 0
12 -19 94 -27 112 -10 10 10 49 14 146 14 72 1 129 -3 127 -7 -3 -4 2 -8 10
-8 9 0 16 4 16 8 0 5 28 4 63 -3 34 -6 78 -10 97 -8 84 8 134 6 138 -5 2 -7
10 -12 17 -12 7 0 25 -13 38 -30 14 -16 30 -30 36 -30 6 0 11 -4 11 -10 0 -5
11 -10 25 -10 15 0 28 -7 32 -17 4 -10 14 -25 23 -33 26 -23 13 -40 -31 -40
-24 0 -39 -5 -40 -12 0 -10 -2 -10 -6 0 -3 8 -37 12 -119 12 -84 0 -114 -3
-114 -12 0 -10 -2 -10 -8 -1 -8 13 -350 24 -358 12 -6 -11 -264 -9 -264 2 0 5
-7 9 -15 9 -8 0 -15 -4 -15 -8 0 -4 -17 -7 -37 -5 -122 8 -601 9 -617 0 -12
-6 -21 -5 -26 2 -4 7 -22 11 -41 10 -19 -1 -62 2 -96 6 l-63 8 0 -31 c0 -30 2
-32 51 -38 28 -4 53 -13 56 -20 3 -8 11 -14 19 -14 8 0 14 -4 14 -10 0 -5 12
-10 28 -10 30 -1 62 -21 62 -39 0 -6 6 -11 13 -11 8 0 19 -11 25 -25 6 -14 16
-25 21 -25 21 0 24 -68 4 -102 -20 -37 -38 -58 -49 -58 -3 0 -15 -9 -25 -21
-16 -18 -21 -19 -60 -9 -33 9 -44 9 -50 -2 -7 -10 -9 -10 -9 0 0 6 -5 12 -11
12 -6 0 -47 37 -90 82 -67 70 -82 81 -97 72 -27 -17 -25 -36 8 -71 17 -18 30
-43 30 -58 0 -14 5 -34 12 -44 9 -15 9 -28 0 -59 -7 -22 -12 -65 -12 -96 0
-43 -3 -56 -15 -56 -8 0 -15 -7 -15 -15 0 -16 -25 -20 -95 -16 -42 2 -85 19
-85 33 0 5 -16 22 -34 39 -21 18 -33 36 -29 45 3 8 1 14 -5 14 -5 0 -6 15 -2
38 10 48 20 72 31 72 16 0 69 82 69 107 0 18 -5 23 -24 23 -26 0 -42 -15 -48
-45 -2 -11 -10 -19 -19 -17 -20 3 -69 -42 -69 -63 0 -8 -9 -15 -20 -15 -11 0
-20 -4 -20 -10 0 -19 -63 -10 -116 16 -29 14 -51 31 -48 37 2 7 -19 37 -46 66
-39 42 -50 62 -50 87 0 18 5 36 10 39 6 3 10 17 10 31 0 25 40 74 59 74 14 0
26 49 15 60 -15 14 -1191 23 -1879 15 -215 -3 -304 6 -329 31 -8 8 -20 14 -26
14 -6 0 -19 7 -28 16 -14 15 -14 17 1 26 9 5 17 20 17 33 0 18 7 26 25 31 14
3 25 10 25 15 0 5 7 9 15 9 8 0 15 5 15 10 0 6 7 10 15 10 8 0 15 -4 15 -10 0
-14 104 -12 119 2 8 7 11 8 8 2 -5 -8 52 -11 209 -10 118 1 217 0 219 -4 2 -3
49 -7 104 -8 73 -2 106 1 123 11 26 16 93 16 110 -1 10 -10 53 -8 88 5 24 9
129 10 124 1 -3 -4 2 -8 10 -8 9 0 16 4 16 9 0 5 77 7 178 5 449 -8 686 -7
690 5 2 6 22 11 43 11 24 0 38 -4 34 -10 -4 -6 9 -10 33 -10 31 0 41 5 52 24
11 21 10 27 -2 40 -9 8 -24 13 -34 10 -12 -3 -31 7 -51 26 -18 16 -35 30 -38
30 -10 0 -54 47 -49 52 2 3 -7 17 -20 31 -18 19 -21 27 -11 27 20 0 19 27 0
38 -13 7 -10 13 16 33 18 13 38 30 46 37 8 8 13 9 13 3 0 -15 27 -14 33 2 4 9
8 9 15 -2 6 -8 18 -11 30 -7 15 5 27 0 43 -18 13 -15 31 -26 41 -26 10 0 18
-4 18 -10 0 -5 7 -10 16 -10 9 0 29 -13 44 -30 15 -16 31 -30 35 -30 10 0 35
-28 35 -40 0 -6 7 -13 15 -16 8 -4 15 -12 15 -20 0 -16 39 -54 56 -54 24 0 27
40 5 64 -12 12 -18 26 -14 29 3 4 2 7 -4 7 -6 0 -9 9 -6 20 3 11 0 20 -6 20
-6 0 -11 5 -11 11 0 17 -27 39 -49 39 -12 0 -29 10 -39 21 -9 12 -22 27 -28
33 -6 7 -15 23 -19 36 -4 14 -13 29 -20 35 -19 15 -25 88 -9 103 8 7 14 24 14
37 0 16 18 43 53 79 l52 53 55 -5 c30 -2 59 -8 65 -13z m5220 0 c5 -5 22 -9
37 -9 15 0 28 -4 28 -10 0 -5 6 -10 13 -10 7 0 19 -9 27 -20 8 -11 20 -20 26
-20 7 0 15 -13 19 -30 4 -16 10 -30 15 -30 4 0 6 -9 3 -20 -3 -11 -1 -20 5
-20 5 0 14 -17 18 -37 11 -49 11 -192 1 -196 -14 -4 -30 -91 -18 -95 6 -2 11
-10 11 -18 0 -26 25 -14 48 22 13 20 21 42 18 50 -3 8 -1 14 4 14 6 0 10 7 10
15 0 8 5 15 11 15 6 0 8 8 4 19 -4 12 3 28 18 45 32 34 114 38 137 6 8 -11 20
-20 28 -20 16 0 42 -24 42 -39 0 -6 3 -11 8 -11 4 0 12 -11 19 -25 6 -14 7
-25 2 -25 -12 0 -11 -28 1 -32 13 -4 -33 -58 -50 -58 -7 0 -10 -7 -6 -15 6
-17 5 -17 -103 -19 -39 0 -75 -6 -82 -13 -15 -15 -3 -63 16 -63 8 0 15 -3 15
-7 0 -5 198 -8 441 -7 371 0 442 3 450 15 7 12 10 12 18 0 12 -19 94 -27 112
-10 10 10 49 14 146 14 72 1 129 -3 127 -7 -3 -4 2 -8 10 -8 9 0 16 4 16 8 0
5 28 4 63 -3 34 -6 78 -10 97 -8 84 8 134 6 138 -5 2 -7 10 -12 17 -12 7 0 25
-13 38 -30 14 -16 30 -30 36 -30 6 0 11 -4 11 -10 0 -5 11 -10 25 -10 15 0 28
-7 32 -17 4 -10 14 -25 23 -33 26 -23 13 -40 -31 -40 -24 0 -39 -5 -40 -12 0
-10 -2 -10 -6 0 -3 8 -37 12 -119 12 -84 0 -114 -3 -114 -12 0 -10 -2 -10 -8
-1 -8 13 -350 24 -358 12 -6 -11 -264 -9 -264 2 0 5 -7 9 -15 9 -8 0 -15 -4
-15 -8 0 -4 -17 -7 -37 -5 -122 8 -601 9 -617 0 -12 -6 -21 -5 -26 2 -4 7 -22
11 -41 10 -19 -1 -62 2 -96 6 l-63 8 0 -31 c0 -30 2 -32 51 -38 28 -4 53 -13
56 -20 3 -8 11 -14 19 -14 8 0 14 -4 14 -10 0 -5 12 -10 28 -10 30 -1 62 -21
62 -39 0 -6 6 -11 13 -11 8 0 19 -11 25 -25 6 -14 16 -25 21 -25 21 0 24 -68
4 -102 -20 -37 -38 -58 -49 -58 -3 0 -15 -9 -25 -21 -16 -18 -21 -19 -60 -9
-33 9 -44 9 -50 -2 -7 -10 -9 -10 -9 0 0 6 -5 12 -11 12 -6 0 -47 37 -90 82
-67 70 -82 81 -97 72 -27 -17 -25 -36 8 -71 17 -18 30 -43 30 -58 0 -14 5 -34
12 -44 9 -15 9 -28 0 -59 -7 -22 -12 -65 -12 -96 0 -43 -3 -56 -15 -56 -8 0
-15 -7 -15 -15 0 -16 -25 -20 -95 -16 -42 2 -85 19 -85 33 0 5 -16 22 -34 39
-21 18 -33 36 -29 45 3 8 1 14 -5 14 -5 0 -6 15 -2 38 10 48 20 72 31 72 16 0
69 82 69 107 0 18 -5 23 -24 23 -26 0 -42 -15 -48 -45 -2 -11 -10 -19 -19 -17
-20 3 -69 -42 -69 -63 0 -8 -9 -15 -20 -15 -11 0 -20 -4 -20 -10 0 -19 -63
-10 -116 16 -29 14 -51 31 -48 37 2 7 -19 37 -46 66 -39 42 -50 62 -50 87 0
18 5 36 10 39 6 3 10 17 10 31 0 25 40 74 59 74 14 0 26 49 15 60 -12 11 -863
18 -867 7 -2 -8 -634 -17 -642 -9 -2 3 -119 5 -260 5 -140 0 -255 4 -255 9 0
4 -7 8 -15 8 -8 0 -15 5 -15 10 0 6 -7 10 -15 10 -13 0 -13 4 -3 22 18 31 35
48 47 48 6 0 11 6 11 14 0 8 13 17 29 21 16 3 32 13 35 21 3 8 17 14 31 14 15
0 34 7 42 16 14 14 61 16 397 14 210 -1 409 2 444 7 34 5 62 6 62 1 0 -4 6 -8
14 -8 8 0 16 -6 19 -12 3 -10 9 -9 23 3 14 12 51 18 147 23 117 6 127 5 127
-11 0 -17 17 -18 252 -17 179 1 253 5 256 13 2 6 22 11 43 11 24 0 38 -4 34
-10 -4 -6 9 -10 33 -10 31 0 41 5 52 24 11 21 10 27 -2 40 -9 8 -24 13 -34 10
-12 -3 -31 7 -51 26 -18 16 -35 30 -38 30 -10 0 -54 47 -49 52 2 3 -7 17 -20
31 -18 19 -21 27 -11 27 20 0 19 27 0 38 -13 7 -10 13 16 33 18 13 38 30 46
37 8 8 13 9 13 3 0 -15 27 -14 33 2 4 9 8 9 15 -2 6 -8 18 -11 30 -7 15 5 27
0 43 -18 13 -15 31 -26 41 -26 10 0 18 -4 18 -10 0 -5 7 -10 16 -10 9 0 29
-13 44 -30 15 -16 31 -30 35 -30 10 0 35 -28 35 -40 0 -6 7 -13 15 -16 8 -4
15 -12 15 -20 0 -16 39 -54 56 -54 24 0 27 40 5 64 -12 12 -18 26 -14 29 3 4
2 7 -4 7 -6 0 -9 9 -6 20 3 11 0 20 -6 20 -6 0 -11 5 -11 11 0 17 -27 39 -49
39 -12 0 -29 10 -39 21 -9 12 -22 27 -28 33 -6 7 -15 23 -19 36 -4 14 -13 29
-20 35 -19 15 -25 88 -9 103 8 7 14 24 14 37 0 16 18 43 53 79 l52 53 55 -5
c30 -2 59 -8 65 -13z m11393 -30 c19 -18 32 -40 32 -55 0 -13 4 -24 9 -24 4 0
16 -29 25 -64 18 -64 16 -118 -6 -163 -16 -33 20 -67 61 -58 27 6 32 12 37 47
5 28 13 42 25 45 11 3 19 10 19 15 0 6 20 7 52 3 44 -6 60 -15 95 -51 40 -40
43 -47 43 -98 0 -44 -4 -59 -22 -76 -12 -11 -29 -18 -38 -15 -9 3 -25 -4 -35
-15 -10 -11 -24 -20 -30 -20 -19 0 -29 -51 -13 -61 20 -13 74 -10 86 4 9 11
86 14 366 15 247 0 362 4 377 12 14 8 38 9 68 5 25 -5 111 -9 191 -10 80 -1
180 -6 223 -10 55 -5 77 -4 77 4 0 15 27 14 33 -1 4 -9 8 -10 14 -2 5 7 76 11
199 13 l191 2 18 -25 c11 -14 33 -28 49 -32 32 -7 56 -26 56 -43 0 -6 7 -11
15 -11 8 0 15 -4 15 -10 0 -5 6 -10 14 -10 8 0 16 -7 20 -15 3 -9 0 -15 -10
-15 -8 0 -12 -5 -9 -10 3 -5 1 -10 -5 -10 -6 0 -8 -5 -5 -10 3 -5 1 -10 -4
-10 -6 0 -20 -9 -31 -20 -20 -20 -86 -26 -210 -20 -157 7 -607 5 -618 -3 -15
-12 -144 -10 -152 2 -3 5 -48 8 -100 6 -52 -2 -277 -5 -498 -6 -393 -2 -404
-2 -423 -22 -26 -28 -24 -35 9 -43 15 -4 34 -12 42 -19 8 -7 36 -22 63 -34 26
-12 47 -28 47 -36 0 -8 5 -15 11 -15 6 0 8 -7 5 -17 -4 -9 -1 -20 6 -24 7 -4
14 -36 16 -71 5 -79 -12 -100 -82 -100 -27 0 -46 -4 -46 -11 0 -6 -15 3 -33
21 -18 18 -41 32 -50 32 -9 0 -17 5 -17 10 0 6 -5 10 -11 10 -13 0 -33 20 -42
43 -3 9 -13 17 -20 17 -8 0 -20 7 -27 15 -7 8 -25 15 -41 15 -41 0 -40 -39 1
-63 22 -13 30 -26 30 -46 0 -15 8 -36 18 -47 17 -19 26 -114 10 -114 -5 0 -8
-7 -8 -15 0 -8 -4 -15 -10 -15 -5 0 -10 -5 -10 -11 0 -27 -43 -49 -94 -49 -43
0 -58 6 -101 38 -40 30 -51 45 -56 75 -3 20 -9 40 -12 44 -4 3 -1 16 7 28 8
12 18 38 21 57 6 31 4 36 -16 41 -12 3 -28 3 -34 -1 -28 -16 -75 -62 -75 -71
0 -6 -19 -11 -42 -12 -113 -3 -161 0 -167 9 -3 6 -20 12 -36 14 -27 3 -30 7
-30 37 0 19 -6 36 -12 38 -15 5 -5 62 15 82 7 8 11 22 9 32 -8 28 44 79 80 79
35 0 78 33 70 54 -3 8 -18 23 -33 33 -24 15 -52 18 -186 19 -87 1 -160 3 -163
5 -4 4 -200 3 -370 -2 -60 -2 -113 -8 -117 -14 -5 -6 -8 -5 -8 2 0 10 -56 13
-247 11 -137 -1 -258 2 -270 6 -12 4 -24 3 -26 -1 -7 -12 -733 -7 -792 5 -29
6 -54 7 -61 1 -15 -12 -84 9 -84 26 0 8 -4 15 -10 15 -5 0 -10 7 -10 15 0 8
-5 15 -11 15 -18 0 -39 27 -39 50 0 16 4 20 18 16 18 -6 62 32 62 53 0 16 34
17 210 9 96 -4 378 -6 625 -4 742 6 1234 6 1338 0 l97 -6 0 36 c0 20 -5 36
-11 36 -5 0 -8 4 -5 9 3 5 -10 12 -29 15 -20 4 -33 11 -29 17 3 6 -4 18 -15
28 -12 10 -21 24 -21 30 0 6 -7 23 -16 37 -16 24 -16 26 11 54 25 26 32 28 79
23 28 -3 53 -10 54 -15 2 -4 15 -8 28 -8 14 0 27 -7 30 -15 4 -8 12 -15 20
-15 8 0 14 -4 14 -10 0 -5 7 -10 15 -10 8 0 15 -4 15 -9 0 -5 13 -11 29 -14
22 -5 31 -13 36 -37 4 -16 11 -30 16 -30 5 0 9 -5 9 -11 0 -19 28 -39 55 -39
52 0 68 47 24 71 -13 6 -19 21 -19 44 0 18 -7 40 -15 49 -8 8 -15 19 -15 24 0
6 -5 12 -10 14 -6 2 -13 27 -17 56 -3 28 -10 52 -14 52 -5 0 -9 14 -9 30 0 17
5 30 10 30 15 0 12 40 -2 41 -10 0 -10 2 0 6 15 6 16 30 2 35 -13 4 42 68 57
68 6 0 13 7 17 15 4 12 23 15 83 15 73 0 80 -2 111 -31z m-14074 -59 c10 -38
22 -70 27 -70 5 0 9 -9 9 -19 0 -11 4 -22 9 -26 12 -7 41 -64 41 -81 0 -7 6
-19 14 -26 35 -36 29 -54 -39 -122 -44 -44 -74 -66 -90 -66 -15 0 -47 24 -97
73 -76 77 -125 114 -135 104 -3 -3 -12 0 -20 8 -12 13 -7 22 40 67 70 68 95
88 107 88 6 0 10 8 10 18 0 10 18 35 40 56 22 21 40 44 40 52 0 8 6 14 13 14
8 0 20 -28 31 -70z m5220 0 c10 -38 22 -70 27 -70 5 0 9 -9 9 -19 0 -11 4 -22
9 -26 12 -7 41 -64 41 -81 0 -7 6 -19 14 -26 35 -36 29 -54 -39 -122 -44 -44
-74 -66 -90 -66 -15 0 -47 24 -97 73 -76 77 -125 114 -135 104 -3 -3 -12 0
-20 8 -12 13 -7 22 40 67 70 68 95 88 107 88 6 0 10 8 10 18 0 10 18 35 40 56
22 21 40 44 40 52 0 8 6 14 13 14 8 0 20 -28 31 -70z m3043 8 c18 -7 33 -17
33 -24 0 -6 14 -14 30 -18 24 -4 32 -12 36 -36 4 -16 13 -30 20 -30 8 0 14 -9
14 -19 0 -11 5 -21 12 -23 16 -6 14 -98 -2 -108 -7 -4 -9 -13 -6 -19 8 -12
-16 -41 -32 -41 -10 0 -22 -23 -22 -41 0 -5 14 -9 30 -9 17 0 30 5 30 10 0 6
7 10 15 10 8 0 15 5 15 10 0 6 5 10 11 10 18 0 36 25 44 58 5 26 13 34 36 39
16 3 29 9 29 14 0 5 7 9 15 9 8 0 15 -4 15 -10 0 -5 7 -10 16 -10 28 0 72 -32
89 -64 8 -17 19 -56 23 -87 8 -49 6 -59 -9 -70 -23 -17 -36 -69 -19 -79 7 -4
30 -5 52 -2 28 3 43 1 49 -9 8 -12 10 -12 18 0 6 10 24 12 72 7 35 -4 257 -7
494 -7 300 0 434 -4 443 -12 10 -8 18 -8 32 1 12 7 29 8 50 2 18 -5 40 -6 49
-2 9 4 67 7 129 7 61 0 112 2 112 5 0 11 112 11 223 -1 107 -11 108 -11 147
-51 22 -22 40 -46 40 -53 0 -8 9 -19 21 -25 14 -8 19 -19 17 -38 l-3 -27 -125
-2 c-69 -1 -209 -3 -312 -4 -104 -1 -188 -4 -188 -8 0 -3 -33 -6 -72 -6 -40 0
-107 -1 -148 -3 -41 -1 -258 0 -482 2 -229 2 -408 0 -408 -5 0 -15 -79 -10
-110 6 -18 9 -31 11 -35 5 -8 -12 -192 -13 -199 -1 -3 5 -22 12 -41 15 -19 4
-35 11 -35 15 0 7 -52 8 -82 2 -12 -2 -9 -31 2 -31 6 0 10 -7 10 -16 0 -10 6
-13 19 -9 10 3 23 -1 30 -9 6 -8 27 -17 45 -20 18 -4 48 -20 65 -36 17 -17 36
-30 42 -30 15 0 35 -22 44 -50 4 -14 16 -31 26 -37 14 -11 17 -28 17 -95 0
-80 -1 -84 -30 -110 -17 -16 -42 -28 -57 -29 -14 0 -41 -2 -59 -3 -25 -3 -37
2 -56 25 -14 16 -29 29 -35 29 -6 0 -11 5 -11 11 0 6 -7 8 -16 5 -16 -6 -44
15 -44 33 0 6 -5 11 -10 11 -6 0 -20 9 -32 20 -29 27 -45 25 -51 -6 -6 -35 26
-145 53 -185 24 -32 24 -29 -7 -159 -10 -44 -22 -50 -82 -46 -31 2 -66 5 -78
5 -22 1 -83 55 -83 72 0 5 -7 9 -15 9 -16 0 -18 6 -15 65 1 22 9 44 18 51 9 6
13 18 9 28 -7 18 36 96 53 96 6 0 10 7 10 16 0 8 7 22 15 31 19 19 3 43 -28
43 -21 0 -67 -46 -67 -67 0 -7 -4 -13 -9 -13 -5 0 -12 -12 -15 -26 -9 -33 -44
-63 -74 -64 -13 0 -30 -6 -38 -14 -14 -15 -54 -11 -54 5 0 5 -10 9 -22 9 -27
0 -68 38 -61 56 3 8 -1 24 -9 37 -18 27 -16 146 3 157 6 5 9 15 6 23 -3 9 16
36 50 71 l54 57 -21 19 c-19 17 -42 19 -216 19 -149 1 -194 -2 -195 -11 0 -10
-2 -10 -6 0 -6 16 -93 16 -94 0 0 -10 -2 -10 -6 0 -6 16 -43 16 -44 0 0 -10
-2 -10 -6 0 -6 14 -83 17 -83 2 0 -14 -157 -13 -162 1 -5 14 -360 21 -369 7
-6 -9 -635 -19 -644 -10 -2 3 -119 5 -260 5 -140 0 -255 4 -255 9 0 4 -7 8
-15 8 -8 0 -15 5 -15 10 0 6 -7 10 -15 10 -13 0 -13 4 -3 22 18 31 35 48 47
48 6 0 11 6 11 14 0 8 13 17 29 21 16 3 32 13 35 21 3 8 17 14 31 14 15 0 34
7 42 16 14 14 61 16 397 14 210 -1 409 2 444 7 34 5 62 6 62 1 0 -4 6 -8 14
-8 8 0 16 -6 19 -12 3 -10 10 -8 25 5 19 17 40 19 229 18 318 -1 377 -3 384
-14 4 -5 13 -6 20 -2 7 5 58 10 113 11 61 2 102 7 104 13 6 17 26 13 42 -9 16
-23 36 -26 43 -7 4 9 8 8 16 -3 8 -12 13 -11 29 8 24 28 59 29 67 2 7 -23 21
-26 28 -7 4 9 8 9 14 0 13 -17 77 -1 81 21 5 22 -25 56 -50 56 -10 0 -18 5
-18 10 0 6 -7 10 -15 10 -14 0 -85 62 -85 74 0 3 7 6 15 6 20 0 19 17 -2 29
-17 10 -17 10 0 11 20 0 23 20 5 38 -9 9 -9 12 0 12 7 0 12 14 12 31 0 21 10
40 30 61 17 16 30 25 30 19 0 -6 7 -11 15 -11 8 0 15 5 15 10 0 6 6 10 14 10
8 0 16 4 18 10 5 16 77 -6 98 -30 11 -13 26 -20 35 -16 9 3 15 0 15 -9 0 -8 4
-15 9 -15 5 0 11 -9 14 -21 3 -11 14 -23 25 -26 12 -3 22 -16 26 -34 3 -16 10
-29 16 -29 15 0 40 -25 40 -39 0 -6 7 -11 15 -11 8 0 15 -6 15 -14 0 -15 21
-26 50 -26 21 0 25 4 34 41 5 21 2 28 -14 32 -11 3 -23 13 -27 24 -4 10 -17
28 -29 39 -11 12 -24 40 -28 63 -3 23 -10 41 -14 41 -15 0 -11 71 4 77 8 3 14
12 14 20 0 9 -6 13 -14 10 -10 -4 -13 -1 -9 9 3 7 10 14 15 14 6 0 8 10 5 21
-10 37 14 50 107 57 11 1 35 -3 53 -10z m8961 -4 c12 -3 22 -10 22 -15 0 -5
12 -9 28 -9 15 0 40 -7 56 -15 15 -8 34 -15 41 -15 41 0 165 -173 165 -229 0
-11 4 -21 9 -23 4 -1 11 -25 14 -53 6 -46 5 -51 -17 -61 -13 -6 -75 -11 -138
-11 -63 0 -120 -3 -127 -7 -6 -4 -33 3 -59 16 -40 19 -64 23 -157 24 -106 2
-134 -4 -163 -33 -7 -7 -20 -13 -28 -13 -8 0 -14 -6 -14 -14 0 -7 -11 -25 -25
-40 l-25 -27 -120 123 -120 123 35 33 c19 17 44 32 55 32 13 0 20 7 20 18 0
23 41 59 77 68 15 4 34 13 41 21 7 7 22 13 33 13 10 0 19 5 19 10 0 6 7 10 15
10 8 0 15 5 15 10 0 6 6 10 14 10 8 0 18 9 21 20 5 16 15 20 46 20 22 0 39 5
39 11 0 7 11 9 30 6 16 -4 32 -2 36 4 6 11 118 6 162 -7z m-22647 -174 c63 0
65 -41 5 -98 -25 -23 -49 -42 -54 -42 -5 0 -15 -7 -22 -15 -23 -28 -68 -18
-111 24 -22 21 -58 43 -80 50 -22 7 -39 18 -39 26 0 8 -8 15 -17 15 -41 1 -46
16 -15 46 86 83 109 105 130 128 l22 24 82 -79 c44 -43 89 -79 99 -79z m24637
128 c17 -5 32 -16 32 -24 0 -8 7 -14 15 -14 8 0 15 -4 15 -10 0 -5 5 -10 10
-10 18 0 60 -48 60 -69 0 -11 8 -22 18 -26 25 -7 44 -73 37 -127 -11 -76 -14
-84 -40 -98 -20 -11 -25 -21 -25 -52 0 -36 2 -39 23 -32 12 3 24 11 25 15 2 5
34 9 72 9 51 0 69 -4 74 -15 3 -8 13 -15 23 -15 10 0 37 -19 61 -41 45 -44 53
-76 25 -104 -13 -13 -14 -18 -3 -25 19 -12 -24 -68 -58 -76 -15 -4 -35 -12
-45 -19 -22 -15 -159 -9 -169 8 -5 9 -10 9 -20 -1 -6 -6 -20 -12 -30 -12 -11
0 -18 -7 -18 -18 0 -23 19 -42 42 -42 10 0 18 -4 18 -10 0 -5 9 -10 19 -10 29
0 57 -101 42 -151 -6 -20 -11 -51 -11 -68 0 -18 -11 -49 -25 -69 -14 -20 -25
-43 -25 -51 0 -19 -51 -61 -73 -61 -11 0 -21 -8 -23 -18 -5 -18 -47 -42 -75
-42 -12 0 -15 6 -11 25 2 14 8 25 13 25 5 0 9 6 9 14 0 8 6 16 13 18 9 4 12
36 12 118 0 82 -3 114 -12 117 -7 3 -13 11 -13 19 0 8 -4 14 -10 14 -5 0 -10
8 -10 19 0 10 -6 24 -14 30 -8 7 -12 20 -9 31 7 27 -66 100 -109 109 -26 6
-32 11 -30 28 3 23 -20 33 -75 33 -18 0 -33 4 -33 9 0 18 -52 25 -241 30 -24
1 -27 6 -33 52 -4 28 -4 70 -1 92 l7 42 91 -2 c51 -1 99 -2 107 -4 8 -1 41 6
73 16 74 21 147 89 147 135 0 20 5 30 15 30 20 0 30 61 38 225 3 76 13 81 105
53z m-27349 -20 c20 -7 37 -13 39 -14 9 -6 -35 -44 -50 -44 -10 0 -18 -7 -18
-15 0 -8 -4 -15 -8 -15 -33 0 -64 -149 -36 -177 8 -8 14 -24 14 -35 0 -22 35
-58 57 -58 7 0 13 -7 13 -15 0 -8 7 -15 15 -15 8 0 15 -4 15 -8 0 -5 19 -17
43 -28 23 -10 44 -21 47 -24 3 -3 19 -16 36 -27 26 -19 44 -22 142 -21 61 0
115 -3 120 -6 6 -3 4 -29 -4 -63 -8 -32 -14 -73 -14 -90 0 -36 1 -35 -112 -35
-21 0 -38 -4 -38 -9 0 -5 -68 -9 -156 -9 l-156 0 -22 -27 c-11 -15 -26 -44
-32 -64 -12 -41 -10 -119 5 -128 4 -3 12 -17 16 -31 9 -27 28 -50 44 -50 16 0
13 -29 -4 -46 -8 -9 -15 -12 -15 -8 0 3 -6 1 -14 -5 -9 -7 -51 -13 -103 -13
-134 -2 -153 0 -153 16 0 7 -9 16 -20 19 -11 3 -23 13 -27 24 -4 10 -15 25
-25 34 -10 9 -18 21 -18 27 0 6 -5 12 -12 14 -9 3 -9 18 1 64 7 32 15 78 18
102 5 41 4 42 -24 42 -16 0 -33 -3 -37 -7 -4 -4 -25 -13 -47 -19 -31 -9 -49
-9 -83 1 -44 13 -86 45 -86 65 0 6 -3 10 -7 10 -5 0 -17 7 -28 16 -17 12 -20
27 -21 97 -1 58 4 91 15 112 20 38 36 55 52 55 6 0 20 10 30 22 29 33 109 36
211 8 46 -12 85 -26 88 -31 3 -4 16 -6 28 -2 26 6 32 53 7 53 -8 0 -20 9 -27
20 -7 11 -18 20 -24 20 -6 0 -17 11 -24 25 -7 14 -16 25 -20 25 -3 0 -3 30 1
68 5 37 8 72 8 79 1 17 80 93 97 93 8 0 14 4 14 8 0 27 223 42 289 20z m18629
-48 c2 -5 10 -10 18 -10 8 0 14 -4 14 -10 0 -5 14 -10 31 -10 21 0 40 -9 55
-25 13 -14 34 -25 49 -25 14 0 25 -3 25 -7 0 -5 14 -17 30 -28 16 -11 30 -23
30 -28 0 -15 74 -76 101 -82 15 -3 47 -26 72 -51 25 -24 48 -44 52 -44 13 0
34 -28 41 -54 3 -14 12 -26 20 -26 8 0 14 -5 14 -11 0 -6 14 -24 31 -40 17
-16 27 -29 23 -29 -5 0 3 -10 17 -23 14 -12 24 -28 22 -34 -3 -7 3 -13 12 -13
9 0 14 -4 11 -9 -9 -14 72 -91 103 -97 20 -4 31 -14 35 -30 5 -19 13 -24 40
-24 19 0 36 -4 38 -10 2 -5 31 -11 65 -12 35 -2 63 -7 63 -11 0 -12 132 0 140
12 8 14 412 10 417 -4 2 -6 -10 -25 -27 -43 -16 -18 -30 -37 -30 -43 0 -5 -7
-9 -15 -9 -8 0 -15 -5 -15 -11 0 -14 -25 -39 -39 -39 -6 0 -11 -7 -11 -15 0
-8 -4 -15 -9 -15 -5 0 -23 -13 -39 -30 -17 -16 -35 -30 -41 -30 -6 0 -11 -4
-11 -10 0 -5 -16 -10 -35 -10 -19 0 -35 -5 -35 -11 0 -6 -9 -8 -20 -4 -12 4
-26 0 -35 -9 -9 -8 -22 -13 -30 -9 -9 3 -28 0 -43 -6 -44 -18 -113 -19 -147
-3 -16 9 -38 19 -47 24 -10 4 -28 8 -41 8 -13 0 -29 6 -35 12 -10 10 -15 10
-22 -2 -7 -10 -10 -11 -10 -2 0 6 -9 12 -20 12 -22 0 -72 20 -81 34 -4 4 -13
6 -20 4 -8 -3 -25 6 -39 19 -14 13 -35 23 -47 23 -13 0 -23 5 -23 10 0 6 -5
10 -11 10 -7 0 -20 10 -30 21 -12 14 -26 20 -39 16 -11 -3 -27 1 -34 9 -8 8
-19 14 -25 14 -6 0 -11 5 -11 11 0 15 -95 109 -109 109 -6 0 -11 4 -11 10 0
13 -26 45 -72 88 -20 19 -34 41 -31 48 3 8 0 14 -7 14 -17 0 -36 22 -44 53 -3
15 -11 27 -16 27 -6 0 -10 7 -10 15 0 8 -14 17 -34 21 -19 3 -46 19 -60 35
-15 16 -35 29 -47 29 -11 0 -30 5 -41 11 -26 14 -431 13 -436 -1 -7 -19 -61
-10 -88 14 l-28 23 22 12 c16 8 22 21 22 45 0 19 7 39 15 46 9 7 13 20 10 28
-8 21 108 131 145 139 16 3 35 12 41 19 7 8 31 14 59 14 29 0 52 6 59 14 10
11 33 14 109 10 53 -2 98 -8 100 -14z m-15354 3 c4 -4 34 -13 67 -20 32 -6 66
-19 75 -27 8 -9 24 -16 35 -16 26 0 109 -84 109 -110 0 -13 9 -22 25 -26 16
-4 25 -13 25 -25 0 -10 4 -19 9 -19 5 0 12 -11 15 -25 4 -14 10 -25 15 -25 9
0 7 -88 -3 -97 -2 -3 -15 -5 -28 -4 -13 0 -86 1 -164 1 -136 0 -142 1 -168 25
-14 13 -26 30 -27 37 0 10 -2 10 -6 1 -6 -15 -33 -17 -33 -3 0 6 -7 10 -15 10
-8 0 -15 -4 -15 -8 0 -5 -14 -9 -32 -9 -18 0 -34 -5 -36 -11 -2 -7 -10 -12
-18 -12 -8 0 -14 -4 -14 -10 0 -5 -5 -10 -11 -10 -7 0 -19 -8 -28 -18 -9 -9
-29 -24 -44 -31 -16 -9 -26 -20 -23 -28 3 -7 -1 -13 -10 -13 -10 0 -14 -6 -10
-15 3 -9 0 -15 -9 -15 -7 0 -15 -8 -17 -17 -3 -16 -4 -16 -20 0 -9 9 -21 17
-27 17 -6 0 -11 5 -11 10 0 6 -7 10 -15 10 -8 0 -15 5 -15 10 0 6 -4 10 -10
10 -5 0 -29 18 -52 40 -24 22 -49 40 -55 40 -7 0 -13 7 -13 15 0 9 -12 18 -30
21 -24 5 -30 12 -30 33 0 31 16 51 42 51 10 0 18 5 18 11 0 14 25 39 39 39 6
0 11 5 11 10 0 6 9 10 21 10 12 0 47 25 82 60 53 51 67 60 98 60 22 0 39 6 42
14 3 8 24 17 46 21 23 4 41 11 41 16 0 5 20 9 44 9 25 0 48 5 51 10 7 11 68
14 79 3z m16406 -17 c8 -7 28 -16 43 -20 16 -4 40 -18 54 -32 13 -13 28 -22
34 -19 5 3 18 -3 30 -14 12 -11 35 -23 50 -26 16 -4 29 -11 29 -16 0 -5 4 -9
10 -9 5 0 28 -18 52 -40 24 -22 49 -40 56 -40 6 0 12 -5 12 -11 0 -13 25 -39
38 -39 16 0 20 -35 7 -53 -14 -20 -45 -23 -46 -4 0 9 -2 9 -6 -1 -4 -10 -8
-10 -21 0 -12 10 -16 10 -19 1 -3 -7 -11 -13 -18 -13 -7 0 -16 6 -19 13 -5 10
-7 10 -12 0 -4 -9 -31 -13 -85 -13 -47 0 -78 4 -74 9 3 5 -14 9 -40 8 -25 -1
-45 -5 -45 -9 0 -11 -94 -10 -106 2 -5 5 -35 11 -66 14 -42 4 -61 2 -72 -9 -8
-8 -24 -15 -35 -15 -12 0 -31 -11 -43 -25 -12 -14 -28 -25 -35 -25 -7 0 -13
-7 -13 -15 0 -20 -49 -9 -71 17 -9 10 -20 18 -23 18 -14 0 -37 30 -31 39 3 5
1 12 -5 16 -6 4 -8 10 -5 15 3 5 -3 13 -12 19 -10 6 -14 11 -10 11 4 0 -12 19
-37 43 -26 24 -46 48 -46 55 0 6 26 31 58 54 31 24 59 46 62 49 3 3 17 9 33
13 15 3 27 11 27 16 0 6 7 10 15 10 8 0 15 4 15 10 0 5 7 7 15 3 9 -3 23 2 33
10 20 18 78 23 212 19 59 -2 101 -8 110 -16z m4555 5 c82 -17 129 -34 147 -54
10 -12 24 -16 35 -13 13 4 28 -3 47 -23 16 -17 41 -33 57 -36 15 -3 41 -19 58
-36 17 -16 33 -29 37 -29 7 0 34 -27 34 -35 0 -13 29 -35 47 -35 27 0 41 -12
48 -43 4 -15 12 -27 17 -27 12 0 38 -25 38 -37 0 -4 9 -14 20 -21 11 -7 20
-19 20 -27 0 -8 7 -15 15 -15 8 0 15 -4 15 -9 0 -5 13 -22 28 -38 16 -15 27
-34 24 -41 -2 -7 5 -12 18 -12 12 0 18 -4 15 -10 -3 -5 3 -10 14 -10 12 0 20
-3 20 -7 -4 -23 3 -33 21 -33 11 0 20 -3 20 -7 0 -12 51 -33 77 -33 13 0 23
-4 23 -10 0 -5 5 -10 11 -10 7 0 18 -8 26 -17 10 -13 16 -15 19 -5 4 9 13 7
34 -8 31 -22 50 -26 50 -10 0 6 14 10 30 10 17 0 30 4 30 10 0 6 18 7 44 4 32
-5 50 -2 67 10 26 18 66 21 71 6 2 -7 28 -7 76 -1 124 16 152 -7 121 -100 -13
-37 -101 -129 -125 -129 -7 0 -14 -3 -14 -8 0 -22 -93 -37 -245 -38 -148 -2
-161 -1 -177 18 -11 13 -24 18 -36 14 -12 -4 -26 0 -35 9 -9 8 -22 15 -29 15
-7 0 -24 9 -37 19 -14 10 -31 17 -38 14 -7 -3 -13 0 -13 6 0 6 -6 11 -12 11
-7 0 -28 14 -46 31 -27 25 -36 29 -47 19 -12 -10 -15 -9 -15 4 0 9 -4 16 -9
16 -14 0 -61 45 -61 59 0 6 -6 11 -13 11 -7 0 -19 9 -27 20 -8 11 -18 20 -22
20 -4 0 -26 18 -48 40 -22 22 -48 40 -56 40 -9 0 -35 20 -60 45 -24 25 -48 45
-54 45 -5 0 -10 7 -10 15 0 8 -3 15 -8 15 -4 0 -26 18 -50 40 -23 22 -47 40
-52 40 -6 0 -10 5 -10 10 0 6 -7 10 -16 10 -8 0 -12 5 -9 10 4 6 -9 10 -33 10
-23 0 -45 6 -52 15 -16 19 -44 19 -64 -1 -9 -8 -21 -12 -27 -8 -6 3 -117 6
-246 5 -157 -1 -232 2 -228 9 3 5 0 10 -7 10 -10 0 -10 2 1 9 8 5 11 16 7 29
-4 12 -1 26 9 36 9 9 14 20 11 24 -12 20 75 115 115 126 42 12 69 29 69 43 0
7 3 13 8 13 4 1 49 3 101 6 52 3 100 8 108 12 16 9 60 7 128 -7z m-16620 -69
c33 -12 67 -22 75 -22 9 0 22 -9 30 -20 8 -11 25 -20 37 -20 13 0 23 -4 23
-10 0 -5 7 -10 15 -10 9 0 32 -15 51 -34 20 -19 49 -38 65 -41 16 -4 29 -11
29 -16 0 -5 7 -9 15 -9 9 0 18 -12 22 -30 3 -16 11 -30 19 -30 17 0 104 -82
104 -98 0 -7 7 -12 15 -12 8 0 15 -6 15 -14 0 -8 15 -30 33 -48 17 -19 50 -54
72 -79 23 -24 58 -57 78 -74 20 -16 37 -37 37 -46 0 -10 11 -20 25 -23 14 -4
25 -10 25 -15 0 -5 15 -13 33 -16 17 -4 34 -11 37 -15 3 -5 17 -11 31 -15 20
-5 32 -1 52 19 l25 25 232 -4 c310 -5 392 -14 350 -40 -5 -3 -10 -20 -10 -36
0 -18 -9 -39 -22 -53 -13 -12 -32 -34 -43 -49 -11 -15 -25 -27 -32 -27 -7 0
-13 -4 -13 -10 0 -5 -5 -10 -11 -10 -14 0 -33 -20 -42 -44 -5 -13 -14 -17 -32
-14 -14 3 -25 1 -25 -3 0 -5 -8 -9 -19 -9 -10 0 -24 -7 -31 -15 -7 -9 -20 -13
-30 -10 -9 3 -24 -3 -35 -15 -10 -11 -24 -20 -32 -20 -7 0 -13 -5 -13 -11 0
-6 -8 -8 -19 -4 -11 3 -26 -1 -36 -11 -12 -12 -33 -17 -73 -16 -31 0 -72 -4
-90 -10 -24 -7 -37 -7 -45 1 -6 6 -19 11 -28 11 -10 0 -19 5 -21 11 -2 7 -23
12 -47 12 -25 0 -45 5 -48 12 -2 7 -20 16 -39 19 -19 4 -34 11 -34 16 0 6 -9
10 -20 10 -29 0 -110 40 -110 54 0 6 -9 18 -20 26 -11 8 -20 20 -20 26 0 7
-11 15 -25 18 -25 6 -94 89 -95 114 0 6 -4 12 -10 12 -5 0 -10 5 -10 10 0 13
-45 60 -57 60 -5 0 -16 13 -26 29 -9 15 -35 45 -57 65 -22 20 -40 40 -40 44 0
12 -118 122 -130 122 -5 0 -10 5 -10 10 0 6 -9 10 -20 10 -11 0 -20 5 -20 10
0 6 -6 10 -13 10 -7 0 -19 9 -27 20 -8 11 -20 20 -27 20 -7 0 -13 4 -13 8 0
13 -64 11 -73 -2 -6 -8 -10 -7 -14 2 -3 7 -26 12 -63 12 -37 0 -60 -5 -63 -12
-4 -10 -8 -9 -17 2 -9 11 -13 12 -17 3 -6 -15 -33 -17 -33 -3 0 6 -16 10 -35
10 -19 0 -35 -3 -35 -7 0 -6 -200 -6 -207 0 -6 7 11 56 18 51 5 -3 9 2 9 10 0
9 5 16 11 16 5 0 7 5 4 11 -4 6 2 13 14 16 11 3 18 9 15 14 -3 5 2 9 10 9 9 0
16 7 16 15 0 8 4 15 9 15 5 0 12 13 16 29 4 21 13 30 33 34 15 3 41 19 58 35
30 29 68 43 110 43 12 0 27 6 33 13 19 22 201 14 276 -12z m5220 0 c33 -12 67
-22 75 -22 9 0 22 -9 30 -20 8 -11 25 -20 37 -20 13 0 23 -4 23 -10 0 -5 7
-10 15 -10 9 0 32 -15 51 -34 20 -19 49 -38 65 -41 16 -4 29 -11 29 -16 0 -5
7 -9 15 -9 9 0 18 -12 22 -30 3 -16 11 -30 19 -30 17 0 104 -82 104 -98 0 -7
7 -12 15 -12 8 0 15 -6 15 -14 0 -8 15 -30 33 -48 17 -19 50 -54 72 -79 23
-24 58 -57 78 -74 20 -16 37 -37 37 -46 0 -10 11 -20 25 -23 14 -4 25 -10 25
-15 0 -5 15 -13 33 -16 17 -4 34 -11 37 -15 3 -5 17 -11 31 -15 20 -5 32 -1
52 19 l25 25 232 -4 c310 -5 392 -14 350 -40 -5 -3 -10 -20 -10 -36 0 -18 -9
-39 -22 -53 -13 -12 -32 -34 -43 -49 -11 -15 -25 -27 -32 -27 -7 0 -13 -4 -13
-10 0 -5 -5 -10 -11 -10 -14 0 -33 -20 -42 -44 -5 -13 -14 -17 -32 -14 -14 3
-25 1 -25 -3 0 -5 -8 -9 -19 -9 -10 0 -24 -7 -31 -15 -7 -9 -20 -13 -30 -10
-9 3 -24 -3 -35 -15 -10 -11 -24 -20 -32 -20 -7 0 -13 -5 -13 -11 0 -6 -8 -8
-19 -4 -11 3 -26 -1 -36 -11 -12 -12 -33 -17 -73 -16 -31 0 -72 -4 -90 -10
-24 -7 -37 -7 -45 1 -6 6 -19 11 -28 11 -10 0 -19 5 -21 11 -2 7 -23 12 -47
12 -25 0 -45 5 -48 12 -2 7 -20 16 -39 19 -19 4 -34 11 -34 16 0 6 -9 10 -20
10 -29 0 -110 40 -110 54 0 6 -9 18 -20 26 -11 8 -20 20 -20 26 0 7 -11 15
-25 18 -25 6 -94 89 -95 114 0 6 -4 12 -10 12 -5 0 -10 5 -10 10 0 13 -45 60
-57 60 -5 0 -16 13 -26 29 -9 15 -35 45 -57 65 -22 20 -40 40 -40 44 0 12
-118 122 -130 122 -5 0 -10 5 -10 10 0 6 -9 10 -20 10 -11 0 -20 5 -20 10 0 6
-6 10 -13 10 -7 0 -19 9 -27 20 -8 11 -20 20 -27 20 -7 0 -13 4 -13 8 0 13
-64 11 -73 -2 -6 -8 -10 -7 -14 2 -3 7 -26 12 -63 12 -37 0 -60 -5 -63 -12 -4
-10 -8 -9 -17 2 -9 11 -13 12 -17 3 -6 -15 -33 -17 -33 -3 0 6 -16 10 -35 10
-19 0 -35 -3 -35 -7 0 -6 -200 -6 -207 0 -6 7 11 56 18 51 5 -3 9 2 9 10 0 9
5 16 11 16 5 0 7 5 4 11 -4 6 2 13 14 16 11 3 18 9 15 14 -3 5 2 9 10 9 9 0
16 7 16 15 0 8 4 15 9 15 5 0 12 13 16 29 4 21 13 30 33 34 15 3 41 19 58 35
30 29 68 43 110 43 12 0 27 6 33 13 19 22 201 14 276 -12z m-4017 -2 c2 -5 12
-10 23 -10 10 0 19 -4 19 -10 0 -5 14 -10 31 -10 22 0 40 -10 65 -35 18 -19
38 -35 44 -35 5 0 10 -4 10 -9 0 -12 44 -61 54 -61 29 0 53 -69 42 -116 l-7
-27 -152 8 c-84 4 -156 11 -161 16 -6 5 -27 9 -48 9 -50 0 -178 -22 -178 -31
0 -4 -16 -10 -35 -13 -19 -4 -35 -12 -35 -17 0 -14 -20 -33 -43 -42 -10 -4
-16 -11 -13 -16 4 -5 -7 -12 -24 -16 -17 -4 -28 -10 -26 -14 5 -7 -15 -28 -42
-45 -14 -9 -42 16 -42 38 0 8 -10 18 -22 22 -26 8 -48 28 -48 43 0 6 -6 11
-13 11 -22 0 -57 48 -50 67 7 18 28 43 36 43 6 0 48 37 135 117 37 35 75 63
85 63 16 0 54 17 67 30 3 3 21 6 40 7 19 2 36 7 38 13 2 5 23 10 47 10 23 0
47 6 53 13 13 15 145 13 150 -3z m5220 0 c2 -5 12 -10 23 -10 10 0 19 -4 19
-10 0 -5 14 -10 31 -10 22 0 40 -10 65 -35 18 -19 38 -35 44 -35 5 0 10 -4 10
-9 0 -12 44 -61 54 -61 29 0 53 -69 42 -116 l-7 -27 -152 8 c-84 4 -156 11
-161 16 -6 5 -27 9 -48 9 -50 0 -178 -22 -178 -31 0 -4 -16 -10 -35 -13 -19
-4 -35 -12 -35 -17 0 -14 -20 -33 -43 -42 -10 -4 -16 -11 -13 -16 4 -5 -7 -12
-24 -16 -17 -4 -28 -10 -26 -14 5 -7 -15 -28 -42 -45 -14 -9 -42 16 -42 38 0
8 -10 18 -22 22 -26 8 -48 28 -48 43 0 6 -6 11 -13 11 -22 0 -57 48 -50 67 7
18 28 43 36 43 6 0 48 37 135 117 37 35 75 63 85 63 16 0 54 17 67 30 3 3 21
6 40 7 19 2 36 7 38 13 2 5 23 10 47 10 23 0 47 6 53 13 13 15 145 13 150 -3z
m-11878 -10 c0 -5 16 -10 35 -10 19 0 35 -4 35 -10 0 -5 13 -10 29 -10 16 0
34 -6 40 -14 7 -8 23 -17 37 -20 22 -6 46 -22 79 -53 8 -7 20 -13 27 -13 8 0
20 -9 28 -20 8 -11 20 -20 27 -20 7 0 13 -4 13 -10 0 -5 4 -10 10 -10 10 0 29
-14 84 -65 18 -16 44 -39 58 -50 14 -11 23 -26 21 -33 -3 -7 7 -14 26 -18 18
-4 45 -21 61 -38 16 -17 44 -47 62 -67 47 -50 93 -80 113 -73 11 5 18 0 22
-15 3 -11 12 -21 19 -21 8 0 14 -6 14 -14 0 -18 18 -24 104 -36 38 -6 73 -15
76 -19 10 -17 62 -25 70 -11 6 9 46 13 154 13 80 0 146 4 146 9 0 5 4 7 9 3 5
-3 35 -7 66 -10 32 -2 60 -7 64 -10 12 -12 2 -97 -13 -114 -9 -10 -16 -27 -16
-38 0 -11 -8 -29 -17 -41 -42 -49 -51 -58 -81 -84 -18 -16 -36 -28 -42 -28 -5
0 -10 -4 -10 -10 0 -5 -11 -10 -25 -10 -14 0 -36 -7 -49 -15 -30 -20 -213 -29
-219 -12 -3 9 -8 9 -18 -1 -16 -14 -83 -17 -74 -2 4 6 -18 10 -59 10 -37 0
-66 4 -66 10 0 6 -13 10 -30 10 -16 0 -30 5 -30 10 0 6 -11 10 -24 10 -14 0
-38 12 -55 26 -17 14 -37 24 -45 21 -8 -3 -22 0 -32 7 -11 7 -31 17 -46 22
-27 9 -127 99 -163 148 -11 14 -24 26 -30 26 -6 0 -17 9 -25 20 -8 11 -18 20
-23 20 -12 0 -37 27 -37 40 0 19 -29 42 -45 36 -8 -3 -15 -1 -15 4 0 6 -5 10
-10 10 -6 0 -32 21 -59 48 -73 70 -110 102 -121 102 -6 0 -10 5 -10 10 0 6 -7
10 -15 10 -16 0 -44 20 -81 59 -15 14 -30 21 -40 17 -10 -4 -24 2 -36 16 -17
20 -28 23 -86 21 -232 -9 -399 -5 -407 7 -8 12 32 63 60 76 11 6 19 15 18 22
-2 7 6 12 18 12 14 0 19 5 16 14 -3 8 6 19 21 27 15 8 33 22 40 32 7 9 20 17
28 17 8 0 14 4 14 10 0 5 7 7 15 4 8 -4 31 6 49 20 19 14 45 26 58 26 13 0 28
4 34 9 15 15 44 19 152 20 62 1 102 -3 102 -9z m21514 -35 c-4 -8 -10 -15 -15
-15 -5 0 -9 -7 -9 -16 0 -9 -10 -25 -22 -36 -14 -12 -22 -31 -22 -53 -1 -29
-6 -36 -30 -45 -37 -13 -59 -13 -51 0 3 6 1 10 -4 10 -6 0 -11 7 -11 15 0 8
-4 15 -9 15 -5 0 -8 13 -7 29 1 32 54 91 81 91 8 0 15 5 15 10 0 6 20 10 45
10 35 0 43 -3 39 -15z m2196 -35 c0 -5 5 -10 11 -10 12 0 59 -50 59 -62 0 -4
-7 -13 -15 -22 -8 -8 -15 -19 -15 -24 0 -5 -12 -13 -27 -17 -15 -3 -31 -12
-35 -18 -5 -9 -10 -9 -20 1 -6 6 -26 12 -42 13 -17 0 -25 3 -18 6 8 3 12 26
12 64 0 46 3 59 15 59 8 0 15 5 15 10 0 6 14 10 30 10 17 0 30 -4 30 -10z
m-5556 -75 c26 -25 36 -43 36 -65 0 -28 -3 -30 -37 -31 -62 -3 -67 -4 -81 -12
-7 -5 -19 -2 -29 8 -12 12 -13 19 -5 24 9 5 9 14 -1 34 -6 15 -16 27 -21 27
-4 0 2 11 15 25 35 37 79 33 123 -10z m-2360 1 c41 -46 53 -86 24 -86 -6 0
-16 -7 -23 -17 -8 -10 -32 -18 -69 -21 -65 -5 -96 13 -96 57 0 52 11 69 48 79
63 17 93 14 116 -12z m-8636 -31 c12 -4 22 -15 22 -25 0 -10 7 -25 15 -34 8
-8 15 -23 15 -34 0 -23 -29 -31 -95 -26 -50 3 -99 41 -89 68 4 10 1 16 -7 16
-8 1 1 14 19 29 35 30 40 30 120 6z m5220 0 c12 -4 22 -15 22 -25 0 -10 7 -25
15 -34 8 -8 15 -23 15 -34 0 -23 -29 -31 -95 -26 -50 3 -99 41 -89 68 4 10 1
16 -7 16 -8 1 1 14 19 29 35 30 40 30 120 6z m-13151 9 c13 -4 20 -11 16 -20
-7 -18 15 -39 50 -47 24 -7 26 -9 14 -28 -15 -25 -33 -29 -135 -32 -64 -2 -85
1 -92 13 -11 18 -1 102 14 112 13 9 102 10 133 2z m5393 -11 c0 -7 5 -13 10
-13 18 0 59 -46 65 -73 7 -25 6 -25 -62 -29 -68 -3 -118 6 -160 30 -18 10 -22
20 -20 48 2 29 7 36 32 43 48 12 135 9 135 -6z m5220 0 c0 -7 5 -13 10 -13 18
0 59 -46 65 -73 7 -25 6 -25 -62 -29 -68 -3 -118 6 -160 30 -18 10 -22 20 -20
48 2 29 7 36 32 43 48 12 135 9 135 -6z m-8180 -38 c0 -8 9 -20 20 -27 23 -15
26 -34 6 -41 -25 -10 -90 5 -109 24 -16 18 -16 19 0 39 21 24 83 28 83 5z
m21775 -94 c499 0 721 -4 729 -12 6 -6 8 -30 7 -81 -1 -34 -7 -54 -21 -68 -11
-11 -17 -20 -13 -20 3 0 4 -2 2 -5 -3 -2 -27 1 -54 8 -49 13 -145 12 -145 -2
0 -7 -156 -8 -164 -1 -2 3 -169 4 -371 3 -258 -1 -370 -5 -380 -13 -10 -8 -19
-8 -34 -1 -11 6 -27 11 -36 11 -9 0 -37 20 -62 45 -24 25 -49 45 -55 45 -15 0
-2 58 17 76 13 13 38 14 165 8 104 -5 150 -4 150 4 0 7 29 9 83 7 45 -3 127
-4 182 -4z m815 -30 c16 -40 9 -115 -12 -119 -13 -2 -17 7 -20 50 -6 96 8 126
32 69z m180 18 c0 -6 7 -26 16 -44 8 -18 14 -50 12 -71 l-3 -39 -70 -3 -70 -3
3 66 c2 40 -1 71 -8 80 -9 11 -6 14 17 18 58 8 103 7 103 -4z m129 -54 c-1
-36 1 -68 4 -72 4 -3 -2 -13 -14 -21 -11 -8 -22 -12 -25 -10 -2 3 -7 39 -10
80 -7 79 -7 80 39 87 5 0 7 -28 6 -64z m-25005 29 c9 -3 13 -10 10 -15 -7 -12
62 -12 103 0 55 16 171 -6 215 -40 20 -16 41 -29 46 -29 5 0 23 -13 40 -30 18
-16 34 -30 38 -30 10 0 34 -28 34 -39 0 -6 6 -11 14 -11 7 0 18 -6 24 -12 8
-10 -40 -13 -235 -11 -134 2 -247 5 -251 7 -15 9 -612 4 -612 -5 0 -20 -99 1
-127 28 -7 6 -13 30 -13 52 0 23 -7 46 -16 55 -19 20 -10 52 16 59 11 3 39 1
62 -5 23 -5 44 -6 45 -1 4 11 194 7 202 -5 9 -14 51 -25 51 -13 0 6 7 11 15
11 8 0 15 3 15 8 0 4 64 8 143 10 78 2 146 8 152 13 11 11 9 11 29 3z m-903
-41 c5 -13 9 -55 9 -93 0 -65 -1 -68 -26 -74 -37 -10 -166 5 -181 20 -17 17
-18 148 0 162 15 13 66 18 135 14 46 -3 55 -7 63 -29z m-278 11 c-3 -9 0 -20
8 -25 10 -6 10 -9 2 -9 -7 0 -13 -7 -13 -15 0 -8 6 -15 13 -15 9 0 9 -2 -1 -8
-8 -6 -12 -27 -11 -60 3 -63 -5 -73 -31 -42 -24 28 -24 30 -4 58 9 13 13 31 9
43 -10 31 3 89 20 89 9 0 12 -6 8 -16z m394 -29 c1 -22 7 -57 14 -77 15 -45 7
-68 -24 -68 -36 0 -47 19 -47 81 0 72 14 112 38 107 12 -2 18 -14 19 -43z
m23623 -119 c0 -7 9 -16 20 -19 11 -3 23 -13 27 -23 3 -9 19 -29 35 -45 28
-26 29 -30 18 -68 -6 -24 -17 -41 -25 -41 -8 0 -15 -4 -15 -10 0 -5 -9 -10
-20 -10 -11 0 -20 -4 -20 -10 0 -5 -6 -10 -13 -10 -18 0 -57 -34 -57 -49 0 -6
-7 -11 -15 -11 -8 0 -15 -3 -15 -7 0 -5 -14 -9 -32 -9 -18 -1 -34 -6 -36 -13
-2 -6 -19 -11 -38 -11 -19 0 -34 -5 -34 -12 0 -8 -39 -9 -146 -5 -130 5 -147
8 -163 26 -20 23 -41 28 -41 9 0 -6 -8 -1 -19 10 -10 12 -23 22 -30 22 -6 0
-11 5 -11 10 0 6 -6 10 -13 10 -7 0 -19 9 -27 20 -8 11 -20 20 -27 20 -7 0
-13 6 -13 14 0 17 -32 76 -42 76 -3 0 -4 9 -1 20 5 17 14 20 72 21 36 1 72 0
80 -1 8 -1 18 4 22 12 5 7 9 8 9 2 0 -6 19 -11 44 -11 24 -1 53 -6 65 -13 12
-6 52 -11 89 -10 37 0 81 -3 98 -6 21 -4 40 0 57 11 15 9 31 14 36 10 6 -3 26
9 45 27 63 62 98 88 117 88 10 0 19 -6 19 -14z m1348 -61 c21 8 7 -39 -26 -92
-21 -34 -33 -43 -55 -43 -28 0 -28 0 -24 61 4 72 22 94 65 78 14 -5 32 -7 40
-4z m-7008 -62 c12 -18 26 -33 31 -33 5 0 9 -6 9 -12 0 -7 14 -24 32 -38 56
-44 77 -70 72 -85 -4 -8 -15 -15 -25 -15 -10 0 -19 -4 -19 -10 0 -5 -8 -10
-19 -10 -10 0 -29 -13 -42 -30 -13 -16 -30 -30 -36 -30 -7 0 -13 -5 -13 -11 0
-6 -9 -8 -22 -4 -17 6 -20 4 -15 -9 5 -13 0 -16 -27 -16 -19 0 -36 -5 -38 -11
-4 -12 -75 -15 -108 -4 -13 4 -22 1 -26 -8 -7 -20 -94 -20 -94 0 0 7 -4 13
-10 13 -5 0 -10 -5 -10 -11 0 -5 -5 -7 -12 -3 -7 4 -24 9 -38 10 -39 4 -103
26 -122 42 -10 8 -26 12 -36 10 -12 -3 -25 2 -33 13 -7 11 -19 19 -26 19 -7 0
-13 5 -13 11 0 6 -9 9 -20 6 -14 -4 -33 11 -75 56 -50 56 -55 65 -55 108 0 26
6 51 13 56 6 5 39 9 72 9 33 -1 62 2 65 6 3 4 23 3 45 -2 22 -5 64 -7 94 -4
30 3 57 2 60 -3 12 -16 66 -41 105 -47 64 -12 175 12 221 48 22 16 41 33 43
37 6 13 50 -16 72 -48z m-16658 23 c54 -1 98 -5 98 -9 0 -13 48 -57 62 -57 8
0 20 -9 28 -20 8 -11 18 -20 23 -20 11 0 37 -26 37 -37 0 -5 9 -15 20 -23 25
-18 26 -50 2 -50 -10 0 -24 -9 -32 -20 -8 -11 -20 -20 -27 -20 -7 0 -13 -5
-13 -11 0 -6 -7 -8 -16 -5 -16 6 -44 -15 -44 -33 0 -6 -7 -11 -15 -11 -8 0
-15 -4 -15 -10 0 -5 -16 -10 -35 -10 -19 0 -35 -4 -35 -10 0 -5 -15 -10 -34
-10 -19 0 -38 -5 -41 -10 -3 -5 -22 -10 -41 -10 -19 0 -34 -4 -34 -10 0 -5 -5
-10 -11 -10 -5 0 -8 4 -5 9 5 8 -47 16 -179 26 -21 1 -41 8 -43 14 -2 6 -21
11 -43 11 -21 0 -39 5 -39 10 0 6 -8 10 -18 10 -10 0 -38 20 -63 44 -24 25
-60 48 -79 54 -29 7 -35 13 -32 34 1 16 -8 35 -28 56 -16 18 -30 36 -30 42 0
5 -4 10 -10 10 -5 0 -10 6 -10 14 0 8 -4 16 -9 18 -4 2 -11 13 -15 24 -6 21
-4 21 64 20 39 -2 73 1 77 6 3 6 105 6 247 2 132 -4 285 -8 338 -8z m21504
-58 l0 -66 -50 -4 c-30 -2 -54 2 -62 9 -7 7 -20 13 -28 13 -9 0 -16 7 -16 16
0 18 -23 44 -39 44 -6 0 -11 11 -11 24 0 28 13 31 135 31 l70 0 1 -67z
m-22326 35 c0 -8 7 -21 15 -29 18 -19 4 -38 -35 -46 -20 -5 -32 2 -59 33 -42
49 -33 66 33 61 32 -3 46 -8 46 -19z m16572 10 c19 2 24 -3 26 -28 6 -61 24
-135 33 -135 15 0 10 -40 -8 -59 -26 -28 -113 -32 -113 -6 0 8 -12 18 -27 21
-33 9 -53 27 -53 48 0 8 -7 22 -16 31 -22 21 -36 96 -22 113 6 6 23 12 39 12
15 0 30 4 33 9 4 5 22 5 46 0 21 -5 49 -8 62 -6z m-10725 -2 c40 -1 44 -4 62
-43 11 -24 37 -58 57 -77 34 -30 43 -34 110 -36 50 -2 78 1 91 11 10 7 27 14
39 14 11 0 37 15 57 34 20 19 53 37 72 40 19 4 35 11 35 16 0 6 14 10 30 10
17 0 30 -4 30 -10 0 -5 5 -10 11 -10 11 0 39 -24 39 -34 0 -4 14 -20 30 -38
17 -17 30 -37 30 -44 0 -8 11 -16 25 -20 14 -3 25 -11 25 -16 0 -10 -25 -38
-34 -38 -3 0 -18 -13 -34 -29 -15 -16 -41 -33 -57 -37 -17 -4 -32 -10 -35 -14
-3 -3 -21 -17 -40 -30 -19 -13 -37 -27 -40 -30 -10 -12 -71 -29 -85 -24 -8 3
-21 -1 -30 -10 -9 -8 -42 -18 -75 -22 -33 -4 -60 -11 -60 -15 0 -13 -64 -11
-76 1 -6 6 -33 12 -61 13 -28 1 -49 5 -46 10 2 4 -10 7 -26 7 -17 0 -31 5 -31
10 0 6 -15 10 -33 10 -20 0 -44 9 -58 21 -13 11 -39 28 -59 37 -35 16 -100 77
-100 93 0 5 -4 9 -10 9 -5 0 -10 6 -10 13 0 7 -9 19 -20 27 -11 8 -20 22 -20
30 0 9 -6 25 -14 35 -7 10 -11 26 -9 36 3 10 -2 26 -11 34 -18 19 -19 24 -6
45 12 20 133 28 337 21z m404 -2 c22 -13 -9 -39 -47 -39 -19 0 -34 -5 -34 -11
0 -19 -145 -6 -174 16 -14 11 -26 23 -26 27 0 15 258 22 281 7z m4816 2 c40
-1 44 -4 62 -43 11 -24 37 -58 57 -77 34 -30 43 -34 110 -36 50 -2 78 1 91 11
10 7 27 14 39 14 11 0 37 15 57 34 20 19 53 37 72 40 19 4 35 11 35 16 0 6 14
10 30 10 17 0 30 -4 30 -10 0 -5 5 -10 11 -10 11 0 39 -24 39 -34 0 -4 14 -20
30 -38 17 -17 30 -37 30 -44 0 -8 11 -16 25 -20 14 -3 25 -11 25 -16 0 -10
-25 -38 -34 -38 -3 0 -18 -13 -34 -29 -15 -16 -41 -33 -57 -37 -17 -4 -32 -10
-35 -14 -3 -3 -21 -17 -40 -30 -19 -13 -37 -27 -40 -30 -10 -12 -71 -29 -85
-24 -8 3 -21 -1 -30 -10 -9 -8 -42 -18 -75 -22 -33 -4 -60 -11 -60 -15 0 -13
-64 -11 -76 1 -6 6 -33 12 -61 13 -28 1 -49 5 -46 10 2 4 -10 7 -26 7 -17 0
-31 5 -31 10 0 6 -15 10 -33 10 -20 0 -44 9 -58 21 -13 11 -39 28 -59 37 -35
16 -100 77 -100 93 0 5 -4 9 -10 9 -5 0 -10 6 -10 13 0 7 -9 19 -20 27 -11 8
-20 22 -20 30 0 9 -6 25 -14 35 -7 10 -11 26 -9 36 3 10 -2 26 -11 34 -18 19
-19 24 -6 45 12 20 133 28 337 21z m404 -2 c22 -13 -9 -39 -47 -39 -19 0 -34
-5 -34 -11 0 -19 -145 -6 -174 16 -14 11 -26 23 -26 27 0 15 258 22 281 7z
m7473 1 c24 0 66 -30 66 -48 0 -6 5 -12 11 -14 17 -6 -14 -69 -49 -100 -32
-28 -102 -53 -102 -37 0 5 -6 9 -13 9 -8 0 -20 11 -27 25 -7 14 -17 25 -21 25
-4 0 -1 12 7 28 7 15 14 32 14 37 0 20 64 85 78 80 8 -3 24 -5 36 -5z m-16444
-20 c26 -29 19 -95 -11 -120 -13 -11 -36 -32 -51 -47 -24 -24 -30 -25 -53 -15
-14 7 -35 12 -47 12 -14 0 -18 5 -14 16 3 9 6 24 6 35 0 10 6 19 14 19 13 0
32 77 22 87 -14 14 25 32 68 33 37 0 53 -5 66 -20z m2916 -7 c4 -15 13 -35 21
-45 22 -25 13 -72 -14 -76 -13 -2 -23 1 -23 7 0 6 -11 11 -25 11 -16 0 -42 16
-72 45 -25 25 -45 46 -42 48 28 23 55 32 98 35 48 2 51 1 57 -25z m5220 0 c4
-15 13 -35 21 -45 22 -25 13 -72 -14 -76 -13 -2 -23 1 -23 7 0 6 -11 11 -25
11 -16 0 -42 16 -72 45 -25 25 -45 46 -42 48 28 23 55 32 98 35 48 2 51 1 57
-25z m-2658 -35 c34 -33 40 -46 36 -67 -15 -65 -70 -111 -139 -115 -44 -2 -53
1 -77 27 -33 34 -36 57 -8 57 13 0 20 7 20 19 0 10 6 24 14 30 7 6 16 29 20
51 6 39 7 40 50 40 37 0 48 -6 84 -42z m5220 0 c34 -33 40 -46 36 -67 -15 -65
-70 -111 -139 -115 -44 -2 -53 1 -77 27 -33 34 -36 57 -8 57 13 0 20 7 20 19
0 10 6 24 14 30 7 6 16 29 20 51 6 39 7 40 50 40 37 0 48 -6 84 -42z m10152
-36 c0 -5 25 -15 55 -22 30 -7 55 -16 55 -20 0 -4 18 -15 40 -25 39 -18 55
-45 25 -45 -15 0 -85 -67 -85 -82 0 -4 -6 -8 -13 -8 -7 0 -23 -13 -37 -30 -14
-16 -30 -30 -37 -30 -7 0 -13 -6 -13 -13 0 -7 -9 -23 -21 -35 -17 -19 -22 -20
-35 -8 -8 8 -11 22 -7 32 5 13 3 16 -10 11 -11 -4 -17 -1 -17 8 0 8 -4 15 -10
15 -5 0 -10 5 -10 11 0 18 -30 41 -45 35 -9 -3 -30 9 -52 30 l-36 35 26 25
c14 13 31 24 37 24 5 0 10 4 10 10 0 5 7 7 16 3 16 -6 64 36 64 57 0 5 7 10
15 10 8 0 15 5 15 10 0 6 16 10 35 10 19 0 35 -4 35 -8z m-5599 -133 c11 -12
25 -19 34 -15 8 3 15 1 15 -4 0 -6 7 -10 15 -10 8 0 15 -4 15 -10 0 -5 6 -10
14 -10 8 0 17 -7 20 -16 8 -20 -2 -54 -15 -54 -15 0 -59 -47 -59 -63 0 -8 -7
-17 -15 -21 -8 -3 -15 -14 -15 -24 0 -10 -13 -31 -30 -47 -26 -25 -31 -26 -47
-14 -29 23 -45 39 -38 39 4 0 -7 11 -23 25 -17 14 -37 25 -46 25 -9 0 -16 5
-16 10 0 6 -6 10 -14 10 -24 0 -30 39 -9 63 30 34 67 66 78 67 6 0 17 8 24 19
8 10 21 17 30 14 9 -2 23 5 31 17 18 25 28 25 51 -1z m-16521 -14 c0 -8 6 -15
13 -15 6 0 25 -11 41 -25 16 -14 36 -25 45 -25 18 0 71 -45 71 -61 0 -5 -7
-12 -15 -15 -8 -4 -15 -17 -15 -31 0 -13 -11 -36 -25 -51 -17 -18 -24 -34 -20
-49 11 -47 -74 -33 -93 15 -3 9 -15 27 -26 38 -30 30 -135 99 -171 111 l-30
10 38 18 c20 11 37 22 37 27 0 4 9 8 20 8 11 0 20 5 20 10 0 6 6 10 13 10 8 0
22 9 33 19 23 24 64 27 64 6z m5473 -70 c21 -19 46 -35 56 -35 10 0 24 -7 31
-15 7 -8 21 -15 31 -15 11 0 19 -4 19 -10 0 -5 6 -10 13 -10 6 0 23 -12 36
-25 l24 -26 -28 -28 c-15 -16 -40 -43 -56 -59 -16 -17 -29 -40 -29 -52 0 -13
-15 -36 -35 -54 -19 -18 -35 -38 -35 -44 0 -7 -4 -12 -9 -12 -5 0 -11 -8 -13
-17 -3 -15 -6 -14 -26 7 -12 13 -28 36 -34 52 -7 15 -18 28 -23 28 -6 0 -17 9
-25 20 -8 11 -20 20 -27 20 -6 0 -15 9 -18 20 -3 11 -13 20 -21 20 -8 0 -14 5
-14 10 0 6 -10 10 -23 10 -29 0 -82 58 -82 90 0 28 11 40 38 40 9 0 26 8 37
18 10 9 31 27 44 40 14 12 33 22 43 22 10 0 25 9 33 20 21 29 50 25 93 -15z
m5220 0 c21 -19 46 -35 56 -35 10 0 24 -7 31 -15 7 -8 21 -15 31 -15 11 0 19
-4 19 -10 0 -5 6 -10 13 -10 6 0 23 -12 36 -25 l24 -26 -28 -28 c-15 -16 -40
-43 -56 -59 -16 -17 -29 -40 -29 -52 0 -13 -15 -36 -35 -54 -19 -18 -35 -38
-35 -44 0 -7 -4 -12 -9 -12 -5 0 -11 -8 -13 -17 -3 -15 -6 -14 -26 7 -12 13
-28 36 -34 52 -7 15 -18 28 -23 28 -6 0 -17 9 -25 20 -8 11 -20 20 -27 20 -6
0 -15 9 -18 20 -3 11 -13 20 -21 20 -8 0 -14 5 -14 10 0 6 -10 10 -23 10 -29
0 -82 58 -82 90 0 28 11 40 38 40 9 0 26 8 37 18 10 9 31 27 44 40 14 12 33
22 43 22 10 0 25 9 33 20 21 29 50 25 93 -15z"/>
<path d="M6588 1196 c-23 -19 -30 -35 -45 -107 -9 -46 21 -77 80 -84 62 -8 93
3 136 46 26 25 31 37 26 58 -4 14 -10 27 -15 29 -5 2 -6 10 -3 18 3 8 -1 14
-11 14 -9 0 -16 8 -16 20 0 15 -7 20 -27 21 -16 1 -44 2 -64 3 -24 2 -44 -4
-61 -18z m97 -81 c0 -16 -8 -21 -35 -23 -32 -3 -35 -1 -35 23 0 24 3 26 35 23
27 -2 35 -7 35 -23z"/>
<path d="M11808 1196 c-23 -19 -30 -35 -45 -107 -9 -46 21 -77 80 -84 62 -8
93 3 136 46 26 25 31 37 26 58 -4 14 -10 27 -15 29 -5 2 -6 10 -3 18 3 8 -1
14 -11 14 -9 0 -16 8 -16 20 0 15 -7 20 -27 21 -16 1 -44 2 -64 3 -24 2 -44
-4 -61 -18z m97 -81 c0 -16 -8 -21 -35 -23 -32 -3 -35 -1 -35 23 0 24 3 26 35
23 27 -2 35 -7 35 -23z"/>
<path d="M23123 1267 c-103 -101 -107 -107 -77 -107 8 0 12 -5 9 -10 -7 -11
18 -40 34 -40 6 0 11 -4 11 -10 0 -14 73 -25 78 -11 2 6 10 11 19 11 19 0 46
27 41 43 -3 6 2 18 9 26 17 16 9 62 -12 74 -8 4 -20 13 -27 20 -17 16 -70 18
-85 4z m70 -87 c-6 -22 -46 -27 -73 -10 -13 9 -13 11 0 20 8 5 29 10 47 10 26
0 30 -3 26 -20z"/>
<path d="M17277 1233 c-15 -2 -25 -9 -22 -14 4 -5 1 -9 -5 -9 -7 0 -10 -6 -7
-14 3 -7 -4 -21 -15 -30 -17 -15 -19 -26 -15 -64 6 -52 35 -81 80 -82 15 0 27
-4 27 -10 0 -5 7 -10 15 -10 8 0 15 5 15 10 0 6 5 10 11 10 28 0 66 67 67 117
1 34 -5 48 -31 72 -31 31 -49 35 -120 24z m71 -115 c-2 -17 -11 -24 -32 -26
-16 -2 -32 2 -36 9 -14 22 1 39 37 39 30 0 34 -3 31 -22z"/>
</g>
</svg>
