<?xml version="1.0" standalone="no"?>
<!DOCTYPE svg PUBLIC "-//W3C//DTD SVG 20010904//EN"
 "http://www.w3.org/TR/2001/REC-SVG-20010904/DTD/svg10.dtd">
<svg version="1.0" xmlns="http://www.w3.org/2000/svg"
 width="2342.000000pt" height="247.000000pt" viewBox="0 0 2342.000000 247.000000"
 preserveAspectRatio="xMidYMid meet">
<metadata>
Created by potrace 1.13, written by Peter Selinger 2001-2015
</metadata>
<g transform="translate(0.000000,247.000000) scale(0.100000,-0.100000)"
fill="#000000" stroke="none">
<path d="M19601 2223 c-22 -3 -45 -16 -65 -38 -103 -110 -103 -109 -108 -163
-3 -29 -8 -55 -10 -58 -3 -3 -136 -5 -294 -4 -159 1 -296 2 -304 2 -8 0 -147
-3 -307 -5 -173 -3 -293 -1 -293 4 0 5 -7 9 -15 9 -8 0 -15 -3 -15 -7 0 -5
-25 -8 -55 -9 -30 0 -55 3 -55 8 0 4 -7 8 -15 8 -8 0 -15 -4 -15 -10 0 -6 -42
-10 -105 -10 -63 0 -105 4 -105 10 0 6 -7 10 -15 10 -8 0 -15 -4 -15 -9 0 -13
-142 -12 -157 1 -9 7 -17 7 -26 0 -8 -7 -26 -8 -49 -3 -20 5 -40 5 -45 0 -11
-11 -103 -17 -103 -7 0 4 -9 8 -20 8 -11 0 -20 -4 -20 -10 0 -14 -57 -13 -62
1 -3 9 -15 8 -43 -2 -30 -11 -39 -11 -42 -1 -3 6 -11 12 -18 12 -7 0 -16 -6
-19 -12 -5 -10 -7 -10 -12 0 -7 14 -34 16 -34 2 0 -5 -25 -10 -55 -10 -60 0
-63 4 -70 83 -2 18 -3 38 -4 45 -1 6 -7 12 -15 12 -8 0 -21 8 -28 19 -7 10
-26 21 -43 24 -16 4 -45 9 -62 13 -18 3 -33 10 -33 15 0 12 -37 11 -45 -1 -3
-6 -19 -10 -36 -10 -16 0 -29 -4 -29 -10 0 -5 -4 -10 -10 -10 -5 0 -19 -8 -31
-17 -49 -41 -69 -65 -69 -86 0 -12 -11 -34 -23 -49 -19 -21 -26 -25 -36 -15
-9 9 -14 9 -21 -2 -6 -11 -12 -12 -23 -3 -9 8 -23 9 -47 2 -21 -6 -38 -6 -45
0 -7 6 -16 5 -23 -2 -10 -10 -17 -10 -32 0 -16 10 -21 9 -29 -6 -6 -9 -11 -12
-11 -6 0 16 -80 16 -80 1 0 -8 -3 -9 -8 -1 -8 12 -132 16 -132 4 0 -4 -17 -4
-37 1 -47 11 -103 12 -103 2 0 -5 -13 -8 -30 -8 -16 0 -30 3 -30 7 0 11 -304
5 -312 -7 -5 -6 -8 -6 -8 3 0 6 -9 12 -20 12 -11 0 -20 -5 -20 -11 0 -7 -7 -8
-17 -4 -22 9 -244 16 -257 8 -5 -3 -220 -6 -478 -6 -345 0 -472 3 -480 11 -16
16 -68 15 -68 -1 0 -9 -11 -12 -33 -9 -31 4 -32 5 -29 43 4 36 0 43 -61 106
l-65 67 -87 -11 c-48 -6 -91 -16 -95 -23 -4 -7 -13 -9 -19 -6 -12 8 -41 -16
-41 -32 0 -6 -3 -12 -7 -14 -14 -6 -43 -69 -43 -92 0 -12 -9 -29 -19 -38 -16
-13 -26 -15 -60 -6 -26 7 -50 7 -68 1 -33 -12 -72 -10 -132 7 -34 9 -49 9 -66
0 -15 -8 -37 -9 -76 -2 -39 7 -56 7 -61 -1 -10 -16 -185 -14 -200 1 -19 19
-72 14 -91 -8 -15 -18 -20 -19 -40 -6 -12 7 -47 16 -79 19 -44 4 -60 2 -75
-11 -10 -9 -29 -16 -43 -15 -14 0 -57 1 -97 2 -53 1 -76 5 -88 18 -14 13 -21
14 -36 5 -10 -7 -19 -8 -19 -3 0 5 -18 9 -40 9 -22 0 -40 -5 -40 -11 0 -6 -17
-7 -44 -4 -34 5 -45 3 -50 -8 -6 -18 -36 -20 -36 -4 0 8 -21 10 -73 5 -58 -5
-76 -3 -96 10 -18 13 -25 14 -31 4 -5 -9 -9 -9 -14 -1 -9 14 -86 15 -86 0 0
-5 -5 -7 -12 -3 -16 10 -69 11 -75 1 -2 -4 -14 -5 -25 -1 -12 4 -24 1 -30 -7
-7 -11 -11 -11 -15 -1 -6 16 -30 16 -36 0 -4 -10 -6 -10 -6 0 -1 6 -7 12 -15
12 -8 0 -17 -6 -20 -12 -5 -10 -7 -10 -12 0 -7 16 -31 16 -38 0 -5 -10 -7 -10
-12 0 -7 16 -81 16 -87 0 -4 -10 -6 -10 -6 0 -1 16 -31 16 -31 0 0 -9 -3 -9
-12 0 -7 7 -29 12 -50 12 -37 0 -38 1 -38 38 0 40 -17 67 -55 88 -12 7 -19 20
-17 33 2 16 -2 21 -17 21 -12 0 -21 5 -21 10 0 6 -7 10 -15 10 -8 0 -15 5 -15
10 0 6 -13 10 -29 10 -17 0 -33 5 -36 10 -9 14 -72 12 -78 -2 -4 -10 -8 -9
-17 2 -9 11 -13 12 -17 2 -2 -6 -11 -12 -19 -12 -8 0 -14 -4 -14 -10 0 -5 -5
-10 -11 -10 -16 0 -37 -25 -45 -54 -3 -14 -10 -26 -14 -26 -4 0 -10 -25 -13
-57 -3 -31 -12 -60 -19 -64 -7 -5 -34 -6 -60 -4 -31 3 -48 1 -48 -6 0 -7 -5
-8 -12 -2 -11 7 -99 10 -118 4 -3 -1 -259 -4 -570 -5 -311 -2 -567 -4 -570 -6
-4 -1 -215 -1 -407 2 -13 0 -79 -1 -147 -2 -69 -1 -133 3 -143 7 -28 14 -321
9 -373 -6 -29 -8 -67 -10 -105 -6 -87 10 -138 10 -156 2 -10 -5 -23 -2 -33 8
-13 13 -32 16 -89 13 l-72 -3 -3 78 c-2 43 -7 77 -13 77 -6 0 -7 4 -4 10 3 5
1 10 -5 10 -6 0 -16 11 -22 25 -6 14 -17 25 -23 25 -7 0 -18 7 -25 15 -7 8
-25 15 -41 15 -16 0 -29 4 -29 9 0 5 -6 11 -13 14 -17 6 -97 -14 -97 -25 0 -4
-5 -8 -11 -8 -14 0 -39 -25 -39 -39 0 -6 -4 -11 -10 -11 -5 0 -10 -6 -10 -14
0 -8 -4 -16 -10 -18 -5 -1 -13 -38 -16 -80 -4 -43 -10 -78 -13 -79 -89 -10
-1011 -14 -1041 -4 -11 4 -20 3 -20 -2 0 -4 -93 -8 -207 -7 -115 1 -212 -1
-217 -4 -21 -12 -356 2 -365 15 -8 12 -154 15 -146 3 4 -6 -7 -10 -24 -10 -18
0 -31 -5 -31 -12 0 -9 -3 -9 -8 -2 -5 7 -89 10 -257 8 -137 -1 -252 -3 -255
-4 -15 -7 -74 0 -79 9 -8 12 -119 5 -135 -9 -14 -11 -56 -2 -56 12 0 6 -19 8
-44 7 -23 -2 -47 0 -52 5 -5 5 -8 40 -6 78 4 58 2 68 -12 68 -10 0 -14 4 -11
10 3 5 2 10 -2 10 -5 0 -26 16 -46 35 -25 24 -46 35 -67 35 -17 0 -30 4 -30 8
0 5 -13 9 -30 9 -16 0 -30 -4 -30 -9 0 -4 -7 -8 -15 -8 -8 0 -15 -4 -15 -10 0
-5 -10 -10 -23 -10 -20 0 -25 -9 -39 -67 -19 -80 -22 -123 -8 -123 6 0 10 -7
10 -15 0 -18 64 -17 -780 -20 -428 -1 -669 1 -678 8 -8 6 -17 6 -26 -2 -20
-17 -116 -27 -116 -12 0 14 -126 15 -135 1 -4 -6 -15 -6 -32 1 -30 11 -737 14
-898 3 -76 -5 -105 -4 -105 5 0 6 -9 11 -20 11 -11 0 -20 -5 -20 -11 0 -6 -28
-10 -78 -9 -67 2 -115 -2 -132 -10 -3 -1 -23 -2 -45 -2 -22 0 -46 -5 -53 -11
-8 -6 -27 -10 -43 -9 -18 1 -36 -5 -49 -18 -23 -23 -40 -19 -40 11 0 28 -25
23 -57 -9 -16 -16 -40 -32 -55 -36 -16 -3 -28 -11 -28 -17 0 -11 -25 -39 -34
-39 -5 0 -104 -97 -169 -166 -15 -16 -35 -36 -45 -45 -9 -9 -43 -44 -76 -77
-32 -34 -64 -62 -72 -62 -8 0 -14 -7 -14 -15 0 -8 -9 -15 -19 -15 -11 0 -26
-7 -35 -15 -8 -8 -18 -15 -21 -15 -4 0 -16 -11 -26 -24 -11 -14 -34 -26 -59
-30 -22 -3 -40 -10 -40 -14 0 -11 -90 -36 -127 -35 -18 1 -33 -3 -33 -8 0 -5
-16 -9 -35 -9 -19 0 -35 -4 -35 -10 0 -6 -26 -10 -58 -10 -45 0 -63 -5 -81
-21 -12 -11 -20 -26 -19 -31 10 -28 250 -79 264 -56 3 4 12 1 21 -8 10 -9 25
-13 39 -10 12 3 26 2 29 -4 3 -5 18 -10 32 -10 14 0 33 -8 42 -18 10 -12 29
-19 50 -19 19 0 37 -5 39 -11 2 -7 14 -12 27 -12 13 0 30 -7 38 -15 8 -7 28
-17 43 -21 16 -4 41 -20 56 -36 14 -15 31 -28 38 -28 14 0 40 -25 40 -38 0 -6
13 -13 29 -17 27 -6 49 -26 185 -170 61 -63 106 -125 106 -143 0 -8 6 -12 14
-9 10 4 13 1 9 -9 -3 -9 1 -14 12 -14 10 0 37 -18 61 -40 24 -22 51 -40 60
-40 9 0 29 -11 46 -25 16 -14 40 -25 53 -25 13 0 26 -4 29 -9 3 -4 24 -11 46
-15 22 -3 40 -11 40 -16 0 -6 30 -10 68 -10 38 0 72 -3 76 -7 4 -4 142 -7 307
-8 275 0 301 -1 310 -17 6 -10 17 -18 25 -18 8 0 13 -4 9 -9 -3 -5 -1 -12 5
-16 6 -4 8 -10 5 -15 -7 -11 16 -50 30 -50 6 0 16 -9 23 -20 7 -11 19 -20 27
-20 8 0 15 -4 15 -10 0 -5 7 -10 15 -10 8 0 15 -4 15 -10 0 -5 7 -10 15 -10 8
0 15 -4 15 -10 0 -15 71 -12 104 5 15 8 38 15 50 15 12 0 32 9 44 20 12 11 24
20 27 20 10 0 35 28 35 39 0 6 3 11 8 11 13 0 31 49 19 53 -6 2 0 15 14 31
l25 27 867 1 c556 0 872 -3 880 -10 13 -11 127 -9 145 2 18 11 132 16 132 6 0
-5 66 -9 148 -9 82 0 173 -5 206 -12 50 -11 60 -11 70 2 9 12 67 14 361 12
193 0 355 -2 361 -2 14 -1 27 -37 24 -68 0 -11 7 -27 18 -35 11 -7 22 -23 26
-36 4 -12 14 -22 22 -22 8 0 14 -7 14 -15 0 -23 58 -33 127 -22 35 6 63 14 63
19 0 4 5 8 11 8 22 0 56 52 69 106 12 48 16 54 39 55 105 4 311 3 313 -1 2 -3
93 -2 203 1 110 3 305 5 433 4 176 -2 243 0 279 11 37 11 49 11 61 1 12 -9
180 -12 761 -12 410 0 771 3 801 8 38 6 56 5 58 -2 5 -14 72 -15 72 -1 0 19
25 10 44 -15 10 -14 24 -25 31 -25 14 0 25 -22 25 -50 0 -11 9 -24 19 -30 11
-5 22 -18 25 -27 4 -10 22 -28 41 -41 28 -17 49 -22 105 -22 65 0 72 2 104 33
18 17 36 44 40 60 3 15 13 27 21 27 8 0 15 7 15 15 0 8 10 23 21 34 20 18 33
20 160 17 85 -2 139 1 139 6 0 6 11 7 28 3 43 -12 156 -13 164 -2 7 12 46 13
131 4 38 -4 57 -3 57 4 0 7 13 9 38 5 45 -8 873 -11 955 -3 32 3 60 1 63 -5 7
-11 245 -5 265 7 7 5 14 4 17 -3 3 -9 65 -12 227 -12 l223 0 5 -28 c6 -31 58
-100 100 -133 20 -15 47 -23 91 -26 l62 -5 67 66 c37 37 67 74 67 82 0 8 5 14
10 14 6 0 10 9 10 20 0 19 7 20 194 20 147 0 195 3 199 12 3 10 7 10 20 -1 14
-11 77 -13 347 -9 197 2 331 0 333 -5 2 -6 24 -5 55 2 73 15 274 15 290 -1 10
-10 15 -10 20 -1 8 13 682 24 682 11 0 -5 9 -8 20 -8 11 0 20 5 20 11 0 9 23
10 81 6 93 -7 99 -10 99 -43 0 -13 5 -24 10 -24 6 0 10 -9 10 -20 0 -11 7 -23
15 -26 8 -4 15 -12 15 -18 0 -7 16 -21 35 -32 19 -10 35 -22 35 -27 0 -9 53
-5 119 9 45 9 141 102 141 136 l0 26 473 6 c259 3 766 9 1125 12 l653 7 24
-29 c14 -16 25 -38 25 -49 1 -23 33 -65 49 -65 6 0 11 -4 11 -10 0 -5 7 -10
15 -10 8 0 15 -4 15 -10 0 -5 18 -10 40 -10 22 0 40 -4 40 -10 0 -5 7 -10 15
-10 24 0 95 24 95 32 0 5 7 8 15 8 8 0 15 5 15 10 0 6 5 10 10 10 22 0 60 50
60 78 0 43 39 79 94 87 30 5 51 3 60 -4 17 -14 326 -13 326 1 0 4 18 8 40 8
22 0 40 -4 40 -10 0 -5 20 -10 44 -10 25 0 48 5 51 10 8 13 452 14 460 0 3 -5
18 -7 33 -4 44 8 1182 10 1182 2 0 -5 6 -8 13 -8 8 0 20 -11 27 -25 7 -14 17
-25 22 -25 4 0 8 -7 8 -15 0 -8 5 -15 11 -15 13 0 79 -66 79 -79 0 -21 171
-34 178 -13 2 7 13 12 24 12 30 0 85 61 97 106 6 22 20 47 32 57 22 20 -23 18
649 21 209 1 262 7 292 33 9 8 25 12 36 9 11 -4 24 0 32 9 7 8 22 15 35 15 12
0 38 16 58 35 23 22 46 35 63 35 19 0 25 4 21 14 -4 10 -1 13 9 9 8 -3 14 1
14 9 0 18 45 80 102 139 24 25 67 73 96 107 34 38 64 63 82 67 16 3 36 17 44
31 9 13 22 24 29 24 8 0 24 12 38 26 13 14 40 33 59 42 19 9 41 22 48 29 7 7
24 13 37 13 13 0 25 5 27 12 2 6 19 11 38 10 22 0 40 6 51 19 9 10 26 19 37
19 11 0 24 5 27 10 3 6 17 7 29 4 13 -3 29 0 37 8 8 8 41 15 76 16 66 3 205
42 211 60 1 5 -7 20 -19 31 -18 16 -36 21 -81 21 -32 0 -58 4 -58 10 0 6 -16
10 -35 10 -19 0 -35 5 -35 10 0 7 -6 7 -18 1 -12 -6 -32 -6 -58 0 -21 6 -49
13 -61 16 -13 3 -23 9 -23 14 0 5 -18 12 -41 15 -23 4 -51 17 -65 30 -12 13
-26 24 -29 24 -4 0 -13 7 -21 15 -9 8 -24 15 -35 15 -10 0 -19 7 -19 15 0 8
-7 15 -15 15 -16 0 -135 116 -135 131 0 5 -4 9 -10 9 -13 0 -80 66 -80 79 0 6
-5 11 -11 11 -5 0 -30 20 -54 44 -24 24 -46 42 -49 39 -3 -4 -6 1 -6 10 0 9
-5 17 -11 17 -13 0 -39 25 -39 39 0 6 -12 14 -27 17 -16 4 -40 20 -56 36 -15
15 -31 28 -36 28 -5 0 -11 5 -13 11 -5 16 -116 49 -164 49 -24 0 -45 4 -48 9
-5 8 -534 8 -1574 -1 -204 -2 -372 0 -372 5 0 4 -18 7 -40 7 -38 0 -40 2 -42
33 0 17 0 40 0 50 1 10 -27 48 -66 88 -50 51 -75 69 -94 69 -15 0 -30 5 -33
10 -6 10 -57 11 -124 3z m99 -72 c0 -5 21 -14 47 -21 52 -12 63 -23 63 -57 0
-13 5 -23 10 -23 6 0 10 -6 10 -14 0 -8 5 -16 12 -18 7 -3 11 -22 10 -51 -4
-63 13 -87 60 -87 20 0 38 5 40 11 3 8 35 8 118 -1 82 -9 183 -10 355 -4 132
4 490 8 796 8 445 1 559 4 572 14 12 10 21 11 36 3 11 -6 38 -11 60 -11 22 0
43 -5 46 -10 3 -5 29 -10 56 -10 36 0 56 -6 71 -20 12 -11 34 -20 48 -20 18 0
35 -10 50 -30 12 -16 31 -32 41 -35 11 -4 19 -12 19 -18 0 -7 9 -19 20 -27 11
-8 20 -20 20 -27 0 -7 9 -13 20 -13 11 0 20 -6 20 -14 0 -8 7 -16 14 -19 8 -3
18 -22 21 -41 4 -19 13 -40 21 -47 8 -6 14 -18 14 -26 0 -7 6 -16 13 -18 6 -3
12 -22 13 -42 0 -20 6 -39 12 -41 7 -2 12 -24 12 -52 0 -27 7 -75 15 -107 11
-45 12 -80 5 -158 -16 -176 -26 -225 -49 -241 -12 -9 -21 -24 -21 -35 0 -11
-11 -31 -25 -45 -14 -14 -25 -28 -25 -33 0 -4 -18 -24 -40 -44 -22 -19 -40
-39 -40 -43 0 -11 -108 -114 -120 -114 -6 0 -13 -7 -16 -15 -4 -8 -16 -15 -28
-15 -11 0 -30 -7 -40 -15 -11 -8 -27 -15 -37 -15 -9 0 -27 -8 -40 -18 -54 -41
-96 -45 -544 -47 -236 -1 -438 -5 -448 -9 -25 -12 -42 -45 -28 -59 7 -7 7 -14
0 -23 -7 -8 -7 -14 0 -18 16 -10 -20 -46 -46 -46 -13 0 -23 -3 -23 -7 0 -15
-54 -33 -94 -33 -54 0 -86 9 -86 25 0 7 -13 23 -29 36 -16 14 -34 42 -40 64
-6 22 -18 45 -28 51 -20 12 -577 12 -1673 0 -349 -4 -655 -7 -680 -7 -26 1
-53 -6 -65 -15 -19 -14 -19 -16 -2 -28 16 -12 16 -14 1 -20 -8 -3 -14 -12 -12
-18 5 -14 -15 -38 -31 -38 -6 0 -11 -4 -11 -10 0 -5 -5 -10 -10 -10 -6 0 -19
-8 -30 -18 -13 -12 -38 -18 -77 -20 -49 -2 -61 1 -73 18 -8 11 -18 20 -23 20
-17 0 -36 28 -47 70 -19 70 -18 70 -202 65 -173 -6 -1020 -13 -1753 -15 -423
-2 -493 -6 -454 -31 33 -20 5 -99 -35 -99 -9 0 -16 -4 -16 -8 0 -4 -35 -13
-77 -18 -78 -10 -103 -4 -103 25 0 6 -4 11 -9 11 -9 0 -22 49 -23 87 l0 22
-292 5 c-265 4 -348 5 -546 5 -36 0 -101 0 -145 0 -89 2 -351 4 -375 3 -8 0
-184 -1 -390 -2 -206 -1 -445 -5 -530 -9 -153 -6 -155 -6 -155 -29 0 -13 -7
-27 -15 -32 -8 -5 -11 -10 -6 -10 5 0 -1 -8 -12 -19 -12 -10 -22 -22 -22 -25
0 -20 -36 -38 -85 -43 -30 -3 -55 -10 -55 -14 0 -5 -7 -9 -15 -9 -8 0 -15 5
-15 10 0 6 -6 10 -13 10 -7 0 -19 9 -27 20 -8 11 -20 20 -27 20 -19 0 -45 42
-33 54 29 29 -6 99 -39 80 -15 -10 -90 -10 -306 0 -68 3 -127 0 -183 -11 -70
-13 -87 -14 -110 -3 -31 16 -399 21 -420 6 -6 -5 -51 -5 -100 -1 -104 8 -44 8
-790 4 l-602 -4 -36 -28 c-23 -19 -35 -36 -33 -50 3 -41 -1 -57 -14 -57 -7 0
-19 -9 -27 -20 -8 -11 -20 -20 -26 -20 -7 0 -14 -4 -16 -8 -5 -13 -68 -23 -68
-12 0 6 -14 10 -31 10 -30 0 -59 19 -59 39 0 6 -4 11 -9 11 -4 0 -9 23 -10 51
0 39 -6 57 -23 74 -23 23 -24 23 -353 25 -182 1 -384 1 -450 0 -66 0 -356 0
-645 1 -289 1 -545 1 -570 -1 -25 -1 -286 -4 -580 -5 -294 -1 -543 -3 -553 -4
-19 -1 -35 -34 -42 -85 -2 -17 -4 -33 -6 -36 -1 -3 -1 -8 0 -12 2 -16 -68 -58
-97 -58 -17 0 -32 -6 -35 -13 -3 -7 -17 1 -38 24 -59 62 -66 74 -64 115 3 74
3 74 -266 74 -181 0 -238 3 -242 13 -3 9 -9 9 -25 0 -16 -10 -21 -10 -25 0 -3
9 -7 9 -19 -1 -13 -10 -17 -10 -21 0 -3 10 -9 11 -25 1 -16 -10 -22 -10 -25 0
-3 9 -9 9 -26 0 -27 -17 -118 -17 -124 0 -3 9 -7 9 -19 -1 -11 -9 -18 -10 -23
-2 -4 7 -13 5 -28 -5 -24 -17 -107 -21 -107 -5 0 6 -9 10 -20 10 -11 0 -20 -4
-20 -10 0 -5 -13 -10 -30 -10 -16 0 -30 5 -30 10 0 15 -30 12 -31 -2 0 -10 -2
-10 -6 -1 -6 17 -43 17 -43 1 0 -9 -2 -10 -8 -2 -9 15 -214 14 -224 -1 -5 -6
-8 -6 -8 3 0 6 -9 12 -20 12 -11 0 -20 -6 -20 -12 0 -9 -3 -9 -8 -3 -9 13
-481 14 -500 2 -7 -5 -18 -4 -26 2 -7 6 -15 8 -19 5 -3 -3 -52 -4 -109 -3 -56
2 -258 4 -448 6 -247 3 -346 7 -351 15 -6 9 -11 9 -23 -1 -9 -7 -40 -12 -78
-11 -119 2 -322 -13 -334 -24 -6 -6 -10 -36 -10 -66 1 -48 -2 -58 -25 -78 -15
-12 -35 -22 -46 -22 -10 0 -27 -6 -38 -14 -23 -16 -81 -14 -97 2 -7 7 -24 12
-38 12 -15 0 -38 9 -51 21 -20 17 -24 30 -23 77 0 33 -5 62 -12 69 -9 9 -47
13 -118 13 -58 0 -107 4 -110 8 -3 5 -20 7 -38 4 -61 -9 -540 -4 -547 5 -3 6
-26 11 -50 11 -31 2 -50 9 -67 25 -13 13 -48 30 -79 37 -30 7 -55 17 -55 22 0
4 -7 8 -15 8 -8 0 -15 7 -15 15 0 8 -5 15 -11 15 -15 0 -59 42 -59 56 0 6 -12
22 -27 36 -16 14 -42 40 -58 59 -17 19 -40 39 -50 45 -11 6 -21 20 -23 32 -2
11 -12 22 -22 25 -11 3 -22 18 -26 33 -4 16 -18 42 -31 57 -15 19 -23 41 -23
68 0 22 -6 50 -14 62 -21 34 -28 207 -10 273 8 30 14 77 14 104 0 28 5 50 10
50 6 0 10 18 10 40 0 22 5 40 10 40 6 0 10 6 10 14 0 8 6 21 13 28 8 7 17 26
21 42 9 36 46 86 63 86 7 0 13 6 13 13 0 7 9 19 20 27 11 8 20 20 20 27 0 7
10 18 23 24 12 7 25 17 29 23 5 6 8 1 8 -11 0 -13 5 -23 10 -23 6 0 10 5 10
10 0 6 9 10 20 10 11 0 20 5 20 11 0 5 5 7 11 3 6 -3 21 -2 32 4 12 5 63 17
112 26 73 13 171 16 520 15 237 0 648 3 915 5 366 3 486 2 492 -7 6 -9 12 -9
28 1 14 9 65 12 170 11 82 0 154 2 160 6 5 3 10 1 10 -4 0 -15 77 -14 83 2 4
10 7 10 18 -1 8 -8 46 -12 109 -12 52 0 115 -5 140 -11 31 -7 46 -7 48 0 5 14
162 15 162 1 0 -5 7 -10 15 -10 8 0 15 3 15 8 0 4 25 8 55 10 30 1 55 -2 55
-7 0 -10 47 -8 75 4 44 19 70 58 45 67 -16 5 -28 152 -14 166 7 6 42 13 80 15
62 4 69 3 93 -21 20 -20 26 -38 29 -84 4 -53 2 -60 -16 -65 -25 -6 -41 -61
-22 -73 10 -6 908 -4 1407 3 84 1 153 -1 153 -5 0 -14 80 -9 81 5 0 9 2 9 6 0
5 -14 43 -18 43 -5 0 4 29 8 65 8 36 1 65 -2 65 -7 0 -5 27 -9 60 -9 33 0 60
4 60 10 0 15 38 12 43 -2 3 -10 8 -9 22 2 14 11 19 12 22 3 6 -17 33 -17 33 0
0 9 3 8 9 -2 12 -18 251 -12 275 8 9 7 16 9 16 5 0 -5 150 -10 342 -11 239 -1
343 -4 346 -12 5 -16 39 -13 46 4 3 8 12 15 21 15 11 0 14 10 13 40 -1 22 -5
40 -10 40 -20 0 -5 57 28 101 42 57 60 69 106 69 48 0 83 -19 98 -55 15 -32
14 -108 -1 -113 -5 -2 -9 -10 -9 -18 0 -8 -4 -14 -10 -14 -5 0 -10 -11 -10
-24 0 -22 6 -25 58 -33 31 -4 161 -8 287 -8 130 0 233 -3 236 -9 4 -5 15 -5
25 -1 11 4 27 7 38 6 11 -2 16 2 12 8 -8 12 7 15 18 4 4 -5 52 -9 106 -9 54
-1 114 -4 134 -8 20 -4 36 -3 36 1 0 11 104 10 112 -1 4 -6 12 -6 20 0 7 6 45
10 83 9 39 -2 94 1 123 5 29 4 55 4 57 0 4 -6 1020 -7 1020 -1 0 8 255 2 271
-6 27 -15 126 -16 135 -2 4 8 45 11 120 11 131 -1 169 4 169 23 0 7 4 15 9 17
12 4 20 97 9 104 -5 3 11 21 34 40 39 31 49 34 111 34 37 0 73 -5 80 -10 77
-65 94 -100 77 -160 -8 -27 -6 -37 8 -53 14 -16 25 -18 72 -13 30 4 297 6 593
6 296 0 543 2 548 6 6 3 74 5 152 4 494 -5 980 -1 990 9 6 6 19 11 29 11 20 0
29 16 33 58 3 42 21 77 49 95 28 19 111 23 121 6 4 -6 19 -7 36 -4 24 6 35 1
61 -24 l31 -30 -16 -47 c-12 -38 -13 -50 -3 -60 10 -10 93 -12 382 -9 203 2
369 5 369 5 0 2 1117 9 1490 10 169 0 270 -4 287 -11 15 -6 34 -9 43 -5 19 7
19 40 0 60 -8 8 -15 22 -15 30 0 9 7 16 15 16 8 0 15 7 15 15 0 8 4 15 9 15 5
0 23 14 41 30 27 26 40 30 86 30 30 0 54 -4 54 -10 0 -5 7 -10 15 -10 8 0 15
-4 15 -10 0 -5 5 -10 11 -10 26 0 42 -32 40 -85 0 -31 4 -57 11 -61 8 -5 733
-9 733 -4 0 0 365 3 810 6 446 2 843 7 883 11 l72 6 -2 65 c-2 45 1 67 10 69
6 3 12 12 12 20 0 28 62 83 93 83 16 0 26 4 22 10 -4 6 10 10 34 10 23 0 41
-4 41 -9z m-18750 -608 c0 -9 -6 -24 -14 -32 -21 -25 -30 -61 -14 -61 8 0 6
-5 -5 -11 -12 -7 -15 -15 -9 -22 4 -7 6 -30 4 -52 -2 -22 -5 -115 -5 -207 -2
-173 -6 -188 -41 -153 -8 8 -21 15 -29 15 -8 0 -28 14 -45 30 -18 17 -41 30
-53 30 -20 0 -80 36 -87 52 -2 4 -21 8 -43 8 -22 0 -59 9 -82 20 -24 11 -63
24 -87 28 -41 7 -69 32 -36 32 9 0 16 5 16 10 0 6 12 10 28 10 38 0 102 19
102 30 0 6 9 10 21 10 23 0 79 30 79 42 0 4 7 8 15 8 8 0 15 4 15 9 0 5 12 12
27 16 15 3 44 24 65 46 20 21 44 39 53 39 21 0 45 24 45 44 0 9 3 16 8 16 4 0
15 14 24 30 18 32 48 41 48 13z m21557 -33 c9 -16 21 -30 25 -30 4 0 8 -7 8
-16 0 -20 24 -44 45 -44 9 0 33 -18 54 -40 26 -27 46 -40 64 -40 15 0 27 -4
27 -10 0 -5 7 -10 15 -10 8 0 15 -4 15 -8 0 -12 56 -42 79 -42 12 0 21 -4 21
-10 0 -11 64 -30 103 -30 15 0 27 -4 27 -10 0 -5 7 -10 16 -10 33 0 5 -25 -36
-32 -24 -4 -63 -17 -87 -28 -23 -11 -60 -20 -81 -20 -26 0 -42 -6 -52 -20 -8
-11 -20 -20 -27 -20 -7 0 -13 -4 -13 -9 0 -5 -14 -12 -31 -16 -17 -4 -45 -20
-62 -36 -16 -16 -36 -29 -44 -29 -8 0 -21 -7 -29 -15 -9 -8 -19 -15 -23 -15
-4 0 -8 72 -9 161 -1 94 -7 169 -13 181 -7 12 -9 40 -5 64 3 24 2 44 -2 44 -4
0 -7 13 -8 29 -1 16 -8 37 -18 46 -17 18 -20 28 -9 38 14 15 33 6 50 -23z"/>
<path d="M17343 1683 c-79 -2 -143 -8 -143 -12 0 -5 -8 -7 -17 -5 -11 3 -35
-11 -63 -36 -24 -22 -48 -40 -52 -40 -4 0 -8 -7 -8 -15 0 -8 -9 -15 -19 -15
-20 0 -35 -25 -25 -41 3 -5 0 -9 -6 -9 -5 0 -9 -13 -8 -29 1 -17 -5 -38 -15
-49 -9 -10 -17 -28 -17 -40 0 -12 -4 -22 -9 -22 -4 0 -11 -46 -15 -102 -4 -57
-12 -118 -19 -136 -9 -27 -9 -35 3 -42 21 -13 -5 -86 -34 -94 -54 -15 -221 -3
-210 15 2 5 -2 19 -10 31 -10 16 -15 56 -16 133 -1 68 -5 112 -12 116 -6 4
-11 23 -10 43 1 20 -3 36 -8 36 -5 0 -12 11 -16 25 -3 14 -10 25 -15 25 -5 0
-9 7 -9 15 0 18 -6 26 -73 96 -39 41 -51 48 -63 38 -8 -6 -14 -8 -14 -3 0 5
-19 18 -43 29 -23 11 -45 24 -49 29 -5 8 -617 11 -1173 5 -49 0 -132 3 -184 9
-54 5 -114 5 -140 0 -25 -5 -127 -10 -226 -12 l-180 -4 -39 -33 c-80 -70 -121
-109 -114 -109 4 0 -4 -12 -18 -27 -15 -16 -21 -30 -15 -36 10 -10 3 -47 -9
-47 -4 0 -8 -38 -8 -84 -1 -46 -6 -96 -12 -110 -5 -15 -10 -60 -10 -99 0 -61
-3 -75 -21 -90 -15 -13 -24 -15 -33 -8 -7 6 -16 8 -19 4 -10 -9 -153 -6 -169
4 -13 8 -16 33 -19 140 -1 29 -5 50 -10 47 -5 -3 -9 11 -9 31 0 20 -6 43 -14
50 -7 8 -16 32 -20 54 -3 23 -10 41 -14 41 -5 0 -9 14 -9 31 0 17 -4 34 -10
37 -6 4 -14 18 -18 31 -7 22 -35 61 -63 85 -6 6 -28 26 -48 44 -19 17 -46 32
-60 32 -13 0 -24 4 -24 9 0 5 -7 12 -16 15 -29 11 -227 16 -304 7 -52 -5 -77
-5 -82 3 -5 8 -12 8 -25 0 -13 -8 -27 -8 -47 -1 -20 7 -34 7 -47 -2 -22 -13
-61 -15 -74 -2 -6 4 -39 5 -75 2 -74 -8 -751 -4 -942 5 -87 4 -137 3 -160 -6
-18 -6 -77 -14 -131 -17 -70 -4 -100 -10 -104 -20 -3 -7 -11 -13 -19 -13 -8 0
-14 -4 -14 -9 0 -5 -13 -12 -30 -16 -21 -5 -30 -13 -30 -26 0 -12 -9 -21 -26
-25 -16 -4 -23 -12 -20 -20 3 -8 -1 -14 -10 -14 -10 0 -14 -6 -11 -15 4 -8 2
-17 -4 -20 -5 -4 -7 -11 -4 -16 4 -5 1 -9 -4 -9 -6 0 -11 -7 -11 -15 0 -8 -4
-15 -9 -15 -10 0 -17 -54 -27 -200 -4 -57 -13 -104 -22 -118 -10 -15 -13 -36
-9 -62 l5 -40 -123 0 c-89 0 -126 4 -134 13 -8 10 -7 17 1 25 8 8 8 15 -1 26
-8 10 -9 16 -1 21 6 3 7 11 3 17 -3 7 -8 61 -9 121 -1 61 -6 113 -11 116 -4 3
-9 15 -10 26 -4 46 -26 125 -34 125 -5 0 -9 7 -9 15 0 8 -4 15 -10 15 -5 0
-10 4 -10 10 0 15 -91 100 -106 100 -8 0 -14 4 -14 9 0 5 -10 12 -22 16 -17 4
-1243 9 -1243 4 0 0 -26 -1 -58 -2 -31 -1 -57 1 -57 6 0 10 -28 9 -32 -3 -2
-6 -19 -5 -47 1 -34 8 -46 7 -52 -3 -5 -7 -9 -8 -9 -2 0 15 -262 16 -273 1 -6
-9 -10 -9 -14 1 -6 15 -33 16 -33 1 0 -8 -4 -8 -12 -1 -8 6 -112 9 -288 7
-151 -2 -307 -3 -346 -4 -58 0 -73 -4 -89 -21 -10 -11 -22 -20 -28 -20 -18 0
-77 -32 -77 -42 0 -6 -14 -23 -31 -39 -19 -17 -29 -35 -25 -44 3 -8 0 -15 -6
-15 -6 0 -8 -3 -5 -7 4 -3 0 -15 -10 -25 -9 -10 -13 -18 -10 -18 3 0 -2 -28
-12 -62 -11 -43 -18 -108 -19 -203 -2 -116 -6 -142 -19 -152 -12 -9 -63 -13
-169 -13 -169 0 -215 6 -208 25 3 7 0 16 -6 20 -8 5 -6 11 6 19 15 12 15 13
-1 29 -9 9 -12 17 -6 17 15 0 14 27 -1 33 -10 4 -10 7 -1 14 17 12 11 118 -8
141 -12 14 -13 22 -5 35 8 13 8 20 -3 26 -11 7 -11 9 0 13 11 4 12 9 2 27 -7
11 -13 31 -13 44 0 12 -9 30 -20 40 -11 9 -20 26 -20 37 0 11 -4 20 -10 20 -5
0 -10 7 -10 15 0 8 -4 15 -10 15 -5 0 -10 5 -10 10 0 18 -49 62 -61 54 -6 -3
-15 -1 -19 6 -6 9 -65 13 -221 16 -135 2 -215 7 -217 14 -5 13 -32 13 -32 0 0
-6 -57 -10 -150 -10 -93 0 -150 4 -150 10 0 6 -7 10 -15 10 -8 0 -15 -4 -15
-10 0 -6 -48 -10 -125 -10 -77 0 -125 4 -125 10 0 13 -67 13 -75 0 -8 -12 -72
-13 -79 -1 -7 11 -109 1 -118 -13 -5 -8 -8 -7 -8 2 0 17 -1296 10 -1313 -7 -6
-6 -24 -11 -39 -11 -15 0 -28 -4 -28 -10 0 -5 -12 -12 -27 -16 -55 -12 -63
-16 -63 -29 0 -7 -6 -15 -12 -18 -10 -3 -10 -7 1 -20 9 -11 10 -17 2 -17 -6 0
-11 -7 -11 -15 0 -8 -5 -15 -11 -15 -5 0 -8 -4 -5 -9 3 -5 -1 -12 -10 -15 -9
-3 -14 -12 -11 -20 3 -8 0 -22 -7 -32 -19 -29 -36 -97 -36 -145 0 -32 -3 -40
-10 -29 -10 15 -16 -78 -11 -180 1 -25 -2 -50 -6 -56 -10 -14 -233 -27 -253
-14 -13 8 -12 11 5 24 18 13 18 15 4 21 -14 5 -15 13 -7 52 8 36 7 47 -3 54
-10 6 -11 9 -1 9 16 0 16 27 0 33 -9 4 -10 8 -2 14 12 9 14 167 1 179 -4 4 -7
22 -7 41 0 18 -4 33 -9 33 -5 0 -7 8 -4 18 2 11 -6 32 -21 49 -14 17 -26 38
-26 47 0 9 -4 16 -10 16 -5 0 -10 5 -10 11 0 15 -26 39 -44 39 -8 0 -21 6 -28
13 -29 29 -106 44 -114 22 -4 -9 -15 -10 -42 -4 -20 4 -329 6 -687 4 -1134 -6
-1448 -5 -1459 5 -15 11 -102 6 -139 -9 -16 -6 -53 -11 -83 -11 -30 0 -54 -4
-54 -10 0 -5 -9 -10 -20 -10 -11 0 -20 -4 -20 -10 0 -5 -11 -10 -25 -10 -16 0
-25 -6 -25 -15 0 -8 -7 -15 -15 -15 -8 0 -15 -5 -15 -11 0 -12 -25 -39 -35
-39 -13 0 -64 -48 -58 -54 4 -3 1 -6 -6 -6 -8 0 -11 -8 -8 -19 3 -11 -4 -25
-19 -36 -13 -10 -21 -21 -18 -26 3 -5 1 -9 -4 -9 -6 0 -13 -12 -17 -27 -12
-44 -15 -173 -5 -173 6 0 13 -18 16 -41 4 -22 12 -46 19 -52 6 -7 15 -29 19
-49 4 -21 13 -44 21 -52 8 -8 15 -21 15 -28 0 -16 114 -128 130 -128 5 0 10
-4 10 -10 0 -5 14 -10 30 -10 20 0 30 -5 30 -15 0 -18 37 -38 55 -31 8 3 21
-1 29 -9 8 -8 33 -15 55 -15 23 0 41 -4 41 -10 0 -16 99 -12 116 5 9 8 25 13
37 10 16 -4 34 6 67 36 25 22 57 43 73 46 15 3 27 9 27 14 0 5 7 9 15 9 8 0
15 7 15 15 0 8 5 15 10 15 6 0 10 7 10 15 0 8 5 15 11 15 8 0 8 5 -1 15 -7 9
-8 15 -2 15 18 0 66 94 66 130 1 19 5 38 11 42 5 4 10 35 11 70 1 35 3 69 3
76 1 11 32 13 143 12 79 -1 167 2 195 6 37 5 53 3 53 -5 0 -8 34 -9 122 -4 85
4 119 3 115 -4 -5 -7 0 -9 13 -6 12 3 21 0 22 -8 0 -8 2 -25 4 -39 2 -14 5
-56 8 -95 5 -78 35 -205 48 -205 4 0 8 -5 8 -11 0 -6 7 -17 15 -25 8 -9 15
-24 15 -35 0 -10 5 -19 10 -19 6 0 10 -5 10 -11 0 -14 25 -39 39 -39 6 0 11
-4 11 -10 0 -5 7 -10 16 -10 9 0 25 -9 34 -20 10 -12 31 -22 47 -23 15 -1 35
-9 43 -18 30 -32 41 -32 578 -29 182 2 267 -1 275 -9 14 -14 50 -14 65 1 9 9
18 9 37 0 32 -15 80 -15 106 -1 27 14 102 14 107 0 6 -17 207 -15 224 3 16 15
101 14 121 -2 18 -13 753 -8 769 6 7 6 38 14 68 18 30 4 57 10 60 13 8 10 74
31 96 31 11 0 37 18 58 40 21 22 42 40 46 40 17 0 80 93 75 110 -3 10 1 23 10
30 18 15 20 40 4 40 -8 0 -8 4 -1 13 6 7 11 33 11 58 0 70 8 190 14 196 7 6
388 5 395 -2 8 -8 8 -165 0 -165 -4 0 -5 -21 -2 -47 8 -74 26 -153 36 -153 4
0 8 -5 8 -11 0 -6 29 -40 63 -75 47 -47 71 -64 90 -64 16 0 32 -8 39 -20 9
-14 24 -20 49 -20 28 0 38 -5 42 -20 5 -20 11 -20 214 -15 114 3 213 5 218 6
55 5 1638 1 1780 -5 221 -8 288 -7 298 3 6 6 19 11 29 11 42 0 138 60 138 87
0 7 5 13 10 13 6 0 10 5 10 11 0 7 8 19 18 28 24 22 38 56 53 126 15 74 14
108 -4 145 -11 21 -12 31 -3 40 7 7 7 13 1 18 -13 9 -17 72 -5 72 6 0 10 6 10
14 0 17 51 22 203 22 59 -1 107 2 107 7 0 4 7 7 15 7 8 0 15 -4 15 -10 0 -5 7
-10 15 -10 11 0 15 -11 16 -37 1 -66 7 -107 16 -110 4 -2 7 -44 5 -94 -2 -63
0 -94 8 -99 7 -4 13 -20 13 -36 2 -33 10 -45 90 -128 34 -35 68 -61 80 -61 12
-1 31 -6 42 -12 34 -18 96 -22 225 -14 73 4 130 3 137 -2 7 -5 34 -6 60 -3 27
3 269 8 538 10 270 2 529 7 577 11 75 6 89 5 94 -9 8 -20 38 -21 53 -2 9 11
20 12 49 4 46 -13 92 -14 101 -2 3 5 101 9 217 10 136 0 217 4 225 11 8 6 30
13 50 17 26 5 50 21 83 56 25 27 46 53 46 57 0 5 13 22 28 39 18 20 33 52 41
90 7 32 17 68 22 79 12 28 6 122 -9 137 -18 18 -15 72 6 96 15 17 26 20 61 15
29 -4 46 -2 51 6 6 10 11 10 28 0 16 -10 21 -27 26 -98 4 -48 4 -94 1 -103 -4
-9 -2 -19 4 -23 6 -3 11 -22 11 -41 0 -19 4 -34 10 -34 5 0 9 -8 7 -17 -3 -26
35 -163 46 -163 13 0 37 -27 37 -41 0 -16 68 -79 86 -79 8 0 14 -4 14 -8 0
-37 169 -42 953 -31 149 3 248 0 250 -5 2 -6 57 -9 130 -8 81 2 127 -1 127 -8
0 -5 7 -10 15 -10 8 0 15 4 15 9 0 32 297 39 343 8 25 -16 27 -16 37 1 8 12
13 13 16 5 7 -17 31 -17 38 0 5 9 7 9 12 0 8 -19 24 -16 45 8 15 18 26 21 60
16 39 -5 99 16 99 36 0 12 27 37 39 37 6 0 11 6 11 13 1 6 19 30 40 52 22 22
40 50 40 62 0 12 5 25 10 28 6 3 10 19 10 36 0 16 4 29 9 29 14 0 21 43 10 56
-7 8 -6 14 3 17 10 3 10 9 1 24 -8 14 -8 24 -1 31 6 6 7 16 3 23 -5 6 -10 43
-12 81 -4 94 0 97 116 93 51 -2 95 -6 99 -10 4 -4 6 -42 5 -86 -2 -47 1 -79 7
-79 6 0 10 -18 10 -40 0 -22 4 -40 9 -40 4 0 11 -23 14 -51 4 -28 13 -62 22
-75 8 -13 15 -29 15 -36 0 -8 9 -20 20 -28 11 -8 20 -20 20 -28 0 -15 65 -82
80 -82 5 0 10 -4 10 -10 0 -5 9 -10 19 -10 11 0 21 -5 23 -11 2 -6 17 -12 33
-13 17 -1 35 -4 41 -8 14 -9 7 -9 679 -2 818 8 766 9 775 -6 4 -7 15 -10 24
-7 9 4 16 2 16 -3 0 -17 35 -11 46 8 10 15 29 18 115 20 60 2 106 8 110 14 4
7 22 8 47 5 29 -5 43 -3 52 8 7 8 21 15 31 15 11 0 19 5 19 10 0 6 7 10 15 10
19 0 85 64 85 82 0 7 9 20 20 28 11 8 20 21 20 30 0 8 7 28 16 45 11 21 12 31
4 33 -7 3 -3 13 11 28 17 18 19 27 11 37 -9 10 -9 16 0 25 8 8 8 15 0 25 -8
10 -8 17 -1 24 7 7 8 17 3 24 -4 8 -7 28 -5 46 1 18 -2 33 -7 33 -5 0 -12 12
-15 26 -6 34 33 79 61 70 12 -4 26 0 36 9 14 15 21 15 76 -1 l60 -17 1 -86 c0
-121 7 -172 24 -191 8 -9 15 -28 15 -42 0 -17 12 -37 35 -57 26 -22 35 -39 35
-61 0 -20 5 -30 15 -30 8 0 15 -5 15 -11 0 -14 25 -39 39 -39 6 0 11 -4 11 -9
0 -5 15 -13 33 -16 17 -4 39 -13 47 -19 41 -33 92 -37 455 -33 198 3 380 8
405 12 48 7 256 7 558 -1 100 -3 182 -2 182 3 0 4 62 8 137 8 98 1 138 4 141
13 2 7 17 12 34 12 16 0 42 6 56 14 15 7 40 20 56 27 51 24 175 160 187 204 6
22 16 43 23 48 8 5 7 10 -4 18 -11 8 -12 12 -2 16 6 2 12 11 12 19 0 8 5 14
11 14 6 0 8 9 3 22 -3 11 -7 51 -9 87 -3 81 8 95 70 89 24 -3 45 -2 47 1 2 4
30 5 63 2 l59 -6 -1 -77 c-1 -43 3 -78 8 -78 5 0 9 -16 9 -35 0 -19 5 -35 10
-35 6 0 10 -13 10 -30 0 -20 11 -39 35 -63 19 -19 35 -39 35 -46 0 -6 4 -11
10 -11 5 0 12 -11 16 -25 3 -14 12 -25 20 -25 8 0 14 -4 14 -10 0 -5 7 -10 15
-10 8 0 15 -4 15 -10 0 -5 6 -10 13 -10 7 0 23 -11 35 -25 13 -14 33 -25 47
-25 14 0 25 -4 25 -10 0 -5 6 -10 14 -10 7 0 19 -7 26 -15 7 -8 21 -15 30 -15
10 0 20 -4 22 -9 3 -10 189 -45 227 -43 13 1 30 7 38 13 8 7 30 9 58 6 25 -4
45 -3 45 2 0 4 36 11 79 14 74 5 141 28 141 49 0 4 7 8 15 8 8 0 15 5 15 10 0
6 8 10 18 10 19 1 82 54 82 70 0 5 3 10 8 10 11 0 72 57 72 67 0 5 9 15 20 23
11 8 20 21 20 30 0 8 9 33 21 54 11 21 18 44 15 51 -2 7 0 17 6 23 6 6 6 12
-1 16 -6 4 -11 36 -11 72 0 35 -4 72 -9 82 -5 9 -14 43 -21 75 -6 31 -15 57
-20 57 -5 0 -12 17 -16 37 -9 50 -138 183 -177 183 -14 0 -32 7 -41 15 -8 8
-25 15 -39 15 -13 0 -32 9 -42 20 -17 18 -33 19 -442 20 -234 0 -430 3 -435 6
-5 3 -14 1 -21 -4 -7 -6 -28 -10 -47 -10 -19 0 -39 -1 -45 -2 -25 -4 -242 0
-267 5 -15 4 -28 3 -28 -2 0 -4 -25 -8 -55 -8 -30 0 -55 4 -55 9 0 5 -17 6
-37 2 -21 -4 -144 -8 -273 -9 -166 -2 -242 -6 -258 -15 -12 -7 -26 -11 -30 -8
-15 9 -89 -16 -114 -39 -13 -12 -35 -26 -48 -30 -28 -9 -50 -29 -50 -44 0 -6
-4 -11 -10 -11 -5 0 -10 -7 -10 -15 0 -8 -4 -15 -10 -15 -5 0 -10 -5 -10 -11
0 -6 -7 -17 -15 -25 -8 -9 -18 -33 -21 -55 -4 -21 -10 -39 -15 -39 -16 0 -30
-77 -36 -200 -4 -80 -11 -129 -19 -137 -13 -14 -108 -17 -134 -5 -12 6 -16 37
-19 167 -2 88 -5 163 -8 168 -2 4 -6 29 -9 55 -3 31 -11 53 -25 64 -11 9 -23
33 -26 52 -4 24 -21 50 -54 83 -46 46 -52 49 -138 63 -65 12 -139 15 -273 12
-448 -8 -1027 -7 -1081 2 -40 7 -64 6 -75 -1 -10 -5 -26 -7 -37 -2 -11 4 -40
7 -65 6 -25 -1 -109 -3 -187 -4z m22 -77 c390 9 586 10 591 3 8 -13 151 -11
160 2 3 6 17 8 33 4 14 -4 216 -8 448 -9 233 -2 426 -6 430 -9 3 -4 18 -7 33
-7 14 0 41 -13 60 -30 19 -16 40 -29 46 -30 10 0 25 -25 25 -40 0 -3 10 -15
21 -27 16 -17 19 -30 15 -58 -4 -21 0 -46 8 -63 13 -24 19 -119 14 -227 -1
-16 -2 -41 -3 -55 0 -14 -5 -30 -11 -36 -11 -12 -241 -16 -283 -5 -24 7 -25
10 -27 91 -3 96 -21 170 -42 170 -8 0 -25 11 -39 25 -13 13 -34 29 -45 35 -24
13 -269 10 -269 -3 0 -5 -8 -6 -17 -2 -19 7 -472 8 -888 2 -188 -3 -269 -8
-292 -18 -18 -7 -33 -17 -33 -21 0 -4 -8 -17 -17 -28 -20 -23 -52 -114 -53
-148 0 -12 -6 -25 -14 -28 -11 -4 -14 -19 -12 -52 2 -28 -2 -52 -10 -59 -13
-14 -154 -14 -154 0 0 4 -9 7 -21 7 -11 0 -18 4 -15 9 4 5 1 11 -5 13 -6 2 -2
14 10 30 12 15 17 29 12 32 -4 3 -7 25 -5 48 1 24 -3 58 -9 77 -9 27 -9 35 1
38 6 3 12 11 12 18 0 7 -6 16 -12 18 -9 4 -10 8 -2 14 6 4 12 31 13 58 1 31 7
54 16 61 8 6 18 26 22 45 9 48 61 109 94 109 14 0 35 9 47 20 12 11 35 20 52
20 16 0 30 5 30 11 0 6 8 7 23 2 12 -4 40 -7 62 -7z m4439 -1 c11 -8 28 -15
38 -15 10 0 18 -4 18 -9 0 -5 11 -12 25 -15 14 -4 25 -11 25 -16 0 -6 9 -10
20 -10 13 0 18 -5 14 -15 -4 -10 0 -15 11 -15 9 0 13 -5 10 -11 -4 -6 2 -13
14 -16 12 -3 21 -10 21 -15 0 -10 46 -58 55 -58 16 0 35 -32 35 -58 0 -17 5
-32 11 -34 8 -3 12 -44 13 -124 1 -102 -2 -123 -16 -138 -10 -10 -18 -24 -18
-33 0 -19 -30 -84 -46 -100 -7 -7 -19 -13 -27 -13 -8 0 -25 -16 -38 -35 -13
-19 -26 -35 -29 -35 -3 0 -20 -13 -39 -29 -19 -16 -49 -32 -68 -36 -18 -3 -33
-9 -33 -14 0 -14 -103 -32 -210 -36 -58 -2 -120 -6 -137 -10 -22 -5 -33 -3
-33 4 0 6 -8 11 -19 11 -10 0 -24 7 -31 15 -7 8 -21 15 -31 15 -24 0 -72 22
-82 37 -4 7 -19 13 -32 13 -14 0 -25 5 -25 10 0 6 -6 10 -13 10 -15 0 -107 97
-107 112 0 5 -7 11 -16 15 -12 4 -13 8 -3 13 9 6 6 16 -10 38 -11 17 -21 39
-21 50 0 11 -7 26 -16 33 -12 10 -15 24 -11 53 4 27 1 44 -9 54 -13 13 -11 46
3 62 6 7 363 10 386 4 14 -4 17 -17 17 -68 0 -78 14 -119 45 -136 14 -7 25
-17 25 -22 0 -4 9 -8 20 -8 11 0 20 -4 20 -9 0 -13 53 -21 65 -10 5 5 29 9 53
9 39 0 49 5 83 41 22 23 39 48 39 55 0 8 3 14 8 14 4 0 8 34 9 76 2 68 0 78
-22 100 -30 30 -107 43 -131 23 -11 -9 -17 -10 -23 -1 -8 13 -748 22 -768 9
-6 -4 -170 -6 -364 -5 -272 2 -353 0 -357 -10 -2 -6 -10 -12 -18 -12 -8 0 -14
-4 -14 -9 0 -5 -15 -12 -33 -15 -22 -4 -39 -15 -47 -31 -7 -14 -17 -25 -22
-25 -4 0 -8 -7 -8 -15 0 -8 -4 -15 -10 -15 -5 0 -10 -7 -10 -15 0 -8 -4 -15
-10 -15 -5 0 -10 -14 -10 -31 0 -16 -5 -50 -11 -75 l-11 -44 -92 -2 c-170 -4
-201 -4 -212 0 -8 2 -12 49 -13 141 -1 114 1 140 14 151 9 7 13 21 10 31 -4
11 0 26 10 35 9 9 13 24 10 34 -4 14 13 37 64 88 65 64 74 71 123 77 29 3 77
13 106 21 29 8 58 11 64 8 7 -4 55 -9 108 -11 52 -2 102 -4 110 -4 8 -1 80 3
160 8 80 6 369 8 643 7 274 -2 514 0 535 5 64 15 244 12 266 -4z m-18642 -25
c80 0 108 3 108 13 0 7 3 8 8 2 10 -15 132 -18 132 -4 0 8 5 8 15 -1 12 -10
57 -12 185 -8 94 3 170 2 170 -2 0 -4 75 -6 168 -6 92 1 182 -2 201 -7 38 -10
125 -94 126 -122 0 -5 6 -21 14 -35 11 -19 14 -68 14 -215 -1 -104 -2 -199 -2
-210 -1 -20 -7 -21 -107 -20 -58 1 -107 -2 -109 -6 -3 -3 -23 -5 -45 -4 -55 3
-73 29 -75 109 -1 34 -7 74 -13 89 -7 16 -12 33 -12 38 0 15 -42 69 -54 69 -6
0 -20 14 -31 30 -18 26 -26 30 -68 30 -27 0 -58 -5 -69 -11 -15 -8 -22 -8 -28
0 -10 17 -74 25 -98 12 -15 -8 -34 -8 -71 1 -37 8 -70 8 -128 0 -46 -6 -82 -7
-88 -2 -11 9 -82 10 -664 3 -272 -3 -346 -1 -353 9 -8 10 -11 10 -15 1 -2 -7
-19 -13 -37 -13 -18 0 -38 6 -45 13 -11 10 -14 10 -18 0 -3 -7 -20 -13 -38
-13 -18 0 -36 6 -38 13 -4 8 -8 9 -14 1 -5 -7 -67 -13 -158 -17 -91 -4 -151
-10 -153 -16 -2 -6 -14 -8 -26 -5 -17 4 -27 -1 -39 -20 -19 -28 -23 -86 -7
-86 6 0 10 -13 10 -30 0 -16 4 -30 8 -30 4 0 13 -13 19 -30 11 -29 14 -30 72
-30 34 0 61 4 61 9 0 5 10 11 22 13 13 2 24 11 27 23 2 11 7 23 13 26 5 3 10
19 11 35 2 30 18 54 36 54 6 0 11 4 11 8 0 5 43 10 95 11 116 3 127 -4 114
-70 -4 -24 -8 -70 -9 -102 0 -44 -5 -63 -20 -80 -11 -11 -28 -38 -37 -59 -9
-21 -23 -38 -30 -38 -7 0 -13 -3 -13 -7 0 -5 -20 -17 -45 -28 -25 -11 -45 -23
-45 -27 0 -5 -9 -8 -19 -8 -11 0 -21 -5 -23 -12 -8 -22 -209 -32 -236 -12 -9
7 -27 14 -39 14 -12 0 -28 7 -37 15 -8 8 -18 15 -22 15 -3 0 -14 8 -23 18 -9
9 -29 22 -46 28 -20 6 -29 16 -27 27 2 10 -4 17 -12 17 -10 0 -13 6 -10 15 4
10 0 15 -11 15 -9 0 -14 4 -11 8 3 5 -6 21 -20 35 -47 51 -80 243 -48 278 9
10 14 27 11 38 -3 11 -2 21 2 23 13 6 61 85 61 101 0 9 6 17 13 17 7 0 19 9
27 20 8 11 24 20 35 20 11 0 26 9 33 20 8 14 23 20 47 20 19 0 35 5 35 10 0 6
14 10 30 10 17 0 30 4 30 10 0 14 738 12 746 -2 4 -7 37 -8 98 -3 50 4 171 7
269 6 132 -1 177 2 177 11 0 9 3 9 12 0 8 -8 49 -12 120 -12z m2024 -9 c74 0
134 4 134 8 0 5 19 5 43 0 63 -13 475 -9 480 4 2 7 8 7 18 1 8 -5 93 -9 189
-9 96 0 193 -4 214 -9 29 -7 37 -6 32 2 -10 16 86 16 101 1 9 -9 39 -9 120 0
129 13 136 13 129 2 -3 -4 95 -6 217 -4 459 10 571 9 585 -4 7 -7 26 -13 42
-13 16 0 35 -7 44 -15 8 -8 19 -15 25 -15 6 0 11 -4 11 -10 0 -5 7 -10 15 -10
8 0 15 -4 15 -10 0 -5 7 -10 16 -10 13 0 14 -3 5 -14 -10 -11 -9 -16 3 -23 20
-11 46 -89 46 -140 0 -23 5 -43 10 -45 7 -2 12 -57 13 -143 l2 -140 -165 -7
c-96 -3 -166 -2 -168 3 -2 5 -10 9 -17 9 -19 0 -28 34 -30 120 -2 44 -7 76
-14 78 -6 2 -11 10 -11 18 0 17 -44 64 -60 64 -5 0 -10 4 -10 8 0 5 -31 16
-68 26 -63 16 -110 17 -583 11 -283 -3 -521 -6 -529 -6 -451 5 -790 5 -790 0
0 -4 -17 -14 -37 -22 -46 -19 -103 -65 -103 -83 0 -8 -5 -14 -11 -14 -6 0 -8
-7 -5 -16 3 -8 -1 -22 -9 -30 -8 -9 -15 -33 -15 -55 0 -21 -5 -39 -11 -39 -6
0 -8 -9 -4 -21 5 -14 0 -26 -14 -38 -19 -16 -39 -18 -175 -16 -160 2 -185 7
-166 30 8 9 8 15 0 20 -6 3 -8 10 -6 14 3 4 8 63 11 131 3 68 11 130 16 136 6
7 8 22 4 32 -3 12 1 26 11 36 9 9 13 23 10 31 -3 8 -1 15 4 15 6 0 10 6 10 13
0 7 9 19 21 27 11 8 29 30 40 48 16 24 28 32 50 32 18 0 32 6 36 16 4 11 13
13 33 9 18 -4 31 -1 40 9 8 10 21 14 36 10 16 -4 24 -2 25 7 0 11 2 11 6 1 3
-9 40 -12 139 -11z m5024 -4 c576 -2 690 -7 690 -28 0 -4 16 -11 36 -15 30 -6
101 -54 79 -54 -4 0 -2 -6 4 -13 6 -8 9 -16 6 -19 -3 -3 1 -18 10 -34 8 -16
15 -36 15 -46 0 -9 5 -18 11 -20 8 -3 12 -63 14 -186 l3 -182 -121 2 c-67 0
-141 -2 -164 -6 -46 -8 -49 -4 -54 64 -2 19 -11 47 -21 62 -10 14 -18 36 -18
48 0 11 -11 31 -25 44 -14 13 -25 26 -25 30 0 9 -26 36 -35 36 -3 0 -14 8 -25
18 -15 13 -36 17 -107 17 -48 0 -91 4 -94 8 -7 10 -708 17 -714 7 -2 -3 -213
-4 -469 -2 -334 3 -466 1 -466 -7 0 -6 -7 -11 -15 -11 -8 0 -15 -4 -15 -10 0
-5 -5 -10 -11 -10 -20 0 -79 -70 -79 -94 0 -14 -7 -31 -15 -40 -17 -17 -20
-36 -5 -36 6 0 10 -24 10 -54 l0 -53 -47 -7 c-57 -7 -349 -9 -361 -2 -12 7 -8
286 5 331 8 25 8 41 3 43 -16 6 -12 22 5 22 8 0 15 7 15 15 0 8 5 15 10 15 6
0 10 7 10 15 0 8 5 15 11 15 6 0 8 8 4 19 -7 22 25 61 50 61 8 0 15 5 15 10 0
6 6 10 14 10 8 0 16 3 18 8 2 4 16 14 32 22 26 13 110 15 615 12 322 -2 863
-4 1201 -5z m1981 -1 c14 -3 40 -1 58 4 22 6 46 5 76 -5 34 -10 54 -10 79 -3
24 8 54 8 98 1 52 -9 66 -8 80 4 11 10 24 13 35 7 10 -4 214 -9 453 -11 530
-3 510 -3 535 -18 11 -6 31 -15 45 -18 14 -4 45 -25 69 -47 24 -22 47 -40 52
-40 18 0 63 -74 76 -128 40 -159 48 -266 22 -313 -10 -19 -27 -21 -144 -21
-56 0 -67 1 -61 11 3 5 -1 12 -10 15 -12 5 -14 9 -5 20 14 17 7 169 -8 174 -6
2 -11 9 -11 15 0 6 -18 28 -40 48 -50 46 -65 48 -345 44 -115 -2 -441 -4 -724
-6 l-514 -2 -58 -58 c-33 -31 -59 -64 -59 -73 0 -9 -4 -16 -10 -16 -5 0 -13
-12 -16 -27 -4 -16 -13 -37 -20 -48 -8 -11 -14 -30 -14 -42 0 -12 -10 -32 -22
-43 -21 -20 -33 -21 -168 -19 -150 2 -177 9 -158 42 5 11 5 30 -1 53 -8 27 -7
40 3 49 8 9 12 37 11 84 -2 39 2 71 7 71 5 0 8 8 7 18 -5 54 3 100 21 120 11
12 20 26 20 32 0 5 5 10 10 10 6 0 10 7 10 15 0 8 4 15 10 15 9 0 35 19 64 46
6 6 17 9 25 6 7 -2 23 0 34 6 26 13 171 25 314 26 56 1 105 4 109 9 4 4 15 5
23 3 9 -2 28 -7 42 -10z m2950 2 c8 -12 580 -13 907 -2 156 5 212 4 212 -4 0
-7 18 -15 41 -18 22 -4 46 -13 53 -20 7 -7 26 -14 42 -16 17 -2 28 -8 27 -15
-2 -7 3 -13 11 -13 14 0 76 -55 76 -67 0 -3 8 -13 18 -22 11 -9 22 -29 26 -46
4 -16 12 -33 18 -36 14 -9 27 -75 29 -154 1 -38 4 -74 7 -80 12 -20 6 -61 -12
-82 -13 -15 -28 -21 -52 -20 -18 2 -36 6 -40 10 -10 10 -62 9 -68 -1 -3 -5
-19 -9 -36 -10 -24 0 -30 4 -30 19 0 11 -5 29 -10 39 -7 13 -7 21 0 25 8 5 7
11 0 20 -7 8 -9 19 -5 24 3 6 2 26 -3 45 -11 39 -106 136 -135 136 -10 0 -28
5 -40 12 -13 6 -57 10 -105 9 -66 -1 -84 1 -88 14 -7 17 -30 20 -36 5 -1 -5
-49 -13 -105 -16 -83 -6 -104 -4 -108 7 -7 18 -216 19 -238 1 -8 -7 -52 -11
-118 -9 -57 1 -114 -2 -125 -6 -15 -5 -27 -2 -38 9 -16 15 -18 15 -36 -1 -16
-14 -25 -16 -47 -7 -56 21 -83 23 -99 7 -19 -18 -38 -19 -56 -2 -13 13 -104 9
-154 -8 -13 -4 -27 -1 -37 9 -19 20 -25 20 -43 1 -9 -8 -26 -15 -38 -15 -30 0
-82 -53 -90 -91 -3 -18 -13 -37 -20 -43 -10 -7 -16 -35 -18 -83 -2 -52 -7 -74
-17 -78 -21 -8 -259 -8 -271 0 -8 5 -8 11 0 20 8 10 8 15 0 20 -8 5 -8 11 1
21 9 11 9 17 -1 29 -10 12 -10 15 0 15 10 0 11 17 6 70 -4 42 -2 79 4 90 5 10
11 36 13 58 4 43 27 102 40 102 12 0 37 27 37 39 0 6 7 11 16 11 11 0 15 6 12
18 -6 23 15 42 47 42 14 0 25 4 25 9 0 5 69 9 154 9 179 0 390 11 394 21 4 10
96 10 103 -1z m3229 -287 c0 -5 20 -7 44 -6 33 3 49 -2 65 -16 18 -17 21 -31
21 -114 0 -84 2 -96 22 -115 12 -11 29 -20 37 -20 8 0 26 -11 40 -24 20 -18
46 -26 110 -36 87 -12 343 -15 386 -4 14 3 25 2 25 -3 0 -9 192 -6 220 3 8 3
89 5 180 4 216 -3 423 -2 592 3 l138 4 55 53 c32 32 54 62 54 74 0 12 4 41 9
66 6 24 8 58 5 76 l-5 31 68 6 c167 16 174 12 174 -109 0 -49 -4 -84 -10 -84
-5 0 -10 -16 -10 -35 0 -19 -4 -35 -10 -35 -5 0 -10 -7 -10 -15 0 -8 -4 -15
-8 -15 -5 0 -14 -18 -21 -40 -9 -29 -17 -40 -31 -40 -11 0 -20 -5 -20 -11 0
-14 -26 -39 -40 -39 -7 0 -29 -13 -49 -29 -46 -36 -93 -43 -307 -43 -130 -1
-167 -4 -171 -14 -6 -17 -118 -20 -128 -4 -8 13 -58 13 -72 -1 -15 -15 -123
-23 -123 -9 0 5 -7 10 -15 10 -8 0 -15 -4 -15 -10 0 -6 -90 -10 -249 -10 -156
0 -252 4 -256 10 -10 16 -137 12 -159 -5 -20 -15 -116 -21 -116 -7 0 4 -36 6
-80 4 -44 -2 -86 0 -93 6 -6 5 -47 10 -90 10 -57 0 -83 5 -96 16 -10 9 -25 16
-35 16 -9 0 -14 5 -11 10 3 6 2 10 -2 10 -5 0 -16 12 -25 28 -9 15 -28 39 -42
54 -14 15 -26 36 -26 47 0 11 -13 32 -28 48 -24 23 -27 32 -18 47 8 14 8 20
-1 23 -7 2 -10 10 -7 18 3 7 1 16 -5 20 -6 3 -11 40 -11 85 0 89 14 114 56
104 14 -4 24 -2 24 5 0 6 16 11 35 11 19 0 35 -4 35 -9z m-512 -23 c14 -27 19
-230 7 -273 -4 -16 -14 -36 -22 -43 -7 -7 -13 -23 -13 -36 0 -24 -19 -53 -65
-100 -48 -49 -68 -61 -99 -64 -17 -1 -32 -6 -35 -11 -3 -5 -34 -11 -67 -14
-34 -3 -70 -9 -80 -15 -12 -6 -219 -11 -564 -13 -988 -6 -1024 -5 -1051 27 -6
8 -22 14 -35 14 -13 0 -34 11 -48 25 -14 14 -30 25 -36 25 -13 0 -40 25 -40
37 0 5 -9 15 -20 23 -11 8 -23 29 -26 47 -3 18 -10 33 -15 33 -5 0 -9 15 -9
34 0 19 -5 38 -10 41 -6 4 -8 11 -5 16 4 5 3 14 -1 20 -4 7 -8 28 -10 48 -2
20 -6 60 -9 89 -4 31 -2 58 3 65 7 8 41 12 94 12 l83 0 6 -65 c5 -63 42 -160
61 -160 5 0 14 -13 19 -30 6 -16 15 -30 20 -30 5 0 9 -6 9 -14 0 -8 17 -16 43
-20 61 -11 667 -13 667 -3 0 4 4 5 10 2 12 -7 393 -10 406 -3 5 3 114 6 243 7
l234 3 33 33 c18 18 30 36 26 39 -3 3 2 6 12 6 12 0 17 7 16 23 -1 12 -1 24 0
27 1 3 3 47 6 99 2 52 6 97 10 100 3 3 48 6 100 7 52 1 97 4 101 8 14 13 40 5
51 -16z m978 -26 c36 -44 38 -49 36 -111 -4 -106 1 -102 -105 -95 -102 7 -157
27 -200 72 -24 25 -26 32 -17 56 5 15 10 44 10 65 0 57 11 62 132 60 l106 -2
38 -45z m2870 34 c8 -9 14 -35 14 -66 0 -70 -35 -105 -117 -116 -39 -5 -58 -3
-61 5 -2 6 -8 11 -14 11 -13 0 -38 26 -38 39 0 6 -3 11 -7 11 -5 0 -9 25 -11
55 -2 50 0 55 20 60 83 18 196 18 214 1z m-4179 -12 c7 -6 10 -14 7 -17 -4 -3
-8 -52 -10 -108 -3 -112 -3 -111 -74 -136 -19 -7 -44 -10 -56 -7 -12 3 -25 1
-28 -5 -9 -14 -46 -14 -46 -1 0 6 -8 10 -17 11 -11 0 -13 3 -5 6 14 6 17 43 2
43 -5 0 -12 12 -16 28 -3 15 -8 34 -10 43 -3 9 2 24 11 32 8 9 15 26 15 39 0
14 14 38 31 56 30 30 33 31 107 29 43 -1 82 -7 89 -13z m-14125 -16 c14 -16
18 -39 19 -92 1 -101 5 -140 18 -144 6 -2 11 -8 11 -14 0 -21 58 -58 92 -58
13 0 31 -7 41 -14 16 -12 139 -14 760 -10 1089 7 1036 6 1041 19 2 7 19 15 38
19 32 6 64 38 53 55 -3 5 2 12 11 15 9 4 14 9 11 12 -3 4 3 15 13 27 16 16 19
32 16 89 -1 41 2 72 8 76 6 3 88 6 181 7 133 0 172 -3 181 -14 16 -21 7 -240
-11 -268 -8 -12 -15 -30 -15 -40 0 -10 -12 -29 -25 -42 -14 -13 -25 -27 -25
-32 0 -5 -5 -9 -11 -9 -6 0 -20 -11 -31 -25 -11 -14 -30 -25 -43 -25 -13 0
-27 -4 -30 -10 -3 -5 -15 -10 -25 -10 -10 0 -20 -5 -22 -12 -2 -6 -20 -11 -39
-11 -18 0 -37 -4 -40 -9 -7 -11 -266 -17 -1004 -22 -335 -3 -617 -5 -625 -6
-8 0 -55 2 -105 6 -49 4 -97 6 -105 6 -162 -6 -293 -3 -299 7 -5 8 -28 10 -74
6 -45 -4 -67 -3 -67 4 0 6 -6 11 -14 11 -7 0 -19 7 -26 15 -7 8 -21 15 -31 15
-28 0 -149 118 -149 145 0 12 -9 34 -20 48 -15 18 -17 28 -9 33 9 5 7 10 -4
19 -13 9 -17 32 -19 101 -4 142 5 148 225 151 121 2 132 0 149 -19z m341 12
c22 0 44 -6 53 -15 8 -8 26 -15 39 -15 44 0 85 -85 85 -176 0 -72 -14 -84 -96
-84 -41 0 -63 4 -59 10 4 6 -23 9 -74 9 -61 -2 -86 2 -106 15 -35 23 -65 54
-65 66 0 5 -11 12 -25 16 -24 6 -25 10 -25 80 0 65 3 75 21 85 12 6 38 9 58 7
20 -3 45 -1 56 3 11 5 38 6 60 3 22 -3 57 -5 78 -4z m12385 4 c35 -5 52 -11
52 -21 0 -7 14 -16 30 -19 17 -4 30 -13 30 -20 0 -8 5 -14 10 -14 6 0 10 -5
10 -10 0 -6 9 -30 20 -52 21 -44 27 -118 10 -118 -5 0 -10 -7 -10 -16 0 -13
-6 -15 -32 -9 -35 8 -36 8 -144 5 -83 -2 -144 12 -169 40 -10 11 -24 20 -32
20 -8 0 -12 4 -8 9 3 6 -3 14 -12 20 -14 7 -18 22 -18 65 0 31 -3 56 -7 56 -5
0 -8 14 -8 31 l0 31 69 -7 c46 -5 71 -3 75 4 8 12 55 14 134 5z m4146 -31 c0
-21 3 -41 9 -45 6 -3 11 -26 11 -49 1 -41 -1 -44 -34 -55 -19 -6 -36 -16 -38
-22 -4 -13 -37 -19 -149 -26 -70 -5 -81 -3 -76 9 3 9 0 21 -6 29 -9 10 -8 15
2 19 9 3 12 16 9 36 -2 19 0 31 7 31 6 0 11 5 11 11 0 11 25 39 35 39 3 0 16
9 27 20 13 11 29 18 39 15 10 -3 23 1 31 9 8 10 32 15 68 16 l56 0 -2 -37z
m-18489 17 c3 -5 28 -10 55 -10 32 0 50 -5 53 -14 3 -8 3 -16 -1 -18 -4 -2
-14 -16 -22 -33 -13 -24 -23 -31 -53 -33 -21 -2 -37 1 -37 7 0 6 -6 11 -13 11
-8 0 -13 17 -15 50 -1 38 1 50 12 50 8 0 18 -4 21 -10z m10523 -10 c12 -11 26
-20 32 -20 18 0 0 -102 -21 -123 -11 -10 -19 -22 -19 -27 0 -6 -7 -10 -15 -10
-8 0 -15 -5 -15 -11 0 -20 -33 -38 -67 -39 -18 0 -33 -4 -33 -10 0 -6 -47 -10
-122 -10 -97 0 -125 3 -139 16 -17 15 -17 17 1 37 13 13 16 24 10 32 -21 25
28 105 65 105 8 0 15 5 15 10 0 6 6 10 14 10 7 0 19 7 27 16 8 10 21 13 36 9
13 -3 23 -1 23 5 0 6 34 10 85 10 50 0 85 4 85 10 0 16 14 12 38 -10z m250 5
c1 -1 4 -74 5 -161 2 -168 3 -164 -49 -218 -11 -12 -29 -34 -39 -49 -9 -15
-24 -27 -31 -27 -8 0 -14 -4 -14 -10 0 -5 -7 -10 -15 -10 -8 0 -15 -4 -15 -10
0 -6 -33 -10 -80 -10 -44 0 -80 -4 -80 -8 0 -5 -19 -7 -42 -6 -24 1 -50 -3
-58 -11 -19 -16 -69 -17 -95 -1 -12 7 -43 10 -75 8 -30 -2 -75 -3 -100 -4 -24
0 -53 -6 -64 -14 -16 -11 -24 -11 -40 -1 -27 17 -916 17 -937 1 -9 -7 -51 -8
-119 -4 -58 4 -107 4 -110 0 -9 -13 -39 -19 -45 -10 -4 6 -97 10 -226 10 -139
0 -219 4 -219 10 0 6 -7 10 -15 10 -8 0 -15 5 -15 10 0 6 -7 10 -15 10 -8 0
-15 -5 -15 -11 0 -6 -13 3 -30 19 -16 17 -30 34 -30 39 0 5 -9 15 -19 23 -11
7 -18 18 -15 22 3 5 -1 20 -10 33 -9 13 -16 41 -16 62 0 21 -6 50 -14 65 -8
14 -10 30 -6 35 5 4 5 28 0 53 -5 25 -9 66 -10 93 0 54 -19 48 168 51 63 0
118 -2 124 -5 5 -3 14 -37 21 -75 6 -38 14 -71 17 -74 3 -3 12 -24 18 -47 8
-25 19 -43 27 -43 8 0 15 -7 15 -15 0 -11 11 -15 38 -15 21 0 46 -6 57 -13 11
-7 47 -14 80 -16 33 -2 67 -6 75 -11 13 -6 493 -5 1150 3 91 1 171 -2 178 -7
7 -5 18 -4 27 4 10 8 30 10 57 6 24 -3 94 -7 157 -7 l115 -2 48 52 c27 28 52
51 54 51 9 0 59 64 57 72 -2 4 2 8 8 8 7 0 9 23 6 70 l-4 70 34 0 c18 0 33 4
33 9 0 7 89 4 98 -4z m598 7 c52 -2 62 -5 67 -22 3 -11 0 -20 -5 -20 -7 0 -8
-21 -4 -62 4 -35 7 -72 7 -82 0 -11 10 -33 22 -50 19 -28 37 -45 87 -88 17
-16 291 -27 390 -16 36 4 296 7 578 6 310 0 517 3 525 9 6 5 28 16 47 23 49
20 133 106 125 130 -3 10 -1 21 4 24 5 4 9 36 9 71 -1 36 2 68 6 72 4 4 52 7
106 8 87 0 101 -2 106 -17 3 -10 2 -23 -1 -28 -4 -6 -2 -16 3 -23 5 -7 12 -47
16 -89 5 -60 3 -92 -13 -150 -35 -129 -41 -142 -71 -177 -25 -28 -39 -35 -80
-39 -28 -2 -50 -8 -50 -13 0 -4 -15 -10 -32 -13 -18 -3 -393 -8 -833 -11 -439
-4 -803 -9 -809 -12 -5 -3 -41 -7 -80 -8 -88 -3 -238 33 -264 63 -9 11 -26 21
-36 23 -11 2 -23 16 -27 33 -5 16 -16 38 -27 50 -21 24 -45 118 -47 186 -1 25
-5 83 -10 128 -5 57 -5 86 3 90 9 6 139 8 288 4z m1792 -18 c19 -20 19 -22 2
-89 -18 -73 -60 -125 -100 -125 -11 0 -20 -4 -20 -9 0 -13 -133 -23 -161 -12
-13 5 -20 10 -15 10 5 1 3 7 -3 15 -9 10 -9 16 -1 21 8 5 7 11 -1 22 -10 11
-10 16 0 23 8 4 11 16 7 28 -5 15 3 31 29 59 19 21 35 43 35 49 0 15 35 23 88
19 23 -1 44 1 47 5 9 15 74 5 93 -16z m-7778 -5 c8 -9 27 -19 41 -22 23 -6 28
-16 44 -78 18 -77 14 -139 -10 -139 -8 0 -15 -4 -15 -10 0 -13 -46 -13 -72 1
-16 9 -23 8 -29 -2 -6 -10 -9 -11 -9 -1 0 6 -7 12 -15 12 -8 0 -15 -4 -15 -10
0 -5 -5 -10 -11 -10 -5 0 -7 5 -4 10 4 6 -16 10 -53 10 -44 0 -63 5 -75 18
-10 10 -14 22 -11 25 4 4 -1 9 -10 13 -9 3 -16 12 -16 20 0 8 -5 14 -11 14 -7
0 -9 11 -4 33 7 34 13 81 14 109 1 15 12 17 86 16 47 -1 87 1 90 4 11 11 71 2
85 -13z m2164 9 c5 -10 7 -10 12 0 8 18 32 15 38 -5 13 -49 17 -83 8 -83 -13
0 -9 -49 5 -76 25 -45 -2 -234 -33 -234 -7 0 -15 -13 -19 -30 -4 -20 -13 -30
-24 -30 -10 0 -31 -11 -46 -24 -15 -13 -34 -22 -42 -19 -7 3 -19 0 -27 -6 -10
-8 -101 -12 -302 -12 -163 -1 -294 -5 -301 -11 -7 -5 -14 -5 -17 1 -4 6 -19 8
-34 5 -45 -8 -242 -10 -242 -1 0 10 -128 9 -135 -2 -3 -6 -18 -6 -38 0 -47 13
-107 11 -108 -3 0 -9 -2 -10 -5 -1 -7 17 -274 18 -275 1 0 -10 -2 -10 -6 0 -3
7 -25 12 -62 12 -32 0 -62 5 -69 12 -9 9 -15 10 -20 2 -4 -6 -52 -14 -106 -17
-65 -4 -102 -10 -107 -18 -6 -10 -12 -8 -27 9 -22 25 -38 28 -46 10 -5 -10 -7
-10 -12 0 -7 14 -34 16 -34 2 0 -5 -25 -10 -55 -10 -30 0 -55 5 -55 10 0 6 -9
10 -20 10 -11 0 -20 -6 -20 -12 0 -9 -4 -8 -10 2 -8 12 -13 13 -30 3 -11 -7
-31 -13 -44 -13 -13 0 -26 6 -29 13 -3 9 -9 9 -25 0 -16 -10 -22 -10 -26 0 -3
9 -8 8 -16 -3 -9 -11 -13 -12 -17 -2 -6 14 -43 16 -43 2 0 -5 -13 -10 -30 -10
-16 0 -30 5 -30 10 0 14 -27 12 -34 -2 -5 -10 -7 -10 -12 0 -7 16 -34 16 -35
0 0 -10 -2 -10 -6 0 -2 6 -11 12 -19 12 -8 0 -14 5 -14 10 0 6 -19 10 -43 10
-31 0 -46 5 -57 20 -8 11 -20 20 -26 20 -25 0 -91 78 -98 115 -4 20 -14 39
-22 42 -13 5 -13 7 -2 14 10 7 11 12 1 28 -8 13 -9 22 -2 26 7 5 7 11 0 19 -6
8 -9 45 -6 92 2 43 4 87 5 96 0 16 16 18 195 17 190 -1 200 -2 196 -31 -2 -21
31 -174 39 -176 5 -2 10 -10 10 -18 0 -27 62 -74 97 -74 17 0 35 -5 39 -11 3
-6 17 -9 30 -6 13 2 24 1 24 -3 0 -12 888 -10 943 2 26 5 55 7 65 3 9 -4 58
-7 107 -5 50 1 198 3 330 5 255 3 337 9 370 30 11 7 31 15 45 19 14 3 49 28
78 56 51 48 52 51 52 105 0 30 5 55 10 55 6 0 10 7 10 15 0 8 7 15 15 15 8 0
15 4 15 10 0 5 44 11 98 13 53 1 102 4 109 5 6 1 14 -4 17 -10z m1194 -7 c2
-6 15 -11 28 -11 14 0 36 -13 54 -31 28 -30 30 -36 30 -113 0 -94 -11 -115
-44 -85 -14 13 -29 18 -44 14 -32 -8 -143 5 -136 16 3 5 -8 9 -25 9 -31 0 -91
51 -91 78 0 6 -3 12 -8 12 -8 0 -32 71 -32 95 0 12 14 15 65 15 36 0 65 4 65
9 0 13 133 6 138 -8z m2926 7 c5 -10 7 -10 12 0 8 17 34 15 34 -3 0 -8 3 -15
8 -15 4 0 23 -14 41 -30 32 -30 70 -120 51 -120 -5 0 -12 -16 -16 -35 -5 -30
-10 -35 -43 -40 -20 -3 -48 -8 -63 -10 -15 -2 -30 0 -33 5 -3 6 -14 10 -24 10
-21 0 -71 22 -71 33 0 4 -6 7 -12 7 -7 1 -26 21 -42 46 -21 34 -27 52 -22 74
3 17 9 44 12 60 l6 30 78 0 c53 0 80 -4 84 -12z m-7984 -40 c9 -56 -1 -94 -30
-127 -16 -17 -34 -31 -39 -31 -6 0 -11 -7 -11 -15 0 -10 -11 -15 -35 -15 -19
0 -35 -4 -35 -9 0 -13 -22 -18 -106 -26 -60 -6 -74 -4 -88 11 -13 13 -15 19
-5 25 10 6 10 11 0 22 -9 12 -9 16 1 19 10 4 10 9 -2 23 -11 14 -12 19 -2 22
6 3 12 18 12 34 0 38 28 69 62 69 16 0 28 5 28 10 0 6 7 10 15 10 8 0 15 4 15
9 0 5 46 8 108 5 l107 -4 5 -32z m3334 30 c5 -10 7 -10 12 0 7 15 174 17 174
2 0 -5 6 -10 14 -10 9 0 15 -15 18 -46 3 -43 1 -47 -44 -89 -30 -27 -54 -42
-63 -39 -8 4 -15 1 -15 -5 0 -6 -6 -11 -14 -11 -8 0 -16 -5 -18 -11 -6 -18
-167 -33 -194 -18 -21 11 -22 13 -7 24 10 8 13 17 8 25 -5 8 -8 38 -8 67 0 65
30 103 81 103 17 0 32 5 32 10 0 14 17 12 24 -2z"/>
</g>
</svg>
