<?xml version="1.0" standalone="no"?>
<!DOCTYPE svg PUBLIC "-//W3C//DTD SVG 20010904//EN"
 "http://www.w3.org/TR/2001/REC-SVG-20010904/DTD/svg10.dtd">
<svg version="1.0" xmlns="http://www.w3.org/2000/svg"
 width="1366.000000pt" height="1106.000000pt" viewBox="0 0 1366.000000 1106.000000"
 preserveAspectRatio="xMidYMid meet">
<metadata>
Created by potrace 1.13, written by Peter Selinger 2001-2015
</metadata>
<g transform="translate(0.000000,1106.000000) scale(0.100000,-0.100000)"
fill="#000000" stroke="none">
<path d="M6489 10838 c-59 -55 -69 -75 -69 -141 0 -40 6 -61 21 -81 l21 -26
-88 -101 c-48 -56 -93 -103 -100 -106 -16 -6 -93 43 -121 76 -19 24 -28 26
-113 30 -82 3 -95 1 -128 -21 -20 -13 -50 -30 -65 -38 -16 -8 -40 -27 -53 -43
-22 -26 -24 -37 -24 -132 0 -112 10 -147 60 -217 37 -50 37 -71 5 -112 -14
-17 -42 -53 -62 -80 l-35 -49 4 -111 c6 -146 30 -197 115 -240 24 -12 60 -16
141 -16 122 0 153 9 225 64 58 44 89 53 111 31 27 -28 19 -66 -25 -120 -22
-27 -44 -56 -49 -66 -8 -15 -47 -17 -367 -25 -443 -11 -389 -13 -1038 32 -456
31 -588 36 -850 35 -235 -1 -314 2 -326 11 -8 7 -26 44 -40 82 -23 67 -27 71
-99 120 -57 39 -93 56 -152 69 -43 10 -82 15 -89 12 -6 -4 -34 -13 -62 -19
-60 -14 -153 -77 -162 -109 -4 -12 -18 -43 -31 -70 -15 -27 -23 -55 -19 -66 8
-27 -18 -45 -45 -31 -14 7 -47 10 -88 6 -37 -3 -76 -5 -87 -4 -11 1 -54 0 -95
-1 -391 -10 -611 -10 -634 -2 -19 8 -26 18 -26 38 0 16 -12 46 -25 68 -26 41
-33 89 -15 100 33 20 73 146 72 225 0 40 -32 183 -49 220 -7 14 -14 37 -17 52
-4 15 -22 43 -41 62 -36 37 -147 96 -178 96 -10 0 -32 7 -50 16 -17 9 -68 22
-112 29 -86 14 -237 50 -270 65 -124 56 -158 62 -175 31 -38 -71 20 -231 120
-331 30 -30 64 -60 74 -66 25 -13 15 -58 -18 -79 -22 -15 -34 -15 -126 -1 -58
9 -115 23 -133 34 -18 11 -57 27 -87 37 -30 10 -81 31 -113 48 l-58 30 45 46
c45 45 46 49 46 108 0 65 -2 68 -95 154 -27 24 -91 33 -142 20 -37 -10 -47 -8
-131 29 -49 22 -94 40 -99 40 -5 0 -38 14 -72 31 -79 38 -97 36 -93 -11 2 -19
6 -103 10 -187 4 -84 11 -155 14 -159 4 -3 -2 -29 -13 -57 -11 -28 -21 -67
-22 -86 -1 -49 24 -129 49 -156 27 -29 111 -55 178 -55 47 0 54 3 86 40 l35
41 43 -65 c23 -35 42 -68 42 -74 0 -16 59 -140 70 -147 18 -11 90 -182 90
-214 0 -19 -85 -121 -100 -121 -4 0 -24 15 -44 33 -101 92 -122 105 -211 132
-49 16 -96 33 -104 39 -13 10 -96 25 -160 29 -56 3 -61 -21 -16 -89 48 -72 95
-160 95 -177 0 -7 9 -31 20 -52 11 -22 29 -62 39 -90 38 -101 69 -154 121
-215 74 -85 91 -92 213 -88 73 2 102 -1 105 -10 7 -21 108 -82 136 -82 15 0
36 -5 47 -11 15 -8 39 -4 103 15 86 27 163 72 228 134 35 33 41 35 128 41 50
4 96 4 101 0 11 -6 8 -213 -4 -409 -3 -52 -9 -201 -12 -330 -4 -129 -10 -260
-13 -290 l-7 -55 -60 -19 c-96 -30 -124 -44 -176 -89 -74 -63 -93 -111 -92
-228 0 -105 12 -136 70 -190 31 -28 119 -79 137 -79 7 0 18 -6 24 -12 7 -7 32
-17 55 -23 l42 -10 0 -200 c0 -110 -3 -330 -7 -490 -10 -392 -20 -1117 -22
-1640 l-2 -430 -35 -6 c-55 -10 -83 -25 -128 -68 -23 -23 -51 -47 -61 -54 -10
-7 -30 -40 -44 -74 -22 -52 -26 -78 -26 -155 0 -82 3 -100 29 -153 32 -68 102
-143 140 -151 14 -3 37 -9 51 -14 14 -5 38 -11 53 -15 l29 -6 -6 -297 c-4
-163 -9 -313 -12 -332 -3 -19 -8 -172 -10 -340 -4 -331 -18 -700 -29 -767 -8
-50 -17 -59 -72 -71 -39 -9 -42 -8 -63 20 -19 26 -19 30 -5 44 41 41 30 121
-23 170 -39 35 -85 50 -125 40 -22 -5 -35 -15 -108 -81 -27 -25 -58 -132 -44
-155 9 -15 -13 -40 -35 -40 -30 0 -113 -51 -166 -103 -72 -69 -124 -197 -124
-304 l0 -61 -58 -38 c-63 -42 -129 -107 -170 -169 -46 -69 -157 -288 -168
-332 -3 -12 -33 -50 -65 -84 -33 -35 -58 -67 -56 -73 5 -15 56 -40 109 -54 34
-8 55 -9 80 -1 65 22 164 72 201 104 33 29 45 33 89 31 50 -1 51 0 103 58 56
62 60 73 71 199 5 52 8 58 26 55 38 -5 44 -32 21 -80 -12 -24 -27 -72 -33
-108 -6 -36 -17 -87 -25 -115 -8 -27 -21 -77 -29 -110 -21 -84 -69 -217 -89
-246 -22 -30 -21 -51 2 -80 l18 -23 24 28 c13 15 39 34 58 42 18 8 48 26 67
41 18 16 52 42 74 58 23 17 59 47 80 68 22 20 44 37 50 37 5 0 10 7 10 15 0 8
15 18 33 23 18 5 45 21 61 35 15 14 41 32 59 41 18 8 56 31 86 50 58 38 72 38
90 -1 14 -30 9 -36 -41 -52 -23 -8 -50 -29 -74 -58 -30 -37 -38 -56 -42 -98
-2 -29 0 -61 6 -71 7 -13 5 -32 -10 -73 -17 -45 -20 -69 -16 -143 3 -49 10
-94 16 -100 14 -14 72 7 142 52 30 19 63 33 73 31 11 -1 22 8 30 28 13 30 72
86 137 130 38 26 95 108 121 174 16 40 18 42 65 45 27 2 60 12 75 23 15 10 32
19 37 19 6 0 23 12 39 28 15 15 40 35 55 44 39 25 68 112 68 202 0 68 2 74 25
84 42 19 85 99 84 157 0 76 -24 116 -80 133 -57 18 -108 10 -148 -23 -40 -35
-61 -33 -61 6 0 17 5 40 12 52 6 12 14 38 17 57 l6 35 75 5 c41 3 80 9 86 13
19 11 1601 32 2009 26 355 -5 621 -8 1282 -11 l682 -4 12 25 c8 15 15 71 16
131 10 366 14 442 23 465 6 15 10 82 10 151 0 68 4 143 10 166 5 24 13 111 18
195 6 97 13 158 22 168 10 12 40 15 174 15 89 0 176 4 194 9 27 8 36 7 51 -8
30 -30 36 -131 46 -801 6 -393 9 -457 22 -467 18 -14 300 -16 1838 -13 862 2
1170 4 1685 14 524 10 1171 6 1199 -7 22 -10 28 -23 38 -82 7 -39 18 -82 24
-97 6 -15 9 -35 5 -43 -9 -25 -44 2 -38 30 6 33 -31 55 -96 55 -48 0 -56 -3
-97 -42 -44 -42 -75 -107 -75 -154 0 -43 37 -123 69 -150 63 -52 102 -74 136
-74 46 0 81 -33 104 -98 33 -97 114 -153 226 -156 78 -2 99 -15 164 -94 47
-59 148 -142 172 -142 4 0 25 -11 45 -25 20 -14 53 -29 73 -35 41 -11 85 -39
196 -125 90 -69 154 -107 171 -101 16 6 28 78 28 177 l1 86 -76 89 c-71 83
-77 94 -89 159 -18 95 -31 116 -87 145 -62 32 -103 69 -103 92 0 23 15 23 121
-1 103 -23 132 -33 236 -82 45 -22 85 -39 90 -39 4 0 22 -8 38 -17 17 -9 77
-40 135 -69 58 -30 113 -59 122 -66 19 -14 34 -6 24 14 -3 7 -35 49 -71 93
-36 44 -73 93 -83 109 -9 16 -34 49 -55 73 -20 25 -44 59 -53 76 -9 18 -25 41
-35 52 -10 11 -32 47 -50 80 -17 33 -37 67 -44 75 -24 26 -56 112 -50 131 9
26 18 24 58 -13 71 -67 170 -81 245 -36 35 22 37 21 92 -29 32 -29 146 -53
249 -53 43 0 81 -3 85 -7 3 -4 21 -12 39 -19 17 -6 40 -15 50 -19 11 -5 17 -3
17 7 0 16 -213 232 -312 316 -35 30 -76 65 -91 78 -33 28 -130 78 -172 88 -68
16 -85 28 -122 95 -21 36 -43 77 -49 91 -18 42 -162 160 -240 197 -57 28 -76
42 -89 70 -25 52 -74 121 -98 138 -64 45 -138 40 -206 -16 -36 -29 -41 -37
-41 -75 0 -53 12 -87 50 -133 18 -23 26 -42 21 -50 -11 -17 -187 -21 -208 -6
-19 14 -24 182 -12 415 6 132 18 558 19 728 0 45 0 52 9 392 4 168 11 317 15
332 5 15 20 35 34 44 57 37 76 72 78 143 2 96 -12 137 -63 179 l-43 37 4 345
c2 190 9 449 15 575 6 127 14 527 19 890 l7 659 44 8 c24 4 53 14 65 23 11 9
36 27 54 40 19 13 53 55 78 92 44 69 55 114 34 153 -5 10 -10 33 -11 51 -2 39
-27 98 -61 147 -24 35 -94 67 -173 80 l-40 7 1 250 c1 138 1 266 1 285 0 19 0
190 2 380 l2 345 25 23 c14 12 38 22 54 22 15 0 57 7 91 16 76 20 115 14 171
-24 51 -34 199 -106 248 -120 83 -25 146 -25 217 -1 82 27 133 57 191 112 41
40 42 43 42 105 0 55 3 66 26 87 15 14 31 25 36 25 6 0 24 10 41 22 18 13 46
30 62 38 22 11 41 37 70 94 27 53 63 103 108 150 37 38 67 75 67 82 0 17 -20
31 -55 37 -16 3 -50 10 -75 16 -157 35 -312 -16 -419 -139 -29 -33 -58 -60
-65 -60 -28 0 -86 83 -86 124 0 7 13 30 30 51 16 20 41 61 54 89 13 28 34 60
46 71 12 11 28 33 35 50 27 58 61 109 87 128 l26 19 61 -32 c64 -34 81 -35
156 -7 61 23 87 60 83 119 l-3 48 46 0 c73 0 79 10 171 310 13 41 23 79 23 83
0 7 -255 12 -354 8 -14 -1 -39 -17 -61 -41 l-37 -40 -58 30 c-97 51 -161 38
-213 -43 -42 -65 -49 -104 -27 -147 24 -47 13 -77 -33 -88 -20 -5 -71 -17
-112 -27 -41 -10 -79 -21 -85 -25 -5 -4 -37 -12 -70 -19 -33 -7 -79 -17 -102
-22 -50 -11 -67 -6 -82 27 -19 42 -13 64 21 82 81 42 196 206 215 306 3 17 12
43 19 58 18 34 18 35 -5 48 -14 7 -30 6 -58 -4 -34 -12 -120 -21 -383 -42 -41
-3 -90 -12 -109 -20 -18 -8 -45 -14 -60 -14 -61 -1 -133 -52 -170 -121 -10
-19 -36 -44 -57 -56 -22 -12 -56 -31 -76 -42 -50 -28 -82 -93 -98 -199 -16
-108 -8 -168 41 -274 l40 -87 -20 -39 c-11 -21 -27 -44 -35 -52 -16 -13 -212
-11 -805 6 -219 7 -200 -1 -266 103 -18 29 -44 59 -57 65 -13 7 -45 24 -71 39
-38 22 -61 27 -113 27 -75 0 -100 -11 -174 -74 -66 -56 -100 -106 -100 -146 0
-17 -4 -29 -8 -26 -5 3 -251 8 -548 11 -404 5 -582 3 -709 -6 -93 -8 -240 -14
-325 -14 -134 0 -995 32 -1356 51 l-121 6 -28 55 c-15 30 -43 70 -62 89 -26
27 -32 38 -24 52 28 52 90 75 118 43 9 -12 24 -21 31 -21 8 0 28 -10 45 -22
27 -20 48 -24 133 -26 101 -4 101 -4 136 27 20 17 41 31 47 31 6 0 16 12 22
28 6 15 18 42 26 59 13 26 13 35 3 48 -7 8 -10 25 -6 39 8 33 -11 123 -35 162
-34 56 -26 76 51 134 48 37 74 65 84 91 21 53 30 111 22 152 -8 45 -71 127
-96 127 -11 0 -20 4 -20 9 0 5 -30 21 -68 35 -112 43 -225 31 -311 -32 l-34
-26 -31 36 c-17 20 -67 75 -110 122 l-79 87 21 22 c41 44 51 154 19 198 -22
29 -81 59 -117 59 -28 0 -45 -9 -81 -42z m152 -34 c34 -36 32 -105 -4 -159
-15 -22 -27 -50 -27 -62 0 -22 60 -99 131 -170 35 -35 69 -83 69 -98 0 -5 -16
-27 -35 -47 -42 -47 -75 -50 -102 -9 -22 35 -110 111 -127 111 -8 0 -26 -17
-42 -37 -50 -67 -336 -343 -355 -343 -10 0 -37 23 -59 51 -37 47 -39 52 -25
72 33 48 151 161 180 173 17 7 66 52 108 101 42 48 95 106 116 127 53 52 59
79 26 117 -40 48 -35 99 16 154 50 55 91 60 130 19z m-513 -388 c20 -13 48
-35 61 -50 27 -29 23 -39 -31 -78 -27 -19 -30 -19 -47 -4 -11 10 -35 16 -63
16 -49 0 -66 -13 -88 -68 -18 -47 2 -104 59 -168 25 -28 71 -81 101 -118 30
-36 58 -66 61 -66 4 0 21 -14 38 -31 l31 -31 -41 -49 c-22 -27 -44 -49 -48
-49 -12 0 -159 150 -221 225 -91 112 -114 168 -118 291 -4 100 -3 102 25 128
15 14 31 26 36 26 4 0 25 11 45 25 51 35 146 36 200 1z m-5638 -31 c63 -21 92
-37 114 -62 16 -18 35 -33 41 -33 6 0 34 12 62 26 45 22 57 24 90 15 82 -22
113 -100 71 -181 -22 -43 -25 -45 -70 -46 -42 -1 -51 -6 -99 -53 -42 -42 -58
-51 -87 -51 l-35 0 8 -47 c11 -72 8 -86 -20 -110 -29 -26 -76 -30 -136 -12
-32 10 -41 20 -58 60 -12 26 -21 67 -21 90 0 35 6 47 35 75 38 35 43 55 21 73
-21 18 -36 91 -36 180 0 86 6 114 24 108 6 -2 49 -17 96 -32z m6722 -6 c62
-29 70 -37 94 -86 15 -29 30 -56 35 -59 14 -9 10 -36 -14 -99 -17 -45 -33 -67
-63 -88 -72 -50 -70 -50 -93 -12 -11 19 -28 35 -38 35 -14 0 -10 7 15 26 27
22 32 32 32 69 0 36 -5 46 -27 61 -66 43 -163 11 -263 -84 -54 -52 -143 -130
-172 -150 -15 -11 -23 -9 -58 19 -22 18 -40 37 -40 44 0 10 23 34 215 220 143
138 242 165 377 104z m-5925 -50 c13 -13 140 -46 213 -55 30 -4 66 -12 80 -19
14 -8 54 -19 89 -25 131 -24 250 -81 287 -138 16 -24 49 -138 75 -252 14 -64
2 -116 -40 -174 -30 -42 -37 -47 -39 -30 -3 21 -71 84 -91 84 -5 0 -23 11 -39
25 -27 22 -28 28 -24 79 4 49 1 60 -22 91 -19 25 -35 35 -54 35 -45 -1 -115
-42 -144 -85 -31 -46 -68 -150 -68 -193 0 -42 36 -177 56 -206 16 -25 15 -27
-52 -117 l-69 -91 -40 8 c-72 14 -177 9 -219 -11 -68 -32 -140 -112 -175 -193
-36 -83 -37 -94 -14 -132 32 -55 111 -67 161 -25 31 26 66 33 77 15 4 -6 29
-22 56 -36 28 -14 49 -29 47 -33 -7 -19 -92 -81 -142 -105 -40 -19 -74 -27
-128 -28 -94 -4 -152 20 -177 71 -16 34 -19 36 -65 34 -27 -1 -53 -6 -59 -12
-21 -21 -88 -12 -141 19 -29 16 -59 37 -68 47 -32 37 -108 196 -116 243 -6 38
-93 223 -117 250 -23 25 -19 30 23 30 24 0 51 -9 75 -26 28 -18 46 -24 63 -20
17 5 37 0 58 -13 67 -42 170 -122 200 -157 28 -32 34 -34 57 -26 14 6 38 30
52 55 14 24 39 52 54 62 15 10 51 38 79 62 28 23 57 43 63 43 7 0 29 9 49 19
45 24 107 48 144 55 43 10 55 30 62 108 9 87 65 257 104 313 15 22 34 55 41
73 12 29 12 35 -3 51 -10 11 -28 22 -40 25 -25 6 -97 86 -135 149 -15 25 -25
60 -29 103 -4 58 -3 64 15 64 10 0 24 -5 30 -11z m5207 -249 c21 -25 50 -51
65 -59 44 -24 85 -62 119 -113 18 -27 40 -52 48 -55 8 -3 21 -17 28 -31 13
-24 11 -28 -22 -59 -19 -18 -39 -33 -44 -33 -4 0 -45 38 -90 85 -45 47 -87 85
-93 85 -5 0 -20 16 -33 35 -12 19 -39 46 -61 59 -22 14 -43 38 -49 55 -6 17
-17 31 -24 31 -7 0 10 20 37 45 50 44 50 44 65 22 8 -12 32 -42 54 -67z m5932
75 c7 -18 -32 -119 -53 -136 -8 -7 -26 -34 -39 -61 -16 -32 -46 -65 -88 -98
-72 -56 -80 -70 -62 -96 7 -11 16 -46 19 -79 4 -33 11 -94 16 -135 5 -41 7
-109 5 -151 -5 -84 6 -109 49 -109 76 0 301 -126 347 -194 54 -82 130 -142
130 -103 0 22 134 144 181 165 25 10 70 25 100 31 29 7 68 17 85 22 43 13 62
11 106 -8 24 -10 38 -24 38 -35 0 -10 -29 -46 -65 -80 -36 -35 -65 -67 -65
-73 0 -6 -23 -38 -51 -72 -50 -61 -123 -113 -160 -113 -23 0 -52 -64 -46 -100
13 -64 -68 -154 -176 -195 -55 -21 -162 -16 -244 11 -85 28 -233 113 -233 134
0 21 91 97 127 106 23 6 41 3 74 -10 11 -5 31 7 63 37 51 49 50 47 35 100 -13
48 -61 102 -113 129 -23 12 -46 28 -52 36 -14 19 -117 43 -222 51 l-82 6 -45
48 c-25 27 -45 53 -45 59 0 6 13 38 29 72 32 66 39 129 25 226 -7 54 -14 65
-91 147 -38 40 -131 27 -173 -23 -24 -29 -42 -92 -35 -123 6 -28 -13 -61 -35
-61 -5 0 -29 -16 -55 -36 -54 -40 -65 -37 -95 30 -35 77 -41 134 -27 223 19
119 75 192 169 222 32 10 39 19 53 60 24 73 35 80 198 122 36 9 67 12 267 24
52 4 104 10 115 14 11 5 31 13 45 19 37 16 70 14 76 -3z m-5385 -71 c82 -100
106 -134 135 -194 25 -49 28 -67 28 -160 1 -94 -2 -109 -23 -145 -13 -22 -31
-46 -39 -52 -21 -17 -150 -17 -182 0 -47 25 -73 42 -91 59 -16 15 -16 17 10
42 24 23 33 26 98 23 83 -2 113 15 113 67 0 71 -72 199 -150 269 -56 50 -61
72 -29 123 34 55 64 48 130 -32z m6357 -20 c11 -3 9 -12 -7 -38 -12 -18 -21
-43 -21 -55 0 -12 -7 -33 -16 -46 -9 -13 -26 -55 -39 -92 l-23 -68 -72 0 -72
0 6 -35 c3 -19 9 -50 12 -68 19 -99 -141 -138 -208 -51 -13 16 -42 52 -65 80
-24 27 -50 62 -60 77 -9 15 -28 38 -43 52 -15 14 -35 45 -44 69 -16 41 -16 45
2 80 38 74 108 83 199 27 34 -21 67 -35 73 -31 6 4 18 24 27 46 24 62 33 65
194 61 79 -2 150 -5 157 -8z m-12603 -48 c20 -15 18 -19 -57 -109 -26 -31 -26
-32 -47 -13 -30 27 -26 53 10 75 17 10 37 28 45 40 18 25 24 26 49 7z m150
-56 c20 -11 46 -27 58 -34 12 -8 58 -22 102 -30 108 -21 213 -50 225 -62 6 -6
-2 -29 -21 -62 l-30 -53 -52 7 c-29 4 -56 10 -61 15 -6 5 -21 9 -35 9 -22 0
-75 13 -168 41 -69 21 -69 -2 1 -145 54 -112 76 -168 76 -199 0 -25 -36 -57
-64 -57 -22 0 -32 14 -75 105 -28 57 -51 111 -51 118 0 7 -16 36 -35 63 -19
27 -35 53 -35 59 0 5 -9 21 -20 35 -31 39 -24 62 33 119 28 28 60 61 70 71 22
25 37 25 82 0z m4976 -72 c55 -74 57 -78 37 -117 -21 -41 -16 -71 20 -123 24
-37 63 -51 76 -29 3 5 18 12 33 16 74 18 171 90 289 214 l52 55 29 -34 c61
-72 60 -67 12 -116 -24 -25 -66 -60 -94 -79 -27 -18 -63 -47 -79 -64 -17 -17
-35 -31 -42 -31 -7 0 -26 -11 -42 -25 -17 -14 -37 -25 -45 -25 -9 0 -19 -5
-22 -10 -26 -42 -206 -55 -273 -21 -54 27 -74 75 -80 191 -4 87 -3 97 17 114
11 11 21 28 21 39 0 24 37 77 54 77 7 0 23 -15 37 -32z m1079 -95 c0 -7 -57
-60 -127 -118 -71 -58 -146 -120 -167 -139 -43 -38 -53 -37 -95 8 -22 24 -23
28 -11 52 8 14 26 32 40 40 14 7 61 48 105 89 44 42 89 78 101 81 11 3 38 26
59 51 l38 45 28 -49 c16 -26 29 -53 29 -60z m-5299 -20 c16 -10 29 -23 29 -30
0 -7 15 -20 33 -28 89 -44 137 -78 137 -100 0 -7 7 -19 16 -26 9 -7 28 -38 42
-69 55 -120 50 -150 -24 -150 -57 0 -76 10 -103 56 -43 72 -121 152 -174 177
-75 35 -91 57 -83 108 10 65 22 79 62 79 20 0 49 -8 65 -17z m11133 -69 c31
-51 38 -84 15 -84 -4 0 -31 22 -59 49 -62 60 -67 91 -14 91 16 0 32 -15 58
-56z m-91 -40 c56 -60 78 -99 69 -124 -3 -8 -19 -31 -35 -50 -16 -19 -47 -69
-70 -111 -94 -170 -125 -202 -158 -163 -7 8 -30 24 -52 35 -37 20 -38 21 -22
42 8 12 32 56 51 97 19 41 40 85 46 97 25 51 -11 65 -92 37 -63 -23 -190 -36
-207 -22 -8 6 -13 34 -13 74 0 61 2 65 27 75 31 12 168 31 229 33 22 1 47 6
55 12 21 17 40 22 82 23 33 1 44 -6 90 -55z m-6297 -27 c12 -7 40 -35 63 -64
22 -29 62 -67 87 -85 68 -48 155 -137 168 -172 6 -18 2 -18 -55 -12 -34 3 -77
6 -96 6 -27 0 -35 5 -43 25 -15 40 -53 86 -84 102 -15 8 -42 28 -60 43 -17 16
-47 42 -66 59 l-35 30 40 40 c42 44 49 47 81 28z m-3061 -29 c61 -13 77 -20
141 -68 44 -33 53 -46 69 -100 10 -34 26 -72 36 -84 9 -12 22 -57 29 -101 6
-44 16 -96 23 -115 7 -23 10 -151 9 -380 -1 -285 -4 -354 -17 -395 -9 -27 -20
-70 -25 -95 -5 -25 -14 -65 -20 -90 -5 -25 -14 -65 -18 -90 -5 -25 -14 -54
-20 -65 -6 -11 -32 -64 -57 -118 -26 -54 -51 -97 -57 -95 -14 5 -19 16 -47 87
-25 64 -26 92 -5 132 44 86 65 191 95 469 19 178 19 215 9 425 -13 284 -37
407 -89 473 -43 52 -69 70 -118 77 -46 7 -98 -21 -113 -60 -12 -31 -53 -49
-80 -35 -10 5 -29 10 -41 10 -19 0 -21 4 -16 30 10 48 68 141 94 151 13 5 40
20 61 34 39 26 47 27 157 3z m8575 -88 c0 -16 5 -32 10 -35 13 -8 13 -38 -1
-69 -8 -17 -27 -30 -59 -41 -26 -9 -81 -43 -121 -75 l-74 -59 -80 6 c-92 6
-110 16 -79 42 12 9 29 31 37 48 23 44 133 140 176 154 20 6 43 18 52 26 19
16 108 41 127 35 6 -2 12 -17 12 -32z m-10234 -25 c12 -8 31 -39 43 -69 l23
-54 -36 -49 c-20 -26 -52 -71 -71 -98 -51 -74 -111 -121 -163 -128 -48 -6
-106 13 -115 37 -7 16 64 113 89 123 15 5 148 170 168 207 28 52 30 54 62 31z
m8502 -54 c82 -41 100 -54 125 -93 84 -132 97 -210 100 -598 3 -413 -11 -667
-42 -743 -6 -16 -11 -39 -11 -51 0 -12 -9 -52 -20 -87 -11 -35 -26 -82 -32
-104 -6 -22 -17 -47 -23 -55 -6 -8 -28 -49 -49 -90 -42 -83 -66 -115 -76 -103
-15 17 -69 183 -61 187 5 3 21 45 36 93 15 49 36 106 46 127 11 22 27 85 35
140 9 56 20 110 25 121 5 11 13 157 19 325 10 299 8 373 -19 600 -19 154 -42
183 -129 162 -53 -13 -168 -19 -178 -9 -8 8 23 87 44 111 10 10 37 32 61 48
46 29 112 38 149 19z m-3755 -90 c-3 -14 -19 -55 -36 -89 l-30 -64 6 -464 c3
-255 3 -480 0 -499 l-6 -36 -66 3 -66 3 1 30 c1 17 5 259 9 540 8 563 4 531
77 608 l41 44 38 -25 c33 -21 38 -29 32 -51z m-3113 54 c24 -14 23 -14 -27
-15 -41 0 -53 4 -53 15 0 19 46 19 80 0z m701 -66 c153 -5 326 -16 385 -25 60
-8 141 -19 181 -23 57 -7 93 -19 175 -61 57 -29 119 -65 139 -81 20 -16 39
-29 42 -29 15 0 157 -146 173 -177 10 -21 27 -47 36 -58 11 -13 22 -53 29
-100 6 -44 13 -83 15 -86 2 -4 4 -54 4 -111 1 -108 -16 -190 -50 -238 -10 -14
-29 -47 -43 -75 -23 -46 -127 -155 -147 -155 -16 0 -41 -60 -35 -82 4 -11 17
-35 29 -52 34 -50 70 -167 62 -200 -4 -15 -29 -51 -57 -79 l-50 -52 -20 25
c-10 14 -40 59 -66 100 -40 66 -79 125 -133 204 -40 58 -117 152 -162 197 -58
58 -191 129 -241 129 -19 0 -47 4 -63 9 -28 10 -68 12 -387 27 l-148 7 7 31
c4 17 7 140 6 274 -1 201 1 242 13 242 8 0 18 6 22 14 4 8 19 16 33 18 14 1
26 11 28 20 5 25 -39 80 -60 75 -13 -4 -18 4 -23 35 -4 22 -5 41 -3 43 1 1 22
6 44 10 40 6 42 5 73 -37 17 -23 34 -60 38 -81 7 -46 24 -43 38 6 11 38 60 97
81 97 7 0 17 7 22 16 7 13 18 15 50 9 58 -9 128 -76 137 -130 9 -56 23 -87 38
-83 6 2 27 34 45 71 47 97 110 129 181 93 42 -22 51 -39 68 -118 24 -116 57
-136 108 -66 40 54 92 74 153 57 29 -8 46 -19 52 -35 5 -12 14 -25 19 -29 13
-8 15 -62 2 -69 -5 -3 -12 -18 -15 -33 -4 -16 -21 -40 -38 -54 -34 -29 -32
-57 3 -38 24 12 45 -2 90 -65 24 -32 29 -49 29 -95 0 -66 -20 -105 -73 -141
-34 -23 -47 -41 -29 -40 40 3 127 92 153 157 18 44 31 114 30 163 -2 59 -91
243 -130 267 -14 10 -47 36 -73 60 -26 24 -54 43 -63 43 -8 0 -32 11 -53 24
-20 13 -59 29 -87 36 -27 7 -63 18 -80 25 -77 33 -218 47 -475 49 -140 0 -278
-2 -306 -7 l-50 -7 -17 87 c-18 96 -16 103 38 102 17 -1 154 -5 306 -10z
m-1925 -20 c7 -6 96 -8 225 -4 118 3 404 8 635 10 l422 5 21 -45 c29 -61 28
-91 -4 -99 -14 -4 -74 -6 -133 -6 -257 1 -1410 -19 -1450 -26 -55 -9 -58 -30
-67 -400 -4 -181 -6 -358 -4 -394 2 -36 2 -90 1 -120 -2 -55 -12 -395 -12
-437 0 -18 -6 -23 -26 -23 -14 0 -34 -5 -46 -11 -11 -6 -31 -8 -44 -5 -23 6
-23 8 -18 89 6 89 6 85 5 232 0 55 4 233 9 395 5 162 7 363 3 445 -3 83 -6
160 -6 172 1 12 29 54 65 95 35 40 75 88 88 105 l24 33 150 -1 c83 0 156 -5
162 -10z m9807 -111 c224 -243 219 -236 175 -273 -18 -15 -52 -37 -76 -48 -52
-26 -64 -20 -109 49 -18 27 -50 67 -70 89 -21 22 -55 64 -76 94 -34 48 -37 57
-26 77 23 43 71 94 88 94 10 0 52 -37 94 -82z m-5705 52 c6 -1 1 -110 -6 -114
-5 -3 -75 -7 -155 -10 -81 -3 -155 -10 -166 -16 -11 -5 -36 -10 -55 -10 -57 0
-156 -61 -220 -136 -31 -37 -56 -75 -56 -88 0 -12 -7 -32 -16 -44 -42 -61 -51
-160 -18 -222 7 -14 15 -38 19 -53 3 -16 26 -48 50 -73 25 -24 45 -48 45 -52
0 -4 11 -20 25 -35 51 -54 83 -21 42 42 -19 28 -27 55 -29 97 -3 54 -5 59 -28
62 -49 6 -69 32 -73 95 -3 50 0 63 22 92 27 35 35 38 136 39 l40 1 0 55 c0 46
6 64 34 108 36 56 47 60 112 41 53 -16 97 -66 112 -125 9 -38 16 -49 32 -49
16 0 22 9 27 40 21 125 66 194 116 178 15 -6 17 -109 2 -118 -13 -8 -13 -58
-1 -70 6 -6 7 -121 3 -280 l-7 -269 -50 -17 c-27 -9 -68 -21 -90 -27 -137 -37
-270 -103 -387 -190 -31 -23 -61 -42 -65 -42 -9 0 -153 135 -153 143 0 4 18
24 40 46 47 47 50 71 11 103 -33 26 -71 91 -96 163 -10 28 -22 54 -27 60 -4 5
-8 49 -8 98 0 97 28 202 77 287 38 66 140 175 182 196 20 11 43 25 52 32 39
31 98 56 149 63 40 5 349 5 378 -1z m597 -16 c83 -3 174 -10 204 -15 30 -5 78
-9 106 -9 30 0 68 -8 91 -19 21 -10 59 -24 84 -31 25 -6 53 -16 62 -21 10 -5
24 -9 32 -9 8 0 17 -9 21 -19 7 -24 83 -87 110 -92 11 -3 22 -15 25 -29 3 -14
16 -47 28 -73 12 -27 22 -53 22 -59 0 -6 8 -27 19 -47 27 -53 44 -135 35 -173
-4 -18 -7 -42 -5 -54 2 -24 -26 -113 -43 -134 -7 -8 -19 -31 -26 -50 -7 -19
-26 -52 -41 -72 -16 -20 -29 -43 -29 -50 0 -8 -13 -29 -30 -48 -43 -51 -39
-71 25 -125 30 -26 55 -52 55 -58 0 -16 -103 -113 -128 -121 -17 -6 -31 0 -56
21 -48 39 -116 88 -146 103 -14 7 -34 22 -45 32 -20 19 -129 82 -230 133 -27
13 -63 25 -78 25 -15 0 -42 7 -59 16 -56 29 -90 35 -226 43 -72 4 -134 10
-136 12 -2 2 -6 116 -8 254 -3 243 -2 250 17 253 32 6 46 30 33 58 -6 13 -17
24 -23 24 -17 0 -35 45 -35 90 0 45 12 50 59 26 28 -15 56 -60 66 -109 9 -45
45 -33 65 21 8 23 28 59 44 78 28 36 29 36 94 32 77 -5 93 -20 120 -109 9 -32
23 -61 29 -64 16 -5 43 45 43 78 0 13 9 36 21 51 29 36 88 36 142 -1 47 -33
59 -59 50 -118 -5 -37 -3 -45 10 -45 9 0 20 6 24 14 4 8 26 27 47 41 38 26 41
26 72 11 38 -18 74 -79 74 -126 0 -43 -25 -87 -60 -105 -35 -18 -38 -37 -10
-63 22 -21 31 -90 17 -129 -14 -37 14 -28 62 21 41 42 43 47 52 127 14 120 5
169 -45 242 -22 34 -46 65 -53 70 -7 4 -33 24 -59 43 -55 42 -169 84 -229 84
-22 0 -45 4 -50 9 -19 17 -142 30 -295 30 -238 1 -290 13 -290 69 1 53 27 71
110 75 41 2 84 2 95 0 11 -2 88 -6 170 -9z m2741 -35 c264 -7 415 -7 498 0
146 13 156 8 156 -76 l0 -54 -327 6 c-181 3 -432 10 -559 15 -139 5 -280 5
-355 0 -68 -5 -200 -12 -294 -14 -218 -6 -297 -23 -382 -82 -35 -24 -67 -44
-72 -44 -15 0 -122 -103 -137 -132 -15 -30 -19 -78 -6 -78 5 0 23 18 41 40
l32 40 67 -2 67 -3 6 61 c3 33 9 66 14 73 10 17 84 50 111 51 29 0 81 -59 89
-101 10 -53 20 -66 39 -50 9 8 16 22 16 33 0 27 80 128 108 134 39 10 108 -6
140 -33 21 -17 36 -43 48 -81 29 -100 52 -111 69 -33 10 48 34 101 45 101 5 0
17 9 27 19 10 10 42 26 71 34 44 13 58 14 90 3 49 -17 97 -86 106 -155 5 -42
10 -51 26 -51 13 0 20 7 20 20 0 11 11 44 24 75 21 46 29 55 50 55 14 0 35 4
48 9 52 21 64 24 93 21 17 -1 35 -6 41 -11 6 -5 13 -6 17 -3 3 3 11 -14 17
-38 7 -23 16 -52 20 -63 5 -11 13 -33 17 -49 12 -40 30 -44 44 -9 47 114 61
135 106 154 54 23 87 23 132 1 38 -19 41 -23 76 -104 14 -32 29 -58 35 -58 13
0 30 43 30 75 0 35 31 82 66 101 25 14 39 15 65 8 33 -9 34 -12 37 -64 3 -44
1 -53 -9 -42 -32 30 -88 -2 -73 -42 9 -24 53 -24 67 0 30 53 32 -7 11 -486
l-6 -135 -572 -3 c-565 -2 -754 -11 -851 -37 -132 -35 -225 -79 -300 -142 -22
-18 -61 -50 -86 -71 -65 -55 -191 -198 -224 -257 -16 -27 -36 -59 -46 -70 -10
-11 -34 -51 -54 -90 -20 -38 -43 -77 -51 -86 -19 -21 -91 -157 -168 -319 -64
-133 -54 -128 -120 -54 l-58 65 26 60 c14 33 26 69 26 79 0 10 9 34 19 52 11
18 31 65 46 103 15 39 33 77 40 85 7 8 36 60 64 115 71 139 130 247 145 265 7
8 30 46 51 83 21 38 46 74 56 80 32 20 23 45 -18 57 -26 7 -54 29 -88 66 -27
30 -65 71 -83 89 -30 32 -58 95 -92 210 -13 44 -9 195 7 260 5 22 20 59 32 83
26 50 109 162 120 162 5 0 28 17 52 38 51 44 115 79 179 98 48 14 283 42 390
47 165 8 550 6 896 -4z m1349 1 c3 -5 30 -10 60 -10 30 0 57 5 60 10 8 13 48
13 61 0 6 -6 126 -11 298 -12 l289 -3 11 -31 c10 -27 72 -105 150 -187 31 -33
31 -49 5 -202 -21 -122 -27 -388 -26 -1086 2 -602 0 -719 -12 -733 -11 -13
-28 -16 -80 -14 l-66 3 -1 270 c-5 903 -4 1462 2 1615 7 194 8 192 -56 204
-81 16 -322 29 -555 29 -137 1 -259 0 -270 -2 -33 -5 -269 11 -284 19 -17 9
-42 98 -35 123 5 15 24 17 224 17 135 0 221 -4 225 -10z m-9635 -65 c79 -51
190 -95 243 -95 39 0 50 -11 62 -67 5 -25 2 -40 -15 -63 -21 -30 -22 -30 -113
-30 -67 1 -100 6 -123 18 -103 57 -244 175 -244 205 0 22 70 77 98 77 13 0 54
-20 92 -45z m2178 -58 c3 -50 1 -53 -28 -37 -23 12 -47 4 -61 -21 -15 -29 30
-71 69 -63 l29 6 6 -139 c5 -102 2 -180 -11 -300 -10 -89 -20 -165 -24 -168
-9 -10 -142 -10 -361 -2 -187 8 -208 7 -213 -8 -4 -9 -2 -26 4 -38 42 -86 40
-154 -6 -185 -71 -49 -142 -52 -210 -10 -50 31 -57 17 -58 -125 -1 -67 -2
-155 -3 -196 l-1 -73 -42 6 c-24 4 -63 9 -88 12 -25 3 -54 9 -65 14 -45 19
-109 25 -285 25 -102 0 -191 4 -197 8 -8 5 -13 31 -13 65 0 57 0 57 57 108 59
53 67 84 21 84 -27 1 -49 16 -70 50 -39 63 -27 175 24 214 16 11 41 31 56 44
l27 22 -23 18 c-90 68 -112 107 -112 203 0 97 20 119 118 134 53 8 55 28 3 54
-106 55 -155 137 -128 216 13 38 16 40 61 43 65 4 145 -23 156 -54 5 -12 23
-30 39 -38 34 -18 32 -19 69 59 38 81 44 85 133 85 68 0 81 -3 107 -25 18 -15
34 -41 41 -68 22 -91 57 -84 85 16 11 36 23 60 34 63 9 3 31 12 48 20 28 14
36 14 85 -2 91 -29 109 -44 127 -99 21 -63 43 -66 57 -7 6 29 23 59 50 88 40
43 43 44 103 44 37 0 62 -4 62 -11 0 -5 16 -17 35 -25 42 -17 47 -27 49 -97 1
-46 4 -52 23 -55 18 -3 24 3 28 25 19 92 28 107 96 141 83 41 93 39 97 -21z
m8909 -91 l49 -19 -19 -39 c-27 -55 -187 -201 -260 -239 -71 -36 -167 -59
-214 -52 l-33 5 0 65 c0 81 10 100 58 109 20 3 46 12 57 19 11 6 38 18 60 25
60 19 144 69 163 97 9 13 28 38 41 54 22 28 24 29 36 12 7 -10 35 -27 62 -37z
m-1641 -2 c19 -19 34 -46 34 -58 0 -62 42 -118 55 -73 36 123 118 189 196 157
35 -15 54 -47 63 -112 11 -75 38 -75 52 1 10 51 64 101 110 101 55 0 81 -33
89 -114 8 -75 28 -103 51 -71 8 10 14 36 14 56 0 28 7 45 31 68 26 27 38 31
84 31 63 0 72 -9 81 -81 8 -70 -9 -133 -43 -156 -58 -40 -74 -62 -63 -83 6
-11 17 -20 24 -20 19 0 52 -39 70 -84 38 -91 -15 -195 -118 -232 -47 -17 -44
-39 7 -62 38 -17 47 -27 60 -67 27 -78 6 -171 -49 -214 -25 -20 -25 -41 0 -41
26 0 76 -77 76 -117 0 -9 -9 -36 -21 -59 -15 -32 -28 -44 -50 -49 -42 -9 -36
-31 10 -39 85 -13 109 -109 49 -198 -18 -26 -40 -50 -50 -53 -31 -11 -29 -34
6 -49 80 -33 101 -124 48 -207 -31 -48 -60 -76 -95 -93 -39 -20 -27 -48 33
-77 76 -36 72 -53 -15 -59 -38 -3 -83 -3 -100 1 -16 4 -134 13 -262 19 -127 6
-246 15 -264 20 -19 6 -50 10 -70 10 -20 0 -50 5 -66 10 l-30 11 2 477 c1 262
0 483 -3 490 -3 8 -24 22 -47 32 -51 22 -101 79 -125 144 -17 44 -18 63 -8
234 5 103 7 253 4 333 l-6 145 31 60 c41 81 69 104 126 104 39 0 50 -5 79 -36z
m-7458 -696 c5 -7 21 -71 35 -141 15 -71 33 -142 42 -159 8 -17 15 -39 15 -48
0 -29 40 -143 76 -213 19 -37 34 -72 34 -79 0 -6 14 -33 31 -60 36 -55 32 -66
-32 -99 -46 -23 -64 -17 -89 30 -10 21 -25 43 -33 50 -8 6 -25 37 -38 69 -12
31 -26 62 -30 67 -15 20 -68 193 -84 270 -9 44 -24 107 -34 140 -29 92 -41
153 -35 170 8 19 126 22 142 3z m3439 -39 c13 -13 5 -811 -8 -847 -8 -21 -13
-22 -61 -16 -29 4 -57 10 -61 14 -4 4 -1 174 8 379 9 205 13 387 9 406 -9 52
9 75 59 75 24 0 48 -5 54 -11z m-2476 -60 c59 -13 80 -32 110 -99 11 -25 25
-54 30 -66 6 -11 9 -68 6 -130 -4 -100 -28 -221 -78 -390 -5 -17 -9 -83 -9
-147 l0 -117 -112 7 c-102 6 -121 10 -195 44 -63 29 -83 43 -87 61 -3 13 -8
37 -11 53 -3 17 -10 48 -16 70 -6 22 -14 58 -19 80 -18 84 -28 114 -56 166
l-29 54 -63 -3 c-79 -4 -91 14 -41 64 25 25 46 35 80 40 l46 6 79 -76 c95 -92
112 -97 83 -23 -11 28 -30 76 -40 106 -11 30 -32 77 -47 105 -34 66 -72 157
-72 174 0 16 17 15 88 -2 130 -32 139 -33 166 -19 14 7 26 18 26 22 0 12 48
29 82 30 15 1 51 -4 79 -10z m5723 -21 c3 -13 7 -43 10 -68 13 -123 19 -157
31 -185 13 -28 43 -123 66 -210 30 -113 99 -288 128 -325 23 -29 111 -185 111
-197 0 -1 -15 -9 -33 -17 -19 -7 -43 -25 -54 -40 l-21 -26 -20 32 c-12 19 -35
43 -51 56 -17 12 -31 30 -31 39 0 9 -11 35 -24 57 -13 23 -27 52 -31 66 -4 14
-19 42 -31 62 -13 21 -36 73 -50 115 -14 43 -32 87 -39 99 -7 12 -17 39 -20
60 -4 21 -10 53 -15 69 -8 30 -21 94 -41 203 -5 31 -17 89 -26 128 -22 99 -19
104 66 104 65 0 71 -2 75 -22z m-3445 -37 l44 -1 -7 -62 c-3 -34 -8 -64 -11
-66 -3 -3 -28 0 -56 6 -60 14 -151 16 -164 3 -6 -5 -28 -11 -50 -14 -59 -7
-236 -54 -249 -67 -5 -5 -18 -10 -28 -10 -31 0 -95 -38 -125 -74 -15 -19 -40
-39 -55 -45 -15 -6 -39 -28 -52 -50 -14 -22 -32 -43 -39 -48 -18 -10 -76 -124
-113 -221 l-28 -73 -50 3 -51 3 3 55 c4 66 19 117 43 149 11 13 19 31 19 40 0
9 9 27 20 41 11 14 20 31 20 38 0 7 17 30 38 51 20 21 73 75 117 120 51 52
100 92 135 109 30 15 67 35 81 45 14 9 48 22 75 27 27 6 67 16 89 21 71 19
158 27 255 23 52 -1 115 -3 139 -3z m-1042 -21 c14 -11 32 -20 39 -20 15 0 54
-47 54 -66 0 -25 -38 -14 -62 17 -13 17 -36 44 -52 60 -32 33 -17 39 21 9z
m3496 -16 c23 -4 51 -14 62 -24 11 -10 35 -25 53 -34 29 -15 36 -15 78 -1 51
17 156 20 184 5 11 -6 25 -28 31 -50 11 -35 10 -42 -6 -60 -24 -27 -88 -27
-122 0 -14 11 -32 20 -40 20 -15 0 -137 -120 -182 -180 -14 -19 -55 -62 -90
-96 -43 -43 -62 -67 -58 -78 8 -21 36 -20 142 7 81 20 94 21 132 9 44 -14 59
-37 48 -71 -7 -24 -45 -34 -99 -26 -47 7 -56 1 -99 -79 -21 -37 -27 -63 -27
-110 0 -33 -4 -66 -8 -73 -8 -13 -277 -47 -292 -38 -6 4 -10 58 -10 121 0 64
-4 124 -10 134 -5 10 -10 98 -11 196 -1 150 1 185 16 219 21 49 79 130 120
167 31 29 110 60 133 52 8 -2 32 -7 55 -10z m-2102 -23 c13 -10 35 -22 49 -26
40 -12 131 -64 173 -98 80 -67 184 -174 207 -212 92 -160 92 -160 129 -355 10
-52 21 -103 25 -113 5 -9 5 -32 2 -50 -4 -17 -10 -57 -14 -87 -11 -77 -30
-112 -69 -124 -51 -14 -66 5 -59 73 9 84 9 106 -3 231 -13 136 -40 227 -87
293 -19 26 -34 54 -34 62 0 7 -6 18 -13 22 -7 4 -31 34 -52 66 -21 32 -50 66
-64 75 -26 16 -57 41 -127 100 -36 31 -87 56 -141 69 -19 4 -23 12 -23 42 0
21 3 41 7 44 13 14 71 6 94 -12z m-1419 -48 c37 -27 67 -53 68 -58 0 -6 -40
-52 -90 -102 -49 -50 -90 -95 -90 -100 0 -5 -12 -20 -26 -34 -15 -13 -38 -41
-51 -63 -14 -21 -39 -53 -56 -71 -18 -18 -68 -70 -112 -117 -44 -47 -104 -111
-133 -142 -29 -31 -59 -56 -66 -56 -14 0 -62 49 -94 96 l-21 31 57 60 c104
108 210 227 274 308 182 229 239 294 258 295 8 0 45 -21 82 -47z m2168 -48 c0
-16 -25 -42 -78 -82 -35 -27 -42 -28 -42 -9 0 8 8 17 18 21 9 3 29 23 44 45
28 40 58 53 58 25z m-1075 -207 c-4 -117 -11 -217 -16 -222 -5 -6 -18 -5 -32
3 -36 19 -156 19 -202 -1 -22 -9 -55 -22 -73 -28 -18 -7 -69 -39 -115 -72 -72
-52 -86 -58 -116 -53 -18 4 -79 8 -134 10 -130 5 -152 14 -166 71 -9 36 -9 50
4 74 31 60 97 78 145 40 26 -20 60 -27 60 -11 0 5 -9 28 -19 53 -17 37 -18 50
-9 88 14 56 34 80 67 80 42 0 92 -18 117 -41 29 -28 44 -17 44 31 0 55 19 89
58 106 63 26 113 13 147 -40 11 -17 31 -33 44 -34 21 -3 23 -1 18 24 -4 20 3
35 27 61 28 31 102 67 144 72 11 1 12 -38 7 -211z m1237 88 c48 -46 94 -96
103 -110 17 -26 17 -28 -25 -111 -23 -47 -45 -85 -49 -85 -3 0 -57 52 -118
115 -62 63 -117 115 -123 115 -6 0 -13 7 -16 15 -6 15 113 145 133 145 5 0 48
-38 95 -84z m-894 40 c23 -20 25 -44 11 -106 -3 -10 2 -14 16 -12 11 2 45 6
75 9 69 6 91 -13 98 -86 4 -44 1 -53 -22 -74 -14 -13 -26 -27 -26 -31 0 -3 19
-6 43 -6 63 0 86 -10 102 -41 19 -36 19 -82 0 -119 -13 -25 -22 -30 -50 -30
-24 0 -35 -5 -35 -15 0 -10 10 -15 34 -15 26 0 41 -8 61 -32 23 -28 27 -39 23
-80 -3 -27 -13 -57 -22 -67 -14 -15 -14 -20 -3 -30 8 -6 22 -31 31 -56 15 -38
16 -48 4 -72 l-13 -28 -165 -5 c-91 -3 -169 -2 -174 2 -5 4 -8 36 -7 72 5 146
-27 265 -86 324 -10 10 -13 55 -13 187 l0 175 25 16 c14 9 25 22 25 28 0 7
-11 22 -25 34 -28 24 -34 62 -10 62 9 0 18 7 21 15 8 20 51 10 82 -19z m-4475
-187 c177 -25 236 -41 347 -90 138 -61 149 -70 131 -101 -16 -28 -104 -88
-129 -88 -10 0 -34 11 -53 26 -74 55 -176 84 -295 84 -35 0 -65 4 -69 10 -5 8
-262 7 -620 -4 -114 -3 -203 -22 -232 -49 -34 -30 -32 -105 2 -146 14 -16 35
-33 45 -36 17 -5 20 -16 20 -70 0 -55 -3 -65 -20 -70 -41 -13 -142 35 -209 97
-32 31 -40 47 -46 88 -12 87 2 144 48 200 23 27 68 68 100 91 l58 41 210 8
c115 4 212 10 216 14 10 10 418 7 496 -5z m828 -16 c8 -10 21 -35 27 -55 11
-30 11 -42 0 -61 -14 -26 -101 -105 -146 -134 -15 -10 -46 -32 -70 -50 -24
-18 -48 -33 -53 -33 -6 0 -37 -22 -71 -49 -71 -58 -199 -115 -235 -106 -23 5
-24 9 -21 78 l3 72 87 35 c48 19 95 43 106 53 10 9 26 17 35 17 9 0 21 9 27
20 6 11 18 20 26 20 8 0 36 20 62 45 25 25 51 45 56 45 6 1 40 28 76 60 36 33
68 60 71 60 3 0 12 -8 20 -17z m1266 -105 c44 -18 77 -42 138 -103 44 -44 97
-95 118 -112 21 -18 53 -59 71 -90 19 -32 45 -70 58 -84 46 -50 80 -118 73
-147 -8 -34 -53 -82 -76 -82 -10 0 -28 17 -40 38 -12 20 -37 53 -55 73 -18 21
-40 53 -49 72 -9 20 -27 43 -40 51 -12 8 -35 36 -50 63 -42 73 -123 148 -196
183 -35 16 -72 30 -81 30 -9 0 -20 9 -23 20 -7 23 3 79 17 98 16 19 71 14 135
-10z m-678 -40 c4 -13 11 -44 15 -70 6 -40 4 -48 -13 -57 -11 -6 -32 -11 -48
-11 -32 0 -128 -42 -158 -69 -11 -10 -36 -24 -55 -31 -19 -8 -68 -38 -109 -67
-113 -81 -134 -81 -165 2 -17 43 -17 46 2 73 24 33 166 117 342 200 104 49
107 50 148 51 25 1 34 -4 41 -21z m1432 -86 c12 -26 30 -56 39 -67 9 -11 25
-47 35 -80 10 -35 30 -72 46 -89 28 -28 29 -31 29 -137 0 -89 -3 -109 -15
-109 -16 0 -81 77 -126 150 -15 25 -37 51 -49 58 -12 7 -29 32 -39 55 -10 23
-37 64 -59 91 l-41 49 66 73 c74 83 78 83 114 6z m1113 -37 c0 -49 -1 -99 -2
-110 0 -11 2 -79 4 -152 5 -122 4 -133 -14 -151 -26 -26 -98 -20 -124 10 -21
23 -24 103 -7 141 8 18 8 30 0 44 -7 14 -7 48 0 113 7 65 7 96 0 103 -18 18
-12 51 12 67 38 25 51 29 92 27 l40 -2 -1 -90z m-3900 66 c23 -6 57 -12 76
-13 64 -5 62 20 56 -718 -3 -366 -2 -670 2 -676 4 -6 26 -21 49 -32 23 -12 48
-34 56 -49 8 -16 22 -41 31 -58 22 -41 21 -98 -3 -119 -11 -10 -22 -28 -25
-40 -3 -12 -26 -37 -51 -55 -45 -32 -45 -33 -45 -92 0 -33 5 -69 11 -80 6 -11
37 -32 70 -46 71 -31 89 -58 89 -136 0 -98 -37 -148 -146 -193 -17 -7 -34 -20
-37 -28 -3 -7 -2 -96 1 -197 4 -101 6 -280 4 -396 l-3 -213 -24 -6 c-13 -3
-31 -1 -42 4 -23 13 -343 15 -538 4 -135 -8 -152 -7 -168 8 -18 16 -18 19 -3
48 22 42 53 62 99 62 31 0 38 3 35 18 -2 13 -17 19 -57 24 -75 9 -96 32 -95
106 1 74 39 136 102 163 23 10 42 24 42 31 0 8 -21 20 -46 27 -37 11 -52 23
-76 60 -27 41 -29 52 -25 108 4 51 10 69 37 103 27 35 37 40 71 40 28 0 42 5
46 17 8 19 -29 53 -59 53 -11 0 -26 13 -36 32 -9 17 -25 39 -34 50 -13 13 -18
35 -18 82 0 36 4 67 9 70 4 3 11 19 14 36 7 31 56 70 89 70 34 0 68 23 68 46
0 28 -14 37 -54 36 -43 -1 -73 21 -97 73 l-21 44 21 64 c25 75 41 92 95 100
76 12 72 46 -9 71 -59 19 -73 32 -100 94 -17 40 -17 45 -2 78 9 19 17 41 17
48 0 7 13 31 30 54 21 29 41 44 69 52 43 11 67 33 56 51 -4 6 -28 20 -52 31
-60 26 -103 93 -102 157 1 58 5 68 58 130 27 31 56 54 75 59 17 5 32 16 34 26
4 21 -15 46 -36 46 -27 0 -103 41 -118 65 -21 32 -12 123 16 174 13 21 42 55
66 75 51 43 57 73 17 82 -16 3 -33 7 -38 9 -21 6 -67 84 -72 122 -4 28 2 55
17 91 30 70 20 68 333 65 127 -1 249 -6 271 -12z m-711 -161 c5 -105 4 -196
-3 -251 -12 -98 -12 -205 -1 -234 5 -11 4 -31 0 -45 -9 -27 -19 -731 -25
-1774 -3 -531 -6 -671 -16 -678 -7 -4 -40 -7 -73 -6 l-60 3 0 125 c0 253 15
1611 20 1790 2 102 5 412 6 690 1 278 6 513 10 522 10 18 43 26 99 24 l35 -1
8 -165z m6381 129 c15 -11 59 -58 98 -102 39 -45 98 -113 132 -152 69 -78 128
-142 217 -230 l60 -60 -3 -109 c-2 -78 -7 -111 -16 -114 -7 -2 -32 16 -55 40
-100 106 -243 263 -262 287 -11 14 -45 51 -75 82 -30 30 -71 75 -90 98 -19 24
-55 62 -79 86 -46 46 -50 74 -16 109 9 8 22 31 30 51 18 41 23 42 59 14z
m1855 -114 c17 -30 31 -62 31 -70 0 -12 -225 -253 -279 -298 -7 -7 -35 -32
-61 -57 -27 -25 -76 -67 -110 -95 -34 -27 -82 -68 -108 -91 -53 -45 -155 -114
-170 -114 -13 0 -72 95 -72 115 0 12 106 100 175 145 78 51 399 360 447 430
36 53 77 90 100 90 9 0 29 -23 47 -55z m-4397 29 c57 -3 180 -9 273 -14 94 -5
200 -6 238 -3 76 7 73 11 60 -95 l-6 -53 -166 5 c-92 3 -178 9 -191 14 -14 5
-101 9 -195 10 -158 2 -171 4 -192 24 -23 22 -47 84 -37 100 3 4 17 8 32 9 15
0 36 4 47 8 11 5 23 7 27 4 5 -2 54 -6 110 -9z m-2441 -41 c44 -48 149 -189
149 -200 0 -6 17 -30 38 -54 82 -94 101 -111 124 -107 33 4 32 49 -2 65 -39
18 -83 70 -77 87 8 21 87 22 125 2 61 -32 112 -114 112 -182 0 -43 -47 -120
-82 -135 -27 -11 -117 -8 -173 6 -35 9 -101 76 -151 153 -19 29 -34 55 -34 58
0 6 -63 86 -87 112 -7 7 -13 20 -13 27 0 7 -11 22 -25 33 -14 11 -25 23 -25
27 0 4 -9 20 -21 37 -24 33 -26 30 32 68 56 36 79 37 110 3z m626 -18 c38 -32
84 -53 247 -110 63 -23 80 -24 200 -20 135 4 209 20 294 64 57 29 72 26 110
-19 43 -52 44 -93 1 -115 -48 -25 -169 -55 -225 -55 -27 0 -55 -5 -61 -11 -9
-9 -159 -8 -268 2 -95 9 -244 64 -328 122 -37 26 -79 50 -93 53 -30 8 -57 45
-49 67 6 13 90 53 121 56 6 0 29 -15 51 -34z m2895 18 c121 -7 128 -12 128
-100 l0 -46 -76 6 c-41 4 -83 3 -92 -2 -25 -13 -215 5 -227 22 -5 8 -8 42 -7
77 l4 63 81 -7 c45 -3 130 -9 189 -13z m3957 -21 c5 -9 7 -47 4 -84 -6 -75
-18 -90 -113 -138 -55 -28 -120 -81 -120 -97 0 -7 -9 -13 -20 -13 -13 0 -58
-36 -113 -88 -51 -49 -100 -91 -109 -95 -11 -4 -28 7 -53 34 -34 38 -35 41
-21 67 16 28 164 179 254 256 29 25 62 46 73 46 11 0 23 10 29 24 5 15 27 33
52 44 24 11 57 29 73 40 38 26 52 27 64 4z m-3124 -51 c3 -6 32 -30 65 -55 75
-57 394 -381 398 -404 2 -11 -13 -31 -38 -51 l-40 -32 -29 20 c-41 29 -169
169 -187 203 -8 15 -18 28 -23 28 -5 0 -47 31 -93 70 l-84 69 -2 72 c-1 39 1
75 4 80 7 12 21 11 29 0z m4449 -46 c84 -42 125 -74 126 -101 0 -6 6 -17 14
-23 17 -15 27 -145 13 -185 -27 -81 -82 -121 -215 -159 -72 -20 -96 -21 -392
-20 -173 0 -340 4 -370 7 -30 3 -106 11 -168 17 -145 14 -255 44 -414 115
l-127 58 36 40 c61 68 67 70 111 42 40 -25 152 -66 182 -66 9 0 20 -4 26 -10
19 -19 196 -31 594 -40 503 -13 523 -10 556 58 23 49 13 100 -26 132 -28 23
-30 30 -30 86 0 85 5 88 84 49z m-6808 -40 c12 -13 30 -38 40 -54 l17 -30 -54
-68 c-30 -37 -66 -86 -79 -108 -41 -68 -123 -155 -145 -155 -12 0 -34 13 -49
29 -32 34 -30 54 13 100 16 17 43 53 61 81 18 28 37 54 44 58 6 4 29 36 50 72
39 65 65 100 74 100 3 0 15 -11 28 -25z m395 -40 c4 -33 7 -103 8 -155 1 -65
7 -111 20 -145 11 -27 35 -94 54 -147 28 -79 45 -109 87 -155 65 -73 176 -170
215 -190 17 -8 41 -25 55 -37 25 -22 104 -52 150 -58 21 -3 26 -10 32 -47 4
-24 5 -48 2 -52 -21 -35 -252 26 -295 77 -7 8 -29 24 -48 34 -57 29 -205 183
-240 249 -10 19 -11 36 -2 80 10 45 9 69 -2 122 -17 75 -34 105 -95 168 l-43
44 2 121 c3 146 7 158 57 154 l37 -3 6 -60z m399 45 c18 -9 20 -21 20 -101 0
-111 18 -177 68 -249 29 -42 52 -61 95 -82 l57 -28 0 -120 0 -120 -42 -46
c-73 -79 -133 -94 -193 -49 -48 37 -61 74 -45 131 8 26 9 49 4 54 -5 5 -29 4
-56 -2 -64 -15 -106 -2 -136 42 -34 51 -26 111 19 150 34 29 34 29 9 30 -80 4
-98 13 -128 64 -18 30 -18 33 -2 71 21 48 43 68 93 86 20 7 37 17 37 21 0 15
-31 21 -43 9 -15 -15 -72 -14 -85 2 -6 7 -14 40 -17 73 -6 52 -5 63 10 71 22
13 310 7 335 -7z m3225 0 c28 -5 70 -11 95 -15 50 -7 82 -18 155 -50 28 -12
65 -28 83 -36 42 -18 41 -40 -4 -74 -31 -24 -42 -27 -82 -21 -50 6 -141 21
-182 30 -14 3 -61 10 -105 16 -44 7 -89 16 -101 22 -40 19 -195 0 -397 -48
-25 -6 -34 0 -73 41 -24 26 -44 54 -44 61 0 29 63 52 210 77 47 8 395 6 445
-3z m-2463 -34 c4 -6 6 -87 3 -181 l-4 -170 -33 -27 c-40 -35 -83 -37 -92 -5
-6 22 2 371 9 394 5 15 106 5 117 -11z m-3702 -2 c0 -9 -20 -36 -45 -61 -25
-24 -45 -48 -45 -53 0 -11 29 -40 40 -40 12 0 48 47 56 73 7 25 33 57 45 57
18 0 69 -84 69 -112 0 -17 -12 -44 -27 -64 -29 -37 -132 -97 -155 -90 -7 3
-26 7 -41 11 -16 3 -42 20 -58 38 -26 28 -29 38 -29 98 0 63 2 69 30 91 17 13
43 33 58 45 33 27 102 32 102 7z m889 -88 c8 -10 9 -16 1 -21 -5 -3 -10 -15
-10 -26 0 -10 -4 -27 -9 -37 -55 -112 -82 -174 -91 -211 -6 -24 -15 -51 -19
-60 -5 -9 -21 -43 -37 -76 -16 -33 -39 -76 -51 -97 -13 -21 -23 -44 -23 -53 0
-8 -4 -15 -10 -15 -11 0 -60 -96 -60 -118 0 -9 -10 -29 -23 -46 -35 -47 -63
-98 -71 -131 -4 -17 -25 -64 -46 -106 -21 -42 -48 -106 -59 -142 -11 -37 -28
-81 -37 -99 -22 -42 -34 -137 -41 -318 -6 -162 8 -292 38 -358 10 -23 19 -51
19 -61 0 -11 9 -40 20 -66 11 -26 20 -55 20 -66 0 -22 33 -92 61 -127 10 -13
27 -43 39 -68 12 -24 31 -49 41 -55 11 -5 30 -27 44 -49 14 -22 46 -51 72 -66
27 -15 55 -32 63 -39 8 -6 53 -24 100 -39 47 -16 97 -35 112 -42 15 -8 80 -18
145 -24 121 -11 148 -22 140 -60 -4 -19 -117 -17 -262 5 -190 29 -281 55 -320
91 -15 14 -44 32 -66 40 -23 10 -46 29 -58 49 -11 19 -38 45 -60 59 -21 14
-43 36 -47 48 -4 13 -17 37 -29 53 -47 62 -105 197 -105 243 0 13 -6 36 -14
50 -40 74 -72 444 -48 555 32 144 41 184 50 212 6 17 20 59 32 95 46 137 61
176 79 210 10 19 28 64 40 100 12 36 33 81 45 100 13 19 27 46 31 60 13 41 47
113 75 155 27 43 34 56 73 150 13 33 34 76 46 95 11 19 28 51 36 71 9 19 24
51 35 70 10 18 35 67 55 107 38 73 59 88 84 58z m156 -46 c6 -4 57 -10 114
-13 65 -4 109 -11 116 -19 10 -11 34 -146 61 -338 4 -25 15 -63 25 -84 11 -22
19 -49 19 -61 0 -12 4 -35 9 -51 5 -16 13 -51 19 -79 46 -211 42 -196 93 -340
33 -93 28 -110 -30 -101 -106 17 -127 18 -179 6 -32 -7 -66 -18 -77 -25 -11
-6 -31 -15 -45 -18 -40 -10 -145 -111 -198 -190 -46 -68 -92 -175 -92 -211 0
-9 -5 -25 -12 -36 -9 -14 -9 -24 -1 -42 7 -13 14 -39 17 -58 11 -76 19 -106
36 -130 10 -14 21 -35 24 -48 4 -12 24 -33 44 -46 21 -13 44 -31 51 -40 16
-19 109 -64 161 -78 19 -5 67 -13 105 -18 39 -5 97 -13 130 -17 33 -5 123 -5
200 -1 77 4 233 10 347 14 l206 7 16 -30 c20 -40 239 -247 282 -268 34 -16 64
-50 64 -73 0 -7 -24 -36 -54 -65 -29 -29 -63 -71 -74 -92 -11 -22 -38 -56 -59
-77 -35 -34 -44 -37 -128 -47 -49 -5 -158 -13 -241 -16 -136 -5 -152 -4 -158
11 -4 10 1 25 10 35 11 12 14 27 10 45 -4 15 -2 49 5 75 15 59 3 144 -21 144
-12 0 -15 -15 -16 -71 -2 -106 -27 -236 -51 -265 -8 -9 -18 -32 -24 -50 -17
-61 -21 -63 -77 -49 -40 11 -48 17 -44 32 2 10 -3 29 -12 43 -28 43 -76 27
-76 -25 0 -25 -2 -26 -47 -20 -46 5 -48 6 -45 35 2 17 10 40 18 52 8 12 14 24
14 26 0 2 -18 22 -40 45 -34 34 -40 47 -40 82 0 22 7 57 15 77 15 36 15 38 -7
55 -13 10 -29 18 -35 18 -7 0 -20 14 -29 31 -24 48 -12 112 29 143 37 29 34
36 -8 25 -41 -11 -75 -80 -75 -152 0 -97 49 -301 86 -355 40 -59 22 -114 -21
-64 -85 96 -121 162 -130 239 -7 60 -8 62 -38 65 -23 2 -35 11 -45 31 -7 15
-20 27 -27 27 -8 0 -17 -12 -21 -27 -3 -16 -7 -33 -9 -39 -2 -6 -24 -21 -48
-32 -57 -27 -104 -16 -113 26 -3 15 -10 40 -15 56 -5 16 -9 44 -9 62 0 29 -3
34 -24 34 -13 0 -30 -7 -37 -17 -39 -46 -153 -68 -198 -37 -22 16 -23 22 -18
83 3 36 14 87 23 113 23 61 13 76 -41 58 -46 -15 -120 3 -136 32 -28 53 35
167 109 198 22 10 32 50 11 50 -6 0 -36 -7 -66 -16 -65 -19 -100 -9 -126 35
-46 78 8 163 108 173 25 2 30 8 30 28 0 23 -4 25 -56 30 -31 3 -63 11 -72 18
-23 19 -40 79 -34 117 10 58 33 83 85 90 71 10 82 15 82 36 0 15 -14 26 -49
41 -39 16 -51 26 -56 48 -6 27 7 94 22 116 16 22 82 54 112 54 39 0 39 9 1 43
-54 49 -52 107 6 165 34 34 36 35 94 29 34 -4 60 -3 60 2 0 5 -16 19 -35 31
-31 19 -35 27 -35 62 0 35 7 47 51 94 32 32 62 54 78 56 30 4 41 36 17 50 -30
17 -20 79 20 131 20 26 43 47 50 47 26 0 26 23 -1 44 -20 16 -28 33 -32 69 -5
44 -3 49 29 80 24 22 45 33 64 33 l29 -1 -4 78 -3 78 38 -7 c22 -3 44 -10 49
-14z m3524 -74 c68 -69 71 -74 49 -79 -12 -4 -39 -7 -58 -7 -19 0 -51 -5 -70
-10 -19 -6 -134 -12 -255 -15 -121 -2 -272 -7 -335 -11 -108 -5 -117 -5 -142
16 -32 25 -34 43 -13 94 18 42 -20 38 355 37 242 0 258 1 320 23 36 13 67 24
70 25 3 0 38 -32 79 -73z m1487 25 c8 -20 19 -43 24 -51 5 -8 26 -49 46 -90
21 -41 47 -88 59 -105 29 -39 85 -150 85 -169 0 -9 13 -30 28 -48 36 -42 62
-84 62 -99 0 -7 12 -28 27 -48 28 -36 46 -69 176 -321 72 -140 121 -264 163
-410 14 -47 29 -99 34 -116 6 -17 10 -46 10 -64 0 -19 10 -61 21 -94 20 -54
21 -74 16 -191 -3 -72 -13 -152 -21 -180 -9 -27 -16 -61 -16 -75 0 -43 -48
-175 -79 -223 -17 -25 -31 -48 -31 -52 0 -10 -54 -79 -65 -84 -5 -2 -31 -25
-57 -50 -108 -106 -231 -171 -383 -201 -33 -6 -78 -16 -100 -22 -85 -21 -195
-38 -308 -50 -148 -14 -157 -9 -122 70 l24 52 94 0 c65 0 104 5 125 16 17 8
64 17 104 20 45 4 102 17 148 34 41 16 91 32 110 35 45 9 131 56 193 106 27
21 53 39 56 39 4 0 17 19 30 43 46 88 78 144 99 179 13 20 27 61 32 90 6 29
15 76 22 103 20 82 14 205 -20 460 -6 39 -14 81 -20 95 -5 14 -20 59 -32 100
-35 118 -50 157 -74 192 -12 18 -34 69 -50 113 -15 44 -45 106 -67 137 -21 31
-39 61 -39 66 0 5 -6 15 -14 21 -8 7 -18 26 -22 43 -7 34 -47 113 -68 138 -8
8 -22 35 -32 60 -9 25 -23 52 -31 61 -7 8 -13 21 -13 28 0 6 -28 67 -63 134
-35 67 -70 145 -77 172 -16 62 -57 145 -70 145 -6 0 -15 -11 -20 -25 -8 -21
-4 -34 21 -75 27 -44 30 -55 23 -97 -6 -42 -44 -111 -66 -121 -5 -2 -8 -13 -8
-24 0 -15 4 -18 18 -12 47 20 88 16 135 -15 25 -18 49 -41 52 -52 12 -37 -4
-83 -46 -134 l-41 -50 78 -10 c44 -6 85 -15 93 -19 28 -17 50 -88 42 -133 -10
-50 -19 -64 -80 -120 -25 -22 -43 -45 -39 -49 5 -4 26 -1 48 6 33 11 49 11 95
0 74 -18 90 -38 89 -109 -1 -62 -51 -184 -79 -195 -8 -3 -15 -12 -15 -21 0
-18 47 -20 84 -3 36 16 102 -5 144 -45 27 -26 32 -38 32 -77 0 -54 -8 -66 -72
-109 -27 -18 -48 -36 -48 -41 0 -17 18 -20 49 -9 28 10 37 8 70 -14 30 -20 40
-34 44 -64 18 -104 -7 -176 -73 -218 -34 -21 -39 -29 -30 -41 7 -8 20 -14 29
-14 17 0 51 -39 64 -74 8 -20 -7 -84 -31 -133 -10 -19 -31 -39 -55 -49 l-39
-18 6 -86 c7 -98 0 -115 -58 -155 -40 -27 -52 -30 -120 -27 -30 2 -46 10 -72
37 -47 51 -53 48 -69 -31 -9 -48 -62 -92 -126 -106 -72 -15 -104 -6 -148 43
-67 76 -110 81 -125 17 -4 -17 -22 -38 -45 -53 -34 -23 -61 -60 -61 -85 0 -9
-84 -191 -120 -260 -15 -29 -25 -36 -54 -38 -34 -3 -36 -1 -36 26 0 16 14 56
32 88 17 32 37 82 45 109 8 28 21 73 29 100 20 69 31 270 14 280 -20 12 -32
-11 -37 -66 -4 -54 -17 -89 -33 -89 -5 0 -27 -18 -49 -40 -22 -22 -47 -40 -55
-40 -22 0 -20 -17 3 -30 34 -18 61 -74 61 -126 0 -58 -5 -66 -47 -88 -46 -23
-47 -31 -19 -83 15 -25 25 -47 24 -49 -2 -1 -57 -6 -123 -9 l-120 -7 -18 63
c-10 35 -40 114 -66 174 -45 104 -49 110 -77 110 -22 0 -32 -7 -42 -28 -15
-31 -53 -51 -118 -62 -52 -8 -105 13 -151 60 -48 49 -68 58 -87 39 -9 -8 -16
-25 -16 -36 0 -21 -34 -75 -60 -95 -8 -6 -40 -15 -72 -18 -68 -8 -116 11 -155
61 -44 58 -61 47 -93 -59 -19 -61 -58 -80 -154 -73 l-78 6 5 -30 c5 -25 2 -31
-21 -42 -35 -17 -36 -44 -2 -41 14 2 41 10 60 18 31 13 85 27 260 66 25 5 72
14 105 20 33 5 83 14 110 20 28 5 102 13 165 17 63 4 120 10 125 14 6 3 66 8
135 9 l125 3 22 -33 c45 -66 36 -70 -172 -82 -270 -14 -623 -56 -664 -79 -11
-5 -43 -15 -73 -21 -90 -19 -180 -51 -227 -81 -62 -39 -85 -37 -119 11 -15 21
-40 47 -57 58 -16 11 -36 32 -44 46 -13 25 -13 29 7 50 12 13 22 27 22 32 0 5
16 23 35 41 36 32 45 54 23 54 -7 0 -32 22 -55 48 -61 71 -173 122 -270 122
-36 0 -43 3 -43 20 0 11 4 20 9 20 4 0 24 13 44 29 55 43 262 145 281 138 9
-4 16 -17 16 -31 0 -31 10 -56 22 -56 5 0 19 11 31 25 21 24 23 25 44 10 18
-12 21 -22 16 -46 -5 -28 -4 -30 20 -24 30 8 67 -9 67 -31 0 -8 -19 -34 -42
-57 -85 -87 -128 -147 -103 -147 16 0 58 38 93 83 63 82 172 185 342 322 40
33 92 76 114 96 54 47 87 57 231 64 66 4 174 13 240 21 66 8 156 14 200 15 44
0 103 5 130 11 28 5 102 14 165 18 300 22 391 40 515 102 78 39 110 70 146
140 26 51 29 67 29 150 0 88 -2 97 -38 163 -20 39 -41 78 -47 87 -5 9 -57 40
-115 69 -130 66 -210 80 -387 67 -64 -4 -118 -6 -120 -4 -8 8 36 97 71 145 19
25 42 67 52 91 10 25 25 56 33 70 9 13 21 38 27 55 6 16 23 61 38 100 14 38
26 77 26 86 0 8 11 43 25 78 30 74 53 156 65 231 5 30 14 89 20 130 6 41 16
102 21 135 6 33 13 87 16 120 2 33 9 65 14 70 18 18 113 32 222 32 l109 1 14
-37z m-2641 2 l120 -8 0 -65 c0 -63 -1 -65 -27 -68 -15 -2 -36 1 -46 7 -15 8
-34 6 -73 -5 -53 -16 -80 -15 -176 6 -37 8 -59 8 -72 0 -32 -16 -69 8 -97 62
-37 74 -36 77 54 80 88 3 149 2 317 -9z m1902 -5 c31 -29 30 -63 -4 -85 -39
-24 -268 -245 -268 -257 0 -6 -28 -29 -61 -52 l-62 -42 -37 38 -38 38 52 59
c54 61 166 167 266 250 98 81 114 87 152 51z m1543 -20 c19 -12 69 -38 110
-58 41 -21 84 -47 95 -60 11 -12 36 -30 55 -40 19 -10 53 -37 74 -59 l40 -41
-33 -11 c-18 -7 -36 -22 -41 -35 -11 -27 -41 -32 -61 -8 -7 8 -38 31 -68 51
-31 20 -65 44 -76 53 -11 10 -54 32 -95 49 -41 18 -97 43 -123 55 l-48 21 63
52 c35 29 65 52 68 53 3 0 21 -10 40 -22z m-6653 -44 c61 -64 78 -113 94 -284
15 -150 10 -246 -20 -385 -22 -105 -158 -335 -197 -335 -5 0 -24 15 -41 33
-29 31 -45 68 -74 167 -7 25 -16 50 -19 55 -18 27 -31 137 -26 220 7 127 16
198 27 210 5 5 9 23 9 41 0 18 11 56 25 86 14 29 25 63 25 75 0 28 18 39 35
22 21 -23 55 -132 55 -178 0 -23 -8 -54 -17 -68 -32 -48 -43 -96 -43 -183 0
-111 32 -210 68 -210 20 0 62 41 81 77 13 26 15 257 2 299 -5 16 -15 49 -22
74 -7 25 -21 59 -31 75 -10 17 -18 37 -18 45 0 9 -11 32 -25 52 -14 20 -25 45
-25 55 0 15 76 103 89 103 2 0 24 -21 48 -46z m2262 -73 c46 -40 61 -60 70
-95 24 -97 9 -153 -50 -184 -49 -26 -139 -30 -191 -7 -19 7 -80 56 -134 108
-54 51 -107 96 -116 100 -30 11 -20 40 26 86 l44 43 28 -36 c16 -20 48 -50 72
-67 23 -16 42 -37 42 -44 0 -24 81 -68 124 -69 21 -1 41 4 43 11 5 14 -36 53
-56 53 -9 0 -45 27 -79 59 -63 59 -63 60 -40 72 80 43 142 35 217 -30z m-724
19 c45 -17 135 -90 170 -138 48 -66 52 -90 21 -121 -25 -24 -26 -24 -46 -6
-11 10 -20 23 -20 30 0 35 -175 145 -231 145 -32 0 -79 -35 -79 -60 0 -40 102
-59 131 -24 19 24 53 16 89 -21 40 -42 36 -49 -54 -94 -75 -37 -119 -39 -181
-10 -70 33 -85 58 -85 146 0 84 17 118 74 155 27 17 42 18 108 13 43 -3 89
-10 103 -15z m2637 -66 c10 -9 -18 -95 -58 -179 -45 -96 -133 -216 -177 -244
-18 -11 -38 -29 -44 -40 -7 -11 -37 -33 -65 -47 -29 -15 -66 -37 -83 -49 -56
-42 -188 -76 -350 -91 -82 -7 -158 -13 -167 -14 -15 0 -18 9 -18 58 l0 59 73
1 c80 2 167 16 197 32 10 5 34 10 52 10 66 0 146 41 222 115 12 11 34 27 50
35 16 8 43 32 60 54 17 21 50 59 72 85 38 42 114 182 114 210 0 11 111 17 122
5z m-338 -42 c-4 -29 -2 -41 11 -52 35 -29 63 21 40 73 -6 15 -1 17 34 17 l41
0 0 -58 c0 -48 -4 -62 -22 -80 -39 -36 -72 -43 -119 -27 -23 8 -45 15 -50 15
-15 0 -10 -30 13 -69 25 -43 19 -91 -11 -91 -10 0 -26 -9 -35 -19 -9 -10 -25
-17 -34 -16 -60 12 -74 18 -102 41 -38 33 -55 22 -38 -24 22 -58 -28 -152 -81
-152 -39 0 -88 35 -110 78 -26 52 -49 71 -62 51 -5 -8 -9 -19 -9 -26 0 -15
-47 -123 -54 -123 -26 0 -36 16 -36 60 0 27 5 52 10 55 15 9 12 42 -5 49 -12
4 -15 28 -15 126 l0 120 78 0 c77 0 142 17 216 58 30 16 117 25 284 30 l62 2
-6 -38z m-681 -34 c-10 -85 -9 -612 0 -668 l8 -45 -50 -43 c-28 -24 -55 -41
-60 -37 -5 3 -15 22 -22 43 -6 20 -16 43 -22 50 -12 15 -10 377 3 502 5 47 9
121 9 166 1 44 4 84 8 87 3 4 35 7 70 7 l63 0 -7 -62z m4403 32 c60 -16 146
-24 359 -35 416 -21 444 -24 456 -46 14 -26 14 -151 0 -176 -15 -29 -67 -66
-110 -78 -47 -14 -49 -31 -6 -39 50 -10 83 -26 90 -44 13 -36 17 -131 6 -165
-13 -40 -45 -64 -111 -88 -54 -19 -57 -38 -10 -61 65 -32 80 -60 80 -144 l0
-74 -52 -50 -52 -49 37 -16 c49 -20 97 -101 97 -164 0 -44 -29 -119 -53 -139
-7 -6 -28 -14 -47 -19 -52 -14 -49 -36 9 -71 41 -26 52 -39 61 -73 17 -63 4
-134 -32 -175 -17 -19 -36 -34 -44 -34 -23 0 -16 -40 9 -49 12 -5 33 -24 47
-42 21 -29 25 -45 25 -107 0 -72 -1 -74 -37 -108 -21 -19 -38 -40 -38 -48 0
-7 15 -25 33 -38 87 -67 63 -208 -48 -284 l-39 -26 -240 12 c-133 7 -299 13
-371 14 l-130 1 -5 265 c-3 146 -9 272 -13 280 -4 8 -36 29 -70 45 l-62 30 -3
81 c-3 92 6 106 81 134 l42 16 0 69 0 70 -52 34 -53 34 0 68 0 68 54 40 c30
23 58 46 63 53 4 7 10 263 13 568 3 305 9 561 13 568 10 16 10 16 103 -8z
m-782 -61 c39 -18 39 -36 -1 -102 -20 -34 -42 -71 -48 -82 -7 -11 -38 -33 -69
-48 -31 -16 -56 -32 -56 -36 0 -14 -67 -31 -122 -31 -74 0 -111 17 -148 68
-26 36 -30 48 -24 80 13 72 92 142 159 142 30 0 107 -33 123 -53 11 -13 8 -19
-22 -42 -31 -24 -42 -26 -80 -21 -33 5 -48 3 -60 -9 -20 -21 -21 -59 0 -79 19
-20 19 -20 82 2 54 19 105 65 150 136 55 86 70 96 116 75z m1831 -676 c-5
-379 -8 -710 -8 -738 0 -27 -4 -90 -8 -140 -5 -49 -11 -265 -14 -480 -4 -214
-10 -393 -13 -397 -4 -4 -36 -2 -71 5 l-64 13 -4 163 c-3 105 0 167 6 175 9
11 12 317 9 846 0 14 4 212 10 440 6 241 7 421 2 431 -6 10 -5 30 0 50 6 19
10 95 10 170 0 75 3 139 7 142 3 4 38 7 76 7 l70 0 -8 -687z m-1325 647 c33
-17 41 -28 60 -86 l21 -67 -23 -24 c-55 -60 -125 -68 -197 -25 -25 15 -46 33
-48 39 -2 6 11 19 30 28 30 14 37 14 70 0 28 -11 43 -13 57 -5 23 12 25 23 10
51 -15 27 -94 26 -135 -1 -79 -52 -161 -113 -168 -126 -4 -8 -14 -14 -21 -14
-14 0 -66 61 -66 77 0 17 116 120 160 143 85 44 177 47 250 10z m-5381 -14
l32 -33 -22 -39 c-12 -21 -32 -50 -45 -64 -12 -14 -30 -41 -39 -60 -10 -19
-28 -48 -40 -65 -23 -32 -45 -98 -45 -136 0 -57 59 -90 92 -51 26 29 31 76 13
140 -16 55 -16 62 -1 91 22 41 42 39 57 -6 6 -21 15 -42 19 -48 4 -5 11 -26
14 -45 32 -159 4 -242 -100 -298 -28 -15 -104 12 -153 54 -36 31 -36 33 -40
119 -3 82 1 107 31 205 14 43 93 166 113 174 8 3 23 25 35 51 11 25 26 45 33
45 7 0 28 -15 46 -34z m2641 3 c16 -6 30 -16 30 -22 0 -6 34 -45 75 -88 84
-86 94 -117 52 -158 -32 -29 -52 -19 -82 39 -16 32 -40 58 -72 79 -55 37 -77
44 -124 39 -26 -2 -35 -8 -37 -25 -5 -32 38 -57 86 -50 53 7 102 -15 102 -46
0 -20 -11 -28 -70 -51 -79 -31 -119 -30 -185 7 -57 32 -82 87 -66 146 6 24 21
56 31 71 11 16 20 33 20 38 0 38 154 51 240 21z m617 -35 c51 -34 62 -58 63
-130 0 -74 -22 -109 -75 -118 -19 -3 -50 -9 -69 -12 -19 -3 -41 -2 -50 3 -20
11 -91 71 -160 135 l-51 47 48 48 48 48 30 -35 c16 -19 36 -47 44 -62 21 -39
72 -71 114 -72 29 -1 36 3 36 19 0 14 -10 22 -36 30 -78 22 -90 60 -32 100 21
14 41 25 45 25 4 0 24 -12 45 -26z m1699 -186 c8 -15 26 -33 41 -40 52 -24
119 -191 128 -318 7 -95 -13 -267 -34 -300 -16 -26 -35 -70 -53 -130 -7 -19
-22 -49 -35 -67 -13 -18 -32 -53 -43 -78 -11 -25 -26 -48 -34 -51 -24 -9 -55
14 -82 64 -76 141 -81 151 -94 232 -6 36 -16 88 -21 115 -21 100 12 337 62
439 29 61 56 80 73 52 6 -10 22 -32 35 -48 23 -29 23 -29 6 -71 -37 -89 -46
-123 -60 -213 -14 -95 -10 -155 17 -244 28 -89 85 -117 101 -50 4 19 13 53 19
75 19 73 21 283 3 371 -22 109 -45 155 -106 214 l-52 51 33 34 34 35 24 -23
c13 -12 30 -34 38 -49z m-1979 -16 l32 -28 -60 -63 c-33 -35 -68 -76 -77 -90
-9 -14 -23 -30 -30 -35 -8 -4 -25 -33 -38 -63 l-25 -55 23 -41 c28 -50 58 -59
82 -25 17 24 20 79 7 113 -11 26 24 88 61 109 l27 17 16 -53 c22 -75 20 -178
-6 -238 -21 -48 -67 -94 -118 -116 -56 -23 -168 31 -210 102 -22 37 -28 89
-11 99 6 3 10 17 10 29 0 69 99 232 184 305 10 9 30 26 45 38 34 29 49 28 88
-5z m-1437 -326 c0 -40 -281 -346 -317 -346 -22 0 -83 59 -83 80 0 8 28 45 61
80 34 36 85 91 115 124 l53 58 78 8 c43 4 81 8 86 9 4 0 7 -5 7 -13z m-1738
-154 c35 -33 41 -45 46 -91 4 -46 9 -55 36 -72 47 -28 69 -24 120 25 45 44 98
68 133 61 73 -15 74 -16 95 -61 20 -45 20 -77 3 -147 -8 -32 16 -67 46 -67 10
0 21 -5 24 -11 10 -15 8 -510 -2 -519 -4 -5 -69 -4 -143 2 -155 11 -133 11
-355 -2 -398 -23 -460 -23 -475 -5 -17 21 -28 229 -30 579 -1 279 -1 283 50
270 14 -3 63 -9 110 -14 l85 -9 30 34 c41 45 81 64 138 65 42 0 53 -5 89 -38z
m2120 -36 c76 -36 115 -74 129 -127 15 -54 7 -89 -26 -125 -14 -15 -25 -31
-25 -35 0 -5 -21 -21 -47 -36 -45 -26 -55 -28 -158 -27 -97 0 -122 4 -210 33
-55 18 -107 40 -116 47 -8 8 -20 14 -25 14 -5 0 -35 24 -67 53 l-59 52 35 33
35 34 58 -27 c90 -42 137 -67 163 -87 16 -12 41 -18 76 -18 29 0 67 -5 84 -11
55 -19 131 16 131 60 0 6 -9 20 -20 31 -29 29 -101 26 -168 -5 -48 -22 -57
-23 -107 -13 -58 11 -81 28 -72 52 10 27 84 72 144 90 32 9 69 21 83 25 48 17
108 12 162 -13z m-959 -51 c42 -9 80 -24 98 -40 17 -14 35 -25 40 -25 6 0 46
-36 91 -79 l80 -80 -28 -40 c-16 -22 -35 -43 -42 -46 -8 -3 -44 22 -80 55 -72
64 -206 150 -235 150 -27 0 -75 -28 -88 -51 -9 -17 -7 -25 12 -45 27 -29 80
-32 128 -8 29 14 37 14 69 2 54 -20 51 -52 -8 -85 -25 -14 -53 -32 -64 -42
-13 -11 -36 -16 -80 -15 -50 1 -71 7 -116 34 -89 52 -90 53 -90 138 l0 75 45
44 c78 74 135 86 268 58z m-1881 -255 c4 -135 11 -297 16 -360 5 -63 7 -121 5
-127 -6 -15 -49 -17 -58 -3 -4 6 -27 21 -53 34 -68 35 -145 120 -167 185 -32
98 -8 242 58 347 41 64 150 173 172 171 19 -2 20 -12 27 -247z m3951 145 c22
-9 44 -30 61 -59 14 -25 35 -46 48 -49 13 -3 64 0 113 8 78 12 92 12 105 -1
12 -12 16 -53 20 -202 3 -103 8 -192 13 -199 9 -14 12 -262 3 -271 -11 -10
-237 -34 -361 -36 -160 -4 -423 -24 -460 -36 -16 -5 -59 -11 -95 -14 -36 -3
-91 -10 -123 -16 -32 -6 -72 -10 -90 -8 l-31 3 -3 130 c-2 72 -8 143 -13 159
-6 16 -10 73 -10 128 0 85 2 99 18 104 50 16 115 50 123 65 5 10 9 40 9 67 0
117 65 182 183 182 76 0 136 -33 154 -85 33 -96 88 -97 118 -3 30 91 80 132
176 147 4 1 22 -6 42 -14z m-1606 -157 l53 -21 -53 -59 c-28 -33 -59 -69 -67
-81 -8 -12 -31 -42 -53 -67 -21 -25 -42 -49 -47 -55 -27 -32 -111 -106 -118
-103 -4 2 -24 14 -44 27 -55 34 -52 65 14 138 174 195 233 253 247 247 9 -3
40 -15 68 -26z m2211 13 c20 -10 62 -30 92 -45 81 -39 120 -119 120 -251 0
-135 -34 -194 -146 -251 -55 -28 -77 -35 -86 -26 -12 12 -13 16 -23 287 -4
110 -12 208 -16 217 -11 20 -12 72 -2 81 10 11 21 8 61 -12z m-3120 -101 c20
-11 71 -35 112 -54 95 -44 258 -131 279 -149 9 -8 36 -25 61 -38 25 -13 57
-34 73 -46 15 -12 54 -36 86 -53 54 -29 173 -121 178 -138 2 -4 -25 -25 -59
-47 -35 -22 -82 -57 -106 -77 -45 -40 -64 -45 -107 -28 -15 6 -46 11 -68 11
-23 1 -69 11 -102 23 -54 20 -115 40 -319 103 -101 31 -96 17 -87 256 5 114 6
219 3 232 -5 31 7 32 56 5z m961 -68 c5 -10 28 -40 50 -67 23 -27 41 -53 41
-58 0 -4 22 -40 49 -80 26 -40 54 -90 62 -112 8 -22 24 -55 37 -74 12 -19 22
-40 22 -48 0 -8 9 -33 20 -55 11 -23 20 -47 20 -53 0 -6 9 -30 20 -53 21 -44
25 -68 12 -76 -5 -3 -34 -2 -64 1 l-56 6 -12 46 c-14 57 -134 295 -169 336
-15 17 -49 63 -76 103 -87 128 -83 114 -46 161 36 45 73 54 90 23z m563 -207
c4 -49 12 -157 17 -240 12 -177 13 -175 -92 -198 -78 -17 -89 -12 -106 50 -6
19 -16 43 -24 52 -7 9 -22 36 -32 61 -42 101 -77 176 -92 192 -33 37 -6 58
152 120 28 11 66 28 85 38 19 10 46 18 60 17 24 -2 25 -5 32 -92z m-500 -195
c29 -59 46 -104 53 -135 4 -16 13 -39 19 -50 7 -11 18 -39 26 -63 17 -53 15
-56 -102 -115 -48 -25 -104 -58 -126 -75 -40 -32 -149 -85 -161 -78 -15 10
-81 170 -81 197 0 8 -5 20 -11 26 -6 6 -11 32 -12 58 -2 52 -5 48 99 120 31
22 72 53 90 68 51 43 136 87 164 85 17 -2 30 -14 42 -38z m-644 -245 c4 -40
-8 -55 -44 -55 -11 0 -29 -9 -39 -20 -10 -11 -28 -20 -39 -20 -12 0 -34 -7
-50 -15 -15 -8 -35 -15 -42 -15 -8 0 -19 -11 -24 -25 -5 -14 -14 -25 -20 -25
-5 0 -20 -11 -32 -25 -12 -14 -27 -25 -34 -25 -6 0 -20 -12 -29 -27 -10 -16
-40 -50 -67 -76 -30 -29 -48 -55 -46 -65 2 -9 -7 -25 -20 -35 -29 -24 -69
-102 -77 -153 -14 -90 -10 -85 -68 -82 -51 3 -52 4 -55 36 -2 21 4 43 19 63
12 17 27 50 35 74 26 88 192 296 281 351 15 10 44 30 63 45 81 62 243 141 275
135 6 -2 11 -20 13 -41z m194 33 c8 -7 21 -40 28 -73 15 -65 50 -156 107 -274
29 -61 33 -78 24 -97 -14 -31 -106 -78 -118 -61 -32 45 -163 375 -163 412 0
13 -5 36 -10 51 -17 44 -7 54 58 54 32 0 65 -6 74 -12z m744 -163 c39 -20 79
-44 88 -54 16 -18 16 -20 -12 -40 -27 -19 -32 -20 -60 -6 -16 9 -36 22 -43 31
-7 8 -31 25 -53 36 -60 30 -68 38 -55 54 19 23 59 16 135 -21z m-898 12 c6 -7
19 -44 30 -83 11 -38 34 -93 51 -120 43 -71 41 -90 -11 -113 -52 -23 -146
-107 -194 -174 -19 -27 -49 -54 -67 -61 -59 -24 -369 -27 -392 -4 -3 2 0 19 6
37 10 29 15 32 48 31 55 -3 61 -1 61 15 0 9 -13 18 -31 22 -40 8 -47 28 -19
59 27 28 58 31 102 8 22 -11 33 -13 41 -5 16 16 -2 29 -48 37 -47 7 -58 15
-53 40 3 19 53 52 79 53 8 1 25 -12 37 -29 25 -33 42 -39 42 -15 0 20 -50 95
-63 95 -6 0 -2 9 8 20 19 21 45 27 45 10 0 -6 8 -14 18 -17 9 -4 24 -16 34
-28 9 -11 19 -17 23 -13 4 4 -4 21 -18 38 -39 46 -43 68 -16 96 12 13 28 24
35 24 7 0 29 -20 50 -45 20 -25 40 -45 45 -45 16 0 9 26 -11 45 -29 26 -34 54
-14 76 19 22 73 26 92 7 10 -10 15 -10 22 2 5 8 10 23 10 33 0 20 42 24 58 4z
m-2752 -132 c63 -16 98 -44 145 -114 46 -70 38 -152 -22 -246 -55 -84 -102
-96 -134 -35 -15 28 -14 33 10 80 35 69 34 122 -4 149 -67 48 -121 7 -121 -91
0 -83 29 -122 208 -274 l43 -37 -33 -28 c-18 -16 -41 -31 -50 -34 -39 -14
-205 106 -238 171 -8 16 -25 44 -38 62 -43 60 -61 195 -34 262 18 45 104 125
147 136 56 16 57 16 121 -1z m6591 -147 c38 -38 57 -67 63 -94 12 -50 13 -186
1 -216 -5 -13 -14 -41 -21 -63 -20 -62 -144 -244 -177 -259 -19 -8 -103 62
-103 87 0 12 25 52 55 89 83 103 115 234 74 309 -16 30 -84 26 -105 -6 -22
-34 -11 -90 27 -127 16 -16 29 -39 29 -51 -1 -12 -21 -44 -45 -70 -42 -45 -46
-47 -65 -34 -24 17 -89 115 -90 135 0 8 -7 30 -16 49 -13 25 -14 37 -5 46 6 6
11 29 11 52 1 22 9 54 18 70 49 84 59 95 112 120 46 22 65 25 119 21 62 -4 65
-6 118 -58z m-5977 -13 c14 -7 70 -15 124 -19 55 -4 106 -12 114 -18 11 -9 13
-32 8 -102 -7 -116 -23 -285 -33 -356 l-8 -55 -40 3 c-84 5 -81 2 -89 99 -5
52 -15 103 -27 127 -10 22 -19 52 -19 67 0 40 -16 71 -86 175 -35 51 -60 95
-57 98 8 8 83 -4 113 -19z m2660 -20 c39 -19 70 -41 70 -48 0 -31 -77 -86
-311 -222 -67 -38 -66 -39 -125 17 -65 61 -67 82 -9 112 22 12 66 39 99 61
125 86 172 114 189 114 10 1 49 -15 87 -34z m2825 -15 c3 -5 -1 -23 -10 -41
-9 -17 -25 -56 -35 -88 -19 -61 -89 -207 -172 -358 l-51 -92 -61 -5 c-34 -3
-107 -8 -163 -11 l-101 -6 -6 63 c-4 35 -8 126 -10 203 -2 77 -6 149 -10 160
-11 36 18 58 81 62 32 2 85 8 118 14 33 5 86 14 118 19 32 5 68 15 80 23 12 8
41 17 63 20 23 4 61 16 85 26 51 23 65 25 74 11z m-6720 -26 c37 -16 225 -197
225 -217 0 -8 10 -26 21 -41 12 -15 20 -28 18 -30 -2 -2 -17 -10 -34 -19 -39
-19 -66 -9 -119 46 -56 59 -84 75 -174 97 -68 16 -109 18 -342 15 -407 -5
-688 -20 -730 -38 -45 -19 -70 -48 -87 -95 -21 -61 -16 -91 20 -126 17 -18 38
-35 46 -37 11 -4 12 -18 5 -69 -9 -65 -9 -65 -39 -62 -16 2 -54 16 -84 30 -42
21 -61 39 -87 82 -32 52 -34 62 -37 150 -2 88 0 99 26 143 35 59 85 117 102
117 7 0 25 10 40 22 37 29 127 36 545 44 173 3 320 7 325 9 25 9 333 -9 360
-21z m8500 -36 c55 -5 170 -14 255 -18 286 -15 408 -41 442 -97 23 -36 24
-159 3 -187 -10 -13 -15 -15 -15 -6 0 22 -51 82 -65 76 -7 -2 -21 1 -31 8 -55
38 -277 59 -754 72 -259 7 -396 -3 -453 -33 -17 -8 -46 -31 -65 -49 -20 -19
-46 -37 -58 -40 -13 -3 -39 -26 -59 -50 -20 -24 -42 -44 -49 -44 -8 0 -30 -20
-50 -44 -20 -25 -45 -48 -56 -51 -20 -6 -130 37 -130 51 0 8 152 167 204 213
16 14 50 46 77 71 70 66 106 92 168 122 l56 27 240 -5 c132 -3 285 -10 340
-16z m-6485 -107 c58 -16 123 -29 145 -30 22 0 69 -5 105 -10 56 -9 171 -24
350 -46 159 -20 521 -33 561 -21 23 7 34 0 93 -59 36 -36 66 -70 66 -76 0 -22
-203 -93 -365 -127 -121 -26 -143 -31 -185 -46 -25 -8 -83 -20 -130 -26 -47
-6 -171 -22 -276 -35 -105 -14 -204 -25 -221 -25 -16 0 -33 -4 -38 -9 -13 -12
-239 -26 -234 -14 2 5 17 43 33 85 l28 76 57 5 c75 6 123 18 206 51 66 27 115
59 115 78 0 26 -158 90 -265 107 -33 5 -76 16 -95 24 -22 10 -109 20 -237 28
-220 14 -222 15 -207 73 5 23 11 25 72 29 171 8 314 -2 422 -32z m1366 10 c10
-16 27 -35 40 -41 21 -12 145 -139 232 -238 23 -27 42 -58 42 -69 0 -32 -69
-112 -96 -113 -7 0 -58 53 -115 118 -56 64 -131 147 -166 184 -35 36 -63 73
-63 81 0 8 14 32 31 53 51 64 69 69 95 25z m611 -141 c23 -28 70 -74 104 -103
125 -104 122 -101 115 -164 -4 -31 -11 -62 -17 -69 -14 -17 -59 -1 -90 32 -12
13 -26 24 -29 24 -9 0 -236 224 -272 269 -39 48 -36 66 18 101 l47 29 41 -35
c22 -19 60 -57 83 -84z m-4159 75 c79 -6 82 -11 82 -131 0 -56 -4 -105 -10
-109 -6 -4 -7 -154 -3 -408 6 -425 8 -447 52 -447 11 0 32 11 48 24 60 50 155
71 206 45 55 -28 67 -49 67 -115 0 -35 -5 -66 -10 -69 -17 -10 -60 -83 -60
-100 0 -13 39 -15 303 -17 166 -1 352 -3 412 -5 61 -1 133 -2 160 -2 28 0 70
0 95 -1 25 0 218 -3 429 -6 350 -4 385 -3 402 12 11 9 19 30 19 45 0 29 14
105 32 174 13 52 60 111 117 147 40 25 54 28 125 28 90 0 154 -18 198 -56 16
-13 34 -24 39 -24 25 0 53 -96 58 -199 l6 -104 41 -12 c24 -7 124 -13 254 -14
118 -1 215 -3 216 -4 1 -1 4 -11 6 -22 2 -15 -5 -22 -32 -31 -39 -13 -51 -40
-23 -51 10 -3 22 -12 26 -20 4 -7 17 -13 28 -13 29 0 59 -56 59 -113 0 -58
-19 -98 -61 -128 l-32 -22 31 -26 c35 -29 52 -67 52 -115 0 -34 -32 -86 -52
-86 -13 0 -48 -30 -48 -40 0 -4 18 -19 41 -34 54 -36 67 -72 61 -173 -4 -82
-5 -83 -44 -119 -39 -35 -43 -36 -92 -29 -73 9 -98 39 -140 168 -10 31 -31 13
-34 -29 -2 -21 -10 -46 -17 -54 -8 -9 -18 -26 -23 -39 -12 -34 -71 -51 -149
-44 -58 5 -67 9 -94 42 -16 19 -29 43 -29 52 0 25 -37 66 -48 54 -5 -5 -17
-31 -26 -57 -30 -81 -41 -89 -131 -94 -74 -5 -82 -3 -107 20 -34 31 -58 87
-58 138 0 54 -29 48 -50 -10 -9 -23 -30 -57 -48 -74 -28 -29 -37 -32 -95 -32
-79 0 -102 14 -148 88 -34 56 -52 65 -57 30 -1 -10 -27 -45 -56 -76 -52 -57
-54 -58 -108 -58 -57 0 -116 18 -136 42 -6 7 -19 36 -30 63 -25 63 -47 69 -68
18 -38 -90 -85 -123 -177 -123 -46 0 -53 3 -87 40 -21 23 -40 54 -44 71 -8 42
-38 35 -47 -11 -12 -56 -102 -120 -169 -120 -71 0 -180 82 -210 158 -16 41
-41 39 -55 -4 -5 -16 -20 -42 -32 -58 -12 -15 -25 -36 -28 -47 -8 -23 -44 -34
-112 -33 -69 2 -104 28 -146 112 -24 47 -40 67 -53 67 -14 0 -20 -8 -22 -30
-6 -76 -14 -96 -56 -140 -49 -51 -77 -56 -147 -29 -50 20 -91 80 -99 144 -4
40 -8 45 -30 45 -23 0 -25 -4 -28 -50 -5 -80 -64 -125 -164 -125 -43 0 -54 4
-78 30 -16 17 -38 51 -50 75 -12 25 -26 42 -31 39 -5 -3 -19 -24 -30 -47 -29
-58 -99 -121 -156 -140 -45 -15 -49 -15 -79 4 -18 11 -35 26 -38 35 -11 27 -6
88 9 114 23 40 19 60 -15 67 -33 6 -90 64 -90 91 0 64 53 147 111 178 36 18
38 44 4 44 -33 0 -92 54 -100 90 -5 21 1 46 20 87 38 83 59 103 112 103 31 0
45 5 50 16 8 21 -22 44 -57 44 -47 0 -96 76 -93 145 3 80 68 165 126 165 35 0
15 43 -35 75 -60 38 -84 91 -81 182 2 80 26 128 83 168 63 44 62 72 -3 93 -79
25 -137 119 -137 220 0 41 4 49 47 89 30 27 57 43 73 43 52 0 67 43 23 62 -63
27 -93 78 -93 157 0 45 17 83 48 107 9 7 90 12 216 13 110 1 228 6 261 10 33
5 67 6 75 4 8 -3 39 -7 68 -8z m-783 -39 c14 -21 15 -54 11 -238 -2 -117 -4
-240 -4 -273 4 -537 -9 -1363 -26 -1755 -6 -125 -6 -125 21 -154 24 -27 30
-28 82 -22 103 11 475 27 621 27 80 -1 309 1 510 3 329 4 679 6 800 6 40 -1
577 -2 1115 -2 277 -1 785 11 795 17 5 3 20 -1 33 -10 20 -13 33 -14 68 -6 24
6 63 11 85 11 23 0 46 6 52 13 7 8 13 98 16 237 7 286 13 400 31 530 8 58 22
162 32 232 l17 126 35 -6 c20 -3 56 -11 81 -17 l45 -11 -2 -45 c-5 -110 -15
-189 -33 -249 -15 -52 -21 -125 -31 -370 -7 -168 -14 -365 -15 -439 -2 -74 -7
-138 -12 -143 -8 -8 -836 -10 -1687 -2 -376 3 -1594 5 -1862 3 -68 -1 -131 -1
-140 0 -59 2 -330 -16 -342 -23 -7 -5 -50 -14 -95 -22 -44 -7 -112 -18 -150
-25 l-69 -12 -24 29 c-24 28 -58 66 -83 91 -82 83 -90 96 -90 139 0 23 4 45 8
48 11 7 23 182 27 401 12 552 26 1113 30 1131 3 11 5 192 6 402 l2 381 41 10
c68 15 84 13 101 -13z m2173 -48 c22 -59 19 -68 -25 -68 -8 0 -29 -6 -46 -14
-18 -7 -59 -24 -92 -37 -67 -26 -256 -121 -296 -149 -32 -23 -177 -90 -194
-90 -8 0 -23 16 -36 36 -22 36 -22 36 -2 62 11 15 39 37 62 49 24 11 48 26 54
32 6 6 20 11 31 11 11 0 27 6 35 14 17 15 215 117 341 176 76 35 130 51 141
41 4 -3 16 -31 27 -63z m7415 49 l147 -12 20 -30 c11 -16 20 -44 20 -61 0 -35
-54 -124 -76 -124 -21 0 -17 -24 7 -46 12 -10 36 -42 55 -70 29 -43 34 -60 34
-108 0 -70 -16 -103 -75 -153 -49 -42 -52 -61 -12 -82 91 -49 88 -260 -6 -320
-20 -13 -37 -32 -37 -42 0 -10 20 -34 44 -54 37 -30 45 -43 48 -78 9 -78 -35
-167 -103 -210 -16 -11 -29 -24 -29 -30 0 -7 26 -35 57 -63 l58 -52 -1 -64
c-1 -71 -16 -108 -43 -108 -10 0 -25 -7 -32 -16 -11 -14 -9 -21 21 -48 57 -52
70 -79 70 -144 0 -69 -22 -106 -70 -115 -40 -8 -38 -24 9 -67 32 -30 39 -43
45 -91 7 -56 -3 -101 -25 -115 -38 -23 -116 4 -199 70 -52 41 -56 48 -71 112
-13 56 -19 69 -35 69 -14 0 -20 -9 -25 -35 -15 -89 -84 -167 -157 -177 -31 -4
-48 1 -89 26 -41 25 -55 42 -77 90 -14 32 -26 66 -26 75 0 32 -26 15 -47 -31
-38 -82 -61 -112 -102 -133 -22 -11 -54 -20 -70 -20 -37 0 -84 38 -105 87 -23
51 -39 79 -62 104 -17 19 -19 19 -31 3 -7 -10 -13 -28 -13 -41 0 -13 -19 -47
-42 -77 -41 -54 -42 -54 -110 -60 -63 -7 -70 -5 -103 20 -19 14 -35 35 -35 45
0 11 -12 42 -26 69 -21 41 -29 48 -40 39 -8 -6 -14 -21 -14 -33 0 -33 -56
-113 -102 -147 -34 -24 -50 -29 -73 -25 -36 7 -97 73 -115 125 -33 92 -25 88
-75 38 -25 -25 -45 -50 -45 -56 0 -6 -17 -28 -37 -51 -31 -33 -44 -40 -75 -40
-62 0 -112 32 -142 89 -14 28 -26 62 -26 76 0 18 -5 25 -19 25 -14 0 -24 -13
-35 -48 -26 -77 -85 -122 -160 -122 -58 0 -95 12 -121 37 -33 34 -75 110 -75
138 0 12 -6 28 -14 34 -12 10 -17 8 -25 -8 -6 -11 -11 -31 -11 -46 0 -16 -11
-36 -30 -53 -16 -15 -34 -41 -40 -57 -7 -22 -24 -36 -59 -53 -83 -38 -113 -28
-185 56 -44 51 -48 59 -60 115 -9 39 -36 31 -50 -13 -12 -40 -36 -77 -79 -123
-27 -28 -31 -29 -93 -24 -50 4 -71 10 -90 28 -13 12 -24 27 -24 33 0 15 -49
86 -58 86 -5 0 -18 -32 -31 -70 -19 -61 -29 -76 -73 -110 -27 -22 -60 -40 -71
-41 -47 -2 -83 3 -102 15 -24 16 -66 97 -67 128 -1 94 -27 88 -77 -17 -55
-117 -108 -147 -194 -111 -39 16 -117 101 -117 127 0 35 -32 99 -49 99 -16 0
-91 -125 -91 -152 0 -16 -67 -38 -118 -38 -27 0 -50 9 -80 31 -41 30 -42 32
-42 89 0 62 18 116 56 165 13 18 24 37 24 42 0 6 9 13 20 16 11 3 20 12 20 21
0 9 9 29 20 44 24 33 18 62 -13 62 -11 0 -35 10 -53 22 -29 20 -33 28 -39 89
-11 107 15 179 70 193 30 8 34 41 6 56 -11 5 -42 10 -70 10 -43 0 -51 3 -51
19 0 10 -3 39 -6 64 l-7 46 317 1 c198 0 325 4 337 10 16 9 19 22 19 76 0 35
-6 79 -13 97 -12 28 -11 40 8 99 12 36 29 77 38 91 57 88 335 138 416 76 13
-11 29 -19 35 -19 6 0 33 -19 59 -42 34 -31 53 -59 67 -98 25 -69 25 -106 0
-172 -23 -61 -25 -84 -7 -95 6 -4 104 -9 217 -10 113 -1 219 -3 235 -4 25 -2
1596 12 1677 15 48 2 55 20 23 68 -20 29 -30 60 -33 95 -4 51 -3 55 36 93 35
35 45 40 85 40 59 0 94 -14 135 -53 19 -18 35 -27 40 -21 22 25 32 109 37 324
3 129 8 339 11 465 5 190 8 233 21 248 15 15 40 17 257 16 133 0 307 -6 389
-12z m-6690 -49 c21 -11 18 -27 -23 -113 -38 -79 -75 -181 -84 -226 -3 -21
-18 -53 -31 -74 -55 -81 -68 -155 -27 -155 24 0 81 -56 88 -86 10 -38 -2 -52
-48 -56 -98 -11 -283 -106 -319 -165 -12 -18 -24 -33 -28 -33 -4 0 -15 -13
-24 -30 -20 -32 -51 -40 -61 -14 -3 8 -3 40 0 70 6 49 5 54 -13 54 -34 0 -119
-29 -145 -50 -14 -10 -28 -16 -32 -13 -10 10 -7 51 4 58 6 3 10 15 10 26 0 23
-24 25 -64 4 -30 -16 -66 -20 -66 -7 0 19 35 54 88 88 31 20 68 44 82 54 42
29 193 98 230 105 67 14 89 35 134 130 58 123 109 252 143 363 l28 93 70 -7
c39 -4 78 -11 88 -16z m4101 0 c24 -38 29 -73 12 -90 -11 -12 -54 -17 -193
-22 -412 -15 -573 -57 -573 -151 0 -55 36 -72 176 -82 l70 -4 28 -59 c15 -32
26 -66 24 -77 -4 -25 -62 -30 -263 -22 -88 3 -232 9 -320 12 -88 3 -173 10
-190 15 -30 9 -30 9 -28 78 1 38 5 79 8 91 8 34 65 53 154 53 47 0 82 5 89 12
7 7 12 32 12 56 0 36 5 49 31 73 17 16 35 29 40 29 6 0 22 9 37 20 37 27 151
46 371 60 101 7 205 16 230 20 25 4 97 8 158 9 106 1 113 0 127 -21z m-1317
-15 c5 -16 8 -98 8 -183 -1 -136 -4 -169 -29 -265 -15 -61 -47 -150 -72 -201
-24 -49 -44 -95 -44 -101 0 -6 -7 -16 -16 -24 -8 -7 -31 -36 -50 -65 -45 -67
-123 -139 -204 -188 -74 -43 -101 -44 -113 -1 -5 17 -13 38 -18 47 -15 30 -10
45 21 58 53 22 184 162 221 235 18 37 39 70 46 72 16 6 53 70 53 92 0 10 9 26
19 35 22 20 26 39 47 191 9 65 13 148 10 202 -5 98 -2 107 44 116 59 10 69 8
77 -20z m4295 15 c13 -7 36 -23 51 -35 l28 -22 -6 -213 c-3 -117 -10 -400 -15
-628 -5 -228 -13 -530 -19 -670 -10 -260 -5 -536 10 -546 5 -3 9 -17 9 -32 0
-15 12 -54 25 -87 14 -33 25 -70 25 -82 0 -16 -80 -149 -116 -192 -2 -2 -36 4
-76 12 -125 27 -272 37 -608 39 -179 1 -334 1 -345 0 -37 -2 -189 -5 -240 -5
-239 2 -667 0 -885 -2 -560 -7 -2425 -11 -2620 -6 l-205 6 -2 405 c-1 223 -4
446 -7 495 -10 166 -36 384 -54 455 -40 153 -100 323 -147 418 -30 62 -55 121
-55 131 0 29 72 131 92 131 10 0 26 -16 38 -40 11 -21 29 -44 39 -50 11 -5 23
-20 26 -32 6 -22 70 -176 86 -208 8 -17 48 -125 80 -215 49 -141 60 -302 61
-868 0 -433 2 -468 18 -477 16 -9 2178 3 2645 14 110 3 324 5 475 4 151 -1
293 -1 315 0 22 1 285 4 585 5 300 2 568 7 597 11 63 9 77 24 69 71 -11 55 -7
640 5 820 6 88 12 288 15 445 2 157 8 337 14 400 5 63 7 205 4 314 -2 110 -2
207 1 217 5 16 21 25 51 28 7 0 22 -5 36 -11z m-8577 -39 c19 -17 35 -35 35
-40 0 -15 -221 -108 -296 -124 -16 -4 -45 -13 -64 -20 -20 -7 -61 -16 -91 -20
l-56 -7 -7 32 c-13 66 -8 87 22 94 75 19 122 28 177 35 67 9 111 24 117 41 3
10 83 37 115 39 7 1 28 -13 48 -30z m4096 9 c3 -53 -13 -73 -64 -84 -29 -7
-43 -21 -33 -32 4 -3 30 -7 59 -8 l52 -2 0 -43 0 -44 -63 -3 c-75 -4 -77 -17
-7 -41 44 -14 50 -20 53 -47 5 -46 -17 -59 -74 -45 -26 7 -49 9 -53 6 -10 -11
39 -45 64 -45 29 0 40 -28 24 -62 -8 -19 -17 -24 -35 -20 -31 6 -45 -25 -19
-44 27 -20 3 -73 -36 -81 -34 -6 -45 -33 -27 -63 11 -18 10 -23 -6 -36 -28
-20 -34 -18 -53 21 -10 21 -24 35 -35 35 -21 0 -23 -18 -4 -43 8 -10 12 -27 9
-37 -3 -12 1 -22 11 -26 20 -8 13 -20 -24 -39 -28 -14 -29 -14 -47 15 -9 17
-23 30 -30 30 -13 0 -18 -32 -7 -43 4 -4 8 -20 9 -37 2 -21 -4 -35 -18 -45
-24 -17 -42 -7 -50 28 -9 43 -56 160 -70 176 -8 9 -20 32 -27 52 l-13 37 64
60 c103 96 145 196 156 375 4 65 8 77 23 77 9 0 29 9 43 20 14 11 33 20 44 20
10 0 41 9 68 19 28 11 65 20 83 20 26 1 32 -3 33 -21z m2126 -31 c37 -30 101
-72 151 -98 12 -7 22 -16 22 -20 0 -5 28 -22 63 -39 34 -17 73 -42 87 -55 14
-12 50 -39 80 -58 30 -19 64 -44 75 -57 19 -21 19 -21 -10 -77 -15 -30 -34
-57 -41 -60 -15 -5 -51 17 -119 72 -27 23 -77 59 -110 81 -33 21 -77 53 -97
69 -20 17 -74 50 -120 75 -95 52 -100 63 -67 139 24 58 42 64 86 28z m-2752
-111 c30 -30 55 -60 55 -67 0 -7 -26 -38 -57 -68 -87 -84 -210 -234 -228 -277
-26 -62 -63 -93 -112 -94 -35 0 -123 32 -123 46 0 3 16 42 37 92 8 18 27 47
42 65 15 18 44 56 65 84 45 63 79 102 167 193 56 57 75 73 97 79 1 1 27 -23
57 -53z m3405 8 c25 -14 90 -41 145 -59 55 -18 114 -40 130 -49 17 -9 36 -16
43 -16 8 0 46 -9 85 -20 40 -11 97 -24 128 -30 l57 -11 5 -52 c2 -28 2 -57 0
-64 -8 -21 -98 -16 -143 7 -22 11 -49 20 -62 20 -29 0 -182 46 -234 71 -23 10
-48 19 -57 19 -9 0 -40 13 -69 28 -29 15 -73 34 -97 42 -23 8 -50 24 -58 37
-14 22 -14 26 11 63 31 48 53 50 116 14z m-1570 -57 c0 -33 7 -67 20 -92 11
-22 20 -44 20 -51 0 -6 13 -40 29 -75 42 -91 168 -216 271 -269 47 -24 110
-68 122 -85 16 -22 -11 -24 -78 -7 -39 10 -83 25 -97 35 -14 9 -33 14 -42 10
-18 -6 -17 -25 6 -80 12 -29 11 -35 -4 -50 -16 -16 -19 -15 -50 15 -18 18 -36
32 -40 32 -4 0 -20 8 -35 19 -90 61 -140 81 -210 81 -50 0 -62 18 -38 56 18
26 22 28 69 38 32 8 34 15 6 47 -23 27 -109 201 -109 222 0 7 -4 17 -9 23 -5
5 -16 34 -25 64 -8 30 -18 65 -21 77 -7 23 6 27 120 36 104 9 95 13 95 -46z
m-4655 21 c118 -23 190 -30 360 -34 99 -3 184 -9 189 -14 15 -15 -35 -130 -59
-136 -11 -2 -63 0 -115 6 -52 6 -156 17 -230 25 -74 8 -154 19 -177 25 -24 5
-60 14 -80 19 -75 19 -97 27 -107 45 -9 13 -7 20 9 29 48 29 122 55 140 51 11
-3 43 -10 70 -16z m-668 -38 c13 -19 34 -47 47 -61 13 -15 33 -52 45 -83 11
-31 28 -67 36 -79 20 -30 36 -152 26 -202 -10 -52 -21 -72 -68 -118 -47 -45
-122 -62 -206 -46 -72 13 -95 32 -128 105 -38 83 -37 128 2 206 32 63 53 87
102 114 25 14 31 14 51 0 13 -8 29 -28 36 -46 12 -30 11 -32 -29 -69 -53 -49
-57 -97 -12 -141 33 -34 61 -31 91 8 51 64 -3 238 -111 357 -9 11 -20 32 -24
47 -9 34 15 49 75 45 38 -2 47 -7 67 -37z m2750 -36 c7 -27 13 -61 13 -75 0
-35 84 -197 123 -237 52 -54 129 -108 172 -120 65 -19 140 -29 161 -22 10 4
47 10 81 14 62 7 62 7 78 -23 8 -17 15 -37 15 -45 0 -9 13 -44 29 -78 55 -121
49 -178 -19 -181 -27 -2 -35 2 -38 18 -7 41 -25 75 -39 75 -12 0 -14 -7 -9
-27 15 -60 13 -65 -32 -82 -51 -18 -62 -10 -62 52 0 26 -4 37 -15 37 -11 0
-15 -11 -15 -38 0 -31 -5 -39 -27 -49 -16 -7 -37 -10 -48 -7 -26 7 -46 51 -38
83 5 19 2 22 -13 19 -13 -2 -20 -13 -22 -36 -4 -45 -40 -62 -77 -38 -21 14
-23 20 -15 36 6 10 15 22 20 25 15 9 12 35 -5 35 -8 0 -22 -8 -32 -18 -38 -38
-72 -53 -93 -42 -24 13 -25 29 -5 56 17 22 20 64 5 64 -6 0 -14 -10 -19 -22
-13 -34 -47 -61 -68 -54 -19 7 -73 51 -73 61 0 3 18 23 40 44 36 34 53 71 32
71 -4 0 -30 -20 -57 -44 l-50 -44 -38 31 -38 30 48 45 c67 62 31 67 -53 7 -20
-15 -23 -13 -49 25 -27 39 -28 41 -9 55 10 9 31 22 47 30 15 9 27 20 27 25 0
16 -28 12 -70 -10 -22 -11 -42 -20 -44 -20 -7 0 -36 56 -36 70 0 5 6 10 13 10
16 0 81 40 74 46 -2 3 -26 0 -51 -7 -57 -14 -70 -5 -61 43 5 27 15 39 41 52
34 16 53 41 40 53 -3 4 -23 -3 -44 -15 -45 -25 -72 -21 -90 16 -19 42 -15 61
16 67 15 3 43 10 62 15 19 5 49 12 65 15 57 11 100 23 160 43 33 11 64 20 70
18 5 -1 15 -25 22 -52z m3509 -50 c32 -14 73 -39 91 -55 37 -32 38 -32 -52
-43 -75 -10 -150 -24 -183 -34 -18 -6 -39 -9 -47 -6 -8 3 -85 -2 -172 -11
-178 -20 -418 -22 -439 -5 -19 16 -47 96 -41 115 5 13 34 15 189 15 100 0 207
5 237 10 31 6 124 16 206 24 83 7 151 14 151 15 1 0 28 -11 60 -25z m-3967
-71 c12 -32 30 -76 40 -98 10 -22 24 -60 30 -83 21 -77 136 -229 243 -323 135
-118 160 -134 244 -153 43 -10 104 -25 134 -33 30 -9 78 -17 105 -19 28 -2 68
-8 90 -14 46 -11 138 -3 175 15 14 7 49 16 78 20 l52 7 0 -40 c0 -34 -4 -41
-29 -52 -16 -6 -66 -11 -112 -10 -46 0 -99 -2 -117 -6 -20 -4 -43 -2 -57 6
-16 9 -28 9 -42 1 -11 -5 -23 -8 -25 -5 -3 2 -48 12 -99 20 -217 36 -262 48
-317 91 -20 15 -62 41 -93 58 -57 31 -149 108 -149 125 0 5 -20 31 -45 57 -54
56 -94 124 -141 241 -19 47 -41 93 -48 102 -8 8 -16 33 -19 55 -3 22 -7 49 -9
59 -2 14 4 22 22 27 57 16 65 12 89 -48z m4606 21 l65 -26 -21 -27 c-31 -41
-69 -101 -69 -111 0 -5 -10 -21 -23 -37 -51 -62 -79 -125 -81 -177 -1 -51 -1
-51 31 -54 27 -3 35 1 45 22 8 20 8 32 0 51 -10 22 -8 33 13 73 13 26 35 60
48 75 l24 29 28 -54 c25 -45 29 -65 29 -133 1 -65 -3 -89 -23 -126 -24 -47
-38 -58 -100 -78 -53 -17 -94 -13 -154 14 -46 21 -58 32 -68 62 -27 84 10 258
75 351 18 26 43 67 55 92 21 41 49 80 57 80 2 0 33 -12 69 -26z m-5991 -40
c13 -5 12 -12 -10 -52 -13 -26 -36 -63 -49 -82 -13 -19 -36 -52 -51 -73 -24
-36 -122 -109 -162 -121 -11 -4 -27 -15 -37 -26 -10 -11 -24 -20 -31 -20 -18
0 -81 -36 -123 -71 -20 -16 -40 -29 -45 -29 -5 0 -6 18 -2 39 3 22 3 42 -2 44
-16 11 -94 -12 -117 -33 -23 -22 -45 -20 -45 3 0 26 93 135 140 166 52 34 87
48 155 61 43 9 96 26 134 44 13 6 39 34 57 61 67 101 60 95 119 95 29 0 60 -3
69 -6z m5100 -135 c14 -17 26 -34 26 -39 0 -17 77 -52 140 -64 98 -19 190 -73
190 -113 0 -15 -12 -15 -52 2 -13 5 -17 0 -20 -27 -4 -45 -36 -49 -86 -10 -67
53 -89 60 -179 54 -57 -3 -83 -1 -83 7 0 6 11 13 25 17 14 3 25 10 25 15 0 10
-70 59 -84 59 -5 0 -38 15 -73 32 -55 28 -85 60 -70 74 4 5 133 21 184 23 24
1 38 -6 57 -30z m3050 -1247 c27 -16 51 -53 75 -115 7 -17 34 -42 73 -66 88
-55 131 -87 205 -156 67 -62 95 -105 108 -165 10 -46 32 -70 66 -70 36 0 173
-58 232 -98 25 -18 49 -32 53 -32 4 0 28 -18 53 -41 25 -22 50 -43 54 -47 32
-27 157 -169 157 -178 0 -19 -167 -5 -212 17 -21 11 -44 19 -52 19 -8 0 -33
16 -56 35 -44 37 -59 42 -77 24 -5 -5 -33 -16 -61 -24 -44 -11 -59 -11 -101 2
-53 15 -64 25 -90 76 -21 42 -42 44 -83 9 -38 -34 -90 -62 -113 -62 -9 0 -38
-9 -65 -21 -45 -19 -57 -20 -137 -11 -94 11 -108 6 -93 -32 39 -101 45 -135
46 -279 1 -127 3 -150 19 -167 10 -11 23 -20 29 -20 6 0 39 -14 73 -32 66 -34
73 -45 73 -116 0 -23 6 -61 13 -84 11 -40 23 -53 110 -130 35 -30 39 -39 44
-93 3 -33 0 -73 -6 -88 -13 -32 -19 -30 -97 29 -26 20 -70 48 -98 62 -28 14
-82 42 -119 64 -37 22 -92 48 -123 58 -67 23 -188 128 -205 177 -13 41 -44 63
-88 63 -49 0 -169 40 -202 67 -17 15 -55 110 -61 153 -3 22 -9 26 -58 33 -129
19 -166 40 -205 118 -41 80 -34 120 32 184 27 26 45 35 69 35 29 0 36 -5 54
-39 25 -50 35 -56 71 -41 29 12 32 11 92 -47 34 -32 78 -65 97 -72 92 -33 96
-37 110 -88 21 -80 33 -93 88 -93 55 0 63 8 82 89 9 37 11 91 7 168 -5 102 -4
115 13 131 10 9 23 28 28 42 5 14 31 54 57 89 l48 63 41 -8 c65 -13 146 -9
209 10 54 17 60 21 84 70 31 64 27 104 -18 166 -38 52 -86 74 -148 65 -45 -6
-47 -5 -103 49 -31 30 -66 57 -78 61 -15 5 -19 12 -14 23 16 40 15 60 -3 73
-27 20 -63 82 -63 111 0 13 -5 29 -12 36 -9 9 -6 17 11 36 36 39 105 42 165 8z
m-10892 -169 c47 -54 40 -109 -15 -120 -16 -3 -31 -12 -34 -20 -6 -16 34 -63
53 -63 6 0 15 -7 18 -16 7 -19 -5 -30 -79 -73 -91 -54 -215 -209 -215 -270 0
-10 -9 -38 -19 -61 l-19 -42 26 -50 c37 -71 70 -91 152 -92 37 -1 78 4 91 10
13 7 44 20 68 30 25 10 62 33 84 51 21 18 44 33 51 33 7 0 29 -17 50 -39 l37
-38 -13 -54 c-13 -52 -12 -58 17 -154 36 -115 54 -151 108 -215 47 -55 90 -79
140 -80 55 0 73 13 92 71 14 42 15 58 5 97 -6 26 -16 65 -21 87 -5 22 -15 51
-22 63 -9 20 -8 30 9 60 21 35 22 36 84 35 60 -1 64 1 100 38 42 44 68 49 97
17 46 -51 54 -116 19 -150 -7 -7 -32 -30 -55 -51 l-41 -38 0 -99 c0 -89 -2
-101 -24 -127 -12 -15 -28 -37 -34 -48 -18 -36 -92 -65 -162 -65 -68 0 -100
-17 -100 -52 0 -58 -106 -194 -184 -236 -32 -17 -57 -39 -66 -58 -8 -17 -31
-38 -50 -48 -20 -9 -52 -32 -72 -51 -35 -33 -36 -34 -53 -15 -27 30 -17 126
19 180 23 36 26 46 17 66 -6 13 -15 24 -21 24 -5 0 -10 18 -10 40 0 33 7 46
42 80 44 41 49 44 109 54 70 12 67 42 -12 139 -50 62 -79 142 -79 223 0 75
-20 90 -97 73 -32 -7 -107 -13 -168 -13 -101 0 -114 3 -163 28 -59 32 -107 31
-152 -2 -27 -21 -38 -58 -21 -75 30 -30 -12 -184 -57 -208 -18 -10 -30 -10
-56 -1 -48 18 -52 16 -107 -36 -79 -74 -133 -101 -206 -102 -34 0 -64 4 -68 9
-3 5 8 19 24 31 30 21 100 152 153 286 42 106 165 252 243 288 22 11 45 26 51
35 6 8 15 53 18 100 6 73 13 99 48 171 59 122 85 146 205 186 70 24 76 31 69
82 -7 52 9 125 34 147 18 17 92 42 126 44 11 1 28 -7 36 -16z m10778 -146 c84
-53 160 -121 170 -153 6 -18 18 -38 26 -45 19 -15 54 -96 54 -123 0 -33 -19
-46 -67 -46 -58 0 -87 16 -102 56 -7 19 -34 56 -60 83 -50 52 -91 69 -184 80
l-49 6 -19 58 c-21 63 -18 93 9 100 9 3 55 5 102 6 72 1 90 -3 120 -22z
m-10592 -146 c5 -68 -3 -88 -43 -101 -55 -18 -149 -112 -185 -182 -16 -34 -30
-66 -30 -73 0 -20 -39 -93 -52 -97 -7 -3 -33 0 -59 5 -62 12 -77 42 -59 119
21 91 56 138 203 272 21 19 55 40 75 47 21 6 42 17 47 23 18 22 49 36 75 33
22 -2 25 -7 28 -46z m10559 -95 c73 -52 83 -89 34 -128 -16 -13 -40 -46 -55
-75 -14 -28 -30 -55 -36 -58 -6 -4 -22 -24 -36 -46 -18 -30 -31 -39 -51 -39
-61 0 -183 64 -183 96 0 8 23 42 50 75 28 33 57 74 66 92 9 18 33 54 53 80 33
45 39 48 72 44 20 -3 58 -21 86 -41z m-10467 -125 c94 -95 115 -129 99 -165
-6 -13 -27 -32 -46 -43 l-34 -18 -84 88 c-46 48 -88 87 -94 87 -6 0 -17 13
-25 29 -14 26 -14 30 7 48 23 21 76 52 90 53 5 0 44 -36 87 -79z m10009 -57
c38 -15 83 -61 125 -127 19 -32 85 -63 163 -79 56 -11 58 -13 68 -89 8 -56
-12 -84 -54 -75 -14 3 -46 9 -71 14 -102 20 -230 103 -262 171 -49 103 -60
173 -30 190 22 13 15 14 61 -5z m-9666 -96 c-3 -18 -14 -50 -24 -70 -11 -21
-19 -43 -19 -51 0 -7 -15 -27 -32 -44 -18 -17 -43 -44 -55 -61 -19 -25 -149
-112 -167 -112 -12 0 -26 50 -31 111 -6 59 -5 61 28 92 19 18 49 43 66 55 17
13 38 39 46 58 14 35 27 41 100 47 100 9 95 10 88 -25z m10609 -108 c9 -19 25
-54 34 -77 19 -48 19 -48 -79 -154 -29 -30 -56 -63 -62 -72 -9 -16 -15 -16
-75 -2 -36 8 -75 17 -86 20 -24 5 -48 74 -42 116 3 23 7 24 75 24 39 0 77 5
83 11 12 12 -9 73 -34 93 -25 21 -2 51 37 51 18 1 46 7 62 15 45 21 68 14 87
-25z m86 -191 c6 -16 -1 -30 -35 -64 -24 -24 -43 -51 -43 -59 0 -8 -10 -20
-21 -27 -17 -9 -24 -8 -36 4 -21 21 -2 53 41 71 23 9 36 23 40 42 14 53 41 70
54 33z m140 -172 c32 -43 70 -96 86 -117 30 -40 29 -64 -2 -42 -9 7 -33 19
-52 28 -51 23 -114 51 -163 74 -24 11 -49 20 -55 20 -18 0 -14 15 8 35 11 10
20 22 20 26 0 5 12 28 27 53 l27 45 24 -22 c13 -12 49 -57 80 -100z m-11638
96 c26 -7 35 -14 33 -29 -9 -100 -10 -99 20 -102 29 -4 84 24 129 66 40 37 58
18 58 -62 l0 -61 -71 -52 c-99 -74 -103 -73 -190 7 -35 32 -67 59 -71 60 -3 0
-20 12 -37 26 -29 24 -31 31 -31 88 0 35 3 66 7 70 9 9 104 2 153 -11z m-120
-239 c0 -18 -14 -18 -30 1 -7 8 -18 15 -26 15 -19 0 -29 21 -13 30 16 10 69
-25 69 -46z m-42 -58 c91 -67 102 -78 102 -97 0 -11 -16 -29 -37 -43 -21 -13
-49 -35 -62 -50 -14 -14 -31 -26 -39 -26 -8 0 -40 -21 -70 -47 -35 -30 -53
-41 -48 -28 5 11 10 29 11 41 1 11 4 24 7 30 12 19 57 160 64 199 7 42 12 55
20 55 3 0 26 -15 52 -34z m156 -31 c3 -8 1 -15 -3 -15 -5 0 -11 7 -15 15 -3 8
-1 15 3 15 5 0 11 -7 15 -15z"/>
<path d="M4082 9033 c-7 -3 -19 -18 -28 -35 -14 -27 -14 -32 1 -54 17 -27 51
-31 80 -11 17 13 17 15 0 55 -19 42 -31 52 -53 45z"/>
<path d="M4403 8964 c-3 -9 -1 -19 5 -23 6 -3 10 -15 9 -26 -3 -30 34 -25 52
7 13 22 13 29 2 42 -17 21 -60 21 -68 0z"/>
<path d="M4742 8858 c-22 -22 -14 -58 14 -68 32 -13 54 2 54 36 0 35 -44 56
-68 32z"/>
<path d="M5892 8898 c-19 -9 -22 -18 -20 -47 2 -29 8 -37 26 -39 55 -8 98 63
53 88 -24 12 -29 12 -59 -2z"/>
<path d="M5652 8758 c-21 -21 -14 -57 13 -70 45 -20 75 31 39 66 -19 19 -36
20 -52 4z"/>
<path d="M5763 8500 c-9 -25 -9 -33 4 -46 9 -8 25 -14 37 -12 17 2 21 10 21
43 0 35 -3 40 -25 43 -20 2 -28 -3 -37 -28z"/>
<path d="M6736 8925 c-21 -22 -20 -29 7 -61 19 -21 29 -26 49 -21 33 9 42 32
25 65 -15 32 -57 41 -81 17z"/>
<path d="M7027 8924 c-25 -25 23 -99 59 -92 27 5 40 33 28 65 -7 23 -16 29
-45 31 -19 2 -38 0 -42 -4z"/>
<path d="M7246 8791 c-29 -32 -17 -56 32 -59 36 -3 43 0 53 22 7 14 9 32 6 40
-9 23 -70 21 -91 -3z"/>
<path d="M7192 8598 c-19 -19 -14 -44 14 -62 36 -25 68 -17 72 16 3 21 -3 30
-27 42 -36 19 -43 20 -59 4z"/>
<path d="M8677 8933 c-18 -17 -6 -53 24 -68 46 -24 73 7 53 59 -6 16 -64 23
-77 9z"/>
<path d="M9058 8919 c-38 -22 -8 -89 39 -89 41 0 69 60 41 88 -15 15 -57 15
-80 1z"/>
<path d="M9428 8899 c-10 -5 -18 -18 -18 -28 0 -40 69 -64 100 -36 26 23 25
40 -2 59 -26 18 -55 20 -80 5z"/>
<path d="M9807 8903 c-23 -22 10 -83 44 -83 39 0 54 61 20 80 -22 11 -54 13
-64 3z"/>
<path d="M8390 8875 c0 -18 7 -26 24 -31 44 -11 65 25 27 46 -33 17 -51 12
-51 -15z"/>
<path d="M2667 9032 c-34 -37 -9 -82 45 -82 41 0 58 15 58 52 0 46 -70 66
-103 30z"/>
<path d="M3035 9020 c-18 -20 -18 -24 -4 -48 20 -37 68 -38 86 -2 26 52 -43
94 -82 50z"/>
<path d="M2285 9004 c-15 -24 -15 -27 0 -50 9 -14 22 -27 30 -30 21 -8 54 14
61 40 15 61 -56 93 -91 40z"/>
<path d="M1970 8965 c-9 -11 -9 -22 0 -50 9 -29 16 -35 39 -35 44 0 63 36 45
84 -8 20 -67 21 -84 1z"/>
<path d="M1958 8605 c-8 -19 -8 -31 0 -51 10 -21 18 -25 44 -22 26 2 33 9 40
33 6 25 4 33 -15 47 -31 25 -56 22 -69 -7z"/>
<path d="M2554 8415 c-7 -17 18 -76 40 -94 8 -7 17 -22 20 -35 6 -25 91 -86
118 -86 22 0 48 33 48 63 0 19 -16 40 -65 84 -89 78 -148 103 -161 68z"/>
<path d="M1990 8260 c-22 -22 -24 -37 -10 -74 8 -21 16 -26 44 -26 42 0 56 20
48 70 -8 54 -45 67 -82 30z"/>
<path d="M1977 7922 c-33 -37 -13 -92 33 -92 50 0 78 61 42 93 -24 22 -55 21
-75 -1z"/>
<path d="M10599 8909 c-16 -30 3 -69 34 -69 29 0 47 17 47 45 0 45 -60 63 -81
24z"/>
<path d="M10927 8924 c-18 -19 -6 -54 24 -70 30 -15 33 -15 50 3 16 15 17 22
6 43 -12 25 -64 40 -80 24z"/>
<path d="M11209 8884 c-18 -22 0 -48 36 -52 51 -6 58 34 9 57 -31 14 -29 14
-45 -5z"/>
<path d="M11463 8878 c-27 -13 -29 -30 -7 -63 19 -29 42 -32 60 -7 18 23 17
47 -2 66 -18 18 -21 19 -51 4z"/>
<path d="M11389 8534 c-30 -36 49 -105 85 -74 19 15 21 61 4 78 -17 17 -73 15
-89 -4z"/>
<path d="M10820 8329 c-59 -17 -93 -36 -129 -73 -26 -27 -32 -40 -27 -60 12
-48 100 -47 132 2 9 15 26 33 36 40 21 15 48 64 48 87 0 17 -9 17 -60 4z"/>
<path d="M11377 8162 c-10 -10 -17 -23 -17 -29 0 -15 44 -53 62 -53 24 0 48
28 48 55 0 43 -63 60 -93 27z"/>
<path d="M11365 7870 c-18 -20 -18 -24 -4 -48 17 -31 56 -36 73 -9 8 13 7 24
-4 45 -20 34 -41 38 -65 12z"/>
<path d="M11375 7583 c-19 -19 -14 -68 10 -92 11 -12 19 -12 39 -3 37 17 44
57 15 88 -27 28 -41 30 -64 7z"/>
<path d="M11408 7293 c-24 -6 -33 -41 -18 -68 15 -29 41 -36 72 -21 27 14 27
49 1 78 -16 18 -23 20 -55 11z"/>
<path d="M4130 8048 c-23 -50 -26 -111 -7 -127 8 -6 24 -35 37 -66 25 -60 36
-67 49 -32 5 13 16 29 24 36 41 34 32 159 -15 203 -43 40 -65 36 -88 -14z m90
-83 c9 -24 -4 -85 -19 -85 -4 0 -20 13 -36 30 -26 27 -27 32 -15 55 18 34 57
34 70 0z"/>
<path d="M8851 7930 c-23 -17 -44 -38 -47 -48 -3 -9 -9 -24 -14 -33 -5 -9 -11
-37 -15 -63 -7 -42 -6 -46 14 -46 13 0 26 10 32 24 6 13 30 39 53 58 46 40 82
99 73 122 -10 25 -50 19 -96 -14z m19 -70 c-12 -23 -40 -27 -40 -6 0 13 14 21
43 25 4 0 3 -8 -3 -19z"/>
<path d="M6452 7908 c-18 -18 -15 -56 6 -60 44 -10 71 17 52 53 -12 21 -40 25
-58 7z"/>
<path d="M6193 7839 c-25 -9 -30 -38 -11 -57 17 -17 53 -15 68 3 25 30 -16 70
-57 54z"/>
<path d="M5962 7733 c-23 -9 -33 -40 -20 -67 15 -35 49 -33 76 3 20 27 20 30
4 43 -22 19 -43 26 -60 21z"/>
<path d="M5771 7526 c-21 -25 -9 -51 24 -54 41 -4 74 21 59 45 -14 23 -67 29
-83 9z"/>
<path d="M6936 7734 c-19 -18 -20 -28 -6 -55 13 -24 32 -24 53 -1 22 25 21 49
-2 62 -25 13 -27 13 -45 -6z"/>
<path d="M7020 7519 c-15 -27 3 -49 41 -49 38 0 56 31 30 54 -24 22 -58 20
-71 -5z"/>
<path d="M7063 7314 c-9 -24 10 -68 30 -72 23 -5 47 15 47 39 0 40 -64 67 -77
33z"/>
<path d="M7090 7105 c-16 -19 -10 -45 15 -61 18 -12 24 -11 43 2 29 20 28 48
-3 62 -33 15 -40 15 -55 -3z"/>
<path d="M1946 7434 c-20 -19 -20 -27 -1 -64 18 -34 48 -39 83 -14 27 19 28
48 2 74 -24 24 -63 26 -84 4z"/>
<path d="M1963 7049 c-12 -4 -24 -17 -28 -29 -8 -26 24 -94 48 -98 22 -4 77
50 77 76 0 37 -56 66 -97 51z"/>
<path d="M1935 6607 l-27 -23 22 -37 c26 -44 56 -48 89 -13 26 27 19 52 -21
80 -29 21 -32 20 -63 -7z"/>
<path d="M1922 6204 c-27 -19 -28 -34 -1 -68 25 -32 77 -36 102 -8 24 26 21
37 -14 66 -35 30 -56 32 -87 10z"/>
<path d="M2567 5932 c-13 -15 -15 -25 -8 -44 15 -39 37 -52 72 -42 44 13 62
42 46 74 -17 33 -84 41 -110 12z"/>
<path d="M1918 5829 c-12 -6 -18 -22 -18 -45 0 -29 5 -37 35 -51 30 -14 38
-15 60 -3 32 17 40 43 23 77 -10 22 -21 29 -48 30 -19 2 -43 -2 -52 -8z"/>
<path d="M1906 5428 c-22 -31 -20 -45 10 -73 33 -31 63 -32 93 -4 23 22 23 58
-1 86 -18 22 -85 16 -102 -9z"/>
<path d="M2630 5420 c-27 -27 -25 -46 6 -76 19 -20 31 -24 52 -19 38 9 55 26
42 39 -5 5 -10 22 -10 37 0 19 -6 28 -22 33 -36 9 -47 7 -68 -14z"/>
<path d="M1895 5036 c-15 -22 -15 -27 -1 -54 24 -47 72 -56 106 -22 43 43 13
100 -53 100 -28 0 -40 -6 -52 -24z"/>
<path d="M1918 4718 c-8 -7 -21 -28 -28 -45 -11 -28 -10 -37 4 -58 20 -30 45
-32 80 -4 20 16 26 29 26 60 0 33 -4 41 -26 49 -33 13 -37 13 -56 -2z"/>
<path d="M5650 7166 c-6 -8 -10 -25 -8 -38 2 -18 10 -24 36 -26 38 -4 48 12
33 51 -12 30 -41 36 -61 13z"/>
<path d="M5692 6925 c-14 -30 6 -55 44 -55 30 0 40 23 26 56 -16 33 -55 32
-70 -1z"/>
<path d="M5802 6718 c-18 -18 -14 -46 8 -53 23 -7 60 10 60 28 0 18 -21 37
-40 37 -9 0 -21 -5 -28 -12z"/>
<path d="M6005 6540 c-15 -16 -17 -26 -9 -48 13 -38 57 -42 80 -8 15 24 15 28
0 51 -20 30 -47 32 -71 5z"/>
<path d="M4060 6980 c-29 -4 -36 -10 -38 -32 -6 -49 67 -57 83 -9 10 33 -6 47
-45 41z"/>
<path d="M3920 6775 c0 -18 5 -25 19 -25 33 0 51 11 51 31 0 15 -7 19 -35 19
-31 0 -35 -3 -35 -25z"/>
<path d="M3855 6560 c-14 -44 45 -67 69 -27 9 15 7 21 -8 33 -28 20 -54 17
-61 -6z"/>
<path d="M4037 6552 c-23 -26 -21 -45 8 -72 21 -20 30 -22 53 -14 22 8 28 16
30 48 2 24 -2 42 -10 47 -22 15 -64 10 -81 -9z"/>
<path d="M3773 6338 c-18 -22 -21 -67 -7 -79 22 -18 67 16 58 44 -8 26 -23 47
-34 47 -4 0 -12 -6 -17 -12z"/>
<path d="M4037 6152 c-23 -25 -21 -44 6 -70 28 -27 48 -28 78 -3 20 16 21 22
13 52 -8 29 -14 34 -45 37 -24 2 -40 -3 -52 -16z"/>
<path d="M3621 6106 c-7 -8 -11 -27 -9 -43 4 -34 40 -43 69 -17 24 21 24 36 1
57 -23 21 -46 22 -61 3z"/>
<path d="M3532 5858 c-17 -17 -15 -65 4 -72 44 -17 74 -1 74 39 0 35 -53 58
-78 33z"/>
<path d="M3470 5560 c-8 -15 -7 -27 5 -50 9 -16 20 -30 25 -30 17 0 50 39 50
58 0 42 -61 58 -80 22z"/>
<path d="M3484 5286 c-9 -23 0 -50 17 -54 24 -4 64 32 56 51 -8 21 -65 23 -73
3z"/>
<path d="M3572 5028 c-17 -17 -15 -39 7 -67 13 -17 23 -22 39 -17 25 8 40 52
25 75 -13 20 -54 26 -71 9z"/>
<path d="M3751 4824 c-18 -13 -21 -22 -16 -43 9 -36 24 -51 49 -51 30 0 46 18
46 51 0 29 -23 59 -43 59 -7 0 -23 -7 -36 -16z"/>
<path d="M4434 4786 c-10 -41 -1 -61 29 -64 52 -6 76 38 39 71 -28 25 -60 22
-68 -7z"/>
<path d="M3994 4706 c-3 -8 -2 -28 3 -43 8 -22 16 -28 39 -28 27 0 29 2 29 40
0 38 -2 40 -33 43 -22 2 -34 -2 -38 -12z"/>
<path d="M5144 4596 c-3 -8 -4 -27 -2 -43 2 -23 8 -29 34 -31 37 -4 57 16 52
55 -3 24 -8 28 -41 31 -26 2 -39 -1 -43 -12z"/>
<path d="M4500 4515 c-11 -13 -11 -20 0 -40 24 -45 70 -39 70 9 0 42 -45 62
-70 31z"/>
<path d="M5003 4503 c-9 -16 -30 -43 -47 -61 -45 -48 -29 -54 99 -37 61 8 142
15 181 15 53 0 75 4 85 16 10 13 10 17 -2 25 -19 12 -21 11 -73 -6 -41 -14
-51 -14 -99 0 -37 11 -60 25 -76 45 -27 37 -46 38 -68 3z"/>
<path d="M8866 6864 c-26 -25 -17 -47 28 -64 49 -18 77 28 38 63 -23 21 -46
22 -66 1z"/>
<path d="M8972 6538 c-33 -33 6 -96 52 -84 32 8 41 39 20 71 -17 27 -52 33
-72 13z"/>
<path d="M8803 6269 c-46 -17 -42 -93 6 -122 36 -21 57 -14 70 24 20 59 -25
117 -76 98z"/>
<path d="M9073 6263 c-20 -8 -15 -58 7 -78 26 -24 73 -10 78 22 7 49 -35 77
-85 56z"/>
<path d="M9213 5968 c-13 -6 -23 -15 -23 -20 0 -17 29 -66 42 -70 25 -10 56
10 63 42 12 53 -26 75 -82 48z"/>
<path d="M8780 5924 c-33 -39 -4 -103 46 -104 24 0 64 39 64 63 0 45 -82 76
-110 41z"/>
<path d="M9351 5638 c-21 -56 44 -93 84 -48 17 18 17 21 1 45 -22 34 -73 35
-85 3z"/>
<path d="M9406 5335 c-13 -14 -13 -18 2 -45 19 -33 35 -42 56 -34 18 7 27 54
15 76 -12 22 -52 23 -73 3z"/>
<path d="M9396 5001 c-13 -14 -14 -24 -7 -45 15 -37 67 -37 81 0 13 32 13 30
-6 48 -21 21 -47 20 -68 -3z"/>
<path d="M9276 4724 c-32 -31 -14 -84 29 -84 27 0 45 18 45 46 0 25 -24 54
-45 54 -7 0 -21 -7 -29 -16z"/>
<path d="M8932 4638 c-30 -30 7 -105 45 -91 31 11 43 25 43 48 0 42 -59 72
-88 43z"/>
<path d="M7775 4460 l-29 -30 29 -30 c32 -34 55 -37 90 -14 33 22 31 47 -6 78
-39 33 -49 33 -84 -4z"/>
<path d="M7366 4455 c-45 -69 12 -133 79 -89 38 25 34 69 -7 94 -43 26 -52 25
-72 -5z"/>
<path d="M7032 4334 c-12 -8 -22 -21 -22 -29 0 -14 55 -65 70 -65 18 0 40 33
40 59 0 49 -43 67 -88 35z"/>
<path d="M8252 4328 c-18 -18 -14 -34 13 -52 33 -22 43 -20 57 10 11 22 10 28
-7 40 -23 17 -47 18 -63 2z"/>
<path d="M6870 6561 c-15 -30 4 -71 33 -71 27 0 57 28 57 53 0 36 -72 50 -90
18z"/>
<path d="M6652 6458 c-17 -17 -15 -54 4 -72 20 -21 30 -20 54 4 34 34 20 80
-25 80 -12 0 -26 -5 -33 -12z"/>
<path d="M11375 6603 c-31 -74 19 -112 69 -52 38 45 22 88 -31 89 -17 0 -27
-10 -38 -37z"/>
<path d="M11366 6277 c-17 -13 -18 -18 -7 -45 15 -36 41 -48 70 -32 30 16 43
44 28 63 -17 24 -68 31 -91 14z"/>
<path d="M11346 5911 c-24 -26 -17 -59 16 -79 22 -13 31 -14 52 -4 21 9 26 19
26 46 0 54 -58 76 -94 37z"/>
<path d="M11348 5559 c-21 -12 -24 -59 -6 -77 18 -18 63 -14 81 6 23 25 21 48
-5 66 -26 18 -46 20 -70 5z"/>
<path d="M10638 5509 c-28 -16 -21 -52 15 -87 18 -18 36 -32 40 -32 5 0 15 16
23 35 13 31 13 39 -1 65 -16 32 -44 38 -77 19z"/>
<path d="M11350 5200 c-25 -25 -26 -52 -2 -73 22 -20 53 -22 70 -5 20 20 15
76 -7 88 -28 14 -38 13 -61 -10z"/>
<path d="M10598 5059 c-24 -13 -23 -50 2 -77 25 -27 42 -28 63 -4 46 51 -7
115 -65 81z"/>
<path d="M11332 4838 c-26 -26 2 -88 39 -88 24 0 59 34 59 58 0 33 -73 55 -98
30z"/>
<path d="M11348 4509 c-27 -16 -23 -65 7 -85 23 -15 27 -15 50 0 30 20 32 49
5 76 -22 22 -37 24 -62 9z"/>
<path d="M4529 5683 c-46 -15 -46 -15 -57 -76 -12 -73 -6 -124 18 -152 10 -11
25 -34 34 -52 18 -35 28 -43 131 -109 69 -44 109 -61 195 -84 25 -7 54 -17 65
-22 10 -6 58 -13 105 -15 70 -4 94 -2 138 16 29 12 59 21 67 21 20 0 91 52
117 85 49 63 39 147 -29 231 -29 36 -40 42 -83 48 -70 9 -90 -3 -90 -58 0 -48
22 -76 58 -76 29 0 28 14 -4 34 -38 26 -30 60 17 64 31 3 41 -2 72 -37 45 -49
76 -151 46 -151 -5 0 -15 -13 -20 -29 -10 -30 -34 -43 -137 -78 l-53 -18 -18
24 -18 23 -20 -25 -20 -26 -39 20 c-31 16 -43 17 -60 8 -29 -15 -58 -8 -62 16
-6 33 -20 40 -42 20 -17 -15 -24 -16 -45 -7 -14 6 -25 18 -25 25 0 7 -6 22
-14 32 -14 19 -15 19 -35 1 -25 -23 -45 -16 -63 21 -10 22 -21 29 -50 31 -32
3 -39 9 -62 52 -21 40 -26 63 -26 124 0 80 2 84 57 96 28 7 38 4 53 -13 36
-38 22 -70 -29 -71 -34 -1 -38 -24 -6 -36 63 -24 95 -2 95 65 0 36 -5 48 -31
69 -35 29 -64 32 -130 9z"/>
<path d="M7588 5517 c-21 -11 -38 -26 -38 -33 0 -6 -7 -17 -15 -24 -12 -10
-15 -31 -13 -99 3 -85 3 -85 38 -108 19 -13 46 -34 60 -47 99 -91 366 -134
570 -91 71 15 91 24 123 54 21 20 48 52 60 71 11 19 24 37 29 40 4 3 6 38 5
77 -2 62 -6 76 -28 100 -15 15 -32 38 -38 51 -10 19 -20 22 -70 22 -64 0 -75
-7 -85 -56 -11 -49 47 -109 70 -73 4 7 -3 19 -15 29 -15 11 -22 25 -19 41 2
20 10 25 39 27 34 3 39 -1 66 -41 35 -51 49 -130 27 -148 -8 -6 -14 -22 -14
-35 0 -27 -16 -39 -47 -35 -25 3 -31 -17 -12 -36 8 -8 3 -15 -19 -27 -44 -23
-50 -21 -68 22 l-16 37 -14 -46 c-12 -42 -18 -47 -49 -53 -43 -8 -55 -2 -55
30 0 34 -26 30 -39 -7 -9 -27 -14 -30 -48 -27 -38 3 -38 3 -43 53 -4 36 -9 50
-20 50 -11 0 -16 -13 -18 -45 -4 -53 -12 -64 -41 -55 -13 4 -23 18 -27 41 -6
33 -34 49 -34 20 0 -14 -21 -26 -45 -26 -24 0 -45 31 -45 66 0 37 -23 47 -44
19 -10 -13 -15 -12 -44 7 -28 17 -32 25 -27 48 5 22 2 28 -14 33 -31 8 -28 69
5 113 28 36 45 41 90 24 25 -10 26 -12 10 -29 -9 -9 -16 -23 -16 -29 0 -22 37
-12 54 13 24 36 11 72 -31 90 -44 19 -49 18 -95 -8z"/>
<path d="M5640 5257 c0 -22 88 -88 148 -111 51 -20 57 -25 60 -54 4 -34 32
-46 32 -13 0 24 18 38 55 43 17 1 30 8 30 13 0 6 -13 11 -30 13 -56 5 -120 25
-151 49 -17 13 -35 23 -41 23 -5 0 -24 11 -43 25 -37 27 -60 32 -60 12z"/>
<path d="M7035 5130 c-24 -18 -53 -29 -72 -30 -40 0 -45 -25 -8 -42 14 -6 25
-19 25 -30 0 -10 7 -18 15 -18 8 0 15 5 15 10 0 6 23 33 50 62 28 29 49 57 47
63 -7 19 -32 14 -72 -15z"/>
<path d="M1932 3988 c-29 -29 1 -88 45 -88 23 0 53 29 53 52 0 37 -70 64 -98
36z"/>
<path d="M1910 3595 c-31 -37 -7 -88 48 -102 47 -11 85 70 50 105 -17 17 -83
15 -98 -3z"/>
<path d="M1951 3194 c-47 -59 -1 -142 69 -124 18 4 27 15 34 43 11 44 -4 79
-41 96 -34 16 -39 14 -62 -15z"/>
<path d="M4905 3078 c-66 -42 -75 -51 -75 -74 0 -13 -4 -24 -9 -24 -14 0 -41
-59 -41 -88 0 -13 6 -38 14 -55 8 -18 16 -41 18 -52 3 -19 12 -20 180 -23
l176 -2 21 33 c17 28 21 50 21 122 0 78 -2 87 -20 92 -10 3 -22 14 -25 24 -11
33 -64 52 -155 56 -56 2 -92 -1 -105 -9z m202 -104 c29 -33 34 -44 31 -84 -3
-38 -6 -45 -25 -48 -21 -3 -23 1 -23 35 0 50 -14 63 -65 63 -43 0 -69 -19 -94
-67 -8 -16 -21 -23 -41 -23 -27 0 -30 3 -30 34 0 41 18 95 39 120 14 16 27 18
95 14 78 -5 81 -6 113 -44z"/>
<path d="M2722 2973 c-18 -9 -38 -25 -44 -37 -6 -12 -24 -36 -40 -55 -44 -50
-75 -118 -60 -133 15 -15 123 31 163 70 16 15 40 37 54 49 43 38 27 123 -23
123 -9 0 -32 -8 -50 -17z"/>
<path d="M1944 2760 c-41 -16 -39 -54 5 -94 18 -16 24 -17 50 -6 17 7 35 18
42 26 17 20 3 59 -26 72 -30 14 -42 14 -71 2z"/>
<path d="M5675 2560 c-24 -27 -11 -70 28 -88 40 -19 65 -2 64 45 0 21 -5 44
-10 51 -15 19 -62 14 -82 -8z"/>
<path d="M1899 2419 c-23 -43 8 -109 51 -109 19 0 60 48 60 70 0 52 -87 83
-111 39z"/>
<path d="M5640 2271 c-13 -25 5 -68 31 -76 29 -10 59 12 59 43 0 16 -5 33 -12
40 -19 19 -66 15 -78 -7z"/>
<path d="M1902 2094 c-28 -19 -29 -57 -2 -84 23 -23 50 -26 68 -8 16 16 15 39
-4 76 -17 36 -30 39 -62 16z"/>
<path d="M4975 1975 c-44 -43 -22 -105 37 -105 29 0 68 38 68 67 0 23 -43 63
-67 63 -8 0 -25 -11 -38 -25z m49 -34 c3 -4 3 -11 0 -14 -8 -8 -34 3 -34 14 0
11 27 12 34 0z"/>
<path d="M5336 1967 c-31 -41 -32 -51 -6 -77 26 -26 56 -26 70 1 10 17 8 21
-9 26 -25 6 -25 11 -6 37 11 14 12 23 4 33 -17 20 -25 16 -53 -20z"/>
<path d="M4616 1971 c-21 -23 -18 -70 6 -85 22 -14 101 12 106 35 1 8 -7 27
-18 42 -26 32 -69 36 -94 8z"/>
<path d="M4245 1945 c-45 -44 -27 -85 35 -85 44 0 60 15 60 55 0 58 -51 74
-95 30z"/>
<path d="M3078 1949 c-20 -11 -23 -41 -8 -70 13 -24 65 -26 74 -3 23 60 -16
103 -66 73z"/>
<path d="M3492 1944 c-30 -21 -26 -61 9 -86 24 -19 28 -19 56 -4 41 21 48 52
18 82 -28 28 -52 30 -83 8z"/>
<path d="M3873 1950 c-24 -10 -30 -43 -15 -68 12 -19 79 -27 97 -12 21 17 19
31 -10 63 -27 29 -37 31 -72 17z"/>
<path d="M5715 1932 c-47 -10 -71 -62 -43 -90 16 -16 70 -15 92 1 25 18 18 77
-9 87 -11 3 -29 4 -40 2z m15 -42 c0 -5 -2 -10 -4 -10 -3 0 -8 5 -11 10 -3 6
-1 10 4 10 6 0 11 -4 11 -10z"/>
<path d="M2686 1914 c-37 -36 -2 -88 56 -82 27 2 34 7 36 30 6 51 -57 87 -92
52z"/>
<path d="M2336 1894 c-20 -19 -21 -58 -2 -73 25 -21 69 -9 80 21 17 50 -42 89
-78 52z"/>
<path d="M1993 1869 c-26 -9 -47 -44 -37 -62 16 -28 49 -57 64 -57 26 0 50 33
50 67 0 43 -36 68 -77 52z"/>
<path d="M11322 3998 c-15 -15 -16 -60 0 -76 18 -18 53 -14 74 9 17 19 17 23
3 47 -16 30 -57 40 -77 20z"/>
<path d="M11300 3641 c-15 -30 -12 -45 13 -69 27 -25 44 -27 70 -8 20 15 23
66 5 84 -20 20 -76 15 -88 -7z"/>
<path d="M11282 3258 c-19 -19 -14 -53 12 -77 30 -28 56 -24 75 11 23 40 3 78
-42 78 -18 0 -38 -5 -45 -12z"/>
<path d="M7790 3159 c-19 -10 -61 -42 -92 -69 l-58 -51 6 -92 c5 -67 12 -103
28 -132 l22 -40 179 4 c177 3 180 3 207 29 29 27 42 59 53 128 5 33 1 51 -19
90 -23 44 -82 104 -103 104 -4 0 -30 11 -58 25 -59 29 -116 30 -165 4z m206
-91 c47 -32 49 -35 52 -84 5 -83 -10 -148 -34 -152 -18 -3 -19 2 -16 66 l4 69
-32 17 c-62 30 -155 13 -180 -33 -5 -11 -10 -45 -10 -75 0 -53 -1 -56 -25 -56
-35 0 -55 44 -55 125 0 66 0 67 46 111 l47 44 77 0 c71 0 82 -3 126 -32z"/>
<path d="M10428 2949 c-50 -29 20 -139 88 -139 18 0 38 -8 49 -20 18 -20 65
-28 65 -11 0 4 -11 25 -25 45 -14 20 -25 44 -25 53 0 8 -16 31 -36 49 -37 35
-81 44 -116 23z"/>
<path d="M11276 2904 c-22 -22 -20 -47 7 -72 28 -27 39 -27 60 -4 21 23 22 56
2 72 -13 11 -15 8 -15 -14 0 -14 -4 -26 -10 -26 -5 0 -10 11 -10 24 0 32 -14
40 -34 20z"/>
<path d="M11262 2538 c-24 -24 -4 -88 28 -88 16 0 40 32 40 54 0 26 -17 46
-40 46 -9 0 -21 -5 -28 -12z"/>
<path d="M11251 2243 l-21 -18 20 -32 c23 -38 66 -45 93 -15 24 27 21 45 -12
65 -37 22 -53 21 -80 0z"/>
<path d="M9053 2058 c-29 -7 -33 -13 -33 -42 0 -41 26 -66 69 -66 24 0 34 6
42 24 26 56 -16 101 -78 84z"/>
<path d="M9398 2049 c-38 -22 -7 -89 41 -89 51 0 68 43 31 80 -22 22 -46 25
-72 9z"/>
<path d="M9818 2053 c-39 -6 -53 -27 -42 -66 8 -26 17 -34 46 -41 46 -12 68 4
68 49 0 27 -26 69 -41 64 -2 -1 -16 -4 -31 -6z"/>
<path d="M10538 2049 c-25 -14 -22 -41 5 -67 41 -38 97 -22 97 28 0 44 -57 66
-102 39z"/>
<path d="M8208 2039 c-29 -16 -22 -51 15 -76 41 -28 53 -29 67 -4 31 59 -25
114 -82 80z"/>
<path d="M8590 2021 c-24 -19 -24 -20 -8 -48 22 -38 62 -52 95 -33 42 24 51
46 28 69 -31 31 -86 37 -115 12z"/>
<path d="M10152 2031 c-18 -11 -11 -71 10 -85 13 -8 23 -5 43 14 30 28 31 41
7 63 -20 19 -40 21 -60 8z"/>
<path d="M10895 2030 c-10 -16 5 -71 21 -77 42 -16 93 32 78 72 -7 17 -89 21
-99 5z"/>
<path d="M7833 2015 c-22 -15 -35 -47 -24 -62 14 -20 90 -50 105 -41 25 14 20
65 -9 93 -28 29 -42 31 -72 10z"/>
<path d="M7062 2000 c-12 -5 -25 -17 -28 -25 -9 -21 25 -57 50 -53 24 4 41 55
24 75 -12 15 -15 15 -46 3z"/>
<path d="M7430 1990 c-23 -23 -25 -34 -7 -48 9 -8 23 -7 50 2 49 17 53 22 32
46 -23 25 -50 25 -75 0z"/>
<path d="M11301 1936 c-14 -16 11 -84 34 -93 44 -16 62 64 20 91 -30 20 -39
20 -54 2z"/>
</g>
</svg>
