<?xml version="1.0" standalone="no"?>
<!DOCTYPE svg PUBLIC "-//W3C//DTD SVG 20010904//EN"
 "http://www.w3.org/TR/2001/REC-SVG-20010904/DTD/svg10.dtd">
<svg version="1.0" xmlns="http://www.w3.org/2000/svg"
 width="1177.000000pt" height="1463.000000pt" viewBox="0 0 1177.000000 1463.000000"
 preserveAspectRatio="xMidYMid meet">
<metadata>
Created by potrace 1.13, written by Peter Selinger 2001-2015
</metadata>
<g transform="translate(0.000000,1463.000000) scale(0.100000,-0.100000)"
fill="#000000" stroke="none">
<path d="M7513 14211 c-17 -11 -47 -23 -67 -26 -19 -4 -41 -14 -48 -22 -7 -8
-36 -30 -65 -49 -35 -22 -59 -47 -74 -76 -12 -24 -50 -70 -84 -103 -68 -65
-95 -115 -95 -177 0 -43 -9 -66 -50 -118 -15 -19 -30 -48 -34 -63 -10 -42 -49
-77 -85 -77 -24 0 -34 -7 -46 -29 -8 -17 -19 -32 -23 -35 -20 -12 -374 -66
-423 -64 -30 1 -155 -15 -279 -35 -352 -57 -411 -62 -448 -43 -37 19 -168 22
-206 5 -20 -10 -30 -8 -58 8 -26 16 -52 20 -118 21 -69 0 -95 5 -139 26 -47
21 -64 24 -118 19 -41 -4 -67 -2 -76 6 -8 6 -21 9 -30 5 -8 -3 -35 4 -59 15
-24 11 -57 23 -73 27 -17 4 -59 22 -94 40 -35 19 -70 34 -77 34 -14 0 -54 81
-54 110 0 10 -11 38 -25 61 -14 24 -25 50 -25 57 0 7 -11 28 -24 45 -14 18
-28 46 -32 62 -3 17 -15 46 -25 65 -9 19 -20 48 -24 64 -7 34 -68 96 -93 96
-11 0 -25 14 -35 35 -11 23 -31 42 -64 58 -45 23 -62 25 -277 30 -249 7 -256
6 -306 -50 -14 -15 -39 -47 -54 -70 -16 -24 -33 -43 -38 -43 -5 0 -8 -17 -7
-37 1 -21 -5 -52 -14 -70 -23 -43 -24 -191 -2 -233 9 -17 33 -39 55 -50 30
-16 40 -26 40 -45 0 -20 8 -29 40 -41 22 -9 49 -29 60 -44 15 -21 31 -29 66
-35 40 -6 56 -16 106 -66 32 -32 64 -59 71 -59 6 0 27 -9 45 -20 26 -16 50
-20 118 -20 108 0 166 -26 209 -94 15 -25 32 -43 37 -40 14 9 34 -20 36 -54 1
-18 10 -44 19 -58 9 -14 19 -42 24 -62 21 -103 28 -123 49 -141 20 -18 70
-109 70 -128 0 -7 5 -13 10 -13 6 0 10 -9 10 -21 0 -11 5 -30 12 -42 7 -12 13
-29 15 -38 1 -8 9 -29 18 -45 8 -16 15 -39 15 -51 0 -12 5 -25 11 -28 6 -4 8
-14 5 -22 -3 -8 1 -31 10 -51 27 -64 43 -116 49 -162 4 -25 16 -90 27 -145 11
-55 21 -111 24 -125 4 -21 13 -67 20 -92 1 -5 2 -9 4 -10 5 -7 11 -46 11 -68
-1 -13 6 -46 15 -73 10 -29 17 -90 18 -155 2 -59 8 -132 14 -162 6 -30 16 -98
22 -150 7 -52 17 -100 22 -107 5 -7 8 -39 6 -71 -2 -39 2 -65 10 -75 8 -9 11
-21 7 -26 -5 -10 1 -68 20 -191 18 -116 22 -166 15 -173 -4 -5 3 -27 15 -50
13 -23 26 -69 30 -102 3 -33 8 -73 10 -90 2 -16 7 -99 11 -182 4 -84 10 -153
14 -153 4 0 7 -6 7 -12 0 -7 6 -40 12 -73 7 -33 14 -73 16 -90 2 -16 7 -50 11
-75 9 -54 9 -146 -1 -215 -11 -75 -9 -313 2 -327 6 -7 13 -74 16 -148 4 -74 9
-146 12 -160 9 -38 7 -153 -4 -202 -6 -23 -10 -70 -9 -103 1 -85 -10 -140 -33
-161 -17 -15 -34 -16 -156 -10 -76 4 -190 15 -254 25 -65 10 -125 14 -137 10
-11 -4 -35 -6 -54 -3 -18 2 -85 6 -150 8 -64 2 -121 7 -128 11 -9 5 -150 7
-275 4 -48 -2 -330 33 -367 45 -27 8 -48 13 -48 10 0 -2 -12 2 -27 9 -16 8
-41 12 -58 10 -16 -2 -54 5 -85 16 -36 13 -88 21 -150 24 -74 3 -104 8 -135
25 -22 12 -45 22 -52 22 -7 0 -34 7 -60 16 -26 10 -57 18 -68 20 -105 17 -288
65 -320 83 -16 9 -56 23 -88 31 -32 7 -60 17 -63 22 -3 4 -18 8 -34 8 -16 0
-31 4 -34 9 -3 5 -16 9 -29 9 -13 0 -57 11 -99 26 -42 14 -87 26 -100 26 -29
0 -161 47 -296 107 -18 8 -56 15 -85 16 -42 2 -52 6 -57 22 -3 11 -33 58 -68
103 -70 91 -96 143 -87 173 4 11 2 19 -5 19 -6 0 -16 12 -22 28 -15 35 -97
112 -120 112 -10 0 -39 11 -65 24 -71 36 -108 45 -218 52 -85 5 -106 3 -142
-12 -76 -34 -216 -164 -231 -214 -6 -19 -22 -66 -36 -104 -14 -38 -26 -84 -26
-103 0 -45 39 -120 86 -164 22 -19 48 -48 59 -63 25 -36 33 -43 85 -86 24 -19
50 -42 58 -50 16 -15 39 -30 82 -52 14 -7 36 -23 49 -35 14 -12 27 -20 31 -18
3 2 24 0 46 -6 21 -5 68 -12 104 -15 40 -4 68 -11 73 -20 4 -8 15 -14 22 -14
8 0 15 -6 15 -14 0 -20 70 -76 95 -76 19 0 70 -45 70 -62 0 -4 7 -16 15 -26
35 -44 76 -127 71 -146 -1 -5 2 -12 6 -15 17 -13 32 -51 27 -66 -4 -9 1 -24
10 -34 9 -10 14 -25 10 -34 -3 -9 2 -31 11 -49 10 -20 16 -57 16 -91 0 -32 5
-70 10 -85 6 -15 12 -42 13 -61 1 -19 6 -36 12 -38 7 -2 8 -19 2 -51 -5 -26
-13 -80 -19 -120 -5 -40 -13 -81 -19 -91 -5 -10 -6 -31 -2 -47 5 -16 7 -40 5
-54 -5 -49 -5 -206 1 -249 3 -25 -1 -83 -9 -130 -8 -47 -17 -117 -19 -156 -3
-38 -10 -95 -16 -125 -6 -30 -14 -74 -19 -98 -4 -24 -18 -56 -29 -72 -12 -16
-22 -36 -22 -44 0 -11 -24 -61 -45 -94 -1 -1 -23 3 -48 10 -40 10 -54 9 -104
-7 -32 -10 -60 -19 -63 -19 -17 -2 -107 -55 -134 -78 -17 -16 -35 -28 -41 -28
-11 0 -125 -74 -193 -125 -70 -53 -142 -193 -142 -277 0 -68 129 -218 227
-265 61 -29 52 -28 349 -35 23 -1 50 3 60 7 11 4 28 10 39 12 50 8 221 119
264 170 41 49 44 53 57 83 6 14 20 43 30 65 27 60 43 134 30 138 -8 3 -8 8 1
18 11 13 20 50 22 88 1 19 148 158 195 184 56 31 72 41 87 54 8 5 26 13 40 16
14 4 36 16 49 27 13 11 34 20 47 20 12 0 23 4 23 9 0 5 20 19 45 31 25 12 47
25 50 30 3 5 20 12 38 15 17 4 46 15 62 23 17 9 37 17 45 19 33 4 60 12 89 27
16 9 38 16 48 16 10 0 28 7 40 15 12 9 45 17 74 20 29 2 55 8 58 12 6 8 20 12
61 18 48 6 125 30 158 47 18 10 43 18 57 18 13 0 49 14 81 31 48 27 64 31 104
26 26 -3 51 -3 54 1 4 3 12 7 19 8 7 1 45 9 85 18 40 9 87 16 103 16 16 0 29
4 29 9 0 9 96 22 195 27 101 6 179 16 191 25 6 5 13 6 16 4 3 -3 16 -1 30 4
14 5 40 12 59 15 19 3 61 11 94 17 33 6 92 13 130 15 39 2 115 8 170 13 129
13 261 14 405 6 179 -10 173 -6 158 -100 -5 -33 -11 -139 -13 -235 -3 -176
-12 -370 -19 -407 -10 -50 -24 -352 -30 -648 -1 -72 -6 -136 -10 -143 -4 -7
-3 -12 2 -12 6 0 8 -57 4 -152 -5 -141 -6 -342 -1 -378 1 -8 5 -20 10 -25 4
-6 4 -26 0 -46 -8 -33 -6 -78 4 -87 2 -3 -3 -19 -12 -36 -15 -29 -15 -30 1
-17 15 13 16 12 5 -15 -16 -41 -19 -87 -7 -101 7 -8 7 -13 1 -13 -19 0 -35
-194 -19 -233 5 -12 8 -84 7 -160 -3 -103 0 -137 9 -137 10 0 10 -3 0 -15 -8
-10 -12 -40 -11 -83 7 -249 -2 -478 -19 -496 -4 -4 -3 -22 2 -38 8 -23 8 -32
-2 -38 -13 -8 -19 -162 -8 -212 4 -15 3 -30 -2 -33 -5 -3 -8 -13 -8 -23 0 -9
-3 -51 -7 -92 -4 -41 -9 -97 -11 -125 -4 -72 -11 -123 -19 -135 -3 -5 -8 -58
-10 -118 -4 -109 -19 -197 -38 -220 -5 -7 -7 -15 -4 -19 4 -3 2 -12 -3 -19 -6
-6 -10 -16 -8 -20 1 -5 -3 -18 -9 -30 -7 -11 -10 -29 -9 -40 2 -10 -3 -28 -11
-40 -7 -11 -10 -24 -7 -27 4 -4 1 -13 -6 -22 -7 -9 -10 -18 -7 -21 3 -3 -1
-23 -8 -45 -8 -22 -10 -39 -4 -39 5 0 3 -16 -5 -35 -9 -20 -16 -39 -17 -43 -1
-4 -5 -17 -10 -30 -5 -13 -9 -28 -9 -33 0 -5 -5 -9 -10 -9 -12 0 -32 -44 -36
-79 -4 -30 -23 -81 -39 -101 -7 -8 -18 -37 -25 -65 -7 -27 -20 -63 -28 -79 -8
-16 -16 -46 -19 -68 -2 -21 -21 -67 -41 -101 -20 -34 -37 -66 -37 -72 -3 -52
-74 -78 -184 -68 -34 3 -109 0 -164 -7 -98 -12 -104 -15 -182 -68 -44 -31
-107 -74 -139 -96 -61 -42 -115 -113 -140 -184 -8 -20 -33 -66 -57 -102 -54
-81 -68 -120 -69 -191 0 -49 4 -59 30 -84 16 -16 30 -34 30 -41 0 -6 21 -35
46 -63 33 -37 68 -62 123 -88 123 -58 204 -49 346 40 11 6 35 24 53 40 18 15
38 27 45 27 7 0 34 13 59 29 25 16 48 27 51 25 10 -10 80 73 107 125 15 31 46
76 69 101 22 24 55 71 72 104 26 49 30 64 23 90 -15 50 -6 74 35 95 20 11 43
27 50 35 8 9 20 16 27 16 8 0 14 5 14 10 0 6 5 10 11 10 6 0 29 12 52 28 23
15 47 28 52 28 23 1 177 82 230 121 24 18 72 41 110 53 22 7 42 16 45 19 9 11
60 31 80 31 11 0 20 4 20 8 0 5 14 7 31 4 17 -2 40 0 52 6 42 20 122 35 207
38 47 2 85 4 85 4 0 6 141 4 145 -2 5 -6 201 -22 240 -19 37 2 90 1 128 -4 24
-3 42 -1 42 4 0 23 127 -20 174 -58 6 -5 43 -16 82 -24 39 -8 80 -20 92 -26
11 -6 30 -11 42 -11 12 0 42 -16 67 -35 25 -19 51 -35 58 -35 6 0 33 -11 61
-24 27 -13 64 -27 81 -30 18 -4 36 -13 40 -19 17 -27 53 -123 53 -142 0 -11 8
-32 17 -45 10 -14 17 -27 16 -30 -1 -3 7 -25 18 -50 11 -25 23 -58 26 -75 9
-47 32 -85 58 -97 18 -8 25 -19 25 -38 0 -15 11 -44 25 -64 14 -20 32 -51 41
-69 9 -17 50 -65 91 -106 l75 -73 147 4 146 4 83 42 c46 24 85 49 89 57 3 8
11 15 19 15 7 0 17 6 21 13 4 8 22 22 38 32 53 32 55 40 55 172 0 120 -1 124
-23 134 -17 8 -27 25 -37 62 -15 59 -52 136 -78 161 -9 9 -39 37 -66 63 -27
27 -72 63 -100 80 -48 32 -55 33 -149 33 -98 0 -139 11 -175 46 -7 8 -21 14
-30 14 -31 0 -78 37 -91 71 -7 19 -21 53 -31 75 -10 23 -22 59 -25 80 -4 22
-14 59 -22 84 -8 25 -17 59 -20 75 -3 17 -8 37 -13 45 -4 8 -10 32 -14 53 -4
21 -16 54 -26 72 -10 18 -24 53 -31 77 -7 23 -22 59 -33 78 -18 33 -24 55 -45
170 -5 25 -16 68 -25 95 -9 28 -19 66 -22 85 -3 19 -13 48 -22 65 -9 16 -19
57 -23 90 -4 33 -14 80 -23 103 -10 26 -16 71 -16 110 0 37 1 74 1 82 -1 8 -8
65 -16 125 -9 61 -16 124 -16 140 -1 17 -5 46 -9 65 -5 19 -14 98 -20 175 -7
77 -14 160 -16 185 -2 25 -6 81 -8 124 -3 43 -9 82 -14 85 -9 6 -15 143 -15
346 1 50 -3 95 -7 100 -4 6 -11 39 -14 75 -4 36 -10 90 -15 120 -4 30 -7 84
-5 120 7 183 3 336 -10 405 -12 67 -42 392 -37 409 1 5 2 67 2 137 l-1 127 28
10 27 10 -28 7 -28 7 -1 187 c-3 271 1 431 12 470 5 19 5 41 1 50 -16 30 -26
224 -25 483 1 286 2 290 70 292 19 0 34 5 34 10 0 5 3 7 6 3 4 -3 13 0 20 8
15 15 33 13 123 -14 26 -8 51 -7 105 6 39 9 75 16 81 14 25 -7 236 -7 240 0 3
4 51 6 108 3 56 -2 163 -6 237 -8 74 -3 155 -8 180 -11 103 -13 266 -24 281
-19 9 2 29 -2 45 -11 16 -8 47 -15 70 -15 22 0 49 -7 60 -15 10 -8 33 -15 51
-15 17 0 33 -5 35 -11 2 -6 22 -13 43 -15 113 -11 214 -37 265 -69 42 -27 66
-35 132 -49 20 -4 45 -16 56 -26 11 -10 53 -26 93 -34 74 -15 180 -48 210 -65
23 -13 148 -44 178 -43 14 0 37 -8 51 -17 14 -9 44 -25 67 -35 23 -10 52 -29
64 -42 12 -13 25 -21 30 -19 8 6 72 -28 104 -55 33 -28 107 -62 168 -77 38
-10 69 -26 90 -47 18 -17 49 -40 71 -51 21 -11 52 -32 70 -47 17 -15 34 -28
39 -29 4 -1 11 -2 16 -3 29 -4 69 -97 91 -209 11 -52 42 -123 61 -137 4 -3 23
-36 43 -75 46 -88 97 -125 214 -155 78 -19 147 -20 162 -1 3 4 41 20 84 37 53
19 93 42 121 69 38 36 48 55 60 117 2 10 15 33 29 51 46 60 58 102 52 187 -5
79 -14 102 -73 191 -15 23 -32 49 -38 58 -22 33 -106 110 -144 130 -11 6 -22
20 -26 30 -16 51 -84 63 -255 42 -50 -6 -77 -4 -114 8 -46 15 -51 20 -92 98
-23 45 -48 101 -56 125 -7 24 -34 85 -60 136 -26 51 -48 100 -48 109 0 8 -9
30 -19 47 -19 30 -46 126 -56 196 -3 19 -9 58 -15 85 -12 64 -25 196 -22 215
1 8 5 66 8 128 2 62 13 154 23 204 12 61 17 121 15 182 -3 63 2 119 15 181 10
50 24 118 29 152 7 38 24 85 45 121 30 51 49 101 52 137 3 28 18 55 36 60 22
7 26 25 4 25 -25 0 -17 30 16 61 24 22 29 32 20 42 -8 10 -7 18 2 30 10 15 38
21 127 29 8 0 26 9 39 20 13 10 28 18 33 18 5 0 39 13 75 30 35 16 76 30 89
30 23 0 94 19 154 41 24 9 49 31 147 131 23 24 55 70 71 103 15 33 38 76 50
95 19 30 22 45 18 100 -10 133 -22 206 -40 240 -21 41 -76 96 -106 105 -11 3
-20 10 -20 14 0 15 -120 33 -149 23 -14 -6 -46 -13 -70 -15 -24 -3 -47 -10
-50 -16 -4 -6 -25 -17 -47 -24 -21 -8 -61 -29 -89 -46 -27 -17 -52 -31 -57
-31 -10 0 -98 -62 -98 -69 0 -3 -12 -19 -26 -36 -14 -16 -41 -63 -60 -102 -20
-40 -39 -75 -43 -77 -4 -3 -8 -24 -9 -46 -1 -23 -4 -46 -7 -50 -3 -5 -7 -32
-10 -61 -4 -35 -12 -57 -24 -66 -10 -7 -26 -30 -34 -52 -9 -21 -33 -53 -54
-70 -44 -36 -145 -86 -193 -96 -14 -3 -57 -17 -75 -25 -11 -5 -59 -25 -107
-45 -85 -34 -148 -66 -178 -91 -8 -6 -26 -15 -40 -19 -14 -4 -35 -17 -48 -28
-12 -12 -35 -22 -50 -24 -148 -14 -422 -81 -422 -103 0 -7 -23 -12 -173 -41
-26 -5 -69 -9 -95 -9 -92 0 -252 -41 -289 -74 -19 -16 -41 -20 -130 -23 -60
-2 -130 -9 -158 -15 -27 -6 -90 -14 -140 -19 -49 -4 -103 -11 -120 -14 -16 -4
-57 -8 -90 -10 -79 -6 -218 -30 -280 -49 -49 -15 -68 -18 -277 -36 -58 -5
-151 -16 -204 -25 -66 -12 -122 -15 -170 -11 -51 5 -83 2 -114 -9 -52 -18
-120 -20 -121 -2 -1 6 -1 90 0 184 0 95 -3 183 -8 196 -5 13 -5 43 -1 68 4 24
11 118 14 208 3 90 9 168 13 174 4 6 7 91 8 188 0 123 4 180 12 191 7 8 9 18
4 24 -5 5 -5 30 0 59 4 28 11 153 14 278 3 126 8 254 11 285 3 32 8 109 9 172
2 63 8 135 14 160 5 25 10 92 11 149 0 83 3 108 17 123 10 11 12 18 4 18 -12
0 -9 193 6 320 3 30 7 75 8 100 1 25 6 56 9 70 4 14 7 41 7 60 0 19 5 60 11
90 6 30 11 62 10 70 0 8 13 53 28 100 16 47 31 106 34 132 3 26 15 67 27 92
12 26 18 53 14 65 -3 11 -1 29 4 40 6 10 11 49 12 85 1 37 5 68 9 71 4 2 5 15
3 27 -2 13 11 68 31 122 19 54 38 118 42 143 3 24 10 46 15 49 5 3 9 20 9 38
0 19 7 53 16 77 9 24 18 55 19 68 2 14 11 28 20 33 10 6 14 16 10 29 -7 20 -2
38 55 209 18 52 36 112 41 132 16 65 41 109 58 102 9 -4 63 -12 120 -17 91 -9
104 -8 112 6 21 36 112 75 209 88 92 13 97 15 138 56 24 24 48 43 52 43 5 0
14 9 20 20 6 11 28 29 50 40 60 31 70 59 70 204 l0 125 -44 88 c-24 48 -53 95
-64 104 -11 10 -24 23 -28 30 -19 30 -64 61 -115 79 -77 29 -270 29 -316 1z"/>
</g>
</svg>
