<?xml version="1.0" standalone="no"?>
<!DOCTYPE svg PUBLIC "-//W3C//DTD SVG 20010904//EN"
 "http://www.w3.org/TR/2001/REC-SVG-20010904/DTD/svg10.dtd">
<svg version="1.0" xmlns="http://www.w3.org/2000/svg"
 width="856.000000pt" height="1000.000000pt" viewBox="0 0 856.000000 1000.000000"
 preserveAspectRatio="xMidYMid meet">
<metadata>
Created by potrace 1.13, written by Peter Selinger 2001-2015
</metadata>
<g transform="translate(0.000000,1000.000000) scale(0.100000,-0.100000)"
fill="#000000" stroke="none">
<path d="M2485 9579 c-57 -28 -105 -62 -105 -75 0 -5 -16 -25 -35 -44 -19 -19
-35 -39 -35 -45 0 -7 -8 -19 -18 -29 -11 -9 -27 -41 -37 -70 -16 -48 -17 -61
-6 -110 11 -49 17 -58 52 -78 29 -16 40 -30 45 -54 4 -23 14 -36 32 -43 15 -6
34 -16 44 -23 12 -9 37 -9 98 -2 45 5 84 6 86 2 3 -5 9 -6 13 -3 5 2 15 -3 24
-13 17 -19 87 -186 91 -217 2 -11 9 -31 16 -45 8 -14 13 -29 12 -34 -2 -5 2
-13 9 -17 7 -4 14 -18 16 -31 2 -13 16 -43 31 -68 29 -48 83 -163 86 -186 1
-7 5 -17 9 -20 4 -4 7 -15 7 -24 0 -10 7 -23 15 -30 9 -7 13 -15 10 -18 -3 -3
1 -15 9 -27 8 -12 17 -37 20 -56 3 -18 12 -38 20 -44 17 -13 52 -104 72 -190
8 -33 16 -67 19 -75 30 -95 48 -140 56 -140 5 0 9 -9 9 -19 0 -11 11 -42 25
-69 14 -28 25 -57 25 -66 0 -14 19 -70 40 -121 5 -11 19 -45 30 -75 12 -30 26
-64 30 -75 19 -46 23 -60 21 -69 -1 -5 5 -16 12 -25 8 -9 15 -30 15 -48 0 -17
10 -53 22 -80 12 -26 28 -61 35 -78 8 -16 19 -50 25 -75 7 -25 21 -64 31 -88
11 -23 22 -56 26 -72 3 -17 9 -30 14 -30 5 0 9 -8 9 -18 0 -10 4 -22 9 -28 11
-12 41 -109 46 -150 4 -26 1 -34 -15 -39 -20 -6 -91 9 -125 28 -11 6 -36 12
-55 14 -19 2 -40 8 -46 14 -19 15 -74 30 -129 35 -27 2 -86 11 -130 20 -44 9
-91 18 -105 20 -13 1 -26 8 -28 13 -2 6 -10 11 -18 11 -8 0 -31 8 -52 18 -20
11 -66 25 -102 32 -78 16 -170 48 -170 60 0 5 -8 9 -17 8 -10 0 -56 14 -103
32 -47 17 -103 35 -125 40 -60 13 -179 51 -190 61 -6 4 -60 10 -120 13 -121 5
-185 21 -254 65 -25 16 -62 33 -81 39 -203 59 -257 78 -362 125 -38 17 -68 34
-68 39 0 4 -7 5 -15 2 -28 -11 -33 6 -15 54 13 33 17 67 15 115 -4 71 -19 107
-61 139 -12 10 -41 37 -65 62 -37 37 -54 46 -105 56 -71 14 -90 8 -202 -64
-69 -45 -131 -117 -132 -154 0 -6 -9 -28 -19 -48 -18 -33 -18 -39 -5 -82 18
-56 22 -73 23 -89 1 -7 17 -30 36 -51 26 -29 47 -41 86 -50 126 -29 159 -43
184 -77 14 -18 28 -46 30 -61 3 -16 10 -58 16 -94 5 -36 15 -90 21 -120 6 -30
10 -63 9 -74 -2 -11 2 -16 8 -12 6 4 9 1 5 -7 -3 -8 0 -39 6 -68 6 -30 11 -72
10 -94 -1 -22 -3 -98 -5 -170 -1 -71 -5 -156 -8 -187 -4 -38 -2 -58 5 -58 6 0
7 -8 3 -17 -4 -10 -11 -63 -16 -118 -5 -55 -12 -121 -15 -147 -4 -31 -2 -48 5
-48 6 0 8 -15 6 -37 -2 -21 -5 -38 -6 -38 -1 0 -3 -25 -4 -55 -2 -30 -6 -80
-9 -110 -4 -30 -8 -77 -10 -105 -2 -27 -9 -70 -15 -95 -6 -25 -11 -64 -11 -88
0 -24 -5 -52 -10 -63 -8 -14 -7 -19 1 -19 8 0 8 -4 -1 -15 -7 -8 -9 -23 -6
-32 10 -25 -5 -172 -18 -186 -14 -15 -17 -36 -22 -171 -2 -60 -5 -111 -8 -113
-2 -2 -21 -7 -42 -10 -41 -7 -164 -69 -164 -83 0 -5 -9 -12 -20 -15 -24 -8
-126 -138 -111 -143 6 -2 3 -18 -6 -40 -8 -20 -14 -37 -13 -37 5 0 -14 -102
-22 -119 -7 -13 -6 -21 2 -26 7 -4 10 -14 8 -21 -6 -18 16 -63 55 -111 38 -47
103 -71 169 -62 26 4 77 1 114 -6 l67 -13 21 29 c11 16 32 39 46 52 90 81 100
101 100 204 0 84 7 107 49 151 37 40 76 58 124 59 23 0 63 9 90 19 95 38 153
62 202 84 28 13 100 40 160 60 61 20 120 43 132 51 12 8 48 24 80 36 32 11 67
27 78 34 12 8 37 16 57 18 21 3 50 11 65 19 15 8 64 27 108 42 44 15 96 37
115 49 34 23 60 32 150 57 25 7 57 18 71 25 15 7 37 15 50 18 43 9 84 23 124
43 22 12 54 24 72 27 18 4 69 23 115 43 46 19 95 38 109 43 14 4 39 15 56 23
17 9 50 23 74 32 48 18 51 18 94 30 17 4 51 18 77 31 33 17 65 24 103 24 30 0
63 4 73 8 9 5 32 16 50 25 46 23 72 22 72 -3 0 -11 -4 -20 -8 -20 -4 0 -13
-21 -19 -47 -6 -27 -19 -77 -27 -113 -9 -36 -23 -97 -30 -135 -8 -39 -21 -84
-29 -100 -9 -17 -22 -64 -30 -105 -8 -41 -22 -104 -32 -140 -9 -36 -19 -80
-22 -97 -3 -18 -9 -33 -14 -33 -5 0 -9 -11 -9 -24 0 -13 -7 -46 -15 -72 -8
-27 -21 -83 -30 -124 -29 -139 -34 -160 -49 -182 -8 -13 -17 -48 -21 -78 -4
-30 -13 -73 -20 -95 -7 -22 -19 -73 -25 -113 -7 -40 -18 -79 -26 -87 -8 -7
-14 -23 -14 -35 0 -11 -6 -35 -14 -53 -7 -18 -16 -55 -20 -82 -7 -50 -16 -88
-56 -225 -27 -94 -47 -174 -65 -269 -18 -92 -24 -111 -36 -111 -5 0 -9 -10 -9
-22 0 -23 -17 -99 -45 -213 -9 -33 -19 -76 -24 -95 -4 -19 -17 -66 -29 -105
-12 -38 -28 -101 -36 -140 -30 -146 -43 -197 -53 -203 -6 -4 -14 -32 -18 -62
-4 -30 -13 -69 -20 -85 -6 -17 -15 -53 -19 -80 -4 -28 -22 -99 -41 -160 -33
-104 -51 -182 -77 -320 -6 -33 -14 -62 -17 -65 -9 -7 -31 -74 -31 -92 0 -9 -7
-38 -16 -65 l-16 -49 -76 -17 c-42 -10 -87 -20 -99 -22 -27 -5 -103 -64 -103
-80 0 -7 -14 -23 -31 -36 -45 -34 -59 -77 -66 -193 -5 -89 -3 -105 15 -139 17
-32 65 -87 77 -87 2 0 17 -13 33 -30 17 -16 38 -30 46 -30 9 0 16 -4 16 -10 0
-29 105 0 163 44 24 18 61 39 83 46 56 18 70 34 88 103 10 34 26 86 38 115 16
42 18 55 8 67 -11 13 -6 15 36 15 100 1 184 9 205 21 16 8 77 10 216 7 106 -3
251 -1 321 4 206 15 362 18 389 7 43 -16 211 -11 311 9 50 11 92 16 92 13 0
-4 44 -3 98 1 104 9 281 -4 291 -21 4 -6 42 -8 96 -6 135 7 171 6 279 -10 55
-8 121 -15 147 -15 33 0 49 -5 53 -16 3 -8 26 -24 50 -35 24 -10 47 -27 51
-36 4 -10 17 -47 30 -83 13 -38 37 -81 58 -104 34 -37 37 -38 84 -32 26 4 82
9 123 12 103 6 114 10 155 46 58 50 82 109 87 216 5 86 4 95 -18 128 -14 19
-30 50 -38 68 -21 50 -76 80 -134 73 -26 -3 -68 0 -94 5 -44 11 -47 13 -62 62
-8 28 -17 69 -20 91 -6 43 -16 92 -42 195 -29 120 -45 195 -50 240 -2 25 -9
56 -14 70 -6 14 -14 45 -20 70 -5 25 -16 73 -24 106 -7 34 -17 84 -20 110 -7
50 -14 85 -41 189 -32 128 -46 192 -50 235 -3 25 -10 56 -15 70 -6 14 -14 45
-20 70 -5 25 -17 74 -26 110 -9 36 -20 99 -25 140 -5 41 -14 86 -19 100 -6 14
-14 45 -20 70 -5 25 -16 74 -25 110 -8 36 -18 88 -20 117 -3 29 -10 65 -16 80
-6 15 -14 46 -19 68 -5 22 -18 78 -29 125 -10 47 -15 87 -10 88 11 5 12 32 0
32 -15 0 -44 111 -45 172 -1 32 -4 58 -8 58 -9 0 -25 57 -43 154 -8 39 -21
100 -30 136 -9 36 -23 92 -32 125 -8 33 -17 80 -19 105 -2 25 -9 56 -14 70
-10 26 -16 48 -49 210 -14 67 -17 98 -9 107 7 9 7 17 -1 27 -14 16 -33 92 -51
196 -7 41 -19 92 -26 114 -8 21 -12 41 -10 45 4 7 -7 72 -20 114 -7 21 23 23
52 3 11 -8 54 -25 95 -39 42 -14 98 -36 125 -48 61 -27 79 -34 129 -51 22 -7
54 -22 71 -34 18 -11 85 -38 150 -59 66 -21 150 -54 187 -72 38 -19 109 -47
157 -63 49 -16 106 -38 127 -48 21 -10 59 -25 86 -33 26 -7 47 -16 47 -20 0
-4 26 -15 58 -25 31 -9 75 -27 97 -39 22 -12 79 -34 127 -50 48 -15 97 -35
108 -45 11 -9 73 -35 138 -55 64 -21 138 -49 164 -62 26 -13 53 -23 59 -23 7
0 20 -6 28 -13 9 -7 50 -24 91 -37 41 -13 92 -32 112 -42 20 -10 59 -25 85
-34 26 -9 74 -28 106 -42 l58 -27 -4 -56 c-3 -31 -11 -65 -18 -77 -10 -16 -10
-26 -1 -47 7 -14 12 -41 12 -59 0 -18 10 -48 23 -67 13 -19 26 -42 30 -51 3
-10 33 -31 66 -48 68 -34 125 -39 171 -15 17 9 30 13 30 10 0 -7 50 25 71 46
25 25 73 101 85 134 14 40 21 166 14 257 -1 15 -72 58 -96 58 -5 0 -28 18 -52
40 -23 22 -46 40 -52 40 -29 0 -59 119 -64 255 -2 55 -7 127 -10 160 -4 33 -9
173 -12 310 -5 297 -9 374 -25 520 -14 122 -14 106 -10 373 2 106 7 195 12
198 5 3 9 29 9 59 0 30 3 56 8 58 4 3 8 40 10 83 2 42 7 85 12 95 6 10 10 29
10 43 0 16 6 26 14 26 8 0 16 7 20 15 3 9 0 15 -10 15 -14 0 -15 8 -9 48 4 26
9 101 10 166 2 119 3 120 31 143 25 20 36 22 86 17 52 -6 58 -5 80 21 12 15
40 36 60 46 75 38 114 180 72 261 -9 17 -13 40 -10 51 7 26 -8 53 -58 103 -62
62 -79 68 -196 68 -105 1 -105 1 -160 -36 -106 -71 -141 -123 -152 -228 -5
-41 -9 -81 -10 -88 -1 -6 -6 -11 -12 -11 -6 1 -37 -10 -69 -24 -32 -15 -66
-27 -75 -27 -10 0 -37 -9 -60 -20 -22 -11 -46 -20 -52 -20 -6 0 -31 -11 -55
-25 -23 -14 -65 -32 -91 -39 -148 -41 -322 -94 -342 -105 -13 -7 -36 -15 -50
-17 -87 -13 -94 -16 -88 -29 3 -8 -8 -20 -27 -30 -18 -9 -44 -23 -58 -30 -40
-22 -139 -46 -205 -50 -63 -3 -115 -25 -163 -68 -32 -28 -82 -47 -125 -47 -16
0 -72 -20 -123 -45 -50 -25 -98 -45 -104 -45 -13 0 -39 -11 -177 -77 -40 -19
-89 -37 -110 -39 -42 -5 -156 -34 -252 -64 -85 -26 -94 -26 -85 3 3 12 11 41
16 65 8 42 44 157 60 197 21 53 69 204 69 221 1 11 12 51 26 89 14 39 31 90
38 115 8 25 21 65 30 90 8 25 16 53 16 62 0 19 47 174 61 200 5 10 9 22 9 28
0 6 8 29 19 53 18 41 22 55 56 182 9 33 27 81 40 108 14 26 25 54 25 62 0 8 5
15 10 15 6 0 10 11 10 24 0 14 9 31 21 39 11 8 16 16 11 18 -6 3 0 33 14 74
13 39 24 87 24 107 0 20 7 49 14 65 61 118 147 305 157 341 7 23 16 42 20 42
5 0 11 17 15 38 9 50 39 124 66 166 23 35 24 35 83 31 56 -4 64 -1 132 40 39
24 81 53 92 64 12 12 27 21 35 21 23 0 104 181 113 252 4 31 0 41 -23 63 -15
14 -35 25 -45 25 -11 0 -23 15 -34 44 -22 56 -45 66 -154 66 -78 0 -93 -3
-125 -25 -20 -14 -43 -25 -51 -25 -8 0 -26 -11 -40 -24 -15 -14 -40 -28 -56
-31 -20 -5 -29 -12 -25 -21 3 -7 -13 -49 -35 -93 -44 -89 -34 -83 -184 -97
-38 -3 -78 -11 -88 -16 -29 -15 -55 -19 -162 -25 -55 -2 -118 -11 -140 -20
-29 -10 -97 -16 -244 -18 -137 -3 -208 -8 -218 -16 -17 -15 -231 -18 -241 -4
-4 6 -114 10 -294 10 -159 0 -288 4 -288 9 0 4 -12 5 -27 2 -38 -9 -107 -10
-173 -2 -30 4 -95 12 -145 18 -49 6 -115 12 -145 14 -31 2 -69 6 -85 10 -17 3
-77 7 -135 9 -58 2 -121 8 -140 14 -19 6 -47 11 -63 11 -33 0 -42 18 -52 106
-8 66 -32 134 -47 134 -6 0 -29 20 -52 45 -22 25 -52 47 -66 50 -14 3 -26 9
-28 15 -6 16 -54 11 -97 -11z"/>
</g>
</svg>
