<?xml version="1.0" standalone="no"?>
<!DOCTYPE svg PUBLIC "-//W3C//DTD SVG 20010904//EN"
 "http://www.w3.org/TR/2001/REC-SVG-20010904/DTD/svg10.dtd">
<svg version="1.0" xmlns="http://www.w3.org/2000/svg"
 width="1105.000000pt" height="1344.000000pt" viewBox="0 0 1105.000000 1344.000000"
 preserveAspectRatio="xMidYMid meet">
<metadata>
Created by potrace 1.13, written by Peter Selinger 2001-2015
</metadata>
<g transform="translate(0.000000,1344.000000) scale(0.100000,-0.100000)"
fill="#000000" stroke="none">
<path d="M3807 12718 c-7 -4 -35 -14 -63 -23 -28 -8 -66 -25 -85 -38 -19 -12
-50 -29 -69 -37 -46 -18 -105 -60 -121 -85 -23 -38 -46 -212 -36 -279 5 -34
13 -63 18 -66 5 -3 19 -24 31 -47 13 -23 37 -58 53 -79 17 -21 49 -61 73 -91
23 -29 42 -57 42 -61 0 -12 46 -32 71 -32 11 0 37 -9 59 -20 33 -17 59 -20
162 -20 140 0 175 -13 198 -71 7 -19 21 -52 31 -75 11 -22 19 -48 19 -58 0 -9
9 -34 19 -54 11 -20 24 -55 29 -77 19 -75 34 -130 42 -150 4 -11 13 -40 19
-65 7 -25 16 -54 21 -65 10 -23 23 -74 25 -95 1 -8 4 -22 8 -30 10 -23 26
-171 20 -186 -3 -8 -1 -20 5 -27 5 -6 17 -46 27 -87 9 -41 20 -82 24 -90 14
-27 39 -124 46 -175 11 -87 27 -179 35 -200 5 -11 11 -33 14 -50 11 -69 18
-102 28 -135 6 -19 12 -58 13 -85 0 -28 4 -55 7 -60 14 -25 29 -87 33 -141 3
-32 7 -72 10 -89 15 -81 58 -265 72 -302 8 -24 16 -69 18 -102 2 -33 11 -95
19 -138 13 -67 25 -191 26 -271 0 -13 3 -21 8 -19 4 3 8 -35 9 -85 1 -49 6
-104 12 -121 5 -18 10 -61 11 -97 0 -36 5 -83 10 -105 4 -22 9 -67 10 -100 1
-33 3 -73 6 -90 2 -16 7 -68 9 -115 3 -47 7 -103 10 -125 10 -70 16 -228 10
-252 l-5 -23 -143 5 c-78 3 -216 7 -307 11 -91 3 -199 12 -240 20 -41 8 -95
14 -120 14 -25 0 -99 14 -165 31 -66 16 -141 32 -166 34 -89 7 -134 16 -175
36 -22 10 -44 19 -48 19 -4 0 -22 7 -39 15 -18 8 -68 23 -112 34 -134 33 -209
56 -250 78 -22 11 -66 29 -97 39 -32 10 -58 22 -58 26 0 4 -3 7 -7 6 -5 -1
-24 2 -43 5 -19 4 -46 9 -60 11 -14 2 -38 9 -53 15 -16 6 -39 11 -53 11 -13 0
-57 11 -97 26 -39 14 -97 30 -127 35 -30 6 -68 19 -85 29 -16 9 -43 21 -60 25
-16 3 -32 10 -35 13 -7 9 -93 52 -103 52 -5 0 -59 25 -122 55 -62 30 -122 55
-134 55 -22 0 -61 32 -61 50 0 6 -24 23 -54 38 -29 15 -72 37 -95 50 l-41 22
0 91 c0 99 -3 108 -53 163 -20 21 -41 51 -47 67 -7 16 -16 29 -21 29 -4 0 -27
20 -51 44 -58 59 -125 96 -174 96 -21 0 -70 9 -109 19 -145 38 -256 8 -359
-97 -74 -74 -112 -153 -128 -263 -10 -75 -10 -91 4 -120 9 -19 23 -54 31 -79
32 -95 131 -250 159 -250 6 0 20 -8 30 -17 14 -12 39 -17 96 -18 42 -1 83 3
90 8 7 5 31 11 55 13 23 1 58 5 77 9 35 6 35 5 57 -47 12 -29 24 -66 28 -81 3
-16 16 -39 29 -52 13 -13 26 -39 30 -59 4 -20 11 -36 16 -36 6 0 10 -6 10 -14
0 -7 15 -60 34 -117 18 -57 42 -142 52 -189 9 -47 22 -88 28 -92 7 -5 11 -63
12 -160 1 -97 5 -164 13 -183 16 -38 22 -352 9 -485 -22 -231 -26 -263 -39
-271 -12 -7 -11 -11 1 -19 13 -9 13 -10 0 -10 -12 0 -13 -2 -1 -9 9 -6 9 -10
2 -12 -6 -2 -25 -69 -42 -149 -17 -80 -31 -149 -33 -155 -1 -5 -6 -25 -10 -43
-4 -19 -23 -64 -41 -100 -18 -37 -37 -83 -43 -102 -6 -19 -21 -66 -33 -105
-18 -56 -32 -79 -73 -120 l-51 -50 -124 -3 c-82 -2 -133 -8 -151 -17 -15 -8
-39 -16 -54 -19 -68 -12 -192 -120 -236 -204 -21 -40 -39 -49 -85 -43 -5 1 0
-6 12 -16 22 -17 22 -20 9 -68 -7 -28 -18 -60 -23 -70 -6 -11 -13 -56 -17
-100 -6 -65 -4 -87 10 -115 17 -37 102 -130 117 -130 5 0 31 -20 58 -44 100
-90 196 -122 284 -97 22 7 65 16 95 21 107 16 219 66 292 128 37 31 81 75 97
97 17 22 35 45 40 51 5 6 12 33 16 60 10 76 16 94 36 104 14 8 16 16 10 32 -5
14 -2 44 6 77 8 30 20 105 28 165 12 108 12 111 -8 127 -12 10 -18 23 -14 32
7 19 122 74 181 87 24 5 92 34 153 65 61 31 129 58 150 60 21 3 61 14 88 25
28 11 64 25 80 31 52 21 147 56 224 83 40 15 87 34 103 42 16 8 56 24 88 34
32 10 72 26 88 34 99 51 244 85 617 145 861 137 914 145 939 133 23 -10 102
-6 121 8 13 8 55 13 133 14 89 0 94 -7 98 -140 2 -59 0 -110 -4 -113 -4 -3
-13 -52 -19 -109 -6 -57 -16 -109 -23 -117 -6 -7 -16 -44 -21 -82 -5 -37 -12
-79 -15 -93 -8 -33 -13 -72 -18 -150 -2 -36 -11 -86 -20 -112 -9 -26 -16 -50
-14 -55 1 -4 -4 -26 -10 -48 -6 -22 -13 -56 -16 -75 -3 -19 -10 -66 -16 -105
-6 -38 -13 -88 -15 -110 -7 -73 -24 -200 -29 -220 -3 -11 -12 -47 -21 -80 -9
-33 -21 -77 -26 -97 -5 -21 -16 -38 -24 -38 -21 0 -28 -19 -15 -35 8 -10 10
-33 6 -68 -3 -28 -8 -68 -10 -87 -5 -54 -34 -236 -51 -325 -8 -44 -17 -97 -19
-117 -3 -20 -9 -54 -15 -75 -15 -59 -59 -282 -66 -338 -4 -27 -18 -93 -32
-145 -14 -52 -27 -120 -28 -150 -2 -30 -6 -64 -8 -75 -3 -12 -8 -48 -12 -80
-4 -33 -11 -73 -15 -90 -5 -16 -11 -46 -13 -65 -3 -19 -7 -42 -10 -50 -4 -8
-8 -26 -9 -40 -2 -14 -6 -29 -10 -35 -3 -5 -9 -31 -13 -58 -4 -26 -10 -49 -14
-51 -4 -3 -8 -35 -9 -73 -3 -82 -5 -89 -37 -238 -9 -41 -64 -214 -74 -234 -6
-11 -11 -39 -11 -63 0 -25 -11 -64 -25 -93 -14 -27 -25 -61 -26 -75 0 -14 -8
-54 -18 -90 -15 -58 -21 -67 -56 -87 -22 -13 -48 -23 -58 -23 -10 0 -34 -8
-55 -19 -20 -10 -70 -27 -111 -36 -63 -16 -85 -27 -153 -82 -44 -36 -91 -76
-103 -89 -12 -13 -27 -24 -33 -24 -12 0 -38 -52 -47 -95 -4 -16 -12 -46 -19
-65 -23 -61 -36 -106 -36 -123 0 -9 -9 -32 -20 -52 -12 -21 -20 -54 -20 -80 0
-46 38 -178 67 -230 34 -62 110 -138 175 -176 37 -21 73 -45 80 -52 15 -13 29
-16 109 -19 43 -1 65 4 100 24 24 14 88 47 142 74 53 26 97 50 97 53 0 4 13
21 28 38 16 17 41 53 57 79 15 27 33 56 40 64 20 24 66 110 59 110 -4 0 -2 6
4 13 6 7 12 80 13 180 1 94 8 198 15 235 8 37 16 80 19 97 2 16 9 31 15 33 6
2 17 10 24 18 8 8 18 14 22 14 3 0 40 23 82 51 41 28 89 53 106 56 17 3 33 8
36 11 3 4 12 8 20 10 8 2 47 18 85 37 60 28 104 46 125 50 3 1 32 7 65 14 33
7 71 15 85 18 14 4 30 7 37 9 6 1 27 7 45 12 18 6 40 10 48 10 18 0 86 10 120
17 14 3 36 8 50 10 14 2 36 7 50 12 30 11 263 9 346 -3 32 -4 89 -7 127 -6 41
2 67 -1 67 -8 0 -5 12 -10 28 -10 15 0 36 -6 47 -13 11 -7 34 -14 50 -15 17
-2 39 -7 50 -11 11 -5 47 -17 80 -27 33 -9 62 -20 65 -23 10 -13 62 -31 86
-31 14 0 37 -9 51 -20 14 -11 34 -20 45 -20 10 0 21 -7 24 -15 4 -8 12 -15 20
-15 7 0 19 -8 26 -19 7 -10 27 -25 43 -34 50 -25 87 -71 119 -143 31 -72 41
-166 24 -213 -17 -47 -24 -178 -12 -231 3 -14 16 -85 30 -159 14 -73 31 -145
40 -160 28 -51 39 -66 54 -75 8 -5 35 -29 60 -52 43 -41 80 -61 125 -70 61
-12 75 -16 75 -25 0 -5 15 -18 33 -29 26 -16 50 -20 122 -20 98 0 147 18 160
59 4 12 15 21 26 21 27 0 69 24 98 55 14 15 46 37 72 51 52 26 60 36 85 110
21 61 16 233 -8 279 -8 17 -18 55 -22 86 -3 33 -22 91 -46 142 -38 84 -41 87
-100 117 -34 17 -76 30 -97 30 -39 1 -73 18 -73 38 0 7 -12 14 -27 17 -16 4
-62 16 -104 27 -71 19 -77 24 -98 62 -26 50 -62 183 -54 203 3 8 1 18 -4 22
-15 9 -49 90 -57 132 -3 20 -22 75 -41 122 -19 48 -35 95 -35 104 0 10 -8 38
-16 63 -9 25 -23 72 -31 105 -14 57 -27 111 -59 235 -27 107 -44 176 -58 235
-7 33 -21 81 -30 107 -9 26 -21 66 -26 90 -5 24 -17 72 -26 108 -20 81 -30
145 -44 280 -6 58 -15 139 -20 180 -5 41 -14 122 -20 180 -6 58 -17 152 -25
210 -8 58 -19 152 -25 210 -6 58 -15 139 -20 180 -5 41 -14 122 -20 180 -6 58
-15 139 -20 180 -5 41 -14 122 -20 180 -6 58 -17 152 -25 210 -8 58 -19 152
-25 210 -6 58 -15 139 -20 180 -5 41 -14 122 -20 180 -6 58 -17 150 -26 205
-14 96 -13 402 1 510 3 22 5 44 4 49 -2 21 42 29 156 27 67 -1 137 -6 156 -11
19 -6 77 -10 129 -10 52 0 132 -4 176 -10 45 -5 115 -10 155 -11 41 -1 76 -6
79 -10 3 -5 59 -10 124 -13 65 -3 123 -9 129 -15 7 -5 36 -12 64 -16 29 -3 67
-11 85 -16 18 -5 52 -9 75 -9 23 0 53 -4 68 -10 26 -10 69 -19 113 -25 12 -2
40 -12 61 -23 20 -11 64 -25 97 -32 72 -15 216 -55 241 -68 20 -11 93 -30 178
-48 17 -3 46 -14 65 -24 59 -29 82 -38 155 -55 39 -9 90 -21 115 -27 25 -6 56
-17 70 -24 14 -7 60 -25 103 -39 44 -15 88 -36 98 -46 10 -10 24 -19 30 -19
11 0 69 -23 104 -42 83 -45 136 -73 171 -92 23 -11 54 -31 70 -44 30 -23 116
-77 194 -120 65 -36 120 -91 120 -120 0 -13 -9 -37 -20 -52 -22 -31 -20 -70 5
-100 13 -16 23 -50 31 -112 3 -21 7 -46 8 -55 1 -8 10 -19 19 -25 9 -5 24 -22
32 -38 8 -15 31 -38 52 -51 21 -13 56 -42 79 -66 43 -45 49 -47 149 -43 69 2
76 2 130 -6 42 -6 37 -8 183 88 24 15 54 28 67 28 16 0 29 9 39 28 9 15 29 40
46 56 23 23 30 38 30 68 0 21 9 56 20 78 43 84 10 229 -60 265 -32 16 -50 43
-50 72 0 34 -106 134 -181 171 -42 20 -60 22 -218 22 -134 0 -178 3 -201 15
-34 18 -60 62 -60 101 0 15 -7 32 -15 38 -9 6 -22 38 -31 71 -8 33 -22 74 -30
92 -7 17 -14 34 -14 38 0 7 -31 77 -52 118 -12 24 -50 316 -44 333 3 8 -1 17
-8 21 -17 10 -29 90 -16 98 6 4 7 18 4 32 -4 14 -2 62 4 107 6 44 18 142 26
216 11 95 23 153 40 195 14 33 26 68 26 77 0 20 25 100 46 145 8 17 14 38 14
46 0 19 59 145 71 153 5 3 9 16 9 28 0 13 6 29 14 35 8 6 17 36 20 65 4 32 18
72 35 97 15 24 34 60 43 79 23 50 52 80 75 80 11 0 46 9 78 20 32 11 67 20 77
20 10 0 32 7 48 15 16 8 38 16 50 18 31 5 109 64 119 90 5 13 26 41 46 62 38
41 86 140 105 216 6 24 15 58 19 74 13 53 -44 199 -101 259 -34 35 -100 70
-155 81 -104 21 -292 7 -312 -23 -12 -17 -101 -63 -111 -57 -5 3 -10 -1 -10
-9 0 -9 -8 -16 -19 -16 -19 0 -101 -83 -101 -102 0 -6 -14 -39 -31 -74 -32
-65 -37 -109 -24 -237 6 -56 -7 -87 -36 -87 -11 0 -33 -7 -48 -15 -17 -8 -42
-12 -63 -9 -35 6 -119 -24 -133 -46 -17 -28 -205 -98 -375 -141 -155 -38 -198
-46 -211 -39 -6 5 -30 2 -52 -6 -22 -8 -49 -14 -61 -14 -11 0 -32 -6 -46 -13
-57 -30 -305 -95 -317 -83 -2 2 -19 0 -36 -6 -18 -6 -46 -12 -64 -14 -18 -2
-45 -10 -60 -18 -16 -8 -42 -16 -58 -19 -17 -3 -49 -10 -72 -16 -24 -7 -103
-14 -175 -17 -144 -6 -175 -8 -198 -17 -58 -22 -304 -67 -329 -60 -11 3 -60
-5 -109 -16 -50 -12 -128 -23 -174 -25 -45 -2 -94 -7 -108 -10 -53 -12 -109
-18 -202 -21 -53 -3 -127 -9 -165 -16 -91 -14 -174 -13 -185 3 -5 7 -6 33 -3
58 2 25 6 79 6 120 2 67 7 119 40 380 5 41 9 82 10 90 1 8 8 46 15 83 8 37 15
96 15 130 2 55 28 220 46 287 4 14 8 90 9 170 1 80 6 157 12 171 6 15 9 29 7
31 -3 2 0 31 5 64 6 32 13 88 16 124 4 36 11 73 16 84 7 13 6 21 -2 26 -7 4
-9 13 -5 19 4 7 9 53 11 104 5 111 13 161 48 292 15 55 31 147 37 205 20 209
82 485 112 502 13 6 15 13 8 21 -14 18 16 273 36 300 5 7 10 29 12 50 1 21 9
50 17 65 8 15 14 34 14 42 0 9 4 20 9 25 10 11 53 130 77 210 8 27 14 72 14
100 0 28 9 75 20 105 12 30 27 71 34 92 16 45 56 97 76 98 8 0 26 7 40 14 21
12 29 12 52 0 18 -9 77 -17 165 -21 129 -5 140 -4 173 16 19 11 46 21 58 21
38 0 129 102 173 196 27 54 47 85 64 92 21 10 25 18 25 59 1 27 7 59 15 73 8
14 14 46 15 72 0 37 -4 50 -20 58 -27 14 -50 62 -50 103 0 29 -6 37 -47 64
-134 84 -130 83 -360 83 -162 -1 -214 -4 -233 -15 -14 -8 -34 -15 -45 -15 -11
0 -39 -19 -63 -43 -56 -55 -162 -215 -162 -245 0 -13 -11 -47 -25 -76 -14 -29
-28 -68 -31 -87 -10 -48 -32 -89 -49 -89 -8 0 -15 -4 -15 -10 0 -5 -6 -10 -14
-10 -7 0 -40 -12 -72 -26 -33 -14 -70 -26 -84 -26 -14 0 -38 -7 -55 -15 -16
-9 -56 -17 -88 -19 -32 -1 -64 -7 -70 -12 -32 -24 -129 -44 -227 -47 -120 -4
-224 -19 -279 -41 -31 -12 -53 -13 -106 -6 -37 5 -86 6 -109 1 -36 -6 -235
-22 -291 -22 -63 -1 -240 14 -244 20 -3 5 -19 8 -36 7 -16 0 -59 8 -95 19 -36
11 -93 25 -127 31 -34 6 -65 14 -69 19 -4 4 -20 7 -35 7 -15 0 -31 5 -34 10
-3 6 -15 10 -25 10 -23 0 -130 47 -130 58 -7 130 -15 179 -42 257 -35 103 -58
151 -87 182 -12 12 -21 27 -21 32 0 6 -15 14 -33 19 -18 5 -54 25 -80 45 -26
20 -56 38 -67 42 -11 3 -20 10 -20 15 0 16 -67 30 -159 33 -51 1 -98 -1 -104
-5z"/>
</g>
</svg>
