<?xml version="1.0" standalone="no"?>
<!DOCTYPE svg PUBLIC "-//W3C//DTD SVG 20010904//EN"
 "http://www.w3.org/TR/2001/REC-SVG-20010904/DTD/svg10.dtd">
<svg version="1.0" xmlns="http://www.w3.org/2000/svg"
 width="728.000000pt" height="776.000000pt" viewBox="0 0 728.000000 776.000000"
 preserveAspectRatio="xMidYMid meet">
<metadata>
Created by potrace 1.13, written by Peter Selinger 2001-2015
</metadata>
<g transform="translate(0.000000,776.000000) scale(0.100000,-0.100000)"
fill="#000000" stroke="none">
<path d="M4190 7130 c-11 -11 -20 -26 -20 -32 -1 -7 -2 -37 -4 -65 -2 -29 0
-53 5 -53 19 0 28 -77 27 -230 0 -102 -5 -168 -11 -172 -11 -6 -40 -104 -57
-193 -12 -61 -44 -90 -109 -100 -25 -4 -62 -16 -81 -28 -32 -20 -48 -22 -165
-20 -151 1 -483 52 -553 83 -23 11 -49 20 -57 20 -9 0 -42 18 -75 40 -62 43
-104 103 -116 166 -3 19 -12 34 -20 34 -8 0 -14 3 -14 8 -1 4 -8 52 -17 107
-8 55 -15 129 -14 164 0 35 -4 70 -10 77 -6 7 -8 21 -5 31 13 39 9 101 -6 117
-14 14 -27 14 -129 0 -127 -16 -179 -25 -289 -49 -62 -14 -110 -16 -275 -11
-191 6 -336 -3 -376 -24 -9 -5 -102 -7 -205 -4 -104 3 -265 6 -359 8 -93 2
-197 8 -230 14 -33 6 -102 14 -154 18 l-93 6 -44 -47 c-24 -26 -42 -50 -40
-53 7 -12 25 -185 27 -262 1 -41 6 -81 11 -87 10 -13 11 -235 3 -903 -9 -749
-13 -841 -46 -1020 -26 -145 -1 -187 89 -145 46 21 65 24 184 23 130 0 189
-10 216 -35 7 -7 30 -16 51 -19 29 -5 41 -13 53 -38 37 -76 58 -128 58 -141 0
-7 9 -29 19 -47 24 -40 44 -100 66 -193 8 -38 21 -88 27 -110 7 -22 13 -94 14
-160 2 -101 -1 -127 -18 -166 l-20 -46 -69 -12 c-93 -15 -193 -14 -286 4 -43
9 -120 20 -171 25 -79 7 -97 6 -122 -8 -31 -18 -32 -21 -18 -132 12 -93 15
-119 23 -245 4 -55 11 -104 16 -109 5 -6 9 -83 9 -173 0 -109 4 -163 11 -163
6 0 8 -9 3 -22 -4 -13 -9 -183 -10 -378 -4 -468 -11 -787 -19 -830 -4 -19 -8
-82 -9 -140 -2 -58 -8 -138 -15 -179 -6 -41 -12 -113 -12 -160 0 -53 -7 -105
-17 -135 -17 -49 -17 -49 7 -64 37 -25 173 -23 357 4 125 19 195 24 310 22 82
-1 300 1 484 6 379 9 412 9 446 -4 13 -5 54 -12 91 -16 38 -3 86 -12 108 -19
22 -7 83 -16 135 -20 52 -4 106 -13 120 -20 14 -7 57 -20 95 -29 39 -10 88
-26 109 -37 33 -17 44 -18 67 -9 27 11 28 14 22 63 -3 29 -9 59 -13 67 -11 21
-2 168 15 265 8 44 17 98 20 120 3 22 10 64 15 94 6 30 10 73 10 96 0 43 13
65 40 65 9 0 21 5 28 12 6 6 31 12 55 13 71 4 131 16 147 30 8 7 47 16 85 19
39 4 90 10 115 14 105 14 294 -13 424 -61 31 -11 42 -22 52 -53 22 -61 54
-182 54 -203 0 -10 6 -21 14 -24 8 -3 17 -19 21 -35 3 -17 13 -33 21 -36 8 -3
14 -18 14 -33 0 -16 7 -38 15 -49 8 -12 12 -24 8 -27 -3 -3 -2 -14 2 -24 7
-16 12 -74 18 -211 3 -55 21 -67 63 -41 17 10 41 19 53 19 11 0 21 5 21 10 0
7 28 10 73 9 40 -1 121 8 182 19 61 12 141 22 178 22 37 0 103 7 145 16 94 20
410 25 457 7 37 -14 176 -30 360 -43 77 -5 158 -16 180 -24 22 -8 66 -17 99
-21 45 -6 60 -12 63 -26 4 -15 15 -19 57 -20 28 0 83 -6 122 -13 99 -18 119
-8 143 69 9 30 10 47 1 70 -21 55 -31 170 -36 420 -5 283 -5 355 1 364 2 4 7
90 11 191 10 266 12 315 14 315 3 0 11 108 14 180 3 127 16 273 32 368 8 48
12 92 9 97 -3 5 -1 11 5 15 6 4 8 11 5 16 -7 11 20 171 41 246 8 28 16 84 19
123 4 77 -5 100 -42 100 -10 0 -38 7 -63 16 -24 8 -107 19 -184 24 -77 5 -142
13 -145 19 -3 5 -35 11 -71 14 -87 7 -188 32 -218 54 -28 21 -46 53 -61 108
-14 49 -15 71 -13 203 2 83 5 102 17 102 8 0 15 6 16 13 0 6 3 21 6 32 2 11 6
35 8 52 2 18 11 53 20 78 8 25 15 57 15 72 0 23 12 67 42 158 5 17 13 46 18
65 20 94 67 127 164 115 41 -5 56 -4 56 5 0 8 9 10 28 6 15 -4 69 -11 120 -16
51 -5 107 -14 125 -19 18 -5 64 -14 102 -19 39 -5 78 -12 87 -16 38 -17 41
110 4 214 -9 25 -16 55 -16 67 0 13 -11 55 -24 95 -13 40 -27 107 -31 148 -3
41 -8 89 -10 105 -2 17 -5 68 -6 115 -1 47 -4 90 -8 95 -3 6 -7 93 -8 195 -2
245 -14 596 -27 751 -10 129 -18 307 -21 515 -3 192 -4 202 -26 237 -25 37
-37 46 -102 66 -27 9 -42 10 -51 2 -7 -6 -16 -8 -20 -4 -9 9 -110 3 -116 -7
-6 -9 -62 -6 -79 4 -6 4 -67 3 -134 -3 -90 -9 -143 -9 -197 0 -41 6 -93 11
-115 11 -22 -1 -84 6 -138 14 -54 8 -103 12 -108 8 -13 -7 -356 -7 -368 1 -6
3 -38 6 -73 6 -35 1 -80 7 -100 14 -22 7 -65 10 -110 7 -58 -3 -82 -1 -108 13
-18 9 -56 21 -84 26 -109 18 -122 21 -153 35 -49 22 -148 19 -173 -6z m995
-705 c22 -2 94 -6 159 -9 65 -4 122 -8 125 -10 3 -2 33 -7 66 -10 122 -12 236
-36 253 -53 7 -7 22 -13 32 -13 10 0 22 -5 25 -11 4 -6 12 -8 19 -6 20 8 52
-25 69 -73 16 -42 36 -350 34 -510 0 -30 0 -86 1 -125 2 -38 0 -104 -2 -145
-3 -41 -8 -118 -11 -171 -3 -53 -12 -134 -21 -180 -9 -46 -18 -102 -19 -124
-1 -22 -9 -88 -19 -148 -9 -59 -18 -136 -20 -172 -5 -80 -43 -167 -84 -192
-19 -12 -115 -32 -268 -57 -132 -21 -244 -43 -251 -48 -7 -5 -21 -7 -32 -3
-10 3 -86 -5 -168 -19 -81 -13 -213 -29 -293 -36 -163 -13 -688 -17 -737 -6
-27 6 -33 13 -40 49 -9 48 -9 59 2 142 4 33 7 146 7 250 0 186 4 232 33 445 8
58 17 141 21 185 11 151 13 176 24 214 22 82 31 150 35 256 3 76 13 140 30
205 14 52 26 104 26 115 0 30 40 84 76 101 18 9 35 24 38 34 12 39 77 72 196
100 30 7 59 16 64 21 6 4 38 10 70 12 56 4 470 -2 560 -8z m-3145 -5 c11 -6
36 -6 62 -1 26 4 55 4 69 -2 27 -10 238 -38 248 -33 5 3 52 -4 216 -34 33 -7
91 -14 129 -16 62 -4 116 -22 166 -53 8 -5 29 -15 47 -21 28 -11 34 -19 44
-66 7 -30 16 -57 21 -60 4 -3 8 -16 8 -29 0 -13 5 -27 10 -30 6 -3 10 -23 10
-44 0 -20 5 -42 11 -48 6 -6 14 -41 16 -77 3 -37 10 -69 14 -72 5 -3 9 -17 9
-32 0 -15 9 -65 20 -112 10 -47 25 -132 31 -190 20 -180 28 -242 44 -345 8
-55 17 -118 19 -140 2 -22 6 -47 9 -55 3 -8 8 -70 12 -138 3 -67 9 -132 11
-145 7 -26 23 -252 24 -321 0 -38 -3 -47 -15 -43 -8 4 -60 -1 -117 -9 -58 -9
-125 -13 -153 -10 -27 4 -149 9 -270 11 -274 6 -245 4 -342 21 -144 25 -518
65 -537 58 -8 -3 -30 2 -51 10 -21 9 -48 16 -62 16 -13 0 -43 10 -66 23 -23
13 -62 29 -86 36 -24 7 -49 17 -55 22 -6 5 -34 27 -62 49 -68 52 -61 35 -94
255 -7 44 -16 85 -21 91 -5 6 -11 38 -15 70 -3 32 -7 69 -10 81 -2 12 -7 55
-10 95 -3 40 -9 87 -14 103 -5 17 -9 65 -10 107 0 43 -4 88 -8 100 -5 13 -7
55 -6 93 2 39 3 115 2 170 -2 438 -2 468 17 573 9 48 56 98 103 107 15 3 41
10 57 15 17 5 128 9 247 9 139 -1 222 3 234 10 24 13 70 14 94 1z m1233 -2756
l29 -6 -6 -121 c-4 -67 -9 -156 -13 -197 -8 -96 -7 -185 1 -199 4 -6 3 -19 -2
-28 -12 -23 -20 -76 -28 -188 -3 -49 -8 -93 -11 -97 -2 -5 0 -8 5 -8 5 0 5
-21 1 -47 -25 -148 -39 -262 -33 -277 3 -9 -3 -60 -15 -114 -23 -107 -36 -190
-32 -209 1 -7 -4 -48 -12 -90 -8 -43 -15 -118 -17 -168 -2 -49 -3 -106 -4
-125 -1 -20 -9 -47 -19 -60 -9 -13 -17 -32 -17 -42 0 -23 -37 -66 -75 -86 -16
-9 -68 -20 -115 -25 -167 -16 -226 -24 -275 -36 -175 -45 -160 -43 -310 -43
-27 1 -63 0 -80 -1 -16 0 -73 0 -125 1 -52 2 -142 3 -200 3 -58 0 -110 5 -117
11 -8 6 -18 6 -32 -1 -25 -14 -67 -14 -92 0 -11 6 -44 12 -72 14 -68 4 -136
18 -165 34 -46 25 -57 57 -59 176 -2 131 -2 133 0 188 0 23 0 80 -2 127 -1 47
3 137 10 200 6 63 13 178 14 255 1 77 6 154 9 170 4 17 7 52 7 79 0 28 7 93
15 145 8 53 19 132 25 176 6 44 21 109 34 145 13 36 29 90 36 120 6 30 15 69
19 85 3 17 16 35 29 41 12 6 32 21 45 33 15 14 35 21 62 21 40 0 116 20 169
44 25 11 212 30 279 28 10 -1 24 5 32 12 11 12 54 20 154 32 14 1 52 7 85 14
33 6 110 14 170 17 61 3 112 7 115 10 6 6 545 -6 583 -13z m920 -55 c55 -7 82
-7 91 0 9 8 50 8 137 1 68 -5 144 -9 169 -9 25 1 63 -3 85 -9 54 -14 154 -25
245 -27 74 -2 97 -4 255 -26 123 -16 126 -17 190 -30 33 -7 62 -15 65 -19 3
-4 28 -12 55 -20 28 -7 60 -19 72 -26 11 -7 32 -16 45 -18 52 -12 130 -43 138
-56 4 -7 6 -19 4 -25 -3 -7 6 -28 19 -48 17 -26 27 -60 36 -129 6 -51 18 -140
26 -198 29 -203 47 -627 36 -825 -6 -99 -13 -255 -17 -347 -8 -198 -15 -216
-98 -253 -50 -22 -68 -24 -242 -26 -341 -4 -439 5 -976 88 -131 21 -238 40
-238 44 0 3 -11 22 -23 41 -13 19 -26 45 -29 59 -8 34 -27 87 -48 134 -25 56
-29 78 -46 254 -8 86 -19 197 -25 246 -49 439 -89 987 -89 1217 0 29 -6 29
163 7z"/>
</g>
</svg>
