<?xml version="1.0" standalone="no"?>
<!DOCTYPE svg PUBLIC "-//W3C//DTD SVG 20010904//EN"
 "http://www.w3.org/TR/2001/REC-SVG-20010904/DTD/svg10.dtd">
<svg version="1.0" xmlns="http://www.w3.org/2000/svg"
 width="728.000000pt" height="776.000000pt" viewBox="0 0 728.000000 776.000000"
 preserveAspectRatio="xMidYMid meet">
<metadata>
Created by potrace 1.13, written by Peter Selinger 2001-2015
</metadata>
<g transform="translate(0.000000,776.000000) scale(0.100000,-0.100000)"
fill="#000000" stroke="none">
<path d="M4071 7162 c-14 -26 -14 -95 -1 -108 13 -13 16 -257 4 -276 -5 -7
-14 -33 -21 -58 -13 -52 -6 -65 45 -87 28 -12 37 -11 65 1 96 43 134 47 375
44 127 -2 232 -1 232 2 0 5 237 0 785 -19 326 -11 505 -26 505 -42 0 -5 5 -9
12 -9 6 0 28 -8 49 -17 27 -12 42 -26 49 -48 15 -46 26 -246 24 -430 -1 -88
-5 -401 -8 -695 -6 -488 -11 -612 -22 -632 -2 -4 -7 -37 -10 -75 -3 -37 -9
-86 -14 -108 -5 -22 -10 -62 -10 -88 0 -27 -5 -57 -10 -67 -7 -14 -7 -25 1
-38 10 -16 17 -17 53 -8 23 5 97 10 166 10 113 1 129 -1 165 -22 31 -18 53
-23 90 -20 l50 3 -1 53 c-1 29 -6 58 -11 65 -5 6 -10 25 -11 40 -1 15 -6 36
-12 47 -27 51 -37 220 -46 838 -4 309 -3 412 6 412 7 0 8 5 3 13 -4 6 -8 68
-9 137 -1 166 -12 443 -24 610 -6 74 -10 201 -10 282 l0 146 -29 30 c-34 33
-70 43 -127 36 -97 -14 -462 -4 -559 14 -22 4 -65 4 -95 0 -62 -8 -1090 -2
-1160 7 -24 3 -48 9 -54 15 -5 5 -30 6 -56 3 -28 -3 -62 0 -82 7 -46 17 -162
41 -230 47 -49 4 -58 2 -67 -15z"/>
<path d="M2815 7129 c-60 -10 -121 -20 -135 -23 -14 -3 -284 -8 -600 -11 -316
-3 -595 -9 -620 -14 -55 -11 -518 -4 -583 9 -74 15 -85 13 -102 -20 -9 -17
-30 -39 -46 -49 -48 -29 -69 -72 -69 -142 0 -33 4 -68 9 -78 12 -21 14 -194 7
-556 -3 -154 -8 -587 -11 -962 -3 -423 -9 -693 -16 -710 -5 -14 -10 -51 -11
-81 -2 -73 15 -87 92 -75 68 10 214 9 255 -2 17 -4 45 -19 63 -32 20 -15 43
-23 60 -21 25 3 27 6 26 48 -1 25 -6 63 -13 85 -13 47 -17 143 -31 720 -6 237
-13 509 -17 605 -9 251 -9 677 0 732 7 38 15 53 44 75 36 28 37 28 212 31 98
1 188 7 203 13 15 6 37 7 50 3 13 -4 43 -8 68 -9 25 -1 62 -5 84 -10 26 -5 40
-4 45 4 6 8 96 9 372 1 427 -12 475 -14 594 -34 139 -22 242 -29 250 -17 13
22 7 112 -9 130 -9 10 -16 27 -16 38 0 11 -7 37 -15 56 -16 40 -21 212 -6 221
26 16 14 98 -14 95 -5 -1 -59 -9 -120 -20z"/>
<path d="M3161 6606 c-6 -7 -14 -34 -17 -60 -6 -40 -4 -50 15 -70 13 -13 25
-43 28 -65 3 -23 10 -44 14 -47 5 -3 9 -27 9 -54 0 -27 5 -52 10 -55 6 -3 10
-19 10 -35 0 -16 5 -41 11 -57 6 -15 12 -56 14 -89 3 -34 9 -81 14 -105 14
-63 20 -179 32 -584 5 -198 16 -499 24 -670 8 -170 14 -359 15 -420 l0 -110
-43 -5 c-58 -7 -305 -3 -639 10 -156 6 -470 17 -698 25 -551 20 -667 31 -726
64 -30 18 -31 18 -58 -4 -26 -20 -28 -26 -21 -66 3 -24 15 -67 27 -96 18 -47
19 -67 14 -230 -3 -98 -8 -212 -12 -253 -6 -75 -6 -76 21 -88 24 -11 30 -10
58 14 18 15 38 35 44 44 18 25 130 49 258 54 61 2 216 9 345 15 355 15 749 25
1108 29 l322 3 0 -138 c0 -76 -6 -271 -14 -433 -9 -162 -20 -410 -26 -550 -16
-398 -30 -682 -41 -845 -6 -82 -13 -184 -16 -225 -2 -42 -11 -82 -18 -90 -8
-9 -11 -27 -8 -43 3 -15 0 -34 -8 -43 -11 -14 -10 -19 9 -35 33 -26 99 -33
226 -24 216 15 484 10 517 -11 4 -2 14 17 24 42 19 51 16 135 -7 176 -7 12
-13 30 -15 38 -1 8 -6 51 -12 95 -15 115 -29 366 -41 710 -6 165 -15 388 -20
495 -18 352 -29 714 -23 797 l6 82 111 -5 c61 -2 251 -8 421 -14 779 -24 1308
-48 1360 -61 79 -20 176 -62 188 -80 14 -22 35 -24 73 -7 24 11 26 16 20 58
-3 25 -9 104 -12 175 -6 119 -4 135 16 190 12 33 26 87 31 120 5 33 18 72 29
87 11 15 20 33 20 40 0 8 7 24 16 36 9 13 14 29 11 36 -8 20 -106 29 -132 12
-11 -7 -45 -17 -75 -21 -30 -3 -71 -11 -90 -15 -19 -5 -253 -19 -520 -30 -267
-11 -573 -25 -680 -30 -289 -15 -742 -24 -775 -16 l-28 7 6 507 c5 453 17 953
31 1252 3 58 12 137 21 175 8 39 18 113 21 165 3 52 9 97 13 100 10 6 41 70
41 83 0 6 7 19 17 29 15 17 15 20 -3 54 -32 60 -61 64 -169 20 -92 -36 -217
-34 -440 10 -44 9 -102 20 -130 25 -27 4 -60 11 -71 14 -12 2 -27 -1 -33 -9z"/>
<path d="M723 3441 c-20 -26 -21 -37 -16 -132 3 -57 9 -109 14 -115 5 -7 9
-108 8 -225 -1 -118 -3 -542 -3 -944 -2 -660 -12 -1004 -30 -1034 -4 -5 -6
-40 -7 -78 0 -37 -5 -83 -11 -101 -8 -27 -7 -35 6 -45 22 -16 146 -14 251 3
99 17 167 18 953 19 534 0 649 -2 735 -16 56 -9 131 -18 167 -20 36 -2 74 -8
85 -13 11 -5 45 -16 75 -25 30 -9 65 -21 76 -27 36 -17 59 -6 62 31 2 18 0 40
-4 49 -4 10 -8 32 -9 50 -1 18 -7 38 -13 44 -18 18 -16 223 3 284 8 27 15 57
15 67 0 20 -34 70 -42 62 -3 -3 -31 -8 -64 -11 -128 -12 -192 -21 -261 -38
-65 -16 -132 -17 -730 -13 -362 2 -674 7 -693 10 -72 11 -129 29 -142 44 -8
10 -14 49 -15 102 -1 47 -3 91 -3 96 -1 6 1 89 4 185 2 96 7 409 10 695 4 286
8 530 10 542 3 12 10 131 16 264 12 231 11 243 -6 256 -10 7 -25 10 -34 6 -8
-4 -55 -9 -105 -11 -90 -4 -154 8 -186 35 -8 7 -23 13 -32 13 -9 0 -19 5 -22
10 -12 19 -41 10 -62 -19z"/>
<path d="M6139 3403 c-67 -7 -73 -24 -60 -165 38 -392 40 -433 41 -983 2 -547
-11 -939 -32 -978 -5 -10 -30 -27 -56 -38 -45 -20 -62 -20 -402 -15 -889 14
-1055 21 -1245 56 -27 5 -91 17 -140 26 -85 16 -93 16 -123 0 -17 -9 -32 -24
-32 -34 0 -28 38 -153 52 -169 17 -20 30 -139 31 -273 0 -113 7 -129 45 -104
13 9 60 19 105 24 45 5 89 11 97 14 8 3 67 10 130 16 63 6 149 16 190 22 117
17 935 10 1075 -9 61 -9 162 -19 225 -23 63 -4 142 -15 175 -24 32 -9 67 -16
77 -16 10 0 18 -6 18 -14 0 -17 186 -32 205 -16 21 18 24 59 9 144 -9 50 -15
160 -16 286 -1 182 2 274 17 535 2 39 6 302 9 586 3 284 8 538 11 565 21 209
20 201 40 314 32 184 35 212 25 225 -16 20 -114 34 -265 39 -77 2 -147 6 -155
8 -8 3 -31 3 -51 1z"/>
</g>
</svg>
