<?xml version="1.0" standalone="no"?>
<!DOCTYPE svg PUBLIC "-//W3C//DTD SVG 20010904//EN"
 "http://www.w3.org/TR/2001/REC-SVG-20010904/DTD/svg10.dtd">
<svg version="1.0" xmlns="http://www.w3.org/2000/svg"
 width="3599.000000pt" height="1120.000000pt" viewBox="0 0 3599.000000 1120.000000"
 preserveAspectRatio="xMidYMid meet">
<metadata>
Created by potrace 1.13, written by Peter Selinger 2001-2015
</metadata>
<g transform="translate(0.000000,1120.000000) scale(0.100000,-0.100000)"
fill="#000000" stroke="none">
<path d="M16843 10702 c-17 -4 -52 -21 -76 -38 -42 -30 -45 -35 -51 -90 -4
-33 -9 -70 -10 -84 -2 -14 -11 -43 -21 -65 -9 -22 -19 -49 -21 -61 -2 -12 -10
-39 -18 -62 -8 -22 -12 -43 -9 -46 3 -3 -2 -26 -11 -50 -14 -38 -29 -53 -56
-61 -3 0 -15 -4 -28 -9 -12 -4 -37 -3 -55 3 -28 9 -115 15 -157 11 -8 -1 -41
3 -73 10 -66 13 -88 8 -122 -26 -21 -21 -24 -32 -24 -101 1 -43 -4 -89 -9
-103 -6 -16 -6 -34 0 -50 5 -14 11 -34 14 -45 2 -11 6 -32 10 -47 3 -15 7 -42
9 -61 3 -39 24 -82 54 -114 23 -24 74 -41 137 -45 21 -2 41 -6 44 -10 8 -10
108 -12 160 -4 72 12 88 -9 95 -124 3 -50 8 -104 20 -185 6 -45 -13 -94 -38
-100 -12 -3 -51 -10 -87 -15 -36 -5 -86 -13 -112 -18 -29 -5 -48 -5 -48 0 0 5
-4 7 -9 3 -5 -3 -83 -6 -173 -8 -90 -1 -166 -6 -170 -11 -4 -6 -12 -5 -20 2
-15 12 -65 7 -84 -9 -6 -5 -13 -7 -16 -4 -17 18 -323 22 -385 6 -75 -20 -129
-22 -211 -8 -54 10 -95 12 -120 6 -20 -4 -66 -9 -102 -9 -36 -1 -74 -1 -85 -2
-11 0 -36 1 -55 1 -45 2 -115 -5 -127 -12 -5 -3 -50 -6 -99 -7 -49 0 -122 -2
-163 -5 -44 -3 -80 0 -87 6 -7 6 -23 8 -36 4 -32 -10 -107 -67 -108 -82 0 -7
-5 -13 -11 -13 -6 0 -9 -12 -8 -27 2 -16 -5 -44 -14 -63 -39 -83 -48 -218 -17
-255 12 -15 19 -53 27 -152 6 -83 37 -105 128 -90 22 4 65 9 95 12 30 3 87 12
125 20 39 8 121 14 183 14 62 0 116 2 120 5 4 2 55 7 113 10 58 4 119 10 136
15 17 5 73 7 125 4 194 -12 492 -5 540 12 38 13 89 18 258 21 210 5 251 7 370
22 137 18 146 16 164 -32 9 -23 16 -47 16 -54 0 -7 5 -12 11 -12 6 0 8 -9 4
-21 -4 -12 -2 -39 5 -60 10 -30 10 -42 1 -53 -9 -10 -9 -16 -1 -21 12 -8 9
-122 -4 -143 -4 -7 -3 -12 1 -12 5 0 9 -17 10 -37 0 -21 4 -92 8 -158 4 -66 7
-126 8 -132 0 -7 3 -13 7 -13 7 0 10 -57 9 -160 -2 -164 -5 -240 -9 -240 -3 0
-4 -37 -2 -83 3 -80 11 -348 12 -397 1 -25 -8 -222 -15 -340 -2 -36 -6 -75 -9
-87 -2 -11 -8 -42 -11 -67 -4 -25 -12 -46 -17 -46 -5 0 -6 -10 -2 -22 9 -28 8
-323 -1 -337 -3 -6 -1 -11 5 -11 7 0 9 -8 4 -22 -12 -37 -15 -119 -17 -371 -1
-132 2 -241 6 -244 4 -3 3 -10 -2 -17 -6 -7 -8 -23 -5 -37 3 -13 7 -58 9 -99
1 -41 5 -95 8 -120 10 -89 19 -205 17 -220 -5 -38 -6 -369 0 -442 3 -51 1 -93
-6 -115 -12 -35 -27 -97 -28 -122 -1 -20 -53 -23 -60 -4 -4 8 -13 13 -21 9
-14 -5 -41 4 -183 62 -67 27 -142 33 -165 13 -8 -6 -20 -33 -27 -59 -8 -26
-20 -57 -28 -69 -10 -16 -12 -34 -7 -60 4 -21 9 -49 12 -63 7 -42 8 -209 0
-216 -4 -4 -5 -24 -2 -43 19 -117 51 -161 120 -161 29 0 55 -9 88 -30 26 -16
50 -30 53 -30 3 0 17 -11 32 -25 15 -14 55 -34 90 -46 35 -12 77 -34 93 -50
16 -16 34 -29 39 -29 6 0 10 -4 10 -9 0 -5 5 -22 12 -38 11 -27 13 -76 19
-338 2 -113 -6 -414 -16 -570 -2 -38 -6 -137 -8 -220 -8 -246 -34 -305 -147
-330 -16 -4 -30 -11 -30 -17 0 -6 -11 -8 -25 -6 -14 3 -25 2 -25 -1 0 -4 -19
-11 -42 -17 -32 -7 -48 -17 -65 -44 -13 -19 -28 -41 -34 -48 -6 -8 -11 -32
-11 -55 1 -23 -4 -47 -10 -54 -5 -7 -8 -18 -5 -25 7 -20 -39 -103 -67 -122
-14 -9 -26 -13 -26 -9 0 5 -5 1 -10 -7 -7 -11 -12 -12 -18 -3 -4 7 -25 10 -52
8 -25 -2 -51 2 -59 8 -8 7 -17 10 -20 9 -3 -2 -13 16 -21 40 -9 23 -28 68 -43
98 -14 31 -27 71 -28 90 -2 19 -7 40 -11 47 -5 6 -11 38 -13 70 -2 32 -9 92
-14 133 -6 41 -13 107 -15 145 -3 39 -12 84 -20 100 -9 17 -16 45 -16 63 0 17
-5 32 -10 32 -6 0 -10 6 -8 12 2 7 -2 31 -9 53 -21 74 -61 268 -67 327 -2 15
-9 34 -16 43 -9 11 -9 19 -2 28 8 10 6 22 -10 48 -12 18 -22 52 -24 74 -4 69
-40 259 -62 330 -18 58 -24 90 -24 125 0 13 -8 36 -19 51 -10 15 -24 51 -30
80 -6 30 -15 59 -19 64 -11 15 -31 105 -26 114 10 15 -34 215 -73 330 -11 35
-21 79 -21 97 0 18 -4 35 -9 38 -4 3 -7 21 -4 41 2 19 -1 35 -6 35 -11 0 -42
92 -47 140 -2 19 -6 64 -9 100 -3 35 -12 78 -20 95 -7 16 -16 52 -20 78 -3 27
-12 59 -20 70 -14 23 -27 68 -44 157 -24 120 -37 168 -53 193 -27 40 -47 144
-53 264 -2 40 -7 83 -11 95 -4 13 -8 37 -9 53 -2 32 -19 91 -40 140 -8 17 -20
46 -29 65 -8 19 -22 73 -31 120 -24 124 -27 141 -26 185 1 22 -6 54 -14 71 -8
16 -17 49 -21 72 -4 24 -11 45 -15 48 -5 3 -9 17 -9 32 0 15 -11 58 -25 96
-14 38 -25 86 -24 105 1 20 -6 70 -15 111 -31 142 -36 176 -34 211 1 18 -1 51
-5 71 -8 36 -6 39 25 52 18 7 57 24 87 37 78 34 171 130 171 177 0 31 -49 72
-94 78 -34 5 -53 19 -107 74 -37 37 -70 74 -75 83 -5 8 -35 42 -66 76 -32 34
-58 68 -58 76 0 8 -8 20 -17 27 -28 20 -50 67 -63 133 -18 91 -62 128 -139
118 -64 -9 -83 -43 -79 -150 2 -63 0 -84 -11 -88 -11 -4 -11 -8 -1 -20 7 -8 8
-15 3 -15 -6 0 -10 -47 -11 -112 0 -121 -4 -157 -16 -176 -10 -17 -17 -55 -21
-116 -2 -37 -8 -53 -28 -70 -70 -59 -58 -164 24 -196 19 -7 46 -24 60 -37 22
-21 34 -24 72 -20 55 6 66 -4 97 -83 12 -30 21 -56 21 -57 -1 -2 -1 -4 0 -5 6
-21 5 -38 -2 -38 -5 0 -9 -7 -9 -15 0 -8 6 -15 14 -15 14 0 24 -33 32 -115 3
-27 12 -64 19 -81 21 -45 87 -310 92 -369 4 -44 24 -130 54 -235 6 -19 10 -44
10 -55 0 -10 4 -24 8 -30 4 -5 14 -32 20 -59 7 -28 23 -73 36 -100 14 -31 26
-81 30 -126 11 -132 15 -164 21 -190 3 -14 8 -38 11 -55 2 -16 7 -37 10 -45 3
-8 7 -22 9 -30 2 -8 7 -23 12 -35 25 -52 42 -108 42 -140 0 -18 5 -37 10 -40
6 -3 10 -16 10 -29 0 -12 3 -26 7 -30 4 -3 8 -16 10 -29 2 -12 8 -26 13 -31 6
-6 10 -19 10 -31 0 -12 4 -25 9 -30 15 -15 43 -124 47 -177 1 -26 6 -53 10
-60 4 -6 8 -39 9 -72 1 -41 11 -82 28 -123 15 -34 27 -69 27 -78 0 -8 4 -15 9
-15 5 0 13 -29 16 -65 4 -36 11 -65 15 -65 8 0 32 -106 36 -155 1 -16 9 -53
17 -82 8 -28 13 -54 10 -56 -5 -5 41 -196 56 -232 19 -46 29 -93 29 -132 -1
-25 7 -52 19 -70 19 -27 30 -63 39 -128 2 -16 9 -43 14 -60 9 -29 20 -124 25
-213 1 -23 5 -46 9 -49 3 -3 6 -16 6 -27 0 -12 9 -45 19 -73 10 -29 17 -54 14
-57 -3 -2 5 -44 16 -93 11 -48 22 -104 24 -123 2 -20 12 -50 21 -69 10 -18 19
-42 20 -54 6 -41 19 -87 26 -92 4 -2 6 -25 4 -50 -2 -25 0 -45 5 -45 5 0 9
-17 8 -38 0 -36 11 -99 39 -217 8 -33 16 -85 18 -115 2 -30 9 -82 15 -115 6
-33 13 -76 16 -95 7 -52 14 -87 24 -112 4 -13 6 -29 4 -35 -3 -7 1 -30 8 -50
28 -85 17 -197 -22 -221 -32 -20 -139 -38 -139 -23 0 3 -63 6 -141 6 l-141 0
-24 -28 c-13 -15 -24 -38 -24 -51 0 -13 -7 -37 -16 -55 -9 -18 -18 -60 -20
-94 -2 -34 -6 -80 -10 -101 -7 -42 19 -148 43 -177 7 -8 13 -20 13 -25 1 -20
57 -75 85 -83 53 -15 96 7 124 62 20 40 21 50 10 64 -11 13 -11 17 -1 20 7 3
12 24 12 58 0 34 5 57 15 65 8 7 15 34 17 63 l3 52 105 -4 c58 -2 123 1 145 7
22 6 66 13 98 17 103 12 131 65 129 243 l-2 103 27 10 c15 5 50 7 77 4 28 -3
94 -2 147 3 l97 9 57 49 c64 56 76 79 94 184 25 149 21 140 74 160 26 10 47
14 47 9 0 -12 173 -1 255 17 54 12 95 14 180 8 60 -4 114 -7 120 -5 27 7 79
11 167 13 92 1 99 0 120 -23 36 -40 50 -72 53 -130 5 -67 21 -175 29 -188 4
-5 32 -24 62 -42 l57 -32 172 -1 172 -1 11 -24 c7 -14 12 -37 12 -53 0 -29 32
-96 56 -114 7 -6 19 -34 25 -62 6 -29 15 -54 20 -58 5 -3 9 -14 9 -24 0 -10
15 -29 33 -42 17 -12 41 -31 52 -41 34 -32 62 -37 194 -32 l129 5 17 -42 c24
-56 25 -61 31 -142 5 -60 10 -74 37 -103 33 -34 70 -43 107 -23 24 13 76 106
83 150 4 19 2 55 -4 80 -5 25 -11 86 -13 136 -3 73 -8 100 -26 132 -34 60 -78
75 -217 73 -69 -1 -114 2 -118 8 -3 6 -19 11 -36 11 -20 0 -40 11 -67 38 -21
21 -39 45 -40 53 0 8 -8 35 -17 60 -16 45 -16 47 9 102 27 59 32 92 16 102
-15 9 -12 210 4 290 8 39 17 96 21 128 3 33 10 69 15 82 5 13 12 52 16 87 3
34 10 68 14 73 4 6 11 29 15 52 4 24 10 43 15 43 4 0 8 39 9 88 1 48 6 119 12
157 5 39 14 112 19 164 5 52 13 97 18 100 5 3 9 29 9 56 -1 152 31 420 57 485
8 19 20 94 27 165 19 212 21 225 29 225 4 0 10 22 14 49 3 27 13 54 20 60 8 7
20 42 26 79 14 74 15 84 30 264 6 86 16 141 29 170 11 24 22 59 25 79 4 21 13
50 21 65 11 25 36 227 33 274 -1 8 8 53 20 100 48 190 65 268 69 327 3 35 9
63 14 63 6 0 8 4 5 8 -3 4 0 26 5 48 5 21 11 46 14 56 2 9 6 38 10 65 4 26 14
82 22 123 9 41 17 84 18 95 2 11 4 21 5 23 2 1 4 14 5 30 5 42 36 156 44 162
4 3 11 31 15 64 3 32 11 66 16 77 6 10 13 66 15 125 3 59 9 112 14 118 4 6 11
33 15 60 3 27 13 57 22 67 8 9 19 42 23 72 4 31 13 62 19 70 9 11 27 130 35
229 1 10 4 18 8 18 3 0 9 23 13 51 4 28 11 58 15 67 5 10 13 28 19 42 7 18 22
28 55 37 34 9 46 18 51 37 3 14 15 28 27 31 58 19 159 155 159 214 0 18 5 41
10 51 18 34 42 183 44 271 1 83 0 89 -30 125 -33 41 -168 116 -234 130 -19 4
-41 8 -48 10 -7 1 -39 -9 -70 -24 -31 -14 -85 -33 -118 -42 -69 -17 -129 -61
-139 -103 -4 -15 -11 -27 -16 -27 -5 0 -18 -17 -29 -37 -11 -21 -24 -45 -30
-53 -31 -51 -43 -96 -43 -172 0 -62 4 -84 16 -93 9 -6 19 -24 23 -41 9 -37 41
-100 69 -139 30 -40 39 -71 37 -125 0 -25 -2 -47 -3 -50 -1 -3 -3 -9 -4 -15
-1 -5 -8 -23 -14 -40 -7 -16 -15 -50 -18 -75 -2 -25 -5 -57 -7 -71 -1 -14 -5
-30 -9 -36 -3 -5 -3 -23 2 -39 5 -17 3 -51 -5 -84 -6 -30 -15 -82 -19 -115 -3
-33 -11 -62 -16 -63 -5 -2 -7 -8 -3 -13 3 -5 1 -9 -4 -9 -6 0 -10 -10 -10 -22
1 -13 -2 -50 -6 -83 -4 -33 -8 -100 -9 -148 -2 -62 -6 -90 -16 -96 -8 -5 -12
-18 -8 -30 3 -12 1 -23 -3 -26 -5 -3 -8 -24 -7 -46 1 -22 -4 -43 -9 -47 -10
-6 -33 -85 -40 -132 -1 -8 -12 -69 -24 -135 -11 -66 -25 -144 -30 -174 -5 -30
-14 -59 -20 -65 -5 -5 -10 -28 -10 -51 0 -23 -4 -45 -9 -50 -8 -9 -19 -67 -26
-140 -1 -11 -5 -31 -8 -45 -3 -14 -9 -50 -12 -80 -3 -30 -10 -75 -15 -100 -17
-83 -38 -168 -43 -177 -3 -4 -8 -40 -12 -78 -8 -95 -16 -148 -24 -160 -3 -5
-7 -21 -8 -35 -1 -14 -5 -38 -8 -55 -3 -16 -7 -36 -7 -42 -1 -7 -4 -13 -8 -13
-4 0 -10 -19 -14 -42 -4 -24 -8 -54 -11 -68 -2 -14 -8 -56 -14 -95 -13 -100
-43 -277 -48 -295 -3 -8 -7 -26 -9 -40 -6 -46 -10 -65 -20 -85 -6 -11 -10 -31
-9 -45 1 -14 -2 -30 -6 -35 -4 -6 -10 -35 -12 -65 -8 -80 -19 -144 -27 -155
-4 -5 -11 -30 -15 -55 -4 -25 -14 -58 -22 -73 -8 -16 -12 -31 -10 -34 3 -3 -1
-26 -8 -51 -12 -44 -22 -95 -32 -167 -2 -16 -6 -74 -8 -128 -3 -54 -7 -101 -9
-105 -2 -4 -7 -43 -11 -87 -3 -43 -9 -83 -12 -88 -3 -5 -7 -46 -8 -91 -4 -97
-40 -235 -86 -331 -6 -12 -8 -87 -6 -175 3 -141 -6 -230 -24 -230 -4 0 -10
-40 -14 -90 -4 -49 -12 -93 -19 -99 -24 -19 -105 -39 -183 -45 -80 -5 -83 -5
-99 19 -12 19 -14 34 -8 62 8 38 8 47 6 122 -2 37 -5 41 -52 63 -35 16 -53 32
-61 53 -6 17 -30 44 -53 61 -34 26 -53 32 -110 37 -47 3 -74 10 -81 21 -23 30
-36 175 -24 261 13 95 12 149 -2 230 -6 33 -12 174 -13 313 l-3 254 25 9 c17
7 28 6 32 -1 4 -6 14 -12 22 -14 8 -1 28 -11 44 -21 21 -15 47 -20 99 -21 39
-1 83 -7 98 -13 30 -12 135 -15 162 -5 27 11 47 63 52 138 3 39 12 88 19 110
8 21 14 49 14 62 0 13 4 24 8 24 10 0 11 7 17 85 4 72 -14 119 -53 133 -15 5
-64 24 -109 41 -45 17 -86 31 -91 31 -5 0 -19 12 -33 26 -34 37 -104 84 -125
84 -34 0 -159 43 -171 59 -7 9 -12 43 -11 81 1 36 0 87 -1 113 -2 26 2 54 8
61 6 7 8 16 4 20 -4 4 -8 39 -10 79 -1 40 -7 102 -13 139 -7 37 -8 77 -4 90 4
13 6 42 5 66 -1 24 2 49 8 56 13 15 7 294 -6 356 -5 19 -7 55 -7 80 6 197 1
521 -8 536 -6 8 -23 367 -20 414 1 20 9 528 10 655 1 55 -2 116 -6 135 -14 73
-4 248 16 269 7 7 10 21 7 31 -3 10 -8 29 -11 42 -5 24 -32 308 -33 343 -2
138 0 198 6 208 4 7 8 147 9 312 3 417 14 718 28 732 19 19 72 19 276 -4 64
-7 385 -6 545 2 72 3 154 -1 235 -11 88 -12 159 -14 240 -10 63 4 156 5 205 4
140 -4 240 -3 368 3 64 3 117 2 117 -3 0 -4 35 -8 78 -8 56 0 89 6 122 21 25
11 78 27 119 35 41 8 76 15 77 17 7 9 39 74 40 82 0 6 6 22 12 36 16 39 12 91
-9 118 -11 13 -19 31 -19 40 0 9 -18 42 -40 73 -21 32 -35 60 -31 63 5 3 -2
27 -15 55 -29 61 -79 91 -148 88 -25 -1 -46 -5 -46 -9 0 -3 -26 -5 -57 -3 -60
3 -385 11 -703 16 -115 2 -217 -1 -270 -9 -87 -13 -217 -10 -248 6 -19 10
-192 7 -294 -4 -36 -4 -75 -4 -85 0 -24 10 -33 12 -128 26 -76 10 -110 8 -242
-15 -13 -2 -23 0 -23 5 0 5 -5 9 -11 9 -6 0 -23 9 -38 20 -27 19 -28 21 -30
130 -1 61 2 116 6 123 4 7 8 30 9 52 0 22 3 54 7 71 l8 31 107 7 c185 11 264
26 308 55 l39 27 0 100 c0 54 4 108 9 119 25 61 28 81 23 133 -3 33 -16 78
-32 108 -21 42 -34 54 -66 64 -35 12 -46 11 -87 -3 -26 -10 -67 -17 -92 -17
-25 0 -61 -4 -80 -10 -27 -8 -44 -6 -77 6 -50 19 -50 20 -57 244 -8 230 -24
275 -112 305 -42 14 -67 16 -121 10 -67 -7 -171 -8 -288 -1 -33 2 -74 1 -92
-2z"/>
<path d="M2155 8690 c-27 -4 -76 -15 -107 -24 -32 -10 -80 -19 -108 -21 -67
-5 -118 -24 -158 -57 -18 -15 -51 -36 -75 -47 -37 -17 -131 -99 -163 -142 -30
-40 -74 -144 -79 -186 -12 -86 42 -201 117 -250 34 -23 55 -29 125 -33 56 -3
92 -1 106 7 12 7 36 13 52 13 41 1 120 73 133 121 18 69 -29 151 -109 189 -37
18 -48 29 -53 52 -3 17 -3 34 0 39 12 20 82 41 139 43 33 1 67 6 75 11 19 12
401 10 409 -3 15 -23 162 -83 249 -102 140 -30 213 -50 247 -65 17 -8 77 -26
135 -40 141 -34 150 -39 150 -72 0 -38 -21 -102 -45 -137 -14 -21 -18 -44 -17
-85 1 -50 4 -59 34 -83 23 -20 43 -28 70 -28 45 0 69 22 93 88 10 26 24 54 32
64 8 9 16 24 17 33 1 10 26 42 55 71 l53 53 111 -4 c62 -3 137 -8 167 -11 30
-3 82 -8 115 -11 33 -3 65 -9 70 -13 20 -16 131 -30 231 -30 56 0 137 -7 179
-15 82 -15 501 -25 523 -11 6 4 40 9 74 11 72 4 196 32 215 49 7 6 39 31 70
55 122 92 138 237 38 332 -25 24 -45 48 -45 53 -1 20 -78 66 -129 77 -56 12
-139 7 -184 -10 -16 -6 -46 -29 -68 -52 -33 -34 -39 -47 -39 -82 0 -23 5 -58
11 -77 24 -80 21 -94 -19 -106 -15 -4 -34 -9 -42 -11 -8 -3 -41 -9 -73 -14
-33 -5 -62 -11 -66 -13 -9 -6 -154 15 -161 23 -3 3 -9 6 -15 6 -99 5 -222 22
-265 38 -30 11 -86 21 -125 22 -108 4 -345 46 -345 61 0 7 -11 26 -25 43 l-26
30 21 38 c11 21 20 45 20 54 0 29 -37 65 -80 78 -49 14 -106 1 -115 -28 -6
-20 -54 -64 -74 -69 -8 -2 -21 -12 -30 -22 -14 -17 -31 -20 -131 -22 -144 -4
-233 23 -335 98 -20 14 -52 24 -95 28 -35 4 -71 13 -80 21 -8 7 -54 18 -102
24 -49 6 -96 14 -105 19 -10 5 -70 13 -133 16 -63 4 -124 9 -135 11 -49 9
-134 12 -180 5z"/>
<path d="M10095 8630 c-22 -16 -59 -38 -82 -49 -24 -11 -43 -25 -43 -30 0 -6
-18 -22 -39 -35 -22 -14 -42 -34 -46 -46 -3 -11 -12 -20 -20 -20 -7 0 -15 -5
-17 -12 -5 -14 -201 6 -206 21 -2 6 -15 8 -30 5 -15 -3 -46 2 -70 10 -23 8
-95 18 -160 21 -183 9 -243 14 -255 22 -7 4 -23 9 -37 11 -14 2 -52 8 -85 14
-33 5 -96 11 -140 13 -44 1 -118 8 -165 15 -133 20 -288 22 -335 5 -22 -8 -56
-16 -75 -18 -39 -5 -51 -9 -127 -42 -28 -13 -54 -21 -57 -17 -7 6 -99 -38
-161 -77 -56 -35 -79 -60 -102 -106 -33 -66 -36 -117 -12 -197 28 -92 83 -149
192 -201 98 -47 130 -48 171 -3 18 18 43 37 57 41 22 7 69 49 69 61 0 3 15 20
34 38 49 45 54 87 24 181 l-25 76 29 15 c36 19 217 21 229 3 7 -11 178 -22
324 -20 33 0 96 -7 140 -16 44 -9 94 -15 110 -14 46 4 74 1 205 -23 47 -8 103
-17 125 -20 68 -7 119 -19 131 -30 14 -13 6 -44 -27 -106 -24 -46 -58 -160
-59 -194 0 -22 83 -106 105 -106 26 0 81 58 95 99 7 23 17 41 22 41 4 0 8 6 8
14 0 17 100 116 118 116 6 0 12 6 12 14 0 24 28 45 52 39 13 -2 41 -9 63 -14
47 -12 75 -16 176 -28 42 -5 94 -14 115 -20 21 -6 85 -15 142 -21 57 -5 111
-14 120 -18 32 -16 208 -41 362 -52 85 -6 173 -16 195 -21 56 -15 358 -30 625
-31 210 -2 230 0 293 21 38 13 91 24 117 26 49 3 122 38 162 80 79 83 135 171
119 188 -4 4 -6 41 -3 81 5 90 -10 125 -72 161 -23 14 -51 34 -61 45 -9 10
-39 26 -66 35 -27 9 -51 21 -54 26 -10 15 -94 10 -130 -7 -51 -24 -108 -77
-134 -125 -31 -59 -40 -158 -17 -194 18 -27 14 -64 -7 -66 -7 -1 -25 -3 -42
-5 -16 -1 -59 -7 -95 -12 -122 -18 -574 27 -618 61 -7 5 -81 11 -164 14 -125
3 -160 7 -197 24 -25 11 -84 25 -131 30 -47 6 -121 17 -165 25 -44 7 -116 16
-160 19 -44 3 -105 12 -135 21 -30 9 -65 18 -78 21 -59 14 -34 38 68 65 78 20
94 38 86 97 -7 49 -18 66 -55 85 -54 27 -94 26 -136 -4z"/>
<path d="M31140 7565 c-14 -8 -45 -23 -70 -35 -25 -12 -67 -35 -95 -51 -27
-16 -61 -34 -75 -40 -13 -6 -27 -15 -31 -20 -3 -6 -24 -12 -46 -14 -22 -3 -51
-8 -64 -13 -13 -5 -42 -7 -64 -4 -43 6 -102 6 -230 1 -88 -4 -175 1 -175 10 0
9 -52 31 -72 31 -18 0 -78 31 -163 85 -94 60 -205 51 -220 -17 -22 -97 -4
-130 97 -183 121 -63 140 -85 137 -153 -1 -20 5 -51 14 -69 19 -37 22 -240 9
-653 -7 -218 -9 -238 -29 -273 -16 -27 -24 -61 -29 -120 -5 -76 -33 -173 -58
-205 -5 -8 -12 -23 -13 -35 -2 -12 -9 -28 -17 -36 -7 -9 -19 -30 -27 -48 -8
-20 -23 -34 -38 -38 -14 -4 -36 -17 -49 -31 -14 -13 -33 -24 -43 -24 -11 0
-19 -7 -19 -16 0 -8 -5 -12 -11 -8 -6 3 -25 -7 -42 -23 -36 -34 -90 -58 -107
-48 -6 3 -9 2 -8 -4 2 -6 -45 -35 -104 -64 -60 -30 -106 -56 -104 -58 2 -2 -7
-5 -20 -5 -13 -1 -32 -5 -42 -9 -20 -9 -139 -15 -164 -8 -10 2 -15 10 -11 19
3 7 0 14 -6 14 -8 0 -12 25 -11 78 1 42 -2 98 -6 124 -4 28 -2 59 4 75 6 16
13 126 16 253 3 124 7 243 11 265 3 22 7 87 9 145 7 175 17 334 24 350 3 8 6
20 7 25 7 53 29 163 36 176 5 9 11 43 14 75 3 33 7 75 9 94 7 68 32 150 47
150 4 0 11 10 15 23 4 12 17 36 29 52 57 76 62 150 13 203 -28 29 -57 28 -91
-4 -15 -14 -41 -30 -57 -35 -18 -7 -27 -16 -24 -24 4 -9 -1 -14 -13 -13 -20 0
-64 -15 -130 -45 -24 -10 -49 -17 -55 -14 -7 2 -26 0 -43 -5 -68 -20 -169 -26
-245 -14 -25 4 -70 9 -101 10 -31 2 -64 8 -75 14 -10 5 -39 13 -64 17 -40 6
-52 14 -95 65 -78 95 -168 112 -195 37 -18 -52 -12 -100 15 -126 14 -13 25
-29 25 -37 0 -8 4 -14 8 -14 4 0 16 -15 27 -32 28 -50 66 -78 102 -78 25 0 31
-4 27 -15 -4 -8 1 -17 10 -21 11 -4 14 -13 10 -29 -3 -13 -2 -30 2 -37 4 -7 9
-26 10 -43 1 -16 5 -41 7 -55 21 -107 28 -135 37 -140 5 -3 5 -11 1 -19 -5 -7
-4 -29 1 -50 5 -20 9 -42 8 -48 0 -7 0 -23 0 -35 0 -13 0 -36 0 -51 0 -15 5
-38 12 -50 6 -12 10 -40 9 -62 -4 -64 -3 -77 6 -142 5 -34 15 -68 22 -77 8 -9
9 -16 3 -16 -5 0 -9 -11 -9 -25 0 -14 4 -25 9 -25 5 0 9 -19 8 -42 0 -24 0
-56 0 -71 0 -16 3 -26 8 -23 4 3 9 -18 9 -46 0 -28 6 -54 13 -58 7 -5 8 -10 2
-14 -5 -3 -8 -18 -5 -33 2 -16 5 -43 7 -61 2 -18 10 -40 17 -48 7 -9 9 -18 3
-22 -13 -10 -16 -32 -4 -32 6 0 8 -11 4 -25 -3 -14 -2 -31 4 -38 5 -6 7 -21 4
-32 -11 -45 -1 -283 15 -325 9 -23 10 -210 2 -210 -4 0 -5 -35 -3 -77 2 -43 6
-132 8 -198 3 -66 5 -124 6 -130 1 -5 -1 -30 -5 -55 -12 -85 -13 -264 -1 -279
7 -10 7 -13 0 -8 -7 4 -11 -10 -13 -40 0 -25 -3 -48 -5 -52 -2 -3 -7 -44 -11
-91 -4 -47 -11 -90 -16 -96 -12 -15 -14 -125 -2 -133 6 -3 9 -15 7 -26 -12
-76 -14 -91 -18 -101 -3 -7 -6 -65 -7 -130 -2 -82 -6 -122 -15 -129 -7 -6 -15
-45 -19 -95 -4 -46 -11 -92 -16 -102 -5 -10 -8 -18 -5 -18 3 0 -4 -25 -14 -55
-10 -30 -22 -94 -25 -142 -4 -48 -11 -93 -17 -100 -6 -7 -7 -13 -3 -13 5 0 0
-9 -10 -20 -10 -11 -23 -20 -30 -20 -6 0 -33 -14 -61 -31 -27 -18 -71 -41 -99
-52 -67 -28 -134 -76 -151 -109 -29 -56 -15 -131 28 -149 26 -10 34 -10 61 6
18 11 47 34 66 52 18 18 54 40 80 49 25 10 50 21 55 26 6 4 19 8 31 8 11 0 29
6 40 14 11 7 49 18 85 24 36 6 81 14 100 17 19 3 53 8 75 9 22 2 60 8 85 12
107 20 314 -2 388 -41 29 -15 52 -31 52 -36 0 -15 75 -48 127 -55 37 -4 58 -2
81 10 86 44 78 174 -12 207 -27 10 -39 22 -48 48 -7 20 -12 41 -13 46 -2 34
-22 90 -56 161 -22 45 -39 93 -39 108 0 15 -7 43 -15 63 -17 40 -22 83 -31
258 -8 156 -9 165 -24 260 -11 66 -19 222 -19 371 -1 17 -6 62 -12 100 -7 38
-13 143 -13 234 -1 91 -5 231 -9 313 -6 117 -5 147 5 148 23 1 50 7 55 12 4 5
27 -11 57 -39 30 -29 67 -38 166 -40 58 -2 120 -6 138 -9 55 -10 163 -67 181
-95 20 -32 76 -102 116 -144 36 -37 62 -83 69 -118 2 -14 9 -34 15 -44 5 -11
19 -40 30 -66 11 -27 25 -48 31 -48 6 0 9 -4 5 -9 -3 -5 1 -15 8 -23 7 -7 12
-23 11 -35 -1 -13 3 -23 7 -23 5 0 9 -11 9 -24 0 -13 4 -26 10 -28 8 -3 12
-20 25 -123 2 -21 11 -43 20 -47 8 -5 14 -19 13 -31 -1 -12 2 -32 6 -44 4 -13
3 -23 -2 -23 -5 0 -7 -12 -5 -27 3 -16 5 -62 6 -105 1 -42 5 -79 9 -83 3 -4 3
-19 -2 -35 -5 -17 -4 -32 2 -38 6 -6 6 -16 0 -29 -7 -12 -7 -25 -2 -34 5 -7 7
-36 4 -64 -3 -27 -7 -97 -10 -155 -8 -167 -10 -185 -17 -196 -3 -6 -7 -35 -8
-65 -1 -30 -8 -64 -15 -76 -8 -12 -16 -36 -17 -52 -2 -17 -16 -49 -31 -72 -16
-23 -29 -54 -30 -68 -1 -24 -67 -101 -86 -101 -4 0 -31 -22 -59 -50 -46 -45
-51 -54 -51 -94 0 -32 6 -52 23 -70 23 -28 34 -30 111 -28 43 2 53 7 85 41 49
53 108 91 141 91 15 0 30 6 33 14 6 15 50 20 160 17 34 0 122 -1 195 -1 84 0
156 -5 198 -15 36 -8 77 -15 92 -15 15 0 67 -14 117 -30 106 -35 109 -36 145
-10 22 16 28 29 32 72 3 28 1 66 -4 84 -10 36 -59 84 -118 114 -41 21 -77 72
-101 145 -8 22 -24 55 -36 74 -13 19 -23 42 -23 53 0 10 -7 30 -16 44 -16 24
-46 171 -46 224 0 14 0 84 1 155 1 373 -1 460 -15 565 -9 63 -20 160 -25 215
-11 127 -9 118 -47 195 -17 36 -32 73 -32 82 0 10 -4 18 -10 18 -5 0 -10 10
-10 23 0 42 -160 236 -220 267 -22 11 -50 31 -64 45 -14 14 -30 25 -36 25 -17
0 -70 42 -70 56 0 17 -45 47 -102 68 -34 14 -47 24 -51 43 -3 17 1 26 12 30
79 26 251 147 251 177 0 6 21 32 46 57 114 110 154 156 165 189 7 19 20 46 30
59 11 13 19 28 19 34 0 5 13 37 29 71 17 33 44 96 61 139 18 42 36 77 40 77 8
0 13 32 26 180 8 90 8 83 1 195 -3 50 -1 97 3 105 4 8 11 56 14 106 6 89 9
112 22 219 6 50 51 155 66 155 4 0 8 9 8 20 0 11 7 23 15 26 8 4 15 12 15 19
0 18 112 92 157 104 44 13 137 84 163 126 25 41 25 66 -1 99 -23 30 -75 34
-119 11z"/>
<path d="M33251 7571 c-13 -8 -168 -19 -372 -26 -52 -2 -110 -9 -129 -15 -19
-6 -110 -13 -201 -15 -92 -2 -170 -5 -175 -6 -5 -1 -16 1 -24 4 -37 15 -142
37 -205 43 -65 6 -72 4 -92 -17 -29 -32 -36 -75 -17 -110 21 -42 49 -55 144
-68 141 -20 162 -28 188 -70 13 -20 41 -48 62 -61 22 -13 37 -26 35 -29 -3 -2
1 -12 9 -20 17 -19 49 -151 49 -201 -1 -62 -42 -254 -63 -292 -6 -10 -10 -27
-10 -38 0 -11 -6 -31 -14 -43 -15 -23 -46 -136 -46 -167 0 -10 -5 -20 -11 -22
-11 -4 -11 -5 -24 -83 -4 -27 -16 -64 -26 -82 -11 -20 -14 -33 -8 -33 8 0 7
-5 -1 -15 -7 -8 -9 -15 -5 -15 5 0 -1 -8 -13 -18 -16 -14 -21 -32 -24 -85 -2
-37 -6 -67 -9 -67 -6 0 -16 -40 -25 -100 -5 -33 -12 -65 -14 -65 -3 0 -10 -47
-14 -97 -3 -26 -12 -60 -21 -77 -8 -17 -17 -43 -20 -58 -3 -16 -9 -50 -14 -78
-5 -27 -7 -58 -5 -67 1 -10 -2 -18 -8 -18 -6 0 -9 -13 -5 -34 3 -18 1 -38 -3
-42 -5 -5 -12 -40 -15 -78 -3 -38 -10 -75 -15 -81 -6 -7 -5 -16 2 -23 8 -8 8
-12 1 -12 -15 0 -46 -79 -44 -112 1 -16 -3 -28 -8 -28 -5 0 -9 -19 -9 -41 -1
-23 -6 -47 -11 -52 -6 -6 -11 -24 -11 -39 0 -15 -4 -28 -10 -28 -5 0 -10 -12
-10 -28 0 -16 -8 -32 -20 -40 -15 -9 -19 -19 -14 -36 3 -13 1 -27 -5 -31 -6
-3 -9 -10 -6 -15 3 -5 -10 -34 -30 -64 -19 -30 -35 -63 -35 -74 0 -10 -5 -23
-11 -29 -7 -7 -13 -28 -14 -48 -1 -20 -7 -40 -12 -43 -6 -4 -9 -16 -7 -27 2
-10 -1 -24 -5 -30 -8 -9 -13 -39 -27 -155 -3 -19 -11 -40 -20 -46 -8 -7 -16
-25 -17 -40 -1 -16 -9 -37 -17 -47 -8 -10 -15 -21 -15 -25 -1 -4 -6 -23 -12
-42 -6 -19 -15 -58 -18 -87 -4 -32 -12 -54 -22 -57 -8 -4 -13 -12 -10 -20 3
-7 -1 -25 -8 -40 -8 -14 -11 -26 -8 -26 3 0 -2 -11 -10 -24 -14 -20 -18 -38
-33 -118 -1 -9 -10 -30 -18 -47 -9 -17 -16 -34 -15 -37 0 -4 -4 -10 -10 -14
-6 -3 -13 -22 -16 -41 -11 -84 -35 -190 -48 -211 -8 -13 -25 -61 -36 -108 -12
-47 -29 -96 -39 -110 -9 -14 -26 -42 -37 -63 -15 -29 -34 -46 -75 -66 -30 -15
-62 -26 -71 -24 -9 2 -31 -10 -48 -27 -63 -64 -28 -168 53 -155 56 8 131 23
146 29 28 10 74 16 205 27 365 31 452 33 520 16 33 -8 81 -18 108 -22 26 -3
47 -10 47 -14 0 -4 32 -12 71 -19 40 -6 75 -15 78 -20 11 -17 49 -32 80 -32
83 0 113 139 39 178 -18 9 -42 27 -55 39 -13 13 -37 30 -53 38 -34 17 -60 61
-60 100 0 41 23 74 109 159 45 43 81 82 81 86 0 4 26 27 58 50 31 24 74 62 94
85 21 23 52 48 70 56 38 15 90 49 100 65 4 6 39 31 78 55 39 24 98 62 132 84
163 107 214 135 244 135 17 0 37 6 43 14 6 7 33 19 59 26 26 7 80 24 121 36
40 13 79 24 86 24 19 0 55 -35 55 -54 0 -9 4 -16 9 -16 4 0 11 -17 14 -37 3
-21 8 -49 11 -63 8 -36 27 -140 32 -175 5 -37 9 -56 17 -75 3 -8 8 -37 11 -64
3 -27 10 -54 16 -61 5 -6 12 -48 15 -93 4 -45 15 -109 25 -143 11 -34 17 -66
14 -71 -3 -5 -1 -14 4 -21 13 -15 22 -71 13 -84 -8 -13 -87 -53 -93 -48 -8 9
-109 -90 -112 -110 -2 -11 -7 -32 -11 -47 -6 -23 -1 -33 24 -59 29 -28 37 -31
74 -26 31 4 50 14 72 40 44 50 77 63 202 82 61 9 125 20 140 24 16 5 52 8 79
6 27 -1 132 -5 234 -10 122 -5 194 -12 212 -21 15 -8 41 -14 58 -14 17 0 40
-5 51 -11 12 -6 62 -12 112 -14 51 -2 148 -13 217 -25 111 -18 130 -19 165 -7
42 14 58 48 36 70 -6 6 -11 23 -11 37 0 23 -7 28 -67 48 -38 12 -79 24 -93 26
-29 5 -52 13 -95 31 -16 8 -43 17 -58 20 -16 4 -35 18 -44 31 -9 14 -44 40
-78 59 -44 25 -76 54 -110 98 -27 34 -63 76 -80 92 -20 19 -38 52 -50 90 -10
33 -27 77 -37 99 -11 21 -28 64 -38 95 -10 31 -27 77 -39 103 -11 27 -31 69
-42 95 -12 27 -29 74 -39 105 -10 31 -26 71 -35 88 -9 17 -25 58 -35 90 -10
32 -26 72 -34 88 -21 40 -46 113 -46 134 0 10 -11 51 -25 92 -14 41 -25 82
-25 90 0 9 -11 49 -25 90 -14 41 -25 82 -25 90 0 9 -11 49 -25 90 -14 41 -25
82 -25 90 0 9 -16 63 -35 120 -19 58 -35 112 -35 120 0 9 -11 49 -25 90 -14
41 -25 82 -25 90 0 9 -11 49 -25 90 -14 41 -25 82 -25 90 0 9 -11 49 -25 90
-14 41 -25 82 -25 90 0 9 -11 49 -25 90 -14 41 -25 82 -25 90 0 9 -16 63 -35
120 -19 58 -35 111 -35 119 0 8 -11 49 -24 93 -29 99 -45 161 -62 244 -7 36
-21 94 -30 130 -9 36 -22 97 -30 135 -8 39 -19 84 -25 102 -5 17 -16 65 -24
105 -8 40 -21 102 -30 138 -9 36 -18 81 -20 100 -8 79 -18 126 -30 150 -7 14
-16 45 -20 70 -4 25 -13 65 -20 90 -8 25 -16 62 -20 82 -9 58 -41 87 -104 97
-30 5 -67 5 -83 1 -16 -5 -30 -5 -33 1 -8 11 -26 11 -44 0z m-165 -689 c6 -4
14 -17 18 -30 4 -12 19 -36 33 -52 18 -22 23 -37 19 -55 -3 -13 -2 -26 3 -30
5 -3 9 -19 9 -35 -1 -16 4 -35 9 -42 6 -7 14 -33 18 -58 4 -25 11 -49 15 -55
10 -14 24 -67 21 -83 -1 -7 5 -15 14 -18 8 -3 15 -17 15 -30 0 -14 7 -41 16
-62 17 -37 19 -46 22 -90 1 -13 6 -21 11 -18 4 3 6 -7 4 -22 -5 -36 -1 -87 7
-87 1 0 4 -16 7 -35 2 -19 8 -39 13 -45 4 -5 10 -37 14 -70 8 -75 38 -188 54
-207 6 -8 9 -18 5 -21 -3 -4 -1 -7 5 -7 7 0 11 -3 10 -7 -1 -5 4 -21 11 -38 7
-16 8 -31 3 -33 -10 -3 10 -122 33 -192 8 -25 16 -79 19 -120 3 -41 5 -79 5
-83 1 -5 5 -6 9 -3 5 3 9 -12 9 -32 0 -20 4 -64 7 -97 4 -33 7 -68 7 -77 0
-10 5 -18 10 -18 6 0 7 -9 4 -20 -3 -11 -3 -20 2 -20 5 0 10 -11 11 -26 1 -14
6 -33 11 -42 5 -9 7 -33 6 -51 -1 -19 2 -51 7 -70 4 -20 11 -72 13 -116 3 -43
10 -82 16 -85 5 -4 7 -14 3 -23 -4 -10 0 -19 9 -23 9 -3 13 -12 11 -19 -3 -8
-1 -22 4 -31 7 -12 6 -25 0 -40 -8 -16 -6 -30 4 -52 14 -26 13 -30 -3 -40 -9
-6 -20 -24 -24 -40 -5 -25 -17 -34 -72 -57 -36 -16 -72 -28 -80 -28 -7 0 -12
-6 -9 -12 4 -12 -61 -38 -75 -30 -4 3 -10 -2 -13 -11 -4 -10 -12 -14 -23 -10
-18 7 -123 -41 -123 -57 0 -5 -7 -7 -15 -3 -8 3 -15 1 -15 -5 0 -6 -4 -8 -8
-5 -4 2 -28 -11 -51 -30 -24 -19 -52 -34 -62 -34 -10 0 -21 -4 -24 -10 -3 -5
-20 -10 -36 -10 -17 0 -32 -6 -35 -14 -3 -8 -12 -12 -19 -10 -7 3 -22 -3 -33
-14 -11 -11 -23 -18 -26 -15 -2 3 -11 1 -18 -3 -7 -5 -17 -9 -23 -9 -5 -1 -9
-7 -8 -15 2 -12 1 -12 -8 1 -10 13 -16 11 -46 -15 -19 -17 -42 -31 -51 -32
-25 -1 -72 -26 -72 -37 0 -6 -3 -8 -6 -5 -3 4 -22 -5 -41 -18 -66 -44 -166
-26 -198 36 -19 37 -19 137 0 170 8 14 14 50 15 81 0 36 9 78 26 118 18 45 43
173 90 450 35 212 71 409 78 436 8 28 22 97 31 155 9 58 20 115 25 128 6 12
19 80 30 150 12 70 25 137 30 149 5 13 19 78 30 145 12 68 34 162 51 209 16
48 29 94 29 102 0 9 11 50 25 91 14 41 25 82 25 90 0 9 11 49 25 90 14 41 25
82 25 90 0 9 16 63 35 120 19 58 35 111 35 119 0 21 32 117 39 117 3 0 11 -4
17 -8z"/>
<path d="M1050 7563 c-32 -12 -70 -57 -70 -84 0 -25 38 -69 61 -69 9 0 126
-67 149 -86 8 -6 53 -17 100 -23 110 -15 183 -32 191 -43 3 -5 7 -40 8 -78 1
-38 8 -92 17 -122 8 -29 16 -62 18 -73 2 -11 13 -49 24 -85 32 -99 55 -216 49
-240 -3 -12 -2 -33 3 -46 5 -13 12 -68 15 -121 3 -54 7 -109 10 -123 7 -40 28
-308 30 -390 1 -41 5 -104 8 -140 4 -36 9 -119 11 -185 2 -66 7 -135 11 -153
5 -21 3 -42 -5 -58 -10 -18 -11 -39 -3 -91 5 -38 11 -121 12 -187 1 -65 4
-123 7 -127 3 -5 0 -89 -5 -187 -6 -97 -14 -294 -17 -437 -7 -371 -12 -460
-24 -518 -5 -29 -12 -78 -15 -110 -2 -31 -6 -61 -8 -65 -3 -4 -8 -62 -12 -130
-7 -123 -15 -173 -34 -196 -6 -6 -12 -25 -15 -41 -3 -17 -19 -71 -36 -120 -17
-50 -34 -99 -37 -110 -3 -11 -11 -34 -19 -52 -8 -17 -14 -36 -14 -42 0 -18
-57 -41 -87 -35 -20 4 -43 -2 -74 -19 -24 -13 -67 -32 -96 -41 -119 -39 -135
-130 -38 -215 33 -28 42 -31 104 -31 50 0 72 4 82 16 18 22 64 44 91 44 29 0
88 36 88 53 0 19 116 67 160 67 19 0 53 5 75 11 22 6 123 12 225 14 145 3 195
0 230 -12 30 -10 62 -12 97 -8 35 4 66 1 98 -9 42 -15 97 -24 150 -25 11 -1
29 -15 40 -31 30 -45 95 -73 147 -65 58 10 106 61 103 110 -1 20 -10 44 -19
54 -9 9 -16 23 -16 29 0 17 -59 57 -115 77 -56 20 -118 62 -110 75 3 4 -10 18
-29 29 -45 28 -62 56 -70 116 -4 28 -11 64 -17 81 -5 17 -11 44 -13 60 -3 16
-9 42 -16 59 -6 16 -18 80 -26 141 -8 62 -21 125 -29 141 -8 15 -15 33 -15 39
0 6 -7 26 -16 44 -16 31 -16 49 0 183 3 27 -6 74 -38 187 -11 38 -14 79 -10
135 7 108 8 177 2 195 -34 106 -35 119 -32 290 2 96 3 211 3 255 -1 44 -1 87
0 95 5 121 15 530 14 610 -8 643 -8 707 6 724 9 11 16 65 22 169 7 130 14 194
33 302 2 11 9 40 15 65 7 25 16 86 20 136 11 114 28 146 72 134 23 -7 38 -4
62 10 21 13 50 20 87 20 62 0 153 36 163 65 14 34 6 65 -25 100 l-31 37 -131
-6 c-72 -2 -148 -5 -168 -5 -21 0 -59 -6 -85 -14 -27 -8 -54 -12 -61 -10 -7 3
-18 0 -25 -5 -7 -5 -43 -12 -82 -16 -38 -3 -97 -9 -130 -13 -33 -4 -71 -7 -85
-6 -50 1 -165 2 -185 1 -11 0 -90 2 -175 5 -198 6 -299 27 -413 83 -86 43
-106 48 -137 37z"/>
<path d="M10805 7550 c-92 -38 -125 -49 -151 -48 -17 1 -46 -7 -64 -16 -79
-39 -338 -82 -468 -77 -40 1 -109 -4 -155 -13 -145 -26 -223 -28 -281 -8 -28
9 -52 20 -54 25 -2 4 -9 7 -15 7 -7 0 -23 16 -37 34 -52 71 -133 88 -169 37
-12 -16 -21 -36 -21 -45 0 -9 -4 -16 -10 -16 -14 0 -12 -42 3 -61 29 -38 132
-119 152 -119 11 0 30 -7 41 -15 10 -8 27 -15 37 -15 9 0 17 -4 17 -9 0 -10
38 -21 94 -27 21 -2 44 -8 51 -14 12 -10 14 -45 2 -56 -4 -4 -7 -19 -7 -34 0
-15 -9 -37 -20 -50 -11 -12 -17 -26 -15 -30 3 -4 -6 -15 -20 -24 -15 -10 -25
-26 -25 -40 0 -13 -7 -26 -15 -30 -8 -3 -15 -10 -15 -15 0 -5 -16 -27 -35 -48
-19 -21 -35 -46 -35 -55 0 -10 -5 -18 -11 -18 -5 0 -7 -5 -4 -11 4 -5 1 -18
-7 -27 -23 -29 -38 -61 -38 -81 0 -10 -7 -24 -15 -31 -8 -7 -15 -20 -15 -29 0
-9 -7 -24 -15 -34 -7 -11 -17 -36 -20 -58 -4 -21 -11 -41 -16 -45 -5 -3 -9
-13 -9 -22 0 -9 -11 -28 -26 -43 -14 -14 -26 -37 -28 -51 -1 -13 -5 -28 -8
-33 -5 -10 -32 -85 -33 -95 0 -3 -3 -9 -7 -15 -3 -5 -11 -29 -17 -52 -6 -23
-18 -49 -26 -57 -8 -8 -15 -19 -15 -25 0 -6 -3 -11 -8 -11 -4 0 -16 -16 -26
-35 -10 -19 -23 -32 -27 -29 -5 3 -9 -2 -9 -10 0 -8 -32 -50 -70 -93 -39 -43
-73 -88 -76 -100 -4 -13 -10 -23 -15 -23 -5 0 -9 -6 -9 -13 0 -9 -12 -14 -30
-15 -24 0 -35 7 -55 36 -14 20 -25 41 -25 47 0 6 -8 15 -19 22 -10 6 -21 24
-25 40 -4 15 -15 46 -26 68 -55 119 -90 212 -90 242 0 7 -11 36 -25 65 -14 28
-25 57 -25 63 0 6 -9 28 -19 49 -11 21 -17 44 -14 52 2 7 -4 26 -15 41 -11 15
-23 39 -27 52 -4 14 -20 50 -36 80 -29 56 -36 76 -21 67 4 -2 14 -1 22 4 11 7
7 10 -14 16 -19 4 -32 18 -45 48 -41 95 -66 164 -72 206 -4 25 -19 88 -34 140
-14 52 -24 104 -23 114 2 14 19 23 65 36 34 9 69 23 78 30 8 7 21 10 30 6 9
-3 19 3 25 14 13 25 61 50 95 50 19 0 25 5 25 23 0 38 -43 110 -78 130 -37 22
-129 30 -149 14 -7 -5 -13 -7 -13 -3 0 4 -10 0 -22 -7 -13 -7 -34 -12 -48 -11
-14 1 -58 6 -98 10 -67 6 -145 -6 -162 -26 -3 -3 -48 -14 -101 -24 -73 -14
-114 -17 -175 -11 -81 8 -211 16 -276 19 -21 0 -38 4 -38 8 0 4 -10 8 -22 7
-94 -1 -300 35 -353 63 -55 28 -133 32 -162 8 -42 -34 -44 -60 -9 -113 31 -47
33 -48 155 -87 69 -22 143 -40 165 -41 63 -2 90 -12 104 -42 7 -14 35 -45 62
-68 28 -23 50 -49 50 -58 0 -9 11 -29 25 -45 14 -16 25 -32 25 -36 0 -6 11
-21 49 -67 6 -6 21 -33 34 -60 35 -70 128 -246 137 -258 4 -5 11 -25 15 -42 3
-18 12 -33 19 -33 20 0 87 -107 92 -148 2 -20 8 -39 12 -42 12 -9 102 -190
102 -206 0 -7 4 -14 8 -14 5 0 21 -26 36 -57 15 -32 39 -80 52 -106 14 -27 34
-73 45 -103 11 -30 24 -54 29 -54 4 0 20 -26 35 -57 16 -32 36 -69 45 -83 25
-36 72 -124 150 -276 38 -74 76 -141 84 -150 9 -8 16 -22 16 -29 0 -7 6 -20
13 -27 56 -62 76 -172 43 -238 -9 -18 -16 -40 -16 -47 0 -18 -35 -64 -47 -63
-4 1 -11 -13 -15 -31 -3 -17 -11 -41 -16 -53 -6 -11 -23 -48 -38 -80 -15 -33
-43 -75 -61 -95 -18 -20 -33 -39 -33 -43 0 -6 -77 -103 -112 -142 -10 -11 -18
-25 -18 -31 0 -7 -10 -20 -21 -31 -12 -10 -37 -51 -55 -91 -18 -39 -51 -101
-73 -138 -23 -37 -41 -73 -41 -80 0 -7 -13 -29 -30 -50 -16 -21 -30 -42 -30
-48 0 -6 -7 -17 -15 -26 -46 -50 -120 -155 -120 -171 0 -8 -65 -86 -112 -136
-24 -24 -56 -68 -73 -98 -53 -94 -156 -205 -230 -248 -63 -36 -124 -94 -160
-151 -30 -48 -41 -55 -120 -78 -25 -7 -61 -23 -80 -34 -19 -12 -53 -28 -75
-35 -75 -24 -85 -30 -104 -60 -39 -66 -4 -170 57 -170 14 0 71 22 126 49 115
56 221 86 267 76 23 -5 39 -1 70 20 23 14 50 27 62 27 12 0 36 5 54 10 20 6
53 5 93 -2 45 -8 76 -8 121 1 50 10 65 9 97 -4 20 -9 63 -19 95 -22 35 -4 60
-12 64 -20 13 -35 77 -57 192 -67 77 -6 118 -5 125 2 5 5 16 10 23 10 22 0 62
52 63 81 0 49 -19 61 -96 60 -63 0 -78 4 -171 49 -111 53 -126 69 -136 150 -4
30 -1 54 8 70 8 14 14 34 15 44 0 11 6 27 14 35 7 9 21 41 30 71 10 30 26 67
37 81 10 15 19 33 19 39 0 7 13 38 29 69 44 87 81 169 97 214 8 23 32 63 54
88 22 26 48 69 59 95 34 84 109 223 148 272 20 26 65 74 99 108 49 48 65 71
75 108 7 27 30 71 55 103 24 31 44 60 44 64 0 4 6 9 14 12 10 4 22 -9 37 -41
13 -26 26 -49 29 -52 4 -3 11 -16 15 -30 4 -14 23 -49 41 -78 19 -29 34 -60
34 -70 0 -10 6 -26 13 -37 8 -11 16 -29 20 -40 13 -47 98 -227 121 -257 13
-18 31 -51 39 -73 49 -136 71 -191 88 -219 10 -17 19 -37 19 -45 0 -8 6 -22
14 -30 7 -9 22 -38 32 -66 10 -27 21 -52 24 -55 15 -14 39 -61 54 -110 10 -30
21 -64 25 -75 19 -48 52 -201 57 -266 7 -89 1 -96 -110 -138 -46 -17 -91 -40
-100 -50 -20 -22 -42 -142 -31 -168 5 -10 9 -25 9 -33 1 -18 68 -33 124 -27
31 3 53 14 75 35 33 30 92 56 108 46 5 -3 22 4 37 15 38 27 79 36 96 22 11 -9
22 -6 51 14 33 22 48 25 122 25 46 0 94 5 105 11 12 7 114 13 255 16 213 4
240 3 277 -13 22 -10 43 -21 46 -24 3 -4 34 -11 70 -17 36 -6 79 -15 95 -21
55 -20 137 -42 154 -42 10 0 24 11 31 25 7 14 20 25 27 25 18 0 52 76 46 101
-3 10 -20 32 -38 48 -31 27 -66 37 -163 46 -32 3 -67 25 -85 53 -4 6 -14 12
-22 12 -8 0 -34 8 -57 19 -24 10 -60 26 -81 35 -24 10 -43 28 -53 49 -9 19
-29 42 -45 51 -30 18 -55 56 -63 97 -7 38 -74 151 -110 184 -18 17 -41 45 -51
63 -11 18 -27 35 -37 38 -10 3 -18 12 -18 20 0 8 -4 14 -8 14 -5 0 -16 15 -25
33 -9 17 -23 41 -29 52 -47 74 -68 111 -67 115 1 3 -31 69 -72 148 -109 211
-137 264 -159 297 -30 46 -60 107 -60 122 0 7 -4 13 -9 13 -9 0 -51 70 -155
254 -16 28 -43 71 -61 96 -36 49 -69 110 -60 110 3 0 -5 17 -18 38 -13 20 -27
48 -32 61 -7 24 -40 77 -73 121 -11 14 -36 67 -57 119 -28 71 -36 102 -31 129
3 20 9 38 14 41 4 3 34 60 66 126 32 66 81 158 110 205 29 47 65 105 80 130
14 25 31 52 36 60 5 8 32 62 60 120 28 58 59 114 70 125 10 11 40 67 67 125
28 58 61 115 74 127 37 33 44 45 80 119 18 38 59 103 90 145 31 41 63 95 70
120 15 50 39 88 89 140 19 20 58 66 85 103 37 50 65 75 108 98 32 17 63 40 68
51 6 10 27 26 47 35 20 10 52 30 70 46 34 31 99 59 114 50 5 -3 14 -1 21 4 7
5 35 18 62 28 95 35 184 83 201 109 33 50 -9 115 -73 114 -21 0 -47 -4 -58 -9z"/>
<path d="M24735 7518 c-35 -30 -37 -35 -31 -75 3 -24 10 -52 16 -63 11 -20
113 -72 177 -89 39 -11 41 -14 58 -74 9 -34 22 -71 28 -82 6 -11 12 -24 13
-30 0 -5 2 -12 4 -15 1 -3 4 -90 5 -195 2 -144 7 -220 24 -315 31 -174 31
-169 34 -420 2 -124 6 -230 9 -235 10 -16 19 -175 11 -188 -4 -7 -9 -52 -10
-102 -1 -49 -4 -121 -6 -159 -2 -38 0 -85 5 -105 6 -20 9 -101 7 -181 -3 -174
-2 -247 5 -320 3 -30 8 -86 12 -125 10 -114 11 -788 1 -815 -9 -24 -11 -174
-4 -215 3 -11 1 -24 -2 -30 -4 -5 -5 -46 -2 -90 3 -44 4 -107 1 -140 -3 -33
-1 -70 4 -82 6 -14 5 -27 -1 -35 -6 -7 -9 -24 -8 -38 1 -14 0 -29 -3 -35 -4
-5 -7 -14 -8 -20 -1 -5 -9 -30 -17 -55 -8 -25 -23 -83 -32 -130 -17 -88 -28
-110 -51 -110 -8 0 -14 -8 -14 -17 0 -15 -2 -16 -10 -3 -5 8 -10 10 -10 3 0
-6 -23 -14 -52 -18 -59 -8 -86 -21 -108 -50 -39 -53 -20 -139 39 -169 33 -17
120 -14 226 8 38 8 73 12 77 10 4 -3 50 6 100 20 51 14 133 30 182 36 49 6 92
13 95 14 6 4 201 16 266 17 50 0 186 -17 290 -37 17 -3 51 -13 76 -22 63 -21
121 -5 149 41 25 41 25 48 -2 91 -27 41 -76 64 -140 65 -52 1 -82 11 -117 38
-54 41 -69 62 -86 118 -10 33 -26 76 -36 95 -9 20 -22 69 -28 110 -12 90 -24
146 -40 180 -6 14 -15 57 -20 95 -5 39 -17 99 -26 135 -9 36 -21 94 -26 130
-6 36 -17 97 -26 135 -9 39 -17 111 -19 160 -2 50 -5 110 -8 135 -3 25 -8 79
-11 120 -4 41 -8 82 -11 90 -3 8 -7 169 -9 358 -2 188 -6 346 -10 351 -3 5 -1
12 4 16 5 3 10 13 10 23 0 9 0 49 2 87 1 39 -2 88 -6 110 -11 52 -10 207 0
270 5 28 7 55 6 60 -8 26 0 393 9 449 5 35 9 110 9 167 -1 57 4 138 10 179 21
144 29 189 35 199 4 6 9 34 12 63 2 29 8 64 13 78 12 31 26 103 41 195 6 39
18 91 27 117 15 43 21 48 52 54 60 9 174 48 205 69 17 11 37 32 45 46 43 77
-70 150 -159 104 -17 -9 -31 -15 -32 -14 -2 0 -15 -2 -29 -6 -14 -3 -39 -7
-55 -9 -16 -1 -34 -5 -39 -8 -6 -4 -49 -7 -95 -7 -95 0 -316 -18 -330 -26 -5
-3 -53 -6 -107 -6 -85 -1 -103 1 -136 21 -21 13 -59 25 -85 27 -26 2 -63 5
-82 7 -46 4 -117 34 -124 52 -3 8 -16 18 -28 23 -62 23 -66 22 -103 -11z"/>
<path d="M20778 7523 c-37 -6 -58 -38 -58 -88 0 -29 5 -44 20 -53 11 -7 20
-19 20 -27 0 -17 146 -135 166 -135 8 0 14 -4 14 -10 0 -5 16 -10 35 -10 38 0
32 11 71 -143 19 -80 33 -236 21 -244 -5 -3 -6 -12 -2 -21 3 -9 8 -44 11 -77
3 -33 8 -63 11 -68 8 -13 18 -253 15 -359 -2 -53 2 -116 9 -140 6 -24 13 -61
16 -83 2 -21 7 -43 10 -48 16 -27 20 -240 4 -245 -6 -2 -9 -7 -7 -10 5 -10 18
-154 20 -227 0 -33 5 -63 10 -67 5 -3 11 -39 13 -80 5 -99 4 -119 -5 -132 -5
-6 -7 -78 -6 -161 2 -82 4 -166 4 -185 0 -19 0 -48 0 -64 0 -15 -5 -35 -12
-43 -10 -12 -9 -17 3 -27 20 -14 33 -52 21 -60 -9 -5 -7 -226 4 -356 3 -41 5
-79 5 -85 -2 -35 -7 -71 -12 -80 -4 -5 -5 -64 -4 -130 3 -121 -6 -202 -21
-214 -5 -3 -9 -24 -10 -46 0 -22 -6 -71 -13 -110 -7 -38 -14 -99 -17 -135 -2
-36 -10 -87 -19 -115 -9 -27 -18 -63 -21 -80 -3 -16 -12 -52 -20 -79 -8 -27
-14 -68 -14 -91 0 -23 -6 -50 -14 -61 -10 -13 -13 -34 -9 -66 3 -25 3 -66 -1
-91 -7 -45 -9 -47 -66 -62 -3 0 -33 -11 -68 -24 -96 -37 -127 -101 -79 -172
26 -40 68 -50 97 -24 18 16 68 31 140 42 39 5 52 6 127 2 44 -2 55 1 71 21 18
22 22 23 74 14 42 -8 65 -7 94 3 34 12 72 14 204 13 19 0 67 -7 105 -14 39 -8
107 -17 152 -20 44 -2 95 -11 111 -20 56 -29 103 -30 142 -4 47 32 49 62 9
116 -24 32 -53 54 -118 86 -93 47 -112 71 -131 160 -4 23 -18 66 -29 96 -12
30 -25 89 -30 130 -5 41 -17 100 -27 130 -15 47 -18 88 -17 285 1 127 1 278 1
337 0 74 4 113 14 125 15 20 58 30 58 14 0 -6 5 -11 10 -11 13 0 25 -10 98
-81 32 -31 68 -59 80 -63 12 -4 22 -13 22 -19 0 -7 28 -23 63 -37 34 -13 89
-38 122 -55 33 -17 89 -42 125 -55 36 -13 79 -34 97 -47 17 -12 34 -23 38 -23
3 0 23 -11 44 -24 21 -14 57 -30 81 -36 50 -13 110 -50 110 -67 0 -21 75 -88
116 -102 21 -8 50 -22 64 -31 14 -10 48 -32 77 -49 71 -44 133 -113 133 -148
0 -16 -7 -60 -15 -98 -8 -39 -15 -87 -15 -107 0 -21 -3 -38 -7 -38 -5 0 -18
-33 -31 -73 -13 -39 -31 -81 -40 -93 -21 -26 -105 -59 -195 -78 -87 -18 -107
-35 -107 -95 0 -58 20 -87 70 -102 37 -11 43 -10 91 19 27 18 59 32 69 32 10
0 31 5 47 11 48 18 212 39 353 45 74 3 138 8 142 11 5 2 47 5 93 4 64 0 107
-7 172 -27 49 -15 100 -26 115 -25 45 5 168 5 230 0 54 -4 59 -2 92 30 20 19
34 37 31 39 -3 3 0 11 6 18 16 19 -5 51 -51 74 -22 11 -47 20 -57 21 -35 1
-78 35 -81 62 -2 18 -13 32 -32 42 -32 16 -80 93 -91 145 -22 103 -39 170 -54
214 -9 27 -21 88 -25 137 -5 48 -13 96 -19 106 -5 11 -13 55 -16 99 -4 43 -9
93 -11 109 -3 17 -8 121 -10 233 -4 181 -7 206 -25 237 -21 35 -21 37 -16
1092 4 907 7 1069 21 1138 9 44 16 127 16 185 1 58 8 139 16 180 8 41 16 100
18 130 4 62 18 132 34 172 10 25 57 58 81 58 6 0 21 11 35 25 14 14 39 28 56
31 16 4 30 13 30 21 0 8 7 27 15 43 15 29 15 30 -22 55 -45 30 -62 31 -144 5
-71 -22 -107 -39 -127 -57 -7 -7 -21 -13 -30 -13 -206 -4 -361 0 -417 10 -38
7 -88 14 -110 16 -22 2 -58 8 -80 13 -22 6 -60 11 -85 11 -28 0 -78 14 -130
35 -107 44 -160 46 -189 9 -22 -29 -28 -85 -12 -127 7 -19 19 -25 56 -30 25
-4 65 -18 88 -31 23 -13 60 -29 83 -35 43 -12 66 -43 59 -80 -2 -12 3 -24 11
-29 9 -5 18 -28 20 -53 3 -24 10 -49 16 -56 6 -7 8 -13 6 -13 -3 0 -1 -21 4
-47 5 -27 11 -61 13 -78 4 -28 10 -74 21 -150 15 -107 20 -181 13 -190 -4 -6
-4 -17 1 -25 6 -8 10 -34 10 -57 0 -24 5 -43 11 -43 5 0 7 -4 4 -10 -9 -15
-11 -173 -2 -187 5 -8 3 -13 -5 -13 -10 0 -10 -2 -1 -8 6 -4 14 -39 18 -77 15
-173 15 -195 2 -195 -8 0 -9 -3 -1 -8 6 -4 11 -25 12 -47 0 -22 3 -96 7 -165
3 -69 5 -133 6 -142 0 -10 4 -18 9 -18 6 0 6 -9 1 -23 -5 -13 -4 -50 3 -92 6
-39 11 -74 11 -80 -1 -5 -5 -35 -10 -65 -7 -48 -11 -469 -4 -495 1 -5 -1 -18
-6 -28 -4 -9 -5 -27 -2 -39 3 -12 2 -29 -4 -39 -6 -11 -5 -28 2 -46 6 -15 13
-59 16 -98 10 -120 2 -479 -13 -615 -4 -36 -7 -71 -7 -78 0 -17 -44 -27 -70
-14 -12 5 -47 32 -78 59 -31 27 -71 56 -90 63 -38 16 -89 49 -114 73 -9 9 -45
26 -82 37 -69 21 -183 78 -183 91 0 4 -37 33 -82 65 -46 31 -98 70 -116 85
-18 16 -54 38 -80 50 -26 12 -49 25 -52 29 -6 8 -47 31 -100 56 -19 8 -48 28
-65 44 -32 29 -220 160 -231 160 -3 0 -19 9 -35 21 -23 16 -27 24 -19 35 7 7
9 17 6 23 -15 24 -36 477 -23 498 3 5 3 42 -1 81 -10 88 -8 745 2 1012 7 186
36 428 57 479 5 13 14 68 19 122 9 97 28 168 70 261 20 47 59 78 95 78 10 0
30 9 46 21 19 13 38 19 52 15 29 -7 76 41 87 88 7 30 4 37 -21 55 -15 12 -33
21 -38 21 -5 0 -16 6 -23 14 -11 10 -25 11 -59 5 -73 -13 -123 -26 -149 -37
-28 -12 -86 -24 -140 -28 -33 -3 -156 -16 -265 -29 -76 -9 -151 -7 -193 4 -21
6 -49 8 -62 6 -52 -10 -149 -8 -163 3 -8 7 -17 9 -21 4 -4 -4 -12 1 -17 11 -8
14 -18 16 -43 11 -40 -7 -92 16 -101 46 -5 15 -72 57 -79 49 0 -1 -13 -4 -28
-6z"/>
<path d="M4739 7455 c-7 -6 -155 -15 -356 -19 -95 -3 -183 -8 -195 -12 -24 -7
-140 -58 -170 -75 -10 -5 -26 -9 -36 -9 -37 0 -203 -123 -276 -204 -39 -44
-101 -110 -137 -147 -52 -53 -80 -94 -124 -181 -31 -62 -73 -137 -94 -167 -21
-30 -46 -77 -56 -105 -10 -28 -23 -60 -30 -72 -11 -18 -24 -68 -40 -159 -2
-11 -13 -51 -25 -90 -24 -79 -32 -104 -55 -190 -9 -33 -22 -80 -30 -105 -62
-206 -74 -254 -80 -315 -9 -108 -15 -147 -30 -185 -20 -51 -38 -156 -30 -169
11 -18 28 -248 24 -336 -6 -168 2 -423 15 -444 2 -3 7 -28 10 -56 3 -27 13
-75 22 -105 9 -30 20 -84 25 -119 6 -34 18 -84 28 -110 16 -39 26 -87 36 -176
2 -11 12 -52 23 -90 11 -39 23 -86 26 -106 4 -21 13 -42 21 -49 7 -6 28 -48
45 -93 17 -44 48 -101 68 -126 20 -25 37 -48 37 -52 0 -4 12 -26 28 -49 15
-23 27 -45 27 -48 0 -12 54 -68 100 -103 24 -19 72 -62 106 -96 60 -60 127
-103 159 -103 15 0 157 -89 163 -102 8 -18 161 -71 209 -73 34 -2 70 -12 104
-30 50 -26 58 -27 154 -22 66 3 122 13 164 27 49 17 76 21 117 16 47 -5 63 -2
117 23 68 31 130 53 163 57 21 2 82 30 194 90 30 16 76 50 103 77 26 26 52 47
58 47 5 0 45 34 89 76 44 42 80 73 80 68 0 -5 18 10 40 34 22 24 40 47 40 52
0 5 9 15 19 22 21 15 111 147 111 162 0 5 7 18 16 28 13 14 14 21 5 32 -7 9
-9 33 -5 68 6 53 5 56 -30 91 -42 42 -85 48 -139 21 -36 -18 -76 -62 -77 -83
0 -8 -7 -19 -14 -25 -8 -6 -16 -17 -18 -25 -4 -17 -35 -51 -47 -51 -4 0 -36
-31 -70 -69 -35 -37 -83 -78 -107 -90 -24 -12 -44 -27 -44 -32 0 -5 -8 -9 -17
-9 -10 0 -29 -7 -43 -15 -42 -23 -125 -64 -132 -65 -4 0 -45 -14 -90 -31 -103
-38 -99 -37 -233 -50 -118 -10 -195 -10 -195 2 0 4 -28 22 -62 39 -82 43 -84
44 -167 123 -39 37 -75 67 -80 67 -18 0 -93 87 -132 152 -23 37 -47 72 -55 79
-8 6 -14 20 -14 30 0 10 -4 20 -9 23 -12 8 -21 71 -27 181 -2 50 -9 106 -14
125 -6 19 -10 54 -10 77 0 22 -9 70 -20 105 -11 34 -20 78 -20 96 0 18 -5 43
-12 55 -6 12 -13 46 -14 77 -6 114 -15 197 -26 255 -6 33 -13 107 -14 165 -5
156 -12 282 -19 343 -4 31 -3 61 1 69 5 7 9 42 11 78 2 69 8 113 16 127 3 5 8
49 12 98 4 50 11 122 16 160 4 39 9 99 10 135 1 36 6 71 12 78 6 8 12 24 14
35 7 61 27 143 59 242 44 137 53 155 71 148 11 -4 13 0 8 19 -4 17 -1 31 11
43 9 9 39 62 66 117 27 55 63 114 80 131 16 18 35 39 42 47 12 17 125 93 196
133 25 14 66 27 90 30 25 3 52 8 60 11 19 6 225 29 265 29 17 0 46 -3 65 -6
64 -10 244 -22 293 -19 53 2 90 -13 152 -63 22 -17 51 -38 65 -45 39 -20 118
-111 131 -150 6 -19 26 -55 43 -79 78 -108 101 -115 170 -44 40 41 46 52 46
90 0 23 -4 43 -8 43 -4 0 -9 35 -10 78 -3 76 -3 78 -42 113 -22 20 -40 41 -40
47 0 13 -199 211 -241 240 -48 32 -124 83 -199 134 -36 25 -99 57 -140 73 -41
16 -77 31 -80 35 -3 4 -38 23 -79 43 -59 30 -85 37 -131 37 -31 0 -59 -2 -61
-5z"/>
<path d="M12045 7380 c-22 -5 -68 -9 -103 -9 -80 -1 -112 -15 -189 -82 -33
-30 -80 -67 -102 -83 -23 -17 -41 -33 -41 -38 0 -4 -40 -47 -88 -96 -49 -48
-98 -102 -111 -119 -12 -18 -48 -57 -79 -87 -36 -35 -71 -81 -95 -128 -20 -40
-57 -102 -81 -138 -55 -81 -154 -274 -162 -317 -4 -18 -10 -33 -13 -33 -14 0
-98 -226 -105 -283 -3 -20 -12 -46 -20 -59 -8 -13 -17 -39 -19 -58 -3 -19 -10
-48 -16 -63 -6 -15 -10 -38 -10 -50 1 -60 -16 -220 -25 -235 -2 -4 -6 -38 -8
-75 -1 -37 -5 -67 -9 -67 -4 0 -7 -12 -7 -27 0 -16 -3 -97 -6 -182 -4 -94 -2
-158 4 -166 5 -6 8 -54 6 -106 -4 -148 15 -346 38 -382 8 -12 14 -40 15 -62 1
-76 20 -143 68 -234 64 -121 67 -126 82 -145 7 -9 11 -16 8 -16 -9 0 50 -106
85 -154 15 -21 28 -47 28 -56 0 -21 82 -191 102 -211 8 -8 27 -35 43 -59 15
-25 42 -61 61 -80 18 -19 45 -60 59 -91 14 -31 48 -81 76 -110 28 -30 67 -74
87 -99 34 -42 140 -150 193 -196 13 -12 38 -37 55 -55 20 -22 49 -39 80 -48
29 -9 69 -32 99 -58 39 -34 57 -43 87 -43 34 0 60 -7 114 -32 27 -13 211 6
259 26 19 8 56 18 82 22 26 4 68 15 93 24 25 10 63 18 85 18 54 2 97 15 153
50 26 16 63 34 82 40 19 7 46 22 60 35 14 12 54 45 90 71 36 27 80 63 98 80
18 17 35 30 38 28 2 -1 33 31 69 71 47 54 62 80 59 94 -3 12 -1 24 5 27 6 4
11 18 11 30 0 13 12 40 26 61 14 21 34 59 44 85 16 40 17 51 6 72 -11 21 -10
30 5 59 13 25 18 57 19 121 0 87 0 88 -30 103 -23 12 -35 13 -51 5 -11 -6 -25
-10 -31 -8 -7 3 -31 -35 -54 -83 -23 -48 -49 -91 -57 -96 -8 -4 -22 -24 -32
-43 -9 -19 -39 -57 -67 -85 -27 -27 -78 -81 -114 -118 -41 -42 -76 -70 -94
-73 -16 -4 -31 -12 -34 -19 -6 -15 -161 -100 -221 -121 -51 -17 -148 -12 -230
11 -27 8 -81 19 -118 24 -48 7 -75 16 -93 33 -14 13 -34 30 -43 38 -9 8 -35
27 -57 41 -22 15 -66 60 -99 100 -33 41 -70 85 -82 99 -13 14 -23 29 -23 34 0
4 -15 29 -33 55 -36 50 -81 140 -73 148 2 3 -13 43 -35 89 -21 47 -45 121 -54
165 -8 45 -26 118 -39 162 -14 45 -25 93 -24 107 0 32 -17 136 -37 225 -27
121 -40 271 -25 290 13 17 19 94 10 128 -18 65 -31 269 -19 283 8 10 8 18 1
27 -6 7 -11 28 -11 47 -1 86 8 318 12 350 3 19 8 69 12 110 4 41 9 79 12 83 3
5 7 36 9 70 12 203 18 256 36 301 10 27 16 51 14 54 -3 3 1 17 8 31 8 14 31
66 52 114 25 58 60 116 106 173 37 47 68 89 68 94 0 4 31 35 69 68 56 48 85
65 143 83 40 12 80 22 88 22 8 -1 38 6 65 15 53 16 181 33 255 33 138 0 237
-7 260 -20 71 -39 160 -104 165 -121 3 -10 28 -35 56 -55 27 -20 49 -41 49
-46 0 -5 24 -34 53 -63 54 -55 91 -124 102 -188 9 -55 29 -71 83 -65 54 6 73
27 94 103 13 47 13 58 -2 107 -9 30 -31 79 -47 108 -17 30 -33 69 -36 86 -8
44 -42 117 -62 133 -8 7 -15 17 -15 22 0 9 -46 65 -133 164 -38 42 -150 110
-249 150 -27 10 -48 22 -48 27 0 4 -9 7 -21 7 -12 0 -35 7 -52 15 -151 69
-188 78 -327 82 -74 1 -171 5 -215 7 -44 3 -98 1 -120 -4z"/>
<path d="M6680 5604 c-136 -35 -189 -55 -195 -74 -5 -16 -28 -30 -55 -35 -21
-3 -49 -29 -60 -54 -6 -16 -18 -32 -25 -34 -7 -3 -13 -24 -13 -51 -1 -26 -6
-63 -11 -84 -5 -20 -8 -50 -7 -67 1 -16 -2 -41 -7 -55 -14 -42 -10 -107 10
-140 17 -29 95 -80 147 -96 11 -4 33 -15 48 -25 46 -33 180 -19 250 24 13 8
44 18 70 21 93 14 213 124 229 211 5 29 5 55 -2 73 -23 58 -36 125 -33 164 4
45 -16 88 -41 88 -8 0 -25 14 -37 31 -42 56 -149 121 -197 118 -9 0 -41 -7
-71 -15z"/>
<path d="M27125 5570 c-22 -5 -53 -14 -70 -20 -16 -6 -31 -11 -33 -11 -1 1
-15 -5 -31 -13 -16 -9 -32 -12 -36 -8 -5 4 -5 2 -2 -4 4 -7 -3 -14 -16 -18
-30 -8 -75 -51 -136 -130 -48 -63 -61 -101 -52 -150 1 -5 -2 -12 -8 -15 -15
-9 -20 -85 -10 -128 6 -21 14 -69 18 -106 9 -74 33 -110 77 -121 13 -4 28 -15
34 -26 25 -47 117 -73 211 -60 36 5 79 6 95 1 33 -9 99 6 132 30 11 8 30 35
40 60 11 24 35 61 53 81 19 20 53 70 76 110 36 63 41 78 34 108 -4 19 -7 67
-6 105 1 79 -7 96 -71 160 -95 92 -178 149 -234 159 -14 2 -43 0 -65 -4z"/>
</g>
</svg>
