<?xml version="1.0" standalone="no"?>
<!DOCTYPE svg PUBLIC "-//W3C//DTD SVG 20010904//EN"
 "http://www.w3.org/TR/2001/REC-SVG-20010904/DTD/svg10.dtd">
<svg version="1.0" xmlns="http://www.w3.org/2000/svg"
 width="1504.000000pt" height="1567.000000pt" viewBox="0 0 1504.000000 1567.000000"
 preserveAspectRatio="xMidYMid meet">
<metadata>
Created by potrace 1.13, written by Peter Selinger 2001-2015
</metadata>
<g transform="translate(0.000000,1567.000000) scale(0.100000,-0.100000)"
fill="#000000" stroke="none">
<path d="M8650 14948 c-19 -5 -60 -13 -90 -17 -30 -4 -65 -12 -77 -19 -12 -7
-37 -12 -56 -12 -24 0 -54 -13 -101 -45 -37 -25 -79 -45 -92 -45 -29 0 -79
-24 -91 -43 -8 -13 -122 -70 -178 -89 -53 -18 -128 -29 -250 -39 -66 -5 -160
-14 -210 -20 -49 -5 -147 -12 -216 -15 -120 -5 -130 -4 -190 21 -42 17 -95 29
-154 34 -96 9 -123 17 -223 62 -52 24 -75 29 -143 29 -48 0 -91 6 -107 14 -15
7 -47 16 -70 20 -24 4 -61 15 -81 26 -57 29 -131 36 -169 16 -35 -18 -62 -62
-62 -101 0 -30 24 -81 44 -92 8 -4 16 -27 19 -50 2 -24 10 -49 17 -58 6 -8 12
-31 12 -52 0 -21 8 -50 19 -64 10 -15 19 -30 19 -35 0 -4 11 -22 25 -40 14
-18 28 -46 31 -62 3 -16 17 -42 30 -58 13 -16 27 -34 32 -39 5 -6 12 -24 16
-40 10 -41 29 -85 38 -85 4 0 5 -11 2 -25 -2 -14 0 -25 6 -25 5 0 10 -11 10
-24 0 -14 6 -31 13 -38 8 -7 12 -19 9 -26 -2 -6 2 -12 9 -12 7 0 9 -3 6 -7 -4
-3 -2 -12 4 -20 7 -7 13 -23 14 -36 5 -38 13 -71 23 -98 6 -15 9 -29 6 -32 -2
-2 0 -17 6 -33 6 -16 11 -31 12 -34 0 -3 4 -10 10 -17 5 -7 7 -17 3 -24 -4 -6
-2 -14 4 -18 15 -10 22 -56 26 -166 1 -49 3 -92 5 -95 6 -16 10 -84 12 -237 2
-111 7 -176 15 -184 7 -7 8 -21 3 -40 -5 -16 -6 -40 -3 -52 3 -12 6 -51 6 -87
1 -36 4 -67 8 -70 13 -9 10 -169 -4 -287 -3 -18 -1 -33 4 -33 4 0 5 -21 2 -47
-7 -56 -8 -111 -3 -208 2 -38 0 -90 -3 -115 -10 -71 -19 -343 -17 -480 5 -246
5 -296 -2 -382 -3 -48 -9 -92 -13 -98 -4 -7 -8 -80 -9 -164 -2 -84 -5 -157 -9
-162 -3 -6 -8 -48 -11 -95 -2 -46 -7 -96 -11 -111 -4 -16 -3 -28 1 -28 12 0 6
-227 -7 -268 -8 -24 -8 -37 1 -47 7 -8 14 -47 16 -87 3 -40 6 -94 7 -120 1
-27 -1 -48 -6 -48 -5 0 -6 -17 -2 -37 4 -21 9 -85 11 -143 3 -119 9 -174 21
-195 11 -19 -4 -215 -18 -240 -3 -5 -4 -28 -2 -50 2 -22 5 -104 6 -181 2 -91
7 -146 14 -155 7 -8 10 -24 8 -34 -2 -11 -4 -37 -4 -57 -1 -30 -5 -39 -23 -43
-45 -11 -315 -21 -453 -17 -38 2 -77 2 -85 1 -29 -3 -272 11 -280 16 -5 3 -11
1 -15 -5 -3 -5 -20 -9 -38 -9 -18 1 -79 -5 -137 -12 -91 -11 -572 -20 -890
-16 -127 2 -180 0 -350 -8 -159 -8 -242 -9 -775 -16 -170 -2 -315 -7 -321 -11
-6 -4 -62 -7 -125 -8 -63 0 -152 -2 -199 -4 -115 -5 -310 13 -424 39 -33 8
-63 12 -67 9 -4 -2 -10 0 -14 6 -4 6 -50 10 -113 10 -59 -1 -143 2 -187 7 -44
4 -96 7 -115 6 -134 -5 -186 -2 -236 13 -31 9 -69 14 -84 11 -15 -3 -31 -2
-37 4 -5 5 -45 13 -89 18 -126 15 -223 43 -291 84 -65 39 -156 63 -281 73 -61
5 -64 4 -93 -28 -40 -42 -52 -73 -44 -118 7 -41 55 -99 100 -121 17 -8 36 -20
43 -26 7 -7 24 -16 38 -19 13 -3 23 -11 22 -18 -4 -16 39 -111 57 -126 8 -7
15 -19 15 -27 0 -8 4 -12 8 -9 4 2 9 -9 10 -25 1 -16 11 -46 21 -66 19 -37 34
-74 61 -143 10 -23 15 -93 17 -210 5 -232 4 -249 -8 -272 -6 -10 -15 -47 -20
-81 -6 -34 -14 -66 -19 -72 -5 -6 -9 -20 -9 -30 1 -53 -13 -150 -22 -155 -5
-4 -11 -18 -13 -31 -2 -13 -8 -35 -13 -49 -6 -14 -13 -45 -17 -69 -3 -25 -10
-47 -14 -50 -15 -10 -20 -47 -10 -66 7 -11 7 -20 1 -24 -6 -3 -13 -63 -16
-133 -3 -70 -11 -138 -18 -150 -6 -12 -13 -39 -15 -61 -1 -22 -8 -43 -14 -47
-7 -4 -11 -10 -11 -14 0 -6 -5 -26 -16 -53 -3 -10 -7 -20 -7 -23 -1 -3 -4 -9
-7 -15 -4 -5 -5 -20 -4 -32 1 -12 -4 -24 -10 -27 -7 -2 -13 -15 -13 -28 0 -13
-16 -58 -36 -101 -20 -43 -36 -90 -36 -105 0 -58 120 -119 210 -106 34 5 105
41 132 67 30 28 167 116 208 133 85 36 128 59 156 84 19 16 39 30 45 30 5 0
33 16 61 36 29 19 65 38 80 41 16 3 31 10 34 14 3 5 9 7 14 4 11 -7 159 42
180 60 8 6 42 25 75 41 33 16 62 31 65 34 3 3 44 18 93 34 48 16 87 33 87 36
0 4 28 13 63 19 92 18 218 51 254 67 83 37 213 68 278 66 11 -1 22 3 25 9 4 5
24 10 46 11 21 1 42 5 45 10 3 5 34 11 70 14 120 11 139 13 147 18 5 3 31 8
58 11 82 11 266 43 309 54 22 6 90 14 150 17 61 3 112 10 113 15 2 5 25 9 50
9 26 0 65 5 86 11 22 6 72 12 110 14 39 1 73 4 76 5 3 2 75 3 160 4 223 2 454
16 461 28 4 7 27 8 60 4 66 -9 68 -9 199 4 132 12 205 14 220 5 6 -4 17 -2 24
4 13 11 256 9 375 -3 30 -3 59 -2 65 2 6 4 25 8 41 9 30 2 122 11 200 19 22 3
128 6 235 8 155 3 202 1 230 -10 19 -8 45 -12 57 -9 40 10 58 -34 61 -150 11
-432 13 -596 8 -677 -1 -21 1 -38 6 -38 5 0 6 -4 3 -10 -3 -5 -3 -10 2 -10 9
0 9 -63 0 -100 -4 -14 -9 -57 -11 -97 -2 -40 -7 -76 -10 -82 -4 -5 -2 -12 3
-16 9 -5 8 -96 -2 -140 -2 -11 0 -25 5 -32 6 -7 6 -19 -1 -31 -13 -25 -9 -110
6 -116 11 -5 11 -122 0 -133 -3 -2 -1 -19 3 -36 4 -18 2 -44 -3 -57 -13 -30
-16 -100 -5 -100 4 0 4 -10 0 -22 -4 -13 -7 -49 -7 -80 1 -32 -2 -58 -7 -58
-13 0 -9 -55 4 -69 8 -8 8 -11 2 -8 -18 10 -25 -35 -9 -59 9 -14 10 -25 3 -32
-6 -6 -6 -12 1 -16 5 -4 7 -14 4 -23 -5 -12 -3 -14 8 -8 10 6 9 3 -2 -11 -14
-16 -18 -59 -8 -100 1 -5 -1 -17 -5 -26 -5 -10 -5 -37 -1 -60 8 -54 8 -72 0
-183 -7 -97 -7 -125 -2 -285 2 -59 -1 -112 -7 -122 -7 -11 -7 -33 0 -67 6 -28
8 -51 5 -51 -3 0 -6 -36 -5 -80 0 -44 -3 -80 -7 -80 -3 0 -5 -35 -3 -78 1 -42
3 -93 3 -112 1 -43 -5 -163 -9 -170 -7 -15 -7 -60 0 -55 5 3 8 -14 7 -39 -1
-24 1 -42 6 -39 4 2 7 -1 7 -6 0 -6 -4 -11 -10 -11 -5 0 -10 -10 -10 -23 0
-13 -6 -29 -12 -37 -11 -12 -10 -12 3 -2 9 6 19 9 22 5 12 -11 7 -23 -9 -23
-8 0 -13 -4 -9 -9 3 -5 0 -13 -7 -18 -13 -8 -18 -9 -38 -12 -19 -2 -10 -21 10
-21 13 0 20 -7 20 -20 0 -11 5 -20 10 -20 16 0 12 -27 -5 -34 -13 -5 -13 -8 3
-24 13 -13 18 -28 14 -50 -2 -18 -8 -32 -13 -32 -13 0 -11 -16 4 -32 16 -17
20 -77 6 -94 -12 -15 -7 -78 9 -97 11 -13 13 -69 3 -62 -4 2 -6 -11 -4 -28 3
-29 11 -141 12 -175 1 -8 6 -10 14 -6 8 5 8 2 -2 -9 -9 -12 -10 -21 -3 -30 6
-7 7 -28 2 -55 -4 -23 -6 -56 -4 -72 2 -18 -1 -33 -9 -36 -8 -3 -12 -20 -10
-46 1 -23 -3 -45 -9 -49 -6 -4 -12 -23 -12 -43 -1 -20 -4 -36 -8 -36 -4 0 -5
-7 -2 -15 4 -8 3 -23 -1 -32 -8 -19 -14 -50 -18 -98 -1 -16 -6 -36 -10 -43 -5
-6 -6 -16 -2 -21 3 -5 1 -12 -5 -16 -12 -7 -12 -61 -1 -90 5 -12 3 -39 -5 -65
-8 -25 -14 -55 -14 -67 0 -12 -6 -28 -14 -35 -8 -8 -16 -45 -19 -84 -7 -84
-17 -134 -26 -134 -4 0 -8 -6 -8 -12 -1 -41 -16 -114 -26 -126 -6 -8 -12 -41
-13 -74 0 -32 -6 -64 -13 -71 -6 -6 -11 -23 -11 -37 0 -14 -4 -30 -8 -35 -5
-6 -14 -29 -22 -52 -12 -40 -12 -44 15 -79 26 -34 29 -36 74 -30 50 7 52 7
188 6 51 0 112 5 135 11 24 6 53 13 66 16 12 3 22 9 22 14 0 5 11 9 24 9 12 0
36 4 52 9 29 10 57 15 167 31 31 4 63 13 71 19 7 6 24 11 37 11 165 3 261 9
271 17 8 6 61 5 148 -3 183 -16 208 -20 224 -33 8 -7 36 -14 62 -17 26 -2 51
-9 54 -15 4 -5 18 -11 31 -13 33 -4 62 -17 75 -34 6 -9 20 -13 32 -10 11 3 29
0 39 -6 10 -7 38 -18 63 -26 45 -14 87 -34 190 -91 30 -17 80 -44 111 -59 31
-16 63 -39 71 -52 23 -34 91 -53 126 -34 15 7 44 21 64 29 47 21 65 55 73 144
7 65 6 72 -13 82 -25 13 -86 104 -107 162 -19 48 -49 110 -114 234 -32 61 -41
88 -37 113 3 17 0 32 -5 32 -5 0 -17 17 -27 37 -9 21 -22 43 -28 48 -6 6 -21
51 -34 100 -30 117 -49 183 -65 220 -7 17 -16 54 -20 83 -4 29 -16 70 -26 93
-11 22 -21 56 -23 74 -2 19 -8 40 -13 47 -15 19 -31 76 -37 133 -7 72 -27 168
-37 179 -5 6 -9 31 -9 56 0 25 -5 61 -10 80 -6 19 -12 46 -15 60 -6 32 -20 98
-40 184 -8 38 -15 85 -14 105 1 20 -3 70 -9 111 -6 41 -13 113 -16 160 -6 94
-15 167 -23 190 -4 8 -7 29 -8 45 -6 77 -17 271 -15 280 9 58 5 305 -5 364 -7
41 -12 86 -10 101 6 47 6 143 1 227 -4 52 -2 83 4 83 14 0 12 24 -2 39 -10 9
-13 95 -15 349 -1 185 -4 420 -8 522 -3 102 -5 244 -4 315 5 398 5 506 -2 511
-5 2 -6 42 -3 87 4 45 8 178 10 295 2 117 6 217 10 223 3 5 1 16 -5 22 -5 7
-13 68 -16 135 -5 113 -3 124 15 142 11 11 35 21 53 21 17 1 43 3 57 4 62 7
224 7 320 1 58 -4 130 -3 160 1 30 5 98 5 150 1 52 -5 127 -10 165 -12 39 -2
86 -8 105 -14 21 -7 99 -11 195 -11 191 2 391 -8 414 -20 29 -16 220 -29 286
-21 34 5 396 -11 465 -19 36 -5 155 -7 265 -5 281 6 389 4 399 -6 4 -4 20 -5
35 -1 28 7 80 6 177 -3 34 -4 102 -8 151 -10 49 -2 98 -8 109 -13 33 -18 150
-43 215 -47 35 -3 78 -7 94 -10 17 -3 45 -9 64 -12 19 -3 43 -12 55 -19 13 -8
65 -16 130 -20 61 -3 113 -8 116 -10 4 -2 48 -7 99 -11 51 -3 105 -12 119 -20
15 -8 37 -14 50 -14 12 0 22 -4 22 -8 0 -4 8 -8 18 -9 38 -3 149 -13 177 -17
42 -5 164 -54 200 -81 33 -24 94 -45 133 -45 13 0 31 -7 39 -16 9 -9 26 -14
40 -11 13 2 42 -2 64 -9 22 -8 46 -11 52 -8 7 4 8 3 4 -1 -8 -10 64 -35 99
-35 17 0 121 -48 169 -78 5 -4 16 -7 24 -9 8 -1 17 -6 20 -12 4 -6 49 -13 100
-16 97 -7 139 -18 206 -54 54 -29 86 -27 126 9 19 16 36 30 39 30 13 0 32 92
25 123 -4 17 -7 53 -7 80 1 37 -5 53 -23 71 -13 14 -27 37 -31 53 -4 15 -17
44 -29 63 -12 19 -22 37 -23 40 0 3 -5 18 -11 33 -6 16 -11 38 -11 50 0 12 -5
39 -11 61 -13 46 -15 56 -24 126 -4 30 -11 58 -16 61 -5 3 -11 29 -13 57 -3
29 -8 57 -12 63 -4 7 -9 50 -11 97 -2 47 -7 90 -12 96 -5 6 -14 56 -20 111 -5
55 -13 123 -16 150 -11 92 -7 231 9 271 17 47 30 96 27 107 -1 5 5 28 14 53 8
25 17 73 20 107 12 176 18 220 41 316 13 58 28 109 32 115 5 6 9 22 10 35 1
15 17 39 40 60 49 45 71 99 54 136 -7 14 -12 34 -12 45 0 37 -70 159 -100 175
-37 19 -137 19 -170 0 -14 -8 -35 -14 -48 -15 -23 0 -112 -76 -112 -96 0 -5
-17 -17 -37 -25 -21 -8 -53 -22 -72 -31 -20 -10 -43 -18 -53 -18 -9 0 -20 -4
-23 -10 -3 -5 -18 -10 -33 -10 -15 0 -40 -11 -56 -25 -15 -13 -44 -30 -65 -36
-20 -7 -55 -22 -77 -34 -63 -34 -94 -39 -95 -18 0 15 -2 15 -11 -3 -11 -24
-47 -40 -173 -79 -49 -16 -95 -32 -100 -36 -13 -10 -127 -28 -175 -28 -19 0
-60 -5 -90 -11 -123 -23 -200 -31 -305 -29 -60 0 -182 -4 -270 -11 -88 -6
-172 -9 -187 -6 -15 3 -28 2 -30 -2 -2 -4 -70 -4 -153 -1 -82 4 -154 5 -159 2
-5 -3 -71 -5 -147 -4 -79 1 -147 -2 -157 -8 -11 -6 -86 -13 -168 -16 -183 -7
-160 -7 -331 0 -109 5 -143 4 -143 -6 0 -8 -14 -10 -47 -6 -27 3 -97 1 -158
-4 -60 -5 -132 -11 -160 -13 -27 -3 -99 -9 -160 -15 -146 -15 -144 -15 -269
-8 -81 5 -121 3 -150 -7 -61 -21 -196 -29 -436 -28 -264 2 -357 6 -437 16 -36
5 -63 5 -63 0 0 -7 -514 -13 -557 -6 -6 1 -18 9 -27 17 -12 12 -13 22 -5 43 6
15 8 42 4 60 -4 20 -1 39 5 47 13 15 14 179 2 310 -4 44 -5 107 -2 140 3 33 1
84 -4 113 -4 29 -5 60 -1 70 4 9 8 51 11 92 2 41 6 93 8 115 3 22 0 45 -6 52
-5 7 -7 16 -4 21 6 10 8 319 2 372 -2 19 2 47 9 63 8 17 10 27 3 27 -7 0 -7
13 -2 38 4 20 9 60 10 87 2 28 12 103 22 169 15 94 17 123 8 141 -7 13 -11 56
-10 101 7 196 14 298 23 307 5 5 7 15 5 22 -3 7 -1 16 5 20 14 8 14 111 0 189
-8 47 -8 68 1 91 7 17 12 45 11 63 -2 18 2 39 8 45 6 8 7 38 0 87 -8 66 1 216
15 238 2 4 7 61 10 126 4 66 9 123 12 128 3 5 7 32 9 61 11 183 22 252 41 268
11 9 12 14 3 20 -15 9 -14 6 -23 126 -4 53 -3 99 2 110 21 40 43 164 47 263 5
133 20 267 40 350 9 36 22 98 30 138 8 40 19 88 24 105 6 18 18 66 26 107 8
41 21 102 28 135 11 49 95 224 148 305 5 8 22 35 37 59 15 24 41 62 57 85 17
23 53 77 79 121 27 44 58 92 70 106 11 15 39 57 61 94 22 38 52 80 66 94 79
78 63 158 -41 211 -62 31 -91 35 -150 18z"/>
<path d="M11313 14264 c-35 -18 -77 -63 -133 -143 -43 -62 -72 -69 -161 -40
-35 11 -109 25 -164 30 -145 13 -193 22 -353 68 -78 23 -156 41 -172 41 -17 0
-30 5 -30 10 0 13 -37 13 -45 1 -6 -11 -96 -6 -208 11 -57 9 -93 9 -130 1 -29
-5 -68 -8 -87 -6 -55 6 -119 3 -146 -7 -14 -6 -39 -10 -55 -10 -33 0 -128 -43
-156 -71 -73 -72 -113 -121 -118 -145 -3 -16 -11 -45 -17 -65 -22 -77 28 -206
110 -286 67 -65 91 -78 169 -96 68 -16 102 -8 158 38 20 17 51 42 69 57 18 15
38 45 46 69 13 38 12 47 -8 103 -12 33 -22 69 -22 79 0 10 -16 33 -35 50 -41
36 -46 66 -12 69 61 4 76 5 111 12 42 8 340 -9 451 -25 39 -6 108 -20 155 -31
118 -28 162 -34 305 -42 39 -3 78 -7 88 -11 25 -10 21 -41 -10 -70 -16 -14
-42 -39 -60 -56 -86 -83 -60 -219 43 -219 35 0 46 5 63 28 12 15 25 32 31 39
5 7 10 19 10 28 0 23 128 147 174 169 29 14 50 16 94 11 31 -4 61 -9 66 -13
13 -8 127 -40 201 -56 33 -8 110 -14 170 -15 140 -2 181 -11 227 -49 9 -8 22
-11 29 -6 7 4 10 3 6 -3 -4 -6 20 -10 59 -11 36 -1 97 -8 137 -16 155 -31 163
-32 302 -15 61 7 132 12 159 11 67 -3 169 24 276 72 43 19 156 114 168 141 29
63 6 138 -74 238 -35 44 -52 57 -73 57 -15 0 -31 4 -36 9 -20 19 -135 22 -186
6 -27 -9 -49 -21 -49 -26 0 -12 -55 -39 -80 -39 -11 0 -20 -7 -20 -15 0 -8 -9
-29 -20 -47 -25 -41 -25 -69 0 -138 12 -34 16 -58 10 -64 -24 -24 -283 -36
-337 -15 -15 6 -57 11 -93 11 -36 0 -69 4 -75 8 -5 4 -28 13 -50 20 -22 7 -45
17 -51 21 -6 5 -81 14 -165 19 -171 12 -312 37 -347 61 -26 19 -22 41 11 56
13 6 35 36 50 66 26 55 27 57 10 91 -29 61 -112 83 -180 50z"/>
<path d="M2360 14250 c-66 -5 -90 -14 -207 -74 -137 -69 -160 -89 -201 -171
-39 -79 -38 -273 3 -359 27 -57 127 -112 221 -123 42 -5 84 10 133 48 13 11
39 19 57 19 41 0 104 54 129 111 18 38 18 39 -11 96 -16 32 -41 73 -56 91 -15
18 -28 38 -28 45 0 7 33 29 72 48 40 19 83 45 95 58 22 23 29 24 132 22 117
-2 181 -16 229 -50 17 -11 33 -21 36 -21 3 0 35 -13 71 -30 36 -16 68 -30 71
-30 4 0 38 -16 78 -35 39 -19 94 -40 121 -46 60 -14 116 -39 122 -56 5 -11 -8
-41 -59 -136 -23 -43 -22 -72 3 -124 16 -33 28 -45 50 -50 16 -3 31 -4 35 -3
4 1 11 -4 16 -12 7 -10 10 -10 19 5 5 9 17 17 24 17 8 0 15 5 15 10 0 6 11 10
25 10 14 0 39 12 55 28 27 23 31 34 32 80 2 63 15 77 66 69 20 -3 73 -10 117
-17 44 -6 89 -15 100 -19 36 -16 175 -41 228 -41 30 -1 82 -12 122 -26 64 -23
186 -58 244 -69 12 -2 51 -13 85 -24 69 -22 108 -31 117 -28 4 1 15 -5 25 -14
33 -29 77 -32 152 -9 39 11 102 24 142 29 39 5 94 21 123 35 60 29 140 56 166
56 10 0 45 13 77 30 78 38 94 70 94 183 0 53 -5 92 -15 111 -8 15 -15 33 -15
40 0 6 -17 31 -38 56 -35 40 -44 45 -93 50 -30 3 -67 2 -84 -2 -16 -4 -54 -9
-83 -11 -29 -3 -58 -9 -65 -16 -6 -6 -22 -11 -35 -11 -14 0 -58 -16 -98 -35
-40 -19 -77 -35 -84 -35 -12 0 -70 -38 -83 -55 -15 -19 2 -79 30 -104 15 -14
30 -25 34 -24 3 1 4 -9 1 -22 -2 -14 -8 -23 -12 -20 -4 3 -10 -2 -14 -10 -3
-8 -15 -15 -26 -15 -11 0 -20 -4 -20 -9 0 -10 -81 -2 -90 8 -3 3 -30 7 -60 8
-50 3 -251 47 -275 62 -5 3 -14 6 -20 6 -28 2 -91 19 -101 26 -6 5 -44 9 -84
10 -40 1 -112 12 -159 24 -201 51 -231 60 -231 68 0 4 5 7 10 7 6 0 10 8 10
18 0 21 28 49 83 81 50 31 69 69 60 123 -15 94 -111 132 -173 68 -16 -16 -33
-30 -38 -30 -4 0 -16 -14 -26 -31 -10 -17 -29 -40 -42 -52 -13 -11 -20 -25
-17 -31 3 -6 3 -8 -2 -4 -7 7 -35 -14 -35 -27 0 -27 -63 -46 -85 -27 -10 9
-106 39 -198 63 -27 7 -64 22 -82 35 -18 12 -44 25 -56 29 -52 14 -199 78
-199 86 0 5 -7 9 -15 9 -8 0 -15 4 -15 10 0 23 -110 37 -343 44 -71 2 -131 7
-134 10 -7 6 -10 6 -123 -4z"/>
<path d="M12379 13290 c-5 -4 -116 -110 -247 -238 -161 -156 -249 -250 -272
-289 -19 -32 -38 -59 -42 -61 -5 -2 -8 -8 -8 -13 0 -5 -29 -44 -64 -87 -34
-42 -75 -98 -89 -124 -15 -27 -51 -84 -81 -127 -30 -44 -57 -88 -60 -99 -4
-11 -15 -27 -26 -37 -11 -10 -20 -24 -20 -30 0 -7 -12 -30 -26 -51 -28 -40
-111 -204 -134 -261 -7 -18 -16 -33 -21 -33 -5 0 -8 -3 -7 -7 1 -5 -6 -25 -15
-47 -9 -21 -17 -42 -17 -46 0 -11 -20 -47 -75 -130 -27 -41 -55 -97 -63 -125
-20 -67 -27 -164 -13 -178 6 -6 11 -23 11 -38 0 -15 5 -31 10 -34 6 -3 10 -18
10 -34 0 -15 20 -67 45 -116 25 -50 57 -116 69 -147 13 -31 38 -76 55 -101 16
-24 38 -64 47 -88 9 -24 24 -52 32 -61 8 -10 12 -18 8 -18 -8 0 41 -90 100
-180 24 -38 44 -72 44 -77 0 -5 8 -16 18 -24 33 -31 77 -84 89 -109 7 -14 23
-50 37 -80 13 -30 45 -77 71 -104 26 -28 54 -64 61 -83 8 -18 27 -47 42 -65
15 -18 44 -56 64 -84 52 -72 168 -175 235 -209 32 -16 78 -43 103 -61 25 -17
59 -39 77 -48 80 -41 207 2 253 85 46 82 94 136 160 178 36 22 77 51 92 63 15
13 43 35 61 50 23 19 55 70 102 165 38 76 71 140 74 143 16 14 81 144 81 162
0 7 9 24 20 38 11 14 20 31 20 38 0 14 26 43 115 131 68 67 85 95 85 138 0 33
-29 84 -62 108 -71 50 -136 85 -160 85 -15 0 -44 12 -65 26 -37 25 -42 26
-159 22 -115 -4 -124 -5 -158 -32 -52 -39 -62 -70 -42 -127 12 -34 16 -83 16
-178 0 -120 -3 -139 -31 -227 -42 -126 -109 -224 -190 -276 -27 -17 -57 -97
-45 -117 4 -5 -5 -18 -20 -28 -14 -10 -40 -30 -57 -46 -29 -26 -31 -27 -51
-10 -40 34 -166 201 -166 220 0 13 -31 86 -85 198 -19 39 -38 82 -44 96 -5 15
-42 75 -81 133 -39 59 -76 121 -82 139 -6 18 -15 34 -18 37 -4 3 -15 25 -23
50 -22 67 -47 131 -66 170 -8 19 -16 40 -16 45 0 6 -4 16 -8 23 -5 6 -19 44
-33 84 -24 71 -24 73 -8 147 8 42 18 94 20 115 3 22 8 44 11 50 4 6 15 53 24
106 10 52 27 133 38 180 12 47 24 112 27 145 6 57 61 181 100 226 8 8 18 56
23 106 8 74 17 106 54 184 63 135 77 168 77 184 0 9 9 23 19 32 11 9 18 20 16
24 -3 4 2 12 10 19 8 7 15 16 15 21 0 14 61 98 108 148 24 25 61 72 83 103 41
59 59 65 80 27 5 -10 26 -28 47 -38 20 -10 47 -30 58 -43 24 -26 70 -152 78
-213 3 -22 12 -60 21 -85 21 -58 56 -199 57 -225 0 -11 -3 -50 -7 -86 -9 -79
1 -103 52 -124 57 -24 86 -19 120 19 17 18 38 46 46 62 19 35 65 72 132 107
61 32 145 107 145 129 0 9 5 20 10 23 6 3 10 26 10 49 0 48 -39 129 -71 149
-11 7 -19 19 -19 27 0 24 -33 72 -86 127 -27 27 -56 63 -65 79 -16 30 -76 76
-142 111 -18 9 -37 23 -43 31 -6 9 -31 25 -55 36 -26 13 -54 37 -71 62 -26 39
-42 49 -113 70 -16 5 -34 19 -39 31 -18 40 -91 65 -127 43z"/>
<path d="M9599 13149 c-19 -16 -46 -29 -60 -29 -14 0 -43 -11 -63 -25 -20 -14
-43 -25 -50 -25 -7 0 -28 -10 -47 -23 -62 -42 -95 -51 -142 -39 -115 29 -195
16 -243 -41 -41 -49 -20 -110 47 -137 16 -7 27 -16 24 -20 -7 -11 139 -156
215 -215 36 -27 71 -56 78 -62 7 -7 18 -13 23 -13 5 0 9 -5 9 -12 0 -6 11 -26
25 -44 14 -18 25 -35 25 -39 0 -3 18 -29 40 -58 22 -29 59 -78 82 -110 24 -31
48 -63 54 -70 5 -6 25 -39 42 -72 18 -33 41 -71 52 -85 72 -91 100 -131 100
-140 0 -5 4 -10 9 -10 5 0 14 -15 22 -32 7 -18 24 -51 39 -73 28 -42 60 -133
60 -169 0 -24 -41 -99 -71 -130 -62 -65 -119 -139 -139 -180 -13 -25 -27 -46
-31 -46 -4 0 -19 -25 -33 -55 -30 -63 -74 -130 -108 -165 -14 -14 -39 -52 -58
-85 -18 -33 -41 -71 -52 -85 -10 -14 -42 -61 -70 -105 -28 -44 -57 -84 -64
-88 -8 -4 -14 -15 -14 -22 0 -8 -8 -23 -18 -33 -23 -23 -82 -111 -82 -122 0
-23 -87 -134 -167 -212 -130 -128 -157 -159 -173 -198 -17 -43 -84 -144 -122
-185 -15 -16 -28 -36 -28 -42 0 -7 -4 -13 -10 -13 -5 0 -10 -7 -10 -15 0 -8
-4 -15 -8 -15 -4 0 -23 -25 -41 -55 -74 -122 -20 -214 126 -216 72 -1 99 9
143 55 37 39 96 62 185 70 28 3 64 9 80 14 36 10 46 9 63 -1 36 -23 71 -25
112 -5 35 18 46 32 84 112 49 100 68 183 45 196 -10 7 -10 14 -1 35 7 14 12
52 12 85 0 40 5 64 16 74 8 9 13 16 9 16 -3 0 1 10 8 23 8 12 20 42 27 67 14
50 27 85 43 115 6 11 20 38 32 60 11 22 30 55 42 74 12 18 27 63 33 100 14 71
34 119 59 138 9 7 12 13 7 13 -5 0 -2 8 6 18 20 22 97 195 105 233 3 16 12 34
19 40 8 6 14 15 14 20 0 10 110 172 123 181 15 9 37 -2 37 -18 0 -8 8 -31 18
-52 11 -20 25 -59 31 -87 7 -27 15 -57 18 -65 3 -8 7 -35 9 -60 3 -25 9 -61
14 -80 16 -56 40 -187 40 -215 0 -14 7 -39 15 -55 9 -17 15 -31 14 -32 -1 -2
2 -28 6 -58 5 -30 9 -64 10 -75 1 -11 5 -37 10 -58 5 -24 3 -42 -4 -51 -9 -10
-8 -15 3 -19 9 -4 12 -14 9 -26 -3 -12 -1 -21 5 -21 18 0 42 -79 47 -153 2
-40 11 -99 19 -132 9 -33 15 -86 16 -117 0 -52 3 -61 38 -97 27 -28 48 -41 77
-46 22 -3 72 -13 110 -22 39 -9 76 -16 83 -16 6 0 12 -4 12 -9 0 -4 33 -8 73
-8 67 0 80 -4 177 -52 58 -28 107 -56 109 -61 2 -5 26 -31 54 -58 43 -42 56
-49 90 -49 31 0 45 6 68 31 16 18 29 42 29 57 0 27 -37 112 -49 112 -4 0 -7
18 -8 40 -3 59 -23 93 -60 105 -18 5 -33 13 -33 17 0 4 -6 8 -13 8 -21 0 -94
79 -102 108 -8 36 -43 108 -75 157 -14 22 -32 52 -39 67 -8 15 -21 36 -30 45
-40 45 -128 229 -146 303 -11 47 -81 196 -110 235 -12 17 -33 62 -46 100 -13
39 -29 77 -36 86 -7 8 -13 30 -13 47 0 17 -4 33 -9 37 -5 3 -12 18 -16 33 -3
15 -25 60 -50 101 -24 40 -47 87 -50 105 -9 43 -36 117 -52 141 -7 11 -13 27
-13 36 0 9 -19 54 -42 99 l-42 83 23 41 c12 23 52 97 88 166 90 172 173 290
203 290 5 0 10 4 10 10 0 5 15 31 33 57 19 27 37 55 40 63 10 22 27 48 70 103
20 27 37 52 37 56 0 4 31 40 70 81 38 41 70 80 70 86 0 6 14 30 30 52 17 23
30 44 30 48 0 10 70 97 90 111 30 21 110 131 110 152 0 22 -44 89 -73 113 -24
20 -96 24 -143 9 -64 -21 -168 -28 -188 -12 -22 17 -77 21 -104 7 -32 -17 -74
-59 -71 -72 1 -5 -1 -16 -4 -24 -4 -8 -16 -60 -26 -115 -11 -56 -25 -113 -30
-129 -6 -15 -11 -48 -11 -73 0 -59 -32 -154 -79 -233 -35 -58 -121 -244 -121
-260 0 -11 -4 -20 -10 -20 -5 0 -10 -5 -10 -11 0 -5 -18 -37 -40 -69 -22 -32
-40 -64 -40 -69 0 -6 -4 -11 -10 -11 -5 0 -10 -6 -10 -14 0 -7 -10 -20 -22
-28 -22 -15 -23 -13 -53 46 -18 34 -37 81 -44 106 -8 25 -22 68 -33 96 -10 28
-20 61 -22 75 -1 13 -5 31 -8 39 -3 8 -13 44 -23 80 -9 36 -23 81 -32 100 -44
102 -44 102 -77 270 -8 41 -29 105 -45 143 -28 59 -36 90 -40 148 0 9 -13 32
-28 52 -16 19 -32 42 -38 51 -5 9 -24 20 -41 25 -26 7 -35 4 -65 -20z"/>
<path d="M4350 12986 c-70 -27 -107 -45 -119 -60 -7 -8 -27 -17 -44 -21 -40
-8 -107 -37 -107 -47 0 -5 -5 -8 -11 -8 -11 0 -56 -37 -126 -102 -17 -16 -44
-53 -58 -81 -15 -29 -39 -64 -54 -79 -37 -37 -51 -56 -51 -68 0 -5 -6 -10 -12
-10 -7 0 -24 -16 -38 -34 -14 -19 -40 -44 -59 -57 -18 -13 -41 -39 -50 -59 -9
-19 -28 -53 -43 -74 -16 -21 -28 -45 -28 -52 0 -7 -6 -15 -12 -17 -10 -4 -10
-6 -1 -6 7 -1 1 -13 -12 -27 -13 -14 -38 -51 -56 -81 -17 -31 -43 -66 -58 -79
-15 -12 -37 -42 -49 -66 -21 -41 -26 -60 -39 -150 -3 -21 -9 -38 -13 -38 -5 0
-11 -13 -15 -30 -4 -16 -10 -30 -15 -30 -4 0 -13 -13 -20 -29 -6 -16 -20 -38
-29 -48 -23 -24 -41 -58 -47 -86 -10 -52 -38 -136 -62 -184 -25 -51 -26 -53
-13 -145 6 -51 21 -127 31 -168 11 -41 22 -94 24 -118 7 -55 55 -160 79 -170
4 -2 7 -11 7 -21 0 -31 42 -146 58 -158 13 -11 13 -13 1 -13 -12 0 -12 -2 1
-10 11 -7 12 -10 2 -10 -10 0 -10 -4 2 -16 9 -8 16 -24 16 -34 0 -10 5 -31 12
-47 6 -15 12 -30 13 -33 8 -22 20 -46 26 -50 13 -9 69 -118 69 -134 0 -9 6
-19 14 -22 8 -3 12 -12 9 -20 -3 -8 0 -14 6 -14 6 0 11 -8 11 -18 0 -23 36
-99 60 -124 9 -10 26 -34 36 -53 10 -19 22 -35 26 -35 4 0 29 -32 55 -72 26
-39 60 -78 77 -87 16 -9 38 -25 48 -36 50 -51 67 -72 81 -101 16 -31 106 -124
120 -124 5 0 28 -13 52 -30 24 -16 49 -30 55 -30 7 0 24 -8 38 -19 25 -17 89
-36 157 -46 17 -2 48 -7 70 -10 29 -5 52 -1 85 14 25 11 41 21 35 22 -20 2 61
20 89 19 37 -1 111 75 128 133 9 30 37 65 104 132 77 78 92 98 98 133 4 28 11
42 21 42 18 0 95 73 95 89 0 6 4 11 10 11 5 0 23 27 40 60 17 33 35 60 40 60
6 0 14 10 19 23 5 13 23 44 40 69 45 67 101 179 101 204 0 12 9 33 20 47 11
14 20 32 20 40 0 7 11 27 25 43 14 16 25 34 25 40 0 6 11 27 24 47 31 45 39
83 26 126 -14 50 -46 79 -94 86 -22 4 -50 8 -61 10 -11 2 -25 4 -32 4 -6 1
-18 7 -25 14 -30 30 -67 47 -99 46 -19 -1 -75 1 -125 6 -75 6 -95 5 -122 -9
-60 -31 -68 -69 -63 -304 1 -47 -4 -83 -14 -101 -8 -16 -17 -42 -19 -58 -9
-47 -53 -181 -65 -195 -42 -49 -51 -63 -48 -72 2 -5 -11 -24 -29 -42 -18 -17
-36 -43 -40 -58 -3 -14 -10 -26 -14 -26 -4 0 -20 -28 -35 -62 -15 -35 -40 -82
-55 -105 -20 -29 -25 -44 -17 -52 7 -7 5 -12 -9 -17 -10 -4 -27 -17 -36 -28
-33 -40 -52 -56 -65 -56 -7 0 -13 -7 -13 -15 0 -28 -37 -15 -66 22 -16 20 -44
51 -61 69 -18 18 -33 38 -33 44 0 6 -10 27 -23 48 -13 20 -33 71 -46 112 -13
41 -41 118 -62 170 -22 52 -39 100 -39 107 0 6 -5 13 -11 15 -6 2 -13 15 -14
29 -2 14 -7 34 -13 45 -26 51 -79 191 -117 314 -8 25 -25 76 -39 114 -13 38
-28 96 -31 128 -4 32 -10 58 -15 58 -13 0 -33 60 -35 108 -1 26 -7 58 -12 72
-12 31 0 148 21 209 9 24 16 52 16 62 0 11 4 19 8 19 5 0 15 19 22 43 8 23 24
62 37 86 13 24 23 51 23 60 0 10 4 21 9 26 5 6 24 55 44 110 44 125 71 187 88
206 19 19 82 167 109 256 12 39 31 81 41 92 10 11 19 24 19 28 0 5 8 16 18 24
36 33 142 188 202 297 24 43 34 50 45 32 3 -5 18 -10 32 -10 28 0 66 -35 71
-66 4 -22 1 -16 72 -111 30 -40 60 -73 67 -73 7 0 13 -7 13 -15 0 -9 9 -26 20
-38 11 -12 18 -26 16 -33 -2 -6 4 -26 15 -43 10 -17 19 -39 19 -49 0 -10 5
-23 10 -28 6 -6 13 -21 15 -34 2 -13 10 -27 17 -31 7 -5 14 -37 16 -78 4 -66
7 -73 38 -101 27 -23 44 -30 77 -30 49 0 118 29 138 57 8 11 29 25 47 31 18 6
62 41 98 77 35 36 68 65 72 65 4 0 16 13 25 30 10 16 25 37 35 46 11 12 17 34
17 65 0 51 -17 72 -83 105 -53 25 -100 82 -121 145 -8 27 -20 38 -47 48 -20 7
-52 30 -72 50 -57 58 -201 151 -233 151 -8 0 -20 9 -26 19 -7 10 -33 27 -60
37 -26 9 -57 25 -68 34 -11 10 -33 20 -50 23 -16 3 -57 13 -90 21 -72 19 -99
19 -145 2z"/>
<path d="M2555 12928 c-11 -6 -40 -29 -64 -50 -24 -21 -54 -38 -67 -38 -13 0
-49 -11 -80 -25 -31 -14 -66 -25 -78 -25 -11 0 -36 -9 -54 -20 -26 -16 -50
-20 -118 -20 -97 0 -135 -14 -159 -60 -22 -43 -18 -82 12 -126 36 -52 74 -271
64 -370 -4 -36 -4 -67 0 -69 15 -10 21 -176 17 -560 -2 -337 -2 -667 2 -805 1
-14 -5 -95 -13 -180 -14 -152 -26 -200 -59 -250 -23 -34 -69 -172 -80 -240
-19 -120 -19 -124 1 -157 11 -17 35 -37 54 -44 18 -6 42 -24 52 -40 20 -29 73
-59 104 -59 57 0 199 -120 240 -203 11 -23 38 -67 61 -97 22 -30 44 -65 50
-77 5 -12 27 -40 49 -62 50 -50 112 -64 144 -33 43 44 35 148 -19 232 -13 21
-24 60 -29 98 -3 35 -11 73 -16 85 -5 12 -18 69 -29 127 -28 150 -49 250 -61
287 -5 17 -16 65 -24 105 -8 40 -22 102 -30 138 -19 75 -32 448 -37 1020 -3
373 -2 384 47 590 9 36 20 84 25 108 5 24 17 64 26 90 15 45 33 113 54 212 16
74 49 148 138 311 51 92 63 156 36 193 -17 22 -26 25 -79 25 -33 0 -69 -5 -80
-11z"/>
<path d="M9580 6252 c-33 -33 -44 -38 -73 -34 -26 3 -52 -4 -94 -27 -48 -25
-76 -32 -168 -40 -60 -6 -138 -10 -173 -10 -58 0 -65 -2 -92 -32 l-30 -31 0
-173 c0 -162 2 -176 25 -228 57 -130 69 -225 80 -642 2 -93 6 -192 9 -220 14
-145 19 -208 21 -290 1 -49 5 -115 9 -145 15 -138 19 -389 10 -680 -2 -58 -4
-208 -4 -335 1 -235 -9 -371 -39 -548 -6 -32 -8 -64 -4 -73 3 -8 0 -34 -6 -59
-6 -24 -13 -93 -16 -152 -3 -59 -10 -133 -15 -163 -12 -64 -71 -242 -88 -263
-6 -7 -18 -29 -25 -48 -32 -78 17 -129 145 -149 99 -15 177 -35 252 -64 37
-14 78 -26 90 -26 12 0 46 -13 76 -30 81 -44 98 -50 135 -50 104 0 122 140 24
191 l-31 16 -4 104 c-2 57 -7 120 -10 139 -3 19 -7 78 -9 130 -16 411 -16 412
-39 482 -22 65 -25 98 -31 288 -4 112 -13 209 -25 270 -10 52 -19 115 -20 140
-1 91 10 413 15 420 3 5 8 112 11 239 7 314 1 285 64 291 38 4 57 12 70 28 10
12 23 22 28 22 6 0 32 9 59 21 88 38 145 29 283 -46 35 -19 69 -35 75 -35 5 0
45 -17 87 -37 54 -27 80 -45 87 -63 5 -14 13 -34 17 -45 4 -11 6 -26 5 -32 -2
-13 16 -53 28 -63 14 -11 61 -90 61 -102 0 -7 9 -28 20 -46 21 -35 28 -126 10
-137 -6 -4 -7 -11 -4 -17 8 -13 10 -28 25 -158 5 -52 14 -114 20 -138 8 -39 4
-111 -16 -252 -3 -19 -8 -76 -10 -127 -3 -50 -11 -122 -18 -160 -10 -55 -14
-263 -7 -368 1 -11 -3 -54 -9 -95 -6 -41 -15 -118 -20 -170 -6 -52 -17 -118
-24 -145 -8 -28 -18 -71 -21 -95 -3 -25 -9 -65 -12 -90 -8 -54 -19 -77 -53
-110 -36 -34 -61 -75 -61 -100 0 -29 28 -81 54 -102 37 -31 134 -16 223 33 88
50 278 76 314 43 18 -16 21 -16 65 1 55 21 173 16 220 -8 28 -14 31 -14 58 10
22 19 35 23 55 18 36 -10 90 -8 104 3 7 5 35 13 62 16 28 4 81 16 119 28 l69
20 68 -34 c55 -28 72 -32 95 -24 19 6 48 5 84 -2 77 -16 84 -16 119 14 25 21
31 34 31 64 0 55 -32 88 -95 100 -101 18 -160 31 -175 37 -8 3 -19 5 -23 4 -4
-1 -14 4 -22 11 -8 7 -21 19 -30 26 -22 19 -19 26 21 55 21 14 64 57 98 95 62
70 134 134 208 184 23 15 58 42 78 60 48 42 68 54 138 79 31 12 68 32 82 44
39 35 93 65 118 65 13 0 33 11 45 23 12 13 34 27 48 30 14 4 37 17 50 30 13
13 42 34 64 47 22 13 42 27 45 30 3 4 32 21 64 38 67 36 80 33 96 -27 10 -41
10 -30 5 -321 -3 -200 -5 -220 -30 -290 -16 -48 -23 -85 -19 -103 4 -21 -2
-40 -25 -76 -42 -65 -40 -90 9 -135 46 -42 21 -39 350 -36 286 2 347 -3 396
-36 19 -13 44 -24 55 -24 11 0 29 -5 40 -11 17 -9 22 -5 34 25 15 36 19 85 9
121 -5 19 -51 56 -106 84 -34 17 -73 98 -83 172 -4 30 -16 69 -26 87 -11 19
-17 38 -14 43 3 5 1 17 -4 28 -6 10 -13 45 -15 76 -3 32 -10 63 -16 69 -5 5
-10 17 -10 26 0 8 -9 31 -19 51 -20 37 -37 109 -51 209 -4 30 -13 71 -19 90
-6 19 -11 52 -11 73 0 21 -7 54 -15 74 -18 42 -20 89 -4 99 8 5 6 10 -5 16 -9
5 -16 18 -16 29 0 11 -4 28 -10 38 -11 21 -20 76 -23 141 -1 25 -6 51 -10 58
-5 7 -10 39 -12 70 -2 31 -5 64 -8 72 -3 8 -8 42 -11 74 -2 32 -10 64 -15 69
-6 6 -11 19 -11 28 0 10 -5 30 -11 46 -14 32 -16 40 -27 108 -5 28 -15 64 -22
80 -25 59 -29 71 -36 110 -4 22 -9 47 -11 55 -2 8 -6 58 -9 110 -2 52 -9 127
-14 165 -5 39 -21 160 -36 270 -14 110 -35 231 -45 270 -12 42 -15 73 -10 78
6 6 4 18 -4 31 -21 33 -42 105 -48 166 -3 30 -10 76 -16 102 -6 26 -13 80 -16
120 -6 65 -22 202 -41 343 -4 28 -7 68 -6 90 7 180 2 204 -48 230 -36 19 -57
19 -110 0 -34 -12 -50 -13 -81 -3 -32 9 -50 8 -97 -5 -31 -8 -77 -21 -102 -27
-25 -6 -56 -18 -68 -27 -29 -18 -63 -92 -64 -136 0 -18 -6 -43 -13 -57 -7 -14
-16 -56 -21 -95 -4 -38 -8 -72 -9 -75 -1 -3 -5 -23 -9 -45 -4 -22 -18 -76 -31
-120 -13 -44 -31 -111 -39 -150 -20 -87 -33 -131 -52 -173 -9 -18 -19 -54 -24
-80 -5 -26 -15 -72 -23 -102 -8 -30 -20 -89 -27 -130 -10 -63 -20 -112 -33
-165 -2 -5 -10 -32 -19 -60 -9 -27 -24 -88 -33 -135 -9 -47 -20 -96 -24 -110
-5 -14 -16 -54 -26 -90 -9 -36 -25 -92 -35 -125 -10 -33 -28 -108 -39 -167
-11 -59 -29 -128 -40 -154 -11 -25 -20 -48 -19 -52 1 -4 -6 -32 -15 -62 -9
-30 -24 -98 -33 -150 -9 -52 -22 -106 -29 -120 -7 -14 -19 -57 -28 -96 -9 -40
-36 -123 -60 -185 -24 -63 -49 -136 -56 -164 -15 -64 -80 -275 -92 -297 -5 -9
-11 -57 -14 -105 -7 -102 -30 -196 -58 -236 -13 -19 -22 -55 -27 -115 -13
-140 -46 -217 -105 -245 l-37 -17 -26 28 c-15 15 -36 31 -46 35 -56 21 -119
74 -142 119 -13 25 -33 53 -45 62 -15 10 -38 62 -75 173 l-52 158 9 145 c8
126 13 158 44 245 19 55 45 114 58 130 35 44 60 97 96 202 17 50 54 136 82
190 l51 98 -11 253 c-11 250 -11 255 -47 360 -19 59 -47 125 -62 147 -49 73
-85 115 -105 121 -10 3 -36 21 -56 38 -67 59 -188 133 -239 145 -27 7 -74 16
-103 21 -65 10 -67 11 -146 35 -35 10 -63 24 -63 29 0 23 41 71 131 157 52 49
97 89 102 89 4 0 7 6 7 13 0 7 9 18 20 25 11 7 20 18 20 25 0 6 23 35 51 62
28 28 57 62 65 77 8 15 22 33 32 40 10 7 27 27 37 44 118 188 254 354 290 354
8 0 35 28 62 63 26 34 76 92 110 129 37 42 64 80 68 100 4 18 16 48 27 67 26
46 34 122 18 162 -15 36 -69 64 -103 54 -35 -10 -90 -36 -118 -56 -45 -32
-125 -57 -171 -53 -227 17 -215 18 -273 -10 -85 -40 -109 -110 -60 -177 77
-107 82 -161 25 -245 -64 -94 -70 -103 -70 -111 0 -4 -14 -36 -31 -70 -21 -42
-63 -95 -130 -165 -54 -56 -99 -106 -99 -111 0 -33 -232 -287 -263 -287 -8 0
-26 -15 -40 -32 -48 -62 -127 -139 -155 -149 -38 -16 -164 -40 -171 -33 -12
12 13 361 29 399 5 11 11 47 15 80 12 126 17 161 27 200 6 22 12 63 13 90 3
45 17 102 61 250 9 28 15 61 15 74 -1 12 2 28 5 33 4 6 8 29 10 52 2 23 15 74
29 113 34 96 33 140 -4 181 -26 27 -37 32 -77 32 -40 0 -51 -5 -84 -38z m2744
-1137 c8 -44 19 -114 25 -155 7 -41 29 -127 50 -190 21 -63 43 -133 49 -155 6
-22 27 -95 47 -163 20 -67 35 -133 34 -145 -2 -12 0 -32 4 -43 4 -12 9 -48 11
-80 4 -65 36 -295 42 -305 2 -3 6 -34 10 -68 3 -35 16 -80 29 -104 18 -34 23
-59 24 -127 2 -95 7 -132 28 -207 8 -29 13 -69 11 -89 -3 -41 -3 -41 -149
-115 -42 -22 -91 -53 -110 -69 -19 -17 -47 -33 -62 -37 -16 -3 -31 -13 -34
-22 -10 -27 -76 -91 -95 -91 -9 0 -25 -8 -35 -18 -10 -11 -39 -29 -65 -42 -27
-13 -48 -27 -48 -31 0 -4 -10 -11 -22 -14 -13 -4 -37 -18 -55 -31 -17 -13 -36
-24 -40 -24 -5 0 -40 -21 -77 -46 -38 -25 -91 -54 -119 -65 -28 -11 -55 -26
-61 -34 -15 -17 -56 -29 -56 -16 0 6 9 11 21 11 11 0 17 5 14 10 -3 6 -22 10
-42 10 -28 0 -34 -3 -29 -16 5 -13 -18 -74 -28 -74 -25 0 -36 17 -36 55 0 54
42 213 65 249 14 20 15 30 6 39 -14 14 -14 64 0 73 6 3 9 18 6 33 -6 28 18
158 32 175 9 11 27 89 40 176 4 25 13 55 19 67 7 12 12 30 12 40 0 10 6 30 14
45 8 15 20 53 27 85 7 32 23 83 37 113 26 60 64 189 67 231 1 14 5 30 8 36 4
6 4 18 1 27 -8 21 23 118 57 181 15 28 30 74 33 103 7 58 33 132 46 132 4 0 7
6 7 13 -1 6 11 37 25 67 15 30 29 77 32 104 9 72 26 129 44 142 8 6 13 18 10
26 -4 8 5 48 19 89 13 41 27 85 29 99 3 14 18 56 34 95 71 175 72 175 94 50z"/>
<path d="M5588 6112 c-10 -2 -18 -7 -18 -11 0 -4 -12 -13 -26 -20 -15 -6 -47
-34 -71 -61 -25 -28 -53 -50 -63 -50 -11 0 -22 -4 -25 -10 -3 -5 -19 -10 -34
-10 -15 0 -30 -3 -34 -6 -3 -3 -39 -21 -80 -39 -41 -17 -88 -42 -105 -53 -19
-14 -45 -22 -70 -22 -26 0 -50 -8 -73 -25 -19 -13 -44 -30 -57 -37 -15 -7 -21
-17 -16 -27 3 -9 12 -41 19 -71 7 -30 27 -93 44 -140 17 -47 33 -112 36 -145
3 -33 13 -112 21 -175 33 -258 43 -338 48 -390 7 -74 -31 -966 -44 -1004 -5
-17 -23 -209 -40 -426 -32 -420 -42 -494 -72 -579 -10 -29 -21 -79 -24 -110
-3 -31 -10 -69 -15 -86 -5 -16 -11 -48 -15 -70 -3 -22 -12 -54 -19 -72 -8 -18
-23 -81 -35 -140 -21 -106 -38 -168 -51 -188 -29 -45 -16 -109 29 -142 37 -26
142 -63 183 -64 19 0 42 -4 53 -8 10 -4 50 -3 88 2 59 7 72 6 87 -7 30 -27
122 -56 177 -56 41 0 55 -5 74 -25 13 -14 32 -25 42 -25 11 0 27 -4 36 -9 9
-5 45 -12 80 -16 l62 -7 0 40 c0 41 -3 45 -120 216 -37 55 -66 144 -51 159 6
6 3 23 -8 46 -11 21 -21 72 -25 121 -14 170 -30 272 -46 295 -15 20 -23 135
-26 360 -5 286 -5 312 4 355 4 19 5 51 2 70 -3 19 -2 58 2 85 5 28 10 102 13
165 3 63 7 133 10 155 4 35 22 221 30 310 6 64 17 140 22 148 2 4 7 22 9 40 2
18 9 61 14 97 45 304 47 319 55 410 4 41 9 84 12 95 3 11 6 45 8 75 2 30 9 87
15 125 6 39 13 88 14 110 2 22 9 71 15 108 6 37 14 89 17 115 3 26 10 67 15
92 9 41 21 177 21 240 0 14 4 30 9 36 5 7 11 27 13 45 2 19 9 48 16 65 12 27
10 36 -11 78 -13 26 -27 50 -32 53 -16 10 -71 19 -89 15z"/>
<path d="M3897 6019 c-26 -17 -47 -34 -47 -38 0 -15 -109 -63 -129 -56 -47 15
-96 13 -133 -6 -21 -11 -38 -24 -38 -29 0 -12 -45 -13 -86 -1 -39 11 -101 -9
-126 -41 -25 -33 -22 -94 8 -158 15 -32 26 -74 26 -100 0 -25 4 -49 8 -55 13
-19 32 -104 27 -119 -3 -8 1 -20 9 -26 8 -7 14 -21 14 -32 0 -10 9 -36 20 -58
11 -22 20 -59 20 -83 0 -24 5 -69 11 -98 13 -68 20 -546 8 -659 -8 -83 -18
-246 -25 -420 -2 -47 -6 -101 -8 -120 -3 -19 -8 -66 -11 -105 -2 -38 -7 -86
-10 -106 -3 -21 -7 -79 -10 -130 -6 -100 -11 -139 -21 -179 -7 -26 -9 -58 -18
-205 -3 -49 -9 -111 -14 -136 -5 -25 -8 -58 -7 -75 1 -16 -3 -32 -7 -35 -5 -3
-10 -16 -11 -27 -1 -12 -4 -22 -8 -22 -4 0 -12 -14 -19 -31 -7 -17 -16 -27
-19 -22 -3 4 -26 10 -51 11 -25 2 -48 9 -52 15 -4 7 -8 8 -8 3 0 -5 -8 -2 -17
6 -21 17 -50 30 -76 33 -11 1 -22 6 -25 12 -4 6 -22 14 -41 18 -19 4 -56 20
-83 36 -27 16 -53 29 -57 29 -5 0 -12 7 -15 16 -3 8 -10 13 -15 10 -5 -3 -25
1 -44 9 -19 8 -37 11 -41 8 -3 -3 -14 1 -23 9 -19 16 -20 17 -183 97 -58 29
-114 57 -125 64 -57 32 -91 47 -110 47 -20 0 -145 37 -154 46 -2 2 -5 37 -7
76 -1 40 -5 84 -7 98 -17 88 -22 185 -13 275 6 64 10 282 6 405 -1 60 3 106
10 125 7 17 14 44 16 60 2 17 10 73 19 125 9 52 18 118 20 145 11 154 16 214
20 250 6 61 16 138 21 160 3 11 7 36 10 55 4 19 10 40 14 45 9 12 18 53 25
110 13 112 59 320 74 339 5 6 12 31 16 55 9 56 29 104 50 121 25 21 65 106 65
139 0 41 -35 96 -70 111 -43 18 -86 4 -138 -46 -26 -24 -50 -44 -54 -44 -5 0
-8 -7 -8 -15 0 -14 -38 -41 -52 -37 -5 1 -8 -3 -8 -9 0 -5 -3 -8 -8 -5 -12 7
-45 -15 -106 -69 -39 -34 -66 -50 -87 -51 -18 -1 -42 -13 -59 -29 -16 -15 -33
-24 -38 -21 -5 3 -16 -1 -23 -10 -7 -8 -26 -22 -43 -31 -60 -31 -68 -49 -60
-138 6 -86 10 -120 13 -120 1 0 4 -25 5 -56 2 -31 6 -61 10 -67 5 -9 9 -56 19
-239 2 -24 -1 -43 -6 -43 -4 0 -5 -5 -1 -11 4 -7 8 -78 9 -158 2 -136 6 -196
22 -311 3 -25 8 -61 10 -80 7 -47 6 -51 -1 -160 -4 -52 -9 -160 -12 -240 -8
-257 -8 -260 -24 -270 -13 -8 -13 -10 1 -10 19 0 28 -72 24 -175 -10 -208 -17
-299 -30 -370 -8 -44 -14 -91 -14 -105 0 -14 -4 -56 -10 -95 -12 -73 -33 -247
-49 -399 -8 -74 -13 -92 -32 -106 -20 -15 -20 -18 -6 -23 17 -7 15 -36 -4 -82
-14 -33 -32 -106 -43 -178 -10 -62 -9 -70 10 -95 26 -35 98 -71 144 -71 47 -1
97 -18 136 -47 17 -13 36 -24 41 -24 6 0 23 -16 39 -35 82 -101 97 -114 133
-116 57 -2 64 0 93 26 32 30 35 72 13 160 -10 36 -15 109 -15 210 -1 86 -6
219 -11 296 -9 110 -8 144 1 156 10 11 10 16 0 22 -14 9 -14 155 1 183 11 23
47 10 91 -32 37 -36 140 -90 170 -90 17 0 82 -40 97 -61 3 -3 20 -14 38 -23
18 -9 30 -21 27 -26 -4 -6 -3 -10 2 -11 4 0 37 -2 73 -5 81 -5 155 -27 214
-64 25 -16 61 -32 81 -36 19 -3 46 -15 59 -25 13 -11 32 -19 41 -19 22 0 66
-24 89 -49 10 -11 23 -18 27 -15 5 3 9 1 9 -4 0 -5 13 -15 30 -22 26 -11 28
-14 14 -28 -12 -11 -14 -26 -9 -58 4 -26 2 -45 -5 -49 -6 -4 -10 -37 -9 -78 0
-40 0 -91 -1 -115 -1 -59 17 -97 61 -121 44 -25 75 -26 129 -5 31 12 47 14 68
6 15 -6 62 -13 104 -16 77 -6 154 -28 173 -51 20 -24 80 -55 108 -55 15 0 41
7 57 15 35 18 49 70 31 114 -7 15 -13 43 -13 62 0 19 -7 43 -14 54 -8 11 -14
34 -14 51 0 18 -6 34 -13 37 -13 5 -24 46 -49 177 -5 30 -16 71 -23 90 -25 65
-28 75 -30 85 0 6 -4 17 -7 25 -24 55 -34 154 -42 380 -5 146 -16 271 -23 284
-9 13 -5 134 4 149 8 14 11 57 12 211 0 74 5 112 13 117 8 5 8 12 2 21 -5 7
-9 36 -8 63 3 122 7 182 14 215 5 19 11 76 15 125 8 107 23 234 29 244 3 3 -1
48 -8 99 -12 83 -11 102 5 179 10 48 20 110 22 138 3 28 12 67 20 87 8 20 13
53 11 75 -8 85 -5 162 11 243 15 75 27 141 39 220 5 27 14 81 21 120 2 14 7
45 9 70 3 25 17 81 31 125 14 44 25 89 25 100 0 11 11 44 25 72 14 32 20 55
14 59 -6 4 -6 11 1 19 15 18 5 47 -27 79 -37 38 -95 36 -156 -5z"/>
</g>
</svg>
