<?xml version="1.0" standalone="no"?>
<!DOCTYPE svg PUBLIC "-//W3C//DTD SVG 20010904//EN"
 "http://www.w3.org/TR/2001/REC-SVG-20010904/DTD/svg10.dtd">
<svg version="1.0" xmlns="http://www.w3.org/2000/svg"
 width="1145.000000pt" height="3275.000000pt" viewBox="0 0 1145.000000 3275.000000"
 preserveAspectRatio="xMidYMid meet">
<metadata>
Created by potrace 1.13, written by Peter Selinger 2001-2015
</metadata>
<g transform="translate(0.000000,3275.000000) scale(0.100000,-0.100000)"
fill="#000000" stroke="none">
<path d="M3455 32063 c-15 -49 -49 -140 -76 -203 -52 -124 -107 -270 -169
-445 -21 -60 -43 -123 -49 -140 -71 -192 -160 -492 -161 -536 0 -14 -16 -88
-36 -165 -32 -127 -43 -176 -74 -344 -20 -108 -62 -307 -90 -430 -16 -69 -39
-195 -50 -280 -31 -239 -50 -371 -60 -415 -9 -39 -54 -338 -63 -420 -16 -133
-75 -449 -99 -525 -6 -19 -13 -48 -15 -64 -4 -37 -23 -62 -34 -45 -4 7 -12 55
-18 108 -6 53 -17 143 -24 201 -6 58 -12 178 -12 267 -1 114 -4 166 -13 175
-22 22 -40 -12 -61 -112 -33 -152 -74 -305 -131 -485 -27 -86 -60 -195 -100
-335 -30 -108 -78 -320 -90 -405 -7 -44 -16 -88 -22 -98 -13 -24 -35 -172 -42
-287 -4 -52 -13 -160 -21 -240 -21 -213 -22 -235 -40 -580 -2 -47 -7 -157 -10
-245 -7 -204 -12 -273 -26 -415 -7 -63 -11 -148 -10 -187 2 -46 -1 -73 -8 -73
-6 0 -13 12 -16 28 -3 15 -17 70 -30 122 -75 296 -108 498 -101 620 11 170 10
230 -2 242 -8 8 -15 9 -23 1 -9 -9 -35 -88 -46 -143 -2 -14 -13 -43 -23 -65
-11 -22 -33 -78 -51 -125 -17 -47 -37 -101 -44 -120 -7 -19 -18 -60 -23 -90
-32 -169 -45 -233 -62 -305 -11 -44 -21 -111 -25 -150 -25 -316 -33 -594 -29
-1000 3 -214 4 -399 4 -410 -1 -11 -1 -31 -1 -45 6 -267 11 -484 15 -602 3
-82 4 -148 1 -148 -17 0 -165 334 -204 462 -12 37 -21 91 -21 121 0 29 -6 62
-14 72 -13 18 -14 18 -21 -4 -24 -76 -27 -808 -5 -1051 6 -63 13 -148 16 -189
2 -40 9 -112 15 -160 5 -47 14 -126 19 -176 12 -119 27 -236 40 -310 5 -33 17
-114 25 -180 52 -401 92 -647 121 -747 10 -35 -13 -17 -33 25 -18 37 -107 216
-137 274 -12 24 -32 36 -46 28 -4 -3 -11 -31 -14 -62 -4 -32 -19 -128 -33
-213 -23 -139 -26 -182 -26 -425 0 -148 3 -331 7 -405 9 -159 52 -468 77 -548
6 -18 12 -47 15 -65 2 -17 8 -57 14 -87 12 -65 26 -157 40 -260 13 -97 28
-180 46 -255 22 -92 23 -166 4 -195 -31 -49 -41 -66 -74 -136 -38 -79 -45
-125 -61 -360 -7 -101 6 -247 26 -285 4 -9 13 -56 19 -105 6 -49 15 -100 19
-114 10 -27 46 -147 81 -270 38 -132 142 -454 160 -495 18 -42 35 -89 100
-293 42 -128 46 -152 31 -167 -23 -24 -50 -148 -52 -237 -2 -116 9 -322 21
-368 48 -186 159 -577 182 -640 12 -30 33 -89 48 -130 15 -41 51 -124 79 -184
28 -60 54 -121 58 -135 3 -14 19 -54 35 -88 l28 -63 -25 -78 c-27 -82 -58
-216 -57 -244 0 -10 -3 -20 -8 -23 -4 -3 -6 -14 -3 -24 3 -10 0 -22 -6 -25 -6
-4 -11 -20 -11 -36 0 -15 -8 -72 -19 -126 -10 -55 -24 -133 -31 -174 -6 -41
-16 -94 -21 -118 -37 -167 -79 -654 -94 -1087 -18 -538 -24 -1204 -12 -1430 4
-82 10 -229 12 -325 6 -229 21 -536 28 -546 2 -5 8 -67 12 -139 3 -71 11 -166
16 -210 34 -279 41 -342 49 -451 5 -67 14 -168 20 -225 23 -230 53 -716 65
-1034 5 -151 21 -467 31 -605 16 -233 3 -716 -27 -960 -5 -41 -15 -147 -24
-235 -8 -88 -21 -198 -30 -245 -9 -47 -20 -112 -25 -145 -12 -85 -63 -322 -95
-445 -15 -58 -36 -143 -46 -190 -10 -47 -32 -130 -49 -185 -17 -55 -34 -109
-37 -120 -35 -137 -113 -370 -186 -555 -14 -36 -37 -103 -52 -150 -15 -47 -36
-96 -45 -110 -10 -14 -47 -95 -84 -180 -63 -145 -153 -336 -176 -370 -6 -8
-29 -55 -52 -105 -42 -92 -89 -162 -149 -226 -69 -72 -81 -88 -75 -98 17 -26
229 126 322 232 94 107 186 213 192 222 4 6 23 30 43 55 20 25 52 70 71 100
43 66 179 200 203 200 23 0 44 -29 45 -60 0 -25 -25 -98 -61 -177 -10 -23 -19
-47 -19 -53 0 -7 -8 -24 -18 -38 -10 -15 -33 -61 -52 -102 -18 -41 -44 -97
-57 -124 -12 -28 -32 -84 -44 -125 -34 -124 -97 -303 -120 -344 -5 -10 -23
-51 -38 -91 -16 -40 -51 -114 -80 -164 -28 -51 -51 -94 -51 -97 0 -11 -53
-120 -65 -135 -15 -17 -38 -59 -106 -187 -27 -51 -71 -125 -98 -165 -47 -71
-140 -168 -160 -168 -13 0 -125 -129 -118 -136 9 -10 117 47 170 88 27 21 53
38 57 38 14 0 406 396 516 521 55 62 120 141 144 174 24 33 57 76 74 96 61 73
108 136 190 259 45 69 111 168 147 221 35 54 79 122 97 152 18 30 42 63 53 73
19 17 19 15 20 -72 2 -114 1 -144 -12 -224 -5 -36 -11 -87 -13 -115 -18 -222
-48 -382 -135 -715 -101 -388 -122 -461 -169 -590 -52 -142 -142 -400 -153
-440 -27 -93 -128 -368 -169 -460 -16 -36 -41 -96 -56 -134 -48 -124 -121
-238 -181 -281 -29 -21 -53 -44 -53 -52 0 -18 65 -49 135 -63 33 -6 67 -15 75
-18 29 -13 333 -8 375 7 151 50 219 121 304 313 12 26 21 53 21 60 0 7 10 24
21 38 17 20 20 21 14 5 -4 -11 -8 -29 -11 -39 -2 -11 -16 -51 -30 -89 -15 -39
-27 -86 -26 -106 2 -40 45 -115 82 -143 28 -20 183 -67 215 -64 11 1 68 8 127
16 95 12 115 18 174 54 37 23 76 52 86 66 23 32 58 157 59 212 l1 43 13 -35
c7 -19 14 -50 14 -68 1 -41 37 -146 52 -151 6 -2 19 -12 28 -23 20 -24 47 -35
128 -52 118 -25 302 20 387 95 43 38 46 44 46 90 0 27 -5 58 -12 69 -26 40 0
27 67 -36 81 -76 143 -113 237 -143 107 -34 166 -27 329 36 48 18 105 33 128
33 22 0 61 5 86 12 36 10 45 17 45 34 0 15 -8 23 -27 27 -65 13 -138 95 -211
237 -55 107 -95 221 -112 325 -15 84 0 270 29 380 16 62 22 71 47 78 84 25
114 48 146 115 l31 66 -7 150 c-7 172 -13 230 -26 266 -4 14 -11 43 -14 66 -3
22 -14 67 -24 100 -32 101 -34 122 -12 129 25 8 25 35 1 105 -10 30 -27 89
-36 130 -10 41 -24 91 -31 110 -34 90 -39 302 -8 400 8 25 27 86 43 136 21 65
32 127 41 225 6 74 15 161 19 194 5 33 7 149 5 258 -2 108 0 197 4 197 4 0 33
-27 64 -59 l57 -59 -16 -57 c-18 -62 -21 -49 49 -179 15 -27 16 -41 7 -104 -6
-40 -17 -91 -25 -114 -16 -47 -71 -134 -103 -162 -46 -41 -16 -85 49 -71 22 5
31 2 39 -14 13 -24 14 -133 1 -181 -5 -19 -16 -61 -24 -92 -7 -31 -25 -81 -39
-110 -13 -29 -34 -75 -46 -101 -12 -27 -33 -61 -47 -75 -36 -38 -44 -56 -34
-72 14 -22 70 9 112 62 38 47 102 158 113 198 4 14 13 39 21 55 34 79 107 335
118 421 40 294 51 626 26 747 -5 26 -10 78 -10 115 0 68 -29 286 -50 377 -17
73 -40 204 -45 250 -7 73 -25 230 -30 265 -3 19 -9 69 -15 110 -15 117 -37
261 -48 310 -39 171 -63 395 -78 710 -3 74 -10 189 -15 255 -5 66 -14 176 -18
245 -5 69 -14 148 -21 177 -6 29 -19 103 -29 165 -15 99 -20 114 -40 124 -20
11 -21 13 -6 21 17 10 22 40 45 263 6 63 20 185 30 270 23 185 29 806 9 944
-32 233 -104 609 -128 675 -23 62 -22 71 26 185 53 122 131 358 159 476 14 57
31 118 39 135 34 76 138 395 186 570 77 285 126 495 139 595 8 73 14 104 24
138 5 15 14 87 46 372 27 236 32 349 26 620 -3 157 -9 310 -12 342 -3 32 -1
64 5 76 6 11 6 23 1 28 -8 8 -12 39 -25 199 -1 22 -6 76 -9 120 -4 44 -22 161
-41 260 -33 178 -51 287 -58 355 -4 35 -68 358 -87 438 -5 23 -10 55 -10 70 0
26 -35 177 -99 429 -36 144 -46 206 -61 372 -15 170 -17 508 -2 609 11 80 56
277 71 317 32 80 114 222 146 250 6 6 37 44 69 85 68 87 302 328 361 372 22
16 87 74 145 127 115 108 180 160 232 187 18 9 58 34 89 55 84 56 156 93 234
119 39 12 84 30 100 40 42 24 154 64 161 57 3 -3 21 1 40 9 18 8 50 16 71 19
53 7 138 24 203 40 142 36 436 39 840 9 122 -9 338 -55 391 -83 8 -5 42 -14
75 -21 32 -6 91 -25 129 -42 39 -17 86 -37 105 -46 19 -8 42 -19 50 -23 8 -5
26 -14 40 -20 74 -31 120 -57 162 -91 26 -21 51 -38 56 -38 6 0 12 -7 16 -15
3 -8 14 -15 23 -15 39 0 293 -224 347 -304 19 -29 55 -75 80 -103 47 -53 162
-245 252 -423 105 -209 129 -286 173 -550 23 -137 33 -419 22 -633 -6 -114
-12 -211 -15 -216 -3 -4 -10 -50 -16 -102 -6 -52 -17 -134 -25 -184 -8 -49
-16 -110 -18 -135 l-2 -44 -70 -16 c-164 -38 -404 -143 -525 -231 -30 -21 -72
-50 -93 -64 -47 -32 -171 -154 -224 -222 l-40 -51 -7 156 c-19 439 -37 816
-41 821 -2 4 -6 67 -9 141 -4 74 -11 225 -16 335 -6 110 -10 266 -11 346 -1
163 1 171 73 242 21 21 38 47 38 59 0 20 -4 20 -61 14 -62 -6 -89 -12 -209
-46 -36 -10 -97 -23 -136 -29 -105 -16 -754 -25 -1784 -25 -905 -1 -916 -1
-1005 21 -76 18 -92 19 -104 8 -12 -12 -9 -20 25 -57 34 -37 45 -61 78 -178
21 -74 44 -155 51 -180 23 -78 41 -337 65 -915 6 -132 17 -375 25 -540 57
-1128 56 -1346 -2 -1458 -26 -49 -25 -77 3 -77 9 0 44 13 78 29 51 25 83 32
186 41 69 6 166 15 215 21 82 9 353 8 975 -6 102 -2 320 -7 485 -10 267 -6
497 -17 623 -30 24 -3 74 -14 111 -25 l69 -21 27 -97 c15 -53 31 -103 35 -111
5 -9 18 -38 30 -66 37 -88 53 -119 77 -152 13 -17 23 -35 23 -38 0 -9 67 -110
117 -175 77 -102 263 -281 352 -340 21 -14 65 -43 97 -64 128 -85 352 -182
504 -217 83 -20 123 -22 325 -23 196 0 247 3 349 22 66 12 144 34 174 47 30
14 61 25 69 25 34 0 242 111 378 201 112 75 336 275 359 320 19 37 36 63 59
87 26 28 84 139 135 257 50 114 80 214 97 320 22 134 30 398 16 513 -13 104
-70 335 -99 402 -85 194 -132 275 -206 355 -20 22 -38 49 -41 60 -2 11 -8 45
-14 75 -6 30 -17 156 -26 280 -15 242 -55 574 -78 655 -8 28 -22 99 -31 158
-10 60 -25 127 -35 150 -10 23 -21 67 -25 97 -11 88 -92 363 -176 594 -27 77
-50 147 -50 156 0 9 -4 20 -9 25 -11 12 -72 156 -136 320 -26 66 -56 136 -67
155 -11 19 -28 58 -38 85 -10 28 -40 90 -69 139 -28 49 -51 91 -51 94 0 3 -8
14 -17 25 -10 10 -29 38 -43 61 -14 23 -34 57 -45 75 -11 19 -31 48 -45 65
-14 17 -33 42 -42 56 -9 14 -44 57 -79 97 -35 39 -80 93 -99 119 -19 26 -60
74 -90 106 -30 33 -68 75 -85 95 -16 20 -49 56 -72 81 -24 25 -43 48 -43 51 0
4 -21 23 -47 43 -27 20 -66 54 -88 75 -56 55 -211 183 -220 183 -5 0 -16 6
-24 14 -9 8 -51 33 -95 55 -43 23 -90 49 -105 59 -33 23 -102 50 -266 106
-155 52 -285 98 -340 119 -22 8 -74 25 -115 37 -41 12 -94 29 -118 36 -24 8
-82 21 -130 28 -48 8 -100 19 -117 25 -36 12 -240 44 -272 42 -13 0 -23 5 -23
12 -1 6 -1 65 -2 130 -1 114 -15 186 -47 243 -5 10 -19 39 -30 64 -55 121
-248 331 -353 382 -89 45 -172 79 -210 87 -111 24 -299 31 -378 13 -25 -5 -52
-10 -60 -10 -22 -1 -133 -41 -144 -52 -6 -6 -17 -10 -26 -10 -18 0 -140 -76
-140 -88 -1 -4 -22 -22 -48 -41 -60 -43 -160 -176 -207 -277 -59 -126 -75
-206 -72 -369 2 -129 5 -145 30 -200 15 -33 35 -67 43 -76 14 -16 14 -18 -3
-27 -22 -12 -204 -73 -286 -97 -54 -15 -224 -94 -357 -167 -84 -45 -211 -117
-250 -140 -178 -105 -326 -198 -380 -238 -36 -27 -70 -49 -76 -49 -6 -1 -19
-11 -30 -22 -10 -12 -39 -35 -64 -52 -55 -38 -282 -239 -311 -275 -11 -15 -68
-77 -127 -138 -128 -133 -181 -196 -247 -288 -28 -38 -73 -96 -100 -130 -75
-90 -150 -188 -163 -213 -7 -12 -18 -27 -25 -35 -7 -7 -42 -53 -77 -103 -35
-49 -72 -100 -83 -111 -20 -24 -56 -86 -88 -154 -12 -25 -32 -59 -45 -77 -13
-17 -24 -35 -24 -38 0 -4 -10 -20 -22 -35 -13 -15 -31 -42 -40 -59 -15 -27
-23 -31 -57 -31 -35 0 -43 4 -56 30 -9 17 -12 30 -8 30 4 0 0 6 -9 13 -28 22
-41 172 -26 297 8 68 36 172 49 185 5 5 9 18 9 30 0 31 102 226 176 335 103
153 473 489 639 580 33 18 92 56 130 85 39 29 90 65 115 81 68 44 80 54 145
121 74 76 118 129 137 168 28 55 68 175 72 218 3 23 10 67 17 97 8 35 13 132
13 270 0 209 -9 319 -39 485 -8 44 -21 134 -30 200 -9 66 -21 147 -27 180 -6
33 -11 76 -13 95 -1 19 -12 70 -24 113 -20 73 -52 238 -70 368 -5 31 -18 84
-30 118 -11 33 -21 80 -21 102 0 23 -7 67 -15 98 -8 31 -21 92 -29 136 -30
165 -67 353 -86 445 -11 52 -27 145 -36 205 -34 247 -55 405 -64 490 -5 50
-16 135 -24 190 -8 55 -20 161 -26 235 -6 74 -17 209 -25 300 -8 91 -17 219
-19 285 -2 66 -9 183 -15 260 -37 478 -51 758 -59 1180 -7 388 -7 341 2 885 7
441 21 759 50 1200 28 404 36 547 41 667 3 78 13 213 21 300 8 87 19 214 24
283 5 69 16 188 25 265 8 77 17 174 20 215 2 41 7 125 10 185 4 61 13 144 21
185 8 41 14 98 14 125 0 54 21 292 45 500 8 72 20 184 25 250 6 66 18 158 26
205 9 47 18 101 20 120 2 19 11 76 19 125 8 50 19 135 25 190 11 111 16 734 6
805 -3 25 -10 113 -16 197 -9 134 -27 244 -45 273 -12 20 -25 -1 -24 -38 1
-20 -3 -62 -9 -92 -6 -30 -13 -91 -16 -135 -3 -44 -10 -105 -15 -135 -6 -30
-13 -91 -16 -135 -14 -199 -47 -407 -87 -540 -28 -96 -123 -292 -163 -336
l-33 -37 -16 50 c-36 113 -17 475 48 898 14 91 37 244 50 340 34 240 55 384
67 455 5 33 16 112 24 175 8 63 24 178 36 255 11 77 22 153 24 168 5 32 -10
77 -24 77 -5 0 -22 -39 -36 -87z m-396 -2426 c-3 -4 -23 -10 -44 -14 l-37 -6
5 39 c4 21 10 68 15 104 13 90 26 141 49 195 5 13 10 -42 13 -145 3 -91 2
-169 -1 -173z m51 -107 c31 -29 32 -32 25 -87 -4 -31 -11 -66 -15 -78 -4 -12
-11 -68 -15 -126 -3 -57 -11 -145 -16 -196 -6 -51 -17 -179 -25 -285 -7 -106
-16 -215 -19 -243 -3 -27 -12 -114 -20 -193 -8 -79 -17 -147 -20 -153 -4 -5
-24 -6 -45 -3 -85 14 -173 -21 -192 -76 -25 -72 -6 174 28 360 8 47 19 110 24
140 4 30 12 73 18 95 6 22 14 85 17 140 4 55 12 108 17 118 10 19 31 127 54
282 41 270 65 335 124 335 17 0 41 -12 60 -30z m274 -88 c18 -23 20 -42 18
-204 -2 -162 -24 -446 -38 -482 -3 -7 -25 -17 -49 -20 -24 -4 -51 -16 -61 -28
-11 -11 -29 -24 -41 -29 -13 -5 -25 -20 -29 -36 -4 -15 -17 -39 -29 -53 -12
-14 -30 -49 -40 -78 -28 -87 -31 -64 -16 128 6 69 13 161 15 205 2 44 10 130
16 190 7 61 13 136 15 169 5 89 15 134 41 190 21 47 28 53 81 72 65 23 86 19
117 -24z m-34 -825 c0 -65 -14 -202 -31 -307 -13 -81 -17 -121 -23 -240 -7
-123 -25 -359 -30 -385 -14 -68 -18 -75 -45 -75 -45 0 -124 -60 -168 -127
l-18 -27 -5 35 c-4 19 -2 73 3 119 5 47 10 112 11 145 1 33 5 76 9 95 4 19 9
96 12 170 3 74 9 153 14 175 5 22 16 76 25 120 19 95 61 208 91 250 12 17 25
38 28 47 10 27 85 77 107 71 17 -5 20 -14 20 -66z m-332 -601 c1 -55 -5 -163
-14 -240 -15 -133 -24 -255 -39 -526 -3 -63 -13 -153 -21 -200 -8 -47 -19
-107 -24 -135 -4 -27 -16 -96 -26 -152 l-18 -103 -58 0 c-55 0 -60 -2 -100
-44 -81 -83 -121 -137 -133 -177 -4 -13 -25 -61 -46 -107 -22 -45 -42 -90 -44
-100 -36 -151 -46 -161 -43 -47 1 50 5 104 9 120 4 17 10 71 14 120 3 50 10
126 15 170 15 124 54 507 66 640 3 33 13 105 24 160 10 55 28 159 39 231 12
72 30 150 41 172 11 23 20 48 20 56 0 8 4 17 9 20 4 3 16 27 26 53 10 28 37
67 64 93 25 25 54 58 64 73 18 27 21 28 95 25 l77 -3 3 -99z m-668 -564 c5
-23 10 -57 10 -75 0 -19 11 -56 25 -83 14 -27 25 -57 25 -67 0 -10 8 -30 18
-45 11 -15 30 -45 44 -67 l26 -40 -18 -150 c-10 -82 -20 -181 -23 -220 -3 -38
-10 -117 -17 -175 -6 -58 -15 -132 -18 -165 -7 -59 -8 -60 -42 -66 -51 -8
-132 -60 -155 -98 -11 -18 -36 -51 -55 -73 -30 -35 -35 -38 -41 -21 -7 20 -2
586 6 668 22 224 52 421 81 540 20 77 39 149 44 160 5 11 14 40 20 64 6 24 16
55 22 70 10 24 12 20 24 -44 7 -38 18 -89 24 -113z m885 21 c-3 -49 -9 -99
-12 -113 -4 -14 -7 -36 -8 -50 -1 -14 -9 -81 -19 -150 -17 -132 -50 -412 -71
-620 -8 -69 -14 -159 -15 -200 0 -41 -7 -118 -15 -170 -22 -141 -43 -350 -49
-480 -3 -63 -8 -125 -10 -137 -3 -12 -7 -66 -10 -120 -10 -155 -15 -183 -37
-183 -30 0 -103 -31 -121 -51 -23 -27 -28 -24 -27 14 1 17 0 52 -3 77 -5 40
12 356 26 492 5 49 26 275 41 443 4 39 8 84 11 100 2 17 7 109 9 205 3 96 12
216 21 265 8 50 22 133 30 185 8 52 19 109 24 126 6 16 14 59 19 95 14 101 41
190 72 237 16 24 29 47 29 53 0 12 89 69 107 69 11 0 13 -18 8 -87z m-361
-1008 c-1 -77 -12 -239 -25 -360 -12 -121 -24 -243 -25 -271 -1 -28 -7 -91
-12 -140 -6 -49 -11 -134 -11 -190 -1 -55 -5 -123 -10 -151 -4 -28 -5 -88 -1
-134 6 -81 5 -86 -26 -139 -46 -82 -59 -108 -94 -190 -18 -41 -39 -88 -46
-104 -8 -16 -14 -37 -14 -47 0 -10 -4 -20 -9 -24 -5 -3 -19 -35 -32 -72 -20
-62 -23 -65 -32 -43 -13 34 -25 313 -28 630 -1 146 -2 326 -2 400 -2 165 10
457 22 525 13 83 40 158 65 188 14 16 28 42 31 59 4 17 16 47 28 67 61 106
121 152 186 141 l36 -6 -1 -139z m-474 -303 c0 -99 27 -374 41 -427 6 -22 15
-80 19 -130 9 -105 12 -640 4 -671 -5 -20 -33 -30 -99 -38 -24 -3 -115 -52
-115 -62 0 -6 -25 -42 -56 -79 -30 -37 -58 -81 -61 -96 -3 -16 -9 -29 -13 -29
-4 0 -10 -10 -13 -22 -11 -47 -55 -152 -64 -155 -6 -2 -13 6 -17 19 -10 37 -6
578 5 633 5 28 14 97 19 155 5 58 17 154 25 215 8 60 15 133 15 163 0 48 6 81
42 232 22 94 50 170 74 202 14 18 38 55 55 81 20 34 42 54 72 67 66 30 67 29
67 -58z m67 -189 c-3 -10 -5 -2 -5 17 0 19 2 27 5 18 2 -10 2 -26 0 -35z m527
-898 c-1 -116 -9 -448 -20 -805 -4 -118 -6 -219 -6 -225 0 -5 3 -107 6 -225 7
-242 11 -308 31 -483 l6 -48 -47 -22 c-25 -12 -54 -26 -64 -31 -9 -5 -32 -37
-51 -70 -18 -34 -43 -76 -56 -95 -13 -19 -31 -55 -40 -81 l-17 -47 -43 30
c-70 47 -74 58 -79 224 -3 81 -11 238 -19 348 -22 291 -27 860 -10 950 26 129
32 150 58 208 15 31 38 83 51 115 13 31 31 71 40 87 9 17 16 35 16 41 0 6 13
29 29 51 16 22 31 49 35 60 8 25 103 115 131 125 47 15 50 10 49 -107z m-1324
-85 c28 -134 45 -242 70 -445 12 -104 15 -145 25 -390 l8 -181 -29 -31 c-55
-59 -72 -88 -88 -153 -9 -35 -19 -66 -21 -69 -20 -19 -26 53 -31 389 -3 173
-5 322 -6 330 -1 22 10 312 17 431 6 99 24 234 31 227 1 -2 12 -51 24 -108z
m796 -141 c3 -6 8 -52 11 -102 5 -120 30 -312 43 -337 6 -10 9 -61 8 -112 -3
-119 9 -526 22 -733 5 -88 12 -240 14 -338 l3 -177 -26 1 c-75 4 -137 -68
-197 -229 -14 -37 -30 -72 -34 -77 -21 -25 -61 -176 -70 -264 -5 -53 -14 -139
-20 -191 -6 -52 -10 -129 -9 -170 2 -41 2 -111 0 -155 l-2 -80 -16 40 c-8 22
-17 63 -20 90 -2 28 -12 88 -23 135 -10 47 -21 112 -25 145 -4 33 -13 89 -21
125 -8 36 -20 99 -26 140 -6 41 -14 100 -19 130 -12 71 -24 148 -43 285 -8 61
-21 135 -28 165 -29 128 -10 854 26 955 8 22 17 60 20 85 11 97 37 204 61 255
14 30 25 59 25 65 0 26 78 183 105 214 11 12 33 39 48 59 29 39 71 65 122 78
45 11 63 10 71 -2z m-563 -1020 l23 -10 2 -239 c3 -233 13 -409 32 -540 5 -36
12 -92 16 -125 4 -33 11 -69 17 -79 5 -11 11 -42 13 -70 2 -28 8 -70 15 -92
l11 -42 -48 -43 c-107 -98 -147 -143 -170 -192 -13 -29 -24 -59 -24 -68 0 -9
-7 -19 -15 -23 -8 -3 -15 -11 -15 -18 -1 -7 -9 -31 -20 -53 -11 -22 -19 -46
-20 -52 0 -7 -4 -13 -9 -13 -15 0 -33 90 -55 285 -19 164 -22 238 -21 540 2
388 19 583 60 700 26 74 44 99 95 126 40 21 79 24 113 8z m1111 -631 c2 -13
10 -70 16 -128 6 -58 13 -123 16 -145 13 -101 24 -217 29 -295 4 -47 15 -168
27 -270 11 -102 22 -203 24 -225 2 -22 8 -60 13 -85 6 -25 13 -72 16 -105 4
-33 11 -68 16 -77 6 -12 6 -25 0 -36 -7 -13 -6 -23 2 -32 9 -10 9 -14 -2 -17
-10 -4 -11 -7 -1 -13 8 -5 15 -38 18 -87 l4 -80 -44 -28 c-51 -32 -116 -130
-144 -217 -24 -74 -48 -128 -56 -128 -5 0 -8 -26 -9 -57 l0 -58 -15 50 c-8 28
-19 79 -25 115 -6 36 -15 74 -19 85 -12 28 -53 261 -55 311 -2 23 -7 57 -13
75 -10 30 -18 120 -27 300 -2 30 -8 90 -13 135 -19 148 -20 420 -3 599 15 144
36 212 104 326 44 73 57 88 87 96 50 15 49 15 54 -9z m-400 -231 c35 -19 70
-49 88 -74 l30 -41 -11 -95 c-15 -129 -14 -301 3 -525 8 -103 18 -225 21 -271
3 -46 8 -87 10 -91 3 -4 12 -75 20 -156 9 -82 23 -172 31 -201 8 -28 14 -65
14 -81 0 -30 -2 -31 -57 -37 -89 -10 -124 -26 -180 -81 -41 -39 -53 -57 -53
-80 0 -17 -3 -34 -7 -37 -4 -4 -23 -56 -43 -115 l-36 -107 -45 -3 -45 -3 -13
43 c-8 24 -17 54 -22 68 -36 102 -57 421 -60 905 -2 337 29 585 86 705 12 25
32 74 44 110 13 36 28 72 36 80 7 8 19 29 28 45 23 45 55 75 80 74 12 0 48
-15 81 -32z m-1205 -430 c49 -149 108 -471 110 -608 1 -27 -51 -89 -74 -89
-38 0 -90 344 -94 623 -1 75 1 142 4 148 12 19 33 -11 54 -74z m631 -32 c0
-14 7 -57 15 -97 14 -70 42 -229 51 -293 2 -16 7 -37 10 -45 3 -8 8 -39 10
-69 3 -30 9 -62 14 -72 6 -9 12 -42 15 -73 6 -60 34 -198 59 -283 8 -28 17
-105 21 -170 6 -115 24 -259 46 -377 10 -57 10 -60 -13 -78 -12 -9 -28 -18
-35 -18 -14 0 -58 -52 -79 -92 -8 -16 -24 -63 -35 -104 -10 -41 -28 -109 -39
-151 -11 -42 -23 -124 -26 -182 -4 -58 -8 -108 -9 -109 -12 -13 -71 111 -96
198 -6 19 -21 64 -34 100 -26 75 -50 184 -69 320 -8 52 -21 138 -30 190 -46
269 -56 336 -67 465 -6 77 -11 149 -10 160 1 11 1 87 1 169 0 81 4 165 9 185
5 20 15 56 21 79 6 24 25 65 41 92 16 26 29 55 29 64 0 43 113 196 145 196 7
0 18 7 25 15 16 19 30 10 30 -20z m-352 -610 c4 -3 6 -43 5 -88 -1 -45 3 -120
8 -167 6 -47 10 -110 10 -140 -1 -30 8 -104 19 -165 11 -60 27 -150 36 -200 8
-49 19 -108 24 -130 5 -22 12 -71 15 -110 4 -38 15 -98 25 -132 10 -33 24 -88
30 -122 l11 -60 -58 -53 c-32 -29 -79 -74 -105 -99 -47 -47 -47 -47 -61 -25
-14 21 -33 101 -56 231 -6 33 -22 121 -36 195 -69 368 -116 836 -86 854 6 4
11 24 11 44 0 52 30 93 114 159 26 21 77 25 94 8z m1528 -432 c5 -71 22 -193
30 -213 6 -16 25 -158 49 -380 9 -74 19 -171 25 -214 5 -44 10 -104 11 -135 3
-53 2 -55 -32 -74 -19 -10 -51 -32 -71 -48 -20 -16 -41 -29 -46 -29 -4 0 -26
-13 -48 -30 -21 -16 -46 -30 -55 -30 -17 0 -59 82 -59 114 0 9 -4 24 -9 34
-35 64 -71 374 -50 430 5 13 9 39 9 58 0 19 6 63 14 97 8 34 20 93 26 130 7
38 21 86 31 107 11 22 19 44 19 50 0 19 59 127 82 153 24 24 60 48 66 42 2 -2
5 -29 8 -62z m-388 -125 c5 -7 13 -33 17 -58 4 -25 13 -72 20 -105 7 -33 19
-87 25 -120 7 -33 14 -67 17 -75 3 -8 7 -78 9 -155 5 -178 17 -295 38 -365 32
-105 48 -165 49 -187 2 -26 -65 -107 -173 -208 -41 -38 -111 -114 -154 -169
-93 -115 -94 -115 -120 22 -9 48 -21 101 -26 117 -5 17 -12 62 -15 100 -3 39
-12 102 -20 140 -41 195 -33 567 16 740 11 39 31 97 44 130 13 33 26 71 29 85
9 42 79 103 128 111 69 11 105 10 116 -3z m-392 -421 c1 -1 -3 -90 -8 -197 -7
-136 -7 -216 1 -265 6 -38 9 -78 8 -89 -2 -10 0 -39 5 -65 9 -48 11 -60 47
-299 11 -79 24 -148 27 -154 4 -5 10 -37 14 -71 l7 -61 -86 -106 c-47 -58 -95
-119 -106 -134 -11 -15 -37 -51 -58 -79 -20 -29 -41 -56 -45 -62 -4 -5 -17
-25 -27 -42 -23 -39 -45 -43 -45 -9 0 14 -4 27 -9 30 -20 12 -73 515 -74 701
-1 196 23 487 44 528 9 17 21 67 39 162 11 63 72 167 109 188 43 23 100 37
131 30 14 -2 26 -5 26 -6z m-518 -470 c10 -23 32 -71 47 -107 15 -36 39 -84
52 -107 22 -38 25 -56 27 -165 9 -396 45 -753 88 -860 9 -24 7 -33 -14 -60
-14 -18 -39 -60 -57 -93 -17 -33 -35 -67 -40 -75 -4 -8 -14 -26 -20 -39 -33
-63 -54 -97 -66 -110 -12 -12 -16 -10 -26 15 -6 16 -20 48 -30 71 -11 24 -33
89 -49 145 -17 57 -37 123 -44 148 -36 118 -57 207 -81 345 -14 83 -30 176
-36 209 -15 85 -12 338 5 379 7 17 23 61 34 97 46 144 59 171 90 190 16 10 36
27 43 38 14 19 39 32 51 26 3 -2 15 -23 26 -47z m-578 -31 c0 -5 11 -24 24
-41 14 -18 39 -59 56 -91 17 -32 44 -81 60 -109 16 -27 29 -56 30 -64 0 -8 11
-29 25 -47 13 -17 29 -54 35 -80 6 -27 19 -57 28 -67 9 -10 19 -45 23 -80 4
-34 10 -90 14 -124 7 -61 7 -61 -23 -77 -33 -17 -132 -108 -132 -121 0 -4 -11
-23 -25 -41 -14 -18 -25 -38 -25 -45 0 -22 -16 4 -28 46 -26 89 -43 183 -48
274 -3 53 -8 100 -11 104 -4 7 -9 62 -17 202 -2 28 -11 131 -20 230 -9 99 -16
185 -16 190 0 12 49 -46 50 -59z m2114 -284 c18 -34 31 -110 47 -262 11 -108
11 -120 -10 -194 -12 -43 -31 -90 -42 -105 -10 -14 -27 -36 -37 -49 -35 -47
-127 -138 -176 -175 -28 -21 -116 -99 -195 -175 -136 -130 -224 -213 -253
-239 -18 -16 -93 -108 -198 -243 -49 -63 -100 -129 -113 -145 -14 -17 -35 -50
-48 -75 -13 -25 -40 -71 -61 -102 -21 -31 -43 -70 -50 -85 -7 -15 -23 -42 -35
-59 -13 -17 -23 -38 -23 -48 0 -9 -7 -19 -15 -22 -8 -4 -15 -14 -15 -23 0 -9
-4 -21 -9 -27 -18 -18 -71 -122 -71 -138 0 -9 -16 -49 -36 -89 -37 -75 -42
-86 -93 -227 -17 -47 -35 -94 -40 -105 -14 -30 -45 -129 -43 -137 3 -13 -30
-153 -39 -164 -7 -8 -6 -13 1 -16 12 -4 3 -38 -10 -38 -6 0 -25 114 -22 132 1
3 4 116 6 250 4 186 9 266 25 343 10 55 23 127 26 160 4 33 20 87 36 120 15
33 44 107 65 165 53 153 177 401 298 595 17 28 39 66 49 85 10 20 33 53 52 73
19 21 35 42 35 47 0 6 21 37 48 70 26 34 57 75 69 93 35 50 185 232 213 257 3
3 35 39 70 80 133 157 279 306 393 401 99 83 124 99 152 99 28 0 37 -6 49 -28z
m-1800 -551 c3 -4 12 -53 21 -107 8 -55 29 -144 46 -199 17 -55 40 -131 51
-170 11 -38 29 -95 38 -125 10 -30 26 -82 36 -115 10 -33 24 -70 32 -83 14
-22 13 -29 -19 -95 -18 -40 -41 -83 -50 -97 -9 -14 -26 -52 -38 -85 -13 -33
-26 -64 -30 -70 -4 -5 -14 -35 -23 -65 -9 -30 -27 -90 -41 -133 l-24 -79 -36
65 c-20 35 -43 70 -52 77 -8 7 -15 22 -15 34 0 12 -4 26 -9 31 -10 10 -58 195
-92 350 -24 115 -42 355 -34 465 7 87 25 165 51 212 8 14 14 33 14 42 0 9 7
19 15 22 8 3 28 27 44 53 33 54 100 96 115 72z m4785 -55 c20 -21 5 -72 -29
-96 -42 -30 -160 -21 -186 14 -6 9 -17 16 -23 16 -14 0 -71 59 -71 73 0 5 6 7
14 4 8 -3 27 -2 43 3 41 14 235 2 252 -14z m-362 -47 c84 -35 130 -146 87
-207 -19 -27 -23 -27 -77 -3 -71 32 -124 33 -169 5 -21 -14 -41 -31 -45 -39
-7 -20 -23 -19 -23 0 0 15 -45 65 -59 65 -3 0 -14 7 -24 14 -29 22 -4 62 72
115 114 81 148 88 238 50z m551 -88 c107 -109 125 -191 69 -313 -25 -55 -25
-56 -73 -60 -62 -5 -144 7 -160 24 -9 9 -10 25 -4 58 17 84 6 193 -22 225 -14
16 -9 43 11 57 10 7 26 28 35 46 13 25 23 32 47 32 24 0 43 -14 97 -69z m-288
-44 c48 -17 80 -75 80 -147 0 -69 -8 -100 -26 -100 -8 0 -14 -7 -14 -15 0 -28
-62 -49 -116 -39 -45 8 -49 12 -56 44 -4 19 -11 50 -15 69 -7 27 -4 44 14 80
13 25 26 62 30 83 5 35 8 38 37 37 17 0 47 -5 66 -12z m-261 -139 c51 -37 87
-108 71 -138 -6 -11 -29 -24 -53 -30 -23 -5 -56 -14 -72 -20 -69 -22 -138 -31
-147 -18 -22 36 10 157 56 206 41 44 86 44 145 0z m-279 -19 c40 -77 14 -114
-88 -124 -62 -6 -83 7 -72 43 4 15 11 39 14 55 10 43 40 67 85 67 36 0 41 -4
61 -41z m-2237 -36 c18 -9 37 -23 44 -32 22 -28 42 -113 55 -228 14 -128 8
-147 -34 -113 -15 11 -32 20 -39 20 -6 0 -38 27 -71 59 -85 86 -108 169 -71
249 30 64 59 75 116 45z m-188 -144 c10 -64 50 -154 79 -178 23 -19 20 -36 -9
-49 -14 -6 -25 -16 -25 -22 0 -21 -18 -9 -30 21 -19 46 -118 124 -176 138
l-48 12 49 48 c28 26 67 56 88 66 20 9 37 22 37 27 0 5 6 8 13 6 6 -3 17 -34
22 -69z m3431 -44 c-3 -16 -8 -58 -12 -93 -4 -35 -14 -73 -24 -85 -9 -12 -20
-32 -24 -44 -14 -44 -91 -61 -156 -35 -45 17 -52 36 -54 131 l-1 89 60 6 c73
8 125 24 125 38 0 6 17 26 38 43 l37 33 8 -27 c4 -14 5 -39 3 -56z m-997 15
c36 -25 55 -78 52 -145 -3 -80 -6 -85 -57 -85 -50 0 -91 23 -141 80 -46 52
-49 77 -16 127 15 23 36 44 47 47 37 8 85 -2 115 -24z m633 -8 c34 -36 35 -41
31 -92 -9 -109 -35 -139 -104 -119 -48 15 -75 46 -89 103 -6 22 -18 57 -27 76
-10 19 -19 38 -21 43 -2 4 25 7 60 7 35 0 70 5 78 10 24 16 34 12 72 -28z
m-431 -73 c13 -33 3 -63 -35 -106 -40 -47 -56 -26 -56 76 0 61 2 69 23 78 27
13 49 -3 68 -48z m-2766 -53 c6 -7 26 -24 46 -39 30 -23 40 -40 56 -100 12
-39 20 -92 19 -117 -1 -25 6 -76 16 -115 11 -38 22 -81 25 -95 3 -14 17 -38
29 -53 13 -16 24 -33 24 -38 0 -10 -50 -58 -61 -59 -3 0 -13 25 -23 55 -18 59
-26 75 -74 152 -45 70 -113 109 -187 104 -41 -3 -54 22 -66 125 -11 97 -3 121
56 172 32 29 40 31 83 26 26 -4 52 -12 57 -18z m338 -127 c31 -20 56 -48 74
-82 26 -48 28 -60 28 -172 -1 -101 -4 -130 -24 -182 -13 -35 -27 -63 -31 -63
-4 0 -15 9 -24 19 -10 11 -29 24 -44 30 -32 14 -87 97 -113 172 -34 100 -19
244 30 286 35 30 49 29 104 -8z m2711 5 c19 -25 135 -31 169 -9 26 17 27 17
36 -8 15 -38 58 -56 151 -61 45 -3 84 -7 86 -9 3 -2 0 -15 -6 -28 -14 -30 -76
-76 -160 -120 -53 -27 -74 -33 -129 -33 -97 0 -136 20 -165 86 -22 49 -23 59
-14 126 6 39 13 72 16 72 3 0 10 -7 16 -16z m-3326 -26 c9 -9 8 -16 -4 -29
-18 -20 -10 -59 12 -59 8 0 17 -8 20 -17 3 -10 13 -35 22 -56 15 -36 14 -39
-6 -67 -12 -16 -22 -34 -22 -40 0 -23 -42 3 -53 33 -4 9 -15 20 -24 24 -10 3
-25 12 -34 19 -8 8 -39 17 -68 21 l-52 8 34 38 c19 20 38 44 41 52 3 8 11 15
18 15 7 0 27 15 43 34 32 37 53 44 73 24z m3224 -95 c0 -16 1 -34 1 -40 -1 -7
3 -13 7 -13 6 0 40 -82 40 -96 0 -1 -16 -12 -35 -24 -24 -15 -47 -20 -76 -18
-36 3 -44 8 -60 36 -23 44 -11 78 37 112 20 13 43 34 51 47 20 31 33 29 35 -4z
m975 3 c3 -2 -15 -13 -39 -24 -51 -23 -88 -60 -119 -121 -20 -40 -23 -42 -30
-22 -5 11 -13 21 -19 21 -18 0 -5 79 22 136 9 19 17 20 95 18 47 -2 88 -5 90
-8z m243 -62 c40 -7 96 -34 127 -63 19 -18 20 -25 11 -57 -10 -37 -7 -99 7
-141 6 -19 3 -23 -28 -28 -19 -4 -50 -19 -67 -34 -27 -22 -34 -37 -41 -85 -4
-32 -9 -59 -11 -61 -4 -4 -89 19 -144 39 -39 14 -55 23 -130 70 -42 27 -88
122 -86 179 6 155 129 217 362 181z m250 -30 c0 -2 -11 -4 -25 -4 -14 0 -25 4
-25 9 0 4 11 6 25 3 14 -2 25 -6 25 -8z m-1730 -9 c-7 -8 -17 -15 -22 -15 -10
0 -60 -35 -93 -65 -12 -11 -36 -43 -54 -71 -26 -43 -38 -53 -69 -59 -20 -4
-41 -10 -47 -14 -30 -23 -153 -38 -203 -25 -24 7 -57 58 -47 74 3 4 27 16 53
26 26 9 51 21 57 26 5 4 17 8 27 8 10 0 18 4 18 8 0 13 120 53 240 82 19 4 53
15 75 23 22 9 48 16 59 16 15 1 16 -2 6 -14z m-2725 -49 c38 -27 48 -39 83
-106 47 -89 70 -184 59 -250 -4 -30 -6 -72 -4 -92 3 -21 4 -38 2 -38 -1 0 -25
18 -51 40 -50 41 -104 63 -130 53 -59 -22 -121 76 -130 203 -6 94 9 149 51
191 38 38 64 38 120 -1z m-334 -19 c19 -17 42 -45 51 -62 34 -65 60 -127 62
-148 7 -52 20 -95 48 -145 l29 -54 -26 -34 c-29 -38 -38 -37 -61 8 -18 36 -21
39 -68 94 -20 23 -52 52 -71 65 -19 13 -33 29 -30 36 2 7 -7 33 -21 58 -16 28
-28 68 -31 103 -4 48 -2 61 17 85 28 35 57 34 101 -6z m4959 11 c25 -6 51 -15
57 -21 7 -5 23 -7 35 -4 13 4 40 -3 67 -17 25 -13 69 -32 96 -41 28 -10 57
-23 65 -30 8 -7 24 -15 35 -19 11 -3 31 -15 45 -26 l25 -19 -40 5 c-22 3 -62
10 -88 15 -26 5 -74 9 -106 9 -55 0 -62 -3 -115 -46 l-57 -47 -93 22 c-132 32
-175 72 -166 156 4 38 35 60 110 75 37 8 57 6 130 -12z m-1815 -25 c21 -39 68
-73 100 -73 18 0 20 -6 17 -48 -2 -26 3 -67 12 -92 8 -24 14 -45 13 -46 -14
-9 -120 -20 -180 -18 -86 3 -143 26 -171 69 -26 40 -5 118 43 163 29 27 116
77 141 81 3 1 14 -15 25 -36z m615 6 c0 -43 -134 -161 -206 -181 -18 -5 -39
-15 -47 -22 -16 -16 -81 -36 -118 -36 -28 0 -66 34 -70 65 -6 38 11 92 36 115
35 32 95 53 113 38 23 -19 161 -13 217 10 58 23 75 26 75 11z m-3958 -84 c-2
-9 1 -14 7 -11 6 4 15 -12 22 -36 7 -24 16 -47 21 -52 15 -18 8 -23 -41 -30
-28 -4 -66 -13 -86 -22 -21 -8 -39 -14 -41 -12 -9 9 18 77 37 94 12 10 30 36
41 57 19 38 46 46 40 12z m4315 3 c7 -6 15 -26 19 -47 8 -40 41 -112 58 -123
23 -15 -6 -20 -51 -10 -100 23 -200 49 -211 56 -15 9 10 73 36 93 9 7 28 21
40 31 25 19 86 19 109 0z m-1656 -1 c-6 -8 -9 -16 -6 -19 6 -6 -88 -58 -105
-58 -16 0 -99 -58 -137 -96 -32 -34 -40 -56 -48 -137 -2 -27 -10 -56 -17 -64
-7 -9 -49 -33 -93 -54 -44 -21 -91 -45 -105 -53 -60 -35 -97 -46 -152 -46 -71
0 -102 24 -113 88 -9 53 16 97 84 148 46 36 314 174 337 174 7 0 41 13 76 28
34 16 101 41 148 56 47 16 94 32 105 36 30 13 39 12 26 -3z m22 -111 c3 -8 24
-20 47 -27 41 -12 41 -13 35 -51 -16 -95 2 -145 60 -168 18 -7 17 -9 -10 -15
-16 -5 -39 -14 -50 -21 -30 -22 -198 -18 -258 4 -64 25 -77 40 -82 97 -4 47
-2 51 37 87 23 21 46 38 51 38 6 0 19 8 30 18 21 19 93 51 118 51 9 1 19 -5
22 -13z m2781 -1 c49 -7 94 -19 100 -25 7 -7 6 -20 -6 -43 -25 -48 -29 -97
-14 -142 l14 -40 -51 -11 c-85 -17 -107 -30 -124 -74 -14 -34 -20 -39 -37 -34
-33 11 -52 27 -97 82 -45 57 -63 115 -53 167 7 41 74 111 117 124 45 13 51 13
151 -4z m-2379 -44 c31 -45 95 -90 128 -91 22 0 23 -20 0 -20 -9 0 -30 -4 -47
-10 -17 -5 -75 -19 -129 -31 -85 -19 -105 -21 -149 -10 -28 6 -57 19 -64 29
-41 53 8 124 108 158 92 32 115 28 153 -25z m-2188 0 c29 -34 28 -44 -3 -72
-15 -13 -49 -45 -77 -71 -71 -67 -87 -62 -87 26 0 46 32 105 73 138 28 22 65
14 94 -21z m4158 -5 l90 -22 0 -55 c1 -103 5 -126 30 -163 13 -20 22 -36 20
-36 -2 0 -46 18 -97 40 -51 21 -130 51 -176 65 -99 31 -122 51 -122 103 0 38
24 72 60 85 32 12 109 5 195 -17z m690 -21 c61 -19 155 -65 155 -77 0 -4 13
-16 28 -26 44 -27 401 -355 461 -424 30 -34 31 -38 12 -38 -11 0 -40 21 -67
50 -78 83 -231 170 -319 181 -11 2 -41 -1 -67 -5 -41 -6 -52 -4 -90 20 -24 15
-74 43 -113 62 -73 36 -102 62 -135 124 -34 63 -22 109 33 133 40 18 42 18
102 0z m-5652 -21 c46 -24 102 -75 132 -118 57 -84 96 -179 102 -246 l5 -65
-57 -43 c-53 -41 -58 -43 -86 -32 -16 7 -43 30 -59 51 -41 51 -83 64 -140 44
-24 -9 -51 -22 -60 -30 -15 -13 -19 -13 -32 2 -19 21 -58 159 -65 226 -4 38 0
57 22 100 35 68 51 84 100 107 50 24 96 25 138 4z m-1313 -64 c0 -8 6 -27 13
-41 8 -14 17 -45 21 -70 6 -41 31 -115 61 -184 8 -16 16 -41 20 -55 3 -14 12
-47 20 -75 20 -71 37 -158 76 -385 11 -63 25 -138 30 -166 5 -28 12 -64 15
-80 4 -27 28 -110 41 -144 3 -8 7 -22 9 -31 2 -9 12 -36 22 -60 11 -24 24 -69
31 -99 7 -30 18 -71 26 -90 7 -19 23 -73 35 -120 13 -47 36 -129 52 -182 16
-54 28 -108 26 -120 -4 -23 -5 -23 -15 3 -6 14 -17 32 -25 40 -20 22 -38 57
-38 73 0 15 -47 136 -85 222 -13 28 -29 71 -35 95 -7 24 -25 84 -41 134 -16
49 -29 101 -29 117 0 15 -4 29 -9 32 -4 3 -14 34 -21 68 -8 35 -20 74 -27 88
-7 14 -13 40 -13 58 0 17 -4 32 -9 32 -8 0 -19 28 -27 70 -2 8 1 20 7 26 6 8
5 13 -5 17 -8 3 -17 25 -21 49 -4 24 -17 90 -30 148 -59 265 -76 382 -89 595
-3 51 -2 74 4 65 5 -8 10 -22 10 -30z m1804 -119 l39 -39 -38 -34 c-59 -52
-166 -128 -180 -128 -9 0 -16 24 -20 74 -8 83 4 114 60 147 51 32 95 25 139
-20z m-804 -62 c6 -23 16 -66 20 -97 11 -65 29 -122 38 -122 4 0 13 -10 21
-22 l14 -23 -23 20 c-13 11 -32 28 -42 37 -19 19 -43 26 -98 30 -30 3 -35 7
-38 31 -2 15 1 27 5 27 5 0 17 23 27 50 13 36 23 50 34 48 13 -2 16 4 14 30
-5 46 15 40 28 -9z m2675 14 c19 -9 35 -22 35 -29 0 -17 21 -23 56 -17 29 6
29 6 10 -15 -10 -12 -51 -40 -90 -62 -39 -22 -98 -61 -131 -85 -84 -63 -129
-85 -184 -92 -41 -5 -51 -2 -69 18 -46 48 -23 94 88 176 69 50 205 121 237
122 7 1 28 -7 48 -16z m3255 -45 c47 -22 89 -46 93 -54 4 -8 14 -14 22 -14 22
0 28 -20 13 -38 -8 -9 -26 -40 -39 -67 -22 -44 -24 -59 -19 -125 4 -41 6 -76
4 -78 -1 -2 -31 23 -65 55 -35 32 -94 83 -131 112 -38 29 -68 59 -68 66 0 8
-14 23 -30 35 -33 23 -60 68 -60 98 0 33 26 55 71 62 60 8 108 -4 209 -52z
m-3861 -18 c18 -49 51 -71 126 -87 l40 -8 -3 -56 c-3 -46 1 -64 20 -93 12 -20
35 -42 51 -49 15 -6 26 -17 25 -24 -5 -18 -129 -113 -149 -113 -10 0 -20 -4
-23 -9 -3 -4 -29 -11 -57 -15 -38 -5 -57 -3 -75 9 -13 8 -29 15 -36 15 -22 1
-74 54 -85 86 -7 18 -8 47 -3 70 4 21 13 62 18 89 6 28 20 77 32 109 23 59 75
129 93 123 5 -1 17 -23 26 -47z m-146 -12 c-46 -99 -76 -222 -77 -319 -1 -49
-5 -61 -36 -96 -19 -22 -48 -57 -65 -78 -74 -93 -151 -120 -245 -86 -64 22
-89 51 -97 109 -9 65 15 130 67 180 74 73 458 348 469 337 2 -2 -5 -24 -16
-47z m4397 -82 c62 -30 84 -45 133 -86 49 -43 59 -69 29 -76 -20 -6 -52 -77
-52 -117 0 -32 0 -32 -50 -7 -26 13 -59 20 -99 20 -53 0 -63 -3 -91 -32 -18
-17 -36 -43 -42 -57 -8 -21 -12 -23 -19 -11 -69 112 -78 133 -80 188 -2 31 1
68 5 82 10 29 65 90 82 90 6 0 18 7 25 16 17 20 108 15 159 -10z m-5996 -115
l48 -49 -37 -34 c-21 -18 -59 -54 -84 -79 -25 -26 -51 -44 -58 -42 -6 2 -23
27 -38 55 -31 59 -29 112 5 121 12 3 20 14 20 25 0 12 10 28 22 36 39 28 69
19 122 -33z m-327 0 c35 -26 73 -82 73 -109 0 -13 50 -112 67 -133 10 -12 9
-22 -8 -55 -12 -21 -24 -43 -28 -47 -4 -4 -34 6 -65 23 -32 16 -68 30 -80 30
-16 0 -34 16 -60 54 -44 64 -54 96 -48 154 3 34 12 49 45 77 22 19 46 35 52
35 7 0 30 -13 52 -29z m6687 -131 c99 -47 171 -126 278 -303 35 -58 158 -294
158 -303 0 -10 -39 38 -79 96 -24 36 -68 85 -98 110 -30 25 -66 55 -79 67 -24
22 -167 73 -205 73 -10 0 -19 4 -19 9 0 5 -24 38 -52 74 -102 128 -119 172
-76 202 31 21 95 12 172 -25z m-263 -122 c73 -38 159 -113 159 -138 0 -5 -12
-17 -27 -27 -73 -47 -93 -102 -96 -275 0 -42 -5 -74 -9 -72 -4 3 -8 14 -8 24
0 10 -10 31 -23 47 -40 50 -104 147 -135 205 -16 32 -39 70 -50 85 -28 40 -43
91 -36 122 20 85 100 95 225 29z m-6586 -5 c42 -46 46 -83 10 -111 -14 -11
-24 -26 -23 -34 2 -9 -10 -14 -37 -16 l-41 -3 11 73 c5 40 14 80 20 88 5 8 10
18 11 23 3 15 4 17 9 17 3 0 20 -17 40 -37z m2075 17 c0 -5 12 -13 28 -16 15
-4 39 -15 54 -25 14 -11 36 -19 47 -19 30 0 39 -29 15 -49 -11 -9 -30 -32 -44
-51 -13 -19 -56 -75 -96 -125 -39 -49 -75 -101 -79 -114 -9 -31 -74 -91 -98
-91 -28 0 -75 53 -82 93 -5 25 -1 56 14 101 23 71 46 110 134 229 45 60 63 77
82 77 14 0 25 -4 25 -10z m-567 -51 c4 -30 0 -42 -23 -70 -16 -19 -29 -38 -30
-44 0 -15 -60 -52 -100 -62 -42 -11 -70 -6 -70 12 0 32 195 225 210 208 4 -4
10 -24 13 -44z m-1315 -100 l33 -31 -24 -31 c-13 -18 -31 -48 -40 -67 -9 -19
-25 -46 -35 -59 -17 -20 -21 -22 -40 -10 -31 20 -41 137 -15 183 8 15 49 37
83 45 3 0 20 -13 38 -30z m1436 -42 c14 -9 39 -17 55 -17 18 0 34 -7 40 -17 6
-10 11 -12 11 -5 0 7 13 12 30 12 35 0 39 -19 15 -77 -8 -19 -15 -61 -15 -93
0 -63 -2 -66 -86 -123 -80 -53 -151 -76 -161 -51 -3 8 -13 14 -22 14 -28 0
-79 55 -86 92 -7 38 17 108 62 180 13 21 23 41 23 45 0 4 12 19 27 35 30 31
64 33 107 5z m5251 -27 c3 -5 19 -10 34 -10 41 0 196 -106 210 -144 2 -6 15
-24 27 -39 32 -38 30 -43 -15 -39 -21 2 -42 -1 -45 -7 -4 -6 -16 -11 -27 -11
-21 0 -59 -73 -62 -117 -2 -22 -22 -32 -29 -15 -1 5 -38 18 -81 29 -75 20
-105 19 -172 -2 -18 -5 -23 1 -39 45 -19 52 -18 82 3 196 12 64 27 90 66 109
34 17 121 20 130 5z m-6885 -82 c0 -31 19 -67 57 -109 l24 -26 -21 -37 c-13
-21 -27 -33 -33 -29 -28 15 -47 37 -47 55 0 10 -4 18 -9 18 -13 0 -21 26 -28
87 -4 41 -1 59 12 80 17 25 18 26 31 8 8 -10 14 -32 14 -47z m1276 26 c21 -9
56 -14 81 -12 26 2 42 -1 39 -7 -50 -132 -46 -189 20 -269 44 -53 45 -57 34
-90 -6 -19 -22 -42 -36 -50 -13 -9 -24 -22 -24 -29 0 -18 -78 -74 -164 -119
l-71 -37 -50 28 c-70 39 -78 61 -79 211 -1 143 9 175 86 265 39 44 118 125
123 125 2 0 20 -7 41 -16z m-1358 -220 c17 -12 8 -34 -14 -34 -10 0 -14 11
-13 38 0 20 3 30 6 22 4 -8 13 -20 21 -26z m1933 -35 c49 -35 52 -50 25 -133
-57 -172 -103 -217 -172 -164 -39 30 -41 33 -48 86 -9 67 16 132 71 187 50 51
79 56 124 24z m5344 1 c17 -10 48 -33 70 -49 22 -17 50 -36 63 -42 12 -7 22
-18 22 -25 0 -6 6 -14 13 -17 17 -7 67 -108 107 -215 16 -46 35 -92 41 -104
15 -28 99 -270 99 -286 0 -7 9 -32 20 -54 11 -23 20 -46 20 -52 0 -13 37 -135
62 -206 11 -30 26 -84 34 -120 14 -62 21 -89 58 -205 34 -106 112 -475 120
-561 5 -60 34 -249 58 -384 13 -74 12 -321 -3 -455 -17 -164 -63 -403 -82
-421 -4 -4 -7 -19 -7 -32 0 -27 -14 -75 -37 -129 -7 -17 -13 -37 -13 -45 -1
-46 -94 -247 -164 -353 -63 -97 -135 -191 -171 -223 -98 -87 -165 -142 -205
-167 -25 -15 -61 -40 -80 -55 -19 -15 -62 -42 -95 -60 -211 -115 -639 -117
-765 -4 -35 32 -75 66 -85 72 -13 9 -24 28 -78 132 -82 157 -109 280 -74 333
8 12 25 54 37 92 13 39 30 80 38 92 7 12 20 41 27 65 40 126 115 303 174 413
24 44 54 101 67 127 13 26 29 50 36 55 7 4 27 28 43 53 61 91 202 231 263 261
78 38 186 14 252 -56 27 -28 127 -81 137 -71 13 12 -17 88 -61 153 -55 83
-173 199 -211 209 -42 10 -123 -3 -162 -27 -20 -13 -57 -42 -82 -65 -25 -24
-47 -39 -49 -34 -2 5 16 46 40 92 40 77 47 85 99 111 87 44 179 53 306 33 100
-16 117 -21 190 -52 17 -8 34 -14 37 -14 9 0 99 -69 160 -122 103 -90 209
-262 211 -342 1 -34 5 -42 23 -44 18 -3 26 7 47 55 15 32 40 99 56 148 28 83
30 98 25 193 -4 92 -8 109 -37 160 -17 31 -35 59 -38 62 -4 3 -18 21 -31 40
-65 95 -238 250 -279 250 -9 0 -21 4 -26 8 -6 5 -44 21 -85 37 -41 16 -77 32
-80 36 -3 3 -12 6 -20 7 -8 0 -33 6 -55 12 -54 15 -130 31 -189 39 l-48 6 53
43 c62 50 199 118 271 133 65 14 166 3 204 -22 16 -10 37 -19 46 -19 28 0 135
-113 157 -164 46 -107 98 -19 79 135 -10 84 -26 121 -78 177 -11 12 -20 26
-20 32 0 5 -4 10 -10 10 -5 0 -10 6 -10 14 0 19 -111 109 -180 145 -55 30 -88
37 -213 48 -37 3 -70 10 -73 14 -3 5 -12 2 -21 -6 -9 -9 -22 -14 -29 -11 -8 3
-14 2 -14 -3 0 -4 -18 -14 -40 -21 -22 -7 -59 -31 -83 -52 -48 -45 -86 -72
-91 -67 -2 2 10 38 26 79 31 77 67 119 150 177 31 21 49 26 104 26 80 0 91 14
45 61 -25 25 -48 37 -92 46 -65 14 -202 8 -223 -9 -19 -16 -24 -4 -19 42 22
207 36 226 153 213 75 -9 137 -52 171 -117 25 -49 59 -55 59 -10 0 17 -4 33
-10 36 -9 5 -8 122 1 128 55 39 81 44 136 24 30 -11 148 -110 201 -169 14 -15
29 -25 33 -22 27 16 -6 63 -140 203 -34 35 -64 75 -68 89 -11 46 -73 141 -121
188 -47 46 -98 74 -134 74 -10 0 -21 8 -24 18 -3 9 -12 28 -19 42 -25 47 -55
135 -55 161 0 82 69 122 135 79z m-7195 -76 c0 -8 -3 -14 -7 -14 -5 0 -8 -15
-8 -32 1 -18 -5 -64 -12 -103 -7 -38 -13 -114 -13 -168 0 -73 -3 -98 -12 -95
-20 7 -28 63 -35 233 -5 148 -4 161 13 176 33 30 74 31 74 3z m977 -174 c13
-79 25 -95 99 -130 56 -26 73 -30 111 -24 l46 7 -8 -39 c-25 -136 -90 -230
-188 -272 -32 -14 -97 -7 -139 14 -32 16 -70 65 -88 114 -7 19 -18 42 -24 50
-47 64 -47 102 -1 169 19 28 35 53 35 56 0 6 59 97 88 135 11 14 25 43 33 64
l14 39 7 -64 c4 -35 11 -89 15 -119z m626 123 c-20 -77 10 -167 74 -223 30
-27 42 -31 75 -28 l40 4 -6 -44 c-5 -40 -23 -69 -79 -132 -7 -8 -31 -31 -52
-50 -38 -33 -43 -35 -120 -36 -44 0 -87 3 -95 8 -8 4 -27 12 -42 18 -38 13
-68 65 -68 117 0 75 51 197 117 278 5 6 25 31 46 57 36 43 53 53 100 57 14 1
16 -4 10 -26z m5290 1 c42 -22 144 -120 162 -156 14 -28 13 -31 -20 -64 -19
-19 -35 -43 -35 -53 0 -10 -7 -32 -16 -50 -11 -23 -16 -58 -15 -117 0 -68 -3
-84 -15 -84 -8 0 -25 -9 -37 -21 -46 -43 -53 -42 -71 13 -9 27 -16 58 -16 67
0 9 -4 21 -8 27 -5 5 -14 34 -21 64 -7 30 -22 71 -33 90 -12 19 -27 65 -35
102 -31 149 48 239 160 182z m311 -248 c49 -20 120 -104 154 -179 16 -38 17
-37 -25 -37 -52 0 -130 -52 -141 -94 -7 -25 -13 -30 -33 -28 -13 2 -30 9 -36
14 -7 6 -29 16 -50 23 -32 11 -38 19 -49 61 -15 54 -9 122 12 163 8 14 14 31
14 38 0 21 52 53 87 53 18 0 49 -6 67 -14z m-5919 -220 c12 -29 29 -42 99 -76
l83 -41 2 -76 c1 -42 6 -84 11 -94 15 -28 12 -124 -6 -169 -15 -38 -19 -40
-58 -40 -59 0 -114 18 -126 40 -6 11 -22 31 -35 46 -14 15 -30 45 -37 68 -6
23 -17 48 -23 56 -13 16 -26 101 -25 159 1 21 10 46 25 63 14 16 25 33 25 37
0 10 39 61 46 61 3 0 12 -16 19 -34z m485 -67 c-6 -30 -13 -117 -15 -194 -6
-174 -10 -193 -40 -201 -16 -4 -22 -11 -18 -21 9 -23 -35 -7 -62 23 -12 13
-27 24 -33 24 -7 0 -15 12 -18 28 -4 15 -11 32 -16 38 -13 18 -58 223 -51 240
3 8 18 14 35 14 39 0 131 46 175 88 20 19 40 29 44 25 5 -5 5 -33 -1 -64z
m-934 -60 c39 -43 138 -63 225 -45 l35 8 11 -53 c24 -114 32 -146 48 -193 32
-94 20 -166 -26 -166 -64 0 -184 120 -241 240 -9 19 -30 65 -47 101 -50 108
-53 161 -5 108z m1982 -166 c55 -60 122 -130 147 -156 l46 -48 422 5 c232 3
661 6 952 6 394 1 536 4 552 13 12 7 89 67 172 135 149 121 181 143 181 125 0
-22 -62 -93 -164 -190 l-108 -102 1 -113 c1 -62 6 -153 11 -203 6 -49 17 -238
25 -420 8 -181 17 -368 20 -415 4 -77 12 -263 31 -740 l7 -166 -29 -19 c-38
-24 -114 -103 -114 -118 0 -27 -36 -97 -50 -98 -8 0 -35 -1 -60 0 -1147 3
-1669 1 -1697 -9 -18 -7 -41 -26 -52 -43 -32 -52 -248 -257 -270 -257 -11 0
-22 9 -26 20 -8 24 38 82 178 223 l98 98 0 62 c0 34 -5 86 -10 116 -6 29 -11
88 -11 130 0 42 -5 119 -10 171 -6 52 -13 129 -15 170 -2 41 -7 102 -10 135
-2 33 -7 193 -10 354 -4 162 -8 298 -11 302 -2 4 -6 112 -8 240 -8 374 -15
456 -43 498 -13 20 -28 38 -32 41 -4 3 -29 29 -56 59 -26 30 -76 78 -112 107
-97 80 -107 96 -104 167 1 23 5 27 29 27 23 0 47 -20 130 -107z m-2238 62 c0
-12 7 -28 15 -35 8 -7 15 -19 15 -26 0 -8 4 -14 9 -14 9 0 24 -38 22 -53 -1
-4 10 -33 25 -65 14 -31 27 -67 28 -79 2 -12 8 -28 14 -36 7 -8 9 -17 5 -20
-3 -4 -1 -13 6 -21 6 -8 10 -18 9 -22 -2 -5 4 -29 13 -54 56 -155 85 -300 61
-300 -6 0 -9 -6 -6 -13 8 -23 -21 -48 -62 -54 -38 -5 -43 -2 -72 33 -18 21
-38 56 -45 79 -10 28 -19 40 -32 40 -15 0 -23 -15 -38 -78 -23 -92 -62 -143
-99 -131 -67 21 -91 71 -86 177 3 66 1 72 -17 72 -15 0 -25 -14 -41 -60 -42
-121 -55 -139 -96 -133 -19 2 -23 10 -26 45 -2 24 3 55 12 71 9 17 18 49 21
73 7 48 48 141 71 160 8 6 14 19 14 29 0 27 48 127 94 197 23 33 55 84 71 112
75 128 85 140 100 135 8 -4 15 -16 15 -29z m4570 3 c0 -4 -39 -39 -87 -79 -49
-40 -94 -79 -101 -88 -11 -13 -37 -16 -165 -15 -84 0 -251 1 -372 1 -121 1
-281 -1 -355 -3 -148 -5 -472 -11 -819 -15 l-224 -2 -64 69 c-62 68 -90 111
-77 123 3 3 56 5 117 3 176 -5 186 -5 492 3 160 4 292 9 295 12 8 8 1360 -1
1360 -9z m144 -155 c20 -153 26 -224 35 -468 6 -148 15 -333 20 -410 5 -77 10
-216 11 -309 0 -94 3 -172 4 -175 2 -3 7 -85 11 -181 4 -96 9 -215 11 -265 8
-169 5 -708 -3 -716 -12 -12 -116 74 -133 108 -18 39 -13 104 10 123 11 8 21
30 22 49 3 28 -2 37 -27 52 -16 9 -38 18 -47 18 -20 1 -20 2 -23 181 -3 140
-24 501 -31 511 -2 4 -7 88 -10 186 -2 98 -9 225 -14 283 -15 164 -22 298 -25
484 -2 94 -6 223 -10 286 l-6 115 93 87 c51 48 96 87 99 88 4 0 10 -21 13 -47z
m-2550 -69 c3 -8 14 -14 25 -14 26 0 124 -111 134 -153 4 -17 9 -137 11 -266
3 -128 7 -250 10 -270 8 -51 26 -322 31 -471 3 -69 9 -228 15 -355 6 -126 13
-356 17 -510 l6 -280 -77 -77 c-43 -43 -82 -78 -87 -78 -5 0 -10 33 -11 73 -2
111 -4 172 -12 307 -5 69 -9 175 -11 235 -2 61 -8 234 -14 385 -5 151 -9 282
-10 290 0 8 -4 89 -10 180 -5 91 -12 230 -16 310 -14 344 -25 570 -31 643 -6
68 -5 77 9 71 8 -3 18 -12 21 -20z m-1153 -85 c46 -39 53 -41 97 -36 26 2 55
8 65 12 14 6 17 2 17 -30 0 -20 5 -55 11 -78 7 -31 7 -49 -1 -67 -43 -96 -68
-114 -145 -108 -46 4 -62 10 -91 39 -20 19 -42 50 -50 69 -23 52 -54 148 -54
162 0 7 18 23 40 36 22 12 40 27 40 32 0 19 23 9 71 -31z m-307 10 c37 -22 36
-19 51 -161 12 -110 -36 -258 -87 -272 -28 -7 -96 32 -133 76 -37 44 -91 163
-98 216 -5 38 -3 43 11 36 31 -13 84 -19 133 -16 43 3 52 8 64 32 8 16 15 47
15 70 0 22 2 40 4 40 3 0 21 -9 40 -21z m-1664 -59 c0 -12 19 -34 110 -129 30
-32 81 -85 113 -119 l57 -61 -36 -98 c-19 -54 -37 -106 -39 -117 -7 -30 -14
-31 -43 -3 -23 22 -47 63 -94 160 -22 45 -76 231 -89 302 -5 33 -13 76 -16 95
l-6 35 22 -27 c11 -14 21 -31 21 -38z m1800 -107 c0 -17 5 -35 10 -38 6 -3 10
-14 10 -23 0 -9 13 -42 29 -72 15 -30 36 -80 46 -110 10 -30 24 -64 31 -75 8
-11 14 -44 14 -75 0 -50 -3 -56 -27 -67 -40 -19 -72 2 -107 71 -39 77 -56 168
-44 238 4 29 8 91 9 137 0 75 1 82 14 65 8 -10 15 -33 15 -51z m429 -325 c11
-100 6 -126 -28 -134 -14 -4 -31 -11 -37 -16 -15 -11 -52 4 -85 35 -35 33
-118 168 -125 203 l-5 29 74 0 c68 0 80 3 119 31 l43 30 17 -50 c10 -28 22
-85 27 -128z m-632 1 c34 -7 52 -5 75 7 36 18 47 9 49 -41 1 -16 2 -43 3 -58
1 -16 -2 -31 -6 -34 -5 -2 -7 -12 -4 -21 11 -35 -55 -79 -89 -59 -50 28 -82
73 -94 135 -6 34 -18 65 -25 69 -7 5 -15 18 -18 29 l-6 22 35 -20 c19 -12 55
-25 80 -29z m-594 -24 c4 -8 23 -21 44 -30 44 -19 101 -13 151 16 40 23 43 23
36 4 -4 -8 1 -26 10 -40 9 -14 14 -30 11 -34 -3 -5 -1 -11 5 -13 5 -1 11 -23
14 -48 2 -24 8 -46 14 -48 6 -2 8 -10 5 -18 -3 -8 -1 -14 4 -14 11 0 28 -91
43 -223 5 -43 15 -94 22 -113 15 -41 -2 -178 -24 -200 -8 -8 -36 -17 -64 -20
-41 -5 -54 -2 -76 16 -28 22 -61 84 -73 139 -4 21 -13 31 -25 31 -15 0 -18
-12 -22 -87 -5 -107 -22 -138 -77 -148 -81 -13 -143 63 -155 190 -4 38 -9 71
-11 74 -13 12 -35 -26 -35 -61 0 -21 -6 -51 -14 -67 -19 -35 -85 -82 -111 -76
-11 2 -32 6 -46 9 -33 7 -46 37 -62 141 -7 43 -17 80 -24 82 -14 5 -47 -57
-58 -107 -25 -120 -107 -147 -157 -52 -21 40 -25 58 -22 117 2 39 13 104 24
145 11 41 25 93 30 115 18 84 117 325 133 325 4 0 10 -7 14 -15 6 -16 64 -45
91 -45 9 0 35 9 59 21 l44 21 21 -27 c26 -34 75 -55 125 -55 46 0 48 2 97 63
41 50 51 56 59 32z m1137 -190 c20 -3 55 0 82 8 l47 15 7 -34 c12 -67 -11
-180 -41 -200 -31 -20 -119 -21 -147 -1 -62 44 -87 80 -111 159 -18 57 -18 58
4 88 l22 30 51 -29 c28 -16 67 -32 86 -36z m-300 15 c80 -29 89 -42 93 -132 3
-68 1 -83 -20 -118 -24 -40 -25 -40 -84 -40 -54 0 -66 4 -120 41 -35 23 -64
52 -70 67 -5 15 -14 36 -19 47 -5 11 -12 30 -15 43 -6 20 -4 22 18 17 27 -7
127 22 127 37 0 7 29 58 34 58 1 0 26 -9 56 -20z m-144 -320 c17 0 55 -81 59
-127 6 -63 49 -136 111 -190 49 -42 70 -53 119 -62 32 -6 60 -11 62 -11 5 0
-8 -95 -19 -132 -12 -40 -54 -68 -103 -68 -40 0 -127 63 -205 149 -75 82 -71
72 -104 261 -33 190 -39 227 -41 263 l-3 38 55 -60 c30 -34 61 -61 69 -61z
m355 43 c9 -7 40 -16 68 -20 66 -8 76 -26 67 -137 -9 -104 -37 -163 -93 -194
-36 -20 -47 -21 -86 -12 -60 13 -132 62 -162 110 -25 40 -31 58 -39 126 -6 46
4 54 70 54 31 0 64 27 99 82 15 24 20 26 39 17 11 -7 28 -18 37 -26z m266 5
c14 -18 29 -83 58 -248 14 -80 30 -173 36 -207 9 -52 8 -70 -6 -112 -18 -55
-54 -91 -90 -91 -33 0 -87 25 -112 52 -23 24 -83 148 -83 170 0 7 18 32 40 55
22 24 46 58 54 77 18 44 36 158 36 233 0 50 3 60 23 69 30 16 33 16 44 2z
m4582 -97 c12 -8 9 -25 -18 -108 -18 -54 -41 -114 -51 -133 -10 -19 -28 -55
-40 -80 -47 -99 -78 -152 -143 -246 -126 -185 -178 -249 -288 -361 -90 -92
-123 -119 -189 -152 -49 -25 -100 -43 -133 -47 l-54 -6 -6 223 -6 224 45 90
c24 50 60 110 80 135 103 131 133 164 179 198 74 54 146 102 155 102 4 0 13 6
19 13 6 8 30 19 52 26 23 7 65 23 93 37 66 30 212 81 251 87 17 2 32 5 35 5 3
1 11 -2 19 -7z m-6621 -211 c18 -29 85 -60 129 -60 28 0 48 9 77 33 l38 33 37
-37 c59 -59 134 -60 221 -4 25 17 26 16 81 -39 57 -57 70 -62 144 -57 35 3
105 45 105 64 0 31 23 36 52 12 16 -14 40 -28 54 -31 23 -6 121 7 156 21 28
11 35 -21 53 -225 9 -107 18 -211 21 -230 8 -53 24 -267 25 -336 1 -34 -4 -70
-10 -81 -19 -37 -134 -68 -167 -45 -5 4 -23 24 -38 45 -25 33 -28 45 -28 110
1 72 -26 157 -49 157 -6 0 -17 -16 -25 -37 -18 -42 -15 -130 7 -180 31 -74
-41 -163 -131 -163 -41 1 -63 17 -108 81 -39 55 -62 125 -62 191 0 41 -3 49
-17 46 -12 -2 -23 -26 -37 -79 -24 -88 -77 -175 -122 -201 -46 -27 -124 -26
-168 2 -47 28 -56 46 -69 142 -7 43 -16 79 -22 80 -18 1 -42 -57 -49 -121 -5
-47 -14 -70 -32 -90 -13 -14 -24 -30 -24 -35 0 -4 -31 -6 -70 -4 -79 4 -92 14
-136 95 -27 51 -27 52 -3 233 14 105 57 348 79 450 11 47 22 110 25 140 7 58
32 140 43 140 4 0 13 -9 20 -20z m7033 -20 c32 -17 22 -27 -41 -40 -33 -7 -63
-17 -66 -21 -3 -5 -12 -9 -21 -9 -36 0 -373 -369 -373 -408 0 -5 -7 -15 -16
-22 -8 -8 -21 -28 -29 -47 -8 -18 -30 -57 -49 -86 -20 -29 -42 -70 -51 -89 -8
-20 -19 -39 -24 -42 -5 -4 -13 -21 -16 -39 -11 -48 -58 -136 -63 -115 -2 10 4
34 13 55 9 21 23 53 31 71 8 18 14 39 14 46 0 8 7 19 15 26 8 7 15 21 15 32 0
11 6 32 14 46 8 15 26 52 41 82 15 30 31 57 35 60 9 6 50 82 50 93 0 12 101
137 111 137 5 0 9 7 9 14 0 31 198 210 276 251 34 17 97 20 125 5z m-5152
-324 c19 -19 47 -40 63 -47 l29 -12 -2 -93 c-3 -177 -25 -220 -116 -234 -57
-9 -78 -2 -121 40 -37 37 -49 62 -86 172 -27 79 -32 107 -18 109 4 0 30 2 57
3 28 1 57 6 64 10 25 16 71 89 72 115 l1 26 12 -27 c6 -16 27 -43 45 -62z
m-433 7 c9 -10 38 -29 62 -43 43 -23 47 -29 59 -85 40 -176 127 -310 218 -336
17 -4 20 -13 19 -65 -1 -103 -57 -164 -126 -142 -79 26 -93 34 -137 77 -38 37
-54 63 -79 134 -21 57 -32 107 -32 140 0 29 -4 88 -10 132 -23 197 -18 232 26
188z m6804 -56 c94 -93 210 -300 235 -417 8 -36 21 -80 30 -98 10 -18 19 -54
20 -80 2 -26 8 -80 14 -120 30 -209 -1 -574 -55 -659 -8 -12 -14 -30 -14 -40
0 -26 -26 -96 -60 -165 -28 -56 -41 -75 -100 -151 -14 -18 -34 -49 -45 -71
-17 -33 -185 -212 -250 -266 -59 -49 -140 -94 -355 -198 -19 -9 -42 -22 -51
-29 -17 -14 -195 -61 -329 -87 -99 -19 -346 -22 -467 -5 -90 12 -254 54 -295
75 -15 8 -33 14 -41 14 -40 0 -342 176 -429 250 -73 62 -152 146 -203 215 -16
23 -41 52 -53 65 -13 14 -32 42 -43 63 -11 20 -23 37 -28 37 -5 0 -31 46 -59
103 -49 99 -82 218 -82 295 0 37 2 37 79 17 92 -23 267 -45 370 -45 155 0 159
-2 216 -81 92 -126 206 -198 391 -244 115 -29 370 -8 507 42 100 36 208 88
234 112 12 12 26 21 32 21 5 0 11 3 13 8 2 4 29 24 60 44 85 56 190 159 247
244 28 41 51 80 51 86 0 6 6 16 14 22 30 24 176 334 176 374 0 10 3 22 7 26 4
3 15 35 24 69 10 34 31 100 48 147 17 47 30 98 31 115 0 16 6 47 14 70 21 61
36 154 36 222 0 86 4 94 40 77 15 -8 47 -34 70 -57z m-6086 -19 c24 -151 34
-267 31 -381 -3 -117 -16 -140 -83 -140 -38 0 -102 33 -102 52 0 5 -13 25 -30
46 -16 21 -30 44 -30 52 0 8 14 32 31 53 26 32 32 51 40 120 5 45 9 87 8 94
-1 6 -1 32 0 58 1 43 3 47 32 53 17 4 42 13 57 21 38 19 39 19 46 -28z m4150
-255 c-24 -60 -49 -117 -54 -128 -6 -11 -23 -58 -39 -105 -52 -148 -125 -268
-165 -270 -5 0 -29 -9 -52 -20 -51 -25 -152 -29 -236 -10 l-58 13 0 97 0 97
58 6 c87 8 181 60 296 163 28 24 97 86 154 136 57 50 109 99 115 109 30 48 22
9 -19 -88z m-4414 -154 c0 -27 76 -122 122 -151 l50 -33 -6 -115 c-10 -183
-20 -216 -76 -264 -32 -26 -77 -33 -127 -20 -21 6 -93 102 -126 169 -8 17 -18
57 -22 90 l-6 61 48 23 c65 30 92 72 104 163 6 40 12 79 15 86 4 15 24 7 24
-9z m3361 -111 c8 -73 45 -129 129 -196 53 -42 84 -57 175 -86 96 -31 152 -41
315 -60 80 -9 213 30 247 72 20 24 26 7 8 -21 -12 -19 -16 -54 -18 -143 -2
-104 1 -124 19 -159 12 -22 24 -57 28 -77 l7 -38 -116 0 c-113 0 -209 10 -310
31 -71 16 -193 58 -229 80 -17 11 -43 24 -58 30 -16 6 -28 14 -28 18 0 3 -17
15 -37 26 -42 22 -163 125 -163 139 0 4 -13 25 -28 45 -80 102 -101 227 -55
328 27 59 43 74 77 71 30 -3 31 -5 37 -60z m-4701 -8 c0 -10 38 -71 72 -114
63 -78 207 -70 279 16 l26 31 31 -21 c36 -26 98 -29 157 -7 76 27 72 33 80
-142 4 -87 11 -180 17 -208 5 -27 11 -138 14 -245 2 -107 6 -224 7 -260 5
-125 -79 -310 -142 -315 -11 -1 -26 -6 -33 -13 -20 -16 -83 3 -114 33 -26 26
-54 112 -54 167 0 31 -4 38 -19 38 -23 0 -37 -17 -44 -55 -3 -17 -16 -53 -28
-81 -28 -64 -76 -94 -148 -94 -44 0 -54 4 -90 39 -34 33 -44 52 -58 108 -9 37
-17 74 -19 81 -5 18 -61 15 -68 -5 -4 -9 -9 -44 -13 -77 -5 -54 -10 -65 -45
-98 -30 -29 -48 -38 -76 -39 -66 -2 -76 1 -114 40 -45 47 -62 106 -53 178 5
44 4 54 -10 59 -30 12 -54 -26 -65 -104 -15 -108 -66 -173 -137 -172 -87 1
-152 112 -153 260 0 31 -5 61 -12 68 -17 17 -12 239 13 547 22 277 25 304 33
312 6 6 36 -22 36 -34 1 -21 52 -41 123 -48 73 -7 80 -6 117 19 22 14 47 37
56 51 l16 25 21 -26 c30 -38 93 -64 157 -64 90 0 170 49 206 125 15 33 34 47
34 25z m964 -59 c10 -11 40 -35 67 -51 53 -35 55 -38 64 -106 15 -107 60 -189
153 -279 57 -55 61 -71 39 -147 -40 -131 -80 -171 -173 -170 -41 0 -61 5 -74
19 -10 10 -34 32 -54 48 -20 17 -48 40 -61 52 l-24 21 2 311 c1 171 5 311 9
311 4 0 5 7 1 16 -5 13 -3 15 13 6 11 -6 28 -20 38 -31z m705 -222 c0 -97 4
-212 10 -255 15 -117 5 -204 -29 -260 -23 -37 -34 -39 -108 -25 -67 13 -115
66 -141 154 -12 40 -21 86 -21 104 0 29 4 33 40 44 91 28 133 127 147 347 l6
104 41 19 41 18 7 -37 c3 -20 7 -116 7 -213z m2628 137 c45 0 85 -4 89 -9 4
-4 23 -4 41 -1 30 6 33 4 33 -17 0 -13 11 -51 25 -84 13 -33 25 -66 25 -73 0
-9 -115 -11 -562 -6 -310 3 -723 6 -918 8 -196 1 -361 5 -367 9 -7 4 -24 5
-38 1 -37 -9 -58 1 -46 24 16 30 115 124 141 134 53 21 217 24 845 20 358 -3
687 -5 732 -6z m-2936 -603 c5 -15 32 -49 59 -76 54 -54 54 -54 50 -192 -4
-132 -46 -243 -115 -300 -47 -38 -66 -41 -143 -24 -44 9 -53 16 -81 60 -40 64
-49 101 -57 234 -8 146 -2 160 70 169 41 6 67 16 100 42 25 19 46 38 46 42 0
14 40 72 50 72 6 0 15 -12 21 -27z m-405 -68 c23 -19 46 -35 51 -35 4 0 7 -60
6 -132 -1 -165 8 -227 47 -302 36 -67 41 -73 93 -105 43 -26 45 -35 15 -95
-23 -49 -52 -69 -95 -68 -98 3 -137 65 -165 262 -18 120 -18 510 0 510 3 0 24
-16 48 -35z m709 -147 c-14 -257 -17 -283 -54 -423 -19 -72 -26 -84 -68 -122
-26 -23 -59 -44 -73 -47 -40 -8 -102 28 -132 77 -32 50 -35 67 -13 67 18 0
155 128 155 145 0 7 10 34 22 61 17 40 22 74 26 181 l5 132 61 4 c33 2 64 4
69 5 4 1 5 -35 2 -80z m-1749 -263 c4 -8 12 -15 20 -15 8 0 14 -4 14 -8 0 -18
37 -50 74 -66 89 -37 185 -12 248 65 l35 42 19 -39 c24 -49 70 -80 140 -94 73
-15 89 -10 152 50 29 27 54 50 57 50 7 0 -5 -345 -15 -415 -6 -38 -13 -155
-15 -260 -4 -200 -10 -275 -26 -365 -6 -30 -11 -64 -12 -75 -5 -38 -20 -70
-58 -121 -40 -54 -81 -77 -129 -70 -62 8 -77 33 -88 141 -4 38 -11 70 -17 71
-13 4 -55 -62 -55 -87 0 -30 -48 -122 -73 -140 -28 -20 -84 -31 -92 -19 -3 6
-16 10 -29 10 -29 0 -80 55 -96 104 -7 23 -10 58 -6 87 5 37 3 55 -10 74 -21
33 -42 32 -50 -2 -18 -88 -67 -191 -95 -202 -12 -4 -47 -4 -79 0 -70 8 -116
39 -140 94 -18 42 -35 121 -31 143 1 7 -6 15 -15 19 -24 9 -54 -31 -54 -72 0
-39 -26 -116 -43 -127 -23 -15 -74 -8 -107 15 -36 24 -101 110 -127 167 -8 19
-26 73 -38 120 -22 81 -23 99 -20 390 2 168 5 334 8 370 2 36 5 86 6 113 1 57
14 60 60 13 21 -21 53 -39 90 -51 67 -20 84 -15 160 49 24 20 45 36 48 36 2 0
21 -16 41 -35 43 -41 85 -55 162 -55 43 1 63 6 95 28 22 15 46 40 53 55 15 30
30 35 38 12z m1377 -300 c15 -30 82 -95 97 -95 22 0 22 -85 1 -115 -4 -5 -15
-30 -25 -55 -22 -60 -43 -83 -88 -97 -51 -15 -112 1 -166 45 -54 45 -62 60
-72 141 -10 74 -6 81 51 81 58 0 100 36 128 107 24 61 24 62 41 40 9 -12 24
-35 33 -52z m-376 -22 c10 -15 25 -35 34 -44 10 -10 19 -43 23 -87 9 -94 20
-129 56 -178 27 -39 30 -49 30 -122 0 -83 -21 -206 -43 -250 -29 -60 -78 -51
-128 23 -31 45 -53 162 -39 200 5 13 7 25 5 27 -7 7 -8 72 -1 128 22 194 27
242 26 257 -4 38 0 73 10 73 5 0 18 -12 27 -27z m627 -65 c13 -12 9 -46 -15
-133 -20 -73 -60 -259 -65 -303 -2 -24 -14 -69 -25 -100 -11 -31 -27 -79 -34
-105 -17 -60 -54 -109 -98 -131 -44 -20 -50 -20 -98 4 -43 22 -73 64 -89 121
-18 65 -23 204 -10 259 l13 53 95 -5 c87 -5 99 -3 125 16 43 32 127 217 127
283 0 18 24 40 58 52 2 1 9 -4 16 -11z m-703 -675 c0 -10 0 -64 -1 -120 -2
-160 43 -305 110 -355 25 -18 30 -29 30 -65 0 -51 -26 -111 -53 -119 -24 -8
-46 18 -82 94 -36 78 -49 168 -40 281 6 93 9 137 13 249 1 28 7 52 12 52 6 0
10 -8 11 -17z m262 -44 c15 -30 40 -56 76 -80 29 -20 57 -42 61 -50 9 -15 -33
-148 -68 -215 -40 -78 -118 -103 -185 -60 -57 38 -107 187 -107 321 0 67 9 89
33 79 23 -8 86 14 121 43 33 27 37 25 69 -38z m-1893 -25 c0 -7 3 -14 8 -16 4
-1 26 -25 50 -52 52 -60 129 -94 174 -75 32 13 63 46 73 77 9 32 21 27 38 -16
9 -22 39 -60 67 -85 l52 -47 72 6 c85 8 107 20 146 82 l29 47 11 -30 c26 -74
35 -87 79 -126 44 -39 48 -40 106 -37 69 4 108 28 151 90 21 30 30 36 40 27 8
-6 14 -18 14 -25 0 -24 61 -54 112 -54 64 0 97 14 135 58 17 20 34 34 38 30 7
-7 -2 -104 -30 -303 -7 -55 -19 -145 -25 -200 -7 -55 -16 -107 -20 -115 -5 -9
-15 -88 -24 -175 -17 -175 -46 -326 -72 -377 -9 -18 -36 -56 -60 -84 -39 -46
-49 -52 -94 -58 -28 -4 -61 -12 -74 -17 -34 -16 -145 23 -184 65 -40 42 -79
115 -85 160 -6 46 -11 51 -27 31 -8 -9 -16 -57 -20 -109 -4 -51 -12 -101 -18
-112 -48 -90 -208 -100 -227 -14 -4 17 -18 44 -32 60 -21 25 -26 44 -30 110
-3 44 -9 80 -13 80 -18 0 -39 -52 -45 -115 -10 -85 -45 -130 -112 -139 -38 -6
-47 -3 -73 22 -40 38 -84 124 -99 192 -20 91 -43 317 -46 450 -1 69 -5 224 -9
345 -16 497 -16 516 11 479 7 -10 13 -23 13 -30z m2135 -101 c-3 -16 -13 -41
-21 -58 -25 -49 -61 -166 -79 -256 -33 -168 -72 -308 -88 -320 -15 -11 -73 14
-92 40 -16 21 -20 47 -23 128 -4 93 -3 103 14 108 59 18 112 55 146 106 38 54
76 158 81 220 2 24 9 37 27 46 37 19 43 16 35 -14z m-565 -383 c0 -12 9 -40
20 -62 30 -61 23 -128 -12 -128 -26 0 -48 128 -32 188 8 28 24 29 24 2z m220
-164 c0 -27 41 -106 60 -116 27 -15 25 -30 -10 -78 -37 -52 -64 -54 -108 -9
-22 23 -35 51 -46 97 -24 102 -23 108 25 108 23 1 44 3 47 6 11 11 32 6 32 -8z
m-150 -118 c0 -39 27 -101 59 -140 20 -24 31 -48 31 -68 0 -35 -27 -100 -41
-100 -5 0 -9 1 -9 3 0 1 -9 27 -20 57 -11 30 -20 66 -20 81 0 14 -6 45 -14 70
-8 24 -17 61 -20 82 -4 32 -2 37 15 37 13 0 19 -7 19 -22z m259 -176 c-24 -94
-48 -154 -64 -158 -18 -6 -44 42 -51 94 -6 49 -6 51 25 67 17 9 48 39 69 68
47 65 52 48 21 -71z m-107 -205 l25 -38 -17 -62 c-9 -34 -24 -78 -32 -97 l-15
-35 -27 83 c-34 109 -34 149 1 179 29 25 29 26 65 -30z m-253 -294 c11 -32 22
-76 25 -98 3 -22 10 -58 16 -80 5 -22 10 -54 10 -72 0 -18 7 -54 16 -80 17
-51 19 -71 29 -413 3 -124 10 -247 15 -275 6 -27 12 -70 15 -94 3 -24 15 -89
26 -145 16 -78 21 -135 20 -251 -1 -136 16 -295 34 -325 22 -35 -81 -105 -145
-98 l-34 3 -12 80 c-17 120 -111 384 -181 510 -7 11 -25 47 -41 80 -16 33 -48
93 -71 133 -56 97 -61 143 -27 247 14 44 37 132 51 195 14 63 30 129 35 145 5
17 12 50 16 75 7 48 56 237 72 281 6 14 17 66 26 115 9 49 24 108 32 132 l16
42 19 -24 c11 -14 28 -51 38 -83z m-766 14 c29 -36 50 -49 112 -72 68 -24 81
-26 115 -16 21 6 45 9 53 5 23 -8 97 28 136 67 33 33 34 33 29 9 -3 -14 -11
-38 -16 -55 -10 -30 -37 -151 -67 -300 -9 -44 -20 -94 -25 -111 -6 -17 -10
-40 -10 -52 0 -12 -7 -48 -15 -80 -8 -31 -24 -95 -35 -141 -11 -47 -26 -92
-34 -100 -7 -9 -16 -29 -20 -46 -11 -45 -67 -123 -101 -139 -95 -45 -187 28
-208 164 -8 45 -16 70 -24 70 -10 0 -13 -20 -12 -77 2 -79 -11 -145 -34 -174
-27 -35 -88 -61 -129 -54 -84 15 -142 116 -138 243 2 64 2 66 -14 53 -8 -7
-16 -33 -19 -59 -7 -65 -22 -135 -31 -150 -4 -7 -24 -12 -44 -12 -33 1 -40 6
-62 42 -14 23 -35 53 -46 67 -25 31 -35 127 -35 341 0 133 -12 328 -28 465
-11 94 -6 102 35 65 28 -24 43 -30 77 -29 60 2 100 21 132 63 27 36 28 36 48
19 11 -10 26 -31 33 -48 23 -50 58 -79 104 -87 28 -4 125 13 141 25 26 20 69
90 69 113 0 21 8 34 20 34 4 0 24 -20 43 -43z m1222 -717 c3 -63 8 -126 12
-140 6 -29 5 -580 -2 -758 -3 -68 -9 -131 -15 -141 -10 -19 -54 -33 -76 -24
-20 8 -34 85 -54 316 -11 122 -25 258 -32 302 -18 125 -17 413 4 521 20 110
73 289 96 324 16 24 17 20 38 -130 12 -85 25 -207 29 -270z m-1285 -309 c0
-13 16 -24 56 -40 31 -11 66 -21 79 -21 31 0 95 28 123 53 19 18 22 18 22 3 0
-45 -23 -212 -31 -228 -5 -10 -14 -55 -20 -100 -6 -46 -22 -128 -35 -183 -14
-55 -32 -126 -40 -158 -33 -130 -97 -217 -161 -217 -36 0 -99 36 -126 72 -13
18 -32 57 -43 86 -26 74 -36 69 -49 -24 -10 -69 -51 -132 -91 -140 -41 -7
-104 24 -136 68 -69 97 -106 253 -108 453 -1 83 -6 190 -12 238 -5 49 -7 101
-3 115 l7 27 17 -21 c26 -32 105 -40 146 -14 l32 20 38 -45 c52 -60 114 -76
195 -48 50 16 58 23 83 71 28 52 57 69 57 33z m500 -529 c7 -20 16 -41 21 -46
5 -6 9 -20 9 -32 0 -13 4 -25 9 -28 4 -3 19 -38 31 -78 13 -40 30 -83 38 -95
19 -30 12 -68 -12 -68 -27 0 -56 60 -56 117 0 27 -4 49 -10 50 -5 0 -15 1 -21
2 -6 1 -16 -15 -23 -34 -14 -45 -51 -54 -66 -16 -7 19 -4 49 12 113 11 49 25
105 30 126 10 44 22 41 38 -11z m-94 -293 c12 -11 40 -23 63 -26 27 -4 42 -11
46 -24 3 -10 20 -30 37 -45 25 -20 39 -25 65 -21 31 5 35 3 52 -36 48 -109 54
-137 42 -191 -17 -76 -44 -116 -80 -116 -16 0 -39 8 -51 18 -20 16 -23 27 -22
87 1 66 -9 105 -28 105 -6 0 -26 -25 -46 -56 -43 -67 -74 -85 -112 -63 -59 33
-62 201 -7 377 6 17 15 15 41 -9z m-808 -103 c63 -33 135 -11 183 53 27 37 39
38 65 10 10 -12 38 -32 62 -46 37 -22 51 -25 99 -20 36 4 63 13 77 26 12 12
26 21 30 21 12 0 -13 -187 -61 -440 -32 -172 -48 -233 -67 -262 -8 -13 -22
-43 -31 -68 -24 -67 -52 -93 -95 -85 -76 13 -86 26 -96 123 -8 76 -12 88 -26
74 -6 -6 -12 -37 -14 -68 -4 -78 -25 -118 -74 -142 -34 -17 -46 -18 -72 -8
-48 17 -74 48 -92 107 -9 30 -21 62 -26 71 -6 11 -4 103 6 247 8 127 14 241
13 253 -1 13 -1 74 -1 137 l2 114 44 -41 c24 -22 58 -47 74 -56z m1712 -95 c0
-15 -27 -31 -43 -25 -9 3 -30 -2 -46 -12 -17 -10 -33 -15 -37 -11 -11 11 40
47 58 41 10 -3 26 -1 35 5 22 13 33 14 33 2z m-197 -101 c-3 -11 -11 -20 -17
-20 -22 0 -26 13 -8 26 24 19 31 17 25 -6z m-88 -30 c-21 -22 -32 -27 -45 -20
-10 5 -21 6 -25 2 -5 -4 -5 -2 -1 5 3 6 20 14 36 18 16 4 32 11 35 16 4 5 11
9 17 9 7 0 -1 -13 -17 -30z m-698 -65 c50 -38 76 -42 135 -21 40 14 48 12 48
-14 0 -40 100 -96 151 -85 29 6 29 6 29 -37 -1 -132 -28 -220 -96 -312 -17
-23 -26 -28 -46 -23 -31 8 -48 41 -52 101 -5 76 -56 104 -72 40 -11 -42 -66
-113 -89 -113 -61 -2 -88 63 -84 201 2 67 0 91 -10 98 -12 7 -10 25 8 104 12
53 25 96 27 96 3 0 26 -16 51 -35z m883 -151 c11 -49 29 -161 39 -249 11 -88
26 -203 35 -255 8 -52 20 -140 25 -195 21 -213 54 -466 103 -775 11 -69 22
-143 24 -165 11 -97 67 -466 101 -655 3 -19 7 -44 9 -55 1 -11 7 -51 13 -90 5
-38 17 -101 25 -138 12 -54 13 -73 3 -87 -11 -19 -14 -18 -66 11 -45 26 -58
29 -73 20 -21 -13 -21 -12 -37 54 -22 90 -51 176 -65 197 -11 15 -16 46 -16
98 0 65 -14 207 -50 526 -5 44 -17 123 -25 175 -9 52 -20 123 -26 159 -12 83
-43 253 -65 355 -27 125 -25 1093 2 1175 8 24 21 -5 44 -106z m-291 -56 c6
-29 15 -125 21 -213 6 -88 13 -172 16 -187 5 -24 -6 -241 -23 -478 -10 -126
-8 -166 9 -193 32 -50 98 -276 113 -382 4 -27 13 -81 20 -120 8 -38 16 -95 19
-125 4 -30 11 -91 17 -135 6 -44 13 -131 16 -193 5 -131 8 -130 -85 -45 -53
47 -54 49 -58 113 -4 84 -59 249 -106 320 -35 53 -91 112 -153 163 l-29 25 0
123 c1 68 4 153 8 189 3 36 10 129 15 206 5 78 11 146 15 152 3 5 14 63 25
128 54 325 72 430 95 551 14 73 27 137 31 143 13 21 24 8 34 -42z m-704 -205
c25 -65 53 -110 72 -117 9 -4 36 -4 60 0 36 5 49 13 66 40 12 19 26 34 30 34
4 0 17 -15 28 -34 30 -52 81 -67 141 -41 19 8 20 20 -8 -170 -9 -60 -19 -139
-24 -175 -9 -77 -16 -96 -37 -104 -32 -13 -43 13 -43 101 0 107 -15 106 -48
-2 -27 -89 -41 -104 -94 -105 -30 0 -39 5 -55 33 -37 63 -51 135 -41 216 14
119 -16 119 -60 1 -45 -121 -86 -121 -79 0 3 36 17 126 32 200 15 74 28 143
28 153 2 29 14 19 32 -30z m-659 -168 c54 -21 93 -12 152 32 l34 25 30 -22
c26 -19 40 -22 99 -18 59 3 69 1 69 -13 0 -22 -29 -158 -39 -184 -23 -57 -60
-223 -61 -268 0 -21 -4 -46 -9 -55 -5 -9 -19 -73 -31 -142 -37 -219 -102 -293
-179 -205 -37 42 -42 61 -39 140 4 77 -15 80 -50 10 -45 -90 -98 -106 -145
-43 -24 32 -43 180 -27 218 22 55 60 312 60 408 0 35 8 95 17 133 l16 69 28
-33 c16 -19 49 -42 75 -52z m577 -339 c17 -14 40 -11 87 8 12 5 20 -6 34 -44
10 -28 28 -57 39 -65 27 -19 88 -19 133 0 32 13 38 13 57 0 12 -8 34 -15 49
-15 20 0 28 -5 28 -17 0 -53 -24 -198 -36 -221 -8 -15 -14 -35 -14 -44 0 -32
-32 -85 -61 -102 -46 -27 -65 -14 -90 61 -17 54 -20 79 -16 139 6 72 6 74 -13
64 -29 -16 -48 -49 -56 -100 -21 -135 -121 -180 -171 -77 -46 92 -49 135 -23
292 6 39 14 85 16 103 5 35 10 38 37 18z m-690 -490 c38 0 62 6 75 17 26 24
29 22 36 -21 10 -67 76 -108 157 -99 l51 6 -5 -47 c-8 -67 -43 -237 -61 -302
-9 -30 -16 -65 -16 -77 0 -13 -4 -23 -10 -23 -5 0 -25 -30 -42 -67 -39 -80
-71 -102 -119 -83 -36 15 -49 38 -58 98 -11 78 -30 66 -72 -46 -13 -35 -53
-62 -93 -62 -17 0 -35 13 -57 41 -30 38 -33 47 -33 118 0 42 7 112 17 156 36
167 55 253 76 335 12 47 24 96 27 109 5 23 6 22 38 -15 32 -37 37 -39 89 -38z
m707 -31 c35 -8 87 13 120 48 14 15 28 27 32 27 3 0 12 -17 18 -37 16 -49 46
-73 93 -73 38 0 95 23 110 44 4 6 6 -42 4 -106 -3 -89 -8 -120 -20 -132 -38
-39 -95 4 -82 63 9 40 -10 48 -38 15 -55 -67 -66 -74 -105 -74 -31 0 -42 6
-60 30 -12 16 -27 41 -32 55 -13 35 -32 31 -55 -12 -25 -45 -70 -74 -105 -66
-30 7 -49 28 -45 51 11 56 37 173 46 205 l10 38 41 -35 c22 -19 53 -38 68 -41z
m56 -245 c46 -40 76 -46 130 -25 43 16 46 16 65 -1 23 -21 25 -54 3 -54 -26 0
-183 -83 -263 -138 -41 -29 -80 -52 -86 -52 -7 0 -31 14 -53 30 -23 17 -49 30
-57 30 -9 0 -18 7 -22 16 -6 17 11 110 29 156 10 27 13 28 62 22 42 -4 59 -1
96 20 25 14 49 25 54 26 4 0 24 -13 42 -30z m424 -188 c25 -11 57 -34 71 -49
15 -16 42 -39 60 -52 21 -14 43 -43 57 -75 12 -28 34 -64 47 -80 37 -43 40
-82 12 -143 -43 -93 -40 -93 -122 4 l-73 87 5 66 6 65 -52 61 c-41 50 -59 64
-95 73 -24 6 -59 8 -78 5 -53 -10 -116 -42 -129 -66 -7 -13 -23 -33 -36 -45
-45 -43 -16 -151 61 -225 26 -25 37 -46 44 -84 12 -68 1 -91 -52 -115 -42 -18
-47 -18 -85 -3 -23 9 -41 21 -42 28 -8 133 -37 266 -70 320 -42 70 -17 111
106 174 164 84 268 99 365 54z m-670 -102 c11 -6 20 -15 20 -20 0 -6 9 -10 20
-10 11 0 25 -9 32 -20 7 -11 18 -20 24 -20 17 0 50 -42 72 -93 25 -55 51 -242
36 -256 -9 -9 -132 46 -164 74 -8 7 -25 16 -37 19 -11 4 -27 13 -33 21 -7 8
-20 15 -29 15 -10 0 -33 12 -52 26 -20 15 -43 24 -56 21 -13 -2 -28 2 -34 9
-6 8 -24 14 -40 14 -16 0 -29 4 -29 10 0 5 49 9 119 8 101 0 125 2 153 19 49
29 48 59 -4 109 -56 54 -117 73 -195 63 -31 -4 -60 -6 -63 -3 -9 10 45 43 75
46 36 4 158 -18 185 -32z m540 -35 c7 -8 19 -15 28 -15 25 0 52 -31 52 -61 0
-15 -12 -41 -26 -58 -22 -26 -33 -31 -70 -31 -24 0 -44 3 -44 8 0 4 9 22 21
41 20 33 20 33 1 72 -18 36 -18 40 -3 49 22 13 27 12 41 -5z m-1200 -152 c28
3 50 3 50 0 0 -15 -101 -211 -115 -223 -8 -7 -15 -17 -15 -22 0 -5 -13 -28
-29 -52 -33 -48 -97 -96 -128 -96 -30 0 -53 26 -53 59 0 27 57 206 85 268 8
17 15 37 15 44 0 8 10 38 22 67 l22 53 48 -52 c49 -52 49 -52 98 -46z m615 67
c16 -18 17 -22 4 -34 -44 -42 -85 -20 -54 28 21 31 27 32 50 6z m-347 -61 c26
5 48 8 50 7 1 -2 -7 -59 -18 -127 -23 -135 -84 -341 -106 -360 -8 -6 -14 -17
-14 -25 0 -17 -32 -34 -63 -34 -20 0 -30 10 -46 43 -25 51 -26 80 -5 167 9 36
19 85 24 110 23 116 28 138 39 180 18 61 17 61 57 44 28 -12 46 -13 82 -5z
m1122 -131 c0 -5 6 -8 14 -8 14 0 32 -48 21 -58 -7 -8 -52 36 -76 75 -27 44
-14 64 17 27 13 -16 23 -32 24 -36z m-811 -18 c23 -12 60 -37 81 -56 34 -31
38 -40 34 -67 -11 -61 -57 -192 -81 -227 -12 -19 -23 -42 -23 -52 0 -21 -35
-41 -58 -33 -21 6 -46 59 -66 135 -11 43 -11 61 0 113 8 34 18 83 23 108 11
50 31 99 41 99 3 0 25 -9 49 -20z m1140 -41 c70 -61 91 -96 91 -150 0 -29 -1
-29 -62 -29 -101 -1 -191 -42 -203 -93 -9 -35 12 -44 53 -23 27 14 36 13 105
-5 69 -19 81 -27 151 -93 41 -40 80 -85 86 -101 11 -30 5 -85 -11 -85 -19 0
-59 -80 -59 -118 0 -47 13 -64 69 -93 l43 -22 -6 -71 c-8 -84 -35 -173 -84
-276 -48 -102 -67 -128 -120 -161 -36 -23 -49 -26 -65 -18 -14 8 -23 7 -34 -3
-33 -33 24 -68 111 -68 41 0 56 6 108 47 l61 47 -7 -40 c-3 -21 -11 -73 -16
-114 -5 -41 -14 -95 -20 -120 -12 -51 -39 -181 -47 -223 -9 -45 24 -31 64 28
19 28 38 51 42 53 4 1 9 -28 10 -65 2 -90 18 -204 42 -311 11 -48 22 -102 26
-121 6 -32 5 -33 -17 -21 -26 14 -126 114 -151 150 -28 43 -39 16 -34 -85 4
-109 -1 -115 -57 -57 -44 45 -170 232 -198 293 -12 24 -36 64 -55 89 -19 25
-42 61 -51 80 -10 19 -23 42 -29 50 -6 8 -18 31 -25 50 -15 40 -65 152 -85
190 -15 30 -37 119 -61 252 -16 87 -16 111 -5 225 14 139 32 230 61 308 10 28
22 66 26 85 3 19 20 74 35 122 16 48 29 97 29 108 0 30 -27 91 -48 106 -19 15
-23 9 74 94 43 37 124 138 124 154 0 24 41 96 55 96 7 0 45 -27 84 -61z m-414
-27 c62 -50 105 -98 105 -119 0 -13 -13 -32 -35 -49 l-35 -27 -61 61 c-53 52
-59 63 -50 81 6 11 11 34 11 51 0 28 2 31 23 24 12 -3 31 -14 42 -22z m-461
-146 c29 -22 29 -23 10 -39 -68 -60 -84 -76 -103 -112 -12 -22 -36 -67 -55
-100 -63 -114 -112 -323 -122 -515 -3 -69 -11 -132 -17 -141 -19 -25 -74 -31
-113 -13 -33 16 -84 97 -84 135 0 10 -4 21 -10 24 -12 8 -13 105 -1 124 7 11
15 11 41 2 48 -16 58 -14 75 19 13 24 14 56 9 188 -7 167 -4 183 35 162 12 -6
35 -7 58 -2 34 7 41 14 71 72 19 36 49 110 68 164 20 55 38 104 41 109 3 5 20
-5 37 -22 17 -18 44 -42 60 -55z m366 -2 c0 -8 -5 -12 -10 -9 -6 4 -8 11 -5
16 9 14 15 11 15 -7z m-43 -46 c11 -10 26 -18 34 -18 8 0 25 -16 39 -35 14
-19 33 -35 43 -35 10 0 34 -12 54 -27 33 -25 35 -30 30 -73 -2 -25 -16 -70
-30 -100 -33 -69 -49 -120 -77 -240 -12 -52 -26 -105 -31 -118 -5 -13 -9 -32
-9 -43 0 -16 -6 -20 -27 -17 -22 2 -29 9 -31 31 -5 41 -29 45 -62 9 -29 -32
-57 -34 -81 -6 -6 8 -25 14 -40 14 -23 0 -32 -6 -40 -27 -24 -65 -67 -81 -101
-38 -23 30 -54 32 -63 5 -4 -11 -25 -30 -47 -41 -35 -18 -44 -19 -64 -8 -22
11 -24 19 -24 92 0 44 7 116 16 161 19 95 85 243 137 304 21 24 37 49 37 55 0
20 106 123 160 158 35 22 151 20 177 -3z m-1414 -42 c20 -4 37 -10 37 -15 0
-29 -111 -198 -182 -275 -38 -42 -46 -46 -41 -26 3 14 9 30 13 35 4 6 13 36
20 68 11 57 62 216 75 237 5 8 12 7 23 -3 10 -8 34 -17 55 -21z m300 -113 c13
-12 37 -19 74 -20 30 0 56 -3 59 -5 4 -5 -29 -165 -46 -218 -40 -124 -125
-218 -171 -189 -7 4 -16 31 -19 61 -7 52 4 125 46 283 8 33 18 70 21 83 6 27
11 27 36 5z m375 -35 c-5 -29 -6 -117 -2 -195 5 -126 4 -143 -10 -143 -8 0
-22 10 -30 23 -25 38 -28 88 -11 167 9 41 21 100 26 130 12 60 16 70 28 70 4
0 4 -24 -1 -52z m1732 -113 c4 -38 0 -59 -9 -49 -11 11 -21 81 -13 89 8 7 19
-14 22 -40z m-2181 -336 c14 -1 37 0 49 1 22 2 23 -1 17 -32 -13 -59 -40 -121
-99 -226 -52 -93 -60 -102 -87 -102 -24 0 -32 7 -45 34 -16 32 -15 37 19 147
19 63 39 125 42 139 4 14 14 37 22 53 l14 27 21 -20 c12 -11 33 -20 47 -21z
m1084 -112 c23 3 61 0 83 -6 l41 -11 -40 -45 c-46 -51 -82 -58 -124 -25 -34
26 -51 25 -62 -3 -12 -31 -69 -79 -90 -75 -9 2 -22 16 -29 31 -18 38 -37 34
-51 -13 -22 -73 -102 -95 -130 -36 -15 32 -17 84 -4 97 4 4 19 10 33 12 14 3
46 14 72 25 39 17 52 19 77 9 37 -14 105 6 129 39 14 18 20 20 35 9 11 -7 35
-11 60 -8z m144 -99 c-3 -7 -5 -2 -5 12 0 14 2 19 5 13 2 -7 2 -19 0 -25z
m-793 -252 c4 -137 9 -173 25 -209 16 -35 27 -46 51 -51 18 -3 40 -1 50 4 35
19 45 178 16 259 -9 24 -16 70 -16 102 0 55 2 59 30 74 34 17 33 18 45 -80 3
-27 17 -112 32 -188 24 -127 25 -142 12 -195 -18 -76 -53 -114 -105 -115 -93
-3 -153 59 -180 185 -8 40 -20 93 -25 118 -14 59 -13 284 1 310 11 20 12 19
35 -14 22 -33 25 -47 29 -200z m787 175 c24 -30 25 -68 1 -76 -11 -3 -24 -17
-31 -31 -16 -35 -52 -29 -65 11 -6 17 -11 32 -13 34 -6 9 -43 -33 -43 -49 0
-18 -39 -40 -70 -40 -11 0 -27 11 -36 25 -22 34 -35 32 -86 -16 -62 -58 -83
-65 -124 -37 -19 13 -34 31 -34 40 0 9 -3 23 -6 32 -4 12 0 16 15 16 26 0 72
23 90 44 9 11 25 13 61 9 44 -5 50 -3 84 28 37 34 37 34 138 34 93 0 101 -2
119 -24z m-708 -88 c3 -38 13 -97 22 -132 11 -41 15 -79 10 -107 -6 -40 -20
-63 -31 -51 -12 11 -34 206 -30 257 3 30 5 65 5 78 1 12 5 22 10 22 4 0 11
-30 14 -67z m-680 -28 c15 -13 27 -31 27 -40 0 -49 -156 -282 -176 -263 -4 5
65 225 95 301 13 33 18 33 54 2z m1401 -111 c-21 -39 -59 -52 -83 -29 -25 22
-56 19 -74 -9 -9 -13 -28 -27 -43 -30 -22 -6 -32 -2 -52 20 l-25 27 -26 -31
c-32 -38 -72 -55 -104 -43 -13 5 -30 5 -37 1 -22 -13 -40 8 -40 46 0 32 2 34
34 34 22 0 52 12 87 36 45 30 57 34 76 25 35 -16 99 -13 135 5 22 11 33 13 41
5 20 -20 77 -13 100 14 l22 24 3 -31 c2 -17 -4 -46 -14 -64z m56 -98 c9 -46 9
-60 -5 -85 -17 -33 -45 -40 -65 -16 -23 28 -47 27 -78 -5 -17 -16 -39 -30 -49
-30 -33 0 -63 29 -63 61 0 40 -26 38 -44 -4 -38 -93 -196 -103 -196 -13 0 13
-2 31 -6 39 -4 11 4 13 45 9 39 -3 57 0 84 17 39 24 68 27 96 9 15 -9 27 -7
63 10 34 17 55 21 89 16 37 -5 49 -2 78 20 19 14 36 26 37 26 2 0 8 -24 14
-54z m60 -157 c0 -26 150 -313 218 -414 17 -27 32 -54 32 -59 0 -6 -21 -26
-46 -45 -90 -68 -184 -259 -167 -343 8 -41 -22 -48 -195 -46 -81 1 -153 -1
-158 -5 -16 -9 -55 4 -52 17 3 12 66 208 95 296 8 25 19 63 24 85 5 22 13 49
18 60 35 78 66 295 58 396 -5 64 -4 70 11 63 40 -17 88 -16 112 4 24 19 50 15
50 -9z m-993 -11 c-3 -8 -6 -5 -6 6 -1 11 2 17 5 13 3 -3 4 -12 1 -19z m662 8
c7 -8 26 -18 42 -21 45 -10 53 -35 46 -159 -5 -101 -52 -324 -75 -360 -4 -6
-15 -40 -25 -76 -10 -36 -24 -85 -31 -109 -9 -36 -18 -47 -41 -54 -17 -6 -46
-20 -65 -32 -44 -28 -132 -47 -176 -39 -39 7 -43 23 -20 100 8 27 29 108 46
179 16 72 41 166 54 210 13 44 27 116 30 160 13 159 9 149 76 162 33 6 72 20
87 32 34 25 37 25 52 7z m-299 -81 c0 -14 -6 -58 -14 -98 -8 -40 -17 -101 -20
-137 -4 -36 -13 -90 -21 -120 -8 -30 -15 -68 -15 -85 0 -16 -13 -52 -28 -80
-32 -59 -74 -78 -150 -68 -103 14 -179 150 -174 313 1 51 30 253 38 275 9 23
24 18 24 -9 0 -14 4 -28 10 -31 6 -4 9 -67 7 -158 -2 -144 -1 -154 21 -184 12
-17 32 -35 42 -38 35 -11 79 5 94 33 16 31 38 161 41 243 2 67 8 77 50 95 18
7 44 27 57 43 29 37 38 38 38 6z m-214 -56 c18 -6 21 -16 23 -68 2 -65 -14
-179 -31 -223 -18 -49 -62 -26 -74 38 -6 35 1 176 13 242 6 34 7 35 69 11z
m1124 -466 c0 -3 -13 -27 -29 -52 -73 -114 -81 -247 -19 -320 39 -47 53 -44
32 6 -42 99 -33 193 24 260 l27 31 -3 -66 c-4 -65 10 -159 29 -194 5 -10 9
-26 9 -36 0 -24 49 -122 61 -122 12 0 12 23 0 52 -21 53 -49 207 -46 258 1 34
11 71 24 95 l22 40 -5 -65 c-5 -60 9 -177 33 -272 5 -21 28 -66 51 -100 52
-76 49 -73 56 -66 3 4 -3 24 -14 45 -59 112 -96 383 -52 383 4 0 13 -28 20
-62 6 -35 23 -96 36 -136 13 -40 24 -77 24 -84 0 -19 44 -78 58 -78 17 0 15
35 -3 54 -8 8 -15 28 -15 44 0 16 -6 47 -14 68 -16 47 -30 134 -21 134 15 0
32 -29 54 -90 29 -83 62 -150 73 -150 10 0 10 5 -2 49 -22 82 -50 220 -50 246
l0 27 32 -30 c31 -31 40 -51 103 -237 31 -91 34 -114 40 -255 6 -138 4 -162
-13 -218 -11 -35 -32 -81 -47 -102 -24 -35 -30 -38 -73 -37 -52 0 -182 63
-249 120 -60 51 -113 106 -113 117 0 6 -8 23 -18 38 -60 88 -162 269 -162 287
0 8 -4 23 -10 33 -43 79 -54 154 -33 225 15 51 49 105 68 107 6 0 26 14 45 30
31 27 70 40 70 23z m-1340 -57 c0 -12 -9 -46 -20 -76 -12 -30 -34 -107 -49
-171 -40 -159 -29 -218 40 -219 46 0 71 42 124 210 41 132 55 155 90 155 29 0
30 -2 28 -40 -4 -61 -43 -204 -74 -272 -10 -24 -19 -47 -19 -52 0 -5 -15 -27
-34 -48 -19 -21 -43 -47 -53 -59 -24 -26 -119 -67 -142 -59 -67 21 -89 134
-52 269 12 43 30 98 41 122 11 23 20 52 20 64 0 11 4 28 9 38 5 9 20 56 33
104 21 82 23 86 40 71 10 -9 18 -26 18 -37z m88 -65 l22 -19 -34 -81 c-19 -44
-39 -104 -46 -133 -14 -60 -47 -121 -61 -112 -22 13 -2 139 45 272 37 105 36
104 74 73z m209 -98 c-7 -42 13 -84 50 -104 29 -15 29 -29 1 -65 -44 -58 -142
-144 -163 -144 -10 0 -1 34 30 115 14 39 33 95 40 126 23 93 54 147 42 72z
m328 -173 c4 -7 26 -8 57 -4 l51 7 -6 -62 c-4 -39 -18 -83 -38 -121 l-31 -60
-17 32 c-10 20 -25 34 -39 36 -13 2 -26 10 -28 17 -5 12 8 98 22 148 6 19 19
22 29 7z m501 -28 c8 -9 20 -38 28 -63 8 -26 32 -73 54 -105 21 -33 43 -66 48
-75 5 -9 33 -42 62 -73 28 -32 52 -63 52 -71 0 -7 10 -26 23 -42 53 -65 60
-92 48 -173 -7 -41 -16 -79 -21 -84 -6 -6 -10 -20 -10 -32 0 -11 -11 -30 -25
-40 -14 -10 -25 -24 -25 -31 0 -7 -4 -13 -10 -13 -5 0 -33 -17 -61 -37 -41
-29 -61 -37 -98 -37 -100 -2 -180 94 -201 242 -7 52 -6 90 8 172 20 124 22
298 3 392 -18 93 -14 100 55 93 37 -4 62 -12 70 -23z m-191 -55 c26 -87 31
-257 10 -393 -13 -84 -16 -148 -12 -223 5 -99 4 -109 -20 -159 -89 -183 -344
-240 -420 -93 -20 38 -23 59 -23 151 0 138 24 210 70 210 32 0 48 -32 53 -110
6 -91 15 -116 61 -164 28 -30 40 -36 58 -31 43 13 50 33 45 138 -3 53 -3 97 0
97 2 0 11 -7 20 -15 21 -22 47 -15 51 13 4 24 -48 117 -79 142 -16 13 -18 24
-12 103 6 84 7 88 37 106 75 47 102 98 109 207 6 100 26 108 52 21z m-428 -4
c-9 -9 -20 -13 -24 -9 -4 4 -1 11 7 16 25 16 35 11 17 -7z m-27 -123 c-5 -10
-9 -49 -8 -86 2 -147 -34 -244 -91 -244 -12 0 -8 38 20 204 16 97 22 112 46
132 31 25 48 22 33 -6z m-117 -57 c-3 -27 -9 -72 -14 -102 -5 -30 -9 -69 -9
-87 0 -43 -37 -124 -56 -124 -14 0 -15 11 -9 73 4 39 15 90 25 112 10 22 22
67 26 100 6 54 16 74 35 75 4 0 4 -21 2 -47z m245 14 c8 -6 11 -20 7 -35 -6
-25 -64 -101 -77 -102 -4 0 -4 26 -2 58 8 94 11 101 36 95 13 -3 29 -11 36
-16z m-393 -184 c-9 -78 -14 -147 -10 -152 3 -6 -6 -23 -21 -38 -35 -35 -76
-118 -72 -146 4 -31 36 -34 48 -5 5 13 18 34 28 47 l19 24 31 -23 c27 -20 33
-21 48 -9 9 8 23 29 31 47 11 27 18 32 48 32 l36 0 -7 -67 c-3 -38 -13 -90
-21 -116 -15 -49 -65 -117 -86 -117 -6 0 -19 -7 -29 -17 -21 -19 -138 -23
-160 -6 -7 6 -24 13 -37 15 -17 2 -32 18 -53 57 l-29 53 17 52 c16 48 36 126
69 276 32 142 42 164 102 227 55 57 58 58 61 34 2 -14 -4 -89 -13 -168z m-419
155 c22 -43 12 -121 -22 -161 -29 -34 -39 -70 -27 -92 6 -10 5 -40 -2 -79 -15
-80 -9 -123 21 -142 45 -30 88 7 117 101 36 122 90 261 105 273 9 6 27 12 40
12 21 0 23 -3 17 -27 -4 -16 -10 -48 -15 -73 -14 -79 -68 -283 -90 -339 -37
-94 -108 -208 -138 -219 -82 -32 -129 -22 -178 39 -41 50 -50 108 -29 191 29
114 172 548 181 548 2 0 11 -14 20 -32z m89 -201 c-4 -18 -19 -66 -34 -107
-16 -41 -31 -84 -35 -94 -4 -12 -10 -16 -16 -10 -12 12 5 136 26 188 26 67 71
84 59 23z m809 -189 c12 -125 12 -153 -3 -153 -7 0 -22 16 -32 35 -22 40 -26
149 -7 168 25 25 36 12 42 -50z m665 -381 c2 -87 25 -235 56 -360 25 -98 -176
45 -250 178 -74 133 -110 323 -52 277 25 -20 83 -21 147 -4 97 27 96 28 99
-91z m-1094 -69 c29 -79 28 -245 -2 -310 -27 -60 -63 -80 -93 -53 -11 10 -20
22 -20 27 0 5 -9 21 -20 36 -48 65 -68 249 -36 321 18 39 20 40 75 43 31 2 61
0 66 -4 6 -4 19 -31 30 -60z m-624 37 c16 -9 27 -20 24 -25 -3 -5 -10 -37 -15
-72 -12 -90 -23 -125 -59 -198 -52 -104 -92 -140 -157 -140 -29 0 -30 13 -5
48 47 68 142 289 156 365 8 41 13 44 56 22z m1123 -43 c22 -36 24 -50 28 -190
2 -99 0 -150 -7 -147 -5 3 -18 8 -27 11 -10 3 -33 30 -52 58 -35 53 -56 146
-56 250 0 52 4 56 52 56 33 0 41 -5 62 -38z"/>
<path d="M8991 13253 c-13 -3 -42 -16 -63 -30 -22 -13 -48 -27 -58 -31 -19 -7
-100 -100 -100 -115 0 -4 -9 -26 -19 -48 -22 -45 -21 -110 2 -194 17 -63 35
-91 63 -104 12 -5 25 -19 29 -30 7 -22 44 -42 110 -61 157 -44 145 -43 215
-24 36 9 69 21 75 25 5 5 16 9 25 9 17 0 96 78 124 123 40 66 37 188 -9 275
-38 75 -159 175 -226 189 -16 3 -32 10 -35 14 -5 9 -89 10 -133 2z m134 -107
c65 -17 144 -58 171 -88 13 -13 27 -51 35 -91 12 -61 11 -73 -6 -120 -40 -114
-68 -138 -184 -159 -76 -14 -121 -1 -182 52 l-44 38 40 17 c78 33 142 118 129
172 -20 84 -60 123 -125 123 -41 0 -37 25 9 49 44 24 89 26 157 7z"/>
<path d="M6516 15550 c-15 -5 -36 -15 -45 -22 -36 -29 -65 -39 -134 -48 -82
-10 -117 -4 -200 35 -60 28 -154 40 -194 25 -27 -11 -53 -59 -53 -97 0 -36 42
-119 91 -178 22 -26 53 -77 70 -113 30 -63 31 -69 25 -151 -9 -122 -14 -127
-125 -130 -86 -2 -204 13 -226 29 -5 4 -25 11 -43 15 -18 4 -52 18 -77 31 -55
31 -116 35 -144 10 -27 -25 -28 -84 -1 -133 25 -47 26 -135 4 -218 -42 -157
-42 -184 5 -234 44 -47 103 -39 181 21 83 65 279 122 400 116 l65 -3 8 -85 c4
-52 3 -110 -4 -150 -6 -36 -13 -81 -15 -100 -2 -19 -32 -89 -65 -156 -49 -100
-58 -125 -51 -145 29 -75 103 -82 239 -23 17 8 49 14 72 14 49 0 146 -24 176
-44 13 -8 45 -18 72 -22 53 -7 66 0 100 52 18 29 11 66 -21 109 -37 48 -88
159 -135 290 -23 63 -35 269 -17 284 33 28 335 -14 403 -55 12 -8 27 -14 32
-14 6 0 30 -14 55 -31 30 -22 60 -33 93 -36 41 -4 51 -2 71 20 31 33 31 90 1
148 -21 38 -24 58 -24 144 0 90 2 103 24 134 15 20 26 53 29 82 4 42 1 54 -23
85 -23 30 -31 35 -54 29 -14 -4 -42 -18 -61 -33 -45 -34 -86 -55 -194 -98
-123 -49 -175 -57 -263 -42 l-71 12 -6 50 c-3 28 -2 105 3 171 7 93 15 133 34
176 27 60 77 139 102 159 8 7 15 27 15 44 0 57 -62 95 -124 76z m-193 -163 c3
-8 -1 -65 -9 -128 -7 -63 -13 -144 -14 -181 0 -57 -11 -90 -25 -76 -2 2 -11
51 -21 108 -17 109 -24 244 -13 270 9 20 75 26 82 7z m-8 -547 c3 -5 16 -10
28 -11 21 0 75 -55 65 -65 -3 -2 -24 11 -48 31 -23 19 -53 35 -66 35 -13 0
-24 5 -24 10 0 6 9 10 19 10 11 0 23 -4 26 -10z m-145 -128 c0 -54 3 -60 38
-94 20 -19 45 -38 55 -41 28 -10 19 -27 -14 -27 -24 0 -30 4 -25 15 4 11 -1
15 -18 15 -15 0 -26 7 -29 20 -3 11 -12 20 -20 20 -24 0 -37 116 -15 138 22
22 28 12 28 -46z m848 -9 l-3 -28 -197 0 c-135 0 -201 4 -209 12 -14 14 27 20
190 27 63 3 116 8 119 11 3 3 27 5 54 5 48 0 49 -1 46 -27z m-1050 1 c47 -6
49 -15 5 -20 -15 -1 -46 -5 -68 -8 -22 -4 -67 -9 -100 -12 -33 -2 -98 -8 -145
-13 -47 -4 -87 -7 -89 -5 -2 2 -1 18 3 37 l6 34 173 -4 c94 -2 192 -6 215 -9z
m619 -10 c-3 -3 -12 -4 -19 -1 -8 3 -5 6 6 6 11 1 17 -2 13 -5z m-157 -25 c0
-27 -37 -79 -56 -79 -20 0 -17 18 5 30 11 5 22 23 26 40 8 34 25 41 25 9z
m-126 -337 c1 -28 4 -48 7 -47 5 3 27 -142 45 -294 l7 -54 -29 7 c-16 4 -30 8
-31 9 0 1 -6 43 -12 92 -14 118 -13 361 1 347 6 -6 11 -33 12 -60z"/>
<path d="M3314 2355 c-4 -9 1 -50 11 -90 18 -71 18 -76 0 -182 -21 -123 -21
-213 2 -256 24 -48 62 -77 99 -77 30 0 36 5 61 53 23 44 28 64 28 132 0 89
-26 207 -59 264 -27 48 -115 165 -127 169 -5 2 -12 -4 -15 -13z m120 -227 c41
-117 46 -238 11 -292 -22 -33 -30 -33 -60 0 -44 48 -43 84 8 287 6 26 15 47
18 47 4 0 14 -19 23 -42z"/>
<path d="M8149 1676 c-2 -3 -27 -7 -54 -10 -68 -8 -153 -35 -193 -61 -40 -27
-116 -124 -145 -185 -41 -87 -28 -236 30 -342 36 -66 113 -134 193 -171 58
-26 76 -29 159 -29 51 0 103 5 115 11 11 6 46 20 76 32 67 25 106 54 187 136
68 68 75 104 19 94 -23 -5 -55 11 -61 29 -4 14 -15 20 -33 20 -25 0 -27 -3
-27 -40 0 -33 -7 -47 -36 -75 l-35 -36 -11 23 c-28 58 -113 431 -113 497 l0
39 35 -10 c19 -6 49 -24 68 -39 28 -23 33 -33 29 -58 -6 -46 19 -50 61 -10 19
18 52 38 73 44 22 6 40 17 42 25 2 14 -39 40 -62 40 -5 0 -21 11 -35 24 -38
36 -111 56 -200 56 -43 0 -80 -2 -82 -4z m215 -67 c20 -12 36 -25 36 -30 0
-16 -16 -10 -55 21 -44 35 -33 40 19 9z m-189 -61 c4 -35 11 -83 16 -108 8
-36 7 -47 -5 -55 -15 -11 -134 -10 -145 1 -3 3 13 41 37 85 23 43 42 85 42 92
0 19 30 58 40 52 4 -3 11 -33 15 -67z m-130 -5 c-4 -27 -14 -64 -22 -83 -8
-19 -26 -71 -40 -115 -15 -44 -32 -89 -38 -100 -7 -11 -15 -32 -19 -47 -17
-72 -50 6 -50 117 0 73 3 86 32 137 31 54 113 138 135 138 5 0 7 -19 2 -47z
m-166 -50 c-14 -21 -30 -51 -37 -66 -17 -40 -15 -203 4 -252 9 -22 21 -59 28
-82 8 -30 23 -50 51 -71 22 -16 49 -39 60 -51 l19 -22 -43 23 c-56 29 -117 98
-150 168 -21 46 -26 69 -26 145 0 99 15 141 78 216 39 47 48 42 16 -8z m335
-175 c7 -9 66 -256 66 -275 0 -12 -5 -25 -10 -28 -6 -4 -8 -10 -5 -15 12 -19
-34 -50 -72 -50 -90 1 -243 90 -243 142 0 26 21 100 32 113 4 5 8 14 8 21 0 6
9 32 20 57 l20 45 91 -3 c50 -2 92 -5 93 -7z"/>
<path d="M8081 1251 c-10 -7 -12 -20 -7 -50 6 -41 6 -41 -20 -31 -34 13 -54
-2 -54 -40 0 -32 23 -56 42 -44 7 5 21 10 31 11 21 4 23 -29 2 -47 -36 -30 4
-65 61 -54 30 6 35 10 29 28 -3 11 -8 35 -12 53 l-5 32 43 -2 c43 -2 44 -1 47
31 3 27 -1 34 -23 42 -15 6 -31 8 -36 4 -12 -7 -11 3 2 28 6 11 7 24 2 28 -13
12 -87 20 -102 11z"/>
<path d="M8680 1591 c0 -11 5 -23 10 -26 22 -14 8 -23 -21 -15 -38 11 -73 -1
-94 -33 -29 -44 4 -86 68 -87 21 0 23 38 2 46 -8 4 -15 10 -15 15 0 20 24 7
67 -36 43 -44 66 -54 77 -36 10 15 -22 152 -39 172 -24 25 -55 25 -55 0z"/>
<path d="M8620 1356 c0 -20 27 -34 76 -38 36 -3 39 -1 39 22 0 23 -4 25 -57
28 -47 2 -58 0 -58 -12z"/>
<path d="M8654 1264 c-56 -27 -54 -127 3 -153 56 -26 92 -10 109 49 27 92 -30
145 -112 104z m64 -68 c2 -10 -2 -22 -10 -27 -25 -17 -38 -9 -38 22 0 26 3 30
22 27 13 -2 24 -11 26 -22z"/>
<path d="M8695 1076 c-15 -11 -16 -16 -5 -35 15 -29 6 -38 -23 -22 -13 7 -41
11 -63 9 -37 -3 -39 -5 -42 -40 -4 -50 22 -90 57 -86 38 4 42 44 5 58 -15 6
-24 13 -20 17 11 11 50 -18 81 -60 35 -47 45 -52 68 -35 15 12 15 15 0 46 -15
31 -15 35 5 70 23 41 21 49 -19 74 -22 14 -30 15 -44 4z"/>
</g>
</svg>
