<?xml version="1.0" standalone="no"?>
<!DOCTYPE svg PUBLIC "-//W3C//DTD SVG 20010904//EN"
 "http://www.w3.org/TR/2001/REC-SVG-20010904/DTD/svg10.dtd">
<svg version="1.0" xmlns="http://www.w3.org/2000/svg"
 width="1232.000000pt" height="1223.000000pt" viewBox="0 0 1232.000000 1223.000000"
 preserveAspectRatio="xMidYMid meet">
<metadata>
Created by potrace 1.13, written by Peter Selinger 2001-2015
</metadata>
<g transform="translate(0.000000,1223.000000) scale(0.100000,-0.100000)"
fill="#000000" stroke="none">
<path d="M6228 11623 c-20 -5 -40 -55 -42 -106 -1 -21 -7 -41 -13 -45 -6 -4
-11 -20 -11 -36 0 -16 -6 -33 -14 -37 -10 -5 -14 -18 -10 -34 2 -15 0 -25 -7
-25 -7 0 -9 -4 -6 -10 3 -5 -1 -20 -9 -32 -9 -12 -16 -28 -16 -35 0 -6 -5 -24
-11 -40 -7 -15 -13 -70 -14 -122 -2 -62 -6 -96 -15 -101 -8 -5 -10 -18 -6 -36
4 -20 4 -24 -3 -15 -6 9 -9 -11 -8 -60 1 -85 -3 -119 -15 -136 -5 -6 -9 -20
-8 -30 4 -34 0 -52 -15 -67 -10 -10 -12 -17 -5 -21 8 -5 7 -11 0 -20 -7 -8 -8
-20 -4 -27 11 -17 6 -70 -11 -117 -12 -35 -12 -39 1 -34 16 6 20 -22 4 -32 -6
-4 -8 -11 -4 -16 3 -5 0 -17 -7 -25 -9 -11 -10 -20 -2 -32 11 -19 0 -62 -17
-62 -5 0 -10 -4 -10 -10 0 -5 7 -10 16 -10 13 0 14 -3 5 -13 -6 -8 -8 -17 -4
-21 4 -4 0 -4 -10 0 -13 5 -16 2 -11 -9 3 -10 12 -13 22 -9 15 5 15 4 3 -11
-7 -10 -14 -35 -15 -57 0 -30 -5 -40 -17 -40 -14 0 -15 -7 -9 -42 5 -23 6 -48
3 -55 -3 -8 2 -13 13 -14 11 0 14 -3 7 -6 -7 -2 -13 -14 -13 -26 0 -18 2 -19
10 -7 5 8 10 10 10 4 0 -6 -3 -14 -6 -17 -12 -11 -13 -71 -2 -84 8 -10 6 -13
-5 -13 -21 0 -29 -50 -8 -51 9 0 11 -3 4 -5 -7 -3 -10 -20 -7 -42 2 -20 -2
-59 -9 -87 -11 -42 -11 -60 0 -109 7 -32 11 -61 8 -64 -3 -3 -5 3 -5 13 0 10
-3 15 -7 11 -10 -10 -11 -76 -1 -76 4 0 4 -10 -1 -23 -5 -12 -7 -51 -4 -87 5
-83 5 -111 -4 -185 -8 -69 -8 -132 -1 -227 3 -37 3 -70 -1 -73 -9 -9 -9 -215
0 -215 4 0 3 -15 -1 -32 -5 -18 -11 -88 -14 -156 -3 -67 -8 -127 -12 -134 -4
-6 -8 -52 -10 -102 -1 -50 -5 -98 -8 -106 -10 -30 -17 -129 -19 -295 -4 -192
-9 -227 -43 -271 -13 -17 -21 -34 -18 -37 10 -10 -7 -47 -21 -47 -27 0 -119
109 -177 210 -28 48 -111 125 -175 162 -60 34 -151 111 -188 159 -24 31 -121
105 -188 144 -27 15 -64 42 -83 60 -19 18 -34 30 -34 27 0 -2 -10 8 -22 24
-13 16 -39 42 -58 59 -19 16 -54 49 -79 73 -24 23 -47 42 -51 42 -3 0 -15 8
-26 18 -11 9 -40 33 -64 52 -25 19 -73 62 -108 95 -35 33 -70 64 -78 68 -8 4
-14 12 -14 17 0 15 -139 150 -155 150 -46 0 -242 130 -257 171 -4 10 -14 19
-21 19 -8 0 -33 20 -56 45 -23 25 -86 71 -139 102 -53 31 -117 72 -142 90 -25
18 -67 48 -95 67 -60 40 -212 179 -279 255 -27 30 -70 76 -97 103 -27 27 -59
68 -70 91 -12 23 -27 45 -35 50 -7 4 -30 39 -50 77 -21 39 -47 73 -57 76 -24
7 -57 62 -57 94 -1 31 -68 131 -95 141 -30 10 -78 -31 -78 -68 0 -28 77 -198
94 -209 5 -3 9 -13 9 -23 0 -10 8 -25 18 -34 18 -16 22 -25 92 -167 23 -47 45
-87 49 -90 15 -11 101 -129 101 -139 0 -24 45 -78 91 -110 28 -19 48 -40 47
-49 -2 -9 7 -16 22 -19 14 -2 36 -17 50 -34 14 -18 42 -52 63 -78 20 -25 37
-50 37 -56 1 -5 14 -26 30 -45 17 -19 30 -39 30 -45 0 -5 8 -15 19 -22 10 -6
32 -34 47 -62 16 -27 54 -76 84 -108 30 -32 69 -78 85 -103 17 -25 33 -46 37
-48 4 -2 41 -45 82 -95 78 -96 96 -115 143 -158 48 -44 137 -159 168 -218 35
-66 64 -108 116 -169 21 -24 45 -67 54 -95 9 -29 30 -80 46 -115 16 -35 29
-65 29 -68 0 -13 64 -94 75 -94 6 0 24 -16 39 -35 16 -19 34 -35 40 -35 6 0
27 -19 46 -42 65 -79 120 -155 120 -164 0 -5 9 -15 20 -22 12 -7 18 -17 15
-22 -3 -4 1 -14 8 -22 19 -20 98 -148 91 -148 -4 0 5 -15 20 -34 14 -19 26
-47 26 -61 0 -15 13 -44 30 -65 16 -20 27 -40 24 -43 -3 -3 4 -10 15 -16 12
-7 18 -17 15 -26 -4 -9 0 -15 9 -15 20 0 26 -19 16 -47 -5 -14 -5 -23 1 -23 6
0 10 -11 10 -24 0 -13 7 -29 15 -36 8 -7 12 -16 9 -21 -3 -5 -1 -9 5 -9 6 0 8
-6 5 -14 -3 -7 2 -20 10 -29 21 -20 20 -27 -3 -27 -10 0 -21 -9 -24 -19 -3
-14 -11 -18 -26 -14 -12 3 -21 1 -21 -6 0 -6 -15 -20 -32 -31 -28 -17 -51 -20
-163 -20 -98 0 -141 -4 -175 -17 -35 -14 -95 -19 -265 -25 -190 -6 -388 -16
-645 -32 -36 -3 -81 -7 -100 -10 -73 -13 -140 -14 -146 -4 -4 7 -9 6 -14 -2
-6 -9 -16 -10 -41 -1 -73 23 -129 26 -444 21 -66 -1 -205 2 -310 5 -104 4
-197 7 -205 6 -8 -1 -46 -3 -85 -4 -38 -2 -83 -6 -100 -10 -56 -12 -90 -16
-220 -22 -71 -4 -133 -9 -137 -11 -4 -2 -64 -9 -135 -14 -137 -10 -233 -27
-233 -39 0 -7 -104 -22 -150 -23 -52 0 -240 -44 -270 -62 -31 -20 -156 -63
-230 -80 -14 -3 -54 -32 -89 -65 -37 -35 -69 -57 -77 -54 -8 3 -14 -1 -14 -10
0 -8 -10 -17 -22 -21 -26 -6 -68 -66 -68 -95 0 -76 51 -94 97 -35 35 44 64 60
128 69 27 5 63 16 80 26 19 12 49 19 82 19 35 0 64 7 87 21 30 18 46 20 103
15 78 -8 102 -8 312 0 99 3 164 1 180 -6 44 -18 252 -50 325 -50 53 0 94 -9
186 -40 85 -29 134 -40 177 -40 32 0 101 -11 153 -25 52 -13 129 -27 170 -30
87 -7 137 -12 165 -19 11 -2 23 -5 27 -5 4 -1 14 -8 23 -17 12 -12 19 -13 29
-5 10 8 24 7 52 -3 33 -11 93 -23 164 -31 8 -1 30 -5 48 -9 40 -10 54 -12 157
-27 97 -14 140 -17 269 -18 55 -1 106 -6 112 -12 7 -6 68 -12 136 -15 186 -5
281 -14 295 -26 7 -6 13 -8 13 -4 0 3 12 1 28 -5 73 -30 257 -48 517 -53 78
-1 131 -7 152 -16 28 -13 31 -17 26 -50 -3 -19 -11 -42 -18 -50 -7 -8 -15 -22
-18 -30 -5 -13 -6 -13 -7 0 0 8 -7 0 -15 -17 -8 -18 -20 -33 -28 -33 -19 0
-58 -44 -54 -61 2 -8 2 -11 0 -7 -6 10 -48 -34 -67 -69 -9 -18 -23 -33 -31
-33 -9 0 -12 -6 -9 -15 4 -8 2 -15 -3 -15 -5 0 -18 -8 -29 -19 -11 -10 -30
-24 -43 -30 -12 -7 -20 -15 -17 -18 3 -4 -3 -12 -14 -20 -11 -8 -20 -20 -20
-26 0 -7 -9 -18 -20 -25 -11 -7 -20 -18 -20 -26 0 -8 -14 -27 -30 -43 -17 -15
-41 -44 -53 -63 -27 -43 -82 -100 -98 -100 -6 0 -8 -7 -5 -16 3 -8 2 -13 -3
-9 -5 3 -22 -9 -38 -26 -15 -18 -36 -40 -46 -51 -10 -11 -17 -24 -14 -31 4
-14 -23 -45 -54 -61 -22 -11 -46 -44 -72 -101 -8 -16 -26 -44 -40 -61 -15 -18
-27 -38 -27 -45 0 -7 -3 -9 -7 -6 -9 9 -33 -12 -33 -30 0 -18 -25 -44 -34 -36
-3 4 -6 2 -6 -3 0 -5 -12 -24 -27 -41 -43 -49 -63 -76 -63 -88 0 -5 -14 -25
-30 -44 -17 -18 -30 -38 -30 -44 0 -6 -6 -18 -14 -26 -8 -9 -16 -23 -18 -31
-2 -8 -13 -23 -25 -33 -13 -10 -23 -26 -23 -36 0 -9 -8 -24 -17 -32 -10 -9
-26 -29 -35 -45 -32 -54 -43 -68 -65 -87 -13 -10 -23 -24 -23 -32 0 -7 -7 -15
-15 -19 -8 -3 -15 -11 -15 -19 0 -7 -11 -23 -24 -34 -13 -11 -32 -35 -42 -51
-10 -17 -23 -33 -30 -34 -11 -3 -102 -82 -194 -168 -21 -19 -55 -44 -76 -55
-40 -20 -164 -140 -164 -158 0 -11 -30 -44 -87 -99 -18 -17 -30 -34 -28 -39 3
-4 -4 -10 -15 -14 -11 -3 -20 -9 -20 -13 0 -4 -23 -31 -50 -61 -28 -30 -50
-58 -50 -62 0 -4 -9 -11 -20 -14 -11 -3 -20 -12 -20 -18 0 -7 -9 -18 -20 -25
-12 -7 -18 -17 -15 -21 2 -5 -2 -11 -10 -15 -8 -3 -15 -10 -15 -16 0 -5 -22
-33 -50 -61 -27 -28 -50 -56 -50 -63 0 -6 -16 -21 -36 -34 -19 -12 -38 -30
-41 -40 -4 -9 -17 -28 -30 -42 -13 -14 -23 -30 -23 -37 0 -7 -10 -23 -22 -37
-38 -41 -48 -55 -48 -68 0 -7 -19 -33 -41 -58 -22 -25 -47 -60 -55 -78 -8 -17
-18 -32 -22 -32 -7 0 -42 -68 -42 -83 0 -3 -11 -18 -25 -33 -14 -15 -25 -34
-25 -43 0 -9 -7 -29 -15 -45 -8 -15 -15 -38 -15 -51 0 -12 -6 -38 -14 -56 -7
-19 -16 -51 -20 -71 -6 -34 -5 -38 14 -38 26 0 90 47 90 67 0 30 67 142 115
191 80 83 155 166 155 173 0 4 20 22 44 40 25 17 50 44 56 60 7 15 31 43 55
61 24 18 51 46 62 61 10 15 41 45 68 67 28 21 66 57 85 80 19 23 56 57 82 76
25 19 60 56 77 83 36 56 115 127 169 152 20 9 78 54 127 100 117 109 177 153
316 232 171 96 280 163 314 191 16 15 38 26 47 26 10 0 18 6 18 13 0 19 37 50
100 83 78 41 159 101 259 194 15 14 38 32 51 40 58 38 130 94 130 102 0 4 4 8
9 8 9 0 51 35 135 113 23 21 53 46 69 55 15 9 27 20 27 24 0 4 7 8 15 8 8 0
15 3 15 8 0 4 17 18 38 31 20 14 64 51 97 82 33 32 76 65 95 73 19 8 50 26 69
40 19 14 41 26 48 26 7 0 13 5 13 10 0 6 6 10 13 10 6 0 26 12 42 26 38 33
189 132 219 144 12 4 42 21 67 38 65 44 118 72 134 72 8 0 15 4 15 8 0 5 11
14 25 20 21 10 28 8 43 -8 17 -19 50 -108 50 -140 1 -8 2 -69 3 -135 1 -66 5
-128 10 -137 5 -10 5 -19 0 -22 -12 -8 -8 -65 5 -74 5 -4 10 -25 10 -47 1 -51
13 -135 23 -155 4 -8 6 -48 5 -88 -2 -43 3 -90 11 -113 8 -21 11 -39 7 -39 -4
0 -1 -4 6 -9 10 -6 15 -39 16 -117 1 -60 6 -115 10 -123 5 -7 8 -39 8 -70 0
-31 4 -61 10 -68 5 -7 5 -13 0 -17 -9 -5 -6 -46 5 -76 6 -14 14 -108 16 -197
1 -23 4 -40 8 -37 4 2 12 -3 19 -11 8 -10 9 -15 2 -15 -6 0 -9 -7 -6 -15 4 -9
0 -15 -7 -15 -11 0 -11 -3 1 -10 10 -6 11 -10 3 -10 -9 0 -6 -12 8 -36 16 -29
17 -39 8 -45 -10 -6 -10 -11 1 -24 12 -15 12 -19 -5 -31 -18 -13 -18 -15 -1
-33 17 -18 17 -22 2 -42 -11 -16 -12 -26 -5 -35 10 -12 20 -70 20 -111 0 -13
-1 -44 -1 -70 -1 -52 3 -83 11 -98 7 -13 3 -262 -5 -294 -3 -14 -2 -29 3 -35
6 -9 7 -71 1 -71 -6 0 -7 -61 -1 -77 4 -11 4 -40 1 -64 -4 -24 -3 -47 1 -51
10 -11 15 -80 6 -89 -10 -11 -9 -36 2 -29 12 7 10 -38 -2 -46 -13 -9 -18 -322
-5 -330 6 -4 9 -38 8 -80 -4 -120 -1 -438 5 -524 3 -44 14 -105 25 -136 11
-30 20 -61 20 -68 0 -6 18 -40 40 -73 22 -34 40 -70 40 -80 0 -21 39 -24 89
-7 l32 11 -7 62 c-4 33 -11 69 -15 78 -5 9 -9 108 -9 220 0 158 4 213 16 248
10 29 17 91 19 175 2 85 11 163 25 225 28 124 34 165 32 220 -1 25 3 66 9 91
6 26 11 76 11 110 0 65 19 152 44 200 7 14 15 47 18 72 4 26 19 75 35 110 21
43 30 80 32 122 1 33 11 79 21 103 11 28 18 68 18 110 0 101 36 357 53 380 5
7 10 52 11 100 1 48 5 94 11 102 5 8 11 29 12 45 3 54 42 224 63 273 21 49 28
85 36 192 3 36 12 92 19 125 8 33 19 118 25 190 6 71 15 134 19 140 5 5 9 26
9 46 1 20 6 56 12 80 6 24 13 103 16 174 7 180 9 189 42 202 23 9 24 11 6 12
-20 1 -21 6 -20 89 1 88 8 112 29 112 8 0 7 -4 -2 -9 -11 -7 -4 -12 27 -20 23
-7 44 -16 47 -21 6 -10 109 -60 123 -60 4 0 22 -14 40 -30 18 -17 36 -30 40
-30 10 0 57 -37 101 -77 19 -18 38 -33 43 -33 4 0 8 -7 8 -15 0 -8 6 -15 13
-15 6 0 32 -21 56 -45 25 -25 49 -45 55 -45 5 0 17 -6 25 -14 9 -7 37 -25 62
-39 76 -42 93 -51 107 -64 7 -7 24 -16 37 -19 13 -3 26 -12 29 -20 3 -8 11
-14 17 -14 6 0 19 -8 28 -18 9 -9 41 -36 71 -59 48 -37 72 -56 127 -103 7 -5
17 -10 23 -10 5 0 10 -3 10 -7 0 -5 23 -21 51 -38 28 -16 66 -41 84 -55 19
-14 59 -43 90 -65 31 -22 68 -55 83 -74 31 -40 59 -68 133 -134 51 -46 71 -61
164 -123 45 -30 115 -97 115 -110 1 -15 53 -67 105 -106 28 -20 61 -48 74 -62
14 -14 28 -26 33 -26 12 0 46 -29 127 -111 42 -42 94 -89 116 -105 21 -16 78
-68 126 -115 63 -63 100 -91 135 -105 40 -14 197 -108 239 -141 16 -13 137
-87 175 -108 37 -20 70 -44 136 -100 23 -19 70 -54 105 -77 35 -23 69 -46 74
-50 6 -5 40 -32 77 -62 81 -65 223 -143 276 -152 32 -5 44 -2 61 15 39 39 19
91 -48 125 -17 10 -35 24 -38 32 -3 8 -23 24 -44 35 -27 13 -46 34 -63 67 -24
48 -56 74 -139 116 -21 11 -58 46 -85 82 -26 35 -53 63 -59 64 -7 0 -13 5 -13
11 0 13 -66 81 -92 95 -9 5 -62 53 -117 107 -56 53 -105 97 -109 97 -15 0 -78
64 -101 102 -12 21 -42 57 -67 80 -25 24 -59 57 -77 74 -18 16 -51 59 -74 95
-23 35 -62 86 -85 112 -53 60 -67 85 -68 119 0 19 -18 46 -59 90 -32 35 -56
68 -54 74 2 7 -7 14 -20 18 -30 7 -137 120 -137 144 0 11 -28 41 -67 73 -116
92 -185 170 -204 229 -20 60 -49 100 -108 143 -75 55 -141 117 -141 133 0 7
-4 14 -8 16 -4 2 -42 44 -84 93 -42 50 -83 97 -92 104 -9 7 -16 18 -16 23 0
10 2 7 -76 103 -32 39 -65 74 -73 79 -40 23 -131 126 -131 148 0 35 -32 80
-86 124 -27 21 -60 48 -74 61 -72 64 -84 73 -96 73 -8 0 -14 5 -14 11 0 7 -13
24 -29 39 -23 22 -28 35 -25 61 6 48 25 62 91 66 32 2 81 10 108 17 58 16 129
23 315 32 74 3 138 8 141 10 20 12 222 44 314 49 60 4 152 13 205 22 52 8 129
17 170 19 41 3 91 9 110 14 29 8 187 22 240 22 34 0 323 29 330 33 4 2 63 7
131 9 68 3 163 12 211 21 58 10 140 14 250 13 90 -1 210 3 268 11 156 19 281
22 520 12 235 -11 312 -20 350 -41 14 -8 52 -18 85 -22 33 -4 79 -10 103 -14
38 -6 42 -4 42 15 0 14 -11 28 -31 39 -17 9 -50 29 -73 44 -22 15 -53 28 -67
28 -14 0 -34 9 -44 20 -10 11 -23 20 -29 20 -5 0 -24 13 -41 30 -26 25 -47 33
-140 50 -102 18 -216 43 -325 68 -25 6 -70 16 -100 22 -30 6 -71 14 -90 19
-151 37 -393 81 -470 86 -30 1 -78 11 -107 20 -39 13 -73 16 -133 12 -77 -4
-186 3 -275 19 -22 4 -47 7 -55 6 -8 0 -33 6 -55 13 -62 20 -208 43 -350 56
-71 6 -150 13 -175 15 -111 9 -157 18 -185 32 -33 18 -143 23 -210 11 -60 -11
-301 10 -367 31 -44 14 -93 19 -202 21 -142 2 -144 2 -217 37 -80 38 -82 39
-180 45 -59 4 -176 33 -189 47 -3 3 -18 6 -35 8 -16 2 -34 10 -38 18 -5 8 -12
12 -16 9 -11 -6 -23 37 -13 45 5 3 15 14 23 26 8 12 33 42 56 68 23 25 43 50
45 54 2 4 28 29 58 57 30 27 68 67 83 88 16 22 73 85 127 140 89 93 175 191
225 258 11 15 47 62 79 105 72 96 108 131 150 149 35 15 79 60 143 146 43 57
103 118 193 195 53 45 89 94 90 122 1 33 70 117 168 202 28 25 62 65 74 90 13
25 44 71 70 103 27 32 48 62 48 67 0 5 11 22 24 37 14 16 42 48 63 72 21 24
57 65 80 90 24 25 43 49 43 52 0 4 38 35 85 70 47 35 87 71 90 79 5 16 134
150 236 246 30 28 68 66 85 85 50 55 145 140 170 151 13 6 26 20 30 30 3 10
22 29 42 42 20 13 58 44 84 69 25 25 57 48 70 52 13 4 37 17 53 30 42 31 131
75 153 75 10 0 29 11 42 25 l23 24 -28 11 c-36 14 -91 3 -140 -29 -22 -14 -45
-24 -52 -23 -7 2 -29 -9 -50 -22 -21 -14 -67 -33 -103 -42 -36 -9 -83 -25
-104 -35 -22 -10 -44 -19 -49 -19 -9 0 -147 -88 -157 -100 -14 -17 -68 -49
-74 -43 -3 3 -6 1 -6 -5 0 -6 -27 -27 -60 -48 -33 -20 -60 -41 -60 -46 0 -5
-4 -7 -9 -4 -5 3 -23 -8 -41 -24 -18 -17 -38 -30 -45 -30 -7 0 -16 -7 -19 -16
-3 -8 -10 -13 -15 -10 -5 4 -18 -4 -28 -16 -10 -13 -29 -29 -43 -36 -50 -25
-67 -38 -100 -72 -19 -19 -36 -34 -37 -32 -9 7 -23 0 -23 -13 0 -8 -9 -15 -20
-15 -12 0 -20 -7 -20 -17 0 -9 -3 -14 -6 -11 -3 3 -26 -14 -51 -38 -24 -24
-51 -44 -58 -44 -12 0 -30 -27 -27 -42 2 -7 -61 -38 -77 -38 -6 0 -11 -7 -11
-15 0 -8 -3 -14 -7 -14 -19 3 -34 -2 -29 -9 4 -6 -87 -65 -104 -67 -3 0 -15
-6 -26 -13 -12 -6 -24 -9 -27 -5 -4 3 -9 -2 -13 -11 -3 -9 -10 -16 -15 -16 -5
0 -18 -9 -29 -20 -11 -11 -27 -20 -35 -20 -8 0 -15 -4 -15 -9 0 -12 -108 -91
-126 -91 -8 0 -17 -6 -20 -14 -3 -8 -23 -21 -44 -30 -21 -8 -41 -20 -45 -26
-3 -5 -12 -10 -20 -10 -15 0 -110 -56 -139 -82 -11 -10 -25 -18 -32 -18 -7 0
-14 -4 -16 -8 -1 -5 -30 -21 -62 -36 -32 -16 -64 -32 -70 -37 -6 -6 -41 -29
-77 -53 -37 -23 -106 -74 -155 -112 -48 -38 -115 -88 -148 -111 -33 -24 -73
-59 -90 -79 -39 -48 -203 -184 -221 -184 -8 0 -20 -8 -27 -17 -12 -16 -118
-106 -176 -150 -13 -10 -34 -27 -45 -38 -12 -12 -37 -30 -55 -40 -17 -11 -32
-23 -32 -28 0 -4 -16 -15 -35 -23 -20 -8 -38 -21 -42 -30 -8 -23 -71 -46 -93
-34 -17 9 -35 68 -31 103 1 9 -2 17 -6 17 -9 0 -31 93 -32 135 -9 226 -22 314
-57 383 -13 28 -23 68 -39 164 -2 14 -5 30 -7 35 -1 4 1 47 5 94 7 73 4 99
-14 165 -36 131 -37 141 -30 205 4 34 4 84 0 111 -5 28 -8 53 -7 57 1 3 -4 19
-10 34 -7 16 -9 33 -6 38 3 6 1 15 -4 22 -11 12 -14 69 -13 207 1 41 -3 89 -8
107 -5 17 -7 34 -5 36 3 2 -2 22 -10 43 -9 22 -20 66 -25 99 -9 55 -8 61 11
78 l21 18 -21 6 c-20 5 -21 11 -20 82 0 61 -4 87 -23 126 -16 35 -24 71 -26
120 -1 39 -2 70 -3 70 0 0 -3 54 -5 119 -3 65 -11 128 -17 140 -7 12 -13 57
-13 101 -1 57 -9 102 -28 155 -21 63 -26 99 -31 225 -3 83 -11 177 -17 210
-14 69 -17 465 -5 508 6 18 4 43 -4 68 -13 39 -25 45 -72 32z m273 -5175 c34
-22 60 -48 66 -65 6 -15 16 -44 23 -63 6 -19 14 -83 17 -141 5 -100 4 -111
-21 -164 -55 -120 -143 -175 -279 -175 -85 0 -245 28 -284 49 -48 25 -73 108
-73 246 0 119 21 205 58 235 11 9 24 26 31 38 14 27 80 61 144 76 28 6 95 9
156 6 103 -5 109 -6 162 -42z"/>
<path d="M7750 9860 c-43 -24 -67 -30 -113 -30 -32 0 -71 -7 -87 -15 -40 -21
-64 -69 -57 -116 3 -20 1 -41 -3 -46 -32 -34 -40 -153 -15 -204 19 -37 73 -89
93 -89 6 0 12 -4 12 -9 0 -4 34 -11 76 -14 74 -5 133 7 149 33 3 5 26 10 50
10 57 0 135 40 201 103 44 42 54 58 64 106 15 73 5 98 -59 147 -33 25 -53 49
-57 67 -11 46 -64 79 -136 83 -56 4 -70 1 -118 -26z"/>
<path d="M4925 9811 c-40 -10 -68 -26 -103 -59 -35 -32 -55 -68 -47 -82 3 -6
2 -10 -3 -10 -13 0 -40 -77 -48 -138 -16 -123 46 -183 203 -197 80 -7 84 -6
139 25 57 32 155 107 186 143 10 11 30 44 44 74 24 51 24 57 11 96 -10 32 -25
50 -63 74 -27 18 -54 37 -60 42 -15 12 -159 41 -198 40 -17 -1 -44 -4 -61 -8z"/>
<path d="M2938 7915 c-66 -14 -133 -56 -152 -94 -36 -74 -39 -105 -22 -206 18
-102 31 -131 81 -180 27 -27 34 -30 80 -25 28 3 63 2 79 -2 45 -12 122 9 141
38 25 39 48 64 59 64 20 0 72 50 95 92 l23 44 -24 60 c-41 101 -71 140 -125
160 -26 10 -63 29 -82 41 -37 25 -68 27 -153 8z"/>
<path d="M9517 7709 c-47 -24 -63 -39 -78 -72 -11 -23 -37 -55 -59 -72 l-40
-30 2 -110 3 -110 40 -40 c91 -90 137 -104 212 -67 21 10 46 17 56 14 13 -3
17 1 15 14 -2 15 5 20 37 24 22 4 54 13 70 22 17 8 42 18 57 22 34 8 73 66 83
124 22 135 -56 245 -190 266 -20 3 -53 15 -75 26 -50 26 -63 25 -133 -11z"/>
<path d="M9634 5065 c-19 -8 -37 -9 -45 -4 -8 5 -26 9 -41 9 -37 0 -165 -66
-179 -93 -7 -12 -29 -44 -49 -72 -54 -73 -64 -109 -45 -173 11 -35 25 -59 45
-74 17 -12 32 -29 35 -39 9 -27 67 -49 130 -49 48 0 63 5 95 30 21 17 43 30
49 30 28 0 141 142 141 177 0 10 6 30 14 45 12 23 11 31 -9 75 -13 26 -30 65
-39 85 -21 50 -61 71 -102 53z"/>
<path d="M2817 5013 c-43 -29 -70 -58 -112 -122 -51 -78 -55 -89 -55 -143 0
-70 8 -89 64 -145 22 -23 52 -60 65 -82 28 -46 61 -61 132 -61 44 0 51 3 80
40 18 22 37 40 44 40 20 0 72 44 109 93 20 26 36 49 36 52 0 2 13 26 28 52 47
81 40 135 -26 223 -57 75 -90 90 -208 90 -99 0 -101 0 -157 -37z"/>
<path d="M4965 3308 c-22 -5 -67 -11 -99 -14 -59 -7 -153 -40 -142 -51 3 -4
-4 -11 -15 -17 -28 -15 -72 -94 -63 -115 3 -9 8 -45 9 -81 4 -87 17 -115 78
-178 69 -71 99 -87 139 -73 17 6 40 11 52 11 23 0 76 41 76 59 0 6 18 11 45
11 26 0 59 7 75 15 53 28 75 101 46 154 -10 18 -11 34 -4 59 12 42 4 77 -25
112 -12 15 -29 37 -37 49 -8 12 -33 32 -55 44 -32 18 -48 21 -80 15z"/>
<path d="M7460 3120 c-19 -23 -41 -48 -47 -55 -29 -30 -65 -112 -65 -147 1
-20 10 -59 22 -86 18 -42 29 -54 76 -77 45 -23 63 -27 102 -22 54 6 133 39
178 73 17 13 36 24 41 24 6 0 19 12 28 28 10 15 24 31 32 35 7 4 13 14 13 21
0 7 7 26 15 42 20 42 5 97 -37 135 -18 17 -41 38 -51 47 -15 14 -43 18 -145
20 l-127 3 -35 -41z"/>
</g>
</svg>
