<?xml version="1.0" standalone="no"?>
<!DOCTYPE svg PUBLIC "-//W3C//DTD SVG 20010904//EN"
 "http://www.w3.org/TR/2001/REC-SVG-20010904/DTD/svg10.dtd">
<svg version="1.0" xmlns="http://www.w3.org/2000/svg"
 width="833.000000pt" height="864.000000pt" viewBox="0 0 833.000000 864.000000"
 preserveAspectRatio="xMidYMid meet">
<metadata>
Created by potrace 1.13, written by Peter Selinger 2001-2015
</metadata>
<g transform="translate(0.000000,864.000000) scale(0.100000,-0.100000)"
fill="#000000" stroke="none">
<path d="M4474 8036 c-27 -12 -32 -21 -39 -62 -4 -27 -11 -54 -16 -60 -5 -6
-12 -38 -15 -70 -3 -33 -10 -64 -15 -70 -5 -6 -10 -37 -11 -68 -2 -40 -6 -56
-16 -56 -10 0 -12 -7 -9 -21 5 -19 -3 -53 -23 -104 -10 -25 -31 -121 -34 -158
-2 -15 -8 -37 -14 -50 -29 -57 -42 -102 -33 -105 7 -2 6 -9 -2 -17 -7 -7 -12
-28 -11 -46 1 -18 -9 -57 -23 -88 -14 -31 -27 -61 -28 -67 -2 -6 -11 -29 -20
-50 -30 -69 -33 -78 -45 -131 -6 -28 -18 -60 -25 -70 -8 -10 -15 -26 -15 -35
0 -10 -4 -18 -9 -18 -11 0 -48 -114 -50 -155 -3 -47 -6 -69 -14 -81 -8 -14
-19 -84 -22 -149 -1 -27 -6 -58 -10 -68 -4 -10 -5 -20 -2 -23 3 -3 -1 -27 -9
-52 -8 -26 -19 -92 -24 -147 -9 -113 -21 -175 -50 -255 -11 -31 -20 -74 -20
-97 0 -27 -6 -46 -19 -57 -17 -16 -28 -37 -45 -89 -5 -17 -7 -17 -33 0 -15 10
-37 27 -49 38 -58 54 -84 74 -104 80 -12 4 -35 21 -51 38 -90 97 -149 163
-149 169 0 4 -17 17 -39 27 -23 12 -48 37 -64 63 -15 25 -43 53 -68 68 -24 14
-62 44 -85 67 -45 46 -144 122 -192 147 -17 9 -37 25 -46 37 -8 12 -32 33 -53
47 -21 14 -40 28 -43 32 -3 3 -21 16 -40 27 -34 21 -100 85 -100 97 0 15 -43
47 -70 53 -17 3 -30 9 -30 14 0 5 -5 9 -11 9 -6 0 -28 15 -48 33 -66 57 -113
91 -152 109 -21 9 -62 41 -92 70 -29 29 -75 66 -101 82 -26 16 -52 39 -58 52
-6 13 -23 26 -38 29 -32 7 -46 22 -82 85 -35 60 -66 94 -106 114 -39 20 -59
15 -96 -23 -24 -25 -27 -35 -22 -65 4 -19 12 -41 19 -49 17 -18 34 -47 54 -87
29 -60 116 -190 127 -190 20 -1 82 -64 110 -112 15 -25 33 -49 41 -52 8 -3 23
-22 35 -43 11 -21 29 -49 40 -63 11 -14 31 -56 44 -94 14 -38 36 -85 50 -105
24 -34 38 -73 65 -167 6 -23 18 -45 27 -48 8 -3 24 -27 36 -53 11 -27 30 -61
43 -78 12 -16 32 -50 45 -75 12 -25 29 -49 36 -53 8 -4 21 -22 30 -38 8 -17
35 -50 59 -73 25 -23 52 -60 61 -81 24 -59 60 -103 103 -125 21 -10 46 -31 56
-47 10 -15 24 -32 32 -36 7 -4 22 -25 32 -45 11 -21 47 -67 80 -102 34 -36 71
-76 84 -90 12 -14 41 -47 64 -73 25 -28 43 -58 43 -72 0 -13 4 -25 8 -27 12
-5 52 -74 62 -107 6 -23 4 -34 -11 -50 -20 -22 -81 -51 -105 -51 -8 0 -33 -9
-57 -19 -53 -25 -214 -64 -231 -58 -8 3 -17 2 -22 -3 -5 -4 -36 -11 -69 -14
-32 -3 -64 -11 -69 -16 -6 -6 -22 -10 -37 -10 -15 0 -38 -4 -51 -9 -13 -5 -53
-11 -91 -15 -37 -3 -77 -8 -90 -11 -12 -2 -47 -7 -77 -10 -30 -3 -68 -7 -85
-9 -16 -2 -54 -7 -82 -11 -36 -5 -57 -4 -67 4 -9 7 -15 8 -18 2 -3 -10 -50
-23 -81 -22 -10 0 -37 -7 -60 -15 -23 -8 -67 -17 -97 -21 -30 -3 -59 -9 -65
-12 -5 -4 -39 -8 -74 -10 -36 -1 -92 -9 -125 -17 -34 -9 -79 -19 -101 -24 -53
-11 -75 -20 -75 -30 0 -5 -42 -11 -92 -13 -51 -3 -118 -10 -148 -16 -30 -7
-80 -16 -110 -20 -30 -4 -62 -11 -70 -14 -13 -5 -221 -15 -347 -17 -51 0 -101
-37 -97 -72 1 -13 3 -40 3 -61 l1 -39 67 7 c167 16 453 4 497 -21 13 -8 27 -8
46 -1 25 9 177 -1 251 -17 15 -3 71 -10 125 -15 106 -10 119 -12 198 -35 50
-15 96 -20 251 -30 66 -5 102 -14 200 -49 22 -8 64 -17 93 -20 29 -3 65 -14
80 -23 29 -19 38 -21 117 -28 110 -10 154 -17 206 -32 85 -24 166 -40 274 -54
121 -16 111 -14 162 -30 45 -14 62 -43 39 -70 -16 -17 -48 -90 -40 -90 3 0 -2
-7 -10 -16 -9 -8 -16 -21 -16 -28 0 -7 -11 -25 -25 -40 -14 -15 -25 -35 -25
-45 0 -10 -7 -24 -15 -31 -8 -7 -15 -21 -15 -31 0 -11 -4 -19 -9 -19 -4 0 -23
-34 -41 -75 -18 -41 -36 -75 -40 -75 -4 0 -13 -14 -20 -31 -7 -17 -28 -46 -46
-65 -32 -32 -39 -46 -35 -68 1 -5 -7 -15 -19 -23 -11 -8 -20 -21 -20 -29 0 -9
-20 -36 -45 -61 -25 -24 -45 -48 -45 -53 0 -5 -16 -26 -35 -47 -19 -21 -37
-45 -40 -53 -3 -8 -18 -24 -35 -35 -16 -11 -30 -27 -30 -36 0 -9 -16 -30 -35
-48 -19 -17 -35 -38 -35 -46 0 -14 -53 -101 -83 -135 -7 -8 -23 -36 -36 -62
-13 -27 -28 -48 -33 -48 -4 0 -8 -5 -8 -12 0 -13 -53 -63 -135 -128 -31 -25
-63 -56 -70 -70 -7 -14 -27 -36 -45 -48 -17 -13 -36 -37 -42 -53 -5 -16 -14
-29 -19 -29 -5 0 -9 -5 -9 -11 0 -16 -67 -76 -144 -127 -97 -64 -155 -107
-196 -148 -89 -87 -120 -114 -144 -120 -18 -4 -28 -15 -32 -33 -3 -14 -9 -36
-14 -48 -11 -26 3 -37 64 -49 34 -6 38 -5 33 10 -5 13 -3 15 10 7 18 -10 41 0
83 35 14 11 43 26 66 32 42 12 174 105 174 122 0 6 5 10 10 10 6 0 57 36 114
80 57 44 111 80 121 80 9 0 14 4 10 9 -3 5 5 18 18 28 12 10 47 46 77 81 30
35 84 83 120 107 36 24 82 60 102 79 20 20 41 36 45 36 7 1 82 65 138 120 12
11 27 20 34 20 18 0 74 34 131 79 25 20 68 47 95 61 28 13 52 27 55 31 3 3 24
18 46 32 23 14 58 43 79 64 20 21 34 33 31 26 -3 -6 -2 -14 4 -18 6 -4 10 5
10 20 0 39 116 145 160 145 13 0 24 8 27 20 5 18 29 35 157 109 22 13 47 32
54 43 7 10 19 18 26 18 13 0 153 122 169 148 5 7 14 17 20 22 63 51 79 61 94
58 17 -3 21 -12 42 -93 16 -64 61 -217 75 -255 28 -75 37 -111 41 -167 3 -32
10 -76 16 -98 6 -22 13 -56 16 -75 2 -19 16 -60 30 -90 29 -63 53 -128 51
-138 0 -4 7 -24 16 -45 21 -49 67 -212 70 -252 3 -41 18 -128 23 -138 3 -4 6
-31 8 -60 1 -29 14 -90 28 -137 18 -62 27 -122 32 -225 4 -77 9 -158 11 -180
2 -22 7 -130 13 -240 11 -225 19 -294 33 -312 15 -19 89 -15 114 5 40 33 55
220 40 487 -3 50 0 131 5 180 6 50 10 109 10 132 1 24 4 45 7 47 4 2 4 72 -1
156 -5 101 -4 158 3 171 6 11 8 24 5 29 -3 5 -1 28 4 52 6 24 13 68 16 98 3
30 16 87 27 125 12 39 22 77 23 85 3 25 35 133 50 165 7 17 16 45 20 63 4 18
18 61 32 95 33 84 63 278 63 413 0 105 1 113 23 126 17 11 29 12 52 3 38 -13
76 -34 93 -52 7 -7 19 -13 25 -13 7 -1 26 -19 42 -40 27 -36 130 -100 160
-100 25 0 73 -31 108 -70 19 -22 55 -49 79 -59 24 -10 71 -41 104 -68 32 -27
81 -62 108 -77 27 -16 64 -39 82 -51 18 -12 53 -26 77 -29 34 -5 56 -18 96
-56 29 -28 57 -50 62 -50 5 0 17 -7 27 -16 32 -29 120 -94 126 -94 4 0 28 -15
55 -34 27 -18 67 -36 90 -40 43 -7 35 2 160 -169 20 -27 53 -58 74 -68 21 -11
40 -26 43 -34 3 -7 23 -25 44 -40 22 -15 48 -43 59 -61 14 -23 28 -34 44 -34
26 0 116 -55 124 -77 13 -33 53 6 53 52 0 11 1 31 2 44 2 19 -5 29 -37 45 -22
12 -49 37 -60 56 -11 19 -56 70 -99 114 -77 76 -156 177 -176 224 -5 13 -31
46 -58 75 -26 29 -57 69 -67 90 -11 21 -53 74 -92 118 -40 44 -73 88 -73 98 0
11 -4 21 -8 23 -5 2 -36 41 -70 88 -115 158 -127 174 -151 195 -55 46 -79 73
-86 96 -4 13 -15 35 -25 49 -38 57 -90 160 -90 179 0 12 -6 32 -14 44 -7 12
-19 45 -26 72 -6 28 -15 57 -18 65 -3 8 -6 17 -7 20 -6 27 -49 104 -76 140
-19 25 -48 74 -65 110 -17 36 -48 85 -68 109 -21 24 -44 58 -53 75 -15 29 -15
30 0 17 14 -11 17 -11 17 -1 0 8 3 10 7 7 3 -4 16 -1 28 7 12 8 44 17 71 21
97 13 248 46 283 62 76 33 274 77 416 93 50 6 132 16 184 24 71 10 115 11 185
3 66 -7 110 -7 159 1 92 16 214 15 326 -3 52 -9 138 -15 190 -14 53 1 171 1
263 0 132 -1 175 2 205 14 52 22 73 44 73 76 0 45 -10 59 -41 59 -16 0 -52 11
-79 25 -27 14 -58 25 -68 25 -10 0 -22 3 -26 7 -4 4 -22 6 -40 5 -32 -3 -220
54 -281 86 -21 10 -68 16 -155 19 -68 2 -129 8 -134 13 -6 6 -23 10 -38 10
-16 0 -54 8 -86 19 -63 21 -171 41 -221 41 -17 0 -53 11 -79 25 -26 13 -67 27
-92 31 -60 8 -142 32 -194 55 -31 13 -75 19 -174 23 -73 3 -137 8 -143 12 -6
3 -53 8 -106 10 -52 2 -103 9 -113 14 -9 5 -20 7 -22 4 -3 -2 -64 -6 -137 -8
-110 -4 -131 -2 -131 11 0 23 41 115 68 151 13 18 36 72 52 120 15 48 62 154
104 236 61 120 87 161 131 203 30 30 66 58 80 63 14 5 38 31 54 57 16 27 43
56 59 65 47 28 175 159 204 208 14 25 55 72 90 105 64 62 98 99 99 113 0 4 21
23 46 42 67 52 141 130 163 172 11 20 26 41 33 45 7 4 19 22 26 40 7 18 27 43
45 56 44 35 89 79 119 118 29 39 131 97 230 130 62 21 67 25 50 37 -30 23
-102 53 -131 55 -57 3 -171 -26 -231 -58 -39 -20 -114 -53 -130 -57 -8 -2 -23
-11 -33 -20 -10 -10 -25 -18 -33 -18 -8 0 -15 -5 -15 -12 0 -6 -3 -9 -6 -5 -4
3 -13 0 -21 -8 -8 -8 -23 -15 -34 -15 -10 0 -19 -4 -19 -8 0 -9 -76 -52 -91
-52 -4 0 -31 -22 -59 -50 -28 -27 -57 -50 -65 -50 -8 0 -15 -4 -15 -10 0 -5
-4 -10 -9 -10 -6 0 -44 -34 -85 -77 -42 -42 -76 -73 -76 -70 0 4 -18 -10 -40
-31 -76 -72 -89 -83 -97 -83 -20 -1 -61 -33 -56 -44 2 -7 -7 -15 -21 -19 -14
-3 -26 -13 -26 -21 0 -8 -4 -15 -9 -15 -7 0 -54 -33 -97 -69 -6 -5 -20 -12
-32 -15 -12 -4 -22 -12 -22 -17 0 -5 -6 -9 -14 -9 -7 0 -19 -6 -26 -14 -6 -8
-18 -12 -26 -9 -8 3 -14 -1 -14 -11 0 -10 -6 -13 -15 -10 -8 4 -15 1 -15 -5 0
-6 -8 -11 -17 -11 -10 0 -31 -7 -47 -15 -15 -8 -32 -12 -37 -9 -5 3 -9 -2 -9
-10 0 -9 -6 -13 -14 -10 -7 3 -20 -2 -29 -10 -8 -8 -17 -12 -21 -9 -3 4 -6 -1
-6 -10 0 -10 -6 -14 -14 -11 -8 3 -24 -3 -35 -13 -12 -10 -25 -18 -29 -19 -16
-2 -60 -23 -63 -31 -2 -4 -25 -18 -51 -31 -27 -13 -48 -27 -48 -32 0 -5 -7 -7
-15 -4 -8 4 -15 1 -15 -5 0 -6 -6 -11 -14 -11 -8 0 -27 -13 -43 -30 -15 -16
-34 -30 -40 -30 -7 0 -13 -4 -13 -10 0 -5 -6 -10 -12 -10 -16 0 -85 -75 -93
-101 -7 -21 -7 -21 -47 -23 l-26 -2 4 119 c2 71 -2 146 -10 187 -7 37 -11 76
-9 86 5 34 -51 281 -80 344 -11 25 -23 54 -28 65 -17 38 -29 125 -20 147 7 17
3 30 -13 53 -16 21 -28 63 -40 135 -24 139 -33 652 -16 860 7 80 14 192 16
250 3 58 9 123 14 145 12 54 3 91 -28 115 -29 23 -55 25 -98 6z m-84 -3237
c25 -7 50 -16 55 -20 6 -4 29 -12 52 -18 23 -6 49 -18 57 -26 8 -8 19 -15 25
-15 6 0 11 -3 11 -7 1 -5 20 -30 44 -56 40 -44 72 -118 61 -138 -3 -4 -7 -24
-11 -45 -3 -20 -10 -48 -15 -61 -5 -14 -9 -43 -9 -65 0 -63 -81 -198 -135
-225 -16 -9 -40 -24 -52 -35 -59 -55 -230 -85 -293 -53 -16 8 -33 15 -37 14
-26 -4 -46 5 -82 40 -23 22 -41 42 -41 45 0 4 -13 25 -30 48 -16 22 -30 49
-30 59 0 10 -11 35 -25 55 -31 46 -34 126 -6 199 78 207 105 245 172 245 14 0
34 9 45 21 28 31 52 41 114 49 59 8 63 7 130 -11z"/>
<path d="M3296 7425 c-15 -8 -37 -15 -48 -15 -25 0 -51 -14 -115 -63 -51 -38
-53 -41 -53 -86 0 -47 30 -148 55 -187 7 -11 28 -27 47 -35 18 -7 48 -24 67
-36 25 -17 48 -23 88 -23 59 0 94 15 134 57 55 59 59 90 32 246 -16 94 -17 97
-43 97 -15 0 -43 11 -63 24 -50 34 -68 38 -101 21z"/>
<path d="M5470 7175 c-14 -8 -31 -14 -38 -15 -30 0 -84 -34 -97 -61 -8 -15
-15 -43 -15 -62 0 -37 31 -108 61 -140 10 -12 19 -25 19 -30 0 -6 21 -30 47
-54 46 -42 49 -43 114 -43 63 0 129 22 129 42 0 4 18 19 40 33 23 14 38 29 36
34 -3 5 0 33 6 63 10 50 9 61 -12 119 -27 72 -58 103 -115 117 -59 15 -147 13
-175 -3z"/>
<path d="M1515 5693 c-41 -11 -103 -55 -114 -81 -18 -46 -24 -122 -11 -166 14
-51 92 -138 141 -159 19 -7 57 -15 84 -16 145 -8 150 -7 165 32 28 75 41 98
65 109 22 10 25 18 25 61 0 92 -62 153 -205 201 -75 25 -108 29 -150 19z"/>
<path d="M6713 5618 c-111 -92 -129 -199 -48 -285 59 -64 69 -72 109 -83 26
-7 50 -8 66 -2 14 5 50 10 80 11 84 3 137 51 147 132 4 24 15 56 26 70 l19 27
-26 44 c-14 25 -26 52 -26 61 0 17 -14 22 -80 31 -19 3 -53 10 -75 15 -22 6
-65 11 -96 11 -49 0 -62 -4 -96 -32z"/>
<path d="M6845 3542 c-61 -11 -116 -37 -155 -72 -24 -22 -47 -40 -51 -40 -4 0
-15 -12 -25 -27 -19 -30 -22 -129 -3 -147 5 -6 9 -16 9 -24 0 -8 9 -27 21 -43
11 -16 17 -29 13 -29 -5 0 -2 -6 4 -12 13 -13 186 -49 231 -48 13 0 30 9 38
19 7 11 38 31 67 44 66 31 86 63 86 142 0 67 -8 84 -74 153 -67 70 -112 94
-161 84z"/>
<path d="M1600 3321 c-37 -8 -130 -58 -128 -69 1 -4 -5 -20 -13 -37 -16 -35
-16 -192 0 -208 6 -6 11 -19 11 -28 0 -21 38 -46 98 -65 71 -21 100 -18 184
23 l77 38 0 73 c1 40 6 83 12 94 8 14 8 23 0 31 -6 6 -11 17 -11 25 0 31 -147
135 -185 131 -5 -1 -26 -4 -45 -8z"/>
<path d="M5286 1988 c-27 -9 -52 -16 -55 -13 -4 2 -15 -3 -26 -11 -10 -8 -15
-14 -9 -14 5 0 -5 -9 -22 -19 -39 -24 -51 -59 -48 -140 2 -48 8 -69 23 -85 12
-13 18 -26 14 -29 -3 -4 -2 -7 4 -7 5 0 18 -15 28 -34 25 -47 70 -68 118 -57
21 5 43 14 50 20 8 6 39 13 70 17 51 6 61 12 97 50 36 39 40 49 41 96 3 124
-13 150 -120 205 -92 46 -95 47 -165 21z"/>
<path d="M3155 1868 c-36 -13 -125 -69 -142 -89 -6 -8 -12 -39 -14 -69 -2 -42
3 -63 19 -90 12 -19 22 -42 22 -50 0 -37 45 -98 87 -119 50 -24 70 -26 127 -9
79 23 123 62 161 146 25 54 26 92 5 147 -41 107 -164 169 -265 133z"/>
</g>
</svg>
